<svg xmlns="http://www.w3.org/2000/svg" viewBox="0 0 97 97" shape-rendering="crispEdges"><path fill="#ffffff" d="M0 0h97v97H0z"/><path stroke="#000000" d="M4 4.5h7m1 0h1m2 0h3m1 0h2m1 0h2m2 0h3m2 0h1m1 0h6m2 0h1m2 0h3m3 0h3m2 0h3m1 0h2m2 0h2m2 0h2m8 0h1m4 0h3m1 0h7M4 5.5h1m5 0h1m4 0h1m2 0h2m2 0h1m2 0h2m1 0h1m1 0h2m1 0h5m3 0h1m5 0h1m5 0h2m2 0h6m3 0h3m1 0h4m1 0h1m1 0h1m1 0h1m1 0h1m1 0h1m2 0h1m5 0h1M4 6.5h1m1 0h3m1 0h1m1 0h1m1 0h1m1 0h1m2 0h3m3 0h1m1 0h1m6 0h1m2 0h1m1 0h1m1 0h1m2 0h2m3 0h1m2 0h1m1 0h3m4 0h1m2 0h2m5 0h1m1 0h1m4 0h2m6 0h1m1 0h3m1 0h1M4 7.5h1m1 0h3m1 0h1m1 0h3m2 0h2m1 0h1m3 0h1m3 0h2m1 0h2m1 0h6m2 0h3m1 0h1m2 0h2m4 0h10m1 0h2m4 0h2m1 0h3m1 0h4m1 0h1m1 0h1m1 0h3m1 0h1M4 8.5h1m1 0h3m1 0h1m1 0h1m2 0h2m2 0h1m3 0h2m1 0h1m2 0h1m1 0h9m1 0h2m1 0h2m1 0h5m2 0h1m1 0h8m2 0h1m3 0h2m3 0h1m1 0h3m1 0h1m1 0h1m2 0h1m1 0h3m1 0h1M4 9.5h1m5 0h1m2 0h2m2 0h1m1 0h2m2 0h2m1 0h2m2 0h3m3 0h1m1 0h1m2 0h1m1 0h5m2 0h1m4 0h2m1 0h1m3 0h4m2 0h1m2 0h2m1 0h3m1 0h3m2 0h1m2 0h1m5 0h1M4 10.5h7m1 0h1m1 0h1m1 0h1m1 0h1m1 0h1m1 0h1m1 0h1m1 0h1m1 0h1m1 0h1m1 0h1m1 0h1m1 0h1m1 0h1m1 0h1m1 0h1m1 0h1m1 0h1m1 0h1m1 0h1m1 0h1m1 0h1m1 0h1m1 0h1m1 0h1m1 0h1m1 0h1m1 0h1m1 0h1m1 0h1m1 0h1m1 0h1m1 0h1m1 0h1m1 0h1m1 0h1m1 0h1m1 0h7M14 11.5h1m2 0h2m1 0h3m2 0h2m3 0h3m3 0h1m1 0h1m1 0h1m2 0h1m1 0h4m4 0h2m2 0h2m3 0h1m5 0h1m1 0h1m1 0h1m2 0h1m3 0h3m1 0h2M4 12.5h4m2 0h1m1 0h2m1 0h1m3 0h1m4 0h1m1 0h4m2 0h6m3 0h2m1 0h1m1 0h1m1 0h1m1 0h1m2 0h2m2 0h6m2 0h1m2 0h2m1 0h1m1 0h1m7 0h1m1 0h1m1 0h1m2 0h3m1 0h1M4 13.5h3m1 0h2m1 0h1m1 0h2m1 0h4m2 0h7m1 0h2m1 0h2m4 0h3m1 0h4m1 0h1m1 0h3m1 0h1m1 0h2m1 0h2m1 0h3m4 0h1m2 0h1m4 0h3m3 0h2m1 0h2m1 0h1m1 0h1M5 14.5h1m1 0h1m2 0h1m3 0h1m3 0h2m1 0h1m4 0h1m3 0h1m1 0h2m1 0h3m3 0h1m1 0h2m1 0h1m1 0h7m2 0h1m6 0h1m2 0h4m1 0h1m2 0h2m2 0h1m1 0h1m1 0h2m1 0h2m1 0h2M8 15.5h1m2 0h2m3 0h2m1 0h1m4 0h3m1 0h2m1 0h3m1 0h1m1 0h5m2 0h1m1 0h2m4 0h1m3 0h1m4 0h1m1 0h1m1 0h1m2 0h2m1 0h1m1 0h3m1 0h2m1 0h1m2 0h1m1 0h3m1 0h1m1 0h1M4 16.5h1m1 0h2m2 0h1m1 0h2m3 0h1m2 0h1m2 0h3m1 0h2m1 0h1m2 0h2m5 0h2m2 0h2m1 0h1m1 0h1m1 0h1m1 0h2m1 0h2m1 0h2m2 0h1m3 0h1m1 0h3m5 0h1m1 0h1m2 0h1m1 0h2m1 0h2m2 0h1M4 17.5h2m1 0h2m3 0h8m2 0h2m2 0h2m2 0h2m3 0h1m1 0h1m1 0h2m1 0h1m1 0h1m2 0h2m3 0h1m2 0h1m3 0h1m5 0h1m1 0h6m1 0h3m4 0h1m2 0h2m4 0h1m1 0h1M6 18.5h3m1 0h1m2 0h1m7 0h1m1 0h1m1 0h2m1 0h3m2 0h4m2 0h1m3 0h1m1 0h2m2 0h1m2 0h1m5 0h7m3 0h2m2 0h1m1 0h1m1 0h1m3 0h1m3 0h1m1 0h1m4 0h2M5 19.5h1m2 0h2m1 0h1m2 0h4m1 0h2m2 0h1m1 0h1m2 0h3m2 0h1m1 0h5m1 0h1m2 0h1m1 0h3m1 0h3m1 0h2m2 0h2m1 0h2m6 0h4m1 0h1m2 0h4m1 0h1m2 0h1m3 0h2m1 0h1M4 20.5h3m2 0h2m1 0h2m1 0h1m2 0h3m1 0h1m1 0h1m1 0h1m2 0h4m1 0h2m3 0h2m4 0h3m5 0h3m1 0h1m3 0h1m1 0h3m1 0h1m6 0h2m3 0h1m1 0h1m3 0h1m1 0h2m1 0h1M6 21.5h1m1 0h1m3 0h4m1 0h4m1 0h1m1 0h1m2 0h1m1 0h3m1 0h1m1 0h1m1 0h3m3 0h1m2 0h3m1 0h1m1 0h5m1 0h2m1 0h1m1 0h1m1 0h1m3 0h1m1 0h2m1 0h1m1 0h2m1 0h2m1 0h2m1 0h2m3 0h2M4 22.5h1m1 0h1m1 0h4m1 0h3m1 0h1m1 0h2m1 0h5m2 0h1m2 0h1m1 0h1m1 0h1m1 0h4m1 0h1m5 0h2m1 0h2m1 0h4m1 0h1m1 0h2m1 0h1m2 0h3m4 0h1m1 0h4m2 0h1m1 0h2m1 0h2m2 0h1M4 23.5h1m2 0h1m3 0h1m2 0h1m1 0h1m3 0h5m3 0h1m1 0h3m4 0h2m3 0h3m1 0h1m1 0h1m2 0h1m1 0h1m2 0h3m2 0h3m3 0h3m1 0h3m3 0h1m1 0h3m2 0h2m1 0h2M4 24.5h3m1 0h3m4 0h5m3 0h2m1 0h1m2 0h2m1 0h1m3 0h1m4 0h1m4 0h1m1 0h3m2 0h1m3 0h1m1 0h1m1 0h2m2 0h4m3 0h3m4 0h1m1 0h2m3 0h1m3 0h1M5 25.5h2m4 0h1m6 0h2m1 0h1m2 0h1m4 0h1m3 0h3m1 0h4m1 0h1m1 0h2m1 0h1m1 0h1m2 0h1m1 0h1m3 0h1m2 0h2m2 0h8m2 0h3m3 0h10m1 0h1M7 26.5h1m2 0h1m1 0h1m2 0h1m2 0h3m1 0h1m1 0h1m1 0h2m2 0h5m1 0h1m2 0h1m1 0h1m3 0h1m1 0h1m1 0h1m5 0h2m4 0h3m3 0h3m1 0h1m1 0h2m3 0h1m2 0h1m2 0h2m3 0h2m1 0h1M6 27.5h1m2 0h1m1 0h1m3 0h2m1 0h3m3 0h2m6 0h1m1 0h2m2 0h2m1 0h1m1 0h1m1 0h8m4 0h2m2 0h1m2 0h1m1 0h6m2 0h2m7 0h1m4 0h2m1 0h2M4 28.5h1m3 0h1m1 0h3m1 0h2m1 0h1m1 0h1m1 0h2m2 0h6m1 0h1m1 0h1m4 0h1m4 0h2m1 0h2m2 0h6m3 0h2m1 0h1m3 0h1m1 0h2m1 0h1m2 0h1m2 0h2m1 0h3m2 0h4m1 0h2M6 29.5h2m4 0h2m1 0h1m1 0h5m3 0h1m3 0h4m3 0h2m1 0h3m3 0h1m2 0h1m5 0h1m1 0h2m1 0h1m1 0h1m1 0h2m1 0h2m1 0h4m1 0h1m1 0h1m4 0h1m1 0h1m1 0h1m2 0h1m2 0h1M9 30.5h9m1 0h1m1 0h1m1 0h1m5 0h1m1 0h2m1 0h2m3 0h1m5 0h1m3 0h1m1 0h1m3 0h2m1 0h3m1 0h1m2 0h2m1 0h3m2 0h5m2 0h2m3 0h1m1 0h1m1 0h1m2 0h1M6 31.5h2m1 0h1m2 0h1m5 0h1m1 0h3m2 0h1m1 0h2m2 0h2m3 0h2m1 0h3m1 0h1m1 0h2m2 0h1m3 0h2m1 0h1m1 0h1m3 0h2m3 0h2m1 0h3m1 0h1m2 0h1m2 0h1m1 0h1m1 0h3m2 0h1M4 32.5h1m3 0h6m3 0h1m1 0h1m2 0h1m3 0h1m2 0h9m1 0h1m2 0h1m1 0h1m1 0h2m1 0h1m3 0h1m2 0h1m1 0h6m4 0h1m1 0h1m2 0h3m1 0h3m1 0h1m1 0h6m3 0h1M4 33.5h3m1 0h1m3 0h1m2 0h1m3 0h2m5 0h2m1 0h1m1 0h2m3 0h1m1 0h1m2 0h1m1 0h2m1 0h3m1 0h1m1 0h1m1 0h2m1 0h2m3 0h5m1 0h1m2 0h1m2 0h3m1 0h2m1 0h1m1 0h2m3 0h2m2 0h1M5 34.5h2m1 0h1m1 0h1m1 0h4m4 0h1m1 0h3m1 0h1m1 0h1m3 0h1m1 0h1m1 0h1m2 0h1m2 0h1m2 0h4m2 0h2m1 0h1m1 0h3m1 0h1m1 0h1m2 0h3m1 0h2m2 0h1m1 0h1m2 0h2m1 0h2m1 0h1m1 0h1m1 0h1m1 0h3M4 35.5h1m1 0h1m1 0h1m3 0h2m1 0h1m2 0h1m1 0h1m2 0h5m4 0h1m3 0h1m2 0h1m1 0h2m1 0h2m2 0h5m4 0h2m3 0h1m3 0h1m2 0h2m5 0h1m1 0h1m1 0h3m1 0h1m3 0h4M5 36.5h2m1 0h9m2 0h1m1 0h3m1 0h1m1 0h4m1 0h9m1 0h1m2 0h1m5 0h3m4 0h7m1 0h1m1 0h2m2 0h1m1 0h2m2 0h5m1 0h7m1 0h1M4 37.5h2m2 0h2m1 0h3m1 0h1m2 0h3m3 0h1m1 0h5m1 0h2m2 0h3m1 0h3m1 0h1m1 0h5m2 0h4m1 0h1m1 0h1m3 0h1m4 0h2m3 0h2m1 0h1m3 0h2m1 0h3m1 0h2m1 0h2M8 38.5h5m1 0h1m3 0h1m1 0h1m1 0h1m5 0h2m11 0h2m1 0h1m1 0h1m2 0h1m2 0h1m1 0h2m1 0h3m1 0h1m1 0h2m2 0h1m2 0h1m1 0h1m1 0h2m2 0h1m1 0h1m1 0h2m1 0h2m5 0h1M7 39.5h3m2 0h3m2 0h1m6 0h3m1 0h1m1 0h3m1 0h2m1 0h3m2 0h5m4 0h2m1 0h1m5 0h2m3 0h1m2 0h1m2 0h3m1 0h2m1 0h1m1 0h1m2 0h1m3 0h1m1 0h1m1 0h2M4 40.5h2m3 0h5m2 0h2m1 0h2m1 0h2m4 0h2m7 0h1m1 0h1m2 0h2m1 0h3m1 0h3m4 0h1m4 0h1m2 0h7m1 0h1m1 0h3m1 0h1m2 0h4m2 0h3M5 41.5h3m5 0h2m2 0h1m3 0h1m2 0h1m1 0h3m3 0h1m1 0h2m3 0h1m1 0h1m1 0h1m2 0h2m1 0h3m2 0h1m6 0h2m2 0h1m3 0h1m1 0h1m1 0h4m1 0h1m2 0h1m2 0h2m1 0h2m2 0h2M10 42.5h2m3 0h1m2 0h2m3 0h2m3 0h1m2 0h3m4 0h1m1 0h2m2 0h1m1 0h2m3 0h9m3 0h2m3 0h1m2 0h2m1 0h2m1 0h1m1 0h1m4 0h2m1 0h1m1 0h1m1 0h2M4 43.5h5m2 0h1m2 0h3m1 0h1m1 0h2m1 0h1m1 0h1m4 0h3m1 0h1m1 0h2m2 0h5m1 0h1m2 0h1m2 0h2m6 0h2m2 0h4m1 0h1m1 0h2m4 0h2m4 0h1m3 0h1m2 0h1M4 44.5h2m2 0h1m1 0h1m3 0h1m1 0h4m8 0h1m1 0h2m1 0h1m3 0h1m2 0h1m2 0h1m3 0h1m2 0h2m1 0h8m1 0h2m1 0h2m1 0h1m1 0h1m2 0h2m1 0h5m1 0h5m1 0h1m1 0h2M4 45.5h5m5 0h5m2 0h8m3 0h3m2 0h2m1 0h2m5 0h1m1 0h4m6 0h1m3 0h1m1 0h1m2 0h1m3 0h2m2 0h2m3 0h1m4 0h1m1 0h1m2 0h1M5 46.5h1m4 0h2m1 0h1m2 0h1m6 0h2m2 0h3m3 0h1m4 0h4m3 0h2m1 0h1m4 0h1m1 0h2m1 0h1m5 0h1m2 0h2m1 0h2m4 0h1m1 0h2m2 0h3m4 0h2M4 47.5h2m1 0h2m2 0h2m1 0h1m1 0h2m1 0h2m3 0h1m5 0h1m2 0h1m1 0h3m1 0h1m1 0h2m2 0h1m1 0h4m3 0h1m2 0h2m1 0h1m2 0h4m1 0h3m2 0h1m2 0h3m1 0h1m1 0h1m2 0h2m1 0h1M6 48.5h1m1 0h7m3 0h1m1 0h2m1 0h1m1 0h1m2 0h2m1 0h2m1 0h2m2 0h3m1 0h4m3 0h2m1 0h1m2 0h1m1 0h1m1 0h1m2 0h1m2 0h3m2 0h1m1 0h1m3 0h1m1 0h3m1 0h1m6 0h3M4 49.5h1m1 0h1m1 0h1m2 0h1m3 0h1m1 0h1m4 0h1m2 0h5m1 0h3m3 0h2m5 0h1m1 0h1m1 0h2m1 0h3m3 0h1m1 0h2m4 0h1m4 0h1m3 0h1m1 0h1m1 0h1m1 0h3m1 0h2m6 0h1M7 50.5h1m2 0h6m2 0h4m2 0h2m2 0h1m2 0h2m1 0h1m1 0h1m1 0h1m1 0h1m1 0h1m8 0h4m2 0h2m1 0h1m2 0h1m1 0h2m1 0h2m4 0h1m6 0h1m1 0h1m1 0h2m2 0h4M5 51.5h2m1 0h2m3 0h1m1 0h4m4 0h2m1 0h3m1 0h8m1 0h1m4 0h1m2 0h1m1 0h4m1 0h1m2 0h1m2 0h2m1 0h2m1 0h1m4 0h1m2 0h1m5 0h2m7 0h1m2 0h1M5 52.5h1m2 0h3m3 0h6m4 0h1m3 0h1m2 0h1m4 0h1m1 0h1m1 0h4m1 0h1m1 0h2m3 0h2m1 0h1m2 0h2m1 0h1m3 0h1m3 0h1m3 0h3m6 0h2m1 0h2m2 0h3M4 53.5h3m4 0h3m1 0h2m1 0h2m2 0h1m4 0h1m1 0h3m2 0h1m2 0h2m1 0h4m1 0h1m1 0h1m1 0h3m1 0h1m1 0h2m1 0h2m3 0h1m2 0h1m2 0h1m1 0h1m1 0h4m1 0h5m1 0h1m3 0h1m1 0h1M6 54.5h1m1 0h1m1 0h4m5 0h1m1 0h1m2 0h3m1 0h2m6 0h1m4 0h1m2 0h1m2 0h1m1 0h1m2 0h2m1 0h2m1 0h6m1 0h2m1 0h1m1 0h3m6 0h1m1 0h3m2 0h1m1 0h1m1 0h3M4 55.5h2m1 0h1m1 0h1m1 0h1m4 0h2m3 0h1m1 0h2m1 0h4m1 0h2m5 0h2m1 0h1m2 0h1m2 0h1m2 0h3m3 0h1m1 0h2m2 0h1m1 0h1m1 0h1m2 0h5m1 0h2m1 0h3m1 0h1m2 0h3m3 0h1M4 56.5h3m1 0h1m1 0h4m1 0h4m2 0h2m1 0h2m1 0h1m3 0h3m1 0h1m2 0h1m2 0h2m2 0h2m1 0h1m1 0h1m4 0h4m2 0h1m6 0h3m4 0h1m7 0h2m1 0h4m1 0h1M6 57.5h1m2 0h1m1 0h2m2 0h1m1 0h1m3 0h1m1 0h2m2 0h1m2 0h1m1 0h2m3 0h1m1 0h2m1 0h1m1 0h2m3 0h1m2 0h1m1 0h3m1 0h1m2 0h2m3 0h1m1 0h1m1 0h1m1 0h1m4 0h3m2 0h1m1 0h3m2 0h2m1 0h1M4 58.5h1m2 0h6m1 0h3m2 0h1m8 0h2m2 0h6m2 0h6m3 0h1m2 0h1m1 0h1m3 0h6m2 0h1m2 0h1m3 0h4m1 0h2m3 0h7M8 59.5h1m3 0h1m1 0h2m1 0h1m1 0h2m5 0h5m1 0h1m3 0h1m3 0h2m4 0h3m1 0h1m1 0h4m2 0h1m3 0h3m1 0h1m2 0h1m5 0h4m3 0h3m3 0h2M4 60.5h3m1 0h1m1 0h1m1 0h1m3 0h2m1 0h1m1 0h1m2 0h1m1 0h1m3 0h1m1 0h1m1 0h1m1 0h2m2 0h2m2 0h1m2 0h1m1 0h2m1 0h1m1 0h5m1 0h1m1 0h1m2 0h1m1 0h3m1 0h9m1 0h1m1 0h2m1 0h1m1 0h1m1 0h3M5 61.5h1m1 0h2m3 0h1m3 0h2m1 0h2m1 0h1m2 0h2m1 0h2m2 0h1m3 0h4m1 0h1m1 0h4m1 0h1m3 0h3m3 0h1m3 0h1m2 0h2m2 0h2m3 0h3m2 0h2m1 0h3m3 0h2m2 0h1M4 62.5h1m1 0h8m1 0h1m1 0h3m4 0h1m2 0h2m1 0h1m1 0h6m1 0h1m1 0h1m1 0h4m1 0h1m1 0h1m1 0h1m1 0h1m2 0h6m4 0h3m2 0h3m2 0h3m1 0h1m1 0h9M5 63.5h1m1 0h3m3 0h1m2 0h1m3 0h1m3 0h1m2 0h1m1 0h1m8 0h4m2 0h2m1 0h2m1 0h1m1 0h2m2 0h5m1 0h1m2 0h1m1 0h1m1 0h1m2 0h1m3 0h5m1 0h4m1 0h1m1 0h2M5 64.5h1m1 0h4m4 0h1m2 0h3m1 0h2m1 0h4m1 0h2m1 0h2m1 0h3m2 0h1m2 0h4m2 0h3m1 0h1m1 0h1m1 0h1m1 0h1m1 0h1m2 0h1m1 0h1m1 0h1m2 0h1m1 0h1m3 0h1m3 0h1m1 0h1m3 0h1m1 0h1M5 65.5h4m5 0h1m3 0h2m3 0h1m1 0h1m2 0h1m1 0h3m5 0h1m1 0h1m1 0h1m1 0h4m2 0h1m4 0h1m1 0h1m2 0h1m3 0h1m1 0h1m2 0h1m5 0h1m4 0h4m1 0h1m2 0h1m1 0h1M6 66.5h1m1 0h3m1 0h1m1 0h1m1 0h2m2 0h6m1 0h5m2 0h2m1 0h1m5 0h1m3 0h1m7 0h5m3 0h2m2 0h1m2 0h4m1 0h1m1 0h1m3 0h1m4 0h3m1 0h1m1 0h1M4 67.5h1m2 0h1m1 0h1m4 0h2m1 0h3m1 0h1m4 0h5m4 0h1m3 0h3m2 0h1m1 0h1m3 0h4m1 0h1m2 0h1m1 0h1m2 0h1m1 0h3m1 0h1m3 0h5m1 0h1m2 0h1m1 0h2m5 0h1M4 68.5h3m2 0h2m1 0h1m4 0h1m2 0h2m2 0h1m2 0h5m1 0h1m1 0h1m4 0h1m1 0h1m3 0h1m1 0h1m1 0h1m12 0h2m1 0h2m1 0h2m4 0h1m2 0h1m4 0h2m1 0h3M5 69.5h1m2 0h2m5 0h1m1 0h3m3 0h2m1 0h1m1 0h2m1 0h1m1 0h7m4 0h2m1 0h1m3 0h1m1 0h2m2 0h4m2 0h1m2 0h2m4 0h3m1 0h1m1 0h3m1 0h1m2 0h1m4 0h1M5 70.5h1m1 0h2m1 0h1m1 0h1m3 0h2m1 0h4m2 0h1m4 0h1m3 0h1m1 0h2m3 0h1m1 0h5m2 0h2m2 0h3m1 0h2m1 0h1m1 0h1m3 0h1m9 0h3m5 0h1m3 0h4M5 71.5h1m3 0h1m4 0h3m1 0h1m1 0h3m1 0h3m1 0h2m2 0h1m1 0h4m4 0h1m1 0h1m1 0h2m1 0h3m4 0h5m2 0h1m1 0h1m2 0h3m5 0h1m2 0h4m7 0h1M7 72.5h1m1 0h4m1 0h1m3 0h4m3 0h2m2 0h4m1 0h2m1 0h1m4 0h3m1 0h5m1 0h3m1 0h1m3 0h1m1 0h4m1 0h1m1 0h3m6 0h1m1 0h1m1 0h3m2 0h1m3 0h1M6 73.5h1m2 0h1m2 0h9m1 0h2m1 0h1m4 0h1m1 0h1m4 0h4m1 0h1m2 0h1m3 0h1m2 0h1m5 0h1m1 0h1m1 0h1m3 0h2m2 0h1m3 0h1m2 0h1m2 0h2m1 0h2m3 0h2m1 0h2M4 74.5h1m1 0h3m1 0h3m1 0h2m2 0h1m1 0h2m2 0h4m3 0h3m2 0h2m1 0h1m1 0h2m2 0h1m2 0h1m4 0h1m1 0h2m2 0h2m1 0h1m2 0h1m1 0h3m2 0h1m1 0h3m2 0h2m2 0h1m1 0h2m3 0h2M4 75.5h2m1 0h3m1 0h1m3 0h2m1 0h2m1 0h1m1 0h1m2 0h1m1 0h2m2 0h3m1 0h1m1 0h2m4 0h2m3 0h1m4 0h1m1 0h1m4 0h1m2 0h2m2 0h1m1 0h5m1 0h12m2 0h2M4 76.5h3m1 0h1m1 0h3m2 0h4m1 0h3m4 0h1m2 0h2m2 0h1m1 0h2m1 0h1m1 0h1m1 0h4m1 0h2m1 0h2m3 0h1m2 0h3m4 0h1m1 0h2m2 0h1m2 0h1m1 0h1m1 0h4m4 0h2m2 0h2M5 77.5h1m1 0h2m2 0h1m2 0h1m1 0h1m1 0h1m1 0h2m4 0h2m3 0h2m2 0h1m2 0h3m3 0h1m1 0h1m1 0h2m2 0h1m1 0h7m1 0h3m1 0h3m1 0h1m2 0h1m8 0h1m2 0h1m1 0h1m3 0h1M4 78.5h7m1 0h5m1 0h1m1 0h5m2 0h1m3 0h6m1 0h2m2 0h4m1 0h2m2 0h1m5 0h1m1 0h2m1 0h1m1 0h1m1 0h1m1 0h1m3 0h3m1 0h2m1 0h1m3 0h3m1 0h4m1 0h1M5 79.5h3m4 0h5m1 0h3m1 0h1m2 0h1m1 0h1m1 0h1m1 0h2m4 0h1m2 0h1m1 0h1m1 0h1m4 0h1m4 0h2m2 0h1m2 0h1m1 0h2m2 0h2m4 0h1m3 0h1m8 0h2M7 80.5h2m1 0h1m1 0h1m2 0h1m5 0h2m3 0h3m1 0h4m2 0h2m5 0h2m1 0h2m1 0h1m2 0h2m1 0h1m5 0h1m1 0h2m3 0h3m1 0h2m1 0h2m1 0h1m4 0h5m4 0h1M5 81.5h1m1 0h1m1 0h1m1 0h1m1 0h2m1 0h2m3 0h1m4 0h1m1 0h3m2 0h1m1 0h2m1 0h1m1 0h6m1 0h2m1 0h1m8 0h2m3 0h1m1 0h2m2 0h2m1 0h1m2 0h1m2 0h2m5 0h1m1 0h4M4 82.5h1m2 0h1m2 0h1m2 0h3m1 0h1m2 0h2m1 0h6m1 0h3m1 0h3m4 0h2m1 0h2m1 0h2m2 0h3m1 0h1m1 0h2m2 0h2m1 0h1m1 0h1m1 0h2m1 0h3m1 0h3m2 0h5m3 0h1m1 0h1M4 83.5h2m2 0h2m1 0h1m1 0h1m1 0h3m2 0h1m1 0h2m1 0h3m3 0h1m4 0h2m2 0h1m3 0h1m3 0h1m1 0h1m1 0h1m2 0h5m1 0h4m2 0h3m1 0h1m1 0h1m1 0h1m1 0h2m1 0h5m1 0h1m2 0h1m1 0h2M4 84.5h1m2 0h1m2 0h1m1 0h1m2 0h1m2 0h1m1 0h2m3 0h5m2 0h7m1 0h1m2 0h2m2 0h2m1 0h3m1 0h1m2 0h8m1 0h1m2 0h2m3 0h2m1 0h2m1 0h2m2 0h5m1 0h1M12 85.5h1m1 0h2m2 0h3m2 0h3m3 0h1m1 0h2m3 0h3m2 0h1m1 0h2m3 0h1m4 0h3m2 0h1m3 0h3m2 0h2m1 0h2m1 0h1m3 0h4m1 0h1m1 0h1m3 0h1m1 0h2M4 86.5h7m4 0h1m1 0h1m1 0h1m1 0h1m2 0h2m2 0h2m2 0h1m1 0h1m1 0h1m1 0h1m1 0h7m1 0h1m2 0h1m2 0h5m1 0h1m1 0h3m2 0h6m1 0h1m1 0h4m1 0h1m2 0h1m1 0h1m1 0h1m1 0h3M4 87.5h1m5 0h1m2 0h1m4 0h1m1 0h5m1 0h1m3 0h3m3 0h3m1 0h1m1 0h3m2 0h1m1 0h6m3 0h1m3 0h3m1 0h4m1 0h2m1 0h1m1 0h5m1 0h3m3 0h2m1 0h1M4 88.5h1m1 0h3m1 0h1m2 0h2m1 0h7m1 0h3m2 0h1m1 0h7m1 0h1m2 0h2m1 0h1m5 0h2m1 0h1m1 0h1m1 0h5m1 0h2m2 0h2m1 0h4m9 0h6m1 0h2M4 89.5h1m1 0h3m1 0h1m1 0h1m3 0h1m3 0h2m2 0h2m8 0h8m1 0h1m1 0h4m1 0h3m2 0h3m2 0h1m2 0h2m2 0h1m1 0h2m1 0h1m1 0h2m1 0h2m1 0h4m1 0h1m1 0h2m1 0h1M4 90.5h1m1 0h3m1 0h1m1 0h1m2 0h1m1 0h1m2 0h2m1 0h1m1 0h3m5 0h1m1 0h7m2 0h1m2 0h8m4 0h1m2 0h1m3 0h2m1 0h1m2 0h6m1 0h2m2 0h2m1 0h1m1 0h1m1 0h1m1 0h1M4 91.5h1m5 0h1m1 0h1m1 0h1m5 0h2m1 0h2m3 0h1m2 0h2m1 0h3m2 0h1m4 0h1m2 0h1m1 0h1m1 0h2m2 0h1m1 0h1m3 0h2m3 0h5m2 0h2m1 0h2m4 0h4m2 0h1m1 0h2M4 92.5h7m1 0h1m1 0h1m4 0h6m2 0h1m5 0h1m1 0h3m2 0h1m1 0h1m1 0h5m2 0h1m3 0h1m2 0h1m4 0h2m2 0h2m3 0h1m1 0h1m1 0h5m1 0h4m4 0h2"/></svg>
