<svg xmlns="http://www.w3.org/2000/svg" viewBox="0 0 97 97" shape-rendering="crispEdges"><path fill="#ffffff" d="M0 0h97v97H0z"/><path stroke="#000000" d="M4 4.5h7m6 0h1m1 0h2m1 0h1m3 0h1m1 0h2m1 0h1m1 0h1m2 0h1m1 0h1m1 0h2m1 0h2m1 0h1m1 0h1m1 0h1m2 0h2m1 0h1m3 0h1m1 0h4m1 0h3m1 0h2m1 0h2m1 0h1m2 0h1m1 0h3m1 0h7M4 5.5h1m5 0h1m2 0h3m1 0h2m1 0h1m2 0h3m6 0h7m8 0h2m1 0h7m1 0h2m4 0h2m3 0h1m1 0h1m1 0h1m1 0h3m1 0h2m2 0h1m2 0h1m5 0h1M4 6.5h1m1 0h3m1 0h1m2 0h2m2 0h1m1 0h1m2 0h1m1 0h1m1 0h2m7 0h1m9 0h1m1 0h6m1 0h1m2 0h3m1 0h2m3 0h2m2 0h1m1 0h2m2 0h1m2 0h3m4 0h1m1 0h3m1 0h1M4 7.5h1m1 0h3m1 0h1m1 0h2m1 0h5m2 0h1m2 0h2m2 0h3m2 0h2m2 0h1m1 0h1m1 0h1m6 0h2m2 0h1m2 0h1m1 0h2m10 0h3m4 0h3m1 0h2m1 0h1m1 0h1m1 0h3m1 0h1M4 8.5h1m1 0h3m1 0h1m1 0h2m1 0h3m1 0h2m4 0h5m1 0h7m3 0h3m1 0h3m1 0h4m1 0h1m3 0h5m1 0h1m6 0h3m1 0h2m1 0h1m1 0h2m1 0h1m2 0h1m1 0h3m1 0h1M4 9.5h1m5 0h1m2 0h1m2 0h5m1 0h1m2 0h1m2 0h5m3 0h1m1 0h3m1 0h2m1 0h2m2 0h1m4 0h3m1 0h1m3 0h1m4 0h1m1 0h1m3 0h1m1 0h2m1 0h1m2 0h1m1 0h1m2 0h1m5 0h1M4 10.5h7m1 0h1m1 0h1m1 0h1m1 0h1m1 0h1m1 0h1m1 0h1m1 0h1m1 0h1m1 0h1m1 0h1m1 0h1m1 0h1m1 0h1m1 0h1m1 0h1m1 0h1m1 0h1m1 0h1m1 0h1m1 0h1m1 0h1m1 0h1m1 0h1m1 0h1m1 0h1m1 0h1m1 0h1m1 0h1m1 0h1m1 0h1m1 0h1m1 0h1m1 0h1m1 0h1m1 0h1m1 0h1m1 0h7M15 11.5h1m2 0h2m2 0h3m2 0h3m2 0h1m3 0h2m2 0h3m2 0h1m1 0h2m1 0h1m1 0h1m4 0h2m3 0h1m2 0h1m2 0h1m1 0h1m1 0h1m1 0h1m1 0h5m1 0h2M4 12.5h2m3 0h3m1 0h1m1 0h1m1 0h1m2 0h3m3 0h1m4 0h9m1 0h2m2 0h3m2 0h2m1 0h4m1 0h5m1 0h1m1 0h2m2 0h3m1 0h2m1 0h1m1 0h2m7 0h2M6 13.5h3m2 0h5m1 0h1m1 0h3m2 0h3m2 0h3m2 0h1m1 0h1m2 0h2m3 0h8m1 0h3m7 0h2m1 0h9m1 0h3m1 0h2m1 0h1m3 0h1m2 0h1m1 0h1M5 14.5h2m2 0h3m2 0h1m1 0h3m1 0h3m1 0h2m1 0h1m7 0h3m2 0h2m2 0h1m3 0h1m3 0h1m3 0h3m1 0h2m1 0h1m2 0h1m6 0h1m2 0h1m3 0h1m2 0h1m1 0h7M4 15.5h3m1 0h2m1 0h1m1 0h2m3 0h1m1 0h1m2 0h1m2 0h1m1 0h1m3 0h1m1 0h2m1 0h1m13 0h2m1 0h1m1 0h2m3 0h1m3 0h2m1 0h1m1 0h1m1 0h2m2 0h4m5 0h2m2 0h1m1 0h1M6 16.5h1m2 0h6m2 0h7m4 0h3m1 0h1m1 0h1m3 0h2m4 0h3m1 0h3m2 0h2m3 0h3m1 0h2m1 0h2m2 0h1m1 0h1m1 0h1m2 0h3m4 0h1m3 0h1m2 0h1m1 0h1M4 17.5h1m1 0h3m2 0h1m2 0h1m3 0h4m1 0h1m3 0h2m2 0h1m1 0h2m5 0h4m1 0h3m2 0h1m1 0h1m6 0h1m2 0h4m1 0h2m1 0h1m2 0h1m2 0h4m2 0h1m1 0h1m1 0h3m1 0h1m1 0h1M5 18.5h1m1 0h1m2 0h3m1 0h2m3 0h1m3 0h2m7 0h4m2 0h1m2 0h1m2 0h1m4 0h1m2 0h5m1 0h1m2 0h2m4 0h1m1 0h1m1 0h1m6 0h1m6 0h2m1 0h1m1 0h1M14 19.5h1m1 0h2m1 0h1m2 0h3m1 0h1m1 0h1m1 0h4m1 0h1m2 0h3m1 0h5m1 0h4m3 0h1m2 0h2m6 0h1m1 0h3m2 0h2m2 0h1m2 0h1m1 0h2m2 0h1m2 0h1m1 0h1M4 20.5h1m2 0h2m1 0h3m1 0h3m4 0h3m1 0h1m2 0h2m2 0h1m1 0h2m1 0h4m2 0h1m6 0h1m2 0h1m2 0h2m3 0h2m2 0h3m2 0h2m1 0h2m1 0h1m1 0h1m2 0h1m3 0h1m2 0h4M4 21.5h2m1 0h2m2 0h1m1 0h3m2 0h2m1 0h1m1 0h2m1 0h1m4 0h1m2 0h1m1 0h1m1 0h7m1 0h2m1 0h2m1 0h1m1 0h1m1 0h3m1 0h2m1 0h2m2 0h1m1 0h2m1 0h2m5 0h1m1 0h1m2 0h1m4 0h1m1 0h2M4 22.5h1m1 0h3m1 0h2m2 0h3m3 0h2m1 0h4m2 0h1m1 0h1m2 0h1m1 0h1m4 0h1m1 0h4m3 0h1m1 0h2m1 0h1m5 0h1m4 0h2m1 0h1m1 0h2m6 0h1m6 0h2m2 0h3M4 23.5h3m2 0h1m3 0h1m1 0h1m1 0h2m2 0h3m3 0h1m1 0h1m1 0h3m3 0h2m1 0h1m1 0h1m1 0h2m1 0h2m1 0h1m1 0h1m2 0h1m1 0h4m3 0h3m1 0h2m3 0h2m2 0h2m3 0h1m1 0h1m1 0h1m3 0h1M5 24.5h2m1 0h1m1 0h1m3 0h7m2 0h2m1 0h1m1 0h1m1 0h2m3 0h2m3 0h2m1 0h1m1 0h3m1 0h1m5 0h2m3 0h2m8 0h1m2 0h1m1 0h7m2 0h2m3 0h4M5 25.5h1m2 0h2m3 0h3m1 0h2m1 0h1m3 0h3m2 0h6m2 0h2m1 0h2m1 0h2m1 0h1m1 0h2m2 0h2m2 0h1m1 0h1m2 0h1m2 0h1m1 0h5m1 0h1m1 0h1m3 0h4m4 0h1m2 0h1M4 26.5h3m1 0h1m1 0h1m1 0h1m1 0h3m4 0h3m1 0h1m2 0h1m1 0h1m1 0h1m2 0h7m3 0h2m3 0h1m4 0h1m1 0h3m1 0h2m1 0h2m1 0h1m2 0h1m1 0h4m1 0h1m1 0h2m2 0h1m1 0h2m1 0h2m1 0h2M6 27.5h4m1 0h1m2 0h4m1 0h1m1 0h2m1 0h1m1 0h1m3 0h2m5 0h1m3 0h1m1 0h1m2 0h2m1 0h1m3 0h2m2 0h1m2 0h1m1 0h2m1 0h1m2 0h3m2 0h1m5 0h2m1 0h8M6 28.5h1m2 0h2m4 0h4m4 0h2m2 0h3m1 0h1m2 0h1m2 0h2m4 0h1m1 0h1m1 0h1m2 0h1m1 0h1m3 0h1m1 0h8m4 0h2m3 0h4m1 0h1m1 0h3m2 0h1m2 0h1m1 0h1M6 29.5h2m1 0h1m1 0h2m1 0h2m1 0h3m1 0h1m2 0h1m3 0h1m1 0h2m1 0h2m2 0h1m1 0h1m11 0h2m2 0h1m1 0h1m1 0h4m2 0h3m3 0h1m3 0h1m1 0h1m2 0h1m1 0h1m1 0h2m2 0h1m1 0h1m1 0h1M4 30.5h1m2 0h1m1 0h3m1 0h1m1 0h1m1 0h1m1 0h4m2 0h1m1 0h1m5 0h1m1 0h1m1 0h2m1 0h2m2 0h3m1 0h1m2 0h1m2 0h1m2 0h2m1 0h1m1 0h3m1 0h1m1 0h2m1 0h1m3 0h2m3 0h3m3 0h1m4 0h1M5 31.5h1m1 0h3m2 0h1m1 0h2m1 0h3m2 0h1m1 0h1m1 0h1m1 0h1m1 0h1m2 0h2m1 0h1m2 0h1m4 0h1m1 0h1m3 0h1m2 0h3m1 0h5m1 0h2m2 0h6m1 0h1m1 0h2m3 0h2m1 0h1m4 0h3M4 32.5h3m1 0h5m1 0h1m3 0h3m3 0h3m1 0h11m1 0h3m2 0h3m1 0h1m2 0h1m1 0h1m2 0h6m4 0h2m3 0h4m1 0h2m2 0h8m1 0h2M5 33.5h4m3 0h1m1 0h3m1 0h1m1 0h2m1 0h1m5 0h1m1 0h2m3 0h2m1 0h7m1 0h1m5 0h1m2 0h3m3 0h6m1 0h5m1 0h2m4 0h1m2 0h1m3 0h5M8 34.5h1m1 0h1m1 0h1m4 0h1m3 0h1m3 0h1m1 0h1m1 0h4m1 0h1m1 0h8m1 0h1m2 0h1m1 0h3m1 0h1m1 0h3m1 0h1m1 0h1m1 0h1m2 0h4m1 0h3m1 0h1m2 0h2m3 0h1m1 0h1m1 0h4M4 35.5h5m3 0h1m1 0h1m3 0h1m1 0h4m1 0h2m4 0h2m3 0h1m1 0h1m3 0h2m1 0h1m1 0h2m5 0h2m1 0h2m3 0h3m4 0h1m8 0h1m1 0h1m3 0h1m3 0h1m1 0h2M5 36.5h2m1 0h5m1 0h2m1 0h2m1 0h2m2 0h1m4 0h9m1 0h4m3 0h1m1 0h2m1 0h1m1 0h4m1 0h5m4 0h1m5 0h1m1 0h1m2 0h1m5 0h5m1 0h3M4 37.5h1m1 0h2m5 0h8m1 0h1m4 0h2m1 0h1m2 0h1m5 0h2m3 0h3m1 0h3m3 0h2m1 0h2m3 0h2m2 0h3m1 0h4m1 0h1m1 0h1m1 0h2m1 0h3m1 0h5M4 38.5h2m1 0h2m1 0h1m2 0h2m1 0h4m1 0h5m2 0h2m1 0h3m1 0h1m1 0h1m4 0h4m3 0h1m2 0h2m3 0h7m2 0h1m5 0h6m1 0h3m1 0h2m2 0h1m2 0h1M5 39.5h2m4 0h1m1 0h2m1 0h2m1 0h1m1 0h3m2 0h1m1 0h5m1 0h2m1 0h1m1 0h3m2 0h2m2 0h2m1 0h3m1 0h1m3 0h1m2 0h1m1 0h1m4 0h2m2 0h3m1 0h2m1 0h1m1 0h1m2 0h1m1 0h1m1 0h1m2 0h1M6 40.5h1m1 0h1m1 0h1m5 0h1m1 0h2m2 0h3m1 0h1m1 0h1m1 0h1m1 0h1m1 0h1m3 0h4m1 0h1m1 0h4m1 0h4m1 0h2m4 0h1m1 0h2m1 0h2m4 0h1m2 0h1m2 0h1m3 0h1m2 0h7M5 41.5h1m7 0h1m1 0h5m2 0h1m3 0h1m1 0h1m1 0h1m1 0h1m3 0h1m1 0h2m2 0h1m2 0h2m2 0h2m1 0h1m4 0h2m3 0h3m4 0h2m8 0h4m2 0h2m4 0h2M4 42.5h3m2 0h2m1 0h1m1 0h1m4 0h1m2 0h2m1 0h1m1 0h1m5 0h1m1 0h1m1 0h4m2 0h2m1 0h4m2 0h4m2 0h1m1 0h2m5 0h1m3 0h2m2 0h2m5 0h3m5 0h1M5 43.5h1m1 0h1m1 0h1m2 0h2m1 0h1m4 0h2m1 0h1m1 0h1m3 0h2m2 0h1m3 0h2m2 0h4m1 0h2m1 0h1m2 0h1m5 0h2m1 0h1m2 0h5m3 0h1m1 0h1m2 0h1m1 0h2m2 0h1m2 0h2m3 0h2M4 44.5h1m2 0h2m1 0h1m1 0h3m3 0h2m2 0h3m1 0h2m1 0h3m2 0h1m1 0h1m1 0h2m2 0h2m1 0h3m1 0h2m7 0h1m1 0h2m3 0h1m4 0h1m1 0h2m1 0h1m1 0h1m1 0h1m2 0h2m1 0h5M4 45.5h2m3 0h1m2 0h1m1 0h1m1 0h2m1 0h4m1 0h2m1 0h1m1 0h1m1 0h1m1 0h3m1 0h1m1 0h2m4 0h3m1 0h1m1 0h2m2 0h1m1 0h2m4 0h1m3 0h1m2 0h2m7 0h1m4 0h3m2 0h3M5 46.5h7m2 0h1m12 0h1m1 0h1m1 0h1m3 0h1m2 0h2m3 0h3m1 0h2m4 0h2m1 0h2m3 0h2m1 0h3m1 0h2m1 0h7m1 0h4m5 0h1m1 0h2M5 47.5h5m3 0h1m1 0h1m3 0h1m1 0h3m1 0h2m1 0h3m1 0h2m1 0h2m1 0h5m3 0h1m1 0h1m1 0h1m1 0h1m1 0h1m1 0h5m1 0h1m1 0h2m2 0h1m1 0h2m2 0h1m2 0h1m1 0h2m5 0h1m1 0h1m1 0h1m1 0h1M5 48.5h2m2 0h3m2 0h2m1 0h3m1 0h2m1 0h3m2 0h1m2 0h1m2 0h3m1 0h2m2 0h2m1 0h1m1 0h1m3 0h2m3 0h4m4 0h5m1 0h1m1 0h1m4 0h2m1 0h4m4 0h1M5 49.5h2m4 0h1m1 0h1m1 0h5m1 0h2m2 0h5m3 0h1m1 0h1m1 0h2m4 0h2m2 0h1m2 0h3m2 0h1m3 0h2m2 0h3m2 0h3m3 0h3m1 0h1m1 0h2m3 0h1m4 0h3M4 50.5h1m1 0h3m1 0h2m1 0h3m4 0h1m3 0h1m1 0h2m2 0h3m4 0h1m1 0h1m5 0h2m2 0h1m4 0h2m1 0h1m2 0h2m1 0h2m5 0h3m1 0h3m1 0h1m3 0h2m2 0h7M4 51.5h6m1 0h1m2 0h1m1 0h1m3 0h1m4 0h3m1 0h2m1 0h3m1 0h2m1 0h1m2 0h1m2 0h5m1 0h1m4 0h1m2 0h2m4 0h1m8 0h5m1 0h2m3 0h1m4 0h2M4 52.5h3m1 0h1m1 0h1m1 0h2m1 0h2m1 0h1m1 0h1m1 0h1m1 0h2m1 0h1m1 0h2m1 0h1m3 0h1m1 0h1m1 0h2m1 0h1m1 0h2m4 0h2m1 0h2m1 0h1m2 0h4m3 0h2m2 0h2m1 0h1m1 0h1m4 0h4m4 0h3M12 53.5h1m4 0h3m2 0h3m1 0h5m3 0h1m2 0h1m2 0h1m4 0h1m3 0h2m1 0h2m2 0h1m1 0h2m5 0h2m3 0h3m1 0h1m1 0h1m2 0h1m5 0h1M4 54.5h1m1 0h2m1 0h3m1 0h4m3 0h1m1 0h3m3 0h1m3 0h1m2 0h1m3 0h1m1 0h3m1 0h2m2 0h1m2 0h3m6 0h1m1 0h1m3 0h1m4 0h1m1 0h3m3 0h2m3 0h1m1 0h5M4 55.5h2m5 0h1m6 0h1m3 0h2m1 0h1m1 0h4m1 0h1m2 0h1m1 0h1m2 0h3m1 0h4m3 0h1m2 0h3m1 0h1m1 0h3m1 0h3m1 0h3m1 0h1m1 0h2m4 0h1m1 0h3m2 0h1m2 0h3M4 56.5h1m1 0h2m1 0h3m2 0h2m12 0h1m4 0h2m2 0h1m2 0h5m4 0h1m1 0h2m2 0h1m1 0h3m2 0h2m1 0h2m1 0h1m2 0h3m1 0h2m1 0h3m3 0h3m2 0h2M4 57.5h6m1 0h2m2 0h2m2 0h4m1 0h1m1 0h2m1 0h1m1 0h1m5 0h1m5 0h1m2 0h1m1 0h1m1 0h5m3 0h2m1 0h4m1 0h1m1 0h3m2 0h2m1 0h2m1 0h3m2 0h2m1 0h2m1 0h1M4 58.5h1m2 0h6m1 0h2m7 0h4m1 0h2m2 0h6m1 0h2m3 0h1m1 0h1m1 0h4m5 0h6m1 0h1m1 0h6m2 0h1m3 0h3m2 0h7m2 0h1M4 59.5h1m1 0h3m3 0h3m1 0h5m5 0h4m2 0h1m3 0h1m3 0h1m3 0h3m4 0h1m1 0h1m1 0h2m1 0h1m3 0h1m3 0h1m3 0h1m5 0h1m1 0h1m2 0h1m1 0h2m3 0h1m2 0h2M6 60.5h1m1 0h1m1 0h1m1 0h4m1 0h1m1 0h1m1 0h1m1 0h1m3 0h6m1 0h1m1 0h1m1 0h1m2 0h1m1 0h5m6 0h1m2 0h2m1 0h1m1 0h1m1 0h2m5 0h1m4 0h2m2 0h1m1 0h1m1 0h1m1 0h1m1 0h2M4 61.5h2m1 0h2m3 0h2m1 0h3m3 0h1m4 0h1m5 0h1m3 0h1m2 0h1m5 0h1m1 0h4m1 0h4m2 0h1m3 0h1m3 0h3m1 0h1m1 0h2m4 0h1m2 0h4m3 0h1m1 0h3M6 62.5h1m1 0h5m1 0h2m3 0h2m1 0h1m1 0h2m5 0h6m2 0h1m1 0h1m1 0h1m4 0h1m2 0h2m2 0h2m1 0h5m2 0h2m7 0h1m1 0h1m1 0h1m1 0h1m2 0h6M4 63.5h2m2 0h2m1 0h2m1 0h1m1 0h1m5 0h1m1 0h2m1 0h2m2 0h2m1 0h3m3 0h1m4 0h3m1 0h1m1 0h2m3 0h1m1 0h1m4 0h2m2 0h2m3 0h1m1 0h1m4 0h1m5 0h2m2 0h1m1 0h2M5 64.5h1m1 0h2m1 0h2m3 0h1m2 0h3m1 0h2m1 0h1m1 0h1m1 0h1m1 0h1m1 0h2m4 0h2m3 0h3m1 0h2m1 0h2m4 0h1m1 0h2m4 0h4m2 0h2m7 0h1m2 0h1m2 0h2m1 0h4M4 65.5h4m1 0h1m2 0h2m2 0h2m1 0h1m2 0h1m1 0h1m1 0h1m1 0h1m2 0h4m1 0h2m1 0h1m1 0h1m1 0h1m1 0h1m5 0h6m1 0h1m3 0h4m1 0h2m4 0h1m1 0h3m4 0h4m2 0h1M4 66.5h5m1 0h2m1 0h4m1 0h1m2 0h3m1 0h2m1 0h6m2 0h2m2 0h2m3 0h4m1 0h1m1 0h1m4 0h2m1 0h1m1 0h2m3 0h1m2 0h1m4 0h2m4 0h1m1 0h1m1 0h1m3 0h1m1 0h1M5 67.5h1m2 0h2m1 0h4m1 0h3m1 0h1m3 0h2m1 0h2m1 0h3m1 0h3m2 0h1m1 0h1m1 0h1m2 0h2m3 0h2m1 0h2m2 0h1m1 0h3m2 0h2m2 0h1m1 0h8m1 0h2m3 0h4m1 0h1m1 0h1M4 68.5h2m2 0h1m1 0h1m1 0h1m1 0h1m3 0h4m5 0h1m6 0h1m1 0h1m2 0h1m1 0h1m1 0h4m4 0h2m2 0h1m3 0h3m2 0h2m3 0h5m2 0h1m5 0h2m1 0h2m1 0h4M6 69.5h1m2 0h1m1 0h2m3 0h1m2 0h2m1 0h1m2 0h1m1 0h2m1 0h2m1 0h2m2 0h1m2 0h1m1 0h2m1 0h2m1 0h2m1 0h4m2 0h1m1 0h3m1 0h1m4 0h1m2 0h2m1 0h1m2 0h2m2 0h3m2 0h4m1 0h1M4 70.5h5m1 0h2m1 0h1m1 0h1m1 0h2m1 0h1m4 0h1m2 0h1m3 0h4m1 0h2m2 0h3m1 0h1m1 0h6m1 0h3m1 0h2m1 0h1m2 0h4m1 0h1m1 0h3m1 0h2m2 0h1m1 0h1m2 0h1m4 0h3M5 71.5h2m1 0h1m3 0h1m4 0h4m2 0h3m1 0h1m1 0h2m3 0h2m4 0h2m2 0h2m1 0h1m1 0h2m6 0h3m1 0h5m1 0h1m1 0h1m1 0h3m4 0h1m1 0h3m2 0h1m3 0h4M4 72.5h1m2 0h11m3 0h2m2 0h1m2 0h1m9 0h4m1 0h1m1 0h1m4 0h2m1 0h1m1 0h2m1 0h1m2 0h2m2 0h1m2 0h1m7 0h1m1 0h2m1 0h2m3 0h2m3 0h2M4 73.5h1m1 0h4m1 0h1m2 0h2m2 0h5m1 0h3m4 0h3m2 0h1m2 0h1m3 0h1m5 0h2m1 0h2m1 0h1m1 0h1m1 0h1m2 0h2m1 0h2m2 0h2m2 0h1m2 0h2m1 0h1m1 0h1m2 0h3m2 0h1m2 0h1M5 74.5h1m1 0h1m2 0h1m2 0h1m1 0h1m1 0h1m1 0h8m1 0h3m2 0h5m2 0h1m1 0h1m6 0h1m3 0h2m4 0h1m1 0h1m1 0h1m2 0h1m2 0h3m1 0h2m1 0h1m3 0h3m5 0h1M4 75.5h2m1 0h3m2 0h1m2 0h2m2 0h1m3 0h4m1 0h1m1 0h2m2 0h3m2 0h1m6 0h2m3 0h1m1 0h1m2 0h2m3 0h4m1 0h1m5 0h1m1 0h1m1 0h3m2 0h2m3 0h1m1 0h1m2 0h1M6 76.5h2m2 0h1m1 0h1m1 0h3m1 0h1m2 0h1m1 0h5m3 0h3m2 0h3m1 0h2m1 0h2m2 0h1m1 0h1m1 0h3m3 0h1m2 0h4m7 0h1m1 0h2m3 0h1m1 0h1m1 0h2m4 0h4M7 77.5h1m1 0h1m1 0h1m3 0h1m1 0h4m4 0h2m6 0h1m1 0h1m2 0h4m1 0h1m3 0h1m2 0h4m1 0h5m3 0h1m1 0h1m3 0h1m2 0h3m2 0h1m1 0h1m1 0h1m1 0h2m1 0h1m1 0h1m1 0h2M5 78.5h1m1 0h1m1 0h6m2 0h2m1 0h2m3 0h2m1 0h1m2 0h1m1 0h1m2 0h2m1 0h1m2 0h2m4 0h1m1 0h1m2 0h2m1 0h2m1 0h1m1 0h1m1 0h1m1 0h1m2 0h1m1 0h3m1 0h1m1 0h1m1 0h1m1 0h1m1 0h3m2 0h1m2 0h3M4 79.5h3m1 0h1m3 0h1m3 0h2m2 0h1m1 0h3m1 0h2m2 0h2m1 0h1m1 0h4m1 0h1m2 0h2m2 0h2m1 0h1m1 0h1m7 0h1m1 0h5m1 0h2m2 0h1m1 0h1m1 0h1m3 0h1m2 0h5m2 0h3M4 80.5h2m2 0h3m2 0h1m2 0h5m1 0h1m1 0h3m3 0h2m2 0h2m2 0h1m1 0h2m2 0h6m2 0h1m1 0h2m5 0h1m5 0h1m3 0h2m1 0h1m2 0h3m1 0h2m1 0h2m1 0h1m2 0h2M4 81.5h1m1 0h1m7 0h1m1 0h2m3 0h1m1 0h1m7 0h3m1 0h1m3 0h2m1 0h2m2 0h2m2 0h1m3 0h2m2 0h3m1 0h6m4 0h2m2 0h3m1 0h1m1 0h2m2 0h2m2 0h2M4 82.5h1m2 0h1m2 0h1m1 0h2m2 0h1m2 0h2m1 0h1m2 0h1m3 0h1m2 0h1m1 0h6m2 0h4m2 0h2m1 0h2m1 0h3m2 0h2m2 0h1m1 0h3m1 0h1m1 0h1m1 0h1m1 0h2m1 0h1m2 0h2m3 0h1m5 0h1M4 83.5h2m2 0h2m3 0h3m3 0h2m2 0h1m1 0h7m1 0h1m2 0h2m3 0h1m4 0h1m1 0h4m2 0h3m1 0h2m4 0h5m1 0h1m1 0h3m1 0h2m2 0h3m3 0h1m1 0h1m3 0h1M4 84.5h1m2 0h1m2 0h1m1 0h1m1 0h3m1 0h1m1 0h1m4 0h1m1 0h1m2 0h7m3 0h1m1 0h3m1 0h1m1 0h1m3 0h4m1 0h7m1 0h1m1 0h2m3 0h2m3 0h1m1 0h1m3 0h7m2 0h1M12 85.5h1m4 0h3m5 0h2m2 0h1m2 0h1m3 0h1m4 0h2m4 0h7m2 0h3m3 0h1m3 0h1m5 0h1m1 0h2m1 0h1m3 0h1m1 0h2m3 0h2m1 0h2M4 86.5h7m1 0h1m1 0h1m2 0h1m1 0h2m1 0h1m2 0h1m1 0h3m2 0h1m1 0h1m1 0h3m1 0h2m3 0h3m1 0h1m1 0h1m2 0h1m1 0h3m1 0h1m1 0h1m1 0h1m3 0h3m2 0h2m1 0h3m1 0h3m1 0h1m1 0h1m1 0h2m1 0h2M4 87.5h1m5 0h1m1 0h1m2 0h7m1 0h2m1 0h1m2 0h2m1 0h1m3 0h2m1 0h2m1 0h2m3 0h1m1 0h2m1 0h2m3 0h2m3 0h1m6 0h3m1 0h1m1 0h1m1 0h2m1 0h1m1 0h1m1 0h1m3 0h1M4 88.5h1m1 0h3m1 0h1m2 0h1m1 0h5m3 0h2m1 0h1m1 0h1m1 0h1m1 0h5m1 0h2m1 0h2m1 0h1m2 0h1m1 0h2m1 0h1m1 0h2m2 0h5m5 0h1m1 0h3m2 0h1m1 0h3m1 0h8m2 0h1M4 89.5h1m1 0h3m1 0h1m2 0h1m1 0h1m1 0h4m1 0h2m1 0h2m3 0h4m1 0h2m1 0h1m3 0h2m1 0h1m1 0h1m1 0h1m3 0h4m1 0h3m1 0h1m1 0h1m2 0h4m9 0h3m1 0h5m1 0h1M4 90.5h1m1 0h3m1 0h1m3 0h1m2 0h1m4 0h1m1 0h2m2 0h2m1 0h1m1 0h2m1 0h1m3 0h1m2 0h2m1 0h1m1 0h2m1 0h1m1 0h3m2 0h1m1 0h1m1 0h4m1 0h2m3 0h2m4 0h1m1 0h1m1 0h1m1 0h1m2 0h1m3 0h1M4 91.5h1m5 0h1m1 0h1m6 0h1m2 0h1m1 0h2m1 0h1m2 0h1m3 0h7m3 0h1m3 0h1m1 0h2m1 0h1m1 0h3m4 0h5m1 0h2m3 0h2m1 0h4m3 0h1m2 0h1m1 0h2m2 0h1M4 92.5h7m1 0h1m1 0h3m1 0h5m2 0h1m2 0h2m1 0h1m2 0h1m6 0h1m2 0h1m4 0h1m3 0h3m1 0h1m3 0h1m1 0h1m1 0h1m5 0h5m1 0h1m1 0h2m1 0h2m3 0h1m1 0h2"/></svg>
