<svg xmlns="http://www.w3.org/2000/svg" viewBox="0 0 109 109" shape-rendering="crispEdges"><path fill="#ffffff" d="M0 0h109v109H0z"/><path stroke="#000000" d="M4 4.5h7m1 0h1m1 0h2m2 0h1m1 0h4m4 0h1m3 0h2m2 0h2m4 0h1m2 0h1m3 0h5m1 0h2m2 0h1m3 0h1m1 0h2m3 0h4m2 0h1m1 0h1m4 0h3m2 0h2m1 0h2m1 0h2m2 0h7M4 5.5h1m5 0h1m1 0h1m1 0h1m2 0h2m4 0h2m2 0h1m1 0h1m2 0h1m1 0h1m1 0h2m1 0h5m2 0h1m2 0h1m2 0h2m1 0h2m3 0h2m1 0h2m1 0h1m7 0h1m1 0h1m1 0h1m1 0h1m4 0h2m4 0h3m4 0h1m5 0h1M4 6.5h1m1 0h3m1 0h1m1 0h1m1 0h2m3 0h1m1 0h3m1 0h2m2 0h2m2 0h2m1 0h2m1 0h4m1 0h2m2 0h4m3 0h2m2 0h4m3 0h1m1 0h3m3 0h2m1 0h2m1 0h1m2 0h2m1 0h2m3 0h2m2 0h1m2 0h1m1 0h3m1 0h1M4 7.5h1m1 0h3m1 0h1m1 0h2m1 0h4m2 0h1m1 0h1m2 0h1m1 0h1m2 0h1m1 0h1m5 0h2m2 0h3m3 0h1m1 0h4m1 0h3m1 0h3m2 0h1m1 0h2m2 0h1m3 0h4m1 0h2m3 0h1m1 0h2m1 0h3m1 0h2m2 0h1m1 0h3m1 0h1M4 8.5h1m1 0h3m1 0h1m2 0h1m2 0h2m1 0h1m1 0h2m2 0h1m3 0h9m3 0h1m2 0h2m6 0h5m2 0h1m1 0h3m1 0h3m1 0h2m3 0h5m1 0h1m3 0h1m2 0h2m1 0h1m1 0h3m1 0h1m1 0h1m1 0h3m1 0h1M4 9.5h1m5 0h1m1 0h1m5 0h1m2 0h5m4 0h1m3 0h2m1 0h1m1 0h4m1 0h9m3 0h1m2 0h2m1 0h1m1 0h2m3 0h1m3 0h2m3 0h1m1 0h1m2 0h2m1 0h2m1 0h1m1 0h1m3 0h1m2 0h1m5 0h1M4 10.5h7m1 0h1m1 0h1m1 0h1m1 0h1m1 0h1m1 0h1m1 0h1m1 0h1m1 0h1m1 0h1m1 0h1m1 0h1m1 0h1m1 0h1m1 0h1m1 0h1m1 0h1m1 0h1m1 0h1m1 0h1m1 0h1m1 0h1m1 0h1m1 0h1m1 0h1m1 0h1m1 0h1m1 0h1m1 0h1m1 0h1m1 0h1m1 0h1m1 0h1m1 0h1m1 0h1m1 0h1m1 0h1m1 0h1m1 0h1m1 0h1m1 0h1m1 0h1m1 0h1m1 0h7M13 11.5h1m1 0h1m1 0h2m2 0h1m1 0h5m2 0h1m3 0h1m4 0h4m1 0h6m1 0h2m3 0h1m2 0h1m1 0h1m5 0h2m1 0h5m3 0h3m3 0h3m2 0h2M4 12.5h2m2 0h3m5 0h1m1 0h1m2 0h1m2 0h5m1 0h7m2 0h3m1 0h1m2 0h5m1 0h7m2 0h2m1 0h1m3 0h1m4 0h13m2 0h1m1 0h3m1 0h1m4 0h1m1 0h4M6 13.5h2m1 0h1m3 0h1m3 0h1m2 0h3m4 0h3m1 0h1m1 0h1m2 0h1m1 0h2m1 0h1m4 0h2m1 0h2m1 0h4m1 0h3m2 0h4m1 0h2m1 0h5m1 0h1m1 0h1m1 0h1m1 0h2m1 0h1m2 0h1m5 0h1m1 0h1m3 0h1m1 0h1m1 0h1M5 14.5h3m1 0h4m2 0h3m3 0h3m1 0h2m4 0h2m1 0h1m4 0h1m1 0h2m1 0h1m1 0h2m2 0h2m1 0h3m5 0h3m1 0h2m2 0h1m1 0h1m1 0h1m2 0h1m1 0h4m2 0h4m3 0h3m1 0h1m4 0h5M5 15.5h3m4 0h1m1 0h1m4 0h1m2 0h2m6 0h4m3 0h1m2 0h4m1 0h1m2 0h1m1 0h1m1 0h1m2 0h3m1 0h1m2 0h2m1 0h1m1 0h2m1 0h1m1 0h1m3 0h2m1 0h1m4 0h2m3 0h1m1 0h1m2 0h1m1 0h3m1 0h1m2 0h2M4 16.5h2m2 0h1m1 0h3m1 0h2m2 0h7m1 0h4m3 0h1m1 0h1m2 0h1m2 0h2m2 0h6m2 0h1m1 0h5m2 0h4m2 0h1m1 0h1m3 0h1m1 0h1m1 0h2m2 0h2m1 0h1m1 0h1m1 0h1m1 0h1m3 0h1m2 0h1m1 0h5M4 17.5h2m2 0h1m2 0h2m2 0h1m1 0h1m3 0h1m5 0h3m2 0h1m1 0h1m2 0h1m1 0h1m7 0h4m4 0h2m1 0h1m1 0h1m3 0h2m1 0h1m1 0h1m1 0h4m1 0h1m1 0h2m1 0h1m5 0h3m1 0h2m1 0h3m1 0h2m1 0h3M4 18.5h2m1 0h2m1 0h4m4 0h1m1 0h1m5 0h2m4 0h4m1 0h1m3 0h3m1 0h1m1 0h1m1 0h1m2 0h2m1 0h2m3 0h2m5 0h1m2 0h2m3 0h3m3 0h1m2 0h1m1 0h1m1 0h1m1 0h1m2 0h1m7 0h2m1 0h1M7 19.5h2m2 0h4m3 0h5m1 0h1m1 0h1m1 0h2m1 0h1m1 0h3m3 0h1m1 0h3m2 0h1m1 0h2m1 0h2m1 0h1m1 0h1m1 0h2m2 0h3m3 0h1m2 0h3m1 0h2m1 0h1m1 0h3m4 0h1m1 0h1m1 0h1m3 0h1m1 0h1m3 0h1M4 20.5h1m1 0h1m2 0h2m2 0h1m3 0h1m1 0h4m1 0h1m4 0h2m2 0h2m3 0h4m1 0h1m3 0h2m4 0h1m1 0h3m2 0h1m1 0h2m2 0h3m1 0h1m1 0h1m3 0h1m1 0h2m1 0h1m2 0h3m3 0h2m3 0h1m5 0h1m2 0h1M4 21.5h5m3 0h1m3 0h4m1 0h1m2 0h2m1 0h1m2 0h2m2 0h5m1 0h1m1 0h2m2 0h6m1 0h4m1 0h2m1 0h1m1 0h1m1 0h1m2 0h4m1 0h1m2 0h1m5 0h1m1 0h1m1 0h1m2 0h1m1 0h4m1 0h2m1 0h1m4 0h1M4 22.5h1m2 0h2m1 0h13m1 0h3m1 0h1m1 0h2m1 0h1m2 0h3m1 0h1m1 0h1m1 0h3m1 0h2m4 0h4m1 0h4m7 0h1m1 0h1m5 0h1m2 0h1m2 0h1m1 0h1m3 0h1m2 0h1m3 0h1m1 0h1m1 0h1m2 0h1M8 23.5h2m1 0h2m1 0h1m2 0h1m2 0h1m2 0h1m2 0h1m1 0h2m1 0h4m1 0h2m2 0h2m7 0h1m2 0h1m1 0h3m1 0h1m1 0h1m1 0h2m5 0h1m2 0h1m2 0h3m1 0h1m1 0h1m1 0h3m3 0h1m2 0h1m1 0h2m4 0h2M5 24.5h2m3 0h1m2 0h1m1 0h2m2 0h1m2 0h5m2 0h4m1 0h2m1 0h1m2 0h3m1 0h2m1 0h3m5 0h1m2 0h2m2 0h1m2 0h2m3 0h2m2 0h1m1 0h1m2 0h2m1 0h1m1 0h1m1 0h2m1 0h1m4 0h2m3 0h1m1 0h2m1 0h1M4 25.5h4m1 0h1m1 0h1m3 0h3m1 0h1m1 0h1m1 0h1m2 0h1m1 0h5m1 0h1m1 0h1m1 0h2m1 0h2m1 0h2m2 0h1m1 0h4m1 0h8m1 0h1m1 0h2m4 0h1m1 0h9m1 0h2m1 0h2m1 0h2m2 0h4m1 0h1m1 0h4M5 26.5h4m1 0h5m2 0h1m3 0h3m1 0h2m2 0h6m1 0h2m2 0h2m3 0h2m3 0h1m1 0h1m2 0h2m1 0h2m1 0h2m4 0h3m2 0h1m1 0h2m1 0h7m1 0h1m1 0h1m4 0h5m3 0h1m1 0h3M9 27.5h1m1 0h1m1 0h2m1 0h1m2 0h2m3 0h4m6 0h1m2 0h1m1 0h1m1 0h1m1 0h3m1 0h1m1 0h2m2 0h3m2 0h1m1 0h4m3 0h1m4 0h1m1 0h3m1 0h1m1 0h1m1 0h1m1 0h6m2 0h2m1 0h1m3 0h1m2 0h2M6 28.5h1m1 0h5m4 0h2m7 0h3m3 0h5m1 0h1m3 0h1m4 0h1m2 0h9m1 0h2m3 0h2m1 0h1m1 0h4m4 0h5m1 0h2m1 0h6m5 0h1m2 0h2M6 29.5h1m1 0h1m3 0h3m1 0h1m3 0h1m1 0h1m1 0h2m1 0h1m1 0h1m1 0h2m2 0h2m5 0h2m1 0h1m2 0h1m1 0h2m3 0h1m2 0h3m4 0h4m1 0h1m2 0h1m3 0h5m3 0h6m1 0h2m1 0h1m1 0h1m2 0h1m1 0h3M6 30.5h8m1 0h1m1 0h1m1 0h4m1 0h2m4 0h6m3 0h1m1 0h2m2 0h3m2 0h9m1 0h1m1 0h1m4 0h5m2 0h5m1 0h7m4 0h1m1 0h1m1 0h7M4 31.5h5m3 0h1m2 0h5m1 0h1m5 0h1m2 0h1m3 0h2m1 0h6m1 0h1m1 0h1m3 0h1m1 0h1m3 0h2m2 0h6m1 0h1m1 0h1m2 0h3m3 0h1m5 0h1m1 0h1m1 0h3m1 0h3m1 0h1m3 0h3M8 32.5h1m1 0h1m1 0h4m2 0h1m1 0h2m1 0h3m1 0h1m1 0h2m1 0h1m1 0h1m4 0h2m3 0h4m2 0h1m1 0h1m1 0h1m1 0h2m2 0h1m1 0h1m1 0h1m1 0h1m1 0h7m1 0h1m1 0h4m1 0h2m5 0h1m1 0h1m2 0h2m1 0h1m1 0h1m1 0h2M5 33.5h1m2 0h1m3 0h4m4 0h1m1 0h2m3 0h2m1 0h1m3 0h3m2 0h2m4 0h1m2 0h5m3 0h1m1 0h7m3 0h3m1 0h3m3 0h1m3 0h1m1 0h3m4 0h6m3 0h2m1 0h1M8 34.5h5m3 0h6m2 0h4m2 0h5m1 0h1m1 0h1m2 0h1m2 0h1m1 0h1m4 0h7m1 0h1m2 0h1m3 0h4m2 0h1m1 0h6m1 0h6m9 0h7m1 0h1M4 35.5h1m1 0h1m1 0h2m5 0h2m4 0h2m1 0h2m2 0h6m2 0h4m4 0h3m1 0h1m1 0h1m3 0h1m2 0h1m1 0h2m2 0h2m1 0h1m1 0h2m6 0h2m2 0h1m1 0h1m1 0h1m3 0h2m1 0h3m3 0h2m1 0h1m1 0h1M4 36.5h3m1 0h1m1 0h2m4 0h1m3 0h1m2 0h1m4 0h1m1 0h3m1 0h2m4 0h1m1 0h4m5 0h3m2 0h1m1 0h2m1 0h1m2 0h2m2 0h4m1 0h1m2 0h1m2 0h1m1 0h2m3 0h1m2 0h1m2 0h1m2 0h4m1 0h2m1 0h1M9 37.5h1m1 0h1m2 0h1m2 0h3m2 0h1m3 0h2m2 0h2m4 0h3m1 0h2m4 0h1m1 0h2m1 0h1m8 0h1m2 0h2m1 0h1m2 0h3m1 0h1m1 0h1m3 0h3m4 0h1m2 0h1m1 0h1m2 0h1m1 0h1m1 0h1m1 0h5M4 38.5h1m1 0h1m1 0h5m1 0h2m1 0h1m1 0h1m1 0h2m2 0h1m5 0h3m1 0h1m2 0h1m1 0h1m2 0h4m3 0h2m4 0h1m3 0h1m4 0h1m2 0h2m5 0h3m4 0h2m1 0h1m2 0h5m4 0h1m1 0h2m3 0h1M4 39.5h1m3 0h1m2 0h1m2 0h1m2 0h1m1 0h3m2 0h4m1 0h1m3 0h4m1 0h5m1 0h2m4 0h1m1 0h1m3 0h3m2 0h1m2 0h1m1 0h1m1 0h1m3 0h1m3 0h1m2 0h4m1 0h3m1 0h1m1 0h1m2 0h3m2 0h1m3 0h1m1 0h1M5 40.5h3m1 0h2m1 0h1m3 0h1m2 0h2m1 0h1m3 0h1m4 0h1m2 0h1m1 0h1m1 0h2m2 0h2m2 0h2m1 0h3m1 0h1m2 0h2m2 0h1m1 0h9m2 0h1m3 0h2m1 0h7m1 0h3m2 0h1m1 0h2m1 0h1m1 0h2m2 0h1M5 41.5h1m1 0h3m3 0h1m2 0h1m2 0h1m2 0h1m6 0h1m1 0h1m2 0h3m2 0h3m3 0h2m1 0h1m2 0h7m2 0h2m2 0h4m1 0h1m2 0h4m1 0h4m1 0h3m5 0h3m4 0h2m2 0h1m2 0h1M4 42.5h3m3 0h2m4 0h1m4 0h5m5 0h3m3 0h1m5 0h1m2 0h2m1 0h1m1 0h1m3 0h1m1 0h3m1 0h1m2 0h1m2 0h3m1 0h2m1 0h1m5 0h1m2 0h2m4 0h2m1 0h5m1 0h1M4 43.5h5m4 0h2m2 0h1m3 0h2m1 0h5m1 0h2m1 0h1m3 0h2m1 0h1m1 0h1m2 0h3m2 0h2m5 0h1m4 0h3m2 0h1m8 0h4m3 0h1m1 0h7m3 0h3m1 0h2m1 0h2M4 44.5h1m1 0h1m1 0h1m1 0h2m2 0h1m1 0h2m2 0h3m2 0h3m1 0h3m1 0h1m2 0h8m3 0h2m4 0h1m1 0h2m1 0h1m1 0h2m1 0h1m1 0h2m2 0h2m1 0h1m1 0h2m1 0h9m1 0h2m3 0h1m3 0h3m1 0h3m1 0h1M5 45.5h1m1 0h1m1 0h1m1 0h1m3 0h1m3 0h3m9 0h2m1 0h2m1 0h1m1 0h2m3 0h1m3 0h3m2 0h3m1 0h2m6 0h2m1 0h1m1 0h4m2 0h2m2 0h1m1 0h2m1 0h1m1 0h2m1 0h2m3 0h4m2 0h2m1 0h1M5 46.5h1m2 0h3m3 0h3m5 0h2m2 0h3m1 0h1m1 0h1m1 0h1m1 0h3m2 0h3m1 0h1m3 0h3m1 0h4m2 0h1m1 0h1m1 0h2m1 0h13m1 0h1m1 0h1m5 0h1m2 0h1m1 0h1m1 0h1m1 0h2m1 0h2M11 47.5h2m1 0h6m1 0h3m1 0h5m2 0h2m3 0h2m4 0h1m9 0h1m1 0h3m1 0h1m2 0h3m5 0h2m1 0h1m2 0h2m1 0h2m2 0h1m1 0h3m1 0h3m1 0h7M6 48.5h1m2 0h3m1 0h2m1 0h1m1 0h2m1 0h2m2 0h1m1 0h6m3 0h1m1 0h2m3 0h1m2 0h2m2 0h2m1 0h1m5 0h1m1 0h1m2 0h5m1 0h1m1 0h1m2 0h1m1 0h2m1 0h2m5 0h1m3 0h2m2 0h1m3 0h1m2 0h1M7 49.5h1m1 0h1m3 0h1m1 0h2m5 0h1m6 0h2m3 0h2m6 0h1m5 0h3m1 0h4m1 0h2m1 0h2m1 0h2m1 0h1m3 0h1m3 0h2m1 0h1m2 0h1m2 0h1m1 0h1m1 0h5m4 0h4m1 0h1m2 0h1M4 50.5h3m1 0h1m1 0h4m1 0h1m1 0h2m1 0h4m1 0h1m3 0h2m3 0h2m1 0h1m3 0h1m2 0h3m1 0h1m3 0h2m3 0h1m1 0h2m1 0h2m2 0h1m2 0h4m6 0h2m4 0h2m2 0h1m1 0h1m4 0h1m2 0h2m2 0h1M6 51.5h4m4 0h2m1 0h2m1 0h2m2 0h4m2 0h1m2 0h3m1 0h1m3 0h3m1 0h1m3 0h2m2 0h1m1 0h1m1 0h1m1 0h5m1 0h1m1 0h2m2 0h1m2 0h2m2 0h3m2 0h2m3 0h2m1 0h1m7 0h1m1 0h1m2 0h1M4 52.5h1m1 0h1m1 0h7m1 0h2m2 0h3m2 0h11m2 0h1m1 0h3m3 0h4m2 0h7m1 0h1m4 0h1m1 0h2m1 0h3m1 0h5m5 0h1m1 0h1m2 0h4m1 0h1m1 0h6M6 53.5h3m3 0h6m2 0h1m1 0h3m1 0h1m1 0h1m1 0h1m3 0h1m3 0h4m3 0h2m1 0h1m3 0h1m3 0h6m3 0h1m2 0h3m1 0h1m1 0h1m3 0h1m2 0h5m3 0h2m2 0h1m1 0h2m3 0h5M5 54.5h1m1 0h2m1 0h1m1 0h1m1 0h1m1 0h2m1 0h4m4 0h4m1 0h1m1 0h2m1 0h2m2 0h2m1 0h1m1 0h1m1 0h1m2 0h2m1 0h1m1 0h3m1 0h3m3 0h2m1 0h1m1 0h2m1 0h1m1 0h1m1 0h1m1 0h4m1 0h1m1 0h2m4 0h2m1 0h1m1 0h1m1 0h1m1 0h3M4 55.5h3m1 0h1m3 0h2m3 0h3m2 0h1m2 0h3m1 0h2m3 0h1m6 0h1m2 0h1m3 0h2m2 0h1m3 0h2m2 0h1m4 0h1m2 0h1m1 0h2m2 0h1m3 0h2m2 0h5m1 0h1m1 0h1m2 0h1m1 0h2m3 0h1m2 0h1M8 56.5h6m1 0h2m1 0h1m2 0h1m1 0h1m1 0h2m2 0h7m1 0h1m2 0h2m6 0h1m1 0h7m1 0h3m1 0h4m8 0h5m1 0h3m2 0h1m1 0h4m1 0h10M6 57.5h1m1 0h1m4 0h1m4 0h1m1 0h2m4 0h3m6 0h1m2 0h1m5 0h2m1 0h6m2 0h1m2 0h1m2 0h2m3 0h2m1 0h2m5 0h1m4 0h2m2 0h3m2 0h1m1 0h1m2 0h2m2 0h1m2 0h1M7 58.5h1m1 0h2m5 0h2m1 0h6m1 0h2m3 0h1m1 0h4m1 0h1m4 0h4m1 0h3m2 0h5m6 0h2m1 0h1m3 0h2m1 0h3m1 0h2m1 0h1m1 0h1m8 0h1m1 0h2m3 0h1m2 0h2M6 59.5h2m4 0h1m1 0h1m7 0h4m2 0h3m1 0h2m1 0h1m2 0h3m2 0h5m4 0h1m3 0h1m2 0h1m1 0h1m2 0h1m1 0h1m1 0h2m2 0h3m3 0h1m1 0h2m1 0h3m1 0h1m2 0h1m3 0h1m1 0h3m2 0h1m2 0h1M5 60.5h1m1 0h2m1 0h2m6 0h1m2 0h1m2 0h1m1 0h2m3 0h1m4 0h8m2 0h1m3 0h2m2 0h1m3 0h1m1 0h2m4 0h1m1 0h1m8 0h2m4 0h1m1 0h1m4 0h1m6 0h1m2 0h3M6 61.5h2m3 0h2m3 0h3m2 0h4m3 0h2m1 0h2m1 0h5m2 0h1m1 0h2m1 0h1m2 0h3m2 0h2m3 0h3m2 0h1m1 0h1m2 0h1m1 0h2m3 0h4m1 0h1m2 0h3m1 0h1m3 0h1m4 0h1m1 0h2m1 0h3M6 62.5h1m1 0h3m1 0h2m4 0h1m1 0h1m1 0h1m2 0h1m1 0h1m3 0h2m2 0h1m7 0h1m5 0h1m2 0h3m1 0h1m2 0h1m1 0h2m5 0h2m2 0h1m1 0h2m1 0h1m3 0h3m2 0h1m2 0h1m1 0h3m1 0h1m1 0h2m1 0h4M5 63.5h5m2 0h2m3 0h1m2 0h2m1 0h7m1 0h2m1 0h2m1 0h7m2 0h1m1 0h5m2 0h3m5 0h2m3 0h1m2 0h1m1 0h3m2 0h5m1 0h4m1 0h1m1 0h3m1 0h4m4 0h1M4 64.5h1m1 0h2m1 0h2m1 0h1m1 0h2m2 0h1m1 0h1m1 0h2m1 0h1m2 0h2m4 0h2m1 0h1m1 0h1m1 0h2m2 0h1m3 0h1m1 0h3m5 0h1m2 0h7m12 0h2m2 0h1m1 0h2m1 0h1m1 0h1m1 0h9M4 65.5h1m2 0h1m1 0h1m4 0h2m5 0h6m1 0h1m3 0h1m1 0h2m1 0h1m2 0h2m3 0h1m2 0h1m1 0h3m1 0h4m2 0h1m1 0h1m1 0h2m1 0h1m2 0h3m4 0h4m3 0h3m3 0h2m2 0h1m1 0h2m3 0h3M5 66.5h1m2 0h1m1 0h6m1 0h1m1 0h1m3 0h2m1 0h2m3 0h4m5 0h1m2 0h2m1 0h2m1 0h1m1 0h3m1 0h5m2 0h1m3 0h1m4 0h2m4 0h1m1 0h1m2 0h2m1 0h1m2 0h1m4 0h1m1 0h1m1 0h4M6 67.5h1m4 0h1m3 0h1m3 0h2m1 0h1m1 0h2m5 0h2m2 0h1m1 0h5m1 0h1m2 0h2m1 0h1m1 0h1m4 0h2m1 0h1m2 0h2m1 0h3m1 0h1m1 0h2m1 0h3m3 0h3m5 0h2m1 0h3m1 0h1m2 0h1m1 0h2m2 0h1M5 68.5h2m1 0h1m1 0h4m2 0h4m1 0h1m1 0h1m1 0h2m6 0h1m1 0h1m4 0h1m1 0h5m1 0h1m4 0h1m2 0h6m8 0h4m2 0h3m1 0h3m6 0h1m2 0h3m2 0h1m2 0h3M4 69.5h2m2 0h1m4 0h1m5 0h2m2 0h2m3 0h1m1 0h1m2 0h1m1 0h1m3 0h2m3 0h1m2 0h3m2 0h3m1 0h1m3 0h1m1 0h1m2 0h1m1 0h2m1 0h1m1 0h1m1 0h1m1 0h2m1 0h8m4 0h1m1 0h2m1 0h4m1 0h1M4 70.5h3m1 0h3m2 0h2m3 0h1m6 0h2m1 0h2m1 0h3m1 0h1m1 0h3m1 0h2m1 0h1m2 0h1m2 0h1m1 0h2m2 0h1m1 0h3m2 0h2m1 0h6m1 0h6m1 0h1m3 0h1m1 0h3m7 0h1m1 0h1m1 0h1m2 0h2M5 71.5h3m1 0h1m1 0h1m2 0h1m2 0h1m1 0h1m1 0h2m1 0h1m1 0h3m1 0h2m1 0h1m2 0h1m1 0h2m2 0h1m2 0h1m1 0h3m2 0h1m2 0h2m1 0h5m2 0h1m1 0h1m1 0h1m3 0h1m1 0h1m1 0h1m1 0h2m1 0h4m3 0h2m1 0h1m2 0h1m1 0h1m1 0h1m3 0h2M4 72.5h1m1 0h1m2 0h2m1 0h4m1 0h1m5 0h4m3 0h1m1 0h1m2 0h2m2 0h1m1 0h2m1 0h1m1 0h1m1 0h1m1 0h2m1 0h1m1 0h1m1 0h4m1 0h1m1 0h2m1 0h5m3 0h2m3 0h2m1 0h1m1 0h1m2 0h2m1 0h2m3 0h1m1 0h5M4 73.5h1m3 0h2m3 0h1m1 0h3m2 0h2m1 0h1m1 0h5m1 0h1m2 0h3m1 0h1m2 0h1m1 0h2m1 0h4m1 0h1m1 0h1m3 0h2m1 0h1m1 0h4m3 0h1m2 0h3m3 0h1m1 0h2m1 0h5m2 0h1m1 0h1m1 0h3m6 0h2M4 74.5h2m2 0h5m3 0h5m2 0h3m1 0h8m1 0h6m1 0h1m3 0h1m1 0h8m3 0h2m5 0h3m1 0h1m1 0h6m1 0h5m2 0h1m1 0h1m3 0h9m1 0h2M4 75.5h1m1 0h3m3 0h2m4 0h1m2 0h2m1 0h2m1 0h1m1 0h2m3 0h3m1 0h1m1 0h1m1 0h1m1 0h2m1 0h2m2 0h2m3 0h2m3 0h1m1 0h4m1 0h1m3 0h1m1 0h1m3 0h5m2 0h4m1 0h2m2 0h3m3 0h5M5 76.5h2m1 0h1m1 0h1m1 0h2m3 0h1m2 0h3m1 0h1m4 0h2m1 0h1m1 0h1m1 0h2m1 0h2m1 0h5m2 0h1m1 0h2m1 0h1m1 0h1m1 0h2m3 0h3m1 0h2m1 0h2m1 0h2m1 0h1m1 0h6m2 0h2m2 0h1m2 0h2m1 0h1m1 0h1m1 0h4M4 77.5h5m3 0h2m1 0h1m2 0h2m1 0h1m2 0h4m1 0h2m3 0h1m1 0h1m1 0h1m2 0h1m4 0h1m3 0h1m1 0h1m3 0h5m1 0h3m2 0h2m1 0h1m1 0h1m1 0h1m3 0h2m1 0h3m3 0h1m1 0h1m3 0h2m1 0h1m3 0h4M4 78.5h3m1 0h8m1 0h5m1 0h1m1 0h2m3 0h6m5 0h2m2 0h1m2 0h1m3 0h7m3 0h1m1 0h4m2 0h2m1 0h8m1 0h2m1 0h1m1 0h2m1 0h1m3 0h7m1 0h1m1 0h1M4 79.5h4m1 0h1m2 0h2m3 0h1m1 0h2m4 0h1m1 0h2m3 0h2m3 0h8m2 0h6m2 0h1m3 0h3m2 0h3m1 0h1m4 0h1m2 0h8m1 0h3m1 0h4m2 0h1m1 0h8M4 80.5h1m1 0h3m1 0h1m2 0h1m9 0h8m1 0h1m1 0h5m1 0h1m1 0h2m1 0h3m2 0h1m1 0h1m1 0h1m1 0h1m4 0h1m1 0h2m5 0h1m2 0h3m2 0h3m2 0h1m3 0h1m3 0h1m2 0h1m3 0h2m1 0h1M4 81.5h1m1 0h4m1 0h1m1 0h1m6 0h2m1 0h3m4 0h2m2 0h1m4 0h1m2 0h2m1 0h1m2 0h4m3 0h1m1 0h1m1 0h2m2 0h5m1 0h2m1 0h1m3 0h2m3 0h3m1 0h1m4 0h2m2 0h1m1 0h1m3 0h3m1 0h1M5 82.5h1m1 0h1m2 0h1m2 0h3m3 0h1m1 0h1m3 0h1m1 0h1m1 0h2m5 0h1m1 0h1m2 0h1m1 0h5m3 0h3m1 0h1m1 0h4m2 0h8m3 0h1m1 0h3m1 0h1m4 0h1m1 0h6m1 0h1m1 0h2m1 0h5M4 83.5h2m1 0h1m1 0h1m3 0h1m2 0h1m1 0h1m1 0h1m2 0h4m1 0h1m7 0h2m1 0h1m2 0h3m2 0h2m1 0h4m1 0h5m2 0h4m1 0h1m1 0h1m1 0h1m1 0h1m3 0h1m1 0h2m2 0h1m1 0h2m1 0h2m1 0h2m2 0h1m1 0h2m4 0h2M4 84.5h2m1 0h2m1 0h1m3 0h1m2 0h1m2 0h1m2 0h2m5 0h1m1 0h1m2 0h3m1 0h2m1 0h2m2 0h1m1 0h1m1 0h1m1 0h1m1 0h2m1 0h1m2 0h1m2 0h2m1 0h3m3 0h1m1 0h1m2 0h1m1 0h1m2 0h4m5 0h1m1 0h1m1 0h1m1 0h1m2 0h1m3 0h1M4 85.5h3m1 0h2m1 0h3m6 0h3m1 0h2m1 0h1m1 0h2m1 0h14m2 0h2m1 0h1m2 0h3m1 0h4m1 0h2m3 0h1m3 0h2m2 0h1m2 0h2m1 0h1m1 0h1m1 0h1m4 0h1m1 0h2m3 0h1m1 0h1m2 0h2M4 86.5h4m1 0h2m3 0h1m1 0h2m2 0h7m1 0h1m3 0h1m1 0h2m4 0h1m1 0h2m5 0h3m1 0h4m1 0h2m1 0h1m2 0h1m2 0h1m2 0h1m1 0h1m1 0h1m2 0h1m5 0h1m1 0h1m1 0h2m1 0h1m1 0h4m1 0h1m1 0h1m4 0h1M5 87.5h1m1 0h1m3 0h4m2 0h3m2 0h2m2 0h2m1 0h2m2 0h3m3 0h5m2 0h1m4 0h5m2 0h1m5 0h2m1 0h2m1 0h2m1 0h3m2 0h1m2 0h2m2 0h7m3 0h2m2 0h1m3 0h2M4 88.5h3m1 0h3m5 0h1m2 0h2m6 0h1m1 0h3m2 0h1m2 0h1m1 0h3m2 0h3m2 0h4m1 0h1m1 0h4m5 0h1m3 0h4m2 0h3m2 0h1m2 0h2m1 0h2m1 0h1m1 0h2m1 0h1m1 0h1m1 0h1m3 0h1M4 89.5h2m1 0h1m3 0h2m2 0h2m1 0h1m1 0h2m5 0h3m1 0h2m2 0h2m1 0h1m2 0h3m5 0h1m3 0h1m1 0h3m1 0h1m2 0h5m1 0h1m4 0h1m1 0h2m3 0h4m1 0h2m1 0h1m1 0h1m1 0h2m1 0h4m1 0h2M6 90.5h3m1 0h1m5 0h1m2 0h1m2 0h4m1 0h2m2 0h4m2 0h5m8 0h1m2 0h3m1 0h1m2 0h5m2 0h2m2 0h1m3 0h1m1 0h2m2 0h2m1 0h4m2 0h1m1 0h3m3 0h3m3 0h1M5 91.5h2m1 0h2m1 0h1m1 0h4m3 0h1m3 0h2m1 0h2m1 0h3m1 0h1m2 0h3m2 0h1m3 0h1m1 0h2m7 0h1m5 0h1m1 0h1m2 0h1m1 0h1m1 0h2m2 0h3m1 0h1m1 0h1m1 0h2m3 0h1m2 0h1m2 0h6m1 0h2M4 92.5h3m3 0h1m2 0h1m1 0h1m1 0h1m1 0h2m1 0h1m2 0h2m1 0h3m2 0h1m3 0h1m1 0h2m1 0h1m1 0h2m2 0h2m1 0h2m2 0h1m3 0h1m1 0h2m3 0h1m1 0h1m2 0h2m3 0h1m2 0h2m7 0h2m1 0h1m10 0h2M4 93.5h5m2 0h1m1 0h1m2 0h2m1 0h1m1 0h2m2 0h1m1 0h2m2 0h1m1 0h1m1 0h1m1 0h2m1 0h1m2 0h1m1 0h2m1 0h3m3 0h1m2 0h1m1 0h1m2 0h1m2 0h3m1 0h1m1 0h6m1 0h6m2 0h3m1 0h1m1 0h1m1 0h5m3 0h1m1 0h1M4 94.5h1m2 0h2m1 0h1m3 0h2m3 0h1m3 0h1m1 0h2m1 0h1m2 0h2m4 0h4m1 0h6m1 0h1m1 0h2m3 0h1m1 0h1m4 0h1m1 0h1m2 0h1m2 0h1m3 0h4m3 0h1m1 0h2m5 0h2m1 0h1m1 0h4m4 0h1M4 95.5h1m1 0h2m1 0h1m2 0h2m2 0h1m5 0h6m1 0h3m1 0h1m1 0h3m1 0h2m1 0h1m2 0h2m1 0h1m2 0h2m1 0h1m2 0h6m3 0h1m2 0h3m5 0h5m5 0h1m8 0h2m1 0h3m2 0h1M8 96.5h1m1 0h1m8 0h1m1 0h2m2 0h1m2 0h7m3 0h2m1 0h1m1 0h2m2 0h1m2 0h1m1 0h7m1 0h1m1 0h2m1 0h6m3 0h5m2 0h1m2 0h2m4 0h3m2 0h6m1 0h1M12 97.5h3m1 0h1m1 0h1m2 0h1m3 0h1m2 0h1m1 0h1m3 0h2m1 0h3m1 0h1m2 0h1m2 0h3m1 0h2m3 0h1m2 0h2m1 0h2m3 0h2m5 0h1m3 0h1m1 0h1m3 0h2m1 0h3m3 0h1m1 0h2m3 0h1m1 0h1M4 98.5h7m3 0h2m2 0h3m5 0h5m1 0h1m1 0h1m3 0h1m2 0h1m2 0h1m4 0h1m1 0h2m1 0h1m1 0h3m1 0h2m2 0h2m1 0h1m1 0h2m1 0h3m1 0h1m1 0h2m1 0h4m2 0h1m2 0h2m2 0h3m1 0h1m1 0h1m2 0h1M4 99.5h1m5 0h1m1 0h1m1 0h7m4 0h2m3 0h1m3 0h1m3 0h2m1 0h1m1 0h5m2 0h1m1 0h1m3 0h1m1 0h1m1 0h5m1 0h1m1 0h1m2 0h1m1 0h2m3 0h6m2 0h6m1 0h1m1 0h2m3 0h2M4 100.5h1m1 0h3m1 0h1m1 0h2m2 0h2m1 0h1m1 0h3m1 0h2m1 0h8m1 0h1m1 0h7m3 0h1m1 0h6m6 0h1m3 0h1m2 0h1m2 0h6m1 0h1m3 0h2m3 0h4m1 0h9M4 101.5h1m1 0h3m1 0h1m2 0h1m2 0h1m1 0h3m3 0h1m1 0h1m4 0h1m1 0h2m2 0h1m3 0h4m1 0h2m4 0h1m1 0h2m3 0h2m4 0h1m1 0h2m4 0h3m1 0h1m1 0h1m1 0h2m1 0h4m1 0h2m1 0h2m1 0h3m1 0h1m2 0h1M4 102.5h1m1 0h3m1 0h1m2 0h1m2 0h2m4 0h1m4 0h1m1 0h1m2 0h1m1 0h1m2 0h2m3 0h1m1 0h1m1 0h1m1 0h1m1 0h1m2 0h1m1 0h2m2 0h1m1 0h1m3 0h1m4 0h5m2 0h6m3 0h1m3 0h1m2 0h1m1 0h3m1 0h1m1 0h1m1 0h2M4 103.5h1m5 0h1m1 0h1m1 0h1m5 0h2m1 0h4m2 0h1m2 0h4m3 0h2m1 0h2m2 0h4m1 0h1m2 0h1m2 0h2m1 0h3m2 0h1m1 0h3m1 0h1m1 0h1m1 0h1m2 0h3m2 0h1m2 0h2m1 0h1m1 0h2m2 0h1m3 0h1m1 0h1m1 0h2M4 104.5h7m1 0h1m2 0h1m1 0h5m1 0h1m3 0h1m7 0h3m2 0h2m1 0h1m1 0h1m4 0h3m2 0h2m1 0h1m5 0h1m1 0h1m1 0h4m1 0h1m1 0h2m1 0h1m3 0h2m1 0h1m2 0h3m2 0h3m1 0h1m1 0h1m3 0h1"/></svg>
