<svg xmlns="http://www.w3.org/2000/svg" viewBox="0 0 97 97" shape-rendering="crispEdges"><path fill="#ffffff" d="M0 0h97v97H0z"/><path stroke="#000000" d="M4 4.5h7m2 0h1m1 0h1m1 0h3m2 0h5m1 0h1m1 0h1m1 0h2m4 0h1m4 0h4m1 0h1m1 0h1m3 0h3m1 0h1m1 0h1m3 0h2m6 0h2m1 0h3m1 0h2m1 0h3m1 0h7M4 5.5h1m5 0h1m1 0h2m1 0h5m1 0h2m1 0h2m1 0h2m1 0h3m1 0h2m2 0h1m2 0h4m2 0h2m1 0h1m1 0h1m2 0h2m2 0h1m7 0h1m2 0h2m2 0h4m5 0h1m2 0h1m5 0h1M4 6.5h1m1 0h3m1 0h1m1 0h1m1 0h1m1 0h2m3 0h4m1 0h1m2 0h2m1 0h2m2 0h1m1 0h4m1 0h2m5 0h1m5 0h2m5 0h1m2 0h1m1 0h1m1 0h2m2 0h4m1 0h1m6 0h1m1 0h3m1 0h1M4 7.5h1m1 0h3m1 0h1m2 0h4m1 0h2m1 0h3m1 0h2m5 0h2m1 0h1m4 0h1m1 0h1m1 0h2m2 0h2m1 0h5m1 0h2m1 0h3m1 0h1m2 0h1m1 0h1m1 0h1m2 0h1m2 0h1m1 0h2m1 0h1m1 0h1m1 0h1m1 0h3m1 0h1M4 8.5h1m1 0h3m1 0h1m1 0h1m2 0h1m1 0h1m2 0h2m2 0h1m2 0h1m1 0h1m2 0h5m2 0h1m1 0h2m2 0h1m1 0h1m3 0h5m1 0h7m2 0h4m1 0h1m2 0h5m4 0h1m2 0h1m1 0h3m1 0h1M4 9.5h1m5 0h1m1 0h1m1 0h3m1 0h2m2 0h3m1 0h2m2 0h3m3 0h1m3 0h3m6 0h1m1 0h1m4 0h3m3 0h2m2 0h1m2 0h1m3 0h5m1 0h1m1 0h1m1 0h1m2 0h1m5 0h1M4 10.5h7m1 0h1m1 0h1m1 0h1m1 0h1m1 0h1m1 0h1m1 0h1m1 0h1m1 0h1m1 0h1m1 0h1m1 0h1m1 0h1m1 0h1m1 0h1m1 0h1m1 0h1m1 0h1m1 0h1m1 0h1m1 0h1m1 0h1m1 0h1m1 0h1m1 0h1m1 0h1m1 0h1m1 0h1m1 0h1m1 0h1m1 0h1m1 0h1m1 0h1m1 0h1m1 0h1m1 0h1m1 0h1m1 0h7M12 11.5h2m1 0h2m5 0h1m1 0h1m7 0h1m3 0h2m1 0h4m1 0h1m2 0h1m1 0h3m1 0h6m3 0h1m2 0h1m1 0h1m2 0h2m1 0h2m2 0h2m2 0h1m1 0h1M4 12.5h2m1 0h1m2 0h2m1 0h5m1 0h2m7 0h1m3 0h6m2 0h1m3 0h5m1 0h2m1 0h2m2 0h7m4 0h1m1 0h2m1 0h1m2 0h1m9 0h3m1 0h2M5 13.5h3m6 0h1m1 0h1m1 0h5m3 0h2m1 0h2m2 0h2m4 0h1m1 0h1m1 0h5m2 0h2m1 0h1m2 0h1m1 0h4m3 0h1m5 0h2m2 0h2m1 0h2m1 0h2m1 0h2m1 0h1m2 0h1m1 0h1M4 14.5h1m3 0h3m1 0h1m1 0h1m2 0h2m4 0h1m1 0h1m2 0h1m1 0h1m3 0h1m1 0h2m1 0h1m1 0h1m1 0h3m2 0h4m6 0h1m3 0h1m3 0h7m6 0h2m1 0h1m1 0h1m2 0h3m1 0h1M4 15.5h4m13 0h3m1 0h1m2 0h1m6 0h3m10 0h3m3 0h3m1 0h2m4 0h2m3 0h1m1 0h1m1 0h1m1 0h2m1 0h1m3 0h2m2 0h1m1 0h4M4 16.5h1m3 0h1m1 0h6m1 0h2m5 0h1m1 0h2m1 0h4m2 0h3m1 0h2m3 0h1m2 0h3m3 0h3m2 0h1m2 0h2m1 0h4m1 0h2m1 0h1m1 0h1m3 0h1m1 0h1m3 0h3m2 0h4M4 17.5h1m3 0h1m4 0h3m2 0h2m1 0h5m1 0h2m1 0h1m6 0h1m3 0h2m1 0h4m2 0h1m1 0h2m1 0h1m3 0h4m1 0h4m1 0h1m3 0h1m3 0h2m3 0h4m2 0h1m2 0h1M5 18.5h1m1 0h4m2 0h1m3 0h1m1 0h2m1 0h3m2 0h2m3 0h1m2 0h1m1 0h2m5 0h5m1 0h3m1 0h1m3 0h1m1 0h4m1 0h1m1 0h1m3 0h2m2 0h1m2 0h4m1 0h1m1 0h5m1 0h2M4 19.5h3m1 0h2m2 0h2m2 0h1m2 0h5m6 0h4m1 0h1m4 0h1m5 0h5m2 0h6m2 0h6m1 0h2m5 0h2m1 0h3m1 0h1m2 0h6m1 0h1M5 20.5h2m2 0h3m1 0h4m3 0h1m4 0h1m3 0h2m3 0h1m2 0h2m2 0h1m2 0h3m1 0h1m1 0h3m1 0h2m2 0h5m4 0h2m1 0h1m1 0h3m1 0h2m1 0h4m2 0h2m1 0h1m1 0h1M4 21.5h2m3 0h1m2 0h2m2 0h1m1 0h2m7 0h2m2 0h7m1 0h1m2 0h1m2 0h1m3 0h1m2 0h2m4 0h1m4 0h1m1 0h3m1 0h1m6 0h4m1 0h1m1 0h1m3 0h1m1 0h1m2 0h1M5 22.5h2m2 0h3m3 0h3m1 0h1m1 0h2m1 0h2m2 0h1m2 0h1m1 0h1m3 0h7m1 0h1m2 0h2m2 0h4m1 0h2m3 0h2m1 0h3m1 0h1m2 0h2m1 0h1m1 0h1m1 0h1m2 0h1m1 0h4M4 23.5h1m2 0h1m1 0h1m2 0h1m1 0h1m10 0h2m3 0h1m2 0h2m1 0h2m1 0h1m2 0h4m2 0h2m1 0h1m2 0h3m1 0h2m1 0h2m1 0h3m1 0h3m3 0h1m3 0h1m5 0h2m2 0h3m1 0h1M5 24.5h3m2 0h1m1 0h1m1 0h1m5 0h1m1 0h1m1 0h1m1 0h2m2 0h1m1 0h1m2 0h3m6 0h1m1 0h1m1 0h2m1 0h3m1 0h2m3 0h2m1 0h1m1 0h2m1 0h2m4 0h3m1 0h3m1 0h1m5 0h2M6 25.5h2m3 0h1m2 0h9m1 0h1m4 0h2m2 0h1m1 0h3m1 0h2m4 0h1m5 0h1m1 0h1m5 0h1m1 0h2m1 0h3m2 0h1m2 0h1m1 0h2m1 0h4m1 0h2m6 0h3M4 26.5h1m4 0h2m2 0h1m2 0h2m1 0h3m2 0h4m1 0h1m1 0h1m3 0h1m1 0h3m2 0h6m3 0h3m1 0h2m1 0h2m3 0h1m4 0h1m2 0h1m4 0h1m1 0h2m2 0h1m2 0h1m1 0h1m1 0h1m1 0h2M7 27.5h3m5 0h7m1 0h6m1 0h3m3 0h1m3 0h2m1 0h1m1 0h3m1 0h1m2 0h2m1 0h1m4 0h3m1 0h2m3 0h1m1 0h3m2 0h1m2 0h1m3 0h1m3 0h3m2 0h1M4 28.5h1m1 0h2m1 0h3m1 0h2m1 0h1m9 0h2m3 0h1m2 0h2m1 0h3m2 0h1m2 0h1m1 0h1m2 0h1m3 0h2m2 0h1m3 0h1m2 0h2m2 0h2m3 0h2m1 0h3m1 0h5m2 0h1m1 0h1M4 29.5h1m1 0h1m1 0h1m3 0h3m2 0h2m1 0h2m1 0h1m2 0h6m2 0h1m1 0h2m1 0h2m1 0h1m1 0h2m6 0h2m5 0h1m1 0h1m1 0h5m1 0h3m4 0h1m1 0h2m1 0h1m1 0h1m2 0h3m1 0h2M5 30.5h2m1 0h1m1 0h6m2 0h1m1 0h1m1 0h4m1 0h2m3 0h2m4 0h2m3 0h2m1 0h2m1 0h5m1 0h5m2 0h3m1 0h3m2 0h3m4 0h1m3 0h1m1 0h2m2 0h1M6 31.5h1m2 0h1m2 0h4m1 0h3m1 0h2m1 0h1m1 0h2m1 0h1m8 0h1m1 0h1m4 0h1m4 0h4m1 0h1m1 0h1m1 0h1m1 0h1m2 0h1m3 0h2m2 0h1m3 0h2m1 0h2m2 0h4m1 0h1m3 0h1M4 32.5h3m1 0h5m1 0h1m1 0h1m2 0h2m1 0h4m1 0h2m2 0h6m1 0h4m5 0h2m1 0h2m1 0h1m4 0h5m1 0h1m1 0h1m2 0h4m1 0h5m1 0h1m3 0h6m2 0h1M4 33.5h1m1 0h3m3 0h1m4 0h1m3 0h3m1 0h2m2 0h1m2 0h1m3 0h1m1 0h1m2 0h2m1 0h1m3 0h1m1 0h2m1 0h2m3 0h1m3 0h1m5 0h1m1 0h2m6 0h1m3 0h3m3 0h2m1 0h2M7 34.5h2m1 0h1m1 0h1m1 0h1m3 0h5m1 0h1m1 0h1m3 0h1m1 0h1m1 0h1m1 0h1m1 0h1m1 0h2m1 0h1m4 0h1m1 0h4m3 0h2m1 0h1m1 0h8m1 0h1m2 0h1m1 0h2m2 0h1m2 0h2m1 0h1m1 0h1M4 35.5h1m2 0h2m3 0h1m1 0h3m2 0h1m1 0h1m3 0h3m2 0h1m1 0h1m3 0h4m3 0h1m2 0h3m2 0h1m1 0h1m1 0h4m3 0h1m1 0h2m1 0h2m3 0h8m1 0h1m2 0h1m3 0h1m1 0h3M4 36.5h1m3 0h6m1 0h3m3 0h7m2 0h12m3 0h2m1 0h1m2 0h1m1 0h1m3 0h8m3 0h1m3 0h1m1 0h2m1 0h4m3 0h6m2 0h1M4 37.5h2m3 0h1m3 0h3m3 0h1m2 0h3m5 0h1m3 0h1m1 0h5m1 0h1m1 0h1m2 0h1m1 0h2m1 0h2m1 0h2m1 0h3m1 0h1m1 0h2m3 0h1m1 0h2m1 0h2m1 0h2m2 0h1m2 0h1m2 0h2m2 0h1M5 38.5h2m1 0h3m1 0h2m1 0h1m2 0h2m3 0h2m4 0h1m1 0h2m2 0h1m3 0h2m1 0h1m1 0h2m1 0h3m3 0h3m1 0h2m1 0h1m2 0h1m3 0h3m4 0h1m1 0h3m2 0h1m4 0h3m1 0h1m1 0h1M4 39.5h2m1 0h3m4 0h1m2 0h2m2 0h5m2 0h3m1 0h1m2 0h2m1 0h2m1 0h3m1 0h1m2 0h3m7 0h3m1 0h1m1 0h1m1 0h1m3 0h1m1 0h3m1 0h1m1 0h1m1 0h1m2 0h2m3 0h1m3 0h1M4 40.5h1m1 0h2m2 0h1m5 0h5m1 0h1m5 0h1m2 0h3m1 0h1m3 0h1m1 0h3m1 0h2m3 0h1m2 0h1m1 0h1m3 0h1m2 0h1m3 0h5m1 0h1m4 0h3m1 0h1m1 0h1m1 0h4m1 0h1M6 41.5h2m3 0h3m3 0h1m1 0h1m1 0h2m4 0h1m3 0h1m1 0h1m1 0h3m1 0h1m3 0h1m3 0h1m2 0h2m2 0h4m1 0h3m5 0h3m3 0h3m2 0h1m1 0h3m4 0h3M5 42.5h1m1 0h2m1 0h5m3 0h3m3 0h1m1 0h2m1 0h4m1 0h2m3 0h3m1 0h1m1 0h1m2 0h1m4 0h2m2 0h1m2 0h1m1 0h2m2 0h1m1 0h1m1 0h2m1 0h1m2 0h1m1 0h2m1 0h2m3 0h4m1 0h2M5 43.5h3m5 0h1m4 0h1m3 0h5m1 0h5m2 0h2m2 0h1m2 0h1m1 0h2m1 0h3m1 0h1m4 0h1m1 0h1m1 0h1m2 0h1m4 0h1m1 0h2m3 0h2m1 0h2m1 0h2m6 0h2M4 44.5h2m4 0h5m5 0h1m2 0h2m3 0h3m2 0h3m3 0h1m1 0h1m3 0h4m3 0h1m1 0h1m1 0h1m2 0h2m3 0h1m1 0h2m1 0h3m1 0h3m2 0h7m2 0h1m2 0h2M6 45.5h1m2 0h1m1 0h3m1 0h2m1 0h1m2 0h2m1 0h3m1 0h3m1 0h2m1 0h2m1 0h1m1 0h7m1 0h5m1 0h2m1 0h1m1 0h5m1 0h2m1 0h2m1 0h1m1 0h1m2 0h5m5 0h1m2 0h1M5 46.5h3m1 0h2m1 0h3m1 0h3m1 0h1m2 0h1m2 0h2m1 0h1m5 0h1m3 0h4m1 0h1m1 0h1m1 0h1m4 0h2m1 0h1m1 0h1m1 0h3m3 0h1m2 0h1m1 0h3m7 0h3m1 0h6M7 47.5h2m2 0h1m3 0h1m4 0h2m1 0h1m2 0h3m4 0h1m2 0h1m5 0h1m1 0h1m1 0h3m2 0h1m1 0h2m1 0h3m2 0h2m2 0h1m1 0h5m1 0h1m1 0h1m3 0h1m4 0h1m1 0h1m1 0h1m2 0h1M5 48.5h2m1 0h4m1 0h1m1 0h3m2 0h1m2 0h1m3 0h2m2 0h3m1 0h3m1 0h3m1 0h3m2 0h1m1 0h1m1 0h5m1 0h1m3 0h1m3 0h1m2 0h2m2 0h2m1 0h5m1 0h2m2 0h3m2 0h1M7 49.5h3m2 0h1m1 0h5m1 0h1m1 0h1m1 0h6m1 0h2m2 0h1m2 0h1m2 0h1m1 0h2m1 0h5m1 0h1m3 0h1m1 0h1m4 0h1m3 0h1m4 0h2m1 0h4m1 0h1m2 0h6M4 50.5h5m1 0h4m1 0h1m3 0h2m1 0h2m1 0h1m2 0h9m3 0h1m5 0h2m1 0h1m1 0h4m1 0h2m2 0h2m5 0h3m3 0h1m3 0h4m1 0h7m1 0h3M4 51.5h2m1 0h1m1 0h1m3 0h3m2 0h1m5 0h1m1 0h1m3 0h1m4 0h1m1 0h2m2 0h1m1 0h2m2 0h2m1 0h3m1 0h1m3 0h1m1 0h1m1 0h2m1 0h1m2 0h1m2 0h4m6 0h1m1 0h2m1 0h2m2 0h2M5 52.5h1m1 0h1m1 0h3m2 0h4m1 0h1m1 0h1m1 0h2m2 0h2m1 0h1m2 0h2m3 0h5m2 0h1m1 0h1m4 0h1m3 0h1m3 0h6m3 0h1m2 0h1m1 0h3m3 0h1m1 0h3m1 0h1m1 0h4M6 53.5h1m4 0h4m1 0h1m2 0h3m1 0h2m1 0h1m1 0h2m2 0h2m2 0h2m2 0h1m3 0h2m1 0h2m2 0h2m1 0h3m1 0h1m1 0h4m1 0h1m1 0h3m1 0h2m2 0h2m3 0h3m1 0h3m4 0h2M6 54.5h1m1 0h3m2 0h1m2 0h2m1 0h6m1 0h3m1 0h1m1 0h1m1 0h1m4 0h2m2 0h1m1 0h2m2 0h2m1 0h2m1 0h1m1 0h1m2 0h1m1 0h2m1 0h1m3 0h1m2 0h1m1 0h4m1 0h2m2 0h1m1 0h2m1 0h3m1 0h1M4 55.5h1m3 0h2m2 0h2m1 0h3m1 0h5m1 0h1m1 0h3m1 0h5m1 0h1m1 0h3m1 0h1m1 0h3m1 0h1m1 0h5m2 0h2m1 0h1m1 0h1m1 0h2m1 0h1m2 0h1m1 0h3m1 0h3m1 0h1m3 0h2m1 0h2m1 0h1M5 56.5h2m1 0h7m1 0h1m1 0h1m1 0h2m1 0h1m2 0h2m3 0h1m2 0h2m1 0h1m1 0h1m1 0h1m3 0h2m2 0h1m5 0h1m10 0h3m1 0h1m1 0h2m1 0h3m1 0h2m3 0h3m1 0h1m2 0h2M5 57.5h1m2 0h2m1 0h8m1 0h3m1 0h2m1 0h1m2 0h4m3 0h1m3 0h2m1 0h1m1 0h2m1 0h1m1 0h4m5 0h3m1 0h2m1 0h1m2 0h1m1 0h1m1 0h3m1 0h2m1 0h4m2 0h2m1 0h3M5 58.5h1m2 0h5m3 0h2m3 0h1m1 0h1m3 0h1m1 0h11m2 0h1m1 0h1m2 0h1m1 0h4m1 0h1m1 0h11m1 0h1m3 0h2m3 0h4m1 0h7m3 0h1M4 59.5h3m1 0h1m3 0h3m2 0h1m1 0h1m1 0h1m1 0h1m1 0h2m2 0h1m1 0h2m3 0h6m1 0h4m2 0h1m1 0h1m2 0h1m1 0h3m3 0h1m3 0h6m1 0h4m1 0h3m3 0h1m3 0h5M4 60.5h5m1 0h1m1 0h1m4 0h1m1 0h1m2 0h1m2 0h2m2 0h2m1 0h1m1 0h1m1 0h2m1 0h2m1 0h1m1 0h2m1 0h1m1 0h4m1 0h5m1 0h1m1 0h1m1 0h2m1 0h3m1 0h5m3 0h1m2 0h3m1 0h1m1 0h1m1 0h1m1 0h1M4 61.5h1m1 0h3m3 0h1m3 0h1m1 0h3m2 0h1m1 0h1m2 0h2m2 0h1m3 0h4m1 0h7m4 0h3m2 0h2m3 0h1m1 0h1m1 0h1m2 0h4m1 0h1m2 0h1m1 0h3m2 0h1m3 0h2M5 62.5h1m2 0h6m5 0h6m1 0h2m2 0h8m1 0h3m1 0h4m3 0h1m2 0h2m3 0h6m2 0h2m3 0h1m1 0h2m1 0h1m1 0h2m4 0h5m1 0h3M4 63.5h1m1 0h3m2 0h3m1 0h2m1 0h2m1 0h1m1 0h5m3 0h1m2 0h1m2 0h1m1 0h1m7 0h1m1 0h5m2 0h1m1 0h3m1 0h2m5 0h2m1 0h1m1 0h1m1 0h1m2 0h6m1 0h1m2 0h1M5 64.5h1m3 0h2m2 0h3m2 0h1m3 0h1m1 0h2m1 0h4m3 0h5m5 0h4m1 0h1m3 0h1m2 0h2m1 0h3m2 0h1m1 0h1m3 0h7m5 0h2m1 0h2m1 0h1m1 0h2M7 65.5h2m6 0h6m2 0h1m3 0h2m1 0h1m1 0h1m1 0h4m1 0h4m1 0h1m2 0h2m1 0h1m1 0h1m1 0h1m3 0h1m1 0h1m2 0h2m4 0h1m2 0h2m1 0h1m3 0h2m2 0h2m1 0h2m1 0h1m1 0h2M4 66.5h1m4 0h3m2 0h2m1 0h2m1 0h1m4 0h2m1 0h2m1 0h1m1 0h2m1 0h2m2 0h1m3 0h1m3 0h1m2 0h2m1 0h2m1 0h3m2 0h1m4 0h1m1 0h3m3 0h5m1 0h3m2 0h1m1 0h1m3 0h1M5 67.5h1m7 0h7m2 0h2m1 0h1m1 0h1m1 0h2m3 0h1m3 0h1m4 0h2m1 0h2m2 0h1m5 0h1m1 0h4m2 0h1m1 0h1m1 0h1m2 0h1m1 0h2m4 0h1m2 0h4m1 0h3m1 0h1M4 68.5h2m1 0h5m1 0h3m1 0h1m2 0h3m1 0h2m3 0h1m1 0h1m4 0h1m1 0h2m1 0h2m1 0h2m1 0h1m1 0h1m1 0h3m1 0h1m1 0h2m3 0h1m2 0h2m2 0h1m1 0h1m1 0h2m1 0h3m3 0h1m3 0h2m1 0h1M5 69.5h2m2 0h1m1 0h2m2 0h1m1 0h2m3 0h1m2 0h1m1 0h1m5 0h1m3 0h1m1 0h1m2 0h2m2 0h1m1 0h2m1 0h1m1 0h1m2 0h2m2 0h2m1 0h1m4 0h1m1 0h1m1 0h1m3 0h1m3 0h1m1 0h1m2 0h2m4 0h1M4 70.5h2m3 0h2m3 0h1m2 0h2m3 0h2m1 0h2m4 0h1m2 0h1m3 0h1m2 0h3m4 0h2m1 0h1m3 0h3m1 0h2m2 0h2m1 0h2m4 0h3m2 0h1m9 0h1m2 0h1m1 0h1M5 71.5h1m1 0h1m3 0h3m2 0h2m1 0h1m1 0h1m1 0h1m5 0h1m1 0h5m3 0h1m1 0h1m3 0h1m2 0h5m2 0h3m3 0h1m3 0h5m5 0h9m2 0h3m1 0h1m1 0h1M4 72.5h1m1 0h3m1 0h2m1 0h1m1 0h2m2 0h1m2 0h1m1 0h4m2 0h1m3 0h1m2 0h1m3 0h2m1 0h1m1 0h1m2 0h2m2 0h12m4 0h2m1 0h1m1 0h1m2 0h1m1 0h2m2 0h3m1 0h6M4 73.5h1m1 0h4m1 0h4m2 0h2m1 0h1m1 0h3m1 0h1m2 0h3m1 0h3m2 0h5m2 0h1m1 0h1m1 0h6m1 0h2m2 0h1m1 0h4m3 0h1m3 0h2m1 0h1m2 0h4m1 0h2m4 0h1M4 74.5h2m1 0h1m2 0h1m1 0h2m1 0h1m1 0h1m1 0h1m1 0h2m1 0h4m2 0h1m1 0h2m2 0h4m3 0h4m1 0h1m3 0h4m1 0h2m1 0h1m1 0h2m1 0h1m1 0h2m2 0h5m2 0h2m2 0h1m4 0h5M4 75.5h1m1 0h2m1 0h1m3 0h5m3 0h1m2 0h2m1 0h1m2 0h2m1 0h1m1 0h2m1 0h2m2 0h2m1 0h1m2 0h2m1 0h3m1 0h2m3 0h1m1 0h2m2 0h2m3 0h1m1 0h6m2 0h3m1 0h1m1 0h1m1 0h1m1 0h2M10 76.5h3m1 0h1m2 0h4m1 0h2m1 0h1m2 0h3m1 0h1m1 0h9m1 0h3m3 0h3m4 0h1m1 0h1m2 0h1m1 0h4m1 0h1m3 0h1m2 0h7m1 0h1m2 0h4M4 77.5h2m1 0h1m3 0h2m3 0h6m1 0h1m1 0h1m1 0h2m8 0h4m3 0h1m1 0h1m2 0h1m1 0h2m1 0h1m1 0h4m1 0h1m2 0h1m2 0h2m1 0h1m1 0h3m1 0h1m2 0h1m2 0h6m2 0h1M10 78.5h1m1 0h2m3 0h1m2 0h1m1 0h1m2 0h1m3 0h4m3 0h1m1 0h2m4 0h1m1 0h1m1 0h1m2 0h2m1 0h2m2 0h1m5 0h2m1 0h5m1 0h1m3 0h1m1 0h1m1 0h2m7 0h1M4 79.5h2m1 0h2m3 0h2m3 0h1m3 0h1m2 0h1m1 0h2m1 0h1m3 0h3m2 0h2m1 0h1m1 0h4m3 0h1m1 0h1m4 0h2m1 0h1m2 0h4m1 0h1m1 0h3m1 0h3m2 0h1m2 0h1m2 0h2m1 0h2m2 0h1M4 80.5h1m2 0h1m2 0h1m1 0h4m2 0h3m2 0h3m2 0h3m2 0h1m1 0h2m1 0h5m1 0h2m1 0h2m1 0h7m2 0h2m2 0h1m1 0h1m1 0h2m1 0h1m2 0h1m2 0h1m4 0h1m2 0h2m2 0h2m1 0h1M5 81.5h5m1 0h3m2 0h1m2 0h2m1 0h2m1 0h2m1 0h2m4 0h2m2 0h1m2 0h4m1 0h1m1 0h1m1 0h1m1 0h2m2 0h2m1 0h3m1 0h2m3 0h2m3 0h4m2 0h2m1 0h4m2 0h1M4 82.5h1m2 0h1m2 0h2m1 0h1m3 0h1m1 0h2m3 0h3m3 0h1m1 0h2m2 0h1m1 0h1m3 0h1m2 0h2m1 0h1m1 0h1m1 0h4m4 0h1m3 0h1m4 0h1m1 0h1m1 0h3m7 0h2m3 0h1M4 83.5h2m2 0h2m4 0h2m2 0h2m1 0h2m2 0h7m1 0h1m1 0h2m1 0h1m1 0h1m2 0h1m3 0h3m1 0h2m4 0h2m1 0h2m1 0h2m1 0h1m2 0h1m1 0h2m1 0h2m1 0h1m1 0h1m1 0h1m1 0h1m2 0h1m3 0h1M4 84.5h1m2 0h1m2 0h1m3 0h1m2 0h1m1 0h1m1 0h1m2 0h2m1 0h1m2 0h9m1 0h1m1 0h4m2 0h1m1 0h2m1 0h1m4 0h5m3 0h1m2 0h1m2 0h1m1 0h2m2 0h1m1 0h2m1 0h7M12 85.5h2m1 0h1m1 0h1m2 0h1m3 0h2m2 0h1m3 0h1m3 0h4m3 0h3m2 0h1m2 0h1m1 0h1m1 0h1m1 0h2m3 0h1m1 0h2m1 0h5m1 0h1m2 0h6m2 0h1m3 0h1m2 0h1M4 86.5h7m1 0h2m2 0h1m1 0h2m2 0h3m1 0h4m2 0h1m1 0h1m1 0h1m1 0h1m2 0h1m1 0h3m2 0h1m6 0h4m1 0h1m1 0h1m4 0h1m2 0h3m1 0h2m1 0h1m1 0h1m4 0h1m1 0h1m1 0h5M4 87.5h1m5 0h1m3 0h2m2 0h1m1 0h2m1 0h1m2 0h2m1 0h4m3 0h3m2 0h3m2 0h1m4 0h1m2 0h3m1 0h1m3 0h1m2 0h2m1 0h5m5 0h1m2 0h1m1 0h2m3 0h2m2 0h1M4 88.5h1m1 0h3m1 0h1m7 0h1m1 0h1m1 0h1m1 0h1m1 0h1m5 0h5m2 0h1m1 0h3m1 0h1m2 0h1m1 0h2m1 0h1m4 0h6m2 0h3m2 0h4m2 0h1m1 0h2m3 0h5m1 0h1m1 0h1M4 89.5h1m1 0h3m1 0h1m1 0h1m2 0h1m2 0h1m5 0h2m2 0h1m3 0h1m4 0h2m1 0h1m2 0h1m1 0h2m1 0h4m1 0h5m3 0h2m5 0h1m1 0h1m2 0h1m1 0h3m1 0h4m2 0h1m4 0h3M4 90.5h1m1 0h3m1 0h1m5 0h1m1 0h2m1 0h1m2 0h1m3 0h1m1 0h5m2 0h2m2 0h1m1 0h1m1 0h1m2 0h1m1 0h1m2 0h1m1 0h1m2 0h1m2 0h1m2 0h1m3 0h2m3 0h1m4 0h2m1 0h2m1 0h1m1 0h1m1 0h2m2 0h1M4 91.5h1m5 0h1m1 0h2m1 0h1m1 0h2m1 0h1m2 0h1m2 0h4m1 0h5m4 0h2m3 0h1m1 0h2m1 0h1m2 0h1m4 0h1m1 0h1m1 0h6m1 0h2m4 0h1m2 0h1m1 0h2m2 0h2m1 0h3m1 0h1M4 92.5h7m1 0h1m1 0h1m2 0h1m3 0h2m1 0h1m2 0h1m3 0h1m3 0h3m1 0h1m1 0h2m3 0h2m2 0h1m1 0h2m2 0h1m1 0h2m2 0h1m2 0h1m2 0h2m1 0h2m2 0h1m2 0h1m2 0h1m2 0h2m3 0h3"/></svg>
