<svg xmlns="http://www.w3.org/2000/svg" viewBox="0 0 113 113" shape-rendering="crispEdges"><path fill="#ffffff" d="M0 0h113v113H0z"/><path stroke="#000000" d="M4 4.5h7m1 0h1m1 0h3m2 0h1m1 0h1m2 0h1m1 0h2m2 0h1m5 0h2m3 0h2m1 0h6m2 0h3m2 0h1m1 0h1m5 0h7m2 0h2m2 0h1m1 0h1m2 0h1m3 0h2m1 0h3m1 0h2m1 0h2m3 0h7M4 5.5h1m5 0h1m1 0h5m1 0h1m1 0h3m2 0h2m3 0h8m5 0h1m3 0h2m2 0h2m1 0h1m5 0h3m6 0h1m1 0h1m1 0h2m3 0h6m1 0h1m1 0h1m4 0h1m1 0h1m1 0h1m1 0h1m3 0h1m5 0h1M4 6.5h1m1 0h3m1 0h1m1 0h1m2 0h1m4 0h3m2 0h2m1 0h1m2 0h2m2 0h3m3 0h1m1 0h1m1 0h2m3 0h2m1 0h1m1 0h1m2 0h1m3 0h3m1 0h1m1 0h1m1 0h2m1 0h2m1 0h1m1 0h1m2 0h3m7 0h1m5 0h3m2 0h1m1 0h3m1 0h1M4 7.5h1m1 0h3m1 0h1m1 0h1m5 0h1m1 0h1m1 0h6m1 0h1m3 0h1m2 0h1m6 0h1m2 0h1m2 0h1m1 0h1m2 0h1m1 0h1m1 0h2m1 0h1m1 0h1m2 0h3m1 0h1m5 0h1m4 0h2m1 0h1m1 0h3m2 0h1m3 0h3m2 0h1m1 0h1m1 0h3m1 0h1M4 8.5h1m1 0h3m1 0h1m2 0h1m1 0h4m5 0h1m2 0h7m3 0h6m1 0h1m1 0h4m2 0h9m2 0h1m2 0h3m1 0h3m1 0h1m1 0h6m1 0h1m4 0h1m2 0h1m2 0h4m1 0h2m1 0h1m1 0h3m1 0h1M4 9.5h1m5 0h1m1 0h1m9 0h2m1 0h1m2 0h1m3 0h7m2 0h1m3 0h1m1 0h1m3 0h2m3 0h2m1 0h1m4 0h2m6 0h1m1 0h3m3 0h1m1 0h1m3 0h2m1 0h1m1 0h1m1 0h1m2 0h1m2 0h1m2 0h1m5 0h1M4 10.5h7m1 0h1m1 0h1m1 0h1m1 0h1m1 0h1m1 0h1m1 0h1m1 0h1m1 0h1m1 0h1m1 0h1m1 0h1m1 0h1m1 0h1m1 0h1m1 0h1m1 0h1m1 0h1m1 0h1m1 0h1m1 0h1m1 0h1m1 0h1m1 0h1m1 0h1m1 0h1m1 0h1m1 0h1m1 0h1m1 0h1m1 0h1m1 0h1m1 0h1m1 0h1m1 0h1m1 0h1m1 0h1m1 0h1m1 0h1m1 0h1m1 0h1m1 0h1m1 0h1m1 0h1m1 0h1m1 0h7M14 11.5h1m6 0h1m3 0h1m2 0h1m3 0h2m1 0h1m2 0h1m3 0h4m1 0h2m1 0h3m3 0h2m1 0h2m4 0h3m1 0h3m3 0h2m3 0h4m1 0h2m2 0h2m1 0h3m3 0h1M4 12.5h2m2 0h3m2 0h1m1 0h3m3 0h1m2 0h1m3 0h5m3 0h2m1 0h3m1 0h2m1 0h2m1 0h2m1 0h7m4 0h2m1 0h1m2 0h1m1 0h1m2 0h9m1 0h1m4 0h2m1 0h1m4 0h3m3 0h1m1 0h4M5 13.5h2m1 0h2m1 0h1m2 0h1m1 0h1m7 0h2m3 0h2m3 0h1m4 0h1m4 0h3m3 0h1m1 0h2m1 0h1m1 0h2m2 0h1m1 0h2m1 0h3m3 0h3m2 0h3m1 0h6m2 0h7m2 0h7m3 0h1M5 14.5h6m2 0h1m1 0h2m1 0h1m1 0h1m1 0h1m1 0h1m3 0h1m1 0h1m1 0h1m2 0h1m3 0h1m2 0h1m1 0h2m2 0h1m3 0h1m1 0h5m3 0h1m3 0h3m1 0h2m1 0h2m1 0h2m1 0h5m3 0h2m1 0h2m3 0h1m2 0h1m1 0h2m6 0h1M6 15.5h2m4 0h1m1 0h2m1 0h2m1 0h1m3 0h3m4 0h3m1 0h1m1 0h1m2 0h3m1 0h1m3 0h1m3 0h3m4 0h1m2 0h2m2 0h2m1 0h1m4 0h1m4 0h2m1 0h1m1 0h2m1 0h7m3 0h3m1 0h1m2 0h2m1 0h2M5 16.5h3m2 0h2m1 0h2m1 0h2m1 0h1m1 0h6m1 0h4m1 0h1m1 0h4m2 0h3m2 0h3m1 0h3m3 0h2m2 0h2m1 0h2m1 0h1m1 0h6m1 0h2m4 0h4m2 0h1m4 0h2m1 0h1m1 0h1m2 0h4m1 0h2m1 0h1M4 17.5h2m5 0h2m3 0h2m2 0h1m1 0h1m7 0h1m2 0h1m1 0h1m2 0h2m2 0h3m1 0h1m2 0h3m1 0h4m2 0h2m3 0h2m2 0h4m1 0h5m4 0h2m3 0h1m1 0h1m2 0h1m1 0h1m1 0h3m1 0h1m5 0h3M4 18.5h1m2 0h1m2 0h3m3 0h2m2 0h1m1 0h3m2 0h1m2 0h2m2 0h1m3 0h1m2 0h3m2 0h2m1 0h1m2 0h1m2 0h1m1 0h2m3 0h1m1 0h3m1 0h1m3 0h1m3 0h3m3 0h3m2 0h1m3 0h1m1 0h5m1 0h1m1 0h1m1 0h1m4 0h1M6 19.5h2m1 0h1m1 0h1m1 0h3m2 0h3m3 0h2m2 0h1m1 0h1m3 0h2m1 0h3m5 0h1m1 0h2m1 0h1m1 0h1m4 0h1m3 0h2m10 0h3m5 0h2m3 0h1m2 0h1m2 0h1m1 0h2m2 0h2m1 0h1m1 0h1m1 0h1m1 0h1M4 20.5h4m2 0h1m1 0h5m1 0h3m1 0h1m2 0h1m1 0h1m1 0h1m9 0h4m2 0h1m3 0h3m3 0h8m4 0h1m3 0h5m1 0h1m3 0h1m1 0h1m5 0h3m2 0h3m1 0h2m2 0h1m2 0h2m1 0h1M5 21.5h4m2 0h1m4 0h1m2 0h1m1 0h1m1 0h1m1 0h2m4 0h1m1 0h2m1 0h2m2 0h1m1 0h1m4 0h1m4 0h2m1 0h1m1 0h2m1 0h1m4 0h1m2 0h3m2 0h7m2 0h1m1 0h6m2 0h2m1 0h5m3 0h1m2 0h1M8 22.5h1m1 0h1m1 0h1m2 0h2m3 0h4m5 0h3m6 0h2m3 0h2m5 0h2m2 0h1m2 0h2m1 0h3m1 0h3m1 0h8m1 0h2m2 0h1m1 0h4m4 0h1m1 0h3m1 0h3m2 0h2m2 0h1M8 23.5h2m2 0h1m3 0h4m1 0h1m2 0h1m1 0h2m4 0h2m1 0h4m2 0h1m3 0h7m1 0h1m2 0h1m1 0h1m1 0h1m1 0h3m2 0h2m3 0h2m2 0h1m4 0h2m2 0h2m2 0h1m1 0h4m1 0h2m5 0h3M5 24.5h1m2 0h3m3 0h1m1 0h2m4 0h3m1 0h1m1 0h3m1 0h3m1 0h6m2 0h5m3 0h4m1 0h2m2 0h2m2 0h1m1 0h1m1 0h4m1 0h1m3 0h1m2 0h1m1 0h2m1 0h3m1 0h2m2 0h1m3 0h1m1 0h1m4 0h1m2 0h1M7 25.5h3m1 0h2m1 0h4m3 0h4m1 0h3m1 0h1m2 0h1m1 0h2m2 0h1m2 0h3m2 0h2m1 0h2m6 0h1m1 0h1m1 0h3m1 0h1m2 0h1m2 0h3m4 0h1m3 0h2m5 0h1m1 0h1m1 0h2m2 0h3m2 0h2m1 0h2M4 26.5h1m1 0h1m1 0h5m4 0h1m6 0h1m2 0h1m1 0h1m1 0h1m1 0h1m5 0h1m1 0h2m2 0h3m3 0h2m1 0h1m1 0h2m1 0h1m1 0h2m1 0h3m4 0h4m2 0h1m2 0h2m6 0h6m2 0h1m1 0h2m1 0h1m1 0h2m1 0h2M4 27.5h1m1 0h1m1 0h2m3 0h2m1 0h3m1 0h1m1 0h2m1 0h3m1 0h3m1 0h1m1 0h2m1 0h1m1 0h3m1 0h1m1 0h2m2 0h1m3 0h1m2 0h7m4 0h1m4 0h1m1 0h1m3 0h1m3 0h1m2 0h1m1 0h1m1 0h2m1 0h1m1 0h1m1 0h3m2 0h1m5 0h1M5 28.5h1m2 0h7m4 0h5m2 0h7m2 0h1m4 0h4m1 0h3m3 0h6m2 0h1m1 0h7m2 0h1m1 0h1m1 0h8m2 0h2m2 0h3m2 0h1m1 0h2m1 0h1m1 0h5M6 29.5h1m1 0h1m3 0h1m3 0h2m2 0h3m1 0h1m2 0h2m3 0h2m1 0h1m1 0h1m1 0h1m2 0h1m1 0h2m1 0h1m1 0h4m3 0h1m2 0h1m2 0h3m1 0h1m2 0h2m3 0h3m3 0h5m1 0h1m2 0h2m1 0h1m1 0h1m3 0h3m3 0h4M5 30.5h1m1 0h2m1 0h1m1 0h4m1 0h2m1 0h4m2 0h1m1 0h1m1 0h1m1 0h1m2 0h5m1 0h1m1 0h3m4 0h3m1 0h1m1 0h1m2 0h1m3 0h2m1 0h1m4 0h1m1 0h1m1 0h2m1 0h1m1 0h1m1 0h1m1 0h5m1 0h1m2 0h1m1 0h1m2 0h1m1 0h1m1 0h1m1 0h1m3 0h1M4 31.5h2m2 0h1m3 0h1m2 0h7m1 0h1m2 0h3m3 0h1m5 0h3m3 0h1m1 0h3m1 0h1m1 0h1m3 0h3m1 0h3m1 0h2m1 0h3m5 0h2m3 0h2m2 0h1m4 0h5m1 0h4m1 0h1m3 0h3M5 32.5h1m2 0h5m4 0h1m3 0h4m3 0h5m1 0h3m2 0h1m1 0h1m4 0h2m3 0h6m3 0h1m5 0h1m2 0h1m2 0h2m1 0h6m1 0h1m1 0h1m1 0h5m1 0h1m3 0h1m1 0h1m1 0h5m1 0h1M9 33.5h1m1 0h1m2 0h2m5 0h2m1 0h2m3 0h2m1 0h3m5 0h2m1 0h1m1 0h2m3 0h2m1 0h3m9 0h1m4 0h5m3 0h1m1 0h2m1 0h2m1 0h2m1 0h2m1 0h1m1 0h1m2 0h1m2 0h1m1 0h3m1 0h1M5 34.5h2m3 0h1m2 0h3m1 0h1m1 0h1m1 0h1m1 0h4m2 0h3m5 0h1m1 0h2m2 0h2m2 0h3m1 0h1m3 0h3m3 0h1m6 0h2m2 0h1m2 0h1m2 0h2m1 0h1m2 0h5m1 0h3m3 0h1m3 0h1m2 0h2m1 0h2M4 35.5h3m4 0h2m1 0h1m1 0h2m4 0h1m1 0h1m1 0h2m1 0h1m1 0h1m5 0h2m2 0h3m4 0h1m1 0h3m1 0h2m1 0h2m1 0h2m1 0h3m1 0h9m1 0h1m1 0h1m2 0h1m1 0h2m1 0h3m2 0h2m1 0h1m2 0h2m1 0h3m2 0h2M6 36.5h5m1 0h1m2 0h2m1 0h1m3 0h1m1 0h3m4 0h1m2 0h3m1 0h5m1 0h1m2 0h4m1 0h1m1 0h2m1 0h1m1 0h1m2 0h1m1 0h2m3 0h1m3 0h4m3 0h1m1 0h1m3 0h2m2 0h1m1 0h1m2 0h2m1 0h1m1 0h1m1 0h2m2 0h2M6 37.5h1m2 0h1m1 0h1m1 0h4m2 0h1m1 0h1m2 0h1m8 0h2m1 0h2m2 0h1m1 0h1m1 0h2m2 0h3m1 0h1m3 0h1m4 0h2m2 0h1m5 0h1m1 0h1m2 0h1m1 0h1m2 0h1m4 0h2m2 0h1m1 0h2m1 0h2m4 0h1m5 0h2M5 38.5h2m2 0h2m2 0h1m3 0h1m1 0h3m1 0h1m2 0h2m4 0h2m1 0h2m4 0h4m2 0h2m2 0h2m1 0h1m1 0h1m1 0h1m1 0h2m1 0h2m2 0h1m1 0h2m4 0h1m2 0h2m3 0h2m1 0h1m9 0h5m6 0h2M5 39.5h4m2 0h1m2 0h1m2 0h2m2 0h2m1 0h5m1 0h2m3 0h4m3 0h1m2 0h1m2 0h3m1 0h6m1 0h2m1 0h4m1 0h1m4 0h6m3 0h2m2 0h1m1 0h3m1 0h3m1 0h1m1 0h3m2 0h1m1 0h1m1 0h2M7 40.5h2m1 0h2m3 0h2m1 0h1m2 0h1m2 0h3m1 0h1m1 0h1m1 0h1m3 0h3m2 0h2m5 0h3m1 0h2m1 0h1m1 0h4m2 0h1m1 0h2m8 0h3m2 0h1m1 0h1m1 0h1m1 0h2m2 0h1m1 0h2m2 0h1m1 0h5m1 0h2m2 0h1M5 41.5h1m1 0h3m1 0h2m5 0h1m3 0h1m1 0h2m5 0h1m1 0h1m4 0h1m7 0h1m1 0h1m1 0h7m1 0h1m1 0h2m3 0h2m2 0h2m2 0h1m2 0h1m2 0h4m3 0h1m1 0h6m2 0h6m1 0h3m2 0h1M5 42.5h2m1 0h3m6 0h1m2 0h2m1 0h6m1 0h2m1 0h1m1 0h1m1 0h1m1 0h4m2 0h2m6 0h1m1 0h4m2 0h3m1 0h1m2 0h4m1 0h2m1 0h1m1 0h1m1 0h1m2 0h3m1 0h1m2 0h1m1 0h4m1 0h2m1 0h1m1 0h1m3 0h1m1 0h1M4 43.5h1m6 0h2m2 0h4m4 0h2m2 0h1m1 0h2m1 0h1m1 0h1m2 0h2m1 0h1m1 0h3m2 0h6m2 0h2m1 0h4m5 0h3m2 0h1m1 0h2m1 0h4m4 0h7m1 0h1m3 0h3m1 0h2m2 0h2m1 0h1M4 44.5h1m1 0h5m3 0h1m5 0h3m1 0h1m4 0h2m1 0h2m2 0h3m7 0h3m2 0h2m1 0h1m4 0h1m1 0h5m6 0h1m1 0h1m2 0h7m1 0h1m3 0h2m2 0h6m1 0h1m5 0h2M5 45.5h1m1 0h2m4 0h1m1 0h2m1 0h2m2 0h2m2 0h1m1 0h1m1 0h1m1 0h5m2 0h4m1 0h1m1 0h6m6 0h1m2 0h1m5 0h1m1 0h2m1 0h1m3 0h4m2 0h2m1 0h1m3 0h1m3 0h1m4 0h2m2 0h1m1 0h1M6 46.5h6m1 0h2m3 0h1m2 0h1m2 0h1m2 0h1m1 0h5m5 0h3m1 0h8m4 0h1m1 0h2m3 0h5m4 0h2m2 0h1m1 0h3m1 0h1m3 0h1m2 0h5m1 0h1m3 0h2m1 0h1m1 0h1M7 47.5h2m2 0h1m1 0h3m2 0h1m1 0h1m2 0h1m3 0h1m4 0h1m2 0h1m2 0h1m1 0h1m1 0h2m2 0h2m1 0h3m2 0h1m1 0h1m4 0h2m2 0h2m2 0h2m1 0h3m2 0h1m2 0h1m1 0h1m3 0h3m1 0h4m1 0h1m1 0h1m1 0h2m1 0h7M4 48.5h5m1 0h1m2 0h1m2 0h1m3 0h2m1 0h5m1 0h1m1 0h2m1 0h3m4 0h1m3 0h1m1 0h1m4 0h1m5 0h1m1 0h1m1 0h6m2 0h7m6 0h2m1 0h1m1 0h1m2 0h1m2 0h1m1 0h2m1 0h1m6 0h3M4 49.5h5m3 0h1m2 0h2m1 0h2m1 0h2m4 0h2m2 0h2m1 0h1m1 0h2m2 0h1m1 0h2m3 0h2m4 0h4m1 0h1m1 0h1m1 0h3m3 0h5m2 0h1m1 0h5m1 0h1m2 0h1m4 0h2m1 0h1m1 0h1m2 0h2m2 0h5M4 50.5h5m1 0h3m1 0h1m3 0h1m1 0h6m1 0h1m1 0h1m1 0h3m4 0h1m3 0h1m1 0h1m1 0h1m2 0h1m1 0h1m1 0h1m2 0h3m2 0h3m1 0h5m1 0h2m3 0h3m1 0h2m1 0h1m1 0h3m1 0h3m1 0h1m4 0h1m1 0h1m2 0h1M5 51.5h2m1 0h1m2 0h1m2 0h1m2 0h1m3 0h2m1 0h1m1 0h2m2 0h3m1 0h6m1 0h3m1 0h1m3 0h2m1 0h2m2 0h4m4 0h1m3 0h1m4 0h1m1 0h2m1 0h2m2 0h1m1 0h1m4 0h1m1 0h1m1 0h1m1 0h8m2 0h1m1 0h2M4 52.5h2m1 0h6m4 0h1m1 0h1m1 0h1m1 0h1m1 0h2m1 0h5m2 0h1m3 0h2m2 0h1m6 0h7m1 0h4m3 0h2m2 0h1m3 0h2m1 0h7m1 0h9m1 0h1m2 0h1m2 0h6M4 53.5h1m2 0h2m3 0h1m1 0h1m1 0h3m1 0h3m1 0h5m3 0h5m3 0h1m1 0h2m2 0h2m1 0h1m1 0h2m3 0h1m3 0h1m1 0h2m2 0h1m1 0h1m1 0h1m2 0h1m1 0h2m3 0h2m6 0h1m1 0h2m3 0h2m2 0h2m3 0h1m2 0h1M6 54.5h3m1 0h1m1 0h1m2 0h1m2 0h1m3 0h3m1 0h3m1 0h1m1 0h1m2 0h2m1 0h2m1 0h1m3 0h3m1 0h4m1 0h1m1 0h1m2 0h1m1 0h7m4 0h1m1 0h3m1 0h1m1 0h1m2 0h4m2 0h1m2 0h1m2 0h1m2 0h1m1 0h1m1 0h1m1 0h1m2 0h1M4 55.5h5m3 0h1m1 0h1m1 0h2m3 0h2m1 0h1m1 0h1m1 0h1m3 0h2m1 0h1m1 0h1m1 0h2m1 0h2m3 0h1m3 0h2m3 0h1m2 0h3m1 0h3m3 0h1m6 0h1m3 0h1m1 0h3m1 0h3m4 0h1m2 0h1m1 0h1m1 0h1m3 0h4M4 56.5h1m2 0h8m2 0h3m3 0h1m1 0h1m1 0h8m1 0h2m5 0h2m1 0h2m1 0h1m1 0h8m2 0h3m1 0h8m2 0h6m1 0h1m1 0h4m1 0h2m1 0h2m1 0h1m3 0h9M4 57.5h1m9 0h2m2 0h2m1 0h1m5 0h2m1 0h2m1 0h1m2 0h1m1 0h1m1 0h2m4 0h2m1 0h2m1 0h1m1 0h2m2 0h2m4 0h1m1 0h1m1 0h1m1 0h1m1 0h2m1 0h3m3 0h1m1 0h1m2 0h2m1 0h1m1 0h3m1 0h2m3 0h2m2 0h1M4 58.5h2m2 0h3m3 0h1m1 0h1m2 0h2m1 0h5m1 0h4m3 0h2m2 0h1m1 0h2m1 0h2m1 0h4m2 0h1m3 0h1m1 0h1m2 0h1m1 0h1m2 0h8m1 0h1m3 0h1m4 0h1m5 0h3m2 0h2m1 0h2m1 0h2m3 0h1M6 59.5h2m1 0h1m1 0h1m1 0h2m1 0h1m3 0h2m1 0h2m1 0h1m2 0h1m1 0h3m1 0h5m3 0h3m2 0h1m1 0h2m1 0h1m1 0h4m2 0h1m1 0h3m4 0h2m1 0h1m1 0h2m1 0h2m3 0h1m2 0h5m4 0h1m2 0h1m1 0h1m1 0h3M5 60.5h1m4 0h1m2 0h2m2 0h6m2 0h3m5 0h1m6 0h1m1 0h2m1 0h1m1 0h1m1 0h2m1 0h1m1 0h2m1 0h4m3 0h1m1 0h1m1 0h5m1 0h3m1 0h1m2 0h2m2 0h1m3 0h1m2 0h1m1 0h4m1 0h3m1 0h1m1 0h1m1 0h1M4 61.5h3m1 0h1m2 0h3m1 0h1m1 0h3m1 0h5m3 0h4m5 0h2m1 0h2m3 0h4m1 0h1m12 0h1m2 0h2m4 0h1m1 0h5m1 0h1m3 0h1m2 0h1m1 0h1m1 0h2m2 0h1m1 0h2m2 0h2m4 0h1M4 62.5h3m1 0h3m3 0h2m1 0h1m2 0h1m1 0h1m1 0h2m4 0h2m2 0h2m1 0h1m6 0h1m1 0h4m3 0h2m1 0h2m1 0h1m2 0h1m2 0h1m2 0h1m1 0h1m3 0h1m2 0h1m1 0h1m1 0h2m1 0h15m1 0h1m2 0h3m1 0h1M4 63.5h6m1 0h5m1 0h2m1 0h1m2 0h1m3 0h2m1 0h1m9 0h2m2 0h3m2 0h1m1 0h2m2 0h2m1 0h1m6 0h3m4 0h3m3 0h2m1 0h1m2 0h3m1 0h2m1 0h1m3 0h2m1 0h1m1 0h1m3 0h1M4 64.5h1m5 0h1m1 0h1m2 0h1m1 0h2m1 0h1m2 0h2m4 0h1m1 0h9m2 0h1m1 0h2m1 0h2m4 0h1m3 0h2m4 0h1m1 0h2m3 0h2m1 0h1m1 0h3m5 0h1m1 0h1m1 0h2m1 0h3m5 0h3m3 0h1m2 0h2M6 65.5h2m1 0h1m1 0h4m1 0h1m1 0h4m1 0h3m3 0h2m2 0h1m1 0h1m2 0h3m1 0h1m2 0h2m1 0h1m3 0h1m3 0h1m3 0h2m2 0h2m1 0h1m1 0h2m5 0h3m1 0h2m2 0h1m1 0h1m4 0h1m1 0h1m1 0h1m1 0h1m1 0h3m1 0h1m4 0h1M4 66.5h2m1 0h1m2 0h1m2 0h1m1 0h4m1 0h1m1 0h3m8 0h1m5 0h2m3 0h1m2 0h1m1 0h5m1 0h1m1 0h3m1 0h2m1 0h1m3 0h2m7 0h2m1 0h3m1 0h1m1 0h1m2 0h2m1 0h1m3 0h4m3 0h2M4 67.5h1m6 0h4m1 0h1m1 0h3m1 0h2m2 0h2m1 0h1m1 0h2m1 0h6m3 0h3m6 0h1m4 0h1m1 0h1m2 0h1m1 0h1m3 0h2m1 0h2m1 0h6m1 0h2m2 0h3m2 0h1m9 0h1m2 0h1m1 0h2M6 68.5h2m1 0h3m1 0h1m1 0h10m2 0h2m1 0h1m2 0h3m3 0h4m5 0h2m2 0h10m2 0h1m2 0h1m1 0h1m1 0h1m2 0h3m1 0h2m1 0h2m1 0h1m5 0h4m1 0h1m2 0h1m1 0h1m1 0h2m4 0h1M5 69.5h1m1 0h2m3 0h2m1 0h4m1 0h2m1 0h3m2 0h4m4 0h1m1 0h2m5 0h1m1 0h2m3 0h2m1 0h2m2 0h2m1 0h1m1 0h1m1 0h1m1 0h1m1 0h1m3 0h4m2 0h1m1 0h1m1 0h2m1 0h1m1 0h1m1 0h1m1 0h3m3 0h1m1 0h3m3 0h2M4 70.5h8m1 0h2m3 0h1m1 0h2m1 0h2m3 0h2m1 0h1m2 0h4m2 0h1m1 0h7m1 0h1m3 0h1m2 0h1m2 0h1m2 0h1m1 0h1m2 0h2m1 0h3m1 0h1m1 0h1m1 0h2m7 0h1m5 0h1m1 0h1m1 0h1m1 0h1m2 0h1M5 71.5h1m3 0h1m1 0h2m4 0h1m1 0h2m1 0h1m1 0h4m3 0h8m3 0h5m1 0h2m1 0h1m1 0h1m1 0h3m1 0h1m1 0h2m2 0h2m1 0h1m1 0h3m1 0h8m1 0h1m1 0h1m3 0h1m1 0h2m1 0h1m1 0h1m1 0h6M6 72.5h3m1 0h4m2 0h2m2 0h6m2 0h3m2 0h1m1 0h1m1 0h2m2 0h1m1 0h2m5 0h1m1 0h1m1 0h1m1 0h1m1 0h3m1 0h2m1 0h1m1 0h1m5 0h1m1 0h1m2 0h1m1 0h1m4 0h3m1 0h1m1 0h1m1 0h2m2 0h1m2 0h1m1 0h1m2 0h1m1 0h2M4 73.5h2m1 0h1m3 0h4m1 0h3m1 0h3m1 0h2m1 0h1m2 0h2m4 0h2m1 0h1m2 0h2m1 0h3m3 0h4m1 0h3m1 0h4m1 0h1m3 0h2m3 0h2m1 0h1m4 0h2m1 0h1m4 0h1m1 0h1m1 0h2m3 0h1m1 0h2m1 0h1M4 74.5h1m3 0h1m1 0h1m2 0h1m3 0h7m2 0h1m3 0h3m1 0h1m3 0h4m1 0h2m3 0h2m2 0h2m2 0h2m3 0h1m2 0h1m4 0h1m1 0h3m2 0h1m4 0h1m2 0h5m1 0h2m2 0h1m1 0h1m1 0h1m3 0h2m3 0h1M4 75.5h5m3 0h4m2 0h1m2 0h6m1 0h2m1 0h1m1 0h1m2 0h3m2 0h1m5 0h1m1 0h1m1 0h1m1 0h1m7 0h5m1 0h1m1 0h1m4 0h1m1 0h5m1 0h1m1 0h1m2 0h3m2 0h1m3 0h2m1 0h1m1 0h1m1 0h6M4 76.5h1m2 0h6m2 0h2m1 0h1m3 0h2m1 0h1m1 0h9m1 0h1m1 0h2m2 0h2m1 0h2m3 0h7m1 0h1m2 0h7m2 0h1m1 0h9m3 0h5m6 0h3m1 0h6m1 0h1M5 77.5h1m2 0h1m3 0h3m1 0h5m2 0h2m1 0h1m1 0h1m3 0h4m1 0h2m2 0h3m1 0h1m1 0h1m1 0h1m2 0h1m3 0h3m1 0h1m2 0h1m1 0h1m1 0h3m1 0h1m2 0h3m3 0h1m4 0h3m2 0h1m1 0h3m2 0h1m2 0h1m3 0h2m1 0h2M5 78.5h1m1 0h2m1 0h1m1 0h1m1 0h1m4 0h1m3 0h1m1 0h2m1 0h1m1 0h1m1 0h2m5 0h1m3 0h2m3 0h3m1 0h1m1 0h1m1 0h2m1 0h1m3 0h2m1 0h3m6 0h2m1 0h1m1 0h1m1 0h1m1 0h1m1 0h3m3 0h4m1 0h1m1 0h2m1 0h1m1 0h5M4 79.5h1m2 0h2m3 0h1m1 0h1m2 0h1m1 0h2m1 0h2m2 0h1m1 0h1m3 0h1m1 0h3m1 0h1m6 0h2m3 0h3m3 0h2m5 0h2m3 0h2m2 0h5m3 0h1m1 0h1m2 0h1m3 0h1m2 0h1m1 0h1m4 0h2m3 0h1m1 0h2M4 80.5h1m1 0h8m1 0h1m1 0h1m1 0h2m2 0h3m1 0h6m2 0h1m1 0h1m1 0h1m3 0h1m3 0h4m1 0h7m1 0h1m2 0h3m3 0h1m3 0h2m1 0h5m3 0h5m1 0h1m1 0h1m1 0h1m2 0h2m1 0h5m1 0h2M4 81.5h2m2 0h1m2 0h2m3 0h1m3 0h7m3 0h5m2 0h1m1 0h1m1 0h2m1 0h1m1 0h3m3 0h1m1 0h1m2 0h1m1 0h4m1 0h1m5 0h4m2 0h2m2 0h7m2 0h1m1 0h1m2 0h1m2 0h5m1 0h1m3 0h2M6 82.5h1m3 0h1m2 0h3m1 0h2m1 0h1m2 0h3m3 0h1m2 0h1m1 0h1m1 0h1m1 0h2m1 0h2m9 0h2m1 0h2m1 0h1m2 0h1m1 0h4m1 0h3m4 0h3m3 0h2m1 0h2m1 0h1m1 0h1m2 0h6m6 0h1m2 0h2M6 83.5h2m1 0h1m2 0h3m4 0h1m1 0h4m1 0h1m3 0h1m3 0h1m1 0h3m2 0h1m1 0h2m1 0h1m1 0h1m1 0h3m1 0h1m2 0h3m2 0h1m1 0h2m2 0h2m2 0h1m8 0h3m1 0h3m2 0h1m1 0h1m1 0h1m1 0h2m1 0h2m3 0h4M4 84.5h1m3 0h1m1 0h1m2 0h3m1 0h2m1 0h4m5 0h1m1 0h2m3 0h1m2 0h1m2 0h1m3 0h3m1 0h1m1 0h3m5 0h1m1 0h3m1 0h1m1 0h2m1 0h4m4 0h3m1 0h1m3 0h3m2 0h3m1 0h5m2 0h3M4 85.5h1m3 0h1m3 0h2m1 0h1m1 0h1m3 0h3m1 0h1m1 0h2m1 0h2m2 0h1m3 0h1m2 0h1m1 0h5m1 0h2m3 0h1m1 0h1m1 0h1m3 0h4m2 0h1m2 0h2m1 0h3m1 0h1m3 0h4m2 0h2m2 0h3m1 0h3m1 0h1m2 0h1m1 0h3M4 86.5h2m1 0h1m2 0h1m1 0h1m1 0h4m1 0h8m1 0h1m2 0h1m1 0h4m1 0h2m5 0h1m3 0h3m3 0h1m2 0h1m2 0h1m4 0h1m1 0h1m1 0h1m2 0h2m1 0h7m1 0h2m1 0h1m2 0h5m3 0h1m4 0h1m2 0h1m1 0h1M5 87.5h1m1 0h1m1 0h1m1 0h1m2 0h1m1 0h1m1 0h1m1 0h1m2 0h1m1 0h2m4 0h3m3 0h2m1 0h1m2 0h1m4 0h2m1 0h1m1 0h2m2 0h3m2 0h2m4 0h2m2 0h3m7 0h1m1 0h1m4 0h2m1 0h2m1 0h1m1 0h2m2 0h2m2 0h1m1 0h2M4 88.5h3m3 0h1m1 0h2m5 0h1m5 0h1m1 0h2m1 0h1m1 0h3m1 0h1m4 0h1m4 0h2m2 0h2m1 0h1m4 0h1m1 0h2m1 0h2m1 0h1m1 0h2m1 0h2m3 0h1m1 0h1m1 0h1m3 0h3m2 0h1m1 0h2m1 0h2m2 0h1m3 0h1m2 0h1m1 0h2M5 89.5h5m1 0h1m1 0h3m1 0h3m7 0h5m1 0h1m3 0h3m2 0h2m1 0h1m1 0h2m2 0h2m2 0h1m2 0h1m3 0h1m1 0h1m3 0h3m4 0h6m1 0h1m1 0h1m2 0h2m4 0h1m2 0h2m1 0h3m1 0h6M4 90.5h1m1 0h3m1 0h3m2 0h2m2 0h1m1 0h2m2 0h5m1 0h1m1 0h2m4 0h2m1 0h2m4 0h3m4 0h2m1 0h1m4 0h3m5 0h1m1 0h1m2 0h2m2 0h2m1 0h1m4 0h1m5 0h1m1 0h2m1 0h1m4 0h2m2 0h1M4 91.5h1m1 0h1m8 0h1m4 0h2m4 0h2m1 0h1m1 0h1m7 0h3m1 0h1m3 0h1m8 0h2m3 0h1m1 0h3m1 0h2m2 0h1m1 0h2m1 0h1m1 0h3m1 0h2m1 0h1m1 0h1m2 0h3m1 0h2m5 0h2m1 0h1m2 0h1M6 92.5h1m3 0h4m1 0h1m1 0h1m1 0h3m2 0h1m1 0h6m1 0h2m2 0h6m1 0h2m1 0h2m1 0h1m2 0h2m4 0h3m1 0h2m5 0h4m1 0h4m4 0h1m1 0h1m1 0h1m4 0h1m1 0h1m1 0h5m1 0h1m1 0h1m2 0h1M5 93.5h1m1 0h1m1 0h1m1 0h2m3 0h1m1 0h6m1 0h1m1 0h1m1 0h1m1 0h1m1 0h3m1 0h1m2 0h1m1 0h2m1 0h2m3 0h2m1 0h3m3 0h1m3 0h3m2 0h1m1 0h1m1 0h2m2 0h4m2 0h1m2 0h1m2 0h1m3 0h1m1 0h2m1 0h4m1 0h2m3 0h2M5 94.5h1m1 0h1m1 0h2m1 0h1m2 0h2m3 0h1m1 0h1m3 0h1m1 0h1m1 0h2m4 0h1m1 0h3m2 0h7m1 0h5m2 0h2m5 0h2m1 0h4m2 0h4m1 0h3m2 0h2m3 0h5m1 0h1m2 0h1m1 0h5M5 95.5h3m4 0h1m3 0h3m2 0h1m1 0h2m2 0h3m5 0h4m1 0h2m4 0h4m2 0h2m2 0h1m2 0h2m1 0h1m1 0h1m2 0h2m1 0h1m1 0h1m1 0h1m1 0h2m1 0h2m1 0h1m1 0h1m1 0h1m1 0h3m2 0h1m1 0h1m1 0h4m3 0h1m3 0h1M4 96.5h3m3 0h2m3 0h1m5 0h2m2 0h2m2 0h2m1 0h3m5 0h2m2 0h1m2 0h3m2 0h1m2 0h3m1 0h3m1 0h1m3 0h1m2 0h1m5 0h1m1 0h1m1 0h1m5 0h2m4 0h2m2 0h1m4 0h2m4 0h2M4 97.5h6m1 0h1m1 0h2m1 0h1m1 0h4m4 0h2m2 0h3m1 0h1m1 0h1m3 0h2m1 0h5m1 0h1m1 0h2m2 0h3m1 0h2m2 0h3m3 0h1m1 0h1m1 0h1m3 0h1m2 0h1m1 0h2m1 0h6m3 0h2m2 0h4m4 0h1m1 0h1M4 98.5h3m3 0h9m1 0h4m6 0h4m1 0h4m1 0h1m4 0h3m1 0h1m1 0h2m1 0h4m2 0h3m1 0h1m1 0h1m5 0h3m1 0h4m1 0h4m1 0h1m1 0h1m2 0h3m1 0h1m3 0h1m2 0h1m1 0h1m1 0h1m1 0h1M6 99.5h1m1 0h2m1 0h1m2 0h1m1 0h1m2 0h7m1 0h1m2 0h2m3 0h1m2 0h1m5 0h2m2 0h2m1 0h1m1 0h2m3 0h1m2 0h1m2 0h2m5 0h1m1 0h2m2 0h1m1 0h3m2 0h2m1 0h1m2 0h3m2 0h2m2 0h2m1 0h1m1 0h2M7 100.5h2m1 0h1m1 0h1m2 0h3m2 0h2m1 0h2m3 0h5m3 0h1m2 0h1m2 0h2m1 0h3m3 0h8m2 0h2m3 0h2m2 0h1m3 0h1m1 0h5m2 0h4m1 0h2m1 0h1m1 0h13M12 101.5h1m1 0h1m1 0h1m1 0h1m2 0h3m1 0h1m1 0h2m3 0h6m1 0h2m3 0h1m1 0h2m2 0h3m3 0h1m1 0h1m3 0h1m1 0h2m1 0h4m1 0h1m1 0h3m3 0h1m1 0h3m4 0h2m1 0h1m2 0h1m4 0h1m3 0h1m1 0h3M4 102.5h7m3 0h1m3 0h2m2 0h1m2 0h1m1 0h2m1 0h1m1 0h1m2 0h4m1 0h1m1 0h1m2 0h2m2 0h1m1 0h2m1 0h1m1 0h1m1 0h1m1 0h1m2 0h1m1 0h1m2 0h2m1 0h1m3 0h2m1 0h1m1 0h4m1 0h1m1 0h1m1 0h1m1 0h1m1 0h1m2 0h2m2 0h1m1 0h1m1 0h1m1 0h1M4 103.5h1m5 0h1m1 0h2m1 0h2m1 0h1m1 0h1m1 0h1m2 0h1m1 0h2m3 0h2m4 0h4m5 0h3m2 0h1m3 0h2m1 0h1m1 0h2m2 0h3m5 0h1m1 0h2m3 0h1m3 0h1m3 0h1m1 0h2m4 0h2m1 0h2m3 0h1m1 0h1m1 0h1M4 104.5h1m1 0h3m1 0h1m1 0h2m2 0h1m1 0h1m1 0h3m2 0h1m2 0h8m5 0h1m2 0h4m1 0h1m1 0h8m1 0h1m1 0h1m3 0h2m4 0h1m3 0h8m2 0h2m2 0h1m1 0h3m2 0h1m1 0h6m1 0h1m1 0h1M4 105.5h1m1 0h3m1 0h1m2 0h2m1 0h3m1 0h4m4 0h2m1 0h1m1 0h1m2 0h3m4 0h1m6 0h1m2 0h2m1 0h2m2 0h2m3 0h1m2 0h1m1 0h3m1 0h1m8 0h5m1 0h1m1 0h1m3 0h1m1 0h1m3 0h1m2 0h1m2 0h2M4 106.5h1m1 0h3m1 0h1m3 0h1m1 0h1m1 0h1m1 0h2m1 0h1m1 0h3m2 0h1m1 0h3m3 0h8m2 0h3m1 0h1m1 0h6m1 0h1m1 0h1m3 0h2m2 0h1m1 0h1m1 0h3m1 0h1m2 0h2m1 0h1m4 0h3m1 0h4m4 0h1m2 0h1M4 107.5h1m5 0h1m1 0h5m1 0h1m1 0h7m2 0h4m1 0h1m3 0h2m3 0h1m2 0h1m1 0h1m1 0h2m1 0h2m2 0h2m1 0h1m2 0h2m2 0h4m2 0h4m2 0h2m1 0h2m1 0h2m1 0h2m1 0h4m1 0h1m1 0h1m2 0h2m3 0h1M4 108.5h7m1 0h1m2 0h2m1 0h1m2 0h1m1 0h1m1 0h7m2 0h2m2 0h2m1 0h1m1 0h2m4 0h4m3 0h2m1 0h1m2 0h1m1 0h4m3 0h2m2 0h1m1 0h1m6 0h2m3 0h1m3 0h1m4 0h1m1 0h4m1 0h1m2 0h1"/></svg>
