<svg xmlns="http://www.w3.org/2000/svg" viewBox="0 0 97 97" shape-rendering="crispEdges"><path fill="#ffffff" d="M0 0h97v97H0z"/><path stroke="#000000" d="M4 4.5h7m1 0h2m2 0h1m6 0h1m2 0h3m2 0h1m2 0h8m2 0h4m6 0h2m2 0h1m4 0h2m3 0h1m5 0h1m1 0h1m2 0h6m1 0h7M4 5.5h1m5 0h1m3 0h1m3 0h1m1 0h1m1 0h2m1 0h1m2 0h1m1 0h1m3 0h1m2 0h1m1 0h1m1 0h3m1 0h3m2 0h2m1 0h1m4 0h3m1 0h4m1 0h2m1 0h2m4 0h2m2 0h1m2 0h1m2 0h1m5 0h1M4 6.5h1m1 0h3m1 0h1m1 0h2m2 0h3m2 0h5m1 0h2m1 0h1m1 0h1m2 0h3m1 0h1m2 0h1m1 0h5m1 0h1m1 0h3m1 0h2m1 0h1m1 0h3m1 0h1m1 0h2m2 0h2m1 0h1m2 0h2m2 0h1m4 0h1m1 0h3m1 0h1M4 7.5h1m1 0h3m1 0h1m1 0h4m2 0h1m4 0h1m3 0h1m3 0h2m2 0h5m3 0h2m1 0h2m1 0h2m2 0h1m1 0h1m1 0h1m5 0h6m5 0h1m1 0h2m2 0h3m1 0h1m1 0h1m1 0h3m1 0h1M4 8.5h1m1 0h3m1 0h1m1 0h1m1 0h1m1 0h3m3 0h1m1 0h1m1 0h1m3 0h9m4 0h2m2 0h1m3 0h2m5 0h5m1 0h1m1 0h6m3 0h1m1 0h1m1 0h2m2 0h1m2 0h1m1 0h3m1 0h1M4 9.5h1m5 0h1m4 0h2m3 0h1m1 0h1m1 0h3m1 0h1m3 0h1m3 0h1m1 0h2m1 0h1m2 0h2m1 0h1m1 0h2m4 0h2m1 0h1m3 0h1m1 0h3m1 0h4m2 0h2m1 0h2m1 0h1m2 0h1m2 0h1m5 0h1M4 10.5h7m1 0h1m1 0h1m1 0h1m1 0h1m1 0h1m1 0h1m1 0h1m1 0h1m1 0h1m1 0h1m1 0h1m1 0h1m1 0h1m1 0h1m1 0h1m1 0h1m1 0h1m1 0h1m1 0h1m1 0h1m1 0h1m1 0h1m1 0h1m1 0h1m1 0h1m1 0h1m1 0h1m1 0h1m1 0h1m1 0h1m1 0h1m1 0h1m1 0h1m1 0h1m1 0h1m1 0h1m1 0h1m1 0h7M14 11.5h1m1 0h3m3 0h7m1 0h1m1 0h1m3 0h2m1 0h1m2 0h1m7 0h1m7 0h1m3 0h4m2 0h3m1 0h1m5 0h3m1 0h1m1 0h1M4 12.5h4m2 0h1m1 0h2m2 0h1m1 0h1m6 0h2m3 0h1m1 0h5m3 0h2m1 0h4m1 0h2m2 0h1m1 0h1m2 0h7m1 0h2m1 0h1m2 0h1m1 0h1m1 0h1m1 0h2m2 0h3m1 0h1m2 0h3m1 0h1M4 13.5h2m2 0h1m2 0h2m2 0h2m7 0h2m1 0h1m3 0h3m3 0h3m3 0h1m2 0h1m1 0h1m3 0h1m1 0h1m1 0h2m2 0h2m2 0h1m1 0h1m3 0h2m3 0h5m1 0h6m1 0h1M5 14.5h2m1 0h4m1 0h6m1 0h1m1 0h1m1 0h1m1 0h1m4 0h1m2 0h2m3 0h1m1 0h4m1 0h4m2 0h2m1 0h2m1 0h1m3 0h2m2 0h2m1 0h1m1 0h2m2 0h1m3 0h1m2 0h3m5 0h1M4 15.5h1m6 0h1m1 0h1m1 0h2m3 0h5m2 0h3m3 0h2m2 0h6m1 0h3m1 0h5m1 0h4m1 0h1m1 0h1m3 0h1m1 0h1m2 0h1m2 0h2m2 0h2m4 0h4m2 0h2m1 0h1M6 16.5h2m2 0h6m1 0h1m6 0h5m1 0h1m2 0h2m5 0h1m8 0h1m1 0h1m2 0h3m1 0h2m3 0h2m1 0h1m3 0h2m2 0h3m5 0h2m1 0h3m2 0h2M6 17.5h1m1 0h2m2 0h2m2 0h2m3 0h8m1 0h2m3 0h1m2 0h1m2 0h1m1 0h1m1 0h1m3 0h1m6 0h1m1 0h3m1 0h1m1 0h1m1 0h2m1 0h3m1 0h2m2 0h3m1 0h1m1 0h1m4 0h1m3 0h1M5 18.5h2m1 0h1m1 0h1m3 0h2m1 0h4m4 0h1m3 0h2m3 0h3m1 0h1m2 0h2m2 0h4m2 0h2m1 0h3m2 0h1m4 0h1m2 0h2m2 0h2m2 0h3m2 0h1m3 0h3m2 0h1m1 0h2M7 19.5h2m2 0h2m2 0h1m1 0h1m1 0h1m1 0h1m6 0h1m4 0h1m1 0h6m3 0h1m1 0h1m4 0h1m2 0h1m4 0h2m1 0h1m3 0h2m2 0h1m3 0h1m2 0h2m2 0h1m3 0h1m3 0h2m1 0h1M4 20.5h1m4 0h2m1 0h1m1 0h3m1 0h1m1 0h1m1 0h2m1 0h1m1 0h1m1 0h5m1 0h1m2 0h1m3 0h1m1 0h1m1 0h3m2 0h4m1 0h1m1 0h1m1 0h2m1 0h3m2 0h1m2 0h3m1 0h1m3 0h3m4 0h2M4 21.5h3m8 0h2m2 0h1m4 0h1m1 0h1m2 0h1m1 0h5m3 0h1m2 0h1m1 0h2m1 0h1m2 0h1m2 0h2m1 0h2m2 0h1m1 0h2m1 0h1m3 0h2m1 0h1m1 0h1m1 0h2m1 0h1m1 0h1m1 0h2m2 0h2m1 0h2M4 22.5h2m1 0h1m1 0h6m3 0h3m2 0h3m1 0h2m1 0h1m3 0h6m2 0h2m1 0h3m2 0h3m1 0h2m1 0h1m1 0h1m1 0h5m1 0h6m2 0h10m1 0h4m2 0h1M4 23.5h1m6 0h1m1 0h1m2 0h1m1 0h2m1 0h2m1 0h1m2 0h2m2 0h1m3 0h1m1 0h1m3 0h5m1 0h1m2 0h4m1 0h1m1 0h1m3 0h1m1 0h2m4 0h1m5 0h1m3 0h4m1 0h1m3 0h1m2 0h2M5 24.5h1m2 0h5m8 0h1m1 0h4m2 0h2m1 0h1m3 0h3m5 0h1m1 0h4m1 0h1m2 0h3m2 0h2m1 0h1m3 0h4m1 0h1m3 0h1m1 0h3m1 0h2m1 0h4M5 25.5h5m1 0h3m3 0h2m1 0h3m2 0h1m4 0h1m1 0h3m1 0h1m2 0h2m1 0h3m1 0h2m1 0h1m4 0h1m9 0h1m1 0h2m1 0h1m6 0h1m2 0h4m1 0h4m1 0h4M9 26.5h2m1 0h2m2 0h1m3 0h1m1 0h1m4 0h1m3 0h5m2 0h2m1 0h1m2 0h2m2 0h2m1 0h3m1 0h2m1 0h1m1 0h3m3 0h5m4 0h1m1 0h1m1 0h1m1 0h1m1 0h1m1 0h1m2 0h4M4 27.5h1m4 0h1m2 0h2m2 0h1m1 0h1m1 0h1m1 0h4m3 0h4m1 0h2m4 0h1m12 0h2m5 0h1m1 0h2m2 0h6m1 0h1m3 0h1m2 0h1m2 0h5m1 0h4M4 28.5h1m2 0h2m1 0h6m1 0h3m1 0h2m2 0h1m3 0h2m2 0h3m3 0h2m1 0h1m5 0h2m1 0h1m2 0h3m3 0h4m2 0h2m1 0h2m1 0h3m1 0h1m4 0h3m2 0h1m2 0h4M6 29.5h1m1 0h2m5 0h2m2 0h4m3 0h6m3 0h2m1 0h1m2 0h6m1 0h1m1 0h1m1 0h1m4 0h1m1 0h2m1 0h1m2 0h2m2 0h5m5 0h3m1 0h1m1 0h1m2 0h1M4 30.5h1m1 0h1m1 0h1m1 0h3m6 0h2m2 0h1m2 0h2m4 0h1m2 0h1m2 0h1m1 0h1m4 0h1m1 0h2m1 0h1m3 0h1m2 0h1m1 0h3m1 0h1m1 0h1m1 0h4m1 0h1m5 0h2m1 0h1m2 0h2m1 0h1m1 0h1m2 0h1M4 31.5h1m2 0h1m1 0h1m2 0h1m4 0h3m2 0h1m2 0h1m1 0h3m1 0h4m1 0h2m1 0h1m2 0h1m1 0h1m1 0h3m3 0h5m1 0h1m1 0h1m1 0h1m1 0h2m2 0h3m2 0h2m1 0h2m1 0h1m1 0h2m2 0h2m2 0h1m1 0h1M4 32.5h1m2 0h9m1 0h2m3 0h1m3 0h1m1 0h1m1 0h8m3 0h1m4 0h2m2 0h2m2 0h10m1 0h1m3 0h3m3 0h1m1 0h2m1 0h2m2 0h5M4 33.5h2m2 0h1m3 0h3m2 0h2m1 0h2m4 0h1m1 0h2m1 0h2m3 0h1m1 0h1m4 0h1m1 0h2m2 0h2m5 0h3m3 0h3m1 0h1m1 0h1m4 0h1m1 0h2m2 0h1m1 0h4m3 0h1m2 0h2M6 34.5h1m1 0h1m1 0h1m1 0h1m1 0h2m1 0h2m1 0h1m1 0h7m2 0h2m1 0h1m1 0h1m2 0h2m1 0h2m1 0h2m1 0h1m9 0h1m1 0h1m1 0h1m2 0h1m3 0h1m1 0h1m4 0h1m1 0h1m2 0h4m1 0h1m1 0h2m2 0h1M4 35.5h2m2 0h1m3 0h1m1 0h1m1 0h1m1 0h2m1 0h1m1 0h1m3 0h2m3 0h1m3 0h1m1 0h2m3 0h1m1 0h3m4 0h1m1 0h2m1 0h2m3 0h3m1 0h1m5 0h1m1 0h2m2 0h1m1 0h1m2 0h2m3 0h3M5 36.5h1m2 0h7m1 0h1m1 0h1m9 0h2m1 0h6m1 0h1m1 0h1m1 0h3m3 0h1m1 0h4m4 0h5m1 0h2m2 0h3m3 0h2m1 0h4m3 0h6M6 37.5h1m2 0h1m3 0h2m1 0h2m3 0h1m1 0h1m3 0h1m2 0h1m1 0h8m1 0h3m1 0h2m4 0h2m1 0h1m1 0h2m1 0h2m4 0h1m3 0h2m3 0h3m4 0h2m6 0h1m1 0h1M5 38.5h3m1 0h2m2 0h1m2 0h6m3 0h1m1 0h1m1 0h1m3 0h1m2 0h1m2 0h2m1 0h1m1 0h5m3 0h1m1 0h2m4 0h2m3 0h1m1 0h4m3 0h1m3 0h1m1 0h1m1 0h2m2 0h1m1 0h1m1 0h1m1 0h1M4 39.5h1m1 0h1m4 0h2m5 0h4m2 0h2m1 0h2m1 0h1m1 0h1m1 0h2m1 0h3m1 0h4m1 0h4m3 0h1m1 0h1m1 0h1m4 0h1m1 0h4m1 0h1m5 0h1m1 0h2m4 0h1m3 0h2m3 0h1M4 40.5h4m2 0h2m1 0h1m1 0h3m1 0h1m1 0h1m1 0h1m5 0h1m3 0h2m4 0h3m1 0h1m3 0h2m1 0h3m1 0h1m1 0h4m1 0h3m1 0h5m1 0h1m1 0h2m3 0h1m2 0h1m1 0h2m1 0h3m2 0h2M5 41.5h1m1 0h2m3 0h1m1 0h3m3 0h3m1 0h5m3 0h3m2 0h1m1 0h1m1 0h2m1 0h1m1 0h4m2 0h3m1 0h2m3 0h2m5 0h2m6 0h1m2 0h1m1 0h2m1 0h1m1 0h3m2 0h2M6 42.5h1m1 0h5m2 0h1m2 0h1m3 0h3m1 0h1m2 0h1m1 0h4m2 0h1m2 0h2m1 0h8m1 0h1m1 0h3m2 0h2m2 0h4m1 0h2m5 0h1m1 0h1m1 0h4m2 0h3m3 0h2M7 43.5h3m1 0h3m2 0h1m1 0h1m2 0h4m1 0h1m1 0h2m1 0h3m2 0h1m1 0h1m2 0h1m2 0h3m2 0h2m1 0h1m1 0h3m1 0h1m2 0h1m2 0h3m1 0h1m3 0h1m4 0h1m6 0h1m1 0h1m2 0h1M5 44.5h3m1 0h5m3 0h2m1 0h3m1 0h3m2 0h1m1 0h1m1 0h1m3 0h1m2 0h1m2 0h1m1 0h1m3 0h4m1 0h1m1 0h2m5 0h6m2 0h1m2 0h1m1 0h3m2 0h4m1 0h1m2 0h1m1 0h1M9 45.5h1m1 0h1m1 0h1m1 0h3m1 0h2m1 0h1m4 0h1m1 0h2m1 0h3m2 0h1m1 0h1m1 0h1m2 0h1m3 0h1m2 0h1m1 0h1m1 0h1m1 0h1m1 0h1m2 0h4m1 0h4m2 0h1m2 0h2m1 0h1m1 0h2m2 0h1m2 0h1M4 46.5h1m2 0h2m1 0h1m1 0h1m2 0h1m4 0h2m2 0h2m3 0h1m4 0h1m6 0h2m5 0h1m1 0h2m3 0h1m3 0h3m1 0h2m3 0h1m1 0h5m3 0h1m2 0h1m3 0h1m1 0h2m3 0h1M5 47.5h1m3 0h1m1 0h1m1 0h2m1 0h2m2 0h1m1 0h4m1 0h1m2 0h1m2 0h7m1 0h1m1 0h1m2 0h2m2 0h5m4 0h1m2 0h2m1 0h2m4 0h1m1 0h9m3 0h1m4 0h1m1 0h1M8 48.5h1m1 0h2m1 0h1m2 0h3m2 0h3m4 0h1m1 0h1m1 0h1m1 0h2m1 0h1m1 0h4m2 0h3m3 0h1m3 0h3m2 0h1m1 0h1m5 0h4m4 0h3m2 0h3m2 0h2m3 0h1M4 49.5h1m2 0h2m3 0h5m2 0h1m1 0h2m2 0h4m2 0h2m2 0h2m6 0h1m2 0h2m1 0h1m1 0h3m2 0h1m2 0h2m3 0h2m1 0h5m1 0h2m1 0h1m1 0h3m1 0h2m1 0h1m3 0h1m1 0h2M4 50.5h1m1 0h1m1 0h1m1 0h5m1 0h4m2 0h1m2 0h2m1 0h2m1 0h5m1 0h2m1 0h2m4 0h1m1 0h2m1 0h2m3 0h2m2 0h2m1 0h1m1 0h1m2 0h3m2 0h2m1 0h1m5 0h1m2 0h1m3 0h1m2 0h1M4 51.5h1m2 0h3m1 0h1m1 0h1m2 0h2m1 0h3m2 0h1m2 0h1m1 0h3m1 0h3m2 0h4m3 0h1m2 0h1m2 0h1m3 0h2m2 0h1m2 0h2m1 0h3m2 0h2m4 0h11m1 0h1m2 0h2M5 52.5h3m2 0h1m6 0h7m1 0h1m2 0h1m6 0h2m1 0h1m4 0h2m1 0h3m1 0h3m2 0h2m2 0h2m2 0h1m1 0h5m4 0h2m1 0h1m1 0h2m1 0h2m3 0h1m3 0h1M4 53.5h1m3 0h1m3 0h4m1 0h2m6 0h2m4 0h1m2 0h2m2 0h2m3 0h2m1 0h1m1 0h1m1 0h3m1 0h2m1 0h1m1 0h2m1 0h1m1 0h3m2 0h1m1 0h1m2 0h3m2 0h5m1 0h1m4 0h2M5 54.5h1m3 0h2m1 0h2m1 0h1m5 0h1m1 0h1m1 0h2m1 0h1m3 0h1m4 0h2m2 0h2m2 0h1m1 0h1m4 0h1m5 0h1m1 0h3m1 0h1m2 0h2m1 0h3m1 0h1m2 0h1m2 0h3m2 0h2m3 0h1M6 55.5h3m2 0h5m4 0h1m2 0h2m1 0h1m1 0h1m1 0h2m3 0h1m2 0h1m1 0h1m1 0h1m1 0h2m1 0h2m1 0h2m1 0h1m1 0h1m1 0h4m4 0h1m3 0h3m1 0h1m1 0h2m1 0h2m2 0h1m3 0h1m1 0h1M5 56.5h1m1 0h2m1 0h1m1 0h1m1 0h1m3 0h3m1 0h1m1 0h2m2 0h5m3 0h1m1 0h1m2 0h1m2 0h2m1 0h1m1 0h1m1 0h1m2 0h2m5 0h1m1 0h1m4 0h1m2 0h1m2 0h2m1 0h1m3 0h2m5 0h2m1 0h1M4 57.5h1m3 0h1m3 0h6m1 0h6m2 0h1m1 0h1m2 0h1m1 0h1m1 0h2m1 0h1m1 0h1m3 0h1m2 0h1m2 0h1m8 0h1m1 0h2m1 0h1m1 0h3m2 0h2m1 0h2m1 0h4m2 0h4M5 58.5h9m1 0h2m1 0h1m1 0h1m1 0h1m2 0h1m5 0h7m1 0h1m2 0h2m1 0h3m1 0h4m4 0h8m2 0h1m1 0h5m3 0h1m1 0h1m3 0h6m1 0h1m1 0h1M8 59.5h1m3 0h3m2 0h1m6 0h1m1 0h1m1 0h2m1 0h2m3 0h1m2 0h1m1 0h1m2 0h3m1 0h1m3 0h1m1 0h5m3 0h1m1 0h3m2 0h1m2 0h1m5 0h1m2 0h1m2 0h1m3 0h2m1 0h1M5 60.5h1m1 0h2m1 0h1m1 0h5m1 0h6m2 0h4m1 0h2m1 0h1m1 0h2m11 0h3m1 0h1m1 0h2m1 0h1m1 0h1m1 0h1m1 0h1m2 0h2m2 0h9m1 0h1m1 0h2m1 0h1m1 0h2m1 0h2M7 61.5h2m3 0h2m1 0h4m1 0h1m4 0h1m1 0h2m2 0h2m3 0h3m1 0h1m2 0h2m1 0h2m3 0h2m1 0h1m1 0h3m3 0h1m1 0h1m4 0h1m2 0h1m1 0h1m1 0h1m1 0h3m2 0h2m3 0h2m2 0h1M7 62.5h6m1 0h1m5 0h2m1 0h5m3 0h7m1 0h1m1 0h1m5 0h3m1 0h1m1 0h2m1 0h7m1 0h1m1 0h4m3 0h3m3 0h1m2 0h7m2 0h2M6 63.5h4m1 0h2m2 0h1m2 0h2m3 0h3m1 0h3m1 0h2m8 0h1m1 0h2m1 0h7m1 0h1m1 0h2m1 0h2m3 0h8m3 0h1m2 0h2m1 0h1m1 0h1m1 0h1m2 0h1m1 0h1M6 64.5h1m1 0h3m1 0h2m3 0h2m1 0h4m6 0h1m1 0h1m3 0h5m3 0h1m3 0h1m1 0h1m1 0h1m2 0h1m6 0h1m1 0h1m2 0h3m1 0h2m4 0h1m1 0h1m2 0h3m2 0h2m2 0h2M5 65.5h2m2 0h1m2 0h1m1 0h2m1 0h1m1 0h3m1 0h1m1 0h2m1 0h1m1 0h1m2 0h1m1 0h1m1 0h3m2 0h2m3 0h2m1 0h1m2 0h2m1 0h4m2 0h1m3 0h4m1 0h5m2 0h4m1 0h1m1 0h1m4 0h1M4 66.5h1m2 0h1m1 0h2m1 0h2m1 0h4m2 0h2m2 0h3m2 0h2m3 0h1m3 0h1m1 0h1m1 0h1m2 0h2m1 0h2m3 0h2m5 0h1m1 0h5m2 0h3m1 0h1m2 0h3m1 0h2m3 0h1m5 0h1M4 67.5h1m1 0h1m2 0h1m1 0h1m1 0h1m1 0h2m1 0h3m1 0h1m1 0h1m1 0h1m1 0h1m7 0h1m2 0h1m1 0h4m1 0h1m3 0h3m5 0h2m5 0h2m1 0h2m1 0h1m1 0h1m1 0h6m3 0h2m5 0h1M6 68.5h1m3 0h2m3 0h2m1 0h2m1 0h2m1 0h4m2 0h2m1 0h1m3 0h1m2 0h3m1 0h1m1 0h2m2 0h1m3 0h2m1 0h1m1 0h2m2 0h1m1 0h5m1 0h1m2 0h2m2 0h1m4 0h2m1 0h2m1 0h1M7 69.5h1m3 0h1m2 0h4m2 0h1m2 0h1m1 0h1m2 0h2m2 0h2m3 0h2m2 0h2m1 0h2m1 0h1m3 0h1m2 0h2m1 0h2m1 0h6m1 0h1m1 0h2m1 0h3m1 0h1m1 0h1m1 0h7m1 0h1M4 70.5h5m1 0h5m2 0h3m2 0h2m1 0h1m1 0h1m5 0h2m1 0h4m3 0h1m8 0h2m2 0h3m2 0h1m1 0h1m3 0h2m1 0h2m2 0h1m2 0h4m2 0h2m1 0h1m1 0h1m3 0h1M5 71.5h1m2 0h1m2 0h5m1 0h1m3 0h1m1 0h4m1 0h1m1 0h1m1 0h5m1 0h1m2 0h3m1 0h1m1 0h1m3 0h2m7 0h3m1 0h1m1 0h2m5 0h1m1 0h2m2 0h1m1 0h1m2 0h1m1 0h3m2 0h2M7 72.5h5m2 0h3m1 0h7m1 0h1m4 0h2m2 0h1m2 0h1m4 0h4m1 0h3m1 0h2m1 0h1m2 0h5m5 0h4m1 0h5m2 0h1m1 0h1m1 0h1m1 0h1m4 0h1M4 73.5h3m1 0h1m3 0h7m3 0h1m1 0h2m3 0h1m2 0h2m3 0h4m4 0h2m1 0h7m2 0h1m3 0h3m2 0h2m2 0h4m2 0h1m2 0h1m3 0h2m2 0h1m1 0h3M4 74.5h3m3 0h3m3 0h1m1 0h1m1 0h1m5 0h2m1 0h1m1 0h4m1 0h2m1 0h1m1 0h2m2 0h2m4 0h1m2 0h7m4 0h1m1 0h1m1 0h2m1 0h1m1 0h2m1 0h5m6 0h2M4 75.5h1m1 0h4m1 0h1m1 0h1m1 0h3m1 0h1m4 0h1m1 0h1m2 0h2m2 0h1m2 0h2m2 0h1m8 0h2m1 0h2m2 0h4m1 0h1m1 0h1m1 0h4m1 0h5m1 0h1m2 0h4m2 0h1m2 0h1m2 0h1M4 76.5h2m1 0h2m1 0h1m4 0h6m2 0h4m1 0h4m1 0h2m1 0h2m1 0h2m4 0h1m2 0h2m1 0h1m1 0h1m3 0h1m1 0h1m1 0h1m2 0h1m1 0h1m1 0h2m2 0h1m2 0h2m1 0h1m2 0h2m2 0h4m1 0h3M4 77.5h1m2 0h3m1 0h1m1 0h1m1 0h2m1 0h1m1 0h4m2 0h2m2 0h2m1 0h3m3 0h5m1 0h5m1 0h1m1 0h1m2 0h6m1 0h1m2 0h2m2 0h1m4 0h1m2 0h1m1 0h1m1 0h1m4 0h1m3 0h2M7 78.5h4m2 0h2m4 0h5m2 0h3m1 0h2m1 0h3m3 0h2m3 0h1m1 0h3m2 0h2m3 0h2m2 0h2m3 0h1m1 0h2m4 0h3m2 0h1m1 0h1m3 0h7M4 79.5h1m1 0h4m1 0h1m2 0h1m1 0h1m2 0h1m3 0h1m1 0h1m1 0h1m1 0h1m3 0h1m2 0h2m4 0h1m1 0h1m5 0h3m2 0h1m1 0h2m2 0h2m1 0h6m1 0h1m1 0h2m4 0h2m2 0h1m1 0h1m1 0h1m4 0h1M5 80.5h1m1 0h1m2 0h1m1 0h1m1 0h1m2 0h1m2 0h1m5 0h3m1 0h1m2 0h1m2 0h2m2 0h2m1 0h4m2 0h3m2 0h1m1 0h3m2 0h7m1 0h1m4 0h1m1 0h1m1 0h1m1 0h1m1 0h1m1 0h3m5 0h1M5 81.5h3m1 0h1m1 0h1m1 0h1m1 0h1m2 0h2m1 0h1m4 0h1m1 0h2m1 0h3m1 0h2m1 0h1m5 0h1m1 0h2m3 0h1m2 0h1m4 0h1m1 0h2m1 0h1m2 0h1m2 0h2m2 0h1m4 0h2m2 0h1m1 0h1m2 0h1M4 82.5h1m2 0h1m2 0h3m2 0h4m1 0h1m2 0h5m1 0h2m3 0h1m4 0h2m3 0h1m3 0h6m7 0h1m3 0h4m4 0h1m1 0h1m2 0h1m1 0h3m2 0h1m3 0h2M4 83.5h2m2 0h2m1 0h2m1 0h3m2 0h1m1 0h1m1 0h1m2 0h1m9 0h2m1 0h1m2 0h1m2 0h3m1 0h10m1 0h2m5 0h2m2 0h5m1 0h1m2 0h4m1 0h1m1 0h1m1 0h1m1 0h1M4 84.5h1m2 0h1m2 0h1m1 0h2m3 0h1m1 0h1m3 0h1m1 0h1m2 0h2m2 0h7m1 0h3m2 0h1m1 0h4m1 0h2m2 0h1m1 0h7m5 0h1m1 0h1m1 0h1m3 0h1m1 0h2m1 0h6m3 0h1M12 85.5h2m1 0h2m4 0h1m1 0h1m7 0h2m3 0h4m2 0h3m1 0h1m1 0h1m4 0h3m1 0h2m3 0h3m1 0h4m3 0h1m1 0h1m1 0h4m2 0h2m3 0h1m2 0h1M4 86.5h7m3 0h1m2 0h3m3 0h2m1 0h2m1 0h1m2 0h1m1 0h1m1 0h1m1 0h1m1 0h1m2 0h1m1 0h2m8 0h2m1 0h1m1 0h1m1 0h2m3 0h1m4 0h1m1 0h2m1 0h4m3 0h1m1 0h1m1 0h2m1 0h2M4 87.5h1m5 0h1m2 0h3m3 0h3m3 0h1m4 0h3m3 0h1m1 0h1m3 0h1m3 0h2m2 0h1m1 0h1m3 0h1m1 0h1m3 0h2m2 0h2m1 0h3m2 0h1m2 0h6m1 0h1m3 0h1m1 0h2M4 88.5h1m1 0h3m1 0h1m3 0h4m1 0h2m2 0h1m5 0h1m2 0h5m1 0h1m3 0h1m1 0h1m3 0h5m2 0h1m1 0h9m2 0h2m2 0h1m1 0h1m1 0h1m2 0h2m1 0h1m1 0h7M4 89.5h1m1 0h3m1 0h1m1 0h1m9 0h6m4 0h1m1 0h1m2 0h1m2 0h2m1 0h1m3 0h1m2 0h1m2 0h5m2 0h2m1 0h2m1 0h1m1 0h2m2 0h1m2 0h3m1 0h1m2 0h1m1 0h1m1 0h1M4 90.5h1m1 0h3m1 0h1m1 0h1m1 0h2m1 0h2m1 0h2m1 0h1m5 0h1m2 0h1m4 0h2m1 0h2m5 0h1m2 0h1m1 0h2m1 0h3m2 0h1m1 0h2m3 0h2m1 0h2m1 0h2m1 0h1m2 0h2m1 0h4m3 0h1m2 0h1M4 91.5h1m5 0h1m1 0h1m2 0h2m2 0h1m1 0h3m1 0h4m2 0h1m1 0h1m1 0h1m3 0h2m1 0h2m2 0h1m4 0h1m1 0h3m3 0h1m1 0h1m1 0h5m2 0h1m5 0h2m5 0h3m1 0h1m1 0h1m1 0h1M4 92.5h7m1 0h3m2 0h2m1 0h1m4 0h2m2 0h2m2 0h5m1 0h4m1 0h2m2 0h1m1 0h4m2 0h2m4 0h1m1 0h4m3 0h1m1 0h2m1 0h4m3 0h3m1 0h1m2 0h2"/></svg>
