<svg xmlns="http://www.w3.org/2000/svg" viewBox="0 0 113 113" shape-rendering="crispEdges"><path fill="#ffffff" d="M0 0h113v113H0z"/><path stroke="#000000" d="M4 4.5h7m1 0h4m1 0h1m3 0h2m1 0h2m4 0h3m1 0h1m1 0h4m2 0h1m1 0h1m1 0h3m1 0h3m2 0h2m2 0h2m1 0h3m1 0h1m2 0h1m1 0h1m1 0h1m4 0h2m2 0h3m1 0h1m1 0h1m1 0h2m4 0h1m1 0h1m3 0h7M4 5.5h1m5 0h1m2 0h1m3 0h1m1 0h1m1 0h1m3 0h6m4 0h2m2 0h2m1 0h1m3 0h1m4 0h1m1 0h1m1 0h1m4 0h1m1 0h2m1 0h1m1 0h2m1 0h1m2 0h2m2 0h1m1 0h1m1 0h1m1 0h1m1 0h3m1 0h1m3 0h4m1 0h1m3 0h1m5 0h1M4 6.5h1m1 0h3m1 0h1m3 0h1m3 0h3m3 0h6m2 0h1m3 0h1m5 0h1m1 0h3m1 0h1m1 0h1m1 0h1m1 0h1m1 0h1m1 0h2m1 0h1m2 0h1m2 0h3m1 0h1m1 0h2m4 0h4m2 0h3m1 0h1m6 0h4m2 0h1m1 0h3m1 0h1M4 7.5h1m1 0h3m1 0h1m7 0h1m1 0h2m1 0h1m2 0h3m3 0h3m5 0h1m2 0h2m1 0h3m2 0h7m1 0h6m1 0h1m3 0h4m2 0h4m1 0h3m4 0h1m2 0h1m2 0h1m5 0h1m1 0h1m1 0h3m1 0h1M4 8.5h1m1 0h3m1 0h1m2 0h3m1 0h1m1 0h2m2 0h2m1 0h1m1 0h5m1 0h2m1 0h2m1 0h2m2 0h1m1 0h1m1 0h1m2 0h8m1 0h1m1 0h3m2 0h4m5 0h6m5 0h2m2 0h1m2 0h3m2 0h2m1 0h1m1 0h3m1 0h1M4 9.5h1m5 0h1m4 0h3m1 0h1m2 0h1m1 0h2m2 0h1m3 0h1m1 0h2m1 0h1m2 0h1m1 0h1m4 0h1m1 0h2m1 0h1m3 0h1m3 0h1m1 0h1m7 0h1m2 0h4m3 0h4m6 0h3m2 0h2m2 0h1m2 0h1m5 0h1M4 10.5h7m1 0h1m1 0h1m1 0h1m1 0h1m1 0h1m1 0h1m1 0h1m1 0h1m1 0h1m1 0h1m1 0h1m1 0h1m1 0h1m1 0h1m1 0h1m1 0h1m1 0h1m1 0h1m1 0h1m1 0h1m1 0h1m1 0h1m1 0h1m1 0h1m1 0h1m1 0h1m1 0h1m1 0h1m1 0h1m1 0h1m1 0h1m1 0h1m1 0h1m1 0h1m1 0h1m1 0h1m1 0h1m1 0h1m1 0h1m1 0h1m1 0h1m1 0h1m1 0h1m1 0h1m1 0h1m1 0h7M12 11.5h2m1 0h1m1 0h5m2 0h1m2 0h2m3 0h2m2 0h2m1 0h1m1 0h2m1 0h1m5 0h3m3 0h4m1 0h1m2 0h1m1 0h1m1 0h1m1 0h5m1 0h1m3 0h1m1 0h1m4 0h1m2 0h1m4 0h1m2 0h1m1 0h1M4 12.5h2m1 0h2m1 0h1m3 0h4m1 0h1m5 0h1m1 0h6m4 0h1m1 0h2m1 0h1m1 0h1m1 0h1m2 0h1m2 0h7m1 0h1m2 0h2m2 0h3m1 0h2m1 0h7m2 0h3m1 0h5m1 0h4m1 0h2m2 0h1m5 0h1M5 13.5h3m1 0h1m2 0h2m4 0h2m2 0h3m4 0h2m5 0h1m1 0h1m2 0h1m2 0h3m2 0h1m1 0h1m3 0h1m3 0h4m1 0h3m8 0h2m1 0h1m2 0h5m5 0h3m1 0h3m3 0h3m1 0h2M4 14.5h3m1 0h1m1 0h5m1 0h3m3 0h1m1 0h1m1 0h2m1 0h2m2 0h2m1 0h1m2 0h2m1 0h2m1 0h3m2 0h6m1 0h2m5 0h1m7 0h3m2 0h3m3 0h2m1 0h6m4 0h2m2 0h1m1 0h1m3 0h1M4 15.5h1m1 0h2m3 0h1m1 0h3m2 0h1m3 0h3m1 0h2m1 0h2m1 0h1m1 0h1m1 0h3m2 0h1m4 0h3m1 0h3m2 0h1m2 0h1m3 0h3m3 0h7m5 0h1m4 0h2m4 0h3m2 0h1m1 0h3m5 0h2M7 16.5h1m2 0h2m1 0h1m1 0h3m2 0h11m1 0h2m1 0h2m2 0h1m1 0h2m1 0h1m2 0h3m4 0h2m3 0h1m4 0h2m2 0h2m2 0h2m5 0h2m2 0h1m5 0h1m1 0h1m1 0h2m1 0h2m1 0h1m4 0h2m1 0h2M4 17.5h3m1 0h2m4 0h1m1 0h1m2 0h3m1 0h1m2 0h1m3 0h1m3 0h2m1 0h3m1 0h2m1 0h2m1 0h1m1 0h1m3 0h1m1 0h6m1 0h1m1 0h1m1 0h1m1 0h3m1 0h1m1 0h2m1 0h2m2 0h1m1 0h1m3 0h3m2 0h2m2 0h1m1 0h3m1 0h1m3 0h3M4 18.5h2m1 0h1m1 0h2m3 0h1m2 0h1m1 0h1m1 0h4m2 0h2m1 0h3m1 0h2m1 0h1m2 0h1m2 0h1m2 0h1m5 0h4m3 0h1m1 0h1m1 0h1m1 0h2m5 0h3m1 0h4m1 0h1m1 0h3m6 0h1m1 0h4m1 0h1m3 0h1m1 0h2m1 0h1M8 19.5h1m2 0h3m1 0h1m2 0h2m1 0h1m1 0h5m1 0h2m1 0h1m6 0h1m1 0h1m3 0h4m2 0h7m1 0h1m1 0h1m6 0h3m2 0h3m3 0h1m1 0h2m3 0h1m1 0h1m1 0h4m1 0h1m2 0h1m2 0h2m2 0h1m1 0h1M4 20.5h2m4 0h1m4 0h3m1 0h2m3 0h1m1 0h1m1 0h5m1 0h1m1 0h2m1 0h2m1 0h1m1 0h1m1 0h2m1 0h5m2 0h2m2 0h1m1 0h4m1 0h3m1 0h2m1 0h1m1 0h7m1 0h2m1 0h2m1 0h2m3 0h2m2 0h1m3 0h3m1 0h1M4 21.5h3m4 0h4m3 0h1m1 0h1m1 0h5m1 0h1m2 0h1m1 0h1m1 0h1m1 0h1m2 0h2m3 0h3m2 0h1m2 0h1m1 0h1m2 0h4m1 0h1m2 0h1m5 0h1m1 0h2m2 0h1m4 0h3m5 0h1m3 0h2m1 0h2m1 0h1m1 0h6M5 22.5h2m1 0h4m1 0h2m2 0h1m4 0h1m3 0h1m4 0h1m1 0h1m4 0h1m2 0h4m1 0h5m1 0h1m1 0h3m1 0h1m1 0h1m1 0h1m1 0h1m3 0h2m2 0h1m6 0h4m1 0h1m1 0h1m5 0h5m1 0h1m1 0h3m1 0h1m1 0h1m1 0h1M6 23.5h1m2 0h1m2 0h1m1 0h1m1 0h1m1 0h1m1 0h1m1 0h3m1 0h1m1 0h2m1 0h2m1 0h2m6 0h7m4 0h3m2 0h3m4 0h2m2 0h4m1 0h2m2 0h2m1 0h1m1 0h1m2 0h1m2 0h1m1 0h1m4 0h5m1 0h2m1 0h3M6 24.5h3m1 0h1m1 0h1m2 0h2m2 0h1m4 0h2m1 0h3m2 0h2m1 0h2m2 0h2m1 0h2m3 0h6m2 0h10m3 0h2m3 0h1m1 0h2m2 0h3m6 0h1m1 0h1m3 0h4m1 0h3m1 0h1m1 0h1m1 0h2M4 25.5h1m3 0h1m3 0h1m1 0h4m1 0h1m1 0h2m1 0h1m3 0h1m1 0h1m1 0h2m3 0h3m3 0h1m3 0h1m3 0h2m2 0h1m2 0h3m3 0h1m1 0h1m1 0h1m1 0h3m5 0h2m1 0h2m1 0h1m1 0h5m1 0h1m1 0h2m1 0h1m2 0h2m1 0h1m2 0h1M4 26.5h3m1 0h1m1 0h1m1 0h1m3 0h1m1 0h1m1 0h1m2 0h4m2 0h4m1 0h1m1 0h4m2 0h1m1 0h1m2 0h3m2 0h1m2 0h1m3 0h1m2 0h3m2 0h1m1 0h2m1 0h2m1 0h1m1 0h7m1 0h1m1 0h2m3 0h2m1 0h1m1 0h3m1 0h3m3 0h1M5 27.5h4m2 0h1m1 0h3m1 0h2m1 0h2m1 0h4m1 0h1m1 0h4m3 0h2m1 0h2m1 0h1m3 0h1m4 0h1m2 0h2m3 0h5m2 0h2m5 0h2m3 0h2m3 0h3m4 0h3m1 0h3m1 0h1m3 0h1m2 0h3M6 28.5h8m1 0h3m3 0h3m1 0h1m1 0h7m3 0h5m1 0h2m1 0h3m1 0h1m1 0h6m2 0h1m2 0h1m2 0h1m2 0h3m2 0h1m1 0h6m2 0h3m1 0h3m4 0h2m1 0h1m1 0h6M5 29.5h2m1 0h1m3 0h5m2 0h2m6 0h2m3 0h2m1 0h1m1 0h1m1 0h1m2 0h1m3 0h1m4 0h2m3 0h1m2 0h1m2 0h2m1 0h2m1 0h1m2 0h1m3 0h2m3 0h2m3 0h1m1 0h2m1 0h3m1 0h1m2 0h1m2 0h1m3 0h2m1 0h1M8 30.5h1m1 0h1m1 0h3m4 0h1m2 0h1m2 0h1m2 0h1m1 0h1m1 0h1m3 0h4m2 0h1m1 0h1m2 0h1m3 0h2m1 0h1m1 0h1m2 0h2m3 0h2m3 0h1m3 0h4m1 0h1m1 0h3m1 0h7m1 0h1m1 0h1m1 0h1m1 0h3m1 0h1m1 0h2M4 31.5h1m1 0h3m3 0h1m1 0h2m1 0h4m3 0h2m1 0h2m3 0h3m1 0h6m3 0h1m1 0h1m3 0h2m3 0h3m1 0h1m1 0h1m1 0h3m3 0h1m1 0h3m1 0h1m3 0h1m1 0h2m2 0h4m4 0h1m1 0h2m2 0h1m3 0h1M4 32.5h3m1 0h6m2 0h1m1 0h1m2 0h2m1 0h2m1 0h6m1 0h2m3 0h2m1 0h2m1 0h2m4 0h6m3 0h2m2 0h1m2 0h1m3 0h3m1 0h12m1 0h1m2 0h2m2 0h2m1 0h7m2 0h1M5 33.5h1m1 0h2m7 0h1m1 0h1m3 0h2m1 0h3m2 0h1m2 0h1m7 0h1m1 0h1m1 0h4m1 0h1m2 0h1m1 0h2m3 0h1m3 0h1m1 0h2m1 0h2m2 0h1m1 0h3m2 0h3m2 0h1m3 0h2m1 0h1m6 0h1m2 0h2m2 0h3M4 34.5h1m1 0h2m2 0h2m2 0h1m1 0h3m1 0h7m3 0h2m1 0h1m1 0h2m2 0h4m1 0h1m2 0h1m1 0h1m2 0h1m2 0h2m1 0h1m1 0h1m1 0h3m1 0h1m2 0h2m2 0h1m2 0h3m3 0h4m1 0h1m1 0h1m3 0h1m1 0h6m1 0h1m1 0h2m2 0h1M7 35.5h1m1 0h1m3 0h1m4 0h2m2 0h1m1 0h2m6 0h2m1 0h1m4 0h3m2 0h1m1 0h2m1 0h2m2 0h5m1 0h7m1 0h1m1 0h3m1 0h1m1 0h1m1 0h1m1 0h1m1 0h4m2 0h4m4 0h2m3 0h1m2 0h2m2 0h1M5 36.5h1m3 0h7m2 0h1m1 0h1m1 0h1m1 0h1m4 0h1m1 0h2m1 0h1m1 0h1m1 0h1m1 0h4m2 0h5m2 0h1m1 0h3m1 0h1m1 0h1m3 0h1m1 0h3m2 0h1m1 0h3m1 0h1m2 0h1m2 0h1m1 0h1m1 0h1m4 0h2m3 0h1m1 0h2m1 0h2m2 0h2M4 37.5h2m1 0h2m3 0h1m4 0h1m1 0h2m2 0h1m2 0h1m1 0h2m1 0h1m1 0h2m2 0h3m1 0h4m1 0h1m3 0h1m1 0h1m2 0h2m3 0h1m2 0h5m2 0h1m1 0h3m1 0h5m1 0h1m5 0h2m2 0h3m1 0h3m4 0h2M6 38.5h6m2 0h1m1 0h1m1 0h2m1 0h1m1 0h1m1 0h1m1 0h1m1 0h1m1 0h1m1 0h7m4 0h1m1 0h1m4 0h1m1 0h2m1 0h1m3 0h1m2 0h1m3 0h1m4 0h1m2 0h1m5 0h1m2 0h2m2 0h4m2 0h1m1 0h1m2 0h1m2 0h1m4 0h1M4 39.5h2m2 0h1m3 0h1m3 0h3m1 0h3m1 0h5m1 0h1m3 0h1m1 0h2m1 0h3m2 0h2m1 0h1m1 0h1m1 0h2m1 0h1m2 0h2m1 0h1m2 0h1m3 0h2m1 0h1m2 0h6m1 0h1m1 0h1m1 0h1m1 0h1m1 0h1m2 0h2m1 0h4m1 0h1m1 0h1m2 0h2m2 0h1M5 40.5h1m1 0h2m1 0h1m1 0h4m1 0h1m5 0h1m2 0h1m1 0h1m1 0h1m1 0h3m2 0h1m2 0h2m2 0h3m1 0h1m3 0h1m1 0h4m1 0h1m3 0h1m1 0h1m2 0h2m3 0h2m2 0h1m1 0h1m1 0h3m1 0h1m3 0h1m2 0h2m1 0h1m1 0h3m1 0h2m2 0h1M5 41.5h1m2 0h1m2 0h2m1 0h1m3 0h2m3 0h2m6 0h1m2 0h3m3 0h4m1 0h1m1 0h2m1 0h2m1 0h3m1 0h2m1 0h1m3 0h1m8 0h1m1 0h1m4 0h2m2 0h3m2 0h1m2 0h3m1 0h2m1 0h1m1 0h1m1 0h2m1 0h3M4 42.5h2m3 0h3m7 0h1m2 0h2m3 0h1m1 0h6m2 0h1m2 0h4m2 0h1m1 0h1m2 0h2m2 0h1m3 0h1m2 0h1m1 0h2m1 0h2m1 0h1m2 0h2m2 0h2m1 0h2m1 0h4m2 0h1m9 0h3m1 0h4m1 0h1M5 43.5h3m1 0h1m3 0h10m1 0h2m2 0h2m2 0h1m3 0h1m2 0h1m4 0h4m2 0h1m3 0h1m2 0h3m1 0h1m2 0h6m1 0h1m1 0h2m1 0h2m3 0h1m2 0h2m2 0h2m1 0h1m1 0h1m1 0h1m2 0h1m3 0h1m2 0h3M4 44.5h2m2 0h3m2 0h2m2 0h1m3 0h3m1 0h1m1 0h1m2 0h1m2 0h1m1 0h3m1 0h3m1 0h2m1 0h1m1 0h3m1 0h4m1 0h2m3 0h1m1 0h1m3 0h3m2 0h3m2 0h1m1 0h3m5 0h4m2 0h1m2 0h1m3 0h1m2 0h1m1 0h3M6 45.5h2m3 0h1m2 0h1m1 0h1m2 0h1m1 0h3m2 0h3m1 0h1m1 0h3m3 0h2m1 0h1m1 0h3m2 0h1m1 0h1m3 0h3m1 0h3m2 0h3m1 0h5m3 0h2m1 0h2m1 0h2m1 0h5m1 0h1m2 0h1m1 0h2m1 0h2m1 0h1m4 0h3M5 46.5h2m1 0h1m1 0h1m2 0h1m1 0h2m2 0h1m3 0h3m1 0h6m1 0h2m6 0h1m1 0h4m2 0h1m1 0h1m2 0h1m1 0h6m2 0h2m1 0h4m1 0h1m1 0h2m1 0h2m1 0h2m1 0h6m5 0h1m1 0h1m1 0h4m2 0h1M4 47.5h3m2 0h1m1 0h1m3 0h5m5 0h3m1 0h4m3 0h4m1 0h5m2 0h1m2 0h1m1 0h2m2 0h3m1 0h4m2 0h3m1 0h2m3 0h1m1 0h3m1 0h1m1 0h2m1 0h6m1 0h1m1 0h1m4 0h6m1 0h1M6 48.5h2m1 0h2m2 0h2m3 0h1m3 0h1m5 0h3m2 0h1m3 0h1m2 0h1m2 0h3m1 0h1m5 0h1m1 0h1m2 0h1m1 0h4m2 0h2m2 0h1m1 0h1m3 0h4m1 0h1m4 0h1m2 0h3m1 0h1m3 0h3m1 0h2m1 0h2m1 0h1M4 49.5h2m1 0h1m1 0h1m4 0h1m2 0h2m3 0h1m1 0h2m3 0h1m1 0h1m1 0h4m1 0h1m1 0h3m1 0h1m2 0h1m1 0h1m5 0h3m2 0h3m1 0h1m3 0h3m1 0h1m1 0h4m3 0h1m1 0h4m2 0h1m4 0h1m1 0h1m1 0h4m3 0h2M5 50.5h3m2 0h1m2 0h1m2 0h2m1 0h1m1 0h2m2 0h4m1 0h6m4 0h1m1 0h1m5 0h1m1 0h2m1 0h1m4 0h2m1 0h5m3 0h2m7 0h2m2 0h2m1 0h3m2 0h2m1 0h5m4 0h1m5 0h1M12 51.5h1m4 0h4m1 0h1m1 0h2m1 0h2m1 0h7m1 0h10m1 0h3m1 0h4m2 0h2m4 0h1m4 0h2m3 0h2m2 0h2m5 0h4m3 0h1m1 0h2m2 0h1m2 0h3m1 0h1m1 0h1M5 52.5h9m7 0h1m3 0h9m2 0h3m1 0h2m1 0h1m1 0h2m1 0h2m2 0h5m1 0h1m3 0h2m1 0h3m2 0h1m2 0h1m2 0h5m1 0h2m3 0h1m2 0h1m2 0h3m1 0h10m1 0h1M4 53.5h1m2 0h2m3 0h1m2 0h3m1 0h3m2 0h2m1 0h2m3 0h1m2 0h2m1 0h1m1 0h2m2 0h2m1 0h2m3 0h1m3 0h2m1 0h1m3 0h1m3 0h1m1 0h4m1 0h3m3 0h5m2 0h4m2 0h1m1 0h1m1 0h4m3 0h1m1 0h2M5 54.5h4m1 0h1m1 0h1m1 0h2m1 0h1m2 0h1m1 0h1m1 0h2m2 0h1m1 0h1m1 0h2m1 0h3m1 0h1m1 0h4m1 0h4m2 0h1m1 0h1m1 0h1m1 0h1m2 0h4m3 0h4m2 0h1m1 0h1m1 0h1m1 0h1m3 0h3m5 0h1m3 0h1m3 0h1m1 0h1m1 0h1M6 55.5h1m1 0h1m3 0h4m1 0h7m1 0h1m1 0h2m3 0h2m3 0h1m3 0h2m1 0h1m1 0h1m2 0h1m2 0h1m3 0h1m1 0h1m1 0h1m1 0h7m1 0h1m1 0h1m3 0h1m3 0h4m2 0h1m2 0h1m4 0h1m1 0h1m1 0h3m3 0h1m2 0h2M4 56.5h3m1 0h9m2 0h1m1 0h1m1 0h1m1 0h2m1 0h7m1 0h4m1 0h1m1 0h2m1 0h2m3 0h6m9 0h1m1 0h2m1 0h2m2 0h6m1 0h2m2 0h1m2 0h1m2 0h1m3 0h1m3 0h6m1 0h1M6 57.5h4m2 0h4m1 0h3m2 0h4m4 0h3m1 0h1m2 0h2m1 0h1m1 0h2m2 0h2m1 0h1m2 0h1m1 0h1m1 0h1m1 0h2m3 0h3m5 0h1m3 0h1m2 0h1m1 0h1m1 0h1m1 0h3m7 0h4m5 0h1m1 0h3M4 58.5h1m5 0h2m2 0h1m1 0h1m5 0h4m5 0h3m1 0h6m3 0h1m2 0h1m1 0h2m2 0h3m2 0h2m1 0h1m1 0h1m1 0h4m1 0h1m4 0h1m1 0h1m1 0h1m1 0h5m1 0h1m1 0h1m1 0h1m1 0h3m1 0h1m2 0h1m2 0h4m1 0h1M4 59.5h1m1 0h1m1 0h2m1 0h2m5 0h1m1 0h1m2 0h1m1 0h1m3 0h1m1 0h4m1 0h3m2 0h2m2 0h2m1 0h3m3 0h1m3 0h1m1 0h1m1 0h1m1 0h1m1 0h3m1 0h2m1 0h7m2 0h1m1 0h1m1 0h1m3 0h2m1 0h1m2 0h2m6 0h2m2 0h1M4 60.5h3m2 0h3m1 0h2m3 0h1m2 0h1m2 0h1m1 0h2m2 0h3m1 0h1m4 0h1m4 0h1m1 0h1m1 0h2m1 0h1m1 0h1m2 0h1m1 0h1m2 0h2m1 0h1m1 0h2m3 0h1m1 0h5m3 0h1m6 0h2m12 0h2M6 61.5h3m2 0h1m1 0h5m1 0h2m1 0h1m1 0h2m1 0h1m3 0h1m2 0h1m3 0h1m1 0h1m3 0h1m1 0h2m1 0h3m1 0h1m2 0h1m1 0h1m2 0h1m1 0h5m1 0h1m1 0h1m2 0h15m4 0h4m3 0h1m1 0h1m1 0h1M5 62.5h2m3 0h2m1 0h1m3 0h5m2 0h4m1 0h5m3 0h6m2 0h2m3 0h1m1 0h2m3 0h2m1 0h2m2 0h1m3 0h1m1 0h2m1 0h1m1 0h1m2 0h4m1 0h3m3 0h1m2 0h1m1 0h2m2 0h4m3 0h4M5 63.5h1m1 0h2m2 0h1m3 0h3m1 0h1m2 0h3m1 0h1m1 0h4m1 0h1m2 0h2m1 0h3m1 0h1m3 0h3m1 0h1m1 0h1m2 0h1m2 0h1m2 0h2m1 0h1m1 0h1m1 0h1m4 0h8m3 0h1m6 0h2m1 0h1m3 0h1m1 0h1m1 0h1m2 0h1m1 0h1M5 64.5h1m4 0h5m1 0h1m2 0h2m3 0h1m1 0h1m1 0h1m3 0h1m1 0h1m1 0h1m2 0h1m1 0h5m1 0h4m2 0h1m5 0h4m1 0h1m2 0h1m1 0h3m1 0h2m3 0h4m1 0h4m3 0h2m1 0h1m2 0h1m1 0h1m3 0h4m1 0h2M4 65.5h1m2 0h3m2 0h3m1 0h1m2 0h1m1 0h2m2 0h1m1 0h1m1 0h1m2 0h1m1 0h1m1 0h1m1 0h1m2 0h4m1 0h1m1 0h1m1 0h1m7 0h1m2 0h1m3 0h2m1 0h2m2 0h3m4 0h1m2 0h1m5 0h3m1 0h6m3 0h1m4 0h1M4 66.5h1m1 0h2m2 0h1m1 0h1m2 0h1m4 0h2m2 0h3m2 0h1m2 0h1m6 0h2m1 0h2m2 0h1m2 0h2m2 0h1m6 0h3m1 0h2m1 0h5m2 0h1m2 0h1m1 0h4m2 0h2m2 0h1m2 0h1m2 0h2m1 0h2m2 0h3m2 0h2M6 67.5h1m2 0h1m1 0h1m3 0h1m1 0h3m3 0h1m1 0h1m3 0h2m1 0h3m1 0h1m1 0h1m1 0h3m1 0h2m2 0h1m1 0h1m3 0h1m1 0h3m2 0h3m1 0h1m1 0h1m1 0h3m1 0h8m2 0h2m2 0h2m1 0h2m1 0h1m1 0h2m1 0h1m1 0h4m2 0h2M5 68.5h1m2 0h1m1 0h2m1 0h2m1 0h1m1 0h1m3 0h4m1 0h1m1 0h3m1 0h1m1 0h2m2 0h1m1 0h1m3 0h1m1 0h3m3 0h4m1 0h4m1 0h2m2 0h2m1 0h1m2 0h2m1 0h2m6 0h1m3 0h5m1 0h3m3 0h7m1 0h1M5 69.5h3m1 0h1m1 0h1m1 0h1m1 0h2m2 0h1m2 0h2m4 0h2m2 0h2m2 0h7m1 0h3m2 0h1m6 0h2m1 0h2m1 0h1m1 0h4m3 0h2m2 0h2m3 0h1m1 0h2m2 0h1m2 0h1m4 0h4m4 0h2m2 0h1M7 70.5h2m1 0h2m1 0h6m1 0h1m1 0h1m3 0h6m1 0h1m1 0h1m1 0h1m1 0h1m1 0h1m1 0h3m5 0h1m2 0h2m1 0h5m2 0h4m2 0h3m1 0h1m1 0h2m2 0h2m2 0h3m1 0h1m3 0h1m5 0h1m2 0h1m1 0h2m1 0h3M5 71.5h2m4 0h2m4 0h2m1 0h1m1 0h2m2 0h1m6 0h1m3 0h7m1 0h6m1 0h3m1 0h1m1 0h4m4 0h3m2 0h3m1 0h1m2 0h2m1 0h3m2 0h2m1 0h2m3 0h1m1 0h1m4 0h2m1 0h1m1 0h3M4 72.5h1m2 0h2m1 0h2m1 0h1m2 0h3m1 0h1m1 0h1m1 0h2m3 0h5m3 0h1m1 0h1m5 0h3m1 0h1m1 0h1m1 0h2m1 0h1m1 0h1m2 0h2m1 0h1m2 0h2m1 0h1m3 0h3m2 0h1m2 0h2m4 0h3m2 0h2m7 0h4m1 0h1M6 73.5h2m1 0h1m2 0h3m1 0h1m2 0h5m1 0h2m1 0h1m1 0h3m9 0h1m1 0h1m1 0h2m1 0h2m1 0h1m2 0h1m1 0h3m2 0h2m2 0h1m1 0h4m1 0h1m2 0h1m2 0h1m1 0h1m4 0h1m3 0h1m3 0h2m2 0h1m2 0h1m3 0h1m2 0h1M4 74.5h1m1 0h1m1 0h3m2 0h1m1 0h1m3 0h1m2 0h1m1 0h1m3 0h2m6 0h2m10 0h3m3 0h1m1 0h7m6 0h4m3 0h3m3 0h4m2 0h1m14 0h5M4 75.5h1m1 0h1m1 0h2m1 0h1m1 0h1m2 0h1m2 0h3m1 0h1m4 0h1m2 0h4m1 0h1m1 0h10m1 0h1m3 0h1m1 0h2m1 0h2m1 0h1m2 0h1m3 0h2m4 0h2m1 0h1m2 0h1m2 0h1m3 0h1m2 0h1m3 0h1m2 0h1m2 0h1m2 0h1m2 0h3M4 76.5h9m2 0h1m2 0h1m1 0h1m1 0h2m1 0h2m1 0h5m3 0h1m1 0h1m1 0h2m2 0h1m1 0h1m1 0h9m1 0h1m1 0h3m1 0h1m1 0h2m4 0h1m2 0h7m1 0h2m2 0h1m1 0h1m1 0h5m1 0h1m2 0h6M6 77.5h1m1 0h1m3 0h2m4 0h1m2 0h2m2 0h1m1 0h2m3 0h1m2 0h2m1 0h1m2 0h1m1 0h1m2 0h4m2 0h1m3 0h9m1 0h1m1 0h1m2 0h1m2 0h1m1 0h1m3 0h1m1 0h1m2 0h3m1 0h1m3 0h1m2 0h2m1 0h2m3 0h1m1 0h3M5 78.5h2m1 0h1m1 0h1m1 0h3m1 0h7m1 0h1m1 0h3m1 0h1m1 0h4m2 0h1m2 0h1m5 0h1m1 0h4m1 0h1m1 0h3m3 0h1m1 0h1m1 0h1m3 0h1m5 0h1m1 0h1m1 0h6m1 0h2m1 0h1m1 0h1m1 0h1m2 0h1m2 0h1m1 0h1m1 0h1m1 0h3M4 79.5h2m2 0h1m3 0h1m4 0h1m2 0h4m1 0h2m1 0h1m3 0h1m2 0h1m3 0h4m2 0h2m2 0h4m3 0h3m1 0h2m2 0h3m1 0h2m1 0h1m2 0h1m1 0h1m3 0h1m1 0h3m1 0h1m2 0h4m1 0h1m1 0h1m3 0h1m3 0h3m1 0h1M4 80.5h2m2 0h5m4 0h2m1 0h3m4 0h7m3 0h2m2 0h1m1 0h4m2 0h2m1 0h6m1 0h3m2 0h4m2 0h2m1 0h2m1 0h5m1 0h1m3 0h3m1 0h2m1 0h1m1 0h1m2 0h1m1 0h5m2 0h2M5 81.5h1m5 0h1m3 0h1m5 0h2m3 0h2m3 0h1m2 0h3m1 0h3m1 0h1m7 0h1m1 0h4m1 0h2m2 0h1m1 0h1m2 0h2m2 0h1m1 0h1m2 0h2m2 0h1m3 0h1m1 0h2m1 0h2m1 0h2m3 0h3m4 0h1M5 82.5h2m3 0h1m1 0h1m2 0h1m4 0h1m1 0h2m1 0h2m9 0h2m2 0h1m1 0h1m1 0h1m2 0h3m1 0h3m1 0h3m1 0h1m2 0h6m1 0h3m1 0h2m4 0h1m1 0h2m1 0h1m1 0h1m2 0h1m2 0h1m2 0h1m3 0h4m1 0h1M4 83.5h1m1 0h4m5 0h1m1 0h1m2 0h3m5 0h1m1 0h1m3 0h3m2 0h2m1 0h2m2 0h1m1 0h2m3 0h4m1 0h2m2 0h1m1 0h2m1 0h5m4 0h1m1 0h1m1 0h1m1 0h3m2 0h3m1 0h1m2 0h2m2 0h3m1 0h1m2 0h2m1 0h1M4 84.5h1m1 0h1m1 0h1m1 0h1m1 0h1m1 0h1m2 0h1m1 0h3m7 0h5m2 0h1m1 0h1m1 0h1m3 0h1m1 0h2m2 0h1m1 0h1m2 0h1m2 0h1m1 0h1m3 0h1m3 0h2m7 0h2m1 0h2m1 0h2m3 0h1m3 0h3m3 0h3m1 0h3m3 0h1M4 85.5h3m1 0h2m3 0h2m2 0h1m2 0h1m3 0h1m2 0h2m1 0h1m2 0h1m2 0h5m3 0h3m1 0h1m1 0h1m3 0h2m2 0h1m2 0h2m2 0h1m6 0h7m4 0h3m1 0h1m1 0h1m1 0h1m2 0h1m1 0h2m1 0h1m1 0h1m2 0h1m1 0h1m1 0h1M4 86.5h2m2 0h1m1 0h1m3 0h5m3 0h1m2 0h1m5 0h4m1 0h6m1 0h5m3 0h2m1 0h1m1 0h3m1 0h2m2 0h4m3 0h2m8 0h1m3 0h1m3 0h2m2 0h3m3 0h2m1 0h1m2 0h4M4 87.5h1m1 0h1m2 0h1m1 0h2m2 0h1m1 0h1m2 0h1m3 0h1m1 0h1m4 0h1m3 0h4m2 0h4m1 0h2m3 0h4m1 0h2m1 0h2m1 0h5m2 0h3m2 0h1m1 0h1m2 0h1m1 0h3m1 0h1m1 0h1m1 0h4m4 0h2m1 0h5m1 0h1M4 88.5h2m1 0h2m1 0h4m3 0h1m2 0h1m3 0h1m2 0h1m2 0h6m1 0h3m6 0h2m1 0h5m2 0h3m2 0h2m1 0h1m1 0h1m2 0h1m2 0h1m1 0h1m1 0h1m1 0h1m2 0h3m1 0h1m2 0h1m3 0h3m1 0h2m1 0h1m1 0h1m1 0h1m1 0h2m1 0h1M5 89.5h5m2 0h1m1 0h2m1 0h1m1 0h3m2 0h1m1 0h2m1 0h2m1 0h5m1 0h2m2 0h1m2 0h4m1 0h1m1 0h1m5 0h4m2 0h3m2 0h1m1 0h1m4 0h3m1 0h2m3 0h1m3 0h4m3 0h2m1 0h2m1 0h3m2 0h1M4 90.5h1m1 0h1m1 0h1m1 0h2m1 0h2m1 0h2m4 0h1m2 0h3m3 0h1m1 0h1m3 0h7m1 0h1m1 0h2m3 0h2m1 0h3m3 0h2m2 0h2m1 0h3m4 0h2m2 0h1m3 0h9m2 0h1m2 0h1m3 0h2m1 0h1M4 91.5h1m1 0h4m2 0h3m1 0h2m1 0h2m3 0h1m1 0h2m2 0h1m2 0h3m1 0h1m1 0h3m1 0h4m2 0h1m2 0h1m1 0h2m1 0h2m3 0h2m2 0h1m1 0h2m2 0h3m5 0h1m2 0h1m3 0h2m2 0h2m3 0h1m2 0h3m1 0h1m3 0h2M5 92.5h1m1 0h2m1 0h1m2 0h1m1 0h2m1 0h2m4 0h1m3 0h1m2 0h2m2 0h6m1 0h4m4 0h1m4 0h4m1 0h6m1 0h2m2 0h1m3 0h1m1 0h1m1 0h1m5 0h2m2 0h2m2 0h1m2 0h5m3 0h3M4 93.5h3m2 0h1m2 0h1m4 0h2m2 0h2m4 0h1m3 0h2m4 0h2m2 0h1m1 0h1m1 0h2m2 0h1m1 0h3m3 0h2m2 0h2m1 0h1m1 0h1m1 0h2m4 0h1m2 0h1m3 0h4m1 0h1m1 0h1m5 0h1m2 0h5m3 0h1m1 0h2M4 94.5h2m2 0h3m3 0h4m2 0h1m1 0h4m4 0h1m3 0h1m1 0h1m1 0h1m2 0h5m2 0h1m2 0h1m2 0h1m1 0h4m1 0h2m1 0h1m3 0h1m1 0h1m1 0h1m1 0h2m1 0h1m2 0h1m1 0h2m3 0h2m1 0h1m2 0h1m3 0h2m1 0h3m2 0h2m1 0h1M4 95.5h1m1 0h1m1 0h1m2 0h1m1 0h3m4 0h2m4 0h3m3 0h3m1 0h1m5 0h3m1 0h2m3 0h1m2 0h5m3 0h1m2 0h2m2 0h3m1 0h5m1 0h1m1 0h2m1 0h2m1 0h3m3 0h6m2 0h1m6 0h1M4 96.5h5m1 0h1m1 0h1m1 0h2m2 0h2m1 0h2m2 0h1m4 0h3m2 0h1m2 0h3m1 0h2m1 0h2m1 0h3m1 0h1m3 0h1m4 0h1m1 0h3m2 0h1m2 0h2m1 0h1m3 0h1m2 0h3m2 0h5m1 0h1m1 0h1m1 0h7m2 0h3M4 97.5h1m1 0h3m2 0h1m2 0h1m5 0h2m3 0h3m1 0h1m1 0h4m1 0h1m1 0h1m1 0h1m2 0h1m4 0h5m1 0h1m2 0h1m2 0h1m3 0h2m2 0h5m1 0h2m4 0h1m1 0h2m1 0h2m1 0h5m3 0h3m1 0h3m1 0h1m1 0h1M4 98.5h3m3 0h2m1 0h1m2 0h3m3 0h2m1 0h2m1 0h5m1 0h1m1 0h2m1 0h2m1 0h1m2 0h2m1 0h1m2 0h1m1 0h1m1 0h6m1 0h3m2 0h1m1 0h2m1 0h3m2 0h1m3 0h5m3 0h3m3 0h4m1 0h1m2 0h2m2 0h1M6 99.5h1m1 0h2m3 0h1m2 0h3m1 0h1m3 0h1m3 0h2m4 0h5m2 0h1m2 0h9m9 0h3m1 0h6m1 0h1m5 0h4m1 0h2m2 0h1m1 0h1m1 0h1m2 0h1m5 0h2m2 0h2M7 100.5h2m1 0h4m1 0h2m3 0h3m1 0h2m2 0h7m2 0h4m1 0h3m1 0h1m4 0h10m2 0h3m1 0h1m1 0h1m1 0h1m1 0h1m1 0h6m1 0h7m1 0h2m6 0h7m2 0h1M12 101.5h2m1 0h1m2 0h2m3 0h1m1 0h2m1 0h1m3 0h1m1 0h2m1 0h1m2 0h11m1 0h1m3 0h2m1 0h1m2 0h4m2 0h4m2 0h1m1 0h1m3 0h3m1 0h2m4 0h1m1 0h1m3 0h1m2 0h2m3 0h1m1 0h1M4 102.5h7m4 0h1m2 0h1m1 0h1m1 0h1m1 0h1m2 0h2m1 0h1m1 0h3m2 0h2m1 0h1m4 0h1m1 0h1m1 0h4m1 0h1m1 0h1m1 0h1m6 0h1m2 0h1m1 0h1m5 0h1m1 0h1m1 0h1m2 0h1m1 0h1m5 0h2m1 0h1m2 0h1m2 0h1m1 0h1m1 0h2m1 0h1M4 103.5h1m5 0h1m4 0h2m4 0h2m2 0h1m2 0h1m3 0h1m3 0h4m5 0h3m1 0h1m1 0h2m3 0h1m1 0h2m2 0h2m2 0h1m3 0h1m1 0h1m1 0h1m1 0h1m3 0h3m2 0h1m1 0h3m4 0h3m1 0h1m1 0h1m3 0h2m1 0h2M4 104.5h1m1 0h3m1 0h1m1 0h1m3 0h3m1 0h3m1 0h1m1 0h1m1 0h6m2 0h4m1 0h1m1 0h1m6 0h1m1 0h6m4 0h3m6 0h4m1 0h6m2 0h1m4 0h6m3 0h1m1 0h5m3 0h1M4 105.5h1m1 0h3m1 0h1m1 0h1m1 0h2m1 0h2m3 0h2m1 0h1m2 0h5m2 0h3m1 0h2m1 0h1m2 0h4m1 0h3m1 0h3m1 0h1m3 0h1m1 0h1m1 0h2m2 0h1m6 0h3m3 0h1m1 0h2m2 0h4m1 0h1m1 0h2m3 0h1m1 0h2m1 0h1M4 106.5h1m1 0h3m1 0h1m2 0h1m2 0h1m2 0h1m1 0h2m2 0h2m1 0h3m1 0h2m1 0h1m2 0h2m1 0h1m2 0h6m1 0h3m1 0h2m1 0h2m1 0h1m2 0h2m1 0h1m1 0h2m2 0h2m3 0h3m2 0h1m3 0h2m1 0h2m1 0h1m3 0h5m1 0h6M4 107.5h1m5 0h1m1 0h1m4 0h1m1 0h2m1 0h1m1 0h3m2 0h2m4 0h3m1 0h3m2 0h2m1 0h2m2 0h2m2 0h8m2 0h4m2 0h1m2 0h2m2 0h6m3 0h1m4 0h1m1 0h2m1 0h1m1 0h2m1 0h1m2 0h4M4 108.5h7m1 0h1m3 0h4m1 0h1m1 0h3m2 0h2m2 0h1m1 0h2m1 0h1m3 0h4m1 0h1m2 0h1m1 0h5m1 0h1m3 0h4m1 0h1m1 0h1m4 0h2m8 0h1m2 0h1m1 0h8m2 0h2m1 0h4m1 0h1"/></svg>
