<svg xmlns="http://www.w3.org/2000/svg" viewBox="0 0 97 97" shape-rendering="crispEdges"><path fill="#ffffff" d="M0 0h97v97H0z"/><path stroke="#000000" d="M4 4.5h7m3 0h1m7 0h2m6 0h2m1 0h1m2 0h2m3 0h6m2 0h2m1 0h1m1 0h2m1 0h1m5 0h1m1 0h1m8 0h1m1 0h2m2 0h1m1 0h3m1 0h7M4 5.5h1m5 0h1m1 0h2m1 0h2m1 0h1m1 0h1m1 0h1m1 0h1m1 0h1m2 0h1m1 0h2m2 0h3m2 0h2m1 0h6m4 0h1m2 0h5m1 0h1m1 0h1m2 0h3m1 0h3m3 0h5m1 0h1m2 0h1m5 0h1M4 6.5h1m1 0h3m1 0h1m2 0h1m3 0h1m2 0h2m1 0h1m2 0h3m1 0h1m1 0h2m3 0h1m1 0h1m4 0h2m1 0h5m1 0h1m3 0h3m1 0h1m3 0h1m1 0h1m2 0h2m1 0h2m2 0h5m4 0h1m1 0h3m1 0h1M4 7.5h1m1 0h3m1 0h1m1 0h1m1 0h1m3 0h1m3 0h2m3 0h2m1 0h1m1 0h1m1 0h1m2 0h2m3 0h1m1 0h5m2 0h1m1 0h1m1 0h1m1 0h1m1 0h4m2 0h1m3 0h1m1 0h3m2 0h1m2 0h1m1 0h2m1 0h1m1 0h1m1 0h3m1 0h1M4 8.5h1m1 0h3m1 0h1m2 0h1m3 0h1m1 0h3m3 0h3m1 0h1m1 0h7m1 0h2m1 0h2m2 0h1m1 0h2m1 0h1m2 0h1m2 0h7m3 0h1m2 0h2m2 0h3m1 0h1m4 0h1m2 0h1m1 0h3m1 0h1M4 9.5h1m5 0h1m1 0h1m2 0h3m1 0h1m3 0h1m1 0h1m3 0h2m1 0h1m3 0h2m3 0h1m2 0h2m1 0h2m2 0h1m2 0h1m1 0h1m1 0h1m3 0h2m3 0h1m1 0h3m4 0h3m2 0h1m1 0h1m2 0h1m5 0h1M4 10.5h7m1 0h1m1 0h1m1 0h1m1 0h1m1 0h1m1 0h1m1 0h1m1 0h1m1 0h1m1 0h1m1 0h1m1 0h1m1 0h1m1 0h1m1 0h1m1 0h1m1 0h1m1 0h1m1 0h1m1 0h1m1 0h1m1 0h1m1 0h1m1 0h1m1 0h1m1 0h1m1 0h1m1 0h1m1 0h1m1 0h1m1 0h1m1 0h1m1 0h1m1 0h1m1 0h1m1 0h1m1 0h1m1 0h7M14 11.5h1m2 0h1m1 0h1m2 0h1m1 0h1m2 0h3m2 0h1m3 0h3m1 0h1m1 0h1m5 0h2m1 0h5m1 0h2m3 0h1m1 0h2m1 0h2m1 0h6m1 0h1m2 0h1m1 0h2M4 12.5h5m1 0h6m1 0h2m1 0h4m1 0h3m1 0h8m1 0h1m1 0h1m2 0h1m1 0h1m3 0h1m1 0h1m3 0h9m3 0h1m2 0h1m3 0h1m2 0h1m1 0h2m4 0h1m1 0h1m1 0h1m1 0h1M5 13.5h2m1 0h1m5 0h2m2 0h2m2 0h1m2 0h4m2 0h2m1 0h2m3 0h1m1 0h1m1 0h4m1 0h1m1 0h1m1 0h1m1 0h1m1 0h1m2 0h3m2 0h1m1 0h1m5 0h1m5 0h2m3 0h2m1 0h1m1 0h1m1 0h2M6 14.5h1m1 0h4m2 0h1m3 0h1m1 0h2m2 0h3m1 0h1m1 0h1m2 0h1m1 0h2m7 0h3m3 0h1m1 0h1m1 0h2m2 0h1m1 0h3m3 0h1m4 0h3m2 0h2m2 0h1m1 0h2m3 0h3m1 0h1M4 15.5h1m1 0h1m2 0h1m2 0h4m1 0h2m1 0h2m1 0h3m2 0h1m2 0h5m2 0h3m2 0h1m2 0h4m1 0h2m2 0h2m2 0h1m2 0h1m2 0h4m2 0h1m1 0h1m1 0h3m2 0h3m1 0h1m1 0h1m2 0h2m1 0h1M4 16.5h2m1 0h5m1 0h4m1 0h1m1 0h8m5 0h3m1 0h2m1 0h1m1 0h3m4 0h1m4 0h3m1 0h3m3 0h1m2 0h1m1 0h1m4 0h2m3 0h1m1 0h2m1 0h1m1 0h1m4 0h2M4 17.5h1m1 0h1m5 0h1m1 0h1m3 0h2m1 0h1m1 0h3m2 0h1m3 0h1m1 0h2m1 0h1m2 0h1m1 0h1m1 0h1m3 0h3m1 0h1m1 0h1m1 0h2m1 0h3m1 0h5m2 0h2m1 0h1m3 0h5m3 0h1m1 0h1m2 0h3M4 18.5h1m3 0h3m3 0h1m2 0h1m7 0h1m1 0h3m1 0h2m2 0h1m3 0h2m1 0h1m3 0h2m1 0h1m2 0h1m1 0h1m5 0h1m2 0h1m1 0h1m1 0h3m2 0h1m1 0h2m4 0h3m1 0h1m3 0h2M14 19.5h2m1 0h9m1 0h3m3 0h3m3 0h1m1 0h1m1 0h3m5 0h2m1 0h3m1 0h2m1 0h2m3 0h1m3 0h1m2 0h2m2 0h3m1 0h1m2 0h3m5 0h1M4 20.5h3m1 0h1m1 0h1m1 0h3m1 0h2m1 0h1m3 0h4m2 0h2m3 0h1m7 0h1m2 0h2m2 0h1m1 0h3m1 0h2m1 0h1m1 0h2m3 0h3m3 0h1m2 0h1m1 0h1m1 0h1m1 0h1m1 0h1m1 0h2m2 0h4M4 21.5h1m1 0h1m1 0h2m3 0h5m5 0h2m1 0h1m1 0h2m1 0h2m2 0h1m1 0h5m1 0h5m6 0h1m5 0h1m1 0h3m2 0h3m1 0h2m8 0h2m6 0h1m1 0h1M4 22.5h4m2 0h4m1 0h2m3 0h2m1 0h1m4 0h2m1 0h2m2 0h2m2 0h3m1 0h1m1 0h3m4 0h2m1 0h1m1 0h3m1 0h1m1 0h3m1 0h1m1 0h1m1 0h1m1 0h6m1 0h2m7 0h2m1 0h1M5 23.5h4m2 0h1m4 0h1m2 0h2m4 0h1m1 0h1m1 0h1m1 0h2m1 0h1m1 0h1m2 0h1m3 0h6m11 0h2m3 0h2m1 0h1m3 0h2m2 0h3m3 0h1m4 0h2m1 0h1M4 24.5h7m1 0h3m2 0h1m1 0h7m2 0h1m1 0h1m2 0h2m6 0h1m1 0h2m1 0h2m1 0h4m2 0h1m1 0h1m3 0h5m1 0h2m1 0h2m1 0h2m2 0h1m2 0h1m1 0h2m2 0h1m2 0h1m1 0h2M6 25.5h3m2 0h1m2 0h1m1 0h3m2 0h1m3 0h2m3 0h1m5 0h1m3 0h1m2 0h1m1 0h1m3 0h2m1 0h1m1 0h2m2 0h1m2 0h2m1 0h1m1 0h4m1 0h1m2 0h1m1 0h2m4 0h3m1 0h4m2 0h1M4 26.5h3m2 0h5m4 0h2m1 0h1m1 0h1m1 0h1m2 0h1m1 0h3m2 0h9m2 0h1m5 0h1m3 0h2m1 0h1m2 0h1m3 0h2m1 0h1m1 0h3m1 0h4m1 0h4m1 0h2m1 0h1m3 0h1M6 27.5h1m1 0h2m1 0h2m2 0h1m1 0h3m1 0h2m1 0h3m1 0h1m1 0h1m1 0h1m1 0h3m1 0h1m6 0h1m2 0h1m3 0h2m3 0h1m4 0h1m2 0h1m3 0h1m3 0h2m1 0h1m2 0h2m3 0h4m3 0h2M4 28.5h3m1 0h1m1 0h1m2 0h2m1 0h1m1 0h1m1 0h3m2 0h1m2 0h1m5 0h6m5 0h1m1 0h3m3 0h2m3 0h1m2 0h1m1 0h2m1 0h1m2 0h2m1 0h11m3 0h2m1 0h2M7 29.5h3m2 0h1m2 0h1m1 0h3m1 0h2m1 0h2m2 0h4m1 0h1m3 0h2m1 0h3m3 0h1m2 0h3m2 0h1m1 0h2m4 0h4m2 0h1m2 0h1m5 0h1m2 0h1m1 0h1m1 0h1m2 0h1m2 0h2M7 30.5h1m2 0h2m2 0h1m1 0h1m1 0h2m5 0h1m1 0h1m1 0h2m4 0h6m1 0h1m2 0h3m1 0h2m2 0h3m1 0h3m1 0h1m2 0h1m1 0h1m1 0h2m1 0h2m1 0h1m2 0h1m3 0h3m2 0h3M4 31.5h1m1 0h2m1 0h1m1 0h3m1 0h2m3 0h1m4 0h1m2 0h1m3 0h8m1 0h1m3 0h2m1 0h2m3 0h1m2 0h6m1 0h3m1 0h2m1 0h1m1 0h1m2 0h3m1 0h8m2 0h1m2 0h1M6 32.5h7m1 0h4m2 0h2m2 0h3m2 0h2m1 0h5m1 0h1m2 0h1m1 0h3m2 0h2m1 0h4m2 0h6m1 0h1m3 0h1m2 0h4m1 0h1m1 0h3m2 0h6m1 0h3M4 33.5h1m1 0h1m1 0h1m3 0h2m2 0h3m3 0h2m1 0h1m1 0h1m2 0h1m1 0h1m3 0h1m4 0h1m3 0h1m2 0h2m1 0h1m2 0h3m1 0h1m3 0h4m1 0h3m2 0h5m3 0h1m3 0h1m3 0h1M4 34.5h2m2 0h1m1 0h1m1 0h1m2 0h2m4 0h1m1 0h4m1 0h5m1 0h1m1 0h1m2 0h3m1 0h1m4 0h2m3 0h2m2 0h2m1 0h1m1 0h3m7 0h1m1 0h6m3 0h2m1 0h1m1 0h1m3 0h1M6 35.5h1m1 0h1m3 0h1m1 0h1m2 0h3m2 0h5m2 0h1m2 0h1m3 0h2m2 0h1m1 0h4m2 0h1m1 0h3m1 0h2m2 0h1m3 0h6m3 0h1m1 0h1m1 0h1m3 0h2m1 0h3m3 0h1m1 0h2M5 36.5h2m1 0h5m2 0h3m1 0h1m1 0h1m3 0h1m1 0h1m4 0h5m2 0h1m3 0h3m1 0h1m1 0h5m1 0h2m1 0h8m1 0h1m1 0h2m2 0h1m1 0h2m4 0h2m1 0h6M5 37.5h1m2 0h1m2 0h2m2 0h3m1 0h1m3 0h2m2 0h4m6 0h2m1 0h2m2 0h2m3 0h2m4 0h2m1 0h4m3 0h1m4 0h1m1 0h1m1 0h1m2 0h2m3 0h2m1 0h1m3 0h3M4 38.5h2m1 0h2m1 0h5m1 0h3m10 0h1m2 0h1m2 0h1m1 0h1m3 0h1m1 0h5m3 0h1m1 0h1m3 0h4m2 0h3m2 0h7m2 0h1m1 0h2m1 0h3m1 0h2m1 0h2M4 39.5h1m1 0h4m1 0h1m3 0h2m2 0h2m5 0h1m2 0h3m1 0h2m1 0h4m2 0h2m1 0h2m4 0h3m1 0h2m1 0h2m1 0h1m3 0h1m3 0h4m1 0h1m1 0h2m1 0h1m1 0h2m3 0h3m1 0h1m1 0h1M8 40.5h1m1 0h6m6 0h1m1 0h4m1 0h1m7 0h1m1 0h1m1 0h4m3 0h1m3 0h2m1 0h1m2 0h1m1 0h2m2 0h1m1 0h3m2 0h3m1 0h1m2 0h1m1 0h1m2 0h2m2 0h1m1 0h3M4 41.5h1m4 0h1m2 0h1m2 0h1m5 0h1m5 0h2m1 0h5m1 0h2m5 0h1m1 0h2m3 0h1m1 0h1m2 0h7m2 0h2m1 0h2m1 0h6m5 0h2m2 0h1m6 0h1M4 42.5h2m1 0h2m1 0h2m1 0h2m3 0h1m1 0h2m2 0h1m3 0h1m4 0h1m1 0h1m6 0h2m1 0h2m2 0h1m2 0h1m1 0h1m2 0h1m2 0h1m2 0h1m1 0h3m1 0h1m3 0h1m2 0h1m3 0h2m1 0h1m1 0h2M11 43.5h2m2 0h2m1 0h3m5 0h1m4 0h2m1 0h1m1 0h2m2 0h4m1 0h4m3 0h2m3 0h2m1 0h1m3 0h7m1 0h1m4 0h2m6 0h1m3 0h1M5 44.5h3m1 0h2m1 0h2m1 0h3m3 0h2m1 0h1m1 0h1m1 0h2m3 0h2m1 0h2m1 0h1m2 0h1m1 0h3m1 0h3m1 0h2m1 0h4m1 0h2m2 0h2m1 0h1m1 0h1m1 0h2m2 0h1m1 0h1m2 0h1m2 0h1m1 0h6M4 45.5h1m3 0h1m4 0h4m1 0h3m6 0h2m2 0h3m2 0h2m6 0h3m2 0h3m1 0h1m4 0h2m1 0h4m2 0h2m4 0h1m7 0h1m2 0h1m5 0h1m1 0h1M5 46.5h2m1 0h8m2 0h1m1 0h6m3 0h3m2 0h1m1 0h1m2 0h3m1 0h1m2 0h1m1 0h1m4 0h1m1 0h1m2 0h1m8 0h5m2 0h1m1 0h1m1 0h5m4 0h1m2 0h3M5 47.5h2m1 0h2m1 0h2m2 0h1m1 0h3m4 0h2m2 0h2m2 0h1m1 0h2m2 0h1m1 0h2m4 0h1m2 0h1m1 0h1m2 0h1m1 0h1m4 0h1m1 0h1m1 0h1m1 0h4m1 0h1m1 0h1m2 0h1m1 0h2m2 0h2m3 0h1m3 0h1M4 48.5h4m2 0h2m1 0h1m1 0h2m1 0h1m1 0h4m2 0h1m3 0h2m1 0h5m2 0h1m1 0h1m2 0h3m5 0h1m2 0h3m2 0h1m2 0h1m1 0h1m1 0h1m1 0h10m3 0h4m4 0h2M4 49.5h4m4 0h1m1 0h2m3 0h1m3 0h6m1 0h2m1 0h2m2 0h3m3 0h2m6 0h1m2 0h2m1 0h1m1 0h2m1 0h1m1 0h2m3 0h1m1 0h3m3 0h1m2 0h3m1 0h3m3 0h1M6 50.5h2m2 0h2m2 0h1m1 0h1m2 0h3m3 0h1m1 0h1m1 0h2m3 0h2m3 0h2m1 0h6m1 0h2m3 0h2m1 0h6m3 0h1m2 0h2m1 0h3m2 0h1m1 0h1m1 0h3m3 0h3M5 51.5h1m1 0h1m1 0h1m2 0h1m2 0h2m2 0h2m1 0h1m1 0h2m1 0h1m1 0h1m4 0h2m1 0h5m1 0h2m1 0h1m4 0h3m4 0h2m1 0h1m1 0h3m10 0h1m1 0h1m2 0h1m1 0h3m3 0h1m1 0h1M5 52.5h2m2 0h2m2 0h2m2 0h2m1 0h1m6 0h4m5 0h1m1 0h2m2 0h1m2 0h1m1 0h3m5 0h2m3 0h1m2 0h3m2 0h2m3 0h2m1 0h1m1 0h1m3 0h1m1 0h2m1 0h1m2 0h3M4 53.5h3m2 0h1m2 0h3m1 0h2m1 0h1m1 0h7m1 0h1m1 0h2m1 0h2m3 0h2m3 0h1m1 0h4m2 0h1m2 0h6m2 0h3m4 0h5m3 0h2m4 0h1m3 0h1m2 0h2M7 54.5h2m1 0h1m1 0h1m2 0h1m2 0h2m4 0h1m2 0h1m1 0h1m1 0h2m1 0h2m1 0h1m3 0h4m1 0h1m2 0h2m2 0h1m1 0h6m2 0h1m2 0h1m1 0h1m6 0h2m2 0h3m1 0h1m3 0h5M5 55.5h2m1 0h2m2 0h1m3 0h6m2 0h1m1 0h3m3 0h1m3 0h3m2 0h3m1 0h2m3 0h2m2 0h1m4 0h1m1 0h1m1 0h3m2 0h4m1 0h3m2 0h2m2 0h4m6 0h1M4 56.5h9m1 0h1m2 0h1m2 0h1m11 0h1m1 0h1m1 0h1m2 0h4m1 0h2m1 0h2m3 0h2m1 0h1m3 0h1m2 0h1m3 0h1m1 0h1m2 0h2m3 0h1m1 0h3m3 0h2m2 0h3M5 57.5h2m5 0h1m2 0h1m4 0h3m1 0h4m3 0h1m1 0h2m6 0h1m5 0h1m1 0h1m1 0h1m2 0h2m1 0h2m2 0h2m2 0h3m1 0h1m3 0h1m1 0h2m6 0h1m4 0h2m1 0h1M5 58.5h2m1 0h6m1 0h1m4 0h1m1 0h1m2 0h1m3 0h1m1 0h6m1 0h1m3 0h1m1 0h2m3 0h1m1 0h4m1 0h1m1 0h7m1 0h2m1 0h4m1 0h3m1 0h1m3 0h7m1 0h1m1 0h1M4 59.5h2m1 0h2m3 0h4m4 0h1m3 0h2m1 0h2m3 0h1m3 0h2m2 0h1m2 0h1m3 0h5m1 0h2m2 0h2m3 0h4m1 0h1m1 0h3m1 0h1m2 0h1m1 0h2m4 0h1m3 0h5M4 60.5h1m1 0h1m1 0h1m1 0h1m1 0h1m2 0h1m2 0h1m2 0h2m1 0h1m2 0h1m1 0h1m1 0h2m1 0h1m1 0h1m1 0h1m2 0h3m1 0h1m5 0h3m3 0h2m1 0h1m1 0h5m3 0h1m1 0h1m2 0h1m2 0h1m1 0h3m1 0h1m1 0h1m1 0h1m1 0h1M4 61.5h2m1 0h2m3 0h1m3 0h2m3 0h3m1 0h2m5 0h1m3 0h3m1 0h1m1 0h3m2 0h2m2 0h2m4 0h2m3 0h1m8 0h1m2 0h1m1 0h2m1 0h2m2 0h2m3 0h4M7 62.5h8m2 0h1m5 0h1m1 0h1m2 0h1m1 0h7m2 0h1m1 0h1m2 0h3m2 0h2m1 0h2m1 0h1m1 0h9m3 0h1m1 0h1m2 0h1m2 0h1m3 0h1m1 0h7M6 63.5h1m2 0h1m5 0h1m2 0h1m1 0h5m3 0h1m2 0h1m3 0h2m1 0h1m1 0h2m4 0h1m4 0h2m2 0h2m1 0h2m1 0h2m1 0h2m2 0h3m2 0h2m2 0h3m1 0h2m3 0h1m4 0h2M7 64.5h1m2 0h1m2 0h4m3 0h5m3 0h1m1 0h1m3 0h4m5 0h1m2 0h1m1 0h3m1 0h3m1 0h2m1 0h1m1 0h1m2 0h2m3 0h1m1 0h3m2 0h2m1 0h1m2 0h3m2 0h3m1 0h1M6 65.5h2m1 0h1m1 0h1m1 0h2m3 0h5m1 0h3m1 0h1m5 0h3m2 0h6m4 0h1m1 0h1m8 0h4m4 0h1m3 0h3m1 0h1m1 0h2m1 0h1m1 0h2m3 0h1m2 0h1M4 66.5h1m3 0h1m1 0h2m1 0h1m2 0h1m1 0h1m2 0h2m3 0h1m3 0h3m3 0h4m1 0h1m1 0h1m6 0h2m6 0h4m3 0h1m1 0h2m2 0h2m1 0h3m2 0h1m1 0h3m1 0h1m1 0h1m1 0h1m1 0h1M4 67.5h1m1 0h3m2 0h1m1 0h1m1 0h2m1 0h3m5 0h1m1 0h1m6 0h1m1 0h5m1 0h1m2 0h4m1 0h3m1 0h1m1 0h2m3 0h2m1 0h2m1 0h1m4 0h5m1 0h1m1 0h1m2 0h2m1 0h2m2 0h1M4 68.5h2m1 0h1m1 0h4m1 0h2m1 0h1m4 0h2m11 0h2m2 0h1m3 0h2m1 0h2m2 0h3m1 0h1m1 0h1m11 0h2m1 0h2m1 0h1m1 0h1m5 0h2m1 0h2m1 0h4M13 69.5h1m3 0h1m2 0h1m2 0h1m1 0h1m7 0h1m1 0h1m1 0h1m1 0h3m1 0h4m1 0h2m1 0h2m1 0h1m1 0h1m1 0h2m1 0h12m4 0h3m1 0h1m1 0h1m1 0h6M7 70.5h1m1 0h3m3 0h1m1 0h1m4 0h1m1 0h1m3 0h2m4 0h1m1 0h1m1 0h1m2 0h1m1 0h2m1 0h3m1 0h2m2 0h1m3 0h3m2 0h2m2 0h1m2 0h1m1 0h3m2 0h3m3 0h5m2 0h3M4 71.5h5m3 0h3m1 0h2m1 0h1m1 0h2m1 0h1m2 0h1m5 0h1m1 0h1m6 0h3m2 0h1m1 0h2m1 0h1m8 0h1m4 0h3m1 0h2m1 0h1m3 0h2m3 0h1m9 0h1M5 72.5h2m2 0h2m1 0h1m1 0h1m1 0h1m1 0h1m1 0h1m1 0h1m2 0h1m2 0h1m1 0h2m5 0h1m2 0h4m5 0h5m5 0h1m2 0h1m1 0h2m1 0h2m1 0h1m1 0h1m2 0h1m4 0h1m1 0h1m1 0h2m1 0h1m3 0h1M4 73.5h1m3 0h2m2 0h3m6 0h1m1 0h1m2 0h1m4 0h2m1 0h1m4 0h2m1 0h2m4 0h1m2 0h4m1 0h1m1 0h1m3 0h1m1 0h1m1 0h1m2 0h2m1 0h1m1 0h1m6 0h1m3 0h2m1 0h1m1 0h2M7 74.5h1m1 0h3m1 0h3m1 0h1m1 0h2m1 0h1m5 0h1m3 0h2m1 0h1m6 0h1m1 0h2m3 0h1m3 0h2m1 0h3m2 0h2m3 0h1m1 0h4m11 0h6m1 0h2M4 75.5h1m1 0h3m3 0h1m1 0h1m3 0h1m3 0h3m1 0h1m2 0h2m1 0h2m4 0h1m1 0h1m1 0h2m1 0h3m1 0h1m1 0h2m2 0h1m2 0h2m2 0h3m1 0h1m5 0h1m1 0h3m1 0h1m2 0h3m3 0h3m1 0h2M4 76.5h1m1 0h3m1 0h2m1 0h2m1 0h1m1 0h2m5 0h2m4 0h1m1 0h3m1 0h1m1 0h1m1 0h1m3 0h2m1 0h2m1 0h3m1 0h3m1 0h3m1 0h1m2 0h4m2 0h2m1 0h1m1 0h1m3 0h2m1 0h5m1 0h1m1 0h1M4 77.5h4m1 0h1m3 0h1m1 0h2m2 0h4m6 0h1m4 0h2m1 0h4m4 0h1m3 0h2m2 0h3m1 0h1m1 0h1m2 0h4m2 0h2m2 0h1m1 0h4m2 0h2m1 0h2m3 0h1m1 0h3M5 78.5h1m1 0h1m2 0h2m2 0h5m3 0h2m1 0h4m1 0h2m1 0h1m1 0h1m1 0h1m1 0h4m2 0h2m1 0h6m3 0h2m1 0h2m4 0h2m2 0h4m1 0h4m3 0h1m1 0h2m1 0h1m2 0h1m1 0h1M9 79.5h1m1 0h2m1 0h1m1 0h2m2 0h4m1 0h1m2 0h3m1 0h2m3 0h1m1 0h1m2 0h1m2 0h2m1 0h1m3 0h1m3 0h2m1 0h1m1 0h2m4 0h3m2 0h3m2 0h3m3 0h1m1 0h1m1 0h1m3 0h2M4 80.5h1m3 0h3m3 0h1m1 0h2m2 0h2m2 0h3m4 0h1m1 0h5m1 0h1m2 0h3m5 0h1m4 0h1m1 0h2m1 0h2m1 0h2m1 0h1m1 0h2m7 0h1m3 0h1m2 0h1m1 0h3m1 0h1M4 81.5h1m4 0h1m1 0h2m1 0h1m1 0h2m2 0h1m2 0h1m1 0h1m2 0h1m1 0h1m1 0h3m1 0h1m4 0h1m1 0h1m1 0h2m4 0h1m2 0h1m2 0h2m1 0h1m1 0h3m1 0h3m2 0h5m1 0h1m2 0h1m3 0h2m2 0h2M4 82.5h1m2 0h1m2 0h1m2 0h4m2 0h1m2 0h3m1 0h1m2 0h1m4 0h1m3 0h1m1 0h1m1 0h3m1 0h1m2 0h2m2 0h4m1 0h4m1 0h2m3 0h5m2 0h3m2 0h3m1 0h2m2 0h5M4 83.5h2m2 0h2m1 0h2m1 0h2m1 0h1m3 0h3m1 0h1m1 0h2m1 0h1m2 0h3m4 0h7m1 0h3m5 0h1m2 0h1m1 0h1m6 0h1m1 0h1m1 0h1m2 0h3m1 0h2m2 0h1m2 0h4M4 84.5h1m2 0h1m2 0h1m2 0h4m1 0h2m1 0h2m2 0h12m4 0h1m3 0h2m2 0h1m5 0h10m1 0h4m2 0h2m2 0h2m1 0h1m1 0h1m1 0h7m1 0h1M12 85.5h5m2 0h2m1 0h1m3 0h2m3 0h2m3 0h4m1 0h1m1 0h2m2 0h2m4 0h3m2 0h1m3 0h1m1 0h1m1 0h4m1 0h3m3 0h4m1 0h3m3 0h2m1 0h1M4 86.5h7m1 0h1m1 0h2m1 0h2m1 0h1m1 0h2m1 0h2m2 0h1m2 0h1m1 0h1m1 0h5m1 0h1m1 0h6m1 0h3m2 0h3m1 0h1m1 0h4m3 0h1m1 0h5m1 0h1m3 0h1m1 0h2m1 0h1m1 0h3M4 87.5h1m5 0h1m2 0h1m1 0h2m2 0h1m3 0h1m2 0h1m1 0h5m3 0h1m2 0h3m2 0h1m1 0h3m1 0h2m2 0h1m1 0h3m3 0h1m3 0h1m1 0h1m1 0h3m4 0h2m2 0h2m1 0h1m3 0h2m1 0h2M4 88.5h1m1 0h3m1 0h1m1 0h1m2 0h1m1 0h1m5 0h1m1 0h2m1 0h2m1 0h7m1 0h1m4 0h3m2 0h1m2 0h2m4 0h5m3 0h3m1 0h1m2 0h4m1 0h2m2 0h1m1 0h5m1 0h1M4 89.5h1m1 0h3m1 0h1m1 0h1m3 0h2m3 0h1m1 0h3m4 0h2m1 0h2m4 0h1m2 0h2m1 0h4m5 0h2m1 0h1m1 0h4m1 0h1m1 0h1m4 0h2m3 0h2m3 0h2m3 0h1m3 0h2M4 90.5h1m1 0h3m1 0h1m1 0h2m2 0h1m1 0h1m5 0h1m1 0h2m1 0h1m1 0h2m1 0h1m1 0h1m1 0h2m1 0h1m1 0h4m1 0h2m1 0h1m3 0h2m1 0h1m1 0h3m1 0h2m1 0h1m2 0h1m1 0h3m2 0h1m2 0h1m1 0h1m1 0h3m1 0h1m2 0h1M4 91.5h1m5 0h1m1 0h2m3 0h5m3 0h1m1 0h1m1 0h3m3 0h1m3 0h1m3 0h1m1 0h2m4 0h2m2 0h1m4 0h1m5 0h1m4 0h3m2 0h2m3 0h5m1 0h1m1 0h1m1 0h1M4 92.5h7m1 0h2m1 0h1m1 0h7m2 0h1m2 0h2m7 0h2m4 0h1m1 0h2m2 0h1m1 0h1m1 0h1m1 0h1m1 0h2m1 0h2m3 0h1m1 0h2m2 0h2m1 0h1m1 0h1m1 0h2m2 0h1m3 0h1"/></svg>
