<svg xmlns="http://www.w3.org/2000/svg" viewBox="0 0 97 97" shape-rendering="crispEdges"><path fill="#ffffff" d="M0 0h97v97H0z"/><path stroke="#000000" d="M4 4.5h7m1 0h2m2 0h1m1 0h1m1 0h1m2 0h3m2 0h5m1 0h1m1 0h6m3 0h6m3 0h5m1 0h2m1 0h5m3 0h2m8 0h4m1 0h7M4 5.5h1m5 0h1m1 0h2m2 0h1m1 0h2m1 0h1m4 0h1m1 0h1m1 0h2m2 0h4m4 0h5m3 0h1m2 0h1m3 0h3m2 0h1m1 0h2m1 0h1m1 0h1m4 0h1m3 0h3m2 0h1m2 0h1m5 0h1M4 6.5h1m1 0h3m1 0h1m1 0h1m4 0h2m4 0h1m1 0h3m1 0h2m1 0h1m2 0h1m1 0h2m3 0h1m2 0h1m1 0h1m4 0h6m3 0h3m1 0h1m1 0h1m1 0h1m2 0h1m2 0h2m1 0h2m6 0h1m1 0h3m1 0h1M4 7.5h1m1 0h3m1 0h1m1 0h1m1 0h4m2 0h3m2 0h1m5 0h1m1 0h1m1 0h2m1 0h1m1 0h2m2 0h6m3 0h3m1 0h1m2 0h1m2 0h1m3 0h3m3 0h3m1 0h2m2 0h2m1 0h1m1 0h1m1 0h3m1 0h1M4 8.5h1m1 0h3m1 0h1m2 0h1m3 0h2m2 0h3m3 0h2m1 0h1m1 0h5m5 0h1m1 0h4m5 0h2m2 0h6m1 0h1m4 0h3m1 0h1m5 0h3m1 0h1m2 0h1m1 0h3m1 0h1M4 9.5h1m5 0h1m1 0h1m1 0h3m3 0h2m2 0h9m3 0h2m2 0h2m1 0h2m1 0h1m2 0h1m1 0h1m1 0h2m1 0h1m1 0h1m3 0h1m3 0h2m3 0h2m2 0h3m3 0h1m1 0h1m2 0h1m5 0h1M4 10.5h7m1 0h1m1 0h1m1 0h1m1 0h1m1 0h1m1 0h1m1 0h1m1 0h1m1 0h1m1 0h1m1 0h1m1 0h1m1 0h1m1 0h1m1 0h1m1 0h1m1 0h1m1 0h1m1 0h1m1 0h1m1 0h1m1 0h1m1 0h1m1 0h1m1 0h1m1 0h1m1 0h1m1 0h1m1 0h1m1 0h1m1 0h1m1 0h1m1 0h1m1 0h1m1 0h1m1 0h1m1 0h1m1 0h7M13 11.5h2m1 0h2m4 0h1m1 0h2m1 0h3m2 0h1m3 0h2m1 0h2m3 0h1m4 0h2m2 0h6m3 0h4m1 0h1m2 0h1m1 0h3m1 0h3m2 0h1M4 12.5h2m2 0h3m4 0h1m2 0h1m1 0h1m2 0h1m2 0h1m4 0h8m2 0h1m6 0h1m2 0h1m2 0h1m1 0h1m1 0h6m1 0h2m3 0h1m2 0h2m2 0h2m1 0h1m2 0h2m2 0h1m1 0h4M7 13.5h1m7 0h2m1 0h3m2 0h5m2 0h1m1 0h1m2 0h3m2 0h1m1 0h1m1 0h4m1 0h5m1 0h4m2 0h1m2 0h1m2 0h1m1 0h2m2 0h1m1 0h3m3 0h2m2 0h2m3 0h2M4 14.5h2m1 0h4m2 0h2m1 0h1m2 0h1m1 0h2m2 0h5m2 0h5m1 0h1m1 0h1m1 0h1m2 0h2m1 0h1m3 0h1m2 0h7m1 0h1m1 0h1m3 0h2m2 0h2m1 0h2m3 0h3m1 0h1m3 0h1M4 15.5h5m2 0h2m3 0h1m3 0h1m2 0h1m2 0h2m1 0h3m1 0h1m1 0h1m1 0h1m1 0h1m2 0h1m2 0h1m2 0h2m3 0h2m1 0h1m1 0h2m3 0h3m1 0h2m1 0h1m2 0h2m4 0h1m5 0h8M4 16.5h4m2 0h3m1 0h1m2 0h1m1 0h2m1 0h1m7 0h2m1 0h2m1 0h1m1 0h4m1 0h1m1 0h5m1 0h1m1 0h7m1 0h1m2 0h1m1 0h2m2 0h1m4 0h1m1 0h2m2 0h1m1 0h5m2 0h1m1 0h1M4 17.5h2m1 0h1m3 0h1m3 0h1m2 0h2m2 0h1m4 0h1m1 0h1m1 0h3m1 0h2m1 0h2m1 0h1m3 0h4m1 0h1m2 0h1m2 0h3m6 0h4m2 0h1m1 0h2m7 0h2m2 0h1m5 0h1M4 18.5h1m1 0h3m1 0h2m1 0h1m4 0h1m4 0h6m2 0h5m1 0h1m2 0h1m12 0h1m1 0h3m2 0h1m1 0h4m3 0h1m2 0h7m1 0h2m1 0h2m1 0h2m4 0h1M4 19.5h5m4 0h2m6 0h2m3 0h1m4 0h1m8 0h2m3 0h1m1 0h4m3 0h2m1 0h3m1 0h1m1 0h2m1 0h2m2 0h1m2 0h1m1 0h3m1 0h1m1 0h3m1 0h4m1 0h1M4 20.5h1m3 0h3m3 0h1m3 0h1m1 0h1m1 0h1m1 0h1m3 0h1m1 0h1m3 0h4m3 0h1m4 0h7m1 0h2m2 0h2m2 0h1m5 0h3m2 0h1m2 0h2m2 0h1m2 0h2m1 0h1m2 0h1M4 21.5h4m5 0h4m2 0h1m1 0h2m1 0h3m1 0h3m3 0h3m2 0h2m1 0h1m5 0h1m1 0h1m2 0h1m2 0h1m4 0h6m1 0h1m1 0h2m1 0h1m3 0h3m4 0h2m4 0h1M6 22.5h1m2 0h6m1 0h2m2 0h1m1 0h1m2 0h1m3 0h2m3 0h2m5 0h1m2 0h1m2 0h1m2 0h2m1 0h1m1 0h1m3 0h4m2 0h1m5 0h3m3 0h2m1 0h2m4 0h1m4 0h1M4 23.5h1m1 0h3m2 0h2m1 0h1m1 0h3m1 0h3m2 0h3m5 0h2m3 0h2m2 0h3m1 0h1m3 0h4m1 0h1m1 0h2m1 0h4m2 0h6m1 0h1m4 0h1m1 0h2m2 0h1m1 0h1m1 0h3M4 24.5h4m2 0h1m1 0h1m4 0h1m3 0h1m1 0h1m5 0h1m1 0h3m1 0h2m2 0h1m2 0h1m4 0h2m1 0h2m1 0h1m1 0h4m1 0h1m1 0h1m4 0h4m1 0h3m3 0h2m1 0h2m3 0h3M4 25.5h1m2 0h2m2 0h1m5 0h4m1 0h2m3 0h3m4 0h4m5 0h1m1 0h2m2 0h6m3 0h2m2 0h1m2 0h1m1 0h1m1 0h1m1 0h3m1 0h3m5 0h1m2 0h2m1 0h4M7 26.5h1m1 0h3m1 0h11m2 0h1m1 0h1m3 0h7m1 0h1m6 0h1m3 0h1m3 0h1m4 0h1m3 0h1m3 0h1m3 0h1m4 0h1m1 0h2m1 0h3m1 0h2m2 0h2M5 27.5h3m3 0h2m2 0h3m2 0h1m4 0h1m7 0h2m2 0h2m2 0h1m4 0h1m1 0h2m2 0h6m2 0h2m1 0h1m3 0h2m4 0h1m3 0h1m2 0h2m2 0h1m1 0h2m3 0h2M4 28.5h2m1 0h2m1 0h1m1 0h1m2 0h3m3 0h3m2 0h1m1 0h1m2 0h1m1 0h4m2 0h1m2 0h1m1 0h2m4 0h1m1 0h2m11 0h2m2 0h3m1 0h1m1 0h2m2 0h1m1 0h7m1 0h1m2 0h1M4 29.5h1m1 0h2m4 0h1m1 0h1m1 0h1m4 0h2m1 0h1m1 0h3m1 0h5m3 0h1m1 0h5m1 0h3m4 0h3m1 0h2m3 0h1m1 0h3m1 0h1m3 0h3m4 0h1m2 0h2m1 0h1m3 0h1m1 0h2M5 30.5h1m1 0h2m1 0h4m3 0h1m4 0h3m3 0h1m6 0h2m2 0h3m1 0h2m2 0h1m1 0h2m1 0h2m3 0h1m2 0h2m1 0h1m2 0h1m3 0h4m2 0h1m1 0h1m1 0h1m10 0h2M5 31.5h1m2 0h2m1 0h2m2 0h3m4 0h3m2 0h1m3 0h4m1 0h1m2 0h3m1 0h5m1 0h1m1 0h2m3 0h1m2 0h4m1 0h1m2 0h2m4 0h1m3 0h1m1 0h1m1 0h1m1 0h3m3 0h1m1 0h2M5 32.5h10m3 0h3m1 0h4m1 0h1m2 0h1m1 0h5m1 0h2m2 0h3m2 0h1m1 0h2m3 0h1m1 0h11m5 0h2m2 0h1m1 0h1m2 0h9m1 0h1M8 33.5h1m3 0h1m1 0h1m2 0h1m1 0h2m2 0h1m2 0h2m3 0h2m3 0h6m1 0h4m1 0h1m1 0h2m1 0h1m2 0h1m1 0h1m3 0h1m2 0h3m3 0h1m5 0h1m2 0h1m2 0h2m3 0h1m2 0h2M6 34.5h1m1 0h1m1 0h1m1 0h1m1 0h1m1 0h2m3 0h1m4 0h2m4 0h1m1 0h1m1 0h6m1 0h1m1 0h1m4 0h2m2 0h1m1 0h3m1 0h1m1 0h2m2 0h3m5 0h2m2 0h5m1 0h1m1 0h1m1 0h1M4 35.5h1m1 0h3m3 0h2m1 0h1m1 0h3m2 0h1m1 0h1m4 0h4m3 0h3m2 0h1m1 0h1m3 0h2m2 0h3m1 0h4m3 0h1m1 0h1m2 0h2m1 0h1m2 0h4m2 0h1m1 0h1m2 0h1m3 0h1m1 0h3M6 36.5h1m1 0h7m1 0h8m4 0h1m1 0h8m2 0h3m1 0h4m2 0h2m2 0h1m1 0h1m1 0h7m1 0h1m3 0h2m5 0h3m2 0h1m1 0h5m1 0h2M5 37.5h5m3 0h2m3 0h8m1 0h1m1 0h1m1 0h2m2 0h1m2 0h2m1 0h1m1 0h2m2 0h2m1 0h1m2 0h2m1 0h4m2 0h2m3 0h1m3 0h4m2 0h3m1 0h1m3 0h2m3 0h2M4 38.5h1m2 0h2m1 0h2m2 0h1m1 0h1m2 0h1m1 0h3m10 0h1m1 0h5m2 0h1m6 0h2m2 0h1m1 0h1m1 0h1m6 0h2m2 0h1m2 0h2m4 0h3m2 0h2m2 0h4m1 0h1M4 39.5h1m2 0h1m4 0h3m1 0h2m1 0h3m1 0h2m2 0h2m2 0h2m2 0h1m1 0h1m6 0h2m1 0h3m1 0h2m2 0h1m1 0h11m4 0h2m1 0h1m5 0h1m4 0h2m2 0h1m1 0h1M4 40.5h1m1 0h2m1 0h4m2 0h2m4 0h1m1 0h1m2 0h2m1 0h1m1 0h1m1 0h3m2 0h1m2 0h2m3 0h3m6 0h2m1 0h1m4 0h3m1 0h2m2 0h2m1 0h1m1 0h1m1 0h1m1 0h1m5 0h1m1 0h1m2 0h1M5 41.5h1m7 0h1m1 0h1m2 0h2m3 0h1m1 0h1m1 0h4m1 0h2m1 0h1m2 0h1m2 0h4m1 0h2m2 0h1m1 0h2m2 0h3m2 0h2m3 0h1m1 0h2m2 0h1m1 0h1m1 0h2m5 0h2m1 0h1m2 0h4M5 42.5h2m1 0h1m1 0h2m1 0h1m1 0h1m1 0h2m2 0h1m1 0h1m1 0h3m2 0h1m1 0h1m1 0h2m1 0h1m5 0h2m3 0h3m1 0h2m1 0h1m1 0h1m1 0h2m3 0h4m2 0h3m1 0h1m3 0h1m2 0h1m2 0h1m3 0h1m1 0h1m1 0h1M4 43.5h1m1 0h4m2 0h2m1 0h1m2 0h1m1 0h1m2 0h1m1 0h3m1 0h1m1 0h1m1 0h2m1 0h1m1 0h2m1 0h3m2 0h4m1 0h1m1 0h1m1 0h4m2 0h1m1 0h1m1 0h1m2 0h3m4 0h5m1 0h3m1 0h2m1 0h1m3 0h1M10 44.5h3m6 0h2m1 0h1m3 0h3m5 0h2m1 0h1m1 0h1m1 0h1m1 0h1m2 0h2m1 0h1m2 0h1m1 0h2m6 0h1m1 0h1m1 0h2m5 0h1m1 0h1m2 0h1m2 0h1m1 0h4m1 0h1m1 0h2M7 45.5h1m3 0h2m1 0h1m1 0h1m1 0h4m1 0h1m1 0h5m1 0h7m3 0h2m1 0h5m1 0h2m2 0h4m2 0h1m1 0h5m2 0h1m3 0h1m3 0h3m3 0h1m1 0h1m1 0h1m3 0h2M4 46.5h1m2 0h1m2 0h3m1 0h4m1 0h1m1 0h1m3 0h4m2 0h1m1 0h1m1 0h2m1 0h1m2 0h1m1 0h1m1 0h1m5 0h3m1 0h1m1 0h1m4 0h2m3 0h2m2 0h1m2 0h2m2 0h1m1 0h2m4 0h1m3 0h1M5 47.5h3m1 0h1m1 0h1m3 0h1m1 0h1m1 0h1m1 0h1m2 0h1m2 0h4m2 0h1m2 0h1m1 0h1m4 0h2m2 0h1m1 0h1m3 0h6m2 0h3m3 0h3m3 0h2m1 0h1m8 0h2m4 0h1M5 48.5h1m1 0h1m2 0h3m3 0h1m3 0h1m1 0h1m1 0h3m1 0h1m1 0h1m2 0h2m2 0h2m1 0h3m1 0h1m1 0h1m2 0h1m3 0h1m2 0h5m4 0h2m5 0h1m2 0h2m1 0h1m5 0h2m1 0h2m1 0h1m1 0h1M5 49.5h2m2 0h1m1 0h1m6 0h1m1 0h2m2 0h2m3 0h3m1 0h1m1 0h1m1 0h4m3 0h3m1 0h1m4 0h1m3 0h1m2 0h1m2 0h2m4 0h1m1 0h1m4 0h2m1 0h1m1 0h1m1 0h4m2 0h1M8 50.5h6m1 0h1m1 0h4m1 0h1m1 0h1m1 0h2m2 0h2m2 0h2m1 0h1m1 0h1m1 0h6m5 0h1m1 0h6m1 0h4m2 0h1m4 0h1m4 0h2m1 0h1m2 0h1m5 0h1M5 51.5h1m2 0h2m1 0h1m1 0h1m1 0h2m2 0h3m5 0h4m1 0h2m2 0h1m1 0h1m1 0h1m1 0h4m4 0h3m1 0h1m1 0h2m3 0h3m5 0h1m3 0h2m1 0h5m2 0h3m3 0h1m2 0h1M4 52.5h2m1 0h1m1 0h2m1 0h1m1 0h1m1 0h2m3 0h3m1 0h3m1 0h1m2 0h3m1 0h1m3 0h3m1 0h2m5 0h3m2 0h3m2 0h1m1 0h3m1 0h1m1 0h1m1 0h2m1 0h4m1 0h1m2 0h1m1 0h6m1 0h1M4 53.5h1m4 0h1m3 0h2m1 0h1m1 0h1m1 0h1m1 0h3m4 0h1m2 0h1m1 0h1m1 0h3m1 0h5m1 0h1m5 0h2m1 0h1m3 0h3m1 0h1m2 0h3m1 0h1m3 0h2m1 0h2m4 0h1m2 0h5M5 54.5h1m4 0h1m1 0h1m6 0h3m3 0h1m2 0h1m1 0h3m2 0h1m1 0h1m1 0h1m1 0h1m1 0h1m1 0h1m3 0h1m1 0h2m1 0h2m2 0h1m2 0h2m1 0h1m1 0h2m1 0h2m1 0h1m1 0h3m2 0h2m1 0h2m1 0h1m1 0h1m1 0h3M5 55.5h2m1 0h1m3 0h6m1 0h1m1 0h1m1 0h1m1 0h2m3 0h1m2 0h3m1 0h2m1 0h2m1 0h2m2 0h1m3 0h1m3 0h2m2 0h4m3 0h2m3 0h1m4 0h2m1 0h1m1 0h1m2 0h1m1 0h1m1 0h1m3 0h1M10 56.5h5m1 0h1m1 0h1m1 0h2m1 0h1m2 0h1m3 0h2m1 0h2m2 0h1m4 0h1m3 0h1m6 0h1m1 0h9m2 0h1m3 0h3m2 0h1m2 0h2m3 0h1m3 0h1m4 0h1M6 57.5h3m2 0h1m1 0h1m4 0h2m1 0h1m2 0h1m14 0h2m3 0h4m1 0h1m1 0h4m3 0h2m1 0h1m1 0h1m1 0h2m1 0h1m1 0h1m1 0h1m1 0h1m1 0h1m4 0h1m2 0h2m1 0h2M4 58.5h1m2 0h6m1 0h2m1 0h3m2 0h3m3 0h1m1 0h7m1 0h5m3 0h1m2 0h1m6 0h1m1 0h5m2 0h1m1 0h3m4 0h2m1 0h1m2 0h1m2 0h6m2 0h1M5 59.5h1m1 0h2m3 0h3m1 0h2m1 0h1m1 0h1m1 0h4m1 0h5m3 0h3m1 0h1m1 0h3m2 0h1m1 0h1m6 0h1m1 0h1m3 0h1m1 0h1m1 0h3m1 0h1m1 0h3m3 0h4m1 0h2m3 0h2m2 0h1M4 60.5h1m1 0h1m1 0h1m1 0h1m1 0h4m1 0h1m3 0h1m2 0h4m1 0h2m1 0h1m1 0h1m1 0h4m2 0h1m4 0h3m2 0h1m1 0h2m2 0h1m1 0h1m1 0h1m2 0h1m1 0h1m1 0h1m3 0h1m1 0h3m1 0h6m1 0h1m1 0h2m1 0h2M5 61.5h1m2 0h1m3 0h1m2 0h1m4 0h3m2 0h1m1 0h6m3 0h1m1 0h4m2 0h1m2 0h1m1 0h1m1 0h1m2 0h2m1 0h2m3 0h3m2 0h1m1 0h1m3 0h2m1 0h1m1 0h1m1 0h1m3 0h1m3 0h1m2 0h2M4 62.5h1m1 0h1m1 0h5m2 0h2m1 0h1m2 0h2m2 0h2m2 0h2m1 0h5m1 0h4m4 0h1m2 0h1m2 0h2m1 0h2m1 0h5m1 0h2m2 0h2m2 0h1m7 0h1m2 0h7m1 0h2M6 63.5h3m4 0h2m1 0h1m1 0h1m2 0h1m4 0h1m2 0h3m1 0h1m1 0h3m1 0h1m1 0h2m1 0h1m2 0h1m2 0h5m2 0h2m2 0h2m2 0h1m2 0h1m1 0h1m2 0h1m3 0h1m2 0h2m1 0h2m2 0h1m3 0h2M5 64.5h6m3 0h1m1 0h1m1 0h1m2 0h5m1 0h2m1 0h1m5 0h1m2 0h1m1 0h1m1 0h2m2 0h3m3 0h2m1 0h1m1 0h1m2 0h1m1 0h10m1 0h3m2 0h1m1 0h2m2 0h1m1 0h2m1 0h3M9 65.5h1m3 0h1m1 0h6m1 0h1m3 0h2m1 0h1m2 0h1m2 0h3m5 0h1m1 0h4m1 0h2m2 0h1m2 0h3m1 0h2m1 0h3m1 0h4m1 0h1m2 0h2m2 0h2m3 0h1m1 0h1m2 0h1M4 66.5h2m1 0h1m2 0h1m3 0h1m3 0h3m2 0h3m3 0h1m7 0h2m1 0h1m2 0h3m2 0h1m2 0h2m2 0h1m1 0h1m3 0h1m2 0h1m3 0h2m3 0h3m2 0h2m3 0h1m1 0h2m1 0h5M5 67.5h1m1 0h2m3 0h1m2 0h1m5 0h5m1 0h1m4 0h1m5 0h1m2 0h1m4 0h1m1 0h1m1 0h1m2 0h1m1 0h1m1 0h5m2 0h4m2 0h5m2 0h1m1 0h3m2 0h1m4 0h1m1 0h2M5 68.5h1m3 0h2m1 0h1m1 0h2m2 0h2m2 0h5m1 0h4m3 0h2m1 0h2m1 0h2m4 0h1m2 0h4m2 0h2m4 0h1m2 0h2m3 0h2m1 0h2m1 0h4m2 0h1m2 0h1m2 0h3M4 69.5h1m1 0h2m1 0h1m1 0h1m3 0h2m1 0h2m1 0h4m1 0h1m2 0h2m2 0h1m3 0h1m1 0h2m1 0h1m3 0h2m1 0h1m1 0h3m1 0h3m1 0h1m3 0h2m3 0h2m2 0h2m6 0h1m3 0h2m1 0h2m2 0h2M4 70.5h3m3 0h1m1 0h1m1 0h2m1 0h7m1 0h1m2 0h1m4 0h2m1 0h2m1 0h3m4 0h1m3 0h1m1 0h1m1 0h1m3 0h1m2 0h2m1 0h1m3 0h2m1 0h1m1 0h6m2 0h1m4 0h1m1 0h4M4 71.5h1m1 0h2m4 0h2m6 0h1m1 0h3m6 0h2m2 0h1m2 0h2m3 0h2m5 0h2m1 0h1m3 0h1m2 0h1m5 0h1m1 0h1m1 0h1m2 0h2m1 0h1m1 0h4m1 0h1m1 0h1m1 0h2m1 0h1M5 72.5h1m1 0h1m2 0h1m1 0h2m2 0h3m2 0h2m1 0h3m2 0h1m2 0h1m2 0h5m2 0h2m1 0h1m3 0h1m4 0h2m5 0h2m2 0h1m1 0h2m1 0h1m1 0h1m1 0h1m3 0h2m1 0h1m2 0h1m2 0h3m1 0h1M5 73.5h1m1 0h1m1 0h1m1 0h2m2 0h4m4 0h1m1 0h6m4 0h4m2 0h1m1 0h5m1 0h1m2 0h3m3 0h5m1 0h2m4 0h1m1 0h4m1 0h2m3 0h1m1 0h1m1 0h1m1 0h2m1 0h2M9 74.5h2m2 0h2m1 0h3m1 0h3m3 0h1m1 0h1m2 0h2m2 0h1m1 0h1m2 0h1m3 0h2m1 0h1m1 0h2m2 0h4m2 0h1m1 0h1m1 0h2m8 0h1m2 0h1m1 0h1m2 0h1m1 0h2m1 0h3M4 75.5h1m2 0h1m5 0h4m1 0h1m1 0h1m2 0h1m2 0h1m2 0h1m1 0h1m5 0h2m1 0h1m1 0h3m2 0h1m1 0h1m1 0h1m3 0h3m1 0h1m4 0h7m1 0h2m1 0h2m2 0h2m2 0h1m1 0h5m2 0h1M5 76.5h1m1 0h1m1 0h2m2 0h1m2 0h6m2 0h4m1 0h2m1 0h3m1 0h3m2 0h2m1 0h4m1 0h1m1 0h1m1 0h2m1 0h2m6 0h6m1 0h1m1 0h1m3 0h2m2 0h3m3 0h2m1 0h3M4 77.5h1m8 0h1m2 0h3m1 0h1m2 0h2m3 0h2m3 0h4m1 0h1m1 0h6m1 0h3m2 0h3m1 0h1m1 0h1m1 0h1m1 0h2m5 0h1m1 0h1m1 0h2m1 0h1m2 0h1m1 0h1m1 0h4m1 0h2m1 0h2M4 78.5h4m2 0h1m3 0h1m1 0h2m5 0h1m2 0h1m4 0h2m2 0h1m2 0h1m1 0h2m1 0h1m4 0h6m1 0h2m1 0h1m1 0h5m4 0h1m1 0h2m1 0h4m1 0h3m2 0h1m1 0h1m1 0h1m1 0h1m1 0h1M4 79.5h2m1 0h1m1 0h1m1 0h1m1 0h4m1 0h1m1 0h1m2 0h2m4 0h1m1 0h4m1 0h1m3 0h4m1 0h1m2 0h1m2 0h4m1 0h3m3 0h3m1 0h5m1 0h1m1 0h1m1 0h1m2 0h4m2 0h1m2 0h1m2 0h1M4 80.5h2m2 0h1m1 0h2m1 0h2m3 0h1m4 0h3m3 0h1m3 0h1m2 0h1m1 0h2m1 0h1m2 0h1m1 0h3m2 0h1m1 0h3m2 0h1m6 0h1m5 0h1m1 0h1m3 0h3m4 0h2m1 0h1m1 0h1M4 81.5h2m3 0h1m2 0h2m2 0h2m3 0h3m2 0h1m2 0h1m1 0h1m3 0h1m1 0h2m2 0h3m3 0h3m2 0h5m1 0h1m2 0h1m1 0h2m3 0h1m1 0h5m1 0h3m1 0h1m1 0h6m1 0h3M4 82.5h1m2 0h1m2 0h2m1 0h2m1 0h1m2 0h1m1 0h1m3 0h3m1 0h1m2 0h1m1 0h2m1 0h3m1 0h1m3 0h3m1 0h2m2 0h1m1 0h4m1 0h1m4 0h3m1 0h4m2 0h2m2 0h1m3 0h1m1 0h1m1 0h4m1 0h1M4 83.5h2m2 0h2m3 0h6m5 0h1m8 0h1m1 0h1m2 0h1m1 0h4m4 0h2m3 0h1m3 0h5m4 0h1m2 0h1m1 0h1m4 0h2m1 0h1m1 0h3m1 0h3m2 0h3M4 84.5h1m2 0h1m2 0h1m1 0h1m2 0h1m1 0h1m1 0h1m1 0h3m1 0h1m2 0h3m1 0h6m1 0h5m3 0h1m4 0h2m2 0h1m1 0h5m1 0h2m2 0h1m2 0h2m2 0h2m1 0h1m5 0h5m1 0h1m1 0h1M12 85.5h1m1 0h1m1 0h1m2 0h1m1 0h2m2 0h2m1 0h5m3 0h1m1 0h1m1 0h1m1 0h1m1 0h2m1 0h1m1 0h1m8 0h1m3 0h2m4 0h3m5 0h1m1 0h1m1 0h1m3 0h1m3 0h3m1 0h1M4 86.5h7m4 0h2m3 0h3m2 0h1m1 0h2m1 0h1m1 0h1m1 0h1m1 0h2m2 0h2m3 0h3m1 0h3m5 0h2m1 0h1m1 0h1m1 0h3m3 0h1m2 0h1m7 0h1m2 0h1m1 0h1m1 0h2m1 0h2M4 87.5h1m5 0h1m1 0h4m1 0h1m1 0h1m2 0h1m2 0h3m4 0h1m3 0h2m1 0h1m4 0h1m3 0h2m4 0h5m3 0h3m2 0h1m3 0h2m1 0h2m1 0h1m1 0h2m2 0h2m3 0h2m2 0h1M4 88.5h1m1 0h3m1 0h1m1 0h2m4 0h6m2 0h1m1 0h2m1 0h8m1 0h1m1 0h3m3 0h2m5 0h1m1 0h6m4 0h1m1 0h1m2 0h2m1 0h2m1 0h1m2 0h1m2 0h7m1 0h1M4 89.5h1m1 0h3m1 0h1m3 0h2m1 0h2m1 0h2m2 0h1m1 0h1m2 0h2m1 0h2m2 0h1m1 0h1m2 0h3m1 0h2m2 0h2m1 0h1m1 0h2m1 0h3m1 0h2m2 0h1m2 0h1m2 0h3m1 0h1m4 0h1m2 0h2m1 0h3M4 90.5h1m1 0h3m1 0h1m2 0h1m4 0h1m2 0h1m1 0h2m3 0h1m1 0h1m1 0h2m4 0h1m2 0h1m2 0h1m1 0h2m1 0h1m1 0h1m1 0h5m1 0h2m1 0h2m8 0h1m1 0h3m1 0h2m1 0h2m4 0h2m1 0h3M4 91.5h1m5 0h1m1 0h1m2 0h2m1 0h2m1 0h2m3 0h1m7 0h3m1 0h1m1 0h1m2 0h3m9 0h1m1 0h1m2 0h5m1 0h3m1 0h1m2 0h3m1 0h2m4 0h4m2 0h4M4 92.5h7m1 0h5m1 0h3m3 0h5m1 0h1m7 0h2m1 0h2m2 0h2m2 0h1m2 0h2m2 0h3m1 0h2m3 0h1m1 0h1m2 0h1m3 0h2m2 0h2m2 0h1m1 0h2m1 0h1m1 0h3"/></svg>
