<svg xmlns="http://www.w3.org/2000/svg" viewBox="0 0 109 109" shape-rendering="crispEdges"><path fill="#ffffff" d="M0 0h109v109H0z"/><path stroke="#000000" d="M4 4.5h7m2 0h5m2 0h2m3 0h2m6 0h5m1 0h5m1 0h4m2 0h1m2 0h1m2 0h1m2 0h2m1 0h1m3 0h2m3 0h2m1 0h3m1 0h3m3 0h1m2 0h1m5 0h2m2 0h7M4 5.5h1m5 0h1m1 0h1m1 0h3m1 0h1m1 0h1m1 0h1m1 0h1m2 0h1m1 0h1m2 0h2m4 0h2m2 0h4m3 0h1m2 0h1m1 0h2m1 0h4m1 0h1m1 0h1m5 0h1m2 0h3m1 0h1m2 0h1m2 0h4m1 0h1m9 0h1m5 0h1M4 6.5h1m1 0h3m1 0h1m1 0h3m1 0h1m1 0h5m1 0h1m1 0h1m1 0h1m1 0h2m1 0h2m1 0h1m1 0h1m2 0h1m3 0h3m1 0h5m1 0h1m1 0h1m1 0h2m1 0h1m3 0h4m1 0h3m1 0h1m3 0h2m1 0h1m1 0h2m1 0h1m2 0h2m1 0h1m1 0h1m2 0h1m1 0h3m1 0h1M4 7.5h1m1 0h3m1 0h1m1 0h1m1 0h6m3 0h2m2 0h1m2 0h2m1 0h3m1 0h1m1 0h2m5 0h1m1 0h6m1 0h2m3 0h3m1 0h3m2 0h1m2 0h4m1 0h1m1 0h1m2 0h2m1 0h5m1 0h1m1 0h3m2 0h1m1 0h3m1 0h1M4 8.5h1m1 0h3m1 0h1m4 0h1m1 0h2m2 0h2m1 0h2m3 0h6m4 0h2m2 0h1m2 0h1m2 0h1m2 0h5m1 0h2m1 0h3m1 0h1m1 0h1m1 0h1m1 0h1m2 0h6m3 0h4m2 0h1m4 0h1m1 0h1m1 0h1m1 0h3m1 0h1M4 9.5h1m5 0h1m7 0h2m7 0h1m1 0h2m3 0h2m3 0h1m2 0h4m2 0h2m1 0h2m3 0h1m1 0h3m2 0h2m2 0h1m1 0h2m3 0h1m3 0h2m1 0h1m1 0h3m2 0h6m1 0h1m2 0h1m5 0h1M4 10.5h7m1 0h1m1 0h1m1 0h1m1 0h1m1 0h1m1 0h1m1 0h1m1 0h1m1 0h1m1 0h1m1 0h1m1 0h1m1 0h1m1 0h1m1 0h1m1 0h1m1 0h1m1 0h1m1 0h1m1 0h1m1 0h1m1 0h1m1 0h1m1 0h1m1 0h1m1 0h1m1 0h1m1 0h1m1 0h1m1 0h1m1 0h1m1 0h1m1 0h1m1 0h1m1 0h1m1 0h1m1 0h1m1 0h1m1 0h1m1 0h1m1 0h1m1 0h1m1 0h1m1 0h7M12 11.5h2m1 0h1m2 0h1m1 0h1m1 0h2m2 0h3m1 0h1m3 0h1m2 0h1m1 0h1m2 0h1m1 0h1m3 0h2m2 0h1m3 0h3m2 0h2m1 0h1m5 0h5m3 0h1m2 0h2m3 0h2m2 0h2m1 0h1m1 0h1M4 12.5h1m5 0h1m1 0h2m1 0h3m4 0h1m2 0h4m1 0h5m1 0h1m2 0h4m2 0h4m3 0h5m1 0h1m5 0h2m1 0h2m1 0h10m6 0h2m2 0h3m4 0h2m2 0h3M4 13.5h3m1 0h2m2 0h4m1 0h2m1 0h2m1 0h3m2 0h1m1 0h4m1 0h1m1 0h2m1 0h2m2 0h1m2 0h2m2 0h1m1 0h3m3 0h3m1 0h1m1 0h4m2 0h2m1 0h1m3 0h1m2 0h4m1 0h1m1 0h1m2 0h4m2 0h1m5 0h2M5 14.5h6m2 0h5m2 0h1m2 0h3m3 0h1m1 0h1m2 0h2m1 0h1m1 0h1m1 0h1m2 0h3m2 0h1m1 0h5m1 0h3m2 0h1m1 0h1m6 0h5m4 0h1m1 0h1m3 0h1m4 0h3m2 0h2m1 0h1m2 0h2M8 15.5h1m3 0h1m2 0h4m3 0h4m5 0h2m3 0h2m1 0h1m1 0h1m1 0h1m2 0h2m3 0h1m1 0h7m1 0h1m1 0h3m1 0h1m2 0h1m2 0h1m2 0h1m2 0h4m1 0h4m1 0h2m2 0h3m2 0h1m3 0h1M6 16.5h1m1 0h1m1 0h1m2 0h3m2 0h4m1 0h1m4 0h1m2 0h1m2 0h1m2 0h5m2 0h1m3 0h2m1 0h4m5 0h2m4 0h2m1 0h1m1 0h3m2 0h4m1 0h3m1 0h2m2 0h1m1 0h1m2 0h1m2 0h3m1 0h1m1 0h2M4 17.5h4m1 0h1m3 0h1m1 0h1m1 0h1m1 0h1m1 0h2m1 0h1m1 0h1m1 0h1m1 0h3m1 0h10m1 0h1m3 0h2m1 0h3m2 0h3m1 0h1m1 0h2m1 0h1m1 0h4m1 0h1m1 0h2m2 0h2m3 0h7m3 0h1m1 0h2m1 0h1m1 0h2m1 0h1M4 18.5h1m2 0h1m2 0h1m2 0h1m1 0h1m1 0h1m1 0h3m2 0h3m1 0h2m1 0h2m2 0h1m1 0h2m2 0h3m1 0h3m2 0h1m8 0h1m2 0h1m1 0h2m1 0h1m2 0h1m2 0h3m1 0h3m2 0h5m2 0h1m3 0h1m7 0h1m1 0h1M5 19.5h4m3 0h1m3 0h2m1 0h4m1 0h3m2 0h5m1 0h2m2 0h1m5 0h4m1 0h1m3 0h1m1 0h3m1 0h2m1 0h2m1 0h8m1 0h4m5 0h1m2 0h5m5 0h2m1 0h1m2 0h1M4 20.5h3m2 0h3m4 0h3m1 0h2m1 0h3m2 0h2m1 0h3m2 0h1m3 0h1m1 0h2m3 0h1m1 0h2m1 0h2m1 0h2m1 0h1m1 0h1m1 0h1m1 0h1m1 0h2m3 0h3m3 0h3m2 0h2m3 0h1m1 0h5m1 0h4m1 0h5M4 21.5h3m4 0h5m1 0h1m3 0h1m2 0h2m1 0h6m1 0h1m1 0h4m6 0h5m1 0h2m1 0h1m2 0h3m2 0h1m3 0h1m3 0h2m1 0h1m2 0h3m1 0h2m1 0h2m1 0h1m1 0h2m1 0h1m1 0h4m3 0h2M4 22.5h1m2 0h1m1 0h3m1 0h1m1 0h1m2 0h1m4 0h3m1 0h3m1 0h2m3 0h2m1 0h3m1 0h1m1 0h1m1 0h1m1 0h1m3 0h2m1 0h1m1 0h1m2 0h1m1 0h1m2 0h2m2 0h2m3 0h1m1 0h1m1 0h1m1 0h3m1 0h1m9 0h2m2 0h1m1 0h1m2 0h1M4 23.5h1m3 0h2m1 0h1m1 0h1m1 0h4m2 0h2m1 0h2m1 0h2m1 0h1m1 0h1m2 0h1m1 0h1m1 0h2m1 0h1m2 0h1m1 0h1m1 0h3m1 0h2m2 0h2m1 0h2m1 0h2m3 0h1m1 0h2m5 0h1m2 0h2m2 0h1m1 0h2m6 0h2m2 0h6M5 24.5h1m2 0h4m2 0h4m2 0h1m4 0h1m2 0h1m1 0h1m4 0h1m1 0h2m1 0h1m2 0h1m1 0h1m1 0h4m2 0h4m3 0h1m3 0h2m2 0h4m1 0h1m2 0h4m1 0h3m1 0h6m1 0h1m1 0h1m1 0h3M4 25.5h1m1 0h4m7 0h1m1 0h1m4 0h2m1 0h1m2 0h1m1 0h1m2 0h1m1 0h1m2 0h3m1 0h1m4 0h2m1 0h6m4 0h3m1 0h2m1 0h2m3 0h2m2 0h2m1 0h1m1 0h6m1 0h1m1 0h2m1 0h1m1 0h2m1 0h2m1 0h2M4 26.5h1m2 0h1m1 0h2m4 0h2m2 0h6m4 0h1m2 0h1m2 0h1m2 0h1m2 0h2m1 0h2m3 0h2m1 0h2m3 0h1m2 0h1m2 0h2m3 0h3m1 0h2m3 0h1m1 0h1m1 0h3m3 0h2m1 0h1m3 0h1m3 0h1m1 0h2m1 0h1M5 27.5h1m2 0h2m1 0h1m5 0h1m3 0h1m2 0h1m2 0h2m1 0h1m1 0h3m2 0h3m1 0h1m3 0h1m1 0h1m1 0h1m1 0h3m1 0h1m2 0h2m1 0h1m2 0h1m1 0h1m2 0h2m1 0h3m2 0h1m1 0h1m1 0h2m1 0h2m1 0h1m3 0h1m1 0h1m2 0h2m2 0h1m3 0h1M4 28.5h2m3 0h7m2 0h1m1 0h6m4 0h1m3 0h3m1 0h7m2 0h2m2 0h2m3 0h1m1 0h1m3 0h2m3 0h6m2 0h2m2 0h1m2 0h1m2 0h2m6 0h4m2 0h4M4 29.5h1m1 0h1m1 0h2m2 0h1m2 0h1m1 0h2m1 0h2m1 0h1m3 0h1m1 0h1m2 0h1m2 0h1m1 0h1m1 0h2m1 0h1m1 0h3m1 0h1m1 0h2m2 0h1m1 0h3m1 0h1m1 0h1m2 0h1m3 0h1m3 0h2m4 0h1m1 0h1m1 0h2m3 0h1m1 0h1m1 0h1m2 0h1m2 0h3m1 0h1M5 30.5h1m2 0h7m1 0h1m3 0h2m4 0h9m1 0h3m2 0h1m1 0h1m1 0h2m1 0h2m2 0h5m2 0h1m1 0h3m1 0h1m1 0h3m1 0h8m2 0h1m1 0h1m3 0h5m1 0h2m1 0h5m1 0h1M5 31.5h1m2 0h1m3 0h3m1 0h1m1 0h1m2 0h1m2 0h1m2 0h2m1 0h1m3 0h4m2 0h1m2 0h1m3 0h2m1 0h1m1 0h1m3 0h1m1 0h2m2 0h1m1 0h3m3 0h1m1 0h3m3 0h1m2 0h2m2 0h4m1 0h1m1 0h1m1 0h1m1 0h1m3 0h3M4 32.5h5m1 0h1m1 0h1m1 0h1m1 0h5m5 0h5m1 0h1m1 0h1m1 0h1m1 0h1m3 0h4m1 0h4m1 0h1m1 0h1m1 0h1m2 0h1m1 0h1m1 0h3m1 0h3m1 0h1m2 0h1m1 0h1m1 0h2m2 0h2m1 0h3m2 0h2m4 0h1m1 0h1m1 0h2m1 0h2M4 33.5h1m2 0h2m3 0h2m2 0h5m1 0h1m3 0h3m1 0h1m3 0h3m6 0h2m3 0h3m1 0h1m3 0h1m1 0h1m5 0h3m6 0h2m3 0h1m1 0h1m2 0h2m1 0h5m2 0h2m1 0h1m3 0h1M5 34.5h2m1 0h5m2 0h2m1 0h1m1 0h3m3 0h9m1 0h3m1 0h1m1 0h1m1 0h1m3 0h1m1 0h7m1 0h1m1 0h1m4 0h2m1 0h3m1 0h8m1 0h2m1 0h4m5 0h1m2 0h5m2 0h2M9 35.5h1m2 0h1m1 0h1m4 0h2m1 0h2m1 0h2m2 0h1m3 0h1m1 0h1m2 0h1m2 0h1m2 0h1m1 0h3m1 0h2m1 0h1m1 0h2m1 0h1m2 0h5m2 0h1m1 0h1m1 0h4m2 0h1m3 0h3m3 0h2m1 0h1m1 0h4M4 36.5h1m1 0h1m3 0h4m3 0h1m4 0h1m1 0h3m3 0h1m2 0h2m2 0h2m1 0h2m1 0h3m1 0h1m2 0h1m3 0h2m3 0h1m2 0h5m4 0h1m1 0h1m1 0h6m2 0h1m4 0h1m2 0h1m1 0h1m2 0h1m4 0h1m1 0h1M5 37.5h1m1 0h3m1 0h2m1 0h1m1 0h2m2 0h1m5 0h1m1 0h1m2 0h2m1 0h1m1 0h1m1 0h1m1 0h1m1 0h2m1 0h5m2 0h5m1 0h1m2 0h1m2 0h1m1 0h4m1 0h1m1 0h1m1 0h1m1 0h1m1 0h2m2 0h2m3 0h1m1 0h2m1 0h1m1 0h1m3 0h1m4 0h1M5 38.5h3m1 0h7m1 0h1m4 0h1m1 0h9m2 0h2m2 0h1m1 0h1m1 0h1m1 0h3m1 0h1m4 0h2m1 0h2m1 0h1m4 0h1m5 0h1m1 0h1m2 0h2m1 0h5m1 0h3m2 0h9m1 0h1M5 39.5h5m1 0h2m1 0h3m2 0h1m1 0h3m1 0h1m2 0h1m4 0h2m4 0h2m2 0h3m2 0h2m1 0h1m1 0h3m2 0h2m1 0h1m4 0h2m2 0h1m3 0h1m6 0h1m1 0h1m1 0h2m2 0h1m2 0h4m1 0h1M4 40.5h7m1 0h3m1 0h2m2 0h1m2 0h1m1 0h8m1 0h1m3 0h1m1 0h2m1 0h1m5 0h1m5 0h4m1 0h3m1 0h4m2 0h2m3 0h1m1 0h2m4 0h3m1 0h2m2 0h1m1 0h3m1 0h1m1 0h1m3 0h1M5 41.5h2m1 0h2m1 0h3m1 0h1m1 0h1m1 0h1m7 0h3m1 0h1m2 0h1m5 0h1m1 0h3m2 0h1m1 0h3m1 0h1m1 0h3m2 0h1m2 0h1m2 0h2m2 0h4m1 0h1m2 0h2m2 0h2m1 0h2m1 0h1m5 0h2m1 0h1m3 0h2m1 0h1M10 42.5h3m3 0h1m3 0h3m1 0h1m1 0h2m3 0h2m3 0h1m1 0h2m2 0h6m1 0h1m1 0h1m1 0h1m2 0h5m2 0h3m4 0h1m1 0h1m1 0h1m2 0h1m3 0h1m1 0h1m1 0h1m2 0h1m1 0h1m1 0h1m1 0h3m4 0h1M5 43.5h2m1 0h2m2 0h2m4 0h2m1 0h1m2 0h2m1 0h1m4 0h1m3 0h3m1 0h2m1 0h1m4 0h1m6 0h1m1 0h3m1 0h5m4 0h1m7 0h1m2 0h2m1 0h5m1 0h3m1 0h2m2 0h2m2 0h3M5 44.5h1m1 0h2m1 0h1m1 0h3m1 0h1m5 0h1m2 0h1m2 0h1m6 0h1m2 0h3m1 0h1m4 0h1m1 0h2m1 0h4m3 0h2m7 0h3m1 0h2m1 0h2m2 0h1m1 0h1m1 0h1m3 0h1m2 0h1m8 0h1M4 45.5h1m3 0h1m3 0h2m3 0h2m1 0h1m3 0h2m1 0h2m4 0h1m1 0h4m2 0h1m3 0h2m2 0h1m4 0h5m3 0h1m1 0h2m1 0h4m3 0h3m2 0h1m3 0h4m1 0h1m2 0h3m2 0h2m1 0h2m1 0h2M6 46.5h1m1 0h1m1 0h3m1 0h1m2 0h3m1 0h2m2 0h5m1 0h3m2 0h1m2 0h1m1 0h1m2 0h6m2 0h6m1 0h3m2 0h1m1 0h1m1 0h1m3 0h4m3 0h3m1 0h2m1 0h3m1 0h3m1 0h1m1 0h1m2 0h3m1 0h2M6 47.5h1m4 0h1m1 0h1m2 0h1m1 0h2m1 0h2m2 0h1m3 0h2m1 0h1m3 0h1m3 0h2m2 0h1m4 0h3m2 0h2m2 0h2m1 0h1m1 0h4m2 0h1m2 0h1m7 0h4m4 0h4m1 0h1m1 0h4m1 0h2m1 0h1M4 48.5h1m2 0h1m2 0h4m1 0h2m1 0h3m2 0h2m1 0h3m2 0h4m2 0h1m1 0h1m1 0h2m1 0h3m2 0h2m2 0h4m1 0h1m2 0h2m1 0h2m1 0h3m5 0h2m1 0h1m3 0h1m1 0h1m1 0h2m1 0h1m1 0h1m2 0h5m1 0h1m1 0h1m1 0h1M4 49.5h1m3 0h1m2 0h4m5 0h1m6 0h1m1 0h2m4 0h3m1 0h1m3 0h1m3 0h2m1 0h1m1 0h5m1 0h2m3 0h1m1 0h1m2 0h1m1 0h1m1 0h3m2 0h1m3 0h1m1 0h3m1 0h2m2 0h2m1 0h2m1 0h2m1 0h1m1 0h3M8 50.5h3m1 0h3m2 0h1m3 0h1m4 0h1m1 0h1m2 0h2m1 0h1m1 0h1m2 0h3m1 0h1m1 0h1m1 0h1m2 0h2m2 0h1m1 0h1m2 0h1m3 0h1m2 0h1m3 0h2m1 0h1m1 0h1m1 0h1m6 0h4m2 0h1m1 0h1m1 0h1m6 0h1m1 0h1M4 51.5h1m1 0h2m3 0h6m3 0h2m1 0h1m2 0h3m1 0h1m1 0h3m1 0h5m1 0h2m3 0h1m1 0h1m1 0h2m1 0h3m1 0h1m1 0h2m1 0h2m1 0h1m1 0h1m3 0h1m7 0h1m1 0h2m1 0h5m2 0h3m4 0h3m1 0h2M4 52.5h2m2 0h6m1 0h7m1 0h6m1 0h8m1 0h1m1 0h2m1 0h3m1 0h1m3 0h6m1 0h1m2 0h1m6 0h2m1 0h10m1 0h1m3 0h2m1 0h4m1 0h6m1 0h2M4 53.5h1m1 0h3m3 0h1m3 0h3m2 0h2m1 0h1m1 0h3m1 0h1m3 0h2m1 0h2m1 0h1m1 0h3m1 0h1m2 0h1m1 0h2m3 0h1m2 0h1m1 0h1m1 0h2m3 0h1m3 0h3m3 0h1m2 0h2m1 0h1m1 0h3m1 0h2m3 0h2m3 0h2M6 54.5h1m1 0h1m1 0h1m1 0h1m1 0h4m4 0h2m2 0h2m1 0h2m1 0h1m1 0h1m1 0h1m2 0h1m1 0h1m1 0h2m1 0h7m1 0h1m1 0h2m1 0h1m2 0h1m3 0h2m1 0h4m1 0h1m1 0h1m1 0h1m4 0h8m2 0h4m1 0h1m1 0h1m3 0h1M5 55.5h1m1 0h2m3 0h1m2 0h2m1 0h3m2 0h1m3 0h4m3 0h1m1 0h2m3 0h2m1 0h1m1 0h1m1 0h2m2 0h1m3 0h3m7 0h4m1 0h2m1 0h1m3 0h1m3 0h5m4 0h4m1 0h1m3 0h3M6 56.5h1m1 0h5m3 0h3m4 0h4m1 0h1m1 0h5m1 0h1m1 0h2m1 0h1m2 0h1m1 0h1m2 0h2m1 0h5m1 0h1m1 0h2m1 0h1m1 0h2m1 0h1m1 0h1m3 0h5m1 0h5m1 0h2m1 0h1m2 0h3m1 0h5M4 57.5h2m1 0h2m2 0h1m2 0h1m1 0h2m1 0h2m1 0h1m3 0h1m4 0h4m1 0h2m8 0h2m5 0h2m1 0h2m1 0h3m2 0h2m2 0h6m6 0h1m7 0h1m2 0h1m1 0h1m1 0h1m2 0h4M6 58.5h1m3 0h1m1 0h1m2 0h1m2 0h3m1 0h1m1 0h1m1 0h2m1 0h1m3 0h2m1 0h2m1 0h2m1 0h1m1 0h1m1 0h3m2 0h8m2 0h1m2 0h1m3 0h1m1 0h1m1 0h1m5 0h1m2 0h1m1 0h2m1 0h1m1 0h3m2 0h1m3 0h3m1 0h2m1 0h1M6 59.5h4m1 0h1m2 0h2m1 0h1m1 0h2m1 0h4m2 0h2m3 0h1m1 0h1m1 0h1m1 0h3m6 0h2m1 0h2m5 0h4m1 0h1m6 0h1m1 0h1m2 0h2m7 0h1m1 0h1m2 0h1m2 0h1m2 0h1m1 0h2m2 0h1m1 0h1M5 60.5h1m1 0h1m1 0h3m1 0h1m1 0h1m1 0h2m2 0h2m3 0h1m1 0h3m3 0h1m1 0h3m2 0h3m5 0h1m1 0h3m1 0h2m1 0h3m1 0h1m1 0h1m2 0h2m5 0h1m1 0h1m3 0h2m1 0h6m4 0h3m1 0h6M5 61.5h1m2 0h2m1 0h2m7 0h4m1 0h3m1 0h2m1 0h2m2 0h1m6 0h1m1 0h2m1 0h1m1 0h2m1 0h1m1 0h1m1 0h2m1 0h2m1 0h1m1 0h2m2 0h1m2 0h4m4 0h3m1 0h1m2 0h1m1 0h1m1 0h3m1 0h1m1 0h3m1 0h2M5 62.5h1m1 0h1m2 0h2m4 0h5m1 0h4m2 0h3m3 0h10m3 0h4m2 0h1m1 0h1m5 0h1m2 0h1m1 0h2m6 0h2m2 0h2m7 0h1m8 0h1m1 0h1m3 0h3M4 63.5h1m1 0h2m7 0h3m1 0h2m7 0h1m1 0h1m3 0h2m1 0h1m2 0h5m2 0h2m1 0h1m1 0h1m8 0h4m3 0h3m2 0h1m3 0h2m1 0h3m3 0h4m1 0h1m2 0h3m1 0h3m3 0h1M8 64.5h1m1 0h3m1 0h1m5 0h1m1 0h2m5 0h2m4 0h1m1 0h1m1 0h2m3 0h3m1 0h2m5 0h3m1 0h2m1 0h1m1 0h2m1 0h4m1 0h1m1 0h3m1 0h1m2 0h1m2 0h1m1 0h1m1 0h1m4 0h4m2 0h2m2 0h2M6 65.5h1m5 0h10m2 0h1m1 0h1m1 0h1m1 0h3m1 0h1m1 0h2m7 0h1m2 0h2m1 0h1m1 0h2m1 0h3m2 0h2m3 0h3m1 0h2m4 0h1m3 0h1m1 0h3m3 0h1m3 0h1m1 0h1m3 0h1m2 0h1m2 0h1M9 66.5h7m7 0h3m1 0h2m1 0h3m4 0h1m3 0h1m1 0h2m1 0h1m2 0h1m1 0h5m1 0h5m1 0h2m1 0h1m1 0h1m1 0h1m1 0h2m1 0h1m2 0h1m1 0h2m1 0h1m1 0h1m1 0h1m3 0h1m1 0h2m2 0h3m2 0h1M6 67.5h3m4 0h3m2 0h2m1 0h1m3 0h1m2 0h2m1 0h2m1 0h1m2 0h1m2 0h2m2 0h1m3 0h1m1 0h1m1 0h2m1 0h1m4 0h1m1 0h3m2 0h1m1 0h1m5 0h1m3 0h2m2 0h2m1 0h5m3 0h1m1 0h2m2 0h3m1 0h1M5 68.5h2m2 0h2m2 0h3m2 0h1m1 0h2m1 0h3m2 0h1m1 0h1m4 0h2m2 0h1m5 0h6m1 0h1m1 0h2m1 0h2m2 0h2m3 0h1m1 0h4m1 0h2m1 0h4m1 0h3m2 0h3m1 0h2m1 0h1m2 0h1m3 0h2m1 0h2M5 69.5h1m1 0h1m3 0h1m1 0h1m2 0h2m2 0h3m1 0h1m2 0h5m5 0h1m2 0h1m2 0h2m5 0h1m2 0h1m1 0h6m2 0h2m1 0h2m1 0h5m1 0h1m2 0h5m1 0h1m3 0h1m1 0h1m3 0h1m1 0h1m4 0h1M6 70.5h2m1 0h3m2 0h1m1 0h3m2 0h3m2 0h1m1 0h2m1 0h1m2 0h1m6 0h1m1 0h4m4 0h2m1 0h1m1 0h6m2 0h1m1 0h2m1 0h1m1 0h6m1 0h1m3 0h1m1 0h1m4 0h1m1 0h1m2 0h1m1 0h1m2 0h1m2 0h1m1 0h1M8 71.5h1m3 0h1m2 0h1m3 0h3m1 0h2m2 0h1m1 0h3m2 0h4m2 0h4m3 0h4m3 0h1m1 0h1m2 0h2m4 0h1m1 0h1m1 0h1m3 0h1m1 0h2m10 0h1m1 0h2m1 0h1m1 0h1m2 0h1m3 0h1m2 0h1M5 72.5h1m1 0h10m2 0h1m3 0h1m3 0h1m1 0h2m2 0h1m1 0h6m1 0h2m1 0h1m1 0h4m1 0h1m1 0h1m1 0h4m1 0h1m2 0h2m3 0h3m1 0h2m1 0h1m1 0h4m3 0h1m1 0h1m4 0h3m1 0h6M4 73.5h2m1 0h1m5 0h1m1 0h5m2 0h2m1 0h3m4 0h1m1 0h1m1 0h1m2 0h2m1 0h1m1 0h1m1 0h1m2 0h2m3 0h1m1 0h3m3 0h1m1 0h3m1 0h4m1 0h1m1 0h1m1 0h1m6 0h1m1 0h1m1 0h2m1 0h2m5 0h2m2 0h3M4 74.5h1m2 0h6m1 0h3m2 0h1m4 0h3m1 0h8m2 0h1m2 0h4m2 0h1m4 0h5m1 0h1m2 0h3m2 0h3m2 0h1m1 0h6m1 0h1m2 0h1m1 0h1m3 0h3m3 0h8M8 75.5h1m3 0h1m3 0h5m4 0h2m1 0h3m3 0h2m1 0h1m3 0h1m2 0h2m1 0h2m1 0h1m1 0h1m3 0h1m1 0h2m2 0h1m2 0h4m1 0h5m3 0h1m2 0h1m2 0h5m2 0h6m3 0h5M4 76.5h1m2 0h2m1 0h1m1 0h2m2 0h1m2 0h1m2 0h1m1 0h1m1 0h1m1 0h3m1 0h1m1 0h1m2 0h1m1 0h1m4 0h1m1 0h1m1 0h1m3 0h1m1 0h1m1 0h1m7 0h3m1 0h3m3 0h1m1 0h1m1 0h1m2 0h2m2 0h1m1 0h1m2 0h1m1 0h5m1 0h1m1 0h1m1 0h3M7 77.5h2m3 0h2m5 0h1m4 0h3m1 0h3m3 0h3m4 0h1m2 0h3m2 0h4m3 0h2m1 0h1m5 0h2m1 0h3m3 0h1m3 0h2m2 0h3m4 0h2m5 0h1m3 0h1M5 78.5h2m1 0h5m1 0h1m1 0h1m3 0h3m5 0h8m6 0h2m3 0h1m2 0h1m1 0h5m3 0h3m1 0h2m1 0h2m1 0h1m3 0h5m1 0h4m1 0h1m2 0h2m4 0h8m1 0h1M4 79.5h4m1 0h1m2 0h1m1 0h2m1 0h1m1 0h1m1 0h6m4 0h1m1 0h1m2 0h1m1 0h2m1 0h1m4 0h1m5 0h1m3 0h1m4 0h3m1 0h2m2 0h4m1 0h1m1 0h2m2 0h1m3 0h3m2 0h7m1 0h2m1 0h3m1 0h1M4 80.5h1m1 0h5m2 0h1m1 0h3m2 0h1m2 0h1m1 0h4m2 0h1m1 0h2m4 0h3m6 0h7m2 0h2m3 0h4m1 0h1m2 0h3m1 0h1m1 0h1m7 0h2m3 0h1m1 0h1m1 0h3m1 0h5m2 0h1M4 81.5h1m1 0h2m1 0h1m4 0h1m2 0h4m3 0h1m3 0h5m4 0h2m3 0h1m1 0h3m8 0h1m2 0h1m1 0h3m4 0h4m2 0h1m1 0h1m3 0h1m2 0h1m1 0h3m5 0h1m4 0h2m2 0h1M5 82.5h2m1 0h4m3 0h2m2 0h2m2 0h1m2 0h3m4 0h2m1 0h1m4 0h3m3 0h3m1 0h1m2 0h1m1 0h1m3 0h1m3 0h4m1 0h1m2 0h4m2 0h5m2 0h3m1 0h1m1 0h2m2 0h3m1 0h2m1 0h2M7 83.5h2m5 0h5m1 0h2m2 0h2m3 0h4m2 0h2m3 0h2m1 0h1m1 0h4m1 0h1m1 0h2m1 0h1m4 0h1m3 0h6m1 0h2m1 0h1m2 0h2m6 0h2m1 0h1m3 0h1m1 0h1m1 0h2m1 0h1m2 0h2M5 84.5h1m1 0h7m1 0h1m3 0h1m1 0h2m2 0h2m1 0h2m1 0h3m2 0h1m1 0h4m1 0h2m1 0h1m1 0h1m1 0h2m3 0h4m2 0h1m4 0h2m2 0h1m3 0h1m2 0h1m1 0h1m3 0h1m1 0h2m1 0h1m3 0h2m2 0h1m2 0h2m1 0h3M5 85.5h1m2 0h1m5 0h3m1 0h1m1 0h1m5 0h4m2 0h1m2 0h7m1 0h3m2 0h1m1 0h1m2 0h1m1 0h6m5 0h4m2 0h1m1 0h3m3 0h3m3 0h1m2 0h2m1 0h1m4 0h2m1 0h3m1 0h1M4 86.5h1m1 0h3m1 0h1m1 0h1m2 0h1m2 0h3m1 0h3m2 0h2m3 0h1m3 0h1m1 0h4m1 0h5m4 0h1m1 0h2m3 0h1m1 0h1m2 0h4m1 0h2m4 0h5m1 0h3m1 0h1m4 0h1m1 0h3m1 0h1m1 0h1m1 0h1m1 0h1M4 87.5h2m2 0h1m3 0h1m3 0h3m1 0h1m2 0h5m4 0h1m1 0h1m1 0h2m1 0h1m3 0h1m3 0h1m2 0h1m1 0h1m5 0h1m1 0h1m1 0h3m3 0h1m1 0h2m1 0h5m1 0h2m3 0h1m3 0h1m6 0h1m2 0h1m1 0h2m1 0h2M7 88.5h1m2 0h3m1 0h6m2 0h1m1 0h2m1 0h1m4 0h1m8 0h2m1 0h1m1 0h3m1 0h1m1 0h3m2 0h2m3 0h1m1 0h1m1 0h1m1 0h2m1 0h9m1 0h2m1 0h3m1 0h3m2 0h3m1 0h2m3 0h1M4 89.5h1m1 0h2m1 0h1m1 0h1m2 0h1m1 0h3m1 0h1m7 0h3m1 0h1m2 0h3m2 0h1m3 0h4m6 0h1m1 0h2m6 0h3m1 0h3m1 0h2m2 0h1m1 0h1m4 0h2m4 0h2m2 0h1m1 0h1m1 0h1m2 0h1m2 0h1M4 90.5h2m1 0h2m1 0h1m2 0h1m1 0h3m3 0h2m2 0h1m2 0h7m2 0h1m1 0h1m2 0h3m1 0h7m1 0h1m2 0h6m1 0h1m3 0h2m1 0h1m5 0h1m1 0h5m3 0h2m1 0h1m2 0h1m2 0h1m1 0h2m1 0h4M4 91.5h1m1 0h3m5 0h1m3 0h10m1 0h1m1 0h2m5 0h1m3 0h1m1 0h1m1 0h3m1 0h1m1 0h1m1 0h3m1 0h1m1 0h7m2 0h1m1 0h1m3 0h3m3 0h1m6 0h2m2 0h1m4 0h1m2 0h1m1 0h1m1 0h1M4 92.5h1m1 0h1m3 0h1m4 0h2m2 0h2m1 0h2m1 0h3m1 0h2m4 0h5m2 0h3m1 0h1m3 0h1m1 0h3m1 0h4m4 0h2m3 0h2m1 0h1m2 0h1m1 0h2m2 0h2m6 0h3m2 0h1m1 0h2m2 0h2m1 0h1M4 93.5h1m7 0h1m2 0h1m3 0h1m3 0h2m2 0h1m3 0h3m1 0h3m1 0h1m1 0h2m6 0h2m2 0h1m1 0h1m1 0h1m1 0h2m1 0h4m1 0h1m5 0h4m2 0h1m2 0h2m2 0h9m2 0h1m1 0h2m3 0h1M4 94.5h1m2 0h2m1 0h2m1 0h1m1 0h4m1 0h1m2 0h1m3 0h1m3 0h1m4 0h1m1 0h1m4 0h2m1 0h2m3 0h2m2 0h1m5 0h2m4 0h3m1 0h4m4 0h1m4 0h1m1 0h1m1 0h1m1 0h1m3 0h1m1 0h1m1 0h1m3 0h2M4 95.5h1m1 0h2m1 0h1m2 0h1m2 0h1m1 0h1m4 0h2m1 0h5m3 0h3m6 0h2m1 0h2m4 0h1m1 0h4m1 0h1m3 0h1m9 0h2m2 0h1m4 0h2m2 0h4m2 0h1m1 0h3m5 0h1m1 0h2M8 96.5h1m1 0h4m1 0h1m1 0h2m2 0h1m1 0h3m1 0h1m1 0h6m1 0h1m1 0h4m2 0h1m5 0h7m3 0h2m1 0h2m1 0h1m4 0h2m1 0h6m1 0h2m2 0h1m1 0h1m3 0h4m1 0h9M12 97.5h8m5 0h4m1 0h1m3 0h3m3 0h1m1 0h1m1 0h1m1 0h1m4 0h2m3 0h2m1 0h5m1 0h1m2 0h1m1 0h1m1 0h3m3 0h2m2 0h4m3 0h5m1 0h2m3 0h1m3 0h1M4 98.5h7m2 0h1m3 0h2m2 0h1m2 0h3m1 0h3m1 0h1m1 0h2m1 0h3m1 0h1m1 0h1m1 0h1m4 0h3m1 0h1m1 0h4m2 0h1m4 0h1m2 0h1m3 0h1m1 0h1m1 0h3m1 0h1m1 0h1m1 0h1m2 0h1m2 0h5m1 0h1m1 0h1m1 0h2M4 99.5h1m5 0h1m3 0h1m2 0h5m1 0h1m1 0h1m2 0h3m3 0h1m2 0h1m3 0h1m10 0h1m3 0h1m3 0h2m1 0h1m4 0h4m1 0h2m3 0h1m1 0h1m1 0h2m2 0h1m4 0h1m1 0h2m1 0h1m3 0h1m1 0h1m1 0h1M4 100.5h1m1 0h3m1 0h1m3 0h4m2 0h1m2 0h1m5 0h8m2 0h1m1 0h3m1 0h2m1 0h1m1 0h7m3 0h1m2 0h2m1 0h3m1 0h9m2 0h1m1 0h2m3 0h3m1 0h1m1 0h7m1 0h2M4 101.5h1m1 0h3m1 0h1m4 0h1m1 0h5m5 0h1m1 0h5m2 0h1m1 0h4m1 0h6m1 0h2m1 0h1m1 0h1m1 0h3m2 0h2m1 0h1m1 0h2m3 0h4m1 0h1m3 0h1m1 0h3m2 0h1m1 0h1m2 0h3m3 0h1m1 0h1M4 102.5h1m1 0h3m1 0h1m2 0h1m2 0h2m3 0h1m2 0h1m2 0h1m1 0h4m4 0h2m1 0h2m1 0h1m2 0h1m5 0h3m2 0h2m2 0h2m2 0h2m4 0h2m1 0h1m1 0h1m1 0h2m1 0h1m2 0h1m2 0h1m1 0h1m3 0h2m2 0h5m1 0h1M4 103.5h1m5 0h1m4 0h1m1 0h1m1 0h1m1 0h1m1 0h1m1 0h3m5 0h1m2 0h2m1 0h1m5 0h2m1 0h1m1 0h1m3 0h1m3 0h2m1 0h2m2 0h1m2 0h1m1 0h2m2 0h1m2 0h2m1 0h9m3 0h1m1 0h5m1 0h1m1 0h1m1 0h1M4 104.5h7m1 0h2m2 0h2m1 0h4m2 0h3m1 0h2m2 0h2m3 0h4m1 0h2m2 0h3m2 0h4m4 0h4m1 0h3m2 0h1m2 0h1m1 0h2m5 0h1m1 0h4m1 0h1m2 0h2m1 0h6m1 0h1"/></svg>
