<svg xmlns="http://www.w3.org/2000/svg" viewBox="0 0 97 97" shape-rendering="crispEdges"><path fill="#ffffff" d="M0 0h97v97H0z"/><path stroke="#000000" d="M4 4.5h7m1 0h1m1 0h1m2 0h5m3 0h1m2 0h2m1 0h1m2 0h6m1 0h1m2 0h3m2 0h4m1 0h1m2 0h1m1 0h3m2 0h2m1 0h2m4 0h7m1 0h4m1 0h7M4 5.5h1m5 0h1m2 0h1m1 0h2m1 0h2m1 0h1m1 0h1m2 0h1m1 0h2m2 0h1m1 0h3m1 0h1m2 0h3m3 0h1m1 0h2m1 0h3m1 0h1m2 0h2m2 0h1m1 0h2m3 0h2m2 0h1m1 0h1m1 0h2m1 0h1m1 0h1m2 0h1m5 0h1M4 6.5h1m1 0h3m1 0h1m1 0h5m1 0h1m3 0h1m1 0h1m1 0h2m2 0h3m1 0h1m3 0h2m1 0h2m1 0h1m2 0h1m1 0h1m1 0h1m2 0h1m1 0h1m9 0h1m4 0h1m4 0h2m1 0h1m1 0h1m4 0h1m1 0h3m1 0h1M4 7.5h1m1 0h3m1 0h1m1 0h2m1 0h1m3 0h2m3 0h5m2 0h1m2 0h3m2 0h1m2 0h2m5 0h2m1 0h5m1 0h4m2 0h1m2 0h1m2 0h3m3 0h3m1 0h1m1 0h1m1 0h1m1 0h1m1 0h3m1 0h1M4 8.5h1m1 0h3m1 0h1m1 0h1m5 0h2m1 0h2m1 0h1m4 0h8m2 0h3m5 0h4m3 0h1m3 0h6m1 0h1m5 0h2m1 0h4m1 0h2m2 0h1m2 0h1m1 0h3m1 0h1M4 9.5h1m5 0h1m2 0h3m4 0h1m1 0h1m2 0h1m1 0h1m3 0h2m3 0h3m8 0h2m1 0h1m2 0h1m4 0h1m3 0h1m5 0h1m1 0h2m3 0h1m1 0h2m1 0h2m1 0h1m2 0h1m5 0h1M4 10.5h7m1 0h1m1 0h1m1 0h1m1 0h1m1 0h1m1 0h1m1 0h1m1 0h1m1 0h1m1 0h1m1 0h1m1 0h1m1 0h1m1 0h1m1 0h1m1 0h1m1 0h1m1 0h1m1 0h1m1 0h1m1 0h1m1 0h1m1 0h1m1 0h1m1 0h1m1 0h1m1 0h1m1 0h1m1 0h1m1 0h1m1 0h1m1 0h1m1 0h1m1 0h1m1 0h1m1 0h1m1 0h1m1 0h7M13 11.5h2m1 0h5m1 0h11m3 0h1m1 0h3m2 0h1m1 0h2m10 0h2m3 0h1m3 0h1m1 0h1m1 0h1m6 0h1m1 0h2m3 0h1M4 12.5h4m2 0h1m1 0h4m3 0h2m1 0h1m1 0h1m1 0h2m2 0h8m6 0h3m1 0h1m1 0h1m2 0h1m4 0h7m1 0h1m1 0h2m2 0h2m1 0h1m1 0h1m4 0h2m1 0h1m2 0h3m1 0h1M6 13.5h1m1 0h1m2 0h1m2 0h1m4 0h3m2 0h1m2 0h1m2 0h1m1 0h1m1 0h1m5 0h1m1 0h5m1 0h1m1 0h2m2 0h1m1 0h1m2 0h2m1 0h4m3 0h1m2 0h1m5 0h2m1 0h4m2 0h2M4 14.5h1m1 0h1m1 0h3m1 0h1m2 0h6m2 0h2m1 0h6m1 0h3m1 0h1m1 0h2m2 0h9m1 0h1m4 0h2m1 0h1m5 0h4m1 0h1m3 0h5m2 0h2m1 0h1m2 0h4M4 15.5h1m1 0h3m2 0h1m1 0h1m1 0h2m2 0h1m1 0h2m2 0h1m2 0h1m1 0h1m6 0h6m1 0h2m2 0h1m2 0h1m3 0h1m1 0h2m2 0h1m2 0h1m3 0h4m2 0h1m1 0h1m2 0h3m1 0h1m4 0h2m2 0h1M6 16.5h7m1 0h3m2 0h1m1 0h2m4 0h3m3 0h3m1 0h4m1 0h2m2 0h1m4 0h1m1 0h1m2 0h1m1 0h1m1 0h1m3 0h1m5 0h5m2 0h1m1 0h3m4 0h2m1 0h1m1 0h2M4 17.5h1m2 0h1m1 0h1m1 0h2m2 0h2m2 0h1m1 0h1m6 0h1m2 0h2m1 0h1m1 0h1m1 0h1m2 0h1m2 0h1m3 0h1m1 0h3m1 0h1m4 0h1m3 0h3m2 0h3m5 0h1m1 0h1m1 0h2m4 0h5m1 0h1M4 18.5h1m2 0h2m1 0h2m7 0h1m2 0h1m1 0h4m1 0h1m2 0h1m4 0h1m1 0h1m1 0h9m1 0h1m2 0h1m1 0h2m1 0h4m1 0h1m3 0h1m2 0h2m3 0h2m1 0h2m4 0h2m2 0h1m1 0h2M4 19.5h1m6 0h1m2 0h1m1 0h1m3 0h4m3 0h2m2 0h2m4 0h3m1 0h1m6 0h1m2 0h2m1 0h1m1 0h1m2 0h1m1 0h2m3 0h3m2 0h1m5 0h1m1 0h2m2 0h1m1 0h1m4 0h1m1 0h1M7 20.5h1m1 0h2m1 0h3m2 0h1m4 0h3m2 0h1m1 0h2m3 0h1m1 0h2m1 0h2m2 0h1m5 0h1m3 0h3m1 0h1m4 0h4m3 0h7m4 0h3m1 0h2m1 0h2M4 21.5h1m6 0h1m1 0h3m2 0h1m1 0h1m2 0h1m5 0h1m2 0h5m2 0h1m4 0h1m1 0h2m1 0h2m1 0h3m1 0h1m1 0h4m1 0h1m1 0h1m3 0h4m1 0h1m1 0h2m1 0h2m1 0h1m3 0h1m1 0h5M4 22.5h4m1 0h2m2 0h3m4 0h2m1 0h1m1 0h4m1 0h1m2 0h1m1 0h2m2 0h3m2 0h1m1 0h2m2 0h1m1 0h2m3 0h2m1 0h2m1 0h3m1 0h3m2 0h2m1 0h4m1 0h1m1 0h1m2 0h5M5 23.5h1m3 0h1m3 0h1m1 0h4m3 0h3m2 0h1m1 0h2m2 0h3m1 0h1m1 0h1m5 0h2m1 0h1m1 0h2m1 0h2m1 0h3m1 0h1m2 0h1m5 0h1m1 0h2m1 0h4m3 0h1m3 0h1m1 0h2m2 0h2M6 24.5h2m1 0h2m1 0h2m1 0h2m4 0h1m2 0h1m1 0h1m1 0h1m1 0h1m2 0h3m2 0h3m1 0h1m1 0h1m2 0h1m1 0h1m1 0h5m1 0h1m3 0h1m2 0h1m1 0h2m5 0h1m2 0h2m1 0h3m2 0h4m4 0h1M9 25.5h1m1 0h1m1 0h2m2 0h2m6 0h1m1 0h4m3 0h1m7 0h2m2 0h3m1 0h1m1 0h1m2 0h1m2 0h1m1 0h1m1 0h1m3 0h1m8 0h3m1 0h1m1 0h1m2 0h1m1 0h4M4 26.5h1m1 0h6m4 0h4m1 0h2m2 0h1m2 0h2m1 0h1m1 0h3m4 0h1m1 0h1m1 0h1m1 0h3m2 0h1m2 0h1m1 0h1m2 0h1m2 0h1m1 0h1m1 0h3m1 0h1m2 0h3m1 0h2m2 0h1m4 0h2m1 0h2m1 0h1M7 27.5h1m5 0h5m2 0h3m2 0h3m1 0h1m1 0h1m2 0h2m3 0h2m4 0h5m2 0h2m1 0h3m6 0h2m2 0h4m8 0h1m1 0h1m1 0h1m2 0h3m1 0h2M5 28.5h4m1 0h1m8 0h2m1 0h1m1 0h1m1 0h1m2 0h1m3 0h3m3 0h2m1 0h1m2 0h1m1 0h3m1 0h2m1 0h2m1 0h1m1 0h3m4 0h2m1 0h2m1 0h1m1 0h3m1 0h5m3 0h2m1 0h1m1 0h1M4 29.5h1m3 0h1m3 0h2m1 0h1m1 0h1m1 0h1m2 0h4m3 0h4m2 0h3m2 0h1m2 0h3m2 0h1m5 0h1m2 0h3m2 0h1m2 0h3m1 0h5m1 0h1m5 0h1m1 0h1m1 0h1m2 0h1m2 0h1M5 30.5h3m1 0h3m3 0h4m1 0h1m1 0h1m1 0h3m1 0h5m3 0h1m3 0h1m4 0h1m3 0h5m1 0h2m2 0h2m2 0h1m1 0h2m2 0h2m5 0h2m1 0h1m1 0h1m1 0h3m1 0h1m1 0h1M5 31.5h1m1 0h2m2 0h1m1 0h8m2 0h2m1 0h1m1 0h1m4 0h1m4 0h1m2 0h1m1 0h1m3 0h6m4 0h4m2 0h1m3 0h5m3 0h6m1 0h1m1 0h6M5 32.5h1m1 0h7m1 0h1m1 0h1m1 0h1m4 0h2m2 0h3m1 0h5m1 0h1m1 0h3m2 0h3m1 0h1m2 0h3m1 0h1m1 0h5m3 0h1m1 0h3m2 0h3m1 0h4m3 0h5M4 33.5h2m1 0h2m3 0h2m3 0h1m2 0h1m2 0h2m2 0h2m1 0h3m3 0h2m1 0h1m1 0h3m1 0h1m1 0h1m1 0h3m1 0h2m3 0h1m3 0h1m1 0h2m2 0h1m1 0h2m2 0h1m1 0h3m1 0h1m1 0h3m3 0h1m1 0h2M4 34.5h3m1 0h1m1 0h1m1 0h1m2 0h1m9 0h1m2 0h1m3 0h1m1 0h1m1 0h2m3 0h1m1 0h1m2 0h1m1 0h4m2 0h1m3 0h1m1 0h1m1 0h1m3 0h2m1 0h5m2 0h1m1 0h2m4 0h1m1 0h1m1 0h1M5 35.5h2m1 0h1m3 0h1m3 0h1m1 0h1m1 0h2m3 0h1m2 0h1m3 0h1m3 0h1m2 0h1m4 0h2m1 0h1m1 0h2m3 0h1m2 0h2m3 0h2m2 0h1m2 0h3m2 0h2m2 0h1m1 0h2m2 0h1m3 0h1m2 0h2M4 36.5h2m2 0h6m2 0h1m4 0h5m2 0h1m2 0h12m4 0h1m4 0h1m1 0h1m3 0h5m1 0h2m2 0h2m4 0h2m1 0h1m1 0h2m1 0h1m1 0h5M5 37.5h1m5 0h2m1 0h1m3 0h2m2 0h1m1 0h1m1 0h1m2 0h4m2 0h4m1 0h1m3 0h4m1 0h3m3 0h4m5 0h1m1 0h1m3 0h1m3 0h2m5 0h1m1 0h2m1 0h1m2 0h1M4 38.5h1m4 0h3m1 0h2m2 0h1m2 0h2m1 0h3m7 0h2m1 0h1m2 0h1m2 0h1m1 0h3m1 0h2m1 0h1m2 0h2m3 0h1m5 0h1m1 0h2m2 0h1m2 0h2m6 0h2m1 0h7M4 39.5h1m1 0h4m1 0h6m6 0h1m1 0h1m3 0h1m1 0h1m2 0h2m2 0h1m1 0h2m1 0h2m3 0h1m3 0h1m1 0h4m1 0h2m3 0h2m3 0h4m3 0h1m3 0h1m1 0h2m1 0h2m2 0h1m1 0h2M4 40.5h1m2 0h2m1 0h8m2 0h5m1 0h1m1 0h1m1 0h1m2 0h3m1 0h1m2 0h1m7 0h2m5 0h2m4 0h1m1 0h4m1 0h1m7 0h2m5 0h4m2 0h2M4 41.5h1m3 0h1m3 0h2m1 0h2m8 0h1m4 0h1m1 0h3m4 0h2m1 0h4m2 0h1m1 0h2m1 0h1m3 0h3m1 0h4m2 0h1m2 0h3m2 0h1m1 0h1m1 0h4m1 0h1m2 0h1m2 0h3M6 42.5h1m2 0h2m3 0h3m1 0h4m4 0h1m2 0h4m1 0h1m4 0h1m1 0h1m1 0h2m1 0h1m3 0h3m1 0h1m1 0h2m2 0h2m1 0h2m1 0h2m1 0h2m1 0h2m1 0h1m3 0h1m3 0h1m1 0h8M4 43.5h1m7 0h1m1 0h1m2 0h1m3 0h1m1 0h3m1 0h3m1 0h2m3 0h2m2 0h4m2 0h5m1 0h2m1 0h1m1 0h2m3 0h1m1 0h2m7 0h2m2 0h4m4 0h3M6 44.5h3m1 0h1m1 0h1m2 0h2m3 0h1m1 0h1m1 0h2m3 0h1m3 0h1m3 0h1m2 0h1m2 0h1m1 0h2m2 0h1m1 0h1m1 0h4m2 0h1m3 0h1m1 0h2m5 0h1m3 0h3m3 0h1m1 0h1m2 0h1m1 0h3M6 45.5h3m4 0h2m4 0h1m5 0h3m1 0h3m1 0h1m1 0h1m4 0h2m3 0h3m3 0h2m5 0h1m4 0h1m1 0h1m2 0h1m2 0h2m3 0h2m1 0h2m1 0h2m1 0h7M5 46.5h2m2 0h3m4 0h2m1 0h1m4 0h3m4 0h2m1 0h8m1 0h4m1 0h3m2 0h1m4 0h1m10 0h3m4 0h1m1 0h1m3 0h1m4 0h2m3 0h1M7 47.5h1m4 0h1m1 0h3m4 0h1m1 0h6m1 0h5m2 0h1m4 0h1m2 0h7m1 0h1m3 0h2m1 0h1m3 0h1m1 0h1m2 0h2m1 0h1m1 0h7m3 0h1m5 0h2M5 48.5h1m2 0h3m1 0h1m1 0h4m1 0h1m3 0h1m1 0h1m5 0h1m1 0h1m2 0h2m4 0h1m2 0h1m2 0h3m2 0h2m2 0h1m1 0h1m2 0h1m2 0h1m2 0h1m5 0h1m7 0h1m2 0h3m4 0h1M8 49.5h1m3 0h4m1 0h3m1 0h1m1 0h1m5 0h3m1 0h1m4 0h4m5 0h1m6 0h2m1 0h1m1 0h3m1 0h1m1 0h3m2 0h1m1 0h2m1 0h3m3 0h1m9 0h1M4 50.5h2m4 0h1m3 0h1m1 0h1m8 0h1m1 0h1m3 0h2m5 0h2m3 0h2m1 0h1m1 0h3m6 0h2m1 0h1m2 0h2m1 0h1m2 0h1m3 0h2m1 0h1m2 0h2m2 0h4m2 0h2m1 0h1M4 51.5h2m1 0h1m3 0h1m2 0h6m1 0h2m3 0h1m2 0h4m2 0h3m2 0h1m1 0h1m4 0h1m3 0h3m1 0h2m2 0h1m2 0h1m1 0h1m3 0h1m1 0h2m1 0h5m1 0h4m1 0h1m6 0h1M4 52.5h1m1 0h1m3 0h2m2 0h1m4 0h1m4 0h4m1 0h6m2 0h1m1 0h1m2 0h4m1 0h3m2 0h4m1 0h2m2 0h1m3 0h1m1 0h1m1 0h1m5 0h2m1 0h1m1 0h1m1 0h1m1 0h3m4 0h1M4 53.5h1m1 0h1m1 0h1m2 0h3m2 0h1m3 0h1m1 0h1m1 0h1m7 0h2m1 0h2m2 0h1m1 0h1m1 0h3m1 0h1m2 0h1m2 0h2m2 0h3m1 0h1m3 0h2m1 0h2m1 0h1m4 0h2m2 0h3m2 0h1m4 0h1m1 0h1M5 54.5h1m1 0h2m1 0h9m2 0h3m2 0h2m1 0h1m2 0h2m6 0h1m1 0h1m4 0h1m3 0h2m2 0h2m7 0h3m3 0h2m1 0h1m2 0h1m3 0h3m1 0h1m5 0h2M5 55.5h3m4 0h1m1 0h2m1 0h3m3 0h1m1 0h1m1 0h2m1 0h1m1 0h1m2 0h1m1 0h1m1 0h1m1 0h1m1 0h1m1 0h2m2 0h1m1 0h2m2 0h1m2 0h2m1 0h4m4 0h2m2 0h3m1 0h2m1 0h1m1 0h1m4 0h2m3 0h1M7 56.5h1m1 0h2m1 0h1m3 0h1m2 0h2m5 0h5m4 0h1m1 0h1m1 0h4m1 0h2m1 0h1m2 0h1m4 0h2m3 0h2m2 0h3m1 0h2m2 0h3m1 0h7m1 0h1m1 0h1m1 0h2m2 0h1M5 57.5h1m1 0h2m2 0h5m1 0h1m1 0h2m5 0h1m1 0h1m1 0h1m3 0h1m3 0h2m2 0h4m2 0h1m1 0h2m1 0h1m2 0h2m1 0h7m1 0h2m2 0h4m3 0h1m1 0h4m1 0h4m1 0h1M4 58.5h1m3 0h5m1 0h1m1 0h1m2 0h6m1 0h2m2 0h1m1 0h5m4 0h2m1 0h2m5 0h2m4 0h7m1 0h1m1 0h1m2 0h1m3 0h1m1 0h2m1 0h1m1 0h8m2 0h2M4 59.5h1m2 0h2m3 0h6m2 0h2m1 0h4m2 0h4m3 0h1m5 0h1m2 0h2m3 0h1m2 0h3m2 0h1m3 0h1m7 0h3m2 0h1m5 0h1m1 0h2m3 0h4M7 60.5h2m1 0h1m1 0h1m1 0h3m2 0h3m4 0h2m1 0h1m1 0h2m1 0h1m1 0h2m4 0h1m1 0h1m4 0h2m1 0h2m1 0h2m1 0h1m1 0h1m1 0h2m2 0h4m2 0h3m1 0h4m1 0h1m1 0h2m1 0h1m1 0h3M4 61.5h3m1 0h1m3 0h5m1 0h1m2 0h4m2 0h3m2 0h1m3 0h3m3 0h3m1 0h1m4 0h2m4 0h2m3 0h1m1 0h3m2 0h1m1 0h2m1 0h1m1 0h2m1 0h3m1 0h2m3 0h3m1 0h1M4 62.5h3m1 0h5m3 0h3m2 0h3m2 0h2m1 0h1m2 0h6m1 0h3m1 0h2m2 0h2m1 0h1m3 0h1m3 0h7m2 0h3m1 0h1m1 0h3m2 0h4m1 0h6m1 0h1M5 63.5h3m1 0h1m3 0h1m1 0h1m2 0h4m3 0h2m1 0h1m1 0h1m1 0h1m3 0h1m1 0h1m1 0h1m1 0h1m1 0h2m1 0h4m1 0h1m1 0h1m1 0h1m1 0h2m2 0h2m3 0h1m1 0h1m1 0h1m4 0h1m3 0h1m1 0h1m1 0h2m1 0h1m2 0h1m1 0h1M6 64.5h1m1 0h1m1 0h1m4 0h2m1 0h3m1 0h1m2 0h1m2 0h2m1 0h1m6 0h3m1 0h1m4 0h2m6 0h1m1 0h4m2 0h4m1 0h3m2 0h2m4 0h6m2 0h4m1 0h1M4 65.5h1m2 0h2m2 0h1m2 0h3m1 0h1m3 0h2m1 0h2m1 0h1m6 0h1m4 0h2m1 0h1m6 0h1m1 0h4m1 0h1m4 0h2m1 0h2m1 0h1m4 0h1m4 0h1m1 0h1m1 0h2m1 0h1m2 0h3M6 66.5h1m1 0h1m1 0h1m1 0h1m1 0h2m2 0h1m2 0h2m1 0h1m1 0h1m4 0h1m2 0h6m1 0h1m7 0h1m2 0h1m1 0h1m1 0h1m1 0h3m2 0h2m1 0h1m4 0h2m1 0h2m3 0h1m1 0h1m4 0h3m1 0h1m1 0h1M5 67.5h1m1 0h3m2 0h1m2 0h6m2 0h4m1 0h1m4 0h3m3 0h3m3 0h3m3 0h3m1 0h1m4 0h1m2 0h1m1 0h1m5 0h1m3 0h5m2 0h1m1 0h1m1 0h4m1 0h1M7 68.5h6m1 0h1m1 0h3m4 0h1m2 0h2m2 0h2m1 0h1m1 0h1m1 0h1m2 0h1m1 0h1m2 0h1m1 0h1m1 0h1m5 0h2m4 0h1m1 0h2m1 0h1m2 0h1m3 0h1m1 0h1m2 0h2m1 0h1m1 0h3m4 0h1M4 69.5h1m1 0h1m4 0h1m1 0h1m2 0h1m2 0h1m3 0h1m4 0h2m2 0h2m1 0h3m1 0h1m7 0h1m2 0h2m1 0h2m1 0h1m2 0h5m2 0h1m1 0h2m1 0h1m4 0h1m1 0h1m3 0h1m2 0h2m2 0h2m1 0h1M7 70.5h1m1 0h2m1 0h1m1 0h4m1 0h1m1 0h1m3 0h3m1 0h1m2 0h1m1 0h1m1 0h1m1 0h1m2 0h1m1 0h3m4 0h2m2 0h1m2 0h1m1 0h1m1 0h1m1 0h1m3 0h1m1 0h2m2 0h2m1 0h3m1 0h1m1 0h1m2 0h1m1 0h3m2 0h1M4 71.5h2m3 0h1m1 0h2m1 0h1m1 0h2m1 0h8m2 0h2m2 0h5m1 0h1m4 0h3m1 0h2m2 0h5m4 0h1m1 0h1m3 0h1m2 0h1m1 0h1m2 0h2m2 0h1m1 0h1m3 0h3m1 0h1M4 72.5h1m3 0h1m1 0h2m2 0h5m1 0h2m2 0h2m2 0h1m5 0h2m1 0h1m1 0h3m2 0h3m1 0h1m2 0h2m2 0h2m1 0h1m1 0h4m1 0h3m2 0h1m4 0h3m4 0h1m2 0h1m1 0h1m2 0h1M6 73.5h1m1 0h2m3 0h1m1 0h3m2 0h3m1 0h1m1 0h3m2 0h1m6 0h1m3 0h2m1 0h1m2 0h1m6 0h1m2 0h1m7 0h2m1 0h3m2 0h5m4 0h1m4 0h1m3 0h1M4 74.5h4m2 0h1m3 0h1m1 0h2m2 0h2m2 0h1m3 0h3m4 0h2m1 0h1m1 0h1m4 0h5m1 0h3m5 0h2m1 0h2m2 0h4m2 0h5m2 0h2m1 0h2m1 0h1m1 0h2m1 0h1m1 0h1M6 75.5h3m3 0h2m2 0h1m1 0h2m1 0h1m1 0h1m2 0h2m1 0h1m1 0h1m1 0h1m1 0h1m1 0h1m7 0h1m5 0h3m7 0h1m1 0h6m1 0h3m3 0h1m1 0h1m2 0h1m4 0h1m1 0h1m2 0h2M4 76.5h1m1 0h5m8 0h2m2 0h1m2 0h1m2 0h1m1 0h2m2 0h1m1 0h1m1 0h2m4 0h2m1 0h2m3 0h1m1 0h3m1 0h3m4 0h4m2 0h1m5 0h5m1 0h2m1 0h3m1 0h1M4 77.5h1m3 0h1m7 0h2m1 0h1m4 0h2m1 0h2m1 0h1m2 0h2m1 0h1m6 0h1m2 0h1m1 0h1m1 0h1m1 0h2m1 0h1m1 0h1m1 0h2m1 0h1m2 0h3m2 0h1m3 0h2m2 0h3m1 0h1m1 0h4m3 0h2M4 78.5h1m1 0h1m1 0h1m1 0h1m2 0h2m1 0h1m1 0h1m1 0h1m4 0h3m1 0h2m1 0h1m2 0h2m1 0h2m1 0h1m2 0h2m1 0h4m3 0h1m2 0h3m2 0h1m1 0h2m6 0h2m2 0h2m5 0h2m2 0h4m1 0h1M7 79.5h2m2 0h4m1 0h1m5 0h3m1 0h4m1 0h1m1 0h1m4 0h2m1 0h4m1 0h1m1 0h1m1 0h1m2 0h2m4 0h1m7 0h1m4 0h2m1 0h1m2 0h1m1 0h1m6 0h1M5 80.5h2m3 0h1m4 0h2m1 0h2m2 0h1m1 0h2m1 0h2m5 0h1m1 0h1m1 0h1m1 0h1m3 0h2m2 0h1m3 0h1m1 0h2m1 0h1m1 0h2m2 0h2m4 0h3m1 0h1m1 0h2m1 0h1m2 0h3m1 0h2m1 0h1m2 0h1M5 81.5h1m1 0h3m2 0h1m2 0h3m2 0h2m1 0h2m3 0h5m1 0h1m1 0h2m2 0h2m1 0h2m1 0h2m1 0h2m2 0h1m1 0h1m2 0h1m3 0h2m2 0h1m4 0h1m1 0h1m3 0h1m6 0h2m1 0h3m1 0h2M4 82.5h1m2 0h1m2 0h1m4 0h2m1 0h3m4 0h1m2 0h1m4 0h1m1 0h1m1 0h1m2 0h2m2 0h1m3 0h1m2 0h3m1 0h1m2 0h1m1 0h4m1 0h4m2 0h1m1 0h2m4 0h6m4 0h2M4 83.5h2m2 0h2m2 0h1m1 0h4m2 0h3m2 0h2m2 0h1m3 0h1m1 0h3m1 0h1m1 0h1m2 0h3m1 0h1m1 0h3m2 0h2m1 0h3m1 0h1m4 0h3m1 0h3m1 0h1m1 0h2m1 0h1m1 0h1m1 0h4m3 0h2M4 84.5h1m2 0h1m2 0h1m2 0h2m1 0h3m3 0h1m1 0h3m4 0h11m1 0h3m1 0h2m1 0h2m1 0h2m3 0h5m1 0h3m3 0h3m1 0h1m5 0h1m3 0h5m2 0h1M12 85.5h1m1 0h4m3 0h2m3 0h1m1 0h1m2 0h2m3 0h3m1 0h1m1 0h3m1 0h1m4 0h5m2 0h1m3 0h1m1 0h1m2 0h4m1 0h2m1 0h1m1 0h1m1 0h3m1 0h2m3 0h1m1 0h3M4 86.5h7m2 0h1m1 0h1m1 0h2m1 0h1m1 0h1m1 0h3m3 0h1m1 0h1m1 0h1m1 0h1m1 0h1m1 0h1m2 0h5m3 0h2m2 0h4m1 0h1m1 0h1m1 0h2m1 0h3m2 0h1m1 0h3m1 0h2m4 0h1m1 0h1m1 0h2M4 87.5h1m5 0h1m2 0h1m2 0h1m1 0h2m2 0h1m2 0h3m1 0h1m2 0h1m3 0h1m1 0h1m1 0h2m2 0h1m1 0h2m3 0h1m3 0h2m1 0h1m3 0h1m1 0h2m1 0h1m1 0h2m1 0h3m2 0h1m1 0h3m2 0h1m3 0h5M4 88.5h1m1 0h3m1 0h1m2 0h1m1 0h3m1 0h4m1 0h5m1 0h7m1 0h2m1 0h1m2 0h1m2 0h1m6 0h1m1 0h7m3 0h4m1 0h1m5 0h3m1 0h1m1 0h6m2 0h2M4 89.5h1m1 0h3m1 0h1m1 0h3m3 0h1m2 0h1m1 0h2m1 0h1m3 0h1m3 0h3m3 0h1m1 0h1m1 0h3m2 0h3m2 0h3m2 0h1m2 0h3m4 0h2m1 0h2m2 0h1m3 0h3m1 0h2m2 0h2M4 90.5h1m1 0h3m1 0h1m1 0h2m2 0h1m7 0h2m1 0h6m2 0h1m1 0h1m2 0h1m4 0h4m6 0h1m3 0h1m1 0h1m3 0h1m1 0h1m1 0h1m3 0h2m1 0h4m2 0h2m1 0h3m1 0h2m1 0h1M4 91.5h1m5 0h1m1 0h1m1 0h2m6 0h1m1 0h2m1 0h2m4 0h1m1 0h1m3 0h1m3 0h1m3 0h1m2 0h3m2 0h1m2 0h1m1 0h2m7 0h1m6 0h2m2 0h6m1 0h1m1 0h3M4 92.5h7m1 0h1m4 0h1m1 0h1m3 0h2m4 0h2m1 0h6m2 0h1m1 0h2m1 0h1m1 0h1m2 0h2m5 0h5m1 0h2m2 0h2m4 0h1m2 0h4m1 0h1m1 0h3m1 0h1m2 0h2"/></svg>
