<svg xmlns="http://www.w3.org/2000/svg" viewBox="0 0 113 113" shape-rendering="crispEdges"><path fill="#ffffff" d="M0 0h113v113H0z"/><path stroke="#000000" d="M4 4.5h7m1 0h1m4 0h1m1 0h1m1 0h1m2 0h1m1 0h2m2 0h1m2 0h2m1 0h2m3 0h3m4 0h2m2 0h1m4 0h1m1 0h2m2 0h1m1 0h3m3 0h1m2 0h2m2 0h1m1 0h6m3 0h7m1 0h2m3 0h7M4 5.5h1m5 0h1m1 0h1m3 0h2m2 0h2m1 0h4m1 0h3m4 0h3m1 0h2m1 0h1m3 0h1m6 0h1m1 0h1m4 0h4m3 0h1m2 0h6m1 0h1m1 0h1m1 0h1m2 0h2m1 0h1m1 0h1m1 0h3m2 0h1m1 0h1m3 0h1m5 0h1M4 6.5h1m1 0h3m1 0h1m1 0h1m1 0h2m2 0h2m2 0h7m3 0h9m2 0h3m1 0h1m2 0h2m1 0h2m1 0h2m4 0h2m5 0h1m2 0h3m1 0h2m1 0h2m3 0h1m1 0h1m1 0h2m2 0h2m3 0h3m2 0h1m1 0h3m1 0h1M4 7.5h1m1 0h3m1 0h1m1 0h2m2 0h3m1 0h2m1 0h3m1 0h1m2 0h3m3 0h2m1 0h1m2 0h4m1 0h3m3 0h1m2 0h1m1 0h2m1 0h1m4 0h4m2 0h1m4 0h1m5 0h2m2 0h1m2 0h1m1 0h2m2 0h2m2 0h1m1 0h1m1 0h3m1 0h1M4 8.5h1m1 0h3m1 0h1m2 0h1m3 0h3m3 0h4m1 0h7m2 0h4m1 0h6m1 0h1m2 0h5m1 0h5m1 0h1m2 0h5m1 0h1m2 0h5m3 0h1m3 0h3m1 0h1m3 0h2m1 0h2m1 0h1m1 0h3m1 0h1M4 9.5h1m5 0h1m1 0h6m2 0h2m2 0h2m1 0h2m3 0h12m1 0h5m1 0h2m3 0h2m1 0h5m1 0h4m2 0h1m1 0h1m2 0h1m3 0h1m1 0h2m2 0h2m1 0h2m3 0h3m2 0h1m2 0h1m5 0h1M4 10.5h7m1 0h1m1 0h1m1 0h1m1 0h1m1 0h1m1 0h1m1 0h1m1 0h1m1 0h1m1 0h1m1 0h1m1 0h1m1 0h1m1 0h1m1 0h1m1 0h1m1 0h1m1 0h1m1 0h1m1 0h1m1 0h1m1 0h1m1 0h1m1 0h1m1 0h1m1 0h1m1 0h1m1 0h1m1 0h1m1 0h1m1 0h1m1 0h1m1 0h1m1 0h1m1 0h1m1 0h1m1 0h1m1 0h1m1 0h1m1 0h1m1 0h1m1 0h1m1 0h1m1 0h1m1 0h1m1 0h7M14 11.5h1m3 0h3m2 0h2m1 0h3m3 0h1m1 0h2m1 0h2m1 0h3m1 0h6m1 0h2m3 0h1m2 0h3m1 0h1m2 0h1m1 0h3m1 0h1m3 0h1m3 0h2m1 0h2m1 0h1m1 0h5m2 0h1m2 0h1m1 0h1M4 12.5h2m2 0h3m2 0h1m3 0h1m1 0h2m5 0h1m1 0h5m3 0h2m1 0h4m1 0h1m1 0h1m1 0h1m1 0h7m3 0h6m2 0h2m1 0h3m1 0h11m1 0h2m2 0h2m3 0h2m1 0h2m2 0h1m1 0h4M7 13.5h2m4 0h1m1 0h1m3 0h2m1 0h1m1 0h2m1 0h1m1 0h2m1 0h1m4 0h2m4 0h1m1 0h2m1 0h3m4 0h5m1 0h2m1 0h1m1 0h2m3 0h1m2 0h1m2 0h1m2 0h1m1 0h1m1 0h3m3 0h2m1 0h1m1 0h5m2 0h3m1 0h2M4 14.5h2m1 0h1m2 0h4m5 0h1m4 0h2m1 0h3m2 0h1m3 0h4m1 0h1m1 0h3m1 0h1m3 0h1m1 0h4m1 0h1m1 0h2m3 0h1m2 0h1m1 0h4m5 0h2m2 0h1m2 0h1m1 0h2m1 0h2m1 0h1m2 0h2m3 0h2m1 0h1m1 0h2M6 15.5h1m8 0h2m3 0h1m3 0h1m6 0h3m3 0h1m2 0h1m2 0h1m4 0h4m1 0h1m7 0h1m1 0h1m1 0h5m2 0h1m1 0h2m1 0h1m1 0h3m3 0h1m2 0h1m1 0h1m1 0h2m2 0h4m3 0h3m1 0h1M7 16.5h2m1 0h1m2 0h1m2 0h1m1 0h1m1 0h3m3 0h1m2 0h3m1 0h1m1 0h4m2 0h1m1 0h1m1 0h1m1 0h1m1 0h2m1 0h3m1 0h1m2 0h2m2 0h2m2 0h1m7 0h1m2 0h1m2 0h1m1 0h1m2 0h5m1 0h1m1 0h2m1 0h2m1 0h3m3 0h2M4 17.5h3m1 0h1m5 0h1m1 0h2m1 0h4m2 0h1m3 0h2m5 0h1m2 0h1m1 0h2m1 0h2m1 0h1m3 0h1m3 0h2m2 0h3m2 0h2m2 0h3m2 0h2m2 0h2m2 0h7m4 0h2m1 0h1m1 0h1m1 0h1m1 0h2m2 0h1m1 0h1M5 18.5h3m2 0h1m1 0h2m1 0h1m1 0h1m2 0h1m1 0h4m4 0h1m4 0h1m1 0h2m2 0h3m1 0h1m6 0h2m1 0h1m2 0h2m2 0h1m1 0h1m4 0h2m2 0h1m3 0h1m4 0h2m2 0h1m2 0h2m1 0h2m1 0h2m1 0h3m1 0h2m1 0h1m1 0h1M4 19.5h3m1 0h1m2 0h1m1 0h1m2 0h4m1 0h2m6 0h1m2 0h3m1 0h1m1 0h4m1 0h1m5 0h1m2 0h2m2 0h1m4 0h1m1 0h2m2 0h2m4 0h1m1 0h1m3 0h2m1 0h2m1 0h2m1 0h1m3 0h1m1 0h3m1 0h2m2 0h2m1 0h3M6 20.5h2m1 0h3m2 0h1m1 0h1m3 0h1m1 0h1m1 0h1m7 0h3m1 0h1m1 0h2m1 0h6m1 0h1m1 0h1m3 0h1m2 0h4m1 0h1m1 0h1m3 0h1m2 0h2m5 0h2m1 0h2m1 0h7m2 0h1m4 0h1m2 0h2m1 0h3M4 21.5h1m1 0h1m1 0h2m4 0h4m2 0h2m2 0h2m1 0h2m2 0h3m1 0h3m2 0h1m1 0h1m1 0h1m1 0h2m1 0h1m1 0h2m3 0h3m1 0h2m3 0h1m2 0h2m1 0h1m4 0h2m1 0h1m2 0h2m2 0h2m1 0h5m1 0h1m1 0h1m1 0h1m1 0h1m1 0h1m1 0h3M5 22.5h4m1 0h1m1 0h1m1 0h1m3 0h1m2 0h1m4 0h1m3 0h3m3 0h2m5 0h2m7 0h3m1 0h2m1 0h1m1 0h2m1 0h3m1 0h4m1 0h2m5 0h3m3 0h1m2 0h2m1 0h2m3 0h4m3 0h2m1 0h2M4 23.5h1m1 0h2m1 0h1m1 0h1m2 0h1m2 0h1m1 0h1m2 0h2m1 0h1m1 0h2m1 0h1m4 0h2m4 0h1m7 0h11m2 0h1m1 0h1m2 0h2m5 0h1m4 0h2m4 0h1m1 0h2m1 0h2m1 0h3m2 0h3m3 0h1M4 24.5h1m3 0h8m2 0h1m1 0h3m1 0h1m2 0h2m1 0h3m2 0h2m1 0h2m4 0h4m2 0h2m1 0h1m2 0h4m1 0h1m1 0h1m2 0h2m1 0h2m1 0h2m2 0h1m5 0h1m1 0h1m1 0h1m1 0h1m5 0h2m2 0h1m1 0h3m1 0h2m2 0h1M4 25.5h1m2 0h1m1 0h1m2 0h1m1 0h1m1 0h1m1 0h4m1 0h3m1 0h1m3 0h1m1 0h1m2 0h2m3 0h1m1 0h4m3 0h4m2 0h4m1 0h2m1 0h3m2 0h1m2 0h2m1 0h2m3 0h2m1 0h1m1 0h3m2 0h2m2 0h1m2 0h5m1 0h2m1 0h2M4 26.5h1m3 0h4m1 0h1m1 0h2m1 0h1m1 0h1m2 0h3m1 0h1m3 0h1m2 0h1m4 0h1m5 0h3m1 0h1m1 0h1m3 0h1m1 0h2m1 0h2m1 0h1m2 0h1m7 0h1m4 0h1m4 0h2m1 0h1m2 0h4m1 0h3m1 0h3m1 0h2m1 0h3M4 27.5h1m1 0h4m2 0h1m6 0h1m1 0h4m1 0h4m2 0h3m1 0h1m2 0h1m1 0h1m3 0h1m1 0h1m2 0h6m1 0h3m2 0h2m6 0h1m3 0h1m4 0h2m1 0h1m1 0h3m1 0h1m2 0h1m1 0h5m3 0h2m4 0h2M6 28.5h1m1 0h5m1 0h5m1 0h2m1 0h2m3 0h7m5 0h2m1 0h6m1 0h10m1 0h2m1 0h1m1 0h1m2 0h3m1 0h9m2 0h3m1 0h6m1 0h2m2 0h6M5 29.5h1m1 0h2m3 0h4m1 0h3m1 0h1m1 0h2m1 0h1m1 0h1m3 0h1m1 0h1m2 0h1m4 0h2m1 0h1m3 0h1m2 0h1m3 0h1m3 0h1m1 0h1m1 0h3m1 0h1m2 0h1m4 0h1m3 0h2m4 0h3m1 0h2m5 0h1m1 0h2m3 0h2m1 0h1M4 30.5h2m2 0h1m1 0h1m1 0h5m4 0h3m1 0h4m1 0h1m1 0h1m2 0h1m1 0h6m7 0h1m1 0h1m1 0h1m1 0h2m5 0h2m4 0h1m1 0h1m1 0h2m1 0h1m1 0h1m1 0h3m1 0h1m1 0h1m3 0h3m1 0h1m4 0h2m1 0h1m1 0h1m1 0h2M8 31.5h1m3 0h3m4 0h4m3 0h3m3 0h3m3 0h2m1 0h3m3 0h3m1 0h2m3 0h1m4 0h5m1 0h1m1 0h2m2 0h4m3 0h1m1 0h3m3 0h4m2 0h4m2 0h1m3 0h3m1 0h1M6 32.5h11m2 0h2m1 0h3m2 0h6m1 0h2m1 0h1m2 0h1m4 0h1m1 0h1m4 0h6m2 0h1m2 0h1m1 0h2m1 0h3m1 0h1m3 0h7m3 0h1m1 0h1m1 0h1m1 0h2m1 0h1m4 0h6M4 33.5h6m1 0h5m5 0h2m1 0h2m4 0h1m1 0h1m2 0h1m2 0h1m2 0h5m4 0h2m1 0h2m1 0h1m3 0h1m1 0h2m1 0h2m1 0h1m1 0h7m2 0h1m1 0h2m1 0h3m1 0h1m1 0h1m1 0h1m1 0h4m2 0h2m1 0h4M4 34.5h4m2 0h1m1 0h3m1 0h4m2 0h7m1 0h1m1 0h3m4 0h1m1 0h4m1 0h1m1 0h1m4 0h1m1 0h2m2 0h1m2 0h2m2 0h2m6 0h1m4 0h4m2 0h1m2 0h1m1 0h1m2 0h2m3 0h1m4 0h5M6 35.5h2m5 0h2m1 0h1m1 0h2m2 0h1m1 0h1m1 0h3m5 0h1m1 0h4m1 0h1m1 0h1m2 0h1m1 0h3m1 0h1m1 0h1m1 0h4m5 0h1m1 0h1m1 0h2m4 0h1m2 0h3m1 0h1m3 0h2m3 0h2m2 0h1m3 0h4m1 0h1m1 0h2M4 36.5h1m1 0h5m1 0h1m1 0h1m1 0h1m3 0h2m4 0h1m2 0h1m1 0h1m2 0h1m2 0h1m2 0h2m3 0h1m3 0h1m3 0h2m2 0h1m1 0h2m1 0h1m2 0h1m4 0h2m1 0h1m1 0h4m3 0h1m2 0h1m2 0h2m4 0h4m3 0h2m4 0h1M4 37.5h1m1 0h2m1 0h1m3 0h2m1 0h1m1 0h4m4 0h1m1 0h1m1 0h2m1 0h3m1 0h1m1 0h1m4 0h1m1 0h1m1 0h3m1 0h1m2 0h2m2 0h2m1 0h4m1 0h2m3 0h2m2 0h2m4 0h2m2 0h2m2 0h2m2 0h5m2 0h1m2 0h1m2 0h1M4 38.5h1m3 0h3m1 0h1m1 0h2m4 0h3m1 0h1m2 0h7m1 0h1m1 0h1m2 0h5m1 0h1m1 0h1m2 0h6m1 0h1m3 0h2m2 0h1m1 0h1m1 0h1m1 0h2m1 0h2m1 0h1m6 0h3m2 0h4m2 0h2m6 0h4M6 39.5h3m3 0h7m2 0h1m2 0h1m1 0h2m2 0h3m3 0h1m4 0h1m1 0h2m4 0h3m5 0h1m2 0h2m1 0h2m1 0h1m3 0h3m2 0h1m3 0h1m1 0h2m1 0h3m1 0h1m1 0h3m3 0h1m1 0h1m1 0h2m1 0h3m2 0h1M8 40.5h1m1 0h1m4 0h3m1 0h3m1 0h1m1 0h1m1 0h2m1 0h1m1 0h1m1 0h1m3 0h4m5 0h6m2 0h1m3 0h1m1 0h1m1 0h2m6 0h2m2 0h1m2 0h2m2 0h2m3 0h2m1 0h1m2 0h1m1 0h1m2 0h2m1 0h3m1 0h3M4 41.5h4m1 0h1m2 0h4m1 0h1m1 0h2m1 0h3m9 0h7m1 0h1m2 0h2m3 0h2m1 0h2m1 0h3m1 0h1m1 0h1m2 0h1m2 0h1m2 0h3m1 0h1m3 0h3m2 0h4m1 0h1m1 0h3m2 0h2m3 0h1m1 0h2m1 0h3M8 42.5h1m1 0h1m1 0h3m2 0h1m1 0h4m1 0h1m3 0h1m1 0h1m4 0h1m1 0h3m2 0h3m3 0h1m4 0h1m2 0h3m2 0h3m3 0h2m1 0h2m1 0h4m1 0h2m2 0h1m2 0h1m1 0h3m5 0h1m1 0h2m7 0h1m1 0h1M4 43.5h4m5 0h1m1 0h1m1 0h5m5 0h1m1 0h6m3 0h1m1 0h13m2 0h1m3 0h2m1 0h2m4 0h2m4 0h2m1 0h4m1 0h6m2 0h1m1 0h1m1 0h4m1 0h2m3 0h1M5 44.5h1m1 0h2m1 0h5m1 0h2m4 0h2m5 0h4m3 0h3m1 0h4m4 0h1m1 0h3m1 0h1m1 0h1m1 0h2m3 0h4m4 0h2m1 0h1m2 0h2m3 0h1m1 0h5m4 0h1m2 0h4m4 0h1m2 0h1M5 45.5h2m1 0h2m2 0h4m1 0h1m3 0h1m3 0h2m1 0h2m2 0h1m1 0h5m3 0h1m2 0h1m1 0h2m2 0h1m1 0h1m1 0h1m1 0h2m2 0h2m1 0h2m1 0h1m2 0h3m1 0h1m1 0h2m1 0h1m2 0h2m2 0h1m1 0h2m3 0h3m2 0h1m3 0h2m2 0h1M4 46.5h3m1 0h1m1 0h3m4 0h3m1 0h1m1 0h1m1 0h4m7 0h3m1 0h2m1 0h1m4 0h1m1 0h1m1 0h3m1 0h2m3 0h1m2 0h3m1 0h1m2 0h1m1 0h1m1 0h1m1 0h1m1 0h3m3 0h1m1 0h1m1 0h4m4 0h1m1 0h1m3 0h2m1 0h1M5 47.5h1m2 0h1m2 0h1m1 0h1m1 0h1m2 0h1m2 0h1m11 0h2m1 0h1m1 0h1m1 0h1m1 0h1m1 0h2m1 0h1m1 0h3m3 0h2m3 0h3m2 0h4m2 0h1m1 0h5m3 0h1m1 0h4m2 0h6m1 0h5m2 0h1m2 0h2M5 48.5h3m2 0h7m1 0h1m3 0h1m4 0h3m1 0h3m1 0h3m2 0h2m1 0h3m1 0h1m1 0h3m1 0h2m1 0h4m3 0h1m2 0h1m1 0h1m1 0h6m1 0h1m2 0h3m1 0h1m6 0h2m1 0h2m3 0h1m1 0h1m4 0h3M4 49.5h1m1 0h2m5 0h1m2 0h1m2 0h1m2 0h1m2 0h2m1 0h1m2 0h5m4 0h3m6 0h2m1 0h2m1 0h1m5 0h1m2 0h1m1 0h1m2 0h2m1 0h1m2 0h1m4 0h2m1 0h1m1 0h2m2 0h1m2 0h1m1 0h1m1 0h1m2 0h1m3 0h6M4 50.5h1m4 0h2m2 0h2m2 0h5m2 0h1m2 0h2m2 0h1m1 0h4m4 0h1m2 0h1m1 0h1m1 0h1m4 0h2m1 0h3m3 0h2m1 0h2m1 0h2m2 0h1m1 0h1m4 0h2m2 0h1m7 0h3m1 0h1m1 0h3m1 0h2m1 0h5M6 51.5h3m2 0h3m2 0h5m3 0h2m1 0h1m2 0h1m1 0h1m1 0h1m3 0h2m4 0h2m4 0h2m1 0h2m1 0h1m1 0h1m1 0h2m2 0h1m2 0h1m4 0h2m1 0h2m3 0h1m1 0h1m3 0h1m2 0h1m1 0h1m4 0h2m4 0h2m1 0h1m2 0h1M4 52.5h2m2 0h6m1 0h1m1 0h1m4 0h3m3 0h5m1 0h2m1 0h1m1 0h2m3 0h1m1 0h1m1 0h1m1 0h1m1 0h7m3 0h1m2 0h1m2 0h4m4 0h5m3 0h9m1 0h12m2 0h1M8 53.5h1m3 0h1m1 0h12m2 0h1m3 0h1m1 0h1m2 0h2m1 0h1m1 0h1m1 0h2m2 0h5m3 0h1m2 0h1m3 0h1m1 0h3m1 0h2m1 0h1m1 0h1m1 0h1m3 0h1m2 0h1m3 0h4m2 0h1m3 0h1m2 0h1m3 0h2m1 0h2M5 54.5h4m1 0h1m1 0h4m4 0h1m2 0h1m1 0h1m2 0h1m1 0h1m1 0h3m3 0h1m2 0h1m1 0h3m2 0h1m1 0h3m1 0h1m1 0h3m1 0h1m2 0h1m1 0h2m1 0h1m4 0h4m1 0h1m1 0h3m1 0h7m1 0h4m1 0h1m1 0h2m1 0h1m1 0h2m2 0h1M4 55.5h1m1 0h1m1 0h1m3 0h5m1 0h1m2 0h2m1 0h1m3 0h1m3 0h4m2 0h1m4 0h3m1 0h1m1 0h4m3 0h3m4 0h4m1 0h2m4 0h3m3 0h2m1 0h2m1 0h1m1 0h1m1 0h2m1 0h1m2 0h2m1 0h2m3 0h1m1 0h3M4 56.5h1m1 0h1m1 0h7m2 0h1m2 0h2m3 0h8m1 0h3m3 0h1m3 0h3m1 0h1m2 0h11m1 0h1m1 0h4m3 0h2m2 0h5m1 0h1m4 0h1m1 0h5m1 0h4m1 0h5m1 0h2M5 57.5h3m1 0h1m1 0h2m2 0h1m4 0h1m3 0h1m1 0h1m2 0h1m1 0h1m5 0h5m1 0h5m2 0h1m2 0h1m3 0h1m8 0h1m1 0h2m2 0h1m1 0h4m4 0h1m1 0h4m2 0h1m1 0h4m2 0h1m1 0h2m2 0h2M4 58.5h1m2 0h2m1 0h1m1 0h2m1 0h1m1 0h2m4 0h1m5 0h1m1 0h2m2 0h1m2 0h1m2 0h2m1 0h1m1 0h1m1 0h4m1 0h1m1 0h1m2 0h4m2 0h1m2 0h2m2 0h3m1 0h1m1 0h3m1 0h1m1 0h2m1 0h1m1 0h1m2 0h3m2 0h2m3 0h1m1 0h4M6 59.5h2m3 0h1m2 0h1m2 0h1m1 0h1m1 0h1m1 0h4m6 0h3m2 0h1m4 0h2m2 0h1m2 0h2m1 0h4m1 0h4m1 0h1m1 0h1m3 0h1m2 0h3m2 0h2m1 0h4m4 0h3m3 0h2m2 0h1m2 0h4m2 0h1M6 60.5h1m2 0h4m4 0h1m1 0h2m1 0h2m1 0h4m1 0h1m4 0h1m1 0h2m1 0h1m1 0h2m1 0h1m6 0h1m2 0h1m1 0h1m1 0h2m2 0h2m3 0h2m1 0h2m2 0h2m1 0h1m3 0h2m3 0h8m1 0h3m3 0h3M6 61.5h4m5 0h2m1 0h2m1 0h1m1 0h5m3 0h2m1 0h1m3 0h1m1 0h2m10 0h1m1 0h1m5 0h2m1 0h1m2 0h5m2 0h1m1 0h1m1 0h1m3 0h4m1 0h1m2 0h1m1 0h1m2 0h1m1 0h2m1 0h6m2 0h1M9 62.5h4m3 0h1m6 0h2m2 0h2m1 0h2m1 0h1m1 0h2m1 0h1m2 0h1m1 0h1m2 0h1m1 0h2m2 0h1m1 0h1m1 0h1m1 0h6m2 0h8m2 0h1m1 0h2m4 0h1m1 0h1m1 0h3m4 0h2m2 0h7m1 0h1M4 63.5h1m2 0h1m1 0h1m1 0h1m2 0h1m1 0h3m1 0h1m2 0h2m1 0h2m2 0h1m3 0h1m2 0h1m2 0h2m1 0h2m1 0h3m2 0h1m3 0h2m2 0h2m1 0h1m2 0h1m2 0h3m3 0h2m5 0h1m5 0h2m2 0h2m2 0h1m2 0h3m7 0h1M5 64.5h1m2 0h1m1 0h1m4 0h1m6 0h2m2 0h2m1 0h1m7 0h2m1 0h3m1 0h2m1 0h7m1 0h4m1 0h1m3 0h1m2 0h1m1 0h3m2 0h6m3 0h1m3 0h2m1 0h1m2 0h2m1 0h1m1 0h1m3 0h1m4 0h2M4 65.5h1m1 0h2m1 0h1m2 0h4m1 0h1m2 0h1m3 0h3m1 0h1m2 0h3m1 0h2m1 0h1m1 0h3m1 0h1m1 0h1m1 0h1m1 0h1m2 0h1m3 0h3m1 0h1m1 0h4m1 0h1m3 0h1m3 0h1m3 0h1m1 0h4m3 0h10m7 0h1M5 66.5h8m2 0h3m1 0h1m1 0h4m1 0h2m1 0h2m1 0h5m2 0h1m1 0h2m1 0h4m2 0h1m3 0h1m1 0h1m1 0h1m2 0h3m3 0h2m5 0h6m1 0h1m4 0h1m1 0h1m2 0h1m1 0h1m1 0h1m1 0h5m1 0h4m1 0h1M4 67.5h1m2 0h1m1 0h1m1 0h3m3 0h3m1 0h7m3 0h2m1 0h2m1 0h2m2 0h1m1 0h1m7 0h1m3 0h4m1 0h1m1 0h1m2 0h2m2 0h1m1 0h3m1 0h2m3 0h3m3 0h3m3 0h2m1 0h1m6 0h1m2 0h1m1 0h2M5 68.5h1m1 0h2m1 0h1m2 0h5m1 0h4m1 0h2m1 0h2m1 0h1m1 0h1m1 0h1m2 0h1m2 0h3m1 0h1m1 0h1m1 0h1m3 0h1m2 0h5m5 0h1m2 0h4m2 0h2m1 0h2m1 0h3m2 0h1m2 0h1m4 0h2m1 0h1m1 0h1m2 0h2m1 0h1m1 0h3M7 69.5h3m1 0h1m7 0h1m1 0h1m2 0h3m2 0h2m1 0h2m1 0h1m1 0h1m1 0h3m1 0h7m1 0h4m1 0h1m3 0h1m2 0h2m1 0h1m2 0h1m3 0h3m1 0h1m1 0h1m2 0h3m2 0h3m1 0h1m1 0h2m5 0h1m1 0h7M4 70.5h1m2 0h1m1 0h3m3 0h1m6 0h3m1 0h6m4 0h2m1 0h1m1 0h1m1 0h2m3 0h1m2 0h3m1 0h1m5 0h1m2 0h2m2 0h1m2 0h1m1 0h4m1 0h1m1 0h2m1 0h1m1 0h9m1 0h3m1 0h1m1 0h1m1 0h2M8 71.5h2m1 0h2m2 0h2m1 0h1m2 0h2m2 0h1m1 0h3m1 0h1m2 0h3m3 0h2m2 0h1m2 0h1m1 0h1m3 0h3m2 0h1m3 0h2m1 0h1m2 0h1m2 0h1m1 0h1m2 0h1m3 0h2m2 0h2m1 0h6m3 0h3m1 0h1m2 0h1m1 0h1M4 72.5h2m2 0h3m1 0h2m2 0h6m8 0h1m2 0h1m2 0h1m1 0h1m1 0h2m1 0h2m1 0h4m1 0h2m5 0h1m1 0h1m2 0h1m1 0h6m2 0h2m1 0h4m1 0h1m1 0h4m2 0h1m2 0h1m1 0h1m3 0h5m2 0h1m1 0h2M4 73.5h2m1 0h1m3 0h4m2 0h1m2 0h2m3 0h2m1 0h1m1 0h1m1 0h1m2 0h1m2 0h2m7 0h1m4 0h7m4 0h2m1 0h3m1 0h3m3 0h1m2 0h5m3 0h3m2 0h1m1 0h1m1 0h1m1 0h1m1 0h2m2 0h2m1 0h2M4 74.5h3m1 0h4m7 0h1m2 0h2m1 0h2m4 0h2m1 0h1m2 0h2m1 0h1m1 0h4m2 0h1m3 0h1m1 0h2m1 0h1m1 0h1m1 0h1m1 0h1m2 0h1m4 0h1m1 0h1m4 0h1m4 0h1m1 0h7m1 0h2m2 0h1m1 0h1m2 0h2m2 0h3M6 75.5h2m5 0h9m2 0h1m1 0h1m5 0h2m2 0h3m3 0h3m2 0h1m1 0h2m1 0h5m2 0h1m5 0h4m4 0h1m1 0h2m3 0h1m2 0h1m1 0h1m1 0h1m2 0h1m1 0h1m8 0h6M4 76.5h1m1 0h1m1 0h6m2 0h1m1 0h1m1 0h1m6 0h7m2 0h3m1 0h3m1 0h1m2 0h1m4 0h7m1 0h2m1 0h1m3 0h2m2 0h4m1 0h5m2 0h3m1 0h1m2 0h2m1 0h1m6 0h7m1 0h1M8 77.5h1m3 0h1m1 0h1m1 0h2m4 0h1m2 0h1m1 0h2m3 0h1m2 0h2m1 0h1m5 0h1m3 0h2m2 0h1m3 0h5m2 0h1m3 0h2m5 0h1m1 0h1m3 0h1m1 0h1m4 0h1m1 0h2m1 0h3m1 0h1m1 0h3m3 0h1m2 0h2M5 78.5h1m1 0h2m1 0h1m1 0h1m3 0h1m1 0h2m2 0h2m2 0h1m1 0h1m1 0h1m1 0h1m6 0h3m1 0h2m4 0h2m1 0h1m1 0h1m1 0h1m2 0h1m1 0h3m1 0h3m1 0h1m1 0h2m2 0h2m1 0h1m1 0h1m5 0h1m3 0h1m2 0h1m1 0h1m1 0h4m1 0h1m1 0h2m1 0h1M5 79.5h2m1 0h1m3 0h2m1 0h1m2 0h1m2 0h4m1 0h3m3 0h6m4 0h1m1 0h2m4 0h1m1 0h1m3 0h1m5 0h2m2 0h1m1 0h1m1 0h7m3 0h2m3 0h1m1 0h2m1 0h3m3 0h5m3 0h2M4 80.5h1m2 0h6m1 0h1m3 0h4m1 0h2m3 0h5m2 0h1m3 0h1m2 0h1m1 0h5m1 0h7m3 0h6m2 0h1m3 0h1m1 0h9m5 0h1m2 0h2m2 0h10m1 0h1m1 0h1M4 81.5h3m1 0h1m2 0h2m1 0h3m2 0h1m4 0h1m1 0h1m6 0h2m2 0h1m2 0h3m1 0h1m1 0h1m1 0h1m2 0h2m1 0h1m3 0h3m1 0h1m2 0h3m3 0h1m2 0h1m1 0h1m1 0h1m1 0h2m2 0h1m2 0h3m3 0h2m2 0h1m1 0h1m1 0h1m2 0h5M5 82.5h2m2 0h2m1 0h1m7 0h3m1 0h2m2 0h3m3 0h1m2 0h1m3 0h2m1 0h1m2 0h1m1 0h1m1 0h1m1 0h1m1 0h1m1 0h2m1 0h1m1 0h2m2 0h2m1 0h3m1 0h2m1 0h1m1 0h1m1 0h2m3 0h1m2 0h1m1 0h1m8 0h1m1 0h1m2 0h2m1 0h1M5 83.5h3m3 0h2m2 0h3m1 0h1m2 0h3m2 0h1m1 0h1m3 0h1m2 0h2m3 0h3m1 0h1m4 0h4m1 0h1m1 0h1m2 0h4m7 0h1m1 0h3m1 0h1m1 0h3m2 0h3m2 0h1m1 0h3m1 0h3m3 0h3m1 0h1m2 0h1M6 84.5h1m1 0h1m1 0h2m3 0h2m1 0h1m2 0h1m1 0h2m7 0h3m1 0h1m3 0h1m1 0h1m3 0h4m2 0h2m1 0h1m1 0h1m1 0h3m2 0h4m1 0h1m3 0h2m2 0h2m3 0h1m5 0h4m4 0h2m1 0h2m4 0h2m1 0h1M8 85.5h1m2 0h1m1 0h2m2 0h1m6 0h2m1 0h2m1 0h1m1 0h1m1 0h2m3 0h8m6 0h2m1 0h1m1 0h1m3 0h1m2 0h1m2 0h1m3 0h2m1 0h3m4 0h1m1 0h1m1 0h2m6 0h2m1 0h3m4 0h5M5 86.5h1m1 0h1m1 0h4m1 0h2m9 0h1m2 0h2m1 0h1m2 0h2m1 0h1m1 0h1m1 0h1m1 0h1m1 0h1m4 0h2m2 0h3m1 0h3m5 0h3m1 0h1m1 0h1m1 0h1m1 0h1m2 0h4m1 0h3m2 0h1m2 0h4m2 0h2m3 0h1m3 0h1M4 87.5h2m2 0h1m2 0h2m2 0h6m1 0h1m1 0h2m5 0h1m1 0h1m3 0h2m1 0h2m2 0h1m3 0h2m1 0h1m1 0h4m1 0h3m1 0h2m2 0h2m1 0h1m1 0h4m4 0h1m2 0h2m1 0h1m2 0h1m3 0h3m1 0h1m1 0h1m2 0h2m4 0h2M8 88.5h1m1 0h1m1 0h1m1 0h2m2 0h1m1 0h3m4 0h2m1 0h1m2 0h1m1 0h1m2 0h1m3 0h5m1 0h6m2 0h1m1 0h1m1 0h2m1 0h2m1 0h3m2 0h1m1 0h4m1 0h5m1 0h2m2 0h4m2 0h1m3 0h1m2 0h1m1 0h2m1 0h3M5 89.5h2m2 0h1m1 0h1m1 0h1m1 0h1m5 0h1m1 0h8m2 0h1m2 0h4m1 0h2m2 0h3m1 0h2m1 0h1m2 0h2m4 0h2m1 0h2m3 0h1m1 0h2m3 0h9m2 0h2m1 0h3m2 0h1m1 0h1m1 0h2m1 0h2m1 0h3M4 90.5h2m1 0h4m2 0h1m3 0h1m4 0h2m1 0h5m3 0h3m2 0h2m3 0h1m2 0h1m2 0h1m5 0h1m2 0h4m2 0h2m2 0h1m3 0h3m2 0h1m1 0h2m1 0h1m1 0h4m1 0h1m1 0h1m1 0h1m2 0h1m1 0h3m1 0h2m1 0h2m1 0h1M4 91.5h5m2 0h4m1 0h1m1 0h1m2 0h1m1 0h1m2 0h1m1 0h1m2 0h1m1 0h2m4 0h2m3 0h1m4 0h2m1 0h1m2 0h3m2 0h1m2 0h1m2 0h3m1 0h4m1 0h1m2 0h3m1 0h1m1 0h1m2 0h2m3 0h6m3 0h2m1 0h1m1 0h1M4 92.5h1m3 0h4m3 0h1m1 0h5m1 0h1m1 0h1m1 0h3m1 0h1m2 0h3m2 0h4m1 0h1m3 0h2m1 0h3m3 0h4m2 0h2m3 0h2m4 0h2m7 0h3m2 0h2m1 0h1m3 0h2m4 0h1m4 0h3M8 93.5h1m4 0h4m4 0h2m2 0h7m5 0h3m2 0h3m1 0h1m2 0h1m2 0h1m1 0h1m1 0h1m1 0h2m1 0h2m2 0h1m6 0h2m2 0h1m1 0h1m1 0h3m1 0h1m1 0h1m2 0h2m1 0h4m2 0h1m1 0h1m1 0h1m1 0h2m1 0h2M6 94.5h1m3 0h1m4 0h2m1 0h1m1 0h1m3 0h6m4 0h1m4 0h1m3 0h5m1 0h1m1 0h3m2 0h2m2 0h1m1 0h1m2 0h2m1 0h1m2 0h1m4 0h1m1 0h1m1 0h1m2 0h1m1 0h1m4 0h8m1 0h1m4 0h1M4 95.5h2m1 0h1m1 0h1m1 0h1m5 0h3m1 0h2m2 0h2m2 0h3m2 0h2m1 0h5m3 0h1m2 0h2m1 0h1m1 0h1m3 0h1m3 0h1m5 0h2m3 0h1m2 0h1m2 0h1m1 0h3m1 0h4m1 0h1m7 0h1m1 0h2m1 0h1M4 96.5h8m1 0h3m4 0h1m1 0h1m2 0h1m1 0h2m6 0h1m8 0h1m1 0h1m2 0h1m4 0h2m1 0h2m1 0h1m1 0h6m3 0h1m2 0h1m1 0h1m2 0h5m5 0h1m2 0h3m2 0h2m4 0h1m2 0h1m1 0h1M4 97.5h5m3 0h4m1 0h2m3 0h2m1 0h2m1 0h1m2 0h1m1 0h4m1 0h1m1 0h2m1 0h3m1 0h4m2 0h2m1 0h1m2 0h1m2 0h1m1 0h1m4 0h2m1 0h1m1 0h1m1 0h2m4 0h1m1 0h1m1 0h3m1 0h1m3 0h3m3 0h1m3 0h1m1 0h2M4 98.5h3m3 0h1m1 0h2m2 0h2m1 0h1m1 0h1m3 0h1m1 0h3m1 0h1m2 0h2m1 0h1m5 0h1m5 0h2m2 0h3m1 0h4m1 0h2m2 0h2m5 0h1m2 0h3m1 0h2m4 0h1m2 0h1m2 0h4m2 0h1m2 0h1m1 0h2m1 0h3M6 99.5h1m1 0h2m2 0h2m2 0h4m2 0h1m1 0h1m1 0h1m1 0h4m1 0h2m3 0h4m1 0h1m3 0h4m1 0h1m2 0h1m1 0h1m1 0h3m1 0h1m2 0h6m2 0h5m1 0h1m2 0h3m4 0h1m2 0h1m1 0h1m2 0h3m1 0h1m1 0h2M7 100.5h2m1 0h3m1 0h4m2 0h2m4 0h1m1 0h6m1 0h1m4 0h1m1 0h4m3 0h1m1 0h7m3 0h2m1 0h2m1 0h1m3 0h1m1 0h1m2 0h5m1 0h1m1 0h2m1 0h1m2 0h1m6 0h1m2 0h6m1 0h1M12 101.5h2m1 0h1m1 0h2m1 0h2m1 0h1m2 0h3m3 0h1m4 0h1m1 0h4m1 0h1m1 0h3m3 0h1m3 0h4m2 0h1m2 0h1m4 0h2m1 0h1m2 0h1m3 0h1m1 0h2m1 0h1m1 0h1m2 0h1m2 0h1m2 0h1m1 0h1m1 0h1m3 0h1m1 0h1M4 102.5h7m6 0h3m2 0h7m1 0h1m1 0h2m1 0h4m2 0h1m2 0h3m2 0h1m2 0h1m1 0h1m1 0h1m1 0h1m4 0h2m2 0h5m3 0h2m1 0h1m1 0h2m1 0h1m2 0h1m1 0h2m3 0h3m3 0h2m1 0h1m1 0h1m1 0h1M4 103.5h1m5 0h1m1 0h2m3 0h1m1 0h2m1 0h1m1 0h1m2 0h2m3 0h2m4 0h1m3 0h4m1 0h2m2 0h2m3 0h1m4 0h2m1 0h1m2 0h1m1 0h1m5 0h2m3 0h1m3 0h1m2 0h1m1 0h2m1 0h3m4 0h2m3 0h1m1 0h2M4 104.5h1m1 0h3m1 0h1m1 0h3m4 0h3m1 0h3m2 0h5m1 0h2m2 0h4m5 0h1m4 0h7m2 0h5m1 0h2m3 0h3m1 0h5m2 0h1m1 0h1m1 0h3m2 0h1m2 0h11m1 0h2M4 105.5h1m1 0h3m1 0h1m2 0h1m2 0h3m1 0h3m1 0h1m2 0h1m1 0h3m2 0h1m1 0h4m1 0h1m4 0h1m2 0h1m1 0h2m2 0h1m2 0h2m3 0h1m1 0h1m2 0h1m2 0h2m1 0h1m1 0h5m1 0h1m1 0h2m1 0h2m1 0h1m1 0h2m3 0h1m4 0h1m2 0h4M4 106.5h1m1 0h3m1 0h1m6 0h1m1 0h2m1 0h2m3 0h1m1 0h1m2 0h2m2 0h1m1 0h1m2 0h1m2 0h7m1 0h2m1 0h2m1 0h1m1 0h2m2 0h1m2 0h1m3 0h3m1 0h1m1 0h1m1 0h1m4 0h1m2 0h1m1 0h1m2 0h2m3 0h3m2 0h1m2 0h1M4 107.5h1m5 0h1m1 0h4m6 0h1m2 0h3m3 0h4m3 0h2m3 0h2m2 0h1m1 0h1m1 0h1m6 0h1m4 0h2m2 0h3m4 0h7m1 0h1m1 0h5m2 0h2m3 0h1m1 0h3m1 0h1m1 0h1M4 108.5h7m1 0h1m2 0h2m2 0h1m3 0h1m1 0h1m1 0h5m2 0h3m1 0h2m2 0h2m1 0h1m1 0h1m2 0h2m1 0h2m1 0h2m2 0h1m5 0h3m1 0h1m4 0h1m1 0h4m1 0h4m1 0h1m1 0h3m3 0h2m3 0h1m5 0h1m1 0h1"/></svg>
