<svg xmlns="http://www.w3.org/2000/svg" viewBox="0 0 97 97" shape-rendering="crispEdges"><path fill="#ffffff" d="M0 0h97v97H0z"/><path stroke="#000000" d="M4 4.5h7m1 0h2m2 0h1m2 0h1m1 0h1m1 0h1m1 0h2m2 0h2m2 0h2m2 0h2m1 0h1m1 0h1m3 0h4m1 0h1m1 0h1m3 0h3m1 0h2m3 0h4m1 0h3m3 0h1m1 0h1m2 0h3m1 0h7M4 5.5h1m5 0h1m2 0h1m1 0h1m1 0h1m2 0h3m1 0h1m1 0h1m1 0h3m2 0h2m1 0h1m2 0h2m1 0h5m2 0h1m3 0h1m1 0h1m3 0h3m4 0h4m11 0h1m1 0h1m2 0h1m5 0h1M4 6.5h1m1 0h3m1 0h1m5 0h4m2 0h1m1 0h2m1 0h1m1 0h2m1 0h2m3 0h2m3 0h1m3 0h1m2 0h7m1 0h1m1 0h2m1 0h3m2 0h2m1 0h3m3 0h1m4 0h1m4 0h1m1 0h3m1 0h1M4 7.5h1m1 0h3m1 0h1m2 0h1m2 0h1m2 0h2m1 0h1m3 0h1m13 0h2m1 0h1m4 0h3m1 0h1m7 0h1m1 0h1m1 0h2m1 0h1m1 0h1m2 0h4m1 0h3m2 0h1m1 0h1m1 0h1m1 0h3m1 0h1M4 8.5h1m1 0h3m1 0h1m3 0h3m2 0h2m3 0h1m2 0h1m1 0h1m1 0h8m2 0h1m4 0h1m8 0h1m2 0h5m1 0h2m2 0h2m1 0h1m2 0h2m4 0h2m1 0h1m2 0h1m1 0h3m1 0h1M4 9.5h1m5 0h1m2 0h3m1 0h1m2 0h2m2 0h2m4 0h1m1 0h1m3 0h1m1 0h2m3 0h1m1 0h2m1 0h2m4 0h2m1 0h2m3 0h2m4 0h3m1 0h4m1 0h2m1 0h1m2 0h1m2 0h1m5 0h1M4 10.5h7m1 0h1m1 0h1m1 0h1m1 0h1m1 0h1m1 0h1m1 0h1m1 0h1m1 0h1m1 0h1m1 0h1m1 0h1m1 0h1m1 0h1m1 0h1m1 0h1m1 0h1m1 0h1m1 0h1m1 0h1m1 0h1m1 0h1m1 0h1m1 0h1m1 0h1m1 0h1m1 0h1m1 0h1m1 0h1m1 0h1m1 0h1m1 0h1m1 0h1m1 0h1m1 0h1m1 0h1m1 0h1m1 0h7M12 11.5h6m1 0h1m3 0h2m1 0h1m2 0h2m1 0h1m3 0h1m1 0h6m2 0h3m2 0h1m1 0h2m2 0h2m3 0h1m5 0h1m1 0h1m1 0h1m1 0h1m1 0h5m3 0h1M4 12.5h2m1 0h2m1 0h1m3 0h1m1 0h1m2 0h1m1 0h2m1 0h1m2 0h3m2 0h5m2 0h7m1 0h1m1 0h2m3 0h2m2 0h7m2 0h2m3 0h1m2 0h5m1 0h1m1 0h1m2 0h1m5 0h1M7 13.5h1m4 0h1m1 0h2m1 0h1m3 0h4m1 0h2m3 0h1m3 0h6m1 0h1m2 0h2m1 0h2m2 0h1m2 0h1m1 0h8m2 0h2m1 0h1m1 0h3m1 0h2m2 0h1m1 0h2m1 0h1m1 0h1m1 0h1m2 0h1M4 14.5h2m1 0h2m1 0h1m1 0h4m6 0h1m2 0h4m1 0h1m4 0h1m8 0h1m1 0h3m1 0h1m1 0h1m2 0h1m4 0h2m2 0h1m4 0h1m1 0h1m1 0h1m3 0h2m2 0h4m4 0h4M7 15.5h1m3 0h1m1 0h3m1 0h1m1 0h1m1 0h1m3 0h1m1 0h3m4 0h2m5 0h3m4 0h1m3 0h1m1 0h1m1 0h3m2 0h1m1 0h2m1 0h1m3 0h2m2 0h2m1 0h1m1 0h1m4 0h5m3 0h1M5 16.5h1m2 0h1m1 0h2m1 0h2m2 0h1m4 0h1m4 0h1m2 0h1m1 0h4m1 0h2m1 0h8m1 0h4m1 0h2m1 0h2m3 0h1m1 0h1m3 0h2m2 0h1m2 0h2m1 0h1m1 0h2m1 0h9M6 17.5h1m1 0h1m5 0h2m1 0h2m2 0h2m1 0h1m3 0h4m2 0h2m2 0h3m1 0h1m3 0h3m1 0h1m1 0h5m7 0h2m1 0h2m1 0h2m1 0h1m4 0h1m3 0h1m5 0h1m3 0h1M4 18.5h2m4 0h1m1 0h1m1 0h1m2 0h1m4 0h1m1 0h1m1 0h1m3 0h1m2 0h7m2 0h1m2 0h5m5 0h3m1 0h2m1 0h1m2 0h1m1 0h1m1 0h3m5 0h3m3 0h4m1 0h1m3 0h1M11 19.5h1m2 0h1m1 0h1m2 0h2m2 0h1m3 0h4m1 0h8m1 0h2m1 0h2m1 0h2m2 0h2m3 0h1m2 0h2m5 0h3m1 0h1m1 0h1m1 0h1m2 0h1m1 0h1m1 0h1m3 0h2m2 0h3M4 20.5h1m1 0h1m2 0h2m2 0h3m1 0h6m2 0h5m1 0h1m5 0h3m5 0h3m2 0h1m1 0h3m2 0h2m2 0h3m1 0h1m1 0h1m1 0h1m1 0h1m1 0h4m4 0h2m1 0h1m2 0h1m3 0h1M7 21.5h3m1 0h3m2 0h2m1 0h4m1 0h1m2 0h1m1 0h1m3 0h1m1 0h1m2 0h1m1 0h2m1 0h1m1 0h1m1 0h1m1 0h3m2 0h1m1 0h2m6 0h1m3 0h1m1 0h3m1 0h2m10 0h4m2 0h1M7 22.5h1m1 0h7m1 0h1m1 0h4m1 0h4m1 0h4m1 0h2m2 0h1m1 0h1m1 0h1m1 0h2m2 0h5m1 0h2m2 0h2m4 0h1m1 0h2m1 0h2m2 0h1m2 0h1m3 0h1m2 0h2m1 0h6M6 23.5h2m5 0h1m4 0h1m2 0h2m1 0h1m1 0h1m2 0h3m1 0h2m1 0h1m1 0h3m1 0h1m1 0h1m3 0h1m6 0h1m8 0h2m6 0h1m3 0h2m2 0h2m2 0h1m2 0h1m1 0h3M9 24.5h2m2 0h1m2 0h1m1 0h1m1 0h1m1 0h1m1 0h2m1 0h2m1 0h2m1 0h1m4 0h1m4 0h2m1 0h3m2 0h1m2 0h2m1 0h7m1 0h2m1 0h1m1 0h2m2 0h1m1 0h2m1 0h1m1 0h1m2 0h1m2 0h5M4 25.5h1m2 0h2m2 0h1m1 0h1m1 0h1m4 0h3m6 0h2m2 0h1m2 0h1m1 0h1m1 0h3m1 0h1m1 0h1m4 0h2m1 0h5m5 0h1m1 0h1m1 0h3m1 0h3m4 0h1m1 0h2m2 0h3m1 0h1M4 26.5h1m4 0h7m1 0h1m2 0h3m1 0h2m1 0h5m1 0h2m1 0h1m2 0h2m1 0h6m1 0h1m1 0h1m1 0h1m1 0h2m1 0h1m1 0h3m2 0h2m2 0h1m1 0h1m5 0h1m1 0h1m5 0h1m4 0h2M4 27.5h6m3 0h1m1 0h1m1 0h3m2 0h2m1 0h1m1 0h3m4 0h1m5 0h1m3 0h1m3 0h1m5 0h3m1 0h2m5 0h1m4 0h1m2 0h1m1 0h4m2 0h1m1 0h1m1 0h2m1 0h1m1 0h3M4 28.5h1m1 0h1m1 0h3m2 0h1m3 0h1m2 0h1m2 0h1m1 0h1m4 0h1m2 0h3m1 0h1m2 0h1m1 0h1m1 0h1m4 0h2m1 0h1m2 0h3m1 0h1m5 0h1m4 0h2m1 0h1m3 0h4m1 0h1m1 0h1m3 0h1m1 0h3M4 29.5h2m2 0h1m3 0h1m2 0h1m3 0h1m1 0h1m2 0h1m2 0h1m1 0h5m1 0h1m2 0h1m2 0h3m2 0h4m2 0h2m3 0h1m2 0h1m3 0h2m6 0h1m3 0h1m5 0h1m1 0h2m1 0h1m1 0h1m2 0h1M6 30.5h1m2 0h6m1 0h1m1 0h2m1 0h2m1 0h2m1 0h1m1 0h1m2 0h1m1 0h1m2 0h10m7 0h2m1 0h3m2 0h5m1 0h2m2 0h2m1 0h2m1 0h1m2 0h2m6 0h1m1 0h1M4 31.5h1m1 0h1m2 0h1m1 0h1m4 0h4m2 0h2m4 0h1m1 0h2m1 0h1m4 0h2m1 0h2m3 0h3m4 0h2m2 0h6m2 0h1m3 0h2m5 0h2m1 0h1m2 0h2m5 0h4M4 32.5h1m1 0h1m1 0h7m1 0h3m1 0h3m1 0h2m2 0h2m2 0h5m2 0h1m4 0h1m1 0h1m1 0h1m1 0h2m1 0h2m2 0h6m3 0h3m1 0h1m1 0h3m1 0h4m1 0h8M8 33.5h1m3 0h1m3 0h3m1 0h3m1 0h1m1 0h1m2 0h1m2 0h1m3 0h4m1 0h1m1 0h3m3 0h1m1 0h1m1 0h2m1 0h3m3 0h3m1 0h2m1 0h3m6 0h5m1 0h1m3 0h1m1 0h1m1 0h1M4 34.5h1m3 0h1m1 0h1m1 0h1m1 0h1m1 0h2m2 0h1m2 0h4m1 0h5m1 0h1m1 0h4m1 0h2m2 0h2m1 0h2m2 0h2m2 0h3m1 0h1m1 0h1m1 0h2m1 0h2m1 0h2m2 0h1m1 0h1m1 0h1m1 0h1m2 0h2m1 0h1m1 0h5M4 35.5h1m1 0h3m3 0h2m5 0h2m1 0h2m2 0h4m2 0h1m3 0h1m3 0h1m1 0h1m1 0h1m1 0h2m1 0h6m2 0h2m3 0h1m1 0h3m2 0h2m4 0h1m4 0h5m3 0h1m1 0h1m1 0h1M4 36.5h1m1 0h7m2 0h3m1 0h3m2 0h1m1 0h5m1 0h5m1 0h1m1 0h1m2 0h1m1 0h1m3 0h1m3 0h1m1 0h1m1 0h8m1 0h3m2 0h1m1 0h2m1 0h2m2 0h3m1 0h6m2 0h1M8 37.5h1m3 0h1m1 0h1m1 0h1m1 0h2m1 0h2m3 0h1m2 0h2m1 0h1m2 0h1m3 0h2m2 0h1m2 0h3m10 0h1m2 0h1m2 0h4m3 0h2m2 0h7m1 0h2m3 0h1m2 0h1M10 38.5h1m1 0h2m4 0h1m1 0h4m3 0h2m2 0h2m3 0h2m1 0h3m1 0h2m2 0h2m3 0h1m4 0h6m1 0h1m1 0h1m1 0h1m4 0h3m1 0h1m1 0h3m1 0h1m1 0h1m2 0h3M4 39.5h1m2 0h3m1 0h6m2 0h2m1 0h1m1 0h4m1 0h1m2 0h2m4 0h1m2 0h1m3 0h1m1 0h1m2 0h3m2 0h2m2 0h1m2 0h3m4 0h1m1 0h2m3 0h1m3 0h1m7 0h2M8 40.5h1m1 0h1m1 0h1m1 0h1m5 0h1m3 0h2m1 0h3m2 0h1m1 0h1m1 0h2m2 0h3m1 0h3m1 0h5m3 0h1m1 0h1m7 0h1m2 0h1m1 0h1m1 0h2m2 0h1m1 0h1m2 0h1m2 0h3m1 0h2m1 0h1M4 41.5h3m4 0h5m1 0h2m4 0h1m2 0h4m2 0h1m2 0h1m2 0h5m1 0h1m1 0h1m1 0h1m1 0h2m1 0h2m2 0h3m4 0h1m1 0h2m1 0h1m1 0h2m1 0h1m1 0h5m2 0h4m2 0h4M4 42.5h1m1 0h3m1 0h2m4 0h3m1 0h1m2 0h2m3 0h3m1 0h2m6 0h1m1 0h2m2 0h1m2 0h1m1 0h1m1 0h1m2 0h1m1 0h1m1 0h1m1 0h1m5 0h3m1 0h1m1 0h1m1 0h2m2 0h1m2 0h2m1 0h1m2 0h1m2 0h1M5 43.5h1m1 0h3m2 0h1m4 0h1m4 0h2m3 0h1m2 0h1m3 0h1m5 0h2m1 0h2m1 0h1m2 0h1m2 0h5m4 0h2m1 0h3m2 0h1m7 0h1m4 0h1m2 0h1m3 0h4M5 44.5h2m2 0h3m1 0h5m1 0h4m2 0h1m3 0h2m6 0h1m5 0h2m1 0h2m1 0h9m3 0h1m1 0h4m1 0h1m8 0h5m3 0h4m1 0h1M4 45.5h1m3 0h2m1 0h2m1 0h1m1 0h1m3 0h1m5 0h1m5 0h1m1 0h1m3 0h2m3 0h1m1 0h1m7 0h1m3 0h3m4 0h1m2 0h3m1 0h1m1 0h3m3 0h4m1 0h3m2 0h3M4 46.5h1m3 0h1m1 0h7m1 0h4m2 0h2m1 0h2m2 0h2m2 0h4m1 0h1m1 0h1m2 0h1m1 0h5m2 0h1m1 0h5m1 0h2m1 0h3m1 0h4m1 0h2m1 0h1m1 0h2m3 0h1m1 0h1m1 0h3m1 0h1M7 47.5h1m3 0h1m3 0h2m1 0h3m2 0h3m4 0h1m2 0h1m1 0h2m2 0h7m3 0h2m1 0h3m1 0h1m2 0h2m2 0h2m1 0h1m1 0h3m1 0h1m1 0h1m2 0h4m2 0h1m6 0h3M4 48.5h1m1 0h1m1 0h5m1 0h2m2 0h1m3 0h1m3 0h2m1 0h2m1 0h4m3 0h1m1 0h1m1 0h1m1 0h2m1 0h1m1 0h4m2 0h4m2 0h6m1 0h5m3 0h3m2 0h1m2 0h2m4 0h1M6 49.5h1m2 0h1m3 0h5m1 0h1m2 0h3m2 0h2m4 0h4m1 0h2m2 0h1m1 0h6m1 0h1m5 0h1m1 0h2m2 0h1m1 0h1m1 0h4m1 0h1m1 0h3m1 0h3m1 0h1m2 0h2m3 0h1M8 50.5h1m1 0h3m1 0h1m1 0h2m1 0h1m1 0h3m1 0h1m2 0h1m1 0h1m2 0h1m4 0h2m3 0h3m1 0h2m2 0h6m1 0h2m1 0h1m1 0h1m5 0h3m3 0h3m7 0h2m1 0h3m1 0h1M7 51.5h3m1 0h3m1 0h2m6 0h1m3 0h2m1 0h5m1 0h4m2 0h1m2 0h2m4 0h1m2 0h2m1 0h3m3 0h8m2 0h1m1 0h1m1 0h1m1 0h1m5 0h1m1 0h2m3 0h1M4 52.5h3m3 0h1m5 0h3m1 0h2m3 0h3m3 0h5m2 0h1m1 0h1m1 0h2m5 0h3m1 0h3m2 0h3m1 0h3m1 0h1m4 0h3m3 0h1m3 0h3m1 0h1m1 0h4M4 53.5h2m3 0h1m1 0h4m2 0h1m1 0h1m1 0h1m1 0h2m2 0h3m3 0h2m1 0h1m1 0h1m2 0h4m1 0h1m2 0h1m2 0h1m3 0h1m1 0h4m1 0h2m1 0h2m2 0h1m2 0h1m2 0h1m2 0h2m4 0h1m1 0h5M5 54.5h2m3 0h2m2 0h3m1 0h2m4 0h1m1 0h1m2 0h1m1 0h2m1 0h1m1 0h1m1 0h1m5 0h1m1 0h2m1 0h1m1 0h1m2 0h2m1 0h3m2 0h3m1 0h2m3 0h1m1 0h5m3 0h1m5 0h2m1 0h3M4 55.5h1m3 0h2m1 0h1m2 0h1m2 0h3m2 0h1m1 0h2m4 0h1m4 0h1m1 0h3m1 0h1m2 0h1m1 0h4m1 0h2m1 0h1m1 0h2m2 0h1m1 0h1m1 0h1m1 0h1m2 0h2m3 0h1m2 0h1m2 0h1m1 0h2m1 0h2m1 0h1m1 0h1m1 0h1M4 56.5h2m3 0h3m2 0h2m3 0h2m1 0h1m3 0h1m1 0h2m1 0h1m1 0h3m1 0h1m1 0h1m1 0h4m2 0h2m3 0h2m4 0h1m2 0h1m2 0h1m5 0h3m3 0h1m1 0h1m2 0h1m1 0h2m1 0h1m1 0h2m2 0h1M4 57.5h1m1 0h3m3 0h1m2 0h4m1 0h1m2 0h1m5 0h1m1 0h2m1 0h1m1 0h5m1 0h4m1 0h4m2 0h1m3 0h2m3 0h2m1 0h1m2 0h1m3 0h2m1 0h3m4 0h1m1 0h3m4 0h2M5 58.5h1m1 0h7m1 0h1m1 0h1m3 0h2m3 0h1m1 0h1m1 0h11m1 0h1m2 0h2m3 0h1m1 0h3m1 0h7m3 0h1m1 0h1m1 0h1m3 0h1m2 0h2m1 0h11M6 59.5h3m3 0h1m5 0h3m3 0h1m1 0h1m2 0h1m2 0h1m3 0h1m3 0h2m4 0h3m1 0h2m3 0h1m1 0h2m3 0h1m1 0h1m1 0h1m2 0h2m1 0h1m1 0h2m1 0h2m4 0h2m3 0h3M4 60.5h2m1 0h2m1 0h1m1 0h5m3 0h3m1 0h1m2 0h2m1 0h3m1 0h1m1 0h1m6 0h3m1 0h2m1 0h1m2 0h1m2 0h1m1 0h1m1 0h1m1 0h1m3 0h1m1 0h1m1 0h1m1 0h1m1 0h1m6 0h1m1 0h2m1 0h1m1 0h1m3 0h1M5 61.5h2m1 0h1m3 0h4m1 0h1m2 0h6m1 0h6m3 0h1m2 0h3m5 0h6m1 0h3m1 0h1m3 0h1m4 0h3m2 0h2m1 0h3m3 0h2m1 0h1m3 0h3m1 0h1M5 62.5h2m1 0h7m1 0h1m2 0h1m1 0h2m2 0h3m2 0h7m3 0h1m1 0h1m1 0h1m1 0h6m1 0h1m1 0h1m2 0h6m2 0h1m1 0h5m1 0h1m2 0h2m2 0h9m1 0h1M5 63.5h1m3 0h1m2 0h1m1 0h3m3 0h3m1 0h1m1 0h5m1 0h2m2 0h1m2 0h2m1 0h4m1 0h1m2 0h1m1 0h2m1 0h1m2 0h3m1 0h1m1 0h2m1 0h1m1 0h2m1 0h2m1 0h2m2 0h1m1 0h1m1 0h1m1 0h1m1 0h1m1 0h4M5 64.5h2m1 0h1m1 0h1m1 0h2m2 0h2m2 0h2m1 0h1m2 0h1m2 0h1m4 0h1m1 0h2m1 0h2m1 0h4m3 0h1m1 0h7m1 0h1m2 0h1m1 0h2m5 0h4m1 0h2m1 0h3m1 0h1m2 0h6M4 65.5h3m8 0h5m1 0h1m2 0h1m3 0h1m1 0h1m1 0h1m1 0h1m3 0h3m1 0h1m2 0h3m4 0h4m1 0h1m2 0h1m1 0h1m1 0h6m2 0h1m3 0h1m1 0h3m1 0h1m2 0h1m2 0h2M4 66.5h3m1 0h1m1 0h4m1 0h1m1 0h2m1 0h1m1 0h1m4 0h4m2 0h1m5 0h1m4 0h1m1 0h2m4 0h1m1 0h1m3 0h1m2 0h1m4 0h1m1 0h1m1 0h1m5 0h2m7 0h1m1 0h6M7 67.5h1m3 0h1m1 0h4m5 0h1m1 0h1m2 0h1m2 0h3m2 0h1m1 0h1m1 0h5m4 0h1m2 0h6m3 0h1m1 0h2m1 0h2m5 0h1m1 0h9m3 0h1m2 0h2m1 0h1M4 68.5h2m1 0h4m1 0h3m1 0h2m2 0h4m3 0h2m1 0h1m3 0h5m3 0h2m1 0h2m1 0h3m1 0h1m4 0h1m1 0h1m3 0h1m2 0h3m2 0h2m1 0h3m1 0h1m2 0h3m1 0h4m1 0h2M7 69.5h3m2 0h1m1 0h2m1 0h3m1 0h1m2 0h1m6 0h5m1 0h1m2 0h2m2 0h1m2 0h2m1 0h1m1 0h1m1 0h2m1 0h1m2 0h1m3 0h3m2 0h2m3 0h2m1 0h2m1 0h1m1 0h2m1 0h1m2 0h5M4 70.5h2m1 0h2m1 0h3m1 0h1m1 0h2m2 0h2m2 0h1m3 0h3m4 0h1m2 0h2m2 0h1m1 0h1m3 0h3m2 0h1m1 0h4m5 0h6m1 0h2m1 0h2m3 0h2m4 0h3m2 0h1m1 0h1M6 71.5h2m3 0h1m1 0h1m1 0h4m1 0h1m1 0h1m2 0h3m2 0h1m5 0h6m2 0h4m1 0h1m4 0h1m1 0h1m2 0h5m1 0h1m1 0h6m1 0h3m4 0h1m1 0h1m1 0h1m1 0h2m2 0h1M7 72.5h5m2 0h1m1 0h1m1 0h3m1 0h2m5 0h2m1 0h4m1 0h3m1 0h1m1 0h1m2 0h2m2 0h4m1 0h1m3 0h1m2 0h1m3 0h1m1 0h1m2 0h3m1 0h1m1 0h3m2 0h2m2 0h7M4 73.5h2m1 0h2m2 0h1m3 0h1m4 0h2m1 0h1m1 0h1m4 0h1m2 0h1m2 0h2m2 0h4m2 0h1m6 0h1m4 0h1m1 0h5m1 0h1m1 0h1m4 0h2m1 0h1m2 0h3m1 0h2m1 0h1m1 0h1m2 0h2M4 74.5h3m1 0h3m4 0h1m1 0h2m3 0h2m1 0h2m2 0h1m3 0h3m1 0h1m3 0h2m3 0h3m2 0h1m3 0h1m2 0h5m2 0h3m1 0h1m1 0h3m1 0h2m6 0h3m3 0h1m1 0h1M6 75.5h2m1 0h1m1 0h1m2 0h1m2 0h1m1 0h5m1 0h2m2 0h1m3 0h4m2 0h2m3 0h1m1 0h2m1 0h1m1 0h1m1 0h3m1 0h3m1 0h1m2 0h1m2 0h3m2 0h1m2 0h2m3 0h1m2 0h1m1 0h2m1 0h3m1 0h1M4 76.5h2m1 0h2m1 0h2m4 0h2m4 0h2m2 0h3m2 0h1m1 0h1m4 0h1m7 0h2m1 0h3m1 0h4m4 0h3m2 0h1m4 0h1m2 0h1m2 0h3m2 0h1m2 0h1m2 0h1m1 0h1M6 77.5h2m4 0h3m5 0h1m1 0h1m3 0h2m1 0h2m1 0h2m1 0h1m1 0h1m1 0h1m1 0h5m1 0h2m1 0h2m1 0h2m1 0h3m1 0h5m3 0h2m1 0h1m2 0h1m4 0h1m1 0h1m1 0h1m4 0h2m2 0h1M4 78.5h1m1 0h1m3 0h1m1 0h2m2 0h1m4 0h3m1 0h4m3 0h3m2 0h4m1 0h1m2 0h5m2 0h2m2 0h2m1 0h1m1 0h2m3 0h1m3 0h1m4 0h2m2 0h2m1 0h3m1 0h2m1 0h3M8 79.5h1m2 0h2m5 0h2m2 0h1m1 0h2m1 0h2m3 0h2m1 0h2m1 0h1m1 0h3m3 0h1m1 0h1m1 0h2m3 0h3m1 0h1m1 0h2m1 0h2m1 0h1m3 0h3m2 0h4m6 0h2m2 0h1M4 80.5h2m2 0h1m1 0h3m1 0h2m3 0h4m1 0h1m1 0h2m1 0h1m1 0h1m1 0h1m3 0h3m1 0h1m1 0h2m1 0h2m1 0h1m2 0h2m7 0h1m1 0h2m1 0h1m2 0h2m1 0h2m1 0h2m1 0h2m2 0h1m2 0h1m5 0h2M4 81.5h1m2 0h3m2 0h1m2 0h4m1 0h3m3 0h4m4 0h2m4 0h1m2 0h3m1 0h1m3 0h1m4 0h1m1 0h1m3 0h3m4 0h1m1 0h3m1 0h1m1 0h2m1 0h1m3 0h3m1 0h1m2 0h2M4 82.5h1m2 0h1m2 0h3m5 0h2m1 0h1m1 0h2m1 0h1m3 0h1m1 0h2m2 0h3m1 0h1m1 0h6m4 0h2m1 0h2m3 0h1m1 0h1m1 0h2m3 0h1m1 0h1m2 0h1m3 0h2m1 0h1m1 0h1m4 0h1m1 0h1m1 0h1M4 83.5h2m2 0h2m1 0h1m1 0h2m5 0h1m2 0h1m1 0h1m3 0h1m2 0h2m1 0h1m1 0h1m6 0h1m5 0h2m2 0h5m1 0h1m1 0h1m2 0h1m1 0h4m2 0h1m2 0h1m3 0h2m2 0h1m2 0h1m1 0h2m1 0h1M4 84.5h1m2 0h1m2 0h3m1 0h1m2 0h2m7 0h1m2 0h2m1 0h5m1 0h2m4 0h1m3 0h3m1 0h1m2 0h1m1 0h6m1 0h4m1 0h1m3 0h3m1 0h1m1 0h2m1 0h1m1 0h5M12 85.5h2m2 0h1m1 0h2m2 0h1m2 0h2m3 0h3m3 0h1m2 0h2m1 0h1m3 0h2m1 0h2m1 0h1m3 0h3m3 0h1m1 0h2m5 0h2m1 0h1m1 0h1m5 0h1m1 0h1m3 0h2m1 0h2M4 86.5h7m2 0h3m1 0h2m1 0h5m2 0h1m1 0h4m1 0h1m1 0h3m1 0h1m1 0h1m1 0h1m2 0h1m1 0h1m6 0h1m1 0h1m1 0h1m1 0h1m2 0h2m2 0h3m1 0h3m1 0h1m4 0h3m1 0h1m1 0h1m2 0h2M4 87.5h1m5 0h1m3 0h1m1 0h4m4 0h9m3 0h1m1 0h1m1 0h2m1 0h1m1 0h1m2 0h3m6 0h2m3 0h3m3 0h2m2 0h1m1 0h4m2 0h3m1 0h1m3 0h1m1 0h1M4 88.5h1m1 0h3m1 0h1m1 0h1m1 0h1m1 0h2m1 0h1m5 0h1m1 0h1m1 0h1m2 0h5m2 0h2m1 0h2m4 0h1m1 0h2m2 0h1m3 0h5m1 0h1m3 0h2m5 0h2m3 0h2m1 0h8M4 89.5h1m1 0h3m1 0h1m1 0h1m3 0h3m1 0h1m2 0h1m2 0h1m1 0h7m1 0h2m1 0h1m1 0h2m2 0h1m2 0h5m3 0h1m1 0h1m3 0h2m1 0h4m1 0h3m3 0h1m1 0h1m2 0h1m1 0h5M4 90.5h1m1 0h3m1 0h1m3 0h2m1 0h1m1 0h1m6 0h1m3 0h2m2 0h2m1 0h1m1 0h1m2 0h2m2 0h4m1 0h1m2 0h2m3 0h3m2 0h1m1 0h2m1 0h1m1 0h5m1 0h3m3 0h4m1 0h1m1 0h3M4 91.5h1m5 0h1m1 0h2m4 0h1m3 0h1m1 0h3m2 0h1m1 0h1m7 0h1m2 0h1m4 0h2m1 0h3m1 0h1m1 0h1m1 0h1m1 0h2m4 0h2m1 0h4m3 0h8m2 0h5m1 0h1M4 92.5h7m1 0h2m1 0h1m1 0h3m1 0h2m1 0h4m1 0h1m3 0h1m2 0h1m5 0h3m2 0h1m1 0h1m1 0h2m3 0h2m2 0h1m2 0h1m8 0h1m1 0h1m2 0h2m2 0h4m2 0h1m1 0h2"/></svg>
