<svg xmlns="http://www.w3.org/2000/svg" viewBox="0 0 109 109" shape-rendering="crispEdges"><path fill="#ffffff" d="M0 0h109v109H0z"/><path stroke="#000000" d="M4 4.5h7m1 0h1m2 0h7m4 0h1m1 0h5m1 0h1m2 0h3m3 0h1m1 0h1m1 0h4m1 0h3m1 0h10m1 0h1m3 0h1m1 0h1m4 0h3m1 0h1m6 0h3m2 0h2m2 0h7M4 5.5h1m5 0h1m2 0h1m1 0h5m1 0h1m3 0h1m2 0h1m4 0h2m1 0h1m1 0h1m3 0h4m5 0h1m8 0h1m3 0h2m4 0h1m1 0h1m2 0h2m3 0h1m1 0h1m1 0h5m2 0h3m4 0h1m5 0h1M4 6.5h1m1 0h3m1 0h1m1 0h1m4 0h4m1 0h2m1 0h9m4 0h1m1 0h2m2 0h2m3 0h1m2 0h1m4 0h4m1 0h1m4 0h2m2 0h3m2 0h1m1 0h7m1 0h2m1 0h1m5 0h1m2 0h1m1 0h3m1 0h1M4 7.5h1m1 0h3m1 0h1m1 0h6m1 0h2m1 0h1m2 0h2m4 0h1m4 0h6m1 0h3m2 0h2m1 0h1m1 0h1m1 0h1m4 0h2m2 0h3m1 0h1m1 0h5m1 0h1m6 0h2m2 0h3m1 0h1m1 0h3m2 0h1m1 0h3m1 0h1M4 8.5h1m1 0h3m1 0h1m1 0h1m2 0h4m1 0h1m3 0h13m2 0h1m2 0h1m1 0h1m3 0h3m1 0h11m3 0h4m2 0h9m2 0h1m1 0h2m2 0h1m2 0h1m1 0h1m1 0h1m1 0h1m1 0h3m1 0h1M4 9.5h1m5 0h1m4 0h7m1 0h1m2 0h1m1 0h3m3 0h1m1 0h1m1 0h7m7 0h1m3 0h4m1 0h3m1 0h2m7 0h1m3 0h1m4 0h1m1 0h2m2 0h5m1 0h1m2 0h1m5 0h1M4 10.5h7m1 0h1m1 0h1m1 0h1m1 0h1m1 0h1m1 0h1m1 0h1m1 0h1m1 0h1m1 0h1m1 0h1m1 0h1m1 0h1m1 0h1m1 0h1m1 0h1m1 0h1m1 0h1m1 0h1m1 0h1m1 0h1m1 0h1m1 0h1m1 0h1m1 0h1m1 0h1m1 0h1m1 0h1m1 0h1m1 0h1m1 0h1m1 0h1m1 0h1m1 0h1m1 0h1m1 0h1m1 0h1m1 0h1m1 0h1m1 0h1m1 0h1m1 0h1m1 0h1m1 0h7M13 11.5h1m7 0h2m6 0h2m3 0h1m2 0h3m1 0h2m7 0h1m1 0h1m3 0h3m1 0h4m1 0h3m6 0h1m3 0h7m1 0h1m1 0h2m2 0h1m1 0h2M4 12.5h4m2 0h1m1 0h2m1 0h8m1 0h1m3 0h7m2 0h1m1 0h2m4 0h1m1 0h2m2 0h6m1 0h1m2 0h3m2 0h2m1 0h1m3 0h6m1 0h5m3 0h5m1 0h2m1 0h1m2 0h3m1 0h1M7 13.5h2m3 0h1m1 0h1m7 0h1m1 0h3m1 0h1m1 0h6m2 0h4m2 0h1m1 0h1m1 0h1m2 0h1m1 0h1m1 0h2m1 0h1m2 0h1m1 0h2m2 0h2m1 0h1m1 0h1m10 0h1m1 0h1m2 0h1m2 0h2m3 0h2m1 0h2m1 0h1M4 14.5h2m1 0h2m1 0h4m3 0h2m2 0h1m2 0h1m5 0h2m1 0h1m1 0h5m2 0h1m3 0h1m1 0h2m1 0h1m1 0h2m1 0h1m2 0h1m1 0h2m2 0h1m3 0h1m2 0h3m1 0h1m3 0h11m2 0h2m2 0h1m3 0h1m1 0h1M5 15.5h2m1 0h1m5 0h3m1 0h1m2 0h1m1 0h5m3 0h1m3 0h1m1 0h2m1 0h3m2 0h4m3 0h6m1 0h2m4 0h2m3 0h1m3 0h4m1 0h2m3 0h1m1 0h2m1 0h4m2 0h1m2 0h2m1 0h1M9 16.5h2m1 0h2m1 0h2m2 0h3m1 0h4m2 0h1m2 0h2m7 0h1m3 0h3m6 0h2m3 0h1m1 0h1m1 0h2m1 0h3m3 0h3m2 0h3m1 0h2m1 0h1m5 0h2m2 0h2m1 0h2m1 0h1m1 0h1M4 17.5h2m1 0h1m1 0h1m3 0h1m1 0h3m1 0h2m1 0h2m2 0h1m1 0h2m1 0h4m3 0h1m1 0h1m2 0h1m3 0h1m1 0h1m1 0h4m2 0h2m2 0h1m1 0h3m2 0h1m1 0h1m2 0h2m1 0h4m1 0h1m4 0h2m1 0h1m2 0h1m1 0h2m2 0h1m3 0h1M4 18.5h2m3 0h2m2 0h2m5 0h1m1 0h2m5 0h1m1 0h1m1 0h1m3 0h1m3 0h1m1 0h1m4 0h1m4 0h4m2 0h2m3 0h1m2 0h2m1 0h1m4 0h1m7 0h4m1 0h4m2 0h1m1 0h1m1 0h2m2 0h3M5 19.5h3m3 0h1m1 0h3m10 0h2m1 0h1m1 0h2m3 0h4m4 0h1m1 0h2m1 0h1m1 0h2m1 0h1m1 0h2m3 0h1m1 0h3m2 0h1m2 0h2m2 0h2m2 0h4m5 0h1m1 0h2m3 0h2m1 0h4m2 0h1M4 20.5h1m2 0h1m2 0h2m1 0h1m2 0h2m1 0h1m2 0h3m2 0h2m1 0h1m1 0h1m1 0h1m1 0h2m1 0h2m3 0h1m2 0h3m2 0h2m1 0h1m4 0h1m1 0h1m3 0h3m1 0h3m1 0h3m7 0h2m2 0h2m1 0h3m1 0h1m2 0h1M5 21.5h1m1 0h3m2 0h1m1 0h1m1 0h2m1 0h2m2 0h1m1 0h4m6 0h5m1 0h3m1 0h2m1 0h1m1 0h3m2 0h4m2 0h5m1 0h2m2 0h2m3 0h1m4 0h1m3 0h3m2 0h1m1 0h1m1 0h2m2 0h1m1 0h1m1 0h3M4 22.5h1m2 0h1m1 0h2m1 0h2m3 0h1m3 0h5m5 0h4m2 0h2m1 0h1m3 0h10m1 0h1m1 0h3m1 0h1m1 0h2m1 0h1m2 0h3m5 0h1m1 0h1m1 0h1m1 0h1m4 0h2m1 0h4m1 0h1m5 0h3M4 23.5h2m1 0h2m2 0h2m2 0h1m8 0h2m2 0h1m1 0h1m2 0h1m1 0h4m2 0h1m2 0h2m3 0h1m1 0h4m1 0h3m1 0h3m2 0h1m3 0h2m1 0h1m1 0h1m3 0h1m2 0h1m1 0h2m1 0h3m1 0h2m1 0h2m1 0h4m2 0h1m1 0h1M5 24.5h2m3 0h2m1 0h3m2 0h6m1 0h1m2 0h2m2 0h1m2 0h1m2 0h1m1 0h7m2 0h2m3 0h2m2 0h1m1 0h2m1 0h1m5 0h1m1 0h6m5 0h2m2 0h6m1 0h1m2 0h2m3 0h2M5 25.5h1m1 0h2m4 0h1m3 0h1m3 0h1m2 0h1m4 0h1m1 0h2m1 0h1m1 0h1m1 0h1m3 0h4m1 0h1m2 0h1m2 0h1m1 0h1m2 0h1m6 0h1m1 0h1m5 0h1m5 0h6m1 0h2m2 0h3m1 0h2m1 0h1m1 0h3m1 0h1M8 26.5h1m1 0h7m1 0h1m1 0h4m2 0h4m3 0h2m2 0h1m1 0h4m1 0h1m1 0h2m3 0h2m1 0h2m1 0h2m1 0h4m3 0h3m4 0h3m1 0h1m2 0h1m3 0h1m1 0h1m1 0h2m1 0h1m9 0h1m1 0h1M4 27.5h1m3 0h1m2 0h3m1 0h3m1 0h1m2 0h1m4 0h1m1 0h3m6 0h1m1 0h1m1 0h3m2 0h1m4 0h2m2 0h2m2 0h1m1 0h1m3 0h1m2 0h4m1 0h2m3 0h2m7 0h1m1 0h1m2 0h1m1 0h3m1 0h1m1 0h2m1 0h1M4 28.5h2m1 0h1m1 0h2m2 0h1m1 0h3m2 0h2m1 0h2m3 0h1m1 0h3m6 0h3m1 0h1m1 0h3m1 0h1m1 0h3m1 0h5m1 0h3m4 0h2m2 0h3m1 0h1m2 0h1m1 0h1m3 0h3m7 0h1m1 0h1m2 0h1m1 0h1M4 29.5h6m3 0h1m5 0h2m2 0h1m2 0h1m1 0h5m3 0h2m5 0h2m3 0h1m2 0h2m1 0h1m3 0h1m1 0h2m1 0h2m1 0h2m2 0h1m1 0h1m4 0h2m1 0h1m2 0h3m1 0h1m3 0h1m1 0h1m1 0h2m2 0h1m3 0h1M6 30.5h7m2 0h2m2 0h3m2 0h2m2 0h7m1 0h3m4 0h3m1 0h1m4 0h5m1 0h1m2 0h2m5 0h5m1 0h5m1 0h1m1 0h7m4 0h2m1 0h5m1 0h1m1 0h1M4 31.5h5m3 0h1m1 0h2m2 0h2m1 0h1m1 0h2m2 0h2m1 0h1m3 0h2m1 0h1m1 0h1m1 0h1m2 0h1m4 0h1m1 0h2m3 0h1m1 0h2m4 0h2m1 0h1m1 0h2m1 0h3m3 0h1m1 0h2m2 0h3m1 0h1m1 0h1m1 0h3m1 0h1m3 0h1m2 0h1M4 32.5h1m1 0h3m1 0h1m1 0h5m1 0h1m1 0h1m1 0h1m7 0h1m1 0h1m1 0h2m1 0h3m2 0h2m3 0h2m3 0h1m1 0h1m1 0h2m2 0h1m2 0h1m4 0h1m2 0h4m1 0h1m1 0h2m2 0h6m3 0h1m3 0h2m1 0h1m1 0h1m1 0h2M4 33.5h5m3 0h2m1 0h1m1 0h5m1 0h5m1 0h2m3 0h2m2 0h1m2 0h3m1 0h1m5 0h2m3 0h3m1 0h1m3 0h1m2 0h3m1 0h2m1 0h1m3 0h1m1 0h4m6 0h1m3 0h3m3 0h1m2 0h1M5 34.5h1m1 0h6m1 0h1m1 0h1m2 0h1m1 0h1m2 0h1m1 0h2m1 0h6m1 0h3m1 0h1m2 0h1m1 0h3m1 0h1m2 0h5m2 0h4m2 0h1m1 0h2m1 0h1m3 0h6m1 0h1m1 0h1m1 0h1m4 0h1m1 0h2m1 0h6m2 0h2M6 35.5h3m3 0h3m1 0h1m1 0h1m1 0h1m2 0h1m1 0h6m1 0h1m2 0h2m2 0h5m1 0h4m1 0h1m2 0h1m3 0h1m1 0h4m1 0h3m1 0h1m1 0h2m1 0h1m2 0h1m2 0h3m1 0h1m3 0h3m3 0h1m2 0h1m2 0h2m1 0h1m1 0h1M6 36.5h2m1 0h4m3 0h4m1 0h4m3 0h1m2 0h1m1 0h1m1 0h2m4 0h4m2 0h1m3 0h1m2 0h1m1 0h1m2 0h1m3 0h5m3 0h1m1 0h2m1 0h1m1 0h2m2 0h1m1 0h1m1 0h2m1 0h1m1 0h1m2 0h1m2 0h1m1 0h2m2 0h1M4 37.5h1m3 0h2m1 0h1m1 0h4m2 0h4m1 0h2m1 0h3m1 0h2m3 0h2m2 0h3m2 0h1m1 0h4m1 0h1m2 0h2m3 0h2m4 0h2m1 0h5m3 0h1m5 0h4m1 0h1m1 0h2m1 0h1m2 0h1m1 0h1m1 0h1m3 0h1M4 38.5h4m1 0h2m2 0h1m1 0h1m3 0h2m1 0h1m1 0h1m1 0h1m2 0h2m1 0h2m2 0h1m1 0h3m1 0h1m1 0h2m3 0h1m2 0h1m1 0h2m3 0h7m3 0h1m1 0h3m1 0h1m2 0h6m6 0h2m3 0h1m1 0h3m2 0h2M6 39.5h2m1 0h1m1 0h1m2 0h2m1 0h3m2 0h2m1 0h2m2 0h1m1 0h4m3 0h1m1 0h1m1 0h2m4 0h1m1 0h2m2 0h2m1 0h1m3 0h1m5 0h1m1 0h7m1 0h7m2 0h5m2 0h1m1 0h1m1 0h4m2 0h2M7 40.5h1m1 0h2m1 0h1m1 0h4m1 0h1m2 0h1m1 0h1m2 0h1m1 0h1m1 0h1m5 0h2m1 0h4m5 0h1m1 0h2m1 0h6m1 0h1m2 0h1m2 0h1m3 0h1m4 0h1m1 0h4m1 0h3m2 0h1m1 0h5m2 0h4m1 0h3M4 41.5h1m2 0h1m1 0h1m2 0h1m2 0h2m1 0h4m2 0h1m2 0h2m1 0h1m1 0h3m4 0h2m1 0h3m1 0h1m2 0h1m8 0h1m1 0h2m1 0h1m2 0h4m2 0h4m1 0h4m1 0h1m1 0h3m7 0h2m3 0h2m3 0h1M4 42.5h1m2 0h2m1 0h1m2 0h1m1 0h2m4 0h1m1 0h4m3 0h1m1 0h2m3 0h5m3 0h2m1 0h1m2 0h1m3 0h1m1 0h2m3 0h6m1 0h1m1 0h2m1 0h2m4 0h1m5 0h1m3 0h3m1 0h3m4 0h1M4 43.5h2m1 0h3m1 0h1m1 0h6m1 0h2m2 0h2m1 0h1m1 0h1m1 0h1m2 0h2m1 0h1m1 0h1m1 0h1m1 0h2m1 0h2m1 0h1m1 0h1m5 0h1m4 0h1m2 0h2m3 0h2m2 0h2m1 0h2m2 0h2m3 0h1m2 0h2m1 0h1m2 0h1m1 0h1m3 0h1M5 44.5h2m3 0h1m6 0h4m2 0h3m3 0h1m1 0h2m5 0h3m1 0h4m2 0h1m1 0h2m1 0h1m1 0h1m1 0h7m1 0h2m2 0h3m3 0h1m4 0h3m1 0h3m3 0h2m2 0h1m1 0h3m4 0h1M6 45.5h1m2 0h1m7 0h4m4 0h2m4 0h1m1 0h1m2 0h1m3 0h1m1 0h1m2 0h3m2 0h1m2 0h1m1 0h1m2 0h4m1 0h2m3 0h1m1 0h3m3 0h3m1 0h2m1 0h8m2 0h1m2 0h4m3 0h2M5 46.5h1m1 0h2m1 0h2m4 0h1m2 0h2m1 0h2m3 0h1m2 0h1m7 0h3m3 0h3m5 0h1m2 0h1m1 0h2m2 0h1m1 0h2m1 0h1m2 0h2m2 0h6m4 0h3m1 0h2m4 0h1m1 0h1m3 0h1m1 0h1m2 0h1M8 47.5h2m1 0h4m2 0h1m4 0h1m1 0h1m1 0h4m1 0h2m1 0h2m1 0h1m2 0h1m7 0h1m5 0h2m5 0h1m1 0h1m1 0h1m1 0h3m2 0h1m1 0h3m1 0h2m1 0h3m1 0h1m1 0h2m2 0h1m1 0h2m2 0h1m1 0h1m2 0h2M4 48.5h1m1 0h1m1 0h1m1 0h3m3 0h2m1 0h2m2 0h1m1 0h1m1 0h3m3 0h1m2 0h3m2 0h2m4 0h1m7 0h1m1 0h3m2 0h2m1 0h3m2 0h3m2 0h1m2 0h1m3 0h1m2 0h8m3 0h6m2 0h1M5 49.5h1m1 0h2m2 0h1m1 0h1m3 0h2m4 0h4m1 0h5m1 0h2m1 0h1m3 0h9m1 0h3m5 0h6m1 0h3m3 0h5m1 0h3m2 0h1m3 0h1m1 0h3m2 0h3m1 0h2m2 0h2M4 50.5h1m1 0h1m2 0h7m2 0h3m1 0h1m1 0h2m6 0h2m1 0h2m5 0h2m1 0h1m3 0h1m8 0h3m2 0h1m2 0h1m2 0h1m2 0h2m1 0h2m3 0h2m1 0h5m1 0h2m1 0h3m2 0h4m1 0h1M5 51.5h2m1 0h2m2 0h5m3 0h1m2 0h3m3 0h1m1 0h1m5 0h6m1 0h4m2 0h1m1 0h1m2 0h3m1 0h1m1 0h1m1 0h2m1 0h4m2 0h1m2 0h4m2 0h5m1 0h3m3 0h3m1 0h1m6 0h1M7 52.5h6m2 0h1m1 0h5m1 0h1m2 0h16m5 0h3m2 0h5m1 0h1m2 0h1m2 0h2m3 0h1m1 0h1m1 0h9m1 0h2m3 0h1m2 0h2m1 0h7m1 0h1m1 0h1M4 53.5h2m1 0h2m3 0h1m2 0h1m2 0h3m5 0h2m1 0h2m3 0h2m1 0h6m1 0h2m5 0h2m3 0h1m2 0h2m2 0h1m6 0h1m1 0h3m3 0h4m10 0h1m1 0h1m1 0h1m3 0h1m3 0h1M8 54.5h1m1 0h1m1 0h2m4 0h1m3 0h1m2 0h1m1 0h2m1 0h1m1 0h1m1 0h5m2 0h1m2 0h3m2 0h1m2 0h1m1 0h1m1 0h1m1 0h3m2 0h1m2 0h2m1 0h3m2 0h1m1 0h1m1 0h1m1 0h2m5 0h1m1 0h1m1 0h1m1 0h1m2 0h1m1 0h1m1 0h5M8 55.5h1m3 0h4m1 0h1m1 0h2m4 0h1m2 0h3m3 0h2m3 0h2m5 0h1m2 0h4m3 0h2m2 0h2m2 0h1m1 0h1m2 0h2m2 0h2m3 0h2m1 0h3m2 0h1m1 0h2m2 0h1m2 0h2m3 0h1m2 0h1M8 56.5h9m1 0h2m2 0h4m1 0h2m1 0h6m4 0h3m1 0h3m1 0h1m3 0h9m1 0h3m2 0h5m2 0h5m3 0h2m3 0h1m1 0h4m2 0h7m1 0h2M8 57.5h1m2 0h1m1 0h4m2 0h2m1 0h2m2 0h1m1 0h1m1 0h1m1 0h1m2 0h2m3 0h1m2 0h1m1 0h2m1 0h2m2 0h1m1 0h2m1 0h1m1 0h1m4 0h3m3 0h3m1 0h1m1 0h2m4 0h3m1 0h1m2 0h1m1 0h3m2 0h1m1 0h3m3 0h1M4 58.5h2m1 0h2m1 0h4m1 0h2m2 0h1m2 0h1m2 0h1m5 0h4m1 0h2m1 0h1m2 0h1m1 0h2m1 0h1m1 0h6m1 0h1m2 0h1m2 0h2m1 0h1m1 0h2m1 0h1m3 0h2m1 0h1m2 0h4m2 0h1m1 0h1m1 0h1m1 0h2m2 0h1m1 0h3m3 0h1M4 59.5h2m2 0h1m2 0h1m1 0h1m1 0h3m2 0h6m4 0h5m2 0h1m1 0h4m2 0h2m2 0h1m1 0h1m4 0h1m2 0h3m1 0h1m1 0h1m3 0h1m1 0h3m2 0h1m2 0h3m1 0h1m1 0h1m1 0h1m1 0h3m2 0h2m2 0h1m2 0h2m1 0h1M4 60.5h1m2 0h1m1 0h2m2 0h1m2 0h5m1 0h1m1 0h1m1 0h7m1 0h1m2 0h1m1 0h1m2 0h1m1 0h1m3 0h4m3 0h1m1 0h1m3 0h1m4 0h1m1 0h1m4 0h1m2 0h2m1 0h1m2 0h4m1 0h1m1 0h1m3 0h1m1 0h1m1 0h1m1 0h1m2 0h3M4 61.5h6m3 0h1m1 0h1m1 0h2m2 0h2m1 0h1m1 0h1m1 0h1m2 0h5m6 0h1m1 0h5m2 0h2m2 0h2m1 0h1m2 0h3m1 0h3m1 0h1m3 0h2m2 0h1m1 0h1m3 0h1m1 0h1m1 0h2m2 0h2m1 0h1m1 0h1m1 0h1m1 0h3M5 62.5h2m2 0h3m1 0h3m2 0h7m1 0h1m1 0h3m1 0h1m1 0h2m1 0h2m3 0h1m1 0h1m2 0h3m1 0h2m3 0h6m1 0h2m1 0h2m1 0h2m1 0h2m1 0h1m2 0h1m1 0h1m2 0h3m4 0h1m1 0h3m2 0h4m3 0h1M4 63.5h2m6 0h4m3 0h1m1 0h1m2 0h1m4 0h1m6 0h1m2 0h1m5 0h1m1 0h2m1 0h1m3 0h1m1 0h1m1 0h2m4 0h1m1 0h1m1 0h3m1 0h1m1 0h4m1 0h1m2 0h4m1 0h1m1 0h1m1 0h3m1 0h2m2 0h1m1 0h2M4 64.5h1m1 0h2m1 0h5m1 0h1m1 0h1m1 0h1m1 0h4m3 0h1m2 0h1m1 0h1m1 0h2m4 0h4m3 0h1m1 0h1m1 0h1m2 0h1m7 0h1m2 0h2m1 0h1m2 0h3m3 0h1m4 0h8m3 0h3m3 0h1m2 0h2M4 65.5h2m2 0h1m4 0h1m1 0h6m1 0h1m2 0h1m2 0h1m1 0h2m1 0h1m1 0h4m2 0h2m1 0h2m1 0h4m1 0h1m1 0h2m4 0h1m1 0h2m3 0h1m1 0h1m1 0h1m2 0h1m2 0h4m1 0h2m1 0h1m1 0h1m2 0h1m1 0h1m1 0h1m2 0h1m5 0h1M7 66.5h2m1 0h1m2 0h1m2 0h1m2 0h3m3 0h4m3 0h1m1 0h2m2 0h2m1 0h4m2 0h3m1 0h4m1 0h1m1 0h1m2 0h3m2 0h1m2 0h3m3 0h1m3 0h3m1 0h1m3 0h1m1 0h3m2 0h1m2 0h1m3 0h1M4 67.5h1m2 0h3m1 0h2m1 0h2m2 0h1m2 0h3m2 0h1m4 0h2m1 0h1m1 0h1m2 0h3m4 0h3m1 0h1m1 0h2m3 0h5m5 0h4m1 0h1m6 0h3m3 0h3m1 0h1m2 0h3m1 0h6m1 0h1M5 68.5h2m3 0h1m2 0h1m1 0h2m1 0h1m2 0h1m1 0h2m2 0h3m1 0h1m2 0h8m6 0h2m1 0h1m1 0h1m2 0h8m1 0h4m2 0h1m2 0h1m2 0h1m2 0h2m2 0h3m1 0h1m4 0h3m1 0h2m2 0h1M4 69.5h3m4 0h3m1 0h1m1 0h1m3 0h4m1 0h1m2 0h2m1 0h2m6 0h1m1 0h1m1 0h2m5 0h3m4 0h1m2 0h5m1 0h1m2 0h1m2 0h1m1 0h3m5 0h1m1 0h1m5 0h1m1 0h2m3 0h3m1 0h1m1 0h1M4 70.5h1m1 0h1m2 0h6m1 0h2m1 0h3m1 0h1m1 0h1m1 0h4m2 0h2m1 0h1m8 0h1m3 0h1m5 0h2m2 0h2m1 0h1m2 0h2m2 0h2m2 0h1m4 0h1m5 0h6m2 0h1m2 0h1m1 0h2m1 0h1m2 0h1M5 71.5h2m2 0h1m3 0h1m1 0h1m2 0h2m3 0h1m1 0h1m1 0h3m3 0h1m1 0h1m1 0h3m2 0h2m3 0h2m1 0h6m2 0h1m2 0h2m1 0h3m1 0h2m2 0h1m1 0h1m2 0h9m2 0h1m3 0h2m1 0h1m3 0h1m2 0h1M4 72.5h2m2 0h1m1 0h2m1 0h1m1 0h1m1 0h1m4 0h1m2 0h5m4 0h2m1 0h1m1 0h2m2 0h1m1 0h2m5 0h1m2 0h3m1 0h1m2 0h1m3 0h2m1 0h3m1 0h2m2 0h2m9 0h2m1 0h3m3 0h1m2 0h2m2 0h1M4 73.5h2m1 0h3m4 0h1m1 0h2m1 0h1m1 0h2m3 0h2m3 0h2m1 0h1m1 0h2m4 0h2m5 0h1m4 0h1m4 0h6m1 0h3m2 0h2m1 0h1m2 0h4m1 0h1m1 0h1m6 0h2m7 0h2M4 74.5h1m2 0h6m1 0h3m1 0h1m1 0h3m3 0h2m1 0h6m1 0h2m3 0h1m5 0h12m2 0h1m6 0h2m1 0h1m1 0h8m1 0h1m7 0h1m1 0h2m1 0h6m3 0h1M5 75.5h1m2 0h1m3 0h4m2 0h1m2 0h2m1 0h4m2 0h1m3 0h1m4 0h3m2 0h3m1 0h5m3 0h1m1 0h1m1 0h2m3 0h1m1 0h1m1 0h3m1 0h2m3 0h2m1 0h1m2 0h1m1 0h2m2 0h1m2 0h1m2 0h1m3 0h1m1 0h1m1 0h1M6 76.5h3m1 0h1m1 0h5m2 0h4m1 0h1m2 0h1m1 0h2m1 0h1m1 0h1m2 0h2m1 0h1m2 0h2m2 0h1m1 0h4m1 0h1m1 0h1m1 0h2m2 0h1m1 0h1m5 0h1m3 0h1m1 0h1m1 0h2m3 0h4m1 0h2m1 0h1m1 0h4m1 0h1m1 0h2m1 0h2M8 77.5h1m3 0h1m1 0h1m3 0h1m1 0h1m3 0h2m1 0h1m2 0h1m3 0h3m2 0h3m1 0h2m6 0h2m3 0h1m2 0h1m5 0h1m6 0h3m3 0h2m4 0h1m1 0h1m1 0h1m2 0h2m1 0h3m3 0h2m1 0h2M4 78.5h1m3 0h5m1 0h1m1 0h1m10 0h8m2 0h2m2 0h2m3 0h1m4 0h7m4 0h1m2 0h1m1 0h1m1 0h3m2 0h5m2 0h9m2 0h2m2 0h5m2 0h2M4 79.5h4m3 0h4m1 0h1m1 0h3m1 0h1m5 0h2m3 0h2m1 0h1m5 0h1m2 0h1m1 0h1m3 0h1m1 0h1m2 0h2m2 0h3m3 0h2m1 0h1m2 0h2m1 0h1m2 0h1m2 0h2m2 0h4m2 0h1m1 0h2m2 0h3m1 0h2M5 80.5h2m2 0h2m2 0h1m3 0h2m2 0h1m1 0h1m5 0h3m2 0h10m2 0h1m3 0h1m1 0h1m2 0h9m1 0h3m1 0h2m2 0h1m4 0h2m2 0h1m1 0h4m3 0h2m5 0h1m1 0h5M7 81.5h1m3 0h2m1 0h3m5 0h1m1 0h2m7 0h1m7 0h2m2 0h3m1 0h1m1 0h6m1 0h2m2 0h4m2 0h5m3 0h2m2 0h1m3 0h3m1 0h1m6 0h4m1 0h2m2 0h1M9 82.5h2m1 0h2m1 0h1m1 0h1m3 0h1m6 0h1m2 0h1m1 0h7m2 0h7m1 0h1m1 0h2m3 0h4m2 0h1m2 0h1m2 0h2m1 0h2m2 0h1m2 0h1m1 0h4m3 0h2m1 0h2m1 0h4m1 0h4M6 83.5h2m1 0h1m2 0h1m1 0h9m1 0h2m2 0h5m2 0h4m1 0h3m1 0h2m1 0h4m2 0h3m1 0h2m1 0h1m2 0h1m2 0h1m1 0h3m1 0h2m3 0h1m1 0h2m2 0h1m1 0h1m2 0h2m1 0h2m2 0h3m4 0h3M5 84.5h2m3 0h2m1 0h4m1 0h1m3 0h3m1 0h1m1 0h1m6 0h2m1 0h1m2 0h1m1 0h2m1 0h2m2 0h3m3 0h2m5 0h1m8 0h3m1 0h6m3 0h2m2 0h1m2 0h2m1 0h2m2 0h2m1 0h1M4 85.5h4m3 0h7m2 0h2m1 0h1m3 0h1m1 0h1m1 0h1m3 0h1m4 0h2m1 0h2m2 0h5m1 0h1m2 0h3m3 0h4m1 0h1m2 0h1m1 0h1m1 0h2m3 0h2m3 0h3m1 0h2m1 0h1m1 0h3m1 0h1m1 0h3m1 0h2M7 86.5h1m2 0h1m1 0h3m1 0h1m2 0h1m2 0h3m2 0h2m2 0h1m2 0h1m3 0h2m6 0h1m4 0h2m3 0h1m1 0h1m1 0h3m7 0h3m3 0h2m1 0h4m1 0h1m1 0h3m1 0h1m4 0h1m1 0h1m3 0h3M5 87.5h1m6 0h4m2 0h2m1 0h2m2 0h2m1 0h1m2 0h2m2 0h1m2 0h2m3 0h3m1 0h3m6 0h1m3 0h2m1 0h3m1 0h3m1 0h2m2 0h3m1 0h2m2 0h1m2 0h2m1 0h1m3 0h1m2 0h2m2 0h1m1 0h2M5 88.5h2m2 0h2m3 0h1m6 0h6m1 0h3m1 0h3m2 0h1m1 0h2m3 0h5m1 0h1m1 0h1m7 0h1m2 0h4m4 0h1m2 0h2m2 0h1m2 0h6m1 0h1m6 0h1m1 0h1m3 0h3M4 89.5h1m3 0h2m3 0h3m3 0h1m1 0h3m2 0h1m3 0h1m1 0h1m2 0h3m2 0h1m4 0h1m6 0h2m3 0h4m1 0h2m3 0h1m3 0h2m1 0h2m1 0h1m1 0h1m1 0h1m3 0h1m2 0h2m1 0h1m2 0h2m2 0h2m3 0h1M5 90.5h2m3 0h1m2 0h2m2 0h2m3 0h1m1 0h3m1 0h2m4 0h1m2 0h2m1 0h1m2 0h2m3 0h6m1 0h1m4 0h3m1 0h2m1 0h1m2 0h1m1 0h1m2 0h1m1 0h1m1 0h2m4 0h2m1 0h3m1 0h2m1 0h1m1 0h2m1 0h2m1 0h2M4 91.5h4m5 0h4m3 0h2m3 0h1m1 0h1m2 0h1m2 0h1m2 0h2m2 0h2m2 0h1m4 0h1m1 0h3m2 0h1m5 0h1m1 0h1m1 0h6m1 0h2m1 0h2m2 0h1m2 0h1m1 0h2m3 0h3m3 0h2m3 0h1M6 92.5h1m1 0h4m2 0h1m5 0h1m1 0h3m2 0h2m1 0h1m2 0h3m4 0h4m1 0h3m1 0h1m3 0h1m1 0h1m2 0h1m2 0h1m3 0h5m1 0h2m4 0h3m1 0h2m1 0h1m1 0h2m3 0h2m1 0h2m4 0h1m1 0h1m1 0h1M5 93.5h1m1 0h2m2 0h1m1 0h1m1 0h1m2 0h1m1 0h2m1 0h1m2 0h2m2 0h1m2 0h3m2 0h1m1 0h2m1 0h2m1 0h2m1 0h1m1 0h1m4 0h2m1 0h1m1 0h1m1 0h1m4 0h1m2 0h3m2 0h3m1 0h2m8 0h3m1 0h1m2 0h1m1 0h1m1 0h1m1 0h1M4 94.5h1m2 0h2m1 0h2m1 0h1m1 0h2m4 0h1m1 0h2m5 0h2m2 0h1m1 0h1m1 0h2m1 0h1m1 0h2m2 0h2m2 0h2m1 0h2m1 0h2m1 0h2m1 0h4m2 0h1m3 0h2m1 0h2m1 0h2m1 0h1m1 0h1m2 0h5m3 0h3m1 0h2m2 0h1M4 95.5h1m1 0h2m1 0h1m1 0h4m6 0h2m5 0h2m2 0h3m1 0h1m1 0h2m1 0h4m1 0h1m1 0h1m1 0h1m3 0h1m2 0h1m1 0h1m2 0h4m1 0h6m1 0h1m4 0h1m1 0h4m3 0h1m6 0h2m1 0h1m1 0h1M8 96.5h1m1 0h1m1 0h5m3 0h5m1 0h2m1 0h6m2 0h2m1 0h3m4 0h2m1 0h1m1 0h6m3 0h3m1 0h5m2 0h12m1 0h1m2 0h2m1 0h2m2 0h6m1 0h1m1 0h1M12 97.5h1m2 0h1m1 0h1m2 0h1m1 0h4m1 0h2m1 0h1m3 0h4m6 0h3m1 0h2m2 0h1m3 0h4m1 0h1m1 0h1m3 0h2m1 0h1m3 0h1m3 0h1m1 0h1m1 0h2m10 0h3m3 0h5M4 98.5h7m2 0h1m1 0h2m4 0h1m1 0h1m1 0h1m3 0h2m1 0h1m1 0h1m1 0h2m2 0h1m2 0h1m4 0h5m1 0h1m1 0h1m3 0h2m2 0h2m4 0h1m2 0h2m1 0h1m1 0h1m3 0h3m2 0h3m1 0h6m1 0h1m1 0h3M4 99.5h1m5 0h1m5 0h2m1 0h4m1 0h1m1 0h2m2 0h1m3 0h1m1 0h1m1 0h2m1 0h1m1 0h2m1 0h1m1 0h5m3 0h2m2 0h1m4 0h2m7 0h1m3 0h4m2 0h2m4 0h3m1 0h3m3 0h1m1 0h1m1 0h1M4 100.5h1m1 0h3m1 0h1m3 0h3m3 0h3m3 0h2m1 0h7m2 0h1m2 0h1m2 0h2m1 0h2m1 0h1m1 0h5m5 0h2m3 0h4m1 0h1m1 0h5m2 0h1m3 0h1m4 0h1m2 0h8m1 0h1M4 101.5h1m1 0h3m1 0h1m1 0h1m3 0h2m3 0h1m1 0h2m1 0h1m1 0h1m1 0h5m1 0h2m1 0h1m2 0h5m1 0h2m1 0h4m6 0h2m1 0h5m1 0h1m5 0h2m2 0h1m4 0h2m1 0h2m4 0h1m1 0h1m2 0h1m1 0h2M4 102.5h1m1 0h3m1 0h1m1 0h2m1 0h2m1 0h1m2 0h5m1 0h3m1 0h1m1 0h13m5 0h1m3 0h1m1 0h1m4 0h1m1 0h5m6 0h1m1 0h1m1 0h1m4 0h9m1 0h2m1 0h1m6 0h1M4 103.5h1m5 0h1m1 0h1m1 0h1m1 0h3m2 0h2m1 0h2m1 0h3m1 0h3m1 0h3m1 0h1m2 0h1m8 0h2m2 0h1m4 0h2m2 0h3m3 0h1m1 0h3m2 0h1m3 0h3m4 0h2m1 0h1m1 0h2m1 0h2m1 0h3m1 0h1M4 104.5h7m1 0h3m1 0h1m3 0h12m1 0h2m4 0h2m2 0h1m2 0h1m2 0h1m1 0h2m1 0h1m3 0h1m1 0h1m2 0h3m2 0h1m2 0h2m3 0h1m1 0h1m1 0h1m3 0h2m1 0h1m1 0h1m2 0h1m2 0h2m1 0h2m2 0h2"/></svg>
