<svg xmlns="http://www.w3.org/2000/svg" viewBox="0 0 113 113" shape-rendering="crispEdges"><path fill="#ffffff" d="M0 0h113v113H0z"/><path stroke="#000000" d="M4 4.5h7m1 0h2m3 0h7m2 0h2m1 0h1m2 0h1m1 0h2m1 0h1m2 0h5m1 0h4m2 0h1m1 0h2m1 0h1m4 0h1m1 0h4m1 0h1m1 0h2m1 0h2m1 0h3m1 0h3m1 0h1m2 0h2m1 0h5m1 0h2m3 0h7M4 5.5h1m5 0h1m1 0h1m3 0h3m3 0h1m1 0h3m1 0h4m1 0h1m1 0h2m3 0h2m1 0h1m8 0h1m2 0h1m1 0h2m1 0h5m5 0h7m1 0h3m4 0h2m1 0h1m2 0h1m1 0h1m1 0h2m1 0h1m3 0h1m5 0h1M4 6.5h1m1 0h3m1 0h1m1 0h3m2 0h2m3 0h1m2 0h3m1 0h2m1 0h1m1 0h5m2 0h1m1 0h1m1 0h3m2 0h1m3 0h1m1 0h2m4 0h2m2 0h1m2 0h1m3 0h4m1 0h1m2 0h1m3 0h2m1 0h1m1 0h2m1 0h1m3 0h3m2 0h1m1 0h3m1 0h1M4 7.5h1m1 0h3m1 0h1m1 0h3m1 0h1m4 0h1m2 0h2m3 0h2m1 0h3m1 0h1m2 0h2m3 0h3m1 0h1m1 0h3m3 0h1m2 0h1m1 0h1m1 0h2m1 0h2m1 0h5m3 0h1m8 0h1m1 0h2m2 0h1m1 0h1m2 0h1m2 0h1m1 0h1m1 0h3m1 0h1M4 8.5h1m1 0h3m1 0h1m2 0h1m4 0h1m2 0h2m4 0h8m4 0h2m1 0h1m2 0h1m2 0h2m2 0h5m2 0h3m1 0h4m2 0h1m1 0h1m2 0h1m1 0h6m1 0h2m2 0h1m1 0h2m2 0h1m2 0h2m1 0h2m1 0h1m1 0h3m1 0h1M4 9.5h1m5 0h1m1 0h1m2 0h1m3 0h2m2 0h3m2 0h1m3 0h2m2 0h1m3 0h3m2 0h4m3 0h1m3 0h1m2 0h3m4 0h3m3 0h2m1 0h2m3 0h1m1 0h2m1 0h1m2 0h1m1 0h5m4 0h1m2 0h1m5 0h1M4 10.5h7m1 0h1m1 0h1m1 0h1m1 0h1m1 0h1m1 0h1m1 0h1m1 0h1m1 0h1m1 0h1m1 0h1m1 0h1m1 0h1m1 0h1m1 0h1m1 0h1m1 0h1m1 0h1m1 0h1m1 0h1m1 0h1m1 0h1m1 0h1m1 0h1m1 0h1m1 0h1m1 0h1m1 0h1m1 0h1m1 0h1m1 0h1m1 0h1m1 0h1m1 0h1m1 0h1m1 0h1m1 0h1m1 0h1m1 0h1m1 0h1m1 0h1m1 0h1m1 0h1m1 0h1m1 0h1m1 0h7M13 11.5h3m1 0h1m2 0h2m1 0h6m3 0h1m1 0h1m5 0h3m3 0h1m2 0h2m1 0h1m3 0h1m1 0h1m2 0h1m1 0h1m1 0h1m1 0h3m3 0h2m1 0h1m3 0h1m3 0h2m2 0h1m2 0h2m1 0h1m3 0h3M4 12.5h2m2 0h3m5 0h2m1 0h1m3 0h1m1 0h1m1 0h6m1 0h2m1 0h1m6 0h1m1 0h3m1 0h7m3 0h1m3 0h1m1 0h2m1 0h1m1 0h1m2 0h1m1 0h5m1 0h1m4 0h2m1 0h1m2 0h2m2 0h2m4 0h1m1 0h4M5 13.5h1m2 0h2m2 0h1m1 0h1m2 0h2m2 0h1m2 0h1m1 0h3m3 0h2m1 0h2m5 0h2m1 0h3m1 0h3m1 0h2m2 0h1m1 0h1m1 0h4m6 0h1m3 0h3m1 0h2m2 0h2m1 0h1m2 0h3m1 0h2m2 0h1m1 0h1m4 0h1m2 0h1M4 14.5h1m1 0h1m2 0h2m2 0h3m1 0h2m1 0h1m2 0h1m1 0h1m3 0h1m2 0h3m2 0h1m1 0h1m2 0h4m1 0h1m1 0h1m1 0h1m2 0h3m1 0h2m1 0h2m2 0h2m3 0h2m1 0h2m1 0h1m1 0h3m1 0h2m2 0h3m1 0h1m1 0h3m1 0h2m1 0h1m3 0h1m3 0h2M4 15.5h1m1 0h1m4 0h1m2 0h1m4 0h4m3 0h3m2 0h2m3 0h3m1 0h2m1 0h1m4 0h4m2 0h1m3 0h1m1 0h1m1 0h2m1 0h1m3 0h1m2 0h2m1 0h2m1 0h3m5 0h1m1 0h3m5 0h4m3 0h3m1 0h2M6 16.5h1m3 0h3m2 0h1m3 0h2m2 0h1m2 0h2m3 0h1m1 0h1m3 0h1m3 0h6m2 0h1m3 0h1m2 0h2m1 0h1m2 0h3m1 0h1m1 0h3m1 0h1m5 0h1m2 0h1m1 0h2m5 0h2m1 0h1m3 0h1m1 0h1m2 0h1m2 0h1m1 0h2M4 17.5h3m2 0h1m3 0h6m1 0h2m1 0h1m2 0h4m4 0h3m1 0h2m2 0h1m1 0h1m1 0h3m1 0h1m2 0h4m1 0h4m2 0h2m1 0h1m1 0h3m3 0h1m2 0h1m3 0h1m1 0h1m1 0h1m2 0h1m2 0h2m1 0h1m2 0h2m1 0h1m1 0h1m1 0h2m1 0h1M6 18.5h13m2 0h1m7 0h1m4 0h1m2 0h2m6 0h1m4 0h2m1 0h10m1 0h1m1 0h1m1 0h3m4 0h2m1 0h1m3 0h2m2 0h3m3 0h3m3 0h1m1 0h2m1 0h2m1 0h1m1 0h1M4 19.5h1m4 0h1m2 0h4m1 0h4m1 0h1m1 0h1m2 0h1m3 0h1m1 0h1m2 0h1m1 0h2m2 0h1m1 0h3m1 0h4m1 0h3m3 0h1m1 0h2m3 0h3m1 0h1m1 0h1m4 0h1m1 0h1m1 0h1m5 0h1m1 0h2m1 0h1m1 0h5m2 0h2m1 0h5M4 20.5h1m1 0h1m1 0h1m1 0h3m1 0h3m1 0h1m4 0h2m2 0h1m1 0h8m4 0h4m1 0h2m4 0h3m1 0h2m4 0h1m1 0h1m2 0h1m1 0h1m1 0h2m1 0h5m2 0h5m1 0h1m1 0h1m1 0h1m1 0h1m1 0h1m4 0h1m2 0h2m1 0h2M5 21.5h2m1 0h1m7 0h1m1 0h1m1 0h1m2 0h1m1 0h1m1 0h2m3 0h1m2 0h1m6 0h3m3 0h1m1 0h1m1 0h1m2 0h3m4 0h1m2 0h1m1 0h1m1 0h2m2 0h3m2 0h2m1 0h2m2 0h1m1 0h2m1 0h4m2 0h2m1 0h1m3 0h4M7 22.5h6m1 0h2m1 0h1m1 0h1m1 0h2m4 0h2m2 0h2m1 0h2m2 0h2m3 0h3m2 0h1m1 0h3m1 0h1m1 0h1m4 0h2m2 0h2m1 0h1m2 0h3m2 0h1m1 0h5m1 0h7m2 0h3m5 0h1m1 0h1m1 0h4M5 23.5h2m1 0h2m2 0h5m1 0h1m4 0h6m2 0h1m2 0h5m2 0h1m3 0h1m7 0h1m1 0h5m4 0h1m2 0h2m1 0h1m1 0h1m2 0h1m1 0h1m1 0h1m2 0h1m4 0h2m5 0h2m3 0h1m2 0h1m1 0h1m1 0h1m1 0h1M4 24.5h1m1 0h1m1 0h7m2 0h1m1 0h1m1 0h4m1 0h1m1 0h1m4 0h2m1 0h1m2 0h4m1 0h3m1 0h7m1 0h3m2 0h2m1 0h1m2 0h1m2 0h2m2 0h1m1 0h1m3 0h2m1 0h2m1 0h1m1 0h1m1 0h2m2 0h4m4 0h1m1 0h1m2 0h1M5 25.5h1m3 0h1m1 0h1m2 0h2m1 0h1m2 0h1m1 0h1m1 0h2m3 0h2m1 0h1m3 0h2m2 0h2m1 0h2m3 0h2m2 0h1m1 0h1m1 0h6m3 0h2m4 0h1m1 0h6m1 0h1m1 0h1m1 0h2m1 0h3m1 0h1m3 0h2m2 0h1m1 0h4m1 0h2M7 26.5h1m1 0h2m4 0h3m1 0h2m1 0h2m11 0h2m3 0h1m1 0h1m1 0h1m1 0h3m2 0h1m1 0h1m1 0h2m1 0h1m1 0h3m2 0h1m1 0h1m1 0h2m2 0h3m2 0h2m4 0h2m1 0h2m1 0h2m5 0h2m1 0h1m1 0h3m1 0h3M7 27.5h1m3 0h3m1 0h1m1 0h1m2 0h1m2 0h1m2 0h2m1 0h5m1 0h2m1 0h1m1 0h3m2 0h1m2 0h3m2 0h1m1 0h2m5 0h1m3 0h2m1 0h8m1 0h1m1 0h3m1 0h1m1 0h3m3 0h3m12 0h1M6 28.5h1m1 0h5m1 0h1m5 0h2m1 0h1m1 0h8m1 0h3m5 0h1m8 0h7m2 0h4m1 0h1m1 0h1m4 0h2m2 0h6m1 0h1m4 0h2m2 0h3m1 0h1m3 0h5m2 0h2M4 29.5h5m3 0h1m1 0h2m2 0h1m1 0h1m4 0h1m2 0h1m3 0h2m1 0h3m5 0h2m1 0h1m2 0h1m1 0h2m3 0h1m1 0h1m1 0h1m1 0h2m1 0h1m1 0h2m2 0h1m2 0h1m1 0h1m3 0h3m1 0h2m2 0h1m2 0h3m3 0h1m2 0h1m3 0h1m3 0h1M4 30.5h1m1 0h1m1 0h1m1 0h1m1 0h2m1 0h1m3 0h1m6 0h3m1 0h1m1 0h3m2 0h2m6 0h2m3 0h1m1 0h1m1 0h1m1 0h3m1 0h1m3 0h1m3 0h1m2 0h1m1 0h1m2 0h1m1 0h1m1 0h2m2 0h1m1 0h2m1 0h2m1 0h1m2 0h1m4 0h1m1 0h1m1 0h1m1 0h2M6 31.5h1m1 0h1m3 0h1m2 0h1m2 0h3m2 0h3m1 0h2m3 0h4m2 0h2m1 0h1m1 0h2m2 0h6m3 0h1m1 0h5m2 0h3m1 0h2m3 0h3m3 0h1m2 0h3m2 0h1m2 0h1m4 0h1m1 0h3m3 0h4M5 32.5h1m2 0h7m6 0h1m1 0h2m3 0h6m1 0h2m4 0h1m1 0h2m1 0h2m1 0h1m2 0h5m3 0h1m2 0h3m1 0h1m1 0h2m1 0h1m1 0h1m1 0h7m1 0h3m2 0h2m1 0h3m1 0h1m3 0h5m1 0h1m1 0h1M4 33.5h3m2 0h1m1 0h1m1 0h3m1 0h2m3 0h2m1 0h1m2 0h2m2 0h1m1 0h4m2 0h3m1 0h3m2 0h1m1 0h2m1 0h3m2 0h1m3 0h1m1 0h1m2 0h1m1 0h5m2 0h5m2 0h5m2 0h2m4 0h5m1 0h2m1 0h1M5 34.5h1m2 0h4m2 0h4m1 0h1m2 0h2m1 0h3m2 0h1m1 0h3m1 0h1m2 0h1m1 0h1m2 0h1m2 0h1m1 0h2m1 0h1m2 0h3m1 0h1m2 0h1m1 0h3m1 0h2m1 0h1m2 0h2m2 0h1m1 0h2m4 0h4m2 0h2m1 0h1m1 0h1m1 0h1m3 0h1m3 0h1M4 35.5h1m1 0h1m2 0h1m1 0h4m1 0h2m1 0h3m1 0h1m2 0h3m2 0h1m2 0h7m5 0h1m3 0h3m1 0h1m1 0h2m3 0h2m3 0h1m1 0h1m3 0h2m2 0h1m2 0h1m1 0h1m1 0h1m1 0h5m1 0h1m2 0h1m2 0h2m2 0h3m2 0h2M4 36.5h1m1 0h3m1 0h3m1 0h1m1 0h3m1 0h3m3 0h1m2 0h1m1 0h2m1 0h1m4 0h2m1 0h1m1 0h1m1 0h4m2 0h1m1 0h1m1 0h2m1 0h3m2 0h1m1 0h3m1 0h1m6 0h1m2 0h2m5 0h5m1 0h2m4 0h2m1 0h2m2 0h2M7 37.5h1m4 0h1m4 0h1m8 0h4m2 0h4m2 0h1m1 0h4m3 0h2m1 0h1m5 0h1m2 0h1m3 0h1m1 0h1m4 0h2m2 0h1m1 0h1m5 0h5m4 0h1m1 0h3m1 0h1m2 0h1m1 0h3M4 38.5h5m1 0h4m3 0h1m5 0h1m1 0h2m1 0h2m2 0h2m1 0h1m2 0h1m1 0h2m3 0h1m4 0h1m4 0h1m2 0h2m5 0h4m1 0h2m2 0h1m1 0h1m3 0h1m1 0h3m1 0h2m4 0h4m1 0h4m2 0h1m2 0h3M5 39.5h1m1 0h1m1 0h1m3 0h2m1 0h1m2 0h1m1 0h2m2 0h1m2 0h1m2 0h2m4 0h1m4 0h1m1 0h1m5 0h2m1 0h2m2 0h1m1 0h3m1 0h5m1 0h1m3 0h1m1 0h8m1 0h1m3 0h4m2 0h1m1 0h1m2 0h4m1 0h1m2 0h2M5 40.5h1m1 0h4m1 0h1m2 0h4m1 0h2m1 0h1m1 0h1m1 0h1m7 0h1m2 0h7m1 0h8m4 0h3m2 0h3m1 0h1m10 0h1m1 0h1m1 0h4m1 0h2m3 0h3m1 0h1m2 0h4m3 0h3M4 41.5h2m1 0h1m1 0h1m1 0h1m2 0h4m1 0h1m2 0h1m3 0h1m4 0h2m1 0h3m3 0h4m1 0h1m1 0h2m1 0h1m2 0h4m3 0h3m1 0h1m1 0h1m2 0h2m2 0h1m6 0h1m1 0h1m3 0h1m4 0h1m1 0h1m1 0h4m1 0h2m1 0h1m1 0h1M4 42.5h1m1 0h5m1 0h1m3 0h1m1 0h1m1 0h1m1 0h1m2 0h1m1 0h2m1 0h1m1 0h1m1 0h2m2 0h1m1 0h1m1 0h3m2 0h1m5 0h1m1 0h2m1 0h1m3 0h3m1 0h3m3 0h3m1 0h1m1 0h1m4 0h2m1 0h2m1 0h1m1 0h2m2 0h2m4 0h1m1 0h4M7 43.5h1m1 0h1m2 0h2m5 0h3m4 0h2m1 0h2m7 0h2m2 0h1m1 0h1m4 0h4m2 0h1m1 0h4m4 0h4m1 0h1m1 0h1m1 0h2m1 0h2m3 0h1m2 0h1m1 0h1m1 0h2m4 0h2m6 0h5M4 44.5h5m1 0h1m1 0h3m1 0h1m1 0h3m1 0h2m5 0h3m1 0h2m1 0h1m3 0h4m3 0h1m2 0h3m1 0h1m2 0h1m1 0h1m2 0h2m2 0h2m1 0h2m1 0h1m4 0h2m4 0h1m1 0h4m1 0h1m2 0h2m1 0h3m1 0h2m1 0h1m2 0h2M4 45.5h2m1 0h3m1 0h2m2 0h3m1 0h1m2 0h1m5 0h3m1 0h1m1 0h3m1 0h1m1 0h1m1 0h2m1 0h2m1 0h4m1 0h2m1 0h1m1 0h1m3 0h7m1 0h2m1 0h1m2 0h1m1 0h2m2 0h1m1 0h2m1 0h1m3 0h1m1 0h2m1 0h1m1 0h2m2 0h1m3 0h2M4 46.5h1m1 0h1m1 0h1m1 0h1m7 0h1m3 0h2m1 0h4m2 0h1m1 0h1m2 0h1m1 0h2m4 0h2m3 0h1m2 0h5m1 0h2m1 0h2m1 0h6m3 0h4m2 0h3m3 0h2m8 0h1m2 0h2m2 0h3M5 47.5h1m6 0h1m2 0h5m2 0h5m4 0h1m3 0h1m1 0h3m1 0h1m2 0h1m4 0h2m3 0h2m1 0h1m1 0h1m2 0h3m1 0h2m3 0h1m1 0h1m1 0h1m3 0h2m1 0h1m1 0h8m1 0h2m1 0h8m2 0h1M4 48.5h2m2 0h4m1 0h1m1 0h4m1 0h2m4 0h5m3 0h2m2 0h3m1 0h2m1 0h1m2 0h3m1 0h1m1 0h2m3 0h3m2 0h1m5 0h1m1 0h1m1 0h3m2 0h1m1 0h3m2 0h1m1 0h1m1 0h1m1 0h1m1 0h4m1 0h1m2 0h1m1 0h1m3 0h1M5 49.5h1m6 0h1m2 0h3m2 0h2m2 0h1m1 0h1m1 0h2m1 0h2m1 0h2m1 0h1m1 0h3m1 0h2m2 0h2m1 0h3m1 0h2m1 0h1m1 0h1m1 0h1m1 0h2m2 0h6m2 0h3m2 0h1m2 0h1m2 0h1m3 0h2m1 0h1m1 0h3m1 0h2m2 0h2M4 50.5h1m1 0h10m2 0h1m1 0h1m1 0h3m4 0h3m1 0h1m1 0h3m4 0h1m3 0h3m2 0h1m2 0h1m2 0h1m2 0h1m2 0h1m1 0h1m1 0h1m1 0h1m1 0h1m1 0h3m2 0h1m1 0h3m1 0h1m1 0h1m1 0h2m3 0h1m3 0h3m1 0h1m3 0h1m2 0h1M4 51.5h3m4 0h2m6 0h4m1 0h1m2 0h1m1 0h1m2 0h3m1 0h1m1 0h2m2 0h1m1 0h2m1 0h5m1 0h1m1 0h2m4 0h2m1 0h2m2 0h1m4 0h3m2 0h2m2 0h2m1 0h1m1 0h2m2 0h1m1 0h1m1 0h2m3 0h1m2 0h1m1 0h2M4 52.5h1m2 0h7m1 0h2m1 0h2m2 0h2m2 0h1m1 0h6m5 0h3m1 0h2m2 0h3m1 0h7m2 0h2m3 0h1m6 0h1m2 0h6m5 0h1m2 0h2m1 0h4m1 0h2m1 0h9M5 53.5h2m1 0h1m3 0h1m9 0h2m1 0h1m2 0h1m3 0h1m1 0h2m2 0h1m1 0h1m1 0h1m3 0h2m3 0h2m3 0h1m2 0h2m1 0h2m4 0h3m1 0h1m3 0h1m3 0h5m1 0h1m4 0h2m1 0h2m2 0h1m1 0h1m3 0h1m3 0h1M4 54.5h1m2 0h2m1 0h1m1 0h2m1 0h2m1 0h2m2 0h3m1 0h1m1 0h1m1 0h1m1 0h2m1 0h1m1 0h1m1 0h1m1 0h1m2 0h2m1 0h3m2 0h1m1 0h1m1 0h2m1 0h1m1 0h3m2 0h2m2 0h3m1 0h1m1 0h1m1 0h1m1 0h1m1 0h2m2 0h6m1 0h1m1 0h1m1 0h2m1 0h1m1 0h1m1 0h5M7 55.5h2m3 0h1m1 0h1m2 0h2m4 0h1m1 0h4m3 0h1m2 0h1m1 0h1m1 0h1m3 0h2m1 0h1m4 0h2m3 0h2m2 0h2m3 0h1m1 0h1m1 0h1m1 0h1m1 0h4m3 0h2m2 0h2m3 0h2m1 0h3m2 0h2m1 0h1m3 0h1m2 0h1M5 56.5h1m2 0h10m2 0h1m2 0h1m3 0h6m3 0h1m1 0h2m3 0h1m2 0h3m1 0h7m3 0h1m1 0h2m1 0h2m2 0h5m2 0h7m3 0h2m2 0h1m3 0h3m1 0h1m1 0h6M4 57.5h2m2 0h1m3 0h1m1 0h4m9 0h1m1 0h1m3 0h1m3 0h2m2 0h1m1 0h1m1 0h1m1 0h1m4 0h4m2 0h1m4 0h1m2 0h2m3 0h1m6 0h1m1 0h5m3 0h1m1 0h1m3 0h1m3 0h2m2 0h2m3 0h2M4 58.5h3m2 0h2m1 0h9m1 0h3m2 0h3m3 0h3m2 0h5m1 0h4m2 0h2m2 0h5m1 0h1m1 0h1m1 0h1m2 0h4m1 0h1m2 0h1m6 0h1m2 0h1m2 0h1m1 0h1m1 0h9m3 0h1m1 0h3M5 59.5h5m7 0h1m2 0h2m1 0h2m1 0h1m1 0h8m3 0h2m2 0h4m2 0h1m3 0h3m1 0h2m1 0h2m3 0h1m3 0h1m3 0h2m3 0h1m4 0h1m1 0h6m2 0h1m2 0h1m1 0h2m1 0h2m2 0h2m1 0h1M4 60.5h1m1 0h2m2 0h1m1 0h1m4 0h1m2 0h2m3 0h1m1 0h2m1 0h1m4 0h1m2 0h1m3 0h2m1 0h2m1 0h5m1 0h2m1 0h3m2 0h1m1 0h2m2 0h1m5 0h1m2 0h2m2 0h2m3 0h4m2 0h3m2 0h1m1 0h1m1 0h1m5 0h2M4 61.5h1m1 0h1m1 0h2m1 0h3m2 0h3m2 0h1m2 0h4m1 0h4m2 0h1m1 0h1m4 0h1m2 0h2m1 0h1m1 0h3m4 0h1m1 0h3m2 0h1m1 0h3m2 0h2m3 0h3m2 0h1m1 0h3m1 0h2m1 0h1m2 0h2m1 0h2m1 0h4m1 0h1M6 62.5h2m1 0h2m2 0h1m1 0h2m2 0h3m3 0h1m1 0h1m1 0h1m1 0h1m1 0h3m2 0h1m1 0h1m2 0h3m1 0h1m3 0h3m2 0h1m1 0h1m1 0h2m2 0h1m1 0h5m1 0h2m2 0h1m1 0h4m1 0h1m3 0h1m2 0h2m2 0h1m1 0h1m1 0h1m1 0h1m1 0h4m1 0h1M5 63.5h2m1 0h1m3 0h5m1 0h7m1 0h1m1 0h1m4 0h3m1 0h1m1 0h1m4 0h1m3 0h1m1 0h1m4 0h3m2 0h1m2 0h1m1 0h2m1 0h2m3 0h8m1 0h1m1 0h3m2 0h1m1 0h1m4 0h3m5 0h1M4 64.5h2m2 0h3m1 0h2m1 0h2m3 0h7m1 0h1m1 0h2m4 0h5m1 0h1m1 0h7m1 0h5m6 0h2m1 0h1m2 0h3m1 0h1m4 0h1m3 0h1m1 0h1m1 0h4m6 0h1m1 0h1m8 0h1M4 65.5h4m1 0h1m2 0h2m3 0h2m1 0h4m1 0h1m1 0h1m4 0h1m5 0h1m2 0h2m3 0h4m1 0h1m2 0h2m1 0h5m2 0h1m2 0h1m2 0h3m3 0h1m1 0h1m1 0h3m3 0h3m1 0h3m3 0h1m2 0h2m3 0h3m1 0h1M9 66.5h2m1 0h3m1 0h1m1 0h3m1 0h5m3 0h1m1 0h2m1 0h1m3 0h1m7 0h1m2 0h1m2 0h1m3 0h1m1 0h4m3 0h2m1 0h2m3 0h1m2 0h1m2 0h1m4 0h1m1 0h3m2 0h2m1 0h1m2 0h2m6 0h3M5 67.5h1m2 0h1m2 0h1m1 0h1m1 0h1m1 0h1m3 0h1m1 0h1m1 0h1m1 0h3m1 0h2m1 0h6m1 0h1m1 0h4m2 0h2m1 0h1m2 0h1m1 0h2m1 0h1m1 0h2m1 0h1m2 0h1m2 0h2m7 0h1m1 0h1m2 0h2m3 0h1m3 0h1m4 0h1m1 0h1m1 0h1m2 0h1m1 0h1M4 68.5h2m2 0h3m7 0h2m1 0h1m3 0h1m1 0h4m3 0h4m2 0h1m7 0h3m1 0h4m2 0h3m1 0h2m1 0h7m4 0h4m1 0h5m1 0h2m1 0h2m1 0h2m1 0h5m1 0h2m2 0h1M4 69.5h2m1 0h3m2 0h1m1 0h1m1 0h6m1 0h1m1 0h2m1 0h3m1 0h2m1 0h2m2 0h4m4 0h2m3 0h1m3 0h2m3 0h6m1 0h2m3 0h2m3 0h2m1 0h1m2 0h1m1 0h6m2 0h1m3 0h1m1 0h2m3 0h4M7 70.5h4m1 0h1m1 0h1m2 0h3m1 0h3m1 0h1m5 0h1m1 0h1m1 0h3m3 0h1m4 0h1m1 0h1m1 0h4m4 0h2m1 0h1m5 0h1m1 0h1m2 0h3m2 0h1m2 0h3m4 0h2m1 0h1m1 0h4m2 0h2m2 0h3M4 71.5h1m3 0h1m2 0h2m1 0h1m1 0h1m1 0h6m1 0h2m4 0h1m6 0h4m4 0h1m1 0h3m3 0h3m1 0h2m2 0h1m5 0h1m1 0h1m1 0h1m4 0h4m1 0h1m3 0h2m2 0h2m1 0h1m3 0h2m2 0h3M5 72.5h1m3 0h2m5 0h1m1 0h1m1 0h2m8 0h1m2 0h1m1 0h2m4 0h1m2 0h3m1 0h2m2 0h4m2 0h1m4 0h3m1 0h2m3 0h1m4 0h1m1 0h1m2 0h3m1 0h2m1 0h1m1 0h2m2 0h4m1 0h3m3 0h3M5 73.5h3m3 0h2m2 0h2m3 0h3m2 0h1m1 0h1m2 0h1m4 0h4m3 0h1m1 0h1m3 0h1m1 0h3m4 0h3m2 0h1m1 0h1m1 0h2m3 0h3m2 0h4m1 0h2m2 0h2m1 0h2m2 0h1m1 0h1m7 0h1m1 0h1m2 0h2M4 74.5h3m2 0h5m2 0h1m1 0h1m2 0h1m3 0h3m2 0h3m1 0h1m2 0h3m4 0h2m1 0h2m3 0h1m4 0h1m1 0h2m3 0h5m1 0h1m1 0h1m1 0h4m2 0h3m2 0h2m1 0h1m3 0h5m1 0h1m2 0h3m1 0h1m1 0h2M6 75.5h1m4 0h1m1 0h1m1 0h1m2 0h3m2 0h4m1 0h2m3 0h1m1 0h1m2 0h2m2 0h4m1 0h1m2 0h1m3 0h2m5 0h1m1 0h2m2 0h2m2 0h1m3 0h1m3 0h5m1 0h1m1 0h2m4 0h1m2 0h1m1 0h1m2 0h1m2 0h2m2 0h1M4 76.5h2m1 0h6m1 0h4m1 0h5m1 0h1m1 0h6m1 0h1m1 0h1m1 0h1m1 0h1m4 0h4m2 0h7m1 0h1m2 0h3m2 0h3m1 0h11m3 0h5m2 0h2m2 0h1m3 0h7m1 0h1M4 77.5h5m3 0h1m2 0h1m2 0h1m3 0h1m3 0h3m3 0h1m2 0h1m4 0h4m4 0h2m1 0h2m3 0h4m1 0h5m1 0h1m4 0h1m1 0h1m1 0h1m3 0h1m1 0h1m2 0h2m3 0h2m2 0h2m1 0h4m3 0h1M4 78.5h2m1 0h2m1 0h1m1 0h2m3 0h4m1 0h1m4 0h2m1 0h1m1 0h3m3 0h2m1 0h4m1 0h2m1 0h2m1 0h1m1 0h1m1 0h1m1 0h2m2 0h3m4 0h1m2 0h1m3 0h1m1 0h1m1 0h1m1 0h4m2 0h2m2 0h4m2 0h3m1 0h1m1 0h1m2 0h1M5 79.5h4m3 0h1m3 0h1m2 0h1m1 0h1m1 0h3m2 0h1m3 0h6m1 0h1m1 0h3m1 0h2m3 0h3m3 0h2m8 0h6m1 0h4m3 0h6m1 0h2m5 0h2m2 0h3m3 0h1m1 0h2M4 80.5h3m1 0h5m1 0h1m3 0h2m3 0h1m1 0h1m2 0h6m1 0h1m1 0h1m5 0h2m3 0h1m1 0h1m1 0h5m3 0h2m1 0h2m1 0h4m1 0h1m1 0h1m1 0h6m3 0h1m1 0h1m1 0h1m1 0h1m3 0h1m5 0h5m1 0h2M4 81.5h3m2 0h1m1 0h1m3 0h4m1 0h2m1 0h1m6 0h1m1 0h2m4 0h5m1 0h1m1 0h1m2 0h5m3 0h4m2 0h3m2 0h2m2 0h1m1 0h1m2 0h2m3 0h2m1 0h1m1 0h2m2 0h1m1 0h1m4 0h1m2 0h2m2 0h1m1 0h2M5 82.5h1m1 0h1m2 0h1m1 0h1m2 0h1m4 0h5m1 0h1m1 0h1m1 0h2m1 0h1m1 0h2m1 0h2m1 0h1m2 0h8m3 0h2m1 0h1m1 0h2m3 0h2m3 0h2m1 0h4m1 0h5m4 0h1m1 0h1m3 0h1m1 0h2m1 0h1m4 0h3m2 0h1M7 83.5h1m3 0h2m1 0h2m2 0h4m7 0h12m1 0h2m1 0h2m3 0h1m1 0h1m3 0h1m2 0h1m1 0h2m5 0h2m4 0h2m1 0h2m3 0h1m2 0h4m1 0h2m1 0h2m1 0h1m1 0h1m3 0h1m1 0h1m1 0h1m1 0h1M4 84.5h1m4 0h4m1 0h1m1 0h1m3 0h2m1 0h3m5 0h3m1 0h3m1 0h1m1 0h3m2 0h1m1 0h1m3 0h1m1 0h3m3 0h1m1 0h1m1 0h2m3 0h1m3 0h1m4 0h1m1 0h2m1 0h1m1 0h1m1 0h1m1 0h2m1 0h1m1 0h3m6 0h3m1 0h2M5 85.5h2m1 0h2m1 0h1m2 0h1m2 0h1m2 0h1m1 0h2m3 0h2m1 0h2m2 0h4m1 0h1m2 0h1m2 0h4m11 0h1m2 0h1m1 0h3m3 0h2m1 0h3m1 0h1m1 0h3m1 0h1m1 0h1m2 0h7m1 0h4m4 0h1m2 0h1M5 86.5h6m1 0h2m1 0h2m2 0h1m1 0h6m1 0h4m5 0h1m1 0h1m1 0h2m1 0h2m1 0h2m2 0h1m2 0h1m3 0h1m6 0h1m4 0h5m1 0h1m2 0h2m2 0h3m1 0h1m1 0h1m2 0h4m1 0h1m1 0h1m7 0h1M5 87.5h2m4 0h1m5 0h3m1 0h2m1 0h3m4 0h1m2 0h1m2 0h2m1 0h1m1 0h1m1 0h1m2 0h14m2 0h1m2 0h4m1 0h2m6 0h1m3 0h1m2 0h1m1 0h2m6 0h3m2 0h3m1 0h4M4 88.5h2m2 0h3m2 0h1m1 0h2m1 0h3m1 0h1m1 0h2m4 0h2m2 0h2m5 0h1m1 0h2m2 0h7m3 0h1m1 0h1m1 0h1m1 0h3m1 0h1m1 0h1m1 0h4m3 0h2m1 0h2m1 0h1m5 0h1m1 0h2m4 0h1m2 0h1m2 0h2M4 89.5h3m2 0h1m1 0h3m1 0h1m1 0h2m2 0h7m1 0h2m2 0h3m1 0h1m1 0h1m1 0h3m1 0h1m3 0h2m1 0h1m5 0h1m1 0h3m1 0h2m2 0h2m2 0h3m1 0h3m4 0h2m1 0h1m3 0h4m3 0h4m1 0h1m2 0h2M6 90.5h2m2 0h1m1 0h4m1 0h1m1 0h4m3 0h1m2 0h1m3 0h4m5 0h1m1 0h2m1 0h1m1 0h1m1 0h1m4 0h4m1 0h1m3 0h2m1 0h2m1 0h4m2 0h1m1 0h1m2 0h3m1 0h1m3 0h4m1 0h1m3 0h3m1 0h1m1 0h1m2 0h1M4 91.5h6m3 0h2m2 0h1m1 0h1m2 0h3m1 0h1m1 0h2m1 0h1m1 0h2m2 0h3m1 0h1m1 0h2m2 0h1m2 0h2m1 0h1m1 0h4m1 0h2m1 0h1m4 0h1m3 0h2m2 0h5m1 0h2m1 0h2m3 0h1m6 0h1m3 0h1m1 0h1m1 0h1m1 0h1M4 92.5h11m1 0h1m2 0h1m1 0h9m2 0h5m2 0h1m1 0h2m1 0h1m1 0h1m2 0h3m3 0h1m1 0h2m2 0h1m2 0h1m4 0h2m1 0h1m1 0h3m1 0h3m2 0h1m2 0h1m1 0h2m1 0h8m1 0h1m1 0h1m1 0h3m1 0h1M4 93.5h3m1 0h2m1 0h4m1 0h1m6 0h1m1 0h6m1 0h1m2 0h1m1 0h1m1 0h2m1 0h1m1 0h1m1 0h1m2 0h4m1 0h1m4 0h1m1 0h1m1 0h3m6 0h1m1 0h1m1 0h4m3 0h1m2 0h3m1 0h1m1 0h1m1 0h2m1 0h2m1 0h2m1 0h1m1 0h4M8 94.5h1m1 0h1m1 0h1m1 0h1m2 0h1m2 0h1m1 0h1m1 0h1m1 0h1m2 0h3m1 0h1m1 0h3m2 0h1m2 0h2m2 0h1m2 0h1m2 0h1m1 0h1m1 0h2m4 0h1m1 0h2m1 0h2m1 0h1m1 0h5m3 0h2m4 0h6m2 0h1m1 0h2m1 0h2m2 0h4M9 95.5h1m1 0h2m4 0h1m1 0h1m2 0h1m1 0h1m1 0h7m2 0h1m1 0h1m1 0h3m3 0h2m3 0h1m3 0h2m2 0h1m1 0h2m2 0h1m2 0h2m2 0h1m2 0h2m5 0h1m2 0h1m1 0h1m2 0h2m3 0h1m10 0h2M4 96.5h2m3 0h4m1 0h1m3 0h1m1 0h2m2 0h3m2 0h1m8 0h4m2 0h1m1 0h3m1 0h2m1 0h1m2 0h2m2 0h2m1 0h1m1 0h1m1 0h1m2 0h1m2 0h4m2 0h4m1 0h1m1 0h6m2 0h1m1 0h1m1 0h2m1 0h1m2 0h5M4 97.5h2m2 0h2m3 0h1m3 0h2m2 0h2m2 0h1m2 0h2m2 0h2m1 0h3m1 0h1m2 0h3m2 0h1m2 0h1m2 0h1m2 0h3m1 0h4m1 0h1m4 0h3m1 0h1m3 0h1m7 0h3m3 0h1m1 0h1m1 0h1m1 0h3m1 0h1m3 0h1M4 98.5h3m3 0h2m2 0h2m2 0h6m1 0h3m2 0h6m3 0h2m1 0h1m5 0h2m3 0h6m2 0h2m9 0h3m3 0h4m3 0h2m2 0h2m3 0h3m1 0h4m2 0h1m1 0h3M6 99.5h1m1 0h2m6 0h1m4 0h1m1 0h4m4 0h1m3 0h2m1 0h2m2 0h3m4 0h1m3 0h2m4 0h3m3 0h1m2 0h1m1 0h2m3 0h3m1 0h1m1 0h2m5 0h1m5 0h2m1 0h3m1 0h1m1 0h3m1 0h1M7 100.5h2m1 0h3m3 0h1m1 0h1m2 0h1m1 0h3m1 0h10m2 0h1m3 0h1m1 0h2m1 0h3m1 0h5m1 0h2m1 0h5m2 0h5m3 0h5m1 0h1m3 0h1m2 0h1m3 0h2m1 0h10M12 101.5h5m2 0h2m1 0h2m2 0h3m3 0h2m3 0h1m1 0h11m2 0h1m3 0h1m2 0h2m1 0h2m3 0h1m1 0h4m1 0h1m1 0h1m3 0h1m2 0h1m5 0h6m1 0h1m1 0h1m1 0h1m3 0h1m2 0h1M4 102.5h7m2 0h3m3 0h2m2 0h1m1 0h1m2 0h1m1 0h1m1 0h1m2 0h6m1 0h5m2 0h1m1 0h2m1 0h1m1 0h1m1 0h2m3 0h1m2 0h6m1 0h4m1 0h1m1 0h1m2 0h1m2 0h1m2 0h1m1 0h4m1 0h1m1 0h3m1 0h1m1 0h5M4 103.5h1m5 0h1m1 0h3m1 0h3m1 0h3m3 0h1m1 0h1m3 0h1m2 0h1m2 0h3m1 0h1m1 0h1m1 0h7m3 0h2m2 0h3m4 0h4m2 0h2m1 0h1m3 0h2m4 0h2m3 0h1m1 0h1m2 0h1m1 0h3m3 0h5M4 104.5h1m1 0h3m1 0h1m1 0h8m3 0h2m2 0h7m2 0h1m2 0h5m1 0h1m1 0h1m2 0h1m1 0h5m1 0h5m1 0h3m1 0h2m2 0h1m3 0h6m1 0h1m1 0h1m1 0h2m1 0h2m5 0h1m2 0h5m1 0h2M4 105.5h1m1 0h3m1 0h1m4 0h1m1 0h2m1 0h2m2 0h2m1 0h1m1 0h2m1 0h1m1 0h1m2 0h1m1 0h1m4 0h1m7 0h1m1 0h1m2 0h1m1 0h3m1 0h1m3 0h2m1 0h3m2 0h1m5 0h3m2 0h4m1 0h1m1 0h3m1 0h2m2 0h1m3 0h4M4 106.5h1m1 0h3m1 0h1m2 0h3m1 0h1m1 0h4m1 0h2m2 0h2m2 0h1m2 0h2m1 0h4m4 0h3m2 0h6m4 0h1m4 0h1m3 0h1m1 0h1m2 0h1m2 0h4m1 0h1m1 0h3m5 0h1m1 0h1m1 0h1m2 0h2m3 0h1M4 107.5h1m5 0h1m1 0h1m1 0h3m2 0h1m1 0h2m1 0h1m2 0h1m3 0h3m1 0h1m1 0h1m2 0h2m3 0h4m1 0h2m1 0h1m5 0h1m2 0h1m2 0h2m1 0h1m9 0h2m1 0h2m1 0h2m1 0h1m1 0h3m1 0h8m1 0h1m1 0h3M4 108.5h7m1 0h3m1 0h2m2 0h1m1 0h1m1 0h2m5 0h1m2 0h5m3 0h1m3 0h2m3 0h3m2 0h2m1 0h2m1 0h1m2 0h1m2 0h4m1 0h3m1 0h1m4 0h2m2 0h1m2 0h1m1 0h1m10 0h1m1 0h3m1 0h1"/></svg>
