<svg xmlns="http://www.w3.org/2000/svg" viewBox="0 0 109 109" shape-rendering="crispEdges"><path fill="#ffffff" d="M0 0h109v109H0z"/><path stroke="#000000" d="M4 4.5h7m3 0h1m1 0h1m1 0h1m1 0h3m1 0h1m2 0h2m2 0h2m1 0h1m2 0h3m2 0h1m1 0h2m1 0h1m1 0h1m2 0h2m2 0h4m2 0h2m2 0h1m2 0h2m2 0h2m5 0h1m2 0h2m1 0h4m2 0h1m1 0h2m2 0h7M4 5.5h1m5 0h1m1 0h1m2 0h3m1 0h3m3 0h6m1 0h2m2 0h4m4 0h2m3 0h3m2 0h1m1 0h1m6 0h2m1 0h1m4 0h2m3 0h1m2 0h3m1 0h6m1 0h3m5 0h1m5 0h1M4 6.5h1m1 0h3m1 0h1m1 0h1m1 0h1m1 0h1m1 0h1m1 0h1m2 0h4m3 0h2m1 0h3m3 0h1m2 0h2m2 0h2m1 0h3m4 0h1m3 0h2m2 0h3m1 0h1m1 0h5m1 0h1m2 0h4m2 0h1m2 0h1m2 0h1m1 0h1m1 0h1m2 0h1m1 0h3m1 0h1M4 7.5h1m1 0h3m1 0h1m3 0h1m2 0h1m1 0h1m5 0h1m3 0h1m3 0h1m1 0h3m2 0h4m2 0h1m1 0h2m2 0h1m1 0h2m2 0h4m3 0h1m2 0h1m3 0h2m2 0h6m3 0h2m5 0h1m1 0h2m2 0h1m1 0h3m1 0h1M4 8.5h1m1 0h3m1 0h1m1 0h2m1 0h5m2 0h3m1 0h1m1 0h7m2 0h1m2 0h2m1 0h1m2 0h2m2 0h1m1 0h5m1 0h1m1 0h4m1 0h1m2 0h2m1 0h1m2 0h5m2 0h1m2 0h2m1 0h2m3 0h1m1 0h1m1 0h1m1 0h1m1 0h3m1 0h1M4 9.5h1m5 0h1m1 0h1m1 0h4m1 0h1m2 0h2m1 0h1m1 0h2m1 0h1m3 0h1m1 0h1m1 0h5m2 0h1m1 0h3m1 0h2m3 0h1m1 0h2m5 0h1m1 0h2m3 0h3m3 0h4m1 0h3m3 0h1m1 0h1m3 0h1m2 0h1m5 0h1M4 10.5h7m1 0h1m1 0h1m1 0h1m1 0h1m1 0h1m1 0h1m1 0h1m1 0h1m1 0h1m1 0h1m1 0h1m1 0h1m1 0h1m1 0h1m1 0h1m1 0h1m1 0h1m1 0h1m1 0h1m1 0h1m1 0h1m1 0h1m1 0h1m1 0h1m1 0h1m1 0h1m1 0h1m1 0h1m1 0h1m1 0h1m1 0h1m1 0h1m1 0h1m1 0h1m1 0h1m1 0h1m1 0h1m1 0h1m1 0h1m1 0h1m1 0h1m1 0h1m1 0h1m1 0h7M12 11.5h1m2 0h1m6 0h1m2 0h1m2 0h1m1 0h1m3 0h3m1 0h2m3 0h3m2 0h1m1 0h1m1 0h1m3 0h2m2 0h1m2 0h1m4 0h3m1 0h1m1 0h1m3 0h2m1 0h2m1 0h3m1 0h3m4 0h1M4 12.5h2m1 0h1m2 0h2m1 0h2m1 0h4m1 0h1m3 0h3m1 0h8m3 0h1m4 0h1m2 0h1m3 0h6m1 0h1m1 0h2m2 0h3m1 0h3m1 0h6m1 0h2m2 0h1m1 0h2m2 0h5m1 0h1m1 0h3m1 0h2M5 13.5h2m2 0h1m1 0h3m1 0h1m7 0h2m1 0h3m1 0h3m2 0h1m4 0h2m2 0h1m8 0h1m2 0h1m4 0h1m1 0h2m1 0h2m1 0h1m1 0h3m1 0h1m1 0h4m1 0h2m3 0h1m1 0h1m1 0h3m1 0h3m6 0h1M4 14.5h1m3 0h1m1 0h1m2 0h2m2 0h1m2 0h2m1 0h2m1 0h3m1 0h2m4 0h2m3 0h1m2 0h1m2 0h1m1 0h1m1 0h3m1 0h1m1 0h1m3 0h4m2 0h2m1 0h4m1 0h4m1 0h3m1 0h1m1 0h3m1 0h2m3 0h3m3 0h3M12 15.5h4m2 0h3m3 0h4m1 0h1m1 0h4m2 0h1m1 0h1m2 0h6m1 0h2m3 0h1m3 0h1m1 0h3m1 0h2m2 0h1m3 0h1m2 0h1m2 0h2m1 0h1m3 0h1m1 0h1m1 0h2m6 0h1m3 0h1m2 0h1M4 16.5h1m1 0h3m1 0h1m1 0h1m6 0h3m1 0h2m5 0h1m1 0h2m1 0h5m1 0h3m1 0h3m1 0h2m1 0h3m1 0h1m2 0h1m1 0h2m1 0h1m3 0h1m1 0h1m6 0h1m4 0h1m2 0h3m1 0h1m4 0h3m3 0h1m1 0h1m1 0h1M7 17.5h1m1 0h1m1 0h1m2 0h7m2 0h4m1 0h2m3 0h5m1 0h1m4 0h1m1 0h1m1 0h1m1 0h3m1 0h2m1 0h2m2 0h1m1 0h4m1 0h1m1 0h1m1 0h1m1 0h4m1 0h1m4 0h2m8 0h2m1 0h1m1 0h2M7 18.5h1m2 0h3m1 0h1m1 0h1m4 0h1m1 0h1m2 0h3m3 0h1m1 0h1m4 0h6m2 0h1m3 0h1m1 0h2m4 0h7m1 0h2m2 0h4m1 0h2m1 0h3m2 0h2m1 0h2m2 0h3m1 0h1m2 0h5m1 0h1M5 19.5h4m2 0h2m3 0h1m1 0h1m1 0h1m5 0h1m1 0h1m2 0h5m1 0h1m2 0h3m4 0h3m1 0h3m3 0h2m1 0h1m3 0h1m3 0h2m1 0h1m5 0h1m1 0h2m2 0h1m1 0h1m1 0h2m2 0h4m1 0h1m1 0h1m1 0h1m3 0h1M4 20.5h1m5 0h2m3 0h1m2 0h2m3 0h1m5 0h2m1 0h2m1 0h1m1 0h1m3 0h3m2 0h1m1 0h1m3 0h1m4 0h1m1 0h1m3 0h1m1 0h6m2 0h2m2 0h1m2 0h5m1 0h1m1 0h4m2 0h1m3 0h4m2 0h1M5 21.5h5m3 0h1m1 0h1m4 0h2m5 0h2m1 0h1m1 0h4m3 0h1m8 0h1m1 0h2m2 0h3m2 0h1m3 0h1m1 0h2m2 0h4m1 0h1m1 0h1m1 0h1m1 0h2m2 0h1m4 0h3m3 0h2m3 0h1m2 0h2M4 22.5h2m1 0h1m1 0h4m1 0h2m3 0h1m2 0h2m2 0h1m1 0h1m1 0h1m3 0h2m3 0h2m2 0h2m1 0h1m1 0h4m1 0h2m1 0h3m2 0h2m4 0h2m1 0h5m2 0h2m1 0h2m2 0h1m3 0h1m2 0h1m1 0h2m4 0h2m3 0h1M6 23.5h1m1 0h2m11 0h3m2 0h3m2 0h3m2 0h1m3 0h1m2 0h2m1 0h1m5 0h2m1 0h1m1 0h2m3 0h2m1 0h4m1 0h2m1 0h1m5 0h3m2 0h2m1 0h1m1 0h3m2 0h1m4 0h2m2 0h2M5 24.5h12m1 0h5m1 0h2m1 0h1m4 0h1m2 0h4m1 0h1m1 0h3m2 0h1m3 0h5m1 0h8m5 0h1m2 0h2m3 0h1m2 0h1m3 0h4m1 0h1m2 0h1m2 0h1m2 0h2m1 0h2M4 25.5h1m3 0h2m1 0h2m2 0h3m4 0h2m3 0h1m3 0h2m3 0h3m1 0h2m2 0h1m2 0h1m1 0h1m1 0h2m2 0h1m2 0h2m3 0h1m2 0h2m1 0h5m1 0h6m2 0h1m1 0h3m1 0h6m1 0h1m2 0h1M4 26.5h1m2 0h1m2 0h2m2 0h2m3 0h1m1 0h1m1 0h2m1 0h3m1 0h1m2 0h1m1 0h1m2 0h6m1 0h1m1 0h1m2 0h1m2 0h3m1 0h3m4 0h1m1 0h1m1 0h1m1 0h1m1 0h1m1 0h2m1 0h1m4 0h1m1 0h1m1 0h1m1 0h1m1 0h1m1 0h3m2 0h2M4 27.5h1m2 0h2m2 0h3m1 0h2m1 0h6m1 0h2m1 0h1m1 0h1m1 0h3m1 0h1m3 0h4m1 0h1m3 0h2m1 0h4m3 0h2m1 0h1m3 0h1m2 0h3m1 0h1m1 0h1m8 0h1m2 0h4m2 0h1m1 0h3m1 0h1m2 0h3M4 28.5h3m1 0h3m1 0h3m3 0h2m2 0h2m9 0h2m1 0h2m2 0h3m1 0h1m1 0h1m1 0h5m5 0h1m1 0h1m2 0h1m3 0h1m1 0h1m5 0h2m3 0h1m2 0h1m3 0h3m2 0h3m2 0h2m3 0h1m1 0h1M4 29.5h1m1 0h1m1 0h2m1 0h1m1 0h1m1 0h1m7 0h4m10 0h2m3 0h1m1 0h3m4 0h3m1 0h2m1 0h1m4 0h2m2 0h1m2 0h2m1 0h7m1 0h2m1 0h1m1 0h3m2 0h4m2 0h1m2 0h1m1 0h2M4 30.5h1m1 0h11m4 0h2m2 0h3m1 0h7m2 0h4m1 0h1m3 0h2m1 0h7m1 0h1m2 0h5m6 0h1m1 0h6m4 0h6m4 0h1m1 0h5m1 0h2M4 31.5h3m1 0h1m3 0h1m1 0h2m1 0h3m5 0h1m1 0h2m1 0h1m3 0h1m1 0h4m3 0h1m3 0h4m1 0h1m3 0h1m4 0h1m1 0h1m1 0h4m3 0h1m1 0h1m3 0h4m1 0h1m1 0h2m1 0h3m1 0h2m1 0h2m3 0h3M4 32.5h3m1 0h1m1 0h1m1 0h2m1 0h2m1 0h2m3 0h1m5 0h2m1 0h1m1 0h1m1 0h1m1 0h1m1 0h2m5 0h1m2 0h3m1 0h1m1 0h1m1 0h1m1 0h1m1 0h1m1 0h1m7 0h1m1 0h1m1 0h1m1 0h2m1 0h1m1 0h9m2 0h1m1 0h1m1 0h1m1 0h1m3 0h1M8 33.5h1m3 0h1m1 0h1m1 0h1m2 0h1m1 0h3m1 0h1m1 0h1m1 0h2m3 0h4m1 0h1m5 0h1m1 0h3m1 0h2m3 0h3m5 0h6m1 0h1m2 0h1m3 0h2m5 0h5m1 0h3m1 0h2m3 0h3m1 0h1M4 34.5h2m2 0h5m3 0h3m4 0h2m3 0h7m1 0h1m1 0h3m2 0h1m2 0h4m1 0h6m2 0h1m1 0h1m1 0h1m4 0h2m4 0h5m1 0h3m3 0h3m1 0h2m3 0h6m1 0h1M7 35.5h2m2 0h2m1 0h1m3 0h1m2 0h2m2 0h1m2 0h1m2 0h1m1 0h1m2 0h1m1 0h3m1 0h3m1 0h2m1 0h1m1 0h1m4 0h2m1 0h1m2 0h1m1 0h5m2 0h2m1 0h1m4 0h2m3 0h3m3 0h5m2 0h1m5 0h1M6 36.5h2m1 0h3m4 0h3m1 0h3m2 0h1m2 0h2m1 0h1m1 0h2m1 0h1m1 0h1m1 0h1m1 0h2m1 0h2m4 0h1m2 0h2m1 0h2m4 0h1m3 0h1m2 0h1m1 0h1m1 0h3m2 0h3m1 0h1m2 0h1m1 0h1m2 0h1m1 0h3m1 0h5m1 0h1M4 37.5h1m2 0h1m3 0h1m3 0h1m2 0h4m1 0h3m1 0h3m2 0h2m1 0h3m2 0h1m1 0h3m1 0h1m1 0h1m1 0h6m1 0h5m3 0h1m2 0h2m2 0h2m1 0h1m2 0h1m1 0h2m1 0h5m1 0h3m2 0h2m2 0h1m1 0h3m1 0h1M5 38.5h1m1 0h5m1 0h1m1 0h3m1 0h4m2 0h2m1 0h8m1 0h4m1 0h1m1 0h1m1 0h1m1 0h3m1 0h3m1 0h3m1 0h6m1 0h1m1 0h1m1 0h1m1 0h1m3 0h4m2 0h1m1 0h1m1 0h5m1 0h1m1 0h3m3 0h1m1 0h1M7 39.5h1m1 0h1m3 0h2m1 0h1m1 0h1m1 0h1m2 0h4m3 0h1m1 0h1m1 0h1m1 0h1m1 0h2m1 0h1m5 0h1m2 0h2m4 0h2m2 0h2m2 0h6m1 0h1m1 0h4m2 0h1m1 0h3m2 0h4m1 0h3m2 0h1m2 0h1m1 0h1M4 40.5h1m5 0h1m1 0h1m1 0h3m2 0h3m1 0h1m1 0h1m1 0h4m2 0h2m1 0h1m1 0h1m1 0h7m1 0h1m3 0h3m3 0h3m1 0h1m2 0h3m1 0h5m1 0h1m1 0h1m1 0h2m1 0h1m1 0h1m3 0h1m2 0h4m1 0h1m2 0h1m1 0h2M4 41.5h4m3 0h1m1 0h1m2 0h1m1 0h1m2 0h3m3 0h1m1 0h2m1 0h1m1 0h1m4 0h1m1 0h2m1 0h4m1 0h1m2 0h1m1 0h4m4 0h3m4 0h1m1 0h2m1 0h2m1 0h3m1 0h4m1 0h1m3 0h2m3 0h3m1 0h3m2 0h1M7 42.5h2m1 0h2m4 0h4m1 0h1m2 0h3m1 0h1m1 0h2m1 0h2m2 0h2m3 0h1m2 0h1m7 0h1m1 0h1m2 0h1m1 0h1m1 0h2m1 0h1m1 0h1m1 0h2m1 0h2m1 0h2m3 0h2m4 0h5m1 0h1m1 0h1m1 0h5M4 43.5h3m1 0h2m2 0h1m1 0h1m1 0h2m3 0h1m1 0h2m4 0h4m3 0h3m1 0h2m1 0h2m3 0h3m4 0h1m1 0h1m2 0h1m1 0h6m1 0h1m5 0h1m1 0h2m2 0h2m1 0h1m2 0h2m1 0h2m1 0h1m1 0h2m2 0h5M8 44.5h4m1 0h6m2 0h2m10 0h2m2 0h2m1 0h2m1 0h6m1 0h1m2 0h3m4 0h6m1 0h2m8 0h1m3 0h3m1 0h5m3 0h1m1 0h3m1 0h3M4 45.5h3m4 0h1m1 0h1m2 0h3m4 0h2m3 0h1m2 0h3m1 0h1m7 0h2m2 0h3m1 0h1m1 0h1m3 0h2m1 0h1m1 0h1m1 0h5m2 0h1m5 0h1m1 0h1m6 0h3m1 0h1m1 0h2m1 0h1m1 0h1m1 0h1m4 0h1M5 46.5h1m2 0h1m1 0h2m1 0h5m3 0h5m1 0h1m2 0h1m1 0h1m4 0h1m2 0h4m1 0h3m1 0h2m1 0h2m5 0h1m2 0h1m1 0h4m1 0h2m1 0h1m1 0h1m1 0h4m2 0h2m1 0h1m1 0h1m3 0h3m1 0h1m1 0h1m1 0h1m1 0h2m1 0h1M4 47.5h1m1 0h3m3 0h3m1 0h2m1 0h3m4 0h3m5 0h2m1 0h1m1 0h7m2 0h3m4 0h2m1 0h1m3 0h1m4 0h1m2 0h1m3 0h1m4 0h7m1 0h3m2 0h3m1 0h2m1 0h1m2 0h1M7 48.5h1m1 0h2m3 0h1m3 0h1m1 0h2m1 0h1m1 0h2m2 0h1m1 0h3m1 0h2m1 0h1m1 0h2m2 0h3m2 0h1m2 0h1m1 0h5m1 0h1m1 0h2m2 0h1m1 0h3m1 0h1m2 0h2m1 0h1m4 0h1m1 0h2m1 0h4m1 0h2m1 0h1m1 0h1m2 0h1m1 0h2M7 49.5h3m2 0h1m6 0h1m1 0h1m1 0h2m1 0h2m1 0h1m2 0h1m1 0h2m1 0h3m8 0h4m1 0h1m1 0h2m2 0h2m4 0h3m1 0h1m1 0h2m1 0h3m2 0h1m1 0h2m3 0h2m2 0h2m1 0h1m1 0h2m1 0h1m1 0h5M4 50.5h2m1 0h1m1 0h3m3 0h2m1 0h2m2 0h3m2 0h2m1 0h2m2 0h1m2 0h10m2 0h2m1 0h3m1 0h4m1 0h3m1 0h2m3 0h2m5 0h3m1 0h1m2 0h2m1 0h3m5 0h1m1 0h3m1 0h2M9 51.5h1m2 0h1m1 0h3m2 0h1m1 0h1m1 0h1m1 0h1m3 0h1m5 0h2m2 0h2m2 0h2m1 0h1m2 0h2m2 0h1m1 0h3m2 0h2m7 0h3m1 0h2m3 0h2m1 0h3m1 0h1m1 0h1m2 0h6m2 0h1m3 0h3M4 52.5h1m2 0h6m1 0h1m1 0h1m4 0h3m1 0h1m1 0h2m1 0h5m1 0h1m2 0h3m2 0h1m2 0h2m2 0h6m1 0h3m1 0h1m2 0h5m1 0h2m1 0h6m1 0h1m1 0h1m1 0h1m4 0h3m2 0h6m2 0h2M4 53.5h1m1 0h1m1 0h1m3 0h4m3 0h2m3 0h2m1 0h1m1 0h2m3 0h3m2 0h2m2 0h3m2 0h5m3 0h2m3 0h3m2 0h4m1 0h1m2 0h1m3 0h2m1 0h1m2 0h1m1 0h1m2 0h1m1 0h4m1 0h1m3 0h1m1 0h1m1 0h1M4 54.5h2m2 0h1m1 0h1m1 0h2m3 0h1m1 0h1m1 0h1m3 0h1m1 0h4m1 0h1m1 0h1m2 0h4m2 0h1m2 0h1m2 0h1m1 0h2m1 0h1m1 0h1m1 0h2m1 0h2m1 0h4m1 0h1m4 0h1m1 0h1m1 0h1m1 0h1m1 0h1m1 0h2m2 0h4m1 0h2m1 0h1m1 0h1m1 0h1m1 0h3M4 55.5h2m1 0h2m3 0h1m1 0h1m1 0h2m2 0h1m4 0h1m4 0h1m3 0h1m1 0h1m2 0h1m1 0h5m5 0h2m3 0h2m4 0h5m5 0h1m1 0h1m3 0h2m4 0h1m2 0h3m2 0h1m1 0h3m3 0h2m1 0h1M4 56.5h1m2 0h7m2 0h1m1 0h2m2 0h4m2 0h9m2 0h3m1 0h1m2 0h1m1 0h1m1 0h9m1 0h1m1 0h1m2 0h1m1 0h2m4 0h6m2 0h1m5 0h1m2 0h5m1 0h5m2 0h2M6 57.5h3m2 0h2m1 0h8m3 0h1m1 0h2m2 0h3m2 0h2m2 0h6m3 0h2m1 0h1m2 0h3m2 0h2m1 0h1m1 0h4m1 0h1m1 0h2m2 0h5m1 0h1m2 0h1m1 0h3m7 0h1m1 0h1m1 0h4M4 58.5h1m2 0h1m1 0h6m1 0h1m2 0h6m1 0h3m1 0h2m1 0h2m2 0h2m2 0h1m1 0h3m1 0h2m1 0h3m1 0h1m2 0h1m2 0h4m2 0h3m1 0h1m1 0h2m1 0h5m1 0h4m4 0h3m3 0h3m2 0h2m2 0h1M4 59.5h2m2 0h2m4 0h1m7 0h1m3 0h1m5 0h3m1 0h1m1 0h4m2 0h2m2 0h1m3 0h1m1 0h1m4 0h1m3 0h1m3 0h1m1 0h1m4 0h3m1 0h1m2 0h1m5 0h3m3 0h3m1 0h1m3 0h2M7 60.5h5m2 0h1m2 0h1m2 0h1m1 0h1m1 0h1m3 0h1m1 0h1m2 0h1m1 0h1m1 0h1m2 0h4m4 0h1m2 0h2m1 0h1m1 0h2m5 0h11m1 0h1m3 0h1m2 0h1m2 0h1m4 0h2m1 0h2m1 0h2m2 0h1m2 0h1M6 61.5h3m2 0h2m2 0h2m3 0h4m1 0h1m1 0h1m1 0h1m9 0h5m2 0h1m1 0h2m5 0h1m8 0h1m3 0h1m1 0h2m1 0h4m2 0h1m1 0h1m1 0h3m1 0h1m1 0h1m1 0h1m1 0h1m1 0h1m2 0h1m2 0h1m1 0h2M7 62.5h1m1 0h2m2 0h5m4 0h2m1 0h1m2 0h1m1 0h1m2 0h1m1 0h1m2 0h2m1 0h3m3 0h2m1 0h1m2 0h1m1 0h1m4 0h1m1 0h1m3 0h2m3 0h3m2 0h4m3 0h1m1 0h1m1 0h2m1 0h1m1 0h1m4 0h7M4 63.5h2m1 0h1m3 0h1m1 0h1m1 0h1m1 0h5m1 0h1m3 0h2m1 0h2m1 0h6m3 0h4m1 0h1m1 0h1m5 0h2m2 0h4m1 0h1m1 0h2m1 0h2m1 0h2m1 0h4m1 0h1m3 0h1m1 0h1m2 0h1m3 0h2m4 0h2m2 0h2M5 64.5h3m1 0h4m2 0h1m2 0h2m2 0h1m1 0h1m2 0h2m1 0h1m1 0h5m2 0h1m2 0h3m2 0h1m4 0h1m1 0h1m1 0h1m3 0h1m1 0h2m1 0h2m14 0h4m3 0h2m1 0h2m1 0h1m2 0h3m1 0h4M5 65.5h1m2 0h2m1 0h1m1 0h1m1 0h1m2 0h2m1 0h2m2 0h2m2 0h1m2 0h2m5 0h1m1 0h1m2 0h1m1 0h3m1 0h1m1 0h1m3 0h1m2 0h1m1 0h3m4 0h4m1 0h1m3 0h1m2 0h3m1 0h1m1 0h1m3 0h2m3 0h1m1 0h4m1 0h1m1 0h1M4 66.5h3m3 0h1m4 0h2m2 0h4m1 0h1m1 0h1m3 0h1m1 0h1m1 0h5m3 0h1m1 0h2m2 0h1m5 0h1m1 0h2m1 0h1m2 0h1m1 0h1m1 0h1m1 0h3m5 0h1m1 0h2m1 0h3m3 0h1m3 0h1m3 0h2m1 0h1m3 0h1M4 67.5h3m4 0h1m4 0h4m4 0h1m4 0h8m1 0h1m2 0h2m2 0h2m1 0h1m2 0h1m8 0h2m1 0h4m3 0h2m2 0h3m1 0h3m2 0h1m1 0h3m4 0h4m2 0h1m1 0h4M5 68.5h1m4 0h6m1 0h3m5 0h5m3 0h1m1 0h2m1 0h3m1 0h7m1 0h1m1 0h1m3 0h1m3 0h1m2 0h1m2 0h2m2 0h3m3 0h2m1 0h1m2 0h1m1 0h1m2 0h1m1 0h1m8 0h2m1 0h1M6 69.5h1m2 0h1m3 0h3m2 0h1m1 0h1m1 0h2m2 0h2m1 0h1m1 0h1m2 0h2m2 0h1m2 0h3m1 0h1m2 0h4m1 0h4m1 0h1m1 0h1m3 0h2m1 0h1m1 0h1m1 0h1m1 0h1m1 0h3m1 0h3m2 0h2m1 0h1m2 0h1m1 0h3m1 0h2m2 0h2m1 0h1M6 70.5h1m1 0h1m1 0h1m1 0h3m5 0h1m2 0h1m4 0h1m1 0h1m1 0h3m1 0h1m1 0h2m1 0h5m1 0h2m2 0h2m6 0h1m1 0h2m2 0h1m2 0h2m2 0h1m3 0h1m2 0h1m1 0h2m1 0h2m1 0h4m1 0h5m3 0h2m2 0h1M5 71.5h1m2 0h1m3 0h1m2 0h2m2 0h3m6 0h6m6 0h1m2 0h1m3 0h3m1 0h1m1 0h1m2 0h1m1 0h1m1 0h4m1 0h3m1 0h1m2 0h1m1 0h1m1 0h2m1 0h2m2 0h1m2 0h1m1 0h1m1 0h4m1 0h2m4 0h1m1 0h2M5 72.5h1m1 0h12m7 0h5m2 0h1m1 0h1m1 0h4m2 0h2m1 0h2m2 0h1m1 0h1m2 0h2m5 0h3m3 0h2m1 0h1m2 0h1m1 0h2m9 0h1m3 0h1m3 0h1m1 0h1m1 0h3m2 0h1M6 73.5h3m2 0h2m1 0h1m1 0h1m1 0h2m2 0h2m3 0h4m3 0h2m2 0h3m3 0h1m2 0h1m1 0h1m2 0h6m2 0h3m3 0h2m1 0h1m4 0h2m1 0h6m3 0h4m4 0h2m3 0h1m1 0h1M6 74.5h7m1 0h3m3 0h2m1 0h1m2 0h1m2 0h6m1 0h4m6 0h2m1 0h2m1 0h5m1 0h1m2 0h1m1 0h4m3 0h1m3 0h9m2 0h1m1 0h6m1 0h1m1 0h5m2 0h1M4 75.5h3m1 0h1m3 0h1m3 0h1m3 0h4m1 0h2m1 0h1m1 0h1m3 0h3m3 0h2m1 0h1m3 0h3m1 0h2m3 0h2m1 0h1m2 0h3m3 0h1m2 0h2m1 0h1m3 0h1m2 0h1m1 0h2m1 0h2m4 0h3m1 0h1m3 0h2m1 0h2M4 76.5h1m1 0h3m1 0h1m1 0h2m2 0h3m2 0h10m1 0h1m1 0h3m1 0h1m1 0h1m1 0h1m3 0h2m4 0h1m1 0h1m1 0h1m2 0h1m1 0h1m2 0h1m3 0h1m3 0h3m1 0h1m1 0h1m2 0h2m5 0h9m1 0h1m1 0h4M4 77.5h1m1 0h3m3 0h1m3 0h1m1 0h1m1 0h2m1 0h2m1 0h2m2 0h1m3 0h1m4 0h1m1 0h1m4 0h5m1 0h1m3 0h1m2 0h4m2 0h5m3 0h2m3 0h2m1 0h1m2 0h2m2 0h1m1 0h3m1 0h3m3 0h1m1 0h3M4 78.5h9m1 0h5m1 0h1m1 0h1m6 0h7m2 0h2m1 0h1m1 0h1m2 0h2m4 0h5m5 0h2m1 0h1m2 0h1m4 0h6m1 0h3m1 0h1m3 0h2m4 0h9M4 79.5h2m9 0h1m2 0h1m1 0h1m4 0h1m1 0h1m1 0h2m2 0h3m1 0h2m2 0h1m1 0h1m4 0h1m3 0h1m2 0h3m3 0h2m5 0h2m1 0h3m1 0h1m1 0h1m1 0h5m1 0h1m1 0h1m1 0h4m4 0h2m3 0h2M5 80.5h1m1 0h5m2 0h1m1 0h3m1 0h1m2 0h1m2 0h4m2 0h1m1 0h5m1 0h1m1 0h2m4 0h1m2 0h1m2 0h2m1 0h2m3 0h3m1 0h1m2 0h1m1 0h1m1 0h7m1 0h1m1 0h3m3 0h1m2 0h5m1 0h2m2 0h2M4 81.5h1m1 0h1m1 0h2m3 0h4m4 0h1m2 0h2m4 0h1m3 0h3m1 0h2m1 0h2m1 0h2m1 0h1m1 0h1m4 0h3m1 0h1m5 0h4m1 0h3m1 0h1m1 0h3m1 0h2m1 0h1m2 0h2m1 0h2m2 0h1m2 0h3m3 0h4M4 82.5h4m2 0h1m1 0h1m5 0h6m2 0h1m1 0h2m1 0h4m4 0h1m9 0h2m1 0h3m4 0h1m1 0h2m1 0h1m2 0h4m2 0h1m1 0h1m4 0h1m2 0h1m1 0h2m1 0h5m1 0h1m2 0h1m1 0h3M8 83.5h1m2 0h1m1 0h3m2 0h1m1 0h1m2 0h4m1 0h2m7 0h1m2 0h1m2 0h1m2 0h1m7 0h1m1 0h1m2 0h3m1 0h2m2 0h1m3 0h1m1 0h3m1 0h2m1 0h1m1 0h4m2 0h2m1 0h2m5 0h2m4 0h1M5 84.5h1m2 0h3m1 0h3m3 0h2m6 0h2m5 0h4m1 0h3m2 0h2m2 0h1m1 0h4m1 0h3m1 0h2m2 0h2m1 0h1m3 0h1m5 0h1m2 0h3m1 0h2m7 0h2m1 0h1m1 0h3m2 0h2M4 85.5h2m2 0h2m2 0h1m2 0h1m2 0h1m4 0h2m3 0h1m2 0h1m4 0h1m2 0h1m1 0h3m1 0h2m1 0h6m2 0h2m1 0h1m1 0h1m1 0h2m2 0h1m1 0h3m1 0h2m1 0h1m1 0h7m3 0h1m2 0h1m1 0h4M4 86.5h1m1 0h2m1 0h2m1 0h1m2 0h5m1 0h1m6 0h1m4 0h3m2 0h1m1 0h1m2 0h3m1 0h4m1 0h4m1 0h2m1 0h3m1 0h2m3 0h4m2 0h1m1 0h1m1 0h2m3 0h1m1 0h1m1 0h1m6 0h3m1 0h2m1 0h2M4 87.5h3m2 0h1m1 0h4m4 0h4m4 0h1m1 0h1m2 0h4m1 0h1m3 0h1m1 0h1m4 0h2m9 0h2m1 0h1m2 0h2m2 0h1m1 0h2m1 0h2m1 0h1m6 0h1m3 0h2m2 0h1m2 0h1m2 0h1m1 0h1m3 0h1M4 88.5h2m1 0h4m6 0h4m2 0h1m1 0h1m1 0h3m1 0h1m1 0h1m3 0h1m1 0h2m1 0h1m5 0h1m2 0h3m4 0h1m5 0h1m2 0h2m2 0h3m1 0h1m1 0h6m1 0h1m1 0h1m1 0h3m1 0h1m3 0h3m2 0h1m1 0h2M4 89.5h1m1 0h4m1 0h3m1 0h2m1 0h1m2 0h1m2 0h1m1 0h1m4 0h1m1 0h3m1 0h4m2 0h1m1 0h1m1 0h2m3 0h5m3 0h3m3 0h1m1 0h1m3 0h1m2 0h1m2 0h1m1 0h2m4 0h1m4 0h1m2 0h2m1 0h1m1 0h1m1 0h2m1 0h1M6 90.5h1m2 0h2m1 0h8m2 0h2m2 0h1m1 0h1m2 0h5m1 0h1m5 0h6m2 0h4m1 0h2m1 0h2m1 0h2m1 0h1m2 0h2m2 0h13m1 0h2m1 0h1m3 0h1m1 0h2m1 0h2m2 0h1M14 91.5h3m4 0h1m3 0h1m3 0h3m1 0h4m3 0h2m1 0h3m5 0h2m1 0h3m1 0h2m1 0h1m1 0h1m1 0h1m2 0h1m2 0h1m1 0h3m2 0h1m1 0h3m1 0h1m2 0h1m1 0h1m1 0h2m2 0h2m1 0h3m1 0h1m1 0h1M4 92.5h3m3 0h3m1 0h2m2 0h1m5 0h7m2 0h2m4 0h2m1 0h2m1 0h5m3 0h2m4 0h2m2 0h3m1 0h2m1 0h1m5 0h2m1 0h1m1 0h3m2 0h2m2 0h2m2 0h1m1 0h1m2 0h2m1 0h2M5 93.5h1m1 0h1m1 0h1m2 0h1m1 0h1m2 0h1m6 0h1m1 0h1m1 0h1m3 0h5m1 0h2m1 0h3m1 0h8m1 0h1m1 0h2m5 0h1m3 0h1m4 0h1m1 0h1m2 0h1m1 0h1m4 0h3m1 0h1m3 0h1m5 0h6M4 94.5h1m2 0h2m1 0h1m3 0h2m2 0h2m1 0h3m2 0h2m4 0h1m1 0h1m2 0h1m3 0h7m1 0h2m1 0h2m3 0h1m3 0h6m2 0h1m2 0h1m3 0h3m1 0h1m1 0h1m2 0h2m1 0h2m2 0h2m1 0h1m2 0h2m1 0h2M4 95.5h1m1 0h2m1 0h1m2 0h1m1 0h3m1 0h2m2 0h1m1 0h3m1 0h4m1 0h2m4 0h1m1 0h1m1 0h1m1 0h1m2 0h1m1 0h1m4 0h1m1 0h1m1 0h3m1 0h2m2 0h4m2 0h1m1 0h2m1 0h1m1 0h1m1 0h1m2 0h4m2 0h2m4 0h1m1 0h2m1 0h3M8 96.5h1m1 0h1m1 0h1m5 0h3m1 0h1m1 0h1m2 0h1m2 0h6m1 0h1m4 0h1m1 0h2m1 0h2m2 0h6m1 0h5m1 0h2m1 0h1m4 0h8m1 0h1m1 0h3m2 0h1m1 0h4m1 0h6m1 0h1m1 0h1M12 97.5h2m1 0h2m3 0h2m1 0h3m3 0h2m3 0h1m2 0h5m4 0h3m1 0h3m3 0h1m2 0h4m1 0h1m3 0h2m1 0h2m1 0h1m3 0h1m3 0h2m3 0h2m1 0h1m2 0h2m1 0h1m3 0h5M4 98.5h7m1 0h1m2 0h2m3 0h1m4 0h1m2 0h1m1 0h1m1 0h1m1 0h1m1 0h1m2 0h3m3 0h4m1 0h1m1 0h1m1 0h1m1 0h6m1 0h2m2 0h1m1 0h2m1 0h3m1 0h1m1 0h1m1 0h1m3 0h1m5 0h3m3 0h1m1 0h1m1 0h1M4 99.5h1m5 0h1m2 0h1m1 0h1m2 0h1m1 0h7m1 0h1m1 0h1m3 0h2m1 0h6m1 0h3m2 0h4m3 0h2m4 0h1m1 0h1m1 0h1m2 0h6m3 0h1m3 0h1m3 0h1m1 0h1m1 0h1m2 0h4m3 0h1m2 0h1M4 100.5h1m1 0h3m1 0h1m3 0h1m1 0h1m2 0h1m1 0h5m1 0h1m2 0h5m1 0h1m2 0h2m1 0h4m1 0h1m2 0h1m1 0h5m3 0h1m1 0h2m2 0h3m1 0h1m1 0h13m1 0h3m2 0h2m1 0h7m2 0h2M4 101.5h1m1 0h3m1 0h1m1 0h1m2 0h3m1 0h1m1 0h5m2 0h2m1 0h1m1 0h5m2 0h3m1 0h3m2 0h6m5 0h5m1 0h5m2 0h2m2 0h4m2 0h4m2 0h4m1 0h2m1 0h2m2 0h1m1 0h2M4 102.5h1m1 0h3m1 0h1m3 0h1m1 0h3m1 0h4m1 0h1m5 0h1m5 0h2m2 0h3m2 0h1m1 0h1m3 0h1m1 0h1m3 0h2m1 0h2m1 0h1m3 0h1m1 0h3m3 0h1m2 0h2m1 0h1m2 0h1m4 0h3m1 0h4m1 0h3m2 0h1M4 103.5h1m5 0h1m1 0h4m2 0h1m1 0h2m1 0h3m1 0h1m3 0h2m1 0h1m5 0h1m1 0h2m1 0h4m4 0h1m3 0h4m2 0h1m7 0h6m4 0h1m1 0h1m3 0h1m4 0h1m1 0h2m1 0h1m2 0h2m1 0h1M4 104.5h7m1 0h2m2 0h2m1 0h1m1 0h2m4 0h2m1 0h1m3 0h1m7 0h1m1 0h3m1 0h1m4 0h3m1 0h4m3 0h4m2 0h1m1 0h1m2 0h1m1 0h2m2 0h1m1 0h1m2 0h1m1 0h1m2 0h1m1 0h2m3 0h2m1 0h3"/></svg>
