<svg xmlns="http://www.w3.org/2000/svg" viewBox="0 0 97 97" shape-rendering="crispEdges"><path fill="#ffffff" d="M0 0h97v97H0z"/><path stroke="#000000" d="M4 4.5h7m2 0h1m3 0h4m3 0h1m2 0h3m2 0h1m1 0h5m2 0h1m1 0h1m1 0h2m2 0h1m1 0h2m2 0h1m4 0h1m2 0h4m7 0h2m1 0h1m1 0h6m1 0h7M4 5.5h1m5 0h1m1 0h1m1 0h1m2 0h2m2 0h1m1 0h1m1 0h1m1 0h1m1 0h3m1 0h1m1 0h5m3 0h1m1 0h4m1 0h2m1 0h2m2 0h2m1 0h2m2 0h1m2 0h3m1 0h3m1 0h2m1 0h4m1 0h1m2 0h1m5 0h1M4 6.5h1m1 0h3m1 0h1m8 0h1m1 0h5m5 0h1m5 0h1m2 0h1m2 0h1m1 0h2m3 0h3m1 0h1m4 0h1m1 0h1m3 0h1m3 0h3m4 0h1m1 0h1m1 0h1m5 0h1m1 0h3m1 0h1M4 7.5h1m1 0h3m1 0h1m1 0h2m1 0h1m2 0h4m2 0h4m2 0h1m5 0h1m3 0h4m2 0h2m4 0h2m1 0h2m2 0h1m1 0h1m6 0h1m1 0h5m1 0h3m3 0h1m1 0h1m1 0h1m1 0h3m1 0h1M4 8.5h1m1 0h3m1 0h1m5 0h1m4 0h1m2 0h2m3 0h2m1 0h6m1 0h1m1 0h1m2 0h1m1 0h4m2 0h1m1 0h10m4 0h1m1 0h1m1 0h2m1 0h1m1 0h1m1 0h1m3 0h1m2 0h1m1 0h3m1 0h1M4 9.5h1m5 0h1m1 0h7m2 0h1m2 0h3m1 0h5m3 0h1m3 0h3m3 0h1m4 0h3m1 0h1m1 0h2m3 0h1m2 0h2m2 0h4m4 0h2m2 0h1m1 0h1m2 0h1m5 0h1M4 10.5h7m1 0h1m1 0h1m1 0h1m1 0h1m1 0h1m1 0h1m1 0h1m1 0h1m1 0h1m1 0h1m1 0h1m1 0h1m1 0h1m1 0h1m1 0h1m1 0h1m1 0h1m1 0h1m1 0h1m1 0h1m1 0h1m1 0h1m1 0h1m1 0h1m1 0h1m1 0h1m1 0h1m1 0h1m1 0h1m1 0h1m1 0h1m1 0h1m1 0h1m1 0h1m1 0h1m1 0h1m1 0h1m1 0h7M13 11.5h3m9 0h8m3 0h3m3 0h1m2 0h2m1 0h2m3 0h1m1 0h1m2 0h1m3 0h2m3 0h2m2 0h1m1 0h4m3 0h3M4 12.5h5m1 0h6m5 0h2m2 0h1m1 0h2m1 0h7m1 0h1m1 0h1m2 0h1m1 0h1m3 0h1m1 0h1m1 0h1m1 0h2m1 0h6m1 0h3m2 0h3m1 0h9m2 0h1m1 0h1m1 0h1m1 0h1M4 13.5h3m4 0h2m2 0h2m1 0h3m1 0h2m2 0h4m3 0h3m5 0h6m1 0h1m1 0h1m3 0h1m1 0h4m1 0h1m1 0h1m2 0h1m4 0h1m3 0h2m2 0h1m1 0h1m1 0h2m7 0h1M5 14.5h1m1 0h1m1 0h8m1 0h2m2 0h1m5 0h4m3 0h1m3 0h1m1 0h1m2 0h1m1 0h3m1 0h2m2 0h2m1 0h2m2 0h2m2 0h1m2 0h1m3 0h2m2 0h3m2 0h3m1 0h1m2 0h3M4 15.5h1m1 0h2m1 0h1m1 0h1m1 0h4m1 0h2m2 0h3m2 0h1m1 0h4m4 0h5m4 0h3m2 0h1m4 0h1m2 0h1m3 0h1m2 0h1m9 0h1m1 0h1m1 0h1m7 0h1m2 0h1M10 16.5h2m1 0h3m1 0h1m2 0h1m4 0h2m2 0h1m3 0h3m3 0h3m3 0h2m1 0h2m3 0h3m1 0h4m2 0h3m2 0h1m2 0h1m3 0h1m4 0h1m5 0h2m3 0h1M7 17.5h1m1 0h1m2 0h2m2 0h1m2 0h1m2 0h5m3 0h1m1 0h2m5 0h2m3 0h1m2 0h2m3 0h1m1 0h1m2 0h1m1 0h3m2 0h1m2 0h2m1 0h1m1 0h3m1 0h3m3 0h1m2 0h3m1 0h4M4 18.5h1m3 0h4m4 0h1m1 0h1m1 0h3m1 0h5m2 0h1m3 0h1m1 0h3m3 0h1m2 0h1m2 0h4m3 0h1m3 0h1m2 0h1m1 0h1m2 0h2m1 0h1m1 0h3m2 0h5m1 0h2m2 0h1m1 0h1M4 19.5h1m2 0h3m1 0h1m1 0h2m7 0h3m2 0h7m3 0h1m1 0h1m1 0h1m1 0h1m5 0h1m1 0h2m1 0h2m2 0h2m2 0h1m3 0h1m2 0h3m5 0h1m1 0h5m2 0h1m3 0h1m1 0h1M4 20.5h1m2 0h4m1 0h1m3 0h2m1 0h4m1 0h4m1 0h1m1 0h1m2 0h2m6 0h1m2 0h3m2 0h4m4 0h1m1 0h2m3 0h4m1 0h1m5 0h1m1 0h1m1 0h3m1 0h3m2 0h1m1 0h1M4 21.5h1m1 0h1m5 0h1m1 0h2m1 0h2m1 0h2m1 0h1m4 0h2m1 0h1m2 0h2m1 0h5m1 0h1m2 0h1m2 0h2m3 0h2m3 0h1m2 0h3m5 0h1m13 0h3m4 0h1M4 22.5h2m1 0h4m2 0h11m1 0h4m2 0h3m5 0h3m1 0h4m5 0h2m3 0h4m1 0h4m1 0h4m2 0h1m1 0h1m1 0h3m1 0h12M4 23.5h1m4 0h1m2 0h7m5 0h6m1 0h2m2 0h3m2 0h1m1 0h2m1 0h1m7 0h1m3 0h1m1 0h1m1 0h1m2 0h3m1 0h3m1 0h1m1 0h3m1 0h1m1 0h1m1 0h1m1 0h2m1 0h1m1 0h1m2 0h1M5 24.5h1m2 0h1m1 0h1m1 0h4m3 0h2m1 0h2m1 0h2m2 0h2m2 0h1m3 0h1m1 0h1m2 0h2m2 0h1m2 0h1m1 0h2m4 0h2m2 0h7m2 0h1m1 0h3m1 0h2m1 0h1m4 0h2m2 0h1m1 0h3M5 25.5h1m1 0h1m5 0h3m2 0h1m2 0h3m3 0h3m2 0h1m1 0h1m1 0h3m2 0h1m1 0h1m2 0h5m2 0h1m3 0h2m5 0h2m2 0h2m1 0h2m3 0h2m1 0h2m1 0h1m3 0h1m2 0h1m2 0h1M4 26.5h2m1 0h4m3 0h1m2 0h2m1 0h1m1 0h6m2 0h4m2 0h2m1 0h1m1 0h6m1 0h1m1 0h1m1 0h3m2 0h1m2 0h1m1 0h1m1 0h2m1 0h1m1 0h6m1 0h3m1 0h3m2 0h1m2 0h1m1 0h3M4 27.5h5m3 0h2m2 0h1m4 0h1m1 0h1m1 0h1m1 0h2m1 0h2m1 0h3m3 0h2m3 0h2m2 0h1m2 0h2m1 0h3m1 0h2m1 0h1m1 0h1m3 0h3m5 0h5m2 0h2m1 0h1m2 0h1M6 28.5h2m1 0h2m1 0h1m1 0h1m2 0h1m1 0h1m1 0h2m1 0h3m2 0h3m1 0h1m1 0h2m2 0h1m1 0h2m2 0h1m1 0h3m4 0h1m3 0h1m2 0h1m1 0h1m2 0h1m1 0h3m1 0h4m1 0h1m3 0h2m3 0h1m1 0h2m1 0h2M6 29.5h1m1 0h2m5 0h2m1 0h2m1 0h1m1 0h1m1 0h1m1 0h2m4 0h1m1 0h1m3 0h1m1 0h1m4 0h1m2 0h2m2 0h4m3 0h2m1 0h4m4 0h1m10 0h1m4 0h1m2 0h3M7 30.5h1m1 0h2m1 0h2m5 0h2m1 0h3m1 0h2m4 0h1m1 0h4m2 0h3m1 0h4m2 0h1m1 0h2m1 0h3m1 0h3m2 0h6m1 0h4m1 0h1m2 0h1m1 0h2m3 0h2M4 31.5h1m1 0h4m1 0h1m2 0h2m1 0h4m1 0h3m1 0h1m2 0h1m1 0h4m3 0h2m2 0h1m4 0h3m1 0h3m1 0h1m3 0h1m3 0h3m1 0h2m1 0h1m1 0h1m3 0h2m1 0h1m2 0h5m1 0h2M4 32.5h10m1 0h2m1 0h1m1 0h1m1 0h1m4 0h1m1 0h10m1 0h4m2 0h1m3 0h1m2 0h1m4 0h5m1 0h3m3 0h1m1 0h3m1 0h3m1 0h1m1 0h1m1 0h5m1 0h3M4 33.5h1m1 0h3m3 0h2m1 0h1m2 0h4m2 0h3m1 0h1m1 0h1m1 0h1m3 0h1m1 0h4m1 0h3m1 0h1m1 0h4m5 0h1m3 0h4m6 0h3m1 0h3m5 0h1m3 0h1m1 0h2M5 34.5h1m2 0h1m1 0h1m1 0h5m3 0h2m9 0h2m1 0h1m1 0h2m1 0h2m1 0h2m1 0h2m2 0h1m2 0h2m2 0h1m1 0h1m1 0h1m1 0h6m1 0h3m1 0h1m3 0h1m1 0h1m2 0h3m1 0h1m1 0h1m1 0h1M7 35.5h2m3 0h1m11 0h3m3 0h1m1 0h1m3 0h2m1 0h1m3 0h2m1 0h1m3 0h1m1 0h4m1 0h2m3 0h2m3 0h1m1 0h1m1 0h3m5 0h3m1 0h2m3 0h1M4 36.5h2m2 0h5m3 0h2m1 0h2m1 0h1m2 0h2m3 0h1m1 0h5m2 0h3m1 0h2m1 0h1m1 0h17m1 0h2m2 0h1m2 0h1m1 0h1m1 0h1m5 0h10M4 37.5h1m3 0h2m1 0h1m1 0h1m2 0h1m2 0h1m3 0h4m2 0h2m1 0h4m1 0h3m1 0h1m2 0h1m1 0h5m4 0h4m2 0h1m2 0h1m1 0h1m4 0h2m1 0h1m1 0h1m1 0h1m5 0h3m1 0h1m2 0h1M7 38.5h2m1 0h2m5 0h3m1 0h1m2 0h1m3 0h1m1 0h1m1 0h3m1 0h2m5 0h2m9 0h1m3 0h4m4 0h1m1 0h1m3 0h5m2 0h1m2 0h7M4 39.5h3m1 0h2m1 0h2m3 0h2m2 0h2m3 0h1m2 0h1m5 0h2m2 0h3m3 0h2m1 0h2m1 0h1m1 0h1m3 0h5m1 0h2m1 0h2m1 0h1m2 0h1m1 0h2m4 0h1m1 0h1m3 0h1m1 0h2m2 0h1M4 40.5h1m5 0h3m1 0h1m2 0h2m3 0h1m1 0h1m2 0h1m2 0h1m3 0h5m1 0h1m2 0h3m1 0h2m2 0h4m1 0h2m1 0h2m1 0h1m5 0h5m5 0h1m1 0h2m1 0h2m1 0h1m2 0h1M7 41.5h2m2 0h1m1 0h2m1 0h2m1 0h1m1 0h1m2 0h5m2 0h3m1 0h5m3 0h3m1 0h1m3 0h3m1 0h3m1 0h1m1 0h1m3 0h1m1 0h1m1 0h2m1 0h2m1 0h1m2 0h1m2 0h2m3 0h1m1 0h1m3 0h1M4 42.5h4m1 0h2m2 0h2m1 0h1m1 0h1m1 0h1m3 0h1m1 0h1m1 0h1m1 0h1m3 0h2m3 0h2m2 0h2m1 0h1m1 0h5m4 0h1m3 0h1m3 0h3m1 0h1m1 0h2m1 0h1m1 0h1m4 0h1m3 0h4M4 43.5h1m3 0h1m4 0h2m2 0h1m1 0h7m1 0h1m2 0h3m3 0h2m2 0h4m3 0h1m1 0h2m1 0h2m10 0h2m2 0h1m1 0h1m1 0h3m2 0h1m4 0h2m2 0h1m3 0h1M4 44.5h3m1 0h4m1 0h1m1 0h1m1 0h4m1 0h1m3 0h3m2 0h1m4 0h2m1 0h1m2 0h2m3 0h4m1 0h2m2 0h6m2 0h2m1 0h2m1 0h1m2 0h3m1 0h1m1 0h1m1 0h8M11 45.5h3m3 0h1m1 0h3m1 0h1m1 0h1m1 0h1m1 0h1m2 0h2m3 0h1m7 0h2m4 0h1m1 0h1m2 0h3m2 0h4m2 0h1m1 0h1m1 0h2m8 0h3m2 0h1m3 0h1m1 0h1M4 46.5h2m1 0h4m6 0h1m8 0h1m1 0h1m2 0h2m1 0h8m3 0h2m3 0h1m2 0h1m1 0h1m2 0h1m9 0h1m2 0h2m3 0h1m1 0h3m1 0h1m2 0h1m2 0h1m1 0h3M4 47.5h2m5 0h3m2 0h2m1 0h4m1 0h1m5 0h1m1 0h1m1 0h1m1 0h8m1 0h1m1 0h1m1 0h1m1 0h1m1 0h1m2 0h1m4 0h1m2 0h2m3 0h2m5 0h1m2 0h1m6 0h3m1 0h1M6 48.5h3m1 0h4m1 0h1m3 0h1m5 0h2m1 0h1m2 0h8m1 0h1m2 0h1m1 0h1m5 0h3m2 0h3m5 0h5m2 0h2m1 0h1m2 0h1m1 0h1m1 0h3m1 0h4m2 0h2M9 49.5h1m1 0h1m3 0h4m1 0h1m4 0h2m4 0h3m2 0h5m1 0h3m5 0h1m1 0h2m1 0h1m1 0h1m1 0h1m1 0h2m1 0h3m2 0h1m3 0h1m2 0h4m3 0h2m1 0h1m2 0h4M4 50.5h1m3 0h3m2 0h1m2 0h3m1 0h2m2 0h2m2 0h4m3 0h1m1 0h1m2 0h1m1 0h1m8 0h1m3 0h5m4 0h1m2 0h1m1 0h2m1 0h2m1 0h1m1 0h1m1 0h2m1 0h1m1 0h1m2 0h5M4 51.5h1m1 0h4m1 0h1m1 0h1m1 0h1m5 0h5m2 0h4m2 0h3m1 0h5m1 0h1m1 0h1m2 0h2m1 0h1m2 0h1m1 0h4m1 0h3m3 0h1m4 0h2m1 0h2m2 0h3m1 0h1m5 0h1m1 0h1M4 52.5h2m3 0h3m5 0h1m4 0h3m2 0h2m1 0h6m1 0h1m3 0h1m1 0h1m1 0h1m1 0h3m3 0h4m2 0h6m3 0h2m6 0h1m1 0h1m1 0h1m1 0h2m1 0h1m2 0h1m1 0h2M4 53.5h3m5 0h1m3 0h1m1 0h1m1 0h1m3 0h1m2 0h1m2 0h1m3 0h2m6 0h3m1 0h3m2 0h2m2 0h1m4 0h3m3 0h3m1 0h4m1 0h2m3 0h1m2 0h5m4 0h1M4 54.5h4m1 0h2m1 0h3m1 0h1m1 0h2m1 0h1m2 0h4m1 0h1m1 0h1m1 0h2m2 0h5m2 0h1m1 0h1m2 0h1m1 0h2m1 0h5m2 0h2m1 0h1m2 0h2m3 0h2m1 0h1m1 0h3m1 0h1m1 0h1m2 0h1m2 0h2m1 0h1M5 55.5h1m1 0h1m1 0h1m2 0h1m1 0h1m4 0h2m2 0h1m1 0h1m1 0h2m2 0h1m4 0h2m1 0h1m2 0h1m1 0h1m3 0h4m5 0h2m1 0h2m2 0h1m1 0h1m1 0h4m1 0h1m2 0h1m5 0h1m3 0h1m1 0h1M4 56.5h7m5 0h1m2 0h3m2 0h3m1 0h1m2 0h1m2 0h2m4 0h5m3 0h2m1 0h2m7 0h2m8 0h2m1 0h1m1 0h4m5 0h2m2 0h3M6 57.5h2m1 0h1m1 0h2m1 0h2m1 0h3m2 0h2m1 0h1m1 0h1m1 0h1m3 0h3m1 0h1m2 0h1m6 0h4m2 0h1m1 0h2m1 0h2m1 0h2m1 0h4m2 0h1m3 0h1m1 0h1m3 0h1m1 0h1m6 0h1m2 0h1M4 58.5h2m2 0h7m1 0h4m1 0h4m1 0h11m3 0h1m1 0h2m1 0h1m3 0h3m1 0h1m1 0h2m1 0h5m1 0h2m1 0h1m2 0h2m2 0h1m2 0h2m5 0h9M4 59.5h2m1 0h2m3 0h1m5 0h1m1 0h7m2 0h1m1 0h2m3 0h2m2 0h4m1 0h2m1 0h3m7 0h1m3 0h2m1 0h1m1 0h1m1 0h1m1 0h1m1 0h1m5 0h1m3 0h2m3 0h1m2 0h1M4 60.5h2m1 0h2m1 0h1m1 0h3m1 0h3m1 0h1m6 0h3m1 0h2m1 0h1m1 0h1m1 0h1m2 0h1m1 0h1m1 0h1m1 0h1m3 0h4m2 0h2m1 0h1m1 0h1m3 0h1m3 0h3m2 0h1m1 0h1m2 0h2m1 0h2m1 0h1m1 0h2M5 61.5h4m3 0h2m5 0h1m1 0h1m5 0h1m1 0h4m3 0h5m2 0h3m2 0h1m2 0h1m1 0h2m3 0h1m3 0h1m1 0h2m4 0h3m1 0h1m3 0h3m2 0h2m3 0h2m1 0h2M4 62.5h1m3 0h5m3 0h1m1 0h2m2 0h1m1 0h1m1 0h5m1 0h5m2 0h1m4 0h2m3 0h3m1 0h1m1 0h1m1 0h7m1 0h2m2 0h2m3 0h1m2 0h1m2 0h1m1 0h1m1 0h5m2 0h1M6 63.5h1m7 0h2m1 0h3m1 0h3m5 0h3m2 0h1m1 0h1m1 0h2m1 0h3m1 0h1m2 0h1m1 0h1m6 0h2m4 0h3m1 0h1m5 0h2m1 0h3m2 0h1m2 0h1m1 0h5M5 64.5h3m1 0h5m1 0h1m1 0h2m1 0h2m1 0h2m1 0h1m2 0h1m1 0h1m1 0h2m1 0h1m1 0h1m3 0h2m3 0h2m1 0h4m1 0h3m1 0h3m1 0h2m1 0h1m1 0h2m1 0h4m1 0h1m1 0h1m3 0h1m1 0h1m2 0h1m1 0h2m1 0h1M4 65.5h2m3 0h1m2 0h1m3 0h1m2 0h1m7 0h2m1 0h1m3 0h1m1 0h1m4 0h5m1 0h2m2 0h1m1 0h2m1 0h2m1 0h2m1 0h1m3 0h1m1 0h1m1 0h2m3 0h2m1 0h4m1 0h2m3 0h4M4 66.5h7m9 0h1m4 0h1m6 0h3m1 0h1m1 0h1m1 0h1m4 0h1m1 0h1m3 0h2m2 0h2m1 0h1m1 0h1m2 0h1m1 0h2m1 0h1m1 0h4m1 0h3m4 0h2m3 0h1m1 0h3M8 67.5h1m2 0h2m1 0h3m4 0h1m1 0h1m2 0h5m6 0h1m1 0h3m1 0h2m4 0h5m1 0h2m1 0h1m1 0h1m1 0h2m1 0h3m5 0h1m1 0h7m2 0h3m1 0h4M4 68.5h1m2 0h6m3 0h2m1 0h2m1 0h2m1 0h1m1 0h3m6 0h4m3 0h4m1 0h2m1 0h2m1 0h2m1 0h1m9 0h3m3 0h1m2 0h1m2 0h5m1 0h1m2 0h2m1 0h1M4 69.5h2m1 0h3m1 0h3m2 0h2m2 0h1m1 0h6m3 0h2m2 0h1m1 0h5m1 0h1m3 0h1m1 0h4m1 0h2m3 0h1m3 0h5m3 0h1m1 0h2m2 0h2m1 0h1m2 0h2m5 0h2M4 70.5h7m1 0h7m2 0h3m4 0h3m1 0h3m1 0h2m3 0h1m2 0h2m1 0h2m2 0h1m2 0h2m1 0h3m1 0h1m1 0h1m4 0h4m2 0h1m1 0h5m2 0h4m3 0h1M8 71.5h1m4 0h1m3 0h3m1 0h1m1 0h1m1 0h4m2 0h1m1 0h3m2 0h1m1 0h1m1 0h3m1 0h3m3 0h2m4 0h6m1 0h4m3 0h5m1 0h1m2 0h1m1 0h7M10 72.5h2m3 0h2m2 0h1m1 0h2m1 0h1m1 0h1m4 0h2m4 0h3m1 0h3m1 0h2m1 0h1m1 0h1m1 0h2m1 0h2m2 0h1m2 0h1m2 0h1m4 0h2m2 0h2m4 0h1m1 0h1m2 0h1m2 0h2m1 0h1M4 73.5h5m2 0h1m1 0h3m2 0h1m2 0h8m1 0h2m9 0h1m1 0h5m4 0h3m3 0h1m5 0h2m1 0h1m3 0h2m3 0h8m3 0h4M6 74.5h7m1 0h5m1 0h3m1 0h1m1 0h2m3 0h1m3 0h1m2 0h2m2 0h2m2 0h2m4 0h1m1 0h5m2 0h3m3 0h1m6 0h2m2 0h3m2 0h1m1 0h1m1 0h3M4 75.5h1m1 0h3m3 0h1m1 0h2m4 0h2m1 0h2m2 0h1m1 0h5m4 0h2m2 0h6m1 0h1m4 0h2m2 0h2m2 0h1m1 0h1m1 0h1m5 0h1m2 0h1m3 0h1m1 0h3m1 0h5m1 0h2M4 76.5h1m1 0h5m1 0h2m4 0h4m1 0h4m1 0h1m1 0h2m2 0h2m1 0h1m1 0h1m4 0h3m1 0h1m1 0h1m2 0h2m1 0h2m1 0h3m6 0h2m2 0h2m1 0h3m1 0h1m1 0h5m1 0h2m1 0h2M5 77.5h1m1 0h1m1 0h1m1 0h1m1 0h1m4 0h3m1 0h2m1 0h1m2 0h1m4 0h1m6 0h2m1 0h1m1 0h1m5 0h2m2 0h1m1 0h1m1 0h1m2 0h1m1 0h1m1 0h2m1 0h1m2 0h2m2 0h2m3 0h1m1 0h1m4 0h1m1 0h1m1 0h1M4 78.5h1m3 0h3m1 0h1m1 0h2m1 0h2m1 0h1m1 0h1m1 0h1m1 0h1m4 0h1m1 0h1m1 0h3m7 0h2m1 0h1m2 0h2m3 0h1m1 0h1m1 0h5m3 0h1m1 0h2m1 0h2m2 0h4m1 0h2m3 0h1m2 0h2M7 79.5h3m1 0h2m1 0h1m2 0h1m2 0h2m1 0h2m1 0h2m1 0h3m1 0h2m1 0h1m1 0h3m1 0h1m1 0h1m1 0h4m1 0h1m3 0h1m2 0h2m1 0h1m2 0h3m4 0h1m1 0h2m3 0h1m4 0h1m1 0h1m1 0h1m4 0h1M4 80.5h3m2 0h4m2 0h1m1 0h5m5 0h3m1 0h3m3 0h2m1 0h2m1 0h1m1 0h1m3 0h1m2 0h5m1 0h2m1 0h1m3 0h1m1 0h1m3 0h3m1 0h2m2 0h2m2 0h4m3 0h1m1 0h1M4 81.5h1m1 0h1m1 0h2m1 0h3m4 0h1m2 0h1m2 0h3m2 0h1m2 0h1m5 0h1m3 0h4m1 0h1m1 0h1m1 0h1m1 0h3m1 0h3m4 0h1m1 0h2m2 0h1m1 0h1m2 0h1m1 0h1m2 0h3m1 0h3m2 0h1m2 0h1M4 82.5h1m2 0h1m2 0h3m1 0h1m2 0h3m1 0h1m3 0h1m2 0h1m3 0h2m2 0h2m2 0h4m1 0h2m1 0h2m5 0h3m3 0h1m1 0h1m3 0h4m1 0h3m3 0h1m1 0h1m1 0h3m3 0h1m1 0h1M4 83.5h2m2 0h2m2 0h1m2 0h1m1 0h1m3 0h2m2 0h1m1 0h1m2 0h1m1 0h1m1 0h1m1 0h1m4 0h4m1 0h1m1 0h4m2 0h1m1 0h1m1 0h4m1 0h3m2 0h2m2 0h1m1 0h3m2 0h2m2 0h1m1 0h1m2 0h2M4 84.5h1m2 0h1m2 0h1m2 0h2m3 0h2m1 0h2m4 0h1m4 0h5m3 0h1m1 0h1m2 0h2m1 0h2m1 0h1m2 0h3m1 0h5m4 0h2m3 0h2m1 0h5m4 0h5m1 0h1M12 85.5h3m1 0h2m1 0h1m1 0h1m1 0h1m5 0h4m3 0h6m1 0h2m6 0h2m1 0h2m1 0h2m3 0h3m2 0h3m3 0h1m3 0h4m1 0h3m3 0h1m1 0h1M4 86.5h7m1 0h3m4 0h1m1 0h2m2 0h2m5 0h1m1 0h1m1 0h3m2 0h1m2 0h1m2 0h3m6 0h3m1 0h1m1 0h2m2 0h1m1 0h1m1 0h5m1 0h2m3 0h4m1 0h1m1 0h1m2 0h1M4 87.5h1m5 0h1m2 0h1m1 0h1m5 0h3m1 0h1m1 0h1m3 0h2m3 0h3m1 0h1m3 0h3m4 0h2m1 0h1m1 0h3m3 0h2m1 0h5m2 0h1m4 0h1m1 0h1m2 0h1m1 0h1m3 0h3M4 88.5h1m1 0h3m1 0h1m1 0h4m5 0h1m2 0h1m1 0h3m1 0h7m4 0h1m1 0h1m1 0h1m3 0h3m2 0h1m1 0h7m1 0h2m2 0h1m2 0h2m3 0h1m2 0h2m1 0h7m1 0h2M4 89.5h1m1 0h3m1 0h1m1 0h4m1 0h1m2 0h1m2 0h2m1 0h3m4 0h1m4 0h1m1 0h1m5 0h1m2 0h4m1 0h1m2 0h2m2 0h6m1 0h3m2 0h1m3 0h1m1 0h4m2 0h7M4 90.5h1m1 0h3m1 0h1m1 0h1m1 0h1m1 0h2m2 0h1m1 0h1m2 0h1m3 0h3m2 0h1m1 0h1m1 0h1m1 0h2m6 0h9m7 0h2m3 0h4m1 0h1m2 0h3m2 0h1m1 0h1m1 0h2m3 0h1M4 91.5h1m5 0h1m1 0h1m1 0h2m1 0h1m1 0h5m1 0h4m2 0h1m1 0h1m2 0h4m3 0h1m2 0h2m3 0h2m4 0h1m3 0h2m3 0h2m2 0h5m1 0h2m1 0h1m1 0h5m2 0h2m1 0h1M4 92.5h7m1 0h2m3 0h1m3 0h1m1 0h3m2 0h3m1 0h1m4 0h1m1 0h1m3 0h3m6 0h1m1 0h3m2 0h1m2 0h1m3 0h1m1 0h1m2 0h1m1 0h1m1 0h1m1 0h1m1 0h5m3 0h1m1 0h1"/></svg>
