<svg xmlns="http://www.w3.org/2000/svg" viewBox="0 0 97 97" shape-rendering="crispEdges"><path fill="#ffffff" d="M0 0h97v97H0z"/><path stroke="#000000" d="M4 4.5h7m11 0h1m1 0h1m3 0h1m2 0h1m3 0h2m1 0h1m1 0h1m1 0h5m1 0h1m3 0h3m1 0h2m1 0h1m1 0h3m4 0h1m3 0h1m2 0h1m4 0h1m1 0h3m1 0h7M4 5.5h1m5 0h1m1 0h1m3 0h1m1 0h1m1 0h2m3 0h2m1 0h5m1 0h1m1 0h1m1 0h1m4 0h1m3 0h2m1 0h3m4 0h1m1 0h1m3 0h2m5 0h3m4 0h2m2 0h1m1 0h1m2 0h1m5 0h1M4 6.5h1m1 0h3m1 0h1m1 0h3m2 0h3m1 0h2m1 0h1m2 0h4m1 0h3m1 0h2m1 0h2m1 0h2m4 0h1m3 0h2m3 0h1m1 0h1m1 0h2m1 0h1m3 0h4m2 0h3m4 0h1m4 0h1m1 0h3m1 0h1M4 7.5h1m1 0h3m1 0h1m2 0h1m3 0h4m1 0h2m2 0h1m1 0h1m1 0h1m1 0h6m3 0h1m1 0h1m1 0h1m1 0h1m1 0h3m2 0h3m3 0h4m2 0h1m3 0h4m3 0h3m2 0h1m1 0h1m1 0h1m1 0h3m1 0h1M4 8.5h1m1 0h3m1 0h1m1 0h4m1 0h1m5 0h2m1 0h3m2 0h14m1 0h2m2 0h1m2 0h1m2 0h1m1 0h7m1 0h1m1 0h1m1 0h1m4 0h2m2 0h1m3 0h1m2 0h1m1 0h3m1 0h1M4 9.5h1m5 0h1m1 0h5m4 0h2m2 0h3m1 0h2m1 0h1m3 0h1m1 0h1m1 0h3m2 0h2m2 0h1m5 0h1m2 0h1m3 0h2m1 0h2m2 0h1m1 0h3m1 0h1m2 0h1m2 0h1m1 0h1m2 0h1m5 0h1M4 10.5h7m1 0h1m1 0h1m1 0h1m1 0h1m1 0h1m1 0h1m1 0h1m1 0h1m1 0h1m1 0h1m1 0h1m1 0h1m1 0h1m1 0h1m1 0h1m1 0h1m1 0h1m1 0h1m1 0h1m1 0h1m1 0h1m1 0h1m1 0h1m1 0h1m1 0h1m1 0h1m1 0h1m1 0h1m1 0h1m1 0h1m1 0h1m1 0h1m1 0h1m1 0h1m1 0h1m1 0h1m1 0h1m1 0h7M12 11.5h1m3 0h2m1 0h1m1 0h1m1 0h4m2 0h1m1 0h2m3 0h2m6 0h3m2 0h4m1 0h3m1 0h1m3 0h1m1 0h1m1 0h2m4 0h3m2 0h1m3 0h1M4 12.5h2m1 0h1m2 0h2m3 0h1m3 0h3m2 0h2m4 0h8m1 0h1m2 0h1m1 0h3m3 0h2m6 0h7m1 0h1m1 0h4m1 0h1m2 0h1m9 0h3m1 0h2M4 13.5h1m1 0h2m4 0h2m1 0h3m1 0h2m6 0h2m1 0h5m4 0h1m1 0h4m5 0h5m1 0h3m1 0h1m3 0h3m3 0h1m1 0h1m2 0h1m3 0h1m1 0h1m2 0h1m2 0h2m2 0h1M5 14.5h1m1 0h5m1 0h3m1 0h1m1 0h1m4 0h1m1 0h2m2 0h2m1 0h1m3 0h1m1 0h3m1 0h3m3 0h2m1 0h2m4 0h1m2 0h1m1 0h1m1 0h1m1 0h3m1 0h2m2 0h3m1 0h3m2 0h2m1 0h3M6 15.5h1m1 0h2m4 0h1m3 0h1m4 0h1m1 0h2m1 0h1m2 0h2m1 0h1m1 0h4m1 0h2m2 0h1m3 0h6m1 0h4m2 0h1m1 0h2m1 0h5m1 0h1m1 0h1m3 0h1m3 0h1m4 0h3m1 0h1M4 16.5h2m3 0h5m1 0h3m1 0h3m2 0h2m1 0h1m1 0h1m1 0h2m1 0h2m1 0h3m2 0h1m2 0h1m4 0h1m4 0h4m2 0h3m1 0h7m1 0h1m1 0h1m1 0h2m2 0h2m1 0h1m1 0h1m2 0h2M4 17.5h2m5 0h1m5 0h2m3 0h3m1 0h3m1 0h1m2 0h1m2 0h1m1 0h3m6 0h1m1 0h2m3 0h2m1 0h8m1 0h1m2 0h1m1 0h10m2 0h3m2 0h4M10 18.5h1m3 0h2m1 0h1m1 0h2m1 0h2m3 0h1m1 0h2m1 0h1m1 0h1m2 0h7m2 0h1m1 0h2m1 0h2m2 0h2m3 0h4m3 0h3m1 0h3m3 0h3m3 0h2m2 0h3m1 0h2M4 19.5h1m1 0h1m1 0h1m2 0h1m1 0h1m1 0h4m1 0h2m2 0h2m1 0h1m3 0h1m2 0h2m2 0h1m1 0h1m2 0h3m2 0h1m4 0h2m1 0h3m3 0h7m4 0h4m1 0h2m1 0h1m5 0h2m1 0h1m1 0h1M4 20.5h2m1 0h2m1 0h3m2 0h3m3 0h2m1 0h1m1 0h1m1 0h1m2 0h1m1 0h1m7 0h1m2 0h4m1 0h1m1 0h2m1 0h2m2 0h2m1 0h1m5 0h2m1 0h3m3 0h2m1 0h1m1 0h1m1 0h4m1 0h3M5 21.5h3m1 0h1m2 0h2m1 0h2m2 0h4m3 0h2m4 0h1m2 0h3m1 0h1m2 0h2m2 0h1m1 0h1m3 0h2m1 0h2m1 0h4m1 0h1m1 0h3m1 0h4m3 0h4m2 0h1m1 0h3m1 0h3m1 0h1M4 22.5h2m2 0h1m1 0h2m1 0h2m1 0h1m1 0h1m2 0h1m1 0h1m2 0h1m1 0h1m3 0h2m1 0h8m1 0h2m2 0h2m2 0h3m1 0h5m2 0h5m3 0h1m3 0h3m9 0h1m2 0h1M4 23.5h3m1 0h2m1 0h3m2 0h2m1 0h1m2 0h1m6 0h1m2 0h1m1 0h2m2 0h4m1 0h2m1 0h1m2 0h2m3 0h2m2 0h1m2 0h1m1 0h1m2 0h1m1 0h1m2 0h1m1 0h3m1 0h2m1 0h2m6 0h4M7 24.5h1m2 0h2m1 0h1m2 0h1m1 0h2m1 0h2m1 0h1m4 0h4m2 0h1m2 0h1m1 0h3m1 0h2m1 0h1m2 0h2m9 0h1m1 0h1m6 0h2m1 0h5m1 0h2m2 0h2m1 0h2m1 0h1m1 0h2M4 25.5h5m2 0h2m2 0h1m2 0h1m4 0h3m1 0h1m2 0h6m1 0h4m1 0h1m2 0h2m3 0h1m3 0h2m1 0h1m1 0h1m2 0h1m3 0h2m1 0h2m3 0h1m7 0h3m1 0h1m1 0h3M6 26.5h3m1 0h1m1 0h1m1 0h2m3 0h3m5 0h3m4 0h1m4 0h3m1 0h1m3 0h1m1 0h2m2 0h1m4 0h1m1 0h1m1 0h1m4 0h1m1 0h1m4 0h2m5 0h3m2 0h4M4 27.5h2m1 0h2m7 0h4m4 0h2m1 0h2m1 0h1m2 0h1m4 0h4m3 0h3m7 0h3m1 0h2m1 0h1m1 0h1m1 0h1m1 0h12m2 0h5m1 0h1m1 0h2M6 28.5h7m3 0h1m1 0h5m2 0h1m1 0h2m2 0h1m2 0h8m1 0h3m1 0h1m1 0h1m3 0h1m1 0h3m4 0h3m1 0h5m3 0h1m1 0h10m1 0h1m1 0h3M6 29.5h1m2 0h1m1 0h1m2 0h4m2 0h1m2 0h1m1 0h3m2 0h3m1 0h1m3 0h4m3 0h1m3 0h2m1 0h1m2 0h2m5 0h1m1 0h1m1 0h2m1 0h3m2 0h1m1 0h4m1 0h1m1 0h1m2 0h2m2 0h1m1 0h1M4 30.5h2m3 0h3m1 0h1m2 0h2m2 0h1m2 0h4m1 0h1m1 0h1m1 0h1m7 0h1m3 0h1m1 0h2m1 0h3m2 0h1m2 0h1m2 0h2m2 0h1m1 0h1m1 0h1m2 0h2m1 0h2m2 0h3m1 0h1m2 0h1m1 0h2M5 31.5h2m6 0h2m1 0h1m1 0h2m2 0h1m5 0h3m1 0h1m2 0h1m1 0h1m3 0h1m3 0h1m2 0h6m1 0h4m2 0h2m6 0h1m1 0h2m1 0h1m4 0h2m2 0h1m1 0h4m3 0h1M4 32.5h1m1 0h1m1 0h5m1 0h2m2 0h1m1 0h6m1 0h1m2 0h7m2 0h1m2 0h1m4 0h1m1 0h2m1 0h2m1 0h1m2 0h6m2 0h1m1 0h1m2 0h2m3 0h1m3 0h1m2 0h7m2 0h1M6 33.5h1m1 0h1m3 0h1m1 0h1m2 0h1m1 0h6m4 0h1m1 0h2m3 0h1m9 0h5m3 0h1m1 0h1m1 0h1m3 0h3m2 0h1m1 0h2m1 0h1m3 0h3m1 0h1m1 0h1m1 0h1m3 0h3m1 0h1M4 34.5h3m1 0h1m1 0h1m1 0h4m1 0h2m2 0h3m2 0h1m1 0h1m2 0h2m1 0h1m1 0h1m1 0h1m2 0h3m1 0h1m2 0h1m2 0h1m3 0h1m1 0h2m1 0h1m1 0h1m1 0h5m3 0h2m6 0h1m2 0h2m1 0h1m1 0h1m1 0h2M6 35.5h3m3 0h2m2 0h2m2 0h2m2 0h1m1 0h2m2 0h3m3 0h3m2 0h1m1 0h1m1 0h1m1 0h2m2 0h1m2 0h5m3 0h1m1 0h2m1 0h5m1 0h2m4 0h1m3 0h2m3 0h1m1 0h1m1 0h1M5 36.5h1m1 0h6m1 0h1m3 0h4m1 0h1m1 0h15m2 0h1m2 0h3m3 0h3m4 0h6m1 0h1m2 0h1m1 0h1m3 0h1m4 0h2m1 0h1m1 0h6M5 37.5h1m2 0h1m2 0h1m1 0h2m1 0h4m2 0h1m2 0h1m3 0h3m2 0h2m1 0h3m1 0h2m1 0h4m1 0h2m2 0h1m1 0h2m1 0h1m1 0h2m7 0h1m2 0h1m1 0h2m2 0h1m2 0h1m3 0h1m1 0h2m1 0h2M5 38.5h2m2 0h3m1 0h2m1 0h1m2 0h1m1 0h1m2 0h1m1 0h1m1 0h2m1 0h3m1 0h1m4 0h2m2 0h2m2 0h2m1 0h2m1 0h2m1 0h2m1 0h2m2 0h1m1 0h2m1 0h4m1 0h1m3 0h1m2 0h2m2 0h2m4 0h1M6 39.5h2m1 0h1m2 0h2m5 0h1m1 0h4m2 0h1m1 0h2m5 0h6m1 0h3m1 0h1m4 0h5m4 0h1m1 0h1m2 0h1m3 0h1m3 0h1m3 0h4m1 0h2m1 0h4m2 0h1M4 40.5h1m2 0h1m2 0h1m1 0h4m1 0h1m1 0h2m1 0h1m1 0h1m2 0h1m1 0h1m1 0h3m1 0h2m1 0h1m3 0h1m3 0h2m1 0h1m3 0h1m4 0h3m1 0h1m4 0h1m2 0h1m3 0h2m3 0h2m2 0h1m1 0h2m2 0h2m1 0h1M5 41.5h2m2 0h1m2 0h2m1 0h1m7 0h1m1 0h1m2 0h1m1 0h2m1 0h1m2 0h3m3 0h3m2 0h1m2 0h1m1 0h1m1 0h3m2 0h1m3 0h1m3 0h3m2 0h2m2 0h1m2 0h1m1 0h1m3 0h2m1 0h1M4 42.5h2m1 0h2m1 0h1m1 0h4m1 0h1m1 0h1m3 0h1m2 0h3m1 0h3m1 0h2m1 0h1m1 0h1m1 0h2m3 0h1m4 0h2m1 0h1m5 0h3m7 0h2m2 0h3m1 0h2m3 0h3m1 0h1m2 0h3M4 43.5h2m1 0h3m1 0h1m1 0h1m1 0h11m2 0h2m1 0h3m1 0h5m2 0h2m3 0h1m1 0h3m3 0h1m2 0h1m2 0h1m1 0h1m3 0h1m1 0h2m2 0h1m1 0h2m2 0h2m1 0h1m1 0h2m1 0h2M4 44.5h1m1 0h1m3 0h1m2 0h2m1 0h2m1 0h4m1 0h1m3 0h1m1 0h2m3 0h1m2 0h2m1 0h1m1 0h7m2 0h1m1 0h2m4 0h1m1 0h1m1 0h1m1 0h1m3 0h1m3 0h2m2 0h2m3 0h2m2 0h5M4 45.5h1m1 0h1m5 0h1m2 0h3m1 0h1m5 0h3m1 0h5m1 0h2m1 0h1m1 0h3m3 0h7m1 0h1m3 0h1m1 0h4m1 0h5m1 0h3m2 0h3m3 0h2m1 0h2m1 0h1m2 0h2M5 46.5h4m1 0h3m1 0h4m1 0h3m3 0h2m4 0h4m1 0h1m2 0h4m1 0h1m3 0h1m4 0h2m1 0h1m1 0h1m1 0h3m3 0h1m1 0h3m1 0h3m4 0h1m2 0h1m1 0h1m1 0h2m1 0h2m1 0h1M5 47.5h1m1 0h1m1 0h1m4 0h5m1 0h2m4 0h2m1 0h1m3 0h1m1 0h3m3 0h1m1 0h4m1 0h4m1 0h3m1 0h2m2 0h3m1 0h1m1 0h3m2 0h1m4 0h1m2 0h1m2 0h1m3 0h2m1 0h1m1 0h1M5 48.5h1m1 0h1m1 0h2m2 0h4m2 0h5m1 0h5m3 0h1m3 0h1m3 0h1m1 0h2m1 0h2m1 0h3m1 0h1m2 0h1m1 0h1m2 0h3m6 0h3m2 0h4m3 0h2m2 0h2m3 0h1M4 49.5h2m1 0h2m3 0h1m2 0h2m4 0h1m4 0h1m1 0h5m1 0h1m5 0h3m2 0h1m2 0h3m2 0h1m4 0h1m3 0h1m3 0h3m1 0h1m1 0h1m1 0h3m4 0h1m2 0h5m1 0h2M5 50.5h2m2 0h3m1 0h1m4 0h1m2 0h2m2 0h1m1 0h1m2 0h2m1 0h2m1 0h2m1 0h1m4 0h1m1 0h2m2 0h1m1 0h1m1 0h1m2 0h1m1 0h1m2 0h2m2 0h1m1 0h1m2 0h1m1 0h1m4 0h2m1 0h1m1 0h1m2 0h5m1 0h1M5 51.5h5m1 0h2m5 0h2m1 0h1m6 0h1m3 0h1m1 0h1m1 0h1m2 0h1m1 0h1m1 0h2m2 0h2m1 0h2m1 0h1m1 0h2m1 0h3m5 0h1m4 0h2m2 0h3m2 0h4m1 0h3m1 0h1m2 0h1M4 52.5h2m3 0h2m1 0h1m1 0h1m1 0h2m1 0h2m1 0h1m1 0h4m2 0h3m1 0h2m1 0h2m1 0h1m1 0h4m1 0h1m1 0h2m2 0h2m1 0h1m4 0h5m1 0h1m1 0h1m2 0h2m2 0h1m2 0h1m2 0h5m2 0h1M7 53.5h1m4 0h2m1 0h2m1 0h2m1 0h5m1 0h1m1 0h1m1 0h1m2 0h1m2 0h3m1 0h2m1 0h2m1 0h3m1 0h1m2 0h3m1 0h1m1 0h1m7 0h2m1 0h2m3 0h3m2 0h2m1 0h5M6 54.5h1m1 0h1m1 0h1m2 0h1m1 0h7m2 0h3m2 0h3m1 0h4m1 0h3m1 0h5m2 0h1m1 0h3m1 0h3m1 0h4m1 0h1m1 0h1m1 0h2m2 0h2m1 0h1m7 0h1m1 0h1m2 0h3m1 0h1M4 55.5h1m1 0h1m1 0h2m2 0h1m2 0h2m4 0h3m1 0h1m2 0h4m1 0h3m3 0h3m5 0h1m4 0h3m2 0h2m3 0h2m4 0h1m2 0h1m1 0h1m3 0h3m1 0h1m4 0h1m2 0h1m1 0h1M6 56.5h1m1 0h3m1 0h2m3 0h1m1 0h1m1 0h2m5 0h2m2 0h1m1 0h1m1 0h1m3 0h1m4 0h2m3 0h1m2 0h3m2 0h1m1 0h2m2 0h3m4 0h1m1 0h1m3 0h2m1 0h1m3 0h3M4 57.5h1m3 0h1m3 0h1m1 0h2m4 0h1m1 0h2m4 0h3m2 0h1m1 0h1m1 0h3m1 0h1m2 0h4m2 0h1m1 0h2m1 0h1m1 0h3m2 0h5m1 0h3m1 0h1m1 0h2m1 0h2m3 0h2m3 0h2m1 0h1M4 58.5h1m1 0h1m1 0h5m1 0h3m1 0h1m1 0h1m1 0h1m1 0h2m4 0h7m1 0h1m1 0h3m2 0h1m3 0h1m1 0h1m6 0h5m1 0h3m1 0h3m1 0h1m3 0h2m1 0h2m1 0h7m2 0h1M4 59.5h3m1 0h1m3 0h1m1 0h1m4 0h1m2 0h1m1 0h2m1 0h1m1 0h1m1 0h2m3 0h3m1 0h1m1 0h3m2 0h3m4 0h1m1 0h3m3 0h1m2 0h1m1 0h2m3 0h2m3 0h1m1 0h4m1 0h1m3 0h4M4 60.5h2m1 0h2m1 0h1m1 0h2m8 0h5m2 0h1m2 0h1m1 0h1m1 0h2m1 0h4m1 0h3m1 0h3m1 0h5m1 0h1m1 0h1m1 0h1m2 0h4m1 0h1m1 0h3m1 0h1m2 0h1m1 0h2m1 0h1m1 0h1m1 0h1m1 0h1m1 0h1M6 61.5h3m3 0h2m1 0h1m10 0h1m1 0h2m2 0h1m3 0h4m1 0h8m4 0h2m2 0h2m3 0h1m1 0h1m1 0h1m2 0h2m1 0h1m1 0h1m2 0h6m1 0h1m3 0h4M6 62.5h7m1 0h1m3 0h4m1 0h1m1 0h5m1 0h7m1 0h1m3 0h2m1 0h3m1 0h2m6 0h6m1 0h5m1 0h1m1 0h3m1 0h1m1 0h1m1 0h1m2 0h8M5 63.5h1m1 0h2m3 0h2m3 0h2m3 0h3m3 0h4m2 0h1m3 0h2m2 0h1m1 0h4m1 0h6m2 0h1m2 0h1m1 0h1m2 0h2m2 0h1m1 0h1m1 0h2m1 0h2m1 0h2m1 0h3m1 0h1m1 0h2m1 0h2M5 64.5h3m1 0h2m1 0h1m2 0h2m3 0h1m2 0h1m1 0h6m1 0h1m1 0h1m1 0h1m1 0h1m4 0h1m1 0h1m6 0h3m1 0h2m1 0h5m1 0h2m1 0h3m1 0h1m1 0h1m1 0h3m1 0h1m1 0h2m1 0h2m2 0h2m1 0h1M5 65.5h1m2 0h1m2 0h2m3 0h1m1 0h2m1 0h1m2 0h1m1 0h2m1 0h1m1 0h1m3 0h1m1 0h7m2 0h4m1 0h2m1 0h1m2 0h2m1 0h4m1 0h5m2 0h2m1 0h1m1 0h1m5 0h2m1 0h1m1 0h1m1 0h3M4 66.5h2m1 0h1m2 0h7m2 0h1m1 0h1m3 0h1m2 0h1m2 0h1m3 0h2m1 0h1m1 0h1m1 0h3m2 0h1m1 0h2m1 0h2m3 0h5m3 0h1m1 0h7m2 0h2m1 0h5m2 0h1m2 0h1m2 0h1M5 67.5h1m1 0h3m1 0h1m1 0h1m1 0h1m3 0h2m1 0h3m1 0h2m1 0h1m3 0h1m4 0h1m6 0h1m1 0h2m7 0h1m2 0h4m1 0h1m4 0h4m1 0h1m6 0h1m1 0h3m1 0h1m3 0h1M6 68.5h1m2 0h2m1 0h3m2 0h2m2 0h1m1 0h2m1 0h1m2 0h3m3 0h1m1 0h3m1 0h2m1 0h4m1 0h5m5 0h1m2 0h1m2 0h3m3 0h1m4 0h4m4 0h1m1 0h1m1 0h1m1 0h1M5 69.5h1m1 0h1m1 0h1m1 0h1m1 0h1m1 0h3m1 0h2m1 0h4m2 0h2m5 0h5m2 0h4m5 0h1m1 0h1m2 0h4m3 0h1m3 0h2m2 0h1m4 0h1m2 0h3m2 0h3m1 0h2m1 0h2M5 70.5h1m3 0h3m3 0h2m1 0h2m2 0h1m2 0h2m1 0h4m1 0h2m2 0h2m2 0h2m3 0h1m1 0h1m1 0h2m4 0h2m1 0h1m2 0h2m2 0h1m1 0h1m1 0h1m3 0h1m1 0h2m1 0h1m1 0h6m1 0h2m1 0h2M9 71.5h1m1 0h1m1 0h1m2 0h2m2 0h1m2 0h4m4 0h1m2 0h2m1 0h5m1 0h3m1 0h2m2 0h1m1 0h1m1 0h2m7 0h1m1 0h1m1 0h1m1 0h2m2 0h1m1 0h3m1 0h2M7 72.5h1m2 0h5m3 0h2m1 0h2m4 0h1m1 0h1m1 0h3m3 0h1m3 0h4m2 0h1m1 0h5m2 0h2m1 0h1m1 0h2m1 0h2m2 0h2m2 0h1m1 0h3m3 0h4m1 0h1m2 0h1m1 0h3M5 73.5h5m1 0h1m1 0h2m2 0h1m1 0h1m3 0h1m2 0h1m1 0h2m1 0h1m3 0h1m3 0h1m1 0h1m1 0h1m2 0h3m4 0h1m1 0h1m1 0h1m2 0h1m1 0h1m2 0h3m1 0h4m2 0h3m2 0h1m1 0h9m1 0h1M4 74.5h1m2 0h1m2 0h1m1 0h3m1 0h1m4 0h4m3 0h1m1 0h1m1 0h3m1 0h2m5 0h1m3 0h3m1 0h1m4 0h3m1 0h1m1 0h2m2 0h3m1 0h1m1 0h1m1 0h1m1 0h3m3 0h1m2 0h2m1 0h2M4 75.5h5m2 0h1m2 0h1m1 0h1m1 0h3m1 0h2m3 0h1m4 0h2m5 0h1m1 0h5m2 0h2m2 0h3m5 0h1m1 0h2m3 0h2m2 0h1m1 0h1m2 0h1m2 0h1m1 0h2m1 0h1m2 0h1m1 0h1m1 0h1M6 76.5h1m1 0h1m1 0h1m2 0h1m3 0h1m2 0h1m1 0h1m1 0h1m1 0h1m2 0h6m1 0h1m2 0h4m1 0h3m3 0h6m1 0h1m1 0h1m2 0h2m2 0h1m1 0h2m5 0h2m1 0h5m1 0h1m1 0h3m2 0h1M5 77.5h1m3 0h1m2 0h1m3 0h3m2 0h1m4 0h1m1 0h1m2 0h2m8 0h1m1 0h2m1 0h1m2 0h1m1 0h2m1 0h1m2 0h3m6 0h1m3 0h1m1 0h3m1 0h1m1 0h2m2 0h2m2 0h2m2 0h3M5 78.5h2m3 0h3m1 0h2m2 0h1m1 0h1m2 0h1m2 0h1m2 0h1m1 0h1m1 0h1m1 0h3m2 0h5m1 0h1m1 0h1m4 0h1m2 0h3m1 0h5m1 0h1m1 0h4m3 0h1m1 0h1m1 0h4m2 0h1m4 0h1m1 0h1M5 79.5h4m2 0h1m1 0h4m1 0h2m1 0h2m2 0h4m1 0h2m2 0h1m2 0h2m2 0h3m3 0h1m2 0h5m3 0h2m1 0h1m5 0h2m1 0h1m1 0h2m1 0h1m1 0h1m1 0h1m1 0h2m1 0h1m1 0h1m1 0h2m2 0h1M4 80.5h1m1 0h1m1 0h1m1 0h5m3 0h3m1 0h3m1 0h1m1 0h2m1 0h1m4 0h1m1 0h2m2 0h1m1 0h1m1 0h2m1 0h1m2 0h3m2 0h3m2 0h3m1 0h4m1 0h1m3 0h1m3 0h1m1 0h1m1 0h1m1 0h5m1 0h2M5 81.5h1m2 0h2m2 0h4m3 0h1m3 0h1m1 0h2m3 0h1m1 0h5m1 0h4m1 0h1m1 0h1m1 0h1m1 0h2m1 0h2m1 0h4m1 0h2m3 0h1m1 0h2m1 0h3m5 0h1m1 0h1m1 0h5m3 0h3M4 82.5h1m2 0h1m2 0h1m1 0h4m2 0h1m1 0h2m1 0h4m5 0h2m4 0h2m3 0h1m1 0h1m9 0h4m3 0h4m1 0h1m1 0h3m2 0h1m1 0h1m2 0h1m1 0h6m1 0h2m1 0h2M4 83.5h2m2 0h2m1 0h1m2 0h1m1 0h1m1 0h4m1 0h2m1 0h1m2 0h1m1 0h2m1 0h1m3 0h3m1 0h2m1 0h2m1 0h2m1 0h2m6 0h1m1 0h1m1 0h2m1 0h1m2 0h1m2 0h1m1 0h1m1 0h2m1 0h1m1 0h2m1 0h1m1 0h4m2 0h1M4 84.5h1m2 0h1m2 0h3m1 0h2m1 0h3m4 0h1m3 0h1m1 0h9m1 0h1m2 0h2m1 0h1m3 0h2m5 0h6m3 0h1m4 0h1m2 0h1m2 0h2m1 0h2m2 0h6M12 85.5h3m1 0h2m1 0h5m1 0h4m1 0h1m1 0h1m3 0h6m1 0h2m3 0h1m2 0h1m1 0h3m1 0h2m3 0h1m1 0h1m1 0h3m3 0h2m1 0h7m2 0h1m3 0h2m1 0h1M4 86.5h7m1 0h2m1 0h2m2 0h4m1 0h3m2 0h4m1 0h1m1 0h1m1 0h1m1 0h1m1 0h5m4 0h1m1 0h1m1 0h4m1 0h1m1 0h1m1 0h4m2 0h2m2 0h1m2 0h5m2 0h1m1 0h1m1 0h1m2 0h1M4 87.5h1m5 0h1m3 0h3m1 0h5m2 0h1m3 0h1m1 0h2m3 0h1m2 0h1m2 0h1m1 0h1m1 0h2m2 0h1m3 0h1m2 0h2m3 0h6m1 0h3m4 0h1m3 0h1m1 0h3m3 0h5M4 88.5h1m1 0h3m1 0h1m2 0h1m2 0h5m3 0h1m4 0h1m1 0h8m1 0h1m2 0h1m2 0h1m1 0h1m3 0h1m3 0h1m1 0h7m1 0h2m1 0h4m2 0h2m3 0h3m1 0h5m1 0h3M4 89.5h1m1 0h3m1 0h1m1 0h3m1 0h2m1 0h2m1 0h2m3 0h3m7 0h1m1 0h2m3 0h4m1 0h3m1 0h2m2 0h1m1 0h3m1 0h2m2 0h1m1 0h1m4 0h2m1 0h1m1 0h1m1 0h2m2 0h1m1 0h1m1 0h4M4 90.5h1m1 0h3m1 0h1m2 0h1m2 0h1m2 0h5m2 0h2m2 0h1m2 0h6m1 0h3m4 0h2m1 0h1m1 0h1m2 0h4m1 0h1m2 0h3m1 0h2m2 0h1m3 0h1m3 0h1m1 0h1m2 0h1m2 0h1m4 0h1M4 91.5h1m5 0h1m1 0h3m2 0h1m4 0h1m1 0h2m2 0h3m2 0h2m1 0h1m3 0h2m6 0h2m3 0h1m1 0h4m2 0h1m1 0h3m1 0h2m2 0h3m1 0h1m4 0h3m1 0h2m4 0h2M4 92.5h7m1 0h3m1 0h1m1 0h1m1 0h3m1 0h2m3 0h2m7 0h2m1 0h2m2 0h5m2 0h2m1 0h1m2 0h3m4 0h1m6 0h4m2 0h2m4 0h2m1 0h2m1 0h2"/></svg>
