<svg xmlns="http://www.w3.org/2000/svg" viewBox="0 0 109 109" shape-rendering="crispEdges"><path fill="#ffffff" d="M0 0h109v109H0z"/><path stroke="#000000" d="M4 4.5h7m1 0h1m1 0h1m2 0h2m3 0h2m1 0h6m1 0h1m2 0h4m1 0h1m1 0h3m1 0h6m1 0h2m2 0h4m4 0h2m1 0h1m2 0h1m2 0h5m5 0h1m1 0h6m1 0h3m2 0h7M4 5.5h1m5 0h1m3 0h3m3 0h1m5 0h1m1 0h1m2 0h1m1 0h3m1 0h1m1 0h1m2 0h3m3 0h2m1 0h2m1 0h3m2 0h3m2 0h1m1 0h2m2 0h2m1 0h1m3 0h1m8 0h2m1 0h4m5 0h1m5 0h1M4 6.5h1m1 0h3m1 0h1m3 0h2m4 0h2m1 0h3m2 0h6m1 0h3m2 0h5m1 0h1m2 0h2m2 0h2m1 0h2m1 0h1m1 0h1m3 0h1m1 0h2m1 0h1m3 0h1m2 0h2m1 0h1m1 0h1m1 0h1m6 0h1m3 0h1m2 0h1m1 0h3m1 0h1M4 7.5h1m1 0h3m1 0h1m2 0h2m1 0h1m1 0h1m2 0h2m1 0h3m2 0h1m2 0h1m1 0h1m1 0h1m1 0h1m2 0h3m3 0h1m2 0h9m3 0h1m1 0h5m1 0h2m2 0h1m2 0h2m2 0h1m1 0h2m6 0h5m2 0h1m1 0h3m1 0h1M4 8.5h1m1 0h3m1 0h1m3 0h2m2 0h1m2 0h1m5 0h1m1 0h6m1 0h1m2 0h1m1 0h3m1 0h1m1 0h2m1 0h1m1 0h7m1 0h1m1 0h2m2 0h2m1 0h1m4 0h8m5 0h1m1 0h2m1 0h1m1 0h1m1 0h1m1 0h1m1 0h3m1 0h1M4 9.5h1m5 0h1m2 0h1m1 0h4m2 0h4m3 0h1m1 0h1m3 0h5m1 0h2m2 0h1m1 0h1m1 0h1m3 0h1m3 0h1m3 0h4m6 0h1m2 0h2m3 0h5m3 0h3m1 0h3m2 0h1m2 0h1m5 0h1M4 10.5h7m1 0h1m1 0h1m1 0h1m1 0h1m1 0h1m1 0h1m1 0h1m1 0h1m1 0h1m1 0h1m1 0h1m1 0h1m1 0h1m1 0h1m1 0h1m1 0h1m1 0h1m1 0h1m1 0h1m1 0h1m1 0h1m1 0h1m1 0h1m1 0h1m1 0h1m1 0h1m1 0h1m1 0h1m1 0h1m1 0h1m1 0h1m1 0h1m1 0h1m1 0h1m1 0h1m1 0h1m1 0h1m1 0h1m1 0h1m1 0h1m1 0h1m1 0h1m1 0h1m1 0h7M12 11.5h1m1 0h3m1 0h1m1 0h2m1 0h8m3 0h7m2 0h4m1 0h1m1 0h3m3 0h1m1 0h1m1 0h2m2 0h1m4 0h1m1 0h2m1 0h1m3 0h3m2 0h1m1 0h1m2 0h2m1 0h1m2 0h1M4 12.5h2m1 0h2m1 0h1m2 0h4m6 0h2m5 0h5m6 0h4m2 0h2m1 0h1m1 0h6m3 0h1m1 0h1m2 0h2m6 0h9m5 0h3m1 0h1m1 0h3m1 0h1m5 0h1M4 13.5h1m1 0h1m1 0h2m1 0h1m1 0h5m1 0h2m2 0h1m3 0h1m1 0h1m1 0h2m1 0h1m1 0h3m2 0h1m4 0h1m2 0h2m3 0h1m1 0h2m3 0h1m2 0h2m1 0h2m1 0h2m2 0h3m3 0h1m2 0h1m1 0h1m2 0h3m3 0h2m2 0h1m1 0h1m3 0h1M4 14.5h1m1 0h1m2 0h2m1 0h1m1 0h3m2 0h3m1 0h2m2 0h2m2 0h1m2 0h1m1 0h1m1 0h1m2 0h1m3 0h1m1 0h3m2 0h1m6 0h2m5 0h2m2 0h1m1 0h3m2 0h1m1 0h2m1 0h1m1 0h1m3 0h3m3 0h5m2 0h4M4 15.5h3m1 0h2m1 0h2m5 0h2m2 0h2m2 0h2m2 0h4m2 0h5m3 0h3m2 0h1m2 0h1m3 0h1m3 0h1m2 0h3m1 0h1m2 0h1m1 0h1m2 0h1m2 0h1m2 0h2m1 0h1m5 0h4m1 0h2m1 0h1m1 0h5M6 16.5h2m2 0h3m1 0h2m1 0h1m4 0h1m3 0h1m1 0h1m3 0h1m1 0h3m1 0h1m1 0h1m2 0h1m2 0h3m3 0h2m2 0h4m1 0h1m1 0h1m4 0h1m1 0h1m2 0h1m4 0h2m2 0h10m2 0h2m1 0h1m2 0h3M8 17.5h1m6 0h1m1 0h1m1 0h2m2 0h2m1 0h6m1 0h1m2 0h2m2 0h4m2 0h8m1 0h2m1 0h1m1 0h4m4 0h3m2 0h1m1 0h2m1 0h1m3 0h3m2 0h3m1 0h4m2 0h2m1 0h5M4 18.5h5m1 0h3m5 0h1m3 0h1m1 0h1m1 0h1m1 0h2m3 0h5m1 0h3m1 0h1m1 0h1m3 0h1m2 0h3m2 0h1m1 0h3m3 0h2m6 0h5m1 0h2m1 0h1m2 0h1m1 0h1m1 0h3m2 0h4m4 0h2M4 19.5h1m1 0h1m1 0h2m2 0h2m1 0h1m1 0h1m5 0h5m1 0h2m1 0h3m4 0h1m2 0h3m2 0h2m12 0h2m2 0h4m4 0h7m1 0h2m1 0h1m5 0h1m1 0h4m2 0h5m1 0h1M4 20.5h9m2 0h3m1 0h2m1 0h1m2 0h1m1 0h1m2 0h2m5 0h1m1 0h2m1 0h1m4 0h1m2 0h1m1 0h1m7 0h2m1 0h1m2 0h1m1 0h1m2 0h1m1 0h2m1 0h1m2 0h3m6 0h2m1 0h2m1 0h3m6 0h1M6 21.5h4m2 0h1m2 0h1m1 0h1m3 0h2m2 0h2m2 0h1m4 0h2m2 0h3m1 0h1m1 0h3m1 0h1m1 0h3m3 0h2m1 0h3m6 0h4m3 0h1m2 0h1m4 0h1m2 0h2m2 0h1m1 0h2m3 0h2M5 22.5h1m1 0h2m1 0h1m1 0h4m2 0h1m1 0h1m1 0h7m2 0h1m1 0h2m1 0h1m1 0h1m2 0h7m4 0h1m1 0h4m1 0h1m5 0h1m2 0h1m1 0h2m1 0h2m1 0h1m1 0h1m1 0h1m3 0h7m2 0h3m1 0h3m1 0h1M4 23.5h2m2 0h2m1 0h4m1 0h3m1 0h1m4 0h1m1 0h1m3 0h2m1 0h1m1 0h1m1 0h8m1 0h1m1 0h1m1 0h3m2 0h2m4 0h4m3 0h5m2 0h2m4 0h2m1 0h1m3 0h4m1 0h2m4 0h1m3 0h1M4 24.5h1m5 0h1m4 0h1m2 0h3m4 0h4m2 0h6m1 0h4m5 0h1m1 0h2m2 0h2m1 0h1m2 0h1m1 0h2m1 0h1m1 0h1m2 0h1m1 0h3m1 0h5m3 0h2m1 0h3m1 0h1m1 0h1m4 0h1m1 0h2m2 0h1M4 25.5h3m1 0h2m1 0h1m1 0h2m1 0h1m2 0h5m1 0h1m1 0h2m1 0h2m1 0h2m2 0h1m1 0h4m2 0h1m2 0h2m1 0h2m2 0h1m6 0h2m2 0h1m1 0h3m4 0h1m4 0h2m1 0h1m1 0h1m2 0h3m3 0h3m1 0h1m1 0h1m1 0h2M5 26.5h1m1 0h1m2 0h2m1 0h1m3 0h1m2 0h1m3 0h4m3 0h1m4 0h3m2 0h3m1 0h2m1 0h1m1 0h1m2 0h1m3 0h1m2 0h1m4 0h2m1 0h3m1 0h1m2 0h1m5 0h1m2 0h1m2 0h1m1 0h1m1 0h1m1 0h2m3 0h1m2 0h1m1 0h1M5 27.5h1m1 0h3m5 0h3m1 0h2m3 0h1m1 0h1m1 0h2m1 0h1m2 0h1m1 0h1m1 0h4m2 0h1m1 0h1m2 0h1m3 0h2m2 0h1m4 0h2m4 0h1m1 0h1m1 0h1m2 0h1m1 0h2m1 0h2m1 0h1m2 0h1m1 0h1m2 0h2m2 0h1m1 0h1m6 0h1M5 28.5h1m1 0h1m2 0h1m1 0h2m2 0h1m2 0h1m5 0h2m1 0h2m1 0h1m2 0h4m1 0h1m1 0h2m1 0h1m1 0h3m1 0h1m1 0h4m1 0h1m2 0h1m2 0h3m1 0h3m1 0h2m1 0h1m1 0h3m1 0h2m3 0h1m3 0h2m2 0h1m2 0h1m1 0h3m3 0h1M5 29.5h1m2 0h2m1 0h6m2 0h1m1 0h1m1 0h1m4 0h2m1 0h4m2 0h1m1 0h2m4 0h4m1 0h1m1 0h2m2 0h1m1 0h2m1 0h1m1 0h2m3 0h1m1 0h1m5 0h1m1 0h1m2 0h1m3 0h2m3 0h4m1 0h1m1 0h1m1 0h3m2 0h1M5 30.5h2m1 0h6m1 0h1m1 0h2m4 0h1m2 0h3m1 0h6m2 0h1m1 0h1m1 0h1m2 0h4m1 0h1m1 0h6m1 0h1m2 0h2m1 0h2m2 0h10m3 0h1m1 0h1m1 0h2m5 0h10M4 31.5h5m3 0h1m5 0h2m1 0h1m1 0h3m3 0h2m3 0h2m2 0h2m1 0h1m2 0h1m1 0h2m1 0h1m2 0h1m3 0h3m3 0h1m2 0h1m3 0h2m2 0h2m3 0h1m1 0h1m1 0h4m1 0h1m1 0h3m4 0h1m3 0h1m1 0h1M4 32.5h1m2 0h2m1 0h1m1 0h2m1 0h1m1 0h3m1 0h1m1 0h2m2 0h2m1 0h1m1 0h1m1 0h2m1 0h2m1 0h3m1 0h6m2 0h1m1 0h1m1 0h2m1 0h1m3 0h1m2 0h2m1 0h6m1 0h1m1 0h1m1 0h3m1 0h1m1 0h1m1 0h2m1 0h1m2 0h3m1 0h1m1 0h4M4 33.5h1m3 0h1m3 0h5m1 0h1m1 0h1m6 0h4m3 0h1m1 0h6m2 0h2m1 0h1m1 0h2m1 0h1m3 0h1m1 0h1m1 0h1m1 0h3m1 0h1m2 0h2m1 0h3m3 0h1m1 0h2m2 0h4m5 0h2m1 0h1m3 0h2M7 34.5h6m1 0h3m1 0h3m2 0h2m1 0h1m1 0h7m1 0h1m2 0h3m2 0h2m1 0h1m3 0h6m1 0h2m1 0h1m1 0h1m2 0h1m5 0h7m3 0h4m1 0h1m1 0h1m2 0h1m2 0h7m2 0h1M4 35.5h4m1 0h1m1 0h4m2 0h1m1 0h1m1 0h3m1 0h1m1 0h4m3 0h4m3 0h1m1 0h1m3 0h1m5 0h1m2 0h1m1 0h5m1 0h2m1 0h5m2 0h1m1 0h1m2 0h1m1 0h4m1 0h2m1 0h2m3 0h2m4 0h1m3 0h1M4 36.5h3m3 0h1m6 0h4m2 0h1m4 0h3m1 0h5m1 0h2m1 0h2m1 0h1m1 0h1m2 0h2m1 0h2m2 0h1m2 0h1m2 0h2m1 0h2m2 0h1m2 0h2m3 0h1m2 0h1m4 0h1m1 0h1m3 0h1m2 0h3m1 0h1m1 0h1m1 0h1M4 37.5h1m2 0h1m1 0h1m2 0h2m7 0h1m1 0h3m2 0h2m4 0h1m1 0h5m3 0h1m5 0h1m3 0h1m1 0h1m2 0h5m1 0h4m2 0h1m2 0h1m1 0h1m1 0h2m3 0h1m2 0h1m2 0h2m1 0h3m1 0h2m1 0h3m1 0h1M4 38.5h2m2 0h10m2 0h2m1 0h1m1 0h3m1 0h5m1 0h3m1 0h4m1 0h1m1 0h2m1 0h6m2 0h4m2 0h1m2 0h1m4 0h2m1 0h1m3 0h3m1 0h1m1 0h3m1 0h2m6 0h1m1 0h1m1 0h2M6 39.5h2m1 0h1m1 0h1m3 0h2m5 0h1m1 0h1m3 0h2m1 0h1m2 0h1m2 0h1m2 0h2m1 0h1m1 0h6m4 0h2m1 0h7m1 0h1m4 0h3m3 0h2m1 0h2m1 0h1m3 0h1m2 0h2m3 0h1m2 0h4m1 0h2M4 40.5h1m1 0h2m2 0h4m1 0h1m6 0h1m1 0h4m1 0h2m4 0h1m1 0h7m2 0h1m1 0h2m3 0h1m1 0h1m3 0h2m1 0h3m2 0h4m1 0h1m2 0h5m1 0h6m1 0h1m1 0h2m3 0h3m1 0h1m1 0h1m1 0h1M7 41.5h1m1 0h1m9 0h1m2 0h2m1 0h2m4 0h1m1 0h4m1 0h2m2 0h2m1 0h4m4 0h1m2 0h2m1 0h2m1 0h1m2 0h1m3 0h1m8 0h1m1 0h4m1 0h1m4 0h1m1 0h3m7 0h2M5 42.5h1m1 0h5m1 0h1m1 0h3m1 0h2m3 0h3m5 0h10m1 0h2m3 0h2m2 0h1m2 0h1m1 0h3m1 0h1m1 0h1m1 0h1m2 0h1m4 0h2m1 0h1m1 0h1m2 0h3m1 0h1m1 0h2m1 0h1m3 0h7m1 0h1m1 0h1M5 43.5h3m4 0h2m1 0h1m1 0h1m3 0h2m2 0h2m3 0h1m2 0h1m1 0h4m1 0h1m7 0h1m2 0h1m5 0h2m1 0h6m1 0h1m2 0h1m1 0h1m1 0h9m2 0h2m2 0h1m3 0h2m1 0h3m3 0h3M4 44.5h3m2 0h2m1 0h1m1 0h1m3 0h1m4 0h1m1 0h2m1 0h2m3 0h2m1 0h6m1 0h3m1 0h2m2 0h1m3 0h1m1 0h7m4 0h2m3 0h4m1 0h1m1 0h1m2 0h1m1 0h1m1 0h1m4 0h1m2 0h2m1 0h2m1 0h2M8 45.5h1m3 0h1m1 0h1m1 0h3m2 0h1m2 0h2m1 0h1m1 0h2m1 0h2m5 0h3m1 0h2m1 0h6m3 0h1m4 0h3m1 0h1m1 0h1m1 0h2m1 0h1m2 0h1m2 0h1m2 0h1m3 0h1m1 0h8m1 0h1m1 0h1m1 0h2m1 0h1M5 46.5h1m1 0h1m2 0h5m2 0h1m2 0h2m1 0h1m1 0h4m1 0h3m1 0h3m1 0h1m5 0h1m1 0h1m3 0h1m2 0h1m1 0h1m1 0h2m1 0h3m3 0h1m5 0h2m1 0h2m1 0h3m3 0h1m3 0h1m3 0h5m1 0h1m2 0h1M4 47.5h2m8 0h10m3 0h1m2 0h1m2 0h1m2 0h1m3 0h1m1 0h2m2 0h2m3 0h5m3 0h1m5 0h5m1 0h3m1 0h2m3 0h1m2 0h4m2 0h3m1 0h6m1 0h1m1 0h1m1 0h1M5 48.5h1m4 0h2m1 0h2m4 0h1m4 0h1m1 0h2m2 0h6m6 0h7m2 0h1m1 0h1m1 0h2m1 0h3m1 0h1m4 0h3m1 0h1m2 0h3m1 0h1m1 0h5m5 0h1m1 0h1m1 0h1m2 0h1m1 0h1m4 0h1M6 49.5h1m1 0h2m1 0h2m1 0h3m1 0h2m3 0h1m2 0h1m3 0h1m2 0h1m2 0h3m3 0h3m1 0h7m2 0h5m1 0h4m1 0h2m1 0h1m4 0h6m2 0h1m4 0h1m1 0h3m1 0h2m1 0h4m3 0h1M4 50.5h2m4 0h2m4 0h2m1 0h1m1 0h1m1 0h3m2 0h1m2 0h2m1 0h4m3 0h3m1 0h1m2 0h1m2 0h4m2 0h2m1 0h1m2 0h4m2 0h2m3 0h1m1 0h5m2 0h2m1 0h9m1 0h1m1 0h3m1 0h3M8 51.5h1m2 0h1m1 0h1m1 0h1m1 0h4m1 0h3m1 0h6m2 0h1m1 0h1m1 0h1m5 0h1m1 0h1m2 0h3m1 0h1m1 0h1m4 0h3m2 0h3m1 0h1m2 0h2m1 0h2m1 0h1m5 0h4m1 0h1m2 0h4m1 0h1m2 0h2m1 0h2M4 52.5h2m1 0h7m2 0h1m3 0h1m3 0h1m3 0h9m7 0h1m1 0h4m1 0h10m2 0h2m5 0h1m2 0h6m3 0h5m1 0h2m1 0h3m1 0h7m2 0h1M5 53.5h4m3 0h5m1 0h1m3 0h1m3 0h1m1 0h1m1 0h1m3 0h1m2 0h1m1 0h1m2 0h2m2 0h4m2 0h1m3 0h1m1 0h1m1 0h3m2 0h1m1 0h1m2 0h5m3 0h1m1 0h2m1 0h2m1 0h1m2 0h2m1 0h2m1 0h2m3 0h2M4 54.5h1m3 0h1m1 0h1m1 0h1m1 0h1m1 0h1m2 0h1m1 0h3m3 0h1m2 0h1m1 0h1m1 0h1m3 0h4m1 0h1m1 0h1m2 0h2m2 0h1m1 0h1m1 0h1m1 0h3m2 0h2m1 0h1m1 0h1m1 0h3m1 0h1m1 0h1m1 0h1m3 0h2m1 0h1m8 0h3m1 0h1m1 0h1M5 55.5h2m1 0h1m3 0h2m1 0h3m3 0h4m1 0h5m3 0h2m2 0h3m2 0h2m1 0h7m3 0h3m3 0h2m1 0h2m1 0h1m1 0h2m2 0h1m3 0h2m2 0h1m4 0h2m1 0h3m2 0h2m3 0h3M4 56.5h2m1 0h9m2 0h3m1 0h2m1 0h4m1 0h5m2 0h3m1 0h5m1 0h3m1 0h7m1 0h2m4 0h2m3 0h2m2 0h6m3 0h1m3 0h1m3 0h1m4 0h5m2 0h1M6 57.5h2m1 0h1m2 0h4m3 0h1m1 0h2m2 0h6m2 0h3m1 0h1m1 0h3m2 0h2m3 0h1m2 0h1m3 0h1m5 0h5m1 0h2m2 0h1m1 0h1m1 0h2m1 0h2m1 0h3m2 0h4m2 0h2m1 0h1m1 0h2m1 0h1m2 0h1M10 58.5h1m1 0h3m2 0h3m2 0h2m1 0h1m3 0h2m2 0h3m1 0h2m1 0h1m4 0h1m2 0h1m2 0h1m2 0h3m1 0h3m2 0h2m1 0h1m3 0h2m1 0h5m1 0h1m1 0h1m6 0h1m1 0h1m1 0h1m1 0h1m4 0h1m1 0h2M4 59.5h1m2 0h2m2 0h2m5 0h1m3 0h1m2 0h2m1 0h4m3 0h2m3 0h1m1 0h2m2 0h1m4 0h2m1 0h3m1 0h1m1 0h1m1 0h1m1 0h1m1 0h4m2 0h1m1 0h1m1 0h3m1 0h1m1 0h7m1 0h2m1 0h1m2 0h1m5 0h1m1 0h1M4 60.5h1m1 0h2m2 0h2m1 0h2m4 0h2m2 0h4m5 0h1m4 0h2m1 0h2m2 0h1m1 0h1m2 0h3m3 0h1m1 0h2m1 0h1m1 0h1m2 0h3m3 0h1m1 0h1m3 0h1m2 0h2m1 0h3m3 0h1m1 0h1m2 0h1m2 0h4m1 0h3M4 61.5h6m1 0h2m1 0h2m1 0h2m1 0h1m1 0h3m1 0h1m1 0h1m1 0h2m1 0h1m3 0h1m3 0h2m1 0h1m2 0h1m3 0h1m1 0h2m3 0h1m1 0h2m1 0h2m2 0h7m3 0h1m3 0h1m6 0h1m1 0h1m2 0h1m1 0h1m2 0h3m2 0h1M10 62.5h1m1 0h1m1 0h2m1 0h2m2 0h4m1 0h2m7 0h2m3 0h6m3 0h2m1 0h3m1 0h1m1 0h1m3 0h2m2 0h1m4 0h2m2 0h3m2 0h1m1 0h1m1 0h2m3 0h2m2 0h2m1 0h1m4 0h1m1 0h1M8 63.5h1m2 0h1m2 0h2m2 0h3m1 0h1m3 0h3m2 0h1m1 0h1m4 0h2m2 0h2m1 0h2m1 0h1m2 0h2m3 0h2m2 0h1m1 0h4m1 0h6m1 0h1m1 0h1m2 0h1m2 0h3m4 0h4m4 0h2m3 0h1m1 0h1M9 64.5h3m3 0h2m1 0h2m2 0h1m2 0h3m3 0h2m1 0h1m2 0h1m1 0h3m1 0h6m4 0h1m1 0h4m2 0h2m1 0h1m4 0h1m3 0h2m2 0h3m1 0h1m5 0h2m3 0h1m2 0h3m2 0h4M6 65.5h1m1 0h1m2 0h2m1 0h2m3 0h1m1 0h2m1 0h2m1 0h3m1 0h4m3 0h1m2 0h1m3 0h1m3 0h1m2 0h4m1 0h3m1 0h2m1 0h1m1 0h1m3 0h1m4 0h1m4 0h1m3 0h1m1 0h1m1 0h1m8 0h4M4 66.5h3m3 0h1m3 0h1m1 0h1m1 0h1m4 0h1m1 0h1m1 0h1m2 0h4m3 0h4m2 0h1m1 0h2m1 0h1m2 0h4m1 0h1m4 0h1m2 0h4m2 0h3m3 0h1m4 0h1m1 0h1m1 0h1m1 0h1m1 0h1m1 0h1m2 0h2m5 0h3M4 67.5h2m1 0h3m1 0h1m1 0h1m1 0h2m2 0h2m3 0h3m2 0h1m2 0h1m1 0h1m1 0h1m1 0h1m2 0h3m1 0h2m1 0h2m4 0h7m1 0h1m1 0h1m1 0h3m1 0h1m6 0h2m1 0h1m3 0h2m1 0h1m2 0h2m5 0h3m1 0h3M4 68.5h4m2 0h4m1 0h1m1 0h5m1 0h3m2 0h1m1 0h2m1 0h3m1 0h1m1 0h4m1 0h4m1 0h1m2 0h2m1 0h1m4 0h4m1 0h4m2 0h2m1 0h5m2 0h2m4 0h2m2 0h1m1 0h1m1 0h1m4 0h1m2 0h2M4 69.5h1m1 0h2m8 0h1m7 0h1m2 0h2m3 0h2m4 0h2m3 0h2m2 0h1m2 0h2m3 0h2m1 0h2m1 0h1m1 0h3m1 0h1m1 0h1m1 0h4m2 0h1m2 0h1m1 0h1m1 0h2m1 0h4m1 0h5m1 0h5m1 0h1M5 70.5h4m1 0h4m1 0h3m1 0h1m3 0h1m2 0h1m1 0h2m1 0h3m1 0h4m1 0h6m4 0h4m1 0h1m1 0h1m4 0h2m1 0h1m2 0h3m1 0h4m1 0h1m1 0h1m3 0h1m1 0h1m1 0h2m1 0h2m3 0h3m1 0h2m1 0h3M4 71.5h1m2 0h2m3 0h3m1 0h1m1 0h2m1 0h1m1 0h1m1 0h1m2 0h2m1 0h1m2 0h1m2 0h2m1 0h3m3 0h1m1 0h1m2 0h1m1 0h3m1 0h4m2 0h1m1 0h1m1 0h1m2 0h1m1 0h1m1 0h4m1 0h1m1 0h1m3 0h5m1 0h2m4 0h5M4 72.5h2m1 0h1m2 0h1m4 0h3m1 0h2m1 0h3m1 0h1m1 0h1m1 0h4m2 0h1m3 0h1m1 0h1m1 0h2m1 0h1m4 0h1m1 0h1m2 0h2m1 0h4m1 0h1m2 0h2m1 0h1m3 0h1m1 0h1m2 0h4m4 0h2m3 0h2m3 0h2m1 0h1m1 0h2M4 73.5h1m1 0h1m2 0h1m1 0h1m2 0h1m1 0h1m4 0h1m1 0h2m1 0h1m2 0h2m1 0h2m2 0h1m1 0h2m5 0h1m1 0h3m3 0h1m3 0h2m1 0h2m3 0h1m2 0h2m2 0h1m3 0h1m5 0h1m2 0h2m6 0h2m1 0h1M5 74.5h1m2 0h5m3 0h1m1 0h1m6 0h2m3 0h5m1 0h1m1 0h2m2 0h2m2 0h1m1 0h10m1 0h1m1 0h2m1 0h2m1 0h2m4 0h6m1 0h1m1 0h2m1 0h1m4 0h2m2 0h7m1 0h1m1 0h1M8 75.5h1m3 0h3m1 0h3m2 0h1m1 0h1m3 0h4m3 0h1m2 0h2m2 0h1m1 0h4m2 0h2m1 0h1m3 0h1m1 0h1m1 0h4m3 0h1m2 0h1m2 0h2m3 0h7m1 0h4m3 0h1m1 0h2m3 0h1M5 76.5h4m1 0h1m1 0h2m4 0h2m1 0h2m2 0h6m1 0h1m1 0h1m1 0h3m1 0h3m3 0h1m1 0h1m1 0h1m1 0h1m1 0h1m1 0h2m1 0h1m1 0h1m2 0h4m1 0h2m2 0h2m1 0h1m1 0h1m3 0h2m1 0h3m2 0h3m1 0h1m1 0h1m1 0h1m1 0h2M6 77.5h1m1 0h1m3 0h2m1 0h1m3 0h1m1 0h2m1 0h2m4 0h1m3 0h1m1 0h2m2 0h3m1 0h2m5 0h2m3 0h5m2 0h2m3 0h2m3 0h2m3 0h6m1 0h4m3 0h1m1 0h1m1 0h1m3 0h1m1 0h2M5 78.5h10m8 0h2m2 0h1m2 0h6m3 0h10m1 0h1m1 0h6m2 0h2m1 0h1m1 0h1m2 0h3m1 0h1m1 0h6m1 0h2m1 0h2m1 0h2m3 0h1m3 0h5m2 0h1M4 79.5h5m2 0h2m1 0h2m5 0h2m1 0h1m2 0h1m2 0h2m1 0h2m1 0h1m1 0h1m3 0h1m1 0h1m3 0h2m3 0h2m3 0h2m3 0h3m1 0h3m1 0h1m1 0h1m1 0h1m1 0h1m3 0h2m1 0h5m2 0h1m1 0h5m1 0h1m1 0h1m1 0h1M4 80.5h1m3 0h5m2 0h2m1 0h2m2 0h1m1 0h2m2 0h1m3 0h1m1 0h3m1 0h2m6 0h2m3 0h1m1 0h1m1 0h4m1 0h1m2 0h1m1 0h2m1 0h2m1 0h2m2 0h1m1 0h1m2 0h1m2 0h3m2 0h1m1 0h2m1 0h1m1 0h3m2 0h1m1 0h1M5 81.5h1m1 0h1m4 0h3m1 0h1m1 0h1m4 0h1m1 0h1m1 0h6m1 0h2m1 0h1m1 0h1m2 0h3m2 0h1m2 0h2m1 0h1m1 0h1m1 0h1m1 0h2m2 0h1m1 0h2m2 0h1m11 0h1m3 0h1m1 0h2m6 0h1m1 0h1m2 0h1m2 0h2M6 82.5h3m1 0h6m1 0h1m3 0h2m2 0h1m1 0h3m1 0h1m1 0h2m2 0h1m1 0h4m1 0h1m1 0h5m1 0h1m1 0h6m1 0h1m1 0h1m2 0h1m1 0h1m1 0h2m2 0h2m4 0h9m2 0h4m1 0h4M6 83.5h1m2 0h1m1 0h1m1 0h1m3 0h2m1 0h2m1 0h2m1 0h2m1 0h2m4 0h1m1 0h3m3 0h3m3 0h1m2 0h2m2 0h4m6 0h1m1 0h1m4 0h1m1 0h4m2 0h1m1 0h3m1 0h1m1 0h1m5 0h1m2 0h1m1 0h3M4 84.5h2m1 0h1m1 0h5m4 0h1m1 0h3m2 0h2m4 0h2m1 0h3m1 0h1m1 0h3m3 0h3m3 0h1m1 0h3m4 0h2m3 0h1m3 0h1m1 0h2m1 0h2m1 0h3m4 0h2m1 0h1m2 0h1m3 0h1m1 0h2m1 0h1m1 0h2M4 85.5h1m1 0h2m1 0h1m1 0h1m1 0h3m4 0h8m3 0h1m3 0h1m2 0h2m1 0h2m1 0h1m1 0h2m6 0h1m4 0h4m3 0h1m1 0h4m1 0h1m1 0h7m1 0h4m1 0h2m2 0h5m1 0h2M6 86.5h2m1 0h4m6 0h1m5 0h1m2 0h4m2 0h1m3 0h3m1 0h1m1 0h1m1 0h1m1 0h4m1 0h5m3 0h2m1 0h3m1 0h1m1 0h1m1 0h1m1 0h3m1 0h1m1 0h1m5 0h1m2 0h1m2 0h1m1 0h1m2 0h1m2 0h2M4 87.5h3m5 0h2m7 0h1m3 0h7m1 0h1m2 0h3m1 0h1m4 0h1m1 0h4m1 0h5m3 0h3m1 0h1m2 0h2m1 0h1m4 0h2m1 0h1m1 0h2m2 0h1m1 0h1m1 0h3m1 0h1m1 0h2m4 0h1m1 0h1M4 88.5h1m3 0h4m1 0h2m2 0h1m1 0h2m1 0h1m1 0h3m2 0h1m3 0h1m2 0h1m1 0h1m2 0h4m2 0h2m4 0h4m5 0h2m2 0h2m2 0h2m1 0h1m1 0h1m4 0h1m1 0h2m4 0h1m1 0h3m3 0h2m1 0h1m1 0h2M8 89.5h1m2 0h1m2 0h1m4 0h1m2 0h4m1 0h1m1 0h2m1 0h1m1 0h2m4 0h2m4 0h5m2 0h1m1 0h1m5 0h6m2 0h3m1 0h3m1 0h2m3 0h3m1 0h3m1 0h2m1 0h2m1 0h3m1 0h2m1 0h1M4 90.5h1m1 0h3m1 0h5m5 0h2m1 0h3m1 0h3m1 0h1m2 0h3m1 0h1m4 0h2m1 0h2m1 0h1m2 0h2m3 0h1m3 0h1m5 0h1m1 0h1m1 0h2m5 0h2m4 0h2m1 0h1m1 0h6m1 0h2m3 0h2m1 0h1M4 91.5h1m1 0h4m2 0h1m4 0h2m1 0h1m2 0h1m1 0h2m1 0h1m3 0h1m1 0h3m1 0h3m8 0h1m1 0h1m2 0h5m2 0h1m3 0h2m1 0h2m2 0h2m2 0h1m2 0h2m1 0h3m1 0h4m6 0h3m2 0h1m2 0h1M4 92.5h1m1 0h1m3 0h1m1 0h1m1 0h1m1 0h2m2 0h3m3 0h1m1 0h1m1 0h1m2 0h1m2 0h1m3 0h1m1 0h1m3 0h3m1 0h2m2 0h1m2 0h2m2 0h1m3 0h5m2 0h1m1 0h1m2 0h2m3 0h5m1 0h2m1 0h1m1 0h2m2 0h1M4 93.5h1m1 0h1m1 0h1m2 0h1m2 0h1m3 0h2m1 0h1m1 0h1m1 0h2m1 0h1m1 0h1m1 0h2m1 0h5m4 0h2m2 0h2m1 0h2m1 0h4m2 0h5m2 0h2m2 0h4m5 0h1m1 0h2m3 0h2m1 0h4m1 0h3m1 0h1m2 0h1M4 94.5h1m2 0h2m1 0h3m1 0h1m1 0h3m5 0h3m3 0h1m2 0h3m1 0h6m1 0h3m6 0h7m4 0h3m2 0h1m1 0h3m1 0h1m1 0h1m5 0h1m2 0h1m1 0h3m1 0h2m1 0h1m1 0h4m1 0h1m1 0h1M4 95.5h1m1 0h2m1 0h1m1 0h4m1 0h1m4 0h1m6 0h1m1 0h2m1 0h1m1 0h4m6 0h1m1 0h2m2 0h1m1 0h1m2 0h1m1 0h1m2 0h4m3 0h1m4 0h2m1 0h1m1 0h1m2 0h3m3 0h3m1 0h3m2 0h1m1 0h7M8 96.5h1m1 0h1m1 0h3m1 0h1m1 0h1m1 0h3m2 0h4m1 0h6m1 0h1m1 0h1m1 0h9m2 0h7m1 0h1m1 0h1m2 0h3m3 0h1m2 0h6m1 0h2m3 0h1m1 0h1m5 0h1m1 0h5m2 0h1M12 97.5h3m2 0h4m1 0h1m2 0h2m3 0h1m3 0h3m1 0h1m1 0h1m1 0h1m1 0h1m1 0h2m1 0h2m1 0h1m3 0h1m1 0h3m1 0h1m3 0h2m1 0h1m2 0h1m1 0h1m3 0h5m2 0h3m3 0h2m1 0h1m1 0h1m3 0h2M4 98.5h7m2 0h3m2 0h1m1 0h3m1 0h1m1 0h2m1 0h2m1 0h1m1 0h4m1 0h2m1 0h2m2 0h2m2 0h3m1 0h1m1 0h1m1 0h2m3 0h1m1 0h1m1 0h2m1 0h2m1 0h2m1 0h1m1 0h1m1 0h1m2 0h3m2 0h2m3 0h1m2 0h1m1 0h1m1 0h2M4 99.5h1m5 0h1m2 0h2m3 0h1m2 0h1m6 0h1m1 0h1m3 0h1m2 0h5m1 0h1m1 0h2m3 0h1m1 0h1m3 0h2m2 0h1m3 0h1m1 0h2m2 0h2m1 0h2m3 0h3m1 0h3m2 0h2m1 0h7m3 0h2M4 100.5h1m1 0h3m1 0h1m1 0h2m5 0h2m1 0h1m5 0h1m1 0h6m1 0h1m2 0h5m5 0h9m5 0h2m1 0h3m1 0h1m1 0h7m4 0h2m2 0h1m7 0h8M4 101.5h1m1 0h3m1 0h1m1 0h1m1 0h1m2 0h1m1 0h3m1 0h1m2 0h1m2 0h1m4 0h1m1 0h1m2 0h1m2 0h2m3 0h2m6 0h7m1 0h1m2 0h2m2 0h1m2 0h6m1 0h2m1 0h1m3 0h1m1 0h2m4 0h2m3 0h1M4 102.5h1m1 0h3m1 0h1m3 0h1m2 0h1m1 0h1m2 0h1m4 0h1m2 0h1m4 0h2m1 0h1m1 0h1m1 0h4m4 0h2m7 0h3m1 0h6m1 0h1m1 0h1m1 0h1m1 0h1m2 0h1m1 0h5m1 0h1m1 0h1m1 0h1m1 0h2m1 0h1m1 0h1m1 0h2m1 0h2M4 103.5h1m5 0h1m1 0h3m1 0h1m2 0h3m1 0h2m1 0h2m1 0h1m3 0h4m1 0h1m1 0h3m1 0h8m7 0h1m2 0h3m3 0h3m1 0h1m1 0h7m8 0h8m2 0h1m2 0h1m1 0h1M4 104.5h7m1 0h2m2 0h1m1 0h1m4 0h5m1 0h3m1 0h4m1 0h4m2 0h1m1 0h5m1 0h2m4 0h1m2 0h1m1 0h2m1 0h1m1 0h2m3 0h1m2 0h4m1 0h1m2 0h3m1 0h1m2 0h2m5 0h3m1 0h1"/></svg>
