<svg xmlns="http://www.w3.org/2000/svg" viewBox="0 0 113 113" shape-rendering="crispEdges"><path fill="#ffffff" d="M0 0h113v113H0z"/><path stroke="#000000" d="M4 4.5h7m1 0h2m1 0h2m1 0h1m1 0h2m2 0h1m1 0h2m2 0h1m3 0h1m1 0h3m1 0h1m2 0h3m2 0h2m2 0h3m3 0h1m2 0h1m3 0h1m4 0h2m2 0h2m4 0h4m1 0h7m2 0h5m3 0h7M4 5.5h1m5 0h1m1 0h3m2 0h2m1 0h1m1 0h1m2 0h2m2 0h2m1 0h1m2 0h2m2 0h3m1 0h1m1 0h4m2 0h2m1 0h2m1 0h2m1 0h1m1 0h2m1 0h2m1 0h2m1 0h4m1 0h1m1 0h1m2 0h1m2 0h4m4 0h2m1 0h2m1 0h1m3 0h1m5 0h1M4 6.5h1m1 0h3m1 0h1m1 0h2m1 0h2m5 0h1m2 0h4m2 0h1m1 0h5m3 0h1m1 0h3m1 0h1m2 0h2m1 0h1m2 0h1m1 0h1m2 0h1m1 0h3m2 0h1m4 0h6m2 0h3m2 0h1m1 0h1m1 0h1m1 0h2m1 0h5m2 0h1m1 0h3m1 0h1M4 7.5h1m1 0h3m1 0h1m1 0h4m4 0h1m1 0h1m1 0h1m2 0h1m2 0h3m3 0h1m2 0h2m1 0h1m3 0h2m1 0h3m3 0h2m2 0h1m1 0h1m1 0h1m1 0h6m1 0h2m2 0h2m1 0h2m2 0h1m3 0h1m1 0h1m3 0h1m1 0h1m1 0h1m2 0h1m1 0h1m1 0h3m1 0h1M4 8.5h1m1 0h3m1 0h1m5 0h1m4 0h3m2 0h9m3 0h4m2 0h1m1 0h3m1 0h12m8 0h1m1 0h1m3 0h5m3 0h1m2 0h1m2 0h5m2 0h1m1 0h2m1 0h1m1 0h3m1 0h1M4 9.5h1m5 0h1m1 0h1m1 0h1m5 0h1m2 0h2m1 0h1m1 0h1m3 0h5m3 0h3m1 0h3m1 0h1m2 0h2m3 0h5m1 0h1m1 0h1m1 0h1m3 0h4m1 0h2m3 0h3m1 0h2m2 0h1m2 0h3m2 0h1m2 0h1m2 0h1m5 0h1M4 10.5h7m1 0h1m1 0h1m1 0h1m1 0h1m1 0h1m1 0h1m1 0h1m1 0h1m1 0h1m1 0h1m1 0h1m1 0h1m1 0h1m1 0h1m1 0h1m1 0h1m1 0h1m1 0h1m1 0h1m1 0h1m1 0h1m1 0h1m1 0h1m1 0h1m1 0h1m1 0h1m1 0h1m1 0h1m1 0h1m1 0h1m1 0h1m1 0h1m1 0h1m1 0h1m1 0h1m1 0h1m1 0h1m1 0h1m1 0h1m1 0h1m1 0h1m1 0h1m1 0h1m1 0h1m1 0h1m1 0h7M14 11.5h1m4 0h3m1 0h3m2 0h1m3 0h1m1 0h2m2 0h2m1 0h1m1 0h1m1 0h1m4 0h1m1 0h1m3 0h4m1 0h1m6 0h5m3 0h1m3 0h1m2 0h1m2 0h6m1 0h1m2 0h2M4 12.5h2m2 0h3m3 0h3m1 0h2m1 0h1m1 0h1m1 0h1m2 0h6m2 0h1m1 0h1m7 0h1m1 0h1m1 0h1m1 0h5m1 0h1m2 0h2m1 0h1m1 0h1m2 0h1m2 0h1m3 0h5m1 0h2m1 0h4m2 0h2m10 0h1m1 0h4M4 13.5h3m4 0h3m2 0h1m7 0h1m1 0h1m1 0h1m1 0h1m5 0h1m2 0h2m1 0h2m1 0h2m1 0h1m1 0h2m3 0h1m1 0h2m2 0h1m1 0h2m3 0h1m2 0h1m1 0h5m1 0h1m1 0h1m1 0h1m1 0h3m4 0h1m1 0h3m2 0h1m3 0h3m1 0h2M4 14.5h1m4 0h4m2 0h1m3 0h1m3 0h3m6 0h1m4 0h1m1 0h1m4 0h2m2 0h1m2 0h3m1 0h8m2 0h3m2 0h1m1 0h1m1 0h1m4 0h2m3 0h3m2 0h1m1 0h1m1 0h5m1 0h1m1 0h1m1 0h2m2 0h1M4 15.5h1m2 0h2m4 0h5m4 0h2m1 0h3m1 0h1m1 0h3m2 0h1m1 0h1m1 0h3m6 0h1m1 0h1m5 0h1m3 0h3m2 0h1m1 0h2m1 0h4m1 0h1m1 0h4m1 0h2m2 0h3m1 0h1m1 0h3m1 0h1m2 0h1m1 0h2m1 0h1M4 16.5h3m2 0h2m1 0h1m1 0h1m1 0h1m2 0h2m3 0h1m3 0h2m1 0h1m5 0h2m2 0h1m3 0h1m1 0h1m1 0h4m3 0h1m1 0h2m1 0h1m1 0h3m1 0h1m1 0h2m2 0h5m2 0h1m1 0h5m1 0h2m4 0h5m5 0h2m2 0h1M4 17.5h2m1 0h3m1 0h1m2 0h1m5 0h1m1 0h1m3 0h1m3 0h1m3 0h1m1 0h1m2 0h1m3 0h1m1 0h1m1 0h1m3 0h1m3 0h2m3 0h1m3 0h2m2 0h1m5 0h3m2 0h3m2 0h8m3 0h1m1 0h1m1 0h4m2 0h1m2 0h1M5 18.5h1m4 0h1m2 0h5m6 0h1m2 0h1m3 0h2m1 0h1m3 0h1m1 0h1m1 0h1m1 0h4m2 0h2m2 0h3m6 0h3m1 0h3m4 0h1m2 0h1m3 0h2m1 0h4m10 0h2m2 0h2m1 0h2m1 0h1M4 19.5h2m1 0h3m3 0h1m1 0h1m2 0h2m4 0h2m2 0h1m1 0h2m4 0h6m2 0h4m1 0h2m2 0h1m1 0h1m1 0h2m1 0h2m1 0h2m1 0h4m3 0h1m5 0h3m1 0h4m2 0h4m3 0h1m1 0h1m3 0h2m2 0h2M4 20.5h3m3 0h1m2 0h1m2 0h1m3 0h2m2 0h1m1 0h3m5 0h3m1 0h1m2 0h2m1 0h5m1 0h1m1 0h1m1 0h3m1 0h5m4 0h2m3 0h1m1 0h6m3 0h3m1 0h1m1 0h1m3 0h1m1 0h1m2 0h1m1 0h1m7 0h1M6 21.5h4m2 0h2m3 0h2m2 0h2m2 0h1m1 0h3m2 0h3m1 0h1m2 0h2m1 0h1m6 0h2m1 0h2m1 0h1m1 0h2m2 0h2m1 0h2m2 0h1m3 0h2m1 0h1m2 0h1m5 0h2m2 0h1m2 0h1m1 0h1m1 0h3m1 0h1m2 0h3m3 0h1M8 22.5h6m2 0h5m1 0h1m1 0h1m2 0h2m1 0h2m1 0h1m2 0h2m1 0h2m2 0h2m1 0h1m7 0h1m3 0h1m2 0h6m1 0h5m3 0h2m2 0h1m3 0h1m1 0h3m1 0h1m1 0h1m1 0h5m2 0h8M8 23.5h1m2 0h1m1 0h1m1 0h2m3 0h1m1 0h1m1 0h1m1 0h3m1 0h3m1 0h1m2 0h1m1 0h3m3 0h1m2 0h3m3 0h4m1 0h3m2 0h1m2 0h2m3 0h2m1 0h1m1 0h3m6 0h1m2 0h2m3 0h1m3 0h4m1 0h1m2 0h1M6 24.5h3m1 0h3m2 0h4m4 0h2m3 0h1m2 0h2m1 0h2m1 0h3m4 0h7m3 0h1m2 0h3m4 0h1m1 0h2m2 0h2m2 0h1m5 0h5m1 0h1m1 0h2m5 0h3m1 0h1m1 0h1m3 0h4M4 25.5h1m1 0h1m1 0h2m3 0h2m1 0h1m3 0h2m1 0h1m1 0h1m2 0h1m1 0h1m1 0h2m2 0h1m2 0h2m2 0h7m1 0h1m2 0h1m7 0h5m3 0h1m1 0h9m1 0h1m1 0h3m1 0h1m3 0h3m4 0h1m1 0h1m1 0h2m1 0h1m1 0h1M5 26.5h1m1 0h1m1 0h4m5 0h2m1 0h3m1 0h2m1 0h1m1 0h1m3 0h1m1 0h4m1 0h7m1 0h1m2 0h6m2 0h2m3 0h2m4 0h5m2 0h1m1 0h2m3 0h2m2 0h1m1 0h1m1 0h2m3 0h3m1 0h3m1 0h1m1 0h1M5 27.5h2m1 0h2m5 0h3m2 0h3m3 0h1m1 0h1m1 0h4m4 0h1m1 0h4m2 0h2m1 0h2m2 0h1m1 0h4m1 0h1m2 0h1m3 0h3m1 0h4m1 0h1m1 0h1m1 0h1m1 0h2m1 0h2m7 0h1m2 0h2m3 0h1m4 0h2M5 28.5h1m1 0h6m5 0h1m1 0h1m1 0h2m1 0h1m2 0h5m2 0h1m3 0h3m1 0h3m5 0h7m2 0h4m1 0h2m2 0h5m2 0h6m1 0h1m2 0h1m1 0h4m4 0h1m2 0h6m3 0h1M5 29.5h1m2 0h1m3 0h2m3 0h4m1 0h5m1 0h1m3 0h4m1 0h1m1 0h4m3 0h4m1 0h2m3 0h1m1 0h2m2 0h1m1 0h1m1 0h2m1 0h1m1 0h1m2 0h3m3 0h2m3 0h1m3 0h1m2 0h3m1 0h2m2 0h1m3 0h1m1 0h1m1 0h1M4 30.5h1m3 0h1m1 0h1m1 0h1m1 0h3m1 0h1m2 0h1m4 0h1m1 0h1m1 0h1m1 0h2m2 0h3m1 0h2m2 0h3m3 0h1m1 0h1m1 0h1m1 0h3m1 0h1m2 0h9m1 0h4m1 0h1m1 0h4m2 0h5m1 0h1m1 0h1m1 0h3m1 0h1m1 0h1m1 0h3m1 0h1M7 31.5h2m3 0h1m2 0h1m1 0h1m7 0h2m1 0h1m3 0h4m2 0h2m1 0h1m2 0h1m1 0h3m1 0h1m1 0h1m3 0h4m1 0h4m2 0h1m2 0h1m5 0h1m3 0h1m1 0h2m1 0h2m3 0h2m3 0h1m2 0h1m1 0h1m3 0h1m2 0h1M5 32.5h11m1 0h2m1 0h3m1 0h1m2 0h11m1 0h1m1 0h2m2 0h3m4 0h5m4 0h1m1 0h1m1 0h2m2 0h2m1 0h1m1 0h8m1 0h7m3 0h3m1 0h1m1 0h6m2 0h2M5 33.5h2m4 0h3m2 0h2m1 0h1m2 0h2m1 0h1m1 0h4m1 0h2m1 0h1m3 0h2m2 0h4m3 0h1m6 0h2m1 0h2m2 0h2m1 0h2m1 0h5m1 0h1m1 0h6m2 0h5m1 0h1m1 0h2m1 0h1m4 0h3M4 34.5h1m1 0h2m2 0h1m1 0h2m2 0h2m1 0h1m2 0h2m1 0h2m2 0h2m2 0h1m1 0h1m7 0h1m1 0h1m1 0h3m1 0h3m1 0h2m1 0h2m2 0h1m1 0h1m1 0h4m1 0h1m1 0h3m8 0h1m1 0h1m3 0h2m7 0h1m2 0h1m3 0h2M5 35.5h3m4 0h1m2 0h1m2 0h1m1 0h1m1 0h2m2 0h5m3 0h3m4 0h3m1 0h1m2 0h3m2 0h1m8 0h1m2 0h1m1 0h1m4 0h2m1 0h4m4 0h2m3 0h1m11 0h5m1 0h2M4 36.5h7m2 0h1m1 0h6m3 0h1m3 0h1m1 0h2m2 0h1m1 0h1m1 0h5m2 0h1m3 0h1m1 0h4m1 0h2m4 0h1m2 0h1m1 0h2m2 0h1m4 0h2m8 0h1m1 0h2m1 0h1m2 0h4m2 0h3m1 0h4M4 37.5h2m2 0h2m2 0h1m1 0h1m1 0h1m3 0h4m1 0h1m3 0h3m1 0h2m1 0h1m4 0h2m2 0h2m1 0h3m1 0h1m1 0h1m1 0h1m3 0h1m1 0h3m1 0h1m3 0h1m1 0h2m1 0h1m1 0h3m2 0h4m1 0h1m1 0h1m3 0h1m1 0h2m2 0h1m1 0h1m1 0h1m2 0h1m1 0h1M4 38.5h1m1 0h2m1 0h2m1 0h1m1 0h1m1 0h2m2 0h2m1 0h2m1 0h2m1 0h1m1 0h1m1 0h1m1 0h2m4 0h3m3 0h1m2 0h1m4 0h2m1 0h3m3 0h2m1 0h1m1 0h1m1 0h4m3 0h2m4 0h1m2 0h2m1 0h1m1 0h1m5 0h1m8 0h2M8 39.5h2m1 0h2m2 0h1m2 0h1m3 0h2m3 0h1m2 0h2m4 0h1m2 0h2m1 0h4m3 0h1m2 0h1m4 0h1m3 0h4m2 0h2m1 0h1m1 0h4m2 0h1m3 0h1m1 0h4m2 0h2m2 0h1m1 0h4m1 0h4m1 0h1m1 0h1M5 40.5h1m1 0h1m1 0h2m3 0h2m2 0h1m3 0h1m1 0h4m1 0h1m1 0h1m2 0h1m2 0h8m2 0h1m1 0h2m1 0h3m3 0h3m1 0h2m2 0h1m4 0h1m3 0h1m1 0h1m5 0h2m1 0h1m2 0h2m2 0h1m2 0h1m1 0h2m1 0h2m3 0h1m1 0h1M4 41.5h1m2 0h1m3 0h1m1 0h2m1 0h1m1 0h2m1 0h2m1 0h2m1 0h2m4 0h1m1 0h2m5 0h2m2 0h1m3 0h2m1 0h3m1 0h3m2 0h1m1 0h1m3 0h2m2 0h2m1 0h1m3 0h2m2 0h3m2 0h1m1 0h3m1 0h4m2 0h2m1 0h2m2 0h1M4 42.5h2m3 0h2m1 0h2m3 0h1m1 0h1m8 0h1m1 0h1m2 0h3m1 0h12m4 0h1m2 0h2m3 0h2m1 0h1m1 0h1m3 0h5m1 0h1m1 0h2m2 0h1m1 0h1m1 0h1m1 0h1m1 0h2m1 0h2m4 0h6m2 0h1M8 43.5h1m2 0h2m1 0h1m7 0h6m1 0h3m7 0h1m2 0h1m1 0h1m2 0h6m4 0h5m1 0h1m2 0h3m1 0h1m3 0h2m1 0h2m3 0h1m4 0h3m3 0h1m2 0h2m1 0h8M5 44.5h1m1 0h1m2 0h2m1 0h2m1 0h1m1 0h1m1 0h1m2 0h1m5 0h2m5 0h1m3 0h2m1 0h1m4 0h2m1 0h2m1 0h1m1 0h4m4 0h1m1 0h1m1 0h1m1 0h1m1 0h1m4 0h3m1 0h5m1 0h1m1 0h3m2 0h3m6 0h1m1 0h4M4 45.5h2m1 0h1m1 0h1m1 0h1m1 0h4m1 0h2m8 0h1m1 0h1m3 0h8m1 0h2m1 0h4m1 0h1m3 0h2m5 0h1m1 0h1m3 0h2m2 0h2m2 0h1m1 0h2m1 0h3m2 0h1m1 0h1m1 0h1m1 0h5m2 0h1m1 0h2m5 0h1M4 46.5h1m1 0h1m3 0h2m3 0h6m1 0h1m1 0h1m2 0h1m3 0h1m1 0h1m1 0h1m1 0h2m6 0h2m3 0h1m1 0h2m2 0h2m1 0h1m2 0h1m1 0h4m1 0h7m2 0h3m3 0h2m1 0h1m1 0h1m2 0h1m4 0h1m1 0h1m2 0h2m2 0h1M5 47.5h1m5 0h1m1 0h2m3 0h2m2 0h1m1 0h1m2 0h1m2 0h1m1 0h1m1 0h4m1 0h2m3 0h3m1 0h1m1 0h2m1 0h1m2 0h1m2 0h1m1 0h1m1 0h2m2 0h1m2 0h3m2 0h1m3 0h2m2 0h5m2 0h1m3 0h1m2 0h5m2 0h1m1 0h1m1 0h1M5 48.5h11m2 0h3m6 0h1m2 0h1m2 0h2m3 0h3m4 0h1m3 0h2m1 0h3m2 0h2m3 0h1m1 0h4m2 0h3m1 0h6m2 0h3m1 0h1m1 0h1m1 0h1m5 0h1m2 0h1m1 0h4m1 0h2M4 49.5h6m2 0h4m1 0h1m2 0h1m1 0h1m1 0h1m1 0h3m2 0h2m2 0h1m1 0h3m1 0h2m1 0h1m2 0h2m1 0h2m2 0h2m2 0h1m3 0h1m2 0h3m1 0h2m3 0h2m4 0h1m2 0h2m1 0h2m2 0h1m1 0h1m1 0h1m1 0h2m1 0h2m1 0h1m2 0h4M4 50.5h2m1 0h6m1 0h1m1 0h1m2 0h3m1 0h1m2 0h1m1 0h3m1 0h1m1 0h1m2 0h2m3 0h1m1 0h1m1 0h5m1 0h2m1 0h4m1 0h4m1 0h1m1 0h3m3 0h1m1 0h1m2 0h2m1 0h1m2 0h1m3 0h2m1 0h4m4 0h1m3 0h1m2 0h2M4 51.5h2m1 0h3m1 0h1m1 0h2m1 0h2m1 0h1m1 0h7m1 0h1m2 0h1m1 0h6m2 0h2m1 0h1m1 0h4m1 0h2m1 0h1m2 0h5m1 0h1m8 0h3m1 0h1m2 0h2m1 0h1m1 0h1m6 0h1m8 0h1m1 0h2M4 52.5h9m1 0h1m5 0h1m1 0h1m1 0h1m3 0h5m1 0h4m1 0h4m2 0h1m1 0h2m1 0h8m1 0h3m3 0h2m5 0h9m1 0h1m1 0h1m3 0h2m1 0h1m3 0h1m1 0h1m1 0h6m3 0h1M7 53.5h2m3 0h1m1 0h2m4 0h1m2 0h1m3 0h2m3 0h2m1 0h4m1 0h4m1 0h1m1 0h2m1 0h1m1 0h1m3 0h2m1 0h2m1 0h2m1 0h1m3 0h1m1 0h1m1 0h1m1 0h2m3 0h1m1 0h1m10 0h1m1 0h1m4 0h1m3 0h5M4 54.5h1m1 0h3m1 0h1m1 0h1m5 0h1m1 0h2m6 0h1m1 0h1m1 0h1m1 0h2m2 0h2m5 0h1m1 0h6m1 0h1m1 0h1m6 0h2m1 0h1m2 0h1m2 0h2m2 0h1m1 0h1m1 0h1m1 0h2m2 0h1m1 0h2m1 0h2m2 0h4m1 0h1m1 0h1m1 0h1m1 0h1m1 0h1M4 55.5h1m3 0h1m3 0h3m2 0h1m3 0h2m2 0h1m1 0h2m3 0h1m2 0h1m3 0h1m1 0h1m2 0h5m3 0h1m3 0h2m3 0h2m1 0h1m2 0h2m1 0h1m1 0h1m3 0h1m3 0h2m2 0h2m1 0h4m1 0h1m4 0h1m2 0h1m3 0h1m3 0h1M4 56.5h2m2 0h6m1 0h1m1 0h1m1 0h1m1 0h6m1 0h5m1 0h1m1 0h1m1 0h1m5 0h7m1 0h6m4 0h1m2 0h2m1 0h2m3 0h2m1 0h6m2 0h1m2 0h1m3 0h1m3 0h4m1 0h6m2 0h1M4 57.5h4m1 0h1m2 0h2m1 0h2m1 0h3m1 0h2m8 0h1m1 0h1m1 0h6m2 0h1m2 0h1m1 0h6m1 0h1m1 0h1m2 0h1m1 0h1m2 0h2m2 0h2m1 0h1m2 0h1m2 0h4m1 0h1m3 0h1m2 0h1m4 0h1m3 0h1m3 0h4M7 58.5h1m1 0h2m2 0h3m1 0h1m1 0h2m4 0h2m3 0h1m2 0h3m1 0h3m1 0h2m1 0h1m4 0h1m1 0h1m2 0h1m1 0h5m1 0h2m3 0h4m2 0h2m1 0h1m1 0h3m1 0h1m4 0h2m2 0h2m3 0h8M4 59.5h2m1 0h1m1 0h1m1 0h2m5 0h2m2 0h1m1 0h1m1 0h2m2 0h2m6 0h2m3 0h2m1 0h1m3 0h1m1 0h5m1 0h1m2 0h1m2 0h2m4 0h3m1 0h1m3 0h2m4 0h4m3 0h3m1 0h1m10 0h1m1 0h1M4 60.5h1m1 0h1m1 0h1m1 0h1m1 0h2m2 0h2m3 0h1m1 0h1m4 0h1m6 0h4m1 0h1m1 0h2m3 0h4m2 0h3m1 0h3m1 0h4m3 0h1m1 0h2m1 0h1m4 0h1m1 0h1m2 0h3m2 0h3m1 0h1m4 0h1m1 0h1m2 0h2m2 0h1M6 61.5h2m4 0h2m1 0h1m1 0h2m3 0h1m1 0h1m1 0h7m2 0h1m3 0h1m1 0h2m3 0h9m4 0h2m5 0h3m1 0h1m1 0h3m1 0h1m1 0h1m1 0h2m2 0h1m4 0h2m1 0h1m1 0h1m1 0h1m1 0h1m1 0h1m2 0h2m3 0h1M7 62.5h1m2 0h2m1 0h5m1 0h1m1 0h6m3 0h2m1 0h5m3 0h1m2 0h4m1 0h4m1 0h1m1 0h3m1 0h1m7 0h2m1 0h4m1 0h1m2 0h2m2 0h1m4 0h2m1 0h4m1 0h2m5 0h3m1 0h1M8 63.5h1m2 0h5m1 0h3m1 0h5m1 0h3m3 0h2m5 0h2m2 0h3m1 0h1m5 0h5m1 0h3m4 0h5m1 0h1m1 0h7m1 0h1m1 0h1m2 0h3m1 0h1m1 0h4m1 0h1m3 0h2M5 64.5h3m1 0h2m1 0h7m1 0h1m1 0h2m1 0h1m5 0h2m1 0h1m1 0h4m3 0h3m2 0h2m1 0h1m1 0h1m1 0h1m1 0h1m6 0h4m1 0h5m5 0h1m2 0h2m2 0h1m2 0h1m1 0h2m1 0h3m1 0h3m3 0h1M4 65.5h1m4 0h1m1 0h2m1 0h3m1 0h4m1 0h2m6 0h1m1 0h2m3 0h1m2 0h2m1 0h1m2 0h2m1 0h1m2 0h1m1 0h1m1 0h1m2 0h2m1 0h1m1 0h1m2 0h4m3 0h1m2 0h2m1 0h2m1 0h3m2 0h3m3 0h3m1 0h2m2 0h1m2 0h2M4 66.5h3m1 0h1m1 0h1m1 0h1m1 0h2m3 0h2m1 0h2m2 0h1m4 0h2m3 0h1m4 0h2m1 0h4m1 0h3m3 0h2m1 0h7m4 0h2m2 0h1m1 0h1m1 0h1m2 0h3m2 0h3m2 0h3m5 0h2m3 0h3m2 0h1M6 67.5h3m3 0h1m5 0h6m1 0h1m1 0h1m1 0h3m1 0h1m1 0h1m1 0h9m5 0h4m1 0h2m2 0h1m1 0h1m2 0h1m2 0h1m1 0h5m1 0h1m2 0h1m1 0h2m1 0h2m6 0h3m1 0h3m2 0h1m1 0h1m1 0h4M7 68.5h2m1 0h4m1 0h2m2 0h1m1 0h1m1 0h2m2 0h3m1 0h1m3 0h1m4 0h2m6 0h4m1 0h3m8 0h6m1 0h1m2 0h1m3 0h1m1 0h3m3 0h3m4 0h2m1 0h3m1 0h4m2 0h1m1 0h1M4 69.5h1m2 0h2m2 0h1m1 0h4m2 0h6m2 0h3m2 0h1m2 0h1m2 0h2m2 0h1m1 0h2m1 0h5m2 0h1m2 0h2m2 0h1m3 0h2m2 0h1m5 0h2m2 0h1m1 0h1m3 0h3m2 0h2m1 0h3m3 0h3m1 0h6M6 70.5h3m1 0h1m2 0h4m2 0h3m2 0h2m1 0h2m1 0h1m3 0h5m1 0h1m3 0h3m2 0h5m2 0h1m1 0h1m2 0h1m4 0h1m1 0h1m2 0h1m3 0h2m3 0h1m4 0h5m1 0h1m6 0h2m1 0h2m2 0h1M7 71.5h2m3 0h2m1 0h2m1 0h2m1 0h2m2 0h3m1 0h1m1 0h1m3 0h3m1 0h1m3 0h2m3 0h3m1 0h1m1 0h2m1 0h1m1 0h1m1 0h1m1 0h1m1 0h2m2 0h1m1 0h2m1 0h4m3 0h1m1 0h1m1 0h1m2 0h1m1 0h1m2 0h1m1 0h1m1 0h1m3 0h3M4 72.5h3m1 0h1m1 0h5m1 0h2m2 0h1m3 0h2m5 0h1m1 0h1m1 0h1m3 0h1m4 0h1m1 0h1m1 0h1m2 0h3m2 0h1m1 0h1m4 0h1m1 0h3m1 0h3m4 0h1m1 0h1m1 0h4m1 0h1m3 0h2m5 0h3m3 0h1m2 0h4M4 73.5h1m3 0h1m2 0h1m5 0h2m2 0h3m5 0h1m1 0h1m4 0h1m4 0h1m1 0h1m1 0h1m1 0h1m3 0h1m1 0h1m2 0h3m7 0h9m2 0h2m3 0h4m1 0h6m1 0h3m1 0h1m1 0h2m2 0h1M4 74.5h2m2 0h4m1 0h3m2 0h2m2 0h2m1 0h2m2 0h3m2 0h3m1 0h1m3 0h1m1 0h3m2 0h3m1 0h1m2 0h2m2 0h2m1 0h1m1 0h1m1 0h1m1 0h2m3 0h3m3 0h1m3 0h4m1 0h3m2 0h1m1 0h2m1 0h3m1 0h1m1 0h1m2 0h1M5 75.5h1m3 0h1m1 0h1m1 0h2m1 0h2m1 0h1m1 0h2m4 0h3m1 0h3m5 0h1m3 0h3m1 0h2m2 0h2m1 0h1m4 0h1m1 0h3m7 0h1m1 0h1m1 0h6m1 0h1m1 0h6m2 0h2m2 0h1m1 0h3m1 0h1m1 0h2m1 0h2M5 76.5h2m1 0h5m1 0h1m1 0h1m1 0h1m6 0h1m2 0h6m1 0h3m1 0h1m4 0h2m1 0h2m2 0h7m2 0h1m2 0h3m2 0h7m1 0h6m2 0h2m4 0h6m1 0h1m1 0h7m1 0h2M4 77.5h1m2 0h2m3 0h1m1 0h1m3 0h2m1 0h3m2 0h3m3 0h2m1 0h3m1 0h2m1 0h1m1 0h2m1 0h1m1 0h1m2 0h1m3 0h2m1 0h1m3 0h1m1 0h1m2 0h1m5 0h1m1 0h1m3 0h1m1 0h2m3 0h1m1 0h1m1 0h1m1 0h1m1 0h3m1 0h2m3 0h5M5 78.5h4m1 0h1m1 0h1m5 0h1m2 0h1m6 0h1m1 0h1m1 0h3m3 0h2m4 0h1m1 0h1m2 0h2m1 0h1m1 0h1m1 0h2m1 0h1m7 0h2m1 0h3m2 0h2m1 0h1m1 0h4m1 0h2m1 0h2m1 0h2m5 0h3m1 0h1m1 0h2m1 0h1M5 79.5h1m1 0h2m3 0h3m3 0h1m1 0h3m1 0h5m3 0h5m3 0h2m1 0h1m6 0h1m1 0h1m3 0h1m1 0h1m2 0h2m1 0h1m1 0h1m1 0h4m1 0h4m3 0h1m2 0h2m2 0h1m1 0h5m3 0h4m3 0h1m1 0h1M4 80.5h2m2 0h8m2 0h2m2 0h1m1 0h10m1 0h1m2 0h2m1 0h2m1 0h1m1 0h1m1 0h2m1 0h6m1 0h1m1 0h2m1 0h1m2 0h1m1 0h1m2 0h1m1 0h1m2 0h5m2 0h1m6 0h1m3 0h3m1 0h1m1 0h5m2 0h1M4 81.5h1m2 0h1m4 0h2m1 0h2m1 0h2m4 0h2m2 0h3m6 0h2m2 0h3m4 0h3m2 0h1m2 0h5m3 0h2m1 0h1m4 0h1m1 0h1m3 0h1m1 0h4m1 0h3m3 0h1m1 0h3m1 0h1m1 0h2m1 0h3m1 0h2M6 82.5h1m1 0h1m1 0h1m1 0h1m2 0h1m1 0h1m4 0h1m1 0h1m1 0h2m5 0h2m2 0h2m2 0h5m2 0h3m2 0h1m2 0h6m3 0h1m9 0h4m1 0h1m2 0h1m3 0h2m2 0h1m1 0h1m1 0h1m1 0h1m2 0h1m2 0h3m1 0h1M8 83.5h2m2 0h1m1 0h1m1 0h1m1 0h3m2 0h1m1 0h1m4 0h2m1 0h1m1 0h1m1 0h2m2 0h2m2 0h1m1 0h2m1 0h1m1 0h1m1 0h1m1 0h2m1 0h2m1 0h2m3 0h4m1 0h1m6 0h6m1 0h2m1 0h1m1 0h1m1 0h3m1 0h1m2 0h1m2 0h1m1 0h1M4 84.5h1m1 0h1m2 0h2m2 0h6m3 0h1m1 0h1m1 0h1m2 0h1m1 0h5m2 0h1m3 0h1m3 0h3m1 0h1m1 0h1m1 0h2m2 0h1m1 0h1m3 0h6m2 0h3m2 0h1m1 0h1m3 0h1m1 0h1m2 0h1m1 0h1m1 0h2m1 0h2m2 0h2m2 0h1m3 0h2M5 85.5h3m3 0h2m4 0h2m1 0h1m2 0h1m1 0h4m2 0h2m2 0h2m2 0h1m1 0h2m2 0h5m3 0h5m5 0h2m1 0h1m4 0h1m3 0h2m1 0h3m1 0h2m3 0h6m3 0h1m3 0h1m3 0h5M7 86.5h2m1 0h1m3 0h1m1 0h2m3 0h1m1 0h1m2 0h1m1 0h1m1 0h2m1 0h3m1 0h1m1 0h1m1 0h2m2 0h1m2 0h2m1 0h1m5 0h4m1 0h1m3 0h1m1 0h1m1 0h1m1 0h3m1 0h2m2 0h2m2 0h1m2 0h1m1 0h1m3 0h2m2 0h2m7 0h2M5 87.5h4m5 0h1m1 0h3m2 0h2m1 0h2m11 0h1m2 0h5m2 0h1m3 0h4m2 0h1m2 0h2m1 0h1m1 0h5m1 0h1m4 0h1m2 0h2m4 0h1m1 0h2m3 0h2m1 0h1m1 0h1m3 0h2m1 0h3M7 88.5h1m1 0h3m2 0h2m2 0h3m1 0h1m1 0h1m2 0h1m2 0h1m2 0h1m1 0h1m2 0h1m2 0h1m1 0h2m3 0h1m1 0h2m1 0h1m3 0h1m1 0h8m1 0h7m3 0h1m1 0h1m2 0h1m1 0h2m2 0h1m2 0h3m1 0h1m7 0h1m1 0h1m1 0h1M6 89.5h1m1 0h1m3 0h1m1 0h1m3 0h2m2 0h2m5 0h5m2 0h1m1 0h2m1 0h3m1 0h2m4 0h1m9 0h1m2 0h1m2 0h1m3 0h1m1 0h1m1 0h1m1 0h2m1 0h1m1 0h3m1 0h1m3 0h1m1 0h1m1 0h4m1 0h2m4 0h2m1 0h1M5 90.5h1m3 0h3m1 0h4m3 0h1m1 0h2m4 0h2m2 0h2m2 0h2m2 0h1m1 0h1m2 0h2m1 0h2m1 0h1m3 0h1m1 0h1m1 0h2m1 0h1m3 0h1m1 0h4m1 0h5m1 0h4m2 0h1m2 0h3m3 0h2m3 0h1m1 0h1m1 0h1m1 0h1m1 0h2M7 91.5h2m3 0h1m3 0h3m1 0h5m2 0h1m2 0h4m5 0h2m1 0h1m2 0h2m1 0h2m1 0h2m1 0h2m2 0h1m5 0h9m2 0h1m4 0h2m2 0h1m2 0h1m1 0h3m1 0h1m6 0h1m6 0h1M4 92.5h4m1 0h2m4 0h1m1 0h1m1 0h1m1 0h5m1 0h4m2 0h1m4 0h1m2 0h2m6 0h1m2 0h1m1 0h1m1 0h3m2 0h1m1 0h1m3 0h4m1 0h2m3 0h2m4 0h1m2 0h2m5 0h2m1 0h2m4 0h2m1 0h1m2 0h1M4 93.5h2m3 0h1m2 0h1m2 0h4m1 0h1m1 0h1m4 0h1m1 0h2m5 0h1m1 0h1m3 0h2m1 0h5m1 0h1m1 0h1m1 0h2m3 0h3m1 0h2m2 0h1m2 0h1m1 0h1m1 0h3m2 0h2m1 0h7m2 0h1m2 0h1m2 0h1m1 0h1m1 0h1m2 0h4M6 94.5h5m2 0h1m4 0h3m3 0h1m1 0h7m1 0h1m4 0h2m2 0h4m1 0h1m1 0h2m1 0h1m4 0h6m1 0h2m1 0h3m1 0h2m3 0h1m2 0h1m2 0h2m11 0h1m4 0h1m2 0h2m2 0h1M4 95.5h1m2 0h1m5 0h3m6 0h3m2 0h1m3 0h3m7 0h1m3 0h2m1 0h2m2 0h1m1 0h4m4 0h1m4 0h2m6 0h3m2 0h1m4 0h4m8 0h4m1 0h1m4 0h1M4 96.5h2m2 0h1m1 0h2m1 0h1m1 0h1m2 0h4m3 0h1m1 0h1m1 0h1m4 0h1m3 0h2m1 0h2m1 0h1m2 0h1m2 0h1m1 0h1m2 0h1m1 0h3m2 0h2m3 0h1m2 0h2m1 0h1m1 0h5m2 0h1m4 0h1m2 0h1m1 0h1m1 0h1m1 0h4m3 0h4m1 0h1M4 97.5h4m1 0h1m3 0h1m2 0h3m2 0h2m1 0h1m1 0h1m1 0h1m1 0h6m2 0h1m1 0h1m1 0h3m5 0h2m3 0h5m1 0h1m1 0h2m1 0h1m2 0h5m2 0h1m1 0h1m2 0h1m1 0h2m3 0h1m1 0h1m4 0h1m1 0h1m2 0h1m1 0h2m2 0h1M4 98.5h3m3 0h2m3 0h2m1 0h1m2 0h3m2 0h2m3 0h2m1 0h1m2 0h2m2 0h3m2 0h4m1 0h1m1 0h2m1 0h3m2 0h1m1 0h4m1 0h1m1 0h1m2 0h1m5 0h4m3 0h2m1 0h1m2 0h1m1 0h2m2 0h1m1 0h1m2 0h2m1 0h1M6 99.5h1m1 0h2m2 0h1m2 0h2m2 0h2m1 0h4m4 0h1m2 0h1m3 0h2m1 0h1m2 0h1m1 0h1m2 0h1m1 0h2m1 0h1m2 0h1m5 0h1m2 0h1m6 0h1m2 0h4m1 0h1m1 0h1m1 0h1m1 0h3m2 0h2m1 0h4m1 0h1m3 0h1m1 0h1m2 0h1M7 100.5h2m1 0h1m1 0h2m1 0h2m3 0h1m2 0h2m3 0h6m1 0h1m5 0h4m1 0h1m2 0h8m3 0h3m1 0h2m1 0h3m2 0h1m3 0h5m1 0h6m5 0h2m1 0h1m1 0h1m1 0h6M12 101.5h1m3 0h4m4 0h1m1 0h1m1 0h1m3 0h3m1 0h2m4 0h1m1 0h6m2 0h1m3 0h1m3 0h1m1 0h2m1 0h1m4 0h2m4 0h1m3 0h1m1 0h2m1 0h3m1 0h1m4 0h1m2 0h1m1 0h2m3 0h1m2 0h1M4 102.5h7m2 0h3m2 0h2m1 0h1m5 0h2m1 0h1m1 0h1m2 0h4m2 0h1m1 0h1m1 0h2m3 0h3m1 0h1m1 0h1m2 0h1m5 0h1m2 0h2m1 0h1m1 0h1m1 0h2m1 0h1m1 0h4m2 0h1m2 0h1m1 0h4m1 0h2m2 0h1m1 0h1m1 0h5M4 103.5h1m5 0h1m1 0h1m1 0h4m1 0h2m3 0h5m3 0h2m4 0h3m3 0h2m1 0h3m1 0h2m3 0h1m4 0h3m2 0h1m1 0h3m3 0h1m1 0h1m3 0h1m2 0h1m2 0h1m1 0h1m1 0h3m2 0h1m2 0h1m1 0h1m3 0h1m1 0h3M4 104.5h1m1 0h3m1 0h1m1 0h2m1 0h2m2 0h2m2 0h1m1 0h2m1 0h8m1 0h5m3 0h1m1 0h1m1 0h2m1 0h5m2 0h1m2 0h1m1 0h2m3 0h1m2 0h1m1 0h1m1 0h7m2 0h4m1 0h1m4 0h4m1 0h6m2 0h1M4 105.5h1m1 0h3m1 0h1m2 0h5m2 0h1m1 0h8m5 0h1m1 0h2m1 0h2m1 0h1m5 0h4m3 0h1m2 0h1m1 0h1m1 0h1m4 0h1m2 0h4m3 0h1m1 0h1m1 0h8m3 0h3m1 0h6m3 0h3M4 106.5h1m1 0h3m1 0h1m2 0h1m1 0h1m1 0h1m2 0h3m1 0h5m1 0h1m1 0h1m4 0h1m2 0h3m1 0h1m3 0h4m2 0h3m1 0h1m4 0h1m1 0h1m1 0h2m4 0h1m4 0h4m1 0h2m1 0h1m3 0h1m1 0h1m2 0h3m2 0h3m2 0h2M4 107.5h1m5 0h1m1 0h3m1 0h3m2 0h1m1 0h1m1 0h1m1 0h1m2 0h4m1 0h1m2 0h4m1 0h2m1 0h1m1 0h1m1 0h3m1 0h1m5 0h3m2 0h1m2 0h1m2 0h1m2 0h3m1 0h2m1 0h2m3 0h2m1 0h1m1 0h2m1 0h1m2 0h1m1 0h8M4 108.5h7m1 0h1m1 0h1m3 0h1m1 0h1m3 0h1m3 0h4m2 0h1m1 0h6m1 0h1m1 0h1m3 0h2m1 0h2m2 0h2m2 0h2m1 0h1m1 0h3m2 0h1m1 0h1m1 0h5m1 0h6m2 0h1m1 0h4m2 0h1m5 0h5m1 0h1"/></svg>
