<svg xmlns="http://www.w3.org/2000/svg" viewBox="0 0 109 109" shape-rendering="crispEdges"><path fill="#ffffff" d="M0 0h109v109H0z"/><path stroke="#000000" d="M4 4.5h7m2 0h4m2 0h1m2 0h7m2 0h5m1 0h5m1 0h2m1 0h1m1 0h1m4 0h5m2 0h2m1 0h1m2 0h1m1 0h1m1 0h1m1 0h1m1 0h2m2 0h4m1 0h1m1 0h3m1 0h1m1 0h1m2 0h2m2 0h7M4 5.5h1m5 0h1m1 0h2m3 0h1m1 0h2m2 0h1m1 0h3m3 0h1m2 0h1m1 0h2m2 0h1m1 0h4m2 0h3m3 0h4m2 0h1m3 0h1m1 0h1m3 0h1m2 0h2m5 0h3m3 0h1m4 0h2m5 0h1m5 0h1M4 6.5h1m1 0h3m1 0h1m1 0h1m1 0h1m2 0h2m2 0h5m1 0h1m2 0h1m1 0h4m3 0h3m1 0h2m2 0h1m1 0h5m1 0h1m3 0h5m7 0h1m3 0h4m1 0h1m2 0h1m1 0h1m2 0h2m1 0h2m2 0h1m2 0h1m1 0h3m1 0h1M4 7.5h1m1 0h3m1 0h1m2 0h1m2 0h2m1 0h1m1 0h1m1 0h1m2 0h2m3 0h1m1 0h1m1 0h1m2 0h1m3 0h2m1 0h3m4 0h2m1 0h1m1 0h3m1 0h1m1 0h1m4 0h1m2 0h5m5 0h1m1 0h2m3 0h4m1 0h3m2 0h1m1 0h3m1 0h1M4 8.5h1m1 0h3m1 0h1m1 0h1m1 0h7m1 0h1m1 0h1m1 0h1m3 0h6m1 0h1m1 0h1m2 0h2m1 0h3m2 0h1m1 0h5m1 0h1m1 0h2m1 0h1m1 0h3m3 0h1m1 0h6m2 0h1m3 0h2m1 0h2m2 0h3m1 0h1m1 0h1m1 0h3m1 0h1M4 9.5h1m5 0h1m1 0h2m1 0h3m2 0h2m2 0h2m4 0h1m3 0h4m1 0h4m2 0h1m1 0h3m2 0h1m3 0h1m2 0h2m1 0h1m4 0h2m2 0h2m1 0h1m3 0h1m1 0h1m1 0h7m1 0h4m1 0h1m2 0h1m5 0h1M4 10.5h7m1 0h1m1 0h1m1 0h1m1 0h1m1 0h1m1 0h1m1 0h1m1 0h1m1 0h1m1 0h1m1 0h1m1 0h1m1 0h1m1 0h1m1 0h1m1 0h1m1 0h1m1 0h1m1 0h1m1 0h1m1 0h1m1 0h1m1 0h1m1 0h1m1 0h1m1 0h1m1 0h1m1 0h1m1 0h1m1 0h1m1 0h1m1 0h1m1 0h1m1 0h1m1 0h1m1 0h1m1 0h1m1 0h1m1 0h1m1 0h1m1 0h1m1 0h1m1 0h1m1 0h7M12 11.5h1m2 0h1m1 0h2m1 0h1m7 0h3m3 0h3m2 0h3m1 0h1m1 0h2m4 0h2m3 0h2m2 0h2m1 0h2m3 0h2m3 0h2m3 0h2m3 0h1m2 0h3m3 0h2m2 0h1M4 12.5h2m1 0h1m2 0h2m1 0h1m1 0h2m2 0h3m4 0h3m1 0h6m2 0h6m2 0h4m2 0h6m3 0h1m1 0h1m3 0h2m2 0h1m1 0h6m1 0h1m1 0h1m3 0h1m3 0h4m4 0h3m1 0h2M4 13.5h5m2 0h1m2 0h4m2 0h1m1 0h2m3 0h5m1 0h1m1 0h2m3 0h2m1 0h3m1 0h5m1 0h1m5 0h1m1 0h2m2 0h3m10 0h2m4 0h1m1 0h2m1 0h1m3 0h1m2 0h2m1 0h1m3 0h1M7 14.5h1m2 0h2m2 0h2m3 0h1m2 0h6m2 0h2m2 0h2m1 0h2m1 0h1m5 0h1m1 0h2m2 0h1m2 0h1m3 0h2m1 0h2m1 0h2m1 0h1m2 0h1m5 0h1m6 0h3m2 0h1m5 0h4m2 0h4M4 15.5h5m2 0h3m1 0h2m4 0h1m2 0h1m1 0h1m4 0h1m3 0h3m1 0h1m1 0h4m1 0h2m4 0h4m1 0h1m3 0h2m2 0h2m1 0h3m1 0h1m1 0h1m1 0h2m3 0h3m1 0h1m1 0h2m1 0h1m4 0h3m1 0h3m1 0h2M4 16.5h2m4 0h1m2 0h1m2 0h5m1 0h5m1 0h5m1 0h1m2 0h4m1 0h1m4 0h1m1 0h1m2 0h1m1 0h1m1 0h3m3 0h1m1 0h1m1 0h3m4 0h4m1 0h2m1 0h2m3 0h2m2 0h2m1 0h2m5 0h1m1 0h1m1 0h1M5 17.5h5m3 0h2m2 0h1m1 0h1m1 0h1m2 0h3m1 0h1m1 0h1m1 0h3m1 0h1m2 0h3m2 0h4m2 0h3m1 0h1m1 0h5m4 0h2m1 0h1m1 0h2m1 0h1m1 0h5m1 0h2m1 0h1m1 0h1m1 0h4m1 0h6m1 0h1m2 0h2M4 18.5h4m1 0h5m1 0h1m8 0h2m2 0h4m1 0h2m1 0h1m1 0h2m3 0h1m2 0h3m1 0h1m1 0h1m3 0h1m1 0h1m2 0h2m1 0h2m2 0h5m4 0h1m1 0h8m2 0h1m1 0h1m2 0h1m2 0h1m1 0h1m1 0h4M8 19.5h2m1 0h3m1 0h6m3 0h2m1 0h1m1 0h3m2 0h1m1 0h3m1 0h2m1 0h4m2 0h3m2 0h4m4 0h1m2 0h1m2 0h2m2 0h1m2 0h3m1 0h3m2 0h2m3 0h1m2 0h2m1 0h4m5 0h1M7 20.5h2m1 0h2m2 0h1m2 0h1m1 0h10m2 0h1m1 0h2m1 0h2m1 0h1m1 0h1m1 0h1m2 0h2m3 0h1m1 0h8m1 0h2m2 0h1m1 0h1m2 0h1m2 0h1m1 0h4m1 0h2m1 0h1m1 0h1m1 0h1m1 0h2m5 0h2m1 0h2m1 0h1M4 21.5h2m1 0h1m4 0h2m1 0h3m2 0h2m2 0h3m2 0h2m1 0h3m1 0h1m1 0h2m4 0h1m1 0h1m1 0h2m2 0h1m1 0h4m1 0h6m1 0h4m1 0h4m1 0h2m1 0h2m1 0h7m4 0h1m1 0h3m4 0h1M4 22.5h1m4 0h4m1 0h1m4 0h1m1 0h2m2 0h1m1 0h1m2 0h1m1 0h2m1 0h1m3 0h2m2 0h1m2 0h1m3 0h1m1 0h2m2 0h1m4 0h5m7 0h3m2 0h1m1 0h4m2 0h2m4 0h1m1 0h1m3 0h1m3 0h1m1 0h1M7 23.5h1m5 0h1m1 0h2m1 0h1m2 0h3m1 0h4m3 0h1m4 0h1m1 0h3m2 0h2m1 0h2m1 0h2m4 0h2m1 0h8m1 0h1m2 0h1m2 0h2m1 0h1m4 0h3m1 0h1m2 0h2m2 0h1m3 0h1m1 0h1m2 0h3M6 24.5h11m1 0h1m2 0h1m3 0h1m1 0h1m2 0h4m3 0h1m2 0h1m1 0h1m1 0h2m1 0h2m1 0h1m3 0h5m1 0h3m1 0h1m3 0h3m1 0h1m2 0h3m1 0h2m2 0h3m1 0h1m2 0h1m2 0h1m2 0h5m1 0h3M4 25.5h1m1 0h2m1 0h1m2 0h2m2 0h2m1 0h4m3 0h1m2 0h2m1 0h3m1 0h1m1 0h1m2 0h2m3 0h3m1 0h1m3 0h1m5 0h2m1 0h1m2 0h1m1 0h2m2 0h2m6 0h2m3 0h1m2 0h2m4 0h1m4 0h1m1 0h1m1 0h2M4 26.5h5m1 0h3m3 0h1m1 0h5m1 0h3m1 0h4m2 0h3m1 0h4m1 0h2m1 0h1m1 0h3m1 0h2m1 0h1m4 0h2m1 0h1m2 0h1m4 0h2m1 0h2m1 0h1m2 0h1m7 0h1m1 0h5m3 0h3M5 27.5h1m2 0h1m11 0h1m5 0h3m2 0h1m2 0h1m1 0h1m1 0h1m1 0h1m2 0h1m1 0h2m1 0h1m5 0h1m1 0h3m1 0h1m1 0h1m1 0h3m2 0h2m1 0h12m1 0h1m2 0h3m1 0h1m2 0h2m5 0h3M7 28.5h1m1 0h2m2 0h3m2 0h3m1 0h1m3 0h1m1 0h5m3 0h1m1 0h1m3 0h1m3 0h2m1 0h1m2 0h2m2 0h4m2 0h4m2 0h2m3 0h1m2 0h4m1 0h1m1 0h2m1 0h3m3 0h1m5 0h3m1 0h3M5 29.5h2m5 0h1m1 0h1m1 0h1m1 0h2m4 0h1m1 0h1m1 0h5m4 0h1m2 0h1m9 0h1m1 0h3m3 0h1m1 0h1m2 0h2m1 0h2m3 0h6m1 0h2m2 0h2m3 0h1m2 0h3m1 0h1m1 0h1m2 0h1m1 0h1M7 30.5h6m3 0h1m1 0h1m1 0h1m1 0h1m1 0h2m4 0h5m2 0h5m2 0h1m1 0h1m5 0h5m1 0h2m2 0h2m1 0h1m1 0h14m1 0h1m2 0h1m2 0h1m4 0h1m2 0h5m1 0h1M4 31.5h3m1 0h1m3 0h1m1 0h1m4 0h1m1 0h2m3 0h5m3 0h3m5 0h1m2 0h2m2 0h4m3 0h1m2 0h1m1 0h6m1 0h1m1 0h2m2 0h1m3 0h1m1 0h3m1 0h1m1 0h1m1 0h1m4 0h4m3 0h1m1 0h2M5 32.5h1m2 0h1m1 0h1m1 0h1m2 0h1m1 0h2m1 0h1m1 0h2m1 0h1m1 0h4m1 0h1m1 0h2m3 0h2m4 0h3m1 0h1m2 0h1m1 0h1m1 0h2m1 0h3m2 0h1m1 0h3m1 0h5m1 0h1m1 0h1m2 0h1m3 0h2m3 0h2m1 0h1m1 0h2m1 0h1m1 0h3m1 0h1M6 33.5h1m1 0h1m3 0h1m1 0h2m3 0h1m1 0h2m1 0h3m1 0h1m1 0h1m3 0h5m2 0h1m1 0h1m1 0h1m1 0h1m2 0h1m1 0h1m3 0h2m3 0h1m1 0h2m1 0h2m3 0h1m2 0h1m3 0h2m2 0h2m1 0h1m2 0h2m4 0h3m3 0h2m1 0h1M4 34.5h2m2 0h5m1 0h1m1 0h2m2 0h1m2 0h6m1 0h5m1 0h1m2 0h1m2 0h2m3 0h10m1 0h2m2 0h1m1 0h3m2 0h1m1 0h2m1 0h9m3 0h1m2 0h1m5 0h10M8 35.5h2m2 0h2m3 0h2m1 0h1m1 0h1m1 0h3m2 0h1m1 0h1m1 0h2m5 0h3m2 0h1m2 0h1m3 0h1m1 0h2m4 0h1m1 0h1m1 0h3m1 0h1m3 0h1m3 0h1m1 0h2m1 0h1m1 0h2m3 0h1m3 0h1m1 0h1m2 0h1m1 0h3m2 0h1M4 36.5h1m1 0h3m1 0h1m1 0h3m1 0h2m7 0h2m4 0h1m4 0h1m2 0h1m1 0h8m2 0h2m1 0h1m1 0h1m1 0h2m1 0h5m8 0h2m1 0h1m1 0h1m1 0h2m1 0h4m4 0h1m1 0h1m1 0h2m1 0h2m1 0h1m1 0h1M4 37.5h1m1 0h2m4 0h1m6 0h1m3 0h2m1 0h2m1 0h2m5 0h1m2 0h1m3 0h1m2 0h1m1 0h1m1 0h3m3 0h2m1 0h4m2 0h2m4 0h2m2 0h2m2 0h1m3 0h2m6 0h3m1 0h4m2 0h2m1 0h1M4 38.5h4m1 0h2m3 0h2m1 0h2m1 0h1m1 0h1m1 0h3m1 0h1m1 0h3m6 0h3m1 0h2m2 0h1m4 0h2m1 0h1m3 0h1m3 0h1m1 0h1m1 0h4m1 0h1m1 0h5m4 0h3m3 0h4m7 0h1m2 0h1M4 39.5h2m2 0h2m2 0h1m3 0h1m2 0h2m9 0h1m1 0h1m4 0h3m2 0h3m1 0h2m1 0h2m1 0h1m2 0h3m1 0h2m1 0h2m2 0h3m1 0h2m2 0h1m2 0h2m1 0h1m1 0h3m3 0h1m2 0h2m2 0h4m1 0h2M5 40.5h2m1 0h1m1 0h2m1 0h2m1 0h2m1 0h2m8 0h1m2 0h7m3 0h1m2 0h2m1 0h1m3 0h2m1 0h1m1 0h1m2 0h3m4 0h2m2 0h2m1 0h2m1 0h1m6 0h4m3 0h1m1 0h2m1 0h1m1 0h1M5 41.5h2m1 0h1m2 0h3m1 0h1m4 0h1m1 0h4m1 0h2m4 0h3m2 0h1m5 0h1m1 0h4m1 0h4m1 0h2m1 0h1m1 0h4m2 0h2m3 0h2m1 0h1m1 0h3m1 0h5m2 0h4m2 0h2m5 0h1M8 42.5h1m1 0h1m3 0h5m5 0h1m2 0h2m1 0h1m2 0h1m1 0h1m2 0h2m1 0h3m1 0h2m2 0h2m4 0h1m3 0h4m3 0h1m1 0h2m1 0h1m2 0h3m1 0h2m1 0h2m1 0h2m1 0h3m3 0h1m2 0h1m1 0h1m2 0h1m1 0h1M5 43.5h2m1 0h1m4 0h1m3 0h1m6 0h1m2 0h2m1 0h2m1 0h1m1 0h1m2 0h2m1 0h1m1 0h1m1 0h2m5 0h2m1 0h1m1 0h1m2 0h2m1 0h1m1 0h3m2 0h2m3 0h2m1 0h2m1 0h1m3 0h1m2 0h1m1 0h1m1 0h5m2 0h1m2 0h2M6 44.5h1m3 0h2m7 0h1m1 0h1m1 0h3m1 0h1m2 0h2m1 0h2m1 0h1m1 0h1m4 0h11m2 0h1m1 0h2m4 0h3m2 0h2m1 0h1m2 0h1m3 0h2m1 0h2m1 0h2m1 0h2m1 0h1m1 0h5m4 0h1M4 45.5h5m3 0h2m1 0h1m6 0h1m1 0h2m3 0h2m2 0h1m2 0h4m1 0h1m1 0h1m2 0h1m1 0h1m3 0h1m2 0h1m4 0h2m1 0h2m2 0h1m4 0h1m3 0h3m3 0h2m1 0h2m4 0h1m1 0h1m4 0h3m1 0h2M6 46.5h1m1 0h5m2 0h1m3 0h3m2 0h1m1 0h1m3 0h2m3 0h1m1 0h5m2 0h5m3 0h1m2 0h1m2 0h3m1 0h7m1 0h5m1 0h1m1 0h6m3 0h1m2 0h3m6 0h1m1 0h1m1 0h2M7 47.5h2m2 0h2m1 0h1m1 0h2m4 0h1m2 0h1m3 0h1m6 0h5m1 0h1m1 0h1m1 0h1m3 0h1m4 0h1m1 0h1m2 0h4m2 0h1m1 0h1m2 0h2m1 0h1m2 0h3m2 0h1m1 0h1m1 0h2m1 0h3m3 0h2m1 0h2m1 0h1m1 0h1M4 48.5h2m4 0h3m1 0h1m2 0h3m1 0h2m1 0h2m3 0h1m1 0h2m3 0h7m5 0h2m2 0h1m1 0h1m2 0h3m2 0h2m4 0h1m2 0h1m6 0h1m1 0h1m3 0h2m1 0h2m4 0h3m1 0h2m3 0h1m1 0h1M4 49.5h5m4 0h1m2 0h2m1 0h1m3 0h1m1 0h1m3 0h1m4 0h1m2 0h1m1 0h3m3 0h3m1 0h1m1 0h1m8 0h1m2 0h1m2 0h1m1 0h1m6 0h1m1 0h1m1 0h1m1 0h1m9 0h1m3 0h1m4 0h5M4 50.5h1m5 0h1m1 0h1m1 0h2m1 0h2m1 0h1m2 0h2m1 0h1m1 0h3m1 0h1m2 0h1m4 0h7m2 0h1m2 0h3m1 0h1m1 0h1m1 0h3m3 0h6m2 0h2m1 0h4m2 0h3m3 0h1m1 0h1m3 0h4m1 0h3m1 0h1M6 51.5h4m2 0h1m1 0h1m1 0h1m1 0h2m3 0h1m1 0h4m3 0h3m1 0h2m2 0h2m1 0h1m1 0h1m2 0h1m1 0h1m1 0h1m1 0h9m2 0h1m1 0h2m5 0h4m1 0h3m3 0h1m1 0h2m2 0h2m2 0h2m1 0h3m1 0h1M4 52.5h2m1 0h6m1 0h1m1 0h1m5 0h1m3 0h1m2 0h6m1 0h1m1 0h2m1 0h1m1 0h1m1 0h1m1 0h1m3 0h8m1 0h1m4 0h2m1 0h1m4 0h6m4 0h4m2 0h1m2 0h1m3 0h5m3 0h1M5 53.5h4m3 0h1m1 0h1m1 0h2m1 0h1m1 0h3m2 0h1m1 0h1m1 0h1m3 0h1m3 0h4m1 0h2m3 0h3m1 0h1m3 0h1m1 0h3m1 0h1m2 0h1m1 0h2m1 0h2m2 0h1m3 0h1m1 0h1m1 0h1m1 0h2m3 0h2m1 0h2m2 0h1m3 0h1m2 0h2M5 54.5h1m2 0h1m1 0h1m1 0h1m1 0h2m1 0h1m1 0h4m3 0h1m1 0h1m1 0h1m1 0h1m1 0h1m1 0h1m4 0h2m1 0h1m1 0h1m1 0h1m2 0h2m1 0h1m1 0h1m6 0h1m3 0h3m3 0h2m1 0h1m1 0h4m5 0h2m1 0h1m5 0h1m1 0h1m1 0h1m1 0h1M5 55.5h2m1 0h1m3 0h2m5 0h1m3 0h1m5 0h2m3 0h3m4 0h1m1 0h3m2 0h3m1 0h1m3 0h1m1 0h3m6 0h3m1 0h2m1 0h1m3 0h3m1 0h2m1 0h5m4 0h3m3 0h1m1 0h1m1 0h1M8 56.5h6m1 0h1m1 0h2m2 0h4m1 0h2m2 0h5m4 0h3m1 0h1m2 0h5m1 0h5m1 0h1m1 0h2m4 0h2m1 0h3m1 0h6m1 0h3m1 0h1m2 0h4m3 0h1m1 0h6M4 57.5h1m1 0h3m2 0h1m4 0h1m1 0h5m2 0h2m2 0h3m4 0h5m1 0h2m1 0h2m1 0h2m5 0h1m3 0h4m1 0h2m4 0h1m5 0h5m6 0h2m1 0h1m1 0h6m1 0h4m1 0h1M5 58.5h1m4 0h2m2 0h1m1 0h1m3 0h4m1 0h2m1 0h3m2 0h1m2 0h2m1 0h1m1 0h1m3 0h1m2 0h3m1 0h1m1 0h3m7 0h1m1 0h1m1 0h4m2 0h2m4 0h1m1 0h1m6 0h4m2 0h1m1 0h1m3 0h2m1 0h1M4 59.5h2m2 0h1m2 0h2m1 0h1m1 0h1m3 0h3m2 0h3m3 0h2m1 0h1m4 0h1m1 0h3m2 0h2m1 0h10m1 0h2m1 0h1m1 0h1m1 0h3m3 0h2m2 0h1m6 0h1m2 0h4m8 0h1m1 0h2m1 0h1M4 60.5h2m1 0h1m2 0h4m2 0h1m1 0h2m1 0h1m2 0h4m1 0h1m2 0h1m2 0h2m1 0h1m2 0h2m1 0h2m5 0h2m2 0h2m2 0h3m1 0h1m2 0h1m2 0h2m2 0h1m3 0h1m2 0h2m1 0h1m3 0h2m1 0h2m2 0h1m1 0h1m1 0h1m2 0h2M4 61.5h2m1 0h1m1 0h1m2 0h1m1 0h1m1 0h1m1 0h1m1 0h2m2 0h1m2 0h2m1 0h4m1 0h2m3 0h2m1 0h1m4 0h3m1 0h1m1 0h1m2 0h5m2 0h3m4 0h2m1 0h2m1 0h2m2 0h1m2 0h1m3 0h1m6 0h1m2 0h2m1 0h1m1 0h1M4 62.5h1m1 0h6m5 0h1m1 0h1m1 0h1m2 0h2m2 0h1m3 0h3m1 0h1m2 0h1m1 0h1m1 0h1m3 0h3m1 0h1m1 0h8m1 0h2m1 0h1m1 0h2m3 0h1m3 0h2m1 0h1m2 0h1m1 0h1m3 0h3m1 0h1m2 0h1m1 0h2m5 0h1M4 63.5h4m1 0h1m1 0h2m6 0h4m2 0h2m3 0h1m1 0h1m1 0h1m3 0h1m1 0h1m1 0h4m1 0h2m4 0h1m2 0h3m4 0h1m1 0h1m1 0h1m3 0h3m3 0h1m3 0h3m2 0h3m1 0h1m2 0h1m3 0h4m1 0h3M6 64.5h1m1 0h3m4 0h1m2 0h1m1 0h3m4 0h2m2 0h1m1 0h2m1 0h2m1 0h1m1 0h1m1 0h2m1 0h1m1 0h2m3 0h5m1 0h4m1 0h1m1 0h2m1 0h4m1 0h6m2 0h1m2 0h3m1 0h4m1 0h1m1 0h2m1 0h6M5 65.5h1m1 0h1m3 0h1m1 0h2m2 0h1m1 0h1m2 0h3m1 0h2m2 0h1m3 0h1m1 0h3m1 0h1m2 0h1m1 0h1m3 0h2m5 0h2m3 0h1m2 0h1m1 0h8m1 0h2m1 0h3m4 0h3m2 0h2m1 0h1m2 0h4m1 0h2M6 66.5h1m3 0h3m1 0h1m2 0h2m1 0h1m4 0h4m3 0h2m4 0h2m1 0h1m1 0h1m2 0h1m1 0h3m1 0h1m2 0h2m3 0h1m4 0h1m2 0h2m1 0h2m1 0h1m3 0h1m2 0h2m3 0h4m2 0h1m1 0h4m1 0h1m3 0h2M7 67.5h3m1 0h1m1 0h2m1 0h7m1 0h2m5 0h2m10 0h2m2 0h1m1 0h3m1 0h1m2 0h3m1 0h5m1 0h3m2 0h2m2 0h3m1 0h2m1 0h3m1 0h2m2 0h1m1 0h2m1 0h1m1 0h3m1 0h1m1 0h2M4 68.5h3m1 0h1m1 0h1m2 0h1m1 0h2m1 0h1m3 0h1m4 0h1m1 0h2m2 0h1m3 0h1m2 0h1m1 0h6m1 0h1m1 0h3m2 0h3m1 0h1m2 0h3m1 0h1m1 0h1m2 0h1m2 0h1m2 0h4m1 0h1m5 0h1m3 0h1m1 0h5m4 0h1M7 69.5h2m3 0h1m1 0h1m1 0h1m1 0h2m4 0h2m3 0h1m2 0h1m1 0h1m1 0h1m1 0h1m1 0h4m3 0h3m1 0h1m1 0h1m5 0h1m1 0h1m2 0h2m1 0h2m6 0h1m1 0h4m1 0h2m4 0h1m2 0h1m3 0h2m3 0h1m2 0h1M5 70.5h1m1 0h1m2 0h2m1 0h1m4 0h1m2 0h2m1 0h1m3 0h3m6 0h3m1 0h2m1 0h1m3 0h2m1 0h2m1 0h6m3 0h3m2 0h3m3 0h5m1 0h1m1 0h2m1 0h1m5 0h2m1 0h3m2 0h2m1 0h1m1 0h1M4 71.5h1m3 0h2m1 0h1m1 0h1m1 0h3m2 0h2m3 0h2m3 0h1m2 0h1m3 0h1m1 0h4m1 0h3m2 0h2m1 0h2m1 0h2m3 0h3m2 0h3m3 0h1m1 0h4m2 0h2m1 0h2m3 0h2m1 0h1m2 0h1m1 0h1m1 0h1m1 0h1m1 0h1m1 0h2M5 72.5h2m1 0h7m1 0h1m1 0h4m1 0h8m5 0h1m3 0h3m3 0h2m3 0h2m3 0h2m1 0h1m1 0h2m1 0h2m1 0h2m1 0h2m2 0h1m1 0h7m1 0h1m1 0h2m1 0h3m1 0h3m1 0h2m1 0h1m1 0h1m1 0h1M6 73.5h1m1 0h1m5 0h1m2 0h2m3 0h1m1 0h2m1 0h1m2 0h5m2 0h1m5 0h1m1 0h2m2 0h1m2 0h3m1 0h1m1 0h3m2 0h1m5 0h1m1 0h3m3 0h3m1 0h1m2 0h1m1 0h2m1 0h2m2 0h3m5 0h1m2 0h1M6 74.5h7m1 0h1m2 0h1m3 0h1m1 0h1m1 0h1m1 0h8m1 0h2m3 0h2m1 0h1m3 0h1m3 0h6m2 0h1m1 0h2m1 0h1m6 0h1m1 0h6m1 0h1m2 0h2m4 0h1m5 0h9M4 75.5h1m3 0h1m3 0h1m1 0h1m2 0h2m1 0h1m1 0h1m5 0h3m3 0h4m1 0h1m3 0h3m4 0h1m1 0h1m3 0h2m1 0h1m1 0h4m1 0h1m1 0h1m3 0h1m1 0h1m3 0h2m1 0h7m3 0h1m1 0h1m2 0h1m3 0h1m2 0h2M5 76.5h1m2 0h1m1 0h1m1 0h5m2 0h1m5 0h4m1 0h1m1 0h1m1 0h1m1 0h1m3 0h1m2 0h1m3 0h1m1 0h4m1 0h1m1 0h1m2 0h2m1 0h1m2 0h3m1 0h3m2 0h1m1 0h1m1 0h2m1 0h12m2 0h2m1 0h1m1 0h1M6 77.5h1m1 0h1m3 0h1m1 0h1m2 0h3m1 0h1m2 0h1m1 0h1m1 0h1m1 0h1m3 0h1m1 0h1m1 0h3m4 0h1m2 0h2m1 0h2m3 0h1m2 0h6m1 0h2m1 0h6m3 0h1m1 0h1m3 0h2m1 0h2m5 0h3m3 0h5M6 78.5h9m1 0h4m4 0h1m2 0h1m1 0h6m2 0h2m1 0h2m1 0h1m2 0h2m2 0h1m1 0h5m1 0h1m1 0h1m2 0h1m1 0h1m3 0h2m1 0h1m1 0h8m5 0h1m4 0h9m2 0h1M5 79.5h3m3 0h8m1 0h1m1 0h1m2 0h1m1 0h1m1 0h1m1 0h1m1 0h1m3 0h1m2 0h1m4 0h1m2 0h2m1 0h5m1 0h1m1 0h1m1 0h1m1 0h2m2 0h4m1 0h3m1 0h3m2 0h2m1 0h1m6 0h4m4 0h1m2 0h1M7 80.5h1m2 0h1m3 0h3m5 0h4m1 0h2m5 0h2m2 0h2m2 0h2m2 0h2m1 0h1m3 0h2m1 0h1m2 0h1m1 0h1m1 0h1m1 0h2m2 0h1m1 0h2m2 0h1m1 0h3m1 0h1m1 0h1m4 0h3m2 0h5m2 0h1M4 81.5h1m2 0h1m1 0h1m6 0h4m1 0h2m1 0h1m3 0h2m1 0h1m1 0h1m1 0h1m1 0h1m2 0h1m3 0h1m4 0h2m2 0h2m5 0h1m1 0h6m1 0h1m1 0h2m1 0h1m3 0h2m2 0h1m1 0h1m1 0h1m1 0h1m2 0h1m2 0h2m1 0h1m1 0h1m1 0h4M5 82.5h1m1 0h1m1 0h2m1 0h1m1 0h3m1 0h2m1 0h2m1 0h5m3 0h9m1 0h1m1 0h1m1 0h1m3 0h2m1 0h1m1 0h6m1 0h1m2 0h7m1 0h2m3 0h1m1 0h1m2 0h4m2 0h2m1 0h3m1 0h4m1 0h1M5 83.5h2m1 0h1m3 0h1m1 0h2m1 0h1m1 0h1m1 0h1m2 0h2m1 0h1m1 0h2m1 0h5m1 0h1m4 0h1m2 0h1m2 0h3m3 0h1m2 0h1m1 0h1m2 0h6m1 0h3m3 0h2m1 0h4m1 0h1m1 0h2m2 0h1m1 0h1m11 0h1M6 84.5h2m1 0h6m1 0h1m3 0h3m1 0h2m2 0h1m1 0h1m1 0h1m1 0h2m1 0h1m1 0h2m1 0h1m6 0h3m3 0h2m4 0h2m1 0h1m2 0h3m1 0h5m3 0h1m1 0h1m1 0h3m4 0h2m1 0h3m2 0h2m1 0h2M6 85.5h1m2 0h1m1 0h3m1 0h2m5 0h6m3 0h1m1 0h2m2 0h1m1 0h3m1 0h2m1 0h1m2 0h2m1 0h3m1 0h2m1 0h1m3 0h3m1 0h1m3 0h1m2 0h3m3 0h1m3 0h1m4 0h2m2 0h3m1 0h1m3 0h2M5 86.5h1m1 0h6m2 0h2m1 0h5m2 0h11m1 0h1m1 0h1m2 0h2m2 0h1m1 0h1m3 0h5m1 0h2m3 0h3m2 0h2m1 0h1m3 0h1m1 0h2m6 0h3m1 0h1m1 0h1m1 0h1m1 0h1m1 0h2m2 0h2M4 87.5h4m1 0h1m1 0h1m3 0h2m1 0h3m1 0h1m2 0h1m3 0h2m1 0h3m2 0h2m2 0h2m2 0h4m1 0h3m6 0h1m3 0h2m3 0h1m1 0h1m1 0h1m1 0h1m1 0h1m1 0h1m1 0h2m2 0h1m1 0h1m2 0h3m1 0h1m1 0h1m2 0h4m2 0h1M5 88.5h1m1 0h2m1 0h2m2 0h1m2 0h4m1 0h2m2 0h2m1 0h2m1 0h2m1 0h5m2 0h3m4 0h2m5 0h2m2 0h6m2 0h3m2 0h3m4 0h3m4 0h3m1 0h1m10 0h1m1 0h1M4 89.5h4m1 0h1m2 0h1m2 0h1m1 0h2m1 0h7m2 0h1m1 0h4m1 0h2m1 0h1m2 0h4m1 0h9m2 0h1m1 0h2m2 0h2m1 0h1m1 0h1m1 0h1m3 0h2m1 0h6m1 0h2m1 0h1m1 0h1m2 0h1m5 0h1m1 0h1m2 0h1M6 90.5h3m1 0h1m1 0h1m1 0h1m1 0h3m2 0h1m1 0h4m2 0h2m1 0h1m1 0h1m2 0h3m1 0h1m1 0h2m1 0h1m2 0h2m3 0h1m1 0h8m1 0h1m2 0h1m1 0h5m1 0h1m2 0h4m3 0h1m1 0h1m3 0h3m4 0h1m1 0h4M4 91.5h4m3 0h3m1 0h1m1 0h1m2 0h2m1 0h1m1 0h1m1 0h2m2 0h3m1 0h8m1 0h2m1 0h3m1 0h1m6 0h1m3 0h1m1 0h1m3 0h3m2 0h1m1 0h1m2 0h1m5 0h2m1 0h1m2 0h1m3 0h1m1 0h2m1 0h5M4 92.5h3m2 0h2m1 0h1m1 0h1m1 0h1m1 0h1m1 0h1m8 0h1m3 0h4m3 0h2m1 0h1m2 0h5m7 0h3m5 0h1m2 0h2m2 0h3m4 0h3m1 0h1m1 0h1m2 0h2m1 0h1m1 0h1m1 0h1m2 0h1m1 0h1M5 93.5h2m1 0h2m2 0h1m1 0h1m1 0h2m1 0h1m1 0h7m1 0h3m3 0h2m3 0h3m2 0h1m1 0h1m4 0h1m1 0h4m1 0h1m2 0h1m1 0h1m6 0h1m1 0h1m1 0h6m1 0h2m1 0h1m2 0h2m2 0h2m1 0h2m1 0h2m1 0h1m1 0h1M4 94.5h1m2 0h2m1 0h1m2 0h1m2 0h1m1 0h2m1 0h2m4 0h2m1 0h1m2 0h3m2 0h1m3 0h1m3 0h2m2 0h5m2 0h1m2 0h1m2 0h4m2 0h1m1 0h6m4 0h1m5 0h1m3 0h2m2 0h1m2 0h5m1 0h1M4 95.5h1m1 0h2m1 0h1m1 0h5m1 0h1m1 0h1m1 0h2m2 0h1m5 0h2m1 0h4m1 0h4m3 0h1m1 0h1m1 0h3m2 0h2m1 0h1m2 0h4m1 0h3m1 0h1m1 0h1m2 0h4m2 0h1m2 0h2m2 0h2m2 0h1m4 0h1M8 96.5h1m1 0h1m3 0h3m1 0h1m1 0h1m1 0h1m2 0h2m1 0h1m1 0h6m1 0h1m1 0h1m1 0h1m2 0h2m6 0h7m1 0h1m1 0h1m1 0h2m1 0h2m1 0h11m1 0h1m1 0h1m1 0h2m3 0h4m1 0h5m2 0h2M12 97.5h1m2 0h1m4 0h5m2 0h1m2 0h1m3 0h1m1 0h5m1 0h5m1 0h5m3 0h1m1 0h4m1 0h2m1 0h1m1 0h1m1 0h1m1 0h1m1 0h1m3 0h1m2 0h2m2 0h2m2 0h1m3 0h1m1 0h2m3 0h3M4 98.5h7m1 0h1m15 0h3m1 0h1m1 0h2m5 0h1m3 0h1m3 0h4m1 0h1m1 0h2m1 0h2m1 0h2m3 0h1m2 0h1m1 0h3m1 0h1m1 0h1m1 0h3m5 0h4m2 0h1m1 0h1m1 0h1m1 0h1m2 0h1M4 99.5h1m5 0h1m2 0h1m2 0h1m1 0h3m2 0h3m2 0h1m1 0h1m3 0h2m1 0h4m1 0h4m5 0h2m3 0h1m1 0h1m2 0h1m1 0h2m1 0h4m1 0h1m1 0h2m3 0h1m3 0h1m2 0h2m1 0h3m1 0h2m1 0h2m3 0h1m1 0h3M4 100.5h1m1 0h3m1 0h1m3 0h2m2 0h2m1 0h4m1 0h1m1 0h1m1 0h9m1 0h4m2 0h1m1 0h2m2 0h5m4 0h1m1 0h2m5 0h2m1 0h6m1 0h1m2 0h2m1 0h1m2 0h1m2 0h13M4 101.5h1m1 0h3m1 0h1m1 0h3m1 0h1m2 0h2m2 0h2m1 0h1m2 0h4m1 0h1m4 0h2m1 0h2m2 0h2m1 0h1m3 0h3m1 0h1m1 0h1m2 0h2m5 0h1m1 0h2m1 0h3m4 0h2m2 0h3m3 0h4m1 0h4m3 0h2M4 102.5h1m1 0h3m1 0h1m2 0h1m3 0h2m1 0h1m2 0h1m2 0h1m4 0h2m1 0h5m3 0h2m1 0h1m1 0h2m4 0h2m3 0h2m1 0h3m4 0h1m2 0h2m3 0h1m3 0h3m1 0h1m1 0h3m1 0h2m2 0h4m1 0h1m4 0h1M4 103.5h1m5 0h1m1 0h1m1 0h1m1 0h2m2 0h3m4 0h3m2 0h2m2 0h1m2 0h1m7 0h5m1 0h3m3 0h1m6 0h3m2 0h1m1 0h1m2 0h1m2 0h2m1 0h1m2 0h1m3 0h2m2 0h3m2 0h4m1 0h1M4 104.5h7m1 0h1m3 0h1m2 0h1m2 0h1m1 0h6m5 0h1m1 0h9m1 0h1m3 0h2m2 0h1m2 0h4m1 0h1m1 0h1m5 0h1m1 0h3m1 0h2m1 0h1m2 0h3m2 0h1m1 0h2m1 0h1m1 0h3m3 0h3"/></svg>
