<svg xmlns="http://www.w3.org/2000/svg" viewBox="0 0 109 109" shape-rendering="crispEdges"><path fill="#ffffff" d="M0 0h109v109H0z"/><path stroke="#000000" d="M4 4.5h7m5 0h1m1 0h2m1 0h6m2 0h2m1 0h1m4 0h1m1 0h4m1 0h3m1 0h1m1 0h1m2 0h1m1 0h2m2 0h1m1 0h1m1 0h1m4 0h5m1 0h1m2 0h1m1 0h1m1 0h1m1 0h1m1 0h1m3 0h2m2 0h3m2 0h7M4 5.5h1m5 0h1m1 0h1m5 0h1m1 0h1m1 0h1m2 0h4m4 0h3m1 0h1m1 0h1m3 0h3m4 0h1m3 0h2m1 0h2m2 0h3m5 0h1m1 0h2m1 0h2m2 0h1m1 0h4m5 0h2m1 0h1m5 0h1m5 0h1M4 6.5h1m1 0h3m1 0h1m1 0h4m3 0h2m1 0h1m1 0h4m1 0h4m3 0h4m6 0h2m2 0h1m1 0h4m1 0h4m3 0h1m1 0h1m3 0h1m1 0h1m1 0h1m1 0h1m1 0h1m2 0h4m1 0h2m1 0h2m1 0h1m2 0h1m2 0h1m1 0h3m1 0h1M4 7.5h1m1 0h3m1 0h1m3 0h3m1 0h1m3 0h1m2 0h1m4 0h4m2 0h2m5 0h1m2 0h2m6 0h3m1 0h3m3 0h1m1 0h1m3 0h1m1 0h3m2 0h4m1 0h1m1 0h3m1 0h1m1 0h1m1 0h4m2 0h1m1 0h3m1 0h1M4 8.5h1m1 0h3m1 0h1m1 0h3m3 0h7m3 0h7m2 0h1m1 0h2m3 0h2m2 0h1m2 0h6m2 0h1m2 0h2m1 0h1m2 0h1m2 0h8m2 0h3m6 0h2m2 0h1m1 0h1m1 0h1m1 0h3m1 0h1M4 9.5h1m5 0h1m1 0h2m1 0h2m2 0h4m1 0h1m1 0h2m2 0h1m3 0h2m1 0h3m1 0h4m1 0h3m1 0h1m1 0h1m3 0h1m2 0h2m1 0h2m3 0h2m2 0h1m2 0h1m3 0h2m5 0h1m3 0h4m2 0h1m2 0h1m5 0h1M4 10.5h7m1 0h1m1 0h1m1 0h1m1 0h1m1 0h1m1 0h1m1 0h1m1 0h1m1 0h1m1 0h1m1 0h1m1 0h1m1 0h1m1 0h1m1 0h1m1 0h1m1 0h1m1 0h1m1 0h1m1 0h1m1 0h1m1 0h1m1 0h1m1 0h1m1 0h1m1 0h1m1 0h1m1 0h1m1 0h1m1 0h1m1 0h1m1 0h1m1 0h1m1 0h1m1 0h1m1 0h1m1 0h1m1 0h1m1 0h1m1 0h1m1 0h1m1 0h1m1 0h1m1 0h7M12 11.5h1m2 0h1m3 0h1m3 0h1m4 0h3m3 0h1m1 0h1m1 0h4m4 0h2m1 0h1m2 0h1m3 0h2m3 0h5m1 0h3m1 0h2m1 0h1m3 0h1m2 0h1m2 0h1m1 0h6m2 0h1m1 0h1M4 12.5h2m1 0h1m2 0h2m3 0h4m1 0h1m1 0h1m1 0h1m1 0h3m1 0h6m4 0h4m2 0h1m3 0h1m1 0h5m2 0h1m1 0h2m1 0h1m3 0h1m1 0h2m2 0h7m3 0h3m1 0h1m2 0h3m2 0h1m1 0h3m1 0h2M4 13.5h2m2 0h2m1 0h3m2 0h4m1 0h1m2 0h1m3 0h4m1 0h1m3 0h2m2 0h1m2 0h3m2 0h1m9 0h1m1 0h1m1 0h1m1 0h1m2 0h3m2 0h2m3 0h2m1 0h1m3 0h2m1 0h1m1 0h4m1 0h1m1 0h1m5 0h1M5 14.5h1m3 0h2m2 0h2m3 0h3m1 0h1m2 0h1m5 0h2m1 0h3m2 0h2m3 0h2m1 0h2m3 0h3m2 0h2m1 0h1m3 0h1m1 0h3m1 0h2m2 0h1m1 0h4m1 0h1m3 0h1m1 0h1m2 0h2m3 0h1m1 0h2m2 0h2m1 0h1M4 15.5h1m3 0h2m2 0h2m4 0h5m1 0h4m2 0h1m1 0h1m2 0h1m1 0h1m1 0h3m1 0h4m2 0h1m1 0h1m1 0h2m1 0h3m1 0h1m2 0h1m1 0h2m1 0h2m2 0h1m1 0h5m2 0h5m3 0h1m1 0h1m4 0h2m1 0h4M10 16.5h2m1 0h2m2 0h5m1 0h1m1 0h2m3 0h3m1 0h2m4 0h1m2 0h2m1 0h1m1 0h3m1 0h1m1 0h1m1 0h1m1 0h1m1 0h3m2 0h4m2 0h3m3 0h1m2 0h1m4 0h2m2 0h1m5 0h2m2 0h4m1 0h1M5 17.5h2m1 0h2m1 0h1m1 0h1m3 0h1m1 0h2m1 0h1m2 0h2m2 0h1m1 0h2m1 0h1m2 0h1m2 0h1m1 0h2m3 0h3m1 0h1m1 0h1m1 0h2m7 0h1m2 0h1m1 0h1m2 0h6m3 0h1m1 0h7m3 0h4m2 0h1m3 0h2M5 18.5h8m6 0h2m1 0h2m1 0h1m2 0h3m1 0h2m1 0h1m2 0h2m1 0h1m3 0h1m1 0h1m6 0h4m1 0h7m4 0h3m5 0h1m3 0h3m1 0h1m1 0h2m2 0h3m1 0h1m3 0h3m1 0h1M5 19.5h1m2 0h1m2 0h1m1 0h2m5 0h4m1 0h1m1 0h1m1 0h4m5 0h2m1 0h1m5 0h2m2 0h2m1 0h4m2 0h1m2 0h1m1 0h2m2 0h5m1 0h2m1 0h2m4 0h1m3 0h3m2 0h2m3 0h2m4 0h1M5 20.5h1m4 0h1m3 0h3m2 0h1m3 0h6m2 0h1m1 0h4m1 0h1m2 0h1m4 0h3m1 0h2m1 0h1m2 0h2m1 0h1m1 0h3m2 0h5m1 0h1m2 0h2m1 0h2m1 0h1m1 0h2m1 0h3m1 0h2m4 0h1m2 0h3M4 21.5h3m1 0h1m3 0h2m1 0h1m1 0h1m4 0h5m2 0h2m2 0h2m4 0h1m10 0h1m1 0h1m4 0h1m1 0h2m2 0h2m2 0h1m2 0h2m1 0h2m2 0h7m1 0h2m1 0h1m2 0h1m2 0h3m3 0h3M6 22.5h5m1 0h1m2 0h1m2 0h3m3 0h2m1 0h2m1 0h2m1 0h3m5 0h2m1 0h1m2 0h3m1 0h1m2 0h3m1 0h2m4 0h1m1 0h3m2 0h3m1 0h1m1 0h1m9 0h2m1 0h5m3 0h1m5 0h1M4 23.5h1m1 0h1m2 0h1m3 0h2m2 0h1m3 0h1m3 0h5m1 0h2m5 0h1m1 0h1m1 0h2m2 0h3m1 0h4m2 0h1m1 0h4m2 0h2m1 0h1m1 0h4m1 0h4m2 0h11m1 0h1m1 0h1m1 0h2m6 0h1M4 24.5h1m4 0h3m1 0h1m5 0h2m2 0h1m1 0h1m2 0h2m3 0h1m1 0h1m1 0h1m1 0h2m2 0h2m1 0h6m1 0h8m1 0h2m4 0h1m1 0h1m1 0h1m3 0h2m2 0h2m1 0h2m1 0h2m1 0h1m2 0h3m3 0h1m1 0h5M4 25.5h1m1 0h1m7 0h1m2 0h4m5 0h5m1 0h3m5 0h2m3 0h1m1 0h1m1 0h4m4 0h1m2 0h2m2 0h4m1 0h1m1 0h1m1 0h1m1 0h2m2 0h1m1 0h2m2 0h3m2 0h3m1 0h1m1 0h3m1 0h2m1 0h1M4 26.5h1m1 0h1m3 0h2m1 0h2m1 0h7m1 0h6m1 0h1m1 0h5m2 0h2m1 0h1m2 0h4m1 0h1m4 0h4m2 0h2m3 0h1m1 0h1m1 0h5m1 0h1m1 0h1m2 0h1m2 0h2m1 0h3m2 0h1m1 0h3m1 0h1m2 0h3M13 27.5h1m2 0h1m1 0h2m2 0h1m2 0h1m1 0h1m1 0h1m1 0h1m2 0h3m1 0h1m1 0h1m1 0h5m1 0h2m2 0h1m2 0h1m2 0h3m1 0h1m1 0h1m2 0h2m1 0h2m2 0h1m1 0h3m2 0h1m1 0h1m1 0h1m2 0h1m1 0h1m1 0h1m6 0h2m1 0h3M4 28.5h2m1 0h15m3 0h1m2 0h2m1 0h4m1 0h1m2 0h1m2 0h1m1 0h1m1 0h3m4 0h2m3 0h1m5 0h4m2 0h5m4 0h1m1 0h4m1 0h1m2 0h2m1 0h3m1 0h3m4 0h1M8 29.5h2m1 0h2m3 0h2m1 0h1m1 0h1m4 0h1m3 0h3m2 0h3m1 0h2m4 0h1m1 0h7m1 0h1m1 0h1m2 0h1m1 0h3m3 0h3m2 0h1m3 0h1m8 0h1m2 0h1m2 0h4m2 0h1m4 0h2M4 30.5h1m1 0h1m1 0h9m2 0h1m1 0h1m6 0h1m1 0h5m2 0h4m1 0h2m1 0h2m1 0h9m3 0h1m1 0h1m1 0h1m3 0h2m2 0h1m1 0h5m5 0h1m4 0h2m1 0h1m1 0h1m1 0h6m1 0h1M4 31.5h1m3 0h1m3 0h2m1 0h2m1 0h2m1 0h4m2 0h1m2 0h1m3 0h1m4 0h3m1 0h1m1 0h1m2 0h1m1 0h1m1 0h1m3 0h5m1 0h2m2 0h1m3 0h5m3 0h1m2 0h1m2 0h1m2 0h2m3 0h3m1 0h1m3 0h3M4 32.5h5m1 0h1m1 0h1m2 0h1m2 0h2m1 0h1m1 0h2m2 0h1m2 0h1m1 0h1m1 0h1m5 0h1m1 0h1m2 0h1m2 0h5m1 0h1m1 0h3m1 0h1m1 0h1m1 0h2m1 0h1m1 0h2m3 0h1m1 0h1m1 0h1m1 0h2m4 0h3m1 0h1m1 0h1m1 0h3m1 0h1m1 0h1m1 0h2M4 33.5h1m2 0h2m3 0h1m1 0h3m1 0h2m2 0h1m1 0h1m1 0h2m1 0h2m3 0h1m1 0h2m6 0h2m1 0h2m2 0h2m3 0h1m1 0h6m3 0h1m1 0h1m1 0h4m3 0h8m3 0h2m1 0h1m1 0h3m3 0h3m1 0h1M7 34.5h6m1 0h1m1 0h1m4 0h1m2 0h1m1 0h1m2 0h7m4 0h1m1 0h1m1 0h1m2 0h2m3 0h5m5 0h1m5 0h1m3 0h7m9 0h1m1 0h4m1 0h8m1 0h1M4 35.5h1m1 0h1m1 0h1m3 0h1m2 0h2m2 0h2m2 0h1m1 0h1m2 0h2m1 0h1m5 0h1m1 0h2m2 0h1m1 0h1m1 0h1m1 0h3m7 0h1m1 0h1m1 0h2m6 0h4m4 0h3m1 0h1m1 0h1m2 0h1m1 0h2m1 0h1m2 0h2m3 0h1m2 0h1M6 36.5h2m2 0h1m2 0h3m1 0h1m3 0h1m1 0h2m1 0h3m3 0h3m1 0h1m2 0h1m1 0h1m1 0h2m1 0h1m4 0h1m1 0h1m2 0h4m1 0h3m3 0h1m1 0h4m2 0h3m1 0h2m1 0h1m1 0h5m1 0h2m1 0h1m3 0h1m1 0h1m2 0h2M4 37.5h3m1 0h1m3 0h4m1 0h3m1 0h4m3 0h4m2 0h1m2 0h1m1 0h1m2 0h1m4 0h2m1 0h2m1 0h1m2 0h5m1 0h1m3 0h3m3 0h1m1 0h1m1 0h3m2 0h2m4 0h2m1 0h1m2 0h2m1 0h2m1 0h1m2 0h1m1 0h1M6 38.5h1m1 0h3m1 0h2m2 0h1m1 0h5m2 0h1m2 0h2m1 0h2m1 0h2m1 0h4m1 0h1m1 0h6m2 0h1m1 0h1m3 0h5m6 0h1m1 0h2m2 0h1m2 0h1m2 0h1m2 0h2m2 0h2m2 0h1m4 0h1m1 0h2m2 0h1M4 39.5h1m1 0h2m1 0h1m1 0h2m2 0h1m6 0h2m2 0h5m1 0h2m1 0h1m6 0h3m1 0h2m2 0h3m1 0h4m1 0h1m1 0h3m2 0h2m9 0h2m1 0h3m1 0h4m2 0h1m1 0h6m1 0h1m1 0h2M4 40.5h2m1 0h1m2 0h1m2 0h1m4 0h3m1 0h4m4 0h1m1 0h1m1 0h1m1 0h1m1 0h3m1 0h3m2 0h1m1 0h5m1 0h1m3 0h6m6 0h1m1 0h3m1 0h1m1 0h1m4 0h1m1 0h2m1 0h2m2 0h1m2 0h4M4 41.5h1m1 0h1m1 0h2m1 0h2m1 0h5m3 0h1m4 0h1m1 0h2m3 0h3m4 0h3m1 0h1m1 0h2m2 0h3m1 0h1m1 0h1m2 0h2m7 0h2m2 0h1m1 0h1m1 0h1m1 0h1m1 0h1m3 0h1m3 0h1m2 0h1m2 0h1m1 0h1m1 0h3m2 0h1M7 42.5h4m2 0h1m2 0h1m4 0h4m1 0h2m1 0h1m1 0h2m2 0h1m5 0h1m3 0h2m1 0h1m3 0h1m2 0h6m1 0h1m1 0h1m2 0h3m1 0h1m2 0h1m1 0h1m3 0h2m3 0h2m1 0h1m1 0h2m1 0h1m2 0h1m5 0h2M4 43.5h1m2 0h1m3 0h1m3 0h1m2 0h2m1 0h1m1 0h2m1 0h1m2 0h1m1 0h1m1 0h1m1 0h4m1 0h4m2 0h2m1 0h1m1 0h1m3 0h1m2 0h3m3 0h2m5 0h1m1 0h1m1 0h1m2 0h1m1 0h1m1 0h2m1 0h2m1 0h1m1 0h1m2 0h1m1 0h6m1 0h2M4 44.5h3m3 0h2m4 0h2m1 0h1m3 0h3m4 0h1m2 0h1m1 0h1m1 0h2m1 0h2m2 0h1m1 0h3m1 0h1m2 0h2m1 0h4m2 0h3m1 0h1m1 0h2m3 0h2m1 0h2m3 0h2m1 0h2m1 0h1m2 0h2m3 0h3m1 0h1m1 0h1m2 0h1M4 45.5h1m2 0h1m1 0h1m1 0h3m2 0h2m3 0h1m1 0h2m1 0h1m8 0h5m2 0h1m1 0h1m4 0h1m4 0h2m1 0h1m1 0h2m1 0h1m1 0h3m2 0h1m3 0h3m1 0h2m1 0h1m2 0h2m1 0h4m1 0h1m1 0h3m4 0h1m1 0h2M4 46.5h1m1 0h3m1 0h1m1 0h1m2 0h1m1 0h3m2 0h1m1 0h1m2 0h2m1 0h1m2 0h3m1 0h5m1 0h1m2 0h1m1 0h1m3 0h6m1 0h3m2 0h8m1 0h1m3 0h2m4 0h1m2 0h1m3 0h1m3 0h2m1 0h1m1 0h1m2 0h1M4 47.5h2m1 0h3m3 0h3m1 0h1m1 0h1m4 0h1m1 0h2m2 0h5m2 0h2m3 0h3m3 0h1m1 0h1m3 0h1m1 0h1m3 0h4m6 0h1m1 0h1m4 0h1m1 0h1m2 0h2m1 0h6m1 0h3m1 0h1m1 0h2m3 0h1M4 48.5h1m5 0h3m2 0h1m1 0h5m2 0h1m2 0h4m1 0h2m1 0h2m1 0h3m2 0h1m2 0h1m1 0h5m1 0h1m3 0h1m4 0h2m2 0h2m1 0h2m1 0h3m1 0h2m3 0h1m1 0h2m1 0h1m1 0h1m1 0h1m2 0h5m2 0h1M4 49.5h1m1 0h1m4 0h2m3 0h3m4 0h1m2 0h1m1 0h1m3 0h1m1 0h1m2 0h1m1 0h2m1 0h1m2 0h1m1 0h4m1 0h7m2 0h1m4 0h2m3 0h1m1 0h1m2 0h1m2 0h3m5 0h6m2 0h1m1 0h2m1 0h5M7 50.5h4m4 0h5m2 0h1m1 0h1m3 0h5m8 0h1m1 0h2m1 0h2m7 0h4m1 0h1m2 0h1m1 0h1m1 0h1m1 0h3m2 0h3m1 0h3m2 0h1m1 0h1m2 0h1m1 0h2m1 0h1m1 0h1m1 0h2m1 0h3M4 51.5h3m2 0h1m2 0h1m1 0h1m1 0h1m1 0h1m4 0h1m1 0h1m1 0h2m1 0h1m2 0h3m1 0h1m1 0h1m1 0h1m5 0h2m2 0h1m3 0h5m2 0h4m1 0h2m1 0h3m2 0h1m2 0h3m1 0h2m1 0h1m1 0h1m1 0h5m1 0h2m1 0h1m3 0h2M5 52.5h11m4 0h1m5 0h1m2 0h7m3 0h3m1 0h1m1 0h13m4 0h4m4 0h3m1 0h5m3 0h1m1 0h2m1 0h1m1 0h1m6 0h5m3 0h1M4 53.5h1m1 0h1m1 0h1m3 0h1m3 0h1m3 0h1m1 0h1m3 0h1m1 0h1m1 0h1m3 0h1m1 0h1m1 0h2m2 0h2m3 0h1m2 0h3m3 0h4m1 0h2m1 0h3m1 0h1m1 0h1m2 0h2m3 0h2m1 0h1m1 0h2m2 0h1m1 0h3m1 0h1m2 0h1m3 0h2M5 54.5h2m1 0h1m1 0h1m1 0h1m1 0h1m2 0h6m3 0h3m1 0h1m1 0h1m1 0h1m3 0h1m2 0h1m1 0h3m2 0h1m3 0h1m1 0h1m1 0h1m3 0h2m1 0h8m1 0h1m1 0h1m1 0h1m1 0h2m2 0h1m2 0h3m1 0h1m1 0h2m1 0h1m1 0h1m1 0h1m1 0h2M4 55.5h1m1 0h3m3 0h1m1 0h1m1 0h5m2 0h1m3 0h4m3 0h1m1 0h1m1 0h1m2 0h1m3 0h1m2 0h3m1 0h1m3 0h2m1 0h5m1 0h1m5 0h4m3 0h3m2 0h1m3 0h2m5 0h1m1 0h1m3 0h1m1 0h1m1 0h1M4 56.5h10m1 0h3m2 0h1m2 0h2m1 0h1m3 0h5m1 0h1m2 0h1m1 0h1m2 0h3m3 0h1m1 0h5m1 0h4m1 0h1m2 0h1m1 0h1m5 0h6m2 0h2m2 0h2m1 0h1m3 0h1m2 0h6M5 57.5h1m2 0h2m1 0h1m4 0h10m1 0h6m2 0h1m4 0h1m4 0h1m3 0h2m1 0h2m2 0h3m3 0h1m1 0h1m2 0h2m3 0h2m1 0h1m1 0h1m1 0h1m3 0h1m2 0h1m1 0h3m4 0h3m1 0h3m1 0h1M5 58.5h10m3 0h4m2 0h1m4 0h4m1 0h1m1 0h3m5 0h3m1 0h5m1 0h4m2 0h1m1 0h1m4 0h1m2 0h2m1 0h3m2 0h4m1 0h4m1 0h2m2 0h1m3 0h2m4 0h3M5 59.5h3m3 0h1m1 0h5m1 0h3m2 0h1m1 0h5m4 0h1m2 0h2m1 0h2m1 0h1m2 0h1m4 0h1m2 0h2m5 0h2m2 0h1m1 0h2m4 0h2m2 0h2m1 0h1m1 0h1m4 0h1m4 0h1m7 0h3M7 60.5h2m1 0h2m1 0h2m2 0h3m1 0h1m1 0h1m4 0h1m1 0h5m1 0h1m2 0h2m2 0h1m1 0h3m1 0h1m5 0h1m2 0h1m4 0h7m1 0h1m5 0h2m4 0h1m4 0h2m2 0h1m3 0h1m1 0h2m3 0h1M4 61.5h1m2 0h2m4 0h1m2 0h5m6 0h1m1 0h3m2 0h1m3 0h2m3 0h2m1 0h1m1 0h4m3 0h3m1 0h3m1 0h1m2 0h2m1 0h3m3 0h2m1 0h1m2 0h1m4 0h2m6 0h1m1 0h5m3 0h1M4 62.5h1m1 0h1m1 0h1m1 0h2m1 0h2m4 0h1m1 0h2m4 0h4m3 0h3m3 0h1m2 0h2m2 0h3m1 0h5m1 0h2m3 0h1m1 0h3m2 0h1m2 0h1m2 0h1m1 0h3m3 0h1m1 0h1m4 0h2m4 0h4m1 0h2M4 63.5h1m6 0h2m2 0h1m1 0h2m1 0h1m3 0h1m3 0h5m2 0h1m3 0h2m2 0h1m1 0h6m2 0h1m2 0h1m2 0h1m3 0h1m1 0h1m3 0h1m2 0h1m1 0h2m1 0h2m1 0h1m3 0h2m1 0h2m2 0h2m6 0h1m3 0h1M4 64.5h1m2 0h1m1 0h4m3 0h2m2 0h1m3 0h2m1 0h2m2 0h5m2 0h1m1 0h3m3 0h1m1 0h2m3 0h4m1 0h5m2 0h2m2 0h3m1 0h2m1 0h1m5 0h1m2 0h1m2 0h2m2 0h1m2 0h1m1 0h2m2 0h1M5 65.5h2m5 0h1m4 0h1m2 0h2m1 0h3m3 0h2m1 0h5m1 0h3m2 0h1m2 0h5m1 0h1m1 0h3m1 0h1m1 0h1m3 0h1m2 0h3m3 0h2m1 0h1m1 0h2m1 0h1m3 0h2m2 0h1m1 0h1m1 0h2m1 0h1m1 0h1m2 0h1m2 0h1M4 66.5h2m1 0h1m2 0h2m4 0h1m1 0h2m2 0h1m3 0h6m2 0h3m1 0h1m2 0h2m3 0h1m1 0h1m3 0h1m1 0h1m1 0h2m6 0h1m2 0h2m5 0h4m2 0h2m3 0h4m2 0h3m2 0h4m1 0h1m1 0h1M4 67.5h1m1 0h2m1 0h1m2 0h1m1 0h2m2 0h1m2 0h1m1 0h2m6 0h1m1 0h3m1 0h3m1 0h1m3 0h1m1 0h1m1 0h1m1 0h1m2 0h2m4 0h3m2 0h1m3 0h2m1 0h1m2 0h1m1 0h2m2 0h1m1 0h2m4 0h2m1 0h1m2 0h1m1 0h1m1 0h1M8 68.5h3m4 0h1m4 0h2m2 0h2m2 0h2m3 0h5m1 0h2m1 0h2m1 0h4m2 0h7m1 0h8m2 0h2m3 0h2m1 0h2m3 0h2m1 0h1m2 0h1m1 0h2m1 0h1m1 0h1m1 0h2m1 0h1m1 0h3M4 69.5h1m2 0h3m2 0h1m2 0h1m2 0h1m2 0h4m7 0h1m4 0h5m1 0h1m1 0h1m1 0h4m2 0h7m1 0h2m1 0h1m1 0h1m3 0h1m2 0h2m1 0h2m2 0h1m3 0h1m1 0h4m3 0h1m2 0h4m3 0h1M4 70.5h1m3 0h9m2 0h1m3 0h2m1 0h3m5 0h2m1 0h2m2 0h1m1 0h2m5 0h1m5 0h1m3 0h1m3 0h4m3 0h1m1 0h4m1 0h3m2 0h2m1 0h3m3 0h3m1 0h1m1 0h1m2 0h2m1 0h1M6 71.5h1m2 0h1m2 0h1m1 0h1m2 0h1m1 0h1m4 0h1m1 0h3m4 0h2m1 0h1m2 0h1m2 0h1m2 0h1m3 0h1m5 0h2m2 0h2m1 0h1m4 0h2m1 0h1m3 0h1m1 0h1m2 0h4m1 0h5m1 0h2m1 0h1m2 0h1m1 0h2m3 0h2M4 72.5h2m1 0h2m1 0h1m1 0h1m3 0h2m1 0h2m1 0h2m1 0h1m1 0h1m1 0h1m1 0h1m1 0h1m2 0h1m1 0h3m2 0h2m2 0h4m1 0h1m1 0h1m2 0h1m3 0h2m1 0h1m1 0h1m2 0h2m3 0h1m2 0h1m1 0h1m7 0h1m1 0h1m2 0h4m5 0h2m1 0h1M8 73.5h2m1 0h1m1 0h1m2 0h2m2 0h2m3 0h1m2 0h4m3 0h2m2 0h2m1 0h2m1 0h4m2 0h2m1 0h1m3 0h1m1 0h1m2 0h2m1 0h5m2 0h1m1 0h1m1 0h1m1 0h2m8 0h3m1 0h3m3 0h1m1 0h1m2 0h1M5 74.5h2m1 0h5m2 0h1m2 0h3m2 0h2m1 0h2m1 0h6m3 0h2m8 0h9m1 0h3m2 0h1m5 0h2m1 0h1m1 0h7m1 0h1m1 0h1m2 0h4m1 0h1m1 0h1m1 0h6m2 0h1M5 75.5h4m3 0h4m1 0h1m3 0h1m3 0h4m1 0h1m3 0h3m2 0h3m1 0h1m3 0h1m2 0h1m1 0h1m3 0h1m7 0h2m1 0h1m3 0h1m1 0h2m3 0h5m3 0h2m2 0h1m5 0h1m3 0h1m2 0h1M4 76.5h1m3 0h1m1 0h1m1 0h2m4 0h1m3 0h1m1 0h1m5 0h1m1 0h1m1 0h9m2 0h6m1 0h1m1 0h1m1 0h2m4 0h1m1 0h1m1 0h5m2 0h2m1 0h1m1 0h2m3 0h1m3 0h2m2 0h6m1 0h1m1 0h1M4 77.5h3m1 0h1m3 0h1m3 0h2m1 0h3m1 0h1m1 0h6m3 0h1m1 0h4m2 0h1m1 0h1m3 0h2m1 0h2m3 0h1m3 0h1m1 0h1m1 0h2m3 0h1m1 0h1m2 0h1m3 0h3m1 0h1m2 0h1m1 0h3m2 0h1m1 0h3m3 0h1m1 0h1M5 78.5h2m1 0h5m1 0h3m1 0h2m2 0h4m4 0h5m1 0h1m1 0h2m1 0h2m1 0h4m1 0h8m3 0h4m1 0h1m3 0h1m2 0h1m1 0h6m11 0h1m1 0h8M6 79.5h3m3 0h1m1 0h2m1 0h2m3 0h2m1 0h6m1 0h3m4 0h1m1 0h2m1 0h1m1 0h1m1 0h1m5 0h2m5 0h1m1 0h2m1 0h3m1 0h1m1 0h4m3 0h3m3 0h2m1 0h1m1 0h1m1 0h1m2 0h3m1 0h3m1 0h2M5 80.5h2m1 0h1m1 0h1m1 0h2m3 0h1m2 0h2m1 0h2m2 0h3m3 0h1m1 0h1m2 0h1m1 0h1m1 0h1m1 0h2m2 0h1m1 0h1m1 0h1m1 0h1m4 0h4m2 0h2m2 0h1m1 0h1m2 0h1m2 0h1m8 0h1m1 0h1m1 0h2m3 0h1m2 0h1m1 0h5M4 81.5h2m2 0h1m3 0h1m1 0h1m1 0h5m1 0h1m5 0h2m1 0h1m5 0h1m1 0h1m4 0h4m3 0h3m1 0h1m1 0h1m3 0h1m1 0h1m4 0h3m1 0h1m1 0h1m3 0h1m1 0h1m1 0h1m1 0h13m4 0h4M4 82.5h1m1 0h2m1 0h2m1 0h3m1 0h1m3 0h1m1 0h1m1 0h2m1 0h9m2 0h1m1 0h1m8 0h1m1 0h3m1 0h2m1 0h3m3 0h1m4 0h4m1 0h1m1 0h3m2 0h3m2 0h1m3 0h4m1 0h1m3 0h3m2 0h1M5 83.5h1m2 0h2m1 0h3m2 0h3m1 0h1m1 0h6m2 0h7m1 0h1m6 0h2m3 0h1m1 0h3m1 0h1m1 0h2m1 0h5m1 0h1m1 0h1m2 0h1m3 0h4m6 0h6m2 0h2m7 0h2M6 84.5h3m1 0h1m4 0h2m2 0h4m1 0h2m2 0h6m2 0h1m1 0h3m4 0h2m2 0h5m3 0h2m1 0h1m1 0h1m2 0h1m4 0h1m1 0h4m2 0h3m2 0h1m1 0h2m2 0h1m1 0h2m2 0h2m1 0h2m1 0h4M4 85.5h1m3 0h1m2 0h2m1 0h2m1 0h2m1 0h1m2 0h5m2 0h1m3 0h3m1 0h1m4 0h1m3 0h1m1 0h1m1 0h3m2 0h1m1 0h3m1 0h2m1 0h1m3 0h1m1 0h1m2 0h2m1 0h2m3 0h9m2 0h4m2 0h1m1 0h1m2 0h1M4 86.5h1m1 0h1m2 0h2m1 0h2m2 0h3m5 0h3m1 0h1m3 0h3m1 0h1m2 0h2m1 0h1m2 0h7m1 0h6m1 0h1m1 0h2m1 0h1m2 0h4m2 0h1m1 0h1m1 0h2m1 0h1m2 0h2m3 0h5m1 0h1m1 0h2m1 0h1M4 87.5h6m3 0h1m2 0h1m3 0h1m1 0h1m1 0h2m1 0h1m3 0h2m3 0h1m2 0h1m1 0h9m1 0h1m2 0h2m3 0h1m1 0h2m4 0h1m1 0h1m2 0h1m1 0h1m1 0h1m3 0h1m1 0h1m1 0h1m1 0h2m2 0h3m1 0h1m2 0h1m2 0h3m1 0h1M4 88.5h3m2 0h4m2 0h1m1 0h1m1 0h1m2 0h2m1 0h1m1 0h4m3 0h1m2 0h1m1 0h2m2 0h2m2 0h1m2 0h1m2 0h2m5 0h2m1 0h2m1 0h2m1 0h2m1 0h4m8 0h2m2 0h1m5 0h3m1 0h1m4 0h2M7 89.5h2m4 0h1m3 0h1m1 0h4m1 0h1m1 0h6m2 0h1m1 0h1m1 0h2m1 0h1m4 0h1m1 0h2m1 0h1m1 0h3m1 0h1m3 0h1m1 0h8m1 0h1m1 0h1m1 0h1m3 0h4m1 0h3m1 0h2m1 0h2m1 0h1m1 0h1m1 0h1m2 0h1m1 0h1M7 90.5h1m1 0h3m1 0h1m5 0h3m1 0h1m1 0h1m1 0h1m1 0h4m1 0h3m1 0h1m1 0h1m1 0h4m5 0h2m2 0h1m1 0h2m3 0h1m1 0h2m2 0h10m6 0h1m1 0h1m1 0h1m1 0h1m1 0h2m1 0h1m2 0h2m3 0h2M11 91.5h2m1 0h1m4 0h5m1 0h1m1 0h2m4 0h1m1 0h1m4 0h1m1 0h2m3 0h1m1 0h1m2 0h6m1 0h1m5 0h3m1 0h2m2 0h1m1 0h1m1 0h2m4 0h2m2 0h1m1 0h13M4 92.5h4m2 0h1m2 0h1m1 0h2m1 0h2m1 0h1m1 0h2m1 0h1m1 0h2m2 0h3m1 0h2m1 0h3m1 0h1m4 0h2m2 0h1m4 0h6m1 0h1m4 0h1m1 0h3m1 0h1m1 0h2m1 0h1m7 0h4m1 0h4m2 0h1m2 0h1m1 0h1M5 93.5h3m1 0h1m3 0h1m1 0h1m3 0h2m4 0h3m2 0h1m8 0h1m3 0h3m4 0h1m2 0h4m1 0h2m2 0h3m2 0h1m4 0h1m4 0h2m1 0h2m1 0h2m2 0h1m1 0h1m1 0h4m3 0h2m1 0h1m1 0h1M4 94.5h1m2 0h2m1 0h1m4 0h1m3 0h1m1 0h1m5 0h1m2 0h2m1 0h4m1 0h1m3 0h3m3 0h2m12 0h1m4 0h1m2 0h3m1 0h3m3 0h3m1 0h1m1 0h1m1 0h3m1 0h2m4 0h3m2 0h2M4 95.5h1m1 0h2m1 0h1m1 0h1m4 0h1m2 0h4m1 0h4m1 0h1m1 0h6m1 0h1m2 0h1m3 0h2m3 0h3m1 0h1m1 0h2m1 0h2m1 0h1m2 0h1m1 0h4m1 0h1m3 0h5m3 0h1m1 0h4m4 0h1m1 0h2m1 0h1m2 0h1M8 96.5h1m1 0h3m1 0h1m1 0h3m1 0h1m1 0h1m1 0h1m1 0h1m3 0h10m5 0h1m4 0h1m1 0h5m2 0h4m2 0h1m5 0h11m6 0h1m5 0h1m1 0h5m3 0h1M12 97.5h2m1 0h1m2 0h4m1 0h1m1 0h3m1 0h2m3 0h1m2 0h2m2 0h1m3 0h2m1 0h1m1 0h1m1 0h1m3 0h1m2 0h1m2 0h5m1 0h1m1 0h1m3 0h1m3 0h3m2 0h1m2 0h1m4 0h4m1 0h1m3 0h2m2 0h1M4 98.5h7m1 0h1m2 0h1m3 0h2m1 0h1m4 0h2m1 0h1m1 0h1m1 0h2m1 0h1m7 0h2m2 0h2m1 0h1m1 0h1m1 0h4m1 0h2m2 0h1m1 0h1m4 0h1m1 0h1m1 0h1m1 0h3m4 0h4m2 0h1m1 0h2m1 0h1m1 0h1m1 0h3m1 0h1M4 99.5h1m5 0h1m3 0h1m3 0h2m1 0h3m2 0h1m3 0h1m3 0h1m1 0h1m1 0h2m1 0h2m1 0h1m1 0h1m1 0h3m1 0h1m3 0h2m1 0h1m5 0h5m1 0h2m1 0h1m3 0h2m2 0h2m3 0h4m1 0h3m1 0h1m3 0h1m2 0h1M4 100.5h1m1 0h3m1 0h1m2 0h1m1 0h2m2 0h3m4 0h1m1 0h1m1 0h5m3 0h1m2 0h1m1 0h5m1 0h1m1 0h6m2 0h1m1 0h1m2 0h3m5 0h7m4 0h1m2 0h3m2 0h4m1 0h9M4 101.5h1m1 0h3m1 0h1m1 0h1m1 0h1m1 0h1m1 0h1m2 0h2m3 0h2m2 0h2m1 0h1m2 0h2m1 0h1m1 0h3m5 0h4m1 0h1m2 0h2m3 0h2m1 0h4m1 0h2m1 0h2m1 0h1m3 0h1m1 0h1m5 0h2m1 0h3m3 0h3m3 0h2M4 102.5h1m1 0h3m1 0h1m3 0h3m1 0h1m1 0h2m1 0h1m2 0h1m1 0h2m3 0h1m1 0h1m3 0h2m1 0h4m3 0h2m1 0h1m1 0h2m1 0h1m3 0h5m2 0h1m5 0h1m2 0h1m3 0h1m1 0h1m1 0h5m4 0h2m1 0h1m1 0h1m1 0h1m2 0h1M4 103.5h1m5 0h1m1 0h2m2 0h1m2 0h1m1 0h2m1 0h1m2 0h4m1 0h5m3 0h1m2 0h2m1 0h1m2 0h1m4 0h2m2 0h1m2 0h3m1 0h1m3 0h1m1 0h4m1 0h2m1 0h3m3 0h2m6 0h2m3 0h2m3 0h1M4 104.5h7m1 0h1m5 0h2m1 0h1m1 0h1m1 0h1m1 0h1m3 0h2m2 0h7m1 0h1m1 0h1m5 0h9m8 0h2m1 0h3m1 0h4m1 0h1m3 0h1m1 0h2m1 0h1m1 0h1m2 0h3m4 0h1m1 0h1"/></svg>
