<svg xmlns="http://www.w3.org/2000/svg" viewBox="0 0 129 129" shape-rendering="crispEdges"><path fill="#ffffff" d="M0 0h129v129H0z"/><path stroke="#000000" d="M4 4.5h7m2 0h2m2 0h1m1 0h1m1 0h3m1 0h1m1 0h2m2 0h3m1 0h2m6 0h1m3 0h1m1 0h2m1 0h2m1 0h2m1 0h1m3 0h1m1 0h2m1 0h2m1 0h2m3 0h1m1 0h1m2 0h1m2 0h2m1 0h1m3 0h5m1 0h3m1 0h2m1 0h2m1 0h2m1 0h2m1 0h4m2 0h7M4 5.5h1m5 0h1m1 0h2m2 0h3m1 0h1m1 0h1m2 0h2m3 0h1m1 0h1m4 0h1m1 0h1m1 0h4m1 0h1m1 0h2m1 0h1m1 0h1m1 0h1m1 0h1m1 0h3m2 0h2m3 0h1m1 0h1m2 0h1m1 0h1m1 0h1m1 0h2m1 0h6m4 0h1m3 0h1m1 0h1m1 0h1m2 0h2m1 0h1m1 0h1m3 0h2m1 0h1m1 0h1m5 0h1M4 6.5h1m1 0h3m1 0h1m2 0h1m2 0h2m1 0h1m3 0h2m1 0h1m4 0h1m1 0h3m1 0h4m1 0h2m2 0h1m1 0h4m6 0h2m2 0h6m2 0h3m1 0h1m1 0h1m1 0h1m4 0h1m3 0h1m2 0h1m1 0h1m2 0h8m2 0h1m1 0h3m1 0h3m1 0h2m1 0h1m1 0h3m1 0h1M4 7.5h1m1 0h3m1 0h1m2 0h2m5 0h4m1 0h1m1 0h1m1 0h1m2 0h1m4 0h1m1 0h2m2 0h1m3 0h3m1 0h3m1 0h3m3 0h2m3 0h3m1 0h2m4 0h3m1 0h4m4 0h1m1 0h2m2 0h1m2 0h1m1 0h5m3 0h2m3 0h5m1 0h1m1 0h3m1 0h1M4 8.5h1m1 0h3m1 0h1m1 0h2m1 0h1m2 0h7m2 0h1m2 0h9m1 0h1m1 0h1m2 0h1m1 0h2m1 0h2m1 0h2m2 0h2m1 0h5m1 0h2m6 0h1m1 0h1m3 0h2m1 0h12m1 0h1m1 0h2m2 0h2m2 0h1m3 0h1m1 0h1m2 0h1m2 0h1m1 0h3m1 0h1M4 9.5h1m5 0h1m2 0h1m2 0h2m2 0h1m1 0h1m1 0h5m2 0h2m3 0h1m2 0h2m2 0h4m5 0h1m2 0h6m3 0h2m3 0h3m1 0h1m1 0h5m3 0h1m1 0h1m2 0h1m3 0h2m2 0h1m1 0h2m1 0h2m1 0h1m2 0h2m2 0h1m2 0h2m2 0h1m5 0h1M4 10.5h7m1 0h1m1 0h1m1 0h1m1 0h1m1 0h1m1 0h1m1 0h1m1 0h1m1 0h1m1 0h1m1 0h1m1 0h1m1 0h1m1 0h1m1 0h1m1 0h1m1 0h1m1 0h1m1 0h1m1 0h1m1 0h1m1 0h1m1 0h1m1 0h1m1 0h1m1 0h1m1 0h1m1 0h1m1 0h1m1 0h1m1 0h1m1 0h1m1 0h1m1 0h1m1 0h1m1 0h1m1 0h1m1 0h1m1 0h1m1 0h1m1 0h1m1 0h1m1 0h1m1 0h1m1 0h1m1 0h1m1 0h1m1 0h1m1 0h1m1 0h1m1 0h1m1 0h1m1 0h1m1 0h7M13 11.5h3m1 0h1m3 0h1m1 0h1m5 0h2m1 0h1m3 0h2m1 0h1m4 0h1m1 0h1m2 0h1m3 0h1m1 0h1m2 0h1m1 0h1m3 0h2m1 0h5m5 0h1m2 0h5m3 0h1m3 0h1m2 0h1m4 0h3m2 0h1m1 0h10M4 12.5h1m1 0h1m1 0h1m1 0h1m2 0h1m2 0h1m2 0h3m1 0h1m2 0h1m1 0h2m2 0h5m1 0h1m1 0h3m2 0h1m6 0h1m2 0h2m2 0h6m3 0h1m3 0h1m1 0h1m1 0h2m1 0h4m4 0h7m2 0h1m3 0h3m1 0h1m1 0h2m1 0h2m2 0h1m1 0h1m4 0h1m2 0h1M8 13.5h1m4 0h1m1 0h2m1 0h1m3 0h1m1 0h1m2 0h5m2 0h1m3 0h1m2 0h3m3 0h6m1 0h1m1 0h1m1 0h2m1 0h3m1 0h7m1 0h2m5 0h1m1 0h2m1 0h3m1 0h3m3 0h3m1 0h4m2 0h3m1 0h1m1 0h1m1 0h3m3 0h1m1 0h1M4 14.5h2m1 0h1m1 0h3m1 0h1m2 0h4m2 0h1m1 0h2m1 0h3m2 0h3m1 0h10m2 0h2m1 0h2m3 0h3m1 0h4m1 0h1m5 0h4m1 0h1m2 0h2m1 0h3m3 0h2m1 0h2m3 0h3m1 0h2m2 0h2m1 0h4m2 0h3m1 0h1m4 0h1m1 0h1M4 15.5h3m1 0h2m1 0h5m2 0h1m4 0h1m2 0h2m1 0h3m4 0h1m4 0h1m1 0h1m3 0h1m3 0h2m2 0h1m1 0h1m1 0h2m2 0h1m1 0h2m3 0h2m1 0h2m1 0h1m1 0h2m1 0h3m5 0h1m1 0h1m1 0h1m1 0h1m1 0h1m2 0h2m1 0h1m2 0h2m3 0h1m1 0h1m2 0h2m2 0h5M7 16.5h4m1 0h2m1 0h1m5 0h3m1 0h7m2 0h2m3 0h3m2 0h3m1 0h1m1 0h1m2 0h1m6 0h3m1 0h1m1 0h3m1 0h1m1 0h3m1 0h2m2 0h6m1 0h2m4 0h2m1 0h2m8 0h3m4 0h3m1 0h2m1 0h5M4 17.5h3m2 0h1m1 0h5m1 0h2m2 0h2m4 0h2m1 0h2m2 0h2m1 0h1m5 0h1m4 0h1m3 0h2m1 0h2m1 0h6m1 0h1m2 0h4m1 0h1m4 0h4m1 0h2m2 0h3m2 0h1m7 0h1m2 0h1m4 0h1m2 0h1m1 0h1m3 0h1m2 0h5M5 18.5h1m2 0h1m1 0h2m2 0h3m3 0h1m4 0h2m4 0h1m1 0h2m1 0h2m3 0h2m1 0h1m1 0h1m3 0h1m4 0h2m2 0h1m1 0h2m2 0h2m2 0h1m4 0h1m1 0h2m2 0h5m3 0h1m2 0h1m2 0h1m1 0h5m4 0h2m3 0h5m1 0h1m4 0h4M4 19.5h3m4 0h1m1 0h2m1 0h2m1 0h2m5 0h8m1 0h3m4 0h2m2 0h1m4 0h5m1 0h2m2 0h2m2 0h1m1 0h4m1 0h1m2 0h2m4 0h1m1 0h5m1 0h5m1 0h2m4 0h2m1 0h1m1 0h1m2 0h3m1 0h1m1 0h1m1 0h1m1 0h1M6 20.5h5m1 0h2m3 0h1m2 0h2m1 0h1m2 0h3m1 0h3m1 0h1m1 0h2m2 0h1m1 0h3m4 0h1m4 0h1m1 0h1m1 0h1m1 0h2m2 0h2m1 0h1m4 0h3m1 0h2m1 0h1m1 0h1m2 0h3m1 0h2m1 0h4m1 0h2m4 0h1m2 0h2m4 0h4m3 0h1m1 0h1M7 21.5h2m3 0h1m1 0h5m1 0h2m1 0h2m1 0h1m1 0h1m2 0h3m6 0h4m2 0h1m2 0h3m3 0h2m2 0h1m1 0h3m1 0h1m1 0h1m1 0h2m1 0h1m1 0h2m5 0h1m3 0h1m2 0h3m1 0h2m1 0h2m3 0h2m2 0h1m1 0h3m1 0h2m3 0h2m1 0h6M5 22.5h3m1 0h2m1 0h2m2 0h5m1 0h2m2 0h1m3 0h1m2 0h4m1 0h2m1 0h1m3 0h5m1 0h5m2 0h3m4 0h4m1 0h1m1 0h4m4 0h1m1 0h1m1 0h3m2 0h2m3 0h1m3 0h1m1 0h1m2 0h2m1 0h2m1 0h1m2 0h1m4 0h3m2 0h2M5 23.5h5m1 0h1m3 0h3m1 0h1m5 0h4m6 0h1m2 0h10m1 0h1m1 0h3m1 0h1m4 0h1m3 0h2m1 0h1m2 0h2m1 0h1m1 0h1m4 0h1m2 0h1m2 0h1m1 0h3m1 0h2m1 0h2m2 0h1m1 0h2m1 0h1m1 0h1m3 0h2m2 0h3m1 0h1m2 0h3M4 24.5h2m1 0h1m2 0h1m1 0h6m2 0h1m3 0h2m1 0h1m8 0h1m1 0h1m4 0h1m1 0h1m4 0h5m2 0h1m8 0h3m2 0h3m1 0h5m2 0h1m2 0h2m5 0h1m2 0h1m1 0h1m4 0h1m1 0h2m6 0h2m5 0h1m1 0h2m1 0h1M4 25.5h4m1 0h1m2 0h5m1 0h1m5 0h5m1 0h2m4 0h2m2 0h3m2 0h2m2 0h11m1 0h2m2 0h3m2 0h2m2 0h4m1 0h2m2 0h2m5 0h2m1 0h1m1 0h1m1 0h1m1 0h2m1 0h2m1 0h3m1 0h2m2 0h1m2 0h2M4 26.5h2m4 0h1m1 0h1m1 0h2m1 0h2m3 0h3m1 0h1m1 0h1m1 0h1m1 0h1m4 0h1m1 0h2m1 0h1m1 0h1m10 0h1m1 0h1m3 0h3m2 0h1m2 0h1m1 0h3m4 0h3m1 0h3m1 0h1m3 0h2m1 0h2m2 0h3m1 0h1m1 0h3m3 0h1m2 0h1m1 0h1m1 0h3m1 0h1m1 0h1m1 0h1M5 27.5h4m3 0h1m3 0h2m3 0h2m3 0h1m2 0h1m1 0h1m1 0h1m3 0h1m1 0h1m1 0h3m1 0h3m1 0h1m1 0h1m5 0h1m1 0h1m5 0h4m2 0h1m1 0h1m2 0h1m1 0h1m1 0h1m2 0h2m5 0h2m3 0h5m1 0h5m1 0h1m7 0h1m1 0h1m1 0h3M5 28.5h1m2 0h3m1 0h4m1 0h3m3 0h3m1 0h2m1 0h1m3 0h1m1 0h1m2 0h2m1 0h1m2 0h1m5 0h2m1 0h3m1 0h2m2 0h2m1 0h4m1 0h3m3 0h1m2 0h1m3 0h1m3 0h3m1 0h1m1 0h1m2 0h3m3 0h1m2 0h1m1 0h1m1 0h3m2 0h4m3 0h1M5 29.5h2m1 0h2m1 0h1m1 0h10m5 0h1m4 0h1m4 0h2m2 0h1m1 0h1m1 0h1m1 0h2m1 0h2m1 0h2m3 0h2m4 0h2m1 0h2m2 0h2m3 0h1m2 0h1m1 0h4m1 0h2m1 0h2m3 0h1m1 0h5m1 0h1m2 0h2m1 0h1m2 0h1m1 0h2m3 0h1m1 0h3M4 30.5h1m1 0h1m2 0h2m3 0h2m1 0h1m4 0h4m1 0h1m3 0h1m2 0h2m1 0h2m3 0h4m1 0h4m1 0h1m1 0h1m1 0h2m1 0h2m3 0h2m1 0h2m2 0h1m2 0h1m1 0h5m1 0h3m1 0h1m1 0h1m2 0h1m1 0h4m1 0h1m2 0h2m3 0h5m4 0h1m3 0h4m1 0h1M5 31.5h1m6 0h3m1 0h1m2 0h5m1 0h3m2 0h3m1 0h1m1 0h1m3 0h1m2 0h1m1 0h1m1 0h3m1 0h2m1 0h2m1 0h5m1 0h1m1 0h2m2 0h1m1 0h2m1 0h1m2 0h1m2 0h1m3 0h1m2 0h5m2 0h4m1 0h1m1 0h1m1 0h1m3 0h1m2 0h1m1 0h1m2 0h4m4 0h1M5 32.5h2m1 0h6m1 0h1m3 0h2m6 0h2m1 0h7m3 0h1m1 0h1m4 0h2m3 0h1m3 0h1m1 0h8m1 0h3m7 0h2m2 0h1m1 0h1m1 0h1m2 0h6m2 0h1m2 0h3m1 0h1m4 0h1m3 0h1m2 0h8m1 0h1M5 33.5h2m1 0h1m3 0h5m5 0h4m1 0h2m1 0h1m1 0h1m3 0h1m1 0h2m2 0h2m2 0h1m3 0h1m2 0h6m1 0h1m3 0h2m1 0h1m2 0h1m2 0h1m3 0h1m2 0h1m2 0h2m1 0h3m3 0h2m7 0h2m2 0h1m3 0h1m1 0h1m2 0h1m1 0h1m3 0h2m1 0h1M6 34.5h1m1 0h1m1 0h1m1 0h1m1 0h2m1 0h1m3 0h1m1 0h4m2 0h4m1 0h1m1 0h1m1 0h2m1 0h2m2 0h1m1 0h3m2 0h1m1 0h1m1 0h5m1 0h1m1 0h1m1 0h3m4 0h2m1 0h4m2 0h2m2 0h3m1 0h1m1 0h2m3 0h1m1 0h1m1 0h4m1 0h3m1 0h1m1 0h3m1 0h1m1 0h1m1 0h2m1 0h1M4 35.5h2m2 0h1m3 0h4m2 0h2m2 0h1m3 0h2m1 0h2m1 0h1m3 0h2m2 0h1m4 0h1m2 0h1m2 0h1m2 0h1m5 0h1m3 0h1m1 0h1m3 0h1m3 0h2m1 0h1m1 0h1m1 0h1m4 0h3m3 0h1m4 0h1m1 0h1m8 0h1m1 0h1m2 0h2m1 0h1m3 0h2m1 0h2M4 36.5h2m2 0h5m7 0h1m1 0h2m1 0h1m2 0h3m1 0h5m1 0h3m1 0h1m6 0h1m1 0h1m1 0h1m3 0h1m1 0h9m4 0h4m1 0h1m1 0h3m4 0h9m2 0h2m2 0h2m2 0h2m1 0h1m1 0h5m1 0h5m2 0h1M4 37.5h1m1 0h1m1 0h1m4 0h1m3 0h1m1 0h1m1 0h1m7 0h1m1 0h1m1 0h1m1 0h1m4 0h2m2 0h3m1 0h2m2 0h1m2 0h1m1 0h2m4 0h7m1 0h4m1 0h1m1 0h1m2 0h7m2 0h2m4 0h1m1 0h5m1 0h3m2 0h3m2 0h1m1 0h2m1 0h1m4 0h1M8 38.5h9m2 0h1m2 0h1m1 0h6m4 0h4m2 0h5m1 0h3m2 0h1m1 0h1m2 0h1m1 0h1m1 0h1m4 0h2m5 0h1m4 0h1m1 0h2m2 0h1m1 0h1m3 0h1m2 0h1m2 0h2m3 0h3m1 0h3m1 0h2m4 0h2m3 0h1m2 0h1m1 0h1M4 39.5h2m1 0h2m4 0h1m1 0h1m1 0h2m3 0h1m1 0h1m2 0h1m2 0h4m1 0h2m1 0h2m2 0h5m4 0h1m1 0h1m2 0h1m1 0h2m1 0h4m4 0h4m4 0h3m2 0h3m3 0h1m1 0h1m2 0h2m1 0h1m2 0h2m3 0h3m2 0h1m2 0h1m3 0h1m1 0h2m1 0h1m1 0h1M5 40.5h3m2 0h3m1 0h2m1 0h1m4 0h1m3 0h2m2 0h1m2 0h1m2 0h1m1 0h3m1 0h2m2 0h3m4 0h1m4 0h1m2 0h2m2 0h4m1 0h1m1 0h2m1 0h1m3 0h2m3 0h1m2 0h2m4 0h1m1 0h2m1 0h2m1 0h2m4 0h2m1 0h1m2 0h2m1 0h1m3 0h3M5 41.5h1m2 0h2m2 0h2m1 0h1m1 0h2m1 0h1m2 0h4m1 0h1m2 0h3m3 0h3m6 0h1m1 0h1m1 0h5m1 0h1m3 0h2m1 0h3m2 0h1m3 0h1m1 0h1m2 0h1m1 0h1m1 0h1m5 0h1m3 0h7m1 0h3m2 0h1m1 0h1m2 0h1m1 0h1m1 0h4m2 0h4M4 42.5h1m4 0h3m1 0h2m1 0h2m2 0h1m1 0h1m3 0h2m1 0h1m1 0h3m1 0h4m2 0h1m2 0h2m3 0h1m5 0h2m1 0h2m1 0h1m1 0h1m2 0h1m1 0h1m1 0h3m3 0h1m1 0h1m3 0h3m2 0h3m1 0h3m3 0h2m1 0h1m3 0h1m3 0h4m1 0h3m1 0h1m1 0h3M12 43.5h2m2 0h3m4 0h4m2 0h1m1 0h4m3 0h2m2 0h1m1 0h1m2 0h2m1 0h3m2 0h1m6 0h2m1 0h2m1 0h1m2 0h2m1 0h1m2 0h3m1 0h3m2 0h1m3 0h2m1 0h1m1 0h3m2 0h1m1 0h1m1 0h3m3 0h2m1 0h1m1 0h1m2 0h2m1 0h3M5 44.5h1m2 0h3m1 0h2m1 0h2m2 0h2m3 0h1m3 0h2m5 0h2m1 0h4m2 0h1m6 0h2m2 0h2m1 0h1m3 0h2m1 0h2m1 0h1m1 0h1m2 0h1m1 0h1m2 0h3m1 0h1m1 0h1m3 0h1m2 0h1m2 0h1m3 0h1m1 0h1m2 0h2m3 0h3m3 0h1m3 0h1m1 0h1m2 0h2M4 45.5h2m1 0h2m5 0h6m1 0h1m1 0h1m1 0h2m2 0h1m1 0h3m3 0h2m1 0h1m2 0h2m1 0h1m1 0h1m1 0h1m1 0h1m1 0h2m1 0h2m2 0h1m1 0h1m1 0h1m2 0h1m1 0h1m2 0h3m1 0h1m2 0h1m1 0h1m1 0h1m2 0h1m1 0h1m2 0h1m5 0h1m2 0h1m1 0h2m3 0h1m2 0h1m3 0h2m1 0h2M4 46.5h4m2 0h2m3 0h1m2 0h2m2 0h3m3 0h1m1 0h2m2 0h1m3 0h1m1 0h1m3 0h2m3 0h4m2 0h1m3 0h1m2 0h2m2 0h1m1 0h1m2 0h1m2 0h2m3 0h2m1 0h5m1 0h1m1 0h2m1 0h1m1 0h3m1 0h1m1 0h3m2 0h1m1 0h1m3 0h1m1 0h1m2 0h1m1 0h3m1 0h2M4 47.5h2m2 0h2m1 0h1m1 0h4m1 0h1m1 0h2m3 0h1m2 0h3m2 0h2m3 0h3m1 0h1m1 0h1m1 0h2m1 0h4m1 0h3m1 0h1m1 0h1m4 0h1m1 0h1m1 0h1m1 0h1m1 0h2m3 0h5m6 0h1m2 0h2m1 0h6m2 0h1m3 0h1m1 0h3m7 0h3m1 0h2M4 48.5h3m1 0h1m1 0h1m2 0h2m7 0h2m3 0h5m2 0h1m1 0h5m1 0h1m3 0h3m1 0h1m3 0h1m3 0h1m1 0h1m2 0h2m1 0h2m1 0h2m2 0h2m1 0h2m1 0h2m1 0h2m3 0h4m1 0h3m1 0h3m4 0h2m5 0h1m4 0h2m1 0h1m1 0h4M6 49.5h1m1 0h2m2 0h5m3 0h3m1 0h1m1 0h1m2 0h2m1 0h2m2 0h1m7 0h2m1 0h3m4 0h1m4 0h1m1 0h1m1 0h2m1 0h3m1 0h1m4 0h1m6 0h4m1 0h1m1 0h1m2 0h3m2 0h1m3 0h2m3 0h1m2 0h1m1 0h1m1 0h2m3 0h2m1 0h4M4 50.5h2m1 0h1m1 0h2m1 0h4m5 0h1m1 0h6m1 0h2m1 0h4m1 0h1m2 0h5m4 0h1m1 0h5m1 0h2m2 0h1m7 0h6m2 0h2m1 0h1m1 0h4m1 0h2m1 0h3m2 0h1m1 0h1m1 0h3m1 0h1m1 0h2m1 0h1m1 0h2m1 0h5m4 0h2M5 51.5h1m1 0h1m1 0h1m4 0h1m3 0h4m3 0h3m3 0h5m1 0h1m1 0h7m2 0h2m1 0h1m1 0h4m2 0h3m1 0h5m1 0h1m1 0h1m4 0h1m1 0h1m1 0h1m1 0h1m2 0h1m1 0h1m1 0h4m3 0h1m5 0h1m2 0h7m1 0h2m1 0h1m2 0h1m1 0h2m1 0h1M4 52.5h1m1 0h2m2 0h3m2 0h1m2 0h2m1 0h1m3 0h1m2 0h2m3 0h1m3 0h4m2 0h1m1 0h1m2 0h3m2 0h4m1 0h1m3 0h1m4 0h2m6 0h1m1 0h2m2 0h1m1 0h4m1 0h1m1 0h3m2 0h1m3 0h1m1 0h3m1 0h2m2 0h1m1 0h2m5 0h2m1 0h1m2 0h1M5 53.5h1m1 0h1m4 0h5m1 0h4m1 0h1m1 0h2m1 0h1m1 0h1m1 0h4m2 0h1m1 0h1m6 0h2m3 0h1m1 0h1m2 0h1m1 0h1m2 0h4m2 0h1m1 0h3m1 0h7m1 0h3m2 0h2m1 0h4m2 0h1m1 0h1m1 0h5m1 0h1m2 0h1m3 0h3m1 0h1m2 0h2m1 0h1M9 54.5h3m2 0h1m2 0h2m1 0h1m1 0h2m2 0h1m1 0h1m2 0h1m2 0h2m1 0h1m4 0h1m1 0h2m1 0h2m3 0h3m3 0h2m4 0h2m1 0h1m1 0h1m3 0h1m2 0h5m1 0h1m1 0h1m1 0h5m4 0h2m1 0h1m3 0h1m2 0h2m7 0h1m1 0h2m4 0h3M4 55.5h2m1 0h3m2 0h1m4 0h2m1 0h4m2 0h1m5 0h1m1 0h1m1 0h1m1 0h1m3 0h1m1 0h1m1 0h4m1 0h1m1 0h2m1 0h1m2 0h2m1 0h1m1 0h3m3 0h4m3 0h1m1 0h3m1 0h1m3 0h2m2 0h3m1 0h2m1 0h1m5 0h1m3 0h1m3 0h2m3 0h1m4 0h1M4 56.5h1m4 0h4m4 0h1m1 0h1m2 0h4m1 0h2m1 0h2m7 0h3m1 0h5m1 0h1m2 0h2m1 0h1m1 0h1m1 0h2m1 0h2m1 0h1m1 0h3m4 0h1m4 0h1m1 0h1m2 0h3m1 0h5m1 0h1m2 0h1m2 0h1m2 0h2m2 0h1m1 0h2m2 0h1m4 0h2m1 0h4M9 57.5h1m3 0h3m3 0h2m4 0h1m1 0h1m1 0h2m2 0h2m1 0h1m1 0h2m3 0h1m1 0h2m2 0h6m3 0h1m4 0h2m3 0h3m2 0h3m6 0h2m4 0h2m1 0h2m3 0h1m1 0h3m3 0h1m1 0h1m6 0h1m1 0h1m1 0h3M4 58.5h1m1 0h6m2 0h1m1 0h4m1 0h4m6 0h1m5 0h1m2 0h3m1 0h1m1 0h1m1 0h1m1 0h4m4 0h5m1 0h1m1 0h5m1 0h1m2 0h1m2 0h1m1 0h5m3 0h2m3 0h1m1 0h2m2 0h5m1 0h3m2 0h1m1 0h1m1 0h1m5 0h2m2 0h1M6 59.5h1m5 0h2m1 0h1m2 0h1m1 0h1m1 0h1m3 0h1m1 0h2m5 0h1m1 0h1m2 0h3m1 0h2m3 0h1m1 0h1m1 0h1m1 0h1m5 0h1m2 0h1m1 0h2m2 0h1m1 0h1m1 0h3m2 0h1m1 0h2m2 0h3m1 0h3m1 0h1m1 0h1m3 0h1m1 0h1m2 0h1m1 0h3m6 0h1m1 0h2m1 0h3M4 60.5h2m1 0h6m1 0h3m1 0h2m1 0h1m1 0h1m3 0h2m2 0h7m1 0h4m1 0h1m2 0h4m1 0h1m1 0h3m3 0h6m2 0h1m1 0h1m4 0h3m1 0h1m1 0h1m2 0h3m1 0h5m1 0h4m2 0h1m1 0h1m2 0h2m2 0h1m1 0h1m2 0h8m1 0h2M6 61.5h1m1 0h1m3 0h1m1 0h3m1 0h4m4 0h1m1 0h2m1 0h2m3 0h1m4 0h2m1 0h1m1 0h2m4 0h1m4 0h4m3 0h1m1 0h1m5 0h3m1 0h3m2 0h3m1 0h2m1 0h1m3 0h2m1 0h1m1 0h1m5 0h1m2 0h3m2 0h3m2 0h1m3 0h1m2 0h1M4 62.5h1m2 0h2m1 0h1m1 0h1m3 0h5m1 0h2m2 0h2m1 0h1m1 0h2m1 0h1m1 0h2m2 0h6m2 0h2m2 0h1m1 0h1m1 0h1m3 0h1m1 0h1m1 0h2m5 0h2m1 0h4m1 0h1m1 0h1m1 0h1m1 0h1m2 0h1m1 0h1m1 0h1m1 0h3m1 0h3m1 0h4m1 0h7m2 0h1m1 0h1m1 0h1m1 0h3M5 63.5h2m1 0h1m3 0h2m5 0h1m2 0h1m2 0h1m1 0h2m3 0h1m3 0h1m1 0h1m1 0h2m2 0h1m1 0h4m2 0h1m6 0h2m3 0h1m2 0h1m1 0h1m1 0h1m3 0h3m1 0h2m3 0h1m1 0h1m1 0h1m3 0h1m2 0h1m2 0h3m6 0h2m1 0h1m3 0h1m1 0h1m3 0h1M6 64.5h1m1 0h5m3 0h1m2 0h4m4 0h2m3 0h5m1 0h1m2 0h3m1 0h2m4 0h1m2 0h12m1 0h1m2 0h1m1 0h1m1 0h9m2 0h8m3 0h1m1 0h1m3 0h1m1 0h1m2 0h4m2 0h8m3 0h1M5 65.5h5m2 0h2m5 0h1m1 0h2m1 0h2m2 0h1m1 0h2m1 0h1m1 0h2m3 0h1m1 0h1m4 0h1m1 0h2m2 0h1m4 0h1m1 0h2m1 0h1m2 0h3m3 0h3m4 0h1m4 0h1m1 0h1m3 0h1m7 0h5m1 0h1m1 0h1m1 0h2m1 0h5m1 0h1m1 0h2m1 0h1M4 66.5h2m3 0h2m3 0h2m1 0h1m1 0h1m4 0h1m2 0h2m1 0h1m4 0h3m1 0h2m1 0h1m1 0h2m1 0h2m5 0h3m2 0h2m1 0h1m1 0h1m6 0h1m2 0h3m1 0h1m2 0h1m1 0h1m2 0h1m1 0h1m3 0h1m1 0h1m1 0h2m1 0h2m3 0h1m1 0h7m1 0h2m1 0h3m1 0h1m1 0h2M4 67.5h1m2 0h3m2 0h2m6 0h2m1 0h1m1 0h1m2 0h1m2 0h2m1 0h1m3 0h1m2 0h1m1 0h1m2 0h6m5 0h3m2 0h1m4 0h2m2 0h3m3 0h2m1 0h3m6 0h4m1 0h1m2 0h1m3 0h2m1 0h1m2 0h6m1 0h2m1 0h3M4 68.5h1m1 0h3m1 0h2m1 0h1m1 0h3m1 0h1m2 0h1m3 0h2m3 0h6m1 0h3m3 0h2m4 0h3m2 0h1m1 0h3m1 0h5m1 0h1m3 0h1m4 0h1m1 0h1m1 0h5m2 0h1m1 0h1m2 0h2m2 0h4m1 0h1m1 0h1m1 0h2m1 0h5m3 0h3m2 0h1m1 0h1M4 69.5h4m1 0h1m3 0h3m2 0h2m3 0h1m2 0h1m1 0h1m1 0h4m1 0h2m2 0h1m3 0h2m2 0h2m4 0h2m4 0h1m3 0h1m1 0h4m1 0h3m2 0h3m2 0h3m2 0h1m1 0h1m2 0h4m3 0h4m1 0h2m1 0h1m1 0h4m1 0h1m1 0h1m1 0h1m1 0h1m1 0h1m3 0h1M4 70.5h1m1 0h8m3 0h1m2 0h1m2 0h3m1 0h2m1 0h1m3 0h1m1 0h1m2 0h1m2 0h1m1 0h3m2 0h1m1 0h1m1 0h2m1 0h1m6 0h4m1 0h2m1 0h1m1 0h2m3 0h2m1 0h1m1 0h1m1 0h1m1 0h4m1 0h1m2 0h3m1 0h1m2 0h1m1 0h1m4 0h6m5 0h2m2 0h1M8 71.5h2m1 0h3m1 0h5m1 0h3m1 0h1m2 0h5m1 0h1m1 0h3m3 0h3m5 0h2m2 0h1m1 0h1m1 0h4m1 0h1m2 0h2m1 0h1m1 0h8m1 0h2m1 0h6m3 0h1m1 0h1m3 0h2m1 0h2m1 0h1m2 0h1m1 0h2m2 0h1m2 0h2m2 0h2m1 0h2M7 72.5h1m1 0h2m1 0h1m1 0h2m2 0h1m1 0h1m1 0h6m4 0h2m1 0h1m5 0h2m1 0h2m1 0h1m2 0h1m1 0h4m2 0h2m4 0h2m1 0h1m6 0h2m1 0h4m4 0h5m1 0h4m5 0h1m3 0h1m1 0h2m1 0h2m1 0h2m2 0h3m2 0h1M9 73.5h1m2 0h3m4 0h1m2 0h1m3 0h1m1 0h1m3 0h2m1 0h3m1 0h3m1 0h6m1 0h1m2 0h4m1 0h2m1 0h2m1 0h1m2 0h1m2 0h3m1 0h1m1 0h1m1 0h1m2 0h2m4 0h1m1 0h1m2 0h1m4 0h1m2 0h5m1 0h2m5 0h1m1 0h1m1 0h1m3 0h1m1 0h1M4 74.5h1m1 0h2m2 0h1m1 0h1m2 0h2m4 0h1m1 0h1m7 0h1m1 0h1m1 0h1m2 0h2m1 0h1m1 0h1m1 0h1m2 0h2m1 0h1m1 0h1m2 0h1m2 0h3m2 0h1m3 0h2m1 0h1m1 0h2m1 0h2m4 0h1m1 0h1m1 0h1m1 0h1m3 0h1m4 0h3m1 0h1m2 0h1m2 0h4m1 0h1m2 0h4m2 0h4M6 75.5h2m1 0h1m1 0h3m1 0h1m1 0h3m1 0h2m2 0h1m1 0h2m2 0h1m1 0h2m1 0h2m2 0h4m2 0h1m3 0h2m3 0h1m1 0h1m1 0h4m1 0h1m2 0h1m1 0h3m1 0h2m4 0h1m2 0h1m1 0h1m1 0h3m1 0h1m3 0h1m1 0h1m1 0h1m3 0h3m2 0h1m1 0h1m2 0h2m1 0h1m1 0h2M4 76.5h1m1 0h1m1 0h3m2 0h1m1 0h1m7 0h6m3 0h6m2 0h4m4 0h2m3 0h2m2 0h1m4 0h4m1 0h1m2 0h1m2 0h3m2 0h1m6 0h3m2 0h2m2 0h2m1 0h1m4 0h1m4 0h4m3 0h2m2 0h1m1 0h4M5 77.5h1m1 0h1m1 0h1m1 0h1m1 0h2m3 0h1m2 0h2m2 0h2m1 0h1m3 0h1m1 0h3m1 0h2m1 0h2m1 0h2m1 0h4m3 0h4m1 0h2m1 0h2m1 0h2m1 0h2m3 0h2m1 0h4m1 0h2m1 0h1m3 0h1m2 0h1m1 0h1m1 0h1m3 0h1m2 0h1m1 0h4m1 0h1m2 0h4m3 0h4m1 0h1M4 78.5h1m3 0h1m1 0h1m2 0h3m1 0h1m2 0h1m4 0h3m1 0h3m2 0h4m1 0h3m2 0h5m1 0h3m2 0h2m3 0h1m4 0h1m1 0h1m2 0h1m2 0h2m1 0h2m1 0h2m6 0h2m1 0h3m3 0h1m4 0h2m1 0h3m2 0h1m3 0h4m6 0h2M5 79.5h5m1 0h1m1 0h1m4 0h2m2 0h1m4 0h1m1 0h7m2 0h2m3 0h3m1 0h1m3 0h1m3 0h1m2 0h2m2 0h2m1 0h1m1 0h2m1 0h1m2 0h2m2 0h4m1 0h2m1 0h2m2 0h2m2 0h1m1 0h1m2 0h8m2 0h1m1 0h1m2 0h1m1 0h2m4 0h1m1 0h1M6 80.5h1m1 0h4m1 0h4m2 0h1m2 0h3m1 0h1m2 0h1m1 0h1m2 0h2m1 0h1m1 0h1m3 0h2m4 0h2m1 0h2m2 0h1m10 0h3m2 0h2m2 0h1m6 0h2m1 0h1m1 0h3m4 0h1m4 0h1m1 0h4m2 0h2m1 0h4m1 0h1m6 0h2M4 81.5h1m1 0h2m3 0h4m1 0h1m1 0h3m1 0h5m2 0h1m3 0h1m1 0h1m1 0h2m3 0h1m1 0h1m1 0h1m2 0h2m1 0h2m2 0h2m3 0h2m1 0h2m1 0h2m1 0h1m1 0h2m1 0h2m1 0h1m1 0h1m2 0h2m6 0h2m4 0h1m1 0h6m1 0h1m2 0h2m3 0h3m1 0h1m2 0h1m1 0h2M4 82.5h3m1 0h4m2 0h1m4 0h5m2 0h1m3 0h1m2 0h1m2 0h3m1 0h2m2 0h1m1 0h1m1 0h1m3 0h1m4 0h1m2 0h3m1 0h3m2 0h3m3 0h1m3 0h3m1 0h1m2 0h1m1 0h3m1 0h1m1 0h2m1 0h1m2 0h1m2 0h2m1 0h4m2 0h1m1 0h1m1 0h3m2 0h2M9 83.5h1m1 0h1m2 0h1m1 0h2m1 0h5m3 0h2m1 0h2m1 0h4m1 0h1m2 0h1m1 0h1m1 0h3m1 0h1m1 0h1m1 0h1m3 0h2m2 0h3m1 0h1m2 0h5m2 0h1m5 0h1m1 0h1m3 0h3m1 0h2m1 0h2m1 0h2m4 0h3m2 0h2m3 0h1m2 0h1m2 0h3m1 0h1M6 84.5h9m2 0h1m2 0h1m1 0h5m2 0h1m1 0h1m4 0h4m2 0h1m1 0h2m2 0h2m1 0h1m3 0h3m2 0h1m1 0h1m3 0h1m2 0h1m2 0h3m1 0h1m1 0h1m2 0h2m1 0h5m2 0h4m1 0h1m1 0h2m1 0h1m1 0h4m2 0h1m1 0h2m1 0h11M5 85.5h1m1 0h2m5 0h1m1 0h1m1 0h5m2 0h1m3 0h6m6 0h1m1 0h1m4 0h1m1 0h1m2 0h7m3 0h1m1 0h2m1 0h2m1 0h3m1 0h1m1 0h2m2 0h1m1 0h1m1 0h1m1 0h1m1 0h1m1 0h2m1 0h3m1 0h3m3 0h3m3 0h1m3 0h1m2 0h3m1 0h2M7 86.5h1m1 0h2m2 0h1m5 0h2m3 0h9m2 0h4m1 0h1m1 0h1m2 0h2m1 0h2m3 0h2m1 0h1m2 0h1m3 0h1m2 0h1m1 0h3m4 0h1m5 0h1m2 0h2m1 0h2m1 0h2m1 0h1m3 0h2m1 0h1m1 0h1m1 0h1m1 0h2m2 0h1m1 0h2m1 0h5m1 0h3M4 87.5h2m6 0h3m1 0h2m1 0h1m1 0h1m1 0h5m1 0h2m4 0h1m2 0h1m1 0h1m1 0h1m1 0h2m3 0h1m1 0h3m2 0h2m1 0h5m2 0h2m3 0h2m1 0h4m3 0h1m1 0h2m1 0h1m1 0h1m1 0h1m1 0h2m5 0h2m1 0h2m1 0h4m1 0h1m4 0h3m1 0h1M4 88.5h1m3 0h5m3 0h1m1 0h1m2 0h1m2 0h5m3 0h5m5 0h1m2 0h2m3 0h3m1 0h3m1 0h9m1 0h1m1 0h4m2 0h3m4 0h1m3 0h6m1 0h1m5 0h1m3 0h1m1 0h2m1 0h1m2 0h1m3 0h6M4 89.5h5m3 0h5m5 0h3m1 0h3m3 0h1m3 0h1m1 0h6m2 0h3m2 0h1m2 0h3m3 0h1m3 0h2m1 0h1m2 0h4m1 0h5m1 0h1m1 0h3m1 0h2m3 0h2m1 0h6m3 0h2m2 0h3m2 0h1m1 0h2m3 0h1m3 0h1M8 90.5h1m1 0h1m1 0h3m3 0h1m1 0h5m1 0h2m1 0h2m1 0h1m1 0h1m1 0h2m1 0h1m2 0h3m5 0h3m2 0h3m2 0h1m1 0h1m1 0h1m2 0h1m1 0h1m4 0h2m3 0h1m1 0h2m1 0h1m3 0h1m1 0h1m1 0h4m1 0h1m1 0h2m2 0h2m2 0h1m3 0h1m1 0h1m1 0h2m1 0h1m1 0h3M4 91.5h2m1 0h2m3 0h2m2 0h1m2 0h3m3 0h3m1 0h2m1 0h1m3 0h2m1 0h1m2 0h1m3 0h4m2 0h4m1 0h1m2 0h1m3 0h4m1 0h1m4 0h1m1 0h6m2 0h1m1 0h1m1 0h1m3 0h1m1 0h5m1 0h1m4 0h2m2 0h1m2 0h1m1 0h1m1 0h1m3 0h1m2 0h2M6 92.5h7m1 0h2m1 0h2m1 0h2m2 0h2m1 0h1m2 0h1m1 0h5m4 0h3m1 0h3m1 0h2m1 0h1m2 0h2m2 0h16m3 0h1m2 0h2m1 0h1m3 0h9m1 0h2m1 0h2m1 0h1m1 0h3m3 0h1m2 0h6m1 0h1M4 93.5h1m1 0h1m1 0h1m2 0h3m1 0h1m2 0h8m1 0h1m1 0h1m2 0h3m1 0h1m7 0h2m1 0h2m3 0h1m1 0h5m2 0h1m1 0h1m1 0h1m2 0h1m2 0h2m4 0h1m3 0h1m1 0h1m4 0h2m2 0h6m2 0h1m1 0h3m2 0h2m4 0h1m3 0h5M4 94.5h3m3 0h2m1 0h2m1 0h4m1 0h2m3 0h4m4 0h1m1 0h1m1 0h1m2 0h2m1 0h3m1 0h1m1 0h1m1 0h1m4 0h2m1 0h1m1 0h1m2 0h1m1 0h4m1 0h6m1 0h2m8 0h1m3 0h1m1 0h2m1 0h1m1 0h1m1 0h1m1 0h2m1 0h1m1 0h1m1 0h2m5 0h3m1 0h2M4 95.5h1m1 0h2m1 0h1m1 0h2m1 0h2m1 0h2m2 0h5m3 0h1m1 0h3m1 0h2m1 0h2m1 0h1m1 0h1m1 0h1m3 0h1m2 0h4m2 0h2m3 0h1m1 0h4m1 0h2m1 0h3m7 0h2m6 0h1m2 0h1m1 0h1m1 0h1m1 0h2m1 0h2m3 0h3m1 0h2m1 0h2m2 0h1m1 0h2M5 96.5h1m2 0h3m2 0h1m3 0h1m1 0h1m3 0h2m2 0h2m1 0h1m1 0h3m2 0h7m2 0h1m3 0h1m2 0h3m2 0h1m1 0h1m1 0h1m3 0h3m3 0h1m1 0h3m3 0h2m1 0h2m1 0h1m6 0h1m1 0h3m3 0h3m3 0h2m1 0h5m4 0h3M4 97.5h6m1 0h4m4 0h1m1 0h1m1 0h1m4 0h3m1 0h3m1 0h2m3 0h4m1 0h2m4 0h4m2 0h1m1 0h2m2 0h1m1 0h1m1 0h1m1 0h1m4 0h1m1 0h2m3 0h7m2 0h1m2 0h1m2 0h2m1 0h1m5 0h2m2 0h3m1 0h1m3 0h4M6 98.5h3m1 0h2m1 0h2m3 0h1m1 0h1m1 0h3m1 0h5m6 0h3m2 0h1m7 0h3m1 0h3m1 0h1m1 0h1m3 0h4m3 0h1m2 0h5m2 0h2m1 0h1m1 0h2m1 0h1m1 0h1m1 0h5m1 0h1m1 0h3m1 0h2m1 0h1m5 0h1m3 0h2M7 99.5h1m6 0h2m1 0h3m3 0h2m2 0h1m1 0h1m1 0h2m1 0h2m3 0h2m1 0h4m1 0h1m1 0h1m1 0h1m1 0h1m4 0h1m2 0h2m1 0h2m1 0h3m1 0h2m3 0h1m4 0h4m2 0h1m1 0h2m1 0h1m3 0h2m3 0h1m1 0h1m1 0h4m1 0h2m2 0h1m1 0h2m1 0h1m1 0h2M7 100.5h1m1 0h3m5 0h1m1 0h3m1 0h1m3 0h1m3 0h1m2 0h1m1 0h1m2 0h3m1 0h3m1 0h8m2 0h3m1 0h2m4 0h5m2 0h4m1 0h1m1 0h4m1 0h1m1 0h1m5 0h2m2 0h1m6 0h3m1 0h1m2 0h1m1 0h2m1 0h2m2 0h2M4 101.5h3m1 0h1m2 0h1m2 0h1m1 0h3m1 0h1m3 0h4m2 0h1m2 0h1m1 0h1m2 0h1m5 0h5m1 0h2m3 0h2m1 0h11m3 0h1m3 0h1m4 0h1m1 0h1m2 0h3m5 0h2m2 0h1m2 0h3m1 0h1m2 0h2m4 0h1m3 0h1m2 0h3M4 102.5h1m5 0h1m2 0h2m2 0h1m2 0h3m1 0h2m1 0h2m2 0h3m2 0h1m2 0h1m1 0h3m2 0h2m2 0h1m4 0h2m1 0h1m1 0h7m3 0h1m1 0h3m1 0h1m2 0h1m1 0h1m2 0h5m1 0h7m2 0h1m3 0h2m3 0h1m2 0h5m5 0h1M7 103.5h1m3 0h1m1 0h1m2 0h1m1 0h2m7 0h2m4 0h3m1 0h1m1 0h3m3 0h1m2 0h2m1 0h1m1 0h1m1 0h1m1 0h1m1 0h1m2 0h1m4 0h1m2 0h1m2 0h1m2 0h1m4 0h1m1 0h1m4 0h1m2 0h1m1 0h1m4 0h2m1 0h1m1 0h3m1 0h1m1 0h1m1 0h4m1 0h2m1 0h3m1 0h2M5 104.5h1m3 0h6m1 0h2m1 0h3m5 0h1m2 0h2m1 0h2m1 0h2m1 0h2m1 0h1m4 0h1m1 0h2m1 0h1m2 0h2m1 0h1m7 0h1m1 0h3m3 0h1m2 0h1m4 0h2m1 0h2m3 0h1m6 0h4m1 0h6m2 0h2m2 0h1m1 0h2m1 0h2m1 0h3M4 105.5h1m6 0h2m2 0h1m2 0h2m2 0h5m1 0h1m8 0h1m1 0h3m3 0h2m3 0h3m2 0h2m6 0h1m2 0h1m3 0h1m2 0h3m2 0h2m2 0h1m11 0h1m1 0h1m1 0h9m1 0h6m1 0h2m2 0h1m1 0h1M6 106.5h1m2 0h3m4 0h2m2 0h1m1 0h1m3 0h1m2 0h2m1 0h5m2 0h4m2 0h1m1 0h2m1 0h2m4 0h1m3 0h1m2 0h2m1 0h1m1 0h3m1 0h1m1 0h1m2 0h1m2 0h3m1 0h3m1 0h1m1 0h2m1 0h2m1 0h3m3 0h2m1 0h3m3 0h1m2 0h2m2 0h1m1 0h1m1 0h1M4 107.5h3m6 0h1m1 0h3m1 0h1m1 0h1m1 0h1m1 0h2m3 0h1m1 0h1m6 0h1m2 0h1m1 0h1m1 0h8m1 0h2m1 0h1m2 0h2m4 0h1m1 0h3m5 0h2m1 0h2m5 0h1m4 0h2m1 0h1m1 0h2m4 0h1m1 0h4m1 0h2m2 0h2m1 0h1m3 0h2m1 0h1M5 108.5h2m1 0h1m1 0h1m1 0h3m1 0h1m1 0h2m2 0h3m1 0h1m1 0h1m1 0h2m1 0h1m1 0h1m1 0h2m1 0h1m3 0h3m3 0h1m1 0h1m1 0h2m1 0h1m1 0h2m1 0h1m2 0h4m1 0h2m1 0h2m1 0h2m6 0h1m1 0h1m2 0h1m1 0h1m1 0h1m1 0h4m1 0h1m1 0h1m3 0h1m2 0h1m1 0h1m2 0h1m1 0h1m1 0h1m2 0h1m1 0h2M5 109.5h4m2 0h1m4 0h1m1 0h4m3 0h1m1 0h1m3 0h1m4 0h4m5 0h1m1 0h6m2 0h2m2 0h2m1 0h1m1 0h4m1 0h3m1 0h1m1 0h2m1 0h1m1 0h2m2 0h1m9 0h4m1 0h2m1 0h1m1 0h1m1 0h5m1 0h2m1 0h1m3 0h2m2 0h1M5 110.5h2m3 0h1m3 0h1m3 0h4m1 0h3m2 0h1m2 0h2m4 0h3m1 0h2m1 0h1m3 0h3m1 0h4m1 0h3m3 0h3m3 0h1m2 0h1m2 0h2m2 0h1m3 0h1m1 0h2m2 0h1m2 0h3m1 0h1m1 0h1m2 0h1m2 0h1m1 0h3m3 0h2m2 0h1m2 0h1m1 0h1m1 0h2M6 111.5h2m1 0h1m2 0h1m1 0h3m2 0h1m1 0h5m1 0h1m1 0h1m3 0h1m3 0h1m1 0h2m2 0h1m3 0h4m2 0h1m1 0h1m1 0h1m1 0h1m1 0h2m1 0h1m4 0h3m4 0h1m2 0h9m5 0h1m2 0h1m1 0h2m2 0h2m1 0h1m1 0h3m2 0h1m4 0h2M4 112.5h1m1 0h3m1 0h2m1 0h1m2 0h3m1 0h3m3 0h2m1 0h1m1 0h3m3 0h3m3 0h1m7 0h4m2 0h1m2 0h1m2 0h1m3 0h2m3 0h1m1 0h3m4 0h4m1 0h2m2 0h1m1 0h1m1 0h2m2 0h1m6 0h1m1 0h2m1 0h1m4 0h1m1 0h1m3 0h2M5 113.5h1m1 0h3m2 0h1m1 0h5m3 0h1m2 0h2m2 0h5m3 0h1m1 0h2m2 0h1m1 0h1m1 0h7m1 0h5m7 0h1m2 0h1m1 0h4m2 0h3m5 0h2m7 0h1m1 0h1m2 0h6m1 0h3m2 0h1m4 0h1m5 0h1M4 114.5h2m1 0h1m1 0h2m4 0h3m1 0h1m1 0h1m1 0h2m4 0h1m1 0h5m1 0h1m4 0h1m2 0h2m1 0h1m2 0h4m1 0h2m3 0h1m1 0h1m2 0h1m1 0h1m4 0h2m1 0h1m1 0h2m3 0h1m1 0h1m4 0h1m1 0h2m2 0h1m1 0h5m2 0h1m3 0h1m1 0h2m3 0h3m1 0h1m1 0h1m1 0h1M4 115.5h1m1 0h4m1 0h2m2 0h2m2 0h3m1 0h1m1 0h1m1 0h1m4 0h3m1 0h4m1 0h2m8 0h2m1 0h1m1 0h2m1 0h1m5 0h1m2 0h3m1 0h2m1 0h1m1 0h4m2 0h1m2 0h3m2 0h2m1 0h2m1 0h2m1 0h4m1 0h1m1 0h3m1 0h2m1 0h2m1 0h1m1 0h2m2 0h1M5 116.5h3m2 0h2m2 0h3m4 0h1m2 0h4m4 0h7m2 0h2m1 0h1m1 0h1m1 0h1m1 0h2m6 0h1m1 0h5m4 0h3m2 0h1m1 0h1m2 0h1m1 0h1m3 0h2m1 0h5m1 0h1m2 0h5m1 0h2m1 0h3m3 0h1m3 0h5m3 0h1M12 117.5h1m1 0h5m1 0h1m3 0h1m2 0h3m1 0h2m3 0h1m1 0h1m1 0h3m1 0h2m1 0h1m1 0h5m1 0h2m3 0h1m3 0h1m1 0h1m1 0h1m2 0h3m1 0h1m1 0h2m2 0h6m1 0h1m3 0h2m1 0h1m1 0h5m1 0h1m5 0h1m6 0h1m3 0h1m2 0h2M4 118.5h7m3 0h2m4 0h2m3 0h1m1 0h2m1 0h3m1 0h1m1 0h2m2 0h1m1 0h4m1 0h1m1 0h3m2 0h1m3 0h1m1 0h1m1 0h1m1 0h1m1 0h1m2 0h1m1 0h1m4 0h2m1 0h3m2 0h1m3 0h1m1 0h1m1 0h2m1 0h4m5 0h1m1 0h2m2 0h2m3 0h2m1 0h1m1 0h1M4 119.5h1m5 0h1m5 0h2m2 0h1m2 0h8m1 0h1m3 0h1m3 0h2m1 0h1m3 0h4m1 0h1m1 0h1m1 0h1m3 0h1m3 0h1m1 0h3m4 0h2m1 0h2m1 0h1m1 0h1m6 0h1m3 0h1m2 0h8m6 0h3m1 0h1m2 0h1m3 0h1M4 120.5h1m1 0h3m1 0h1m1 0h1m1 0h2m1 0h1m4 0h1m1 0h1m2 0h1m1 0h8m1 0h1m2 0h1m1 0h2m1 0h1m1 0h2m3 0h4m2 0h8m1 0h6m3 0h1m1 0h2m2 0h2m3 0h10m2 0h3m1 0h1m6 0h1m1 0h2m1 0h9M4 121.5h1m1 0h3m1 0h1m2 0h2m1 0h1m1 0h1m1 0h4m1 0h2m5 0h1m3 0h3m2 0h1m2 0h5m3 0h1m1 0h1m5 0h1m2 0h1m1 0h1m5 0h5m1 0h1m1 0h4m2 0h1m1 0h1m1 0h1m1 0h1m3 0h1m1 0h2m3 0h3m2 0h1m1 0h3m2 0h2m1 0h2m4 0h1M4 122.5h1m1 0h3m1 0h1m1 0h1m1 0h1m1 0h2m4 0h2m2 0h1m1 0h2m1 0h1m2 0h3m1 0h7m1 0h1m1 0h2m1 0h5m2 0h5m2 0h1m1 0h2m2 0h6m1 0h3m1 0h2m1 0h6m1 0h5m2 0h1m1 0h6m1 0h1m3 0h1m3 0h1m2 0h4m1 0h1M4 123.5h1m5 0h1m5 0h3m1 0h1m1 0h2m2 0h4m3 0h1m1 0h1m1 0h1m1 0h1m1 0h1m3 0h11m1 0h1m1 0h1m1 0h1m1 0h2m1 0h1m2 0h2m5 0h1m1 0h3m3 0h4m3 0h1m3 0h2m3 0h1m2 0h1m1 0h1m1 0h2m2 0h3m1 0h1m1 0h2m1 0h2m1 0h1M4 124.5h7m1 0h4m2 0h3m1 0h1m2 0h1m1 0h2m1 0h3m4 0h2m1 0h4m5 0h1m3 0h1m1 0h3m2 0h1m1 0h1m1 0h1m8 0h1m3 0h7m1 0h1m1 0h2m1 0h1m1 0h1m1 0h5m4 0h6m4 0h1m1 0h1m1 0h2m1 0h1m1 0h3"/></svg>
