<svg xmlns="http://www.w3.org/2000/svg" viewBox="0 0 93 93" shape-rendering="crispEdges"><path fill="#ffffff" d="M0 0h93v93H0z"/><path stroke="#000000" d="M4 4.5h7m4 0h1m2 0h1m1 0h1m2 0h2m1 0h5m2 0h2m3 0h1m1 0h1m5 0h5m3 0h1m1 0h3m2 0h2m2 0h1m2 0h1m1 0h2m5 0h2m1 0h1m1 0h7M4 5.5h1m5 0h1m1 0h1m2 0h1m1 0h1m4 0h3m1 0h1m1 0h1m1 0h1m3 0h1m8 0h1m1 0h1m4 0h1m1 0h1m3 0h1m1 0h2m2 0h2m1 0h3m1 0h3m5 0h3m2 0h1m5 0h1M4 6.5h1m1 0h3m1 0h1m1 0h1m7 0h1m1 0h3m4 0h2m2 0h1m6 0h3m1 0h2m1 0h1m1 0h1m4 0h3m2 0h1m2 0h3m3 0h1m1 0h1m1 0h1m1 0h2m2 0h1m3 0h1m1 0h3m1 0h1M4 7.5h1m1 0h3m1 0h1m3 0h2m1 0h2m1 0h1m1 0h2m6 0h3m1 0h1m2 0h1m2 0h1m1 0h1m2 0h1m1 0h1m1 0h1m1 0h2m1 0h3m1 0h2m1 0h2m2 0h1m1 0h1m1 0h1m2 0h1m1 0h1m2 0h1m1 0h1m2 0h1m1 0h3m1 0h1M4 8.5h1m1 0h3m1 0h1m1 0h4m1 0h2m1 0h5m1 0h1m1 0h3m1 0h5m2 0h2m1 0h1m4 0h1m1 0h1m2 0h1m1 0h7m2 0h3m1 0h2m2 0h1m3 0h4m3 0h1m1 0h3m1 0h1M4 9.5h1m5 0h1m1 0h5m3 0h3m1 0h2m1 0h1m1 0h1m2 0h1m3 0h1m1 0h2m2 0h3m1 0h3m2 0h6m3 0h5m1 0h2m2 0h3m4 0h1m1 0h1m2 0h1m5 0h1M4 10.5h7m1 0h1m1 0h1m1 0h1m1 0h1m1 0h1m1 0h1m1 0h1m1 0h1m1 0h1m1 0h1m1 0h1m1 0h1m1 0h1m1 0h1m1 0h1m1 0h1m1 0h1m1 0h1m1 0h1m1 0h1m1 0h1m1 0h1m1 0h1m1 0h1m1 0h1m1 0h1m1 0h1m1 0h1m1 0h1m1 0h1m1 0h1m1 0h1m1 0h1m1 0h1m1 0h1m1 0h7M12 11.5h2m1 0h3m1 0h1m1 0h3m4 0h1m1 0h1m1 0h1m3 0h1m1 0h2m2 0h1m2 0h2m3 0h1m2 0h1m2 0h1m3 0h1m1 0h3m1 0h2m1 0h3m4 0h1m2 0h2M4 12.5h2m1 0h1m2 0h2m6 0h4m4 0h1m1 0h3m1 0h7m2 0h1m2 0h2m1 0h2m3 0h1m2 0h6m1 0h1m7 0h2m3 0h1m2 0h2m2 0h3m1 0h2M6 13.5h1m2 0h1m2 0h2m1 0h1m1 0h4m1 0h1m1 0h2m1 0h2m3 0h2m1 0h1m1 0h1m3 0h1m1 0h1m3 0h2m1 0h2m2 0h1m2 0h2m4 0h5m1 0h1m2 0h1m1 0h5m1 0h2m4 0h3M4 14.5h2m1 0h11m3 0h2m4 0h1m2 0h1m1 0h2m1 0h1m3 0h2m3 0h5m2 0h2m3 0h1m3 0h3m1 0h2m4 0h1m1 0h1m1 0h12m1 0h2M4 15.5h1m1 0h3m4 0h1m1 0h1m2 0h2m3 0h1m1 0h1m1 0h3m3 0h1m4 0h8m1 0h1m1 0h1m2 0h1m4 0h1m2 0h1m5 0h2m4 0h2m1 0h3m2 0h1m1 0h2m1 0h1m1 0h2M6 16.5h1m2 0h2m2 0h4m1 0h2m2 0h1m1 0h2m3 0h2m1 0h7m2 0h2m1 0h1m2 0h7m2 0h3m4 0h6m1 0h2m1 0h1m2 0h2m1 0h4m3 0h1m1 0h1M8 17.5h1m5 0h7m3 0h4m4 0h2m4 0h1m3 0h1m4 0h1m4 0h3m1 0h1m3 0h1m2 0h1m2 0h1m1 0h2m1 0h1m2 0h2m3 0h1m1 0h1m3 0h3M4 18.5h1m1 0h1m2 0h3m6 0h1m1 0h2m3 0h3m3 0h1m1 0h1m2 0h1m1 0h2m1 0h2m1 0h2m1 0h1m1 0h1m1 0h3m1 0h3m2 0h3m5 0h2m1 0h1m1 0h5m1 0h3m2 0h1m1 0h1M5 19.5h3m1 0h1m1 0h1m1 0h2m1 0h1m6 0h3m3 0h1m1 0h4m1 0h2m5 0h2m1 0h1m1 0h1m2 0h2m1 0h2m1 0h3m1 0h2m3 0h1m1 0h2m1 0h2m5 0h2m1 0h1m1 0h2m1 0h1M5 20.5h1m4 0h1m1 0h2m4 0h5m2 0h3m1 0h2m1 0h2m1 0h3m2 0h1m1 0h1m3 0h1m1 0h1m1 0h2m4 0h1m1 0h1m1 0h1m1 0h1m2 0h1m1 0h1m5 0h2m1 0h1m1 0h4m1 0h3m2 0h1M7 21.5h3m1 0h2m1 0h3m1 0h1m1 0h2m2 0h2m1 0h1m1 0h1m3 0h1m3 0h5m2 0h1m2 0h1m2 0h1m3 0h2m3 0h1m3 0h1m1 0h2m1 0h2m6 0h2m2 0h1m2 0h3m2 0h1M5 22.5h1m2 0h1m1 0h7m1 0h2m1 0h1m2 0h2m4 0h1m2 0h4m2 0h1m1 0h1m7 0h2m1 0h7m2 0h2m1 0h1m1 0h1m1 0h6m1 0h1m2 0h2m1 0h2m2 0h1m1 0h1M4 23.5h1m1 0h4m3 0h1m2 0h1m8 0h2m1 0h1m4 0h1m1 0h2m2 0h1m2 0h1m3 0h7m6 0h2m1 0h2m1 0h1m1 0h1m2 0h3m1 0h2m3 0h1m1 0h1m1 0h6M5 24.5h2m2 0h3m2 0h1m1 0h1m2 0h2m1 0h1m1 0h1m1 0h1m2 0h4m1 0h2m3 0h1m6 0h5m2 0h2m2 0h1m1 0h5m1 0h1m3 0h1m1 0h1m2 0h2m1 0h1m1 0h2m1 0h1M6 25.5h1m1 0h2m1 0h1m1 0h1m2 0h1m1 0h1m1 0h2m2 0h3m1 0h2m2 0h1m6 0h1m1 0h4m2 0h1m3 0h6m1 0h1m2 0h1m1 0h4m2 0h1m1 0h1m1 0h2m1 0h1m1 0h3m2 0h5M4 26.5h2m1 0h6m2 0h1m2 0h4m1 0h1m6 0h2m1 0h2m3 0h1m1 0h1m1 0h2m1 0h3m1 0h1m1 0h1m1 0h1m1 0h1m1 0h1m1 0h1m5 0h4m3 0h3m1 0h4m2 0h1m4 0h2M4 27.5h1m2 0h2m4 0h4m2 0h1m2 0h1m2 0h2m3 0h3m2 0h1m2 0h1m1 0h1m2 0h2m2 0h2m1 0h1m2 0h2m5 0h1m6 0h1m2 0h1m2 0h1m2 0h1m1 0h1m1 0h1m2 0h6M5 28.5h1m2 0h1m1 0h1m3 0h3m1 0h1m7 0h1m1 0h7m1 0h2m6 0h6m1 0h1m1 0h1m1 0h1m1 0h1m1 0h3m2 0h1m2 0h1m1 0h1m3 0h1m1 0h1m2 0h2m3 0h2m1 0h1m1 0h1M8 29.5h1m2 0h2m1 0h2m1 0h1m4 0h12m1 0h1m1 0h3m1 0h2m1 0h1m2 0h3m2 0h4m2 0h3m2 0h1m2 0h1m3 0h1m2 0h3m1 0h2m1 0h1m1 0h2m1 0h1m1 0h2M6 30.5h3m1 0h1m2 0h3m1 0h1m1 0h1m2 0h1m1 0h2m1 0h3m1 0h1m2 0h3m2 0h3m1 0h1m5 0h1m1 0h3m2 0h1m3 0h2m1 0h1m1 0h1m2 0h1m1 0h2m4 0h2m2 0h1m1 0h3M6 31.5h2m1 0h1m3 0h2m1 0h1m1 0h1m1 0h2m1 0h3m1 0h4m1 0h6m1 0h1m3 0h2m2 0h3m3 0h5m1 0h1m1 0h1m2 0h2m1 0h3m3 0h3m1 0h2m2 0h1m2 0h1M8 32.5h5m1 0h1m1 0h1m2 0h2m3 0h1m1 0h3m1 0h1m1 0h6m2 0h1m1 0h2m2 0h2m1 0h2m3 0h9m2 0h1m2 0h1m1 0h6m4 0h5m1 0h1M4 33.5h1m2 0h2m3 0h1m2 0h1m3 0h1m1 0h2m1 0h2m2 0h3m1 0h1m3 0h1m2 0h3m3 0h1m1 0h1m2 0h1m2 0h4m3 0h3m1 0h5m1 0h2m4 0h1m3 0h1m3 0h3m1 0h1M6 34.5h1m1 0h1m1 0h1m1 0h5m4 0h1m1 0h1m1 0h1m2 0h5m1 0h1m1 0h2m2 0h3m4 0h2m1 0h1m1 0h3m1 0h1m1 0h1m1 0h1m2 0h3m1 0h3m2 0h2m1 0h2m2 0h2m1 0h1m1 0h1m1 0h1M4 35.5h1m3 0h1m3 0h4m2 0h1m1 0h3m3 0h2m2 0h1m1 0h1m3 0h1m3 0h1m3 0h3m2 0h2m2 0h1m1 0h2m3 0h1m1 0h2m1 0h1m1 0h1m1 0h1m2 0h2m3 0h1m1 0h2m3 0h1m1 0h3M4 36.5h1m1 0h7m3 0h2m1 0h1m4 0h1m1 0h1m2 0h1m1 0h7m1 0h2m1 0h2m1 0h1m5 0h2m3 0h7m2 0h2m1 0h4m2 0h4m1 0h6m3 0h1M6 37.5h1m1 0h2m4 0h1m3 0h1m3 0h1m4 0h1m3 0h2m4 0h1m2 0h1m2 0h1m3 0h3m4 0h1m2 0h5m2 0h1m1 0h2m3 0h1m2 0h3m1 0h2m6 0h1m1 0h1M4 38.5h1m1 0h1m1 0h4m3 0h4m2 0h2m3 0h1m2 0h3m1 0h2m1 0h3m1 0h2m2 0h1m3 0h2m1 0h3m2 0h2m2 0h1m1 0h1m1 0h1m1 0h1m1 0h1m1 0h9m1 0h1m1 0h1m1 0h2m1 0h2M4 39.5h1m1 0h2m4 0h1m1 0h1m2 0h2m2 0h1m2 0h1m2 0h1m7 0h2m2 0h3m2 0h1m1 0h2m1 0h2m2 0h1m1 0h1m2 0h2m2 0h4m4 0h3m1 0h1m3 0h1m2 0h2m1 0h1m2 0h1M5 40.5h2m1 0h1m1 0h5m1 0h1m2 0h1m1 0h1m2 0h1m2 0h1m1 0h6m2 0h3m2 0h1m4 0h1m2 0h4m2 0h2m2 0h4m1 0h5m1 0h2m2 0h2m1 0h1m1 0h1m1 0h3m1 0h3M4 41.5h1m1 0h2m4 0h2m1 0h1m2 0h2m2 0h2m7 0h1m1 0h1m2 0h7m3 0h1m6 0h1m2 0h2m3 0h1m2 0h1m1 0h1m5 0h1m2 0h2m3 0h1m2 0h1m2 0h3M6 42.5h1m1 0h1m1 0h1m2 0h1m1 0h1m5 0h1m1 0h1m1 0h3m4 0h2m1 0h1m1 0h3m2 0h2m1 0h3m1 0h3m2 0h2m2 0h4m1 0h1m1 0h6m1 0h3m1 0h4m1 0h2m3 0h2M6 43.5h2m4 0h1m3 0h2m1 0h1m4 0h1m2 0h2m2 0h1m1 0h1m1 0h1m1 0h1m2 0h1m2 0h3m1 0h1m1 0h6m2 0h1m4 0h4m1 0h2m1 0h9m1 0h2m1 0h6M4 44.5h5m1 0h2m4 0h1m2 0h1m1 0h1m1 0h2m1 0h2m1 0h3m2 0h1m2 0h1m2 0h4m1 0h3m1 0h1m1 0h1m2 0h2m1 0h1m5 0h1m1 0h3m1 0h5m3 0h2m3 0h5M6 45.5h1m1 0h2m3 0h3m1 0h5m2 0h6m1 0h2m3 0h1m1 0h1m2 0h2m1 0h1m1 0h2m1 0h2m3 0h1m1 0h7m3 0h2m6 0h1m2 0h2m1 0h5m2 0h2M4 46.5h1m2 0h1m2 0h4m3 0h1m1 0h4m2 0h1m1 0h2m1 0h1m1 0h2m1 0h2m1 0h3m3 0h1m3 0h1m1 0h3m1 0h1m1 0h1m2 0h1m5 0h3m1 0h2m2 0h3m4 0h3M4 47.5h2m1 0h2m4 0h2m1 0h4m1 0h1m1 0h1m1 0h1m2 0h2m1 0h1m4 0h1m2 0h2m2 0h4m1 0h1m1 0h1m3 0h2m1 0h2m3 0h4m3 0h2m1 0h1m2 0h1m3 0h2m1 0h1m2 0h2M7 48.5h4m2 0h1m1 0h1m2 0h1m8 0h1m1 0h2m3 0h2m4 0h4m3 0h2m2 0h1m4 0h2m1 0h1m1 0h4m2 0h2m2 0h1m4 0h2m2 0h2m1 0h1m2 0h1m1 0h1M5 49.5h2m1 0h1m4 0h2m6 0h3m1 0h1m1 0h3m2 0h1m2 0h1m1 0h1m4 0h4m1 0h4m2 0h1m1 0h1m1 0h1m1 0h3m3 0h2m6 0h1m2 0h2m2 0h3m3 0h2M5 50.5h1m1 0h4m1 0h2m2 0h2m4 0h2m1 0h1m3 0h1m2 0h4m3 0h1m1 0h2m1 0h1m1 0h3m3 0h6m4 0h1m1 0h1m5 0h1m2 0h2m1 0h1m1 0h4m3 0h1M4 51.5h2m1 0h2m3 0h5m1 0h1m1 0h1m1 0h3m2 0h1m1 0h1m2 0h1m4 0h1m1 0h1m1 0h2m3 0h2m2 0h1m2 0h4m1 0h4m1 0h1m2 0h1m1 0h1m2 0h1m2 0h2m1 0h2m1 0h2m2 0h3M6 52.5h2m1 0h2m1 0h2m3 0h1m1 0h1m2 0h2m1 0h2m5 0h1m1 0h2m1 0h1m1 0h4m1 0h8m2 0h6m1 0h1m5 0h1m5 0h2m3 0h1m2 0h1m1 0h2m1 0h1M5 53.5h4m5 0h2m2 0h6m1 0h1m3 0h2m1 0h1m1 0h5m1 0h1m2 0h2m2 0h5m2 0h1m1 0h2m3 0h2m6 0h1m2 0h3m1 0h1m1 0h2m3 0h1m1 0h1m1 0h1M5 54.5h1m1 0h1m2 0h6m1 0h1m2 0h1m1 0h5m1 0h1m6 0h7m1 0h2m2 0h1m2 0h1m1 0h1m3 0h3m1 0h1m1 0h1m5 0h2m1 0h2m2 0h1m2 0h2m3 0h1m3 0h1M4 55.5h1m1 0h3m3 0h4m1 0h3m5 0h1m2 0h3m4 0h2m9 0h1m3 0h1m1 0h1m1 0h3m1 0h2m3 0h1m2 0h6m3 0h3m2 0h1m1 0h1m2 0h1m2 0h1M4 56.5h9m1 0h1m2 0h2m2 0h3m3 0h1m1 0h2m1 0h6m2 0h2m2 0h1m1 0h1m1 0h1m1 0h3m1 0h7m1 0h2m1 0h2m6 0h1m2 0h3m1 0h5m1 0h1m1 0h1M4 57.5h1m1 0h1m1 0h1m3 0h2m5 0h1m1 0h1m2 0h1m4 0h2m1 0h1m3 0h1m2 0h2m2 0h2m3 0h1m3 0h1m1 0h3m3 0h2m1 0h2m1 0h2m1 0h2m1 0h1m3 0h2m1 0h2m3 0h2m2 0h1M4 58.5h1m1 0h3m1 0h1m1 0h4m5 0h1m1 0h3m1 0h2m3 0h1m1 0h1m1 0h4m1 0h3m1 0h4m1 0h1m1 0h2m2 0h1m1 0h1m1 0h1m1 0h1m2 0h1m1 0h3m1 0h1m1 0h1m1 0h1m1 0h1m1 0h2m1 0h1m1 0h2m2 0h1M4 59.5h3m1 0h1m3 0h1m1 0h1m1 0h1m1 0h2m2 0h2m1 0h1m2 0h1m1 0h1m1 0h1m3 0h1m1 0h3m2 0h4m5 0h1m3 0h1m3 0h2m1 0h2m1 0h1m2 0h2m3 0h5m1 0h1m3 0h4M4 60.5h1m1 0h8m2 0h1m5 0h1m6 0h1m1 0h6m1 0h1m3 0h2m3 0h1m1 0h5m2 0h5m1 0h2m2 0h1m2 0h1m2 0h6m1 0h7M6 61.5h2m3 0h1m2 0h1m3 0h1m4 0h1m1 0h1m1 0h1m9 0h1m1 0h1m3 0h1m1 0h1m1 0h1m1 0h4m2 0h1m3 0h1m1 0h3m5 0h1m2 0h1m1 0h2m1 0h2m2 0h1m1 0h5M4 62.5h5m1 0h2m2 0h1m4 0h1m2 0h2m2 0h1m2 0h3m2 0h2m1 0h1m2 0h1m2 0h2m2 0h3m3 0h5m2 0h1m2 0h2m2 0h7m1 0h1m1 0h1m1 0h1m2 0h5m1 0h1M5 63.5h1m3 0h1m2 0h1m3 0h2m2 0h1m2 0h1m2 0h1m1 0h1m2 0h2m2 0h1m3 0h1m1 0h1m1 0h1m1 0h2m1 0h2m3 0h1m1 0h1m1 0h1m2 0h2m2 0h4m4 0h1m2 0h1m3 0h1m1 0h3m2 0h1M5 64.5h1m1 0h6m1 0h1m1 0h1m1 0h3m1 0h2m2 0h1m1 0h2m1 0h4m1 0h1m1 0h1m1 0h3m6 0h2m1 0h1m4 0h1m2 0h4m3 0h1m3 0h5m1 0h3m1 0h5m2 0h1M4 65.5h1m1 0h3m2 0h2m1 0h1m1 0h1m3 0h6m4 0h1m4 0h2m2 0h1m1 0h1m1 0h5m2 0h1m4 0h1m2 0h1m1 0h4m2 0h1m1 0h1m2 0h3m3 0h1m1 0h4m2 0h1m1 0h1M5 66.5h2m1 0h3m4 0h2m1 0h1m1 0h3m1 0h1m1 0h1m1 0h1m1 0h1m1 0h2m2 0h2m2 0h1m4 0h1m2 0h2m1 0h2m3 0h1m1 0h1m2 0h1m3 0h1m3 0h1m2 0h2m2 0h4m1 0h1m1 0h2m2 0h2M5 67.5h1m1 0h1m5 0h3m1 0h2m2 0h3m1 0h1m3 0h1m1 0h1m1 0h1m1 0h2m1 0h2m2 0h3m1 0h2m1 0h1m1 0h3m1 0h1m5 0h1m3 0h2m1 0h2m3 0h1m1 0h2m2 0h2m3 0h4M5 68.5h1m1 0h2m1 0h1m2 0h2m2 0h1m1 0h1m1 0h2m1 0h2m2 0h1m2 0h3m1 0h1m1 0h1m1 0h3m3 0h1m1 0h1m1 0h1m1 0h1m4 0h1m1 0h1m4 0h1m1 0h2m4 0h1m3 0h2m2 0h2m3 0h1m3 0h1M4 69.5h1m2 0h2m2 0h1m1 0h2m1 0h1m4 0h2m1 0h1m1 0h2m3 0h2m2 0h2m2 0h4m3 0h2m2 0h2m3 0h7m1 0h1m1 0h1m3 0h1m3 0h1m3 0h2m1 0h1m1 0h2m3 0h1M6 70.5h1m3 0h4m1 0h3m2 0h1m3 0h2m4 0h1m1 0h1m1 0h1m1 0h2m4 0h6m2 0h3m1 0h2m1 0h2m1 0h3m1 0h1m2 0h1m2 0h2m2 0h2m2 0h1m2 0h2m1 0h1m1 0h2M4 71.5h1m3 0h2m2 0h1m2 0h5m1 0h1m2 0h1m2 0h1m2 0h1m4 0h3m1 0h3m3 0h1m2 0h3m5 0h2m1 0h1m1 0h1m1 0h4m1 0h2m1 0h1m3 0h10m2 0h2M4 72.5h1m1 0h2m2 0h2m1 0h4m3 0h1m1 0h9m4 0h1m1 0h1m1 0h1m4 0h2m2 0h2m1 0h1m1 0h3m1 0h1m3 0h1m1 0h3m3 0h3m1 0h3m4 0h2m2 0h5M4 73.5h2m1 0h1m1 0h1m2 0h3m4 0h2m2 0h2m2 0h1m3 0h3m1 0h4m3 0h2m3 0h6m2 0h2m2 0h1m1 0h1m2 0h4m2 0h4m2 0h3m4 0h1m1 0h2M5 74.5h2m1 0h4m2 0h1m4 0h1m2 0h1m2 0h3m2 0h1m1 0h1m1 0h1m1 0h1m1 0h1m1 0h2m1 0h1m1 0h2m1 0h1m2 0h1m7 0h3m1 0h1m7 0h2m1 0h1m1 0h1m2 0h1m1 0h4m1 0h1M5 75.5h1m3 0h1m1 0h1m1 0h1m1 0h1m2 0h1m1 0h1m1 0h4m1 0h1m1 0h1m1 0h1m2 0h7m2 0h1m1 0h1m3 0h1m1 0h1m1 0h1m1 0h2m2 0h4m1 0h1m1 0h2m2 0h1m1 0h2m1 0h1m2 0h1m2 0h2m1 0h2m1 0h1M4 76.5h1m1 0h1m1 0h4m1 0h1m2 0h2m3 0h3m1 0h1m7 0h1m6 0h2m1 0h3m4 0h1m1 0h1m1 0h4m1 0h2m1 0h3m1 0h3m4 0h1m2 0h1m4 0h3m2 0h1m1 0h1M9 77.5h1m3 0h2m1 0h3m2 0h1m1 0h2m1 0h1m1 0h1m1 0h2m1 0h5m1 0h1m2 0h1m2 0h1m2 0h2m1 0h3m1 0h1m2 0h3m3 0h4m2 0h2m1 0h2m1 0h1m1 0h2m5 0h1m2 0h1M4 78.5h3m1 0h1m1 0h1m1 0h1m8 0h1m3 0h2m1 0h1m1 0h2m1 0h1m6 0h3m1 0h2m2 0h3m1 0h1m2 0h2m4 0h1m1 0h5m2 0h4m4 0h1m4 0h1m1 0h2m1 0h1M5 79.5h1m1 0h1m1 0h1m1 0h2m3 0h2m3 0h2m1 0h2m3 0h2m2 0h3m1 0h1m3 0h1m2 0h1m4 0h1m2 0h2m2 0h2m1 0h6m1 0h1m1 0h2m2 0h1m1 0h2m2 0h1m5 0h3m1 0h1M4 80.5h1m5 0h3m1 0h1m6 0h1m1 0h2m1 0h2m1 0h1m2 0h5m2 0h6m2 0h1m1 0h1m2 0h1m1 0h7m3 0h2m1 0h2m1 0h1m4 0h1m1 0h11M12 81.5h4m3 0h1m2 0h1m2 0h1m4 0h1m1 0h1m3 0h1m1 0h1m2 0h3m1 0h1m2 0h1m2 0h1m1 0h1m1 0h2m3 0h1m1 0h4m5 0h3m1 0h1m1 0h1m2 0h1m3 0h3m1 0h1M4 82.5h7m1 0h4m1 0h1m4 0h1m1 0h1m3 0h1m3 0h1m1 0h1m1 0h2m1 0h1m4 0h3m2 0h2m1 0h5m1 0h1m1 0h1m3 0h1m5 0h2m2 0h2m1 0h4m1 0h1m1 0h1m3 0h1M4 83.5h1m5 0h1m2 0h1m2 0h1m1 0h1m1 0h1m2 0h3m1 0h2m1 0h1m1 0h1m3 0h2m1 0h1m7 0h2m1 0h1m1 0h2m2 0h1m3 0h3m2 0h1m2 0h4m1 0h1m1 0h1m3 0h2m3 0h5M4 84.5h1m1 0h3m1 0h1m9 0h1m1 0h1m4 0h11m1 0h1m3 0h4m1 0h1m2 0h4m1 0h6m1 0h1m1 0h1m1 0h2m3 0h1m2 0h2m1 0h1m1 0h5m3 0h1M4 85.5h1m1 0h3m1 0h1m1 0h2m3 0h5m1 0h1m3 0h1m2 0h1m2 0h2m1 0h2m1 0h2m2 0h1m1 0h3m1 0h3m1 0h1m1 0h2m2 0h1m5 0h1m1 0h3m1 0h1m4 0h5m1 0h1m1 0h4M4 86.5h1m1 0h3m1 0h1m2 0h5m1 0h10m3 0h9m1 0h6m2 0h1m1 0h1m1 0h1m2 0h2m2 0h1m3 0h1m2 0h3m1 0h3m1 0h2m3 0h1m4 0h1m1 0h1M4 87.5h1m5 0h1m1 0h1m1 0h1m3 0h1m1 0h1m3 0h1m1 0h3m2 0h1m1 0h2m1 0h2m1 0h1m2 0h1m2 0h1m2 0h2m1 0h1m3 0h1m2 0h1m4 0h1m1 0h1m1 0h2m1 0h4m3 0h3m1 0h3m1 0h1M4 88.5h7m1 0h4m1 0h1m1 0h1m1 0h1m1 0h2m3 0h3m2 0h4m1 0h4m1 0h1m1 0h2m1 0h4m1 0h1m1 0h1m5 0h1m1 0h2m6 0h1m1 0h1m2 0h3m1 0h3m2 0h1m1 0h2"/></svg>
