<svg xmlns="http://www.w3.org/2000/svg" viewBox="0 0 109 109" shape-rendering="crispEdges"><path fill="#ffffff" d="M0 0h109v109H0z"/><path stroke="#000000" d="M4 4.5h7m1 0h1m1 0h2m2 0h1m3 0h4m2 0h8m3 0h1m1 0h1m9 0h2m1 0h2m4 0h2m1 0h1m2 0h3m1 0h2m3 0h1m1 0h1m2 0h2m2 0h1m1 0h1m1 0h1m2 0h2m1 0h2m2 0h7M4 5.5h1m5 0h1m2 0h7m1 0h1m1 0h2m2 0h3m1 0h1m2 0h1m1 0h3m1 0h4m2 0h2m3 0h1m1 0h1m1 0h1m2 0h3m3 0h1m1 0h5m1 0h1m1 0h2m1 0h1m2 0h1m1 0h1m4 0h1m1 0h1m2 0h1m5 0h1m5 0h1M4 6.5h1m1 0h3m1 0h1m3 0h1m1 0h1m1 0h4m1 0h2m1 0h1m7 0h2m9 0h2m3 0h1m2 0h5m1 0h4m2 0h6m4 0h5m2 0h2m1 0h2m2 0h1m1 0h1m3 0h1m2 0h1m1 0h3m1 0h1M4 7.5h1m1 0h3m1 0h1m2 0h1m1 0h1m4 0h2m3 0h1m1 0h1m2 0h6m2 0h2m3 0h1m2 0h1m1 0h2m1 0h3m3 0h1m4 0h2m1 0h1m1 0h1m1 0h3m3 0h1m1 0h1m2 0h1m2 0h2m3 0h3m1 0h4m2 0h1m1 0h3m1 0h1M4 8.5h1m1 0h3m1 0h1m4 0h2m1 0h1m1 0h2m1 0h1m1 0h11m2 0h3m2 0h1m4 0h9m2 0h2m1 0h2m1 0h4m2 0h1m2 0h6m1 0h1m1 0h2m2 0h2m2 0h4m1 0h1m1 0h1m1 0h3m1 0h1M4 9.5h1m5 0h1m2 0h7m2 0h1m1 0h2m2 0h1m1 0h1m3 0h3m3 0h1m2 0h3m3 0h1m2 0h1m3 0h2m1 0h1m1 0h2m6 0h2m1 0h3m3 0h1m5 0h1m1 0h3m3 0h1m2 0h1m2 0h1m5 0h1M4 10.5h7m1 0h1m1 0h1m1 0h1m1 0h1m1 0h1m1 0h1m1 0h1m1 0h1m1 0h1m1 0h1m1 0h1m1 0h1m1 0h1m1 0h1m1 0h1m1 0h1m1 0h1m1 0h1m1 0h1m1 0h1m1 0h1m1 0h1m1 0h1m1 0h1m1 0h1m1 0h1m1 0h1m1 0h1m1 0h1m1 0h1m1 0h1m1 0h1m1 0h1m1 0h1m1 0h1m1 0h1m1 0h1m1 0h1m1 0h1m1 0h1m1 0h1m1 0h1m1 0h1m1 0h7M12 11.5h6m2 0h1m1 0h1m1 0h2m3 0h2m3 0h1m1 0h3m2 0h2m3 0h2m1 0h2m1 0h1m3 0h2m2 0h4m1 0h3m4 0h1m1 0h1m3 0h1m1 0h2m1 0h1m3 0h1m1 0h2M4 12.5h2m1 0h2m1 0h1m4 0h1m2 0h1m1 0h1m1 0h2m1 0h11m1 0h1m1 0h2m1 0h2m1 0h5m1 0h6m5 0h2m2 0h1m3 0h1m2 0h8m1 0h1m2 0h2m2 0h3m1 0h1m1 0h1m2 0h1m5 0h1M9 13.5h1m2 0h1m2 0h1m3 0h1m5 0h1m2 0h3m2 0h11m3 0h4m3 0h1m2 0h2m6 0h2m1 0h1m1 0h1m3 0h1m1 0h1m1 0h1m2 0h1m2 0h3m1 0h5m2 0h1m2 0h5M4 14.5h4m1 0h2m1 0h1m1 0h2m3 0h1m1 0h2m2 0h1m1 0h1m1 0h2m1 0h2m1 0h2m8 0h2m1 0h1m10 0h1m1 0h2m1 0h1m1 0h1m1 0h1m3 0h1m6 0h2m2 0h1m1 0h2m1 0h1m3 0h2m2 0h1m5 0h1m1 0h1M4 15.5h1m1 0h1m1 0h1m2 0h1m2 0h1m1 0h1m2 0h3m1 0h1m2 0h1m1 0h1m1 0h2m2 0h3m1 0h6m1 0h3m3 0h1m1 0h1m1 0h3m1 0h1m1 0h3m1 0h1m1 0h1m1 0h3m1 0h1m2 0h2m2 0h3m3 0h1m1 0h1m1 0h7m1 0h2m1 0h1m2 0h1M5 16.5h3m1 0h4m2 0h1m1 0h2m1 0h1m3 0h4m1 0h3m4 0h2m2 0h2m1 0h2m1 0h1m1 0h1m1 0h3m1 0h3m1 0h1m4 0h3m4 0h2m4 0h1m2 0h1m1 0h5m2 0h1m5 0h2m1 0h1m1 0h6M5 17.5h1m1 0h3m1 0h1m1 0h2m1 0h2m1 0h1m7 0h1m2 0h3m4 0h3m1 0h1m1 0h1m1 0h1m2 0h2m4 0h1m1 0h1m2 0h1m1 0h2m5 0h1m2 0h1m1 0h1m1 0h2m1 0h1m1 0h1m1 0h1m1 0h1m2 0h1m1 0h1m1 0h1m1 0h2m1 0h3m1 0h3m1 0h1M4 18.5h4m1 0h3m1 0h3m1 0h3m1 0h2m1 0h1m1 0h1m1 0h3m1 0h3m1 0h1m1 0h1m1 0h1m1 0h1m1 0h2m1 0h1m1 0h2m4 0h1m1 0h1m3 0h1m2 0h1m3 0h1m1 0h1m1 0h2m1 0h2m4 0h1m1 0h3m6 0h1m2 0h3m1 0h1m2 0h1m1 0h1M4 19.5h1m3 0h2m6 0h4m2 0h1m1 0h2m1 0h1m1 0h2m1 0h1m2 0h1m1 0h1m1 0h1m1 0h1m1 0h4m3 0h1m2 0h1m2 0h1m1 0h4m1 0h1m1 0h3m3 0h3m4 0h3m3 0h2m1 0h1m1 0h1m5 0h1m2 0h1m1 0h5M5 20.5h1m2 0h1m1 0h4m1 0h1m1 0h2m1 0h4m1 0h1m1 0h1m3 0h1m1 0h1m2 0h1m2 0h1m2 0h1m4 0h1m1 0h1m1 0h3m1 0h1m2 0h2m1 0h1m5 0h4m2 0h5m1 0h2m1 0h1m1 0h2m1 0h2m1 0h1m2 0h3m4 0h1m2 0h2M5 21.5h4m4 0h2m1 0h1m1 0h1m4 0h1m1 0h2m3 0h3m3 0h3m1 0h5m2 0h2m1 0h1m1 0h2m1 0h1m3 0h1m1 0h2m1 0h6m1 0h1m2 0h6m2 0h2m3 0h1m4 0h3m4 0h1M4 22.5h1m2 0h5m1 0h1m1 0h9m1 0h2m2 0h3m4 0h2m1 0h1m1 0h1m3 0h7m2 0h2m2 0h2m2 0h2m1 0h1m2 0h1m1 0h3m1 0h2m3 0h2m2 0h2m1 0h2m1 0h1m3 0h3m1 0h1m1 0h1m1 0h4M8 23.5h1m2 0h4m6 0h5m1 0h3m3 0h3m1 0h9m1 0h2m5 0h1m1 0h1m1 0h1m1 0h2m2 0h3m3 0h2m2 0h4m4 0h1m2 0h1m1 0h1m3 0h1m1 0h1m3 0h1m1 0h1M4 24.5h1m2 0h1m1 0h2m1 0h3m3 0h2m3 0h2m3 0h2m1 0h2m3 0h1m1 0h1m1 0h2m1 0h2m1 0h1m2 0h1m1 0h5m2 0h3m1 0h6m1 0h4m1 0h2m7 0h2m1 0h2m1 0h1m1 0h1m1 0h5m1 0h2M6 25.5h4m1 0h1m2 0h3m3 0h1m1 0h4m2 0h3m2 0h2m1 0h1m1 0h3m1 0h1m3 0h1m1 0h1m1 0h1m1 0h1m2 0h1m1 0h1m2 0h4m1 0h2m1 0h1m2 0h2m1 0h1m2 0h3m2 0h3m1 0h2m1 0h1m1 0h2m3 0h1m3 0h1M5 26.5h3m1 0h2m2 0h2m5 0h4m1 0h4m3 0h2m3 0h2m1 0h1m3 0h3m2 0h5m4 0h1m2 0h1m2 0h2m2 0h3m1 0h1m3 0h2m1 0h1m2 0h2m3 0h5m2 0h3m1 0h2m2 0h2M5 27.5h1m1 0h1m1 0h1m1 0h2m2 0h1m2 0h2m3 0h3m1 0h1m1 0h1m4 0h2m2 0h2m2 0h3m6 0h1m1 0h1m2 0h3m2 0h1m3 0h1m7 0h1m3 0h5m3 0h1m8 0h3m1 0h1m1 0h2m2 0h1M4 28.5h1m2 0h1m2 0h1m1 0h1m2 0h1m1 0h2m5 0h2m1 0h3m2 0h1m1 0h3m1 0h3m1 0h8m2 0h1m1 0h2m2 0h4m3 0h1m3 0h1m2 0h1m4 0h1m1 0h4m1 0h2m2 0h3m1 0h1m1 0h2m1 0h3m1 0h2M4 29.5h3m1 0h2m2 0h2m1 0h6m1 0h1m1 0h3m1 0h1m2 0h1m1 0h4m1 0h4m5 0h1m1 0h1m9 0h4m1 0h3m2 0h2m3 0h1m1 0h1m3 0h2m1 0h1m1 0h1m4 0h1m1 0h1m5 0h1m2 0h2m1 0h1M6 30.5h7m1 0h4m2 0h1m2 0h2m1 0h1m1 0h1m1 0h5m3 0h3m4 0h1m1 0h1m2 0h1m1 0h7m3 0h1m1 0h1m2 0h2m1 0h9m1 0h2m1 0h1m2 0h1m1 0h1m3 0h3m1 0h6m1 0h2M6 31.5h3m3 0h1m1 0h1m1 0h5m3 0h1m1 0h1m1 0h1m1 0h1m3 0h3m1 0h1m2 0h2m1 0h4m1 0h1m1 0h2m3 0h5m1 0h1m1 0h1m2 0h1m1 0h3m1 0h2m3 0h3m2 0h1m3 0h1m1 0h2m1 0h1m1 0h3m3 0h1M4 32.5h1m2 0h2m1 0h1m1 0h1m1 0h2m1 0h4m1 0h2m1 0h2m2 0h2m1 0h1m1 0h6m2 0h2m1 0h2m3 0h1m1 0h1m1 0h1m1 0h6m1 0h3m4 0h5m1 0h1m1 0h1m5 0h3m1 0h1m1 0h1m1 0h1m3 0h1m1 0h1m1 0h1m3 0h1M4 33.5h1m1 0h3m3 0h5m5 0h3m1 0h2m2 0h1m3 0h1m3 0h1m1 0h1m2 0h3m1 0h2m3 0h1m3 0h1m2 0h3m1 0h1m4 0h3m1 0h1m1 0h1m3 0h1m1 0h4m1 0h1m3 0h2m1 0h1m2 0h2m3 0h1m2 0h2M4 34.5h10m4 0h1m2 0h1m3 0h14m2 0h3m2 0h1m1 0h1m2 0h7m1 0h1m3 0h3m1 0h1m1 0h1m1 0h1m2 0h5m3 0h2m1 0h1m2 0h2m5 0h8m1 0h1M7 35.5h2m2 0h1m2 0h2m2 0h4m1 0h1m1 0h3m4 0h1m1 0h2m1 0h1m3 0h2m1 0h2m2 0h1m3 0h1m1 0h2m2 0h4m6 0h3m5 0h3m1 0h4m2 0h2m2 0h1m7 0h2m1 0h3M4 36.5h2m1 0h6m1 0h1m1 0h1m2 0h1m1 0h1m2 0h1m2 0h2m1 0h1m3 0h4m1 0h3m1 0h1m2 0h2m1 0h1m1 0h3m6 0h5m2 0h8m2 0h1m1 0h2m4 0h3m1 0h1m5 0h2m1 0h3m2 0h1M4 37.5h5m2 0h1m4 0h1m5 0h2m2 0h1m3 0h2m1 0h2m4 0h1m1 0h1m1 0h3m1 0h1m1 0h1m2 0h1m2 0h3m2 0h9m1 0h2m2 0h1m1 0h2m2 0h1m1 0h1m3 0h3m3 0h1m1 0h4m1 0h1m3 0h1M4 38.5h8m3 0h1m4 0h1m1 0h2m2 0h1m3 0h1m1 0h1m3 0h3m1 0h1m4 0h4m1 0h1m1 0h1m1 0h2m2 0h3m1 0h1m1 0h2m6 0h1m2 0h1m2 0h4m3 0h1m4 0h5m1 0h1m3 0h1M4 39.5h1m1 0h2m1 0h1m2 0h1m5 0h1m3 0h1m6 0h1m10 0h1m1 0h2m1 0h2m1 0h2m2 0h4m1 0h1m1 0h1m4 0h1m5 0h3m2 0h4m1 0h1m3 0h1m1 0h1m1 0h1m1 0h1m1 0h1m2 0h1m1 0h8M5 40.5h1m3 0h7m1 0h1m2 0h3m2 0h6m1 0h1m1 0h1m1 0h1m2 0h2m1 0h4m2 0h2m1 0h2m1 0h2m2 0h1m1 0h3m2 0h2m3 0h3m2 0h1m3 0h1m1 0h1m1 0h3m1 0h1m2 0h1m4 0h2m2 0h1m2 0h2M6 41.5h2m1 0h1m1 0h2m3 0h1m2 0h1m1 0h4m1 0h2m1 0h2m1 0h1m2 0h1m1 0h2m1 0h1m3 0h2m2 0h4m5 0h5m1 0h1m3 0h2m1 0h1m2 0h1m2 0h2m1 0h1m2 0h1m2 0h1m1 0h3m2 0h1m1 0h1m3 0h2m1 0h1M5 42.5h1m2 0h1m1 0h1m1 0h5m1 0h7m1 0h1m1 0h3m2 0h1m2 0h1m1 0h1m1 0h4m1 0h3m2 0h4m3 0h1m1 0h1m1 0h2m2 0h2m3 0h2m3 0h2m2 0h5m2 0h1m1 0h1m1 0h2m1 0h2m1 0h5m1 0h2M5 43.5h1m1 0h3m1 0h3m2 0h5m1 0h4m2 0h1m3 0h2m8 0h1m3 0h2m1 0h5m3 0h1m3 0h1m2 0h1m1 0h1m1 0h1m1 0h1m1 0h3m1 0h1m1 0h4m2 0h1m4 0h1m1 0h2m2 0h1m2 0h1m1 0h3M5 44.5h1m1 0h5m1 0h1m2 0h3m1 0h3m2 0h7m1 0h4m1 0h5m1 0h3m1 0h6m2 0h2m1 0h3m1 0h1m2 0h1m1 0h1m4 0h1m1 0h1m3 0h1m1 0h4m1 0h1m1 0h5m2 0h2m1 0h1m2 0h4M5 45.5h2m4 0h2m1 0h2m3 0h2m3 0h1m1 0h3m1 0h2m2 0h6m2 0h1m2 0h2m3 0h3m3 0h1m2 0h2m1 0h3m4 0h1m2 0h1m1 0h3m3 0h6m3 0h1m1 0h1m2 0h3m1 0h1m3 0h3M4 46.5h1m3 0h4m1 0h2m2 0h3m2 0h1m7 0h2m1 0h1m1 0h1m3 0h1m1 0h3m2 0h3m1 0h1m1 0h1m1 0h4m2 0h8m1 0h1m1 0h2m2 0h2m5 0h1m1 0h1m2 0h2m1 0h1m1 0h1m2 0h4m3 0h3M5 47.5h4m5 0h6m2 0h2m5 0h5m2 0h1m1 0h1m1 0h4m4 0h1m2 0h3m3 0h1m2 0h1m2 0h2m3 0h5m2 0h3m3 0h1m1 0h1m2 0h1m3 0h1m1 0h1m2 0h2m3 0h1m1 0h1m1 0h1M4 48.5h3m3 0h3m1 0h3m2 0h2m1 0h1m1 0h2m1 0h1m1 0h2m1 0h1m3 0h1m1 0h1m1 0h2m1 0h2m1 0h1m1 0h1m3 0h2m2 0h5m1 0h1m2 0h8m3 0h2m1 0h1m1 0h3m1 0h3m1 0h1m1 0h2m1 0h6m1 0h1m1 0h2M4 49.5h3m1 0h1m2 0h1m1 0h3m2 0h1m1 0h1m3 0h1m1 0h1m1 0h1m1 0h2m1 0h2m1 0h2m3 0h6m1 0h2m4 0h1m3 0h1m1 0h2m1 0h2m5 0h1m3 0h1m3 0h1m1 0h1m2 0h2m4 0h1m1 0h1m1 0h1m2 0h2m1 0h1m4 0h1M7 50.5h2m1 0h1m2 0h2m2 0h2m1 0h1m3 0h2m1 0h2m1 0h1m2 0h2m5 0h3m1 0h1m1 0h1m3 0h1m1 0h1m1 0h3m1 0h3m5 0h1m1 0h4m1 0h1m1 0h1m2 0h1m1 0h1m2 0h2m1 0h1m4 0h1m1 0h3m2 0h3m1 0h2M4 51.5h2m1 0h1m3 0h1m4 0h1m1 0h1m2 0h1m1 0h3m1 0h2m2 0h1m1 0h2m1 0h3m3 0h1m2 0h1m1 0h2m2 0h2m1 0h1m2 0h4m1 0h5m2 0h1m1 0h2m2 0h3m1 0h3m2 0h3m1 0h3m3 0h1m2 0h1m3 0h1m2 0h1M4 52.5h2m2 0h5m2 0h1m2 0h1m1 0h1m2 0h1m3 0h2m1 0h8m2 0h1m2 0h2m2 0h3m2 0h6m1 0h1m1 0h3m1 0h3m2 0h1m1 0h1m1 0h7m4 0h3m1 0h2m1 0h1m1 0h8m1 0h2M4 53.5h2m1 0h2m3 0h2m3 0h2m1 0h3m3 0h1m1 0h1m1 0h1m3 0h2m1 0h2m2 0h2m3 0h1m1 0h1m1 0h1m1 0h1m3 0h2m1 0h1m4 0h1m1 0h2m3 0h1m2 0h1m3 0h3m1 0h2m2 0h3m1 0h1m2 0h4m3 0h2m1 0h1M4 54.5h1m1 0h3m1 0h1m1 0h3m2 0h1m2 0h3m1 0h1m3 0h3m1 0h1m1 0h1m3 0h2m1 0h1m4 0h2m4 0h1m1 0h1m1 0h1m1 0h3m1 0h1m1 0h1m1 0h1m4 0h1m2 0h1m1 0h1m1 0h1m2 0h5m1 0h2m1 0h1m3 0h1m1 0h1m1 0h1m1 0h1m3 0h1M5 55.5h4m3 0h3m2 0h1m3 0h1m4 0h1m1 0h1m1 0h1m3 0h2m1 0h2m5 0h6m2 0h1m3 0h1m1 0h2m1 0h1m1 0h1m1 0h1m1 0h3m1 0h1m1 0h2m3 0h1m1 0h5m5 0h1m2 0h1m2 0h1m3 0h1m3 0h1M5 56.5h2m1 0h5m1 0h1m4 0h7m1 0h2m1 0h9m1 0h1m1 0h2m1 0h1m1 0h4m1 0h5m1 0h1m1 0h3m1 0h1m1 0h1m1 0h2m1 0h2m1 0h6m1 0h2m1 0h3m5 0h1m1 0h8m2 0h1M6 57.5h1m2 0h1m1 0h2m1 0h2m4 0h2m1 0h2m3 0h2m3 0h3m4 0h2m1 0h2m2 0h2m2 0h1m1 0h2m3 0h2m2 0h2m5 0h1m2 0h4m3 0h3m1 0h2m2 0h7m4 0h1m2 0h1m1 0h1M4 58.5h3m3 0h1m1 0h1m2 0h2m1 0h4m2 0h4m1 0h2m1 0h1m1 0h2m3 0h1m1 0h1m1 0h1m3 0h1m1 0h2m1 0h4m3 0h2m1 0h1m1 0h2m3 0h7m2 0h1m3 0h4m1 0h1m2 0h3m1 0h3m2 0h1m1 0h1M5 59.5h1m2 0h2m3 0h3m1 0h2m4 0h1m3 0h6m2 0h1m2 0h1m4 0h1m2 0h1m2 0h3m2 0h5m1 0h3m7 0h4m2 0h2m1 0h2m1 0h1m1 0h3m2 0h1m1 0h4m3 0h1m1 0h1m3 0h1M4 60.5h3m2 0h2m1 0h1m1 0h4m1 0h1m1 0h1m1 0h3m1 0h4m1 0h1m5 0h3m1 0h2m1 0h1m1 0h1m1 0h1m1 0h3m5 0h1m1 0h1m4 0h1m1 0h1m1 0h3m3 0h2m3 0h1m2 0h1m2 0h1m1 0h2m1 0h1m1 0h2m4 0h1m1 0h1M7 61.5h2m2 0h1m2 0h3m2 0h2m3 0h3m1 0h1m1 0h1m2 0h5m5 0h3m2 0h1m1 0h2m1 0h1m4 0h3m2 0h5m1 0h1m6 0h3m1 0h1m5 0h1m1 0h4m2 0h1m1 0h2m2 0h2m2 0h1M4 62.5h4m1 0h2m1 0h5m3 0h1m4 0h1m2 0h1m5 0h3m1 0h1m3 0h1m2 0h1m1 0h1m1 0h1m1 0h2m2 0h1m1 0h1m5 0h1m1 0h2m2 0h2m1 0h1m2 0h2m3 0h1m2 0h2m3 0h3m1 0h2m1 0h1m3 0h1m2 0h1M8 63.5h2m2 0h1m1 0h2m2 0h1m7 0h1m1 0h2m2 0h1m1 0h1m2 0h5m4 0h1m1 0h4m1 0h2m2 0h1m1 0h1m2 0h2m1 0h1m5 0h1m2 0h3m1 0h1m2 0h1m1 0h3m1 0h2m1 0h1m1 0h1m2 0h7M6 64.5h1m3 0h1m1 0h9m4 0h1m1 0h6m1 0h4m1 0h2m1 0h1m1 0h1m1 0h5m2 0h2m1 0h2m8 0h2m3 0h1m2 0h2m1 0h3m2 0h1m2 0h6m1 0h2m1 0h1m1 0h4m2 0h2M12 65.5h1m1 0h2m1 0h4m5 0h6m1 0h3m1 0h2m3 0h2m5 0h3m1 0h2m2 0h3m1 0h2m1 0h5m3 0h2m1 0h5m3 0h2m2 0h4m2 0h3m4 0h2m1 0h2M5 66.5h4m1 0h1m2 0h2m1 0h6m4 0h2m1 0h1m1 0h4m1 0h1m1 0h2m4 0h1m1 0h6m2 0h2m3 0h2m1 0h1m2 0h2m3 0h2m1 0h5m1 0h1m2 0h1m3 0h2m5 0h1m4 0h1m2 0h3M5 67.5h1m2 0h1m3 0h3m1 0h1m3 0h1m1 0h3m2 0h4m2 0h2m2 0h1m1 0h2m2 0h3m1 0h1m4 0h1m1 0h2m1 0h3m1 0h1m1 0h2m4 0h1m2 0h3m2 0h2m2 0h2m1 0h1m2 0h2m1 0h2m1 0h1m1 0h3m1 0h1m3 0h1M4 68.5h1m3 0h3m4 0h4m1 0h1m1 0h2m2 0h1m1 0h1m4 0h2m1 0h1m1 0h1m4 0h1m2 0h1m1 0h5m2 0h4m1 0h2m5 0h1m1 0h2m1 0h1m3 0h2m2 0h5m1 0h2m3 0h1m1 0h1m2 0h1m6 0h1M5 69.5h1m8 0h1m2 0h1m1 0h1m4 0h2m2 0h1m1 0h1m1 0h3m1 0h1m3 0h5m1 0h2m3 0h1m1 0h2m2 0h1m6 0h2m1 0h1m2 0h1m1 0h1m1 0h1m3 0h1m1 0h1m1 0h2m3 0h3m1 0h1m3 0h1m2 0h2m1 0h2m1 0h1M5 70.5h3m2 0h3m5 0h1m1 0h1m2 0h3m3 0h1m1 0h1m2 0h1m7 0h1m5 0h2m1 0h3m1 0h1m1 0h2m4 0h1m3 0h2m2 0h1m1 0h5m1 0h1m2 0h3m1 0h1m1 0h1m1 0h5m1 0h9M4 71.5h6m1 0h1m2 0h1m2 0h1m2 0h2m1 0h1m8 0h1m1 0h1m1 0h2m1 0h1m5 0h2m1 0h1m1 0h2m1 0h1m1 0h1m2 0h2m1 0h1m2 0h3m1 0h1m1 0h1m1 0h2m2 0h1m1 0h1m1 0h3m1 0h1m1 0h2m1 0h1m5 0h4M4 72.5h1m1 0h1m1 0h3m2 0h1m1 0h3m1 0h1m2 0h1m1 0h3m1 0h1m1 0h2m3 0h3m2 0h2m1 0h1m5 0h3m7 0h1m1 0h2m1 0h1m1 0h3m4 0h2m4 0h3m1 0h1m2 0h1m2 0h2m1 0h2m5 0h3m1 0h2M4 73.5h3m1 0h2m1 0h2m2 0h8m2 0h2m4 0h3m1 0h2m1 0h1m2 0h3m4 0h1m1 0h2m1 0h7m5 0h2m1 0h1m1 0h1m1 0h2m7 0h5m1 0h4m1 0h1m1 0h1m1 0h3m2 0h1m2 0h1M4 74.5h1m3 0h6m1 0h1m2 0h1m1 0h2m1 0h2m2 0h1m2 0h7m4 0h1m1 0h1m1 0h2m3 0h9m4 0h2m2 0h1m1 0h2m1 0h7m1 0h2m2 0h1m1 0h1m1 0h4m1 0h1m1 0h6m1 0h1M4 75.5h1m3 0h1m3 0h2m2 0h2m1 0h2m3 0h2m3 0h2m3 0h7m1 0h1m1 0h1m1 0h1m5 0h1m3 0h6m2 0h2m1 0h1m1 0h3m1 0h2m3 0h3m4 0h1m2 0h1m4 0h4m3 0h1m2 0h2M4 76.5h2m1 0h2m1 0h1m1 0h1m1 0h4m1 0h2m1 0h1m1 0h7m1 0h1m1 0h1m2 0h5m1 0h1m1 0h1m3 0h1m1 0h2m1 0h1m1 0h2m7 0h1m1 0h6m1 0h1m1 0h1m1 0h2m2 0h1m1 0h2m1 0h2m1 0h1m1 0h1m1 0h1m1 0h1m1 0h1m1 0h1M4 77.5h2m2 0h1m3 0h1m1 0h1m3 0h1m2 0h1m3 0h1m2 0h3m3 0h1m2 0h2m4 0h4m4 0h2m3 0h4m1 0h2m2 0h2m2 0h2m3 0h1m3 0h1m1 0h1m2 0h2m1 0h2m2 0h1m2 0h1m2 0h1m3 0h2M4 78.5h2m1 0h8m1 0h2m1 0h1m1 0h2m4 0h1m2 0h5m2 0h3m2 0h2m5 0h1m1 0h7m2 0h2m3 0h3m3 0h1m2 0h12m1 0h1m1 0h3m1 0h8M4 79.5h1m2 0h3m1 0h2m2 0h1m5 0h1m1 0h1m4 0h1m1 0h3m1 0h1m1 0h1m2 0h1m1 0h1m6 0h4m1 0h2m3 0h2m1 0h1m1 0h2m2 0h4m3 0h2m2 0h1m2 0h1m2 0h1m1 0h1m2 0h6m1 0h1m2 0h3m1 0h1M6 80.5h1m1 0h3m5 0h2m4 0h3m1 0h1m1 0h5m1 0h1m1 0h5m2 0h3m5 0h4m3 0h1m1 0h3m1 0h3m1 0h1m1 0h1m3 0h2m2 0h1m3 0h1m5 0h2m3 0h1m2 0h9M4 81.5h1m2 0h1m1 0h1m1 0h2m1 0h1m3 0h2m1 0h2m2 0h1m1 0h6m1 0h1m2 0h2m2 0h2m1 0h1m1 0h1m2 0h5m5 0h2m2 0h1m3 0h2m1 0h1m1 0h4m2 0h1m3 0h5m1 0h2m2 0h1m2 0h4m1 0h1m2 0h2M5 82.5h1m2 0h4m2 0h1m1 0h1m1 0h5m1 0h4m2 0h2m1 0h6m2 0h3m1 0h1m2 0h1m2 0h1m2 0h2m2 0h1m4 0h3m4 0h4m1 0h3m1 0h1m1 0h1m4 0h1m1 0h1m1 0h1m1 0h1m1 0h4m6 0h1M4 83.5h1m1 0h1m4 0h1m1 0h2m2 0h2m1 0h3m2 0h1m1 0h3m1 0h1m5 0h3m1 0h2m1 0h2m1 0h2m1 0h6m1 0h2m1 0h2m3 0h2m1 0h1m1 0h3m1 0h7m1 0h1m2 0h1m4 0h1m2 0h3m1 0h1m3 0h2M4 84.5h1m2 0h4m1 0h2m1 0h3m1 0h4m2 0h2m1 0h1m1 0h3m1 0h1m2 0h2m1 0h2m2 0h3m4 0h2m3 0h4m1 0h2m3 0h2m2 0h3m3 0h2m1 0h4m2 0h1m3 0h1m2 0h1m1 0h2m1 0h1m1 0h1m2 0h1m1 0h1M4 85.5h1m2 0h1m1 0h1m1 0h3m2 0h1m4 0h7m2 0h4m1 0h1m1 0h2m1 0h1m3 0h2m1 0h4m3 0h1m3 0h2m2 0h1m2 0h1m2 0h2m3 0h3m2 0h3m4 0h3m1 0h2m1 0h3m3 0h1m1 0h5M4 86.5h3m2 0h4m2 0h1m1 0h1m1 0h2m3 0h2m1 0h1m2 0h2m2 0h6m1 0h1m4 0h1m1 0h1m1 0h2m1 0h2m3 0h3m1 0h6m2 0h2m1 0h2m3 0h1m1 0h2m1 0h2m1 0h1m1 0h2m1 0h1m2 0h3M4 87.5h2m3 0h1m2 0h3m4 0h2m2 0h1m1 0h2m1 0h2m5 0h1m2 0h2m2 0h3m2 0h1m1 0h1m2 0h2m1 0h4m2 0h1m1 0h3m1 0h3m3 0h2m1 0h1m1 0h1m1 0h3m1 0h1m1 0h1m1 0h1m1 0h4m4 0h1m1 0h1m1 0h2M6 88.5h8m4 0h1m1 0h1m3 0h4m1 0h2m6 0h2m2 0h1m1 0h1m1 0h5m2 0h3m1 0h4m1 0h1m1 0h1m1 0h2m1 0h2m2 0h1m4 0h1m1 0h3m1 0h1m5 0h1m1 0h2m4 0h1m1 0h1m1 0h1M6 89.5h2m4 0h4m3 0h2m3 0h4m1 0h2m1 0h1m2 0h1m1 0h2m6 0h2m2 0h3m1 0h7m3 0h3m1 0h1m1 0h2m3 0h1m1 0h1m3 0h1m3 0h1m3 0h4m1 0h3m2 0h1m1 0h1m1 0h3M4 90.5h1m1 0h3m1 0h4m1 0h5m6 0h1m3 0h1m1 0h1m1 0h1m2 0h3m3 0h1m1 0h2m2 0h1m2 0h1m2 0h1m4 0h5m1 0h2m5 0h1m2 0h1m3 0h2m1 0h4m7 0h4m4 0h2M5 91.5h4m2 0h4m1 0h2m2 0h4m1 0h2m1 0h3m1 0h2m5 0h1m4 0h2m2 0h3m1 0h2m1 0h1m1 0h1m2 0h1m1 0h1m1 0h1m2 0h4m1 0h1m1 0h1m1 0h1m1 0h2m2 0h4m2 0h1m1 0h5m2 0h2m4 0h1M4 92.5h1m1 0h2m2 0h1m1 0h3m3 0h1m4 0h1m1 0h1m1 0h3m1 0h1m2 0h2m1 0h1m2 0h4m2 0h4m2 0h1m1 0h3m3 0h5m2 0h1m2 0h1m4 0h2m5 0h5m2 0h1m3 0h5m2 0h1m1 0h1m1 0h1M4 93.5h1m1 0h3m2 0h1m1 0h2m1 0h1m2 0h3m2 0h1m1 0h1m1 0h1m1 0h1m1 0h2m3 0h1m2 0h1m2 0h1m3 0h2m1 0h1m1 0h2m1 0h1m1 0h4m1 0h2m1 0h4m3 0h2m1 0h1m1 0h2m1 0h3m1 0h1m2 0h1m1 0h1m3 0h5m5 0h1M4 94.5h1m2 0h2m1 0h3m1 0h1m7 0h1m1 0h1m1 0h1m1 0h1m1 0h1m2 0h3m1 0h3m2 0h1m1 0h1m1 0h4m1 0h2m2 0h1m1 0h1m1 0h3m2 0h1m1 0h2m2 0h4m1 0h1m1 0h1m2 0h1m1 0h3m1 0h5m1 0h1m4 0h8M4 95.5h1m1 0h2m1 0h1m2 0h1m3 0h2m4 0h1m1 0h1m5 0h1m2 0h1m1 0h5m2 0h1m1 0h1m1 0h2m1 0h1m1 0h3m2 0h2m1 0h3m3 0h8m1 0h1m2 0h1m5 0h1m3 0h1m1 0h1m3 0h2m1 0h1m1 0h2m1 0h1m2 0h1M8 96.5h1m1 0h2m1 0h4m1 0h2m1 0h7m2 0h7m2 0h3m1 0h2m2 0h1m2 0h1m1 0h7m1 0h5m2 0h1m3 0h2m1 0h5m1 0h1m5 0h2m1 0h3m1 0h2m1 0h6m1 0h2M12 97.5h2m1 0h1m3 0h5m1 0h1m2 0h1m1 0h1m3 0h3m2 0h1m3 0h2m1 0h5m1 0h1m3 0h3m2 0h1m1 0h1m1 0h3m1 0h2m2 0h2m3 0h2m1 0h1m2 0h4m2 0h3m3 0h1m3 0h1m2 0h1M4 98.5h7m2 0h3m5 0h5m1 0h4m1 0h1m1 0h4m2 0h2m3 0h2m1 0h1m2 0h2m1 0h1m1 0h1m1 0h1m2 0h1m1 0h3m3 0h1m1 0h2m1 0h1m1 0h1m1 0h1m1 0h2m1 0h2m1 0h1m5 0h2m1 0h2m1 0h1m1 0h2m2 0h1M4 99.5h1m5 0h1m3 0h2m1 0h1m1 0h2m4 0h3m2 0h1m3 0h1m1 0h1m2 0h3m2 0h2m1 0h2m2 0h2m3 0h1m1 0h3m3 0h2m4 0h1m3 0h1m3 0h1m2 0h1m1 0h2m1 0h3m1 0h7m3 0h4M4 100.5h1m1 0h3m1 0h1m1 0h2m1 0h1m1 0h1m1 0h1m10 0h7m2 0h1m1 0h4m4 0h10m2 0h2m1 0h3m2 0h4m1 0h5m1 0h1m1 0h1m1 0h1m3 0h2m2 0h1m3 0h6m1 0h2M4 101.5h1m1 0h3m1 0h1m1 0h1m1 0h5m1 0h1m2 0h1m2 0h2m2 0h1m1 0h1m1 0h1m4 0h5m3 0h2m3 0h1m1 0h3m1 0h3m4 0h1m1 0h2m2 0h3m5 0h4m3 0h1m7 0h2m2 0h1m3 0h1M4 102.5h1m1 0h3m1 0h1m3 0h1m2 0h1m2 0h1m1 0h1m5 0h1m1 0h2m1 0h2m1 0h1m1 0h2m1 0h7m1 0h1m1 0h2m1 0h1m1 0h1m4 0h1m3 0h9m1 0h1m1 0h1m1 0h5m4 0h4m1 0h3m3 0h6M4 103.5h1m5 0h1m1 0h1m1 0h1m1 0h2m1 0h2m2 0h1m2 0h2m4 0h5m2 0h1m2 0h3m4 0h4m1 0h2m5 0h12m2 0h1m1 0h3m2 0h1m1 0h1m2 0h5m2 0h1m1 0h1m1 0h4m2 0h1M4 104.5h7m1 0h1m2 0h1m1 0h2m1 0h1m2 0h4m1 0h1m2 0h1m1 0h1m1 0h2m2 0h1m1 0h2m1 0h2m1 0h1m3 0h1m2 0h3m1 0h1m1 0h2m2 0h2m3 0h3m1 0h1m2 0h1m2 0h1m5 0h2m2 0h3m1 0h1m1 0h1m1 0h3m1 0h1"/></svg>
