<svg xmlns="http://www.w3.org/2000/svg" viewBox="0 0 97 97" shape-rendering="crispEdges"><path fill="#ffffff" d="M0 0h97v97H0z"/><path stroke="#000000" d="M4 4.5h7m1 0h2m1 0h3m3 0h2m1 0h4m2 0h1m1 0h3m1 0h1m2 0h4m1 0h1m1 0h1m1 0h1m1 0h2m1 0h1m1 0h1m2 0h2m2 0h1m2 0h1m3 0h1m1 0h3m2 0h1m1 0h7m1 0h7M4 5.5h1m5 0h1m2 0h2m3 0h2m8 0h1m1 0h3m1 0h1m1 0h2m1 0h2m3 0h5m2 0h2m1 0h1m1 0h6m3 0h5m7 0h1m1 0h1m1 0h1m1 0h1m2 0h1m5 0h1M4 6.5h1m1 0h3m1 0h1m2 0h4m1 0h1m2 0h2m1 0h3m5 0h1m1 0h1m2 0h5m1 0h1m2 0h2m1 0h4m1 0h2m1 0h1m3 0h4m1 0h1m1 0h1m1 0h3m1 0h4m8 0h1m1 0h3m1 0h1M4 7.5h1m1 0h3m1 0h1m4 0h3m2 0h1m1 0h1m1 0h1m2 0h2m1 0h1m1 0h1m2 0h1m1 0h3m3 0h2m1 0h2m1 0h3m7 0h1m2 0h1m1 0h2m2 0h1m7 0h2m1 0h2m1 0h1m1 0h1m1 0h1m1 0h3m1 0h1M4 8.5h1m1 0h3m1 0h1m3 0h1m1 0h1m1 0h2m1 0h2m2 0h1m1 0h4m1 0h6m2 0h1m1 0h5m2 0h1m2 0h1m2 0h2m1 0h6m3 0h1m1 0h6m1 0h1m2 0h1m3 0h1m2 0h1m1 0h3m1 0h1M4 9.5h1m5 0h1m2 0h3m1 0h1m2 0h2m2 0h1m5 0h3m3 0h4m3 0h2m2 0h7m1 0h1m1 0h2m3 0h1m1 0h1m2 0h3m10 0h2m1 0h1m2 0h1m5 0h1M4 10.5h7m1 0h1m1 0h1m1 0h1m1 0h1m1 0h1m1 0h1m1 0h1m1 0h1m1 0h1m1 0h1m1 0h1m1 0h1m1 0h1m1 0h1m1 0h1m1 0h1m1 0h1m1 0h1m1 0h1m1 0h1m1 0h1m1 0h1m1 0h1m1 0h1m1 0h1m1 0h1m1 0h1m1 0h1m1 0h1m1 0h1m1 0h1m1 0h1m1 0h1m1 0h1m1 0h1m1 0h1m1 0h1m1 0h7M12 11.5h3m1 0h2m1 0h4m1 0h5m1 0h1m1 0h1m3 0h2m1 0h1m6 0h2m1 0h1m2 0h2m1 0h4m3 0h2m4 0h3m3 0h1m1 0h5m1 0h3M4 12.5h2m1 0h2m1 0h1m3 0h1m4 0h5m1 0h2m1 0h1m3 0h6m2 0h1m1 0h1m1 0h1m1 0h1m2 0h1m1 0h4m1 0h7m2 0h1m1 0h2m2 0h2m2 0h1m1 0h1m1 0h1m1 0h3m2 0h1m5 0h1M4 13.5h4m3 0h2m2 0h1m1 0h1m3 0h3m2 0h1m3 0h1m1 0h2m2 0h1m2 0h1m1 0h1m5 0h1m1 0h3m3 0h4m5 0h1m1 0h3m1 0h9m1 0h2m1 0h1m2 0h4m1 0h2M5 14.5h4m1 0h1m1 0h3m1 0h1m1 0h1m2 0h1m1 0h4m1 0h6m1 0h3m2 0h3m3 0h2m1 0h1m2 0h1m3 0h1m1 0h1m2 0h1m2 0h1m1 0h1m1 0h4m1 0h1m1 0h3m2 0h1m1 0h6m2 0h1M4 15.5h2m3 0h1m3 0h2m1 0h1m1 0h1m1 0h6m2 0h5m1 0h1m6 0h4m1 0h3m4 0h2m1 0h4m1 0h3m1 0h3m4 0h1m1 0h2m1 0h1m1 0h2m1 0h1m1 0h2m1 0h1m1 0h2M4 16.5h1m1 0h2m1 0h2m6 0h3m2 0h4m1 0h1m2 0h1m1 0h3m1 0h4m1 0h1m1 0h3m1 0h4m2 0h1m1 0h2m1 0h3m1 0h2m1 0h2m1 0h3m1 0h4m1 0h4m3 0h2m1 0h2m1 0h1m1 0h1M4 17.5h2m1 0h2m2 0h3m2 0h2m3 0h1m1 0h2m2 0h3m1 0h3m1 0h2m1 0h2m3 0h1m3 0h4m8 0h1m1 0h3m1 0h1m1 0h1m1 0h3m3 0h5m4 0h2m2 0h1m1 0h1m1 0h1M4 18.5h1m3 0h3m1 0h1m3 0h1m1 0h1m1 0h1m3 0h1m1 0h2m3 0h2m1 0h1m5 0h2m1 0h2m2 0h4m2 0h1m1 0h3m1 0h1m3 0h3m4 0h2m2 0h2m2 0h1m2 0h1m2 0h2m2 0h2m2 0h1M4 19.5h3m2 0h1m2 0h1m3 0h2m1 0h6m1 0h1m1 0h1m1 0h1m2 0h1m2 0h7m1 0h1m2 0h1m1 0h4m1 0h2m1 0h3m1 0h2m1 0h1m2 0h1m3 0h2m1 0h1m2 0h1m1 0h4m1 0h1m1 0h1m4 0h1M6 20.5h2m2 0h4m1 0h1m2 0h3m3 0h2m1 0h2m1 0h2m1 0h3m2 0h2m3 0h1m2 0h1m1 0h2m2 0h1m1 0h1m6 0h1m3 0h1m1 0h4m1 0h2m1 0h2m2 0h1m1 0h2m3 0h6M5 21.5h1m1 0h3m2 0h1m2 0h1m1 0h1m2 0h1m1 0h1m1 0h3m1 0h1m1 0h1m1 0h2m2 0h1m3 0h1m2 0h1m1 0h1m2 0h1m1 0h2m2 0h1m3 0h1m1 0h3m1 0h1m5 0h3m1 0h2m4 0h2m4 0h3m1 0h1M4 22.5h1m5 0h6m3 0h2m2 0h1m1 0h1m1 0h1m3 0h1m4 0h2m3 0h1m1 0h4m2 0h2m8 0h2m2 0h2m1 0h2m1 0h1m2 0h3m4 0h3m1 0h3m2 0h1m3 0h1M7 23.5h2m4 0h3m2 0h4m1 0h1m2 0h1m1 0h4m3 0h2m3 0h3m1 0h1m1 0h1m3 0h1m1 0h1m6 0h1m1 0h3m4 0h2m3 0h5m2 0h2m1 0h1m4 0h1m1 0h1M4 24.5h2m1 0h1m2 0h3m1 0h1m2 0h1m2 0h2m1 0h1m2 0h1m4 0h1m1 0h1m1 0h2m2 0h1m5 0h3m3 0h1m1 0h1m1 0h3m3 0h2m1 0h2m2 0h3m5 0h6m7 0h2m1 0h1M5 25.5h2m1 0h1m5 0h7m1 0h1m1 0h1m1 0h5m1 0h1m1 0h3m4 0h1m1 0h1m2 0h5m4 0h4m1 0h1m1 0h2m1 0h1m1 0h5m3 0h2m5 0h1m2 0h1m2 0h1m2 0h2M5 26.5h1m1 0h5m2 0h1m1 0h1m1 0h2m1 0h1m1 0h4m4 0h3m4 0h1m2 0h1m2 0h1m1 0h1m1 0h2m3 0h2m4 0h2m3 0h1m5 0h1m2 0h1m5 0h1m2 0h5m1 0h1m2 0h1M4 27.5h1m1 0h2m1 0h1m1 0h1m1 0h1m1 0h1m1 0h1m2 0h2m6 0h2m1 0h1m1 0h1m4 0h2m5 0h3m1 0h2m2 0h1m2 0h2m1 0h1m2 0h2m1 0h1m1 0h2m4 0h1m1 0h2m1 0h6m2 0h1m2 0h2M6 28.5h3m1 0h1m8 0h5m2 0h3m5 0h1m7 0h2m1 0h2m2 0h2m1 0h2m1 0h1m1 0h1m3 0h1m1 0h1m1 0h4m1 0h2m2 0h5m1 0h1m1 0h2m3 0h1m2 0h2M5 29.5h2m2 0h1m2 0h1m3 0h2m1 0h1m4 0h1m2 0h5m1 0h2m1 0h2m1 0h2m1 0h1m2 0h1m1 0h1m2 0h1m7 0h7m2 0h2m3 0h7m1 0h1m1 0h4m2 0h2m1 0h1M4 30.5h2m2 0h3m1 0h3m1 0h2m2 0h3m1 0h1m3 0h2m1 0h1m5 0h1m2 0h1m1 0h4m1 0h1m1 0h1m1 0h1m1 0h2m3 0h4m2 0h1m3 0h2m3 0h1m7 0h2m4 0h3m1 0h1M4 31.5h3m2 0h1m1 0h1m1 0h1m3 0h2m2 0h3m1 0h1m8 0h2m1 0h1m1 0h2m2 0h2m2 0h3m2 0h2m1 0h2m2 0h2m2 0h1m2 0h1m3 0h3m3 0h2m1 0h2m1 0h1m1 0h1m4 0h4M4 32.5h1m2 0h9m4 0h3m1 0h1m2 0h1m4 0h8m2 0h1m3 0h1m1 0h3m1 0h1m2 0h2m1 0h5m7 0h4m4 0h1m1 0h1m1 0h1m1 0h5M5 33.5h2m1 0h1m3 0h1m4 0h1m1 0h3m2 0h1m3 0h1m3 0h1m3 0h2m2 0h1m1 0h4m1 0h1m1 0h1m1 0h1m3 0h1m2 0h1m3 0h1m2 0h2m3 0h1m2 0h8m2 0h2m3 0h5M5 34.5h1m1 0h2m1 0h1m1 0h4m3 0h2m1 0h3m1 0h5m1 0h1m1 0h1m1 0h10m1 0h5m1 0h6m1 0h1m1 0h1m2 0h1m1 0h3m1 0h1m2 0h1m3 0h3m2 0h2m1 0h1m1 0h1m2 0h1M5 35.5h1m2 0h1m3 0h2m1 0h2m2 0h1m1 0h1m1 0h1m7 0h2m3 0h1m1 0h1m1 0h4m1 0h2m1 0h3m3 0h2m2 0h1m3 0h1m1 0h2m3 0h2m1 0h1m1 0h1m2 0h1m2 0h1m3 0h1m3 0h1m1 0h1m1 0h1M6 36.5h1m1 0h5m1 0h1m1 0h3m1 0h4m3 0h1m1 0h1m1 0h9m3 0h1m1 0h5m3 0h11m3 0h2m3 0h6m2 0h2m1 0h7m2 0h1M5 37.5h3m3 0h2m5 0h1m1 0h2m1 0h4m1 0h4m2 0h1m1 0h1m2 0h6m1 0h1m1 0h2m2 0h3m2 0h1m2 0h1m1 0h1m3 0h4m1 0h3m1 0h2m2 0h3m2 0h2m1 0h1m1 0h1m1 0h2M4 38.5h1m2 0h2m1 0h1m1 0h1m2 0h1m5 0h1m4 0h3m2 0h2m1 0h1m2 0h1m1 0h2m1 0h4m1 0h3m1 0h1m4 0h1m1 0h1m1 0h1m2 0h3m3 0h3m1 0h3m1 0h1m1 0h1m3 0h1m2 0h1m3 0h1M4 39.5h3m6 0h5m2 0h2m1 0h1m1 0h4m3 0h3m3 0h2m4 0h1m1 0h4m6 0h1m3 0h4m1 0h1m2 0h1m3 0h2m2 0h3m1 0h2m9 0h1M4 40.5h1m1 0h2m2 0h2m2 0h1m1 0h1m1 0h1m1 0h3m2 0h1m3 0h1m2 0h1m3 0h3m3 0h1m2 0h2m1 0h1m1 0h2m2 0h2m1 0h2m2 0h1m2 0h3m1 0h1m1 0h2m2 0h3m1 0h2m7 0h1m1 0h4M5 41.5h2m2 0h1m1 0h4m1 0h2m1 0h1m2 0h9m9 0h3m1 0h1m1 0h2m3 0h1m1 0h2m1 0h2m1 0h2m1 0h1m5 0h2m2 0h1m6 0h1m2 0h8m1 0h2M4 42.5h2m3 0h3m2 0h2m1 0h1m2 0h2m4 0h3m1 0h5m2 0h4m4 0h1m1 0h4m4 0h2m1 0h1m3 0h2m3 0h1m1 0h2m2 0h7m3 0h1m1 0h3m1 0h1m2 0h1M7 43.5h2m4 0h1m3 0h1m2 0h1m2 0h6m2 0h1m2 0h1m10 0h1m1 0h1m2 0h1m1 0h1m5 0h2m2 0h1m1 0h2m3 0h2m3 0h1m2 0h2m2 0h2m1 0h4m3 0h2M5 44.5h3m1 0h11m2 0h2m1 0h1m4 0h2m5 0h1m1 0h7m3 0h1m1 0h2m2 0h1m2 0h2m2 0h2m1 0h4m3 0h1m1 0h1m2 0h2m1 0h2m2 0h1m2 0h1m2 0h1M4 45.5h1m2 0h1m4 0h1m3 0h1m2 0h4m1 0h2m3 0h1m1 0h1m2 0h1m2 0h1m4 0h1m6 0h3m2 0h6m7 0h3m1 0h2m1 0h2m6 0h1m1 0h1m2 0h2m1 0h3M4 46.5h1m3 0h1m1 0h4m1 0h1m1 0h3m6 0h6m1 0h1m3 0h1m1 0h1m2 0h2m1 0h13m1 0h1m1 0h1m2 0h3m1 0h2m1 0h7m2 0h1m1 0h1m1 0h1m4 0h1m2 0h1M5 47.5h2m2 0h1m2 0h1m1 0h2m2 0h1m4 0h1m5 0h1m1 0h5m1 0h4m2 0h3m1 0h2m1 0h3m1 0h9m3 0h2m3 0h1m1 0h2m1 0h1m1 0h1m1 0h1m1 0h2m1 0h1m4 0h1M8 48.5h1m1 0h2m2 0h2m1 0h2m2 0h5m2 0h1m1 0h1m3 0h1m1 0h1m1 0h1m1 0h2m1 0h2m2 0h2m1 0h1m1 0h2m3 0h2m1 0h2m2 0h6m1 0h1m1 0h2m3 0h1m1 0h2m1 0h3m2 0h1m2 0h1M4 49.5h3m1 0h2m1 0h7m1 0h1m1 0h1m3 0h1m3 0h2m1 0h1m1 0h1m1 0h5m4 0h1m1 0h1m1 0h4m1 0h3m2 0h4m2 0h1m1 0h2m3 0h1m2 0h2m1 0h1m1 0h1m1 0h1m2 0h1m6 0h1M7 50.5h1m1 0h3m1 0h1m1 0h3m2 0h1m2 0h1m1 0h1m1 0h4m2 0h4m2 0h2m3 0h3m1 0h1m2 0h4m3 0h4m1 0h1m4 0h1m1 0h2m2 0h1m1 0h1m2 0h4m1 0h1m3 0h1M5 51.5h1m2 0h1m2 0h1m1 0h1m2 0h3m1 0h1m1 0h1m1 0h5m1 0h2m1 0h2m1 0h1m1 0h1m2 0h1m1 0h3m3 0h4m1 0h2m1 0h3m1 0h6m2 0h2m2 0h2m1 0h5m1 0h1m2 0h1m6 0h1M4 52.5h1m2 0h1m2 0h1m2 0h1m1 0h2m1 0h1m4 0h2m2 0h1m2 0h2m2 0h3m2 0h1m1 0h2m1 0h1m2 0h2m1 0h1m1 0h1m1 0h1m1 0h1m1 0h3m2 0h3m1 0h2m2 0h2m1 0h2m5 0h3m1 0h1m3 0h2m1 0h1M4 53.5h1m2 0h1m1 0h1m3 0h1m3 0h5m1 0h1m1 0h1m2 0h1m1 0h2m2 0h2m3 0h4m3 0h5m2 0h3m1 0h2m2 0h2m2 0h1m1 0h2m1 0h1m2 0h1m1 0h2m2 0h1m3 0h1m2 0h2m1 0h2M4 54.5h1m1 0h1m2 0h3m1 0h1m1 0h1m2 0h2m1 0h3m1 0h2m1 0h1m2 0h6m4 0h2m2 0h2m3 0h6m1 0h5m4 0h3m2 0h5m3 0h3m3 0h1m4 0h1M4 55.5h6m1 0h1m1 0h1m3 0h1m2 0h1m2 0h2m1 0h5m1 0h1m3 0h1m1 0h1m1 0h2m1 0h2m1 0h1m1 0h1m1 0h3m2 0h1m2 0h1m2 0h2m1 0h2m1 0h1m2 0h1m3 0h2m1 0h1m2 0h7m3 0h1M4 56.5h1m3 0h4m1 0h1m1 0h2m3 0h3m2 0h2m1 0h4m1 0h2m4 0h2m6 0h1m4 0h1m1 0h1m3 0h2m2 0h5m5 0h4m2 0h1m1 0h4m1 0h1m1 0h3m1 0h1M11 57.5h1m3 0h4m1 0h1m1 0h2m2 0h1m1 0h2m1 0h2m1 0h1m3 0h3m1 0h5m1 0h1m1 0h10m1 0h1m1 0h2m1 0h2m1 0h2m2 0h8m3 0h3m2 0h1m2 0h1M5 58.5h1m1 0h6m2 0h1m1 0h2m1 0h2m5 0h1m1 0h8m1 0h3m1 0h1m2 0h2m3 0h1m1 0h2m1 0h17m1 0h2m2 0h2m1 0h9M5 59.5h4m3 0h3m1 0h3m5 0h1m2 0h1m2 0h1m1 0h1m3 0h1m4 0h2m4 0h2m3 0h7m3 0h3m1 0h1m4 0h2m1 0h2m1 0h2m2 0h1m2 0h1m3 0h2M6 60.5h1m1 0h1m1 0h1m1 0h1m1 0h1m7 0h2m4 0h1m1 0h3m1 0h1m1 0h1m4 0h1m1 0h1m1 0h2m1 0h1m1 0h5m1 0h1m1 0h1m1 0h1m1 0h3m1 0h1m1 0h2m2 0h1m1 0h2m1 0h2m3 0h3m1 0h1m1 0h2m2 0h1M4 61.5h1m3 0h1m3 0h1m4 0h4m2 0h1m4 0h1m1 0h3m3 0h1m3 0h1m1 0h3m1 0h1m2 0h2m2 0h2m3 0h1m3 0h4m1 0h2m1 0h1m1 0h2m2 0h3m2 0h4m3 0h2M4 62.5h2m2 0h6m3 0h1m1 0h1m1 0h1m1 0h1m2 0h2m1 0h1m2 0h5m2 0h1m4 0h7m1 0h1m5 0h6m1 0h1m2 0h1m3 0h1m1 0h1m2 0h2m2 0h11M5 63.5h3m3 0h1m3 0h6m2 0h2m2 0h4m1 0h2m1 0h1m1 0h1m3 0h4m1 0h3m1 0h1m1 0h4m1 0h3m4 0h2m1 0h4m2 0h1m2 0h2m1 0h1m1 0h3m1 0h1m1 0h1M5 64.5h3m2 0h1m1 0h1m1 0h1m2 0h3m5 0h4m1 0h1m1 0h3m1 0h2m1 0h1m1 0h1m1 0h2m1 0h2m2 0h4m1 0h1m1 0h3m2 0h2m1 0h1m2 0h2m2 0h3m2 0h1m1 0h1m3 0h1m2 0h2m1 0h3M8 65.5h2m4 0h3m1 0h2m1 0h2m1 0h1m1 0h1m1 0h2m2 0h3m1 0h3m4 0h1m1 0h2m5 0h1m4 0h1m1 0h2m1 0h1m1 0h2m8 0h1m1 0h1m1 0h2m2 0h1m2 0h1m1 0h1m2 0h1M5 66.5h1m1 0h1m2 0h1m1 0h2m2 0h1m4 0h7m1 0h1m1 0h1m2 0h2m1 0h1m3 0h1m1 0h3m1 0h1m1 0h2m1 0h2m4 0h1m6 0h1m1 0h2m2 0h1m1 0h5m1 0h1m2 0h1m2 0h2m4 0h2M5 67.5h1m5 0h3m1 0h1m1 0h6m1 0h1m1 0h1m1 0h2m1 0h2m3 0h2m2 0h1m1 0h1m1 0h1m1 0h3m1 0h2m1 0h2m1 0h1m3 0h1m4 0h2m1 0h2m1 0h2m2 0h4m3 0h1m3 0h3m1 0h1m1 0h1M5 68.5h1m1 0h1m1 0h5m3 0h1m1 0h3m2 0h3m1 0h3m2 0h1m2 0h1m1 0h1m2 0h1m2 0h2m2 0h2m2 0h1m3 0h5m2 0h2m1 0h1m2 0h4m2 0h2m1 0h2m3 0h2m2 0h1m2 0h2M8 69.5h2m2 0h7m1 0h1m2 0h4m8 0h1m1 0h1m1 0h2m1 0h2m1 0h1m2 0h3m1 0h3m1 0h3m3 0h1m1 0h3m1 0h3m1 0h2m1 0h1m1 0h2m1 0h1m1 0h4m1 0h2m1 0h1M4 70.5h4m2 0h1m2 0h3m2 0h1m1 0h2m2 0h1m1 0h3m2 0h1m2 0h2m1 0h1m2 0h5m3 0h1m1 0h3m1 0h1m1 0h1m1 0h5m2 0h1m1 0h3m2 0h1m2 0h1m3 0h1m1 0h2m2 0h4m3 0h1M5 71.5h1m2 0h1m7 0h1m2 0h1m5 0h1m1 0h2m1 0h1m3 0h1m1 0h2m2 0h2m4 0h1m1 0h3m1 0h2m1 0h1m1 0h2m2 0h2m1 0h4m1 0h1m4 0h4m1 0h1m1 0h2m1 0h1m2 0h3m1 0h1M5 72.5h4m1 0h1m1 0h2m1 0h5m1 0h1m3 0h2m4 0h1m1 0h1m1 0h1m1 0h3m2 0h2m1 0h5m1 0h1m1 0h1m1 0h1m3 0h1m4 0h2m2 0h1m1 0h5m2 0h2m1 0h1m1 0h2m2 0h1m2 0h3M4 73.5h3m1 0h1m2 0h3m2 0h1m7 0h5m1 0h1m1 0h1m1 0h1m1 0h1m1 0h1m2 0h2m1 0h1m1 0h2m2 0h1m2 0h1m1 0h3m1 0h3m5 0h8m1 0h1m4 0h1m1 0h2m2 0h2m1 0h2M4 74.5h2m1 0h1m1 0h2m1 0h1m1 0h5m1 0h1m1 0h1m3 0h1m4 0h1m1 0h6m4 0h1m2 0h3m5 0h4m1 0h3m1 0h1m3 0h1m2 0h3m3 0h4m2 0h4m1 0h6M5 75.5h2m4 0h1m1 0h1m1 0h2m2 0h3m1 0h2m1 0h1m1 0h3m3 0h1m4 0h1m1 0h1m1 0h1m2 0h1m3 0h2m1 0h1m1 0h6m2 0h1m1 0h2m1 0h3m1 0h1m2 0h2m3 0h1m1 0h1m2 0h2m1 0h1m1 0h3M5 76.5h1m1 0h1m2 0h1m1 0h3m1 0h1m3 0h2m5 0h7m2 0h1m1 0h1m3 0h2m1 0h3m2 0h1m1 0h2m2 0h2m1 0h1m1 0h1m4 0h1m4 0h1m1 0h2m1 0h2m2 0h1m1 0h2m1 0h2m1 0h3m1 0h1M4 77.5h2m2 0h2m4 0h1m4 0h2m1 0h3m1 0h1m2 0h1m2 0h1m1 0h13m2 0h1m1 0h1m4 0h1m1 0h4m3 0h2m2 0h1m1 0h1m2 0h5m1 0h2m2 0h2m2 0h2M5 78.5h1m1 0h6m2 0h1m1 0h3m4 0h1m1 0h1m1 0h3m1 0h2m6 0h1m2 0h1m2 0h1m2 0h1m3 0h2m3 0h1m2 0h1m1 0h4m3 0h1m4 0h3m2 0h1m1 0h3m1 0h2m1 0h2M4 79.5h1m4 0h1m2 0h3m2 0h1m1 0h1m2 0h2m1 0h1m1 0h1m1 0h2m1 0h2m1 0h3m3 0h4m2 0h3m1 0h1m2 0h2m2 0h1m1 0h1m1 0h1m1 0h1m4 0h1m1 0h4m1 0h2m1 0h3m1 0h3m1 0h1m2 0h1M4 80.5h1m1 0h1m2 0h3m1 0h1m2 0h1m2 0h1m1 0h1m2 0h1m2 0h1m2 0h3m2 0h6m3 0h1m1 0h1m1 0h6m3 0h1m1 0h2m1 0h1m1 0h1m2 0h1m2 0h1m1 0h1m2 0h1m5 0h2m1 0h4m3 0h1M4 81.5h1m2 0h2m2 0h2m2 0h1m1 0h2m5 0h1m2 0h1m3 0h1m1 0h1m1 0h1m1 0h1m1 0h1m2 0h6m1 0h1m1 0h4m1 0h1m3 0h3m1 0h3m1 0h1m1 0h1m4 0h1m1 0h1m1 0h2m2 0h6m3 0h1M4 82.5h1m2 0h1m2 0h1m3 0h2m1 0h1m1 0h1m3 0h2m1 0h1m1 0h1m2 0h1m3 0h4m1 0h1m1 0h1m2 0h1m1 0h4m1 0h3m3 0h1m4 0h5m3 0h3m3 0h1m5 0h2m1 0h1m5 0h1M4 83.5h2m2 0h2m1 0h3m1 0h4m1 0h2m1 0h3m2 0h4m2 0h4m4 0h2m2 0h4m1 0h1m1 0h3m1 0h1m2 0h1m1 0h4m1 0h3m2 0h2m1 0h1m1 0h2m1 0h1m5 0h1m1 0h1m1 0h3M4 84.5h1m2 0h1m2 0h1m1 0h2m3 0h1m1 0h2m2 0h1m1 0h2m3 0h1m1 0h5m1 0h3m2 0h4m1 0h2m1 0h2m1 0h1m3 0h5m1 0h4m1 0h1m2 0h3m4 0h2m1 0h7m1 0h1M12 85.5h1m1 0h1m2 0h6m1 0h1m1 0h7m3 0h1m10 0h2m2 0h3m4 0h1m3 0h1m6 0h1m1 0h2m1 0h1m2 0h2m3 0h3m3 0h1m1 0h2M4 86.5h7m5 0h1m2 0h1m1 0h2m1 0h1m1 0h2m4 0h1m1 0h1m1 0h7m1 0h2m3 0h10m1 0h1m1 0h2m4 0h1m2 0h5m1 0h2m2 0h4m1 0h1m1 0h1m1 0h3M4 87.5h1m5 0h1m2 0h5m1 0h1m4 0h1m1 0h1m5 0h1m3 0h1m1 0h1m5 0h1m1 0h3m3 0h1m3 0h1m1 0h1m3 0h2m2 0h1m3 0h2m1 0h3m2 0h2m4 0h1m3 0h1M4 88.5h1m1 0h3m1 0h1m1 0h2m1 0h1m1 0h1m1 0h1m3 0h1m2 0h4m2 0h9m1 0h1m2 0h1m2 0h1m2 0h2m1 0h1m2 0h6m1 0h3m1 0h5m1 0h2m2 0h1m1 0h1m1 0h9M4 89.5h1m1 0h3m1 0h1m1 0h1m1 0h2m1 0h1m4 0h2m4 0h3m2 0h2m1 0h7m1 0h2m2 0h1m1 0h6m1 0h1m4 0h1m2 0h1m2 0h1m1 0h1m1 0h1m3 0h1m2 0h2m2 0h1m1 0h3m2 0h1M4 90.5h1m1 0h3m1 0h1m2 0h1m3 0h1m1 0h3m1 0h3m4 0h3m5 0h2m5 0h2m2 0h1m5 0h1m1 0h1m7 0h1m2 0h4m1 0h2m3 0h2m1 0h2m3 0h1m2 0h1m1 0h2M4 91.5h1m5 0h1m1 0h1m2 0h1m3 0h2m1 0h1m5 0h1m1 0h3m1 0h4m1 0h6m1 0h2m4 0h1m1 0h1m1 0h1m2 0h1m2 0h2m2 0h1m9 0h5m1 0h2m2 0h5m1 0h1M4 92.5h7m1 0h1m2 0h5m1 0h1m1 0h2m2 0h3m1 0h1m2 0h1m1 0h2m1 0h2m6 0h3m1 0h3m2 0h1m3 0h2m1 0h2m1 0h1m2 0h2m1 0h3m2 0h2m1 0h5m3 0h3"/></svg>
