<svg xmlns="http://www.w3.org/2000/svg" viewBox="0 0 97 97" shape-rendering="crispEdges"><path fill="#ffffff" d="M0 0h97v97H0z"/><path stroke="#000000" d="M4 4.5h7m6 0h1m3 0h4m2 0h2m1 0h1m1 0h1m1 0h1m4 0h1m2 0h1m1 0h3m4 0h1m1 0h1m1 0h2m2 0h3m3 0h4m10 0h6m1 0h7M4 5.5h1m5 0h1m1 0h1m1 0h1m1 0h1m1 0h7m4 0h3m1 0h1m3 0h1m1 0h1m1 0h1m1 0h11m1 0h2m2 0h1m1 0h1m2 0h2m1 0h1m1 0h1m1 0h1m3 0h1m3 0h3m1 0h1m2 0h1m5 0h1M4 6.5h1m1 0h3m1 0h1m4 0h1m3 0h2m2 0h1m3 0h2m1 0h2m2 0h1m1 0h5m2 0h1m1 0h1m1 0h1m1 0h1m1 0h3m2 0h1m2 0h5m2 0h3m1 0h4m1 0h2m3 0h2m4 0h1m1 0h3m1 0h1M4 7.5h1m1 0h3m1 0h1m1 0h1m3 0h2m4 0h4m4 0h4m2 0h2m1 0h1m4 0h1m1 0h1m2 0h1m4 0h4m2 0h2m2 0h1m2 0h3m1 0h2m4 0h1m1 0h2m1 0h1m1 0h1m1 0h1m1 0h3m1 0h1M4 8.5h1m1 0h3m1 0h1m3 0h2m1 0h3m1 0h1m1 0h2m2 0h3m2 0h6m1 0h3m1 0h1m1 0h2m2 0h1m1 0h2m5 0h5m2 0h1m1 0h4m2 0h2m3 0h2m3 0h1m2 0h1m1 0h3m1 0h1M4 9.5h1m5 0h1m1 0h1m3 0h4m3 0h1m2 0h1m1 0h5m3 0h3m2 0h1m1 0h1m5 0h2m4 0h1m2 0h1m3 0h1m1 0h1m4 0h2m2 0h3m1 0h1m1 0h1m3 0h1m2 0h1m5 0h1M4 10.5h7m1 0h1m1 0h1m1 0h1m1 0h1m1 0h1m1 0h1m1 0h1m1 0h1m1 0h1m1 0h1m1 0h1m1 0h1m1 0h1m1 0h1m1 0h1m1 0h1m1 0h1m1 0h1m1 0h1m1 0h1m1 0h1m1 0h1m1 0h1m1 0h1m1 0h1m1 0h1m1 0h1m1 0h1m1 0h1m1 0h1m1 0h1m1 0h1m1 0h1m1 0h1m1 0h1m1 0h1m1 0h1m1 0h7M13 11.5h1m2 0h1m1 0h1m1 0h1m1 0h1m1 0h6m1 0h2m3 0h7m2 0h1m1 0h3m1 0h1m3 0h1m1 0h2m3 0h1m2 0h1m1 0h2m1 0h1m1 0h2m1 0h1m1 0h2m1 0h4M4 12.5h5m1 0h5m2 0h1m1 0h5m1 0h3m4 0h5m1 0h1m2 0h3m3 0h1m1 0h1m1 0h1m1 0h4m1 0h5m1 0h2m1 0h1m3 0h2m1 0h1m1 0h2m1 0h3m3 0h1m1 0h1m1 0h1m1 0h1M4 13.5h3m1 0h2m1 0h1m2 0h1m2 0h2m3 0h5m2 0h1m2 0h4m4 0h1m1 0h6m2 0h1m1 0h2m2 0h1m3 0h2m1 0h2m6 0h1m5 0h1m1 0h1m1 0h6m3 0h3M4 14.5h1m5 0h1m5 0h2m4 0h4m1 0h1m5 0h1m1 0h2m2 0h3m2 0h1m3 0h1m1 0h1m1 0h1m2 0h1m1 0h3m1 0h4m1 0h1m1 0h1m1 0h1m1 0h2m2 0h1m3 0h1m2 0h1m3 0h3m2 0h1M7 15.5h2m4 0h1m3 0h1m1 0h2m1 0h2m1 0h4m2 0h5m1 0h4m1 0h1m1 0h1m4 0h2m3 0h1m2 0h1m5 0h1m5 0h1m5 0h1m9 0h1m4 0h2M6 16.5h1m1 0h1m1 0h1m4 0h1m2 0h2m1 0h1m2 0h2m1 0h1m1 0h2m3 0h2m3 0h2m1 0h1m1 0h1m1 0h2m1 0h3m2 0h1m1 0h5m2 0h3m2 0h3m1 0h2m4 0h1m1 0h3m1 0h1m1 0h1m2 0h2M9 17.5h1m1 0h1m6 0h1m1 0h1m1 0h1m1 0h2m4 0h1m2 0h1m2 0h1m2 0h2m2 0h1m1 0h3m4 0h2m3 0h1m1 0h3m1 0h6m1 0h1m1 0h1m1 0h1m1 0h1m1 0h1m2 0h1m2 0h5m1 0h3M5 18.5h1m1 0h2m1 0h1m1 0h4m2 0h2m2 0h1m2 0h2m1 0h3m2 0h3m1 0h2m2 0h1m7 0h2m6 0h1m2 0h1m2 0h1m1 0h1m2 0h1m1 0h2m13 0h2m1 0h1M4 19.5h1m1 0h1m1 0h1m9 0h2m2 0h1m1 0h2m3 0h1m1 0h3m2 0h1m1 0h2m1 0h1m3 0h2m2 0h4m1 0h1m1 0h1m2 0h1m1 0h2m3 0h2m1 0h3m2 0h1m2 0h1m1 0h1m1 0h6m2 0h1m2 0h1M7 20.5h2m1 0h3m2 0h1m1 0h2m6 0h3m1 0h4m1 0h2m6 0h2m3 0h3m1 0h3m2 0h1m1 0h1m1 0h1m1 0h1m2 0h2m1 0h1m1 0h2m2 0h1m1 0h1m1 0h1m3 0h1m2 0h1m2 0h1m1 0h2M4 21.5h1m1 0h1m1 0h1m2 0h2m1 0h3m2 0h1m2 0h1m5 0h2m1 0h1m2 0h1m1 0h2m1 0h3m2 0h1m1 0h2m2 0h1m3 0h3m2 0h1m1 0h1m1 0h2m3 0h3m11 0h1m1 0h2m3 0h1m2 0h1M4 22.5h3m3 0h1m3 0h6m3 0h1m2 0h1m1 0h1m2 0h3m1 0h1m3 0h3m1 0h1m2 0h1m1 0h3m1 0h2m1 0h6m1 0h2m1 0h1m5 0h1m1 0h1m1 0h5m3 0h2m2 0h3m1 0h1M6 23.5h2m1 0h1m1 0h1m1 0h2m4 0h3m2 0h2m1 0h1m1 0h1m2 0h1m4 0h3m2 0h1m2 0h2m2 0h5m6 0h2m4 0h1m2 0h1m1 0h1m2 0h3m1 0h1m1 0h1m1 0h1m2 0h4m1 0h2M4 24.5h1m5 0h1m3 0h1m3 0h1m1 0h1m1 0h3m3 0h4m1 0h1m1 0h2m3 0h1m1 0h2m2 0h2m1 0h1m1 0h1m1 0h1m2 0h2m1 0h2m1 0h2m1 0h2m2 0h2m1 0h1m3 0h1m1 0h1m1 0h2m1 0h1m2 0h1m2 0h4M11 25.5h5m2 0h2m1 0h2m4 0h1m4 0h4m1 0h2m1 0h1m1 0h1m1 0h4m2 0h1m1 0h2m3 0h1m2 0h1m1 0h1m1 0h1m2 0h1m1 0h1m2 0h2m4 0h1m2 0h1m1 0h2m4 0h4M4 26.5h1m2 0h1m2 0h2m5 0h2m2 0h1m3 0h1m1 0h3m1 0h2m1 0h5m2 0h3m4 0h1m1 0h1m2 0h1m1 0h1m1 0h3m1 0h2m3 0h1m1 0h1m2 0h2m4 0h1m1 0h2m2 0h4m1 0h2m1 0h2M4 27.5h4m3 0h2m2 0h1m2 0h1m1 0h3m2 0h3m5 0h2m1 0h3m6 0h1m2 0h1m4 0h2m2 0h2m1 0h3m2 0h1m3 0h1m4 0h1m7 0h1m3 0h4m1 0h1M10 28.5h2m4 0h3m1 0h2m2 0h1m1 0h1m1 0h1m1 0h3m1 0h2m3 0h2m4 0h1m1 0h2m2 0h3m2 0h3m2 0h1m4 0h2m1 0h2m1 0h1m1 0h1m1 0h1m3 0h3m3 0h1m2 0h1M4 29.5h3m1 0h1m2 0h1m1 0h1m1 0h1m1 0h2m1 0h1m2 0h1m1 0h1m2 0h1m1 0h1m2 0h1m5 0h2m1 0h1m1 0h1m1 0h1m2 0h1m1 0h3m5 0h1m1 0h1m3 0h1m1 0h1m3 0h1m1 0h1m1 0h1m1 0h3m2 0h2m4 0h1m1 0h1M4 30.5h1m2 0h2m1 0h2m2 0h11m2 0h1m3 0h1m2 0h1m2 0h1m3 0h3m1 0h3m3 0h1m2 0h3m2 0h3m1 0h1m2 0h4m1 0h1m3 0h1m1 0h1m1 0h4m3 0h2m3 0h2M4 31.5h1m1 0h2m3 0h2m1 0h1m1 0h1m1 0h1m2 0h3m5 0h2m1 0h2m1 0h3m2 0h2m3 0h2m2 0h1m4 0h1m3 0h2m5 0h8m4 0h4m1 0h2m1 0h5m2 0h1M4 32.5h1m2 0h6m1 0h1m1 0h5m1 0h1m2 0h2m1 0h12m2 0h1m1 0h3m1 0h1m1 0h1m1 0h1m3 0h1m1 0h5m2 0h2m2 0h1m2 0h1m2 0h2m1 0h2m2 0h7m1 0h3M7 33.5h2m3 0h2m3 0h2m1 0h2m3 0h2m1 0h5m3 0h1m2 0h4m2 0h2m2 0h1m3 0h1m3 0h2m3 0h2m1 0h2m1 0h1m3 0h2m4 0h3m3 0h1m3 0h2M5 34.5h1m1 0h2m1 0h1m1 0h7m1 0h1m1 0h1m8 0h2m1 0h1m1 0h3m1 0h4m1 0h1m2 0h3m1 0h2m2 0h1m1 0h1m1 0h1m1 0h2m1 0h1m4 0h1m3 0h2m2 0h1m4 0h2m1 0h1m1 0h1M5 35.5h1m2 0h1m3 0h4m1 0h4m1 0h2m1 0h1m2 0h1m3 0h1m3 0h2m1 0h1m2 0h4m1 0h2m1 0h3m1 0h2m2 0h1m3 0h3m2 0h1m1 0h2m2 0h1m1 0h1m3 0h2m3 0h1m3 0h1m1 0h1M4 36.5h1m2 0h6m1 0h4m2 0h2m2 0h1m1 0h5m1 0h5m3 0h5m3 0h3m1 0h5m1 0h5m1 0h1m2 0h1m5 0h1m2 0h3m3 0h7m1 0h2M7 37.5h1m1 0h1m2 0h1m1 0h1m1 0h2m3 0h1m2 0h5m2 0h2m2 0h1m1 0h4m1 0h1m1 0h1m1 0h1m2 0h2m4 0h3m3 0h1m4 0h1m2 0h3m2 0h2m1 0h1m7 0h1m4 0h3M4 38.5h1m1 0h1m2 0h3m1 0h1m1 0h1m2 0h2m1 0h1m1 0h2m3 0h1m5 0h1m2 0h1m2 0h1m1 0h4m7 0h1m3 0h7m2 0h1m1 0h2m3 0h2m1 0h1m2 0h8m2 0h3M7 39.5h1m5 0h1m2 0h4m1 0h1m1 0h1m3 0h2m1 0h3m1 0h1m1 0h1m1 0h4m3 0h1m2 0h1m3 0h3m1 0h1m4 0h3m1 0h2m1 0h2m2 0h1m1 0h1m2 0h1m1 0h2m1 0h1m4 0h1M4 40.5h2m1 0h5m1 0h1m1 0h2m1 0h2m1 0h2m2 0h1m3 0h2m3 0h3m2 0h3m1 0h2m1 0h1m4 0h1m1 0h1m1 0h1m1 0h1m4 0h2m3 0h4m1 0h1m4 0h2m1 0h1m2 0h4m2 0h4M4 41.5h4m3 0h4m3 0h1m6 0h1m1 0h3m1 0h2m1 0h1m1 0h1m3 0h2m1 0h4m2 0h4m1 0h1m2 0h4m4 0h2m5 0h1m1 0h1m1 0h1m1 0h1m1 0h1m1 0h1m2 0h4m1 0h1m1 0h1M4 42.5h5m1 0h1m1 0h1m1 0h1m3 0h3m2 0h1m1 0h2m6 0h1m1 0h1m2 0h1m2 0h1m2 0h1m1 0h3m2 0h5m3 0h2m8 0h3m1 0h6m4 0h2m1 0h3m1 0h1M4 43.5h1m2 0h3m2 0h2m1 0h1m2 0h1m2 0h1m1 0h2m1 0h1m4 0h2m3 0h3m1 0h3m3 0h2m1 0h2m1 0h2m1 0h4m1 0h1m3 0h3m4 0h4m2 0h1m3 0h4m1 0h2m1 0h1M5 44.5h4m1 0h3m2 0h1m2 0h1m4 0h1m2 0h1m1 0h2m2 0h1m3 0h4m2 0h2m1 0h2m3 0h1m1 0h2m6 0h2m2 0h2m4 0h1m1 0h1m1 0h2m1 0h1m2 0h1m1 0h2m1 0h1m1 0h2M4 45.5h1m1 0h1m1 0h1m2 0h1m1 0h1m5 0h3m1 0h6m2 0h4m3 0h1m4 0h1m1 0h2m2 0h3m1 0h1m3 0h1m3 0h4m2 0h1m2 0h1m2 0h1m5 0h1m2 0h1m1 0h2m1 0h4M5 46.5h2m1 0h3m1 0h1m2 0h1m3 0h1m1 0h1m2 0h1m5 0h1m4 0h2m1 0h4m1 0h1m9 0h1m4 0h1m5 0h1m2 0h1m5 0h1m4 0h2m2 0h5m1 0h2m1 0h2M7 47.5h1m9 0h3m6 0h1m2 0h3m1 0h1m1 0h1m1 0h5m4 0h2m1 0h3m9 0h1m8 0h1m4 0h1m1 0h1m7 0h2m3 0h3M6 48.5h1m2 0h2m1 0h1m4 0h1m1 0h2m4 0h4m3 0h1m2 0h1m1 0h2m1 0h2m3 0h1m6 0h1m2 0h1m1 0h2m4 0h2m3 0h5m3 0h1m1 0h7m4 0h1M5 49.5h3m1 0h1m2 0h1m1 0h2m1 0h1m5 0h2m3 0h6m1 0h3m2 0h3m3 0h1m2 0h1m1 0h2m1 0h1m2 0h1m1 0h1m3 0h1m1 0h1m4 0h1m3 0h1m1 0h1m2 0h1m1 0h1m2 0h1m1 0h1M4 50.5h1m1 0h2m1 0h2m1 0h1m3 0h3m2 0h2m1 0h1m1 0h1m1 0h2m1 0h2m4 0h4m2 0h2m1 0h2m1 0h1m3 0h4m2 0h2m3 0h1m3 0h3m1 0h1m2 0h2m5 0h3m1 0h7M6 51.5h1m9 0h1m1 0h2m3 0h2m1 0h2m2 0h4m2 0h1m1 0h2m3 0h2m1 0h1m4 0h1m1 0h2m1 0h1m1 0h1m2 0h1m1 0h6m1 0h1m2 0h1m1 0h2m1 0h2m1 0h1m8 0h1M6 52.5h2m1 0h3m1 0h1m2 0h1m1 0h2m4 0h3m2 0h3m1 0h3m1 0h1m1 0h2m4 0h1m1 0h2m1 0h1m1 0h5m2 0h2m1 0h4m1 0h1m1 0h1m5 0h3m4 0h3m1 0h2m3 0h2M7 53.5h2m2 0h1m5 0h1m1 0h1m1 0h2m1 0h5m1 0h3m3 0h1m3 0h3m1 0h1m1 0h3m1 0h1m1 0h2m1 0h1m2 0h2m1 0h4m2 0h2m1 0h5m1 0h1m1 0h1m4 0h1m8 0h1M4 54.5h2m4 0h1m1 0h7m1 0h1m1 0h1m5 0h7m1 0h4m1 0h4m1 0h1m2 0h1m3 0h1m1 0h1m5 0h2m3 0h2m4 0h1m1 0h2m2 0h1m1 0h2m3 0h1m1 0h5M8 55.5h1m2 0h1m2 0h2m5 0h1m1 0h1m1 0h4m1 0h1m4 0h1m6 0h5m3 0h2m1 0h1m1 0h1m2 0h1m2 0h1m1 0h2m1 0h1m3 0h1m2 0h1m1 0h1m3 0h1m2 0h2m1 0h2m1 0h1m2 0h1M5 56.5h1m3 0h2m3 0h1m1 0h1m3 0h3m2 0h1m1 0h2m2 0h2m1 0h1m1 0h3m3 0h1m2 0h2m1 0h1m1 0h3m1 0h1m1 0h4m1 0h1m1 0h1m1 0h1m3 0h4m1 0h1m3 0h1m1 0h3m2 0h2m1 0h4M4 57.5h2m7 0h2m1 0h1m8 0h1m1 0h2m1 0h1m2 0h3m1 0h6m8 0h2m4 0h4m3 0h1m1 0h2m1 0h2m1 0h2m5 0h2m3 0h1m4 0h1M5 58.5h8m1 0h1m1 0h3m2 0h1m1 0h4m5 0h7m1 0h2m4 0h4m3 0h12m1 0h2m3 0h2m3 0h3m4 0h6m1 0h2M4 59.5h3m1 0h1m3 0h6m2 0h3m5 0h2m2 0h1m3 0h2m1 0h1m3 0h1m1 0h2m2 0h2m1 0h2m3 0h2m3 0h1m1 0h1m2 0h1m1 0h2m2 0h3m3 0h1m1 0h1m1 0h2m3 0h1m1 0h1m1 0h1M7 60.5h2m1 0h1m1 0h2m1 0h1m1 0h2m2 0h1m1 0h1m1 0h3m1 0h4m1 0h1m1 0h1m1 0h1m1 0h2m1 0h1m2 0h2m6 0h1m2 0h2m1 0h1m1 0h2m7 0h1m3 0h1m1 0h1m2 0h5m1 0h1m1 0h1m3 0h1M5 61.5h1m2 0h1m3 0h1m2 0h1m1 0h4m3 0h1m1 0h1m3 0h3m3 0h3m1 0h1m1 0h3m2 0h1m4 0h2m4 0h1m3 0h3m4 0h2m3 0h1m4 0h3m2 0h1m3 0h2m2 0h1M4 62.5h1m2 0h6m2 0h1m1 0h2m3 0h1m1 0h4m1 0h1m2 0h5m2 0h1m1 0h1m2 0h1m1 0h1m1 0h3m4 0h1m2 0h8m2 0h3m1 0h1m1 0h1m1 0h1m1 0h1m1 0h1m2 0h6m3 0h1M7 63.5h1m3 0h1m1 0h1m2 0h1m1 0h1m2 0h1m2 0h1m1 0h1m2 0h1m7 0h1m1 0h2m2 0h5m1 0h3m1 0h1m3 0h1m1 0h1m1 0h4m1 0h1m1 0h1m1 0h2m2 0h1m6 0h2m3 0h1m3 0h3M4 64.5h1m2 0h1m1 0h3m3 0h2m3 0h1m3 0h2m2 0h1m1 0h1m3 0h1m2 0h1m1 0h1m6 0h2m2 0h1m4 0h1m2 0h1m4 0h1m3 0h3m3 0h1m1 0h4m2 0h4m4 0h3M4 65.5h1m1 0h2m1 0h1m4 0h2m6 0h1m1 0h2m1 0h1m1 0h1m2 0h6m2 0h1m2 0h3m5 0h6m1 0h5m3 0h3m2 0h1m4 0h2m1 0h1m2 0h3m2 0h1m1 0h1m1 0h1M5 66.5h1m4 0h2m1 0h1m2 0h1m1 0h2m3 0h1m1 0h4m3 0h1m1 0h1m1 0h3m1 0h1m1 0h1m1 0h6m1 0h3m3 0h2m3 0h1m2 0h1m4 0h5m1 0h2m2 0h2m1 0h1m1 0h3m2 0h2M4 67.5h1m4 0h1m1 0h1m2 0h2m5 0h2m5 0h1m6 0h1m1 0h1m1 0h3m2 0h1m1 0h8m2 0h1m1 0h1m1 0h1m2 0h1m1 0h1m3 0h1m1 0h7m1 0h1m1 0h2m1 0h2m2 0h4M4 68.5h2m2 0h7m1 0h5m2 0h1m2 0h1m9 0h2m1 0h1m3 0h4m2 0h1m1 0h2m1 0h2m1 0h1m2 0h2m5 0h4m2 0h1m2 0h1m2 0h1m2 0h2m2 0h2m1 0h1m1 0h1M4 69.5h1m7 0h3m6 0h2m3 0h1m6 0h1m1 0h1m1 0h1m1 0h3m3 0h2m1 0h1m2 0h2m1 0h2m3 0h1m1 0h1m1 0h4m1 0h1m4 0h2m2 0h7m1 0h1m1 0h1m1 0h1M4 70.5h2m2 0h1m1 0h4m1 0h2m1 0h1m1 0h1m3 0h2m2 0h1m3 0h1m1 0h1m1 0h1m1 0h1m2 0h1m1 0h2m2 0h1m1 0h1m1 0h1m2 0h2m1 0h1m1 0h2m2 0h2m2 0h1m3 0h2m3 0h5m1 0h2m2 0h3m2 0h2M9 71.5h1m2 0h1m2 0h2m1 0h1m1 0h2m5 0h2m3 0h4m1 0h1m3 0h2m5 0h1m1 0h2m1 0h1m1 0h2m1 0h1m1 0h2m2 0h1m1 0h2m5 0h1m2 0h6m3 0h2m2 0h2m1 0h1M4 72.5h3m1 0h1m1 0h1m2 0h1m4 0h1m2 0h2m1 0h2m3 0h2m3 0h1m2 0h1m2 0h4m1 0h2m3 0h1m1 0h4m3 0h1m1 0h1m4 0h1m2 0h1m1 0h1m1 0h1m1 0h3m1 0h1m1 0h2m5 0h1m2 0h2M4 73.5h1m1 0h1m1 0h2m1 0h1m2 0h3m2 0h3m7 0h1m1 0h2m1 0h1m3 0h1m1 0h1m1 0h6m5 0h2m3 0h1m1 0h1m1 0h1m1 0h1m3 0h1m1 0h1m2 0h5m3 0h1m6 0h4M6 74.5h1m3 0h2m3 0h1m1 0h1m1 0h3m2 0h7m2 0h1m1 0h2m1 0h1m3 0h3m4 0h1m1 0h2m1 0h5m2 0h2m1 0h1m5 0h2m1 0h1m1 0h3m2 0h3m2 0h2M4 75.5h1m2 0h1m1 0h1m1 0h2m3 0h1m4 0h2m1 0h1m1 0h4m3 0h1m1 0h1m1 0h1m1 0h1m1 0h1m2 0h4m1 0h1m5 0h1m2 0h2m2 0h1m3 0h2m4 0h3m1 0h1m4 0h2m4 0h2M8 76.5h1m1 0h3m4 0h4m1 0h4m3 0h1m1 0h1m7 0h3m1 0h1m1 0h2m1 0h5m3 0h1m2 0h3m1 0h1m1 0h2m2 0h1m2 0h2m1 0h1m2 0h1m2 0h2m1 0h1m2 0h2m2 0h2M6 77.5h4m2 0h3m3 0h1m1 0h1m2 0h1m2 0h1m4 0h1m1 0h1m1 0h1m2 0h4m1 0h1m1 0h1m3 0h2m1 0h3m1 0h4m2 0h3m2 0h1m1 0h1m2 0h1m1 0h1m4 0h3m1 0h3m2 0h1m1 0h2M5 78.5h2m1 0h3m1 0h1m3 0h3m1 0h4m1 0h2m1 0h2m1 0h3m2 0h4m4 0h3m1 0h1m1 0h1m2 0h1m1 0h2m1 0h1m1 0h2m2 0h1m1 0h3m1 0h2m2 0h1m1 0h1m1 0h2m2 0h1m1 0h1m2 0h1m2 0h2M6 79.5h2m1 0h1m1 0h1m4 0h1m3 0h2m1 0h1m3 0h1m1 0h1m3 0h1m1 0h1m4 0h1m3 0h1m2 0h3m2 0h1m2 0h4m1 0h1m1 0h2m1 0h2m4 0h1m1 0h1m1 0h1m1 0h2m8 0h1m4 0h1M4 80.5h1m5 0h1m6 0h4m1 0h1m2 0h2m1 0h1m1 0h2m1 0h3m1 0h2m1 0h1m1 0h1m4 0h1m2 0h1m1 0h1m7 0h1m4 0h1m4 0h1m4 0h1m2 0h1m2 0h3m1 0h1m1 0h1m2 0h1m1 0h1M4 81.5h1m2 0h1m4 0h1m5 0h1m1 0h1m4 0h1m1 0h2m2 0h1m2 0h2m2 0h3m1 0h5m2 0h2m3 0h1m1 0h4m2 0h1m1 0h4m3 0h6m1 0h1m1 0h1m3 0h4m1 0h4M4 82.5h1m2 0h1m2 0h1m1 0h1m3 0h3m1 0h1m2 0h4m6 0h1m2 0h1m1 0h2m1 0h6m1 0h2m3 0h3m1 0h1m1 0h1m1 0h1m4 0h4m1 0h4m1 0h1m1 0h3m2 0h2m2 0h1m2 0h1m1 0h1M4 83.5h2m2 0h2m4 0h1m1 0h5m6 0h1m1 0h2m3 0h2m5 0h1m1 0h2m1 0h1m1 0h3m1 0h1m1 0h1m1 0h2m1 0h1m1 0h1m1 0h2m1 0h1m1 0h3m1 0h1m1 0h4m1 0h4m2 0h2m1 0h2m2 0h1M4 84.5h1m2 0h1m2 0h1m2 0h4m1 0h2m2 0h1m3 0h1m1 0h1m1 0h7m2 0h1m2 0h1m3 0h1m1 0h2m1 0h1m1 0h10m1 0h1m1 0h4m2 0h2m3 0h1m1 0h1m2 0h10M12 85.5h1m2 0h3m1 0h1m4 0h2m1 0h1m1 0h2m1 0h1m3 0h4m1 0h1m1 0h2m1 0h2m4 0h4m1 0h2m3 0h7m1 0h1m2 0h1m1 0h8m1 0h1m3 0h2M4 86.5h7m1 0h6m1 0h1m7 0h3m2 0h1m1 0h1m1 0h6m2 0h4m1 0h1m3 0h2m1 0h1m1 0h1m1 0h1m1 0h3m1 0h1m1 0h1m3 0h3m1 0h3m1 0h2m1 0h2m1 0h1m1 0h1m1 0h1m1 0h1M4 87.5h1m5 0h1m2 0h1m1 0h1m1 0h2m3 0h4m2 0h1m1 0h3m3 0h3m4 0h2m2 0h1m1 0h2m2 0h1m3 0h2m3 0h2m2 0h2m1 0h3m3 0h1m2 0h3m3 0h1m3 0h2m2 0h1M4 88.5h1m1 0h3m1 0h1m1 0h10m3 0h1m2 0h1m3 0h6m1 0h4m1 0h2m2 0h2m5 0h1m2 0h7m2 0h3m2 0h1m2 0h1m1 0h1m1 0h3m1 0h7m1 0h2M4 89.5h1m1 0h3m1 0h1m1 0h1m2 0h1m4 0h2m1 0h1m3 0h1m2 0h2m1 0h2m1 0h1m1 0h3m1 0h4m1 0h1m1 0h2m1 0h1m6 0h2m3 0h1m2 0h2m1 0h2m1 0h2m2 0h1m1 0h2m3 0h1m1 0h6M4 90.5h1m1 0h3m1 0h1m1 0h1m1 0h1m1 0h2m1 0h2m1 0h1m1 0h2m2 0h2m1 0h2m1 0h2m2 0h2m6 0h1m1 0h3m3 0h2m4 0h1m1 0h3m1 0h2m1 0h4m1 0h2m1 0h1m2 0h2m1 0h1m3 0h1m3 0h1M4 91.5h1m5 0h1m1 0h6m1 0h1m1 0h1m4 0h1m2 0h3m4 0h1m2 0h1m3 0h1m3 0h1m3 0h2m4 0h1m10 0h3m1 0h1m3 0h10m2 0h4M4 92.5h7m1 0h1m1 0h1m1 0h6m7 0h2m5 0h1m2 0h1m4 0h1m4 0h2m1 0h1m1 0h2m1 0h1m8 0h2m1 0h1m1 0h1m2 0h2m1 0h1m1 0h2m1 0h2m3 0h1m1 0h1"/></svg>
