<svg xmlns="http://www.w3.org/2000/svg" viewBox="0 0 113 113" shape-rendering="crispEdges"><path fill="#ffffff" d="M0 0h113v113H0z"/><path stroke="#000000" d="M4 4.5h7m1 0h2m4 0h1m2 0h1m1 0h2m1 0h2m1 0h3m1 0h2m1 0h2m1 0h1m1 0h1m1 0h1m2 0h1m2 0h1m2 0h2m1 0h3m1 0h4m1 0h2m1 0h3m1 0h2m1 0h2m2 0h1m1 0h5m1 0h1m2 0h1m3 0h2m1 0h3m3 0h7M4 5.5h1m5 0h1m1 0h4m5 0h2m1 0h3m1 0h1m6 0h2m1 0h1m1 0h1m1 0h1m1 0h1m1 0h1m1 0h1m3 0h2m1 0h1m4 0h1m1 0h3m2 0h4m2 0h2m2 0h1m1 0h1m1 0h1m1 0h3m1 0h1m3 0h1m1 0h2m3 0h1m3 0h1m5 0h1M4 6.5h1m1 0h3m1 0h1m1 0h1m1 0h3m1 0h4m1 0h1m1 0h2m1 0h3m1 0h5m1 0h2m4 0h1m2 0h1m2 0h2m1 0h1m2 0h2m4 0h2m1 0h1m3 0h1m3 0h3m1 0h1m1 0h2m3 0h3m1 0h2m1 0h2m4 0h3m2 0h1m1 0h3m1 0h1M4 7.5h1m1 0h3m1 0h1m1 0h3m2 0h1m4 0h1m1 0h2m4 0h3m1 0h1m1 0h5m1 0h4m1 0h3m1 0h4m1 0h2m1 0h1m2 0h1m1 0h2m1 0h6m2 0h2m1 0h1m6 0h3m1 0h1m1 0h1m1 0h1m3 0h1m2 0h1m1 0h1m1 0h3m1 0h1M4 8.5h1m1 0h3m1 0h1m7 0h4m1 0h1m1 0h1m2 0h5m5 0h5m4 0h3m2 0h5m2 0h2m5 0h2m3 0h3m1 0h6m2 0h3m2 0h2m1 0h1m3 0h3m1 0h2m1 0h1m1 0h3m1 0h1M4 9.5h1m5 0h1m1 0h1m3 0h1m1 0h5m1 0h1m1 0h1m1 0h1m3 0h2m1 0h1m1 0h8m1 0h4m2 0h1m3 0h2m1 0h1m1 0h3m2 0h1m1 0h3m2 0h1m2 0h1m3 0h1m1 0h1m2 0h1m1 0h1m2 0h1m1 0h1m1 0h3m2 0h1m2 0h1m5 0h1M4 10.5h7m1 0h1m1 0h1m1 0h1m1 0h1m1 0h1m1 0h1m1 0h1m1 0h1m1 0h1m1 0h1m1 0h1m1 0h1m1 0h1m1 0h1m1 0h1m1 0h1m1 0h1m1 0h1m1 0h1m1 0h1m1 0h1m1 0h1m1 0h1m1 0h1m1 0h1m1 0h1m1 0h1m1 0h1m1 0h1m1 0h1m1 0h1m1 0h1m1 0h1m1 0h1m1 0h1m1 0h1m1 0h1m1 0h1m1 0h1m1 0h1m1 0h1m1 0h1m1 0h1m1 0h1m1 0h1m1 0h7M13 11.5h1m1 0h1m1 0h3m2 0h1m1 0h5m3 0h1m1 0h1m2 0h2m1 0h1m1 0h1m2 0h1m1 0h3m1 0h2m3 0h4m1 0h3m2 0h1m1 0h1m1 0h2m3 0h2m3 0h2m1 0h1m1 0h2m1 0h2m6 0h2m1 0h1M4 12.5h2m2 0h3m2 0h2m1 0h2m3 0h3m1 0h1m1 0h6m2 0h1m2 0h3m1 0h3m1 0h1m2 0h1m2 0h6m3 0h7m1 0h1m2 0h2m1 0h8m3 0h5m6 0h1m1 0h2m2 0h1m1 0h4M8 13.5h2m1 0h3m4 0h2m2 0h1m1 0h3m1 0h2m2 0h3m1 0h2m6 0h4m2 0h1m1 0h6m3 0h1m2 0h3m4 0h1m2 0h1m2 0h1m2 0h1m2 0h1m7 0h1m1 0h1m1 0h1m1 0h6m1 0h3m1 0h1M6 14.5h1m1 0h1m1 0h2m2 0h1m1 0h1m2 0h1m1 0h1m2 0h2m3 0h1m2 0h1m2 0h2m2 0h1m2 0h1m1 0h2m1 0h1m1 0h1m1 0h1m1 0h1m1 0h7m3 0h2m1 0h1m1 0h4m1 0h1m2 0h3m1 0h1m1 0h3m1 0h2m1 0h2m1 0h1m1 0h4m1 0h1m2 0h2M5 15.5h1m3 0h1m7 0h4m3 0h1m2 0h1m1 0h6m2 0h1m2 0h2m5 0h2m3 0h2m3 0h2m2 0h1m1 0h1m2 0h2m1 0h1m4 0h3m2 0h3m2 0h1m2 0h3m2 0h1m1 0h1m2 0h2m1 0h1m2 0h1m1 0h2m1 0h1M4 16.5h5m1 0h8m2 0h2m1 0h1m1 0h3m1 0h1m1 0h1m1 0h1m1 0h1m6 0h1m1 0h2m1 0h4m1 0h2m2 0h1m2 0h1m3 0h3m1 0h2m2 0h5m1 0h1m2 0h1m5 0h3m1 0h1m1 0h1m1 0h2m4 0h1m3 0h1m1 0h1M4 17.5h3m2 0h1m1 0h1m2 0h3m2 0h1m2 0h2m2 0h1m2 0h1m3 0h2m1 0h1m1 0h2m1 0h1m1 0h1m1 0h1m1 0h1m3 0h2m1 0h9m1 0h1m1 0h1m1 0h4m1 0h1m1 0h2m1 0h1m2 0h1m1 0h1m2 0h3m3 0h2m1 0h1m1 0h1m2 0h2m2 0h1m1 0h1m1 0h1M4 18.5h1m1 0h3m1 0h3m1 0h3m3 0h1m4 0h2m2 0h2m1 0h1m5 0h1m2 0h3m1 0h1m1 0h2m1 0h1m2 0h1m1 0h1m2 0h1m2 0h1m1 0h1m1 0h1m3 0h2m1 0h5m4 0h2m2 0h2m3 0h1m1 0h2m1 0h1m1 0h5m1 0h2m1 0h1M5 19.5h1m1 0h1m6 0h1m1 0h1m4 0h1m3 0h5m1 0h1m1 0h1m1 0h2m1 0h1m1 0h1m2 0h1m3 0h1m1 0h1m1 0h3m1 0h3m1 0h2m2 0h3m1 0h2m2 0h1m1 0h3m1 0h1m1 0h2m1 0h1m3 0h1m1 0h1m3 0h1m1 0h1m1 0h2m1 0h2m1 0h1m1 0h1m3 0h1M4 20.5h3m3 0h2m1 0h1m2 0h3m5 0h1m1 0h2m6 0h2m1 0h2m2 0h9m1 0h3m2 0h1m2 0h2m1 0h1m1 0h1m3 0h1m7 0h3m1 0h1m1 0h1m3 0h2m1 0h2m2 0h1m2 0h1m4 0h3m3 0h1M8 21.5h1m2 0h5m2 0h1m10 0h1m1 0h1m1 0h4m1 0h1m3 0h1m1 0h1m1 0h1m1 0h2m2 0h1m2 0h4m6 0h1m2 0h2m1 0h1m6 0h2m2 0h1m5 0h2m1 0h3m1 0h5m2 0h2m3 0h2M4 22.5h1m1 0h1m2 0h4m1 0h1m3 0h1m2 0h1m2 0h1m1 0h1m5 0h1m1 0h4m1 0h1m3 0h7m1 0h1m1 0h1m3 0h1m1 0h1m2 0h1m2 0h2m1 0h4m6 0h1m2 0h1m5 0h1m4 0h2m5 0h2m3 0h3m1 0h1M4 23.5h2m3 0h1m1 0h1m2 0h1m1 0h1m1 0h1m1 0h1m1 0h2m1 0h1m3 0h1m2 0h1m3 0h2m2 0h2m4 0h1m1 0h2m5 0h1m1 0h1m1 0h1m1 0h2m4 0h2m4 0h1m1 0h2m2 0h1m3 0h1m1 0h1m1 0h2m4 0h3m2 0h1m2 0h1m2 0h1m2 0h1M6 24.5h1m2 0h2m2 0h5m1 0h1m5 0h1m3 0h2m3 0h1m1 0h2m6 0h3m2 0h1m2 0h1m1 0h2m2 0h1m1 0h1m5 0h2m4 0h1m1 0h1m2 0h4m5 0h1m4 0h2m1 0h2m1 0h1m2 0h3m1 0h1m3 0h1M4 25.5h2m1 0h3m1 0h2m2 0h3m1 0h2m1 0h3m1 0h2m7 0h1m1 0h2m1 0h2m1 0h3m1 0h5m2 0h1m2 0h10m5 0h1m4 0h2m3 0h2m1 0h1m4 0h1m3 0h1m3 0h7m1 0h1M5 26.5h2m3 0h1m3 0h1m3 0h1m2 0h2m6 0h1m1 0h1m3 0h1m3 0h2m3 0h2m1 0h1m2 0h1m3 0h1m1 0h1m2 0h2m2 0h1m2 0h3m5 0h3m1 0h5m1 0h1m1 0h2m2 0h3m2 0h3m2 0h1m2 0h2m1 0h3M4 27.5h2m1 0h2m3 0h1m1 0h1m4 0h2m2 0h1m1 0h2m1 0h1m2 0h1m1 0h2m3 0h4m1 0h3m1 0h1m1 0h1m1 0h1m4 0h1m3 0h1m2 0h2m3 0h2m3 0h1m5 0h5m1 0h1m2 0h1m2 0h1m2 0h3m1 0h2m1 0h1M6 28.5h9m1 0h2m1 0h8m1 0h5m6 0h1m2 0h1m1 0h1m1 0h12m3 0h3m7 0h1m2 0h1m1 0h6m1 0h1m4 0h3m1 0h1m2 0h3m2 0h5m3 0h1M4 29.5h1m1 0h1m1 0h1m3 0h1m2 0h1m3 0h2m2 0h1m1 0h1m1 0h2m3 0h3m2 0h1m2 0h4m8 0h1m3 0h2m1 0h1m2 0h1m1 0h1m3 0h4m3 0h2m3 0h3m2 0h2m3 0h1m1 0h2m4 0h1m1 0h1m3 0h2m1 0h1M4 30.5h1m3 0h1m1 0h1m1 0h3m2 0h2m1 0h1m1 0h1m3 0h1m1 0h1m1 0h1m1 0h3m1 0h3m2 0h3m1 0h2m2 0h4m1 0h1m1 0h1m3 0h1m4 0h1m2 0h4m2 0h3m1 0h1m1 0h2m2 0h5m1 0h6m1 0h1m2 0h1m1 0h1m1 0h1m1 0h2M8 31.5h1m3 0h5m2 0h2m3 0h5m3 0h1m2 0h1m2 0h1m3 0h1m1 0h1m1 0h3m1 0h3m3 0h2m1 0h1m1 0h3m5 0h2m3 0h3m3 0h1m1 0h1m1 0h1m1 0h1m1 0h3m1 0h1m1 0h3m1 0h1m1 0h1m3 0h3m1 0h1M4 32.5h10m2 0h4m1 0h1m5 0h6m2 0h3m1 0h2m2 0h2m1 0h2m1 0h1m1 0h6m1 0h1m5 0h1m1 0h4m2 0h1m2 0h6m1 0h1m1 0h1m1 0h1m1 0h2m1 0h1m2 0h2m4 0h6M5 33.5h2m1 0h1m3 0h2m1 0h4m1 0h2m2 0h2m1 0h2m1 0h5m1 0h1m1 0h1m2 0h2m1 0h1m6 0h1m2 0h1m3 0h1m3 0h6m1 0h4m3 0h1m1 0h1m4 0h4m1 0h1m1 0h1m2 0h1m1 0h1m1 0h1m1 0h1m1 0h4m1 0h1M7 34.5h1m2 0h1m3 0h5m2 0h2m2 0h2m1 0h1m3 0h4m3 0h1m2 0h1m2 0h2m1 0h2m2 0h3m1 0h2m4 0h2m5 0h1m1 0h2m2 0h1m2 0h1m2 0h1m3 0h1m2 0h1m2 0h2m2 0h4m1 0h1m3 0h1m1 0h2M4 35.5h3m1 0h2m3 0h1m2 0h1m2 0h1m1 0h3m2 0h2m1 0h1m5 0h1m1 0h5m1 0h1m2 0h1m8 0h3m1 0h1m3 0h1m1 0h5m4 0h2m1 0h3m2 0h1m3 0h1m7 0h1m1 0h1m1 0h2m1 0h2m2 0h3M4 36.5h1m1 0h6m1 0h1m1 0h2m3 0h1m1 0h1m2 0h2m1 0h2m1 0h1m2 0h4m1 0h1m2 0h2m4 0h1m1 0h6m1 0h1m1 0h2m1 0h4m1 0h1m5 0h4m1 0h3m4 0h1m1 0h2m1 0h1m5 0h3m1 0h1m2 0h1m1 0h3M4 37.5h1m2 0h1m1 0h1m2 0h1m4 0h1m1 0h1m11 0h5m1 0h1m7 0h4m1 0h4m7 0h3m1 0h4m2 0h2m1 0h1m1 0h4m3 0h1m2 0h1m1 0h1m1 0h1m2 0h1m5 0h4m1 0h1m1 0h3M4 38.5h2m1 0h2m1 0h2m3 0h1m1 0h1m2 0h1m4 0h2m1 0h1m2 0h1m1 0h1m1 0h1m3 0h4m1 0h1m5 0h1m1 0h1m3 0h1m1 0h1m2 0h1m4 0h1m1 0h1m2 0h1m1 0h1m1 0h3m4 0h1m2 0h3m1 0h1m1 0h1m1 0h1m1 0h6m3 0h2m1 0h2M4 39.5h4m3 0h1m2 0h1m1 0h4m1 0h3m2 0h2m1 0h1m1 0h2m3 0h1m1 0h3m1 0h1m1 0h1m1 0h1m2 0h3m1 0h5m2 0h1m1 0h1m2 0h2m4 0h2m1 0h2m1 0h2m2 0h2m1 0h3m2 0h1m2 0h1m1 0h1m1 0h1m3 0h2m2 0h1m1 0h1m1 0h1M5 40.5h1m3 0h3m1 0h1m1 0h1m1 0h2m5 0h1m1 0h5m1 0h1m1 0h1m4 0h1m2 0h2m1 0h8m3 0h1m2 0h1m3 0h2m3 0h3m4 0h1m2 0h1m1 0h1m1 0h2m1 0h1m2 0h1m1 0h2m1 0h4m1 0h2m1 0h3m2 0h2M4 41.5h3m1 0h1m2 0h1m1 0h4m2 0h3m2 0h1m7 0h1m1 0h3m4 0h1m3 0h2m1 0h1m1 0h2m1 0h6m1 0h5m1 0h1m1 0h1m3 0h2m1 0h1m3 0h1m1 0h1m2 0h1m1 0h1m1 0h6m1 0h5m1 0h1m3 0h1m1 0h1M6 42.5h1m3 0h3m1 0h5m1 0h2m1 0h2m1 0h1m1 0h1m1 0h1m4 0h1m1 0h1m2 0h2m2 0h1m2 0h2m4 0h1m1 0h4m2 0h5m2 0h1m1 0h2m1 0h4m1 0h1m3 0h1m2 0h1m1 0h2m1 0h1m1 0h1m2 0h2m8 0h2m1 0h1M4 43.5h1m6 0h2m2 0h1m6 0h1m2 0h3m1 0h2m2 0h2m3 0h5m2 0h1m1 0h6m2 0h1m3 0h2m2 0h1m3 0h3m4 0h2m1 0h2m1 0h1m1 0h6m2 0h1m1 0h4m1 0h4m3 0h3M9 44.5h4m5 0h1m3 0h1m1 0h3m2 0h4m3 0h1m3 0h1m1 0h7m1 0h3m1 0h3m2 0h1m1 0h3m3 0h2m3 0h1m1 0h1m2 0h4m1 0h2m1 0h1m1 0h2m2 0h1m1 0h2m1 0h1m2 0h1m3 0h1m1 0h1m1 0h2M4 45.5h1m1 0h1m1 0h1m5 0h2m1 0h2m1 0h1m1 0h2m1 0h2m1 0h2m1 0h1m3 0h2m2 0h1m1 0h1m1 0h1m1 0h2m1 0h1m2 0h1m1 0h1m9 0h1m2 0h1m3 0h2m2 0h1m1 0h2m1 0h1m2 0h5m1 0h3m3 0h2m6 0h1m3 0h3M5 46.5h3m2 0h2m1 0h1m1 0h1m2 0h1m1 0h1m1 0h1m1 0h1m1 0h3m2 0h1m1 0h1m1 0h2m1 0h1m1 0h1m6 0h1m2 0h1m1 0h3m1 0h2m1 0h2m1 0h1m1 0h6m1 0h1m1 0h1m1 0h1m1 0h1m1 0h1m1 0h1m3 0h1m1 0h1m4 0h1m1 0h4m1 0h1m1 0h2m2 0h1m1 0h2M6 47.5h2m3 0h1m3 0h2m2 0h1m1 0h4m1 0h1m1 0h1m6 0h3m2 0h2m1 0h1m1 0h2m1 0h3m1 0h1m3 0h2m2 0h3m2 0h1m1 0h1m2 0h1m2 0h2m2 0h1m3 0h1m1 0h1m1 0h1m4 0h2m1 0h1m1 0h1m1 0h4m2 0h1m1 0h2M4 48.5h1m1 0h3m1 0h6m2 0h2m1 0h1m2 0h2m1 0h3m2 0h3m1 0h2m2 0h3m1 0h2m1 0h2m1 0h1m2 0h2m1 0h1m1 0h1m3 0h2m2 0h1m1 0h1m1 0h1m2 0h3m1 0h1m2 0h1m3 0h1m5 0h1m1 0h2m1 0h1m3 0h1m2 0h1m3 0h2M4 49.5h2m2 0h2m1 0h3m1 0h1m2 0h2m1 0h1m5 0h5m1 0h5m2 0h3m1 0h1m2 0h1m3 0h2m1 0h1m1 0h2m3 0h2m1 0h2m1 0h1m1 0h3m3 0h2m3 0h1m1 0h1m2 0h1m3 0h2m1 0h1m3 0h1m2 0h6m2 0h2M4 50.5h5m1 0h1m1 0h2m2 0h1m2 0h3m1 0h3m3 0h1m1 0h1m1 0h2m1 0h3m3 0h1m3 0h1m1 0h2m1 0h1m6 0h1m4 0h1m5 0h1m2 0h1m1 0h1m4 0h3m1 0h4m1 0h1m2 0h2m2 0h5m1 0h2M4 51.5h3m1 0h2m2 0h2m2 0h2m1 0h2m1 0h1m1 0h3m2 0h1m2 0h2m1 0h2m2 0h1m3 0h3m4 0h3m3 0h4m1 0h1m2 0h2m5 0h1m1 0h1m1 0h1m4 0h2m2 0h2m2 0h1m1 0h2m1 0h2m2 0h1m5 0h5M5 52.5h1m1 0h6m2 0h2m4 0h2m1 0h3m1 0h10m1 0h2m2 0h2m1 0h2m4 0h5m2 0h1m5 0h1m2 0h5m2 0h6m2 0h2m1 0h2m2 0h3m1 0h3m2 0h6m1 0h1m1 0h1M7 53.5h2m3 0h1m1 0h1m1 0h2m1 0h1m3 0h1m3 0h2m3 0h4m1 0h1m2 0h1m2 0h3m2 0h2m1 0h2m3 0h1m1 0h2m1 0h3m1 0h3m1 0h4m1 0h1m1 0h1m3 0h1m1 0h1m2 0h1m2 0h1m1 0h1m2 0h1m2 0h3m1 0h1m3 0h1m1 0h1M4 54.5h3m1 0h1m1 0h1m1 0h2m2 0h1m6 0h1m1 0h1m1 0h2m1 0h1m1 0h2m1 0h1m2 0h2m3 0h3m1 0h3m1 0h2m1 0h1m1 0h2m1 0h1m2 0h2m1 0h2m1 0h1m3 0h2m1 0h2m1 0h1m1 0h4m2 0h5m1 0h4m1 0h2m1 0h1m1 0h1m1 0h2M5 55.5h2m1 0h1m3 0h1m1 0h1m1 0h2m6 0h2m1 0h2m3 0h1m1 0h2m1 0h2m1 0h1m2 0h3m4 0h3m3 0h1m1 0h3m1 0h1m1 0h1m3 0h2m1 0h3m2 0h1m3 0h1m1 0h3m1 0h1m2 0h1m1 0h1m1 0h1m1 0h1m4 0h1m3 0h3M4 56.5h9m1 0h1m1 0h2m1 0h2m1 0h1m5 0h5m1 0h1m3 0h1m5 0h1m4 0h1m1 0h6m2 0h1m1 0h1m3 0h4m2 0h1m1 0h2m1 0h5m2 0h1m2 0h1m2 0h1m1 0h3m1 0h1m2 0h1m1 0h6M4 57.5h1m1 0h1m1 0h2m4 0h1m2 0h1m2 0h3m1 0h3m1 0h2m1 0h1m1 0h1m1 0h1m5 0h1m1 0h5m2 0h3m1 0h1m2 0h5m1 0h1m2 0h1m1 0h2m2 0h1m1 0h1m2 0h1m3 0h3m1 0h1m1 0h1m1 0h1m2 0h4m2 0h1m2 0h1m2 0h1m3 0h1M6 58.5h5m1 0h5m1 0h2m1 0h2m2 0h3m1 0h7m3 0h1m1 0h2m1 0h1m2 0h1m2 0h3m1 0h2m1 0h4m1 0h2m3 0h2m2 0h3m1 0h1m1 0h3m3 0h1m1 0h1m1 0h2m4 0h1m2 0h1m1 0h4m1 0h1m1 0h2M6 59.5h2m1 0h1m4 0h4m2 0h1m5 0h1m1 0h2m3 0h1m1 0h1m1 0h4m2 0h4m1 0h1m1 0h1m2 0h4m3 0h1m4 0h1m3 0h1m2 0h1m1 0h5m1 0h5m1 0h2m1 0h2m3 0h2m6 0h2m3 0h2M4 60.5h2m4 0h3m3 0h1m3 0h1m1 0h2m1 0h2m1 0h1m10 0h1m2 0h2m1 0h1m1 0h1m4 0h1m2 0h1m4 0h1m2 0h1m4 0h5m2 0h3m1 0h1m7 0h1m1 0h6m1 0h4m1 0h2m2 0h3M5 61.5h2m1 0h1m2 0h1m1 0h1m2 0h2m1 0h2m2 0h1m1 0h1m3 0h1m1 0h2m1 0h1m4 0h1m1 0h1m4 0h4m3 0h2m8 0h1m2 0h3m1 0h1m2 0h1m1 0h2m2 0h1m1 0h5m2 0h2m1 0h2m1 0h1m1 0h2m2 0h1m1 0h2m4 0h1M4 62.5h7m1 0h4m1 0h3m6 0h1m3 0h2m3 0h1m1 0h2m2 0h1m6 0h2m6 0h1m3 0h4m2 0h2m2 0h3m5 0h1m1 0h1m6 0h1m1 0h2m1 0h2m1 0h3m2 0h2m3 0h1m2 0h1M4 63.5h3m1 0h2m2 0h2m1 0h1m1 0h1m6 0h1m8 0h1m2 0h1m1 0h1m2 0h1m1 0h1m2 0h3m5 0h3m1 0h2m2 0h4m4 0h1m2 0h9m5 0h1m4 0h2m1 0h1m2 0h2m1 0h1m1 0h2M4 64.5h1m2 0h2m1 0h1m1 0h1m1 0h4m3 0h1m2 0h2m2 0h2m1 0h2m1 0h1m2 0h9m1 0h2m3 0h1m1 0h2m4 0h1m2 0h2m1 0h1m1 0h4m4 0h4m2 0h2m2 0h3m1 0h4m2 0h1m1 0h2m1 0h3m4 0h1M4 65.5h2m2 0h1m2 0h1m1 0h1m2 0h2m1 0h1m1 0h1m1 0h3m1 0h3m1 0h2m5 0h3m2 0h3m2 0h1m2 0h1m1 0h2m1 0h4m1 0h1m1 0h2m2 0h1m2 0h1m1 0h2m1 0h2m2 0h1m1 0h4m1 0h2m1 0h2m2 0h8m5 0h1M8 66.5h3m3 0h3m1 0h1m1 0h2m1 0h1m1 0h1m4 0h2m1 0h1m8 0h2m1 0h3m1 0h1m3 0h4m1 0h1m2 0h2m1 0h1m1 0h5m3 0h1m1 0h1m5 0h5m1 0h1m3 0h2m4 0h1m1 0h1m2 0h4m1 0h1M5 67.5h2m4 0h1m1 0h2m1 0h1m1 0h7m3 0h1m2 0h1m1 0h1m1 0h1m1 0h4m2 0h4m2 0h3m1 0h1m6 0h1m1 0h2m1 0h1m4 0h5m3 0h1m2 0h1m2 0h2m1 0h2m3 0h2m1 0h1m4 0h1m1 0h1m2 0h1m1 0h2M4 68.5h4m1 0h2m1 0h3m1 0h5m1 0h4m2 0h4m1 0h5m1 0h3m2 0h3m1 0h3m1 0h1m5 0h1m1 0h1m5 0h1m1 0h4m3 0h1m3 0h2m1 0h4m4 0h2m4 0h2m1 0h1m1 0h2m1 0h1m1 0h3M4 69.5h6m2 0h1m2 0h1m1 0h1m2 0h5m1 0h3m1 0h2m1 0h1m2 0h2m1 0h5m1 0h10m2 0h1m2 0h1m4 0h1m2 0h2m3 0h3m1 0h1m3 0h2m1 0h1m5 0h1m1 0h1m2 0h2m2 0h1m1 0h1m1 0h2m2 0h2M6 70.5h2m2 0h1m1 0h2m1 0h3m5 0h4m4 0h1m1 0h3m1 0h1m1 0h1m1 0h1m5 0h1m1 0h5m1 0h1m1 0h2m1 0h2m2 0h1m4 0h1m1 0h2m1 0h2m1 0h1m2 0h1m2 0h1m1 0h3m1 0h2m1 0h9m2 0h3M4 71.5h2m1 0h2m4 0h4m2 0h1m1 0h2m1 0h1m1 0h1m2 0h3m4 0h1m2 0h1m1 0h2m1 0h1m2 0h1m1 0h1m1 0h1m1 0h3m1 0h1m4 0h4m1 0h2m2 0h1m1 0h1m2 0h2m1 0h1m1 0h1m2 0h2m1 0h2m4 0h2m3 0h1m2 0h3m1 0h1M4 72.5h3m1 0h1m1 0h4m2 0h1m2 0h2m5 0h1m1 0h1m2 0h1m1 0h1m2 0h1m2 0h2m1 0h1m1 0h1m1 0h2m2 0h1m3 0h2m2 0h1m2 0h1m1 0h13m4 0h2m1 0h9m1 0h2m3 0h1m1 0h3m2 0h1m1 0h2M4 73.5h5m2 0h2m3 0h3m1 0h1m1 0h1m2 0h1m1 0h4m1 0h1m3 0h6m3 0h1m1 0h2m2 0h3m1 0h5m3 0h2m2 0h1m2 0h2m4 0h3m4 0h1m4 0h3m2 0h6m5 0h2m2 0h1M6 74.5h5m3 0h3m1 0h5m1 0h1m1 0h1m1 0h1m1 0h2m2 0h1m2 0h1m2 0h1m2 0h4m3 0h3m1 0h2m1 0h1m1 0h1m4 0h2m1 0h4m1 0h1m1 0h1m2 0h1m1 0h1m1 0h1m1 0h1m1 0h2m8 0h3m4 0h2M4 75.5h1m1 0h3m3 0h3m1 0h1m2 0h1m1 0h5m3 0h2m1 0h2m2 0h2m1 0h1m3 0h3m1 0h1m4 0h2m2 0h1m2 0h1m1 0h2m1 0h1m1 0h2m3 0h1m2 0h3m3 0h1m1 0h2m1 0h1m2 0h3m2 0h1m4 0h1m1 0h1m1 0h1m4 0h2M5 76.5h8m3 0h2m1 0h1m2 0h1m2 0h1m2 0h6m2 0h2m2 0h1m1 0h4m2 0h1m2 0h8m1 0h1m3 0h1m2 0h1m4 0h3m1 0h5m2 0h2m3 0h1m1 0h2m2 0h1m1 0h1m2 0h6m2 0h1M5 77.5h1m2 0h1m3 0h2m1 0h1m2 0h1m1 0h1m1 0h3m1 0h1m1 0h1m3 0h1m2 0h2m2 0h2m4 0h1m1 0h1m1 0h1m1 0h2m3 0h10m1 0h1m2 0h1m1 0h1m1 0h1m1 0h1m3 0h1m1 0h1m3 0h1m1 0h2m4 0h3m3 0h1m3 0h1m2 0h2M4 78.5h1m1 0h1m1 0h1m1 0h1m1 0h3m1 0h1m2 0h1m2 0h3m1 0h1m1 0h1m1 0h1m1 0h1m6 0h1m1 0h1m2 0h1m2 0h1m1 0h2m1 0h1m1 0h1m1 0h1m2 0h1m3 0h5m3 0h2m2 0h2m1 0h1m1 0h1m2 0h1m1 0h1m3 0h1m2 0h1m2 0h1m1 0h2m1 0h1m1 0h1m1 0h2M4 79.5h3m1 0h1m3 0h2m1 0h1m1 0h5m1 0h1m1 0h4m3 0h8m1 0h1m3 0h1m2 0h1m1 0h1m1 0h1m3 0h1m7 0h1m3 0h4m1 0h4m3 0h2m1 0h3m1 0h2m3 0h2m2 0h1m3 0h1m3 0h1m1 0h1m1 0h1M6 80.5h1m1 0h11m1 0h1m1 0h3m1 0h1m1 0h6m1 0h1m1 0h1m2 0h1m1 0h1m1 0h3m3 0h7m1 0h1m1 0h1m1 0h2m1 0h1m3 0h4m1 0h10m1 0h2m1 0h1m2 0h8m1 0h5m1 0h1M4 81.5h1m3 0h2m1 0h1m1 0h1m2 0h1m5 0h2m1 0h2m5 0h1m1 0h1m2 0h1m1 0h2m3 0h1m6 0h2m1 0h1m1 0h5m7 0h2m1 0h1m2 0h1m1 0h1m3 0h2m2 0h1m1 0h3m1 0h6m1 0h1m1 0h4m1 0h1m1 0h1m1 0h1M6 82.5h1m2 0h2m1 0h1m1 0h1m1 0h1m1 0h1m1 0h1m2 0h1m1 0h2m1 0h1m3 0h3m3 0h1m2 0h1m2 0h1m4 0h1m1 0h1m4 0h1m1 0h4m1 0h1m2 0h3m1 0h2m1 0h2m1 0h1m1 0h2m1 0h1m1 0h1m2 0h1m1 0h1m5 0h1m7 0h2m1 0h1m1 0h1M4 83.5h3m2 0h1m1 0h3m5 0h2m2 0h1m1 0h3m1 0h2m2 0h1m4 0h1m4 0h2m5 0h3m1 0h2m1 0h4m2 0h1m1 0h1m3 0h1m3 0h3m1 0h1m3 0h1m1 0h1m2 0h1m4 0h1m2 0h2m1 0h1m5 0h2m1 0h3M6 84.5h5m3 0h1m1 0h3m2 0h6m4 0h2m1 0h1m5 0h2m2 0h1m1 0h4m2 0h4m1 0h1m1 0h1m1 0h2m1 0h1m1 0h1m2 0h1m1 0h1m1 0h2m2 0h1m4 0h2m1 0h1m2 0h2m2 0h2m2 0h2m1 0h2m2 0h3M5 85.5h1m1 0h2m4 0h3m1 0h2m4 0h2m2 0h5m2 0h2m2 0h4m1 0h4m3 0h1m2 0h1m2 0h4m1 0h1m3 0h1m1 0h1m5 0h1m1 0h4m3 0h6m1 0h2m3 0h1m1 0h4m3 0h1m1 0h4M5 86.5h3m2 0h1m4 0h1m1 0h1m1 0h1m3 0h2m1 0h1m1 0h1m2 0h1m1 0h1m3 0h1m1 0h1m3 0h1m1 0h1m4 0h2m2 0h1m2 0h1m1 0h2m5 0h1m1 0h1m1 0h3m1 0h1m1 0h1m4 0h2m1 0h1m1 0h1m2 0h2m1 0h2m4 0h2m4 0h1m2 0h1M5 87.5h3m1 0h1m2 0h2m1 0h3m3 0h2m1 0h1m1 0h1m1 0h1m4 0h1m3 0h2m1 0h1m2 0h1m5 0h1m1 0h1m1 0h3m3 0h1m3 0h1m1 0h1m3 0h1m1 0h4m1 0h1m3 0h4m1 0h3m4 0h2m1 0h2m1 0h1m2 0h2m3 0h1m1 0h1M4 88.5h1m1 0h2m1 0h2m2 0h1m3 0h1m1 0h2m2 0h6m1 0h2m1 0h3m1 0h2m3 0h1m1 0h8m1 0h1m1 0h7m1 0h2m6 0h1m1 0h1m1 0h2m1 0h1m1 0h3m7 0h2m2 0h2m5 0h1m1 0h3m1 0h1M4 89.5h1m2 0h3m1 0h7m6 0h1m2 0h5m2 0h2m2 0h2m2 0h1m1 0h3m2 0h2m4 0h1m6 0h1m1 0h1m1 0h1m2 0h1m1 0h1m2 0h1m2 0h3m3 0h1m1 0h1m1 0h1m1 0h4m3 0h5m1 0h5m1 0h1M5 90.5h2m1 0h1m1 0h6m3 0h2m1 0h1m1 0h1m2 0h1m1 0h1m1 0h1m5 0h2m1 0h1m2 0h1m2 0h6m3 0h3m1 0h4m1 0h3m1 0h1m2 0h2m1 0h4m2 0h1m2 0h2m1 0h1m3 0h2m1 0h1m1 0h2m1 0h2m2 0h1m1 0h1M7 91.5h1m1 0h1m2 0h4m1 0h2m1 0h1m1 0h1m3 0h3m2 0h1m1 0h1m2 0h1m2 0h1m1 0h2m1 0h1m4 0h1m1 0h2m3 0h3m1 0h1m3 0h1m2 0h2m1 0h2m2 0h1m1 0h1m1 0h1m2 0h1m2 0h1m1 0h3m3 0h3m1 0h1m2 0h1m1 0h2m1 0h1m1 0h2M4 92.5h2m2 0h1m1 0h1m2 0h1m2 0h1m3 0h5m1 0h1m2 0h1m1 0h1m1 0h1m1 0h2m1 0h1m1 0h3m1 0h1m1 0h4m3 0h1m9 0h2m3 0h2m3 0h1m1 0h2m4 0h2m1 0h1m1 0h1m4 0h1m4 0h1m3 0h4m1 0h3M4 93.5h4m1 0h1m5 0h1m3 0h1m1 0h1m1 0h2m1 0h1m2 0h2m2 0h2m1 0h1m2 0h1m2 0h4m1 0h1m1 0h4m1 0h1m5 0h2m1 0h3m5 0h2m1 0h1m3 0h1m1 0h1m2 0h1m1 0h2m2 0h2m1 0h4m4 0h1m3 0h1M5 94.5h1m2 0h1m1 0h1m1 0h1m1 0h2m2 0h6m5 0h1m3 0h2m1 0h5m2 0h7m1 0h3m1 0h1m1 0h3m2 0h5m1 0h1m2 0h1m3 0h2m1 0h1m1 0h6m2 0h1m1 0h1m1 0h5m1 0h1m3 0h1m2 0h1m1 0h2M4 95.5h2m1 0h3m3 0h3m1 0h2m3 0h1m1 0h4m1 0h6m1 0h1m2 0h1m1 0h1m3 0h2m1 0h2m4 0h3m2 0h2m6 0h4m1 0h1m2 0h1m2 0h1m1 0h2m3 0h1m5 0h2m4 0h2m1 0h1m4 0h1m2 0h1M4 96.5h4m1 0h3m1 0h1m2 0h1m1 0h1m3 0h1m1 0h2m2 0h1m2 0h1m1 0h4m2 0h2m3 0h1m1 0h1m1 0h2m1 0h4m1 0h3m3 0h1m1 0h4m2 0h2m1 0h1m2 0h1m2 0h2m1 0h1m1 0h2m2 0h2m1 0h1m1 0h2m3 0h2m1 0h1m1 0h1m1 0h1m1 0h2M4 97.5h4m1 0h1m1 0h2m3 0h2m1 0h1m2 0h3m1 0h3m1 0h2m1 0h3m2 0h1m2 0h1m1 0h2m1 0h2m2 0h2m1 0h2m1 0h1m1 0h3m1 0h1m1 0h1m7 0h1m3 0h2m3 0h1m1 0h4m3 0h1m1 0h6m2 0h2m1 0h1m2 0h2M4 98.5h3m3 0h1m2 0h2m1 0h3m1 0h4m1 0h1m2 0h1m1 0h2m1 0h2m3 0h1m6 0h1m4 0h1m3 0h2m1 0h2m1 0h5m1 0h5m2 0h2m1 0h3m1 0h1m1 0h1m1 0h1m1 0h2m1 0h1m2 0h4m1 0h2m3 0h1m1 0h1m1 0h1m1 0h1M6 99.5h1m1 0h2m1 0h1m4 0h2m1 0h2m2 0h1m1 0h3m2 0h2m3 0h2m3 0h2m1 0h1m3 0h2m1 0h3m2 0h1m3 0h3m1 0h1m2 0h1m3 0h2m2 0h1m2 0h2m1 0h4m1 0h1m1 0h2m1 0h2m2 0h2m1 0h2m3 0h1m1 0h2m1 0h2M7 100.5h2m1 0h1m2 0h3m1 0h3m1 0h3m3 0h7m1 0h2m2 0h2m3 0h1m7 0h6m2 0h3m1 0h4m3 0h1m1 0h2m1 0h6m2 0h1m3 0h1m1 0h1m1 0h2m4 0h8m1 0h2M12 101.5h2m4 0h2m1 0h1m2 0h1m3 0h1m3 0h1m1 0h1m1 0h2m2 0h1m1 0h7m2 0h2m3 0h3m1 0h1m1 0h1m1 0h5m2 0h1m2 0h3m3 0h1m3 0h2m4 0h4m2 0h2m2 0h1m3 0h1m1 0h1M4 102.5h7m3 0h4m1 0h1m2 0h1m2 0h4m1 0h1m1 0h3m1 0h3m3 0h1m1 0h1m1 0h1m2 0h2m1 0h1m1 0h1m1 0h2m1 0h1m4 0h1m2 0h1m1 0h1m1 0h1m2 0h3m1 0h1m1 0h2m1 0h2m1 0h1m1 0h2m1 0h2m4 0h4m1 0h1m1 0h1m1 0h1M4 103.5h1m5 0h1m1 0h2m2 0h2m1 0h2m2 0h1m1 0h1m2 0h1m3 0h1m1 0h3m1 0h2m2 0h4m1 0h2m3 0h1m3 0h1m1 0h2m1 0h3m1 0h2m1 0h2m3 0h2m1 0h1m3 0h3m1 0h1m3 0h3m1 0h2m1 0h1m3 0h2m3 0h1m1 0h2M4 104.5h1m1 0h3m1 0h1m1 0h2m3 0h3m1 0h3m1 0h1m1 0h8m3 0h1m4 0h5m4 0h5m1 0h1m2 0h2m1 0h1m1 0h1m1 0h3m1 0h1m2 0h9m1 0h1m1 0h4m6 0h1m1 0h7m1 0h2M4 105.5h1m1 0h3m1 0h1m4 0h1m2 0h6m1 0h1m1 0h2m2 0h1m1 0h1m1 0h7m1 0h1m1 0h2m2 0h2m1 0h1m1 0h2m1 0h2m4 0h3m1 0h3m1 0h3m1 0h7m1 0h3m3 0h1m1 0h1m4 0h1m2 0h1m2 0h1m1 0h1m1 0h3M4 106.5h1m1 0h3m1 0h1m3 0h2m1 0h1m1 0h1m1 0h7m1 0h2m1 0h1m2 0h1m2 0h8m2 0h1m3 0h1m2 0h2m2 0h3m1 0h2m1 0h1m1 0h2m1 0h2m2 0h1m1 0h2m5 0h1m11 0h1m6 0h1m1 0h1M4 107.5h1m5 0h1m1 0h3m2 0h7m1 0h11m2 0h1m1 0h2m1 0h1m3 0h1m1 0h3m1 0h2m2 0h1m8 0h3m1 0h2m2 0h3m1 0h1m2 0h1m2 0h4m3 0h1m4 0h2m1 0h3m1 0h1m1 0h2M4 108.5h7m1 0h1m1 0h1m2 0h3m1 0h3m2 0h1m1 0h2m1 0h1m2 0h3m1 0h1m1 0h1m1 0h2m6 0h3m1 0h1m1 0h2m2 0h1m1 0h2m2 0h2m1 0h2m4 0h1m1 0h4m1 0h4m2 0h1m3 0h2m2 0h1m1 0h3m1 0h2m2 0h1m1 0h1"/></svg>
