<svg xmlns="http://www.w3.org/2000/svg" viewBox="0 0 117 117" shape-rendering="crispEdges"><path fill="#ffffff" d="M0 0h117v117H0z"/><path stroke="#000000" d="M4 4.5h7m2 0h3m1 0h1m1 0h3m1 0h1m2 0h1m2 0h1m4 0h2m2 0h1m2 0h1m3 0h5m1 0h1m1 0h1m9 0h3m1 0h1m4 0h2m2 0h2m1 0h1m2 0h1m1 0h1m3 0h2m1 0h1m4 0h6m2 0h1m1 0h7M4 5.5h1m5 0h1m2 0h1m5 0h2m1 0h2m1 0h1m11 0h1m2 0h1m1 0h4m2 0h1m1 0h1m2 0h3m6 0h3m1 0h1m6 0h2m2 0h3m1 0h1m1 0h3m1 0h1m1 0h1m1 0h1m5 0h2m3 0h1m1 0h1m1 0h1m5 0h1M4 6.5h1m1 0h3m1 0h1m1 0h1m4 0h3m3 0h3m1 0h2m1 0h1m1 0h1m1 0h2m1 0h1m1 0h3m1 0h5m1 0h1m1 0h3m1 0h1m1 0h1m2 0h1m2 0h1m1 0h2m1 0h3m2 0h2m1 0h3m3 0h1m1 0h4m2 0h4m5 0h2m1 0h3m1 0h1m1 0h3m1 0h1M4 7.5h1m1 0h3m1 0h1m1 0h1m2 0h3m1 0h2m2 0h1m1 0h1m1 0h1m1 0h3m2 0h6m2 0h2m1 0h1m1 0h1m1 0h3m2 0h1m6 0h2m2 0h2m1 0h2m3 0h2m2 0h1m3 0h1m4 0h2m1 0h1m3 0h1m1 0h3m1 0h5m2 0h1m1 0h3m1 0h1M4 8.5h1m1 0h3m1 0h1m1 0h1m1 0h1m3 0h1m2 0h2m3 0h2m1 0h1m1 0h11m3 0h2m2 0h2m2 0h2m1 0h5m2 0h2m2 0h1m1 0h2m1 0h1m2 0h3m2 0h5m1 0h4m4 0h1m2 0h2m2 0h4m1 0h1m1 0h3m1 0h1M4 9.5h1m5 0h1m1 0h1m3 0h5m3 0h9m3 0h4m1 0h1m1 0h5m1 0h1m1 0h1m3 0h2m3 0h2m2 0h1m1 0h2m2 0h1m1 0h1m1 0h1m1 0h2m1 0h2m3 0h2m2 0h1m2 0h2m1 0h1m1 0h1m2 0h3m1 0h1m2 0h1m5 0h1M4 10.5h7m1 0h1m1 0h1m1 0h1m1 0h1m1 0h1m1 0h1m1 0h1m1 0h1m1 0h1m1 0h1m1 0h1m1 0h1m1 0h1m1 0h1m1 0h1m1 0h1m1 0h1m1 0h1m1 0h1m1 0h1m1 0h1m1 0h1m1 0h1m1 0h1m1 0h1m1 0h1m1 0h1m1 0h1m1 0h1m1 0h1m1 0h1m1 0h1m1 0h1m1 0h1m1 0h1m1 0h1m1 0h1m1 0h1m1 0h1m1 0h1m1 0h1m1 0h1m1 0h1m1 0h1m1 0h1m1 0h1m1 0h1m1 0h7M12 11.5h3m1 0h1m1 0h1m1 0h1m1 0h2m1 0h1m1 0h3m2 0h1m3 0h3m1 0h2m5 0h3m4 0h3m3 0h2m1 0h2m5 0h1m1 0h4m3 0h2m3 0h1m4 0h1m2 0h2m2 0h1m2 0h2m2 0h1M4 12.5h1m1 0h5m2 0h1m1 0h4m1 0h1m4 0h4m2 0h6m1 0h3m1 0h5m2 0h1m1 0h2m2 0h8m1 0h2m1 0h1m2 0h1m2 0h1m1 0h2m1 0h1m1 0h6m3 0h1m5 0h1m2 0h1m1 0h1m1 0h3m1 0h5M4 13.5h2m3 0h1m1 0h3m1 0h1m2 0h2m1 0h1m5 0h3m9 0h2m2 0h4m2 0h5m1 0h1m1 0h2m3 0h1m2 0h1m1 0h1m1 0h1m1 0h1m1 0h1m1 0h1m2 0h2m4 0h5m2 0h1m6 0h1m1 0h2m1 0h1m1 0h3m1 0h2m1 0h1M4 14.5h1m5 0h3m2 0h1m2 0h2m2 0h3m2 0h1m3 0h1m1 0h2m2 0h1m5 0h1m3 0h5m2 0h2m1 0h1m1 0h1m3 0h1m1 0h6m3 0h2m2 0h1m1 0h2m1 0h1m1 0h1m5 0h3m2 0h1m7 0h2m1 0h5M4 15.5h1m2 0h2m3 0h1m1 0h6m3 0h1m1 0h1m2 0h2m4 0h1m1 0h1m2 0h1m1 0h1m1 0h4m1 0h1m4 0h1m1 0h1m1 0h2m2 0h2m1 0h1m1 0h1m2 0h2m1 0h1m1 0h2m6 0h1m1 0h1m2 0h1m2 0h1m2 0h1m1 0h7m1 0h1m1 0h2M4 16.5h2m1 0h2m1 0h1m1 0h1m4 0h1m2 0h1m3 0h2m1 0h1m2 0h1m2 0h2m1 0h1m4 0h1m2 0h1m1 0h1m1 0h3m2 0h4m1 0h2m1 0h1m3 0h2m1 0h3m2 0h2m5 0h3m4 0h1m2 0h1m5 0h5m1 0h2m1 0h2m5 0h1M4 17.5h1m1 0h2m1 0h1m1 0h1m3 0h3m2 0h2m2 0h9m1 0h1m3 0h6m2 0h1m1 0h2m1 0h4m2 0h2m3 0h2m1 0h3m2 0h3m4 0h1m1 0h1m2 0h2m1 0h1m2 0h3m2 0h1m5 0h4m3 0h3M5 18.5h1m4 0h3m1 0h2m1 0h4m3 0h1m1 0h1m2 0h1m9 0h1m3 0h1m5 0h5m3 0h1m1 0h1m2 0h1m2 0h1m1 0h1m1 0h2m5 0h1m1 0h4m1 0h1m2 0h2m1 0h1m1 0h1m2 0h2m1 0h3m2 0h1m2 0h4M5 19.5h1m2 0h2m1 0h1m2 0h1m1 0h1m2 0h2m1 0h1m1 0h2m1 0h2m4 0h1m3 0h2m1 0h2m1 0h1m2 0h1m1 0h1m1 0h1m1 0h1m1 0h1m1 0h1m1 0h1m2 0h2m3 0h4m3 0h1m7 0h1m3 0h2m1 0h1m1 0h1m4 0h1m4 0h1m2 0h2m1 0h1m2 0h1m1 0h2M4 20.5h3m3 0h1m1 0h1m1 0h2m1 0h1m1 0h1m1 0h2m2 0h1m6 0h1m2 0h1m4 0h5m1 0h4m2 0h2m2 0h4m4 0h1m3 0h1m1 0h1m2 0h1m1 0h1m5 0h5m4 0h1m1 0h1m1 0h6m2 0h6M4 21.5h1m6 0h1m1 0h1m2 0h2m1 0h2m2 0h2m2 0h1m3 0h1m3 0h3m3 0h1m2 0h2m1 0h2m1 0h2m3 0h3m3 0h1m2 0h1m2 0h1m2 0h2m1 0h1m2 0h3m2 0h5m1 0h1m1 0h1m1 0h1m2 0h2m2 0h2m4 0h1m3 0h1m1 0h1M4 22.5h1m1 0h1m1 0h1m1 0h4m1 0h1m2 0h2m2 0h1m2 0h1m2 0h1m1 0h1m2 0h3m1 0h2m1 0h1m1 0h1m2 0h3m2 0h2m5 0h1m1 0h2m2 0h1m2 0h5m5 0h2m1 0h5m1 0h1m1 0h2m2 0h1m1 0h1m1 0h1m4 0h5m1 0h1m1 0h2m1 0h1M4 23.5h1m1 0h1m2 0h1m1 0h1m1 0h3m1 0h2m3 0h2m1 0h1m2 0h1m2 0h2m5 0h1m2 0h3m2 0h1m1 0h3m2 0h3m6 0h5m1 0h1m2 0h1m1 0h2m2 0h1m3 0h5m2 0h1m3 0h3m2 0h1m1 0h1m3 0h7M5 24.5h1m2 0h5m2 0h3m2 0h2m3 0h1m1 0h1m2 0h2m1 0h2m1 0h5m3 0h2m1 0h1m2 0h4m6 0h2m2 0h1m3 0h1m3 0h6m1 0h1m2 0h1m2 0h4m1 0h4m1 0h1m1 0h2m9 0h1m2 0h1M9 25.5h1m2 0h2m1 0h1m2 0h1m3 0h2m1 0h1m4 0h1m2 0h1m1 0h1m1 0h2m1 0h4m1 0h2m1 0h1m2 0h1m1 0h1m3 0h1m2 0h4m1 0h1m1 0h2m4 0h3m3 0h1m2 0h2m1 0h1m2 0h1m1 0h1m1 0h2m4 0h2m2 0h1m1 0h2m1 0h3M4 26.5h2m1 0h2m1 0h1m5 0h3m5 0h3m1 0h2m1 0h1m1 0h3m5 0h1m2 0h1m1 0h2m2 0h1m1 0h1m1 0h2m3 0h2m1 0h1m2 0h1m2 0h1m1 0h1m1 0h1m2 0h1m3 0h2m1 0h1m1 0h3m2 0h1m1 0h2m4 0h1m1 0h1m2 0h3m1 0h4m1 0h2M5 27.5h1m1 0h1m5 0h1m1 0h5m2 0h1m2 0h4m1 0h1m1 0h1m4 0h1m1 0h1m6 0h2m3 0h1m1 0h1m1 0h2m2 0h1m2 0h6m2 0h2m1 0h1m2 0h1m3 0h2m1 0h2m3 0h1m5 0h2m2 0h1m3 0h3m1 0h1m2 0h1m1 0h2M5 28.5h1m1 0h6m1 0h1m1 0h1m5 0h4m1 0h12m2 0h3m1 0h1m2 0h2m3 0h10m3 0h1m3 0h1m1 0h4m1 0h3m4 0h1m3 0h2m9 0h5m3 0h2m1 0h3M4 29.5h2m3 0h1m1 0h1m4 0h1m1 0h2m3 0h1m1 0h1m2 0h1m3 0h4m1 0h8m2 0h2m5 0h3m6 0h1m1 0h1m2 0h1m3 0h2m1 0h1m2 0h1m3 0h3m1 0h1m2 0h1m4 0h1m2 0h1m1 0h1m1 0h6M5 30.5h1m1 0h1m2 0h1m1 0h5m1 0h1m2 0h1m1 0h2m3 0h3m1 0h3m1 0h2m4 0h1m1 0h2m1 0h1m1 0h1m2 0h3m2 0h5m2 0h2m3 0h3m2 0h1m1 0h1m1 0h1m5 0h3m1 0h1m3 0h1m1 0h1m1 0h1m5 0h4m1 0h1m1 0h1m2 0h1M6 31.5h1m1 0h2m1 0h5m1 0h1m1 0h1m9 0h1m1 0h3m1 0h1m1 0h1m1 0h3m2 0h1m1 0h1m8 0h1m6 0h2m1 0h3m1 0h3m2 0h1m2 0h2m3 0h2m1 0h1m2 0h4m1 0h3m2 0h5m4 0h1m1 0h1M4 32.5h3m1 0h7m5 0h3m2 0h2m1 0h2m1 0h6m1 0h1m5 0h2m2 0h2m3 0h13m1 0h1m1 0h1m1 0h3m1 0h3m1 0h8m1 0h1m1 0h1m2 0h5m1 0h3m1 0h8M5 33.5h2m1 0h1m3 0h5m2 0h1m1 0h1m1 0h1m2 0h1m1 0h1m1 0h1m1 0h1m3 0h1m1 0h3m1 0h1m1 0h1m3 0h1m2 0h1m2 0h1m1 0h1m3 0h3m3 0h1m2 0h2m1 0h2m1 0h2m1 0h1m1 0h1m3 0h1m1 0h3m1 0h1m1 0h3m2 0h2m1 0h5m3 0h3M5 34.5h2m1 0h1m1 0h1m1 0h1m1 0h1m1 0h2m1 0h2m1 0h1m1 0h1m3 0h2m2 0h1m1 0h1m1 0h1m2 0h2m2 0h1m1 0h1m3 0h1m1 0h4m1 0h1m1 0h1m1 0h3m1 0h1m5 0h1m2 0h4m1 0h1m1 0h1m1 0h1m1 0h4m1 0h2m2 0h2m2 0h1m1 0h1m4 0h1m1 0h1m1 0h1M4 35.5h1m1 0h3m3 0h3m4 0h1m2 0h1m1 0h1m3 0h2m1 0h2m3 0h2m1 0h2m2 0h1m2 0h1m1 0h1m2 0h1m4 0h1m3 0h4m2 0h2m1 0h1m1 0h4m1 0h1m2 0h2m3 0h1m1 0h1m2 0h3m2 0h3m2 0h2m2 0h2m3 0h2m2 0h1M6 36.5h7m2 0h1m2 0h1m1 0h4m2 0h2m2 0h1m1 0h8m1 0h1m1 0h1m2 0h1m2 0h1m4 0h1m1 0h6m8 0h1m1 0h2m1 0h4m1 0h6m2 0h2m1 0h1m2 0h3m2 0h1m1 0h8m2 0h2M5 37.5h4m2 0h1m2 0h3m1 0h1m1 0h4m1 0h1m2 0h1m1 0h1m2 0h1m1 0h2m1 0h2m4 0h1m1 0h1m1 0h1m3 0h1m2 0h1m2 0h1m1 0h1m1 0h2m3 0h1m3 0h3m2 0h2m2 0h2m1 0h1m1 0h1m4 0h1m1 0h3m5 0h1m1 0h2m1 0h1m1 0h4m1 0h1M4 38.5h2m2 0h1m1 0h1m2 0h3m4 0h1m1 0h1m2 0h3m2 0h2m1 0h2m1 0h1m1 0h1m2 0h1m2 0h2m1 0h2m1 0h2m2 0h2m1 0h1m3 0h2m1 0h1m4 0h3m1 0h1m7 0h3m2 0h1m1 0h1m2 0h2m1 0h5m2 0h1m2 0h4m2 0h1m1 0h1M6 39.5h2m4 0h1m2 0h2m2 0h1m2 0h1m1 0h1m2 0h2m1 0h1m2 0h1m6 0h3m6 0h1m5 0h4m2 0h1m1 0h1m1 0h3m2 0h4m1 0h2m2 0h3m4 0h1m1 0h2m1 0h5m1 0h1m1 0h3m1 0h2m1 0h2m1 0h2m1 0h1M4 40.5h7m1 0h2m2 0h1m2 0h2m4 0h1m3 0h3m2 0h4m1 0h1m3 0h1m1 0h5m1 0h1m2 0h2m3 0h3m3 0h2m4 0h1m2 0h1m1 0h1m7 0h3m1 0h2m3 0h1m1 0h3m2 0h1m2 0h3m3 0h2m1 0h1M9 41.5h1m1 0h2m2 0h2m2 0h2m3 0h2m1 0h2m1 0h2m1 0h1m2 0h1m2 0h3m6 0h1m5 0h1m2 0h2m4 0h1m2 0h2m3 0h1m3 0h2m3 0h3m1 0h1m4 0h2m1 0h1m4 0h4m2 0h2m1 0h2m4 0h1M4 42.5h2m3 0h4m1 0h1m6 0h5m1 0h1m1 0h1m2 0h2m3 0h2m2 0h2m4 0h1m1 0h2m1 0h1m2 0h3m2 0h2m2 0h4m2 0h1m2 0h4m3 0h3m1 0h1m2 0h5m1 0h1m1 0h1m2 0h3m4 0h1m5 0h1M4 43.5h2m5 0h2m2 0h1m3 0h1m2 0h1m2 0h1m3 0h1m1 0h6m1 0h3m1 0h2m1 0h1m1 0h2m3 0h1m7 0h1m2 0h1m4 0h1m1 0h6m1 0h5m2 0h2m1 0h2m3 0h2m2 0h3m4 0h1m2 0h1m2 0h1M6 44.5h2m2 0h2m1 0h1m1 0h2m5 0h3m2 0h1m1 0h2m1 0h3m1 0h1m1 0h2m1 0h1m1 0h1m3 0h1m1 0h1m1 0h7m1 0h3m1 0h4m1 0h1m1 0h1m1 0h1m1 0h2m6 0h1m1 0h3m1 0h2m1 0h1m1 0h1m1 0h1m1 0h2m1 0h4m1 0h2m1 0h1m1 0h2M4 45.5h1m1 0h2m3 0h2m1 0h3m1 0h3m1 0h1m1 0h3m1 0h1m1 0h1m2 0h2m1 0h1m1 0h2m3 0h2m2 0h1m5 0h2m3 0h1m1 0h1m5 0h2m1 0h9m1 0h1m4 0h3m1 0h1m4 0h3m1 0h1m2 0h5m1 0h1m1 0h3M6 46.5h1m3 0h2m1 0h3m2 0h1m1 0h1m1 0h3m2 0h2m1 0h4m1 0h2m1 0h1m4 0h1m3 0h1m1 0h1m2 0h3m1 0h3m1 0h2m2 0h3m1 0h1m1 0h2m2 0h1m1 0h1m2 0h2m5 0h1m1 0h2m1 0h1m2 0h4m1 0h1m5 0h1m1 0h1m2 0h3M4 47.5h3m2 0h1m4 0h3m1 0h1m3 0h1m1 0h1m3 0h2m2 0h2m1 0h3m3 0h1m2 0h1m1 0h1m3 0h2m2 0h3m2 0h1m3 0h2m2 0h1m1 0h2m1 0h2m2 0h2m3 0h1m2 0h1m2 0h1m1 0h1m1 0h6m1 0h1m1 0h2m1 0h2m4 0h2M5 48.5h1m1 0h2m1 0h4m3 0h2m1 0h1m1 0h1m2 0h1m2 0h2m1 0h2m7 0h1m1 0h1m2 0h1m1 0h1m2 0h1m2 0h3m2 0h1m1 0h2m2 0h1m1 0h1m1 0h8m1 0h5m1 0h1m1 0h2m2 0h1m5 0h3m2 0h3m2 0h2m2 0h1M4 49.5h1m2 0h1m1 0h1m5 0h2m2 0h1m1 0h1m3 0h1m1 0h3m2 0h5m3 0h6m4 0h2m1 0h1m2 0h3m1 0h1m1 0h7m1 0h1m1 0h1m2 0h1m2 0h1m2 0h1m2 0h2m3 0h3m1 0h2m3 0h4m1 0h1m2 0h1m2 0h1M4 50.5h1m2 0h1m2 0h1m1 0h3m1 0h1m4 0h2m1 0h1m4 0h3m2 0h1m2 0h3m3 0h1m1 0h3m4 0h1m2 0h2m2 0h4m2 0h1m3 0h3m1 0h3m1 0h1m1 0h1m1 0h1m1 0h10m3 0h5m3 0h1m1 0h2m3 0h2M4 51.5h2m2 0h1m2 0h3m1 0h1m3 0h2m1 0h1m2 0h1m1 0h2m3 0h4m1 0h1m3 0h3m2 0h1m2 0h1m1 0h1m3 0h1m2 0h1m3 0h1m1 0h1m1 0h2m1 0h1m2 0h1m1 0h1m1 0h1m6 0h3m2 0h2m2 0h1m3 0h1m1 0h1m1 0h1m2 0h3m3 0h3M5 52.5h1m1 0h4m1 0h1m1 0h1m1 0h2m1 0h3m1 0h3m1 0h2m2 0h1m1 0h1m1 0h13m2 0h1m2 0h1m1 0h2m4 0h1m1 0h3m1 0h1m5 0h2m1 0h2m2 0h1m1 0h7m1 0h2m1 0h1m1 0h3m1 0h2m5 0h1m1 0h1M4 53.5h1m11 0h3m2 0h1m2 0h1m2 0h1m1 0h2m2 0h1m1 0h1m1 0h1m1 0h2m8 0h1m1 0h1m2 0h2m2 0h2m1 0h4m1 0h2m1 0h5m2 0h2m2 0h4m2 0h1m3 0h1m1 0h1m1 0h3m2 0h1m1 0h2m1 0h2m3 0h1m1 0h2M4 54.5h3m2 0h7m1 0h1m1 0h1m1 0h2m1 0h2m1 0h1m1 0h1m2 0h1m2 0h1m2 0h3m2 0h1m3 0h4m1 0h2m1 0h6m2 0h3m3 0h2m4 0h2m3 0h1m2 0h1m1 0h4m1 0h3m1 0h2m6 0h2m2 0h2M4 55.5h1m2 0h3m3 0h1m1 0h1m3 0h2m1 0h1m3 0h2m2 0h3m2 0h1m1 0h3m2 0h1m3 0h2m7 0h1m3 0h3m1 0h2m5 0h1m1 0h2m2 0h2m3 0h3m1 0h1m2 0h8m1 0h1m2 0h1m1 0h1m3 0h1m1 0h2m1 0h1M4 56.5h10m3 0h1m2 0h2m2 0h1m1 0h2m3 0h6m1 0h1m1 0h2m1 0h1m2 0h1m2 0h1m3 0h8m4 0h1m1 0h1m2 0h1m2 0h2m1 0h1m1 0h7m1 0h1m1 0h1m3 0h2m2 0h2m1 0h1m1 0h2m1 0h5M5 57.5h1m1 0h2m3 0h4m1 0h4m1 0h3m3 0h1m3 0h1m3 0h1m1 0h1m1 0h1m1 0h2m1 0h3m2 0h1m2 0h1m2 0h1m3 0h3m2 0h1m2 0h1m2 0h1m1 0h1m1 0h6m3 0h3m1 0h2m1 0h1m3 0h2m3 0h1m1 0h3m3 0h3m1 0h1M4 58.5h2m1 0h2m1 0h1m1 0h2m1 0h3m1 0h1m1 0h1m1 0h2m1 0h1m1 0h3m1 0h1m1 0h1m1 0h1m1 0h5m1 0h1m2 0h2m3 0h1m1 0h3m1 0h1m1 0h5m2 0h2m1 0h1m1 0h1m1 0h1m1 0h1m1 0h1m1 0h1m1 0h1m1 0h1m1 0h1m4 0h3m2 0h2m2 0h3m1 0h1m1 0h1m1 0h1m3 0h1M4 59.5h1m2 0h2m3 0h1m1 0h1m1 0h2m3 0h3m5 0h1m1 0h2m3 0h5m1 0h1m1 0h2m3 0h1m1 0h1m1 0h4m3 0h1m1 0h1m7 0h1m1 0h2m1 0h2m2 0h2m3 0h2m1 0h3m1 0h2m1 0h1m1 0h1m6 0h2m3 0h1m2 0h2M8 60.5h6m1 0h1m4 0h2m1 0h3m3 0h2m1 0h5m1 0h3m1 0h1m3 0h2m4 0h1m1 0h7m1 0h1m2 0h4m1 0h1m1 0h1m1 0h1m2 0h2m1 0h6m1 0h3m1 0h2m1 0h4m2 0h9m1 0h2M4 61.5h3m2 0h1m1 0h2m1 0h5m1 0h2m1 0h2m2 0h1m1 0h1m1 0h3m1 0h1m1 0h4m5 0h3m1 0h3m4 0h1m1 0h9m2 0h1m1 0h3m2 0h1m1 0h1m6 0h1m2 0h1m1 0h2m1 0h1m3 0h1m1 0h4m1 0h1m2 0h1m2 0h1M6 62.5h6m1 0h3m1 0h7m1 0h1m1 0h1m1 0h4m5 0h3m3 0h1m1 0h3m2 0h2m1 0h1m5 0h1m1 0h2m1 0h1m1 0h1m1 0h8m2 0h3m1 0h1m3 0h3m1 0h1m1 0h3m1 0h1m6 0h1m1 0h7M5 63.5h1m1 0h1m1 0h1m1 0h2m3 0h2m1 0h10m2 0h2m2 0h3m1 0h11m8 0h2m1 0h1m1 0h1m1 0h2m1 0h2m3 0h1m1 0h1m1 0h2m2 0h3m1 0h5m2 0h1m1 0h1m1 0h4m1 0h2m6 0h1m1 0h2M4 64.5h2m2 0h4m1 0h7m3 0h5m1 0h1m1 0h1m2 0h1m2 0h2m1 0h5m3 0h1m2 0h1m1 0h4m1 0h2m1 0h1m1 0h1m1 0h1m5 0h2m3 0h1m2 0h2m1 0h1m2 0h4m3 0h3m2 0h2m2 0h4m3 0h4M5 65.5h3m6 0h3m5 0h2m1 0h1m1 0h2m1 0h1m5 0h2m1 0h3m1 0h1m2 0h2m3 0h1m1 0h1m2 0h2m3 0h4m2 0h1m1 0h2m1 0h2m3 0h1m3 0h2m2 0h1m1 0h1m3 0h1m1 0h1m1 0h2m1 0h1m3 0h3m1 0h5m1 0h1M7 66.5h5m3 0h3m1 0h2m1 0h1m2 0h1m6 0h2m1 0h1m3 0h1m1 0h8m1 0h1m4 0h1m1 0h5m1 0h4m2 0h3m2 0h3m2 0h2m2 0h1m1 0h1m2 0h1m1 0h2m2 0h2m1 0h3m2 0h3m2 0h1m1 0h2m1 0h1M4 67.5h3m1 0h1m2 0h3m3 0h2m1 0h1m2 0h1m3 0h1m1 0h1m1 0h1m2 0h3m1 0h1m1 0h4m1 0h1m6 0h3m1 0h1m2 0h2m2 0h1m2 0h3m4 0h1m1 0h2m6 0h1m2 0h2m2 0h1m4 0h1m2 0h2m3 0h2m2 0h1m1 0h1m2 0h1M4 68.5h1m1 0h3m1 0h1m2 0h3m2 0h1m1 0h1m1 0h4m2 0h1m3 0h1m1 0h2m3 0h1m1 0h1m3 0h8m1 0h1m1 0h1m3 0h3m2 0h2m1 0h1m2 0h1m1 0h2m2 0h1m1 0h1m1 0h1m3 0h3m1 0h1m2 0h1m1 0h4m1 0h3m1 0h2m3 0h1m1 0h1m1 0h1M8 69.5h1m5 0h2m2 0h3m2 0h2m4 0h1m2 0h2m2 0h1m2 0h1m2 0h1m3 0h2m1 0h1m1 0h1m2 0h3m1 0h2m1 0h1m7 0h1m2 0h4m1 0h3m1 0h2m1 0h3m1 0h1m1 0h1m3 0h3m2 0h1m2 0h3m1 0h2m2 0h1M4 70.5h1m2 0h4m4 0h2m1 0h1m1 0h2m1 0h1m3 0h1m1 0h1m2 0h1m1 0h3m1 0h3m1 0h1m1 0h1m1 0h1m1 0h2m1 0h4m5 0h1m5 0h1m1 0h3m5 0h1m1 0h1m1 0h2m2 0h3m2 0h2m3 0h1m2 0h2m1 0h3m2 0h1m2 0h3m1 0h1M4 71.5h2m2 0h1m2 0h6m1 0h4m3 0h1m1 0h1m1 0h1m1 0h1m2 0h2m1 0h1m2 0h1m4 0h2m1 0h1m3 0h7m1 0h2m1 0h3m4 0h1m1 0h1m2 0h1m8 0h1m2 0h2m5 0h5m1 0h1m2 0h1m1 0h3m1 0h2m1 0h1M4 72.5h1m1 0h1m3 0h1m7 0h1m3 0h2m2 0h1m2 0h1m1 0h2m1 0h1m1 0h1m4 0h1m1 0h4m2 0h2m2 0h2m7 0h1m2 0h1m2 0h1m1 0h2m1 0h1m6 0h6m2 0h2m2 0h2m1 0h1m1 0h1m3 0h1m4 0h1m1 0h2m1 0h2M4 73.5h2m2 0h2m3 0h1m4 0h3m1 0h1m1 0h1m5 0h1m1 0h1m4 0h2m2 0h2m4 0h2m2 0h7m1 0h1m1 0h1m2 0h1m1 0h2m2 0h1m6 0h1m1 0h1m4 0h4m5 0h2m1 0h1m1 0h2m2 0h2m2 0h1m2 0h1m1 0h1M5 74.5h2m2 0h2m4 0h2m3 0h4m1 0h1m1 0h2m4 0h2m2 0h3m3 0h2m1 0h1m3 0h1m4 0h2m1 0h2m7 0h1m2 0h3m5 0h1m1 0h2m1 0h5m1 0h4m1 0h5m2 0h1m3 0h1m1 0h2m1 0h1M7 75.5h1m5 0h1m1 0h3m2 0h1m2 0h1m5 0h2m6 0h1m1 0h2m2 0h1m5 0h1m4 0h4m2 0h3m1 0h4m10 0h2m1 0h2m1 0h1m1 0h1m1 0h1m1 0h7m1 0h2m3 0h1m2 0h5M4 76.5h1m3 0h1m1 0h1m1 0h2m1 0h1m3 0h2m2 0h1m3 0h3m1 0h5m3 0h3m1 0h1m2 0h3m2 0h2m1 0h1m8 0h1m1 0h2m3 0h3m1 0h2m2 0h1m2 0h2m2 0h1m1 0h6m4 0h2m1 0h1m3 0h2m3 0h3M5 77.5h2m1 0h2m8 0h2m2 0h1m1 0h2m2 0h1m1 0h2m3 0h1m2 0h1m4 0h1m1 0h2m1 0h2m1 0h1m2 0h2m3 0h1m2 0h3m2 0h1m1 0h1m4 0h2m2 0h3m1 0h1m1 0h4m1 0h5m1 0h2m3 0h1m1 0h1m1 0h1m1 0h2m3 0h2M4 78.5h2m1 0h4m1 0h1m1 0h1m4 0h7m1 0h3m1 0h1m2 0h2m1 0h9m1 0h2m6 0h3m15 0h1m1 0h2m2 0h2m1 0h1m2 0h3m1 0h4m1 0h1m2 0h5m3 0h4m2 0h1M6 79.5h1m2 0h1m4 0h3m4 0h4m2 0h1m1 0h2m1 0h1m1 0h1m1 0h2m1 0h3m2 0h4m2 0h2m1 0h2m1 0h1m2 0h1m1 0h2m2 0h1m1 0h1m1 0h1m1 0h2m2 0h1m3 0h3m12 0h1m3 0h1m4 0h6m2 0h1M5 80.5h1m1 0h6m2 0h1m2 0h2m5 0h1m1 0h1m3 0h6m1 0h1m1 0h1m4 0h1m1 0h4m1 0h1m1 0h10m3 0h2m2 0h1m4 0h10m1 0h1m4 0h4m1 0h1m1 0h3m1 0h8m1 0h1M6 81.5h3m3 0h2m1 0h1m4 0h3m1 0h2m1 0h1m1 0h2m1 0h1m3 0h1m1 0h1m3 0h2m3 0h1m1 0h2m5 0h1m3 0h1m2 0h3m1 0h2m2 0h2m3 0h1m3 0h1m3 0h2m1 0h1m1 0h1m3 0h3m1 0h1m1 0h1m4 0h1m3 0h3m1 0h1M6 82.5h1m1 0h1m1 0h1m1 0h1m1 0h3m1 0h1m3 0h2m4 0h3m1 0h1m1 0h1m1 0h1m3 0h4m2 0h2m1 0h1m3 0h2m1 0h1m1 0h1m1 0h2m2 0h2m2 0h1m4 0h1m1 0h1m2 0h3m1 0h1m1 0h4m2 0h1m1 0h6m2 0h1m2 0h2m1 0h1m1 0h1m3 0h1M4 83.5h1m1 0h1m1 0h1m3 0h2m3 0h1m1 0h2m4 0h2m1 0h2m1 0h2m3 0h3m2 0h2m1 0h2m1 0h1m1 0h1m3 0h1m2 0h1m3 0h2m1 0h1m5 0h1m1 0h1m5 0h4m3 0h7m2 0h2m2 0h1m2 0h1m2 0h2m3 0h2m2 0h1M5 84.5h11m2 0h1m1 0h1m2 0h3m2 0h3m1 0h5m2 0h1m6 0h1m2 0h4m3 0h7m4 0h2m5 0h1m1 0h1m2 0h7m1 0h1m4 0h2m1 0h2m2 0h3m2 0h5M6 85.5h1m5 0h2m2 0h2m1 0h3m3 0h2m1 0h2m1 0h1m3 0h2m1 0h3m1 0h2m1 0h3m1 0h2m5 0h2m1 0h1m1 0h2m4 0h2m2 0h1m1 0h1m1 0h3m1 0h2m1 0h1m1 0h1m8 0h1m3 0h1m2 0h1m3 0h3m1 0h2m1 0h1M4 86.5h2m3 0h4m2 0h6m2 0h1m1 0h1m2 0h2m1 0h2m3 0h1m1 0h1m1 0h3m1 0h1m1 0h7m3 0h1m1 0h1m1 0h1m2 0h2m2 0h2m2 0h5m1 0h1m1 0h3m1 0h3m2 0h1m1 0h1m1 0h1m2 0h1m2 0h3m3 0h1m2 0h2m2 0h1M7 87.5h2m3 0h1m1 0h1m2 0h1m3 0h2m4 0h4m1 0h1m1 0h3m1 0h1m1 0h2m1 0h1m1 0h4m1 0h4m3 0h1m2 0h1m1 0h1m2 0h1m2 0h3m2 0h2m1 0h2m1 0h1m1 0h1m1 0h2m1 0h1m1 0h1m1 0h2m4 0h2m1 0h1m2 0h1m8 0h1M6 88.5h1m1 0h1m1 0h2m1 0h2m2 0h1m1 0h4m1 0h1m3 0h7m2 0h1m1 0h5m2 0h2m1 0h2m8 0h1m1 0h2m1 0h3m4 0h2m1 0h2m1 0h5m1 0h2m2 0h3m2 0h1m3 0h2m1 0h3m3 0h1m2 0h2m1 0h2M4 89.5h2m3 0h1m1 0h1m3 0h5m4 0h2m1 0h2m2 0h1m1 0h1m2 0h3m1 0h1m1 0h2m1 0h6m5 0h2m4 0h1m1 0h2m4 0h1m5 0h3m3 0h2m4 0h1m1 0h3m1 0h4m3 0h7m3 0h2M4 90.5h1m2 0h4m3 0h2m2 0h5m1 0h1m1 0h3m1 0h1m2 0h3m1 0h1m1 0h3m2 0h1m1 0h2m1 0h1m1 0h1m6 0h1m1 0h1m1 0h1m5 0h4m1 0h1m6 0h3m5 0h2m1 0h1m1 0h1m1 0h1m6 0h7m2 0h2M4 91.5h1m2 0h1m1 0h1m1 0h1m1 0h2m1 0h2m2 0h2m3 0h1m1 0h1m2 0h1m1 0h2m1 0h6m1 0h1m2 0h2m1 0h1m2 0h1m3 0h2m4 0h1m2 0h1m1 0h1m2 0h1m4 0h1m1 0h1m2 0h2m1 0h2m1 0h2m1 0h1m1 0h3m1 0h1m2 0h2m1 0h2m3 0h1m6 0h1M5 92.5h1m1 0h4m4 0h4m2 0h3m2 0h1m2 0h2m1 0h2m1 0h1m1 0h1m2 0h1m1 0h3m1 0h3m1 0h5m1 0h1m3 0h2m3 0h1m4 0h1m1 0h2m1 0h2m2 0h1m2 0h1m2 0h1m1 0h2m1 0h2m1 0h1m1 0h3m1 0h1m3 0h1m2 0h1m2 0h1M5 93.5h3m6 0h6m5 0h2m3 0h1m2 0h1m1 0h3m1 0h2m2 0h1m1 0h1m2 0h2m1 0h3m1 0h1m2 0h1m1 0h2m4 0h3m1 0h1m1 0h1m1 0h1m1 0h1m1 0h3m1 0h1m6 0h1m4 0h3m1 0h1m1 0h1m1 0h2m3 0h2m2 0h1M4 94.5h3m1 0h1m1 0h1m2 0h1m2 0h1m1 0h1m1 0h1m2 0h2m1 0h1m1 0h4m2 0h4m1 0h1m1 0h1m1 0h1m3 0h1m1 0h3m1 0h2m2 0h2m1 0h2m1 0h11m1 0h2m1 0h1m1 0h1m4 0h2m1 0h1m1 0h1m3 0h1m4 0h6m3 0h2m1 0h2M4 95.5h2m5 0h2m1 0h1m2 0h1m3 0h1m1 0h2m1 0h5m6 0h2m2 0h1m1 0h1m1 0h1m1 0h2m2 0h3m2 0h1m1 0h1m1 0h2m2 0h1m2 0h1m5 0h2m3 0h2m2 0h4m1 0h1m3 0h1m1 0h4m1 0h1m1 0h1m1 0h1m2 0h4M4 96.5h1m1 0h7m2 0h2m2 0h1m2 0h3m3 0h1m3 0h2m1 0h2m1 0h1m1 0h1m3 0h4m1 0h1m1 0h1m3 0h3m3 0h5m2 0h1m2 0h1m2 0h1m4 0h8m2 0h1m3 0h2m1 0h1m1 0h5m1 0h3m1 0h2M4 97.5h1m1 0h1m1 0h1m3 0h2m1 0h4m2 0h1m1 0h6m1 0h1m2 0h2m2 0h2m1 0h2m1 0h2m1 0h2m1 0h1m9 0h1m1 0h4m3 0h3m1 0h3m2 0h2m2 0h2m4 0h1m3 0h1m1 0h1m1 0h2m1 0h1m1 0h1m4 0h3m1 0h2M4 98.5h1m2 0h2m1 0h1m1 0h2m2 0h2m1 0h2m1 0h1m1 0h1m2 0h1m1 0h1m1 0h1m1 0h1m3 0h1m1 0h1m1 0h4m3 0h6m1 0h1m2 0h1m6 0h1m4 0h1m2 0h1m2 0h3m2 0h2m1 0h1m1 0h3m1 0h3m1 0h2m1 0h2m1 0h1m2 0h3m2 0h2m1 0h1M8 99.5h2m1 0h1m1 0h5m2 0h1m2 0h1m1 0h1m1 0h2m2 0h1m1 0h3m3 0h1m2 0h2m3 0h1m1 0h2m2 0h2m5 0h2m3 0h3m5 0h1m1 0h1m3 0h1m2 0h1m1 0h1m1 0h1m2 0h1m5 0h4m2 0h3m4 0h3M4 100.5h1m1 0h2m2 0h3m3 0h2m1 0h3m3 0h2m1 0h1m2 0h1m2 0h6m3 0h1m2 0h1m1 0h1m1 0h1m1 0h1m2 0h5m1 0h3m3 0h4m2 0h2m1 0h4m1 0h3m1 0h1m1 0h2m1 0h1m5 0h5m1 0h1m1 0h1M4 101.5h1m3 0h2m2 0h3m2 0h4m3 0h2m2 0h1m2 0h1m1 0h1m1 0h3m1 0h3m1 0h1m1 0h1m2 0h3m1 0h2m1 0h2m5 0h1m1 0h3m3 0h1m2 0h1m2 0h1m1 0h1m1 0h1m1 0h2m1 0h1m4 0h3m1 0h1m2 0h4m1 0h2m2 0h1m2 0h1M5 102.5h4m1 0h1m2 0h3m1 0h2m1 0h4m2 0h1m2 0h1m5 0h2m1 0h4m1 0h3m1 0h1m2 0h1m4 0h1m1 0h4m2 0h3m1 0h4m1 0h2m2 0h1m1 0h5m2 0h1m8 0h3m3 0h1m1 0h1m1 0h1m1 0h4M6 103.5h4m1 0h1m2 0h8m3 0h2m5 0h1m1 0h2m2 0h1m1 0h1m3 0h6m1 0h3m1 0h1m2 0h1m1 0h1m1 0h1m1 0h2m1 0h2m1 0h1m1 0h1m4 0h1m2 0h3m1 0h1m1 0h1m1 0h2m1 0h2m1 0h2m4 0h3m1 0h2m1 0h2m1 0h2M4 104.5h3m1 0h1m1 0h2m2 0h2m1 0h2m3 0h8m1 0h6m3 0h1m3 0h3m3 0h3m2 0h6m2 0h1m1 0h1m2 0h4m2 0h2m1 0h1m2 0h5m1 0h1m1 0h1m2 0h1m1 0h5m1 0h1m3 0h6m2 0h2M12 105.5h3m2 0h5m3 0h4m3 0h1m3 0h1m1 0h3m1 0h2m4 0h3m1 0h2m2 0h1m3 0h1m2 0h1m1 0h1m1 0h1m2 0h1m5 0h2m2 0h1m3 0h1m4 0h3m1 0h2m1 0h5m2 0h2m3 0h2M4 106.5h7m2 0h4m1 0h1m3 0h1m1 0h1m1 0h2m3 0h2m1 0h1m1 0h1m1 0h5m3 0h1m3 0h1m1 0h1m3 0h1m1 0h1m1 0h2m1 0h5m3 0h1m1 0h2m1 0h1m1 0h3m1 0h1m1 0h4m2 0h2m1 0h3m3 0h1m2 0h1m1 0h1m1 0h1m1 0h5M4 107.5h1m5 0h1m1 0h1m1 0h1m3 0h2m2 0h2m4 0h5m3 0h2m2 0h4m2 0h2m1 0h1m3 0h1m2 0h1m3 0h2m2 0h1m1 0h1m1 0h3m3 0h2m2 0h1m1 0h1m3 0h1m1 0h2m1 0h1m1 0h1m2 0h1m1 0h2m3 0h1m1 0h2m3 0h1M4 108.5h1m1 0h3m1 0h1m1 0h1m2 0h2m4 0h5m1 0h15m2 0h3m1 0h1m3 0h10m1 0h3m1 0h2m1 0h2m7 0h7m4 0h2m3 0h2m3 0h1m1 0h7m1 0h2M4 109.5h1m1 0h3m1 0h1m1 0h2m1 0h1m1 0h5m2 0h1m1 0h1m2 0h1m1 0h1m2 0h1m2 0h1m4 0h2m3 0h1m1 0h1m2 0h2m2 0h1m2 0h3m2 0h3m1 0h3m2 0h3m1 0h4m1 0h1m7 0h2m1 0h1m1 0h3m1 0h4m1 0h2m2 0h1m1 0h1m1 0h1M4 110.5h1m1 0h3m1 0h1m1 0h1m1 0h1m6 0h5m2 0h2m1 0h3m2 0h1m7 0h3m4 0h5m1 0h1m3 0h1m1 0h2m1 0h2m3 0h1m3 0h2m1 0h1m1 0h1m3 0h2m6 0h1m1 0h4m1 0h2m1 0h2m4 0h1m3 0h1M4 111.5h1m5 0h1m2 0h1m1 0h4m1 0h2m2 0h1m1 0h1m1 0h1m2 0h1m2 0h1m1 0h1m1 0h9m1 0h2m1 0h4m1 0h5m3 0h2m2 0h1m1 0h8m1 0h1m1 0h3m2 0h1m1 0h1m2 0h1m1 0h1m2 0h1m4 0h1m2 0h2m1 0h1m4 0h1M4 112.5h7m1 0h4m1 0h1m1 0h4m1 0h1m2 0h1m1 0h1m1 0h2m3 0h3m1 0h3m3 0h5m2 0h5m2 0h1m1 0h3m2 0h3m3 0h1m2 0h2m6 0h2m1 0h2m4 0h3m7 0h1m2 0h2m1 0h1m1 0h2"/></svg>
