<svg xmlns="http://www.w3.org/2000/svg" viewBox="0 0 113 113" shape-rendering="crispEdges"><path fill="#ffffff" d="M0 0h113v113H0z"/><path stroke="#000000" d="M4 4.5h7m1 0h1m1 0h1m2 0h1m1 0h1m4 0h4m1 0h1m1 0h1m1 0h3m1 0h2m1 0h1m1 0h1m3 0h2m4 0h4m1 0h1m4 0h1m1 0h2m2 0h1m2 0h1m1 0h3m1 0h1m1 0h4m2 0h2m4 0h1m1 0h2m3 0h1m3 0h7M4 5.5h1m5 0h1m2 0h1m1 0h2m1 0h2m1 0h1m1 0h1m1 0h2m1 0h1m1 0h1m2 0h2m1 0h3m3 0h1m1 0h2m1 0h1m3 0h2m2 0h1m1 0h4m1 0h1m1 0h2m1 0h1m2 0h6m3 0h1m2 0h1m2 0h1m2 0h1m3 0h1m2 0h2m1 0h1m3 0h1m5 0h1M4 6.5h1m1 0h3m1 0h1m1 0h1m2 0h2m2 0h1m1 0h1m1 0h2m1 0h1m2 0h1m1 0h2m1 0h1m1 0h1m1 0h1m1 0h5m4 0h4m1 0h3m2 0h1m1 0h2m3 0h7m1 0h1m5 0h2m4 0h3m1 0h1m3 0h1m1 0h1m1 0h2m2 0h1m1 0h3m1 0h1M4 7.5h1m1 0h3m1 0h1m1 0h2m1 0h1m3 0h1m2 0h3m2 0h5m1 0h2m1 0h1m1 0h1m1 0h1m2 0h1m3 0h1m1 0h2m2 0h2m2 0h1m1 0h1m1 0h5m8 0h1m3 0h1m1 0h4m1 0h1m2 0h2m2 0h2m3 0h1m2 0h1m1 0h1m1 0h3m1 0h1M4 8.5h1m1 0h3m1 0h1m1 0h2m1 0h1m2 0h2m1 0h2m2 0h8m2 0h1m1 0h1m3 0h3m1 0h1m3 0h1m2 0h6m2 0h4m3 0h1m1 0h2m1 0h2m2 0h9m2 0h1m3 0h2m2 0h3m1 0h2m1 0h1m1 0h3m1 0h1M4 9.5h1m5 0h1m2 0h3m2 0h1m2 0h2m3 0h1m1 0h1m3 0h2m1 0h2m2 0h1m3 0h1m3 0h6m3 0h4m1 0h1m1 0h4m6 0h2m1 0h1m3 0h1m2 0h1m2 0h4m5 0h1m3 0h1m2 0h1m5 0h1M4 10.5h7m1 0h1m1 0h1m1 0h1m1 0h1m1 0h1m1 0h1m1 0h1m1 0h1m1 0h1m1 0h1m1 0h1m1 0h1m1 0h1m1 0h1m1 0h1m1 0h1m1 0h1m1 0h1m1 0h1m1 0h1m1 0h1m1 0h1m1 0h1m1 0h1m1 0h1m1 0h1m1 0h1m1 0h1m1 0h1m1 0h1m1 0h1m1 0h1m1 0h1m1 0h1m1 0h1m1 0h1m1 0h1m1 0h1m1 0h1m1 0h1m1 0h1m1 0h1m1 0h1m1 0h1m1 0h1m1 0h7M15 11.5h1m1 0h2m9 0h1m3 0h1m1 0h3m1 0h1m1 0h1m1 0h3m3 0h1m1 0h1m1 0h1m3 0h1m4 0h3m1 0h1m1 0h1m1 0h2m1 0h5m3 0h2m2 0h1m3 0h2m1 0h3m2 0h2m1 0h1M4 12.5h4m2 0h1m1 0h1m1 0h2m1 0h1m4 0h11m1 0h1m3 0h2m1 0h3m3 0h1m4 0h7m1 0h4m1 0h1m1 0h4m2 0h9m1 0h1m2 0h2m2 0h1m1 0h1m4 0h2m1 0h2m2 0h3m1 0h1M5 13.5h1m2 0h2m1 0h1m4 0h4m2 0h4m1 0h3m1 0h4m2 0h1m3 0h6m3 0h3m3 0h2m1 0h4m1 0h2m1 0h1m3 0h1m1 0h3m2 0h3m2 0h1m5 0h1m3 0h4m1 0h2m2 0h4m2 0h1M4 14.5h2m2 0h5m1 0h1m3 0h1m1 0h1m2 0h1m1 0h1m1 0h1m1 0h3m1 0h2m1 0h4m5 0h1m2 0h7m2 0h2m1 0h2m5 0h1m2 0h3m1 0h2m6 0h1m1 0h2m7 0h2m1 0h1m4 0h1m2 0h4M4 15.5h1m1 0h1m1 0h1m4 0h2m1 0h1m1 0h1m1 0h2m3 0h3m2 0h1m1 0h1m1 0h1m1 0h1m2 0h2m1 0h1m2 0h1m1 0h1m2 0h1m4 0h1m2 0h2m1 0h2m2 0h2m1 0h1m2 0h5m1 0h1m2 0h1m2 0h1m2 0h2m1 0h6m3 0h1m2 0h2m2 0h1m2 0h1M4 16.5h2m3 0h2m1 0h3m1 0h2m1 0h2m2 0h1m2 0h1m1 0h3m2 0h1m2 0h2m4 0h1m2 0h1m4 0h1m1 0h7m3 0h3m1 0h1m7 0h6m1 0h1m2 0h5m1 0h3m1 0h1m2 0h4m2 0h3M5 17.5h1m3 0h1m1 0h2m1 0h2m3 0h2m3 0h2m1 0h1m2 0h1m3 0h1m1 0h3m1 0h1m1 0h1m1 0h1m1 0h1m1 0h1m2 0h1m2 0h6m2 0h2m2 0h1m1 0h1m4 0h1m2 0h1m1 0h1m2 0h3m2 0h3m3 0h1m1 0h1m3 0h1m1 0h2m3 0h2M5 18.5h1m2 0h4m1 0h1m5 0h1m2 0h1m5 0h3m1 0h1m4 0h4m1 0h1m5 0h7m1 0h1m7 0h1m2 0h1m2 0h3m1 0h2m4 0h6m3 0h1m1 0h2m2 0h2m2 0h3m4 0h3M4 19.5h1m1 0h1m2 0h1m1 0h1m3 0h1m1 0h3m2 0h1m1 0h4m1 0h1m3 0h2m4 0h1m1 0h7m1 0h3m3 0h1m1 0h1m1 0h1m1 0h1m3 0h3m1 0h3m1 0h1m2 0h1m1 0h3m2 0h1m2 0h1m1 0h2m3 0h1m2 0h2m1 0h1m1 0h4m2 0h2M7 20.5h4m2 0h3m1 0h1m2 0h1m3 0h3m1 0h2m4 0h1m3 0h1m1 0h1m1 0h3m3 0h1m1 0h2m3 0h3m3 0h2m2 0h1m2 0h4m2 0h1m1 0h1m4 0h1m1 0h3m2 0h1m1 0h1m3 0h2m1 0h1m3 0h1m2 0h4M6 21.5h2m4 0h1m1 0h2m1 0h3m2 0h1m2 0h1m1 0h1m1 0h1m1 0h2m7 0h1m9 0h1m4 0h1m1 0h3m4 0h3m2 0h4m5 0h5m1 0h4m1 0h1m1 0h1m1 0h7m1 0h4M4 22.5h1m1 0h1m2 0h2m1 0h1m1 0h1m3 0h1m1 0h2m1 0h1m1 0h1m1 0h1m5 0h3m1 0h4m2 0h1m1 0h2m2 0h7m1 0h1m2 0h1m1 0h2m1 0h2m4 0h1m1 0h1m2 0h2m1 0h1m1 0h1m2 0h2m1 0h1m1 0h1m2 0h1m1 0h1m3 0h1m1 0h1m1 0h1m3 0h1M4 23.5h2m1 0h2m2 0h4m1 0h3m1 0h1m2 0h5m1 0h2m2 0h1m1 0h5m1 0h4m3 0h1m1 0h1m1 0h1m1 0h1m2 0h1m4 0h3m1 0h1m5 0h1m2 0h1m1 0h1m3 0h1m1 0h1m2 0h3m1 0h1m2 0h5m1 0h2m1 0h2m1 0h1M10 24.5h2m1 0h1m4 0h1m3 0h2m1 0h5m1 0h3m1 0h2m2 0h2m1 0h1m2 0h1m1 0h3m1 0h6m1 0h1m3 0h1m4 0h2m1 0h1m2 0h2m6 0h1m4 0h1m3 0h2m1 0h1m1 0h6m4 0h1M4 25.5h3m1 0h1m2 0h1m1 0h3m1 0h2m1 0h1m2 0h3m4 0h1m3 0h2m1 0h3m2 0h1m1 0h2m1 0h2m1 0h4m2 0h1m1 0h3m1 0h3m2 0h1m3 0h1m1 0h1m1 0h5m2 0h1m4 0h1m1 0h1m1 0h1m1 0h4m1 0h2m4 0h1m1 0h1m1 0h1M4 26.5h1m1 0h2m2 0h3m1 0h1m4 0h1m1 0h4m1 0h2m2 0h1m2 0h1m2 0h2m2 0h1m1 0h2m1 0h1m1 0h5m1 0h1m5 0h2m1 0h3m3 0h1m3 0h1m1 0h1m2 0h4m2 0h2m1 0h2m6 0h2m2 0h1m1 0h1m1 0h1m3 0h2M4 27.5h3m2 0h1m2 0h2m1 0h4m8 0h2m2 0h1m1 0h2m1 0h2m6 0h1m7 0h1m1 0h2m1 0h3m1 0h3m1 0h1m5 0h1m2 0h2m1 0h2m1 0h6m2 0h2m6 0h3m2 0h1m1 0h1m1 0h1m2 0h1M5 28.5h10m2 0h1m1 0h3m2 0h2m2 0h8m1 0h1m4 0h1m2 0h2m4 0h9m2 0h1m2 0h1m3 0h1m2 0h3m1 0h5m1 0h7m2 0h2m4 0h2m1 0h5m2 0h2M4 29.5h1m1 0h3m3 0h5m2 0h1m1 0h1m1 0h3m2 0h1m3 0h4m1 0h1m2 0h3m2 0h1m1 0h1m1 0h4m3 0h1m1 0h3m1 0h2m2 0h2m5 0h2m1 0h1m3 0h1m2 0h1m3 0h4m1 0h2m1 0h1m2 0h1m1 0h1m3 0h1m1 0h1M4 30.5h1m2 0h2m1 0h1m1 0h1m1 0h1m3 0h1m1 0h1m4 0h4m1 0h1m1 0h1m3 0h1m1 0h2m2 0h1m3 0h2m2 0h1m1 0h1m1 0h1m1 0h1m1 0h4m1 0h3m2 0h1m1 0h1m5 0h1m1 0h1m1 0h2m1 0h5m1 0h2m4 0h1m2 0h1m1 0h1m1 0h1m1 0h3M4 31.5h1m3 0h1m3 0h2m1 0h1m1 0h1m1 0h1m5 0h1m1 0h2m3 0h2m1 0h1m4 0h5m1 0h5m1 0h1m3 0h4m1 0h1m3 0h1m10 0h1m3 0h3m1 0h1m1 0h1m2 0h2m3 0h1m1 0h2m2 0h1m3 0h1m3 0h1M4 32.5h1m1 0h9m1 0h2m2 0h1m3 0h1m2 0h8m2 0h1m3 0h1m2 0h2m3 0h2m1 0h5m2 0h1m5 0h2m2 0h1m1 0h4m1 0h5m2 0h2m1 0h3m3 0h3m1 0h2m2 0h5m1 0h2M5 33.5h1m1 0h3m1 0h1m1 0h1m1 0h2m2 0h1m2 0h1m2 0h2m1 0h3m2 0h2m4 0h3m2 0h1m1 0h1m1 0h2m1 0h4m1 0h1m1 0h1m1 0h1m4 0h1m2 0h1m2 0h1m1 0h1m3 0h5m1 0h1m1 0h1m1 0h2m2 0h1m1 0h3m2 0h1m1 0h2m1 0h1m1 0h1m2 0h1M6 34.5h2m1 0h2m1 0h1m2 0h1m1 0h4m2 0h3m1 0h1m1 0h1m8 0h1m3 0h1m5 0h2m1 0h4m1 0h1m2 0h1m3 0h1m3 0h5m1 0h2m1 0h2m1 0h3m3 0h2m1 0h1m3 0h1m1 0h1m4 0h3m2 0h1m2 0h1M11 35.5h2m5 0h4m3 0h1m1 0h2m3 0h1m6 0h7m1 0h1m1 0h1m2 0h1m4 0h9m2 0h3m1 0h1m2 0h1m2 0h2m4 0h2m1 0h1m2 0h4m2 0h1m1 0h1m1 0h1m3 0h1m1 0h3M5 36.5h1m1 0h1m1 0h3m2 0h1m4 0h4m1 0h1m3 0h1m1 0h2m4 0h6m2 0h1m1 0h5m1 0h1m1 0h6m5 0h1m2 0h2m3 0h3m4 0h2m2 0h7m3 0h2m1 0h1m6 0h1m1 0h3M11 37.5h1m1 0h2m3 0h3m1 0h5m1 0h3m1 0h3m1 0h1m3 0h1m2 0h3m1 0h1m2 0h1m1 0h1m1 0h3m4 0h2m1 0h1m2 0h1m1 0h2m1 0h1m3 0h4m1 0h1m2 0h3m1 0h1m1 0h1m3 0h1m2 0h1m3 0h1m2 0h1m3 0h1M7 38.5h2m1 0h1m3 0h2m1 0h1m3 0h1m1 0h6m1 0h1m2 0h1m1 0h2m1 0h1m5 0h3m2 0h1m1 0h2m1 0h1m1 0h1m1 0h1m1 0h2m5 0h1m1 0h1m2 0h1m2 0h2m1 0h1m1 0h2m2 0h1m2 0h1m1 0h2m1 0h3m1 0h2m1 0h2m1 0h1m1 0h1m2 0h2M5 39.5h3m4 0h2m1 0h2m4 0h1m1 0h4m2 0h1m1 0h1m1 0h1m1 0h3m2 0h1m1 0h3m5 0h1m2 0h1m1 0h1m3 0h2m2 0h1m2 0h2m1 0h1m2 0h2m3 0h4m1 0h3m1 0h2m1 0h8m3 0h1m4 0h1M4 40.5h1m2 0h2m1 0h1m1 0h2m2 0h1m1 0h1m2 0h4m2 0h3m1 0h1m2 0h6m3 0h1m3 0h1m2 0h4m1 0h1m4 0h2m1 0h5m3 0h3m1 0h1m3 0h1m2 0h1m1 0h1m3 0h1m1 0h1m2 0h1m1 0h1m1 0h2m4 0h3m2 0h1M4 41.5h2m6 0h1m1 0h1m3 0h1m2 0h1m2 0h1m2 0h3m3 0h1m2 0h1m2 0h5m6 0h1m1 0h1m1 0h3m2 0h4m3 0h1m2 0h2m2 0h1m2 0h2m4 0h3m1 0h2m1 0h1m1 0h2m1 0h1m1 0h1m3 0h1m4 0h1m1 0h2M6 42.5h5m1 0h2m1 0h2m2 0h3m2 0h2m1 0h4m1 0h2m3 0h2m2 0h2m1 0h2m3 0h1m1 0h1m4 0h1m1 0h2m2 0h1m2 0h3m1 0h4m1 0h1m1 0h3m1 0h3m1 0h1m3 0h3m1 0h1m1 0h1m2 0h1m1 0h1m1 0h1m3 0h3M4 43.5h3m1 0h2m1 0h1m1 0h4m2 0h2m1 0h1m1 0h1m1 0h1m1 0h3m8 0h1m3 0h2m1 0h4m5 0h6m1 0h1m1 0h2m1 0h1m8 0h3m2 0h1m3 0h1m2 0h2m1 0h1m3 0h1m2 0h1m5 0h1M8 44.5h5m3 0h3m1 0h2m2 0h1m2 0h2m1 0h1m1 0h5m2 0h1m3 0h3m4 0h1m2 0h5m4 0h1m2 0h2m2 0h1m4 0h3m1 0h4m3 0h2m3 0h1m2 0h3m1 0h2m1 0h2m1 0h1m1 0h2M7 45.5h1m1 0h1m2 0h6m1 0h1m1 0h4m4 0h2m1 0h1m2 0h1m4 0h1m3 0h1m2 0h2m1 0h5m1 0h2m2 0h2m3 0h3m1 0h1m1 0h1m5 0h4m4 0h2m5 0h1m1 0h3m3 0h1m3 0h1m1 0h1m1 0h1M4 46.5h3m2 0h3m1 0h1m4 0h1m1 0h1m1 0h1m1 0h3m6 0h2m1 0h4m2 0h1m1 0h1m2 0h2m2 0h1m1 0h2m3 0h1m2 0h3m3 0h1m3 0h1m1 0h2m2 0h1m1 0h2m1 0h2m1 0h1m2 0h2m3 0h3m1 0h2m1 0h1m2 0h1m1 0h1m1 0h1M4 47.5h1m1 0h2m3 0h3m1 0h1m3 0h1m1 0h1m3 0h3m2 0h5m5 0h1m1 0h1m1 0h1m6 0h1m2 0h1m5 0h1m1 0h1m3 0h1m1 0h1m3 0h1m2 0h7m2 0h3m2 0h1m2 0h2m1 0h1m3 0h2m1 0h1m1 0h1m2 0h1M5 48.5h8m3 0h2m1 0h2m2 0h4m2 0h3m2 0h1m3 0h1m2 0h2m2 0h5m1 0h3m6 0h1m1 0h4m5 0h1m1 0h1m1 0h4m3 0h1m1 0h1m3 0h2m3 0h3m2 0h5m2 0h4M4 49.5h1m4 0h1m1 0h1m1 0h2m2 0h1m4 0h2m2 0h1m2 0h2m1 0h1m1 0h1m1 0h3m1 0h5m3 0h1m1 0h3m1 0h1m2 0h1m4 0h1m1 0h2m3 0h2m1 0h2m2 0h5m1 0h4m5 0h2m1 0h4m1 0h5m1 0h2M4 50.5h4m2 0h3m4 0h1m1 0h1m1 0h1m1 0h1m2 0h1m3 0h1m1 0h2m3 0h2m4 0h1m2 0h2m1 0h5m1 0h1m2 0h4m1 0h1m1 0h1m1 0h1m1 0h1m3 0h1m2 0h1m1 0h1m2 0h1m3 0h2m1 0h1m1 0h1m2 0h1m2 0h1m2 0h1m1 0h1m1 0h1m1 0h1m1 0h1M4 51.5h1m1 0h1m2 0h1m1 0h3m1 0h2m2 0h1m1 0h1m6 0h7m1 0h1m6 0h2m3 0h3m3 0h3m1 0h2m1 0h4m4 0h1m1 0h2m2 0h1m1 0h1m1 0h2m4 0h1m2 0h3m2 0h2m5 0h2m1 0h2m1 0h1m1 0h1M4 52.5h2m2 0h8m2 0h1m2 0h1m2 0h1m2 0h8m1 0h6m1 0h2m1 0h4m1 0h8m1 0h3m4 0h4m2 0h1m1 0h6m2 0h1m2 0h1m3 0h1m1 0h1m1 0h1m1 0h2m1 0h7m2 0h1M4 53.5h2m2 0h1m3 0h1m1 0h1m3 0h3m1 0h1m2 0h1m2 0h1m3 0h1m1 0h1m1 0h1m2 0h1m1 0h2m1 0h1m1 0h1m2 0h1m2 0h1m3 0h1m2 0h3m2 0h1m2 0h1m4 0h1m1 0h1m1 0h1m3 0h1m3 0h3m2 0h2m3 0h7m3 0h2m2 0h1M4 54.5h1m1 0h3m1 0h1m1 0h2m3 0h1m1 0h1m1 0h1m3 0h1m2 0h1m1 0h1m1 0h1m4 0h1m1 0h1m1 0h1m2 0h1m3 0h1m2 0h2m1 0h1m1 0h1m1 0h2m2 0h2m1 0h1m1 0h3m1 0h2m2 0h2m1 0h1m1 0h2m1 0h2m5 0h3m1 0h1m2 0h1m2 0h1m1 0h1m1 0h1m1 0h3M5 55.5h2m1 0h1m3 0h3m3 0h1m2 0h6m1 0h1m3 0h1m3 0h3m1 0h4m2 0h1m5 0h1m3 0h2m1 0h1m1 0h2m7 0h5m1 0h1m3 0h1m1 0h5m2 0h4m1 0h2m1 0h1m1 0h2m3 0h2M5 56.5h1m2 0h9m2 0h2m1 0h2m3 0h8m1 0h2m2 0h2m2 0h1m2 0h1m1 0h2m1 0h6m3 0h1m1 0h2m1 0h5m2 0h2m1 0h6m1 0h2m2 0h1m2 0h3m1 0h1m1 0h1m3 0h5m1 0h2M11 57.5h3m1 0h2m1 0h2m1 0h1m3 0h1m2 0h6m3 0h2m1 0h4m1 0h1m1 0h2m3 0h3m1 0h1m3 0h5m4 0h2m2 0h1m2 0h3m1 0h2m1 0h5m1 0h1m3 0h1m1 0h1m2 0h2m1 0h2m2 0h1M4 58.5h2m4 0h1m3 0h2m1 0h2m1 0h3m1 0h8m1 0h3m1 0h3m1 0h2m2 0h1m2 0h4m2 0h3m3 0h5m2 0h1m1 0h5m2 0h7m2 0h2m1 0h2m4 0h1m1 0h1m1 0h1m5 0h2m1 0h2M4 59.5h1m2 0h1m1 0h1m1 0h2m2 0h1m1 0h2m1 0h5m2 0h1m3 0h3m2 0h1m2 0h1m2 0h1m4 0h2m4 0h1m3 0h7m1 0h5m4 0h1m2 0h1m1 0h1m4 0h4m2 0h1m3 0h4m1 0h2m1 0h1m5 0h1M4 60.5h1m1 0h1m1 0h5m1 0h1m2 0h3m4 0h1m2 0h1m1 0h2m1 0h1m3 0h1m2 0h1m3 0h4m1 0h2m2 0h1m1 0h3m2 0h2m1 0h1m1 0h1m1 0h1m2 0h1m1 0h1m1 0h1m2 0h3m1 0h1m8 0h1m1 0h3m3 0h1m3 0h2m1 0h2m2 0h1M5 61.5h2m4 0h1m1 0h1m1 0h1m1 0h1m3 0h2m2 0h3m4 0h2m1 0h1m2 0h2m2 0h2m2 0h3m1 0h2m3 0h1m1 0h2m3 0h4m2 0h1m1 0h4m1 0h1m1 0h3m1 0h3m1 0h2m1 0h1m1 0h3m1 0h2m1 0h1m2 0h5m3 0h1M8 62.5h1m1 0h6m1 0h5m1 0h2m3 0h1m1 0h1m1 0h4m2 0h6m8 0h2m1 0h1m3 0h1m2 0h1m1 0h1m2 0h1m2 0h2m2 0h1m3 0h1m9 0h2m2 0h2m1 0h1m1 0h1m5 0h3m1 0h2M4 63.5h2m2 0h2m1 0h6m2 0h3m4 0h3m2 0h1m3 0h1m2 0h3m4 0h2m1 0h1m1 0h1m3 0h1m1 0h1m5 0h1m1 0h1m2 0h5m3 0h2m3 0h1m1 0h1m1 0h1m3 0h2m9 0h5m1 0h1m1 0h2M9 64.5h5m1 0h1m3 0h1m1 0h1m2 0h1m2 0h1m2 0h2m2 0h3m1 0h3m3 0h2m3 0h1m2 0h1m1 0h1m2 0h1m3 0h1m2 0h4m2 0h1m1 0h1m1 0h1m1 0h1m1 0h1m1 0h1m5 0h1m1 0h2m1 0h1m1 0h3m1 0h2m1 0h2m1 0h1M5 65.5h2m2 0h1m1 0h4m1 0h1m3 0h3m4 0h1m2 0h4m1 0h1m2 0h3m1 0h2m3 0h2m1 0h5m2 0h1m2 0h2m1 0h2m1 0h1m1 0h1m1 0h3m1 0h1m1 0h2m2 0h2m1 0h2m1 0h1m3 0h2m1 0h1m2 0h1m2 0h4m2 0h1m1 0h1M6 66.5h1m3 0h1m1 0h2m1 0h2m3 0h1m3 0h2m2 0h1m1 0h1m1 0h1m2 0h3m4 0h2m8 0h1m3 0h4m2 0h1m2 0h1m1 0h2m1 0h2m1 0h1m1 0h1m2 0h5m1 0h2m1 0h3m1 0h1m4 0h2m1 0h3m2 0h1m1 0h3M7 67.5h3m1 0h4m1 0h1m1 0h3m2 0h3m2 0h1m1 0h6m1 0h1m1 0h3m4 0h1m4 0h1m6 0h1m1 0h1m2 0h6m1 0h3m1 0h1m3 0h3m1 0h1m1 0h1m2 0h2m2 0h2m1 0h3m1 0h5m1 0h1m1 0h3M7 68.5h1m2 0h2m2 0h1m1 0h1m1 0h1m1 0h6m1 0h5m1 0h1m1 0h1m1 0h1m2 0h1m2 0h1m1 0h1m1 0h3m1 0h5m1 0h1m1 0h2m2 0h5m7 0h2m1 0h2m4 0h2m1 0h1m1 0h3m1 0h2m1 0h3m2 0h2m1 0h2m2 0h1M4 69.5h6m1 0h2m1 0h1m1 0h1m1 0h1m1 0h3m4 0h2m2 0h1m1 0h1m1 0h1m1 0h2m2 0h1m1 0h1m1 0h1m1 0h1m2 0h2m1 0h1m2 0h1m5 0h2m1 0h3m1 0h2m1 0h2m1 0h2m5 0h1m3 0h1m4 0h2m1 0h1m1 0h1m1 0h1m1 0h1m2 0h1m1 0h1m1 0h1M5 70.5h1m1 0h2m1 0h2m1 0h1m1 0h2m2 0h2m2 0h4m1 0h2m1 0h2m3 0h3m2 0h1m6 0h1m1 0h1m4 0h1m5 0h2m1 0h1m3 0h1m4 0h1m2 0h1m5 0h2m1 0h1m1 0h4m5 0h6m1 0h1m1 0h2M6 71.5h4m1 0h1m2 0h2m1 0h1m2 0h1m3 0h1m1 0h1m2 0h4m1 0h2m1 0h5m1 0h2m6 0h1m3 0h2m3 0h2m3 0h3m2 0h2m2 0h1m1 0h2m8 0h1m1 0h1m1 0h2m1 0h1m1 0h1m3 0h4m1 0h2m2 0h1M4 72.5h1m1 0h1m3 0h1m3 0h1m1 0h4m1 0h1m2 0h1m1 0h2m1 0h1m2 0h3m8 0h2m1 0h2m1 0h2m1 0h5m5 0h2m5 0h4m1 0h4m1 0h1m1 0h1m1 0h1m1 0h1m1 0h1m1 0h1m2 0h1m2 0h1m2 0h1m1 0h2m2 0h4M4 73.5h3m1 0h2m2 0h2m1 0h1m2 0h2m3 0h2m1 0h1m1 0h2m6 0h3m4 0h1m1 0h3m1 0h2m1 0h4m1 0h5m2 0h2m2 0h1m1 0h5m1 0h1m5 0h1m1 0h2m2 0h6m1 0h2m3 0h5m1 0h1m1 0h1M4 74.5h3m1 0h1m1 0h2m1 0h1m1 0h3m1 0h4m8 0h2m1 0h1m1 0h1m3 0h1m2 0h1m1 0h2m1 0h3m1 0h2m2 0h2m1 0h2m1 0h1m1 0h1m1 0h3m1 0h1m3 0h1m4 0h1m1 0h1m1 0h2m4 0h3m1 0h3m1 0h1m3 0h2m1 0h3M4 75.5h1m1 0h1m1 0h1m4 0h2m1 0h2m1 0h1m3 0h1m1 0h3m7 0h2m1 0h1m3 0h6m3 0h2m1 0h2m1 0h1m3 0h1m1 0h3m1 0h1m2 0h4m2 0h3m1 0h2m5 0h2m2 0h2m2 0h1m1 0h3m2 0h3m1 0h1m1 0h1M5 76.5h8m2 0h2m2 0h1m1 0h2m1 0h2m1 0h7m1 0h1m1 0h2m1 0h1m7 0h2m2 0h8m1 0h1m2 0h1m1 0h1m3 0h3m1 0h1m1 0h5m4 0h1m2 0h2m1 0h2m2 0h3m1 0h9M4 77.5h5m3 0h1m1 0h1m2 0h1m3 0h1m1 0h1m1 0h1m2 0h1m3 0h3m1 0h3m3 0h4m1 0h3m1 0h2m3 0h1m3 0h3m2 0h4m1 0h1m3 0h3m3 0h2m1 0h1m2 0h2m4 0h2m2 0h1m1 0h1m1 0h1m3 0h2m2 0h1M4 78.5h3m1 0h1m1 0h1m1 0h1m1 0h1m1 0h1m1 0h3m4 0h4m1 0h1m1 0h2m1 0h1m1 0h2m1 0h2m2 0h2m1 0h1m2 0h3m1 0h1m1 0h2m3 0h1m4 0h2m4 0h2m2 0h1m1 0h1m1 0h2m2 0h1m2 0h1m1 0h1m3 0h6m1 0h1m1 0h1m1 0h2m2 0h1M5 79.5h2m1 0h1m3 0h4m6 0h3m3 0h1m3 0h1m2 0h3m1 0h2m1 0h1m3 0h3m2 0h2m3 0h3m3 0h1m1 0h1m1 0h2m3 0h1m1 0h1m2 0h1m3 0h1m1 0h1m1 0h3m3 0h2m4 0h3m1 0h1m3 0h1m1 0h1M6 80.5h1m1 0h6m1 0h1m1 0h4m1 0h4m1 0h8m5 0h1m3 0h1m2 0h1m2 0h1m1 0h9m4 0h2m2 0h1m2 0h1m1 0h1m1 0h5m3 0h1m1 0h2m2 0h3m2 0h4m1 0h5m1 0h3M4 81.5h1m1 0h1m1 0h1m6 0h2m1 0h1m1 0h1m1 0h4m2 0h1m1 0h1m2 0h1m2 0h3m3 0h3m1 0h1m3 0h2m1 0h1m1 0h1m3 0h1m4 0h3m2 0h1m10 0h4m3 0h1m3 0h1m3 0h6M5 82.5h1m1 0h1m1 0h2m2 0h4m3 0h1m2 0h3m1 0h1m1 0h1m1 0h1m1 0h1m1 0h1m3 0h2m4 0h6m1 0h2m1 0h2m2 0h1m1 0h2m1 0h4m1 0h1m3 0h1m1 0h1m3 0h2m1 0h1m3 0h2m4 0h2m1 0h2m1 0h1m1 0h1m1 0h3m1 0h1M4 83.5h1m3 0h2m1 0h2m3 0h3m3 0h2m3 0h1m2 0h2m1 0h1m3 0h1m3 0h2m2 0h3m1 0h1m1 0h2m2 0h1m1 0h1m4 0h2m1 0h1m1 0h6m2 0h1m1 0h1m1 0h3m1 0h3m3 0h1m2 0h4m2 0h1m4 0h1m1 0h1M6 84.5h1m2 0h2m4 0h3m1 0h1m1 0h3m1 0h1m2 0h1m1 0h1m1 0h2m1 0h4m8 0h4m2 0h1m3 0h4m4 0h1m2 0h6m2 0h1m3 0h1m2 0h1m2 0h1m2 0h1m3 0h2m1 0h4m2 0h2m2 0h1M6 85.5h1m2 0h1m2 0h1m2 0h2m1 0h1m4 0h1m1 0h5m5 0h6m1 0h1m1 0h3m1 0h2m4 0h1m2 0h4m1 0h1m2 0h1m5 0h1m3 0h2m1 0h1m3 0h4m1 0h1m1 0h1m1 0h1m4 0h1m1 0h2m1 0h3m2 0h2M6 86.5h1m1 0h3m1 0h4m2 0h1m1 0h1m2 0h1m1 0h2m1 0h1m1 0h2m1 0h2m1 0h2m1 0h1m2 0h1m1 0h2m2 0h2m1 0h1m1 0h2m2 0h1m1 0h1m1 0h1m3 0h2m3 0h1m1 0h2m2 0h1m3 0h5m2 0h5m3 0h1m1 0h1m1 0h1m2 0h2m2 0h3M4 87.5h3m1 0h2m1 0h3m2 0h1m1 0h2m1 0h9m1 0h1m1 0h1m1 0h3m1 0h7m1 0h1m6 0h1m1 0h2m2 0h3m11 0h2m1 0h1m2 0h1m1 0h3m6 0h3m2 0h4m2 0h1m2 0h1m1 0h1M4 88.5h1m2 0h2m1 0h4m1 0h1m1 0h1m2 0h1m1 0h2m1 0h1m2 0h2m2 0h1m1 0h1m1 0h3m2 0h1m2 0h3m3 0h1m3 0h2m2 0h7m1 0h1m1 0h1m6 0h1m1 0h1m1 0h1m1 0h2m2 0h3m6 0h5m3 0h7M5 89.5h1m1 0h1m3 0h1m1 0h1m2 0h2m4 0h4m1 0h1m2 0h1m3 0h4m2 0h3m4 0h7m1 0h1m1 0h1m3 0h1m1 0h1m2 0h1m3 0h3m1 0h1m3 0h2m1 0h1m5 0h3m1 0h8m2 0h3m4 0h1M6 90.5h1m1 0h1m1 0h3m2 0h1m6 0h7m5 0h1m1 0h6m3 0h2m1 0h1m1 0h2m1 0h1m2 0h2m1 0h1m1 0h1m3 0h5m2 0h5m2 0h3m3 0h2m1 0h3m4 0h2m3 0h4m4 0h1M6 91.5h1m2 0h1m2 0h4m2 0h1m4 0h2m1 0h3m2 0h2m3 0h1m2 0h2m4 0h2m2 0h3m5 0h2m3 0h1m3 0h2m1 0h1m1 0h1m6 0h1m1 0h1m1 0h3m1 0h5m6 0h12M4 92.5h2m1 0h2m1 0h1m2 0h1m2 0h1m1 0h3m1 0h1m2 0h1m5 0h1m2 0h3m2 0h1m2 0h1m1 0h3m1 0h2m1 0h1m5 0h1m1 0h1m4 0h2m2 0h1m1 0h2m1 0h1m1 0h1m1 0h1m6 0h1m4 0h3m1 0h2m1 0h5m2 0h1m2 0h1m1 0h1M4 93.5h1m2 0h1m4 0h2m1 0h1m2 0h8m1 0h1m1 0h1m1 0h2m1 0h3m1 0h1m1 0h1m2 0h1m3 0h2m1 0h1m6 0h1m4 0h1m2 0h2m1 0h1m1 0h2m3 0h2m7 0h3m1 0h3m2 0h1m1 0h2m3 0h1m5 0h2M4 94.5h1m4 0h3m1 0h2m3 0h1m2 0h1m1 0h1m1 0h5m2 0h2m1 0h1m1 0h1m5 0h1m3 0h1m1 0h3m1 0h1m3 0h1m1 0h5m1 0h2m2 0h3m4 0h1m1 0h1m2 0h2m1 0h1m5 0h3m2 0h3m2 0h1m3 0h2M6 95.5h1m1 0h1m3 0h4m1 0h1m2 0h2m6 0h2m2 0h3m3 0h1m2 0h5m5 0h10m1 0h3m1 0h1m6 0h3m3 0h1m5 0h2m2 0h4m3 0h3m4 0h1M5 96.5h2m1 0h1m1 0h1m2 0h1m1 0h4m2 0h3m3 0h1m2 0h1m1 0h1m2 0h4m3 0h1m5 0h1m6 0h3m5 0h3m1 0h2m2 0h2m2 0h1m2 0h2m3 0h1m1 0h1m1 0h1m1 0h2m1 0h2m2 0h1m2 0h2m1 0h2m4 0h1M4 97.5h1m1 0h1m2 0h1m1 0h1m2 0h1m2 0h3m3 0h8m2 0h1m1 0h3m2 0h1m1 0h1m1 0h1m1 0h1m3 0h1m4 0h2m1 0h1m2 0h7m3 0h1m3 0h1m2 0h2m1 0h1m1 0h1m1 0h1m1 0h3m1 0h1m1 0h2m4 0h6m1 0h1m1 0h1M4 98.5h3m3 0h3m1 0h2m1 0h2m1 0h1m3 0h7m1 0h1m1 0h1m1 0h4m2 0h4m2 0h3m1 0h2m2 0h1m2 0h2m1 0h2m5 0h2m1 0h1m1 0h2m1 0h1m1 0h1m1 0h1m1 0h1m2 0h1m1 0h3m2 0h5m2 0h3m3 0h2M6 99.5h1m1 0h2m1 0h2m3 0h1m1 0h1m2 0h3m6 0h1m3 0h1m3 0h2m5 0h1m2 0h2m1 0h1m1 0h1m3 0h1m3 0h1m1 0h1m1 0h3m1 0h2m3 0h3m1 0h3m1 0h2m1 0h3m1 0h6m2 0h1m1 0h2m2 0h2m2 0h1M7 100.5h2m1 0h6m2 0h3m3 0h2m1 0h9m1 0h1m2 0h2m3 0h4m3 0h6m1 0h1m2 0h3m1 0h4m2 0h1m3 0h5m3 0h1m3 0h2m2 0h1m2 0h2m1 0h8m2 0h1M12 101.5h2m2 0h2m2 0h3m1 0h1m3 0h1m3 0h3m1 0h2m4 0h1m3 0h1m1 0h1m1 0h3m3 0h1m1 0h2m2 0h2m3 0h1m1 0h1m5 0h2m3 0h5m1 0h5m2 0h5m2 0h1m3 0h2m1 0h1M4 102.5h7m2 0h1m1 0h1m1 0h1m1 0h3m2 0h1m1 0h1m1 0h1m1 0h1m1 0h2m1 0h1m2 0h1m1 0h1m3 0h4m2 0h1m1 0h1m1 0h1m1 0h3m2 0h1m1 0h3m4 0h1m2 0h1m2 0h1m1 0h1m1 0h1m1 0h1m1 0h1m7 0h2m4 0h1m1 0h1m1 0h1m1 0h4M4 103.5h1m5 0h1m2 0h2m1 0h1m4 0h2m1 0h1m2 0h2m3 0h1m2 0h2m5 0h2m1 0h1m1 0h2m1 0h1m1 0h1m3 0h1m2 0h1m1 0h1m1 0h1m3 0h2m1 0h1m4 0h2m3 0h1m3 0h9m1 0h1m1 0h2m1 0h2m3 0h2m1 0h1M4 104.5h1m1 0h3m1 0h1m5 0h1m2 0h1m1 0h2m1 0h1m3 0h6m2 0h1m1 0h1m2 0h1m1 0h3m3 0h9m1 0h1m1 0h3m1 0h2m4 0h3m1 0h6m4 0h1m1 0h1m2 0h1m2 0h1m2 0h1m1 0h7m1 0h1m1 0h1M4 105.5h1m1 0h3m1 0h1m1 0h4m1 0h1m7 0h2m3 0h3m1 0h2m1 0h1m1 0h1m1 0h2m3 0h1m1 0h1m1 0h2m3 0h2m1 0h1m1 0h1m1 0h1m1 0h4m1 0h3m2 0h1m2 0h1m1 0h1m1 0h1m1 0h1m1 0h2m2 0h3m4 0h1m1 0h1m3 0h1m1 0h2m1 0h1M4 106.5h1m1 0h3m1 0h1m1 0h1m1 0h4m3 0h3m2 0h1m2 0h1m3 0h2m1 0h1m2 0h5m1 0h4m1 0h2m3 0h1m1 0h1m2 0h4m2 0h1m1 0h3m2 0h1m3 0h4m3 0h1m1 0h1m4 0h2m4 0h2m1 0h1m1 0h1m3 0h1M4 107.5h1m5 0h1m1 0h1m2 0h1m3 0h1m2 0h1m1 0h1m1 0h2m1 0h2m2 0h2m1 0h2m2 0h4m4 0h1m1 0h4m1 0h2m3 0h3m5 0h3m1 0h1m1 0h3m2 0h1m1 0h1m8 0h2m1 0h3m2 0h1m1 0h1m2 0h2m3 0h1M4 108.5h7m1 0h4m2 0h1m2 0h9m1 0h2m2 0h1m3 0h1m3 0h3m1 0h1m3 0h3m3 0h2m3 0h2m2 0h3m1 0h2m1 0h1m1 0h7m1 0h1m1 0h2m2 0h1m3 0h2m2 0h5m1 0h1"/></svg>
