<svg xmlns="http://www.w3.org/2000/svg" viewBox="0 0 113 113" shape-rendering="crispEdges"><path fill="#ffffff" d="M0 0h113v113H0z"/><path stroke="#000000" d="M4 4.5h7m1 0h2m1 0h7m2 0h1m1 0h1m3 0h1m2 0h2m1 0h1m1 0h1m1 0h3m1 0h2m1 0h1m2 0h3m4 0h1m1 0h4m1 0h2m2 0h4m1 0h4m1 0h1m1 0h5m1 0h1m2 0h1m2 0h1m2 0h1m1 0h2m3 0h7M4 5.5h1m5 0h1m1 0h2m2 0h5m1 0h1m2 0h2m2 0h2m6 0h7m9 0h1m1 0h1m4 0h1m1 0h2m1 0h1m1 0h1m2 0h2m3 0h3m1 0h1m1 0h1m3 0h1m1 0h1m2 0h1m3 0h1m3 0h1m3 0h1m5 0h1M4 6.5h1m1 0h3m1 0h1m1 0h2m4 0h2m2 0h1m2 0h1m1 0h1m4 0h3m1 0h8m2 0h3m2 0h4m1 0h2m2 0h1m1 0h2m1 0h1m1 0h1m4 0h1m3 0h2m1 0h2m4 0h2m1 0h1m6 0h5m2 0h1m1 0h3m1 0h1M4 7.5h1m1 0h3m1 0h1m1 0h2m1 0h3m2 0h2m1 0h1m2 0h1m1 0h5m3 0h2m1 0h1m5 0h1m1 0h1m1 0h1m2 0h3m1 0h1m1 0h2m1 0h1m4 0h1m1 0h1m2 0h2m2 0h2m1 0h1m4 0h1m1 0h1m1 0h1m2 0h1m1 0h2m6 0h1m1 0h1m1 0h3m1 0h1M4 8.5h1m1 0h3m1 0h1m2 0h1m1 0h2m2 0h2m1 0h2m1 0h11m2 0h4m1 0h1m1 0h1m1 0h1m1 0h1m1 0h6m1 0h4m3 0h1m2 0h1m2 0h1m1 0h1m1 0h6m4 0h1m2 0h2m9 0h2m1 0h1m1 0h3m1 0h1M4 9.5h1m5 0h1m1 0h3m1 0h3m9 0h1m3 0h10m1 0h3m2 0h2m2 0h1m3 0h2m2 0h4m1 0h2m1 0h2m1 0h3m2 0h1m3 0h1m1 0h1m3 0h2m1 0h2m1 0h3m1 0h2m1 0h1m2 0h1m5 0h1M4 10.5h7m1 0h1m1 0h1m1 0h1m1 0h1m1 0h1m1 0h1m1 0h1m1 0h1m1 0h1m1 0h1m1 0h1m1 0h1m1 0h1m1 0h1m1 0h1m1 0h1m1 0h1m1 0h1m1 0h1m1 0h1m1 0h1m1 0h1m1 0h1m1 0h1m1 0h1m1 0h1m1 0h1m1 0h1m1 0h1m1 0h1m1 0h1m1 0h1m1 0h1m1 0h1m1 0h1m1 0h1m1 0h1m1 0h1m1 0h1m1 0h1m1 0h1m1 0h1m1 0h1m1 0h1m1 0h1m1 0h7M13 11.5h5m1 0h3m2 0h5m3 0h1m1 0h4m2 0h2m3 0h1m2 0h2m1 0h2m3 0h1m2 0h1m1 0h1m1 0h1m1 0h1m2 0h5m2 0h2m3 0h2m1 0h1m4 0h1m4 0h1m2 0h4M4 12.5h2m2 0h3m7 0h2m3 0h2m3 0h5m3 0h1m1 0h3m1 0h4m4 0h1m1 0h6m3 0h1m1 0h5m1 0h1m3 0h1m2 0h10m1 0h2m8 0h1m5 0h1m1 0h4M4 13.5h1m3 0h1m2 0h3m6 0h1m1 0h2m1 0h4m1 0h1m1 0h3m1 0h1m4 0h2m1 0h3m2 0h2m1 0h6m2 0h1m3 0h1m6 0h1m2 0h1m1 0h2m2 0h1m3 0h1m4 0h3m1 0h1m1 0h1m1 0h2m1 0h1m3 0h1m2 0h1M5 14.5h8m3 0h4m1 0h4m3 0h2m1 0h1m1 0h3m2 0h1m1 0h7m1 0h1m2 0h1m1 0h1m3 0h3m1 0h2m5 0h4m1 0h1m1 0h2m1 0h2m2 0h1m1 0h2m1 0h1m2 0h3m1 0h1m2 0h2m1 0h2m1 0h1m2 0h1M4 15.5h1m2 0h1m4 0h5m1 0h2m1 0h1m2 0h1m1 0h1m1 0h7m1 0h1m1 0h3m2 0h1m3 0h1m1 0h2m1 0h2m2 0h9m1 0h5m3 0h1m1 0h1m2 0h1m1 0h1m5 0h1m4 0h2m3 0h2m3 0h2m2 0h2M4 16.5h1m2 0h5m4 0h2m2 0h2m2 0h3m1 0h2m1 0h3m3 0h4m1 0h2m1 0h1m3 0h2m1 0h1m3 0h1m1 0h1m1 0h3m1 0h1m1 0h2m5 0h2m2 0h3m1 0h1m1 0h2m3 0h3m1 0h1m1 0h5m1 0h2m2 0h1m1 0h3M4 17.5h1m2 0h3m1 0h3m1 0h2m3 0h3m4 0h1m4 0h4m3 0h4m1 0h2m1 0h2m2 0h2m1 0h2m1 0h1m1 0h2m1 0h3m3 0h3m1 0h2m1 0h3m3 0h5m1 0h2m1 0h1m1 0h2m3 0h2m1 0h3m2 0h1M5 18.5h2m1 0h9m2 0h3m4 0h3m1 0h1m1 0h1m2 0h1m1 0h1m3 0h1m1 0h1m1 0h1m1 0h2m1 0h1m4 0h8m1 0h2m3 0h2m1 0h7m1 0h1m1 0h1m3 0h2m1 0h1m2 0h2m5 0h1m1 0h3m1 0h3M4 19.5h3m1 0h1m2 0h2m2 0h4m2 0h1m3 0h3m1 0h3m1 0h1m6 0h2m1 0h1m3 0h1m1 0h1m1 0h1m5 0h2m2 0h1m1 0h1m3 0h2m2 0h1m1 0h3m1 0h1m1 0h3m2 0h1m4 0h1m2 0h1m1 0h2m1 0h2m1 0h2m1 0h1m2 0h1M7 20.5h2m1 0h3m2 0h1m2 0h5m1 0h1m2 0h5m2 0h2m2 0h3m1 0h7m3 0h1m2 0h1m4 0h1m3 0h1m3 0h1m7 0h3m4 0h2m1 0h1m6 0h1m1 0h1m2 0h3m3 0h3m1 0h1M4 21.5h1m2 0h1m1 0h1m1 0h1m1 0h4m3 0h1m1 0h3m1 0h3m3 0h1m1 0h1m1 0h1m3 0h1m1 0h1m1 0h1m1 0h1m1 0h2m4 0h1m3 0h1m1 0h3m1 0h1m3 0h2m1 0h1m2 0h1m3 0h3m1 0h1m1 0h1m4 0h5m1 0h3m2 0h4m1 0h2m1 0h1M5 22.5h1m3 0h2m2 0h1m3 0h1m1 0h1m3 0h2m1 0h3m1 0h1m2 0h1m4 0h2m1 0h1m1 0h1m6 0h1m3 0h2m3 0h7m2 0h4m1 0h2m1 0h4m2 0h1m4 0h3m1 0h1m1 0h1m4 0h5m1 0h2M4 23.5h5m2 0h3m1 0h4m1 0h1m1 0h1m2 0h1m4 0h2m1 0h2m1 0h3m4 0h1m5 0h1m1 0h2m5 0h1m1 0h2m2 0h1m2 0h1m7 0h6m1 0h1m1 0h2m1 0h2m2 0h5m3 0h1m4 0h1m1 0h1m1 0h1M5 24.5h1m1 0h1m1 0h5m1 0h4m1 0h1m4 0h1m2 0h1m1 0h1m1 0h3m1 0h1m2 0h2m3 0h4m2 0h1m1 0h1m1 0h1m1 0h4m1 0h1m4 0h2m4 0h1m1 0h1m3 0h2m1 0h1m2 0h2m1 0h2m6 0h1m2 0h2m1 0h2m1 0h2m2 0h1M4 25.5h1m1 0h2m1 0h1m1 0h4m2 0h2m1 0h3m1 0h1m1 0h1m3 0h1m1 0h2m1 0h4m2 0h1m1 0h3m4 0h2m2 0h6m1 0h1m3 0h4m3 0h5m2 0h1m8 0h1m1 0h2m2 0h1m2 0h1m1 0h1m1 0h4m1 0h2M4 26.5h1m2 0h2m1 0h1m1 0h3m1 0h1m1 0h1m1 0h1m4 0h3m1 0h1m2 0h1m2 0h1m2 0h1m1 0h1m2 0h3m1 0h1m1 0h2m2 0h3m1 0h1m2 0h5m1 0h1m1 0h1m4 0h1m1 0h3m2 0h1m6 0h2m1 0h2m2 0h3m1 0h4m1 0h2m1 0h3M4 27.5h6m2 0h3m3 0h2m2 0h2m4 0h1m3 0h2m2 0h2m1 0h3m1 0h1m1 0h1m1 0h1m1 0h1m1 0h1m1 0h2m1 0h2m1 0h2m1 0h1m1 0h1m3 0h2m3 0h3m2 0h1m1 0h4m1 0h1m1 0h2m3 0h1m2 0h2m1 0h1m2 0h2m4 0h2M6 28.5h8m2 0h3m1 0h2m3 0h1m2 0h7m1 0h4m1 0h1m5 0h3m1 0h6m1 0h2m3 0h1m2 0h2m1 0h1m1 0h1m4 0h5m1 0h1m1 0h1m1 0h5m2 0h1m1 0h2m3 0h5M4 29.5h1m1 0h1m1 0h1m3 0h2m1 0h7m1 0h1m1 0h4m3 0h1m2 0h1m6 0h2m2 0h1m3 0h1m1 0h1m3 0h3m1 0h1m4 0h3m2 0h2m1 0h4m3 0h3m1 0h3m1 0h1m1 0h5m2 0h4m3 0h2m1 0h1M4 30.5h3m1 0h1m1 0h1m1 0h4m2 0h3m3 0h2m2 0h1m1 0h1m1 0h2m1 0h2m2 0h4m1 0h2m1 0h2m1 0h3m1 0h1m1 0h1m3 0h2m1 0h1m3 0h7m1 0h2m1 0h1m1 0h1m3 0h1m1 0h1m3 0h2m1 0h1m6 0h1m1 0h1m1 0h1m1 0h2M4 31.5h5m3 0h1m1 0h2m3 0h1m2 0h1m1 0h3m1 0h1m3 0h4m1 0h1m3 0h4m2 0h1m1 0h4m3 0h1m2 0h1m5 0h1m1 0h1m2 0h2m2 0h3m3 0h1m3 0h2m3 0h2m1 0h2m2 0h2m1 0h2m3 0h3m1 0h1M8 32.5h7m1 0h2m1 0h3m6 0h6m1 0h1m1 0h1m2 0h1m2 0h7m1 0h8m4 0h2m1 0h3m2 0h1m3 0h7m2 0h1m1 0h4m3 0h1m1 0h1m1 0h9M6 33.5h1m1 0h2m1 0h2m3 0h2m2 0h4m2 0h1m2 0h1m2 0h2m2 0h1m1 0h2m1 0h4m1 0h1m1 0h4m2 0h1m1 0h1m1 0h1m3 0h1m1 0h7m2 0h1m2 0h4m2 0h5m1 0h1m1 0h2m3 0h1m5 0h6M5 34.5h4m1 0h1m2 0h2m1 0h1m1 0h2m1 0h2m1 0h2m2 0h1m2 0h2m6 0h2m1 0h2m1 0h2m1 0h2m3 0h1m2 0h2m1 0h1m2 0h2m8 0h1m1 0h2m1 0h1m1 0h4m2 0h1m1 0h1m11 0h2m4 0h3M5 35.5h3m4 0h1m4 0h1m3 0h2m1 0h2m1 0h5m1 0h1m2 0h3m2 0h1m1 0h2m1 0h2m2 0h1m1 0h1m1 0h1m1 0h2m1 0h1m4 0h5m2 0h2m1 0h2m2 0h1m1 0h3m3 0h1m5 0h1m1 0h2m1 0h1m3 0h4m1 0h2M4 36.5h3m1 0h1m1 0h1m2 0h1m1 0h2m1 0h1m1 0h2m1 0h3m5 0h3m3 0h1m1 0h1m3 0h2m1 0h4m6 0h2m1 0h2m1 0h1m2 0h1m1 0h1m2 0h2m3 0h2m4 0h1m3 0h1m1 0h1m10 0h2m2 0h2m3 0h1M4 37.5h1m4 0h1m1 0h3m2 0h3m1 0h2m4 0h1m1 0h2m4 0h2m1 0h1m1 0h1m1 0h1m1 0h1m3 0h1m1 0h1m2 0h3m1 0h1m2 0h1m2 0h3m5 0h2m4 0h1m5 0h2m2 0h2m1 0h1m1 0h1m1 0h2m1 0h1m1 0h1m5 0h1M4 38.5h3m1 0h1m1 0h1m1 0h2m5 0h2m2 0h1m2 0h4m1 0h2m2 0h1m1 0h1m4 0h5m4 0h2m2 0h1m2 0h1m3 0h1m2 0h1m1 0h1m1 0h2m3 0h4m2 0h1m1 0h1m2 0h3m2 0h3m3 0h2m1 0h2m2 0h1M4 39.5h1m1 0h1m1 0h2m2 0h1m1 0h1m1 0h1m2 0h1m1 0h1m5 0h1m1 0h1m2 0h3m1 0h1m2 0h2m2 0h1m2 0h1m2 0h3m1 0h1m2 0h3m1 0h2m6 0h3m2 0h3m4 0h1m3 0h3m3 0h1m1 0h2m1 0h3m1 0h3m1 0h1m3 0h1M4 40.5h1m3 0h1m1 0h1m1 0h3m3 0h1m3 0h3m2 0h2m1 0h1m1 0h1m1 0h1m3 0h2m2 0h1m2 0h1m2 0h1m2 0h5m3 0h1m3 0h3m2 0h1m2 0h1m1 0h3m6 0h2m1 0h1m2 0h2m1 0h3m2 0h1m2 0h1m1 0h2m1 0h2M5 41.5h1m1 0h1m1 0h1m2 0h1m2 0h2m1 0h1m1 0h1m1 0h1m1 0h1m4 0h2m3 0h3m4 0h1m1 0h1m1 0h1m4 0h2m2 0h5m1 0h8m3 0h5m2 0h4m2 0h1m1 0h1m1 0h2m3 0h6m2 0h1m2 0h1m1 0h2M4 42.5h1m1 0h5m1 0h1m1 0h1m2 0h1m1 0h1m1 0h1m1 0h3m3 0h4m5 0h2m1 0h1m3 0h1m4 0h1m2 0h10m1 0h1m1 0h2m5 0h4m2 0h2m1 0h2m1 0h1m1 0h2m1 0h1m1 0h1m4 0h2m4 0h5M6 43.5h2m3 0h2m1 0h1m2 0h3m3 0h1m3 0h1m1 0h1m2 0h3m3 0h1m1 0h2m1 0h2m2 0h2m2 0h2m1 0h2m3 0h2m2 0h1m1 0h2m1 0h2m4 0h3m3 0h1m1 0h1m2 0h3m1 0h2m5 0h1m2 0h2m2 0h1m1 0h1m2 0h1M5 44.5h1m1 0h1m2 0h1m1 0h5m1 0h2m2 0h2m1 0h1m2 0h1m3 0h1m3 0h1m1 0h1m1 0h2m1 0h1m1 0h4m1 0h4m1 0h2m1 0h2m2 0h1m1 0h1m3 0h5m1 0h1m3 0h3m1 0h3m2 0h5m2 0h2m1 0h3m4 0h1m1 0h1m1 0h1M8 45.5h2m1 0h1m3 0h3m2 0h1m1 0h2m1 0h1m3 0h1m4 0h2m1 0h1m3 0h2m1 0h1m1 0h1m4 0h3m3 0h2m6 0h2m1 0h1m5 0h1m2 0h1m1 0h1m2 0h2m4 0h1m1 0h1m2 0h4m1 0h1m3 0h2m1 0h2M4 46.5h2m2 0h7m1 0h1m2 0h1m1 0h4m1 0h2m4 0h1m5 0h1m1 0h1m4 0h4m1 0h1m2 0h2m1 0h2m1 0h2m3 0h5m4 0h1m1 0h3m1 0h1m1 0h1m2 0h4m2 0h1m1 0h1m2 0h3m1 0h1m3 0h1m1 0h1m1 0h1M6 47.5h2m9 0h4m1 0h3m1 0h3m4 0h4m3 0h4m1 0h2m1 0h4m3 0h2m3 0h1m6 0h1m1 0h9m3 0h1m2 0h1m1 0h1m2 0h3m2 0h1m2 0h4m3 0h2m1 0h1M4 48.5h1m1 0h6m2 0h7m4 0h1m1 0h1m1 0h1m1 0h2m4 0h1m2 0h1m3 0h8m1 0h2m1 0h1m1 0h1m1 0h1m1 0h2m2 0h1m1 0h1m1 0h1m2 0h5m2 0h1m8 0h1m2 0h1m1 0h1m4 0h1m1 0h1m3 0h1m2 0h1M6 49.5h2m1 0h1m1 0h2m1 0h2m1 0h2m3 0h3m2 0h2m2 0h2m1 0h2m4 0h3m1 0h1m1 0h8m1 0h1m1 0h1m4 0h1m1 0h4m8 0h1m3 0h1m1 0h4m3 0h2m1 0h1m1 0h3m2 0h2m2 0h1m2 0h2M5 50.5h3m2 0h1m4 0h1m1 0h1m3 0h1m1 0h3m5 0h1m1 0h1m1 0h3m2 0h3m1 0h2m1 0h2m2 0h4m1 0h1m1 0h1m1 0h3m5 0h5m1 0h1m4 0h3m2 0h1m3 0h1m1 0h3m4 0h3m1 0h3m2 0h3M5 51.5h1m9 0h1m4 0h2m2 0h1m1 0h1m1 0h1m1 0h1m1 0h1m1 0h1m1 0h2m4 0h1m1 0h1m3 0h1m1 0h2m1 0h2m1 0h3m1 0h1m2 0h1m1 0h3m5 0h1m2 0h1m3 0h2m2 0h4m2 0h2m2 0h2m1 0h1m7 0h2m1 0h1M5 52.5h1m1 0h7m1 0h1m3 0h2m2 0h4m1 0h6m3 0h1m3 0h2m1 0h1m1 0h1m1 0h1m3 0h7m1 0h2m1 0h4m1 0h3m1 0h1m3 0h6m2 0h1m1 0h3m1 0h3m1 0h1m1 0h1m1 0h7M4 53.5h3m1 0h1m3 0h1m1 0h3m1 0h2m1 0h1m1 0h1m1 0h1m1 0h2m3 0h1m1 0h2m4 0h1m1 0h1m1 0h2m1 0h1m1 0h1m2 0h1m3 0h2m1 0h3m1 0h1m2 0h2m1 0h4m1 0h3m3 0h2m6 0h2m3 0h1m2 0h1m1 0h3m3 0h3m1 0h1M5 54.5h2m1 0h1m1 0h1m1 0h1m1 0h3m4 0h3m2 0h1m1 0h1m1 0h1m1 0h2m2 0h1m3 0h1m1 0h4m1 0h3m2 0h1m1 0h1m1 0h1m2 0h1m1 0h1m1 0h1m1 0h2m1 0h1m3 0h2m1 0h2m1 0h1m1 0h2m1 0h3m1 0h1m1 0h1m2 0h5m1 0h3m1 0h1m1 0h1m2 0h2M7 55.5h2m3 0h1m1 0h2m1 0h1m2 0h2m1 0h3m1 0h2m3 0h1m4 0h9m4 0h1m1 0h1m3 0h2m3 0h1m6 0h2m1 0h3m1 0h2m3 0h2m3 0h1m1 0h1m2 0h2m1 0h1m3 0h2m1 0h1m3 0h2m1 0h1M4 56.5h1m1 0h1m1 0h5m1 0h1m3 0h1m1 0h1m1 0h5m1 0h6m1 0h2m1 0h2m1 0h1m2 0h3m2 0h1m2 0h5m1 0h1m1 0h3m1 0h1m1 0h3m2 0h1m1 0h1m2 0h8m1 0h5m1 0h3m1 0h2m3 0h7M6 57.5h2m1 0h1m1 0h1m4 0h2m1 0h1m2 0h1m2 0h5m1 0h1m1 0h3m1 0h2m1 0h1m1 0h6m2 0h4m4 0h1m1 0h1m3 0h1m1 0h1m1 0h2m2 0h1m1 0h2m1 0h1m3 0h1m1 0h1m3 0h1m2 0h1m1 0h3m6 0h1m3 0h2m1 0h1M4 58.5h1m2 0h1m2 0h3m12 0h2m2 0h7m1 0h3m1 0h1m1 0h1m2 0h1m1 0h2m1 0h2m1 0h2m1 0h1m2 0h2m2 0h1m1 0h3m2 0h2m1 0h1m1 0h4m4 0h2m2 0h3m1 0h2m2 0h3m4 0h6M5 59.5h1m1 0h1m1 0h1m3 0h1m2 0h1m2 0h1m1 0h1m3 0h2m1 0h1m1 0h1m2 0h7m2 0h3m2 0h1m1 0h1m3 0h4m1 0h1m1 0h2m2 0h3m1 0h2m2 0h2m3 0h2m1 0h2m3 0h2m4 0h1m2 0h2m2 0h1m1 0h1m1 0h3M5 60.5h1m3 0h6m1 0h1m3 0h1m1 0h1m1 0h2m3 0h1m4 0h1m1 0h2m2 0h1m1 0h2m1 0h1m5 0h2m4 0h1m2 0h1m1 0h1m4 0h7m1 0h3m1 0h1m1 0h2m1 0h1m2 0h8m1 0h7m2 0h2M6 61.5h3m4 0h1m1 0h5m4 0h1m1 0h6m1 0h2m2 0h5m4 0h1m2 0h2m2 0h2m3 0h3m1 0h3m1 0h1m1 0h1m1 0h1m2 0h4m3 0h2m1 0h4m1 0h2m4 0h1m1 0h5m1 0h1m1 0h1m2 0h1M4 62.5h1m2 0h1m2 0h2m4 0h1m2 0h2m1 0h6m3 0h1m2 0h1m2 0h2m1 0h2m2 0h1m3 0h1m1 0h1m2 0h2m1 0h3m3 0h1m3 0h2m2 0h5m4 0h1m1 0h1m4 0h1m2 0h5m1 0h4m1 0h2m3 0h1m1 0h1M4 63.5h2m2 0h1m3 0h1m1 0h1m1 0h1m2 0h3m2 0h1m3 0h1m2 0h1m3 0h1m1 0h2m2 0h1m1 0h2m1 0h3m3 0h2m3 0h2m1 0h3m2 0h1m1 0h1m2 0h1m2 0h2m4 0h1m5 0h4m3 0h2m1 0h1m4 0h1m7 0h1M5 64.5h3m1 0h3m2 0h1m2 0h1m3 0h1m1 0h2m2 0h3m1 0h1m2 0h9m2 0h1m1 0h2m1 0h2m1 0h7m2 0h1m7 0h2m1 0h1m3 0h1m2 0h3m1 0h2m4 0h4m2 0h1m1 0h3m6 0h2M4 65.5h2m3 0h1m1 0h2m3 0h1m3 0h2m3 0h1m1 0h2m2 0h1m1 0h1m2 0h1m1 0h1m2 0h6m1 0h2m1 0h1m4 0h2m1 0h2m1 0h2m1 0h3m1 0h1m2 0h3m1 0h1m1 0h2m1 0h2m1 0h2m2 0h13m1 0h1m3 0h1M4 66.5h3m1 0h6m2 0h2m2 0h1m5 0h2m1 0h2m1 0h3m1 0h1m1 0h1m2 0h2m1 0h2m1 0h1m1 0h1m1 0h1m1 0h1m1 0h4m5 0h1m2 0h1m2 0h1m1 0h1m1 0h3m2 0h2m2 0h2m1 0h2m5 0h1m1 0h2m1 0h2m1 0h6m1 0h1M5 67.5h1m1 0h3m2 0h1m1 0h4m3 0h4m2 0h1m2 0h1m1 0h2m1 0h1m1 0h1m1 0h3m2 0h1m1 0h1m2 0h1m2 0h1m5 0h1m1 0h1m1 0h2m1 0h2m3 0h1m3 0h3m4 0h2m1 0h2m1 0h1m4 0h1m2 0h1m4 0h1m1 0h1m2 0h1m1 0h2M4 68.5h1m1 0h5m1 0h1m2 0h1m5 0h2m1 0h1m3 0h1m1 0h2m1 0h1m3 0h1m3 0h1m2 0h1m2 0h4m1 0h7m1 0h1m5 0h1m3 0h2m2 0h3m1 0h8m1 0h2m1 0h2m1 0h2m1 0h1m1 0h3m1 0h1m1 0h1m1 0h3M5 69.5h1m1 0h2m3 0h1m1 0h1m1 0h1m1 0h2m1 0h3m2 0h2m7 0h3m3 0h2m2 0h4m2 0h3m2 0h1m1 0h1m1 0h1m2 0h3m1 0h1m7 0h1m1 0h2m1 0h2m2 0h1m2 0h1m2 0h1m9 0h2m1 0h6M5 70.5h4m1 0h2m1 0h1m2 0h1m3 0h1m2 0h3m1 0h1m1 0h2m2 0h2m1 0h2m3 0h1m1 0h2m1 0h1m1 0h1m2 0h6m1 0h1m2 0h1m1 0h1m5 0h1m5 0h1m3 0h2m2 0h1m1 0h9m1 0h2m1 0h1m2 0h4M4 71.5h1m6 0h1m2 0h1m5 0h1m1 0h3m5 0h1m2 0h1m1 0h2m2 0h1m1 0h4m3 0h4m1 0h2m1 0h5m1 0h2m1 0h1m1 0h2m2 0h1m1 0h2m1 0h3m5 0h2m2 0h1m2 0h1m2 0h3m1 0h1m2 0h1m1 0h1m1 0h1M6 72.5h1m1 0h3m1 0h2m1 0h1m2 0h2m1 0h3m2 0h5m1 0h1m1 0h1m1 0h1m1 0h1m1 0h1m1 0h4m1 0h3m3 0h1m1 0h2m1 0h1m1 0h1m2 0h1m1 0h2m1 0h1m2 0h5m1 0h3m1 0h1m1 0h8m1 0h2m2 0h1m2 0h4m2 0h1m1 0h2M4 73.5h1m1 0h2m5 0h1m1 0h4m1 0h2m1 0h1m4 0h1m3 0h1m1 0h2m2 0h8m2 0h1m1 0h1m1 0h3m1 0h1m6 0h2m1 0h5m1 0h2m2 0h2m1 0h1m2 0h2m4 0h1m1 0h4m1 0h2m1 0h1m3 0h1m1 0h1m1 0h1m1 0h1M5 74.5h3m2 0h1m1 0h2m2 0h1m1 0h1m1 0h1m3 0h1m8 0h1m3 0h2m1 0h1m1 0h1m2 0h1m1 0h1m4 0h1m3 0h4m1 0h1m2 0h1m1 0h1m2 0h3m1 0h1m5 0h5m1 0h2m2 0h1m1 0h1m1 0h1m2 0h1m4 0h3m1 0h2M5 75.5h1m1 0h1m5 0h3m1 0h1m1 0h1m2 0h4m5 0h3m2 0h4m3 0h1m8 0h1m2 0h1m1 0h1m1 0h1m4 0h5m1 0h1m1 0h1m1 0h4m2 0h1m2 0h1m1 0h1m2 0h1m1 0h1m1 0h2m1 0h1m3 0h2m3 0h4M4 76.5h2m2 0h8m2 0h1m3 0h3m2 0h7m2 0h1m1 0h1m1 0h2m1 0h8m1 0h7m1 0h1m3 0h5m1 0h1m1 0h2m2 0h5m2 0h2m3 0h1m1 0h2m1 0h2m3 0h1m1 0h7M4 77.5h1m2 0h2m3 0h1m3 0h1m1 0h3m1 0h1m1 0h1m1 0h3m3 0h1m2 0h6m3 0h1m7 0h1m3 0h9m1 0h1m1 0h5m3 0h1m3 0h1m1 0h1m3 0h1m1 0h4m1 0h3m2 0h3m3 0h2m2 0h1M5 78.5h1m2 0h1m1 0h1m1 0h1m1 0h1m2 0h1m1 0h1m2 0h1m1 0h1m3 0h1m1 0h1m1 0h1m5 0h4m3 0h1m1 0h1m1 0h1m2 0h1m1 0h1m1 0h1m7 0h7m2 0h4m1 0h1m1 0h1m2 0h1m1 0h1m3 0h1m1 0h1m2 0h2m3 0h2m1 0h1m1 0h1M4 79.5h1m1 0h3m3 0h2m1 0h6m1 0h1m1 0h2m1 0h2m3 0h3m2 0h2m2 0h1m2 0h1m4 0h2m1 0h1m3 0h1m2 0h2m3 0h1m3 0h1m3 0h2m1 0h2m3 0h2m1 0h3m1 0h2m1 0h1m1 0h1m1 0h1m1 0h2m1 0h2m3 0h2M7 80.5h7m1 0h1m2 0h3m1 0h2m2 0h1m1 0h5m5 0h2m2 0h1m1 0h4m2 0h7m7 0h1m1 0h1m1 0h1m1 0h3m1 0h9m5 0h1m1 0h1m6 0h9m1 0h2M5 81.5h1m1 0h1m1 0h1m3 0h1m1 0h2m2 0h1m1 0h4m4 0h3m1 0h2m1 0h3m1 0h1m3 0h1m1 0h1m4 0h3m2 0h1m1 0h1m1 0h2m3 0h2m1 0h1m2 0h2m1 0h1m1 0h1m1 0h1m2 0h1m1 0h2m2 0h2m1 0h2m1 0h1m2 0h2m1 0h1m1 0h1m3 0h1m1 0h2M7 82.5h1m2 0h1m1 0h1m2 0h1m2 0h1m2 0h1m1 0h2m1 0h1m1 0h1m1 0h3m1 0h1m1 0h1m4 0h2m1 0h1m4 0h1m1 0h1m2 0h5m1 0h1m1 0h2m1 0h1m1 0h3m2 0h3m1 0h4m1 0h1m6 0h2m3 0h3m3 0h1m3 0h3m1 0h1M5 83.5h1m1 0h1m5 0h1m1 0h1m1 0h3m1 0h1m1 0h1m1 0h5m2 0h2m9 0h3m4 0h3m1 0h2m1 0h1m2 0h2m1 0h1m5 0h2m2 0h5m3 0h1m2 0h3m3 0h2m1 0h2m2 0h1m4 0h1m1 0h2M8 84.5h5m2 0h1m1 0h1m1 0h1m4 0h1m2 0h1m3 0h5m1 0h1m2 0h1m1 0h1m1 0h1m1 0h1m1 0h2m2 0h2m1 0h1m1 0h1m3 0h1m2 0h1m1 0h1m4 0h6m1 0h3m1 0h1m1 0h1m3 0h3m1 0h1m2 0h3m1 0h2m2 0h1m1 0h3M7 85.5h1m5 0h2m3 0h1m2 0h1m2 0h1m2 0h3m1 0h2m3 0h6m1 0h6m2 0h2m3 0h4m2 0h1m3 0h2m2 0h1m2 0h1m1 0h5m2 0h3m2 0h1m6 0h1m1 0h4m3 0h2m1 0h3M4 86.5h4m2 0h2m2 0h1m4 0h3m2 0h1m4 0h2m1 0h3m1 0h3m4 0h1m2 0h2m2 0h2m5 0h1m3 0h4m1 0h5m1 0h1m1 0h2m1 0h6m1 0h1m1 0h3m3 0h1m2 0h1m2 0h2m4 0h1m1 0h2M4 87.5h1m3 0h2m2 0h1m1 0h2m1 0h1m2 0h1m1 0h3m5 0h3m3 0h1m2 0h2m3 0h2m2 0h2m1 0h1m2 0h1m1 0h1m2 0h1m2 0h1m3 0h2m1 0h2m2 0h2m5 0h4m3 0h1m1 0h2m1 0h1m3 0h1m1 0h1m2 0h3m3 0h1M10 88.5h1m1 0h1m1 0h2m4 0h1m1 0h1m1 0h1m6 0h2m2 0h1m3 0h3m1 0h5m1 0h7m1 0h4m1 0h2m2 0h3m2 0h3m6 0h4m1 0h2m4 0h1m2 0h1m1 0h1m4 0h1m4 0h2M4 89.5h2m1 0h1m1 0h1m1 0h1m2 0h4m1 0h1m2 0h3m1 0h5m2 0h4m1 0h1m1 0h2m3 0h2m2 0h3m1 0h1m1 0h1m3 0h8m2 0h1m1 0h2m1 0h1m1 0h4m2 0h1m2 0h1m3 0h4m4 0h4m1 0h3m2 0h1M4 90.5h1m1 0h1m1 0h1m1 0h2m3 0h2m1 0h3m2 0h4m2 0h1m1 0h1m1 0h1m1 0h2m1 0h3m2 0h1m2 0h5m3 0h4m2 0h3m1 0h3m1 0h1m2 0h2m1 0h1m1 0h1m3 0h3m1 0h1m2 0h1m1 0h3m1 0h1m1 0h2m2 0h1m2 0h1m4 0h1M4 91.5h4m1 0h1m2 0h1m1 0h1m1 0h1m2 0h1m2 0h1m1 0h1m2 0h1m3 0h1m1 0h1m2 0h1m2 0h1m1 0h2m1 0h1m4 0h1m2 0h1m3 0h1m2 0h1m3 0h1m3 0h2m1 0h2m2 0h3m1 0h1m3 0h1m2 0h1m1 0h1m2 0h1m1 0h3m1 0h3m2 0h6M4 92.5h2m1 0h2m1 0h2m1 0h1m3 0h1m1 0h3m1 0h1m2 0h1m1 0h2m1 0h1m2 0h1m1 0h4m1 0h2m1 0h1m2 0h2m2 0h3m4 0h2m1 0h3m4 0h2m4 0h1m1 0h1m4 0h3m1 0h1m2 0h4m4 0h2m1 0h3m1 0h1m1 0h1m2 0h1M7 93.5h2m2 0h2m5 0h1m1 0h2m5 0h5m1 0h1m1 0h3m5 0h2m1 0h2m2 0h1m1 0h1m1 0h1m1 0h1m1 0h1m1 0h2m2 0h2m5 0h6m1 0h1m1 0h1m1 0h1m2 0h1m2 0h2m2 0h4m4 0h1m1 0h2m1 0h1m1 0h2M4 94.5h4m2 0h4m1 0h2m2 0h2m1 0h1m1 0h3m1 0h2m8 0h3m1 0h6m3 0h3m2 0h3m1 0h2m1 0h1m3 0h2m2 0h1m2 0h2m2 0h1m1 0h2m1 0h1m1 0h1m1 0h1m1 0h1m1 0h10m2 0h1m2 0h1M4 95.5h1m3 0h2m1 0h1m3 0h2m3 0h2m3 0h3m1 0h3m1 0h1m1 0h1m7 0h3m2 0h3m2 0h1m8 0h1m1 0h3m1 0h1m3 0h1m1 0h1m1 0h1m1 0h1m1 0h1m1 0h1m1 0h1m2 0h2m1 0h3m9 0h1m2 0h2m1 0h1M4 96.5h2m1 0h1m1 0h2m2 0h4m3 0h3m1 0h1m1 0h1m1 0h1m4 0h2m1 0h1m1 0h3m2 0h1m2 0h1m2 0h1m2 0h1m1 0h2m1 0h2m1 0h1m1 0h2m1 0h4m1 0h2m3 0h1m3 0h3m1 0h1m1 0h1m1 0h3m1 0h1m1 0h2m3 0h3m3 0h2M4 97.5h2m2 0h2m1 0h1m2 0h3m1 0h1m1 0h1m2 0h1m1 0h4m2 0h1m1 0h2m3 0h1m2 0h1m2 0h1m1 0h3m2 0h1m1 0h2m1 0h1m1 0h2m2 0h1m4 0h1m4 0h3m2 0h1m3 0h2m5 0h1m1 0h7m6 0h2m1 0h2M4 98.5h3m3 0h3m1 0h1m1 0h2m1 0h4m2 0h5m1 0h1m4 0h3m6 0h1m5 0h5m4 0h1m2 0h1m2 0h5m2 0h1m1 0h1m1 0h2m1 0h6m1 0h3m3 0h3m1 0h1m1 0h1m4 0h1m1 0h3M6 99.5h1m1 0h2m4 0h1m1 0h1m1 0h1m1 0h1m3 0h8m3 0h1m1 0h1m2 0h2m1 0h1m3 0h4m4 0h1m1 0h2m1 0h1m2 0h1m2 0h3m1 0h2m1 0h6m1 0h2m4 0h2m2 0h1m1 0h1m1 0h2m1 0h1m2 0h4m1 0h1M7 100.5h2m1 0h3m2 0h3m1 0h1m2 0h2m4 0h6m2 0h1m5 0h2m1 0h2m3 0h1m1 0h9m2 0h3m2 0h4m1 0h1m2 0h5m1 0h2m1 0h2m1 0h1m1 0h1m1 0h1m7 0h6m1 0h1M12 101.5h2m1 0h1m1 0h2m3 0h1m1 0h1m3 0h1m3 0h3m2 0h2m2 0h2m1 0h1m1 0h3m2 0h2m3 0h1m6 0h3m2 0h1m1 0h2m4 0h1m3 0h1m1 0h2m1 0h1m1 0h2m1 0h1m1 0h3m1 0h1m3 0h1m3 0h1m1 0h1M4 102.5h7m3 0h7m2 0h1m1 0h2m1 0h1m1 0h1m1 0h2m3 0h1m1 0h3m2 0h2m1 0h1m2 0h1m1 0h1m1 0h1m1 0h2m1 0h1m2 0h1m1 0h1m4 0h1m1 0h3m2 0h1m1 0h1m1 0h2m1 0h4m1 0h2m1 0h3m1 0h6m1 0h1m1 0h1m1 0h1M4 103.5h1m5 0h1m1 0h2m3 0h1m5 0h1m2 0h3m3 0h1m1 0h4m1 0h2m1 0h2m1 0h3m2 0h3m3 0h1m2 0h1m1 0h1m1 0h2m2 0h1m2 0h3m1 0h1m1 0h1m3 0h2m2 0h3m1 0h6m3 0h1m1 0h2m3 0h1m1 0h2M4 104.5h1m1 0h3m1 0h1m1 0h1m2 0h1m2 0h2m7 0h6m1 0h3m1 0h3m2 0h2m4 0h2m1 0h5m1 0h1m2 0h2m1 0h1m1 0h4m1 0h1m2 0h1m1 0h6m1 0h1m1 0h1m2 0h4m1 0h2m1 0h2m1 0h7m1 0h2M4 105.5h1m1 0h3m1 0h1m2 0h1m1 0h4m1 0h2m1 0h5m3 0h1m2 0h5m2 0h1m2 0h1m1 0h1m2 0h2m3 0h2m1 0h1m5 0h1m1 0h1m2 0h1m3 0h1m1 0h8m1 0h3m3 0h1m1 0h2m2 0h1m6 0h1m2 0h4M4 106.5h1m1 0h3m1 0h1m3 0h1m2 0h1m1 0h1m1 0h2m1 0h1m3 0h2m1 0h4m1 0h1m1 0h6m3 0h1m8 0h3m1 0h2m4 0h1m1 0h4m1 0h1m1 0h1m1 0h6m1 0h1m6 0h2m2 0h1m2 0h3m1 0h1m1 0h2M4 107.5h1m5 0h1m1 0h2m1 0h1m3 0h1m1 0h2m2 0h5m1 0h2m1 0h1m3 0h1m2 0h1m3 0h1m1 0h3m1 0h5m2 0h1m4 0h2m1 0h3m2 0h3m4 0h5m1 0h4m3 0h1m4 0h1m1 0h1m3 0h1M4 108.5h7m1 0h1m3 0h5m4 0h1m2 0h3m2 0h4m1 0h4m1 0h1m4 0h1m1 0h4m1 0h1m4 0h1m4 0h1m1 0h1m1 0h2m3 0h4m1 0h1m2 0h4m3 0h9m1 0h1m1 0h4m1 0h1m1 0h1"/></svg>
