<svg xmlns="http://www.w3.org/2000/svg" viewBox="0 0 93 93" shape-rendering="crispEdges"><path fill="#ffffff" d="M0 0h93v93H0z"/><path stroke="#000000" d="M4 4.5h7m1 0h3m3 0h3m1 0h2m1 0h2m2 0h1m1 0h7m4 0h5m1 0h3m4 0h1m4 0h2m2 0h1m1 0h2m1 0h1m1 0h2m2 0h1m2 0h1m1 0h1m1 0h7M4 5.5h1m5 0h1m3 0h3m1 0h1m1 0h1m2 0h1m1 0h1m3 0h1m1 0h2m1 0h1m1 0h3m3 0h1m1 0h4m3 0h1m1 0h1m1 0h1m1 0h4m1 0h2m1 0h4m1 0h3m1 0h1m3 0h2m2 0h1m5 0h1M4 6.5h1m1 0h3m1 0h1m1 0h3m2 0h4m2 0h1m2 0h1m1 0h1m1 0h1m2 0h1m1 0h1m2 0h2m2 0h1m1 0h2m5 0h3m1 0h2m2 0h2m1 0h1m2 0h1m2 0h5m3 0h1m1 0h1m3 0h1m1 0h3m1 0h1M4 7.5h1m1 0h3m1 0h1m1 0h1m2 0h2m2 0h1m1 0h2m2 0h1m1 0h2m2 0h3m1 0h3m1 0h1m1 0h1m4 0h1m2 0h2m3 0h3m1 0h1m2 0h4m1 0h2m1 0h1m1 0h7m1 0h1m2 0h1m1 0h3m1 0h1M4 8.5h1m1 0h3m1 0h1m1 0h2m1 0h4m3 0h3m2 0h1m1 0h1m2 0h7m2 0h2m8 0h1m1 0h8m1 0h1m3 0h3m4 0h1m4 0h1m3 0h1m1 0h3m1 0h1M4 9.5h1m5 0h1m2 0h1m1 0h5m2 0h3m2 0h1m3 0h2m3 0h2m1 0h1m5 0h3m1 0h1m1 0h2m3 0h1m3 0h1m2 0h2m1 0h1m1 0h1m2 0h2m1 0h1m1 0h2m1 0h1m2 0h1m5 0h1M4 10.5h7m1 0h1m1 0h1m1 0h1m1 0h1m1 0h1m1 0h1m1 0h1m1 0h1m1 0h1m1 0h1m1 0h1m1 0h1m1 0h1m1 0h1m1 0h1m1 0h1m1 0h1m1 0h1m1 0h1m1 0h1m1 0h1m1 0h1m1 0h1m1 0h1m1 0h1m1 0h1m1 0h1m1 0h1m1 0h1m1 0h1m1 0h1m1 0h1m1 0h1m1 0h1m1 0h1m1 0h7M13 11.5h1m1 0h1m4 0h4m1 0h1m3 0h4m3 0h2m1 0h1m2 0h3m4 0h1m1 0h2m2 0h2m3 0h1m1 0h1m1 0h1m1 0h5m1 0h3m3 0h1M4 12.5h4m2 0h1m1 0h2m2 0h2m3 0h1m4 0h1m2 0h2m1 0h5m1 0h1m1 0h1m2 0h1m1 0h1m2 0h1m2 0h1m1 0h1m1 0h6m7 0h1m4 0h1m2 0h4m1 0h1m2 0h3m1 0h1M5 13.5h2m7 0h2m1 0h1m1 0h1m2 0h2m1 0h1m1 0h3m4 0h2m2 0h7m2 0h2m9 0h1m2 0h2m2 0h1m1 0h1m8 0h1m2 0h1m1 0h3m2 0h1M6 14.5h6m1 0h1m1 0h1m1 0h3m2 0h1m4 0h1m1 0h5m1 0h2m1 0h1m2 0h1m1 0h3m1 0h2m2 0h1m1 0h1m2 0h1m2 0h1m1 0h2m1 0h1m1 0h1m3 0h1m1 0h1m2 0h1m3 0h1m1 0h2m1 0h2M4 15.5h2m1 0h1m3 0h1m2 0h2m2 0h1m2 0h2m5 0h1m2 0h1m2 0h5m4 0h1m4 0h6m1 0h3m1 0h1m1 0h1m1 0h1m2 0h2m1 0h1m1 0h1m3 0h1m3 0h1m3 0h1m2 0h3M5 16.5h2m3 0h1m4 0h3m2 0h3m2 0h1m1 0h2m1 0h2m1 0h3m2 0h1m1 0h1m1 0h2m2 0h1m2 0h1m1 0h2m2 0h3m2 0h1m7 0h1m1 0h5m10 0h1m2 0h1M5 17.5h2m5 0h2m2 0h2m2 0h2m3 0h2m1 0h1m2 0h1m1 0h1m2 0h1m1 0h1m1 0h6m3 0h7m1 0h1m3 0h1m5 0h3m1 0h3m2 0h1m1 0h1m1 0h7m1 0h1M4 18.5h1m1 0h3m1 0h1m2 0h2m1 0h3m1 0h2m1 0h8m1 0h1m1 0h4m2 0h1m1 0h2m1 0h2m1 0h4m2 0h1m1 0h1m1 0h3m1 0h1m1 0h5m1 0h1m4 0h1m1 0h4m1 0h5m1 0h1M6 19.5h4m4 0h1m4 0h2m2 0h3m4 0h3m1 0h4m1 0h1m3 0h2m1 0h3m2 0h1m1 0h2m3 0h1m2 0h1m1 0h3m3 0h1m6 0h1m2 0h2m1 0h2m1 0h4M6 20.5h3m1 0h1m1 0h1m1 0h2m2 0h4m1 0h1m1 0h1m2 0h1m2 0h1m1 0h4m2 0h4m1 0h1m3 0h2m1 0h2m3 0h1m2 0h2m1 0h4m1 0h3m3 0h2m2 0h3m1 0h1m4 0h1M8 21.5h2m1 0h1m1 0h1m5 0h1m1 0h2m2 0h1m1 0h1m2 0h1m1 0h3m1 0h6m1 0h2m2 0h3m1 0h2m1 0h3m2 0h2m1 0h1m1 0h6m1 0h4m1 0h1m2 0h2m2 0h3m2 0h1M5 22.5h1m2 0h6m1 0h2m2 0h2m2 0h1m6 0h6m2 0h4m1 0h2m1 0h1m2 0h5m1 0h1m1 0h1m1 0h1m2 0h1m1 0h1m2 0h2m8 0h4m2 0h3m1 0h2M6 23.5h2m3 0h2m2 0h1m3 0h1m1 0h1m2 0h1m2 0h1m2 0h1m2 0h1m3 0h3m3 0h2m1 0h1m4 0h2m1 0h2m3 0h4m2 0h2m5 0h3m1 0h1M4 24.5h3m1 0h1m1 0h3m2 0h1m1 0h2m4 0h2m1 0h1m1 0h1m1 0h1m2 0h1m5 0h3m1 0h3m1 0h1m1 0h4m1 0h2m2 0h1m2 0h2m1 0h1m2 0h1m2 0h1m3 0h1m5 0h7m1 0h1M5 25.5h4m3 0h6m1 0h1m2 0h2m1 0h2m4 0h6m3 0h1m1 0h1m2 0h4m5 0h2m1 0h1m1 0h3m1 0h1m2 0h1m1 0h1m1 0h1m2 0h9m1 0h3M6 26.5h2m1 0h2m1 0h1m2 0h2m3 0h4m1 0h1m3 0h5m2 0h1m1 0h2m1 0h2m6 0h1m1 0h1m3 0h2m1 0h1m4 0h2m1 0h1m1 0h3m2 0h4m1 0h3m2 0h2M8 27.5h1m2 0h4m2 0h1m1 0h1m2 0h1m1 0h4m3 0h2m3 0h1m3 0h3m1 0h1m1 0h1m3 0h1m1 0h1m4 0h3m2 0h6m2 0h1m2 0h3m4 0h1m4 0h3M6 28.5h1m2 0h2m1 0h1m2 0h4m1 0h1m1 0h2m1 0h4m2 0h1m1 0h3m2 0h1m1 0h1m1 0h2m1 0h3m1 0h1m1 0h1m1 0h1m1 0h3m4 0h6m4 0h1m2 0h2m2 0h1m3 0h3m1 0h1M6 29.5h1m2 0h1m5 0h4m2 0h4m1 0h1m2 0h1m2 0h4m1 0h1m1 0h1m2 0h6m2 0h3m2 0h1m4 0h2m3 0h3m2 0h2m3 0h1m1 0h2m2 0h3m2 0h2M4 30.5h2m2 0h3m1 0h1m2 0h4m3 0h3m1 0h2m10 0h1m5 0h6m2 0h1m2 0h4m1 0h1m1 0h5m1 0h2m1 0h1m1 0h1m4 0h1m3 0h1m1 0h1m3 0h1M4 31.5h1m1 0h1m1 0h1m2 0h1m1 0h3m1 0h3m4 0h4m1 0h3m3 0h1m1 0h2m1 0h1m2 0h2m3 0h2m1 0h4m3 0h2m1 0h3m1 0h1m1 0h5m1 0h1m2 0h4m2 0h3m3 0h1M6 32.5h7m1 0h1m1 0h1m2 0h1m1 0h1m1 0h2m1 0h1m3 0h1m1 0h5m2 0h1m1 0h3m1 0h1m3 0h1m1 0h3m2 0h6m1 0h2m1 0h1m1 0h2m2 0h2m2 0h9m1 0h3M5 33.5h4m3 0h1m1 0h1m4 0h1m1 0h1m4 0h1m1 0h1m2 0h2m3 0h1m1 0h4m1 0h2m1 0h3m1 0h1m5 0h1m3 0h1m1 0h1m1 0h1m1 0h1m2 0h5m2 0h3m1 0h1m3 0h1m3 0h1M5 34.5h1m2 0h1m1 0h1m1 0h1m1 0h3m3 0h4m4 0h1m2 0h2m1 0h1m1 0h2m2 0h1m2 0h2m2 0h1m1 0h1m2 0h1m2 0h2m1 0h1m1 0h2m1 0h2m1 0h1m3 0h1m1 0h2m1 0h6m1 0h1m1 0h2M5 35.5h1m2 0h1m3 0h2m1 0h1m2 0h1m2 0h1m1 0h2m2 0h3m1 0h2m3 0h1m3 0h1m2 0h4m2 0h1m1 0h1m4 0h1m3 0h2m1 0h2m1 0h1m2 0h1m1 0h1m4 0h1m1 0h1m1 0h1m3 0h2m1 0h2M5 36.5h1m1 0h6m1 0h3m1 0h2m1 0h1m5 0h3m1 0h7m4 0h4m1 0h3m1 0h2m3 0h5m1 0h1m3 0h2m2 0h1m1 0h1m3 0h1m1 0h7m2 0h1M4 37.5h1m3 0h1m3 0h1m1 0h1m1 0h1m4 0h2m1 0h5m1 0h3m5 0h1m3 0h1m1 0h4m2 0h2m1 0h2m3 0h2m1 0h1m2 0h1m4 0h1m1 0h2m4 0h3m3 0h1m2 0h2M4 38.5h1m2 0h5m1 0h4m1 0h2m1 0h1m1 0h1m1 0h2m3 0h2m1 0h1m1 0h1m1 0h1m2 0h3m1 0h3m1 0h1m1 0h3m1 0h1m1 0h2m1 0h1m2 0h1m1 0h2m1 0h1m2 0h1m3 0h2m2 0h2m1 0h1m1 0h3M4 39.5h1m1 0h1m1 0h2m2 0h1m2 0h2m1 0h1m2 0h2m7 0h3m1 0h1m2 0h1m3 0h2m1 0h1m1 0h3m2 0h1m7 0h2m1 0h1m2 0h1m2 0h3m2 0h3m3 0h1m3 0h1m1 0h3M4 40.5h3m1 0h8m2 0h1m3 0h1m1 0h1m4 0h1m1 0h4m2 0h1m1 0h2m1 0h1m3 0h1m1 0h3m1 0h1m1 0h3m1 0h1m1 0h3m1 0h1m1 0h3m1 0h2m1 0h1m1 0h1m2 0h1m2 0h1m2 0h2m1 0h2M5 41.5h1m1 0h1m3 0h1m1 0h2m3 0h1m1 0h4m2 0h1m6 0h2m1 0h1m1 0h1m2 0h1m3 0h1m2 0h2m3 0h1m3 0h2m1 0h5m3 0h2m1 0h5m3 0h1m1 0h2m1 0h3m1 0h1M6 42.5h3m1 0h2m1 0h2m2 0h1m2 0h1m2 0h1m2 0h2m1 0h1m2 0h2m5 0h3m2 0h2m1 0h1m1 0h1m1 0h1m1 0h1m2 0h1m1 0h1m1 0h1m3 0h1m2 0h4m3 0h1m1 0h1m2 0h1m1 0h1m2 0h1m2 0h2M8 43.5h2m1 0h1m1 0h2m1 0h2m1 0h1m1 0h2m4 0h3m2 0h3m2 0h4m5 0h1m8 0h2m1 0h1m4 0h1m2 0h3m1 0h1m1 0h3m1 0h2m2 0h1m1 0h1M4 44.5h1m4 0h5m3 0h1m1 0h2m1 0h2m1 0h3m2 0h2m1 0h1m1 0h1m1 0h2m1 0h1m2 0h1m5 0h1m1 0h1m2 0h1m1 0h2m1 0h1m5 0h4m5 0h2m2 0h1m2 0h2m3 0h2M7 45.5h1m1 0h1m1 0h3m2 0h1m1 0h1m3 0h3m1 0h1m2 0h2m1 0h2m3 0h1m1 0h1m7 0h2m2 0h1m1 0h2m2 0h3m1 0h1m2 0h3m1 0h2m3 0h1m2 0h4m1 0h8M4 46.5h1m1 0h2m1 0h2m1 0h5m1 0h2m2 0h1m4 0h1m2 0h1m4 0h1m3 0h3m2 0h1m1 0h2m1 0h1m2 0h5m2 0h2m1 0h1m2 0h2m1 0h1m2 0h1m2 0h1m5 0h4m4 0h1M5 47.5h5m1 0h1m2 0h1m2 0h2m2 0h1m1 0h2m1 0h6m5 0h4m1 0h1m2 0h2m1 0h2m2 0h1m2 0h3m2 0h2m1 0h1m1 0h1m2 0h2m2 0h4m3 0h1m2 0h3m2 0h2M7 48.5h2m1 0h4m1 0h1m1 0h2m2 0h1m2 0h1m2 0h1m2 0h2m8 0h1m1 0h2m1 0h2m5 0h2m4 0h1m1 0h3m1 0h2m3 0h2m1 0h1m2 0h2m5 0h1m1 0h1m3 0h1M4 49.5h1m1 0h3m2 0h1m3 0h1m1 0h1m1 0h1m1 0h1m2 0h2m5 0h2m2 0h3m1 0h4m1 0h1m1 0h1m2 0h2m4 0h2m4 0h1m4 0h6m1 0h1m1 0h1m3 0h1m1 0h2m4 0h2M4 50.5h1m1 0h1m3 0h1m4 0h1m1 0h1m2 0h1m1 0h3m6 0h3m1 0h1m3 0h1m2 0h4m1 0h1m6 0h2m1 0h1m1 0h1m2 0h4m2 0h2m1 0h1m1 0h3m1 0h2m1 0h2m1 0h1M5 51.5h1m1 0h2m2 0h2m1 0h3m1 0h2m2 0h2m1 0h1m1 0h1m1 0h2m1 0h1m2 0h2m1 0h1m2 0h1m1 0h2m3 0h2m1 0h1m1 0h1m4 0h6m1 0h1m1 0h1m3 0h3m1 0h3m5 0h3m2 0h1M5 52.5h3m1 0h2m2 0h1m4 0h2m3 0h2m1 0h2m1 0h1m2 0h1m1 0h2m1 0h4m1 0h1m2 0h1m2 0h1m5 0h5m1 0h2m1 0h1m2 0h1m3 0h1m1 0h4m1 0h3m3 0h1m4 0h1M5 53.5h2m1 0h1m2 0h1m1 0h2m2 0h1m1 0h1m2 0h1m2 0h1m1 0h2m5 0h1m1 0h5m6 0h2m3 0h6m1 0h2m1 0h2m2 0h4m4 0h1m9 0h1m1 0h1m1 0h1M4 54.5h3m1 0h1m1 0h4m1 0h1m2 0h1m3 0h2m1 0h1m5 0h5m2 0h2m7 0h1m4 0h1m1 0h2m3 0h1m1 0h1m1 0h3m2 0h1m2 0h3m2 0h2m1 0h1m5 0h1M4 55.5h1m1 0h4m1 0h4m1 0h2m1 0h1m1 0h1m1 0h1m2 0h2m2 0h1m6 0h5m3 0h1m1 0h1m2 0h2m1 0h3m1 0h1m1 0h1m2 0h1m1 0h1m1 0h5m2 0h1m3 0h1m1 0h1m1 0h1m1 0h1m3 0h2M4 56.5h1m3 0h5m2 0h1m3 0h1m1 0h2m2 0h2m1 0h1m2 0h7m1 0h1m1 0h2m1 0h1m1 0h3m4 0h1m2 0h5m3 0h1m5 0h2m3 0h1m2 0h1m1 0h6m1 0h2M7 57.5h2m3 0h1m2 0h1m1 0h1m2 0h1m1 0h1m2 0h2m5 0h1m3 0h5m1 0h1m2 0h2m2 0h1m2 0h2m1 0h2m3 0h1m1 0h5m1 0h1m1 0h1m5 0h1m2 0h2m3 0h1m1 0h1m1 0h1M4 58.5h3m1 0h1m1 0h1m1 0h2m1 0h3m2 0h4m3 0h2m1 0h1m1 0h1m1 0h1m1 0h1m2 0h1m2 0h1m1 0h1m2 0h1m1 0h2m1 0h1m3 0h1m1 0h1m1 0h1m4 0h2m1 0h1m2 0h2m1 0h3m1 0h3m1 0h1m1 0h1m1 0h1m1 0h1M4 59.5h2m2 0h1m3 0h1m1 0h3m1 0h1m1 0h1m2 0h1m6 0h1m1 0h1m3 0h1m4 0h1m3 0h4m3 0h1m2 0h2m3 0h3m5 0h1m1 0h1m1 0h1m2 0h1m1 0h1m2 0h1m3 0h1m2 0h1M4 60.5h1m3 0h5m4 0h3m2 0h1m4 0h1m1 0h1m2 0h8m2 0h1m1 0h7m1 0h3m1 0h5m1 0h4m4 0h2m1 0h3m2 0h1m1 0h6m1 0h2M4 61.5h1m4 0h1m1 0h2m1 0h1m1 0h2m2 0h1m3 0h3m1 0h2m3 0h1m4 0h2m3 0h2m1 0h1m1 0h2m2 0h1m2 0h9m4 0h1m1 0h2m1 0h2m1 0h1m1 0h1m1 0h2m2 0h3m1 0h1M6 62.5h6m1 0h1m3 0h2m1 0h1m2 0h1m1 0h1m1 0h1m6 0h1m2 0h4m1 0h4m1 0h2m1 0h2m1 0h1m1 0h2m2 0h4m4 0h1m1 0h3m1 0h2m2 0h2m3 0h1m2 0h3M4 63.5h1m1 0h1m1 0h1m3 0h2m9 0h3m1 0h1m1 0h1m12 0h3m1 0h1m3 0h1m1 0h1m3 0h1m1 0h1m1 0h1m1 0h1m1 0h1m1 0h4m1 0h3m1 0h4m1 0h1m2 0h1m1 0h1M4 64.5h1m1 0h1m2 0h3m1 0h1m1 0h1m1 0h1m2 0h6m1 0h4m2 0h2m1 0h1m7 0h1m2 0h1m2 0h1m3 0h4m1 0h3m2 0h1m3 0h1m4 0h1m6 0h1m1 0h2m2 0h1m1 0h1M4 65.5h2m6 0h2m1 0h1m2 0h1m4 0h4m1 0h1m1 0h3m3 0h1m2 0h2m1 0h8m1 0h2m1 0h1m1 0h2m2 0h1m1 0h1m2 0h3m1 0h2m3 0h1m2 0h2m2 0h1m2 0h1m1 0h2M4 66.5h2m2 0h1m1 0h4m1 0h1m1 0h1m2 0h1m1 0h7m3 0h8m1 0h3m1 0h4m2 0h2m1 0h2m6 0h1m1 0h1m1 0h3m2 0h1m2 0h1m1 0h1m3 0h1m1 0h1m1 0h1m3 0h1M4 67.5h2m1 0h2m2 0h1m1 0h1m1 0h1m2 0h1m3 0h2m1 0h1m1 0h1m5 0h1m3 0h1m1 0h1m3 0h1m1 0h1m1 0h2m1 0h7m3 0h1m2 0h1m1 0h1m1 0h2m1 0h1m1 0h1m2 0h4m1 0h1m1 0h3m2 0h2M4 68.5h2m1 0h1m2 0h2m1 0h1m1 0h2m1 0h1m1 0h4m1 0h1m4 0h3m2 0h3m2 0h2m3 0h2m7 0h2m1 0h2m1 0h1m4 0h3m3 0h1m3 0h1m1 0h4m1 0h1m2 0h2m1 0h1M9 69.5h1m1 0h1m2 0h1m7 0h1m3 0h1m1 0h2m1 0h9m1 0h1m1 0h2m3 0h1m1 0h1m6 0h1m1 0h1m5 0h1m1 0h4m1 0h1m3 0h1m1 0h2m2 0h2M8 70.5h1m1 0h1m5 0h1m3 0h2m1 0h2m1 0h1m1 0h1m1 0h1m1 0h1m4 0h1m2 0h2m2 0h2m2 0h2m6 0h4m1 0h1m1 0h1m1 0h3m1 0h2m1 0h2m1 0h1m3 0h3m3 0h1m2 0h1M4 71.5h6m3 0h1m1 0h1m2 0h1m4 0h4m11 0h1m1 0h6m1 0h1m3 0h2m1 0h4m7 0h1m2 0h2m1 0h5m1 0h1m4 0h2m4 0h1M4 72.5h3m3 0h2m1 0h2m1 0h4m2 0h2m1 0h2m1 0h1m1 0h2m2 0h2m1 0h1m1 0h1m1 0h1m4 0h1m1 0h2m4 0h5m2 0h1m1 0h1m4 0h1m2 0h4m2 0h1m4 0h5m1 0h1M4 73.5h1m1 0h4m2 0h3m4 0h1m2 0h2m3 0h1m1 0h1m1 0h1m2 0h1m2 0h2m2 0h2m2 0h2m2 0h3m1 0h1m1 0h1m3 0h1m1 0h1m2 0h1m1 0h1m2 0h1m1 0h1m1 0h1m4 0h1m3 0h1m1 0h1m3 0h1M4 74.5h1m3 0h3m3 0h1m3 0h1m1 0h1m1 0h2m1 0h2m1 0h4m2 0h3m1 0h3m3 0h1m2 0h2m3 0h2m2 0h3m1 0h2m1 0h3m1 0h1m1 0h3m2 0h1m2 0h1m5 0h1M4 75.5h3m1 0h2m2 0h3m3 0h1m1 0h5m3 0h3m3 0h2m3 0h2m2 0h1m2 0h1m2 0h1m1 0h1m3 0h2m2 0h1m1 0h1m7 0h2m2 0h2m6 0h4m1 0h3M4 76.5h2m2 0h4m1 0h3m2 0h1m1 0h3m1 0h2m2 0h6m2 0h1m4 0h1m1 0h1m1 0h1m2 0h1m1 0h1m3 0h1m1 0h1m2 0h1m3 0h1m1 0h1m1 0h2m1 0h2m1 0h1m1 0h1m5 0h4m1 0h2M6 77.5h3m2 0h2m1 0h1m4 0h1m4 0h1m1 0h2m1 0h5m1 0h1m2 0h2m2 0h3m1 0h1m3 0h1m2 0h3m1 0h1m1 0h2m3 0h1m1 0h3m2 0h2m1 0h1m3 0h1m5 0h1m1 0h3M4 78.5h3m1 0h1m1 0h1m1 0h1m3 0h1m1 0h2m1 0h1m1 0h1m2 0h1m3 0h4m3 0h3m1 0h1m2 0h1m5 0h2m3 0h2m4 0h1m1 0h1m1 0h2m2 0h1m2 0h7m2 0h2m2 0h1m2 0h1M5 79.5h1m1 0h1m1 0h1m5 0h3m2 0h5m1 0h4m2 0h3m1 0h2m1 0h3m2 0h2m1 0h1m1 0h3m2 0h1m1 0h4m1 0h2m2 0h2m1 0h1m1 0h4m2 0h1m2 0h1m2 0h2m1 0h1m1 0h2M4 80.5h1m5 0h1m1 0h1m1 0h1m2 0h4m1 0h1m1 0h2m2 0h2m2 0h6m4 0h5m4 0h1m1 0h2m1 0h5m1 0h2m2 0h4m1 0h1m1 0h1m2 0h1m1 0h10M12 81.5h1m2 0h3m1 0h1m2 0h1m1 0h1m1 0h1m3 0h3m3 0h3m2 0h2m1 0h2m3 0h3m4 0h1m3 0h2m1 0h3m1 0h3m1 0h1m1 0h1m1 0h1m1 0h1m1 0h2m3 0h1m3 0h1M4 82.5h7m2 0h10m3 0h1m1 0h1m1 0h1m1 0h1m1 0h1m1 0h4m1 0h1m1 0h1m1 0h2m1 0h3m1 0h1m1 0h1m1 0h1m1 0h1m1 0h2m4 0h2m2 0h2m1 0h1m1 0h1m1 0h2m1 0h1m1 0h1m1 0h3m1 0h1M4 83.5h1m5 0h1m2 0h6m2 0h1m1 0h3m1 0h2m3 0h1m3 0h2m1 0h3m2 0h2m1 0h1m2 0h2m4 0h1m3 0h1m1 0h2m2 0h1m2 0h1m1 0h1m1 0h1m1 0h2m3 0h1m3 0h1m2 0h2M4 84.5h1m1 0h3m1 0h1m9 0h1m1 0h2m4 0h1m1 0h9m1 0h2m3 0h1m1 0h1m1 0h1m4 0h1m1 0h8m1 0h2m1 0h4m1 0h2m1 0h1m2 0h6m2 0h1M4 85.5h1m1 0h3m1 0h1m1 0h2m4 0h1m1 0h1m1 0h3m1 0h1m3 0h1m4 0h2m2 0h4m1 0h3m1 0h3m1 0h2m2 0h2m1 0h5m4 0h1m1 0h1m1 0h1m1 0h5m4 0h1m4 0h1M4 86.5h1m1 0h3m1 0h1m1 0h1m2 0h1m3 0h2m2 0h2m1 0h1m1 0h1m3 0h1m5 0h1m4 0h1m5 0h3m2 0h1m1 0h1m2 0h1m3 0h1m5 0h2m1 0h3m1 0h2m1 0h1m1 0h1m3 0h3M4 87.5h1m5 0h1m1 0h5m1 0h3m3 0h2m3 0h2m2 0h4m1 0h2m2 0h2m5 0h1m1 0h2m3 0h1m1 0h1m2 0h2m1 0h1m2 0h2m1 0h2m1 0h1m1 0h1m1 0h1m1 0h1m2 0h1M4 88.5h7m1 0h1m1 0h2m2 0h6m1 0h2m3 0h1m2 0h2m2 0h1m1 0h2m3 0h2m1 0h6m1 0h3m2 0h3m2 0h1m2 0h4m3 0h1m1 0h2m5 0h1m1 0h4"/></svg>
