<svg xmlns="http://www.w3.org/2000/svg" viewBox="0 0 109 109" shape-rendering="crispEdges"><path fill="#ffffff" d="M0 0h109v109H0z"/><path stroke="#000000" d="M4 4.5h7m3 0h2m2 0h1m1 0h4m3 0h1m1 0h1m2 0h3m1 0h3m1 0h1m2 0h1m1 0h1m3 0h1m1 0h1m1 0h1m3 0h5m1 0h2m1 0h1m1 0h4m1 0h2m1 0h4m1 0h2m2 0h3m1 0h1m1 0h2m1 0h2m2 0h7M4 5.5h1m5 0h1m2 0h1m1 0h2m2 0h6m5 0h4m1 0h1m5 0h1m1 0h1m2 0h2m4 0h2m1 0h1m1 0h3m1 0h2m1 0h6m1 0h3m1 0h2m2 0h1m1 0h1m1 0h1m3 0h3m1 0h2m5 0h1m5 0h1M4 6.5h1m1 0h3m1 0h1m4 0h1m2 0h2m1 0h2m1 0h1m9 0h1m2 0h1m3 0h1m6 0h1m1 0h3m1 0h1m5 0h3m2 0h1m1 0h4m2 0h1m2 0h2m1 0h1m6 0h2m2 0h3m2 0h1m2 0h1m1 0h3m1 0h1M4 7.5h1m1 0h3m1 0h1m1 0h2m1 0h1m1 0h2m1 0h2m2 0h4m4 0h1m1 0h1m1 0h1m3 0h1m3 0h1m2 0h1m1 0h1m3 0h1m1 0h2m1 0h2m1 0h2m1 0h1m5 0h4m5 0h1m2 0h1m1 0h3m4 0h5m2 0h1m1 0h3m1 0h1M4 8.5h1m1 0h3m1 0h1m1 0h3m1 0h4m2 0h1m2 0h4m1 0h5m4 0h1m2 0h3m2 0h1m1 0h1m1 0h6m4 0h1m3 0h2m1 0h1m4 0h6m1 0h1m2 0h2m8 0h2m1 0h1m1 0h1m1 0h3m1 0h1M4 9.5h1m5 0h1m4 0h4m1 0h1m1 0h3m3 0h1m1 0h1m3 0h1m1 0h5m1 0h1m4 0h1m4 0h1m3 0h1m3 0h4m3 0h1m1 0h1m2 0h3m3 0h3m1 0h2m1 0h1m1 0h1m3 0h3m1 0h1m2 0h1m5 0h1M4 10.5h7m1 0h1m1 0h1m1 0h1m1 0h1m1 0h1m1 0h1m1 0h1m1 0h1m1 0h1m1 0h1m1 0h1m1 0h1m1 0h1m1 0h1m1 0h1m1 0h1m1 0h1m1 0h1m1 0h1m1 0h1m1 0h1m1 0h1m1 0h1m1 0h1m1 0h1m1 0h1m1 0h1m1 0h1m1 0h1m1 0h1m1 0h1m1 0h1m1 0h1m1 0h1m1 0h1m1 0h1m1 0h1m1 0h1m1 0h1m1 0h1m1 0h1m1 0h1m1 0h1m1 0h7M15 11.5h2m1 0h1m1 0h1m1 0h1m1 0h5m1 0h1m3 0h1m1 0h1m3 0h3m2 0h1m2 0h2m1 0h2m3 0h3m1 0h1m1 0h3m2 0h4m3 0h1m3 0h2m1 0h3m5 0h1m4 0h1m1 0h1M4 12.5h2m3 0h3m2 0h2m1 0h1m2 0h2m1 0h1m2 0h1m1 0h1m1 0h6m1 0h4m1 0h1m5 0h10m4 0h3m1 0h1m6 0h6m1 0h1m1 0h1m3 0h1m1 0h2m3 0h1m6 0h2M6 13.5h4m3 0h3m1 0h2m1 0h2m3 0h1m2 0h5m2 0h2m4 0h1m4 0h1m2 0h4m1 0h1m3 0h1m1 0h3m1 0h1m1 0h1m1 0h2m4 0h2m5 0h2m1 0h1m1 0h2m2 0h1m1 0h1m1 0h2m2 0h2m1 0h2M4 14.5h1m1 0h1m2 0h3m6 0h4m2 0h1m2 0h1m1 0h2m2 0h1m2 0h3m1 0h2m2 0h2m1 0h1m1 0h1m2 0h1m1 0h1m2 0h3m1 0h2m4 0h1m3 0h3m3 0h2m2 0h6m1 0h5m3 0h1m1 0h2m2 0h3M5 15.5h1m1 0h1m1 0h1m2 0h1m2 0h2m1 0h4m1 0h4m1 0h1m3 0h1m4 0h1m1 0h1m2 0h2m2 0h4m4 0h1m2 0h2m1 0h1m1 0h7m3 0h1m1 0h3m1 0h1m2 0h1m1 0h1m2 0h6m1 0h1m8 0h1M8 16.5h1m1 0h3m1 0h1m2 0h2m1 0h3m3 0h3m1 0h2m4 0h2m1 0h2m1 0h1m1 0h1m2 0h1m1 0h2m3 0h2m1 0h1m6 0h6m3 0h1m2 0h1m2 0h1m1 0h5m1 0h1m1 0h2m2 0h3m1 0h1m1 0h4m1 0h1M4 17.5h4m1 0h1m1 0h3m4 0h1m5 0h1m2 0h1m4 0h3m2 0h1m2 0h1m2 0h1m4 0h4m2 0h1m11 0h2m1 0h1m2 0h2m1 0h1m4 0h1m1 0h3m1 0h1m1 0h2m1 0h2m6 0h2m2 0h1M6 18.5h2m2 0h2m3 0h2m3 0h1m4 0h2m1 0h1m5 0h3m2 0h1m1 0h2m1 0h2m1 0h1m1 0h1m5 0h3m5 0h4m4 0h2m1 0h2m2 0h2m2 0h2m1 0h5m1 0h2m3 0h1m1 0h1m1 0h4M6 19.5h2m4 0h1m2 0h4m2 0h2m2 0h1m1 0h1m1 0h2m2 0h1m2 0h1m1 0h2m2 0h1m1 0h4m3 0h1m1 0h3m1 0h4m1 0h1m1 0h3m1 0h1m2 0h2m3 0h1m2 0h1m1 0h1m1 0h2m1 0h1m1 0h1m1 0h1m1 0h1m3 0h1m4 0h2m1 0h1M7 20.5h2m1 0h1m2 0h1m2 0h7m2 0h1m7 0h6m1 0h2m2 0h4m2 0h2m2 0h1m2 0h2m2 0h3m9 0h1m1 0h2m3 0h7m1 0h2m1 0h1m1 0h2m2 0h1m1 0h2m1 0h1m1 0h1M4 21.5h1m3 0h2m3 0h1m1 0h2m3 0h4m1 0h1m1 0h1m1 0h1m4 0h1m1 0h1m1 0h1m1 0h1m1 0h2m1 0h4m2 0h1m3 0h3m3 0h2m2 0h1m1 0h1m1 0h1m1 0h2m1 0h2m1 0h1m1 0h2m5 0h3m1 0h2m3 0h1m3 0h6M4 22.5h1m1 0h3m1 0h1m1 0h1m4 0h1m3 0h3m1 0h2m1 0h4m1 0h3m1 0h4m1 0h2m1 0h3m5 0h1m1 0h3m2 0h2m3 0h1m1 0h3m1 0h3m3 0h1m3 0h3m2 0h1m2 0h1m2 0h2m1 0h2m2 0h1m1 0h2m1 0h1M7 23.5h2m2 0h2m1 0h1m1 0h2m1 0h1m5 0h1m2 0h1m1 0h6m1 0h1m3 0h1m2 0h1m1 0h1m1 0h2m1 0h4m2 0h1m4 0h2m1 0h1m2 0h3m3 0h1m1 0h1m1 0h1m1 0h1m10 0h7m2 0h2m2 0h1M5 24.5h1m1 0h1m1 0h8m2 0h1m2 0h2m2 0h2m3 0h1m1 0h1m4 0h1m1 0h4m1 0h1m1 0h2m2 0h5m2 0h1m1 0h2m2 0h2m2 0h1m1 0h2m5 0h2m1 0h2m1 0h3m1 0h2m1 0h1m4 0h1m4 0h3M4 25.5h1m2 0h1m1 0h1m1 0h1m1 0h2m1 0h2m1 0h3m1 0h2m1 0h1m1 0h1m1 0h3m1 0h1m1 0h1m2 0h1m2 0h1m2 0h2m4 0h7m3 0h1m1 0h4m1 0h1m1 0h2m2 0h2m1 0h3m4 0h2m1 0h1m1 0h4m1 0h3m3 0h4M4 26.5h1m2 0h6m1 0h4m1 0h3m2 0h1m1 0h3m2 0h1m2 0h2m3 0h2m1 0h1m4 0h1m1 0h1m2 0h1m4 0h2m1 0h1m1 0h1m1 0h1m2 0h1m6 0h1m2 0h4m1 0h2m2 0h1m4 0h1m1 0h1m5 0h4M4 27.5h2m2 0h2m3 0h2m7 0h1m2 0h1m2 0h1m1 0h4m2 0h1m1 0h4m1 0h1m2 0h1m7 0h3m1 0h3m8 0h1m4 0h2m3 0h5m1 0h2m2 0h5m5 0h6M5 28.5h2m3 0h5m1 0h3m3 0h2m4 0h2m1 0h1m1 0h3m1 0h1m2 0h1m2 0h2m1 0h2m1 0h2m1 0h1m3 0h2m3 0h1m1 0h3m3 0h1m1 0h3m1 0h2m1 0h5m1 0h2m4 0h1m2 0h8m2 0h2M6 29.5h3m3 0h1m1 0h1m1 0h1m1 0h3m1 0h1m3 0h2m1 0h1m1 0h3m1 0h1m1 0h3m3 0h2m2 0h1m5 0h1m1 0h2m1 0h2m1 0h1m3 0h1m1 0h1m1 0h1m4 0h4m1 0h1m1 0h1m1 0h1m3 0h3m1 0h2m2 0h1M8 30.5h5m1 0h1m1 0h1m1 0h9m3 0h5m2 0h3m3 0h1m2 0h1m2 0h1m1 0h6m1 0h3m1 0h3m1 0h1m1 0h2m2 0h7m2 0h1m1 0h1m4 0h1m2 0h2m1 0h1m1 0h6m2 0h1M6 31.5h1m1 0h1m3 0h3m1 0h1m1 0h1m1 0h1m1 0h1m1 0h2m2 0h1m1 0h1m3 0h1m1 0h1m3 0h3m1 0h4m3 0h2m3 0h1m4 0h1m1 0h2m2 0h1m2 0h1m1 0h3m3 0h4m1 0h6m1 0h1m1 0h1m1 0h1m1 0h1m3 0h1m1 0h1m1 0h1M5 32.5h2m1 0h1m1 0h1m1 0h1m1 0h2m3 0h1m1 0h1m1 0h2m5 0h1m1 0h1m1 0h1m3 0h3m1 0h2m5 0h1m2 0h1m1 0h1m1 0h1m3 0h2m3 0h2m4 0h2m1 0h1m1 0h1m1 0h1m2 0h2m1 0h4m1 0h2m1 0h1m3 0h1m1 0h1m1 0h5M5 33.5h2m1 0h1m3 0h1m1 0h1m1 0h1m2 0h1m1 0h2m1 0h1m1 0h3m1 0h1m3 0h1m2 0h2m5 0h6m2 0h1m3 0h2m1 0h1m1 0h2m1 0h1m4 0h3m2 0h1m3 0h2m2 0h1m1 0h1m1 0h6m4 0h1m3 0h3M5 34.5h8m2 0h1m1 0h4m1 0h1m1 0h1m2 0h11m2 0h1m2 0h1m4 0h2m1 0h7m1 0h1m1 0h3m1 0h3m2 0h18m1 0h2m1 0h1m1 0h1m1 0h7m1 0h1M6 35.5h2m3 0h1m2 0h2m1 0h4m1 0h2m2 0h1m2 0h1m1 0h1m2 0h1m3 0h1m2 0h1m1 0h1m1 0h2m3 0h1m2 0h1m5 0h1m5 0h1m2 0h1m1 0h4m3 0h3m1 0h3m2 0h2m1 0h1m2 0h3m2 0h2M7 36.5h1m1 0h3m4 0h1m1 0h1m2 0h1m1 0h1m1 0h2m2 0h1m5 0h1m1 0h1m4 0h1m2 0h1m2 0h1m2 0h1m3 0h2m3 0h5m1 0h3m3 0h3m2 0h1m5 0h2m1 0h5m1 0h1m7 0h1m1 0h1m1 0h1M5 37.5h2m1 0h1m3 0h1m3 0h1m1 0h2m7 0h4m1 0h1m1 0h2m1 0h2m2 0h2m6 0h1m1 0h2m2 0h5m1 0h4m1 0h2m1 0h4m1 0h1m1 0h5m2 0h1m5 0h1m7 0h2m2 0h3M4 38.5h1m5 0h1m3 0h2m1 0h2m2 0h1m1 0h1m1 0h1m2 0h2m1 0h6m2 0h1m1 0h1m1 0h6m1 0h3m1 0h1m5 0h3m1 0h1m1 0h6m4 0h1m2 0h1m2 0h4m1 0h4m1 0h2m1 0h3m1 0h3M4 39.5h2m1 0h1m1 0h1m1 0h2m1 0h1m1 0h2m1 0h1m2 0h1m1 0h1m4 0h2m2 0h6m1 0h1m1 0h4m3 0h1m1 0h2m2 0h1m2 0h1m2 0h1m1 0h2m2 0h1m1 0h1m1 0h1m1 0h3m1 0h1m1 0h1m5 0h4m2 0h1m2 0h1m3 0h1m3 0h2M4 40.5h2m1 0h1m1 0h4m1 0h2m1 0h1m1 0h7m2 0h2m2 0h1m1 0h3m1 0h2m1 0h1m1 0h1m1 0h1m1 0h2m1 0h1m1 0h1m1 0h1m8 0h2m1 0h2m2 0h5m5 0h1m1 0h1m2 0h1m2 0h3m1 0h1m1 0h3m2 0h1m1 0h3M4 41.5h1m4 0h1m1 0h1m3 0h6m2 0h2m5 0h1m5 0h1m1 0h2m1 0h1m2 0h1m1 0h1m1 0h1m1 0h3m2 0h1m1 0h3m1 0h1m2 0h5m4 0h2m1 0h2m4 0h1m1 0h1m1 0h1m1 0h2m1 0h2m1 0h4m1 0h1m3 0h2M4 42.5h1m2 0h2m1 0h3m2 0h2m2 0h1m3 0h1m1 0h1m1 0h2m1 0h1m1 0h1m2 0h2m2 0h1m1 0h1m2 0h2m3 0h1m2 0h1m5 0h3m7 0h1m4 0h1m3 0h3m4 0h1m3 0h1m2 0h1m1 0h7m1 0h1M4 43.5h3m1 0h1m2 0h1m2 0h2m1 0h7m1 0h1m1 0h5m1 0h2m4 0h1m2 0h4m1 0h4m1 0h1m1 0h1m3 0h1m1 0h2m1 0h1m1 0h1m6 0h2m2 0h5m1 0h1m2 0h3m2 0h1m5 0h1m3 0h1m1 0h1M6 44.5h1m1 0h1m1 0h1m2 0h1m6 0h3m4 0h1m3 0h2m1 0h1m1 0h2m1 0h2m3 0h1m1 0h2m4 0h2m2 0h1m1 0h1m1 0h1m1 0h3m1 0h1m1 0h2m1 0h1m2 0h1m1 0h2m1 0h1m1 0h4m1 0h1m4 0h2m1 0h1m1 0h1m1 0h2m2 0h1M7 45.5h3m1 0h7m1 0h2m6 0h1m1 0h3m4 0h1m8 0h1m3 0h1m3 0h2m1 0h1m1 0h1m1 0h7m2 0h5m1 0h1m1 0h1m1 0h1m2 0h1m4 0h1m1 0h3m2 0h1m1 0h2m3 0h2M5 46.5h2m1 0h3m1 0h2m4 0h2m1 0h1m1 0h1m1 0h2m1 0h2m1 0h2m2 0h1m1 0h1m1 0h1m1 0h1m6 0h3m2 0h4m2 0h6m5 0h1m1 0h1m1 0h4m1 0h2m1 0h1m1 0h3m1 0h2m2 0h7M9 47.5h1m2 0h2m2 0h4m1 0h1m1 0h2m3 0h3m2 0h1m2 0h1m1 0h2m1 0h1m4 0h1m3 0h2m1 0h1m2 0h2m1 0h1m1 0h2m1 0h1m1 0h1m1 0h1m3 0h1m1 0h1m1 0h2m1 0h3m2 0h2m3 0h1m2 0h3m1 0h1m1 0h1m1 0h2m1 0h2M4 48.5h2m2 0h1m1 0h1m1 0h3m1 0h4m1 0h5m2 0h1m2 0h3m3 0h3m2 0h1m1 0h2m2 0h1m1 0h1m1 0h5m1 0h1m2 0h1m1 0h3m3 0h1m4 0h1m1 0h1m1 0h1m1 0h1m4 0h1m2 0h2m1 0h1m7 0h1m1 0h4M5 49.5h5m5 0h1m1 0h1m4 0h1m2 0h1m1 0h2m1 0h2m2 0h1m1 0h1m1 0h4m1 0h1m2 0h1m1 0h3m1 0h4m1 0h2m1 0h3m3 0h1m2 0h2m1 0h3m1 0h3m1 0h1m1 0h1m5 0h1m2 0h4m4 0h1m3 0h1M4 50.5h1m5 0h1m1 0h2m5 0h2m1 0h1m1 0h1m2 0h2m1 0h2m2 0h4m4 0h3m3 0h1m1 0h3m1 0h3m2 0h1m2 0h4m4 0h1m1 0h2m4 0h2m1 0h1m1 0h2m3 0h1m1 0h6m2 0h1m4 0h1M4 51.5h1m4 0h1m2 0h4m1 0h2m1 0h1m3 0h1m3 0h1m2 0h1m2 0h1m3 0h2m2 0h2m1 0h2m1 0h3m1 0h1m1 0h1m2 0h2m1 0h1m9 0h1m2 0h3m2 0h1m2 0h3m2 0h2m1 0h2m3 0h1m2 0h2m1 0h2m1 0h2M5 52.5h2m1 0h5m1 0h2m3 0h1m2 0h3m3 0h9m1 0h2m1 0h2m1 0h2m3 0h1m2 0h6m2 0h1m2 0h1m1 0h3m1 0h1m1 0h9m2 0h2m6 0h1m2 0h1m1 0h7m1 0h1M5 53.5h4m3 0h3m1 0h1m2 0h1m1 0h1m2 0h1m1 0h1m1 0h3m3 0h1m3 0h1m1 0h1m2 0h1m1 0h2m1 0h2m1 0h2m3 0h4m1 0h2m2 0h1m1 0h2m3 0h3m3 0h1m1 0h1m2 0h2m3 0h1m4 0h1m2 0h1m3 0h1m1 0h1M5 54.5h1m2 0h1m1 0h1m1 0h6m3 0h1m4 0h5m1 0h1m1 0h2m1 0h1m1 0h1m4 0h3m2 0h1m1 0h2m1 0h1m1 0h2m1 0h3m1 0h1m2 0h1m1 0h4m2 0h1m1 0h1m1 0h1m2 0h2m3 0h3m1 0h1m4 0h2m1 0h1m1 0h1m1 0h2M6 55.5h1m1 0h1m3 0h1m1 0h2m2 0h2m3 0h1m2 0h1m1 0h3m3 0h1m1 0h7m1 0h1m2 0h6m3 0h1m1 0h3m3 0h3m1 0h1m3 0h1m1 0h1m3 0h1m4 0h4m3 0h1m4 0h2m3 0h1m3 0h1M4 56.5h1m1 0h1m1 0h5m1 0h2m3 0h1m2 0h4m4 0h5m1 0h1m2 0h2m1 0h1m1 0h3m5 0h5m2 0h6m1 0h2m5 0h9m1 0h1m3 0h3m4 0h8M4 57.5h2m1 0h2m2 0h2m1 0h1m1 0h1m2 0h2m2 0h2m3 0h4m2 0h6m1 0h1m1 0h1m3 0h1m1 0h3m1 0h1m2 0h1m1 0h1m4 0h3m1 0h2m2 0h1m1 0h2m2 0h2m2 0h1m2 0h1m1 0h1m2 0h1m2 0h1m1 0h1m1 0h1m2 0h2m2 0h2M4 58.5h1m1 0h8m1 0h2m1 0h2m1 0h1m1 0h1m1 0h8m4 0h3m3 0h3m3 0h1m1 0h5m3 0h2m2 0h1m1 0h1m2 0h3m1 0h6m1 0h2m1 0h1m2 0h1m3 0h3m4 0h1m2 0h2m1 0h1m1 0h1M5 59.5h4m2 0h2m1 0h1m2 0h1m4 0h2m1 0h2m2 0h3m1 0h1m1 0h2m2 0h2m4 0h2m1 0h2m9 0h1m1 0h1m6 0h1m1 0h1m1 0h1m1 0h3m1 0h2m1 0h2m2 0h2m1 0h4m6 0h2m2 0h3M6 60.5h8m1 0h1m6 0h1m1 0h1m3 0h2m4 0h7m1 0h3m1 0h1m2 0h3m2 0h1m3 0h6m2 0h1m7 0h3m1 0h1m4 0h1m5 0h1m3 0h1m5 0h2m2 0h1M5 61.5h5m1 0h1m3 0h1m1 0h1m5 0h1m2 0h3m1 0h2m1 0h1m2 0h3m2 0h2m2 0h1m1 0h2m3 0h5m2 0h1m2 0h1m1 0h1m1 0h2m1 0h2m3 0h3m1 0h1m2 0h2m3 0h1m1 0h4m3 0h1m1 0h1m1 0h1m2 0h3M4 62.5h1m1 0h1m2 0h2m5 0h2m3 0h1m1 0h1m1 0h2m9 0h3m1 0h1m2 0h2m1 0h1m1 0h6m1 0h2m1 0h3m3 0h1m3 0h2m1 0h1m3 0h1m1 0h3m4 0h1m1 0h1m1 0h1m1 0h1m1 0h1m1 0h1m2 0h2m2 0h4M4 63.5h3m1 0h1m3 0h1m1 0h1m2 0h1m1 0h2m1 0h4m1 0h1m1 0h2m1 0h1m2 0h1m1 0h1m1 0h2m2 0h1m1 0h1m2 0h1m1 0h2m1 0h2m3 0h1m3 0h1m2 0h5m1 0h2m1 0h2m4 0h1m3 0h1m1 0h1m3 0h1m3 0h1m1 0h1m3 0h1m2 0h2M4 64.5h1m1 0h1m2 0h2m1 0h2m1 0h1m6 0h1m1 0h1m1 0h3m1 0h2m1 0h1m1 0h1m1 0h3m4 0h3m3 0h2m4 0h3m1 0h4m3 0h1m1 0h2m3 0h3m1 0h4m1 0h2m2 0h2m1 0h1m2 0h1m5 0h3M6 65.5h3m2 0h4m5 0h2m6 0h1m1 0h3m1 0h1m2 0h4m2 0h1m2 0h2m5 0h3m2 0h1m2 0h1m1 0h1m1 0h1m2 0h1m1 0h1m1 0h2m1 0h1m1 0h3m4 0h1m1 0h1m3 0h1m4 0h1m1 0h1m3 0h1m1 0h1M6 66.5h5m1 0h1m6 0h1m1 0h1m1 0h1m3 0h1m2 0h2m3 0h1m4 0h1m2 0h4m2 0h1m1 0h2m5 0h1m5 0h3m1 0h1m1 0h1m2 0h2m6 0h1m1 0h1m6 0h3m2 0h1m2 0h1m4 0h2M5 67.5h1m1 0h1m3 0h1m1 0h1m1 0h2m1 0h8m2 0h3m1 0h1m1 0h4m2 0h5m3 0h1m1 0h1m1 0h10m3 0h5m3 0h5m1 0h2m7 0h1m1 0h1m2 0h1m1 0h4m4 0h1M4 68.5h2m1 0h1m1 0h2m3 0h1m3 0h2m2 0h1m2 0h2m2 0h1m6 0h2m1 0h1m1 0h1m1 0h1m4 0h3m3 0h2m1 0h3m4 0h2m1 0h1m2 0h2m3 0h2m1 0h3m2 0h1m1 0h2m1 0h2m1 0h1m1 0h1m2 0h3m1 0h2m2 0h1M7 69.5h1m3 0h1m1 0h1m2 0h2m3 0h1m2 0h7m3 0h2m1 0h3m3 0h1m10 0h2m2 0h1m1 0h3m2 0h1m1 0h2m2 0h1m1 0h3m1 0h1m1 0h1m1 0h4m1 0h3m2 0h2m1 0h5m3 0h1M4 70.5h2m4 0h1m1 0h1m1 0h3m1 0h3m2 0h1m2 0h2m1 0h1m2 0h1m2 0h6m4 0h1m1 0h1m1 0h2m2 0h1m1 0h3m1 0h2m2 0h3m2 0h1m3 0h3m1 0h5m5 0h7m2 0h1m4 0h1m2 0h2M6 71.5h2m1 0h1m1 0h1m3 0h1m1 0h2m1 0h2m4 0h3m4 0h1m1 0h2m1 0h5m1 0h2m1 0h1m4 0h1m1 0h2m4 0h1m2 0h2m1 0h1m1 0h1m1 0h1m2 0h1m3 0h1m1 0h1m2 0h2m6 0h3m5 0h1M5 72.5h1m2 0h3m3 0h4m2 0h1m1 0h2m1 0h2m1 0h1m1 0h2m1 0h3m1 0h1m1 0h2m1 0h1m2 0h3m3 0h2m1 0h2m7 0h2m1 0h1m1 0h2m1 0h1m3 0h1m2 0h3m1 0h1m3 0h1m1 0h1m1 0h1m2 0h3m2 0h1m1 0h1m2 0h1M4 73.5h1m1 0h2m3 0h3m1 0h3m4 0h1m1 0h4m1 0h2m3 0h1m2 0h1m1 0h1m3 0h4m3 0h2m2 0h2m4 0h3m3 0h1m2 0h2m1 0h2m5 0h2m4 0h1m2 0h1m3 0h3m1 0h4m2 0h1m1 0h1M4 74.5h2m1 0h7m2 0h1m5 0h1m3 0h1m2 0h8m3 0h4m1 0h1m1 0h1m1 0h2m1 0h5m3 0h4m1 0h2m2 0h2m2 0h6m2 0h1m3 0h2m1 0h1m1 0h2m1 0h8m1 0h2M4 75.5h5m3 0h4m2 0h2m1 0h3m3 0h2m1 0h1m3 0h1m1 0h2m1 0h1m1 0h2m1 0h2m1 0h2m1 0h1m1 0h1m3 0h1m2 0h1m4 0h1m2 0h2m2 0h2m1 0h1m3 0h4m3 0h5m1 0h1m3 0h2m3 0h2m1 0h2M4 76.5h1m1 0h3m1 0h1m1 0h1m1 0h1m1 0h2m2 0h1m1 0h5m1 0h1m1 0h1m1 0h1m1 0h5m1 0h2m1 0h2m3 0h5m1 0h1m1 0h1m2 0h2m2 0h3m2 0h3m1 0h1m1 0h1m1 0h1m1 0h4m2 0h2m1 0h1m3 0h3m2 0h1m1 0h1m1 0h1m1 0h3M4 77.5h5m3 0h1m4 0h5m2 0h2m2 0h3m3 0h1m2 0h2m2 0h1m7 0h1m2 0h1m3 0h3m1 0h1m2 0h3m1 0h1m1 0h4m1 0h1m3 0h3m2 0h1m2 0h11m3 0h5M5 78.5h1m1 0h7m1 0h1m1 0h2m1 0h2m1 0h1m1 0h1m2 0h8m1 0h4m1 0h2m4 0h2m2 0h6m1 0h1m2 0h3m1 0h2m1 0h1m1 0h1m2 0h5m1 0h3m1 0h1m1 0h2m1 0h1m1 0h1m1 0h2m1 0h6m1 0h2M4 79.5h1m4 0h1m5 0h1m1 0h3m1 0h1m2 0h1m2 0h2m3 0h1m3 0h1m1 0h2m1 0h3m6 0h9m3 0h2m1 0h1m1 0h1m3 0h2m2 0h1m2 0h1m1 0h1m2 0h2m4 0h2m1 0h4m1 0h1m1 0h2m2 0h2M4 80.5h1m2 0h2m1 0h4m2 0h4m2 0h2m3 0h1m6 0h1m2 0h1m3 0h1m3 0h4m4 0h1m2 0h5m1 0h5m1 0h2m3 0h1m1 0h2m2 0h1m1 0h1m2 0h2m1 0h4m1 0h3m1 0h1m4 0h1m1 0h1M4 81.5h3m2 0h1m1 0h1m1 0h1m1 0h4m1 0h2m4 0h1m4 0h1m1 0h4m1 0h4m1 0h1m1 0h2m1 0h2m1 0h1m2 0h1m1 0h1m1 0h1m1 0h1m1 0h3m1 0h5m1 0h1m1 0h1m3 0h1m1 0h2m1 0h1m1 0h2m1 0h1m1 0h1m1 0h3m3 0h3m2 0h2M6 82.5h2m1 0h3m3 0h1m1 0h2m1 0h1m2 0h1m1 0h1m1 0h3m1 0h1m1 0h4m1 0h2m1 0h2m2 0h3m2 0h2m2 0h1m1 0h7m2 0h3m2 0h1m2 0h1m1 0h1m1 0h3m2 0h2m2 0h2m1 0h1m1 0h2m1 0h1m3 0h3M6 83.5h2m3 0h1m2 0h1m6 0h1m3 0h1m1 0h1m1 0h2m1 0h1m1 0h1m5 0h1m2 0h1m2 0h4m2 0h2m3 0h1m2 0h1m1 0h1m2 0h2m1 0h1m1 0h2m5 0h1m1 0h1m1 0h4m1 0h4m2 0h1m1 0h1m8 0h1M5 84.5h3m1 0h5m1 0h3m1 0h2m1 0h2m1 0h1m4 0h1m4 0h1m1 0h1m3 0h4m1 0h2m1 0h1m2 0h2m2 0h1m1 0h2m4 0h1m3 0h2m5 0h2m1 0h2m2 0h3m1 0h1m6 0h3m1 0h1m3 0h2M5 85.5h1m1 0h3m3 0h3m1 0h3m2 0h6m1 0h1m2 0h1m2 0h1m1 0h1m1 0h1m1 0h2m1 0h2m1 0h3m2 0h1m2 0h2m1 0h8m1 0h2m1 0h1m1 0h1m6 0h1m3 0h4m1 0h1m2 0h2m3 0h2m4 0h1m1 0h1M4 86.5h1m3 0h3m2 0h1m2 0h1m3 0h1m1 0h1m1 0h2m1 0h1m3 0h1m1 0h2m1 0h1m3 0h1m1 0h3m5 0h2m2 0h2m4 0h1m2 0h2m1 0h1m3 0h2m2 0h1m2 0h1m2 0h2m1 0h1m1 0h4m3 0h3m2 0h5M4 87.5h1m2 0h1m1 0h1m2 0h1m1 0h1m6 0h1m3 0h1m2 0h1m2 0h1m1 0h4m1 0h1m1 0h4m1 0h1m1 0h1m3 0h2m1 0h1m5 0h2m3 0h1m1 0h1m2 0h1m1 0h1m1 0h1m3 0h2m1 0h1m1 0h1m7 0h1m1 0h1m1 0h1m1 0h1m2 0h1m2 0h2M4 88.5h4m1 0h2m3 0h1m5 0h2m1 0h4m1 0h2m2 0h1m2 0h1m3 0h3m1 0h1m1 0h1m1 0h1m1 0h1m1 0h1m4 0h2m2 0h3m1 0h3m2 0h1m1 0h2m1 0h1m2 0h1m3 0h2m1 0h1m2 0h4m1 0h1m1 0h2m1 0h3m1 0h2M5 89.5h2m2 0h1m1 0h1m3 0h3m1 0h1m1 0h1m2 0h2m2 0h1m2 0h2m1 0h2m1 0h1m1 0h5m1 0h4m6 0h1m1 0h1m1 0h1m1 0h1m1 0h1m2 0h1m1 0h1m2 0h1m2 0h2m1 0h2m1 0h3m2 0h1m1 0h1m1 0h1m3 0h1m1 0h1m4 0h1m2 0h2M4 90.5h3m3 0h1m1 0h3m1 0h3m1 0h4m2 0h2m3 0h1m3 0h1m1 0h1m2 0h2m3 0h2m6 0h1m4 0h1m1 0h3m3 0h1m2 0h3m1 0h1m6 0h1m1 0h1m2 0h1m6 0h1m2 0h1m7 0h1M4 91.5h2m2 0h1m3 0h2m2 0h1m2 0h1m2 0h3m1 0h1m1 0h1m2 0h3m1 0h1m3 0h1m1 0h2m1 0h2m4 0h1m2 0h1m1 0h1m3 0h4m2 0h4m3 0h2m1 0h3m3 0h3m2 0h2m7 0h2m4 0h1m2 0h1M4 92.5h1m1 0h5m1 0h5m2 0h2m3 0h1m7 0h1m2 0h2m3 0h3m2 0h3m1 0h1m4 0h1m1 0h2m2 0h5m2 0h2m1 0h1m2 0h1m5 0h2m5 0h1m3 0h2m2 0h1m1 0h2m2 0h1m1 0h1m1 0h1M4 93.5h1m4 0h1m1 0h1m1 0h2m1 0h1m1 0h2m1 0h2m1 0h1m2 0h2m1 0h1m1 0h2m1 0h1m1 0h1m3 0h2m1 0h1m1 0h2m1 0h2m2 0h3m1 0h2m1 0h1m1 0h1m2 0h3m1 0h1m3 0h3m6 0h1m1 0h1m1 0h3m5 0h1m1 0h3m1 0h2m1 0h1M4 94.5h1m2 0h2m1 0h1m1 0h1m1 0h1m2 0h1m2 0h1m1 0h4m1 0h1m1 0h2m2 0h5m1 0h1m2 0h1m1 0h2m2 0h1m2 0h2m2 0h1m2 0h1m1 0h1m2 0h1m1 0h1m3 0h1m5 0h2m4 0h1m1 0h1m2 0h1m1 0h2m3 0h1m3 0h2m2 0h2M4 95.5h1m1 0h2m1 0h1m7 0h1m1 0h2m1 0h2m2 0h1m1 0h1m1 0h1m4 0h2m1 0h1m6 0h1m1 0h4m7 0h4m1 0h3m1 0h1m3 0h4m2 0h2m1 0h1m1 0h2m2 0h3m4 0h3m2 0h1m1 0h1M8 96.5h1m1 0h1m4 0h1m1 0h2m6 0h2m2 0h6m2 0h3m3 0h2m1 0h1m1 0h11m1 0h3m1 0h1m1 0h6m1 0h7m2 0h1m1 0h2m4 0h3m1 0h1m1 0h6m1 0h1M12 97.5h1m1 0h7m1 0h5m3 0h1m3 0h2m3 0h1m2 0h1m2 0h2m2 0h4m3 0h5m3 0h1m2 0h1m1 0h1m4 0h1m3 0h2m2 0h1m1 0h6m1 0h2m1 0h3m3 0h1m1 0h1M4 98.5h7m1 0h5m1 0h1m2 0h1m4 0h5m1 0h1m1 0h3m1 0h4m3 0h1m1 0h1m2 0h1m1 0h1m1 0h1m1 0h1m1 0h2m2 0h1m3 0h3m3 0h1m1 0h1m1 0h1m1 0h2m1 0h2m2 0h3m1 0h2m3 0h1m1 0h1m1 0h1m1 0h2m2 0h1M4 99.5h1m5 0h1m1 0h1m1 0h3m2 0h1m1 0h1m3 0h1m4 0h1m3 0h1m2 0h1m1 0h3m3 0h1m2 0h2m1 0h2m3 0h2m1 0h1m1 0h3m4 0h1m2 0h1m2 0h1m3 0h1m3 0h1m1 0h2m1 0h1m2 0h1m1 0h1m1 0h3m3 0h1m3 0h1M4 100.5h1m1 0h3m1 0h1m3 0h3m3 0h2m6 0h8m2 0h1m3 0h1m4 0h1m1 0h1m1 0h7m1 0h1m3 0h1m1 0h1m3 0h3m2 0h5m1 0h1m1 0h3m1 0h1m4 0h1m4 0h5m3 0h1M4 101.5h1m1 0h3m1 0h1m2 0h1m1 0h1m3 0h1m4 0h1m1 0h2m1 0h1m2 0h7m1 0h1m5 0h2m1 0h1m6 0h2m2 0h1m6 0h2m1 0h1m1 0h1m4 0h1m1 0h2m5 0h2m3 0h1m6 0h3m1 0h1M4 102.5h1m1 0h3m1 0h1m3 0h1m1 0h2m4 0h2m2 0h1m1 0h1m7 0h1m4 0h4m3 0h1m4 0h1m1 0h2m1 0h1m2 0h2m1 0h1m1 0h1m6 0h4m5 0h3m1 0h4m5 0h3m1 0h5M4 103.5h1m5 0h1m1 0h1m1 0h1m3 0h1m5 0h1m1 0h3m4 0h3m1 0h2m3 0h3m2 0h1m4 0h5m2 0h3m3 0h2m1 0h2m1 0h3m2 0h9m3 0h1m1 0h3m1 0h3m1 0h2m4 0h1M4 104.5h7m1 0h2m3 0h2m1 0h1m7 0h2m7 0h1m1 0h2m6 0h1m1 0h2m1 0h1m4 0h1m4 0h1m3 0h1m1 0h2m1 0h1m1 0h3m1 0h1m1 0h1m2 0h2m1 0h2m3 0h1m2 0h1m1 0h4m2 0h2"/></svg>
