<svg xmlns="http://www.w3.org/2000/svg" viewBox="0 0 97 97" shape-rendering="crispEdges"><path fill="#ffffff" d="M0 0h97v97H0z"/><path stroke="#000000" d="M4 4.5h7m3 0h5m1 0h2m1 0h3m2 0h1m1 0h4m1 0h5m1 0h1m1 0h5m4 0h1m1 0h1m1 0h1m1 0h1m1 0h3m1 0h1m1 0h1m1 0h1m4 0h2m1 0h1m1 0h1m3 0h3m1 0h7M4 5.5h1m5 0h1m1 0h1m3 0h2m1 0h1m2 0h1m1 0h1m1 0h1m3 0h2m1 0h2m1 0h1m1 0h1m1 0h1m4 0h2m2 0h1m1 0h1m1 0h1m1 0h1m2 0h1m1 0h2m2 0h1m1 0h4m1 0h1m3 0h6m2 0h1m2 0h1m5 0h1M4 6.5h1m1 0h3m1 0h1m3 0h2m1 0h5m2 0h1m1 0h2m3 0h2m1 0h1m1 0h1m1 0h1m1 0h2m2 0h4m1 0h6m2 0h1m1 0h1m5 0h3m2 0h1m3 0h1m1 0h1m2 0h3m4 0h1m1 0h3m1 0h1M4 7.5h1m1 0h3m1 0h1m1 0h6m1 0h1m10 0h1m4 0h4m3 0h1m6 0h2m2 0h1m6 0h2m3 0h3m4 0h4m1 0h4m1 0h1m1 0h1m1 0h1m1 0h3m1 0h1M4 8.5h1m1 0h3m1 0h1m2 0h1m1 0h1m1 0h1m3 0h2m2 0h4m1 0h7m1 0h1m1 0h2m3 0h3m6 0h2m1 0h7m2 0h2m2 0h1m2 0h1m1 0h1m2 0h3m2 0h1m2 0h1m1 0h3m1 0h1M4 9.5h1m5 0h1m1 0h1m2 0h1m1 0h4m1 0h1m1 0h2m1 0h1m2 0h3m3 0h2m1 0h1m1 0h2m3 0h1m4 0h2m2 0h1m1 0h2m3 0h3m1 0h2m3 0h1m2 0h1m2 0h1m1 0h1m3 0h1m2 0h1m5 0h1M4 10.5h7m1 0h1m1 0h1m1 0h1m1 0h1m1 0h1m1 0h1m1 0h1m1 0h1m1 0h1m1 0h1m1 0h1m1 0h1m1 0h1m1 0h1m1 0h1m1 0h1m1 0h1m1 0h1m1 0h1m1 0h1m1 0h1m1 0h1m1 0h1m1 0h1m1 0h1m1 0h1m1 0h1m1 0h1m1 0h1m1 0h1m1 0h1m1 0h1m1 0h1m1 0h1m1 0h1m1 0h1m1 0h1m1 0h7M15 11.5h4m2 0h2m4 0h1m4 0h1m3 0h1m3 0h1m2 0h1m4 0h1m3 0h1m3 0h1m1 0h1m3 0h1m3 0h4m1 0h1m1 0h1m2 0h1m3 0h4M4 12.5h5m1 0h4m1 0h2m1 0h2m1 0h3m1 0h2m1 0h1m1 0h10m6 0h1m2 0h2m2 0h1m4 0h5m1 0h1m1 0h2m2 0h3m1 0h2m3 0h2m4 0h1m1 0h1m1 0h1m1 0h1M4 13.5h1m3 0h2m1 0h1m1 0h1m1 0h1m2 0h1m5 0h3m1 0h4m5 0h4m1 0h3m6 0h2m1 0h1m3 0h1m1 0h1m3 0h1m1 0h1m3 0h1m5 0h4m2 0h4m1 0h1m1 0h3M4 14.5h1m1 0h2m1 0h3m1 0h6m3 0h1m1 0h5m2 0h1m3 0h1m1 0h1m8 0h4m3 0h1m2 0h1m2 0h2m4 0h2m4 0h3m6 0h4m3 0h3m1 0h1M6 15.5h1m1 0h2m2 0h1m4 0h1m2 0h4m1 0h1m1 0h2m2 0h3m9 0h1m3 0h2m2 0h1m1 0h4m2 0h1m2 0h5m1 0h1m3 0h2m1 0h2m2 0h1m2 0h1m4 0h6M4 16.5h2m1 0h2m1 0h1m1 0h2m1 0h3m1 0h3m1 0h1m1 0h1m1 0h2m1 0h2m2 0h1m3 0h4m2 0h1m2 0h6m2 0h1m11 0h1m2 0h3m6 0h1m2 0h1m2 0h3m1 0h1m1 0h1M4 17.5h1m1 0h3m3 0h1m1 0h2m5 0h3m2 0h1m1 0h1m2 0h1m2 0h6m3 0h2m2 0h1m7 0h1m1 0h2m1 0h1m1 0h2m1 0h3m1 0h1m5 0h5m1 0h2m1 0h2m5 0h2M6 18.5h7m1 0h3m1 0h1m1 0h1m2 0h3m4 0h3m3 0h1m3 0h2m2 0h1m3 0h2m1 0h2m2 0h2m1 0h1m3 0h3m3 0h3m2 0h3m3 0h1m5 0h2m1 0h3M4 19.5h1m2 0h2m2 0h1m1 0h1m2 0h2m1 0h1m3 0h4m1 0h3m4 0h2m2 0h3m1 0h1m5 0h4m2 0h3m1 0h3m2 0h1m2 0h1m2 0h2m2 0h1m2 0h2m1 0h1m1 0h1m1 0h3m2 0h1m2 0h1M6 20.5h1m3 0h1m1 0h1m3 0h3m1 0h3m2 0h2m1 0h2m2 0h6m4 0h1m1 0h3m3 0h3m4 0h1m4 0h2m1 0h2m3 0h1m1 0h2m2 0h1m1 0h3m5 0h1m3 0h2M5 21.5h2m6 0h2m1 0h1m1 0h2m1 0h2m2 0h1m4 0h1m2 0h1m2 0h1m2 0h2m6 0h2m1 0h1m3 0h1m2 0h3m3 0h2m4 0h3m7 0h3m2 0h1m4 0h1m1 0h2M6 22.5h3m1 0h4m2 0h1m1 0h1m1 0h1m1 0h3m1 0h3m5 0h3m2 0h1m2 0h1m2 0h2m1 0h4m1 0h5m6 0h2m1 0h1m2 0h1m1 0h2m1 0h5m5 0h3m1 0h1m1 0h1M5 23.5h4m2 0h4m3 0h2m3 0h1m6 0h1m2 0h5m1 0h2m3 0h2m6 0h1m1 0h1m4 0h1m1 0h1m2 0h1m1 0h2m1 0h1m2 0h1m2 0h1m2 0h1m2 0h2m5 0h1m2 0h2M5 24.5h3m2 0h2m1 0h5m1 0h1m2 0h1m1 0h1m1 0h1m1 0h2m4 0h1m1 0h2m2 0h1m2 0h1m3 0h4m2 0h4m1 0h2m1 0h1m2 0h1m1 0h1m2 0h4m1 0h3m1 0h1m3 0h1m2 0h1m3 0h1M4 25.5h1m1 0h2m3 0h1m2 0h1m1 0h1m2 0h4m1 0h1m5 0h5m1 0h5m1 0h1m2 0h1m1 0h3m1 0h1m1 0h1m2 0h1m1 0h4m1 0h2m8 0h2m2 0h1m4 0h1m1 0h1m1 0h1m5 0h1M6 26.5h1m1 0h4m1 0h2m1 0h1m4 0h2m1 0h1m3 0h1m1 0h2m4 0h1m1 0h1m1 0h1m1 0h1m1 0h1m1 0h1m2 0h3m1 0h1m2 0h1m3 0h2m1 0h1m1 0h1m1 0h1m3 0h2m1 0h1m1 0h3m1 0h1m1 0h2m7 0h1M4 27.5h1m1 0h1m2 0h1m1 0h2m5 0h1m2 0h5m4 0h1m1 0h1m2 0h6m1 0h2m2 0h2m3 0h2m3 0h3m2 0h2m1 0h3m1 0h3m4 0h2m1 0h3m1 0h1m1 0h2m2 0h3M4 28.5h2m3 0h2m6 0h1m1 0h1m1 0h1m3 0h1m1 0h1m1 0h2m3 0h2m2 0h3m1 0h3m1 0h3m1 0h1m1 0h2m1 0h1m3 0h1m1 0h2m2 0h2m2 0h2m1 0h5m1 0h2m1 0h2m3 0h1m3 0h2M5 29.5h4m3 0h8m2 0h1m1 0h3m4 0h1m1 0h1m3 0h3m2 0h1m2 0h1m2 0h1m1 0h2m1 0h4m1 0h1m1 0h2m1 0h2m6 0h1m1 0h2m1 0h2m4 0h3m3 0h1m1 0h3M6 30.5h2m1 0h3m1 0h1m2 0h2m4 0h1m2 0h1m1 0h2m2 0h1m3 0h1m1 0h2m1 0h1m2 0h3m3 0h3m1 0h1m1 0h4m1 0h1m1 0h1m2 0h1m3 0h1m1 0h3m1 0h1m1 0h1m3 0h2m3 0h1m1 0h1m2 0h2M5 31.5h3m1 0h1m1 0h1m3 0h5m1 0h1m3 0h1m1 0h2m1 0h3m1 0h1m1 0h2m2 0h2m3 0h2m2 0h3m1 0h2m1 0h1m2 0h1m2 0h1m2 0h1m1 0h1m2 0h3m1 0h1m1 0h1m2 0h4m1 0h4m1 0h1m1 0h1M5 32.5h1m1 0h7m2 0h1m5 0h1m1 0h6m2 0h5m2 0h3m1 0h3m1 0h2m3 0h1m2 0h1m1 0h7m5 0h1m2 0h3m1 0h1m2 0h1m1 0h1m2 0h5m1 0h2M5 33.5h4m3 0h7m1 0h1m1 0h2m1 0h1m1 0h4m1 0h1m3 0h2m1 0h2m1 0h2m2 0h1m1 0h1m2 0h2m5 0h1m3 0h1m3 0h3m1 0h1m1 0h1m3 0h1m2 0h1m1 0h4m3 0h1m1 0h1m1 0h1M4 34.5h5m1 0h1m1 0h4m1 0h3m1 0h1m1 0h4m1 0h1m2 0h2m1 0h1m1 0h1m3 0h2m4 0h3m2 0h1m1 0h1m4 0h1m1 0h1m1 0h4m4 0h1m2 0h4m1 0h1m5 0h1m1 0h1m1 0h1m2 0h2M8 35.5h1m3 0h2m1 0h2m1 0h1m2 0h1m1 0h3m2 0h3m1 0h1m3 0h6m3 0h1m1 0h1m2 0h1m1 0h2m3 0h2m3 0h1m1 0h1m1 0h2m1 0h1m1 0h4m1 0h1m2 0h2m3 0h1m3 0h1m1 0h2M5 36.5h1m1 0h8m1 0h1m2 0h5m3 0h1m4 0h6m1 0h1m3 0h2m1 0h1m1 0h3m1 0h2m1 0h1m1 0h7m3 0h1m4 0h2m1 0h2m4 0h2m1 0h5m1 0h2M4 37.5h3m1 0h1m4 0h2m2 0h1m2 0h1m1 0h3m1 0h1m1 0h2m1 0h1m1 0h6m1 0h1m1 0h1m3 0h3m1 0h1m1 0h1m2 0h2m1 0h3m5 0h1m2 0h3m2 0h1m2 0h2m2 0h5m5 0h2M4 38.5h1m2 0h2m1 0h1m1 0h2m8 0h2m5 0h1m1 0h1m1 0h1m3 0h1m1 0h3m1 0h2m3 0h2m1 0h3m2 0h3m1 0h1m2 0h2m6 0h1m1 0h3m2 0h4m1 0h3m1 0h1m3 0h1M6 39.5h2m1 0h1m1 0h1m2 0h1m1 0h3m1 0h1m2 0h4m1 0h6m4 0h1m2 0h2m6 0h1m1 0h1m3 0h2m1 0h2m2 0h2m1 0h3m3 0h4m1 0h2m3 0h1m5 0h1m2 0h1M6 40.5h5m2 0h1m3 0h4m1 0h2m1 0h3m1 0h1m1 0h3m2 0h3m1 0h1m1 0h2m1 0h1m4 0h1m4 0h1m1 0h2m11 0h1m1 0h7m1 0h2m1 0h3m1 0h1m1 0h1m1 0h2M6 41.5h1m1 0h1m4 0h2m1 0h2m2 0h3m3 0h3m1 0h2m1 0h7m1 0h2m2 0h2m1 0h3m1 0h4m3 0h1m1 0h1m1 0h3m1 0h1m1 0h3m4 0h1m3 0h1m1 0h1m3 0h1m5 0h1M4 42.5h1m1 0h1m1 0h1m1 0h1m4 0h1m8 0h2m1 0h1m1 0h1m1 0h1m3 0h1m7 0h1m4 0h3m1 0h1m5 0h1m2 0h1m3 0h1m2 0h1m1 0h2m1 0h1m1 0h2m2 0h2m1 0h1m1 0h1m2 0h1m2 0h1M5 43.5h2m4 0h3m2 0h2m2 0h5m3 0h1m1 0h1m1 0h1m1 0h1m1 0h1m1 0h1m3 0h2m2 0h1m2 0h2m1 0h1m1 0h1m2 0h2m1 0h1m3 0h2m1 0h2m2 0h3m3 0h1m1 0h1m2 0h2m2 0h3M4 44.5h1m2 0h1m1 0h6m1 0h1m2 0h1m1 0h2m1 0h2m1 0h2m7 0h1m1 0h1m1 0h2m1 0h2m1 0h1m5 0h1m1 0h2m6 0h1m2 0h1m3 0h1m1 0h3m1 0h1m1 0h1m4 0h5m1 0h1M4 45.5h1m1 0h4m1 0h3m1 0h3m2 0h3m2 0h2m1 0h2m1 0h1m1 0h3m1 0h1m1 0h1m2 0h3m1 0h5m3 0h1m2 0h3m1 0h3m3 0h1m2 0h2m2 0h1m4 0h3m3 0h1m2 0h2M6 46.5h1m2 0h3m1 0h5m2 0h7m2 0h1m3 0h1m3 0h2m2 0h1m3 0h1m2 0h1m3 0h1m2 0h1m4 0h4m3 0h1m2 0h2m4 0h1m1 0h1m2 0h2m1 0h2m1 0h1m1 0h1m1 0h1M4 47.5h6m1 0h1m3 0h1m2 0h5m1 0h2m1 0h3m1 0h1m3 0h1m1 0h2m1 0h1m5 0h1m1 0h2m1 0h1m2 0h1m2 0h2m3 0h1m1 0h2m1 0h1m1 0h2m1 0h3m1 0h2m1 0h1m1 0h2m2 0h3m1 0h1m1 0h1M4 48.5h9m5 0h1m2 0h3m2 0h1m4 0h2m4 0h3m1 0h3m1 0h3m2 0h1m1 0h1m1 0h9m1 0h1m3 0h1m1 0h4m1 0h1m1 0h3m1 0h1m4 0h1m1 0h2m1 0h1M7 49.5h3m3 0h2m3 0h1m2 0h3m2 0h7m2 0h1m7 0h1m2 0h1m2 0h3m2 0h1m4 0h1m1 0h8m1 0h1m3 0h1m1 0h1m1 0h1m3 0h3m4 0h3M5 50.5h1m1 0h1m1 0h3m1 0h1m2 0h4m5 0h1m1 0h1m1 0h1m2 0h1m3 0h4m2 0h1m1 0h4m1 0h1m1 0h1m2 0h2m1 0h6m1 0h10m4 0h1m1 0h2m4 0h3M5 51.5h5m3 0h1m3 0h2m2 0h1m1 0h1m1 0h1m1 0h2m2 0h1m1 0h1m3 0h1m1 0h1m4 0h1m5 0h2m2 0h2m3 0h2m1 0h4m1 0h2m4 0h2m1 0h3m2 0h5m1 0h1m2 0h3M5 52.5h1m4 0h1m1 0h1m1 0h2m3 0h1m1 0h1m1 0h1m2 0h1m2 0h1m1 0h2m2 0h1m2 0h1m2 0h5m3 0h2m1 0h5m1 0h1m2 0h1m1 0h1m2 0h2m1 0h1m3 0h1m1 0h4m3 0h4m1 0h2m1 0h2M4 53.5h1m2 0h2m2 0h3m1 0h3m2 0h1m2 0h1m1 0h2m2 0h1m1 0h3m1 0h1m1 0h1m3 0h1m4 0h1m3 0h3m1 0h2m2 0h2m1 0h3m6 0h3m4 0h2m1 0h1m2 0h1m1 0h1m6 0h1M4 54.5h2m3 0h4m2 0h1m2 0h1m1 0h1m1 0h1m3 0h4m1 0h1m2 0h1m1 0h2m4 0h6m3 0h1m1 0h1m1 0h1m1 0h1m1 0h1m2 0h2m1 0h1m14 0h2m2 0h1m2 0h4M4 55.5h2m2 0h1m2 0h1m1 0h3m6 0h3m1 0h1m2 0h3m4 0h1m1 0h3m2 0h1m2 0h2m3 0h1m1 0h1m1 0h2m1 0h3m2 0h1m2 0h3m1 0h1m2 0h1m2 0h1m1 0h1m3 0h1m1 0h1m1 0h1M7 56.5h1m1 0h2m1 0h1m1 0h1m2 0h6m4 0h2m1 0h1m1 0h1m1 0h1m1 0h4m1 0h2m12 0h4m1 0h3m4 0h3m1 0h1m4 0h1m1 0h1m1 0h1m1 0h1m1 0h3m2 0h3M4 57.5h5m2 0h1m1 0h1m1 0h1m1 0h1m2 0h1m1 0h1m1 0h3m3 0h2m1 0h2m1 0h1m1 0h1m2 0h3m2 0h2m1 0h1m1 0h5m3 0h3m1 0h2m5 0h3m2 0h1m3 0h1m2 0h2m3 0h3m2 0h1M4 58.5h9m3 0h1m1 0h1m6 0h1m2 0h3m1 0h6m2 0h1m2 0h2m1 0h1m2 0h1m1 0h2m4 0h6m4 0h1m1 0h1m3 0h2m4 0h1m2 0h8M4 59.5h2m2 0h1m3 0h1m1 0h3m1 0h4m3 0h3m3 0h2m3 0h2m3 0h3m2 0h4m2 0h1m1 0h1m1 0h3m3 0h1m4 0h1m1 0h1m1 0h1m1 0h1m3 0h3m3 0h2m3 0h1m2 0h1M5 60.5h4m1 0h1m1 0h1m3 0h2m1 0h3m1 0h2m1 0h1m1 0h2m1 0h2m1 0h1m1 0h1m1 0h1m2 0h4m6 0h4m3 0h1m1 0h1m1 0h1m1 0h1m4 0h1m1 0h1m4 0h1m1 0h1m1 0h1m3 0h1m1 0h1m1 0h1m1 0h1m1 0h1M4 61.5h1m1 0h3m3 0h1m3 0h2m1 0h1m2 0h2m1 0h3m3 0h2m3 0h6m4 0h1m1 0h1m3 0h2m1 0h2m1 0h1m3 0h1m3 0h1m2 0h1m2 0h1m1 0h3m1 0h5m1 0h1m3 0h3M5 62.5h2m1 0h6m1 0h3m6 0h3m1 0h1m3 0h5m2 0h1m2 0h1m1 0h1m1 0h2m1 0h4m1 0h1m3 0h7m1 0h1m3 0h2m2 0h2m2 0h1m1 0h1m1 0h1m1 0h5m1 0h3M6 63.5h2m3 0h1m3 0h4m3 0h5m4 0h2m4 0h1m1 0h1m3 0h1m1 0h1m2 0h1m3 0h2m1 0h3m5 0h8m3 0h1m1 0h3m3 0h1m1 0h1m1 0h1m1 0h3m1 0h1M4 64.5h8m3 0h5m1 0h1m3 0h1m2 0h1m1 0h2m8 0h2m2 0h2m2 0h1m3 0h4m1 0h2m3 0h2m1 0h2m1 0h1m3 0h2m1 0h1m2 0h2m4 0h1m2 0h4m1 0h1M6 65.5h3m2 0h2m3 0h1m1 0h3m2 0h1m1 0h1m1 0h1m3 0h2m1 0h2m3 0h1m3 0h4m1 0h2m1 0h2m1 0h2m4 0h2m2 0h1m1 0h1m1 0h1m1 0h1m2 0h2m1 0h1m6 0h2m2 0h3m1 0h1M4 66.5h4m2 0h1m1 0h3m2 0h2m1 0h2m3 0h1m1 0h1m2 0h3m2 0h1m1 0h1m1 0h1m1 0h1m2 0h1m2 0h2m1 0h1m2 0h2m1 0h1m1 0h1m1 0h1m1 0h2m2 0h1m2 0h1m1 0h2m1 0h3m1 0h2m1 0h1m1 0h1m2 0h1m2 0h3M6 67.5h1m2 0h1m1 0h2m1 0h1m1 0h2m1 0h1m1 0h1m3 0h3m1 0h2m2 0h2m1 0h1m1 0h1m1 0h1m3 0h2m1 0h1m1 0h3m1 0h1m1 0h2m2 0h1m1 0h1m3 0h6m2 0h1m1 0h4m2 0h2m1 0h5m1 0h2M6 68.5h1m3 0h2m1 0h1m1 0h2m1 0h4m1 0h1m1 0h1m2 0h2m6 0h1m2 0h1m1 0h4m1 0h2m1 0h1m1 0h2m1 0h4m2 0h1m1 0h1m1 0h1m4 0h5m2 0h1m3 0h1m1 0h2m1 0h5m1 0h1M4 69.5h2m1 0h1m4 0h1m2 0h3m1 0h4m3 0h2m1 0h1m1 0h6m3 0h1m1 0h1m4 0h3m1 0h5m2 0h1m1 0h1m2 0h4m3 0h1m1 0h1m1 0h1m2 0h2m2 0h1m1 0h2m2 0h2m1 0h2M6 70.5h5m4 0h2m1 0h1m1 0h2m2 0h1m6 0h1m2 0h1m1 0h1m1 0h3m3 0h1m1 0h1m2 0h1m2 0h2m1 0h1m3 0h1m3 0h1m2 0h3m1 0h2m1 0h1m3 0h2m1 0h1m2 0h1m1 0h1m2 0h5M4 71.5h2m5 0h3m2 0h1m1 0h1m1 0h2m4 0h1m3 0h3m1 0h2m1 0h1m1 0h2m4 0h1m4 0h2m1 0h1m2 0h1m2 0h2m6 0h1m2 0h1m3 0h1m1 0h1m1 0h1m3 0h4m4 0h1M5 72.5h2m1 0h1m1 0h1m1 0h1m1 0h1m1 0h2m1 0h1m2 0h1m5 0h2m8 0h1m1 0h1m3 0h1m2 0h2m1 0h1m1 0h4m2 0h3m2 0h3m3 0h1m1 0h2m3 0h1m1 0h1m2 0h1m2 0h1m1 0h2m2 0h3M4 73.5h1m3 0h2m3 0h2m1 0h1m1 0h1m3 0h1m2 0h1m6 0h1m1 0h1m2 0h1m1 0h2m1 0h2m1 0h1m2 0h3m4 0h1m1 0h1m2 0h1m1 0h1m2 0h3m4 0h1m4 0h10m1 0h1m2 0h1M5 74.5h1m1 0h5m1 0h2m2 0h1m3 0h1m1 0h4m1 0h1m3 0h2m4 0h1m1 0h1m3 0h1m1 0h2m1 0h1m2 0h1m2 0h2m2 0h1m1 0h1m3 0h1m1 0h1m1 0h1m1 0h1m3 0h2m1 0h2m1 0h2m2 0h3m1 0h1m2 0h1M4 75.5h2m2 0h1m2 0h5m4 0h5m1 0h1m1 0h6m1 0h2m1 0h2m1 0h3m1 0h2m11 0h7m1 0h3m1 0h1m1 0h1m7 0h2m2 0h1m3 0h1m2 0h1M4 76.5h4m1 0h3m3 0h5m3 0h2m1 0h1m2 0h1m4 0h1m1 0h1m1 0h1m2 0h1m1 0h1m2 0h1m1 0h6m1 0h1m1 0h1m2 0h3m1 0h1m1 0h1m1 0h2m2 0h2m1 0h1m1 0h6m2 0h4m3 0h1M4 77.5h1m1 0h1m4 0h2m1 0h2m1 0h3m1 0h3m1 0h1m5 0h6m1 0h1m3 0h2m1 0h6m3 0h1m1 0h2m8 0h2m1 0h1m2 0h1m4 0h3m1 0h1m2 0h3m1 0h1m1 0h2M4 78.5h1m1 0h2m1 0h4m10 0h1m1 0h4m2 0h2m2 0h1m3 0h1m1 0h1m1 0h1m2 0h2m1 0h4m2 0h1m3 0h2m1 0h1m1 0h2m4 0h2m3 0h1m3 0h1m2 0h1m2 0h3m2 0h1M4 79.5h3m6 0h2m2 0h2m1 0h2m3 0h1m1 0h1m2 0h5m1 0h2m2 0h2m1 0h2m1 0h1m2 0h1m1 0h3m1 0h1m1 0h3m1 0h1m1 0h1m1 0h4m5 0h1m6 0h1m2 0h2m1 0h1m3 0h1M4 80.5h4m2 0h1m1 0h1m1 0h2m3 0h1m4 0h3m5 0h1m1 0h2m3 0h2m1 0h1m1 0h6m1 0h1m1 0h1m5 0h1m1 0h5m1 0h2m1 0h1m1 0h1m2 0h1m1 0h1m2 0h1m1 0h1m1 0h2m2 0h1m1 0h3M4 81.5h1m1 0h3m3 0h1m1 0h4m1 0h1m1 0h3m1 0h1m2 0h7m2 0h1m3 0h1m1 0h3m2 0h2m4 0h1m1 0h2m2 0h1m1 0h2m3 0h4m1 0h3m1 0h1m3 0h3m2 0h1m4 0h1M4 82.5h1m2 0h1m2 0h1m2 0h1m5 0h1m2 0h5m1 0h1m3 0h1m1 0h1m1 0h1m3 0h5m2 0h3m2 0h1m1 0h2m3 0h1m8 0h1m4 0h2m1 0h2m2 0h1m1 0h3m1 0h1m1 0h1m2 0h1M4 83.5h2m2 0h2m3 0h2m1 0h3m1 0h1m2 0h1m2 0h1m1 0h2m3 0h4m4 0h1m5 0h1m3 0h1m1 0h1m3 0h2m2 0h1m2 0h3m1 0h1m1 0h2m2 0h1m1 0h2m1 0h3m2 0h1m1 0h5M4 84.5h1m2 0h1m2 0h2m1 0h1m1 0h4m1 0h2m1 0h1m1 0h5m1 0h6m5 0h2m1 0h3m1 0h3m1 0h1m2 0h1m1 0h5m1 0h1m2 0h3m3 0h1m3 0h3m4 0h5m3 0h1M12 85.5h4m2 0h4m2 0h2m1 0h3m1 0h2m3 0h4m1 0h1m1 0h4m1 0h11m3 0h4m1 0h3m2 0h2m1 0h1m3 0h2m2 0h2m3 0h2m1 0h2M4 86.5h7m1 0h2m3 0h1m2 0h1m1 0h1m1 0h4m1 0h1m2 0h1m1 0h1m1 0h3m2 0h2m1 0h1m1 0h2m1 0h2m1 0h2m1 0h4m1 0h1m1 0h1m1 0h2m6 0h3m1 0h2m2 0h1m1 0h1m1 0h1m1 0h1m1 0h2m2 0h1M4 87.5h1m5 0h1m6 0h6m1 0h9m3 0h3m2 0h2m3 0h1m3 0h1m6 0h2m3 0h1m4 0h1m2 0h1m5 0h2m5 0h2m3 0h1m1 0h1m1 0h1M4 88.5h1m1 0h3m1 0h1m1 0h2m1 0h1m5 0h2m2 0h1m1 0h1m1 0h1m1 0h6m1 0h1m3 0h2m1 0h4m3 0h4m2 0h6m5 0h1m1 0h4m1 0h1m1 0h2m3 0h8m1 0h1M4 89.5h1m1 0h3m1 0h1m1 0h1m3 0h1m1 0h1m1 0h1m4 0h1m4 0h1m2 0h3m1 0h3m1 0h2m6 0h1m2 0h2m4 0h2m2 0h1m2 0h1m1 0h2m4 0h2m3 0h4m1 0h2m1 0h1m2 0h3M4 90.5h1m1 0h3m1 0h1m1 0h1m2 0h1m2 0h1m5 0h5m2 0h1m5 0h2m1 0h1m2 0h1m4 0h2m1 0h1m1 0h1m1 0h1m3 0h1m1 0h2m2 0h1m3 0h1m2 0h1m1 0h1m2 0h2m1 0h1m1 0h1m1 0h1m1 0h1m2 0h1m1 0h1M4 91.5h1m5 0h1m1 0h1m1 0h4m2 0h2m1 0h2m4 0h1m1 0h1m2 0h2m1 0h1m1 0h3m1 0h1m3 0h4m1 0h1m2 0h1m2 0h1m3 0h2m2 0h1m1 0h1m1 0h2m4 0h3m1 0h2m1 0h3m1 0h3m1 0h1M4 92.5h7m1 0h3m1 0h3m2 0h1m1 0h2m1 0h1m1 0h8m4 0h1m1 0h2m1 0h1m1 0h1m2 0h1m1 0h4m1 0h3m2 0h1m1 0h1m5 0h3m1 0h2m1 0h1m3 0h3"/></svg>
