<svg xmlns="http://www.w3.org/2000/svg" viewBox="0 0 113 113" shape-rendering="crispEdges"><path fill="#ffffff" d="M0 0h113v113H0z"/><path stroke="#000000" d="M4 4.5h7m1 0h1m1 0h1m2 0h1m3 0h2m1 0h2m5 0h1m2 0h2m1 0h1m1 0h2m2 0h1m2 0h1m1 0h1m1 0h2m1 0h1m1 0h5m2 0h2m1 0h3m1 0h1m2 0h3m2 0h5m2 0h1m1 0h1m5 0h1m1 0h1m3 0h1m3 0h7M4 5.5h1m5 0h1m7 0h1m4 0h1m2 0h1m1 0h2m1 0h4m3 0h3m3 0h3m2 0h1m1 0h1m1 0h1m3 0h2m1 0h3m1 0h3m1 0h2m1 0h3m1 0h3m2 0h3m1 0h2m1 0h1m1 0h1m1 0h1m1 0h2m1 0h1m1 0h1m3 0h1m5 0h1M4 6.5h1m1 0h3m1 0h1m2 0h1m1 0h2m1 0h1m1 0h4m2 0h4m1 0h2m4 0h1m2 0h2m1 0h3m2 0h2m1 0h1m3 0h4m2 0h2m1 0h1m3 0h3m4 0h1m4 0h3m2 0h3m2 0h2m3 0h5m2 0h1m1 0h3m1 0h1M4 7.5h1m1 0h3m1 0h1m1 0h5m2 0h5m1 0h1m6 0h2m1 0h3m2 0h1m1 0h1m2 0h3m1 0h1m2 0h1m1 0h1m1 0h1m1 0h2m3 0h2m3 0h3m1 0h1m2 0h1m2 0h4m2 0h1m1 0h1m1 0h2m1 0h1m1 0h3m4 0h1m1 0h1m1 0h3m1 0h1M4 8.5h1m1 0h3m1 0h1m1 0h2m2 0h1m1 0h1m1 0h2m2 0h1m1 0h7m2 0h1m2 0h1m2 0h1m1 0h1m2 0h1m1 0h1m1 0h7m2 0h3m1 0h1m2 0h2m2 0h1m3 0h7m1 0h2m2 0h2m1 0h3m2 0h1m4 0h2m1 0h1m1 0h3m1 0h1M4 9.5h1m5 0h1m1 0h2m1 0h1m2 0h2m2 0h2m1 0h1m1 0h2m3 0h1m1 0h1m1 0h3m1 0h1m2 0h1m2 0h3m2 0h2m3 0h3m1 0h2m1 0h1m1 0h2m1 0h7m1 0h1m3 0h3m3 0h2m2 0h1m1 0h2m3 0h1m1 0h1m2 0h1m5 0h1M4 10.5h7m1 0h1m1 0h1m1 0h1m1 0h1m1 0h1m1 0h1m1 0h1m1 0h1m1 0h1m1 0h1m1 0h1m1 0h1m1 0h1m1 0h1m1 0h1m1 0h1m1 0h1m1 0h1m1 0h1m1 0h1m1 0h1m1 0h1m1 0h1m1 0h1m1 0h1m1 0h1m1 0h1m1 0h1m1 0h1m1 0h1m1 0h1m1 0h1m1 0h1m1 0h1m1 0h1m1 0h1m1 0h1m1 0h1m1 0h1m1 0h1m1 0h1m1 0h1m1 0h1m1 0h1m1 0h1m1 0h7M12 11.5h2m2 0h1m3 0h1m7 0h1m3 0h2m2 0h2m2 0h1m5 0h3m2 0h2m3 0h3m2 0h2m2 0h1m10 0h1m3 0h3m1 0h2m6 0h1m1 0h1m3 0h1M4 12.5h1m3 0h1m1 0h3m1 0h1m8 0h3m2 0h6m3 0h2m1 0h2m1 0h2m4 0h1m1 0h6m3 0h3m1 0h3m1 0h2m2 0h12m2 0h1m1 0h1m1 0h2m3 0h2m1 0h2m1 0h5m2 0h1M6 13.5h4m5 0h2m1 0h4m4 0h1m1 0h1m1 0h2m2 0h1m4 0h3m3 0h1m1 0h1m1 0h4m1 0h1m1 0h2m1 0h6m1 0h1m1 0h1m2 0h3m1 0h2m2 0h3m1 0h1m1 0h1m3 0h1m1 0h2m3 0h1m3 0h3m2 0h2M8 14.5h3m2 0h1m1 0h1m1 0h1m1 0h1m1 0h1m1 0h4m2 0h4m2 0h2m3 0h1m9 0h1m1 0h5m4 0h6m3 0h3m1 0h1m2 0h2m1 0h4m1 0h1m1 0h1m1 0h1m1 0h5m2 0h4m1 0h3m1 0h2M4 15.5h3m2 0h1m2 0h1m2 0h6m1 0h3m4 0h1m1 0h1m1 0h1m3 0h3m2 0h1m3 0h1m3 0h2m1 0h4m2 0h1m2 0h1m2 0h1m1 0h3m1 0h5m1 0h2m1 0h1m1 0h2m1 0h3m3 0h1m1 0h5m1 0h1m3 0h1m1 0h1m1 0h1M4 16.5h3m1 0h1m1 0h7m3 0h1m3 0h1m4 0h3m2 0h1m1 0h1m5 0h1m1 0h1m1 0h2m2 0h3m1 0h1m4 0h2m1 0h2m1 0h3m1 0h2m1 0h1m3 0h4m1 0h1m1 0h2m3 0h2m2 0h2m1 0h4m3 0h1m2 0h4M4 17.5h2m1 0h1m4 0h2m1 0h2m1 0h2m1 0h5m1 0h1m3 0h2m3 0h3m1 0h3m4 0h1m2 0h1m1 0h1m1 0h1m1 0h1m3 0h1m1 0h3m2 0h1m1 0h3m1 0h1m1 0h6m1 0h1m1 0h4m1 0h2m1 0h3m1 0h1m2 0h1m1 0h1m5 0h1M6 18.5h3m1 0h2m3 0h4m3 0h1m1 0h2m3 0h6m2 0h3m1 0h4m2 0h1m2 0h3m1 0h4m1 0h1m3 0h4m3 0h1m2 0h2m2 0h1m2 0h1m7 0h2m3 0h1m2 0h1m1 0h3m2 0h1m1 0h1m2 0h1M4 19.5h4m3 0h2m2 0h1m3 0h4m2 0h1m2 0h3m5 0h5m3 0h1m1 0h4m2 0h3m2 0h2m3 0h3m3 0h2m1 0h1m2 0h1m4 0h5m1 0h3m2 0h2m1 0h1m1 0h1m2 0h1m1 0h2m1 0h2m2 0h1M4 20.5h3m3 0h1m1 0h1m1 0h1m2 0h1m1 0h2m1 0h2m2 0h1m1 0h3m1 0h1m5 0h1m3 0h3m3 0h2m2 0h1m2 0h1m1 0h1m4 0h2m1 0h1m6 0h1m1 0h1m2 0h2m1 0h1m1 0h5m1 0h6m1 0h2m1 0h2m1 0h1m4 0h3M7 21.5h1m1 0h1m1 0h2m3 0h1m2 0h3m1 0h1m2 0h3m4 0h2m4 0h4m1 0h4m1 0h1m3 0h1m1 0h2m1 0h2m2 0h2m1 0h2m1 0h6m3 0h2m2 0h1m3 0h7m2 0h2m2 0h2m1 0h1m2 0h2m1 0h2M4 22.5h3m2 0h2m1 0h2m2 0h1m8 0h1m2 0h4m2 0h1m1 0h1m1 0h1m3 0h1m1 0h2m1 0h2m1 0h8m1 0h2m2 0h1m1 0h1m5 0h1m3 0h1m2 0h2m2 0h4m6 0h1m1 0h1m2 0h2m1 0h4m1 0h2m1 0h1M8 23.5h2m2 0h1m3 0h1m2 0h1m1 0h2m4 0h3m6 0h1m1 0h1m3 0h2m1 0h1m4 0h3m2 0h2m1 0h1m1 0h1m2 0h1m1 0h3m1 0h2m4 0h4m1 0h1m1 0h2m1 0h1m1 0h1m1 0h1m1 0h1m2 0h1m2 0h5m1 0h2m1 0h1M8 24.5h3m2 0h1m2 0h2m1 0h1m1 0h1m1 0h1m5 0h1m1 0h4m1 0h1m1 0h5m1 0h4m1 0h1m2 0h1m2 0h1m2 0h1m3 0h1m1 0h2m2 0h4m3 0h2m2 0h1m1 0h2m1 0h2m2 0h4m3 0h2m2 0h2m1 0h1m3 0h1m1 0h1M6 25.5h1m1 0h1m3 0h3m1 0h2m1 0h2m5 0h2m4 0h1m4 0h5m1 0h1m1 0h1m2 0h2m1 0h1m1 0h1m3 0h5m1 0h1m1 0h2m3 0h2m2 0h2m1 0h1m2 0h1m1 0h1m2 0h2m2 0h1m2 0h4m1 0h1m4 0h1m1 0h1m3 0h1M10 26.5h3m2 0h2m1 0h1m2 0h1m1 0h1m1 0h1m1 0h2m1 0h1m1 0h5m1 0h1m1 0h2m1 0h5m1 0h7m1 0h1m1 0h1m1 0h4m2 0h1m1 0h1m2 0h1m1 0h1m1 0h6m2 0h3m3 0h1m2 0h2m1 0h1m2 0h3m2 0h2m1 0h2M4 27.5h1m1 0h4m1 0h1m2 0h1m6 0h4m1 0h2m2 0h1m2 0h1m2 0h1m1 0h2m1 0h3m2 0h1m2 0h1m2 0h1m5 0h1m3 0h2m1 0h1m1 0h1m2 0h3m1 0h2m5 0h3m2 0h3m1 0h1m1 0h1m1 0h4m1 0h1m2 0h1m1 0h1m3 0h1M6 28.5h8m2 0h3m1 0h3m1 0h2m1 0h9m1 0h1m1 0h1m2 0h3m1 0h1m1 0h1m1 0h1m1 0h5m1 0h1m1 0h4m3 0h5m2 0h7m3 0h1m3 0h2m2 0h3m1 0h1m3 0h6m1 0h2M4 29.5h1m2 0h2m3 0h1m2 0h1m1 0h1m1 0h1m1 0h1m4 0h3m3 0h2m2 0h3m1 0h2m5 0h2m1 0h1m1 0h1m3 0h5m1 0h1m1 0h1m4 0h1m2 0h2m2 0h1m3 0h2m2 0h2m2 0h1m1 0h1m2 0h1m5 0h2m3 0h1m1 0h1m1 0h1M5 30.5h1m1 0h2m1 0h1m1 0h1m1 0h1m4 0h3m2 0h5m1 0h1m1 0h1m1 0h2m3 0h3m2 0h1m2 0h1m2 0h1m1 0h1m1 0h1m1 0h2m2 0h1m1 0h1m1 0h1m1 0h1m1 0h1m2 0h2m1 0h3m1 0h1m1 0h4m10 0h1m4 0h2m1 0h1m1 0h2m1 0h1M6 31.5h1m1 0h1m3 0h3m1 0h1m1 0h1m1 0h2m2 0h1m1 0h3m3 0h2m1 0h1m1 0h3m1 0h4m5 0h1m1 0h1m3 0h1m1 0h2m1 0h4m4 0h1m2 0h1m2 0h2m3 0h1m3 0h3m2 0h1m5 0h3m1 0h2m3 0h5M5 32.5h10m1 0h2m1 0h1m3 0h1m1 0h2m1 0h8m2 0h1m1 0h4m4 0h2m2 0h6m1 0h2m3 0h4m1 0h2m4 0h7m3 0h1m1 0h3m3 0h1m1 0h1m3 0h6m2 0h1M4 33.5h1m1 0h1m1 0h1m3 0h1m1 0h1m1 0h2m1 0h1m1 0h4m1 0h4m1 0h1m2 0h2m1 0h3m1 0h1m2 0h6m1 0h1m2 0h2m2 0h1m1 0h2m1 0h2m1 0h2m2 0h1m2 0h1m4 0h1m1 0h1m2 0h1m1 0h1m2 0h1m1 0h3m1 0h1m6 0h1m1 0h2m1 0h3M4 34.5h1m1 0h3m1 0h4m1 0h3m1 0h1m3 0h2m1 0h1m1 0h2m2 0h2m2 0h1m1 0h1m2 0h1m3 0h3m2 0h1m2 0h3m1 0h2m2 0h2m2 0h1m1 0h1m1 0h1m1 0h2m1 0h2m1 0h1m4 0h2m2 0h3m1 0h1m1 0h1m2 0h1m1 0h1m1 0h1m1 0h1m5 0h1M5 35.5h3m5 0h4m3 0h2m1 0h5m4 0h1m2 0h1m9 0h3m1 0h4m1 0h3m2 0h1m1 0h5m2 0h2m2 0h2m1 0h2m2 0h1m1 0h1m2 0h4m1 0h5m3 0h1m1 0h1m3 0h3m1 0h1M4 36.5h1m4 0h2m1 0h1m2 0h3m1 0h3m1 0h4m2 0h4m1 0h1m3 0h1m1 0h4m4 0h2m2 0h1m1 0h1m1 0h2m1 0h2m5 0h1m5 0h2m2 0h2m3 0h1m2 0h1m4 0h1m1 0h1m1 0h1m3 0h1m1 0h2m1 0h2m1 0h1m2 0h1M4 37.5h1m7 0h3m1 0h3m1 0h5m1 0h2m1 0h1m3 0h1m3 0h3m1 0h2m2 0h1m1 0h2m2 0h2m3 0h3m4 0h3m1 0h1m1 0h2m2 0h2m1 0h3m2 0h3m1 0h1m2 0h2m3 0h7m4 0h2m1 0h2M7 38.5h2m1 0h1m4 0h1m2 0h1m2 0h9m1 0h1m4 0h2m4 0h2m1 0h2m1 0h3m1 0h1m1 0h4m1 0h2m2 0h2m3 0h2m4 0h1m2 0h2m1 0h4m1 0h3m1 0h3m3 0h1m2 0h2m1 0h1m2 0h1M4 39.5h2m1 0h1m1 0h1m3 0h2m5 0h2m3 0h1m2 0h1m1 0h2m3 0h2m1 0h1m3 0h6m1 0h4m7 0h1m3 0h1m1 0h4m1 0h1m1 0h1m1 0h1m1 0h1m1 0h1m1 0h1m1 0h1m2 0h1m1 0h1m1 0h1m2 0h1m1 0h6m1 0h5M4 40.5h8m1 0h1m1 0h1m4 0h2m1 0h3m3 0h2m1 0h1m3 0h1m1 0h1m4 0h1m2 0h1m1 0h1m3 0h1m1 0h1m1 0h1m1 0h4m2 0h2m1 0h3m1 0h1m2 0h3m2 0h6m1 0h1m4 0h2m1 0h3m3 0h2m5 0h2M11 41.5h3m2 0h2m4 0h1m1 0h1m1 0h3m2 0h1m1 0h2m5 0h3m2 0h1m1 0h4m2 0h1m1 0h3m2 0h1m1 0h1m1 0h1m4 0h2m1 0h1m1 0h1m1 0h1m1 0h2m1 0h2m2 0h1m1 0h1m1 0h1m1 0h1m2 0h5m2 0h1m2 0h2m1 0h2M5 42.5h1m1 0h1m1 0h2m1 0h3m3 0h8m4 0h2m2 0h5m1 0h3m1 0h3m7 0h7m2 0h1m1 0h1m1 0h2m2 0h1m4 0h1m1 0h2m3 0h1m2 0h1m1 0h6m1 0h3m1 0h1m1 0h1m1 0h1m1 0h4M5 43.5h1m1 0h3m2 0h3m1 0h2m1 0h2m1 0h1m2 0h1m2 0h3m1 0h1m5 0h3m4 0h2m5 0h4m1 0h1m1 0h1m1 0h3m2 0h1m4 0h1m6 0h1m6 0h1m1 0h2m4 0h1m1 0h4m2 0h1m1 0h1m2 0h1m1 0h1M10 44.5h1m2 0h1m1 0h2m2 0h7m2 0h4m1 0h1m1 0h2m3 0h1m1 0h1m2 0h1m1 0h1m3 0h2m1 0h2m2 0h2m2 0h6m3 0h1m1 0h3m1 0h2m1 0h3m1 0h2m2 0h4m2 0h1m2 0h1m1 0h2m4 0h2M5 45.5h4m3 0h1m2 0h3m2 0h1m1 0h1m2 0h2m1 0h1m6 0h3m2 0h4m4 0h1m5 0h5m1 0h6m1 0h2m2 0h4m4 0h1m2 0h3m1 0h2m3 0h5m1 0h1m4 0h3M6 46.5h2m2 0h4m7 0h2m2 0h3m1 0h2m7 0h1m1 0h4m2 0h1m2 0h3m1 0h1m1 0h1m2 0h6m3 0h2m3 0h7m2 0h5m1 0h1m3 0h3m5 0h1m1 0h1m1 0h2m1 0h1M4 47.5h1m1 0h1m1 0h1m3 0h4m2 0h2m2 0h1m7 0h1m1 0h2m1 0h1m4 0h2m2 0h2m2 0h1m2 0h2m2 0h1m2 0h6m1 0h5m4 0h2m9 0h2m2 0h2m5 0h1m1 0h3m1 0h3m1 0h2M5 48.5h2m2 0h6m2 0h3m2 0h4m4 0h2m1 0h2m4 0h2m1 0h2m1 0h1m1 0h2m2 0h2m1 0h2m6 0h1m3 0h1m1 0h2m1 0h3m2 0h1m4 0h1m1 0h1m3 0h14m2 0h1m1 0h1m1 0h2M5 49.5h4m2 0h2m2 0h2m2 0h5m2 0h3m1 0h2m1 0h1m3 0h2m1 0h2m2 0h1m2 0h1m1 0h1m6 0h5m2 0h1m1 0h2m1 0h1m3 0h1m1 0h1m2 0h2m1 0h1m2 0h2m4 0h2m1 0h2m4 0h6m2 0h3M5 50.5h1m1 0h1m1 0h2m1 0h1m1 0h1m1 0h2m1 0h1m1 0h5m1 0h4m1 0h5m1 0h2m4 0h1m1 0h1m2 0h3m1 0h1m1 0h1m1 0h2m4 0h2m2 0h2m2 0h2m1 0h3m3 0h1m1 0h2m2 0h1m3 0h1m1 0h1m3 0h1m2 0h1m1 0h1m2 0h1m2 0h2M4 51.5h2m1 0h2m2 0h1m1 0h5m1 0h3m2 0h2m5 0h1m4 0h3m1 0h1m1 0h1m1 0h2m4 0h1m1 0h1m3 0h1m1 0h1m1 0h5m1 0h1m3 0h1m1 0h1m1 0h1m9 0h3m1 0h2m2 0h1m2 0h4m1 0h2m1 0h1m1 0h1m2 0h1M5 52.5h1m2 0h6m1 0h1m1 0h1m2 0h1m7 0h5m5 0h1m1 0h1m2 0h1m4 0h1m2 0h6m2 0h1m2 0h5m3 0h1m1 0h9m1 0h1m1 0h1m4 0h1m1 0h1m2 0h1m1 0h2m1 0h10M4 53.5h2m1 0h2m3 0h2m1 0h2m2 0h4m1 0h1m1 0h1m1 0h1m3 0h4m1 0h3m1 0h1m1 0h1m3 0h1m1 0h1m1 0h2m3 0h1m1 0h2m3 0h3m1 0h2m1 0h3m2 0h2m3 0h2m2 0h1m2 0h1m3 0h3m1 0h1m2 0h3m3 0h3M4 54.5h1m2 0h2m1 0h1m1 0h2m3 0h4m4 0h1m2 0h1m1 0h1m1 0h1m2 0h1m4 0h1m3 0h2m1 0h1m1 0h2m1 0h1m1 0h1m1 0h1m3 0h1m1 0h1m3 0h1m1 0h1m1 0h2m2 0h1m1 0h1m1 0h1m1 0h3m1 0h2m1 0h2m2 0h1m3 0h1m1 0h1m1 0h2m1 0h1m1 0h2m1 0h1M5 55.5h4m3 0h5m1 0h2m2 0h2m4 0h1m3 0h2m6 0h2m1 0h3m1 0h1m2 0h1m1 0h1m3 0h2m1 0h2m2 0h1m8 0h2m2 0h1m3 0h1m2 0h2m1 0h1m1 0h3m3 0h1m2 0h1m1 0h2m3 0h1m3 0h1M5 56.5h1m1 0h6m1 0h1m3 0h1m1 0h4m2 0h1m1 0h5m1 0h1m1 0h5m4 0h2m1 0h1m1 0h7m3 0h1m2 0h1m1 0h1m1 0h1m3 0h1m1 0h1m1 0h7m1 0h3m4 0h1m1 0h4m1 0h2m1 0h6m1 0h1M7 57.5h1m3 0h2m1 0h9m1 0h2m1 0h3m1 0h4m4 0h2m2 0h1m3 0h1m2 0h2m1 0h4m1 0h2m1 0h1m1 0h3m1 0h1m8 0h1m1 0h6m3 0h2m1 0h3m1 0h1m1 0h2m1 0h2m1 0h2m4 0h1M9 58.5h2m1 0h3m1 0h1m1 0h1m3 0h2m1 0h1m3 0h1m2 0h1m1 0h1m4 0h1m3 0h1m2 0h1m1 0h10m4 0h1m2 0h1m2 0h1m3 0h4m1 0h2m1 0h4m1 0h4m1 0h2m1 0h3m1 0h1m1 0h1m2 0h1m1 0h1m1 0h1m1 0h1M7 59.5h2m2 0h1m1 0h1m4 0h1m1 0h1m1 0h2m1 0h2m2 0h2m1 0h1m2 0h1m1 0h2m2 0h1m1 0h1m1 0h1m1 0h4m2 0h2m1 0h1m1 0h1m2 0h2m3 0h2m5 0h2m1 0h1m2 0h1m1 0h2m4 0h1m5 0h2m1 0h1m1 0h1m2 0h2m1 0h1m3 0h1M5 60.5h1m2 0h1m1 0h2m2 0h2m1 0h2m2 0h1m1 0h2m1 0h1m1 0h3m1 0h2m2 0h8m1 0h1m1 0h1m1 0h1m1 0h3m2 0h1m1 0h2m1 0h1m1 0h2m6 0h2m1 0h1m3 0h1m2 0h2m1 0h1m1 0h1m1 0h3m1 0h2m1 0h3m1 0h2m1 0h2m1 0h1M4 61.5h1m6 0h1m6 0h3m1 0h1m1 0h2m2 0h3m1 0h1m1 0h1m1 0h2m1 0h2m1 0h3m2 0h1m3 0h2m3 0h3m2 0h1m1 0h1m2 0h1m1 0h3m1 0h1m1 0h1m1 0h1m2 0h1m5 0h4m2 0h1m2 0h7m1 0h1m3 0h3M5 62.5h1m4 0h1m1 0h1m3 0h1m1 0h6m7 0h1m4 0h1m2 0h4m2 0h3m2 0h1m2 0h2m2 0h2m1 0h1m1 0h1m2 0h1m1 0h2m2 0h1m2 0h1m2 0h1m1 0h1m7 0h3m1 0h3m1 0h1m2 0h1m1 0h2M4 63.5h2m2 0h2m1 0h2m2 0h1m1 0h1m1 0h3m1 0h1m1 0h1m3 0h1m1 0h2m1 0h2m4 0h1m1 0h2m4 0h1m1 0h2m1 0h1m1 0h1m1 0h3m2 0h1m3 0h2m2 0h1m3 0h3m2 0h1m1 0h2m1 0h3m4 0h2m4 0h1m1 0h1m1 0h1m1 0h4m1 0h1M8 64.5h1m1 0h1m3 0h1m2 0h4m3 0h2m1 0h3m1 0h1m1 0h1m1 0h1m3 0h1m2 0h1m1 0h1m1 0h1m1 0h1m1 0h1m3 0h1m2 0h1m1 0h3m2 0h3m1 0h1m1 0h1m1 0h1m1 0h1m3 0h6m2 0h1m1 0h2m1 0h2m1 0h4m1 0h1m2 0h1m1 0h1m1 0h1m1 0h1M4 65.5h1m3 0h1m6 0h2m6 0h1m1 0h1m1 0h1m3 0h1m2 0h1m2 0h1m3 0h1m1 0h2m1 0h2m1 0h1m3 0h3m4 0h1m1 0h2m3 0h1m1 0h4m1 0h1m1 0h3m4 0h2m2 0h1m8 0h1m2 0h1m1 0h1m5 0h1M6 66.5h1m2 0h2m1 0h1m1 0h2m1 0h3m2 0h2m1 0h2m1 0h1m1 0h1m1 0h2m2 0h3m4 0h1m1 0h2m1 0h2m4 0h2m2 0h2m1 0h3m1 0h1m1 0h3m2 0h2m2 0h1m3 0h4m8 0h1m1 0h4m3 0h1m1 0h2m2 0h1M12 67.5h2m1 0h1m2 0h2m4 0h2m2 0h1m2 0h4m2 0h2m1 0h2m1 0h2m1 0h1m1 0h2m2 0h1m1 0h1m1 0h2m1 0h3m3 0h1m5 0h2m1 0h4m1 0h1m1 0h6m2 0h1m2 0h2m2 0h1m1 0h1m1 0h2m1 0h2m3 0h1M5 68.5h1m4 0h1m1 0h1m2 0h1m1 0h1m2 0h1m4 0h5m1 0h1m1 0h1m1 0h1m4 0h1m2 0h3m1 0h2m1 0h1m1 0h1m1 0h2m1 0h1m2 0h1m3 0h3m1 0h1m1 0h4m1 0h1m1 0h2m1 0h1m3 0h4m2 0h3m1 0h2m2 0h1m8 0h1M5 69.5h1m5 0h2m2 0h5m1 0h2m1 0h1m3 0h1m1 0h2m2 0h3m1 0h2m2 0h1m1 0h2m6 0h3m5 0h2m4 0h3m3 0h2m1 0h1m2 0h2m1 0h2m1 0h4m1 0h1m4 0h1m1 0h4m5 0h4M7 70.5h6m2 0h4m1 0h1m2 0h2m1 0h2m1 0h3m1 0h1m3 0h1m4 0h1m5 0h2m2 0h1m1 0h1m1 0h1m1 0h2m1 0h2m3 0h1m2 0h2m2 0h1m1 0h1m1 0h5m3 0h2m4 0h2m1 0h2m2 0h3m3 0h3M6 71.5h1m1 0h1m3 0h1m1 0h2m3 0h1m1 0h2m6 0h1m1 0h2m3 0h1m1 0h1m1 0h1m1 0h1m1 0h4m1 0h9m4 0h2m1 0h2m1 0h1m1 0h2m1 0h1m1 0h1m3 0h3m5 0h1m1 0h1m1 0h6m1 0h2m3 0h2m1 0h1m1 0h1M4 72.5h2m4 0h1m2 0h2m1 0h3m1 0h1m4 0h4m5 0h2m1 0h1m2 0h4m2 0h1m2 0h1m1 0h5m7 0h2m7 0h4m2 0h6m7 0h6m1 0h1m5 0h1m3 0h1M4 73.5h1m1 0h2m4 0h3m1 0h2m2 0h1m1 0h2m1 0h1m1 0h1m1 0h1m1 0h6m4 0h1m2 0h1m1 0h2m1 0h1m7 0h1m1 0h1m1 0h1m2 0h2m1 0h1m1 0h1m3 0h2m4 0h1m1 0h2m1 0h3m2 0h1m4 0h1m2 0h5m4 0h1m1 0h1M6 74.5h3m1 0h1m3 0h1m4 0h1m1 0h1m2 0h2m1 0h3m1 0h2m4 0h1m4 0h1m1 0h5m1 0h1m2 0h1m2 0h1m4 0h2m2 0h4m1 0h1m1 0h1m4 0h3m1 0h2m1 0h2m5 0h1m1 0h2m2 0h8M4 75.5h1m2 0h1m1 0h1m1 0h1m1 0h2m1 0h3m1 0h3m1 0h1m4 0h1m2 0h1m4 0h1m1 0h1m1 0h3m10 0h7m1 0h2m4 0h1m1 0h1m1 0h1m1 0h1m2 0h1m1 0h1m3 0h2m4 0h2m2 0h2m1 0h4m1 0h1m2 0h1m2 0h1M5 76.5h2m1 0h5m1 0h1m1 0h5m1 0h3m2 0h7m2 0h4m3 0h2m2 0h3m1 0h7m1 0h1m1 0h1m1 0h2m5 0h1m1 0h2m2 0h5m1 0h1m2 0h3m4 0h1m2 0h1m2 0h7m2 0h1M4 77.5h1m1 0h1m1 0h1m3 0h1m2 0h1m2 0h4m4 0h3m3 0h1m3 0h1m7 0h1m1 0h1m2 0h2m1 0h1m3 0h1m5 0h1m1 0h2m4 0h3m1 0h3m3 0h1m1 0h2m1 0h2m1 0h3m2 0h4m3 0h1m3 0h2m2 0h1M5 78.5h1m1 0h2m1 0h1m1 0h3m1 0h2m2 0h4m1 0h1m2 0h1m1 0h1m1 0h1m1 0h2m2 0h4m2 0h1m1 0h1m2 0h1m1 0h2m1 0h1m1 0h2m3 0h3m1 0h3m1 0h1m1 0h4m1 0h1m1 0h1m1 0h9m2 0h1m1 0h1m2 0h1m1 0h3m1 0h1m1 0h1m2 0h2M8 79.5h1m3 0h3m2 0h2m2 0h3m2 0h3m3 0h1m3 0h1m2 0h2m2 0h1m1 0h1m1 0h2m1 0h3m3 0h2m1 0h2m1 0h1m5 0h1m1 0h1m1 0h1m1 0h3m3 0h3m3 0h2m8 0h2m1 0h2m3 0h2m1 0h1M4 80.5h1m3 0h5m2 0h8m5 0h5m1 0h1m2 0h1m2 0h1m1 0h3m2 0h10m2 0h1m5 0h4m1 0h4m2 0h5m1 0h1m3 0h1m1 0h8m1 0h1m2 0h8M4 81.5h1m1 0h4m3 0h3m1 0h1m1 0h1m2 0h1m1 0h2m1 0h5m1 0h1m2 0h1m1 0h1m2 0h4m1 0h1m1 0h1m1 0h1m1 0h2m1 0h1m5 0h4m3 0h3m1 0h4m2 0h1m1 0h1m2 0h1m2 0h2m2 0h1m1 0h4m2 0h1m1 0h1m3 0h1m1 0h2M8 82.5h3m3 0h1m5 0h1m1 0h3m1 0h1m1 0h1m1 0h2m1 0h1m2 0h1m2 0h4m2 0h1m2 0h2m2 0h3m3 0h2m1 0h2m2 0h3m1 0h1m4 0h2m1 0h1m1 0h2m2 0h1m1 0h1m2 0h2m2 0h1m6 0h2m4 0h4M5 83.5h1m3 0h1m1 0h2m2 0h6m5 0h1m2 0h3m2 0h1m1 0h1m2 0h2m2 0h1m1 0h4m1 0h1m3 0h2m5 0h3m1 0h2m1 0h1m2 0h1m2 0h1m2 0h1m2 0h1m1 0h2m3 0h2m4 0h2m1 0h3m1 0h2m1 0h2m2 0h2M4 84.5h1m1 0h3m1 0h1m3 0h1m6 0h5m4 0h2m1 0h2m1 0h4m2 0h1m1 0h1m2 0h2m3 0h1m1 0h1m1 0h5m1 0h1m1 0h1m1 0h1m1 0h2m3 0h2m3 0h1m1 0h2m1 0h3m4 0h1m7 0h2m1 0h3m1 0h1m1 0h1M4 85.5h1m1 0h1m2 0h1m1 0h1m2 0h1m1 0h1m1 0h1m2 0h1m4 0h4m6 0h5m1 0h1m1 0h1m2 0h2m1 0h6m1 0h1m1 0h2m1 0h1m2 0h2m1 0h1m1 0h3m1 0h2m1 0h2m1 0h1m1 0h2m1 0h1m1 0h1m4 0h4m1 0h5m4 0h2M4 86.5h1m2 0h2m1 0h2m2 0h2m1 0h4m1 0h1m1 0h2m5 0h1m1 0h3m1 0h1m2 0h2m5 0h2m2 0h1m3 0h1m1 0h2m1 0h2m3 0h2m9 0h1m1 0h1m1 0h2m3 0h3m1 0h1m1 0h1m1 0h1m1 0h2m1 0h2m2 0h2m4 0h1M4 87.5h2m1 0h1m1 0h1m1 0h2m1 0h1m3 0h2m2 0h1m2 0h1m1 0h3m3 0h5m2 0h3m1 0h1m2 0h2m1 0h2m1 0h1m1 0h2m1 0h1m1 0h3m3 0h2m4 0h3m5 0h1m4 0h2m3 0h2m1 0h2m2 0h2m2 0h1m1 0h2m1 0h2M4 88.5h1m1 0h5m1 0h3m2 0h2m2 0h1m4 0h1m1 0h1m1 0h2m2 0h1m1 0h1m1 0h1m1 0h1m1 0h1m1 0h1m1 0h3m2 0h11m1 0h3m1 0h1m4 0h1m1 0h3m3 0h3m1 0h3m1 0h2m1 0h1m2 0h1m1 0h2m3 0h1m2 0h1m1 0h1M6 89.5h1m1 0h2m3 0h4m1 0h1m2 0h4m2 0h1m2 0h3m1 0h1m1 0h3m1 0h2m1 0h2m1 0h3m9 0h1m4 0h6m1 0h1m1 0h4m1 0h2m1 0h4m3 0h3m2 0h1m1 0h3m1 0h2m2 0h2m4 0h1M9 90.5h2m3 0h1m1 0h1m2 0h2m3 0h1m2 0h1m2 0h1m2 0h1m3 0h1m2 0h1m2 0h1m2 0h1m2 0h1m2 0h1m3 0h1m2 0h3m2 0h1m3 0h1m3 0h2m1 0h1m1 0h3m2 0h2m1 0h2m2 0h1m6 0h1m1 0h4m3 0h2m1 0h1M4 91.5h2m1 0h1m1 0h1m1 0h3m1 0h2m1 0h2m1 0h2m5 0h1m1 0h1m4 0h2m4 0h1m1 0h1m2 0h2m2 0h4m1 0h4m2 0h1m1 0h1m1 0h2m1 0h2m2 0h1m1 0h3m1 0h3m3 0h1m2 0h1m3 0h1m1 0h2m1 0h1m1 0h4m1 0h4m1 0h1M7 92.5h1m2 0h1m2 0h2m1 0h2m3 0h3m5 0h2m1 0h2m2 0h1m2 0h2m1 0h1m2 0h3m2 0h1m4 0h2m1 0h1m1 0h2m1 0h1m1 0h2m1 0h2m6 0h1m3 0h1m2 0h4m2 0h2m1 0h3m2 0h3m1 0h2m4 0h2M6 93.5h3m7 0h1m1 0h1m1 0h1m2 0h1m1 0h1m1 0h1m3 0h8m3 0h1m4 0h1m1 0h2m1 0h1m2 0h2m1 0h1m1 0h1m2 0h2m1 0h3m1 0h1m1 0h1m3 0h1m1 0h2m1 0h1m2 0h1m1 0h1m5 0h1m1 0h4m2 0h9M6 94.5h1m1 0h3m1 0h2m3 0h1m2 0h2m1 0h1m1 0h1m3 0h3m3 0h1m2 0h3m1 0h1m1 0h2m4 0h1m1 0h2m1 0h1m2 0h2m1 0h1m4 0h4m7 0h1m1 0h2m2 0h1m1 0h1m2 0h3m6 0h3m1 0h3m1 0h1m1 0h1M9 95.5h1m2 0h1m3 0h1m5 0h1m5 0h1m2 0h1m1 0h2m1 0h1m1 0h2m1 0h2m1 0h2m1 0h3m1 0h3m1 0h2m1 0h1m3 0h1m2 0h1m1 0h2m1 0h2m6 0h4m1 0h2m3 0h6m2 0h4m2 0h1m3 0h3M4 96.5h2m1 0h2m1 0h2m3 0h2m2 0h1m1 0h2m1 0h1m7 0h3m2 0h3m1 0h1m1 0h2m1 0h2m2 0h2m1 0h2m1 0h7m1 0h1m2 0h1m1 0h4m1 0h1m3 0h4m1 0h2m2 0h1m1 0h1m1 0h1m1 0h1m1 0h1m1 0h1m2 0h1m2 0h1m2 0h1m1 0h1M4 97.5h2m1 0h3m5 0h1m2 0h2m1 0h5m1 0h2m2 0h1m1 0h1m6 0h2m1 0h1m1 0h1m3 0h2m2 0h1m2 0h1m2 0h2m13 0h4m1 0h2m2 0h2m4 0h2m2 0h3m1 0h1m2 0h2m4 0h1M4 98.5h3m3 0h1m1 0h4m2 0h2m1 0h2m1 0h2m2 0h3m1 0h2m1 0h2m1 0h3m3 0h3m2 0h1m1 0h2m1 0h2m1 0h1m1 0h5m3 0h1m1 0h1m2 0h4m1 0h2m1 0h1m2 0h1m1 0h1m2 0h1m5 0h2m2 0h2m1 0h2m1 0h2m2 0h1M6 99.5h1m1 0h2m1 0h4m3 0h1m1 0h7m2 0h1m3 0h3m1 0h1m1 0h1m1 0h1m1 0h6m1 0h1m1 0h1m1 0h3m2 0h1m1 0h2m2 0h6m1 0h1m1 0h1m1 0h1m2 0h2m2 0h1m1 0h1m1 0h4m1 0h2m3 0h1m2 0h1m2 0h2m2 0h1M7 100.5h2m1 0h1m1 0h7m3 0h1m1 0h2m2 0h5m2 0h2m1 0h2m1 0h3m1 0h3m4 0h5m1 0h1m1 0h2m4 0h1m3 0h1m1 0h1m1 0h7m1 0h3m3 0h4m4 0h2m2 0h5m3 0h1M12 101.5h7m1 0h3m1 0h1m1 0h3m3 0h1m7 0h1m1 0h1m9 0h1m3 0h5m1 0h1m2 0h1m1 0h3m2 0h2m2 0h1m3 0h3m1 0h4m2 0h1m2 0h1m1 0h2m1 0h1m1 0h1m3 0h3m1 0h1M4 102.5h7m1 0h3m1 0h2m1 0h3m2 0h1m1 0h3m1 0h1m1 0h3m1 0h1m2 0h1m1 0h1m2 0h1m1 0h1m1 0h5m1 0h1m1 0h2m1 0h1m1 0h1m3 0h1m3 0h3m1 0h1m1 0h2m1 0h1m1 0h2m3 0h1m1 0h1m1 0h4m2 0h1m3 0h2m1 0h1m1 0h2m2 0h1M4 103.5h1m5 0h1m2 0h2m1 0h1m1 0h4m6 0h1m3 0h4m1 0h1m1 0h2m1 0h3m1 0h5m1 0h1m3 0h3m1 0h2m1 0h2m2 0h2m1 0h1m2 0h1m1 0h2m3 0h1m3 0h2m1 0h4m2 0h2m2 0h1m1 0h2m3 0h4M4 104.5h1m1 0h3m1 0h1m1 0h1m3 0h1m1 0h1m3 0h1m1 0h1m1 0h8m4 0h3m2 0h1m2 0h5m1 0h7m1 0h2m1 0h1m2 0h3m1 0h2m2 0h7m1 0h1m2 0h3m2 0h1m1 0h1m2 0h1m4 0h8M4 105.5h1m1 0h3m1 0h1m2 0h3m1 0h2m2 0h1m5 0h1m1 0h1m1 0h2m2 0h8m5 0h1m1 0h1m1 0h2m6 0h3m1 0h1m1 0h6m3 0h1m4 0h1m2 0h2m1 0h1m1 0h1m1 0h8m1 0h1m1 0h2m3 0h3M4 106.5h1m1 0h3m1 0h1m2 0h1m1 0h2m2 0h2m1 0h3m5 0h1m1 0h2m1 0h3m3 0h1m1 0h1m1 0h4m1 0h1m9 0h5m1 0h1m1 0h7m3 0h2m2 0h2m8 0h1m4 0h1m1 0h1m1 0h4M4 107.5h1m5 0h1m2 0h1m1 0h1m1 0h1m3 0h1m2 0h1m2 0h2m1 0h1m3 0h2m3 0h2m4 0h3m1 0h1m1 0h1m1 0h2m1 0h1m1 0h1m1 0h1m1 0h1m2 0h1m2 0h3m2 0h4m1 0h2m1 0h1m2 0h4m3 0h1m4 0h2m1 0h2m3 0h1m1 0h1M4 108.5h7m1 0h1m1 0h1m3 0h1m2 0h3m2 0h3m1 0h5m2 0h2m1 0h5m2 0h3m1 0h4m1 0h4m1 0h3m1 0h1m2 0h2m1 0h1m6 0h1m1 0h3m3 0h5m1 0h5m1 0h1m4 0h1m1 0h1m2 0h1"/></svg>
