<svg xmlns="http://www.w3.org/2000/svg" viewBox="0 0 109 109" shape-rendering="crispEdges"><path fill="#ffffff" d="M0 0h109v109H0z"/><path stroke="#000000" d="M4 4.5h7m1 0h5m2 0h2m1 0h3m1 0h2m1 0h9m1 0h1m1 0h1m1 0h2m5 0h4m4 0h1m2 0h1m2 0h5m2 0h4m1 0h1m2 0h1m4 0h1m1 0h1m1 0h1m2 0h2m1 0h2m2 0h7M4 5.5h1m5 0h1m1 0h2m2 0h1m9 0h1m3 0h1m1 0h1m5 0h3m2 0h1m3 0h1m2 0h2m3 0h1m1 0h1m4 0h3m1 0h1m3 0h5m2 0h2m1 0h1m1 0h2m4 0h1m1 0h4m4 0h1m5 0h1M4 6.5h1m1 0h3m1 0h1m5 0h2m1 0h2m4 0h3m2 0h1m2 0h1m1 0h2m1 0h2m6 0h2m2 0h3m1 0h3m2 0h1m3 0h1m2 0h1m1 0h2m2 0h1m1 0h1m1 0h3m1 0h1m1 0h2m1 0h1m2 0h3m1 0h2m1 0h1m2 0h1m1 0h3m1 0h1M4 7.5h1m1 0h3m1 0h1m2 0h3m2 0h4m1 0h1m1 0h4m1 0h1m1 0h2m1 0h1m1 0h2m3 0h1m2 0h2m2 0h2m1 0h3m1 0h2m2 0h1m3 0h3m1 0h1m1 0h1m2 0h1m3 0h1m4 0h1m2 0h1m1 0h1m1 0h1m4 0h2m2 0h1m1 0h3m1 0h1M4 8.5h1m1 0h3m1 0h1m1 0h1m3 0h1m2 0h3m1 0h3m1 0h1m1 0h7m1 0h1m4 0h1m1 0h7m1 0h5m3 0h1m2 0h1m2 0h3m1 0h1m3 0h5m1 0h3m2 0h1m2 0h1m5 0h1m1 0h1m1 0h1m1 0h3m1 0h1M4 9.5h1m5 0h1m1 0h1m3 0h2m7 0h6m3 0h3m5 0h2m1 0h1m2 0h5m3 0h1m4 0h1m1 0h1m1 0h1m1 0h1m1 0h1m1 0h1m1 0h2m3 0h1m4 0h1m6 0h2m3 0h1m2 0h1m5 0h1M4 10.5h7m1 0h1m1 0h1m1 0h1m1 0h1m1 0h1m1 0h1m1 0h1m1 0h1m1 0h1m1 0h1m1 0h1m1 0h1m1 0h1m1 0h1m1 0h1m1 0h1m1 0h1m1 0h1m1 0h1m1 0h1m1 0h1m1 0h1m1 0h1m1 0h1m1 0h1m1 0h1m1 0h1m1 0h1m1 0h1m1 0h1m1 0h1m1 0h1m1 0h1m1 0h1m1 0h1m1 0h1m1 0h1m1 0h1m1 0h1m1 0h1m1 0h1m1 0h1m1 0h1m1 0h7M12 11.5h3m2 0h4m4 0h1m1 0h2m1 0h1m3 0h2m1 0h1m1 0h1m2 0h1m4 0h1m2 0h1m1 0h1m3 0h1m1 0h5m2 0h2m1 0h3m1 0h1m1 0h1m3 0h1m3 0h1m2 0h1m1 0h4m1 0h2m1 0h2M4 12.5h3m2 0h2m1 0h1m4 0h1m3 0h3m3 0h1m1 0h8m3 0h1m2 0h1m2 0h4m2 0h5m2 0h2m1 0h1m2 0h4m3 0h13m1 0h2m3 0h4m1 0h5m2 0h2M5 13.5h1m1 0h2m3 0h3m4 0h1m1 0h1m2 0h3m1 0h1m3 0h2m1 0h1m2 0h1m1 0h2m1 0h2m2 0h1m1 0h1m2 0h3m1 0h1m1 0h2m3 0h1m4 0h2m2 0h1m2 0h3m3 0h1m2 0h1m6 0h1m4 0h1m3 0h1m1 0h1m1 0h1M4 14.5h2m2 0h1m1 0h1m1 0h1m1 0h3m2 0h1m1 0h2m3 0h1m1 0h1m1 0h1m1 0h1m1 0h2m1 0h3m1 0h1m2 0h2m2 0h1m1 0h1m4 0h3m1 0h1m3 0h7m1 0h4m1 0h1m1 0h1m1 0h3m1 0h1m1 0h1m1 0h3m2 0h1m2 0h1m1 0h1m3 0h3M4 15.5h1m1 0h1m4 0h1m2 0h2m2 0h1m1 0h1m1 0h2m3 0h1m2 0h3m2 0h2m2 0h1m1 0h2m3 0h1m1 0h1m1 0h1m1 0h4m3 0h2m1 0h2m1 0h4m1 0h2m1 0h3m4 0h1m1 0h3m3 0h1m1 0h2m3 0h2m3 0h1M6 16.5h1m1 0h3m1 0h2m2 0h2m2 0h1m1 0h3m1 0h2m1 0h3m3 0h1m1 0h1m4 0h7m1 0h1m1 0h1m1 0h3m1 0h2m1 0h2m2 0h1m1 0h1m2 0h2m9 0h1m1 0h1m1 0h1m1 0h4m2 0h3m1 0h1m2 0h4M4 17.5h5m2 0h1m1 0h1m3 0h1m4 0h2m1 0h1m1 0h5m2 0h1m1 0h1m1 0h1m3 0h2m1 0h1m2 0h2m1 0h3m4 0h1m3 0h1m1 0h4m4 0h1m3 0h2m2 0h1m3 0h3m2 0h3m1 0h3m2 0h2m4 0h1M7 18.5h1m2 0h1m1 0h3m1 0h1m1 0h2m3 0h1m1 0h1m1 0h6m1 0h1m1 0h1m1 0h4m1 0h1m2 0h4m1 0h1m4 0h4m2 0h2m2 0h1m1 0h2m1 0h2m1 0h1m1 0h1m1 0h1m2 0h1m1 0h1m2 0h3m1 0h1m2 0h1m1 0h1m1 0h3m4 0h1M7 19.5h3m1 0h3m1 0h3m2 0h1m2 0h2m2 0h3m2 0h1m1 0h1m1 0h2m1 0h2m1 0h2m2 0h1m1 0h1m3 0h3m3 0h1m1 0h3m1 0h2m1 0h2m1 0h4m1 0h1m5 0h2m4 0h2m5 0h1m2 0h2m1 0h2m1 0h1M4 20.5h1m2 0h4m2 0h2m2 0h6m1 0h4m1 0h3m4 0h1m1 0h2m4 0h1m5 0h3m5 0h1m2 0h2m2 0h2m2 0h1m2 0h2m1 0h1m1 0h1m4 0h5m2 0h1m2 0h6m3 0h1m1 0h1M4 21.5h1m1 0h4m1 0h1m3 0h1m1 0h2m2 0h2m1 0h2m1 0h3m1 0h4m2 0h1m1 0h1m1 0h2m1 0h5m4 0h1m5 0h1m1 0h1m1 0h2m2 0h1m1 0h3m1 0h1m2 0h2m1 0h1m1 0h1m1 0h1m1 0h1m2 0h1m2 0h4m2 0h2m1 0h5M10 22.5h1m1 0h3m2 0h1m2 0h1m1 0h2m1 0h7m1 0h2m2 0h1m1 0h3m2 0h3m1 0h1m1 0h1m1 0h1m1 0h4m1 0h1m1 0h3m1 0h1m2 0h2m1 0h2m1 0h2m2 0h3m2 0h1m2 0h4m5 0h2m1 0h2m1 0h1m1 0h2M4 23.5h1m1 0h2m1 0h1m2 0h4m1 0h2m1 0h1m4 0h1m10 0h4m1 0h3m1 0h4m3 0h2m2 0h2m2 0h1m1 0h1m1 0h3m3 0h1m1 0h1m1 0h2m7 0h1m3 0h2m2 0h1m2 0h2m1 0h1m1 0h2m3 0h1M5 24.5h1m2 0h3m1 0h1m1 0h4m4 0h1m4 0h7m4 0h1m3 0h1m1 0h1m1 0h2m1 0h4m5 0h3m1 0h4m1 0h1m2 0h1m1 0h1m1 0h1m3 0h2m1 0h1m5 0h5m2 0h1m2 0h2m1 0h2m1 0h1M5 25.5h1m1 0h2m2 0h3m2 0h1m8 0h1m3 0h1m2 0h1m1 0h3m1 0h2m4 0h1m1 0h1m1 0h2m2 0h2m4 0h1m1 0h1m2 0h2m5 0h1m1 0h1m3 0h2m2 0h2m1 0h3m3 0h3m2 0h2m2 0h2m1 0h1m1 0h1M4 26.5h2m2 0h3m1 0h1m2 0h1m3 0h2m1 0h4m4 0h4m1 0h1m1 0h1m2 0h2m3 0h2m1 0h2m1 0h1m1 0h2m1 0h1m2 0h1m1 0h6m1 0h3m2 0h1m2 0h2m1 0h4m1 0h2m1 0h1m2 0h2m2 0h2m4 0h1m1 0h1M4 27.5h3m1 0h1m2 0h2m1 0h4m6 0h1m1 0h1m2 0h1m1 0h2m1 0h2m1 0h1m1 0h1m2 0h2m4 0h1m3 0h1m6 0h1m1 0h1m5 0h1m1 0h3m3 0h3m1 0h1m4 0h3m1 0h1m3 0h1m1 0h1m1 0h3m2 0h3M4 28.5h1m1 0h2m2 0h1m3 0h2m1 0h2m1 0h1m3 0h2m3 0h1m1 0h1m1 0h1m1 0h2m1 0h2m2 0h5m1 0h2m2 0h1m1 0h2m2 0h1m1 0h2m3 0h1m1 0h2m2 0h1m1 0h1m2 0h1m1 0h4m1 0h1m1 0h1m2 0h1m1 0h3m2 0h3m2 0h1M4 29.5h1m1 0h4m1 0h2m1 0h1m5 0h5m3 0h1m2 0h2m4 0h2m3 0h4m1 0h1m1 0h1m2 0h1m4 0h1m1 0h1m4 0h1m1 0h2m1 0h4m2 0h1m1 0h2m1 0h1m1 0h4m5 0h1m2 0h1m1 0h2m1 0h1m1 0h1m2 0h1M4 30.5h2m1 0h6m1 0h7m5 0h9m1 0h1m2 0h1m2 0h1m1 0h1m1 0h1m3 0h7m2 0h1m1 0h1m1 0h3m1 0h2m2 0h10m1 0h1m3 0h2m1 0h1m1 0h1m1 0h2m1 0h6M4 31.5h1m2 0h2m3 0h5m1 0h3m3 0h1m5 0h1m3 0h4m1 0h3m2 0h1m1 0h1m1 0h5m3 0h2m1 0h1m2 0h1m2 0h2m2 0h1m1 0h2m1 0h1m3 0h1m1 0h1m5 0h1m3 0h3m1 0h3m3 0h2m1 0h1M4 32.5h3m1 0h1m1 0h1m1 0h3m1 0h1m1 0h2m1 0h1m2 0h2m3 0h2m1 0h1m1 0h3m1 0h4m5 0h1m2 0h1m1 0h1m1 0h1m1 0h4m1 0h4m1 0h3m1 0h5m1 0h1m1 0h3m2 0h1m3 0h1m1 0h2m1 0h1m3 0h1m1 0h1m1 0h1m1 0h2M5 33.5h1m1 0h2m3 0h2m1 0h3m2 0h3m3 0h1m1 0h1m1 0h1m3 0h1m1 0h1m2 0h1m1 0h2m6 0h1m1 0h2m3 0h3m1 0h1m1 0h1m1 0h1m1 0h1m2 0h1m1 0h1m2 0h1m3 0h1m1 0h1m3 0h1m1 0h2m4 0h3m1 0h1m3 0h1m1 0h3M4 34.5h1m3 0h6m5 0h1m1 0h1m2 0h2m1 0h2m1 0h5m3 0h1m2 0h1m2 0h2m2 0h2m2 0h6m3 0h1m1 0h2m3 0h2m3 0h6m1 0h2m2 0h4m1 0h1m6 0h8M8 35.5h2m1 0h1m1 0h3m1 0h3m2 0h1m3 0h6m2 0h5m1 0h1m1 0h2m1 0h1m1 0h1m1 0h1m1 0h1m3 0h2m2 0h1m1 0h1m1 0h2m1 0h1m2 0h1m1 0h1m1 0h2m8 0h2m4 0h1m4 0h1m2 0h1m6 0h1M4 36.5h1m1 0h2m1 0h2m2 0h1m2 0h3m1 0h6m3 0h1m2 0h1m1 0h2m1 0h1m2 0h1m2 0h8m2 0h2m1 0h5m1 0h4m1 0h2m1 0h3m3 0h1m1 0h1m1 0h5m2 0h4m3 0h1m1 0h3m1 0h2M6 37.5h4m2 0h2m10 0h3m1 0h1m2 0h1m1 0h1m1 0h2m1 0h3m3 0h6m5 0h2m1 0h1m1 0h2m1 0h1m2 0h4m3 0h1m7 0h1m5 0h2m1 0h1m2 0h1m5 0h2m1 0h3M4 38.5h1m1 0h1m3 0h1m1 0h4m2 0h1m1 0h1m1 0h1m5 0h3m4 0h3m1 0h3m1 0h1m1 0h3m2 0h1m1 0h1m1 0h2m2 0h1m1 0h2m1 0h2m1 0h2m1 0h2m2 0h1m1 0h1m2 0h1m2 0h1m2 0h1m3 0h3m2 0h4m1 0h2m1 0h1m2 0h1M4 39.5h1m2 0h1m1 0h1m2 0h3m1 0h1m1 0h1m1 0h1m7 0h4m1 0h2m1 0h1m1 0h2m2 0h2m4 0h2m1 0h1m5 0h1m1 0h1m4 0h1m1 0h6m3 0h5m2 0h2m3 0h2m1 0h1m1 0h4m1 0h1m3 0h3M5 40.5h3m2 0h3m7 0h3m2 0h5m2 0h1m1 0h1m2 0h1m1 0h1m2 0h1m1 0h1m1 0h2m2 0h1m3 0h1m1 0h3m1 0h5m1 0h7m1 0h3m1 0h1m1 0h1m1 0h1m3 0h4m3 0h4m2 0h1m2 0h2M5 41.5h2m1 0h2m1 0h1m1 0h2m1 0h1m1 0h2m3 0h1m2 0h1m4 0h2m3 0h1m1 0h2m1 0h3m2 0h2m1 0h1m3 0h2m1 0h3m2 0h1m4 0h1m2 0h1m1 0h2m3 0h2m1 0h3m1 0h1m3 0h1m2 0h1m2 0h1m1 0h1m2 0h1m1 0h2m1 0h2M5 42.5h3m1 0h2m1 0h1m3 0h3m2 0h3m2 0h1m1 0h2m4 0h1m2 0h1m1 0h1m3 0h1m1 0h1m1 0h2m1 0h2m1 0h3m1 0h1m1 0h4m1 0h2m3 0h1m1 0h1m1 0h1m1 0h1m1 0h4m1 0h4m1 0h2m3 0h2m1 0h3m1 0h3m2 0h1M6 43.5h1m2 0h1m1 0h4m2 0h3m1 0h2m2 0h3m2 0h1m2 0h1m2 0h1m1 0h2m4 0h2m4 0h1m2 0h5m1 0h1m1 0h3m2 0h3m1 0h2m1 0h7m2 0h2m1 0h2m1 0h4m1 0h1m1 0h1m4 0h4M4 44.5h4m2 0h2m5 0h4m1 0h1m3 0h2m1 0h5m2 0h1m2 0h2m1 0h1m2 0h5m1 0h2m3 0h2m1 0h2m5 0h3m1 0h1m3 0h1m5 0h5m1 0h1m1 0h5m2 0h2m1 0h1m1 0h5M5 45.5h2m2 0h1m2 0h3m4 0h1m1 0h2m5 0h1m2 0h3m1 0h3m1 0h1m2 0h1m1 0h1m1 0h1m7 0h1m2 0h1m1 0h4m5 0h3m1 0h5m4 0h1m1 0h1m3 0h5m1 0h1m1 0h1m1 0h1m1 0h1m1 0h2m1 0h1M6 46.5h3m1 0h1m3 0h3m2 0h1m1 0h4m1 0h1m4 0h1m2 0h1m1 0h1m2 0h4m1 0h3m1 0h1m1 0h1m1 0h1m1 0h1m1 0h2m3 0h2m2 0h5m1 0h2m2 0h2m3 0h1m4 0h2m1 0h1m1 0h1m1 0h1m2 0h4m2 0h2M12 47.5h1m3 0h1m1 0h1m2 0h2m5 0h1m1 0h2m1 0h1m3 0h1m2 0h1m3 0h2m2 0h1m2 0h1m1 0h2m3 0h1m2 0h1m8 0h1m2 0h2m1 0h2m1 0h2m2 0h4m3 0h1m1 0h1m1 0h1m1 0h1m5 0h2M5 48.5h1m3 0h2m1 0h4m1 0h7m2 0h1m2 0h3m2 0h1m1 0h3m1 0h1m1 0h1m8 0h2m3 0h1m1 0h1m2 0h5m1 0h1m2 0h2m2 0h2m2 0h1m2 0h2m1 0h4m1 0h1m1 0h6m1 0h1m5 0h1M7 49.5h1m3 0h3m1 0h1m2 0h1m3 0h3m1 0h1m3 0h8m3 0h1m1 0h2m2 0h1m2 0h1m1 0h1m3 0h1m2 0h1m1 0h1m1 0h2m1 0h2m4 0h2m1 0h3m2 0h1m1 0h2m1 0h1m2 0h5m6 0h2m1 0h1M4 50.5h1m2 0h1m1 0h6m1 0h3m2 0h1m1 0h4m1 0h1m2 0h1m1 0h1m1 0h2m1 0h1m1 0h3m2 0h3m6 0h2m2 0h1m4 0h7m3 0h1m1 0h1m1 0h1m2 0h1m1 0h1m1 0h1m1 0h2m2 0h2m1 0h1m5 0h6M4 51.5h1m1 0h2m1 0h1m3 0h4m1 0h1m1 0h1m5 0h1m7 0h2m2 0h4m3 0h1m1 0h2m1 0h2m1 0h1m1 0h1m4 0h2m2 0h4m3 0h1m1 0h1m2 0h2m3 0h1m2 0h1m1 0h2m4 0h3m2 0h5M5 52.5h1m1 0h12m2 0h1m1 0h2m3 0h7m1 0h2m2 0h1m1 0h3m2 0h4m1 0h5m2 0h6m1 0h1m1 0h2m1 0h2m1 0h5m6 0h3m2 0h3m1 0h8m1 0h2M5 53.5h1m1 0h2m3 0h1m4 0h1m1 0h2m5 0h1m2 0h2m3 0h5m1 0h3m1 0h1m2 0h1m1 0h1m2 0h1m3 0h1m1 0h1m2 0h1m1 0h2m1 0h1m3 0h2m1 0h2m3 0h1m5 0h2m2 0h1m4 0h1m2 0h1m3 0h1m1 0h1m1 0h1M6 54.5h3m1 0h1m1 0h1m5 0h1m5 0h1m5 0h1m1 0h1m1 0h3m1 0h2m4 0h3m1 0h1m2 0h2m1 0h1m1 0h1m2 0h1m1 0h2m1 0h1m4 0h1m1 0h4m1 0h1m1 0h3m1 0h2m1 0h5m1 0h1m2 0h1m1 0h1m1 0h1m1 0h2m2 0h1M4 55.5h1m3 0h1m3 0h5m2 0h3m1 0h2m2 0h4m3 0h4m1 0h3m3 0h1m1 0h1m4 0h1m3 0h1m4 0h2m3 0h2m3 0h4m3 0h1m2 0h1m3 0h4m1 0h2m2 0h1m1 0h1m3 0h1m2 0h1M4 56.5h1m3 0h9m1 0h1m1 0h1m2 0h1m2 0h2m1 0h10m3 0h1m1 0h3m1 0h9m1 0h2m1 0h2m2 0h1m3 0h1m4 0h7m3 0h3m1 0h2m1 0h3m2 0h5m2 0h1M4 57.5h1m3 0h1m2 0h6m2 0h1m3 0h2m2 0h5m3 0h1m5 0h1m3 0h1m1 0h2m2 0h2m1 0h3m2 0h3m2 0h1m3 0h1m1 0h2m4 0h1m3 0h1m1 0h2m1 0h1m1 0h1m1 0h2m1 0h1m1 0h3m2 0h1m2 0h2M10 58.5h1m1 0h2m1 0h3m2 0h1m1 0h6m1 0h2m3 0h2m2 0h4m2 0h3m1 0h2m1 0h1m6 0h5m2 0h1m3 0h2m4 0h1m2 0h1m3 0h2m1 0h1m1 0h1m1 0h4m3 0h1m2 0h2M5 59.5h1m1 0h1m4 0h4m4 0h1m2 0h1m1 0h1m2 0h1m5 0h1m1 0h2m5 0h1m1 0h5m2 0h1m3 0h3m1 0h1m1 0h1m3 0h3m3 0h2m2 0h1m1 0h3m3 0h1m2 0h1m1 0h1m1 0h1m1 0h3m2 0h1m1 0h5M5 60.5h2m1 0h4m2 0h1m3 0h1m1 0h4m1 0h1m1 0h3m1 0h1m1 0h1m2 0h2m2 0h1m2 0h1m4 0h2m2 0h2m2 0h2m3 0h1m1 0h3m1 0h1m1 0h2m4 0h1m1 0h2m2 0h2m1 0h1m6 0h1m10 0h2M5 61.5h2m1 0h2m3 0h2m1 0h2m5 0h1m3 0h1m3 0h1m1 0h1m1 0h1m1 0h2m3 0h2m1 0h1m1 0h2m2 0h1m1 0h2m2 0h1m3 0h1m1 0h2m3 0h4m2 0h1m1 0h2m3 0h2m4 0h2m2 0h1m1 0h3m1 0h6m1 0h1M7 62.5h2m1 0h1m1 0h2m1 0h1m1 0h1m2 0h1m1 0h1m3 0h1m1 0h1m1 0h3m3 0h2m3 0h2m2 0h1m1 0h5m1 0h1m3 0h1m4 0h2m1 0h3m1 0h1m1 0h2m1 0h7m1 0h1m1 0h1m1 0h1m1 0h2m1 0h1m2 0h2m4 0h3m1 0h1M4 63.5h1m1 0h1m5 0h1m1 0h1m4 0h7m1 0h1m1 0h1m3 0h4m4 0h1m1 0h4m1 0h2m3 0h2m3 0h1m1 0h2m2 0h2m2 0h3m4 0h2m4 0h2m1 0h3m3 0h2m1 0h4m1 0h1m2 0h1m2 0h1M6 64.5h1m3 0h2m5 0h3m1 0h5m1 0h6m1 0h4m2 0h7m3 0h8m2 0h1m5 0h2m2 0h1m1 0h2m1 0h1m1 0h1m3 0h1m1 0h1m1 0h1m2 0h1m1 0h1m1 0h2m2 0h6m2 0h1M5 65.5h4m2 0h1m6 0h3m1 0h2m3 0h1m1 0h1m1 0h1m9 0h1m2 0h2m1 0h2m1 0h3m2 0h1m1 0h1m3 0h1m4 0h2m4 0h1m1 0h2m1 0h1m4 0h4m1 0h1m2 0h1m1 0h2m2 0h1m6 0h1M4 66.5h1m3 0h4m2 0h4m1 0h5m1 0h2m1 0h2m1 0h3m1 0h1m5 0h1m3 0h3m2 0h1m2 0h1m1 0h3m2 0h1m3 0h4m1 0h2m1 0h2m2 0h2m1 0h5m1 0h1m1 0h2m6 0h1m3 0h1m2 0h2M4 67.5h1m2 0h1m1 0h1m5 0h7m1 0h3m3 0h1m2 0h4m1 0h1m1 0h1m2 0h3m2 0h3m3 0h1m1 0h1m1 0h1m1 0h2m4 0h3m1 0h4m1 0h1m1 0h2m1 0h2m1 0h1m1 0h1m1 0h1m3 0h7m2 0h3M4 68.5h1m1 0h3m1 0h1m3 0h2m1 0h1m2 0h2m4 0h2m1 0h1m1 0h3m7 0h1m4 0h3m1 0h3m2 0h1m1 0h1m2 0h1m1 0h1m1 0h1m2 0h5m1 0h1m2 0h3m3 0h1m2 0h3m1 0h1m1 0h3m5 0h1m1 0h1m1 0h2M9 69.5h1m1 0h1m2 0h1m1 0h2m4 0h1m1 0h2m1 0h2m1 0h1m3 0h1m1 0h1m1 0h2m1 0h1m3 0h1m1 0h1m1 0h1m1 0h2m3 0h1m1 0h2m1 0h2m1 0h1m1 0h1m1 0h1m3 0h1m2 0h3m3 0h1m2 0h1m4 0h1m1 0h2m2 0h1m2 0h1m2 0h2M4 70.5h4m2 0h5m1 0h1m1 0h1m1 0h2m3 0h1m1 0h1m1 0h1m1 0h3m5 0h2m1 0h1m1 0h1m3 0h2m2 0h4m1 0h1m3 0h2m3 0h4m2 0h1m2 0h1m3 0h1m1 0h2m1 0h1m3 0h1m1 0h4m2 0h4m1 0h4M5 71.5h1m5 0h1m1 0h1m2 0h2m1 0h1m8 0h1m1 0h2m1 0h2m1 0h2m1 0h2m1 0h1m1 0h2m3 0h7m1 0h2m1 0h3m3 0h1m1 0h1m1 0h1m4 0h2m2 0h1m4 0h1m2 0h2m1 0h2m1 0h1m1 0h2m1 0h1m2 0h2M4 72.5h1m1 0h2m1 0h2m1 0h1m3 0h2m1 0h1m1 0h7m1 0h1m4 0h2m1 0h1m4 0h1m1 0h1m1 0h7m1 0h1m1 0h2m1 0h4m1 0h4m2 0h4m1 0h2m3 0h1m2 0h1m2 0h2m1 0h2m5 0h3m1 0h5M5 73.5h1m1 0h1m3 0h3m1 0h3m4 0h1m2 0h1m1 0h1m5 0h1m2 0h1m1 0h1m1 0h6m4 0h4m1 0h1m2 0h3m1 0h2m1 0h2m1 0h2m2 0h2m5 0h1m1 0h1m2 0h1m1 0h1m1 0h1m3 0h1m1 0h1m3 0h3m1 0h1M7 74.5h9m1 0h3m2 0h3m1 0h2m1 0h6m1 0h4m3 0h4m2 0h2m1 0h7m1 0h1m1 0h2m2 0h1m1 0h2m3 0h7m1 0h3m1 0h2m1 0h3m1 0h2m2 0h7m1 0h1M7 75.5h2m3 0h2m5 0h4m1 0h3m1 0h3m3 0h3m1 0h1m1 0h1m6 0h2m1 0h1m1 0h1m3 0h2m3 0h3m1 0h5m4 0h1m3 0h1m1 0h1m2 0h1m3 0h1m1 0h2m4 0h2m3 0h3m1 0h1M5 76.5h2m1 0h1m1 0h1m1 0h3m2 0h1m1 0h1m4 0h2m2 0h3m1 0h1m1 0h1m2 0h3m1 0h1m1 0h1m3 0h3m2 0h1m1 0h1m1 0h3m1 0h1m5 0h1m1 0h5m1 0h1m1 0h1m1 0h3m1 0h1m1 0h1m1 0h4m2 0h1m1 0h1m1 0h1m1 0h1m1 0h2m2 0h1M7 77.5h2m3 0h1m6 0h1m2 0h2m6 0h1m3 0h5m1 0h5m1 0h1m5 0h1m3 0h3m1 0h1m2 0h2m1 0h1m2 0h1m4 0h1m3 0h1m4 0h1m1 0h1m1 0h2m3 0h5m3 0h4M5 78.5h8m2 0h1m2 0h4m1 0h2m5 0h5m2 0h3m3 0h1m1 0h1m1 0h3m1 0h7m3 0h2m1 0h1m1 0h2m3 0h2m1 0h7m1 0h2m3 0h1m1 0h3m2 0h1m1 0h6m1 0h2M4 79.5h1m1 0h1m1 0h1m6 0h3m1 0h7m5 0h1m4 0h1m1 0h2m1 0h3m5 0h1m2 0h1m1 0h3m1 0h2m2 0h5m1 0h3m1 0h2m1 0h2m4 0h2m2 0h3m1 0h1m1 0h1m1 0h1m3 0h4m1 0h1M4 80.5h1m5 0h4m2 0h1m2 0h1m2 0h1m1 0h3m1 0h1m1 0h2m2 0h3m2 0h2m1 0h3m3 0h4m1 0h1m1 0h2m1 0h2m2 0h3m1 0h6m2 0h1m4 0h2m2 0h2m1 0h1m1 0h1m1 0h1m1 0h1m1 0h1m2 0h1m3 0h1M4 81.5h5m3 0h1m1 0h1m1 0h4m1 0h1m2 0h2m4 0h1m1 0h2m1 0h1m1 0h1m1 0h1m3 0h1m3 0h1m4 0h1m1 0h1m2 0h2m1 0h2m1 0h2m3 0h1m1 0h1m1 0h3m2 0h1m2 0h2m1 0h2m1 0h3m6 0h3m5 0h1M9 82.5h5m1 0h1m2 0h2m2 0h1m2 0h1m1 0h5m1 0h3m1 0h2m2 0h2m1 0h2m2 0h1m1 0h3m1 0h3m1 0h3m4 0h1m2 0h2m1 0h2m2 0h5m2 0h1m2 0h1m1 0h1m4 0h3m1 0h2m2 0h1m3 0h1M4 83.5h2m1 0h2m2 0h1m5 0h1m4 0h1m1 0h1m2 0h4m2 0h1m1 0h1m3 0h3m2 0h1m4 0h2m6 0h1m1 0h2m1 0h3m3 0h2m1 0h1m6 0h3m1 0h3m1 0h1m1 0h6m2 0h2m1 0h2M8 84.5h1m1 0h2m2 0h1m3 0h10m1 0h1m1 0h1m3 0h6m1 0h1m3 0h1m1 0h1m3 0h1m1 0h1m2 0h5m2 0h1m1 0h2m1 0h2m1 0h1m2 0h5m2 0h1m1 0h4m1 0h3m12 0h1M4 85.5h1m1 0h2m3 0h3m3 0h2m1 0h2m1 0h1m1 0h1m1 0h2m1 0h2m1 0h1m3 0h1m3 0h1m1 0h5m4 0h1m2 0h2m1 0h3m1 0h2m1 0h1m3 0h1m1 0h1m5 0h1m2 0h1m1 0h1m1 0h1m1 0h2m1 0h1m3 0h1m4 0h2m1 0h1m1 0h1M5 86.5h2m2 0h2m1 0h3m1 0h2m1 0h1m1 0h1m2 0h3m1 0h6m1 0h1m1 0h1m1 0h6m1 0h1m1 0h1m1 0h2m2 0h1m2 0h1m3 0h1m1 0h1m1 0h1m1 0h2m1 0h2m1 0h1m2 0h3m2 0h1m4 0h1m4 0h3m1 0h2m3 0h1m1 0h3M4 87.5h1m2 0h1m6 0h1m2 0h1m1 0h1m2 0h2m1 0h1m2 0h2m2 0h1m1 0h1m1 0h1m3 0h1m2 0h1m1 0h2m1 0h1m2 0h1m2 0h4m2 0h5m2 0h1m4 0h2m1 0h1m1 0h3m8 0h2m1 0h3m3 0h2m1 0h4M4 88.5h1m3 0h4m3 0h1m2 0h1m1 0h7m2 0h2m4 0h1m5 0h2m1 0h6m3 0h1m1 0h3m2 0h5m3 0h2m4 0h3m1 0h1m1 0h1m1 0h2m1 0h5m3 0h2m3 0h2M6 89.5h1m4 0h2m1 0h1m1 0h1m1 0h1m2 0h1m3 0h4m3 0h1m1 0h2m3 0h2m5 0h1m1 0h2m2 0h1m1 0h5m5 0h1m2 0h1m1 0h1m2 0h1m3 0h4m4 0h3m1 0h1m4 0h1m2 0h1m1 0h1M5 90.5h1m1 0h1m1 0h2m1 0h5m4 0h1m4 0h2m1 0h3m4 0h1m3 0h1m2 0h1m6 0h2m3 0h1m1 0h5m1 0h1m1 0h1m1 0h1m1 0h1m2 0h2m1 0h1m1 0h2m1 0h6m1 0h1m1 0h2m1 0h1m1 0h2m1 0h3m1 0h2m1 0h1M7 91.5h2m3 0h1m2 0h1m1 0h1m7 0h1m2 0h1m1 0h1m1 0h1m1 0h1m1 0h2m2 0h3m4 0h1m4 0h1m1 0h5m2 0h2m3 0h2m1 0h1m4 0h1m4 0h2m1 0h3m5 0h2m4 0h2m2 0h2m1 0h2M4 92.5h5m1 0h3m2 0h1m2 0h1m1 0h1m3 0h1m1 0h1m2 0h2m2 0h1m4 0h3m1 0h3m3 0h4m1 0h1m1 0h1m1 0h6m1 0h3m1 0h5m4 0h2m1 0h1m1 0h1m2 0h1m1 0h2m2 0h1m1 0h8m2 0h1M6 93.5h1m2 0h1m1 0h1m2 0h3m1 0h1m4 0h2m4 0h3m5 0h1m1 0h1m3 0h2m2 0h1m4 0h1m2 0h1m7 0h1m4 0h1m2 0h5m1 0h1m3 0h1m2 0h1m1 0h1m1 0h1m2 0h1m1 0h1m1 0h1m1 0h4m1 0h1M4 94.5h1m2 0h2m1 0h1m1 0h2m1 0h1m1 0h2m6 0h2m1 0h2m2 0h1m1 0h2m1 0h1m1 0h1m2 0h3m4 0h1m1 0h1m3 0h1m1 0h2m2 0h2m1 0h3m1 0h1m4 0h1m1 0h1m1 0h2m1 0h1m1 0h2m2 0h4m1 0h2m3 0h3m1 0h4M4 95.5h1m1 0h2m1 0h1m2 0h1m1 0h1m1 0h1m1 0h1m3 0h3m1 0h1m1 0h4m2 0h1m1 0h1m2 0h3m1 0h1m2 0h1m1 0h2m4 0h2m3 0h4m1 0h1m1 0h2m2 0h1m3 0h3m1 0h1m2 0h4m4 0h1m4 0h1m1 0h1m1 0h3m1 0h1M8 96.5h1m1 0h1m1 0h9m1 0h1m1 0h3m2 0h9m2 0h2m1 0h2m1 0h1m2 0h1m1 0h6m1 0h1m1 0h3m1 0h2m4 0h1m3 0h5m1 0h2m1 0h2m3 0h1m1 0h1m1 0h1m1 0h11M12 97.5h1m1 0h1m2 0h1m1 0h1m6 0h1m3 0h1m3 0h1m1 0h3m1 0h1m2 0h1m2 0h1m1 0h2m2 0h1m3 0h2m2 0h6m1 0h2m1 0h1m2 0h2m3 0h4m3 0h1m1 0h2m1 0h2m2 0h1m1 0h1m3 0h2m2 0h1M4 98.5h7m2 0h3m3 0h3m3 0h1m1 0h2m1 0h1m1 0h1m1 0h1m2 0h2m1 0h2m1 0h3m1 0h2m2 0h2m1 0h1m1 0h1m1 0h3m1 0h1m3 0h1m2 0h1m1 0h2m1 0h1m1 0h1m1 0h2m2 0h7m4 0h1m2 0h1m1 0h1m1 0h1m1 0h3M4 99.5h1m5 0h1m1 0h1m4 0h2m1 0h3m2 0h2m2 0h2m3 0h1m3 0h1m5 0h1m2 0h2m1 0h3m3 0h2m1 0h5m1 0h5m4 0h1m3 0h3m1 0h2m1 0h2m4 0h1m3 0h2m3 0h1m1 0h1M4 100.5h1m1 0h3m1 0h1m6 0h2m1 0h1m1 0h1m1 0h1m2 0h1m1 0h7m3 0h1m3 0h1m5 0h1m1 0h7m1 0h2m1 0h3m1 0h2m1 0h2m1 0h1m1 0h7m4 0h2m1 0h2m2 0h1m3 0h7m1 0h1M4 101.5h1m1 0h3m1 0h1m3 0h2m1 0h2m1 0h1m1 0h3m1 0h1m2 0h1m1 0h1m2 0h1m1 0h1m2 0h1m1 0h1m2 0h1m1 0h1m2 0h1m2 0h1m1 0h2m1 0h1m2 0h1m3 0h1m3 0h3m6 0h4m5 0h2m1 0h2m4 0h2m2 0h1m1 0h1M4 102.5h1m1 0h3m1 0h1m1 0h1m4 0h6m1 0h1m4 0h2m5 0h1m1 0h2m1 0h1m4 0h1m3 0h1m1 0h1m1 0h2m2 0h1m1 0h1m1 0h2m1 0h1m1 0h2m2 0h3m2 0h4m2 0h2m1 0h1m3 0h1m2 0h2m1 0h2m2 0h1m1 0h1m1 0h2M4 103.5h1m5 0h1m1 0h4m3 0h1m4 0h1m4 0h1m2 0h4m2 0h1m1 0h1m1 0h1m3 0h1m1 0h1m1 0h2m3 0h2m1 0h1m1 0h1m2 0h5m2 0h1m3 0h1m1 0h2m1 0h2m1 0h1m2 0h2m2 0h1m3 0h1m5 0h4M4 104.5h7m1 0h1m1 0h7m4 0h2m1 0h1m1 0h5m1 0h2m1 0h5m2 0h6m1 0h4m1 0h6m1 0h1m1 0h1m1 0h1m2 0h1m1 0h1m2 0h4m3 0h1m1 0h3m3 0h2m1 0h3m1 0h1m4 0h1"/></svg>
