<svg xmlns="http://www.w3.org/2000/svg" viewBox="0 0 113 113" shape-rendering="crispEdges"><path fill="#ffffff" d="M0 0h113v113H0z"/><path stroke="#000000" d="M4 4.5h7m1 0h2m2 0h6m2 0h4m2 0h1m1 0h4m1 0h1m1 0h1m1 0h2m3 0h1m1 0h1m3 0h2m1 0h3m1 0h3m2 0h1m2 0h1m3 0h1m1 0h3m1 0h4m3 0h1m1 0h1m4 0h1m2 0h1m3 0h1m3 0h7M4 5.5h1m5 0h1m2 0h2m3 0h3m3 0h4m1 0h1m3 0h1m2 0h1m3 0h6m2 0h1m2 0h3m1 0h3m1 0h2m1 0h2m2 0h2m1 0h1m1 0h4m3 0h4m1 0h1m9 0h1m1 0h1m2 0h1m3 0h1m5 0h1M4 6.5h1m1 0h3m1 0h1m1 0h12m2 0h3m1 0h1m2 0h2m1 0h1m2 0h2m1 0h1m1 0h2m2 0h4m2 0h1m4 0h1m6 0h1m4 0h1m2 0h2m1 0h2m1 0h1m1 0h4m3 0h1m1 0h3m1 0h2m1 0h2m2 0h1m1 0h3m1 0h1M4 7.5h1m1 0h3m1 0h1m1 0h2m11 0h1m1 0h1m3 0h1m4 0h1m5 0h2m1 0h3m1 0h2m3 0h1m3 0h2m6 0h3m1 0h1m1 0h1m3 0h3m6 0h2m1 0h1m1 0h1m2 0h5m2 0h1m1 0h1m1 0h3m1 0h1M4 8.5h1m1 0h3m1 0h1m1 0h3m1 0h1m2 0h2m1 0h1m2 0h9m1 0h1m1 0h4m1 0h2m1 0h4m1 0h7m3 0h1m4 0h1m4 0h2m2 0h8m1 0h2m4 0h1m1 0h1m3 0h3m1 0h2m1 0h1m1 0h3m1 0h1M4 9.5h1m5 0h1m2 0h1m1 0h1m1 0h4m1 0h3m1 0h3m3 0h3m1 0h1m1 0h1m3 0h1m4 0h1m2 0h1m1 0h1m3 0h1m1 0h3m1 0h1m1 0h1m2 0h3m4 0h3m3 0h3m1 0h1m1 0h1m1 0h1m1 0h1m1 0h2m5 0h1m2 0h1m5 0h1M4 10.5h7m1 0h1m1 0h1m1 0h1m1 0h1m1 0h1m1 0h1m1 0h1m1 0h1m1 0h1m1 0h1m1 0h1m1 0h1m1 0h1m1 0h1m1 0h1m1 0h1m1 0h1m1 0h1m1 0h1m1 0h1m1 0h1m1 0h1m1 0h1m1 0h1m1 0h1m1 0h1m1 0h1m1 0h1m1 0h1m1 0h1m1 0h1m1 0h1m1 0h1m1 0h1m1 0h1m1 0h1m1 0h1m1 0h1m1 0h1m1 0h1m1 0h1m1 0h1m1 0h1m1 0h1m1 0h1m1 0h7M14 11.5h1m1 0h3m2 0h1m3 0h1m1 0h2m3 0h1m1 0h2m1 0h1m1 0h1m3 0h3m1 0h1m1 0h1m1 0h2m3 0h1m1 0h2m6 0h1m1 0h1m2 0h1m2 0h3m3 0h2m9 0h4m3 0h2M4 12.5h4m2 0h1m1 0h1m1 0h5m2 0h1m1 0h4m1 0h5m6 0h3m1 0h2m4 0h1m2 0h5m1 0h2m2 0h5m2 0h2m5 0h5m3 0h2m2 0h3m4 0h4m1 0h2m2 0h3m1 0h1M4 13.5h3m1 0h2m1 0h1m1 0h8m1 0h2m1 0h2m2 0h3m1 0h1m1 0h4m2 0h2m2 0h5m1 0h1m2 0h2m1 0h1m1 0h3m3 0h1m1 0h1m3 0h1m1 0h1m1 0h2m1 0h5m4 0h3m1 0h2m1 0h1m1 0h1m1 0h4m1 0h2m1 0h1M5 14.5h2m3 0h1m1 0h1m1 0h1m2 0h3m1 0h2m2 0h2m2 0h3m1 0h1m4 0h2m2 0h1m2 0h1m1 0h1m1 0h6m6 0h1m3 0h1m1 0h1m2 0h1m1 0h1m2 0h3m6 0h2m2 0h5m1 0h1m3 0h2m1 0h1m1 0h2m2 0h1M4 15.5h3m2 0h1m2 0h1m9 0h1m1 0h2m3 0h1m2 0h1m2 0h3m1 0h2m2 0h1m1 0h1m2 0h1m1 0h6m1 0h1m1 0h1m2 0h1m2 0h2m5 0h1m4 0h2m1 0h3m1 0h2m1 0h1m1 0h1m3 0h1m5 0h1m3 0h1m3 0h1M4 16.5h1m1 0h1m1 0h1m1 0h1m2 0h1m2 0h3m2 0h1m4 0h1m1 0h1m1 0h1m2 0h3m1 0h1m4 0h1m1 0h1m1 0h2m4 0h1m1 0h4m5 0h2m2 0h1m1 0h1m2 0h2m1 0h1m1 0h1m1 0h3m2 0h1m1 0h3m2 0h1m1 0h2m3 0h4m1 0h4m1 0h1M5 17.5h1m3 0h1m1 0h1m2 0h2m2 0h4m2 0h1m4 0h2m2 0h5m2 0h3m1 0h1m1 0h1m1 0h1m2 0h1m1 0h5m2 0h1m1 0h2m1 0h1m3 0h1m3 0h2m3 0h4m1 0h2m2 0h4m1 0h1m2 0h2m2 0h2m2 0h6M4 18.5h2m2 0h3m3 0h3m7 0h1m1 0h1m1 0h1m1 0h1m2 0h2m1 0h3m1 0h7m1 0h4m6 0h1m1 0h3m2 0h1m2 0h1m2 0h1m1 0h2m1 0h2m1 0h1m1 0h2m4 0h1m1 0h2m3 0h8m1 0h1m1 0h3M11 19.5h2m2 0h3m2 0h1m1 0h2m1 0h1m2 0h5m1 0h1m7 0h3m2 0h1m2 0h2m1 0h2m3 0h1m3 0h6m2 0h1m2 0h1m1 0h5m1 0h3m1 0h1m2 0h1m2 0h2m2 0h1m1 0h1m2 0h3m5 0h1M4 20.5h2m4 0h1m2 0h2m2 0h6m3 0h4m3 0h2m1 0h2m4 0h2m3 0h1m1 0h2m2 0h4m2 0h3m3 0h1m2 0h6m5 0h2m2 0h3m5 0h2m3 0h1m1 0h1m5 0h2M4 21.5h1m2 0h1m1 0h1m1 0h1m4 0h1m2 0h8m1 0h1m1 0h1m2 0h1m1 0h2m7 0h2m3 0h1m1 0h1m6 0h1m1 0h1m3 0h5m1 0h1m1 0h4m2 0h1m1 0h2m1 0h1m1 0h1m2 0h4m2 0h1m1 0h2m1 0h4m4 0h1M6 22.5h5m1 0h1m3 0h1m6 0h3m1 0h1m1 0h1m1 0h1m1 0h1m1 0h2m1 0h3m2 0h1m1 0h1m2 0h2m2 0h4m3 0h1m2 0h1m1 0h3m4 0h4m1 0h1m2 0h3m1 0h1m1 0h2m1 0h1m3 0h1m1 0h2m5 0h1m1 0h6M4 23.5h6m4 0h1m6 0h2m4 0h1m3 0h1m1 0h1m2 0h1m1 0h1m1 0h5m1 0h2m3 0h1m1 0h1m3 0h1m1 0h3m2 0h1m1 0h1m6 0h1m3 0h2m1 0h1m1 0h1m1 0h2m1 0h3m2 0h3m5 0h1m2 0h1m1 0h1m1 0h2M5 24.5h12m1 0h2m2 0h2m2 0h1m4 0h5m1 0h1m2 0h1m7 0h1m2 0h1m4 0h1m1 0h2m1 0h1m1 0h1m3 0h2m2 0h1m2 0h2m5 0h1m1 0h1m2 0h1m2 0h2m1 0h1m3 0h2m1 0h1m4 0h1m1 0h2M4 25.5h2m2 0h1m3 0h4m2 0h1m2 0h4m1 0h3m1 0h1m1 0h1m1 0h2m8 0h2m3 0h3m2 0h2m1 0h1m1 0h2m5 0h2m1 0h1m3 0h1m1 0h3m3 0h1m11 0h2m1 0h4m1 0h2m1 0h1m1 0h1m1 0h1M5 26.5h1m2 0h1m1 0h2m1 0h1m2 0h4m1 0h1m3 0h2m3 0h2m1 0h2m1 0h1m3 0h5m1 0h2m2 0h1m2 0h3m1 0h2m3 0h1m2 0h1m5 0h1m2 0h1m2 0h3m1 0h1m1 0h3m1 0h1m1 0h2m1 0h2m1 0h2m1 0h1m1 0h1m5 0h1m1 0h1M4 27.5h3m7 0h3m1 0h1m2 0h6m4 0h2m7 0h8m2 0h2m1 0h1m2 0h1m1 0h3m1 0h7m3 0h1m4 0h7m2 0h1m1 0h1m1 0h3m1 0h3m1 0h2m3 0h1m1 0h1m1 0h2M4 28.5h10m2 0h1m1 0h2m2 0h1m5 0h5m1 0h2m1 0h1m2 0h1m1 0h1m1 0h1m3 0h2m2 0h5m1 0h1m1 0h1m1 0h1m1 0h1m1 0h1m1 0h1m2 0h1m3 0h7m1 0h1m1 0h1m2 0h1m1 0h2m1 0h1m1 0h1m2 0h7M5 29.5h2m1 0h1m3 0h2m1 0h3m1 0h1m1 0h1m4 0h3m3 0h2m3 0h1m2 0h2m1 0h1m1 0h5m1 0h2m3 0h5m1 0h4m1 0h2m3 0h1m1 0h1m1 0h1m3 0h1m1 0h2m2 0h1m2 0h1m2 0h4m3 0h2m3 0h1m2 0h1M4 30.5h1m3 0h1m1 0h1m1 0h1m1 0h1m2 0h1m2 0h2m1 0h2m2 0h2m1 0h1m1 0h1m1 0h2m2 0h1m1 0h2m1 0h1m2 0h2m1 0h1m2 0h1m1 0h1m1 0h1m1 0h1m2 0h1m1 0h1m4 0h1m1 0h1m2 0h2m1 0h1m1 0h1m1 0h1m2 0h2m1 0h1m1 0h2m5 0h2m2 0h2m1 0h1m1 0h2m1 0h2M4 31.5h1m3 0h1m3 0h1m1 0h1m8 0h1m2 0h1m1 0h1m3 0h1m6 0h1m1 0h3m1 0h5m1 0h2m3 0h1m3 0h2m4 0h1m2 0h2m2 0h1m1 0h2m3 0h2m1 0h1m1 0h1m1 0h2m6 0h6m3 0h3M5 32.5h1m1 0h7m1 0h1m1 0h4m1 0h3m3 0h5m1 0h2m2 0h1m1 0h4m1 0h1m3 0h1m2 0h6m1 0h1m1 0h1m1 0h3m1 0h1m3 0h4m1 0h6m2 0h2m2 0h3m2 0h3m1 0h8m1 0h3M5 33.5h1m8 0h1m1 0h1m1 0h1m4 0h4m1 0h1m2 0h4m1 0h1m1 0h2m1 0h2m1 0h1m1 0h1m1 0h2m1 0h3m1 0h1m7 0h1m1 0h2m1 0h4m1 0h1m5 0h1m2 0h4m2 0h2m1 0h2m1 0h3m2 0h2m2 0h1m1 0h1m2 0h1M5 34.5h1m4 0h1m1 0h2m2 0h1m1 0h1m1 0h2m3 0h1m2 0h1m1 0h1m1 0h3m7 0h1m3 0h5m5 0h1m2 0h2m2 0h1m1 0h2m1 0h4m2 0h2m1 0h4m2 0h1m5 0h1m1 0h2m1 0h2m4 0h2m1 0h3m1 0h1M4 35.5h1m2 0h1m3 0h2m4 0h1m6 0h2m1 0h1m1 0h1m2 0h1m2 0h1m1 0h1m7 0h1m2 0h4m3 0h2m1 0h1m2 0h1m7 0h2m1 0h3m1 0h3m1 0h1m6 0h1m2 0h1m1 0h3m3 0h2m1 0h3m1 0h1m1 0h2M4 36.5h1m1 0h1m2 0h2m2 0h2m1 0h3m7 0h1m1 0h3m1 0h1m3 0h1m1 0h3m5 0h1m2 0h4m3 0h4m1 0h1m3 0h5m1 0h1m1 0h2m2 0h2m1 0h7m2 0h2m1 0h2m1 0h2m3 0h1m1 0h2m2 0h3M5 37.5h1m5 0h2m1 0h1m4 0h2m1 0h2m2 0h4m1 0h4m1 0h1m1 0h7m2 0h1m2 0h1m2 0h2m4 0h6m1 0h3m1 0h4m1 0h4m3 0h1m1 0h1m3 0h1m2 0h1m2 0h4m3 0h2m2 0h1m2 0h1M6 38.5h6m1 0h3m1 0h3m3 0h2m3 0h1m2 0h1m1 0h1m2 0h1m1 0h1m4 0h1m2 0h1m2 0h6m3 0h1m4 0h5m2 0h5m1 0h5m1 0h1m1 0h2m1 0h1m1 0h6m2 0h1m4 0h1m2 0h4M8 39.5h1m3 0h2m4 0h1m2 0h1m2 0h1m4 0h1m2 0h2m3 0h1m1 0h1m1 0h1m1 0h7m5 0h2m6 0h1m1 0h4m1 0h2m1 0h4m3 0h1m1 0h1m1 0h1m8 0h3m4 0h7M5 40.5h9m2 0h3m3 0h3m2 0h4m1 0h6m1 0h1m4 0h1m2 0h2m1 0h7m1 0h2m1 0h1m1 0h2m1 0h3m1 0h2m1 0h1m3 0h2m4 0h1m1 0h1m1 0h1m1 0h1m1 0h1m1 0h1m1 0h2m2 0h2m2 0h1M6 41.5h2m3 0h1m6 0h2m5 0h1m2 0h2m4 0h4m1 0h2m1 0h1m2 0h1m1 0h1m2 0h3m1 0h3m2 0h6m2 0h1m2 0h2m1 0h1m2 0h2m1 0h3m2 0h1m3 0h1m1 0h1m5 0h1m1 0h3m3 0h1m1 0h1m1 0h1M4 42.5h1m1 0h1m2 0h2m1 0h3m1 0h1m1 0h1m4 0h8m2 0h1m6 0h5m2 0h1m1 0h1m8 0h2m8 0h4m2 0h1m1 0h3m2 0h1m1 0h1m2 0h3m1 0h1m3 0h3m3 0h4m2 0h1M4 43.5h3m1 0h2m3 0h3m4 0h3m3 0h1m1 0h3m1 0h1m6 0h1m5 0h5m6 0h1m2 0h2m3 0h1m1 0h1m2 0h1m1 0h2m3 0h4m3 0h4m1 0h2m2 0h2m1 0h1m3 0h2m1 0h1m2 0h1m1 0h1M4 44.5h1m1 0h1m1 0h5m5 0h1m1 0h1m1 0h2m1 0h1m1 0h2m1 0h3m2 0h3m1 0h1m2 0h3m8 0h2m3 0h1m8 0h5m3 0h2m1 0h4m1 0h1m2 0h4m1 0h3m1 0h2m4 0h1m2 0h1m3 0h1M7 45.5h2m2 0h6m1 0h2m3 0h4m6 0h1m1 0h1m2 0h3m1 0h3m2 0h1m2 0h4m2 0h1m3 0h7m1 0h1m2 0h1m1 0h2m4 0h1m1 0h2m1 0h2m5 0h2m5 0h1m1 0h3m4 0h2M6 46.5h1m1 0h1m1 0h3m1 0h1m3 0h1m1 0h1m1 0h2m4 0h1m3 0h1m2 0h1m3 0h2m3 0h2m2 0h6m1 0h1m1 0h1m2 0h4m1 0h1m1 0h1m3 0h2m1 0h1m1 0h2m1 0h1m2 0h2m2 0h1m1 0h3m2 0h1m2 0h3m1 0h1m2 0h2m1 0h3M6 47.5h2m5 0h4m1 0h1m1 0h7m3 0h1m2 0h4m1 0h2m1 0h2m2 0h2m5 0h2m1 0h1m2 0h4m1 0h2m1 0h1m1 0h1m3 0h1m1 0h3m1 0h1m1 0h2m1 0h2m2 0h2m1 0h1m7 0h4m1 0h4m1 0h1M4 48.5h1m3 0h1m1 0h3m1 0h2m1 0h1m3 0h2m2 0h2m1 0h1m3 0h1m1 0h1m1 0h2m1 0h1m2 0h1m1 0h3m2 0h2m1 0h2m4 0h1m1 0h1m1 0h2m10 0h1m2 0h1m1 0h2m1 0h6m3 0h2m2 0h1m1 0h7M4 49.5h1m2 0h1m5 0h1m1 0h1m2 0h3m5 0h3m5 0h1m2 0h1m1 0h1m4 0h1m4 0h3m4 0h3m2 0h1m2 0h1m1 0h2m1 0h9m1 0h4m1 0h4m3 0h1m1 0h2m2 0h6m1 0h3M4 50.5h1m1 0h2m1 0h3m1 0h1m2 0h2m1 0h1m3 0h3m1 0h1m3 0h1m1 0h3m5 0h1m1 0h2m1 0h1m3 0h1m3 0h2m2 0h2m1 0h1m1 0h1m2 0h1m2 0h1m1 0h3m1 0h2m1 0h7m3 0h7m1 0h2m1 0h3m1 0h1M4 51.5h1m1 0h3m2 0h5m9 0h2m1 0h2m1 0h3m2 0h1m1 0h1m2 0h2m1 0h1m2 0h2m2 0h1m1 0h1m1 0h2m1 0h1m2 0h1m1 0h2m1 0h1m2 0h1m3 0h3m7 0h2m1 0h1m1 0h2m2 0h1m1 0h3m2 0h1m1 0h1m1 0h1M5 52.5h1m1 0h6m2 0h4m1 0h1m1 0h1m3 0h9m2 0h5m2 0h1m1 0h1m1 0h9m1 0h1m2 0h1m4 0h3m2 0h3m2 0h6m2 0h2m5 0h1m2 0h1m2 0h9m1 0h2M4 53.5h2m1 0h2m3 0h1m1 0h1m1 0h1m1 0h2m1 0h4m3 0h1m3 0h2m3 0h3m3 0h1m2 0h1m2 0h4m3 0h1m2 0h4m1 0h1m2 0h1m1 0h2m1 0h1m1 0h3m3 0h1m1 0h1m2 0h7m3 0h1m4 0h1m3 0h2m1 0h2M4 54.5h1m3 0h1m1 0h1m1 0h1m3 0h1m1 0h1m1 0h3m3 0h1m1 0h1m1 0h1m1 0h1m2 0h2m1 0h2m1 0h1m2 0h1m1 0h1m2 0h4m1 0h1m1 0h2m1 0h1m2 0h2m2 0h1m1 0h3m1 0h1m1 0h1m1 0h1m1 0h1m1 0h1m1 0h1m3 0h1m2 0h1m1 0h1m2 0h1m1 0h1m3 0h1m1 0h1m1 0h1m1 0h2M4 55.5h1m1 0h3m3 0h4m1 0h1m1 0h2m1 0h1m2 0h4m3 0h4m1 0h1m3 0h1m3 0h1m1 0h3m2 0h1m3 0h3m1 0h5m1 0h6m3 0h2m3 0h2m1 0h1m2 0h1m1 0h1m3 0h3m1 0h2m2 0h1m3 0h1m3 0h1M4 56.5h1m3 0h7m1 0h1m1 0h1m1 0h3m1 0h2m2 0h5m2 0h1m3 0h3m2 0h6m2 0h11m3 0h1m4 0h1m1 0h1m1 0h6m1 0h1m3 0h1m1 0h1m1 0h2m1 0h3m3 0h6m1 0h2M6 57.5h1m2 0h1m1 0h2m2 0h2m3 0h6m1 0h1m1 0h1m1 0h7m3 0h2m1 0h1m2 0h2m1 0h1m5 0h2m1 0h2m1 0h1m1 0h1m3 0h2m1 0h4m2 0h2m2 0h1m6 0h4m1 0h1m1 0h1m5 0h4m2 0h1M4 58.5h1m5 0h1m2 0h4m1 0h1m4 0h1m2 0h2m2 0h1m5 0h1m2 0h1m1 0h2m2 0h2m2 0h1m1 0h1m3 0h3m3 0h4m2 0h1m3 0h1m1 0h2m1 0h1m2 0h2m2 0h2m2 0h1m2 0h2m6 0h1m3 0h1m4 0h2M4 59.5h1m1 0h1m1 0h1m2 0h2m2 0h1m1 0h3m1 0h1m3 0h4m1 0h4m2 0h2m1 0h1m2 0h1m2 0h1m3 0h1m1 0h1m2 0h1m1 0h5m1 0h2m1 0h5m2 0h1m3 0h1m3 0h1m1 0h2m3 0h1m6 0h2m1 0h1m1 0h2m1 0h5m1 0h1M4 60.5h1m3 0h1m1 0h1m4 0h1m11 0h4m1 0h1m1 0h2m1 0h1m1 0h1m1 0h1m1 0h4m1 0h1m1 0h1m4 0h2m5 0h1m1 0h1m4 0h1m1 0h1m2 0h1m1 0h5m1 0h1m3 0h1m2 0h2m3 0h2m1 0h2m8 0h1M7 61.5h1m1 0h1m1 0h4m5 0h1m1 0h1m1 0h2m1 0h4m1 0h1m1 0h2m2 0h1m1 0h2m1 0h1m5 0h1m3 0h3m2 0h8m2 0h1m3 0h1m2 0h3m3 0h1m1 0h2m1 0h2m2 0h3m3 0h1m1 0h3m1 0h1m1 0h1m2 0h2M4 62.5h2m4 0h3m4 0h1m3 0h3m1 0h1m3 0h2m1 0h5m1 0h1m1 0h1m1 0h1m1 0h1m1 0h1m3 0h2m1 0h3m5 0h1m1 0h1m2 0h1m2 0h1m2 0h1m1 0h1m2 0h2m1 0h2m3 0h1m1 0h2m1 0h1m1 0h7m2 0h5M7 63.5h1m3 0h3m1 0h2m1 0h3m2 0h1m1 0h1m3 0h1m1 0h1m1 0h1m3 0h1m3 0h1m5 0h2m4 0h1m2 0h1m1 0h1m2 0h1m3 0h1m1 0h1m2 0h2m1 0h1m1 0h4m1 0h1m1 0h1m2 0h2m2 0h4m1 0h1m1 0h2m2 0h3m2 0h1m1 0h1M4 64.5h4m1 0h3m1 0h2m1 0h5m3 0h2m2 0h2m2 0h1m1 0h2m2 0h1m1 0h1m2 0h3m1 0h1m1 0h1m1 0h2m2 0h1m3 0h1m1 0h1m1 0h1m2 0h1m4 0h1m1 0h2m1 0h1m1 0h2m5 0h3m1 0h1m1 0h1m1 0h1m1 0h3m3 0h1m5 0h2M6 65.5h2m1 0h1m2 0h1m1 0h1m1 0h3m1 0h1m1 0h1m2 0h1m2 0h2m1 0h1m2 0h3m1 0h1m4 0h3m3 0h1m1 0h4m1 0h2m1 0h1m1 0h1m2 0h1m4 0h3m1 0h2m1 0h3m1 0h2m7 0h1m1 0h1m3 0h4m4 0h3m2 0h1M5 66.5h2m3 0h2m1 0h1m1 0h1m2 0h1m2 0h1m1 0h1m1 0h3m1 0h1m2 0h3m2 0h1m2 0h2m4 0h1m4 0h3m1 0h2m2 0h2m1 0h2m2 0h6m2 0h1m2 0h3m1 0h1m2 0h1m1 0h3m1 0h2m4 0h3m1 0h1m1 0h2m1 0h4M5 67.5h3m3 0h1m1 0h3m1 0h8m2 0h1m3 0h2m1 0h4m2 0h3m1 0h1m1 0h1m2 0h2m1 0h6m2 0h1m2 0h2m1 0h1m1 0h5m1 0h4m3 0h2m1 0h1m3 0h2m3 0h2m1 0h1m3 0h1m2 0h2M4 68.5h1m2 0h4m1 0h1m2 0h3m1 0h1m4 0h1m1 0h2m1 0h2m2 0h1m2 0h2m2 0h1m1 0h1m1 0h2m1 0h5m5 0h1m3 0h1m1 0h1m1 0h4m1 0h1m3 0h1m1 0h1m2 0h1m6 0h3m2 0h2m2 0h4m2 0h1m5 0h1M7 69.5h1m3 0h2m1 0h2m4 0h10m1 0h2m2 0h1m3 0h1m1 0h1m2 0h1m2 0h1m1 0h1m3 0h1m1 0h1m1 0h2m5 0h1m1 0h2m1 0h1m2 0h2m2 0h3m2 0h1m1 0h1m3 0h1m4 0h2m2 0h1m3 0h1m3 0h1m1 0h2M4 70.5h4m1 0h2m4 0h1m4 0h4m1 0h2m3 0h1m1 0h1m1 0h5m3 0h1m1 0h1m2 0h1m1 0h7m1 0h2m2 0h2m1 0h3m4 0h1m2 0h4m1 0h1m2 0h1m4 0h1m1 0h1m3 0h1m1 0h7m1 0h1m2 0h1M13 71.5h7m3 0h1m3 0h1m4 0h5m2 0h1m2 0h2m1 0h5m3 0h3m2 0h2m3 0h2m6 0h5m2 0h1m1 0h1m1 0h1m1 0h2m1 0h2m1 0h1m3 0h2m1 0h3m2 0h1m1 0h2m2 0h1M4 72.5h1m1 0h5m1 0h1m1 0h1m5 0h5m1 0h1m5 0h3m1 0h1m2 0h2m3 0h2m5 0h2m3 0h1m2 0h1m1 0h1m1 0h2m3 0h1m1 0h1m1 0h1m1 0h3m1 0h7m2 0h1m1 0h2m4 0h3m2 0h2m2 0h1m1 0h2M4 73.5h1m2 0h2m2 0h1m1 0h1m1 0h3m2 0h3m1 0h3m1 0h1m3 0h1m2 0h1m4 0h6m1 0h4m2 0h10m1 0h1m2 0h2m1 0h1m2 0h3m2 0h2m1 0h2m2 0h1m3 0h1m1 0h2m7 0h1m2 0h2M4 74.5h1m1 0h2m2 0h2m1 0h1m1 0h1m2 0h1m2 0h4m1 0h2m3 0h1m2 0h1m2 0h1m1 0h2m3 0h3m1 0h1m4 0h2m2 0h1m1 0h1m2 0h2m1 0h1m3 0h1m1 0h2m1 0h2m2 0h2m1 0h2m1 0h1m2 0h4m1 0h1m2 0h1m6 0h1m1 0h1m3 0h1M6 75.5h1m2 0h1m1 0h2m2 0h2m5 0h1m1 0h1m1 0h2m2 0h1m1 0h1m4 0h6m4 0h2m2 0h5m1 0h1m2 0h3m1 0h3m1 0h4m1 0h1m1 0h1m1 0h1m3 0h1m1 0h1m1 0h1m3 0h1m1 0h1m1 0h1m1 0h2m4 0h4m1 0h2M4 76.5h10m3 0h1m1 0h1m1 0h1m2 0h1m3 0h5m1 0h1m1 0h1m2 0h3m4 0h1m1 0h2m2 0h5m2 0h2m3 0h2m1 0h6m1 0h1m1 0h5m1 0h3m2 0h1m3 0h1m2 0h1m1 0h1m3 0h5m1 0h3M7 77.5h2m3 0h2m1 0h1m3 0h1m1 0h2m1 0h5m3 0h3m6 0h1m2 0h2m3 0h1m1 0h2m3 0h1m3 0h2m2 0h3m2 0h2m3 0h3m3 0h1m1 0h4m3 0h1m2 0h1m6 0h2m3 0h1m2 0h1M4 78.5h2m1 0h2m1 0h1m1 0h4m1 0h3m1 0h2m1 0h2m2 0h1m1 0h1m1 0h1m2 0h1m1 0h2m3 0h1m1 0h1m2 0h1m2 0h3m1 0h1m1 0h3m2 0h1m1 0h2m2 0h2m2 0h3m1 0h2m1 0h1m1 0h1m1 0h1m4 0h2m1 0h2m2 0h2m2 0h3m1 0h1m1 0h2m1 0h1M8 79.5h1m3 0h1m4 0h3m1 0h5m2 0h1m3 0h2m1 0h4m1 0h1m3 0h4m3 0h2m3 0h3m2 0h2m2 0h1m1 0h1m2 0h1m2 0h1m1 0h2m3 0h1m3 0h1m1 0h3m2 0h1m3 0h1m3 0h2m3 0h4M5 80.5h2m1 0h5m1 0h2m1 0h6m2 0h2m1 0h5m1 0h1m2 0h1m2 0h4m2 0h1m1 0h1m3 0h6m1 0h2m1 0h1m2 0h2m4 0h2m2 0h7m1 0h2m1 0h4m1 0h3m1 0h1m2 0h7m2 0h1M6 81.5h3m2 0h7m2 0h4m7 0h1m2 0h1m1 0h3m2 0h1m2 0h1m2 0h1m1 0h1m1 0h9m1 0h1m1 0h1m1 0h2m1 0h1m2 0h1m3 0h1m2 0h1m1 0h2m1 0h2m2 0h1m2 0h2m1 0h3m1 0h3m1 0h2m1 0h2m1 0h2M4 82.5h1m2 0h1m1 0h8m1 0h1m1 0h1m1 0h1m2 0h1m1 0h2m2 0h1m1 0h3m3 0h1m1 0h1m2 0h2m2 0h5m1 0h4m1 0h1m3 0h5m1 0h1m2 0h3m2 0h4m1 0h2m5 0h1m2 0h3m1 0h2m1 0h1m1 0h2m1 0h1m2 0h1M5 83.5h1m2 0h1m3 0h1m1 0h1m2 0h1m1 0h8m2 0h3m1 0h1m3 0h1m1 0h1m1 0h2m1 0h4m1 0h1m1 0h2m3 0h1m2 0h1m1 0h1m4 0h1m1 0h3m2 0h3m2 0h1m2 0h1m1 0h3m2 0h1m2 0h1m4 0h1m3 0h1m4 0h1m2 0h1M4 84.5h4m2 0h2m3 0h1m4 0h1m1 0h1m1 0h3m1 0h1m1 0h1m1 0h1m2 0h2m2 0h2m2 0h1m3 0h1m1 0h2m2 0h1m2 0h1m1 0h2m2 0h1m4 0h4m1 0h2m2 0h1m2 0h1m2 0h5m5 0h2m1 0h2m1 0h2m2 0h2m3 0h1M5 85.5h5m2 0h6m2 0h1m2 0h1m2 0h5m1 0h3m1 0h1m1 0h1m1 0h2m1 0h5m1 0h1m4 0h2m2 0h1m2 0h1m1 0h1m2 0h2m3 0h1m3 0h3m2 0h1m1 0h3m3 0h3m2 0h1m1 0h1m2 0h1m1 0h3m3 0h1M5 86.5h2m3 0h2m2 0h1m1 0h8m4 0h3m2 0h1m2 0h2m1 0h1m2 0h4m1 0h1m2 0h2m1 0h1m2 0h1m2 0h2m7 0h1m1 0h2m1 0h1m2 0h2m6 0h1m1 0h3m4 0h3m1 0h3m2 0h1m2 0h2M4 87.5h1m1 0h1m1 0h2m2 0h3m2 0h5m2 0h2m1 0h1m1 0h1m1 0h3m1 0h1m2 0h4m2 0h2m3 0h1m4 0h2m4 0h2m6 0h1m3 0h1m1 0h2m1 0h1m1 0h1m1 0h2m2 0h1m2 0h2m2 0h1m3 0h2m1 0h1m2 0h2m1 0h4M4 88.5h1m1 0h1m2 0h2m1 0h4m1 0h4m2 0h1m3 0h3m5 0h1m1 0h1m3 0h1m4 0h7m1 0h2m6 0h3m2 0h1m4 0h1m1 0h1m1 0h2m1 0h1m5 0h2m1 0h1m1 0h2m2 0h1m7 0h2m2 0h2M6 89.5h1m2 0h1m1 0h1m4 0h2m3 0h3m4 0h1m1 0h1m1 0h2m1 0h3m2 0h1m2 0h3m2 0h1m1 0h2m1 0h1m1 0h1m2 0h1m2 0h1m1 0h1m1 0h1m4 0h1m3 0h3m1 0h3m1 0h3m1 0h2m1 0h4m2 0h1m2 0h1m4 0h1m3 0h1M5 90.5h9m1 0h1m4 0h2m3 0h1m5 0h1m2 0h2m8 0h1m1 0h2m1 0h1m1 0h1m1 0h1m3 0h2m2 0h2m2 0h4m2 0h1m4 0h1m7 0h2m1 0h1m1 0h1m1 0h1m4 0h1m3 0h2m4 0h1m1 0h1M9 91.5h1m1 0h5m1 0h1m1 0h5m2 0h4m4 0h3m1 0h1m7 0h2m2 0h1m4 0h2m3 0h3m1 0h1m4 0h1m1 0h5m2 0h2m1 0h1m1 0h2m1 0h3m5 0h1m1 0h3m2 0h5m1 0h1M4 92.5h2m1 0h1m1 0h2m2 0h5m2 0h2m1 0h3m1 0h1m2 0h1m1 0h1m3 0h2m2 0h1m1 0h2m2 0h1m1 0h1m1 0h1m2 0h1m3 0h1m1 0h1m2 0h2m1 0h1m2 0h1m1 0h2m2 0h1m1 0h2m1 0h1m2 0h1m1 0h1m4 0h2m1 0h6m1 0h1m3 0h2m1 0h3M4 93.5h2m1 0h1m6 0h3m1 0h2m3 0h1m2 0h3m2 0h5m1 0h1m2 0h1m2 0h2m2 0h1m3 0h1m1 0h2m2 0h1m1 0h2m1 0h1m2 0h2m1 0h2m1 0h2m2 0h2m3 0h2m2 0h1m1 0h2m3 0h4m2 0h1m2 0h1m1 0h1m1 0h1m2 0h2M5 94.5h3m2 0h1m1 0h6m1 0h5m2 0h1m1 0h1m1 0h2m1 0h1m1 0h3m5 0h1m1 0h3m2 0h1m1 0h1m2 0h1m9 0h2m2 0h1m2 0h1m1 0h1m4 0h2m1 0h1m2 0h3m3 0h4m1 0h2m2 0h3m2 0h1m1 0h2M5 95.5h1m7 0h3m1 0h1m2 0h5m1 0h2m1 0h1m2 0h5m2 0h9m3 0h4m2 0h1m1 0h4m3 0h1m3 0h1m1 0h1m6 0h1m5 0h2m6 0h3m1 0h2m1 0h1m2 0h2M5 96.5h2m1 0h3m3 0h1m2 0h1m1 0h3m4 0h1m5 0h1m3 0h6m8 0h3m1 0h3m1 0h2m2 0h1m3 0h7m1 0h1m1 0h1m1 0h1m1 0h1m1 0h1m1 0h8m1 0h2m1 0h1m3 0h1m4 0h1m2 0h1M4 97.5h1m2 0h1m4 0h1m1 0h1m4 0h1m4 0h1m1 0h3m4 0h1m1 0h1m1 0h1m3 0h1m2 0h1m1 0h1m3 0h1m1 0h3m4 0h1m2 0h6m3 0h3m2 0h5m1 0h2m1 0h1m3 0h4m3 0h1m1 0h1m1 0h1m1 0h1m3 0h2M4 98.5h3m3 0h2m1 0h1m1 0h4m1 0h1m2 0h2m2 0h1m4 0h1m1 0h2m2 0h1m4 0h3m1 0h1m1 0h1m3 0h5m1 0h2m2 0h1m1 0h1m4 0h4m1 0h2m1 0h1m1 0h2m1 0h1m2 0h1m2 0h2m2 0h1m1 0h1m2 0h1m1 0h1m2 0h2m1 0h1M6 99.5h1m1 0h2m1 0h2m1 0h3m2 0h2m1 0h5m2 0h2m1 0h2m1 0h1m2 0h1m5 0h1m3 0h3m1 0h1m1 0h1m1 0h6m1 0h2m3 0h1m1 0h1m2 0h4m1 0h1m1 0h2m1 0h1m1 0h2m1 0h1m1 0h1m1 0h2m1 0h4m2 0h2m1 0h1M7 100.5h2m1 0h2m1 0h1m2 0h2m1 0h1m1 0h3m4 0h6m2 0h2m1 0h3m1 0h1m4 0h1m2 0h6m1 0h1m1 0h1m1 0h3m2 0h2m4 0h2m1 0h5m1 0h1m1 0h4m7 0h3m2 0h6m1 0h2M12 101.5h2m1 0h1m1 0h4m5 0h3m3 0h3m1 0h2m1 0h1m2 0h1m1 0h1m1 0h3m1 0h1m1 0h1m3 0h2m1 0h2m1 0h1m2 0h2m2 0h1m1 0h1m3 0h2m3 0h2m3 0h1m6 0h1m1 0h1m1 0h1m1 0h3m3 0h1M4 102.5h7m2 0h2m1 0h2m2 0h1m1 0h3m3 0h1m1 0h1m1 0h2m1 0h1m2 0h5m1 0h1m2 0h1m2 0h1m1 0h1m1 0h1m1 0h1m1 0h1m2 0h1m2 0h1m1 0h3m1 0h1m5 0h1m1 0h1m1 0h5m2 0h1m1 0h1m1 0h2m1 0h2m1 0h1m2 0h1m1 0h1m1 0h2m1 0h1M4 103.5h1m5 0h1m3 0h1m4 0h1m1 0h2m2 0h1m1 0h2m3 0h4m10 0h4m2 0h1m3 0h3m1 0h2m1 0h1m1 0h2m2 0h2m3 0h1m1 0h1m3 0h1m2 0h1m1 0h2m2 0h1m1 0h2m3 0h1m3 0h1m3 0h1m2 0h2M4 104.5h1m1 0h3m1 0h1m3 0h8m1 0h1m1 0h1m2 0h5m1 0h1m2 0h2m2 0h1m1 0h1m1 0h2m2 0h1m1 0h6m1 0h3m2 0h1m2 0h2m1 0h1m1 0h2m1 0h8m2 0h1m2 0h1m1 0h3m1 0h1m2 0h1m1 0h1m1 0h5m1 0h1m1 0h1M4 105.5h1m1 0h3m1 0h1m1 0h1m1 0h1m2 0h2m1 0h1m1 0h2m1 0h3m1 0h1m1 0h1m1 0h1m4 0h3m2 0h2m3 0h1m1 0h2m1 0h1m1 0h2m5 0h2m1 0h1m1 0h1m1 0h1m1 0h1m1 0h5m1 0h2m1 0h1m1 0h3m1 0h3m2 0h1m3 0h2m1 0h2m1 0h2m1 0h2M4 106.5h1m1 0h3m1 0h1m1 0h2m4 0h1m1 0h1m1 0h2m1 0h1m1 0h3m6 0h5m1 0h2m1 0h2m3 0h4m1 0h1m2 0h3m2 0h4m3 0h1m3 0h2m1 0h1m1 0h1m3 0h2m3 0h1m3 0h2m2 0h2m1 0h4m3 0h1M4 107.5h1m5 0h1m1 0h6m2 0h1m2 0h1m2 0h1m1 0h1m1 0h1m2 0h1m11 0h2m1 0h4m2 0h6m3 0h3m4 0h1m5 0h2m3 0h1m7 0h2m3 0h1m2 0h2m3 0h3m1 0h1m1 0h1M4 108.5h7m1 0h2m2 0h2m1 0h6m1 0h1m2 0h4m2 0h1m2 0h2m6 0h3m4 0h1m3 0h2m1 0h1m4 0h4m3 0h1m4 0h1m1 0h2m1 0h1m5 0h2m3 0h2m1 0h1m1 0h3m3 0h1m1 0h1"/></svg>
