<svg xmlns="http://www.w3.org/2000/svg" viewBox="0 0 109 109" shape-rendering="crispEdges"><path fill="#ffffff" d="M0 0h109v109H0z"/><path stroke="#000000" d="M4 4.5h7m1 0h1m1 0h2m2 0h2m2 0h2m3 0h2m7 0h1m1 0h1m3 0h1m2 0h1m6 0h1m1 0h1m1 0h3m3 0h3m1 0h4m1 0h1m4 0h2m1 0h1m3 0h2m1 0h3m4 0h3m2 0h7M4 5.5h1m5 0h1m1 0h2m2 0h1m1 0h1m1 0h3m10 0h2m1 0h1m1 0h1m1 0h2m1 0h2m1 0h1m1 0h2m1 0h3m1 0h1m1 0h4m1 0h2m2 0h1m1 0h5m1 0h1m1 0h1m3 0h1m2 0h2m4 0h1m3 0h1m4 0h1m5 0h1M4 6.5h1m1 0h3m1 0h1m1 0h1m1 0h1m2 0h2m2 0h1m3 0h1m1 0h3m1 0h3m3 0h2m2 0h1m1 0h2m2 0h1m8 0h1m1 0h1m1 0h1m2 0h1m1 0h1m2 0h1m3 0h2m2 0h4m1 0h1m1 0h3m5 0h1m3 0h1m2 0h1m1 0h3m1 0h1M4 7.5h1m1 0h3m1 0h1m1 0h1m1 0h1m2 0h3m1 0h1m5 0h1m1 0h1m2 0h5m3 0h2m1 0h1m2 0h5m5 0h2m2 0h4m5 0h1m2 0h2m1 0h1m1 0h3m1 0h2m2 0h2m2 0h1m2 0h4m2 0h1m1 0h3m1 0h1M4 8.5h1m1 0h3m1 0h1m2 0h1m1 0h1m1 0h1m3 0h5m1 0h9m1 0h2m1 0h1m1 0h1m1 0h5m1 0h7m3 0h3m1 0h2m1 0h1m1 0h3m1 0h6m6 0h1m1 0h2m2 0h4m1 0h1m1 0h1m1 0h3m1 0h1M4 9.5h1m5 0h1m1 0h2m6 0h4m6 0h1m3 0h3m1 0h2m2 0h2m2 0h2m4 0h1m3 0h3m1 0h2m1 0h1m2 0h2m4 0h1m1 0h1m3 0h1m2 0h1m1 0h2m1 0h1m1 0h2m1 0h2m2 0h1m2 0h1m5 0h1M4 10.5h7m1 0h1m1 0h1m1 0h1m1 0h1m1 0h1m1 0h1m1 0h1m1 0h1m1 0h1m1 0h1m1 0h1m1 0h1m1 0h1m1 0h1m1 0h1m1 0h1m1 0h1m1 0h1m1 0h1m1 0h1m1 0h1m1 0h1m1 0h1m1 0h1m1 0h1m1 0h1m1 0h1m1 0h1m1 0h1m1 0h1m1 0h1m1 0h1m1 0h1m1 0h1m1 0h1m1 0h1m1 0h1m1 0h1m1 0h1m1 0h1m1 0h1m1 0h1m1 0h1m1 0h7M13 11.5h1m1 0h4m3 0h2m1 0h2m3 0h1m3 0h6m3 0h2m6 0h2m3 0h1m1 0h1m1 0h1m2 0h1m1 0h2m2 0h2m1 0h3m3 0h3m1 0h2m1 0h1m2 0h3m4 0h2M4 12.5h2m2 0h3m2 0h1m2 0h2m3 0h1m2 0h3m3 0h5m2 0h1m4 0h1m1 0h3m1 0h1m1 0h1m1 0h5m2 0h1m1 0h1m1 0h2m3 0h1m3 0h7m1 0h6m6 0h2m1 0h1m3 0h1m1 0h4M6 13.5h2m4 0h2m1 0h1m3 0h3m2 0h3m1 0h1m1 0h1m1 0h1m1 0h4m2 0h1m1 0h3m3 0h2m2 0h1m5 0h1m1 0h1m3 0h4m1 0h3m2 0h2m1 0h1m1 0h1m1 0h5m2 0h4m2 0h3m3 0h2m1 0h1M4 14.5h2m4 0h1m1 0h2m3 0h2m1 0h1m1 0h5m2 0h1m2 0h2m1 0h5m4 0h1m1 0h1m3 0h2m1 0h2m1 0h1m1 0h1m1 0h1m3 0h2m3 0h2m8 0h2m2 0h1m2 0h2m3 0h1m1 0h4m1 0h2m2 0h3M5 15.5h1m5 0h6m6 0h2m4 0h4m1 0h4m1 0h2m1 0h1m2 0h1m1 0h1m1 0h1m1 0h1m3 0h2m2 0h3m1 0h2m4 0h3m1 0h1m1 0h1m1 0h1m2 0h2m1 0h3m2 0h2m2 0h2m1 0h1m1 0h2m3 0h1M5 16.5h2m1 0h3m5 0h1m1 0h2m1 0h3m2 0h1m2 0h5m1 0h1m2 0h1m2 0h2m1 0h1m1 0h1m2 0h1m1 0h1m1 0h1m2 0h3m2 0h2m1 0h2m1 0h1m2 0h2m1 0h1m1 0h2m2 0h1m3 0h1m2 0h2m1 0h1m2 0h1m1 0h1m1 0h1m1 0h2m2 0h2M4 17.5h1m2 0h2m3 0h2m3 0h1m1 0h2m6 0h1m1 0h2m1 0h1m4 0h3m3 0h4m1 0h2m2 0h1m5 0h1m5 0h1m2 0h1m1 0h1m1 0h1m1 0h1m4 0h1m2 0h1m1 0h1m1 0h1m2 0h1m1 0h1m1 0h2m1 0h2m1 0h1m1 0h4M5 18.5h1m1 0h1m1 0h3m1 0h2m1 0h1m1 0h2m1 0h1m1 0h1m3 0h1m8 0h2m1 0h1m1 0h5m1 0h1m1 0h1m3 0h1m1 0h1m1 0h6m1 0h2m2 0h1m1 0h1m2 0h1m3 0h1m1 0h1m1 0h2m1 0h1m1 0h1m2 0h1m1 0h1m1 0h3m1 0h2m2 0h2m1 0h1M4 19.5h6m2 0h4m4 0h2m1 0h1m1 0h2m1 0h2m1 0h1m1 0h2m1 0h3m1 0h3m1 0h3m1 0h6m4 0h1m2 0h5m4 0h1m1 0h3m12 0h1m2 0h1m2 0h3m3 0h1m1 0h1M4 20.5h2m2 0h1m1 0h2m1 0h1m2 0h1m1 0h3m1 0h3m4 0h2m1 0h2m2 0h2m3 0h1m5 0h1m1 0h2m1 0h1m3 0h3m6 0h4m1 0h3m4 0h1m3 0h5m1 0h2m1 0h1m1 0h1m1 0h3m1 0h4M4 21.5h3m1 0h1m3 0h2m5 0h2m4 0h1m1 0h1m2 0h1m1 0h1m1 0h1m2 0h1m1 0h3m1 0h2m1 0h4m4 0h1m1 0h1m2 0h2m2 0h5m1 0h4m1 0h1m3 0h1m2 0h2m1 0h2m3 0h1m1 0h1m1 0h1m1 0h2m3 0h1m3 0h1M7 22.5h1m2 0h3m2 0h2m2 0h1m3 0h4m4 0h1m5 0h1m2 0h2m1 0h2m2 0h1m1 0h3m1 0h1m1 0h6m3 0h1m1 0h1m1 0h2m4 0h4m1 0h2m1 0h1m3 0h1m1 0h1m1 0h2m1 0h1m3 0h1m1 0h2m1 0h3M4 23.5h2m1 0h3m1 0h1m1 0h1m1 0h3m4 0h2m2 0h3m2 0h3m1 0h1m3 0h2m2 0h4m2 0h1m1 0h1m1 0h1m1 0h1m1 0h1m1 0h1m2 0h2m1 0h4m1 0h2m1 0h1m5 0h3m4 0h2m5 0h2m1 0h2m2 0h1m2 0h1M8 24.5h3m3 0h1m1 0h1m4 0h6m1 0h3m2 0h1m1 0h2m2 0h6m1 0h1m1 0h3m1 0h1m2 0h5m1 0h2m1 0h1m3 0h3m1 0h2m1 0h1m4 0h1m4 0h1m2 0h3m2 0h2m1 0h4m1 0h1m1 0h1M5 25.5h1m1 0h1m1 0h1m3 0h1m2 0h1m1 0h1m3 0h4m1 0h2m1 0h1m1 0h4m1 0h2m2 0h3m3 0h1m6 0h1m2 0h2m4 0h2m1 0h1m13 0h3m3 0h3m3 0h1m1 0h2m2 0h2m3 0h2M4 26.5h2m3 0h2m6 0h3m1 0h2m1 0h2m3 0h4m1 0h1m1 0h1m1 0h1m2 0h1m1 0h1m5 0h4m3 0h1m1 0h1m1 0h4m5 0h1m1 0h1m1 0h1m1 0h1m1 0h5m1 0h3m3 0h1m1 0h2m1 0h2m4 0h1m1 0h2M4 27.5h5m2 0h1m2 0h2m2 0h3m2 0h1m1 0h1m4 0h1m4 0h1m1 0h4m1 0h2m2 0h1m3 0h3m2 0h2m2 0h2m2 0h1m3 0h2m1 0h1m2 0h3m4 0h2m4 0h2m1 0h4m1 0h1m2 0h2m1 0h1m2 0h1M7 28.5h1m1 0h6m2 0h3m2 0h2m1 0h1m3 0h1m2 0h5m1 0h1m1 0h1m1 0h1m4 0h1m2 0h4m2 0h1m3 0h1m2 0h1m3 0h3m1 0h2m1 0h5m2 0h2m1 0h1m1 0h1m2 0h3m1 0h1m2 0h3m2 0h2M4 29.5h1m1 0h2m1 0h1m1 0h1m2 0h2m1 0h1m3 0h3m1 0h2m3 0h3m1 0h3m1 0h1m2 0h1m2 0h2m1 0h1m6 0h1m4 0h2m1 0h1m2 0h2m2 0h1m1 0h2m2 0h2m1 0h1m1 0h3m2 0h1m4 0h2m2 0h1m2 0h3m1 0h1M4 30.5h2m2 0h5m1 0h1m1 0h2m1 0h1m5 0h2m1 0h7m1 0h2m2 0h2m2 0h3m4 0h6m1 0h2m2 0h2m2 0h3m1 0h1m1 0h7m1 0h1m2 0h2m1 0h4m1 0h1m3 0h6m2 0h1M6 31.5h1m1 0h1m3 0h3m1 0h2m1 0h1m2 0h2m1 0h1m4 0h1m3 0h2m2 0h1m1 0h2m2 0h1m1 0h1m5 0h1m3 0h2m2 0h2m1 0h1m1 0h1m1 0h2m3 0h3m3 0h1m1 0h1m2 0h3m3 0h1m3 0h2m1 0h1m3 0h1m1 0h3M5 32.5h1m2 0h1m1 0h1m1 0h3m2 0h1m2 0h1m2 0h1m4 0h1m1 0h1m1 0h1m1 0h5m1 0h4m4 0h5m1 0h1m1 0h1m1 0h3m3 0h3m6 0h2m1 0h1m1 0h1m1 0h1m1 0h2m1 0h2m4 0h1m1 0h1m2 0h1m1 0h1m1 0h1m2 0h1M4 33.5h1m1 0h1m1 0h1m3 0h2m3 0h6m2 0h1m2 0h3m3 0h1m1 0h2m2 0h2m1 0h2m3 0h2m1 0h2m3 0h2m2 0h1m1 0h1m2 0h1m1 0h1m2 0h5m3 0h1m1 0h2m2 0h1m1 0h1m5 0h5m3 0h2m1 0h2M8 34.5h6m6 0h1m1 0h2m1 0h1m1 0h1m2 0h9m1 0h1m3 0h2m1 0h1m1 0h2m1 0h10m3 0h2m1 0h1m1 0h1m2 0h6m1 0h1m1 0h1m1 0h4m1 0h1m4 0h8m1 0h1M8 35.5h1m5 0h1m1 0h2m1 0h2m1 0h1m1 0h5m1 0h3m6 0h1m1 0h1m2 0h1m1 0h2m2 0h3m4 0h1m1 0h1m2 0h2m1 0h1m3 0h1m2 0h4m1 0h1m1 0h1m2 0h2m1 0h3m2 0h5m2 0h3m2 0h2M7 36.5h1m2 0h4m1 0h1m1 0h1m1 0h2m1 0h3m1 0h2m1 0h3m2 0h2m6 0h1m3 0h3m2 0h1m2 0h1m1 0h1m1 0h3m2 0h2m1 0h2m2 0h2m2 0h2m1 0h6m1 0h2m1 0h6m3 0h2m5 0h2M5 37.5h2m2 0h1m5 0h2m3 0h1m1 0h1m2 0h3m3 0h1m3 0h1m3 0h1m4 0h2m6 0h2m5 0h1m1 0h1m1 0h3m2 0h4m4 0h3m1 0h1m3 0h1m1 0h1m1 0h2m3 0h3m3 0h2m1 0h3M4 38.5h2m2 0h1m1 0h1m2 0h3m1 0h1m1 0h2m5 0h1m1 0h1m4 0h1m7 0h1m1 0h1m1 0h1m1 0h8m1 0h1m2 0h1m3 0h6m10 0h2m4 0h1m5 0h2m1 0h6m2 0h1m1 0h1M5 39.5h1m1 0h1m1 0h1m1 0h5m6 0h2m1 0h1m1 0h1m1 0h1m1 0h1m1 0h4m1 0h1m6 0h1m1 0h2m1 0h3m2 0h2m2 0h1m1 0h1m2 0h4m2 0h2m1 0h7m3 0h1m4 0h1m1 0h1m2 0h2m4 0h1m1 0h1m2 0h1M6 40.5h3m1 0h2m1 0h1m1 0h1m1 0h1m1 0h1m2 0h1m1 0h2m5 0h2m1 0h1m1 0h6m5 0h1m3 0h2m2 0h4m1 0h1m3 0h6m1 0h2m2 0h2m3 0h2m2 0h1m3 0h2m3 0h1m1 0h2m1 0h2m2 0h1m1 0h1M5 41.5h3m5 0h1m1 0h2m1 0h2m2 0h1m1 0h3m1 0h1m3 0h1m1 0h1m1 0h1m2 0h3m1 0h3m1 0h4m3 0h1m4 0h3m2 0h1m3 0h1m1 0h1m4 0h1m1 0h3m1 0h9m1 0h1m1 0h1m3 0h3m2 0h1m1 0h1M6 42.5h2m1 0h2m5 0h1m1 0h10m1 0h1m1 0h6m1 0h2m1 0h1m1 0h1m2 0h1m3 0h4m1 0h3m1 0h4m2 0h1m2 0h1m3 0h2m1 0h4m1 0h2m2 0h1m1 0h2m1 0h5m3 0h3m1 0h1m1 0h2M6 43.5h1m1 0h2m3 0h1m4 0h3m1 0h3m3 0h1m2 0h4m1 0h2m3 0h1m1 0h1m1 0h1m3 0h1m1 0h1m1 0h1m1 0h3m5 0h1m1 0h1m1 0h1m1 0h3m1 0h1m1 0h4m1 0h1m2 0h2m2 0h5m2 0h1m2 0h5M4 44.5h2m2 0h1m1 0h1m2 0h2m7 0h1m2 0h4m2 0h1m2 0h1m1 0h5m1 0h3m5 0h1m4 0h10m1 0h1m1 0h2m3 0h1m2 0h1m1 0h3m1 0h3m2 0h2m1 0h1m1 0h2m1 0h1m2 0h4M4 45.5h1m2 0h2m8 0h1m1 0h1m1 0h5m2 0h1m2 0h2m4 0h1m6 0h1m1 0h1m1 0h1m4 0h1m1 0h4m1 0h3m2 0h2m1 0h1m2 0h1m2 0h4m3 0h2m2 0h3m2 0h1m2 0h2m2 0h1m1 0h2m2 0h1M5 46.5h6m1 0h1m1 0h3m1 0h1m3 0h2m1 0h2m1 0h1m1 0h3m8 0h1m2 0h2m1 0h2m1 0h1m4 0h2m1 0h1m2 0h2m3 0h3m5 0h1m2 0h3m1 0h6m1 0h3m1 0h1m1 0h2m4 0h1M12 47.5h2m2 0h1m2 0h1m3 0h1m2 0h4m4 0h4m2 0h1m2 0h1m1 0h1m3 0h2m1 0h4m1 0h2m1 0h1m1 0h2m2 0h2m2 0h1m5 0h1m2 0h1m1 0h1m1 0h2m2 0h1m3 0h4m2 0h3m4 0h1M4 48.5h1m2 0h2m1 0h1m5 0h1m2 0h1m1 0h1m1 0h1m1 0h3m1 0h4m1 0h1m2 0h1m2 0h2m3 0h1m2 0h1m1 0h1m2 0h1m2 0h1m1 0h3m1 0h4m3 0h3m2 0h8m2 0h2m1 0h1m3 0h1m2 0h3m2 0h1m1 0h2m1 0h1M4 49.5h1m1 0h2m1 0h1m2 0h3m1 0h5m2 0h1m1 0h2m1 0h2m3 0h1m7 0h2m3 0h1m1 0h1m2 0h1m1 0h2m1 0h1m1 0h2m1 0h5m1 0h2m1 0h2m1 0h1m2 0h2m2 0h3m1 0h1m2 0h4m1 0h1m1 0h1m1 0h2m1 0h1m1 0h1m1 0h1M10 50.5h2m1 0h5m6 0h2m3 0h1m7 0h1m3 0h4m3 0h1m1 0h2m3 0h1m1 0h1m2 0h1m3 0h1m2 0h3m1 0h1m3 0h1m2 0h2m3 0h1m1 0h5m1 0h1m1 0h3m7 0h1M5 51.5h2m1 0h2m1 0h5m1 0h3m1 0h1m1 0h5m1 0h5m2 0h2m2 0h2m1 0h1m1 0h1m3 0h2m4 0h1m1 0h5m1 0h1m1 0h2m1 0h1m1 0h4m1 0h1m4 0h3m1 0h1m1 0h1m1 0h1m1 0h1m3 0h3m2 0h1m1 0h1m1 0h1M5 52.5h1m2 0h5m2 0h1m2 0h2m1 0h1m2 0h13m1 0h3m1 0h3m1 0h3m1 0h1m1 0h5m2 0h4m3 0h2m1 0h2m2 0h7m1 0h1m3 0h2m2 0h1m1 0h1m2 0h8m1 0h1M4 53.5h1m3 0h1m3 0h1m1 0h2m2 0h1m3 0h2m2 0h1m1 0h1m1 0h1m3 0h2m1 0h2m2 0h1m3 0h3m2 0h1m1 0h1m3 0h1m2 0h4m2 0h1m3 0h1m1 0h1m2 0h1m3 0h2m2 0h2m1 0h1m1 0h5m1 0h1m1 0h2m3 0h2m2 0h1M7 54.5h2m1 0h1m1 0h1m3 0h4m3 0h2m3 0h3m1 0h1m1 0h1m1 0h1m1 0h3m1 0h1m1 0h3m1 0h2m2 0h1m1 0h1m1 0h1m3 0h2m3 0h2m2 0h1m1 0h1m2 0h1m1 0h1m1 0h3m3 0h2m1 0h1m2 0h2m1 0h2m1 0h1m1 0h1m1 0h1m1 0h2M4 55.5h5m3 0h2m2 0h2m2 0h1m1 0h2m1 0h2m2 0h2m3 0h2m2 0h1m1 0h1m5 0h1m1 0h3m1 0h1m3 0h1m2 0h6m1 0h1m1 0h2m2 0h3m3 0h3m2 0h1m1 0h1m4 0h2m1 0h2m1 0h1m3 0h1m2 0h1M4 56.5h2m2 0h12m2 0h4m1 0h1m1 0h6m4 0h1m1 0h2m1 0h3m3 0h7m3 0h2m2 0h1m2 0h2m5 0h5m2 0h1m4 0h7m1 0h7m2 0h1M5 57.5h2m2 0h1m4 0h1m1 0h1m1 0h1m1 0h1m1 0h1m1 0h1m2 0h2m2 0h1m2 0h2m2 0h1m2 0h2m1 0h1m2 0h2m2 0h1m2 0h2m2 0h3m1 0h3m3 0h1m2 0h1m4 0h1m3 0h1m4 0h2m4 0h1m2 0h1m1 0h1m2 0h2m1 0h1m1 0h1M4 58.5h4m1 0h3m1 0h1m1 0h1m1 0h1m6 0h3m4 0h2m3 0h5m3 0h1m1 0h1m4 0h4m4 0h3m2 0h2m2 0h2m2 0h1m3 0h2m8 0h1m2 0h2m1 0h3m6 0h1m1 0h1M4 59.5h6m1 0h2m2 0h1m3 0h1m1 0h1m4 0h2m3 0h4m1 0h1m1 0h1m1 0h1m2 0h3m1 0h3m1 0h2m1 0h2m3 0h1m1 0h1m1 0h1m1 0h2m2 0h1m1 0h2m1 0h3m1 0h1m2 0h1m1 0h5m1 0h3m1 0h5m1 0h1m1 0h3M4 60.5h3m1 0h3m4 0h2m1 0h1m1 0h1m8 0h1m1 0h1m4 0h1m1 0h1m1 0h1m8 0h3m2 0h1m2 0h3m4 0h1m3 0h1m1 0h2m1 0h2m2 0h5m2 0h3m1 0h3m1 0h2m3 0h2m1 0h3m1 0h1M6 61.5h1m2 0h1m1 0h2m1 0h1m1 0h2m7 0h6m1 0h3m1 0h1m1 0h1m1 0h2m1 0h2m1 0h3m2 0h2m3 0h6m1 0h1m2 0h1m1 0h2m1 0h2m1 0h1m3 0h1m3 0h3m2 0h1m1 0h1m2 0h1m2 0h8m1 0h1M5 62.5h2m1 0h1m1 0h1m2 0h1m1 0h4m2 0h1m1 0h2m1 0h2m1 0h1m1 0h1m2 0h1m2 0h1m5 0h5m2 0h3m1 0h2m1 0h1m2 0h1m1 0h3m1 0h7m1 0h2m7 0h2m1 0h1m1 0h1m1 0h2m3 0h1m4 0h2m2 0h1M5 63.5h2m2 0h1m4 0h3m2 0h2m1 0h1m3 0h1m1 0h1m2 0h1m1 0h1m1 0h1m2 0h2m1 0h1m2 0h1m1 0h1m1 0h1m1 0h2m1 0h4m4 0h1m1 0h2m1 0h3m1 0h2m1 0h2m1 0h1m5 0h2m4 0h1m1 0h1m1 0h2m1 0h1m1 0h3m1 0h1m1 0h1M4 64.5h1m1 0h1m1 0h3m1 0h5m1 0h1m2 0h1m1 0h2m2 0h1m1 0h2m2 0h1m1 0h1m2 0h1m5 0h4m2 0h1m1 0h3m4 0h2m1 0h2m1 0h1m4 0h2m2 0h1m2 0h1m1 0h1m4 0h1m1 0h2m3 0h1m1 0h1m1 0h5m1 0h1m2 0h1M5 65.5h1m1 0h3m4 0h2m2 0h4m2 0h1m1 0h6m2 0h2m1 0h2m1 0h1m1 0h2m1 0h2m1 0h4m1 0h3m1 0h3m2 0h1m1 0h2m3 0h2m1 0h1m1 0h3m1 0h1m1 0h1m1 0h4m3 0h1m2 0h1m1 0h2m3 0h5M5 66.5h9m3 0h1m2 0h2m1 0h1m1 0h5m1 0h3m2 0h1m2 0h2m1 0h2m2 0h1m1 0h3m1 0h1m1 0h6m2 0h1m1 0h2m2 0h3m2 0h1m3 0h1m1 0h3m1 0h3m1 0h1m2 0h1m4 0h3m1 0h3m1 0h1M4 67.5h2m1 0h1m1 0h1m3 0h2m1 0h2m2 0h1m1 0h3m6 0h1m4 0h1m4 0h1m1 0h1m3 0h3m1 0h1m1 0h1m2 0h1m2 0h2m1 0h2m3 0h2m2 0h3m1 0h3m1 0h4m1 0h2m2 0h1m5 0h2m1 0h2m1 0h2m1 0h2M4 68.5h1m4 0h6m2 0h1m1 0h1m2 0h1m3 0h1m4 0h1m1 0h1m4 0h4m1 0h7m2 0h1m3 0h1m3 0h1m1 0h1m1 0h2m2 0h1m4 0h3m8 0h2m3 0h1m3 0h1m5 0h1M5 69.5h3m1 0h1m5 0h1m2 0h1m1 0h1m1 0h2m1 0h5m3 0h1m5 0h2m3 0h3m1 0h2m1 0h1m1 0h2m1 0h1m3 0h1m1 0h1m1 0h2m4 0h2m1 0h1m2 0h1m1 0h1m1 0h2m1 0h2m3 0h1m1 0h3m3 0h2m1 0h4M4 70.5h1m1 0h3m1 0h2m1 0h1m3 0h6m1 0h2m2 0h3m1 0h1m1 0h1m4 0h2m1 0h1m1 0h1m1 0h3m1 0h1m4 0h1m1 0h4m7 0h1m2 0h1m2 0h3m2 0h1m1 0h3m1 0h1m3 0h1m1 0h1m1 0h1m1 0h1m1 0h1m2 0h1m2 0h2M5 71.5h3m3 0h1m2 0h2m1 0h1m1 0h1m1 0h1m2 0h1m1 0h1m2 0h1m1 0h2m3 0h2m1 0h2m1 0h1m1 0h1m3 0h1m7 0h1m1 0h1m1 0h4m1 0h1m1 0h2m5 0h5m1 0h1m1 0h4m2 0h1m1 0h2m2 0h4m1 0h6M4 72.5h1m1 0h2m2 0h1m1 0h3m1 0h4m5 0h4m1 0h5m2 0h2m3 0h4m2 0h1m4 0h1m5 0h2m2 0h1m1 0h1m1 0h1m3 0h1m1 0h2m6 0h1m1 0h2m1 0h1m2 0h2m1 0h2m2 0h1m4 0h2M4 73.5h3m2 0h1m2 0h1m1 0h1m2 0h1m1 0h1m1 0h1m3 0h1m1 0h1m2 0h1m1 0h4m1 0h1m1 0h1m1 0h1m5 0h1m3 0h2m3 0h1m5 0h4m2 0h3m4 0h4m1 0h1m8 0h2m1 0h1m1 0h3m1 0h2m2 0h1m1 0h1M6 74.5h7m1 0h5m1 0h2m2 0h1m2 0h1m2 0h5m1 0h1m1 0h3m2 0h2m6 0h10m1 0h2m1 0h2m1 0h1m1 0h9m1 0h2m1 0h1m7 0h1m1 0h1m1 0h6m1 0h3M4 75.5h2m1 0h2m3 0h3m2 0h4m1 0h1m1 0h2m4 0h1m3 0h1m2 0h2m1 0h5m1 0h1m2 0h1m2 0h1m3 0h2m2 0h1m4 0h1m1 0h4m2 0h2m3 0h2m1 0h4m1 0h1m2 0h3m2 0h3m3 0h4M5 76.5h1m2 0h1m1 0h1m1 0h1m1 0h3m1 0h3m1 0h1m1 0h1m2 0h1m1 0h2m1 0h1m1 0h2m1 0h1m1 0h2m1 0h1m1 0h1m5 0h1m1 0h1m1 0h1m1 0h1m1 0h5m2 0h2m3 0h3m1 0h1m1 0h1m1 0h3m2 0h3m2 0h7m1 0h1m1 0h1m1 0h1m1 0h1M6 77.5h3m3 0h1m1 0h10m1 0h1m2 0h1m1 0h1m3 0h5m1 0h5m6 0h2m3 0h1m3 0h1m2 0h1m4 0h1m1 0h3m1 0h1m3 0h5m1 0h1m1 0h2m1 0h1m1 0h1m1 0h1m2 0h1m3 0h2M4 78.5h2m2 0h5m1 0h2m1 0h2m2 0h2m1 0h1m3 0h12m3 0h1m1 0h5m2 0h5m1 0h1m1 0h3m2 0h4m1 0h1m2 0h6m1 0h1m3 0h1m1 0h1m5 0h1m3 0h6m2 0h1M4 79.5h2m3 0h1m1 0h1m2 0h2m3 0h1m1 0h1m1 0h1m3 0h1m3 0h3m4 0h4m5 0h1m2 0h1m4 0h4m1 0h2m3 0h4m3 0h5m2 0h2m1 0h1m4 0h3m2 0h1m3 0h1M9 80.5h5m6 0h1m1 0h8m1 0h1m6 0h1m3 0h1m1 0h2m2 0h1m1 0h1m1 0h3m4 0h2m2 0h1m2 0h2m1 0h3m1 0h1m1 0h2m1 0h3m2 0h9m1 0h2m1 0h1m1 0h2m2 0h1m1 0h1M7 81.5h2m2 0h3m3 0h3m2 0h1m5 0h1m2 0h1m1 0h3m1 0h1m2 0h4m2 0h2m1 0h2m4 0h1m2 0h1m2 0h1m2 0h3m3 0h2m1 0h2m1 0h3m3 0h1m2 0h1m2 0h1m2 0h1m2 0h1m1 0h3m2 0h2M4 82.5h1m1 0h5m3 0h2m1 0h1m1 0h3m2 0h1m1 0h2m3 0h1m1 0h1m4 0h1m1 0h1m1 0h4m7 0h2m1 0h2m4 0h3m1 0h1m1 0h1m1 0h3m1 0h1m5 0h1m2 0h3m2 0h1m3 0h2m1 0h1m1 0h1m1 0h4M4 83.5h1m9 0h3m3 0h1m1 0h2m1 0h1m2 0h2m1 0h1m1 0h2m2 0h2m1 0h1m7 0h1m3 0h2m1 0h1m3 0h2m1 0h2m3 0h1m1 0h1m1 0h1m1 0h3m3 0h3m1 0h2m2 0h3m1 0h2m2 0h1m2 0h1M5 84.5h1m1 0h1m1 0h2m1 0h1m1 0h1m1 0h2m2 0h1m1 0h3m4 0h1m2 0h3m1 0h1m3 0h3m1 0h6m2 0h2m3 0h2m3 0h1m1 0h1m1 0h1m1 0h3m2 0h2m2 0h2m1 0h3m1 0h2m7 0h2m1 0h1m2 0h1m4 0h1M4 85.5h3m1 0h2m1 0h2m2 0h1m1 0h1m1 0h2m1 0h1m1 0h2m1 0h1m4 0h1m2 0h3m2 0h2m1 0h2m1 0h4m1 0h3m1 0h2m4 0h1m4 0h1m3 0h1m1 0h5m2 0h2m2 0h1m3 0h2m3 0h5m1 0h3m1 0h1M5 86.5h3m1 0h2m2 0h2m1 0h2m1 0h2m1 0h13m1 0h2m1 0h2m2 0h3m2 0h2m2 0h1m1 0h1m5 0h1m2 0h2m1 0h5m1 0h2m1 0h2m1 0h1m2 0h2m2 0h2m4 0h1m2 0h3m1 0h1m2 0h1m1 0h2M5 87.5h2m1 0h1m3 0h1m2 0h2m3 0h2m2 0h1m1 0h1m2 0h6m2 0h5m1 0h1m1 0h3m1 0h1m1 0h2m2 0h2m1 0h1m1 0h4m4 0h2m1 0h1m2 0h1m2 0h1m2 0h2m1 0h1m1 0h4m1 0h2m7 0h4m1 0h1M4 88.5h2m2 0h5m4 0h1m1 0h5m3 0h2m1 0h3m2 0h2m3 0h1m5 0h1m2 0h1m2 0h1m3 0h2m2 0h2m5 0h1m3 0h2m1 0h1m1 0h4m1 0h2m1 0h2m2 0h1m1 0h1m2 0h1m2 0h3m4 0h1M4 89.5h3m1 0h1m4 0h1m1 0h1m1 0h3m2 0h3m2 0h8m1 0h2m5 0h3m2 0h1m3 0h1m1 0h6m1 0h5m1 0h1m1 0h2m1 0h3m2 0h3m2 0h1m4 0h2m1 0h2m3 0h1m1 0h2m1 0h2M4 90.5h1m4 0h3m1 0h2m4 0h3m1 0h1m3 0h1m3 0h5m2 0h1m3 0h1m2 0h2m3 0h4m1 0h2m2 0h2m1 0h6m1 0h4m7 0h2m1 0h1m1 0h1m1 0h1m4 0h2m2 0h2m1 0h5M5 91.5h3m3 0h1m2 0h1m3 0h1m7 0h3m1 0h1m3 0h1m1 0h5m1 0h4m2 0h2m2 0h1m3 0h1m2 0h1m1 0h3m2 0h1m1 0h1m2 0h3m1 0h3m3 0h2m2 0h1m2 0h1m2 0h2m2 0h1m3 0h3m1 0h2M4 92.5h3m1 0h1m1 0h1m3 0h1m5 0h4m2 0h5m7 0h3m1 0h1m1 0h2m1 0h1m2 0h5m1 0h1m2 0h1m1 0h4m1 0h2m2 0h1m1 0h3m1 0h1m1 0h2m2 0h3m1 0h1m6 0h1m2 0h1m2 0h5M4 93.5h2m1 0h1m1 0h1m4 0h2m1 0h7m1 0h1m1 0h2m2 0h1m1 0h1m1 0h2m1 0h1m2 0h2m1 0h1m1 0h1m3 0h1m1 0h1m3 0h2m4 0h3m2 0h1m2 0h1m1 0h2m1 0h2m1 0h1m2 0h1m1 0h2m1 0h1m3 0h2m2 0h1m2 0h2m1 0h1M4 94.5h1m2 0h2m1 0h3m8 0h5m1 0h1m2 0h1m2 0h1m1 0h3m1 0h3m1 0h1m3 0h2m1 0h6m2 0h2m2 0h1m2 0h1m4 0h2m1 0h1m1 0h2m7 0h1m1 0h3m2 0h2m1 0h1m2 0h8M4 95.5h1m1 0h2m1 0h1m1 0h3m5 0h1m2 0h1m1 0h2m2 0h4m1 0h3m2 0h4m3 0h1m3 0h3m4 0h1m3 0h5m1 0h5m2 0h1m1 0h2m1 0h2m3 0h1m1 0h9m2 0h2m4 0h1m1 0h1M8 96.5h1m1 0h2m2 0h2m2 0h1m2 0h1m2 0h4m1 0h7m5 0h1m5 0h1m4 0h7m1 0h2m1 0h4m1 0h1m2 0h1m1 0h8m1 0h1m1 0h8m3 0h6m1 0h2M12 97.5h4m3 0h5m1 0h1m1 0h1m1 0h2m3 0h3m4 0h4m2 0h1m1 0h1m2 0h1m3 0h4m3 0h1m2 0h1m4 0h4m3 0h1m1 0h3m1 0h2m4 0h2m4 0h1m3 0h1m3 0h1M4 98.5h7m3 0h3m1 0h3m2 0h5m1 0h2m1 0h1m1 0h1m2 0h1m2 0h1m1 0h1m1 0h2m3 0h1m1 0h2m1 0h1m1 0h1m4 0h3m2 0h5m1 0h1m1 0h1m1 0h1m1 0h1m2 0h3m1 0h5m3 0h4m1 0h1m1 0h1m1 0h3M4 99.5h1m5 0h1m1 0h1m1 0h3m1 0h3m2 0h1m1 0h6m3 0h2m1 0h2m1 0h1m2 0h1m2 0h3m3 0h1m3 0h1m2 0h3m2 0h2m1 0h4m1 0h3m3 0h2m3 0h2m3 0h2m2 0h2m1 0h2m3 0h2m1 0h2M4 100.5h1m1 0h3m1 0h1m1 0h1m2 0h1m4 0h2m1 0h1m1 0h2m3 0h5m1 0h2m2 0h4m1 0h1m3 0h1m2 0h5m2 0h2m2 0h1m3 0h2m2 0h9m1 0h1m4 0h1m2 0h1m1 0h1m2 0h1m1 0h6m1 0h1M4 101.5h1m1 0h3m1 0h1m2 0h1m1 0h2m2 0h2m1 0h1m3 0h2m1 0h4m2 0h2m2 0h1m1 0h1m1 0h2m2 0h2m1 0h1m2 0h1m1 0h1m1 0h3m2 0h1m1 0h1m1 0h2m1 0h1m2 0h1m2 0h1m4 0h8m5 0h1m2 0h1m2 0h1m1 0h1M4 102.5h1m1 0h3m1 0h1m5 0h3m8 0h2m5 0h3m1 0h5m1 0h1m2 0h1m2 0h1m2 0h1m1 0h2m2 0h1m1 0h1m2 0h1m4 0h5m7 0h3m4 0h1m1 0h2m7 0h6M4 103.5h1m5 0h1m1 0h7m3 0h1m1 0h3m2 0h1m1 0h1m2 0h1m1 0h1m3 0h1m1 0h1m1 0h6m4 0h1m2 0h2m1 0h4m4 0h6m1 0h3m1 0h1m2 0h3m2 0h1m1 0h1m1 0h1m1 0h2m2 0h2m1 0h1m2 0h2M4 104.5h7m1 0h2m2 0h2m7 0h1m1 0h5m5 0h1m4 0h2m1 0h1m7 0h3m3 0h2m2 0h4m1 0h2m2 0h1m2 0h1m1 0h3m1 0h1m2 0h2m2 0h1m2 0h2m3 0h1m1 0h2m2 0h2"/></svg>
