<svg xmlns="http://www.w3.org/2000/svg" viewBox="0 0 109 109" shape-rendering="crispEdges"><path fill="#ffffff" d="M0 0h109v109H0z"/><path stroke="#000000" d="M4 4.5h7m1 0h5m1 0h2m1 0h4m1 0h2m1 0h1m2 0h1m1 0h1m1 0h1m1 0h1m2 0h4m4 0h4m2 0h3m1 0h3m2 0h4m3 0h2m1 0h2m1 0h1m1 0h3m2 0h1m1 0h3m2 0h2m1 0h2m2 0h7M4 5.5h1m5 0h1m1 0h3m4 0h2m1 0h1m1 0h1m1 0h1m1 0h3m1 0h1m1 0h1m1 0h1m2 0h2m2 0h1m3 0h1m2 0h1m3 0h2m2 0h1m3 0h1m1 0h1m1 0h3m1 0h5m8 0h1m6 0h4m4 0h1m5 0h1M4 6.5h1m1 0h3m1 0h1m2 0h2m4 0h1m2 0h2m1 0h2m2 0h1m3 0h2m1 0h2m1 0h1m1 0h1m4 0h2m1 0h1m1 0h1m1 0h4m1 0h2m4 0h1m2 0h3m4 0h1m1 0h3m1 0h4m1 0h1m1 0h1m1 0h2m1 0h2m1 0h1m2 0h1m1 0h3m1 0h1M4 7.5h1m1 0h3m1 0h1m2 0h1m1 0h1m1 0h1m1 0h1m1 0h1m5 0h1m4 0h2m2 0h1m5 0h1m1 0h1m1 0h1m2 0h4m1 0h1m2 0h2m1 0h1m2 0h1m3 0h3m1 0h2m4 0h1m2 0h1m4 0h1m2 0h1m5 0h2m2 0h1m1 0h3m1 0h1M4 8.5h1m1 0h3m1 0h1m1 0h1m4 0h4m2 0h3m1 0h8m3 0h1m3 0h1m1 0h2m1 0h12m1 0h1m4 0h1m1 0h1m3 0h1m1 0h8m4 0h1m1 0h1m1 0h2m3 0h1m1 0h1m1 0h1m1 0h3m1 0h1M4 9.5h1m5 0h1m1 0h3m1 0h1m5 0h1m4 0h1m1 0h2m3 0h2m1 0h4m1 0h2m1 0h1m2 0h5m3 0h1m1 0h1m2 0h1m4 0h2m6 0h1m3 0h1m1 0h2m1 0h1m11 0h1m2 0h1m5 0h1M4 10.5h7m1 0h1m1 0h1m1 0h1m1 0h1m1 0h1m1 0h1m1 0h1m1 0h1m1 0h1m1 0h1m1 0h1m1 0h1m1 0h1m1 0h1m1 0h1m1 0h1m1 0h1m1 0h1m1 0h1m1 0h1m1 0h1m1 0h1m1 0h1m1 0h1m1 0h1m1 0h1m1 0h1m1 0h1m1 0h1m1 0h1m1 0h1m1 0h1m1 0h1m1 0h1m1 0h1m1 0h1m1 0h1m1 0h1m1 0h1m1 0h1m1 0h1m1 0h1m1 0h1m1 0h7M12 11.5h1m5 0h1m7 0h1m1 0h1m1 0h1m3 0h4m4 0h1m7 0h3m3 0h1m2 0h4m5 0h1m1 0h1m2 0h2m3 0h1m1 0h1m1 0h1m2 0h1m1 0h7m1 0h1M4 12.5h3m2 0h2m1 0h1m3 0h1m2 0h1m2 0h2m2 0h2m2 0h5m3 0h1m1 0h4m1 0h1m1 0h3m2 0h5m2 0h3m3 0h6m1 0h1m1 0h8m1 0h5m1 0h2m1 0h4m1 0h4m2 0h2M4 13.5h1m2 0h2m3 0h4m1 0h1m1 0h1m4 0h3m2 0h2m1 0h2m3 0h4m2 0h3m1 0h1m1 0h1m1 0h1m1 0h1m1 0h2m1 0h2m4 0h1m3 0h1m3 0h1m2 0h3m2 0h4m1 0h1m3 0h2m1 0h1m3 0h1m3 0h1m1 0h3M4 14.5h1m3 0h1m1 0h1m1 0h1m1 0h1m1 0h2m1 0h1m5 0h1m2 0h1m1 0h1m1 0h1m1 0h2m4 0h2m2 0h2m1 0h1m2 0h1m1 0h2m1 0h3m3 0h2m1 0h3m2 0h4m1 0h1m1 0h1m1 0h1m1 0h1m1 0h1m1 0h2m2 0h1m3 0h2m1 0h2m1 0h1m3 0h1m1 0h1M4 15.5h3m2 0h1m4 0h4m1 0h2m2 0h2m1 0h2m1 0h2m1 0h1m2 0h3m2 0h2m3 0h2m1 0h1m1 0h1m4 0h1m4 0h3m1 0h5m2 0h1m1 0h1m1 0h1m4 0h2m2 0h1m3 0h1m1 0h2m3 0h2m3 0h1m2 0h2M4 16.5h2m1 0h4m2 0h1m1 0h1m1 0h2m1 0h2m1 0h2m1 0h2m2 0h3m2 0h1m1 0h1m1 0h2m1 0h5m5 0h1m1 0h4m2 0h1m1 0h4m1 0h5m1 0h1m1 0h1m5 0h1m1 0h1m2 0h3m2 0h1m1 0h2m1 0h2m2 0h5M7 17.5h2m2 0h2m1 0h1m3 0h1m6 0h1m1 0h2m2 0h2m1 0h1m1 0h1m1 0h1m1 0h1m2 0h1m1 0h1m2 0h1m1 0h4m4 0h1m3 0h1m1 0h4m1 0h2m1 0h2m2 0h2m2 0h1m5 0h1m4 0h2m1 0h2m1 0h2m1 0h1m2 0h2M5 18.5h3m1 0h3m2 0h1m1 0h1m2 0h1m2 0h1m1 0h2m1 0h5m2 0h3m1 0h3m2 0h2m1 0h1m1 0h4m3 0h1m6 0h2m2 0h2m3 0h2m1 0h1m3 0h1m1 0h2m1 0h1m3 0h4m1 0h1m3 0h1m1 0h3m2 0h2M6 19.5h3m3 0h7m1 0h2m1 0h1m3 0h3m2 0h1m1 0h1m2 0h1m1 0h2m1 0h3m1 0h1m1 0h1m1 0h1m1 0h4m2 0h4m2 0h2m2 0h1m2 0h3m6 0h3m5 0h2m2 0h1m2 0h3m1 0h3m1 0h2M6 20.5h1m1 0h1m1 0h2m3 0h1m1 0h5m1 0h1m1 0h3m1 0h2m1 0h1m2 0h1m2 0h2m3 0h4m1 0h5m2 0h2m2 0h1m1 0h2m3 0h1m2 0h1m2 0h2m1 0h6m1 0h4m1 0h4m1 0h3m2 0h1m2 0h2m1 0h1M5 21.5h2m2 0h1m1 0h2m1 0h1m1 0h3m2 0h1m1 0h3m1 0h3m2 0h3m1 0h2m1 0h1m1 0h1m1 0h2m2 0h1m1 0h3m1 0h1m2 0h1m3 0h2m1 0h3m1 0h5m1 0h1m3 0h1m3 0h1m1 0h1m1 0h1m14 0h1m3 0h1M4 22.5h2m2 0h3m1 0h4m1 0h1m1 0h1m1 0h11m2 0h1m1 0h2m1 0h4m1 0h3m1 0h1m1 0h1m3 0h1m1 0h1m1 0h2m1 0h3m2 0h1m1 0h2m2 0h1m1 0h2m1 0h1m1 0h2m2 0h1m1 0h1m1 0h3m4 0h2m4 0h1m1 0h3M4 23.5h1m6 0h1m3 0h1m1 0h3m2 0h2m1 0h1m10 0h4m5 0h9m4 0h1m3 0h1m3 0h1m3 0h2m2 0h2m1 0h1m5 0h1m2 0h1m2 0h2m1 0h1m4 0h2m1 0h3M5 24.5h1m1 0h1m2 0h3m1 0h2m3 0h2m6 0h6m4 0h2m3 0h1m1 0h1m2 0h1m1 0h4m2 0h1m1 0h2m3 0h6m2 0h3m1 0h1m6 0h2m4 0h3m1 0h1m1 0h1m1 0h1m1 0h1m1 0h2m1 0h1M5 25.5h4m3 0h1m1 0h1m1 0h8m1 0h1m6 0h2m1 0h1m3 0h1m3 0h3m2 0h2m3 0h6m2 0h1m3 0h2m3 0h1m1 0h1m3 0h2m1 0h2m2 0h3m4 0h1m1 0h1m1 0h4m3 0h1m1 0h1M4 26.5h2m1 0h1m1 0h7m4 0h2m2 0h2m2 0h5m2 0h1m2 0h4m2 0h1m2 0h1m1 0h1m3 0h1m2 0h1m1 0h2m1 0h4m1 0h1m1 0h3m1 0h1m3 0h6m2 0h2m1 0h2m1 0h1m3 0h1m4 0h1m1 0h1m1 0h2M4 27.5h3m6 0h4m3 0h3m3 0h1m1 0h2m1 0h5m1 0h3m2 0h1m2 0h1m1 0h2m4 0h2m4 0h1m1 0h5m1 0h1m1 0h2m1 0h2m1 0h3m1 0h1m3 0h1m1 0h4m2 0h1m1 0h1m1 0h2m2 0h1m2 0h1m1 0h1M4 28.5h1m3 0h1m1 0h1m2 0h3m1 0h1m9 0h1m3 0h1m1 0h1m1 0h2m2 0h1m2 0h3m1 0h3m1 0h1m1 0h2m1 0h1m2 0h1m1 0h2m2 0h2m1 0h2m2 0h1m1 0h1m2 0h1m1 0h4m3 0h1m2 0h1m5 0h2m2 0h2m1 0h1m1 0h2M5 29.5h1m1 0h3m1 0h2m1 0h1m4 0h4m1 0h4m3 0h2m6 0h2m1 0h2m1 0h1m3 0h2m1 0h2m3 0h1m1 0h1m1 0h2m3 0h2m2 0h2m3 0h1m1 0h2m1 0h1m1 0h1m1 0h2m2 0h1m2 0h2m1 0h1m1 0h1m1 0h3m1 0h3M4 30.5h1m2 0h6m1 0h1m3 0h2m4 0h1m2 0h1m2 0h5m1 0h5m1 0h1m1 0h3m2 0h8m2 0h2m1 0h4m1 0h1m1 0h3m1 0h8m1 0h2m2 0h2m2 0h1m1 0h1m1 0h8M5 31.5h1m1 0h2m3 0h1m1 0h2m1 0h2m4 0h4m1 0h3m3 0h3m1 0h1m2 0h1m2 0h2m1 0h2m1 0h3m3 0h2m1 0h1m5 0h2m1 0h1m1 0h5m3 0h1m1 0h1m1 0h1m3 0h1m3 0h3m3 0h1m3 0h1m1 0h1M4 32.5h1m1 0h1m1 0h1m1 0h1m1 0h3m4 0h2m1 0h2m1 0h3m1 0h2m1 0h1m1 0h3m1 0h5m4 0h1m1 0h1m2 0h1m1 0h1m1 0h3m1 0h2m1 0h2m2 0h3m2 0h3m1 0h1m1 0h3m2 0h3m1 0h1m1 0h2m2 0h2m1 0h1m1 0h1m1 0h1M4 33.5h1m2 0h2m3 0h2m1 0h1m1 0h1m2 0h3m1 0h1m2 0h1m2 0h1m3 0h1m1 0h1m2 0h1m8 0h1m2 0h2m3 0h6m2 0h1m3 0h2m2 0h3m3 0h1m1 0h1m2 0h2m2 0h1m3 0h3m1 0h2m3 0h1m2 0h2M6 34.5h1m1 0h6m1 0h2m1 0h1m3 0h2m1 0h1m1 0h2m1 0h6m2 0h1m1 0h1m4 0h1m2 0h1m3 0h6m1 0h1m3 0h3m1 0h2m4 0h9m1 0h1m4 0h2m3 0h1m1 0h8m1 0h1M5 35.5h1m1 0h3m1 0h3m1 0h1m1 0h1m1 0h1m3 0h2m1 0h3m2 0h1m2 0h1m1 0h3m1 0h1m1 0h1m2 0h1m1 0h1m2 0h2m3 0h2m3 0h1m2 0h4m2 0h1m1 0h1m1 0h1m1 0h1m8 0h1m1 0h1m2 0h1m4 0h1m3 0h2M5 36.5h1m1 0h1m1 0h2m2 0h1m2 0h2m1 0h1m2 0h1m1 0h2m3 0h2m3 0h5m1 0h2m3 0h6m2 0h1m2 0h2m4 0h5m3 0h3m1 0h3m1 0h1m1 0h2m2 0h1m2 0h4m2 0h4m1 0h3m1 0h1M5 37.5h4m2 0h1m1 0h1m5 0h8m1 0h1m3 0h1m6 0h4m1 0h6m5 0h3m2 0h2m1 0h1m3 0h3m3 0h1m3 0h4m3 0h1m5 0h1m2 0h2m2 0h4m1 0h3M4 38.5h1m3 0h1m1 0h2m2 0h3m1 0h1m2 0h1m1 0h3m1 0h5m2 0h2m3 0h2m1 0h2m1 0h3m6 0h2m4 0h2m2 0h2m2 0h4m1 0h1m1 0h1m1 0h2m2 0h1m2 0h3m2 0h2m4 0h2m1 0h2m1 0h1m2 0h1M5 39.5h2m2 0h1m1 0h2m1 0h2m1 0h2m1 0h3m3 0h1m2 0h4m1 0h2m1 0h3m2 0h2m4 0h2m2 0h1m3 0h4m4 0h1m3 0h3m1 0h1m2 0h4m2 0h3m6 0h1m1 0h2m1 0h1m1 0h1m4 0h2M4 40.5h2m1 0h1m1 0h3m4 0h3m1 0h1m1 0h1m1 0h1m3 0h1m2 0h1m2 0h6m2 0h1m1 0h2m1 0h1m2 0h1m1 0h1m1 0h1m1 0h3m1 0h4m2 0h1m3 0h1m1 0h1m1 0h1m5 0h3m3 0h1m1 0h2m3 0h5m2 0h1m1 0h2M4 41.5h1m1 0h1m1 0h2m3 0h1m2 0h2m1 0h1m1 0h3m1 0h2m2 0h3m1 0h2m2 0h3m1 0h4m1 0h2m1 0h1m4 0h3m4 0h1m2 0h1m2 0h2m2 0h3m3 0h2m1 0h1m1 0h2m3 0h1m1 0h1m3 0h1m1 0h1m2 0h1m1 0h2m1 0h2M4 42.5h3m1 0h1m1 0h2m2 0h2m1 0h2m1 0h4m2 0h1m1 0h2m3 0h4m1 0h1m4 0h1m2 0h3m1 0h2m2 0h3m1 0h6m2 0h1m2 0h3m3 0h7m1 0h1m1 0h1m1 0h2m1 0h4m1 0h2m1 0h2m1 0h2m1 0h1M5 43.5h1m2 0h1m2 0h1m3 0h3m4 0h1m2 0h1m2 0h1m1 0h1m1 0h2m1 0h2m1 0h3m3 0h3m1 0h1m1 0h2m1 0h1m5 0h1m1 0h2m1 0h1m1 0h3m3 0h2m4 0h2m2 0h2m1 0h2m1 0h1m1 0h1m2 0h1m1 0h1m1 0h1m2 0h1m1 0h2M7 44.5h4m4 0h1m1 0h4m4 0h4m2 0h2m1 0h1m2 0h1m1 0h3m4 0h1m2 0h1m1 0h1m1 0h2m1 0h2m1 0h2m3 0h1m1 0h4m3 0h3m1 0h1m1 0h2m1 0h2m4 0h1m2 0h2m2 0h2m1 0h1m1 0h2m1 0h2M5 45.5h2m2 0h1m1 0h6m5 0h1m2 0h1m3 0h2m1 0h1m3 0h1m1 0h1m2 0h2m1 0h1m2 0h2m2 0h1m2 0h2m1 0h1m1 0h3m2 0h1m3 0h1m2 0h3m4 0h1m6 0h5m1 0h3m1 0h2m2 0h6M5 46.5h2m2 0h3m2 0h1m4 0h2m2 0h1m5 0h4m3 0h1m1 0h3m1 0h1m1 0h1m1 0h1m3 0h3m2 0h1m1 0h1m2 0h7m3 0h7m1 0h1m1 0h3m1 0h1m3 0h3m1 0h1m4 0h2m2 0h4M8 47.5h2m1 0h2m3 0h2m1 0h1m3 0h1m1 0h1m2 0h1m2 0h1m1 0h2m4 0h4m1 0h1m3 0h1m2 0h1m6 0h1m1 0h2m1 0h1m4 0h3m2 0h1m2 0h1m2 0h2m1 0h1m1 0h1m1 0h1m4 0h1m2 0h1m1 0h1m5 0h3M5 48.5h1m3 0h2m1 0h1m3 0h1m3 0h2m2 0h1m1 0h1m3 0h2m4 0h3m3 0h1m4 0h3m2 0h2m2 0h3m1 0h4m1 0h1m1 0h5m1 0h1m1 0h1m1 0h1m3 0h4m1 0h2m6 0h2m2 0h1m5 0h1M5 49.5h2m4 0h4m5 0h1m3 0h1m1 0h1m2 0h1m1 0h7m2 0h2m1 0h2m2 0h3m3 0h1m2 0h2m1 0h1m1 0h1m1 0h1m2 0h1m5 0h6m2 0h1m1 0h2m1 0h2m1 0h3m2 0h2m1 0h1m2 0h2m1 0h1m1 0h1M4 50.5h2m3 0h4m1 0h1m6 0h6m1 0h2m1 0h1m1 0h1m4 0h1m1 0h3m2 0h2m3 0h2m3 0h1m2 0h2m3 0h8m2 0h3m1 0h1m1 0h2m1 0h1m1 0h1m1 0h1m1 0h2m1 0h3m1 0h1m3 0h6M5 51.5h2m2 0h1m6 0h1m1 0h1m1 0h1m3 0h1m1 0h1m2 0h3m2 0h1m3 0h5m2 0h1m1 0h5m1 0h3m1 0h1m1 0h1m4 0h8m2 0h1m2 0h1m3 0h1m2 0h1m2 0h1m1 0h1m2 0h3m1 0h6m2 0h1M4 52.5h10m3 0h2m3 0h1m5 0h1m1 0h8m2 0h1m3 0h2m2 0h2m2 0h7m1 0h5m1 0h1m2 0h1m1 0h8m8 0h1m1 0h2m1 0h2m2 0h6m2 0h1M4 53.5h2m1 0h2m3 0h2m1 0h1m1 0h1m1 0h3m2 0h1m1 0h1m2 0h2m3 0h5m1 0h4m4 0h1m3 0h1m3 0h1m4 0h1m1 0h2m1 0h1m3 0h2m1 0h2m3 0h3m3 0h2m1 0h1m1 0h1m4 0h1m1 0h1m3 0h4M5 54.5h1m1 0h2m1 0h1m1 0h1m1 0h2m2 0h1m2 0h1m2 0h1m5 0h1m1 0h1m1 0h1m3 0h2m6 0h1m1 0h1m2 0h2m1 0h1m1 0h1m1 0h1m1 0h3m1 0h3m2 0h1m1 0h4m1 0h1m1 0h1m1 0h1m1 0h2m4 0h1m5 0h3m1 0h1m1 0h1m3 0h1M4 55.5h2m2 0h1m3 0h1m3 0h1m3 0h2m1 0h1m3 0h4m3 0h2m1 0h1m1 0h3m2 0h1m2 0h1m1 0h1m2 0h1m3 0h1m2 0h1m1 0h2m1 0h1m1 0h2m3 0h4m3 0h1m2 0h1m3 0h1m2 0h1m2 0h4m1 0h1m3 0h1m1 0h1M4 56.5h1m3 0h5m2 0h1m2 0h4m1 0h5m1 0h6m1 0h1m5 0h1m1 0h3m1 0h11m1 0h2m1 0h1m1 0h1m3 0h1m4 0h7m1 0h1m1 0h3m3 0h1m3 0h1m1 0h5M4 57.5h1m7 0h3m2 0h1m9 0h4m1 0h1m3 0h1m1 0h1m2 0h1m2 0h2m1 0h2m3 0h1m1 0h6m3 0h1m4 0h1m1 0h2m4 0h1m2 0h1m1 0h1m1 0h1m1 0h1m1 0h2m1 0h2m3 0h2m2 0h1m1 0h1m2 0h1M9 58.5h3m1 0h1m1 0h2m3 0h1m2 0h1m1 0h2m1 0h3m3 0h2m1 0h1m1 0h3m2 0h1m3 0h2m2 0h1m6 0h2m1 0h1m2 0h2m2 0h4m3 0h1m1 0h1m3 0h1m1 0h2m1 0h1m2 0h1m1 0h2m2 0h1m2 0h3m1 0h2M5 59.5h4m6 0h1m1 0h7m3 0h1m1 0h3m2 0h1m1 0h2m1 0h2m2 0h1m4 0h2m1 0h2m3 0h2m2 0h3m1 0h1m2 0h2m4 0h1m2 0h1m1 0h3m7 0h2m2 0h1m1 0h2m1 0h3m1 0h4M7 60.5h1m1 0h3m2 0h1m4 0h7m2 0h1m1 0h4m2 0h1m9 0h2m1 0h1m1 0h3m1 0h3m3 0h1m1 0h1m1 0h1m1 0h1m1 0h2m4 0h4m4 0h2m4 0h1m2 0h4m1 0h1m2 0h2M5 61.5h4m3 0h1m3 0h2m1 0h2m2 0h1m1 0h2m5 0h2m1 0h1m1 0h1m1 0h1m2 0h1m2 0h1m1 0h2m4 0h2m2 0h1m3 0h1m1 0h1m4 0h3m3 0h1m2 0h1m6 0h1m6 0h1m7 0h1m3 0h1M4 62.5h2m1 0h1m2 0h1m3 0h3m1 0h1m3 0h1m4 0h3m3 0h2m1 0h2m3 0h2m2 0h5m3 0h1m2 0h2m2 0h2m1 0h1m1 0h2m1 0h1m1 0h3m1 0h2m2 0h3m1 0h2m2 0h1m1 0h1m1 0h4m6 0h5M5 63.5h2m1 0h2m2 0h3m1 0h1m2 0h1m1 0h4m1 0h3m1 0h1m1 0h5m1 0h1m2 0h1m1 0h3m6 0h3m1 0h1m1 0h1m3 0h1m1 0h2m3 0h3m6 0h1m3 0h2m1 0h2m3 0h1m1 0h5m1 0h5m1 0h1M4 64.5h3m1 0h3m1 0h3m7 0h1m2 0h1m2 0h1m1 0h4m1 0h3m5 0h5m1 0h1m1 0h1m1 0h2m1 0h2m1 0h2m5 0h2m1 0h1m1 0h1m1 0h1m1 0h1m1 0h2m2 0h1m2 0h1m1 0h1m1 0h1m1 0h2m1 0h2m1 0h1m1 0h1m3 0h3M4 65.5h1m1 0h2m3 0h1m1 0h1m1 0h2m1 0h7m2 0h1m3 0h1m1 0h2m6 0h2m1 0h2m2 0h2m1 0h2m4 0h1m1 0h1m2 0h1m4 0h1m2 0h2m1 0h3m2 0h1m3 0h1m1 0h1m2 0h1m2 0h2m1 0h1m2 0h2m2 0h1m1 0h1m1 0h1M6 66.5h3m1 0h3m2 0h4m3 0h1m1 0h3m1 0h1m1 0h3m1 0h1m7 0h6m1 0h1m4 0h2m1 0h1m6 0h2m1 0h4m1 0h3m1 0h2m3 0h2m1 0h1m1 0h1m1 0h1m7 0h1m1 0h1m2 0h1m2 0h1M4 67.5h1m3 0h2m5 0h2m1 0h1m1 0h1m1 0h1m1 0h2m4 0h1m1 0h1m1 0h1m1 0h2m1 0h1m2 0h2m3 0h3m4 0h1m2 0h1m1 0h1m1 0h1m4 0h2m1 0h6m1 0h3m1 0h1m1 0h1m3 0h1m1 0h1m1 0h3m1 0h7m1 0h3M7 68.5h2m1 0h1m7 0h1m1 0h1m1 0h1m1 0h2m1 0h1m1 0h1m1 0h2m4 0h1m2 0h1m1 0h1m3 0h7m1 0h2m2 0h1m1 0h1m1 0h1m1 0h1m1 0h1m1 0h4m1 0h2m1 0h2m2 0h3m1 0h1m4 0h1m1 0h3m2 0h2m3 0h1M9 69.5h1m1 0h2m1 0h2m2 0h3m1 0h7m1 0h1m3 0h1m1 0h3m6 0h1m1 0h1m1 0h1m1 0h2m1 0h1m1 0h1m3 0h3m1 0h1m1 0h1m5 0h1m2 0h2m1 0h1m1 0h2m1 0h1m1 0h1m1 0h1m1 0h1m1 0h4m1 0h1m3 0h1m1 0h1M4 70.5h7m1 0h1m1 0h1m1 0h1m1 0h6m2 0h8m1 0h6m1 0h1m1 0h1m3 0h2m2 0h2m1 0h1m1 0h2m2 0h3m3 0h3m1 0h3m1 0h1m6 0h1m1 0h1m3 0h1m1 0h3m1 0h2m1 0h1m1 0h2m2 0h2M5 71.5h1m1 0h1m1 0h1m1 0h7m2 0h1m1 0h1m2 0h1m1 0h2m1 0h2m1 0h2m2 0h4m2 0h1m1 0h1m4 0h4m1 0h1m1 0h2m1 0h3m2 0h2m1 0h1m1 0h1m1 0h1m2 0h2m4 0h1m2 0h1m1 0h2m2 0h2m4 0h4m1 0h1M4 72.5h3m3 0h1m1 0h6m3 0h1m3 0h5m1 0h1m2 0h1m1 0h1m1 0h1m3 0h1m1 0h2m1 0h8m1 0h1m2 0h11m2 0h2m2 0h1m2 0h1m3 0h1m2 0h1m2 0h2m5 0h1m2 0h2m1 0h3M6 73.5h1m4 0h4m3 0h3m1 0h4m2 0h1m3 0h2m3 0h2m1 0h3m2 0h2m3 0h3m1 0h2m3 0h2m1 0h2m1 0h2m4 0h1m1 0h1m6 0h1m1 0h1m1 0h1m1 0h1m1 0h1m1 0h1m1 0h1m1 0h1m2 0h1M8 74.5h5m2 0h1m1 0h4m1 0h4m1 0h8m1 0h1m6 0h3m2 0h11m1 0h1m1 0h1m1 0h3m1 0h3m1 0h7m3 0h5m1 0h2m3 0h1m2 0h5m3 0h1M5 75.5h1m1 0h2m3 0h1m4 0h1m1 0h1m4 0h1m1 0h2m1 0h2m3 0h1m2 0h1m2 0h1m5 0h1m1 0h1m1 0h3m3 0h2m3 0h8m3 0h1m1 0h1m3 0h2m1 0h1m1 0h1m3 0h1m1 0h1m1 0h2m2 0h2m3 0h1m1 0h1m1 0h1M7 76.5h2m1 0h1m1 0h3m3 0h2m4 0h1m1 0h1m3 0h1m1 0h1m1 0h1m1 0h2m1 0h5m1 0h5m2 0h1m1 0h1m1 0h3m1 0h1m1 0h3m1 0h1m1 0h2m1 0h2m1 0h1m1 0h1m1 0h2m2 0h1m1 0h2m1 0h2m3 0h1m1 0h1m1 0h1m1 0h1m1 0h1m1 0h1m1 0h1M4 77.5h3m1 0h1m3 0h1m2 0h2m1 0h1m2 0h3m1 0h1m4 0h1m3 0h1m2 0h1m3 0h1m1 0h4m1 0h1m3 0h1m3 0h3m1 0h1m2 0h1m2 0h1m7 0h1m3 0h1m1 0h1m5 0h5m2 0h4m3 0h3M5 78.5h2m1 0h5m2 0h1m5 0h2m2 0h1m4 0h5m2 0h2m1 0h1m1 0h2m2 0h1m1 0h2m1 0h7m1 0h2m2 0h1m2 0h3m2 0h2m1 0h10m1 0h1m1 0h1m1 0h3m2 0h1m1 0h6m1 0h1M7 79.5h1m1 0h1m1 0h2m2 0h1m1 0h2m3 0h1m1 0h1m5 0h2m2 0h1m1 0h2m2 0h1m2 0h1m1 0h1m1 0h3m2 0h1m1 0h3m1 0h2m3 0h1m1 0h4m3 0h1m9 0h1m4 0h1m1 0h1m2 0h2m4 0h2m2 0h1M5 80.5h1m1 0h4m3 0h3m1 0h3m1 0h2m1 0h2m1 0h2m1 0h6m3 0h1m1 0h3m3 0h2m3 0h1m1 0h2m1 0h1m1 0h2m2 0h1m1 0h3m2 0h1m4 0h5m2 0h1m2 0h1m1 0h2m1 0h1m1 0h1m3 0h1m1 0h1m1 0h1m2 0h1M4 81.5h3m4 0h1m2 0h1m1 0h3m3 0h4m3 0h1m1 0h1m2 0h2m1 0h1m1 0h2m2 0h1m4 0h1m1 0h1m3 0h1m3 0h1m2 0h1m2 0h1m4 0h2m1 0h1m2 0h2m1 0h1m1 0h2m1 0h2m1 0h3m1 0h3m1 0h3m3 0h1m3 0h1M4 82.5h1m2 0h1m1 0h2m1 0h1m1 0h6m5 0h1m1 0h2m3 0h1m1 0h2m1 0h2m2 0h1m3 0h1m1 0h1m2 0h3m1 0h2m1 0h1m4 0h1m2 0h1m1 0h2m1 0h3m4 0h1m2 0h1m1 0h1m3 0h5m1 0h1m1 0h1m4 0h1m3 0h1M6 83.5h1m2 0h1m2 0h1m1 0h2m1 0h2m2 0h4m2 0h3m1 0h3m5 0h2m2 0h2m4 0h3m2 0h1m1 0h2m1 0h2m1 0h3m2 0h1m1 0h1m1 0h1m5 0h2m1 0h1m1 0h3m1 0h4m3 0h1m3 0h1m2 0h1m2 0h1M6 84.5h1m1 0h3m1 0h1m3 0h1m1 0h3m2 0h5m1 0h3m1 0h2m2 0h4m1 0h2m4 0h1m1 0h4m4 0h1m1 0h2m2 0h2m1 0h4m1 0h2m1 0h1m1 0h1m4 0h1m1 0h2m3 0h2m1 0h1m2 0h1m2 0h2m3 0h1M5 85.5h2m1 0h1m8 0h2m1 0h2m2 0h2m1 0h3m3 0h1m1 0h3m4 0h1m1 0h1m1 0h3m1 0h1m1 0h1m2 0h2m5 0h2m2 0h4m1 0h1m2 0h5m1 0h1m1 0h1m1 0h2m1 0h3m6 0h2m2 0h1m1 0h2M4 86.5h1m1 0h3m1 0h2m3 0h1m1 0h1m1 0h2m4 0h2m1 0h1m2 0h2m1 0h4m1 0h2m1 0h1m5 0h1m2 0h4m1 0h1m1 0h1m1 0h2m1 0h6m1 0h5m2 0h1m3 0h1m3 0h1m1 0h2m2 0h2m1 0h3m1 0h4m2 0h1M4 87.5h2m1 0h2m2 0h1m1 0h2m2 0h1m1 0h1m1 0h5m2 0h5m7 0h1m1 0h1m5 0h1m4 0h3m5 0h2m2 0h1m1 0h1m5 0h3m2 0h1m6 0h1m2 0h1m1 0h5m1 0h3m2 0h2M4 88.5h1m1 0h1m1 0h1m1 0h7m1 0h1m2 0h1m8 0h1m3 0h1m3 0h1m2 0h3m1 0h1m1 0h3m5 0h1m2 0h2m1 0h1m1 0h3m2 0h2m2 0h1m5 0h4m1 0h1m1 0h4m1 0h4m1 0h2m1 0h2m2 0h2M6 89.5h2m1 0h1m5 0h4m1 0h1m4 0h1m1 0h2m3 0h1m1 0h1m1 0h1m2 0h2m3 0h1m3 0h2m2 0h3m3 0h1m1 0h1m2 0h1m2 0h2m1 0h1m2 0h1m1 0h1m1 0h1m1 0h1m1 0h2m2 0h4m4 0h4m2 0h1m3 0h2M5 90.5h1m3 0h2m1 0h1m2 0h4m4 0h1m1 0h2m1 0h4m4 0h1m1 0h2m4 0h3m3 0h2m3 0h10m1 0h2m1 0h1m1 0h1m1 0h1m1 0h1m4 0h1m4 0h1m1 0h1m2 0h1m1 0h2m3 0h3m3 0h1M6 91.5h3m3 0h1m1 0h2m2 0h2m1 0h1m2 0h1m2 0h1m2 0h1m1 0h1m1 0h1m1 0h3m2 0h2m1 0h1m2 0h1m4 0h2m2 0h1m7 0h1m2 0h1m1 0h1m4 0h1m4 0h2m2 0h2m8 0h1m2 0h2m2 0h1m1 0h3M4 92.5h2m1 0h2m1 0h6m2 0h3m2 0h1m4 0h3m2 0h1m3 0h4m1 0h1m1 0h5m1 0h2m2 0h13m1 0h2m7 0h2m1 0h1m1 0h2m1 0h1m4 0h1m2 0h2m1 0h5m1 0h1m1 0h1M9 93.5h1m1 0h1m2 0h3m2 0h1m4 0h3m1 0h1m1 0h3m4 0h3m5 0h2m3 0h4m1 0h1m5 0h1m6 0h1m2 0h1m1 0h2m2 0h1m5 0h1m2 0h1m1 0h5m2 0h6m3 0h1M4 94.5h1m2 0h2m1 0h1m5 0h4m3 0h1m1 0h2m3 0h3m1 0h2m3 0h1m2 0h3m1 0h2m2 0h3m1 0h2m1 0h3m2 0h1m1 0h4m2 0h4m1 0h4m1 0h1m2 0h1m2 0h3m2 0h1m5 0h2m1 0h1m1 0h1m1 0h1M4 95.5h1m1 0h2m1 0h1m4 0h2m3 0h1m2 0h1m1 0h1m2 0h4m1 0h3m1 0h3m2 0h1m1 0h1m4 0h2m1 0h2m1 0h2m3 0h2m1 0h1m1 0h1m1 0h1m7 0h1m1 0h1m1 0h1m2 0h1m6 0h1m4 0h1m4 0h3m1 0h2M8 96.5h1m1 0h1m2 0h1m1 0h1m3 0h1m1 0h1m1 0h5m2 0h8m3 0h4m1 0h1m1 0h2m1 0h6m1 0h1m2 0h2m1 0h1m1 0h1m4 0h1m2 0h5m1 0h2m4 0h1m3 0h4m2 0h6m1 0h1M12 97.5h2m2 0h1m1 0h3m1 0h2m2 0h2m2 0h1m3 0h1m1 0h3m1 0h4m2 0h1m1 0h3m1 0h1m3 0h2m2 0h6m1 0h2m3 0h3m3 0h4m3 0h1m1 0h1m2 0h2m2 0h3m3 0h1m1 0h3M4 98.5h7m3 0h1m1 0h3m1 0h3m2 0h1m1 0h2m1 0h1m1 0h1m1 0h5m1 0h6m1 0h3m2 0h1m1 0h1m1 0h1m1 0h1m3 0h1m5 0h1m1 0h3m1 0h1m1 0h1m1 0h2m2 0h1m1 0h1m2 0h2m4 0h1m2 0h1m1 0h1m1 0h1m2 0h1M4 99.5h1m5 0h1m1 0h4m1 0h1m1 0h1m1 0h2m2 0h2m3 0h1m3 0h3m1 0h3m1 0h3m2 0h2m1 0h3m3 0h2m2 0h2m1 0h1m1 0h1m1 0h1m1 0h2m2 0h2m3 0h2m2 0h3m2 0h2m2 0h1m1 0h2m1 0h1m3 0h3M4 100.5h1m1 0h3m1 0h1m2 0h7m1 0h2m4 0h1m1 0h9m2 0h3m1 0h1m6 0h6m1 0h3m1 0h5m1 0h3m1 0h7m1 0h1m1 0h1m1 0h1m2 0h3m2 0h3m1 0h6m2 0h1M4 101.5h1m1 0h3m1 0h1m2 0h2m1 0h1m1 0h1m2 0h1m1 0h1m2 0h1m2 0h2m1 0h1m3 0h1m1 0h6m2 0h1m7 0h2m3 0h2m3 0h1m1 0h1m2 0h2m2 0h1m1 0h1m1 0h2m2 0h1m1 0h5m1 0h2m2 0h3m1 0h1m1 0h1m1 0h1M4 102.5h1m1 0h3m1 0h1m1 0h3m2 0h1m4 0h3m5 0h1m3 0h3m1 0h2m6 0h1m2 0h1m2 0h1m1 0h2m1 0h2m1 0h1m1 0h1m1 0h5m6 0h1m1 0h2m1 0h1m1 0h2m2 0h1m1 0h2m2 0h1m1 0h1m2 0h1m1 0h2m1 0h3M4 103.5h1m5 0h1m1 0h1m1 0h1m5 0h1m2 0h2m5 0h1m1 0h2m1 0h1m1 0h1m2 0h4m2 0h1m1 0h1m1 0h2m3 0h1m4 0h1m4 0h1m1 0h1m2 0h1m1 0h1m2 0h3m1 0h1m7 0h1m1 0h1m3 0h2m1 0h5M4 104.5h7m1 0h1m2 0h3m1 0h3m6 0h1m1 0h2m1 0h1m3 0h15m1 0h2m1 0h1m1 0h9m1 0h3m1 0h5m1 0h3m3 0h1m1 0h4m2 0h2m2 0h2m3 0h2m1 0h1"/></svg>
