<svg xmlns="http://www.w3.org/2000/svg" viewBox="0 0 113 113" shape-rendering="crispEdges"><path fill="#ffffff" d="M0 0h113v113H0z"/><path stroke="#000000" d="M4 4.5h7m4 0h3m1 0h1m2 0h6m5 0h3m5 0h3m2 0h2m4 0h1m1 0h1m1 0h2m6 0h2m5 0h1m1 0h3m1 0h1m1 0h4m4 0h2m1 0h5m3 0h1m3 0h7M4 5.5h1m5 0h1m1 0h2m2 0h1m2 0h1m1 0h1m4 0h6m6 0h1m1 0h4m2 0h4m4 0h1m4 0h1m1 0h5m3 0h1m1 0h1m2 0h1m3 0h1m2 0h1m1 0h2m1 0h2m1 0h1m1 0h1m1 0h3m1 0h2m3 0h1m5 0h1M4 6.5h1m1 0h3m1 0h1m6 0h1m3 0h2m1 0h2m2 0h3m4 0h3m2 0h2m4 0h2m3 0h1m1 0h1m4 0h1m2 0h2m1 0h1m1 0h4m2 0h2m3 0h1m1 0h1m1 0h2m1 0h2m1 0h1m4 0h1m2 0h5m2 0h1m1 0h3m1 0h1M4 7.5h1m1 0h3m1 0h1m1 0h7m1 0h2m2 0h5m1 0h2m1 0h1m2 0h2m5 0h1m1 0h1m1 0h1m1 0h2m1 0h2m4 0h2m1 0h3m1 0h1m4 0h1m3 0h1m1 0h2m2 0h4m1 0h2m1 0h2m3 0h1m1 0h1m1 0h1m2 0h1m1 0h1m1 0h3m1 0h1M4 8.5h1m1 0h3m1 0h1m2 0h1m1 0h1m4 0h2m1 0h2m1 0h7m2 0h2m1 0h4m3 0h2m1 0h1m3 0h5m9 0h3m1 0h1m4 0h6m2 0h2m3 0h1m2 0h1m1 0h3m3 0h2m1 0h1m1 0h3m1 0h1M4 9.5h1m5 0h1m1 0h4m3 0h5m1 0h2m1 0h1m3 0h2m3 0h1m1 0h3m1 0h5m4 0h1m3 0h2m1 0h1m2 0h2m2 0h5m5 0h1m3 0h1m1 0h2m1 0h3m1 0h2m3 0h2m1 0h1m1 0h1m2 0h1m5 0h1M4 10.5h7m1 0h1m1 0h1m1 0h1m1 0h1m1 0h1m1 0h1m1 0h1m1 0h1m1 0h1m1 0h1m1 0h1m1 0h1m1 0h1m1 0h1m1 0h1m1 0h1m1 0h1m1 0h1m1 0h1m1 0h1m1 0h1m1 0h1m1 0h1m1 0h1m1 0h1m1 0h1m1 0h1m1 0h1m1 0h1m1 0h1m1 0h1m1 0h1m1 0h1m1 0h1m1 0h1m1 0h1m1 0h1m1 0h1m1 0h1m1 0h1m1 0h1m1 0h1m1 0h1m1 0h1m1 0h1m1 0h7M13 11.5h3m1 0h1m3 0h1m2 0h1m1 0h3m3 0h2m5 0h1m3 0h2m3 0h5m3 0h1m2 0h4m1 0h5m1 0h3m1 0h1m1 0h1m3 0h1m1 0h3m1 0h2m3 0h1m2 0h1m1 0h3m1 0h1M4 12.5h5m1 0h4m1 0h1m1 0h2m1 0h3m1 0h1m2 0h6m1 0h2m3 0h2m1 0h1m3 0h3m3 0h7m4 0h2m2 0h1m1 0h1m1 0h2m2 0h6m3 0h1m2 0h6m1 0h3m2 0h3m1 0h1m1 0h1m1 0h1M5 13.5h1m2 0h2m2 0h1m2 0h2m1 0h1m3 0h3m1 0h3m1 0h9m2 0h3m1 0h8m1 0h1m1 0h1m2 0h1m1 0h1m2 0h2m1 0h2m3 0h4m3 0h5m1 0h1m3 0h1m3 0h2m1 0h1m1 0h2m1 0h2m2 0h1m2 0h1M5 14.5h7m1 0h3m1 0h1m1 0h1m2 0h3m1 0h1m1 0h2m4 0h1m2 0h1m2 0h1m1 0h1m3 0h2m1 0h2m2 0h1m1 0h1m2 0h1m2 0h1m1 0h2m1 0h1m2 0h1m1 0h1m1 0h2m1 0h2m1 0h1m1 0h1m3 0h2m1 0h1m1 0h2m5 0h1m2 0h2m5 0h2M5 15.5h1m1 0h3m1 0h1m3 0h4m2 0h2m1 0h1m1 0h6m1 0h1m1 0h3m1 0h1m1 0h2m1 0h3m1 0h1m1 0h1m1 0h1m3 0h3m2 0h1m2 0h1m1 0h3m1 0h1m4 0h2m2 0h1m1 0h1m4 0h1m1 0h1m1 0h1m6 0h1m2 0h1m1 0h5m1 0h1M6 16.5h1m2 0h4m2 0h2m1 0h1m2 0h5m2 0h2m4 0h1m1 0h2m4 0h4m3 0h2m1 0h5m1 0h1m3 0h3m1 0h1m1 0h1m2 0h5m5 0h1m2 0h2m5 0h2m1 0h1m2 0h4m1 0h1m2 0h1m1 0h1M4 17.5h2m1 0h3m1 0h1m2 0h6m1 0h2m5 0h2m1 0h1m1 0h2m3 0h2m2 0h1m2 0h1m6 0h2m2 0h2m1 0h4m1 0h2m1 0h5m1 0h4m1 0h2m1 0h4m4 0h5m1 0h2m2 0h1m1 0h1m1 0h2M4 18.5h5m1 0h1m2 0h1m7 0h2m1 0h1m1 0h1m5 0h2m1 0h1m3 0h1m2 0h3m1 0h2m2 0h2m4 0h1m2 0h1m1 0h3m2 0h1m1 0h1m2 0h3m2 0h6m1 0h3m4 0h1m3 0h1m1 0h4m2 0h2m4 0h1M4 19.5h5m5 0h2m4 0h1m3 0h2m1 0h1m2 0h1m2 0h2m4 0h3m1 0h5m1 0h3m7 0h1m1 0h1m4 0h2m1 0h2m1 0h1m3 0h2m2 0h1m1 0h1m2 0h1m2 0h1m1 0h1m2 0h1m3 0h1m1 0h1m1 0h1m6 0h1M5 20.5h1m1 0h4m1 0h1m3 0h1m3 0h3m3 0h2m1 0h1m1 0h3m2 0h3m5 0h6m2 0h3m1 0h1m3 0h1m1 0h1m1 0h5m2 0h1m1 0h1m2 0h1m2 0h2m2 0h1m4 0h1m1 0h2m1 0h1m3 0h4m1 0h1M4 21.5h2m3 0h1m5 0h1m1 0h1m2 0h5m1 0h4m2 0h2m1 0h1m1 0h5m1 0h2m1 0h2m1 0h2m2 0h1m1 0h1m2 0h1m2 0h2m3 0h4m2 0h3m2 0h1m1 0h2m1 0h2m3 0h1m1 0h1m2 0h2m1 0h2m2 0h2m1 0h1m3 0h1M7 22.5h2m1 0h3m2 0h2m1 0h1m1 0h1m1 0h1m2 0h1m2 0h1m5 0h7m2 0h1m3 0h2m1 0h3m1 0h2m1 0h4m1 0h2m1 0h2m4 0h1m1 0h1m1 0h1m1 0h3m1 0h1m3 0h1m1 0h1m1 0h2m1 0h1m1 0h1m5 0h1m1 0h1m3 0h2M5 23.5h2m1 0h2m1 0h1m3 0h1m2 0h1m2 0h1m1 0h1m2 0h3m2 0h1m3 0h2m1 0h1m1 0h2m2 0h2m2 0h1m6 0h1m1 0h1m2 0h3m4 0h1m1 0h2m3 0h1m2 0h3m1 0h1m2 0h3m8 0h1m2 0h2m8 0h1M5 24.5h4m1 0h3m1 0h3m1 0h1m2 0h4m3 0h1m4 0h3m2 0h2m1 0h4m2 0h4m1 0h1m1 0h1m5 0h2m2 0h2m3 0h1m1 0h1m1 0h2m2 0h7m2 0h1m1 0h3m1 0h2m2 0h3m1 0h2m1 0h2m1 0h1m1 0h1M4 25.5h1m2 0h2m4 0h1m1 0h1m1 0h1m2 0h1m4 0h1m1 0h1m2 0h1m3 0h2m2 0h2m2 0h1m1 0h1m4 0h3m1 0h1m2 0h1m1 0h1m1 0h5m2 0h1m2 0h2m2 0h3m2 0h1m2 0h4m1 0h1m1 0h1m1 0h1m1 0h4m2 0h2m3 0h1m1 0h3M4 26.5h4m1 0h2m5 0h1m3 0h2m1 0h1m1 0h2m4 0h1m2 0h1m1 0h4m5 0h1m1 0h1m1 0h1m1 0h5m1 0h2m1 0h1m1 0h1m3 0h2m2 0h1m2 0h2m2 0h1m1 0h1m1 0h2m2 0h1m2 0h1m1 0h2m2 0h3m2 0h1m3 0h1m1 0h1m1 0h2M5 27.5h4m2 0h1m3 0h2m1 0h2m2 0h1m1 0h6m2 0h2m1 0h3m2 0h2m3 0h1m1 0h1m1 0h2m1 0h3m1 0h2m1 0h2m2 0h2m4 0h1m3 0h1m2 0h2m1 0h1m3 0h1m7 0h2m2 0h2m2 0h2m3 0h3M5 28.5h1m2 0h5m1 0h3m3 0h6m1 0h8m2 0h1m3 0h1m1 0h1m7 0h8m1 0h1m1 0h1m2 0h2m1 0h2m2 0h1m1 0h7m1 0h2m2 0h3m4 0h1m3 0h2m1 0h5m2 0h1M4 29.5h2m1 0h2m3 0h2m1 0h1m4 0h2m2 0h1m1 0h3m3 0h1m6 0h1m4 0h2m1 0h2m1 0h3m3 0h2m1 0h1m1 0h2m1 0h5m1 0h1m1 0h5m3 0h4m2 0h4m1 0h1m1 0h4m1 0h3m3 0h2m2 0h1M8 30.5h1m1 0h1m1 0h2m2 0h2m1 0h4m2 0h2m1 0h1m1 0h1m1 0h1m1 0h1m1 0h2m1 0h6m1 0h1m2 0h1m1 0h2m1 0h1m1 0h1m3 0h1m1 0h1m1 0h2m1 0h1m3 0h1m3 0h2m1 0h1m1 0h6m1 0h2m1 0h3m1 0h4m1 0h2m1 0h1m1 0h2m1 0h1M4 31.5h1m3 0h1m3 0h2m1 0h1m1 0h1m1 0h1m1 0h1m2 0h1m2 0h2m3 0h2m1 0h1m4 0h1m1 0h11m3 0h3m2 0h1m1 0h2m4 0h1m3 0h1m2 0h1m3 0h5m2 0h4m2 0h2m5 0h1m3 0h1m3 0h1M8 32.5h6m1 0h1m1 0h3m1 0h5m1 0h7m1 0h1m3 0h1m3 0h4m1 0h1m1 0h1m1 0h5m4 0h1m1 0h2m1 0h2m3 0h1m2 0h1m1 0h5m1 0h2m1 0h4m1 0h4m5 0h7m1 0h2M4 33.5h2m1 0h3m1 0h1m1 0h3m7 0h1m4 0h1m1 0h4m3 0h3m1 0h1m1 0h1m2 0h3m1 0h2m2 0h2m1 0h2m1 0h3m1 0h1m1 0h2m1 0h2m3 0h1m1 0h1m1 0h2m2 0h1m3 0h1m1 0h3m1 0h1m3 0h2m6 0h1m1 0h3M7 34.5h2m1 0h2m1 0h2m1 0h1m1 0h1m1 0h1m4 0h1m3 0h1m5 0h1m2 0h2m7 0h1m1 0h1m1 0h1m1 0h2m1 0h1m1 0h1m5 0h2m1 0h11m2 0h3m2 0h2m1 0h1m1 0h2m1 0h2m5 0h1m1 0h2m1 0h1m1 0h1M4 35.5h3m1 0h2m1 0h3m4 0h1m1 0h1m1 0h2m4 0h1m1 0h1m2 0h1m1 0h1m1 0h1m6 0h2m1 0h2m2 0h2m1 0h1m3 0h2m2 0h2m3 0h4m2 0h1m2 0h1m5 0h1m4 0h2m4 0h1m3 0h3m1 0h1m2 0h1m2 0h1M4 36.5h2m3 0h3m1 0h2m1 0h1m2 0h2m2 0h2m1 0h1m1 0h3m1 0h1m1 0h1m6 0h3m3 0h1m3 0h7m3 0h2m3 0h2m1 0h4m2 0h3m1 0h1m1 0h4m2 0h1m1 0h3m2 0h1m3 0h1m1 0h2m1 0h1m1 0h2m1 0h1M4 37.5h3m4 0h1m1 0h1m1 0h1m1 0h1m2 0h6m4 0h5m1 0h1m6 0h3m3 0h1m1 0h2m1 0h3m2 0h2m1 0h6m1 0h2m5 0h2m1 0h1m1 0h2m1 0h4m2 0h2m2 0h1m2 0h1m1 0h1m2 0h2m2 0h1m1 0h1M5 38.5h3m1 0h2m1 0h1m3 0h4m1 0h2m1 0h2m1 0h1m1 0h2m3 0h2m2 0h1m2 0h4m3 0h2m1 0h1m2 0h4m3 0h2m2 0h1m1 0h1m2 0h1m7 0h1m2 0h1m3 0h1m1 0h2m1 0h2m1 0h1m5 0h2m2 0h2m2 0h2M4 39.5h2m1 0h1m3 0h1m3 0h1m3 0h4m1 0h1m3 0h2m2 0h3m1 0h1m3 0h1m3 0h1m1 0h2m4 0h2m4 0h1m1 0h1m6 0h6m3 0h3m2 0h2m1 0h2m1 0h2m1 0h1m2 0h2m1 0h4m1 0h1m1 0h3M5 40.5h1m3 0h2m1 0h1m1 0h1m3 0h1m3 0h2m1 0h4m2 0h2m1 0h3m2 0h2m1 0h1m1 0h1m2 0h1m2 0h3m1 0h1m5 0h1m1 0h1m2 0h4m2 0h3m1 0h1m2 0h2m2 0h1m1 0h4m2 0h1m1 0h2m1 0h1m1 0h1m1 0h1m3 0h2m2 0h2M4 41.5h1m2 0h2m4 0h4m2 0h1m4 0h2m3 0h2m1 0h1m1 0h1m3 0h1m1 0h1m1 0h1m1 0h3m1 0h4m4 0h4m1 0h1m2 0h1m7 0h1m2 0h1m1 0h2m1 0h2m1 0h1m2 0h1m3 0h2m1 0h1m5 0h1m2 0h2m1 0h1m1 0h1M4 42.5h2m2 0h6m1 0h3m1 0h1m2 0h2m3 0h1m2 0h1m1 0h4m3 0h1m2 0h2m1 0h3m2 0h4m1 0h1m10 0h4m1 0h3m4 0h2m1 0h1m2 0h2m4 0h1m5 0h2m1 0h2m2 0h4M5 43.5h1m2 0h2m1 0h1m2 0h2m3 0h2m3 0h2m2 0h4m9 0h2m1 0h1m1 0h4m5 0h6m1 0h1m1 0h3m5 0h1m3 0h6m1 0h1m2 0h1m1 0h3m1 0h1m3 0h3m5 0h1M4 44.5h1m1 0h2m1 0h3m4 0h1m2 0h1m2 0h1m1 0h3m4 0h1m3 0h1m4 0h1m1 0h3m3 0h6m1 0h1m4 0h4m1 0h1m1 0h2m1 0h5m5 0h1m1 0h1m2 0h1m1 0h2m6 0h1m1 0h1m1 0h1m1 0h2m3 0h1m1 0h1M5 45.5h4m2 0h1m5 0h1m1 0h2m1 0h1m5 0h1m1 0h2m5 0h3m1 0h1m1 0h1m4 0h2m1 0h1m2 0h1m4 0h3m1 0h1m2 0h3m1 0h1m1 0h3m1 0h1m1 0h1m1 0h1m1 0h4m2 0h2m1 0h1m3 0h1m1 0h1m3 0h1m1 0h1m2 0h3M5 46.5h2m1 0h3m3 0h3m1 0h2m1 0h1m2 0h1m9 0h1m2 0h1m1 0h1m2 0h1m3 0h3m2 0h1m1 0h4m1 0h2m2 0h2m6 0h1m2 0h2m1 0h2m1 0h2m1 0h2m1 0h1m2 0h1m3 0h7m1 0h3m2 0h3M4 47.5h1m3 0h2m2 0h4m2 0h2m4 0h1m1 0h1m5 0h3m1 0h1m2 0h1m4 0h2m2 0h2m1 0h2m5 0h1m3 0h3m3 0h2m1 0h3m2 0h2m2 0h1m1 0h2m3 0h2m3 0h1m1 0h1m2 0h1m5 0h1m2 0h3M4 48.5h1m1 0h1m1 0h1m1 0h1m2 0h2m2 0h1m2 0h2m2 0h1m1 0h1m1 0h1m1 0h5m2 0h2m1 0h1m1 0h2m1 0h1m3 0h4m2 0h2m1 0h1m1 0h4m3 0h2m1 0h3m1 0h1m1 0h1m1 0h4m1 0h1m1 0h1m5 0h2m1 0h4m1 0h1m1 0h1m2 0h1m3 0h1M4 49.5h1m4 0h1m1 0h1m1 0h3m3 0h3m1 0h1m1 0h1m1 0h1m5 0h1m2 0h1m3 0h4m5 0h1m1 0h3m1 0h3m1 0h1m1 0h2m1 0h2m1 0h1m1 0h5m1 0h7m1 0h1m7 0h2m4 0h1m1 0h1m4 0h3m1 0h1M5 50.5h1m1 0h1m2 0h2m1 0h1m1 0h1m3 0h1m2 0h5m1 0h2m1 0h3m2 0h1m1 0h3m1 0h1m1 0h2m2 0h3m5 0h4m1 0h1m2 0h3m1 0h1m1 0h3m2 0h1m3 0h1m1 0h2m1 0h1m1 0h2m3 0h1m2 0h1m2 0h1m1 0h1m3 0h2m1 0h2M5 51.5h1m2 0h1m5 0h2m5 0h1m2 0h1m1 0h1m2 0h1m5 0h3m2 0h2m1 0h1m2 0h1m1 0h1m3 0h1m4 0h1m4 0h2m1 0h1m2 0h3m2 0h4m4 0h1m1 0h1m1 0h1m1 0h2m1 0h3m2 0h1m1 0h2m1 0h2m2 0h1m2 0h2M5 52.5h9m1 0h4m1 0h1m1 0h3m1 0h7m3 0h6m2 0h1m1 0h1m2 0h10m1 0h3m4 0h5m1 0h9m1 0h1m2 0h4m2 0h1m1 0h2m1 0h2m1 0h6m2 0h1M5 53.5h1m2 0h1m3 0h2m2 0h1m1 0h1m1 0h4m2 0h3m3 0h1m4 0h1m2 0h2m2 0h2m1 0h1m1 0h1m1 0h2m3 0h2m1 0h1m3 0h1m1 0h2m2 0h2m2 0h4m3 0h2m3 0h1m5 0h1m1 0h1m1 0h1m2 0h1m1 0h1m3 0h1m1 0h2M4 54.5h1m2 0h2m1 0h1m1 0h1m1 0h2m4 0h2m6 0h1m1 0h1m1 0h1m1 0h2m2 0h1m2 0h1m1 0h1m2 0h1m1 0h5m1 0h1m1 0h3m2 0h1m1 0h3m3 0h2m4 0h2m1 0h1m1 0h1m1 0h1m2 0h2m2 0h1m5 0h3m2 0h1m1 0h1m1 0h1m2 0h1M4 55.5h1m1 0h3m3 0h4m1 0h1m1 0h1m1 0h1m3 0h1m2 0h1m3 0h3m1 0h3m2 0h1m1 0h1m2 0h1m1 0h1m1 0h1m1 0h1m3 0h1m1 0h2m1 0h5m4 0h1m2 0h2m1 0h1m3 0h1m1 0h1m1 0h3m2 0h4m1 0h1m2 0h1m1 0h2m3 0h2m1 0h1M7 56.5h6m3 0h1m1 0h1m3 0h1m1 0h1m3 0h5m1 0h1m4 0h6m2 0h3m1 0h6m1 0h1m1 0h1m2 0h1m4 0h1m2 0h1m3 0h8m1 0h2m1 0h1m2 0h1m1 0h2m1 0h1m1 0h1m1 0h7m1 0h2M5 57.5h1m1 0h2m2 0h2m1 0h1m3 0h4m8 0h1m2 0h1m1 0h1m3 0h1m2 0h1m1 0h4m5 0h1m1 0h1m2 0h3m3 0h2m1 0h3m1 0h1m1 0h2m3 0h2m1 0h1m1 0h1m3 0h1m1 0h9m1 0h2m2 0h1m4 0h1M4 58.5h1m3 0h1m1 0h1m4 0h2m1 0h3m2 0h1m1 0h7m3 0h1m1 0h3m1 0h2m2 0h3m3 0h1m3 0h2m1 0h1m1 0h5m2 0h1m1 0h4m5 0h5m1 0h3m1 0h1m2 0h1m2 0h1m1 0h2m3 0h1m1 0h1m2 0h1m1 0h1M4 59.5h2m2 0h1m2 0h1m2 0h1m1 0h2m4 0h1m1 0h2m2 0h2m2 0h2m3 0h1m2 0h1m2 0h1m4 0h1m2 0h3m1 0h1m1 0h1m2 0h1m1 0h1m1 0h2m2 0h1m1 0h1m1 0h3m1 0h1m5 0h1m3 0h1m1 0h3m2 0h1m1 0h1m6 0h1m3 0h1M4 60.5h1m1 0h2m2 0h4m1 0h2m1 0h6m1 0h4m1 0h2m2 0h2m2 0h4m4 0h1m1 0h2m8 0h2m1 0h1m3 0h4m6 0h2m2 0h5m2 0h1m1 0h1m2 0h1m3 0h1m2 0h1m1 0h1m3 0h2m1 0h2M6 61.5h3m2 0h2m3 0h1m1 0h1m1 0h4m1 0h6m1 0h2m3 0h3m2 0h2m2 0h1m3 0h1m2 0h3m1 0h2m3 0h4m2 0h2m1 0h2m1 0h4m1 0h2m1 0h1m5 0h1m1 0h6m2 0h1m1 0h2m1 0h2m2 0h1M5 62.5h4m1 0h4m2 0h1m2 0h7m4 0h3m3 0h3m2 0h1m4 0h1m1 0h1m2 0h4m2 0h2m2 0h1m1 0h1m2 0h1m1 0h6m1 0h2m3 0h1m1 0h1m2 0h1m3 0h2m2 0h5m1 0h3m1 0h2m1 0h1m1 0h1M5 63.5h3m3 0h1m1 0h3m2 0h1m1 0h3m2 0h1m2 0h3m1 0h1m1 0h2m1 0h1m1 0h1m1 0h1m1 0h1m1 0h1m1 0h2m1 0h2m1 0h1m1 0h1m2 0h1m1 0h2m3 0h1m2 0h1m4 0h1m1 0h2m9 0h1m4 0h2m2 0h1m2 0h2m3 0h1m1 0h2M4 64.5h2m1 0h1m2 0h2m1 0h3m2 0h2m1 0h1m2 0h3m1 0h2m4 0h3m1 0h3m2 0h1m1 0h2m2 0h1m1 0h1m3 0h1m1 0h1m2 0h2m2 0h2m1 0h2m1 0h1m1 0h2m4 0h2m3 0h1m2 0h2m1 0h1m1 0h1m2 0h2m1 0h1m1 0h1m1 0h2m4 0h1M4 65.5h1m1 0h3m3 0h1m3 0h1m1 0h1m2 0h1m1 0h2m4 0h1m2 0h1m1 0h1m2 0h2m2 0h2m2 0h3m1 0h2m2 0h4m1 0h1m6 0h5m1 0h1m4 0h2m4 0h2m2 0h1m6 0h2m2 0h1m1 0h5m2 0h3M4 66.5h1m4 0h2m4 0h1m1 0h5m1 0h1m6 0h2m2 0h3m1 0h1m3 0h1m1 0h1m1 0h2m1 0h5m1 0h1m1 0h1m1 0h3m1 0h1m2 0h1m2 0h1m4 0h1m4 0h1m1 0h1m1 0h1m2 0h1m1 0h1m3 0h1m1 0h1m1 0h8m4 0h1M4 67.5h3m1 0h2m1 0h1m1 0h1m2 0h3m1 0h1m2 0h5m2 0h2m1 0h2m1 0h2m1 0h1m6 0h1m4 0h1m6 0h1m1 0h1m3 0h2m1 0h3m1 0h2m9 0h2m1 0h1m2 0h1m2 0h6m1 0h1m1 0h3m1 0h1m1 0h3M4 68.5h2m2 0h1m1 0h2m2 0h2m1 0h1m9 0h1m1 0h1m3 0h1m1 0h2m3 0h3m4 0h1m3 0h2m6 0h1m1 0h1m4 0h1m3 0h1m1 0h2m1 0h3m3 0h1m5 0h3m3 0h3m2 0h4m1 0h2m1 0h1M4 69.5h2m3 0h1m1 0h1m5 0h2m2 0h1m4 0h1m1 0h1m1 0h1m1 0h1m1 0h1m6 0h2m1 0h1m4 0h1m1 0h1m2 0h2m1 0h5m1 0h4m1 0h1m2 0h2m1 0h1m1 0h1m2 0h5m1 0h1m1 0h1m1 0h1m6 0h2m2 0h2m2 0h1M4 70.5h1m1 0h3m1 0h1m1 0h2m1 0h1m1 0h1m5 0h5m1 0h1m1 0h5m1 0h3m2 0h1m3 0h1m3 0h1m4 0h1m1 0h2m1 0h3m1 0h1m3 0h1m1 0h1m2 0h1m1 0h2m6 0h1m1 0h1m3 0h3m2 0h1m1 0h6m1 0h1m2 0h1M4 71.5h1m2 0h2m4 0h1m1 0h1m2 0h1m2 0h2m1 0h2m2 0h2m2 0h2m2 0h1m1 0h1m5 0h2m1 0h1m1 0h1m2 0h1m1 0h1m1 0h1m1 0h1m5 0h2m3 0h2m2 0h3m1 0h3m1 0h2m1 0h4m3 0h1m1 0h1m1 0h3m1 0h3m1 0h2m1 0h1M5 72.5h1m1 0h2m1 0h1m2 0h3m2 0h1m1 0h7m4 0h1m1 0h1m1 0h1m1 0h1m1 0h2m1 0h1m8 0h1m2 0h1m3 0h3m2 0h1m3 0h3m1 0h1m3 0h3m1 0h1m1 0h2m3 0h3m4 0h1m3 0h1m5 0h1m1 0h1M4 73.5h1m3 0h2m2 0h1m1 0h1m1 0h1m3 0h1m1 0h3m2 0h3m5 0h1m2 0h1m1 0h2m1 0h1m1 0h2m1 0h1m2 0h5m1 0h2m1 0h2m1 0h3m2 0h1m1 0h3m1 0h1m1 0h2m1 0h2m3 0h2m2 0h2m1 0h2m1 0h3m3 0h5m2 0h1M5 74.5h1m1 0h2m1 0h1m1 0h1m1 0h1m1 0h3m1 0h1m2 0h1m3 0h1m2 0h1m1 0h2m3 0h3m2 0h2m5 0h1m3 0h4m1 0h2m2 0h2m2 0h1m1 0h2m2 0h1m2 0h2m1 0h4m1 0h1m1 0h1m1 0h3m1 0h2m1 0h3m2 0h1m1 0h1m1 0h4m1 0h1M5 75.5h2m4 0h1m1 0h1m1 0h1m4 0h1m1 0h1m1 0h6m1 0h2m1 0h1m1 0h3m1 0h1m1 0h2m1 0h1m3 0h1m1 0h1m1 0h2m1 0h4m1 0h1m1 0h5m4 0h2m4 0h4m1 0h1m1 0h2m3 0h1m2 0h1m8 0h1m2 0h2m1 0h1M4 76.5h9m1 0h2m3 0h1m1 0h4m3 0h6m1 0h1m1 0h4m1 0h2m4 0h2m1 0h9m1 0h1m1 0h2m3 0h1m1 0h3m1 0h1m1 0h5m5 0h1m2 0h1m5 0h2m1 0h7m1 0h3M6 77.5h3m3 0h1m1 0h2m1 0h3m1 0h1m3 0h2m1 0h1m3 0h1m5 0h1m3 0h1m3 0h2m3 0h2m3 0h3m3 0h4m1 0h3m2 0h3m1 0h1m3 0h1m1 0h3m1 0h2m6 0h1m3 0h1m1 0h1m3 0h2M4 78.5h3m1 0h1m1 0h1m1 0h2m1 0h4m1 0h2m1 0h1m3 0h2m1 0h1m1 0h3m5 0h3m2 0h2m2 0h1m1 0h2m1 0h1m1 0h4m5 0h3m2 0h2m2 0h1m1 0h1m1 0h1m1 0h3m2 0h5m1 0h3m1 0h1m3 0h2m1 0h1m1 0h5M4 79.5h2m1 0h2m3 0h2m1 0h2m2 0h1m1 0h1m1 0h3m2 0h1m3 0h1m2 0h3m2 0h2m2 0h1m1 0h3m2 0h2m3 0h3m3 0h2m7 0h1m1 0h1m2 0h1m3 0h1m1 0h4m4 0h1m6 0h1m1 0h2m3 0h1m1 0h1M8 80.5h7m1 0h2m1 0h1m2 0h2m1 0h2m1 0h6m2 0h3m1 0h1m1 0h3m1 0h11m1 0h2m1 0h1m1 0h1m1 0h1m1 0h5m1 0h10m1 0h2m2 0h4m1 0h2m3 0h1m1 0h6m1 0h1M4 81.5h2m1 0h3m1 0h4m3 0h1m3 0h3m4 0h2m1 0h1m1 0h3m2 0h4m4 0h1m1 0h1m1 0h2m2 0h4m7 0h6m1 0h2m1 0h2m1 0h1m1 0h1m2 0h2m1 0h2m1 0h1m3 0h3m2 0h2m2 0h2m1 0h2M4 82.5h2m1 0h2m1 0h1m4 0h2m1 0h10m1 0h1m1 0h1m4 0h1m1 0h3m4 0h1m3 0h2m1 0h2m1 0h1m1 0h1m1 0h1m4 0h5m1 0h1m1 0h2m1 0h1m3 0h2m1 0h2m2 0h2m5 0h1m1 0h1m2 0h3m3 0h1m1 0h1M6 83.5h3m4 0h2m1 0h1m2 0h1m1 0h4m1 0h1m1 0h1m3 0h1m1 0h1m2 0h5m12 0h3m2 0h1m1 0h2m1 0h3m1 0h3m2 0h1m2 0h2m2 0h1m1 0h1m2 0h1m1 0h3m7 0h5m1 0h1m4 0h1M4 84.5h4m1 0h3m1 0h3m3 0h1m1 0h2m2 0h1m5 0h1m1 0h1m6 0h2m4 0h2m4 0h3m3 0h2m4 0h1m4 0h1m4 0h1m3 0h1m1 0h2m2 0h2m2 0h1m4 0h1m5 0h4m1 0h1m1 0h2M6 85.5h1m2 0h1m5 0h1m2 0h3m2 0h1m2 0h4m2 0h2m5 0h2m1 0h2m1 0h2m2 0h2m2 0h1m1 0h2m1 0h1m1 0h3m2 0h1m1 0h2m2 0h2m2 0h3m5 0h1m1 0h1m1 0h1m1 0h1m2 0h1m2 0h1m2 0h2m1 0h3m2 0h3M4 86.5h1m1 0h5m3 0h1m1 0h2m2 0h3m2 0h1m1 0h1m2 0h5m2 0h2m1 0h1m2 0h2m1 0h1m5 0h2m2 0h1m1 0h4m1 0h3m3 0h1m2 0h1m2 0h1m2 0h2m3 0h1m5 0h1m3 0h3m4 0h1m4 0h1M6 87.5h1m1 0h1m3 0h1m1 0h1m2 0h4m3 0h1m2 0h2m2 0h1m1 0h2m1 0h1m1 0h2m2 0h6m1 0h2m1 0h3m4 0h2m3 0h2m2 0h1m1 0h1m2 0h1m1 0h2m5 0h1m1 0h1m1 0h1m2 0h1m3 0h2m1 0h1m2 0h10M5 88.5h1m3 0h4m5 0h2m1 0h4m4 0h1m2 0h2m2 0h3m2 0h1m1 0h7m2 0h1m1 0h1m2 0h9m1 0h1m7 0h3m1 0h4m2 0h1m1 0h4m3 0h2m1 0h1m4 0h5m1 0h1M7 89.5h3m1 0h6m1 0h1m2 0h1m1 0h1m3 0h2m5 0h2m3 0h1m1 0h6m2 0h2m2 0h3m4 0h1m3 0h1m2 0h1m1 0h1m3 0h1m2 0h1m2 0h2m1 0h1m1 0h2m6 0h1m2 0h2m1 0h4m3 0h2m1 0h1M9 90.5h3m1 0h1m2 0h1m2 0h1m1 0h2m4 0h3m2 0h1m2 0h2m5 0h4m2 0h1m1 0h3m2 0h1m2 0h1m3 0h1m3 0h1m2 0h3m2 0h4m1 0h2m5 0h3m1 0h3m1 0h4m2 0h1m1 0h1m1 0h1m1 0h1m1 0h1M4 91.5h5m3 0h2m2 0h4m4 0h1m1 0h1m1 0h1m2 0h2m1 0h1m1 0h1m2 0h3m3 0h2m1 0h1m1 0h2m4 0h3m3 0h2m3 0h1m1 0h1m8 0h2m1 0h1m2 0h1m2 0h2m1 0h1m6 0h3m1 0h7M4 92.5h5m1 0h1m1 0h1m3 0h4m1 0h1m1 0h1m1 0h4m1 0h6m1 0h1m1 0h1m3 0h2m1 0h1m1 0h1m3 0h1m1 0h3m1 0h4m2 0h6m1 0h4m1 0h4m1 0h2m2 0h1m1 0h1m2 0h1m4 0h2m3 0h1m3 0h2m1 0h1M5 93.5h1m3 0h1m1 0h1m3 0h1m1 0h2m2 0h1m1 0h1m3 0h2m2 0h1m4 0h2m1 0h3m2 0h2m4 0h1m1 0h2m1 0h1m2 0h2m1 0h1m1 0h2m1 0h2m6 0h2m1 0h1m1 0h2m1 0h3m2 0h2m2 0h7m3 0h8M4 94.5h1m1 0h2m2 0h1m2 0h2m1 0h1m1 0h2m3 0h2m2 0h3m2 0h1m2 0h1m1 0h1m5 0h1m3 0h5m1 0h1m1 0h2m3 0h4m1 0h2m2 0h3m4 0h1m1 0h1m3 0h2m5 0h1m2 0h1m2 0h3m1 0h2m1 0h4M8 95.5h1m2 0h2m2 0h1m1 0h2m1 0h1m4 0h3m1 0h3m1 0h2m2 0h5m2 0h1m3 0h2m4 0h2m1 0h2m2 0h2m4 0h1m4 0h1m3 0h1m1 0h1m2 0h1m2 0h1m1 0h5m1 0h3m3 0h3m5 0h1m1 0h1M4 96.5h1m5 0h3m2 0h1m3 0h1m2 0h1m2 0h6m3 0h2m1 0h2m1 0h8m4 0h1m2 0h5m3 0h1m8 0h2m1 0h4m1 0h1m1 0h1m1 0h1m2 0h2m1 0h1m1 0h1m1 0h6m3 0h3M4 97.5h1m2 0h2m2 0h3m2 0h1m4 0h2m1 0h6m3 0h1m1 0h1m1 0h1m2 0h1m1 0h1m1 0h1m3 0h2m5 0h2m1 0h1m1 0h8m1 0h3m2 0h1m1 0h1m1 0h2m1 0h4m2 0h3m2 0h1m4 0h1m1 0h2m3 0h1m1 0h1m1 0h1M4 98.5h3m3 0h2m1 0h1m1 0h4m3 0h1m1 0h1m1 0h1m3 0h4m2 0h3m1 0h1m5 0h1m3 0h2m2 0h5m1 0h2m2 0h1m1 0h2m2 0h1m2 0h2m2 0h2m4 0h3m1 0h1m1 0h1m1 0h1m1 0h1m1 0h1m1 0h3m2 0h1m2 0h1m2 0h1M6 99.5h1m1 0h2m1 0h2m1 0h3m1 0h2m1 0h1m1 0h1m1 0h2m2 0h1m1 0h2m2 0h1m2 0h4m1 0h1m2 0h4m1 0h2m2 0h4m1 0h1m2 0h2m1 0h1m3 0h2m1 0h1m12 0h1m1 0h1m1 0h1m2 0h1m1 0h1m1 0h3m3 0h2m1 0h3M7 100.5h2m1 0h1m1 0h1m1 0h1m1 0h2m3 0h1m1 0h2m1 0h1m1 0h7m1 0h2m2 0h3m3 0h3m3 0h6m4 0h3m2 0h4m1 0h1m3 0h5m3 0h1m2 0h1m1 0h1m2 0h1m2 0h11M12 101.5h1m5 0h1m7 0h1m1 0h1m3 0h1m2 0h2m2 0h3m1 0h3m3 0h4m3 0h2m1 0h4m1 0h1m2 0h2m1 0h1m1 0h2m2 0h1m3 0h1m3 0h2m1 0h3m1 0h1m1 0h3m2 0h3m3 0h1m1 0h3M4 102.5h7m1 0h1m2 0h2m1 0h1m2 0h2m5 0h1m1 0h1m1 0h4m1 0h1m2 0h1m1 0h2m1 0h2m2 0h1m1 0h2m1 0h1m1 0h2m1 0h1m2 0h2m3 0h2m1 0h2m3 0h2m1 0h1m1 0h1m4 0h1m1 0h1m1 0h1m1 0h1m2 0h2m1 0h2m1 0h1m1 0h1m1 0h2M4 103.5h1m5 0h1m2 0h2m1 0h1m1 0h2m3 0h1m1 0h1m1 0h2m3 0h1m3 0h1m5 0h2m1 0h1m1 0h2m1 0h1m1 0h1m3 0h1m2 0h3m3 0h5m3 0h1m1 0h2m3 0h1m3 0h1m2 0h1m1 0h4m1 0h1m1 0h1m1 0h3m3 0h2m1 0h1M4 104.5h1m1 0h3m1 0h1m1 0h2m1 0h1m1 0h1m2 0h1m3 0h9m1 0h1m2 0h2m2 0h2m1 0h2m2 0h1m1 0h1m1 0h7m1 0h1m1 0h1m1 0h1m1 0h2m1 0h1m1 0h1m4 0h5m7 0h2m1 0h1m1 0h2m2 0h2m1 0h6M4 105.5h1m1 0h3m1 0h1m1 0h1m2 0h3m1 0h1m2 0h1m1 0h1m1 0h3m1 0h1m7 0h2m2 0h3m2 0h3m4 0h1m3 0h1m2 0h1m1 0h1m2 0h1m1 0h1m4 0h1m1 0h4m1 0h2m1 0h1m5 0h2m1 0h1m4 0h1m1 0h3m4 0h1M4 106.5h1m1 0h3m1 0h1m1 0h3m2 0h1m2 0h5m2 0h4m2 0h3m4 0h1m1 0h2m3 0h2m1 0h3m1 0h2m3 0h6m1 0h1m1 0h1m2 0h3m2 0h2m2 0h2m2 0h1m1 0h4m1 0h4m2 0h2m1 0h1m1 0h1m3 0h1M4 107.5h1m5 0h1m1 0h1m2 0h1m1 0h2m1 0h2m1 0h1m3 0h2m2 0h1m1 0h1m1 0h1m4 0h1m1 0h1m3 0h1m1 0h3m2 0h2m1 0h1m5 0h1m4 0h4m1 0h6m3 0h2m1 0h2m2 0h3m2 0h6m3 0h2M4 108.5h7m1 0h4m1 0h1m3 0h1m2 0h4m2 0h1m3 0h1m2 0h2m1 0h2m3 0h3m1 0h4m1 0h4m1 0h1m1 0h2m3 0h1m4 0h1m1 0h1m1 0h2m1 0h1m13 0h2m1 0h1m3 0h2m3 0h1m1 0h2"/></svg>
