<svg xmlns="http://www.w3.org/2000/svg" viewBox="0 0 113 113" shape-rendering="crispEdges"><path fill="#ffffff" d="M0 0h113v113H0z"/><path stroke="#000000" d="M4 4.5h7m1 0h3m1 0h2m4 0h1m2 0h1m2 0h1m1 0h2m1 0h1m1 0h1m1 0h3m4 0h1m1 0h6m1 0h2m4 0h1m2 0h4m2 0h3m1 0h2m1 0h1m1 0h2m1 0h2m1 0h1m1 0h1m1 0h2m1 0h2m1 0h1m2 0h1m1 0h1m3 0h7M4 5.5h1m5 0h1m4 0h3m1 0h5m2 0h4m1 0h5m2 0h8m3 0h2m3 0h3m6 0h1m2 0h1m2 0h2m2 0h1m1 0h1m1 0h2m3 0h5m1 0h1m1 0h5m1 0h1m1 0h1m3 0h1m5 0h1M4 6.5h1m1 0h3m1 0h1m1 0h2m3 0h1m1 0h1m1 0h1m2 0h1m6 0h3m3 0h1m3 0h1m1 0h1m1 0h2m1 0h2m2 0h3m1 0h1m1 0h1m3 0h1m1 0h1m2 0h1m2 0h1m1 0h1m1 0h1m6 0h2m1 0h1m2 0h2m3 0h1m3 0h1m1 0h2m2 0h1m1 0h3m1 0h1M4 7.5h1m1 0h3m1 0h1m2 0h1m1 0h2m2 0h1m1 0h1m3 0h1m2 0h1m1 0h2m2 0h1m3 0h1m2 0h3m1 0h1m3 0h1m3 0h5m2 0h1m1 0h8m1 0h3m4 0h1m1 0h7m2 0h3m4 0h2m2 0h1m1 0h1m1 0h3m1 0h1M4 8.5h1m1 0h3m1 0h1m2 0h1m1 0h6m3 0h1m1 0h1m1 0h6m1 0h1m1 0h4m1 0h1m1 0h1m1 0h1m1 0h2m1 0h6m1 0h1m2 0h5m2 0h1m2 0h1m1 0h1m2 0h5m1 0h1m2 0h1m1 0h1m1 0h2m1 0h1m1 0h3m2 0h2m1 0h1m1 0h3m1 0h1M4 9.5h1m5 0h1m1 0h5m3 0h3m1 0h1m2 0h2m3 0h3m3 0h3m2 0h2m1 0h1m2 0h4m3 0h3m2 0h1m3 0h2m1 0h3m5 0h1m3 0h1m1 0h1m1 0h1m2 0h4m1 0h1m6 0h1m2 0h1m5 0h1M4 10.5h7m1 0h1m1 0h1m1 0h1m1 0h1m1 0h1m1 0h1m1 0h1m1 0h1m1 0h1m1 0h1m1 0h1m1 0h1m1 0h1m1 0h1m1 0h1m1 0h1m1 0h1m1 0h1m1 0h1m1 0h1m1 0h1m1 0h1m1 0h1m1 0h1m1 0h1m1 0h1m1 0h1m1 0h1m1 0h1m1 0h1m1 0h1m1 0h1m1 0h1m1 0h1m1 0h1m1 0h1m1 0h1m1 0h1m1 0h1m1 0h1m1 0h1m1 0h1m1 0h1m1 0h1m1 0h1m1 0h7M14 11.5h2m3 0h2m5 0h1m1 0h1m3 0h1m1 0h2m1 0h5m1 0h1m3 0h1m3 0h2m3 0h2m1 0h2m11 0h1m1 0h3m3 0h4m1 0h1m1 0h1m1 0h1m3 0h1m2 0h1m1 0h3M4 12.5h1m1 0h1m3 0h2m5 0h1m2 0h1m1 0h1m2 0h1m1 0h6m3 0h5m5 0h2m1 0h1m2 0h6m1 0h1m6 0h1m1 0h3m2 0h9m1 0h1m1 0h1m1 0h2m2 0h5m1 0h1m5 0h1m2 0h1m1 0h1M5 13.5h1m1 0h1m1 0h1m2 0h1m1 0h3m1 0h6m2 0h2m1 0h1m1 0h2m1 0h1m2 0h1m2 0h2m1 0h2m1 0h2m2 0h2m1 0h3m1 0h1m1 0h2m2 0h2m1 0h2m1 0h1m2 0h1m2 0h1m5 0h2m1 0h3m1 0h7m2 0h1m2 0h6m2 0h1M4 14.5h2m1 0h1m1 0h3m1 0h1m2 0h3m4 0h1m3 0h3m1 0h2m2 0h1m3 0h2m2 0h1m2 0h4m1 0h2m2 0h3m1 0h1m2 0h1m1 0h2m2 0h7m1 0h1m4 0h1m2 0h3m1 0h3m1 0h1m1 0h3m2 0h3m1 0h2m1 0h1m1 0h1M5 15.5h1m1 0h2m2 0h2m3 0h4m1 0h1m3 0h1m4 0h5m1 0h1m1 0h1m1 0h1m1 0h7m2 0h1m1 0h4m1 0h2m1 0h1m5 0h1m1 0h1m2 0h2m3 0h2m3 0h2m4 0h1m2 0h4m1 0h4m1 0h2m2 0h2m1 0h1M6 16.5h1m1 0h1m1 0h1m1 0h1m3 0h2m1 0h8m1 0h1m2 0h3m1 0h1m2 0h1m3 0h1m3 0h1m2 0h1m2 0h7m1 0h6m1 0h2m1 0h3m3 0h1m1 0h3m1 0h1m2 0h2m1 0h6m1 0h1m1 0h1m3 0h2m1 0h1m1 0h1m1 0h1M5 17.5h1m6 0h1m2 0h6m3 0h1m1 0h2m2 0h3m1 0h1m2 0h3m5 0h1m3 0h1m1 0h1m3 0h2m1 0h1m1 0h1m1 0h3m9 0h3m3 0h1m3 0h1m4 0h1m1 0h1m4 0h1m2 0h1m2 0h1m1 0h3M8 18.5h1m1 0h3m2 0h4m1 0h1m1 0h2m5 0h2m1 0h1m5 0h4m2 0h1m1 0h1m3 0h2m3 0h1m1 0h1m2 0h1m2 0h1m1 0h1m1 0h1m1 0h2m5 0h1m1 0h2m1 0h1m2 0h4m2 0h1m1 0h3m3 0h1m2 0h2m2 0h1m2 0h1M7 19.5h2m2 0h4m1 0h1m1 0h2m4 0h1m2 0h3m1 0h1m1 0h4m1 0h1m1 0h2m2 0h1m1 0h3m1 0h2m3 0h1m1 0h2m1 0h3m1 0h2m4 0h1m1 0h1m3 0h1m3 0h5m3 0h1m1 0h3m1 0h1m1 0h3m2 0h1m2 0h1M4 20.5h8m4 0h6m2 0h1m2 0h2m1 0h1m1 0h1m1 0h1m2 0h1m1 0h2m1 0h1m1 0h1m1 0h4m3 0h2m1 0h2m2 0h1m3 0h5m2 0h1m1 0h1m1 0h2m1 0h2m1 0h1m1 0h3m1 0h2m2 0h2m1 0h1m1 0h1m3 0h2m1 0h1m2 0h3M5 21.5h5m1 0h5m3 0h1m1 0h3m3 0h1m1 0h1m4 0h1m1 0h1m2 0h2m2 0h2m4 0h3m1 0h1m1 0h1m1 0h3m1 0h3m1 0h3m2 0h1m1 0h1m1 0h1m4 0h1m5 0h1m1 0h2m2 0h1m1 0h4m8 0h4M6 22.5h1m1 0h4m1 0h1m4 0h2m4 0h1m1 0h1m1 0h1m1 0h2m2 0h1m1 0h1m1 0h1m1 0h1m1 0h7m1 0h1m1 0h6m1 0h2m5 0h2m1 0h1m1 0h1m2 0h7m5 0h1m3 0h1m3 0h2m1 0h1m1 0h1m1 0h1m1 0h1m3 0h1M4 23.5h1m1 0h2m1 0h1m1 0h1m1 0h1m3 0h1m1 0h3m1 0h1m1 0h1m1 0h4m1 0h2m1 0h1m3 0h2m2 0h3m1 0h1m2 0h4m2 0h1m1 0h1m1 0h4m1 0h2m1 0h2m1 0h2m4 0h1m1 0h2m1 0h1m1 0h1m1 0h1m1 0h3m1 0h1m3 0h1m3 0h1m2 0h2m1 0h2M4 24.5h1m3 0h1m1 0h2m4 0h1m1 0h2m1 0h5m1 0h2m2 0h1m1 0h2m1 0h1m4 0h1m4 0h2m1 0h2m1 0h4m2 0h1m1 0h4m1 0h1m3 0h1m1 0h1m1 0h1m1 0h1m1 0h1m1 0h1m2 0h3m1 0h1m1 0h1m1 0h2m1 0h2m2 0h2m1 0h1m1 0h2m1 0h1m1 0h2M5 25.5h1m1 0h1m1 0h1m2 0h1m4 0h1m1 0h1m9 0h2m3 0h1m1 0h1m1 0h2m3 0h1m1 0h2m1 0h1m4 0h1m6 0h2m1 0h2m2 0h1m4 0h6m3 0h1m1 0h1m3 0h1m2 0h1m1 0h3m11 0h1M5 26.5h4m1 0h2m1 0h2m2 0h1m1 0h1m1 0h2m4 0h1m2 0h3m4 0h1m5 0h1m1 0h1m1 0h3m2 0h6m2 0h1m1 0h1m2 0h3m1 0h1m1 0h1m1 0h2m1 0h3m1 0h2m2 0h1m1 0h1m1 0h2m3 0h4m1 0h3m3 0h1m1 0h1m1 0h1M4 27.5h1m2 0h2m4 0h2m1 0h2m1 0h3m1 0h1m1 0h4m4 0h1m2 0h1m1 0h2m2 0h1m3 0h3m1 0h1m2 0h1m2 0h2m1 0h2m2 0h1m4 0h1m2 0h1m3 0h1m1 0h1m3 0h1m1 0h6m5 0h1m1 0h2m1 0h2m1 0h1m1 0h1m2 0h1M4 28.5h1m1 0h8m1 0h1m1 0h3m1 0h2m1 0h11m1 0h5m2 0h1m3 0h1m2 0h1m1 0h6m2 0h1m1 0h7m1 0h3m3 0h15m1 0h2m1 0h2m1 0h9m1 0h1M4 29.5h1m2 0h2m3 0h1m1 0h4m4 0h3m2 0h2m3 0h1m3 0h2m4 0h2m1 0h6m1 0h1m3 0h4m4 0h1m1 0h1m2 0h3m4 0h1m3 0h2m2 0h2m4 0h1m2 0h3m4 0h1m3 0h1m1 0h3M4 30.5h2m1 0h2m1 0h1m1 0h1m1 0h1m1 0h1m2 0h3m1 0h3m2 0h1m1 0h1m1 0h1m2 0h4m2 0h2m2 0h1m1 0h6m1 0h1m1 0h2m1 0h1m5 0h3m1 0h2m2 0h1m2 0h1m1 0h1m1 0h1m1 0h5m2 0h2m2 0h1m2 0h1m1 0h3m1 0h1m1 0h4M5 31.5h1m1 0h2m3 0h2m1 0h2m1 0h2m2 0h1m1 0h2m1 0h2m3 0h1m1 0h3m5 0h2m2 0h4m2 0h1m3 0h1m1 0h4m2 0h1m2 0h2m3 0h1m2 0h2m3 0h1m1 0h2m4 0h1m1 0h2m2 0h1m3 0h3m3 0h1m2 0h1M5 32.5h1m1 0h7m1 0h5m1 0h1m1 0h3m1 0h8m1 0h3m1 0h3m4 0h1m1 0h1m2 0h6m1 0h1m4 0h1m2 0h3m4 0h1m1 0h8m1 0h1m1 0h2m1 0h1m1 0h1m1 0h1m1 0h1m1 0h7m3 0h1M4 33.5h1m1 0h2m1 0h1m1 0h3m1 0h1m1 0h1m4 0h1m1 0h1m1 0h5m1 0h1m3 0h1m1 0h1m2 0h2m1 0h1m2 0h3m3 0h1m3 0h1m1 0h2m5 0h1m1 0h1m1 0h2m2 0h1m1 0h1m2 0h1m1 0h1m1 0h2m1 0h4m3 0h1m3 0h3m1 0h1m1 0h2m1 0h2M8 34.5h1m1 0h5m1 0h2m1 0h1m4 0h2m2 0h3m2 0h1m3 0h5m3 0h3m3 0h1m1 0h1m1 0h2m1 0h3m1 0h1m1 0h3m1 0h1m1 0h3m2 0h2m1 0h11m1 0h5m1 0h1m1 0h1m1 0h1m1 0h1m1 0h4M4 35.5h2m3 0h1m1 0h3m1 0h2m5 0h2m3 0h5m2 0h3m1 0h2m2 0h1m3 0h1m1 0h1m2 0h1m1 0h1m1 0h2m3 0h3m3 0h5m2 0h1m2 0h2m2 0h2m2 0h1m1 0h1m1 0h1m1 0h4m1 0h2m4 0h3m3 0h1M4 36.5h1m1 0h2m1 0h5m2 0h1m2 0h2m2 0h1m1 0h1m1 0h4m4 0h3m8 0h1m3 0h1m1 0h3m1 0h2m2 0h1m3 0h1m1 0h1m1 0h1m1 0h1m3 0h2m2 0h3m9 0h2m1 0h1m2 0h3m1 0h1m3 0h4M6 37.5h1m1 0h1m4 0h1m2 0h3m8 0h1m2 0h2m1 0h6m1 0h1m3 0h1m3 0h5m1 0h3m1 0h2m1 0h2m1 0h1m1 0h1m2 0h1m2 0h5m9 0h1m3 0h3m3 0h1m1 0h2m2 0h3m1 0h1M7 38.5h2m1 0h2m1 0h3m1 0h1m1 0h4m3 0h1m4 0h1m1 0h1m1 0h1m5 0h12m3 0h2m9 0h3m2 0h1m3 0h3m3 0h1m1 0h1m3 0h7m2 0h1m1 0h1m7 0h2M6 39.5h1m2 0h1m2 0h4m3 0h3m1 0h9m1 0h3m3 0h1m6 0h2m3 0h2m1 0h2m3 0h3m3 0h5m2 0h2m4 0h4m2 0h1m5 0h2m1 0h1m3 0h1m1 0h1m1 0h1m1 0h3M5 40.5h1m1 0h1m2 0h2m1 0h1m3 0h1m1 0h4m1 0h2m1 0h1m1 0h2m2 0h2m1 0h1m1 0h4m1 0h1m1 0h1m1 0h2m2 0h1m1 0h1m1 0h1m3 0h1m2 0h1m2 0h1m9 0h1m2 0h2m1 0h1m3 0h2m1 0h3m1 0h2m1 0h4m2 0h1m1 0h6M5 41.5h2m5 0h2m1 0h2m2 0h1m6 0h1m1 0h3m1 0h4m1 0h1m1 0h3m2 0h1m4 0h1m2 0h1m1 0h1m1 0h4m1 0h1m2 0h3m1 0h1m1 0h2m2 0h1m1 0h1m1 0h1m1 0h2m2 0h1m1 0h1m2 0h1m1 0h1m1 0h1m5 0h1m1 0h1m1 0h1m1 0h1m1 0h1M4 42.5h2m1 0h1m2 0h1m3 0h5m2 0h1m1 0h2m2 0h3m3 0h2m1 0h1m6 0h1m4 0h2m3 0h1m2 0h1m1 0h3m1 0h1m2 0h1m4 0h1m3 0h2m2 0h4m1 0h8m1 0h3m3 0h4m3 0h1m1 0h2M4 43.5h4m3 0h1m1 0h1m2 0h5m2 0h1m3 0h2m1 0h1m1 0h3m1 0h1m1 0h1m2 0h2m2 0h1m2 0h1m1 0h2m2 0h1m1 0h1m3 0h1m1 0h1m3 0h1m1 0h1m1 0h2m2 0h1m1 0h2m1 0h1m1 0h1m1 0h2m1 0h1m1 0h2m2 0h2m2 0h2m1 0h4m1 0h4M4 44.5h3m1 0h1m1 0h1m5 0h2m5 0h4m2 0h1m1 0h2m1 0h3m3 0h1m2 0h4m1 0h2m3 0h3m1 0h1m1 0h3m1 0h1m1 0h1m3 0h3m3 0h2m1 0h1m2 0h1m1 0h1m1 0h2m5 0h1m3 0h1m4 0h2m2 0h1m1 0h2M4 45.5h2m2 0h2m1 0h1m3 0h1m1 0h1m2 0h1m1 0h1m1 0h1m1 0h2m1 0h1m1 0h3m2 0h2m3 0h2m1 0h2m1 0h1m2 0h2m2 0h4m2 0h1m1 0h1m3 0h1m1 0h1m5 0h1m2 0h1m2 0h1m2 0h3m1 0h1m3 0h1m2 0h1m3 0h1m1 0h1m4 0h3M4 46.5h1m1 0h1m2 0h3m1 0h1m2 0h2m5 0h1m2 0h2m1 0h1m5 0h2m3 0h2m3 0h3m2 0h6m4 0h4m1 0h1m1 0h1m2 0h1m1 0h3m1 0h1m3 0h3m1 0h1m1 0h2m3 0h1m4 0h2m1 0h2m1 0h3m2 0h1M5 47.5h3m1 0h1m1 0h1m2 0h3m2 0h2m4 0h3m1 0h3m6 0h2m2 0h4m1 0h1m1 0h1m3 0h1m1 0h2m2 0h1m2 0h1m1 0h2m2 0h1m1 0h1m2 0h2m1 0h4m2 0h1m2 0h1m1 0h1m1 0h3m3 0h1m1 0h4m1 0h5m1 0h1M4 48.5h1m2 0h1m1 0h3m2 0h1m2 0h3m1 0h1m1 0h1m2 0h1m1 0h2m1 0h1m2 0h4m1 0h2m2 0h5m3 0h2m1 0h4m3 0h2m1 0h5m1 0h5m1 0h1m1 0h1m1 0h2m2 0h2m1 0h1m1 0h2m5 0h5m1 0h2m1 0h1m1 0h2M4 49.5h4m1 0h1m3 0h2m7 0h3m4 0h2m1 0h1m2 0h1m4 0h1m2 0h1m1 0h1m1 0h2m1 0h1m3 0h4m3 0h1m2 0h1m1 0h4m5 0h1m1 0h1m1 0h1m1 0h2m1 0h1m5 0h1m1 0h2m1 0h1m1 0h1m1 0h1m2 0h2m1 0h3M4 50.5h2m2 0h1m1 0h5m2 0h1m1 0h1m4 0h1m5 0h2m3 0h4m5 0h5m2 0h2m1 0h1m8 0h3m1 0h2m4 0h1m1 0h1m1 0h6m3 0h2m2 0h2m3 0h1m1 0h2m1 0h1m1 0h1m1 0h2m2 0h1M4 51.5h1m2 0h1m3 0h4m2 0h1m1 0h1m3 0h7m1 0h2m1 0h3m1 0h1m2 0h3m1 0h1m5 0h4m2 0h2m2 0h1m2 0h1m2 0h2m1 0h3m1 0h3m1 0h1m2 0h1m4 0h1m2 0h2m3 0h1m1 0h2m1 0h1m3 0h1m1 0h4M7 52.5h7m1 0h5m5 0h2m1 0h5m1 0h2m1 0h2m3 0h1m1 0h1m1 0h1m1 0h1m3 0h5m3 0h1m2 0h2m2 0h1m3 0h1m1 0h8m2 0h3m2 0h2m1 0h1m1 0h1m1 0h2m3 0h7M4 53.5h2m1 0h2m3 0h1m1 0h1m2 0h2m3 0h1m3 0h3m3 0h1m1 0h3m3 0h2m1 0h1m2 0h1m1 0h1m1 0h3m3 0h1m2 0h1m3 0h1m1 0h3m1 0h1m2 0h2m1 0h2m3 0h2m1 0h1m1 0h1m3 0h1m2 0h1m2 0h1m1 0h2m1 0h1m3 0h2M4 54.5h3m1 0h1m1 0h1m1 0h2m3 0h1m5 0h1m1 0h1m1 0h2m1 0h1m1 0h1m1 0h1m2 0h2m3 0h1m1 0h3m1 0h1m3 0h1m1 0h1m1 0h1m1 0h1m1 0h2m1 0h4m2 0h1m3 0h4m1 0h1m1 0h1m1 0h3m1 0h1m2 0h1m1 0h4m1 0h3m1 0h1m1 0h1m1 0h1m1 0h1m1 0h1M4 55.5h1m2 0h2m3 0h5m2 0h1m1 0h2m1 0h1m2 0h2m3 0h4m4 0h3m1 0h5m2 0h2m3 0h1m1 0h2m2 0h2m1 0h2m1 0h1m1 0h3m1 0h3m3 0h1m1 0h3m2 0h1m1 0h1m1 0h2m4 0h1m1 0h2m3 0h2M7 56.5h6m1 0h1m1 0h1m1 0h1m1 0h1m4 0h2m1 0h6m1 0h1m2 0h1m3 0h1m1 0h2m1 0h3m1 0h7m1 0h7m1 0h2m1 0h13m2 0h1m1 0h1m1 0h2m1 0h2m1 0h1m2 0h7M5 57.5h3m1 0h1m2 0h2m2 0h1m2 0h2m4 0h2m1 0h4m8 0h1m2 0h3m2 0h1m1 0h3m3 0h1m1 0h1m6 0h1m1 0h2m1 0h1m3 0h2m1 0h3m2 0h2m4 0h1m3 0h1m6 0h1m1 0h1m2 0h2m1 0h1M4 58.5h1m1 0h3m1 0h2m1 0h3m3 0h2m4 0h1m3 0h2m4 0h1m3 0h2m1 0h3m4 0h1m2 0h1m1 0h1m1 0h2m3 0h2m2 0h6m1 0h1m3 0h2m1 0h2m1 0h1m2 0h5m4 0h2m1 0h1m1 0h6m1 0h1m1 0h1M5 59.5h3m4 0h1m4 0h2m1 0h3m5 0h3m1 0h1m1 0h1m2 0h1m1 0h1m3 0h1m1 0h1m2 0h1m2 0h1m1 0h2m4 0h2m5 0h2m1 0h2m1 0h1m2 0h1m1 0h1m4 0h1m1 0h6m2 0h1m1 0h1m1 0h1m3 0h2m3 0h1m1 0h1M4 60.5h1m1 0h2m2 0h1m1 0h2m1 0h2m2 0h4m1 0h1m1 0h1m2 0h2m1 0h1m1 0h8m4 0h1m4 0h3m1 0h2m1 0h4m1 0h1m3 0h2m1 0h1m3 0h1m2 0h3m3 0h2m3 0h4m3 0h3m1 0h2m1 0h2m1 0h2m1 0h1M6 61.5h3m3 0h4m1 0h1m1 0h2m3 0h1m1 0h1m3 0h2m1 0h1m1 0h1m3 0h1m1 0h1m3 0h1m4 0h2m5 0h2m2 0h2m5 0h1m1 0h1m1 0h2m1 0h3m3 0h1m7 0h2m1 0h2m2 0h1m2 0h2m1 0h2m2 0h3M5 62.5h1m1 0h2m1 0h1m2 0h4m1 0h2m3 0h2m2 0h1m1 0h1m5 0h1m2 0h2m3 0h2m1 0h6m3 0h1m5 0h3m1 0h2m1 0h6m2 0h1m3 0h3m1 0h1m1 0h1m1 0h1m2 0h2m1 0h1m1 0h1m1 0h4m5 0h2M4 63.5h3m4 0h1m2 0h4m2 0h3m1 0h1m1 0h1m1 0h1m1 0h2m1 0h1m1 0h1m2 0h5m3 0h2m1 0h1m1 0h1m1 0h1m1 0h6m1 0h4m1 0h1m2 0h3m1 0h1m2 0h1m2 0h2m1 0h1m1 0h1m1 0h1m1 0h2m1 0h1m2 0h1m2 0h1m2 0h1m3 0h1M4 64.5h1m1 0h1m1 0h1m1 0h3m1 0h1m2 0h1m2 0h4m1 0h1m1 0h1m1 0h3m2 0h1m1 0h1m4 0h1m1 0h2m1 0h1m1 0h1m4 0h3m1 0h3m2 0h3m2 0h3m1 0h1m7 0h5m1 0h3m1 0h6m1 0h7m3 0h1M6 65.5h2m1 0h1m4 0h2m1 0h2m1 0h1m2 0h1m2 0h3m1 0h1m1 0h3m1 0h6m1 0h2m2 0h2m1 0h1m1 0h4m1 0h1m2 0h1m2 0h1m3 0h7m1 0h1m2 0h1m3 0h2m1 0h1m2 0h2m2 0h1m3 0h3m1 0h2m1 0h4m1 0h1M5 66.5h1m1 0h1m2 0h5m1 0h1m1 0h1m2 0h3m2 0h2m7 0h1m1 0h1m1 0h1m1 0h2m1 0h1m1 0h1m2 0h1m3 0h2m2 0h4m1 0h1m5 0h6m1 0h2m2 0h3m1 0h3m1 0h1m1 0h1m3 0h2m1 0h2m1 0h1m1 0h4m3 0h1M4 67.5h1m1 0h2m1 0h1m2 0h1m3 0h2m1 0h1m5 0h5m2 0h1m2 0h1m2 0h1m1 0h1m1 0h1m1 0h3m1 0h2m1 0h4m1 0h2m3 0h1m1 0h2m1 0h1m2 0h1m1 0h1m1 0h1m1 0h1m2 0h1m5 0h1m1 0h2m1 0h1m3 0h2m3 0h4m2 0h2M4 68.5h2m2 0h1m1 0h1m2 0h2m2 0h4m1 0h2m3 0h2m2 0h1m4 0h2m3 0h1m2 0h2m1 0h3m1 0h1m1 0h1m1 0h4m3 0h1m3 0h1m1 0h1m1 0h1m2 0h1m1 0h2m2 0h1m1 0h2m1 0h1m3 0h3m1 0h2m3 0h4m1 0h1m2 0h4M6 69.5h1m2 0h1m1 0h2m1 0h2m2 0h4m4 0h3m2 0h1m3 0h2m4 0h2m1 0h2m3 0h1m5 0h3m11 0h1m1 0h2m1 0h1m4 0h5m7 0h1m1 0h1m1 0h2m3 0h1m4 0h1m2 0h1M4 70.5h1m2 0h1m1 0h2m5 0h1m8 0h1m3 0h3m3 0h1m2 0h1m2 0h1m1 0h4m2 0h1m1 0h1m1 0h3m1 0h2m1 0h5m1 0h2m1 0h3m3 0h3m1 0h3m2 0h1m3 0h5m3 0h1m2 0h2m3 0h3m1 0h1M5 71.5h2m2 0h1m4 0h1m4 0h2m1 0h2m1 0h4m1 0h1m2 0h2m2 0h2m5 0h6m3 0h5m3 0h4m1 0h4m1 0h1m1 0h1m1 0h1m1 0h1m1 0h1m3 0h2m1 0h3m3 0h1m1 0h1m1 0h2m1 0h2m1 0h2m1 0h1M4 72.5h4m2 0h2m2 0h1m1 0h1m3 0h3m4 0h1m1 0h2m1 0h1m2 0h5m5 0h3m1 0h1m1 0h1m3 0h3m1 0h1m3 0h1m1 0h1m1 0h1m3 0h1m1 0h3m2 0h6m1 0h2m1 0h1m1 0h1m4 0h4m1 0h3m5 0h1M5 73.5h1m2 0h2m1 0h2m2 0h1m3 0h2m2 0h2m1 0h1m1 0h2m3 0h2m1 0h1m2 0h1m2 0h1m3 0h1m3 0h1m4 0h3m1 0h1m2 0h4m2 0h2m1 0h2m2 0h2m1 0h4m2 0h1m2 0h1m4 0h1m4 0h1m1 0h1m2 0h2m2 0h1M4 74.5h3m3 0h2m3 0h4m1 0h1m3 0h1m2 0h1m2 0h3m1 0h1m2 0h1m2 0h1m1 0h1m2 0h1m4 0h1m2 0h1m1 0h1m2 0h1m1 0h1m2 0h4m2 0h1m6 0h5m1 0h1m1 0h2m1 0h3m2 0h3m3 0h2m1 0h1m3 0h4M4 75.5h3m2 0h1m4 0h1m1 0h2m1 0h2m1 0h2m1 0h2m3 0h1m2 0h7m4 0h1m1 0h1m1 0h1m2 0h2m1 0h3m1 0h1m4 0h1m1 0h1m1 0h1m1 0h3m1 0h1m1 0h2m1 0h2m4 0h1m1 0h1m1 0h1m1 0h1m2 0h1m3 0h2m3 0h1m3 0h2M4 76.5h1m2 0h9m1 0h1m2 0h2m1 0h1m4 0h7m2 0h2m1 0h1m2 0h1m3 0h1m2 0h1m1 0h5m3 0h1m2 0h1m1 0h3m1 0h1m1 0h11m1 0h1m1 0h1m1 0h2m4 0h2m1 0h1m2 0h6M5 77.5h4m3 0h1m2 0h1m3 0h1m1 0h1m5 0h2m3 0h1m1 0h1m1 0h2m1 0h1m1 0h1m2 0h2m2 0h1m3 0h1m3 0h1m1 0h1m2 0h1m2 0h2m1 0h1m1 0h1m2 0h2m2 0h1m3 0h2m1 0h1m1 0h1m3 0h3m1 0h3m4 0h1m3 0h1m1 0h3M6 78.5h1m1 0h1m1 0h1m1 0h1m1 0h1m1 0h1m2 0h2m4 0h1m2 0h1m1 0h1m1 0h1m2 0h5m3 0h2m3 0h3m1 0h1m1 0h1m1 0h1m1 0h3m1 0h2m1 0h2m7 0h1m1 0h1m1 0h1m1 0h1m1 0h2m1 0h4m3 0h2m1 0h2m3 0h1m1 0h1m1 0h2m1 0h2M7 79.5h2m3 0h1m2 0h1m1 0h2m1 0h1m1 0h1m1 0h2m1 0h2m3 0h1m4 0h1m1 0h3m2 0h1m1 0h1m2 0h1m2 0h1m3 0h1m1 0h1m6 0h1m1 0h2m4 0h1m1 0h2m3 0h1m2 0h1m1 0h2m2 0h3m1 0h1m2 0h5m3 0h1m3 0h1M5 80.5h1m2 0h5m10 0h2m3 0h7m1 0h1m6 0h1m1 0h1m2 0h1m3 0h6m1 0h1m4 0h4m6 0h8m2 0h1m1 0h1m1 0h1m1 0h1m1 0h5m3 0h6m2 0h1M4 81.5h4m7 0h1m3 0h1m1 0h1m3 0h3m2 0h1m1 0h1m1 0h1m1 0h9m1 0h1m8 0h1m1 0h2m1 0h3m1 0h2m4 0h1m2 0h1m1 0h2m2 0h3m1 0h2m6 0h4m2 0h2m3 0h1m1 0h1m2 0h1M4 82.5h1m3 0h1m1 0h2m1 0h1m4 0h1m1 0h1m1 0h10m1 0h1m1 0h1m1 0h1m5 0h1m2 0h1m4 0h1m1 0h1m3 0h1m1 0h6m2 0h2m2 0h5m2 0h2m1 0h5m1 0h2m3 0h4m2 0h5m1 0h5M6 83.5h1m2 0h1m2 0h4m3 0h1m1 0h1m1 0h1m5 0h2m2 0h4m3 0h4m1 0h10m3 0h1m1 0h2m1 0h1m1 0h1m6 0h1m3 0h1m1 0h4m1 0h1m3 0h2m1 0h2m6 0h1m2 0h2m2 0h1m2 0h1M4 84.5h2m4 0h1m1 0h6m3 0h3m4 0h1m2 0h1m3 0h1m2 0h7m3 0h1m4 0h1m2 0h1m1 0h3m4 0h2m1 0h1m1 0h1m2 0h5m7 0h1m6 0h2m3 0h2m2 0h1m3 0h1m1 0h2M5 85.5h1m1 0h1m1 0h1m1 0h2m6 0h2m1 0h1m1 0h4m1 0h1m1 0h1m1 0h1m2 0h1m1 0h1m1 0h1m2 0h1m1 0h1m4 0h1m1 0h1m1 0h2m3 0h1m5 0h2m1 0h2m1 0h3m2 0h1m1 0h1m5 0h2m1 0h1m3 0h4m2 0h1m1 0h5m3 0h2M8 86.5h8m1 0h2m1 0h1m1 0h7m1 0h1m2 0h2m3 0h2m1 0h1m1 0h4m1 0h2m1 0h4m2 0h5m1 0h1m3 0h1m5 0h8m1 0h1m2 0h2m1 0h5m1 0h1m1 0h4m2 0h1m4 0h2M4 87.5h6m4 0h1m1 0h2m3 0h3m3 0h1m1 0h3m1 0h1m4 0h3m1 0h3m2 0h1m1 0h4m2 0h2m1 0h1m1 0h2m1 0h1m4 0h1m2 0h3m2 0h1m5 0h3m1 0h6m1 0h1m1 0h1m1 0h1m2 0h1m3 0h1m3 0h1M5 88.5h1m1 0h1m1 0h3m2 0h3m1 0h2m3 0h1m3 0h2m2 0h3m3 0h1m2 0h5m2 0h3m1 0h1m2 0h1m1 0h1m4 0h1m3 0h1m2 0h2m1 0h1m1 0h1m2 0h5m1 0h1m2 0h1m1 0h6m1 0h1m2 0h4m1 0h2m1 0h1m1 0h1M4 89.5h2m2 0h2m1 0h3m1 0h1m1 0h1m4 0h1m1 0h1m1 0h2m3 0h2m3 0h2m2 0h1m3 0h1m2 0h1m1 0h2m3 0h1m1 0h1m3 0h1m1 0h2m1 0h2m2 0h1m2 0h2m4 0h1m1 0h1m1 0h1m9 0h4m1 0h1m5 0h1m1 0h4M5 90.5h3m1 0h5m1 0h4m1 0h1m2 0h3m1 0h2m1 0h2m3 0h1m2 0h4m1 0h6m2 0h3m2 0h7m3 0h1m1 0h1m1 0h2m4 0h2m2 0h1m2 0h1m1 0h3m2 0h2m1 0h2m1 0h2m2 0h3m2 0h3M4 91.5h2m2 0h2m1 0h2m5 0h2m1 0h1m3 0h3m3 0h4m3 0h3m2 0h1m1 0h1m5 0h2m5 0h1m2 0h1m2 0h1m1 0h1m3 0h2m1 0h2m3 0h1m2 0h4m1 0h1m1 0h2m2 0h2m2 0h1m1 0h1m6 0h1m1 0h1M5 92.5h2m1 0h3m5 0h1m2 0h1m1 0h2m2 0h3m1 0h1m3 0h2m1 0h1m3 0h1m1 0h2m1 0h3m1 0h1m1 0h2m2 0h1m1 0h1m1 0h3m2 0h1m1 0h3m1 0h1m1 0h5m4 0h6m4 0h4m1 0h1m1 0h2m2 0h1m1 0h2M6 93.5h1m1 0h2m1 0h1m2 0h3m2 0h2m1 0h2m3 0h1m1 0h1m1 0h1m5 0h2m3 0h5m1 0h2m4 0h3m1 0h2m3 0h1m2 0h1m3 0h1m3 0h1m3 0h1m1 0h1m1 0h1m1 0h1m4 0h1m1 0h1m1 0h1m1 0h2m2 0h1m1 0h1m5 0h2M4 94.5h2m2 0h5m1 0h1m1 0h2m1 0h1m2 0h2m5 0h2m2 0h1m2 0h1m4 0h1m2 0h1m1 0h1m1 0h3m2 0h2m1 0h1m2 0h1m1 0h2m1 0h2m1 0h1m2 0h1m1 0h1m1 0h1m1 0h2m2 0h4m1 0h2m7 0h1m2 0h2m1 0h3m1 0h3M4 95.5h3m1 0h1m4 0h3m4 0h1m1 0h2m1 0h2m1 0h1m1 0h2m2 0h1m7 0h2m1 0h2m4 0h2m1 0h1m1 0h1m1 0h2m3 0h2m1 0h3m3 0h2m1 0h3m2 0h3m2 0h2m4 0h1m1 0h2m1 0h1m1 0h1m2 0h2M4 96.5h2m1 0h2m1 0h2m1 0h1m1 0h2m1 0h5m1 0h1m1 0h2m4 0h2m2 0h1m5 0h2m4 0h5m2 0h2m1 0h1m1 0h1m1 0h1m1 0h2m2 0h2m2 0h2m1 0h1m1 0h3m4 0h1m4 0h2m3 0h2m1 0h1m3 0h7M6 97.5h1m1 0h1m2 0h6m1 0h1m1 0h1m1 0h1m1 0h1m1 0h1m1 0h4m2 0h2m1 0h4m3 0h3m2 0h6m1 0h5m2 0h1m3 0h1m1 0h2m1 0h3m1 0h3m6 0h1m2 0h3m4 0h1m2 0h2m1 0h1m1 0h1M4 98.5h3m3 0h2m5 0h1m3 0h2m1 0h2m1 0h1m6 0h1m2 0h1m1 0h1m1 0h1m1 0h2m3 0h2m8 0h4m1 0h1m3 0h4m1 0h2m2 0h1m4 0h6m1 0h2m2 0h2m1 0h2m1 0h1m1 0h4m2 0h1M6 99.5h1m1 0h2m1 0h2m1 0h5m1 0h5m1 0h1m2 0h4m2 0h4m4 0h2m1 0h1m6 0h3m1 0h1m1 0h1m2 0h1m2 0h2m1 0h1m3 0h1m1 0h3m2 0h1m1 0h1m1 0h1m4 0h1m1 0h2m3 0h5m1 0h1m1 0h1m1 0h2m1 0h1M7 100.5h2m1 0h5m4 0h1m2 0h1m2 0h1m1 0h6m3 0h1m1 0h6m2 0h1m1 0h1m1 0h7m7 0h11m1 0h5m4 0h4m1 0h1m2 0h1m1 0h1m4 0h5m3 0h1M12 101.5h2m1 0h1m2 0h1m1 0h5m1 0h3m3 0h1m1 0h3m1 0h1m1 0h1m1 0h3m4 0h1m1 0h2m3 0h2m4 0h2m7 0h1m3 0h2m3 0h1m1 0h1m1 0h1m1 0h1m2 0h1m1 0h1m1 0h5m1 0h2m3 0h1M4 102.5h7m1 0h2m1 0h1m1 0h1m2 0h4m1 0h4m1 0h1m1 0h1m3 0h2m2 0h1m1 0h3m1 0h2m1 0h1m2 0h1m1 0h1m1 0h1m1 0h2m1 0h1m2 0h1m2 0h2m1 0h3m2 0h2m1 0h1m1 0h1m2 0h3m3 0h1m2 0h2m1 0h3m1 0h2m1 0h1m1 0h5M4 103.5h1m5 0h1m2 0h2m1 0h2m2 0h2m2 0h1m2 0h2m3 0h2m1 0h3m2 0h5m5 0h1m1 0h1m3 0h2m1 0h1m1 0h2m1 0h1m1 0h1m2 0h2m3 0h1m1 0h1m3 0h1m3 0h3m7 0h1m2 0h1m1 0h2m3 0h1m3 0h1M4 104.5h1m1 0h3m1 0h1m3 0h2m1 0h5m1 0h3m1 0h6m1 0h2m2 0h1m3 0h2m5 0h2m1 0h5m1 0h1m1 0h1m1 0h4m1 0h2m1 0h11m2 0h1m1 0h2m2 0h2m1 0h1m2 0h1m2 0h10M4 105.5h1m1 0h3m1 0h1m3 0h2m1 0h3m1 0h2m1 0h1m1 0h1m3 0h2m1 0h1m3 0h2m4 0h2m1 0h1m1 0h1m1 0h3m3 0h1m3 0h1m3 0h6m1 0h2m7 0h2m1 0h1m1 0h1m3 0h1m3 0h2m1 0h1m2 0h1m3 0h3M4 106.5h1m1 0h3m1 0h1m1 0h1m3 0h3m3 0h3m4 0h3m2 0h1m3 0h1m3 0h2m2 0h1m2 0h1m1 0h7m1 0h2m1 0h1m4 0h1m3 0h2m1 0h1m1 0h1m3 0h2m1 0h1m1 0h5m2 0h4m1 0h1m2 0h1m2 0h6M4 107.5h1m5 0h1m2 0h4m1 0h5m2 0h1m4 0h1m1 0h3m2 0h2m3 0h1m1 0h2m2 0h1m2 0h3m2 0h1m1 0h3m7 0h1m2 0h2m1 0h1m2 0h3m3 0h1m1 0h1m1 0h2m1 0h6m3 0h2m2 0h1m1 0h2M4 108.5h7m1 0h2m2 0h1m1 0h1m7 0h3m1 0h1m1 0h3m1 0h1m3 0h1m2 0h4m1 0h4m3 0h2m1 0h1m2 0h1m1 0h3m5 0h1m3 0h2m1 0h1m1 0h1m1 0h1m1 0h2m1 0h1m4 0h2m1 0h1m1 0h1m1 0h1m3 0h2m3 0h1"/></svg>
