<svg xmlns="http://www.w3.org/2000/svg" viewBox="0 0 113 113" shape-rendering="crispEdges"><path fill="#ffffff" d="M0 0h113v113H0z"/><path stroke="#000000" d="M4 4.5h7m1 0h1m1 0h1m1 0h1m1 0h3m1 0h1m1 0h1m1 0h2m5 0h2m1 0h2m2 0h3m4 0h1m1 0h1m2 0h6m1 0h2m2 0h1m1 0h1m1 0h3m1 0h2m1 0h2m2 0h1m1 0h6m1 0h2m1 0h3m4 0h2m3 0h7M4 5.5h1m5 0h1m1 0h2m3 0h1m1 0h10m1 0h1m4 0h5m1 0h3m1 0h4m4 0h1m1 0h1m4 0h5m2 0h2m1 0h6m1 0h1m1 0h1m1 0h1m5 0h1m1 0h1m4 0h2m2 0h1m3 0h1m5 0h1M4 6.5h1m1 0h3m1 0h1m1 0h3m1 0h7m2 0h4m1 0h1m1 0h5m2 0h1m3 0h4m1 0h1m1 0h5m1 0h2m3 0h3m1 0h2m1 0h1m2 0h1m1 0h3m1 0h1m1 0h2m2 0h1m2 0h1m1 0h1m1 0h3m1 0h1m1 0h4m2 0h1m1 0h3m1 0h1M4 7.5h1m1 0h3m1 0h1m1 0h2m1 0h1m1 0h1m1 0h1m2 0h3m1 0h1m1 0h1m1 0h3m3 0h2m1 0h4m2 0h1m1 0h3m1 0h2m3 0h2m1 0h1m1 0h1m2 0h1m1 0h1m1 0h1m8 0h2m4 0h1m1 0h1m1 0h1m2 0h1m1 0h1m1 0h2m1 0h1m2 0h1m1 0h1m1 0h3m1 0h1M4 8.5h1m1 0h3m1 0h1m2 0h7m1 0h1m1 0h1m4 0h5m1 0h1m2 0h2m2 0h2m1 0h2m1 0h3m1 0h12m2 0h2m2 0h1m1 0h3m1 0h6m3 0h1m1 0h1m1 0h1m4 0h5m1 0h2m1 0h1m1 0h3m1 0h1M4 9.5h1m5 0h1m1 0h1m2 0h1m1 0h2m2 0h2m1 0h1m1 0h3m3 0h1m1 0h3m2 0h3m2 0h2m1 0h3m1 0h2m3 0h1m1 0h6m1 0h1m2 0h2m1 0h1m1 0h1m2 0h1m3 0h1m1 0h1m1 0h2m1 0h1m1 0h2m1 0h3m1 0h1m2 0h1m2 0h1m5 0h1M4 10.5h7m1 0h1m1 0h1m1 0h1m1 0h1m1 0h1m1 0h1m1 0h1m1 0h1m1 0h1m1 0h1m1 0h1m1 0h1m1 0h1m1 0h1m1 0h1m1 0h1m1 0h1m1 0h1m1 0h1m1 0h1m1 0h1m1 0h1m1 0h1m1 0h1m1 0h1m1 0h1m1 0h1m1 0h1m1 0h1m1 0h1m1 0h1m1 0h1m1 0h1m1 0h1m1 0h1m1 0h1m1 0h1m1 0h1m1 0h1m1 0h1m1 0h1m1 0h1m1 0h1m1 0h1m1 0h1m1 0h7M13 11.5h1m1 0h1m2 0h2m2 0h3m1 0h3m3 0h1m4 0h2m1 0h1m1 0h3m1 0h1m2 0h1m1 0h2m3 0h5m2 0h1m3 0h1m1 0h1m1 0h2m2 0h2m3 0h2m1 0h2m1 0h1m1 0h1m1 0h1m2 0h1m2 0h2m1 0h1M4 12.5h2m2 0h3m2 0h1m4 0h1m1 0h3m3 0h8m1 0h3m1 0h2m1 0h3m1 0h3m1 0h7m1 0h1m1 0h1m1 0h4m2 0h2m4 0h9m1 0h2m1 0h3m2 0h6m1 0h2m2 0h1m1 0h4M4 13.5h1m7 0h1m2 0h5m1 0h6m3 0h1m1 0h1m5 0h1m3 0h2m1 0h2m2 0h1m1 0h6m4 0h2m1 0h5m2 0h2m2 0h4m1 0h1m2 0h4m2 0h2m4 0h6m1 0h3m1 0h1m1 0h1M4 14.5h1m2 0h1m2 0h4m2 0h2m5 0h1m4 0h1m3 0h2m2 0h2m1 0h1m1 0h1m2 0h2m1 0h4m3 0h3m1 0h2m2 0h1m2 0h1m1 0h2m1 0h3m1 0h1m1 0h1m2 0h2m1 0h1m2 0h3m1 0h1m1 0h2m2 0h1m1 0h3m2 0h1m1 0h1m1 0h2M5 15.5h4m5 0h2m2 0h2m3 0h2m1 0h1m2 0h1m1 0h2m2 0h1m1 0h1m2 0h1m2 0h2m3 0h1m1 0h1m2 0h2m3 0h1m2 0h1m1 0h1m1 0h1m2 0h2m1 0h1m2 0h1m1 0h1m2 0h3m1 0h1m4 0h1m1 0h1m1 0h1m1 0h8m1 0h1m2 0h2M5 16.5h2m1 0h1m1 0h2m1 0h1m2 0h2m1 0h2m7 0h2m1 0h1m1 0h2m1 0h1m1 0h1m2 0h1m3 0h1m1 0h3m2 0h3m1 0h1m2 0h2m2 0h3m1 0h1m4 0h1m2 0h1m2 0h1m1 0h3m1 0h1m1 0h5m1 0h1m1 0h8m1 0h1m2 0h1m1 0h1M9 17.5h1m2 0h2m5 0h1m4 0h1m3 0h1m1 0h1m2 0h4m2 0h1m3 0h3m3 0h2m2 0h4m1 0h1m1 0h1m3 0h1m2 0h1m1 0h2m4 0h1m2 0h2m1 0h1m2 0h5m3 0h2m2 0h1m1 0h1m1 0h1m1 0h1m1 0h3m1 0h1M4 18.5h1m2 0h2m1 0h1m1 0h2m1 0h2m2 0h1m4 0h5m1 0h1m1 0h1m2 0h1m2 0h1m2 0h1m1 0h1m1 0h1m4 0h2m1 0h1m7 0h1m1 0h2m4 0h3m3 0h1m3 0h1m1 0h4m1 0h2m1 0h1m2 0h2m3 0h3m2 0h3m1 0h1M5 19.5h3m1 0h1m4 0h1m1 0h1m5 0h1m3 0h1m1 0h2m2 0h2m1 0h1m1 0h1m1 0h2m2 0h1m4 0h3m1 0h4m1 0h2m1 0h2m1 0h3m1 0h2m2 0h2m3 0h6m3 0h4m3 0h1m1 0h1m1 0h1m1 0h2m1 0h2m3 0h2M4 20.5h2m1 0h1m2 0h2m1 0h1m2 0h3m1 0h1m6 0h4m1 0h1m1 0h1m1 0h2m3 0h12m1 0h1m1 0h1m4 0h1m1 0h2m3 0h2m1 0h2m2 0h4m3 0h5m1 0h1m4 0h1m3 0h1m1 0h1m1 0h2m1 0h1m1 0h1M4 21.5h2m1 0h1m1 0h1m3 0h1m1 0h1m3 0h1m4 0h1m2 0h2m4 0h1m1 0h2m1 0h3m1 0h1m1 0h1m2 0h3m3 0h2m3 0h5m2 0h1m2 0h1m1 0h4m1 0h1m1 0h3m1 0h2m1 0h1m1 0h4m1 0h3m2 0h1m2 0h5m1 0h3M4 22.5h4m2 0h1m1 0h2m1 0h3m1 0h1m1 0h1m1 0h1m6 0h2m1 0h2m1 0h1m2 0h1m3 0h2m2 0h3m1 0h1m3 0h1m1 0h1m1 0h1m1 0h2m2 0h2m1 0h2m1 0h3m1 0h2m1 0h1m3 0h4m2 0h2m3 0h1m3 0h1m1 0h2m1 0h1m1 0h1m3 0h1M5 23.5h2m2 0h1m1 0h1m1 0h2m4 0h1m1 0h3m2 0h5m1 0h3m1 0h1m1 0h1m2 0h1m3 0h1m1 0h1m1 0h1m2 0h3m2 0h1m1 0h1m1 0h4m2 0h8m3 0h5m1 0h1m2 0h2m1 0h1m1 0h4m2 0h3m5 0h1m1 0h1M6 24.5h1m1 0h3m2 0h2m2 0h2m2 0h1m1 0h1m2 0h2m3 0h6m2 0h2m3 0h1m2 0h1m1 0h2m1 0h2m3 0h1m1 0h6m1 0h2m1 0h1m3 0h1m1 0h7m2 0h1m1 0h3m4 0h1m1 0h1m2 0h1m2 0h1m1 0h4m1 0h1M4 25.5h2m5 0h2m3 0h1m1 0h3m3 0h3m1 0h1m1 0h1m5 0h1m1 0h4m1 0h2m1 0h2m3 0h1m1 0h1m2 0h1m1 0h2m1 0h1m1 0h4m3 0h2m2 0h3m3 0h2m2 0h2m4 0h2m5 0h2m4 0h2m1 0h3M5 26.5h6m3 0h1m1 0h1m4 0h3m1 0h1m2 0h1m3 0h1m1 0h2m1 0h1m2 0h1m2 0h2m1 0h2m2 0h1m3 0h2m1 0h1m4 0h3m1 0h3m4 0h3m5 0h5m1 0h2m1 0h1m4 0h2m1 0h1m1 0h5m1 0h1M4 27.5h3m2 0h1m1 0h1m2 0h8m3 0h2m1 0h1m2 0h2m2 0h1m2 0h4m1 0h1m3 0h1m2 0h2m1 0h2m1 0h1m3 0h1m1 0h2m9 0h1m1 0h2m2 0h3m2 0h1m1 0h1m1 0h1m2 0h1m3 0h4m2 0h1M4 28.5h3m1 0h5m2 0h1m1 0h4m2 0h1m1 0h2m1 0h8m3 0h2m1 0h2m2 0h3m1 0h8m2 0h4m2 0h1m3 0h2m1 0h1m1 0h6m1 0h3m1 0h2m1 0h3m3 0h10M4 29.5h3m1 0h1m3 0h1m2 0h1m1 0h5m1 0h1m2 0h3m3 0h1m1 0h2m1 0h1m4 0h1m1 0h3m2 0h1m2 0h1m3 0h1m1 0h1m1 0h1m1 0h1m1 0h1m3 0h2m1 0h1m4 0h1m3 0h1m4 0h1m1 0h2m1 0h1m2 0h2m3 0h1m1 0h1m3 0h2m1 0h1M4 30.5h3m1 0h1m1 0h1m1 0h1m1 0h1m1 0h1m4 0h1m1 0h1m2 0h1m1 0h1m1 0h1m1 0h2m3 0h2m1 0h4m1 0h2m2 0h1m1 0h2m1 0h1m1 0h3m1 0h1m2 0h2m1 0h1m1 0h4m2 0h1m1 0h1m1 0h1m1 0h2m1 0h3m4 0h2m2 0h1m3 0h1m1 0h1m1 0h1m1 0h1m1 0h2M5 31.5h1m1 0h2m3 0h1m1 0h1m3 0h1m2 0h2m1 0h5m3 0h3m3 0h1m2 0h2m1 0h5m2 0h2m3 0h1m2 0h5m1 0h2m2 0h1m3 0h4m3 0h2m2 0h2m1 0h4m9 0h1m3 0h3m1 0h1M7 32.5h6m1 0h1m1 0h1m1 0h3m1 0h2m3 0h8m1 0h2m1 0h4m2 0h3m3 0h9m4 0h3m5 0h1m1 0h1m1 0h5m1 0h3m1 0h1m1 0h3m2 0h1m1 0h2m1 0h8M5 33.5h1m7 0h1m1 0h1m1 0h1m1 0h3m1 0h1m1 0h1m2 0h3m1 0h1m2 0h2m1 0h2m4 0h1m1 0h1m2 0h1m1 0h3m2 0h1m1 0h3m1 0h1m1 0h1m3 0h2m1 0h2m4 0h1m1 0h1m1 0h6m3 0h1m5 0h4m2 0h3m1 0h1M4 34.5h2m1 0h1m1 0h4m3 0h1m3 0h3m2 0h2m1 0h4m1 0h1m5 0h1m2 0h2m1 0h2m1 0h1m1 0h2m1 0h2m7 0h1m2 0h1m6 0h5m3 0h3m2 0h1m1 0h2m1 0h4m3 0h3m1 0h1m1 0h2m1 0h2M5 35.5h2m1 0h2m2 0h1m6 0h1m1 0h1m1 0h1m2 0h1m1 0h2m1 0h2m1 0h1m2 0h3m2 0h1m2 0h1m3 0h2m1 0h1m1 0h2m1 0h1m1 0h1m3 0h1m1 0h1m1 0h3m5 0h1m1 0h2m2 0h2m3 0h2m1 0h1m2 0h1m7 0h1m3 0h1m2 0h1M4 36.5h1m1 0h3m1 0h1m1 0h2m3 0h2m2 0h2m2 0h2m2 0h1m1 0h2m1 0h2m6 0h4m1 0h1m1 0h2m3 0h2m1 0h1m1 0h2m1 0h1m2 0h2m1 0h1m1 0h5m1 0h1m2 0h3m3 0h1m2 0h3m1 0h1m2 0h2m5 0h2m2 0h2M4 37.5h2m1 0h3m2 0h2m1 0h2m1 0h1m1 0h1m1 0h1m5 0h2m3 0h2m1 0h3m2 0h1m3 0h2m1 0h2m2 0h3m6 0h2m3 0h1m1 0h1m3 0h1m2 0h2m1 0h3m2 0h1m2 0h2m1 0h2m3 0h1m2 0h2m1 0h2m1 0h1m2 0h1m1 0h1M7 38.5h2m1 0h2m1 0h1m2 0h1m1 0h2m1 0h2m2 0h2m1 0h1m2 0h1m1 0h1m1 0h1m1 0h1m3 0h3m6 0h1m1 0h1m1 0h3m1 0h1m2 0h1m1 0h1m2 0h2m3 0h1m4 0h1m8 0h3m1 0h1m2 0h1m2 0h4m1 0h1m3 0h2m1 0h2M4 39.5h1m6 0h2m3 0h1m1 0h1m1 0h1m2 0h1m2 0h2m1 0h1m6 0h2m3 0h1m1 0h1m1 0h2m1 0h4m2 0h2m1 0h1m2 0h1m1 0h1m4 0h3m1 0h1m1 0h3m1 0h2m1 0h2m2 0h3m2 0h3m3 0h3m1 0h1m1 0h1m1 0h1m1 0h2m1 0h1M5 40.5h3m1 0h6m3 0h1m1 0h1m2 0h1m1 0h1m1 0h3m4 0h1m2 0h1m2 0h2m1 0h2m4 0h4m1 0h1m4 0h1m1 0h1m1 0h4m1 0h5m2 0h1m1 0h1m2 0h1m1 0h2m2 0h1m2 0h5m4 0h2m1 0h3M4 41.5h5m3 0h6m1 0h1m1 0h1m1 0h3m5 0h2m1 0h3m2 0h3m2 0h1m1 0h2m2 0h2m1 0h2m2 0h2m1 0h3m1 0h4m3 0h1m1 0h1m1 0h1m3 0h1m1 0h1m2 0h1m2 0h2m1 0h2m2 0h2m1 0h1m3 0h1m5 0h1M5 42.5h1m1 0h1m2 0h1m1 0h1m2 0h5m3 0h1m1 0h1m2 0h1m1 0h1m4 0h1m1 0h4m1 0h1m5 0h1m4 0h1m2 0h3m4 0h3m1 0h2m3 0h5m1 0h1m1 0h1m1 0h3m1 0h5m1 0h3m1 0h1m1 0h1m4 0h2m3 0h1M6 43.5h1m4 0h1m1 0h1m1 0h3m1 0h1m1 0h3m2 0h2m1 0h2m2 0h2m5 0h1m1 0h1m2 0h1m2 0h5m3 0h1m2 0h3m1 0h1m2 0h2m2 0h1m1 0h1m1 0h2m1 0h4m1 0h1m2 0h3m1 0h1m1 0h2m3 0h2m1 0h2m2 0h1m2 0h3M5 44.5h3m1 0h2m1 0h1m1 0h3m5 0h1m6 0h3m1 0h1m2 0h1m1 0h1m2 0h3m3 0h1m2 0h3m1 0h3m1 0h2m1 0h3m1 0h5m1 0h2m1 0h1m2 0h2m1 0h1m1 0h1m1 0h6m3 0h1m1 0h1m3 0h1m5 0h1m1 0h1M4 45.5h1m1 0h2m3 0h1m1 0h1m5 0h1m2 0h5m1 0h2m1 0h1m1 0h4m1 0h3m3 0h1m1 0h1m4 0h1m1 0h1m2 0h2m4 0h2m7 0h1m2 0h1m1 0h2m1 0h1m2 0h4m2 0h2m1 0h2m2 0h1m6 0h1m4 0h1M4 46.5h8m4 0h2m4 0h2m1 0h1m1 0h1m4 0h1m3 0h1m3 0h2m1 0h4m3 0h1m1 0h4m1 0h3m1 0h1m2 0h2m2 0h1m2 0h1m1 0h1m1 0h3m1 0h1m1 0h1m2 0h2m1 0h1m3 0h1m2 0h1m1 0h2m1 0h1m3 0h1m1 0h4M4 47.5h1m1 0h1m1 0h1m4 0h1m2 0h7m1 0h4m3 0h1m2 0h2m1 0h2m1 0h2m1 0h1m1 0h1m1 0h1m1 0h2m4 0h2m1 0h1m1 0h2m6 0h2m1 0h5m1 0h1m3 0h1m4 0h1m2 0h1m5 0h1m1 0h4m5 0h2M4 48.5h2m1 0h2m1 0h4m1 0h1m4 0h3m2 0h5m2 0h3m1 0h2m2 0h1m2 0h1m1 0h1m2 0h1m1 0h2m1 0h3m6 0h2m1 0h1m1 0h2m1 0h4m1 0h3m2 0h5m1 0h1m2 0h1m6 0h1m2 0h1m3 0h3m1 0h2M4 49.5h2m1 0h1m4 0h1m1 0h2m1 0h1m1 0h1m2 0h1m5 0h2m4 0h4m2 0h1m2 0h1m3 0h3m2 0h5m7 0h8m2 0h1m1 0h1m3 0h1m3 0h3m2 0h1m4 0h3m2 0h5m2 0h1M4 50.5h1m1 0h1m3 0h2m1 0h1m1 0h4m1 0h3m2 0h1m6 0h3m2 0h2m2 0h3m2 0h2m2 0h7m1 0h2m1 0h3m5 0h1m2 0h3m1 0h1m2 0h4m2 0h1m1 0h1m1 0h1m1 0h2m2 0h5m1 0h2m1 0h2m2 0h1M5 51.5h1m1 0h2m4 0h7m3 0h1m1 0h5m2 0h1m2 0h1m2 0h2m4 0h2m5 0h3m2 0h1m2 0h2m1 0h1m1 0h1m7 0h1m7 0h1m1 0h2m1 0h1m2 0h4m2 0h1m1 0h2m7 0h1m1 0h1M6 52.5h1m1 0h5m2 0h2m2 0h1m1 0h2m2 0h2m1 0h5m2 0h1m3 0h4m1 0h1m1 0h2m2 0h1m1 0h5m2 0h2m7 0h3m2 0h8m4 0h1m2 0h5m1 0h1m2 0h1m1 0h6m1 0h1m1 0h1M4 53.5h2m1 0h2m3 0h2m1 0h3m1 0h1m2 0h1m5 0h1m3 0h1m1 0h2m1 0h1m2 0h3m2 0h1m1 0h1m1 0h1m2 0h1m3 0h2m1 0h1m1 0h3m2 0h2m1 0h2m1 0h5m3 0h5m1 0h3m4 0h1m2 0h1m3 0h1m3 0h1m2 0h2M4 54.5h3m1 0h1m1 0h1m1 0h3m1 0h1m5 0h4m2 0h1m1 0h1m1 0h2m3 0h1m1 0h2m2 0h3m1 0h3m1 0h2m1 0h1m1 0h1m2 0h2m3 0h1m3 0h1m3 0h3m1 0h1m1 0h1m1 0h1m1 0h1m3 0h2m1 0h2m1 0h4m1 0h2m1 0h1m1 0h1m1 0h1M4 55.5h1m1 0h3m3 0h2m2 0h2m1 0h3m2 0h1m1 0h3m3 0h1m1 0h2m4 0h6m6 0h1m3 0h3m1 0h1m1 0h3m1 0h1m1 0h2m5 0h2m3 0h3m2 0h1m1 0h1m1 0h1m1 0h1m1 0h1m2 0h1m1 0h1m1 0h1m3 0h3m1 0h1M5 56.5h1m2 0h7m1 0h3m3 0h3m3 0h6m1 0h1m8 0h1m1 0h1m1 0h1m1 0h1m1 0h6m1 0h2m2 0h6m1 0h1m2 0h1m1 0h7m1 0h1m2 0h3m2 0h3m1 0h1m4 0h8M4 57.5h1m7 0h2m3 0h1m1 0h3m1 0h1m1 0h2m1 0h1m1 0h2m3 0h3m1 0h3m1 0h5m3 0h1m1 0h1m4 0h1m2 0h2m1 0h1m1 0h1m1 0h1m1 0h2m5 0h1m4 0h1m1 0h3m2 0h2m1 0h3m1 0h1m7 0h1m1 0h1M5 58.5h1m3 0h4m1 0h2m1 0h1m1 0h4m1 0h1m1 0h2m1 0h1m1 0h3m2 0h7m1 0h1m2 0h2m1 0h2m1 0h1m1 0h1m2 0h1m1 0h3m1 0h1m2 0h2m3 0h1m6 0h1m1 0h1m1 0h2m1 0h1m1 0h2m3 0h1m2 0h4m1 0h1m2 0h2m2 0h1M6 59.5h1m2 0h1m5 0h1m3 0h1m3 0h7m7 0h1m1 0h2m2 0h2m5 0h4m1 0h4m6 0h1m5 0h4m5 0h1m2 0h1m1 0h1m1 0h2m2 0h1m2 0h2m2 0h2m1 0h2m1 0h1m2 0h1M4 60.5h4m2 0h1m1 0h1m2 0h1m4 0h1m1 0h4m3 0h1m3 0h1m1 0h3m1 0h2m1 0h2m1 0h2m1 0h1m6 0h1m2 0h2m1 0h3m4 0h1m1 0h1m1 0h2m4 0h2m1 0h2m2 0h6m1 0h1m1 0h1m1 0h6m2 0h1m2 0h2M5 61.5h2m1 0h2m3 0h1m1 0h1m2 0h2m3 0h2m1 0h2m1 0h5m3 0h2m1 0h2m3 0h2m1 0h1m3 0h1m1 0h1m3 0h1m1 0h2m2 0h1m1 0h5m1 0h2m1 0h1m4 0h6m2 0h2m1 0h1m2 0h1m1 0h1m1 0h7m2 0h1M4 62.5h2m1 0h2m1 0h1m1 0h3m1 0h2m1 0h1m2 0h1m1 0h1m1 0h1m4 0h1m1 0h2m2 0h3m1 0h1m1 0h3m2 0h2m1 0h1m2 0h1m1 0h2m1 0h1m1 0h1m4 0h1m1 0h1m2 0h2m1 0h4m1 0h1m2 0h1m3 0h2m1 0h2m1 0h5m2 0h1m2 0h2m1 0h1m1 0h1M4 63.5h3m2 0h1m1 0h1m1 0h1m1 0h1m5 0h6m1 0h2m4 0h1m1 0h4m1 0h1m1 0h1m2 0h3m1 0h2m3 0h4m2 0h2m2 0h1m1 0h2m5 0h4m1 0h1m1 0h3m2 0h2m3 0h1m1 0h1m1 0h1m2 0h1m1 0h2m1 0h2m2 0h1M4 64.5h1m2 0h6m8 0h1m4 0h1m1 0h2m2 0h1m1 0h1m2 0h3m4 0h1m1 0h6m1 0h1m3 0h1m1 0h1m4 0h2m1 0h1m2 0h2m1 0h1m2 0h2m5 0h2m2 0h1m2 0h2m4 0h1m1 0h2m2 0h1m1 0h1M5 65.5h1m2 0h2m1 0h6m1 0h2m1 0h1m1 0h1m2 0h1m2 0h2m2 0h3m2 0h3m2 0h2m1 0h1m1 0h7m1 0h2m1 0h1m1 0h1m3 0h1m2 0h1m1 0h1m1 0h3m2 0h2m1 0h2m1 0h1m1 0h1m3 0h3m1 0h4m2 0h4m1 0h1m1 0h1M4 66.5h2m1 0h5m4 0h1m3 0h1m1 0h1m1 0h1m2 0h4m4 0h1m7 0h1m2 0h2m2 0h1m3 0h1m1 0h1m2 0h1m1 0h4m1 0h3m6 0h1m2 0h3m1 0h1m1 0h1m2 0h1m3 0h1m3 0h2m8 0h2m1 0h1M4 67.5h1m1 0h1m1 0h2m1 0h4m1 0h1m1 0h3m1 0h3m2 0h4m1 0h1m1 0h5m1 0h1m1 0h1m1 0h3m2 0h2m1 0h2m1 0h1m1 0h2m3 0h1m2 0h1m4 0h3m1 0h4m1 0h1m1 0h1m2 0h2m6 0h1m1 0h1m3 0h2m2 0h1m1 0h2m1 0h2M5 68.5h3m1 0h2m2 0h3m1 0h1m2 0h3m2 0h2m2 0h2m2 0h1m1 0h3m7 0h2m1 0h3m1 0h2m4 0h1m4 0h4m1 0h1m1 0h2m1 0h1m1 0h2m2 0h3m1 0h1m1 0h1m1 0h2m2 0h1m2 0h3m1 0h1m1 0h2m2 0h1m1 0h3M4 69.5h1m4 0h1m2 0h2m1 0h1m2 0h2m3 0h1m1 0h6m2 0h1m1 0h1m1 0h1m1 0h1m4 0h2m1 0h4m3 0h4m1 0h2m2 0h5m1 0h1m8 0h1m3 0h1m1 0h1m2 0h1m1 0h1m1 0h1m2 0h4m2 0h5m2 0h2M4 70.5h4m1 0h2m1 0h1m1 0h4m1 0h3m1 0h2m1 0h2m1 0h1m2 0h1m4 0h1m4 0h1m1 0h2m4 0h1m3 0h2m1 0h1m2 0h2m2 0h5m3 0h3m1 0h4m1 0h3m1 0h4m2 0h2m2 0h1m1 0h1m1 0h1m1 0h1m1 0h4M5 71.5h1m1 0h1m6 0h1m3 0h1m1 0h1m1 0h1m1 0h1m2 0h1m5 0h1m1 0h1m3 0h1m4 0h2m1 0h1m1 0h2m1 0h1m3 0h1m1 0h1m3 0h3m2 0h1m1 0h4m1 0h6m2 0h1m1 0h2m1 0h2m1 0h1m3 0h1m1 0h1m1 0h2m1 0h1m1 0h1m1 0h2M6 72.5h1m1 0h1m1 0h4m2 0h1m3 0h2m4 0h2m1 0h1m2 0h2m1 0h2m1 0h1m2 0h2m1 0h1m1 0h3m9 0h1m2 0h1m2 0h3m2 0h1m1 0h1m1 0h6m2 0h6m1 0h3m2 0h3m1 0h3m6 0h3M6 73.5h3m3 0h1m1 0h1m1 0h4m1 0h2m2 0h1m1 0h2m6 0h2m1 0h1m1 0h1m1 0h1m1 0h1m1 0h3m3 0h2m1 0h5m4 0h2m3 0h7m2 0h2m2 0h2m4 0h4m1 0h3m1 0h2m3 0h1m1 0h5M4 74.5h1m1 0h7m1 0h1m1 0h2m3 0h1m1 0h1m2 0h4m1 0h2m1 0h1m3 0h1m2 0h1m2 0h4m1 0h1m1 0h1m1 0h1m3 0h1m1 0h1m3 0h3m4 0h1m1 0h4m2 0h2m1 0h1m1 0h1m1 0h3m2 0h2m2 0h3m2 0h2m2 0h1m1 0h3M4 75.5h1m1 0h1m2 0h1m1 0h3m5 0h1m4 0h2m1 0h1m5 0h1m2 0h2m1 0h2m2 0h10m1 0h1m4 0h1m1 0h5m3 0h3m1 0h4m1 0h2m1 0h1m1 0h1m1 0h1m2 0h2m2 0h2m1 0h2m2 0h1m2 0h1m2 0h2M4 76.5h1m2 0h6m7 0h1m2 0h2m2 0h7m2 0h4m1 0h3m8 0h7m1 0h1m1 0h2m1 0h1m1 0h1m5 0h2m1 0h5m2 0h3m1 0h2m1 0h1m2 0h1m2 0h1m1 0h7m2 0h2M4 77.5h1m1 0h1m1 0h1m3 0h2m2 0h8m3 0h2m3 0h1m2 0h2m3 0h1m1 0h1m4 0h3m2 0h1m3 0h5m2 0h1m4 0h3m3 0h1m1 0h1m3 0h1m1 0h1m2 0h1m2 0h4m3 0h2m2 0h2m3 0h2m1 0h1M4 78.5h1m1 0h1m1 0h1m1 0h1m1 0h1m1 0h3m3 0h1m1 0h3m3 0h1m1 0h1m1 0h1m4 0h2m4 0h1m1 0h1m3 0h2m1 0h1m1 0h1m1 0h1m2 0h1m1 0h1m1 0h4m1 0h2m2 0h1m2 0h2m1 0h1m1 0h1m2 0h4m2 0h1m1 0h2m1 0h1m1 0h3m1 0h1m1 0h1m1 0h2m2 0h1M4 79.5h2m1 0h2m3 0h2m1 0h1m1 0h1m2 0h1m2 0h2m1 0h3m3 0h7m2 0h3m1 0h1m1 0h2m1 0h1m1 0h1m3 0h1m7 0h1m3 0h2m3 0h4m3 0h2m1 0h1m1 0h4m1 0h4m1 0h1m1 0h4m3 0h3M4 80.5h1m1 0h8m2 0h2m4 0h4m2 0h6m1 0h1m1 0h1m1 0h4m1 0h2m1 0h2m1 0h7m1 0h1m1 0h2m1 0h1m1 0h1m1 0h1m1 0h2m1 0h1m1 0h9m2 0h1m2 0h2m1 0h1m2 0h2m1 0h2m1 0h5m3 0h1M4 81.5h2m1 0h3m4 0h1m1 0h1m2 0h1m2 0h5m2 0h2m2 0h2m2 0h4m2 0h1m2 0h1m4 0h5m2 0h3m5 0h1m2 0h1m1 0h2m1 0h1m1 0h1m4 0h1m1 0h1m3 0h2m2 0h3m1 0h3m1 0h2m1 0h2m3 0h2M4 82.5h1m1 0h1m2 0h2m1 0h2m1 0h2m3 0h1m2 0h1m1 0h2m1 0h4m2 0h5m3 0h2m1 0h2m2 0h1m1 0h1m2 0h2m1 0h1m2 0h4m1 0h1m4 0h1m1 0h3m1 0h6m3 0h1m2 0h1m1 0h3m3 0h1m7 0h2m2 0h1M4 83.5h1m1 0h3m2 0h3m1 0h3m5 0h1m1 0h1m1 0h1m1 0h3m4 0h2m5 0h1m1 0h1m1 0h1m2 0h3m3 0h2m2 0h1m1 0h2m4 0h1m3 0h4m1 0h2m2 0h1m8 0h3m2 0h1m1 0h1m6 0h1m1 0h3M5 84.5h2m1 0h4m1 0h1m1 0h1m4 0h1m1 0h3m1 0h1m3 0h2m1 0h1m2 0h1m3 0h1m1 0h2m2 0h2m2 0h1m1 0h1m1 0h1m1 0h1m5 0h1m1 0h1m4 0h1m1 0h1m8 0h1m5 0h1m1 0h1m2 0h2m2 0h3m1 0h2m4 0h4M5 85.5h5m1 0h4m2 0h6m1 0h7m2 0h1m5 0h3m1 0h1m1 0h3m1 0h2m3 0h3m1 0h1m2 0h2m2 0h2m1 0h1m2 0h1m2 0h5m3 0h1m4 0h1m1 0h7m1 0h3m4 0h2m2 0h1M6 86.5h1m3 0h5m13 0h2m2 0h1m1 0h2m1 0h1m1 0h1m1 0h1m3 0h1m1 0h1m1 0h1m1 0h1m1 0h2m2 0h1m3 0h2m5 0h1m1 0h1m2 0h1m2 0h2m6 0h4m2 0h1m1 0h2m4 0h2m3 0h2m1 0h2M6 87.5h2m1 0h1m2 0h1m1 0h2m4 0h1m1 0h1m1 0h1m1 0h1m5 0h1m1 0h2m1 0h1m2 0h1m3 0h1m3 0h7m6 0h1m1 0h1m1 0h1m1 0h3m2 0h1m1 0h1m6 0h1m2 0h1m4 0h1m2 0h1m3 0h1m1 0h1m2 0h2m1 0h3M6 88.5h1m2 0h2m1 0h1m4 0h1m1 0h1m1 0h2m2 0h1m2 0h1m1 0h1m1 0h1m1 0h1m3 0h1m2 0h1m1 0h4m6 0h1m1 0h3m1 0h3m1 0h3m7 0h2m3 0h1m1 0h1m4 0h2m1 0h1m1 0h2m2 0h1m1 0h1m4 0h1m1 0h2m1 0h1m1 0h1M5 89.5h1m1 0h3m3 0h1m1 0h1m1 0h1m1 0h4m1 0h1m1 0h1m2 0h3m2 0h6m1 0h3m1 0h5m1 0h2m2 0h4m1 0h1m1 0h1m1 0h2m1 0h3m2 0h3m2 0h2m1 0h1m2 0h1m2 0h2m1 0h1m1 0h2m4 0h4m1 0h1m2 0h3M6 90.5h5m3 0h2m6 0h1m1 0h2m3 0h1m2 0h3m2 0h1m3 0h1m1 0h1m2 0h1m1 0h1m1 0h2m3 0h1m1 0h1m4 0h1m1 0h1m3 0h1m2 0h2m4 0h1m1 0h1m2 0h7m2 0h1m1 0h1m1 0h5m2 0h4M6 91.5h1m1 0h2m1 0h1m2 0h2m1 0h2m1 0h2m2 0h5m6 0h1m1 0h1m1 0h4m1 0h1m2 0h1m2 0h1m1 0h1m11 0h5m1 0h4m1 0h1m2 0h1m1 0h1m1 0h1m9 0h4m1 0h1m3 0h3m2 0h3M5 92.5h4m1 0h2m1 0h2m1 0h1m1 0h1m1 0h1m2 0h2m3 0h2m2 0h2m1 0h1m4 0h3m1 0h1m5 0h1m2 0h1m1 0h1m1 0h2m2 0h3m4 0h1m1 0h1m3 0h2m4 0h4m1 0h1m3 0h1m1 0h1m4 0h4m1 0h2m2 0h1m1 0h2M4 93.5h5m4 0h3m1 0h1m1 0h1m1 0h1m2 0h1m1 0h1m2 0h3m2 0h2m4 0h1m1 0h8m2 0h1m1 0h3m4 0h2m1 0h2m3 0h2m1 0h3m3 0h1m1 0h1m1 0h1m1 0h2m1 0h1m2 0h1m1 0h4m3 0h2m2 0h1m1 0h1m1 0h1M4 94.5h5m1 0h4m1 0h2m1 0h3m1 0h5m1 0h2m2 0h1m2 0h1m7 0h3m1 0h1m2 0h2m1 0h1m2 0h2m4 0h5m1 0h1m1 0h3m2 0h1m2 0h1m1 0h2m1 0h2m1 0h1m4 0h6m1 0h2m1 0h3m2 0h1m1 0h1M5 95.5h2m1 0h2m2 0h2m1 0h3m1 0h1m1 0h6m2 0h4m1 0h2m1 0h1m3 0h1m3 0h1m1 0h1m1 0h1m4 0h1m1 0h1m2 0h1m1 0h2m4 0h9m2 0h1m1 0h2m4 0h2m1 0h1m8 0h1m4 0h3M4 96.5h2m1 0h2m1 0h1m1 0h2m2 0h2m1 0h1m1 0h1m1 0h2m1 0h6m1 0h4m1 0h3m3 0h3m3 0h1m1 0h2m2 0h1m3 0h1m1 0h1m1 0h4m2 0h2m1 0h1m2 0h1m2 0h2m1 0h3m3 0h2m4 0h1m2 0h1m3 0h2m1 0h2M4 97.5h6m2 0h1m2 0h1m3 0h1m1 0h1m5 0h3m1 0h1m1 0h1m1 0h1m1 0h1m1 0h1m1 0h1m1 0h2m2 0h2m1 0h2m4 0h3m1 0h1m2 0h1m6 0h1m1 0h2m1 0h1m1 0h1m3 0h3m1 0h1m1 0h1m2 0h2m3 0h2m1 0h5m3 0h2M4 98.5h3m3 0h1m1 0h3m5 0h5m1 0h1m1 0h4m2 0h1m1 0h5m3 0h3m2 0h1m2 0h4m1 0h1m5 0h1m2 0h3m4 0h6m1 0h2m3 0h1m1 0h1m1 0h1m1 0h5m1 0h1m2 0h2m4 0h1M6 99.5h1m1 0h2m9 0h2m2 0h1m3 0h1m2 0h2m3 0h1m2 0h1m2 0h1m1 0h1m2 0h5m2 0h3m2 0h3m2 0h1m2 0h1m1 0h1m2 0h1m2 0h5m1 0h1m3 0h2m2 0h1m1 0h1m1 0h2m1 0h1m1 0h1m1 0h2m3 0h2M7 100.5h2m1 0h2m1 0h3m1 0h1m1 0h1m2 0h1m2 0h2m1 0h5m9 0h4m4 0h7m3 0h7m1 0h1m2 0h1m2 0h1m1 0h5m1 0h3m1 0h1m3 0h2m1 0h1m3 0h9m1 0h2M12 101.5h3m1 0h4m1 0h2m4 0h2m3 0h6m2 0h3m4 0h2m2 0h2m3 0h1m1 0h2m2 0h5m1 0h4m1 0h4m3 0h1m2 0h1m1 0h1m1 0h2m1 0h1m2 0h2m1 0h1m3 0h1m3 0h1m1 0h1M4 102.5h7m5 0h2m1 0h5m2 0h3m1 0h1m1 0h3m1 0h3m1 0h1m1 0h3m5 0h1m1 0h1m1 0h1m1 0h2m1 0h1m8 0h1m2 0h1m2 0h3m1 0h1m1 0h2m3 0h5m3 0h1m1 0h1m3 0h2m1 0h1m1 0h1m1 0h1M4 103.5h1m5 0h1m1 0h3m3 0h1m1 0h6m1 0h2m3 0h1m1 0h1m3 0h3m6 0h4m1 0h1m3 0h7m2 0h5m4 0h3m3 0h1m1 0h1m3 0h5m1 0h1m1 0h2m2 0h1m1 0h1m3 0h1m1 0h2M4 104.5h1m1 0h3m1 0h1m1 0h3m4 0h2m3 0h1m1 0h1m1 0h5m2 0h2m1 0h1m1 0h2m1 0h1m3 0h1m1 0h2m1 0h6m1 0h1m1 0h3m2 0h5m1 0h1m3 0h7m1 0h2m2 0h1m2 0h7m2 0h6m1 0h2M4 105.5h1m1 0h3m1 0h1m3 0h5m4 0h1m5 0h1m1 0h1m1 0h2m1 0h5m3 0h2m3 0h2m1 0h4m1 0h2m1 0h1m3 0h1m2 0h3m1 0h4m2 0h1m1 0h2m1 0h4m1 0h1m2 0h1m2 0h6m2 0h3m2 0h3M4 106.5h1m1 0h3m1 0h1m3 0h3m1 0h2m3 0h5m1 0h2m1 0h1m1 0h2m2 0h1m2 0h1m1 0h2m1 0h1m1 0h1m2 0h3m1 0h2m2 0h3m1 0h6m3 0h2m1 0h1m1 0h2m2 0h2m1 0h1m3 0h1m1 0h3m1 0h1m1 0h1m1 0h4M4 107.5h1m5 0h1m1 0h1m2 0h3m1 0h1m3 0h1m1 0h2m2 0h8m1 0h1m6 0h1m1 0h5m13 0h1m1 0h1m1 0h4m2 0h1m1 0h1m1 0h1m2 0h1m1 0h6m1 0h1m1 0h3m1 0h1m1 0h1m6 0h1M4 108.5h7m1 0h2m1 0h1m1 0h5m1 0h1m2 0h2m1 0h3m2 0h2m6 0h1m2 0h1m1 0h1m1 0h1m1 0h1m1 0h1m2 0h2m2 0h1m1 0h1m1 0h1m3 0h1m4 0h2m1 0h1m1 0h1m2 0h5m3 0h1m1 0h4m1 0h2m1 0h2m3 0h1m1 0h1m1 0h1"/></svg>
