<svg xmlns="http://www.w3.org/2000/svg" viewBox="0 0 97 97" shape-rendering="crispEdges"><path fill="#ffffff" d="M0 0h97v97H0z"/><path stroke="#000000" d="M4 4.5h7m1 0h1m2 0h1m1 0h1m2 0h1m1 0h2m2 0h3m3 0h1m1 0h2m2 0h1m1 0h1m2 0h1m1 0h2m1 0h1m1 0h2m1 0h1m1 0h3m2 0h9m2 0h2m4 0h1m1 0h1m1 0h4m1 0h7M4 5.5h1m5 0h1m1 0h1m1 0h1m1 0h2m2 0h3m3 0h1m1 0h2m1 0h1m2 0h1m1 0h2m1 0h2m1 0h1m2 0h6m2 0h3m2 0h2m3 0h7m2 0h1m5 0h2m1 0h1m1 0h1m2 0h1m5 0h1M4 6.5h1m1 0h3m1 0h1m1 0h1m4 0h2m4 0h1m1 0h3m2 0h3m3 0h3m2 0h1m1 0h2m1 0h1m2 0h2m1 0h2m2 0h4m5 0h1m2 0h1m3 0h1m1 0h1m11 0h1m1 0h3m1 0h1M4 7.5h1m1 0h3m1 0h1m1 0h1m1 0h5m4 0h1m1 0h1m1 0h1m1 0h1m1 0h1m1 0h4m1 0h2m3 0h3m1 0h2m1 0h1m2 0h3m3 0h1m1 0h4m2 0h2m2 0h2m3 0h3m1 0h3m1 0h1m1 0h1m1 0h3m1 0h1M4 8.5h1m1 0h3m1 0h1m2 0h1m1 0h2m2 0h1m1 0h1m2 0h1m5 0h7m2 0h2m2 0h2m2 0h1m4 0h4m2 0h8m1 0h3m2 0h2m4 0h1m4 0h1m2 0h1m1 0h3m1 0h1M4 9.5h1m5 0h1m1 0h4m2 0h2m2 0h1m1 0h4m1 0h2m1 0h1m3 0h2m1 0h3m3 0h2m2 0h1m2 0h1m1 0h1m2 0h2m3 0h1m1 0h4m1 0h2m1 0h1m2 0h3m1 0h1m3 0h1m2 0h1m5 0h1M4 10.5h7m1 0h1m1 0h1m1 0h1m1 0h1m1 0h1m1 0h1m1 0h1m1 0h1m1 0h1m1 0h1m1 0h1m1 0h1m1 0h1m1 0h1m1 0h1m1 0h1m1 0h1m1 0h1m1 0h1m1 0h1m1 0h1m1 0h1m1 0h1m1 0h1m1 0h1m1 0h1m1 0h1m1 0h1m1 0h1m1 0h1m1 0h1m1 0h1m1 0h1m1 0h1m1 0h1m1 0h1m1 0h1m1 0h7M13 11.5h3m1 0h1m1 0h3m1 0h1m1 0h2m2 0h4m3 0h1m1 0h1m1 0h8m2 0h1m1 0h2m3 0h2m3 0h2m2 0h2m2 0h1m1 0h5m4 0h3M4 12.5h2m2 0h3m2 0h1m2 0h2m1 0h3m1 0h1m1 0h1m2 0h1m1 0h1m1 0h5m1 0h1m2 0h3m2 0h1m3 0h1m1 0h2m1 0h1m2 0h7m5 0h2m1 0h2m1 0h3m1 0h5m2 0h1m1 0h4M4 13.5h6m2 0h1m2 0h1m3 0h1m1 0h1m1 0h1m3 0h4m3 0h3m1 0h4m2 0h1m4 0h1m1 0h1m1 0h1m1 0h1m3 0h1m1 0h3m1 0h3m2 0h2m1 0h1m3 0h1m4 0h1m5 0h1m1 0h1m1 0h1M8 14.5h4m1 0h5m1 0h1m1 0h6m2 0h1m1 0h1m3 0h1m1 0h2m5 0h1m2 0h1m1 0h3m1 0h1m4 0h4m1 0h3m2 0h1m3 0h3m3 0h1m1 0h1m2 0h1m1 0h1m2 0h2M6 15.5h1m2 0h1m2 0h1m2 0h2m2 0h1m1 0h1m1 0h8m1 0h1m1 0h1m3 0h5m1 0h2m1 0h1m2 0h1m2 0h2m1 0h2m1 0h1m4 0h1m1 0h1m1 0h2m1 0h2m1 0h1m3 0h3m5 0h2m1 0h1m1 0h1M8 16.5h1m1 0h1m1 0h1m4 0h1m2 0h2m1 0h1m1 0h1m1 0h1m2 0h2m4 0h2m1 0h1m1 0h1m4 0h2m1 0h1m3 0h1m4 0h4m1 0h2m2 0h3m2 0h1m2 0h2m7 0h3m1 0h1m1 0h3M11 17.5h2m1 0h2m1 0h1m1 0h1m4 0h2m2 0h2m1 0h2m2 0h2m1 0h1m4 0h1m2 0h2m3 0h2m2 0h1m3 0h1m1 0h2m1 0h1m2 0h1m1 0h3m2 0h6m2 0h1m1 0h3m1 0h1m1 0h1m1 0h1M4 18.5h1m1 0h3m1 0h1m6 0h3m2 0h1m1 0h2m1 0h2m2 0h5m2 0h1m1 0h1m2 0h2m3 0h3m1 0h1m2 0h3m7 0h1m3 0h3m1 0h1m1 0h2m6 0h1m2 0h2m2 0h1m1 0h1M4 19.5h2m1 0h1m1 0h1m2 0h2m1 0h6m1 0h1m3 0h2m1 0h3m5 0h1m3 0h1m1 0h1m1 0h1m1 0h3m5 0h2m1 0h6m2 0h2m5 0h1m1 0h3m1 0h2m1 0h1m3 0h4M4 20.5h1m3 0h1m1 0h2m2 0h4m6 0h1m1 0h3m1 0h1m3 0h1m2 0h1m3 0h1m1 0h4m4 0h5m1 0h1m1 0h5m3 0h1m2 0h1m1 0h3m1 0h2m1 0h5m4 0h1m1 0h1M4 21.5h3m1 0h1m5 0h1m2 0h1m1 0h3m2 0h2m1 0h3m2 0h1m1 0h2m2 0h5m1 0h1m3 0h2m3 0h1m1 0h5m3 0h5m1 0h2m1 0h2m3 0h3m3 0h3M6 22.5h1m1 0h6m1 0h1m1 0h3m1 0h1m2 0h2m1 0h2m5 0h1m2 0h1m2 0h1m1 0h3m2 0h1m1 0h1m2 0h4m2 0h2m3 0h1m1 0h1m1 0h2m1 0h1m5 0h3m1 0h1m2 0h1m1 0h1m3 0h1M4 23.5h1m1 0h2m3 0h2m1 0h3m2 0h1m5 0h2m6 0h2m2 0h3m2 0h1m1 0h2m1 0h3m1 0h1m1 0h2m1 0h1m1 0h4m1 0h1m2 0h2m1 0h1m1 0h2m2 0h1m1 0h2m1 0h1m1 0h4m2 0h1m2 0h1M9 24.5h3m1 0h2m1 0h1m6 0h2m4 0h1m1 0h3m1 0h1m1 0h1m1 0h1m1 0h7m3 0h1m1 0h1m1 0h4m1 0h1m1 0h3m1 0h1m1 0h1m4 0h2m1 0h4m1 0h4m3 0h4M7 25.5h2m3 0h5m1 0h2m1 0h2m1 0h5m1 0h2m2 0h1m1 0h2m3 0h1m4 0h1m3 0h1m2 0h2m1 0h1m9 0h2m3 0h1m1 0h1m1 0h1m1 0h7m1 0h2m1 0h1m1 0h1M5 26.5h1m1 0h1m2 0h1m1 0h1m4 0h2m3 0h3m1 0h1m1 0h1m2 0h1m1 0h3m2 0h1m1 0h1m6 0h4m1 0h1m1 0h1m1 0h1m4 0h2m1 0h2m1 0h1m1 0h2m1 0h1m1 0h1m1 0h1m2 0h2m1 0h1m1 0h2m4 0h1M4 27.5h1m6 0h3m3 0h1m10 0h1m2 0h1m1 0h2m4 0h2m2 0h3m1 0h1m2 0h1m1 0h2m3 0h2m7 0h1m9 0h2m2 0h2m1 0h2m1 0h3m1 0h3M4 28.5h3m1 0h7m5 0h2m1 0h1m1 0h4m2 0h2m1 0h3m2 0h2m2 0h2m1 0h1m2 0h4m2 0h2m1 0h1m1 0h1m4 0h3m1 0h3m1 0h1m1 0h2m2 0h4m2 0h2m2 0h1M4 29.5h1m1 0h1m1 0h2m1 0h1m4 0h1m5 0h1m1 0h1m2 0h1m4 0h3m4 0h1m4 0h2m1 0h1m1 0h3m2 0h1m1 0h3m1 0h2m1 0h1m2 0h2m4 0h2m3 0h1m1 0h2m1 0h2m1 0h1m1 0h1m1 0h1m2 0h1M6 30.5h1m2 0h2m1 0h4m1 0h1m1 0h6m1 0h1m2 0h1m4 0h1m3 0h2m1 0h1m1 0h1m2 0h1m3 0h2m4 0h5m2 0h2m1 0h3m1 0h2m2 0h3m1 0h3m6 0h1M4 31.5h1m8 0h2m2 0h1m2 0h5m2 0h1m4 0h1m1 0h2m3 0h1m2 0h1m1 0h1m2 0h1m3 0h1m1 0h1m1 0h1m2 0h1m3 0h3m3 0h1m2 0h6m2 0h2m2 0h3m1 0h1m1 0h1m1 0h1M8 32.5h6m5 0h2m1 0h4m1 0h1m1 0h1m2 0h5m1 0h1m2 0h5m1 0h2m1 0h3m1 0h2m2 0h5m1 0h5m3 0h1m1 0h3m4 0h1m2 0h6m2 0h1M8 33.5h1m3 0h1m1 0h10m2 0h2m2 0h1m1 0h1m3 0h5m3 0h1m3 0h5m1 0h1m1 0h3m3 0h3m5 0h8m1 0h3m1 0h2m3 0h5M5 34.5h1m1 0h2m1 0h1m1 0h1m2 0h1m9 0h3m4 0h1m1 0h1m1 0h4m2 0h2m1 0h1m3 0h2m2 0h3m1 0h2m1 0h1m1 0h1m1 0h1m3 0h1m1 0h5m3 0h1m1 0h1m3 0h1m1 0h1m1 0h1M7 35.5h2m3 0h1m1 0h1m4 0h2m1 0h1m1 0h1m1 0h3m2 0h2m3 0h2m1 0h2m1 0h1m1 0h4m5 0h1m2 0h1m1 0h1m3 0h1m2 0h5m2 0h2m1 0h1m1 0h3m2 0h1m1 0h1m3 0h2m2 0h1M4 36.5h3m1 0h6m1 0h1m1 0h2m1 0h1m1 0h1m1 0h2m1 0h2m2 0h6m2 0h1m2 0h1m1 0h2m4 0h1m1 0h2m3 0h7m2 0h1m2 0h4m5 0h2m2 0h1m1 0h7M4 37.5h1m2 0h1m3 0h1m2 0h1m6 0h1m1 0h1m1 0h1m1 0h1m1 0h3m2 0h2m2 0h2m3 0h1m1 0h1m1 0h5m1 0h2m1 0h1m1 0h1m1 0h1m1 0h1m1 0h4m2 0h2m1 0h2m2 0h3m2 0h5m2 0h3M6 38.5h1m1 0h1m1 0h1m1 0h1m1 0h1m1 0h3m5 0h1m5 0h2m1 0h3m1 0h2m3 0h2m1 0h2m1 0h3m1 0h2m3 0h2m2 0h2m5 0h1m3 0h2m3 0h4m2 0h5m1 0h1m2 0h1M6 39.5h1m2 0h1m2 0h1m1 0h2m1 0h5m1 0h1m1 0h1m1 0h2m2 0h1m1 0h1m1 0h2m2 0h2m2 0h2m1 0h1m2 0h4m2 0h4m2 0h3m2 0h3m1 0h1m6 0h2m2 0h2m2 0h1m1 0h1m1 0h1m2 0h1M6 40.5h1m1 0h4m1 0h2m1 0h2m3 0h1m1 0h1m4 0h2m1 0h1m1 0h5m2 0h1m1 0h6m2 0h1m3 0h3m1 0h1m2 0h4m1 0h4m3 0h6m1 0h3m5 0h1m1 0h2M4 41.5h2m1 0h1m3 0h1m1 0h2m1 0h1m6 0h1m2 0h1m1 0h3m1 0h2m4 0h2m1 0h2m1 0h1m1 0h3m2 0h4m1 0h2m1 0h2m2 0h1m1 0h1m1 0h1m2 0h2m1 0h2m3 0h2m3 0h3m2 0h1m2 0h2M4 42.5h3m3 0h1m1 0h3m2 0h1m2 0h1m1 0h9m1 0h1m2 0h1m1 0h5m3 0h1m2 0h1m2 0h3m4 0h2m1 0h1m2 0h1m2 0h2m4 0h1m3 0h1m1 0h1m2 0h4m2 0h1m3 0h1M7 43.5h1m1 0h1m1 0h3m1 0h2m1 0h2m1 0h2m2 0h1m2 0h1m1 0h2m1 0h1m2 0h1m2 0h2m1 0h1m3 0h1m3 0h2m2 0h2m1 0h2m1 0h2m1 0h1m1 0h3m2 0h1m4 0h3m1 0h3m3 0h1m1 0h2m1 0h1m1 0h1M4 44.5h1m1 0h10m5 0h1m4 0h2m1 0h2m3 0h2m1 0h1m2 0h1m1 0h1m1 0h1m2 0h1m2 0h1m1 0h2m2 0h2m3 0h1m4 0h1m2 0h2m4 0h1m2 0h1m1 0h1m2 0h1m2 0h1m1 0h2m1 0h1M4 45.5h2m1 0h1m3 0h1m2 0h1m7 0h2m3 0h1m2 0h3m2 0h2m2 0h1m1 0h1m1 0h3m7 0h1m1 0h2m1 0h3m1 0h2m1 0h3m2 0h1m6 0h2m3 0h1m1 0h1m2 0h1m1 0h1m1 0h2M4 46.5h3m1 0h4m1 0h1m1 0h1m1 0h3m3 0h1m7 0h1m3 0h2m1 0h4m1 0h3m4 0h2m3 0h1m1 0h2m1 0h2m2 0h1m4 0h1m1 0h1m1 0h1m1 0h1m2 0h1m4 0h1m8 0h1M4 47.5h2m2 0h2m2 0h1m3 0h1m1 0h3m3 0h3m1 0h2m3 0h2m1 0h1m4 0h2m3 0h5m4 0h1m13 0h3m1 0h5m3 0h2m1 0h1m1 0h2m2 0h3M4 48.5h2m2 0h1m1 0h2m2 0h1m1 0h5m2 0h1m2 0h1m1 0h2m7 0h2m1 0h1m1 0h1m4 0h1m4 0h3m2 0h2m2 0h2m2 0h4m1 0h6m2 0h1m1 0h1m1 0h1m1 0h3m1 0h1m1 0h2M4 49.5h1m3 0h1m3 0h6m5 0h1m2 0h1m2 0h1m3 0h2m4 0h5m1 0h1m2 0h1m2 0h2m2 0h1m5 0h1m1 0h1m1 0h2m4 0h1m1 0h1m1 0h3m3 0h1m1 0h2m4 0h2m1 0h1M4 50.5h3m1 0h1m1 0h1m1 0h1m2 0h8m1 0h1m1 0h2m1 0h2m1 0h4m1 0h3m1 0h2m1 0h2m2 0h2m1 0h1m1 0h6m2 0h3m1 0h1m3 0h1m2 0h2m4 0h1m1 0h1m2 0h4m2 0h2m1 0h1M7 51.5h2m3 0h3m1 0h4m3 0h2m1 0h5m1 0h2m2 0h1m4 0h2m2 0h2m2 0h1m1 0h1m2 0h3m1 0h1m1 0h1m1 0h2m1 0h1m1 0h1m1 0h1m3 0h3m1 0h2m1 0h1m4 0h3m1 0h1M6 52.5h1m3 0h1m5 0h1m1 0h2m3 0h1m2 0h1m1 0h1m1 0h1m2 0h3m1 0h1m1 0h1m1 0h1m3 0h1m1 0h4m3 0h3m1 0h3m2 0h2m2 0h3m1 0h2m2 0h1m1 0h2m1 0h1m1 0h2m3 0h1m1 0h4M5 53.5h1m2 0h1m3 0h1m1 0h1m1 0h1m4 0h3m1 0h1m1 0h3m2 0h1m1 0h4m1 0h2m1 0h1m3 0h6m3 0h1m2 0h3m3 0h5m1 0h1m2 0h5m5 0h3m1 0h6M5 54.5h2m1 0h3m2 0h1m1 0h3m3 0h2m1 0h2m2 0h1m1 0h2m3 0h1m1 0h8m2 0h1m1 0h2m1 0h5m1 0h1m1 0h4m1 0h3m1 0h2m1 0h2m1 0h2m1 0h1m1 0h1m1 0h2m1 0h1m1 0h6M4 55.5h1m2 0h1m1 0h1m1 0h2m1 0h1m6 0h2m2 0h6m2 0h2m1 0h3m3 0h1m1 0h1m4 0h3m1 0h1m1 0h1m5 0h5m1 0h1m4 0h2m3 0h1m3 0h1m1 0h1m1 0h1m2 0h1m2 0h1M5 56.5h1m3 0h3m2 0h2m1 0h1m2 0h1m1 0h2m2 0h4m1 0h1m2 0h4m1 0h1m1 0h1m1 0h1m1 0h1m3 0h1m3 0h1m1 0h1m2 0h1m2 0h2m3 0h1m2 0h1m1 0h2m3 0h2m1 0h1m4 0h2m1 0h2m2 0h2M7 57.5h3m3 0h1m1 0h5m1 0h2m1 0h1m3 0h1m1 0h2m1 0h2m1 0h1m2 0h2m1 0h2m3 0h1m3 0h1m1 0h3m1 0h4m5 0h2m2 0h1m8 0h1m2 0h1m2 0h1m1 0h1m1 0h2M4 58.5h1m1 0h1m1 0h6m1 0h5m2 0h3m6 0h6m1 0h1m1 0h6m1 0h2m1 0h1m5 0h9m3 0h2m1 0h2m1 0h2m4 0h2m2 0h5m2 0h2M5 59.5h2m1 0h1m3 0h1m3 0h1m1 0h1m4 0h1m1 0h1m1 0h2m2 0h2m3 0h3m1 0h5m3 0h4m1 0h1m4 0h1m3 0h2m3 0h2m1 0h1m1 0h4m1 0h6m1 0h1m3 0h1m2 0h2M4 60.5h1m1 0h3m1 0h1m1 0h4m2 0h1m1 0h1m1 0h1m1 0h1m4 0h1m2 0h1m1 0h1m1 0h4m4 0h1m2 0h3m2 0h4m2 0h1m1 0h1m1 0h1m1 0h4m1 0h5m1 0h1m1 0h1m1 0h3m1 0h2m1 0h1m1 0h1m1 0h1m1 0h1M4 61.5h5m3 0h1m1 0h2m1 0h1m1 0h8m1 0h1m2 0h2m3 0h1m1 0h1m2 0h3m2 0h2m1 0h1m4 0h1m1 0h1m1 0h1m3 0h1m1 0h1m1 0h2m5 0h2m5 0h1m1 0h3m3 0h1m1 0h3M4 62.5h11m1 0h2m3 0h1m2 0h2m1 0h4m1 0h5m1 0h1m3 0h1m2 0h2m1 0h2m1 0h1m1 0h1m2 0h7m1 0h2m2 0h1m3 0h1m2 0h1m1 0h1m3 0h1m1 0h7m2 0h1M4 63.5h2m2 0h2m1 0h3m3 0h4m3 0h1m3 0h3m1 0h2m1 0h4m1 0h3m1 0h1m2 0h5m1 0h2m1 0h4m3 0h1m2 0h2m2 0h2m5 0h1m2 0h1m2 0h1m3 0h2m1 0h2M4 64.5h1m3 0h3m3 0h1m1 0h1m2 0h1m1 0h2m1 0h1m5 0h1m3 0h6m1 0h1m3 0h1m2 0h1m1 0h1m2 0h1m3 0h2m1 0h2m3 0h1m4 0h1m1 0h2m3 0h1m1 0h2m2 0h1m1 0h1m1 0h3m1 0h1M7 65.5h3m3 0h6m1 0h1m1 0h8m4 0h1m1 0h1m1 0h1m1 0h1m2 0h1m1 0h1m3 0h1m1 0h2m2 0h1m3 0h6m3 0h1m2 0h3m1 0h2m1 0h2m2 0h1m2 0h1m1 0h3M4 66.5h1m1 0h2m2 0h4m2 0h2m3 0h2m10 0h2m1 0h5m2 0h4m3 0h3m2 0h2m1 0h2m1 0h1m1 0h2m2 0h1m1 0h2m3 0h2m1 0h1m3 0h1m1 0h1m1 0h1m5 0h2M5 67.5h2m1 0h1m3 0h1m4 0h1m1 0h3m2 0h4m1 0h2m1 0h2m2 0h1m2 0h1m3 0h3m2 0h2m2 0h2m2 0h1m2 0h1m3 0h4m2 0h2m6 0h1m1 0h3m2 0h9M5 68.5h1m2 0h1m1 0h1m1 0h1m1 0h2m1 0h2m2 0h3m2 0h1m3 0h2m1 0h2m4 0h1m3 0h1m2 0h1m1 0h6m1 0h1m2 0h1m2 0h1m2 0h5m1 0h1m2 0h1m2 0h3m1 0h1m5 0h1m2 0h1M4 69.5h4m1 0h1m1 0h2m1 0h1m1 0h4m2 0h1m2 0h1m3 0h4m1 0h5m1 0h2m1 0h2m2 0h1m2 0h3m3 0h1m1 0h1m1 0h1m1 0h3m2 0h1m1 0h4m6 0h1m4 0h6m1 0h2M5 70.5h1m1 0h2m1 0h4m2 0h1m2 0h2m4 0h1m1 0h2m1 0h1m5 0h1m1 0h1m4 0h4m1 0h2m1 0h1m1 0h1m1 0h1m1 0h6m3 0h1m1 0h1m5 0h2m1 0h5m3 0h1m3 0h1m1 0h1M4 71.5h2m1 0h3m4 0h2m3 0h1m1 0h2m1 0h1m1 0h1m2 0h1m1 0h3m1 0h1m1 0h3m4 0h2m3 0h3m5 0h1m3 0h4m2 0h1m1 0h1m1 0h2m5 0h2m1 0h2m3 0h1m2 0h1m2 0h1M4 72.5h2m1 0h2m1 0h2m1 0h2m4 0h2m4 0h1m4 0h1m1 0h1m1 0h3m1 0h2m1 0h7m3 0h1m2 0h3m7 0h1m2 0h1m1 0h3m1 0h1m3 0h2m1 0h2m3 0h1m1 0h3m2 0h1M5 73.5h1m1 0h1m3 0h3m3 0h5m1 0h2m2 0h4m2 0h1m1 0h2m1 0h1m2 0h2m1 0h1m1 0h2m2 0h1m2 0h2m2 0h1m2 0h2m2 0h1m1 0h1m6 0h1m1 0h4m1 0h2m1 0h1m4 0h1m1 0h1m1 0h1M4 74.5h3m2 0h5m2 0h3m5 0h1m3 0h1m2 0h5m1 0h2m1 0h1m8 0h1m2 0h1m1 0h2m1 0h3m1 0h6m2 0h1m4 0h2m2 0h7m1 0h1m1 0h5M8 75.5h2m1 0h1m5 0h2m1 0h1m1 0h1m2 0h2m2 0h2m1 0h3m2 0h4m2 0h1m5 0h2m1 0h2m1 0h1m1 0h1m1 0h3m1 0h1m1 0h5m2 0h1m1 0h2m4 0h1m1 0h1m1 0h3m2 0h2M4 76.5h1m1 0h1m2 0h3m1 0h1m2 0h1m1 0h1m1 0h2m1 0h4m1 0h2m1 0h4m1 0h3m1 0h5m1 0h2m1 0h1m2 0h3m1 0h2m1 0h1m2 0h1m2 0h3m1 0h1m1 0h1m7 0h1m1 0h3m3 0h2m1 0h1m1 0h1M9 77.5h1m1 0h2m4 0h2m2 0h3m1 0h2m1 0h2m3 0h5m1 0h3m3 0h2m2 0h1m2 0h2m1 0h2m1 0h4m2 0h1m1 0h2m1 0h1m1 0h1m1 0h1m2 0h1m2 0h3m6 0h2M4 78.5h2m1 0h1m2 0h1m2 0h1m1 0h1m4 0h1m3 0h1m2 0h1m1 0h1m1 0h1m1 0h1m1 0h1m4 0h2m2 0h2m1 0h1m2 0h2m2 0h3m2 0h1m3 0h1m2 0h4m1 0h3m2 0h1m2 0h1m1 0h1m1 0h4m1 0h1m1 0h2M4 79.5h1m1 0h1m1 0h2m2 0h2m1 0h1m1 0h1m6 0h1m3 0h2m1 0h3m2 0h1m4 0h3m1 0h1m1 0h1m3 0h1m1 0h1m1 0h4m1 0h2m1 0h1m4 0h4m1 0h2m5 0h1m1 0h1m2 0h1m2 0h1M4 80.5h3m2 0h3m2 0h2m1 0h3m2 0h4m1 0h1m5 0h1m4 0h2m1 0h3m1 0h4m1 0h2m1 0h1m2 0h1m3 0h1m1 0h1m2 0h2m4 0h1m4 0h3m5 0h2m2 0h2m1 0h2M4 81.5h5m3 0h2m2 0h1m1 0h2m1 0h1m1 0h1m2 0h3m1 0h2m3 0h6m2 0h1m4 0h4m3 0h2m1 0h1m2 0h3m1 0h1m2 0h3m2 0h2m5 0h1m1 0h3m2 0h1M4 82.5h1m2 0h1m2 0h1m1 0h1m1 0h1m2 0h3m1 0h2m2 0h2m1 0h1m1 0h1m3 0h1m2 0h3m5 0h2m2 0h2m2 0h3m2 0h2m12 0h2m3 0h2m3 0h2m1 0h1m3 0h1m2 0h1M4 83.5h2m2 0h2m1 0h2m2 0h1m2 0h1m2 0h1m2 0h1m3 0h2m2 0h2m2 0h1m1 0h1m2 0h1m2 0h1m5 0h1m1 0h2m2 0h1m6 0h1m5 0h1m1 0h1m2 0h1m1 0h1m1 0h2m2 0h1m3 0h1m1 0h1m1 0h1M4 84.5h1m2 0h1m2 0h1m6 0h1m8 0h4m1 0h7m2 0h1m1 0h1m2 0h3m2 0h3m1 0h3m1 0h5m2 0h1m2 0h1m2 0h2m2 0h2m4 0h1m2 0h5m1 0h3M12 85.5h2m1 0h1m1 0h1m1 0h1m3 0h3m2 0h2m1 0h2m3 0h1m1 0h1m3 0h1m1 0h3m1 0h1m1 0h4m2 0h3m3 0h4m2 0h5m2 0h4m1 0h5m3 0h2M4 86.5h7m2 0h1m6 0h1m3 0h3m3 0h1m1 0h1m1 0h1m1 0h2m1 0h4m2 0h2m2 0h1m3 0h3m2 0h1m1 0h1m1 0h1m1 0h1m4 0h1m3 0h1m4 0h1m1 0h5m1 0h1m1 0h1M4 87.5h1m5 0h1m1 0h1m5 0h2m2 0h1m2 0h2m5 0h1m3 0h2m1 0h2m2 0h8m1 0h1m2 0h2m1 0h1m3 0h3m1 0h4m2 0h1m1 0h3m1 0h2m2 0h3m3 0h2M4 88.5h1m1 0h3m1 0h1m1 0h2m5 0h1m1 0h2m3 0h2m1 0h1m1 0h6m1 0h1m1 0h1m1 0h4m6 0h1m1 0h3m1 0h6m7 0h2m4 0h2m5 0h5m1 0h1m1 0h1M4 89.5h1m1 0h3m1 0h1m2 0h4m1 0h2m1 0h2m1 0h4m1 0h5m2 0h1m1 0h1m2 0h2m1 0h1m2 0h2m1 0h2m1 0h2m1 0h2m3 0h1m2 0h1m5 0h8m2 0h1m1 0h2m1 0h1m1 0h1M4 90.5h1m1 0h3m1 0h1m3 0h2m2 0h4m2 0h2m1 0h6m2 0h1m1 0h1m1 0h3m3 0h2m2 0h1m1 0h1m1 0h1m4 0h1m4 0h2m1 0h1m1 0h1m3 0h5m1 0h4m1 0h1m1 0h2m2 0h1m1 0h2M4 91.5h1m5 0h1m1 0h1m7 0h3m1 0h2m1 0h1m4 0h2m1 0h1m5 0h1m2 0h1m2 0h1m1 0h3m3 0h2m2 0h1m1 0h1m2 0h1m1 0h1m2 0h1m1 0h3m1 0h1m1 0h1m1 0h3m1 0h5m1 0h4M4 92.5h7m1 0h1m1 0h1m1 0h2m1 0h4m1 0h3m1 0h2m1 0h1m2 0h3m3 0h2m3 0h1m2 0h3m1 0h1m5 0h4m2 0h4m2 0h1m1 0h2m1 0h1m2 0h1m1 0h1m1 0h1m1 0h2m1 0h1m1 0h3"/></svg>
