<svg xmlns="http://www.w3.org/2000/svg" viewBox="0 0 109 109" shape-rendering="crispEdges"><path fill="#ffffff" d="M0 0h109v109H0z"/><path stroke="#000000" d="M4 4.5h7m2 0h2m3 0h2m1 0h3m1 0h1m2 0h1m1 0h8m3 0h1m1 0h2m1 0h2m2 0h5m1 0h3m1 0h2m4 0h2m1 0h3m4 0h1m2 0h1m1 0h1m1 0h3m2 0h1m2 0h2m1 0h2m2 0h7M4 5.5h1m5 0h1m1 0h1m5 0h2m1 0h1m3 0h3m1 0h1m1 0h1m2 0h1m3 0h1m1 0h5m2 0h1m1 0h2m1 0h1m3 0h1m3 0h1m1 0h4m1 0h1m2 0h3m5 0h2m3 0h2m7 0h2m4 0h1m5 0h1M4 6.5h1m1 0h3m1 0h1m4 0h2m7 0h1m2 0h3m3 0h1m2 0h1m1 0h1m1 0h2m1 0h1m1 0h3m1 0h1m3 0h1m1 0h2m3 0h5m1 0h1m3 0h3m1 0h1m1 0h2m3 0h1m2 0h2m4 0h2m3 0h1m2 0h1m1 0h3m1 0h1M4 7.5h1m1 0h3m1 0h1m1 0h1m1 0h2m1 0h1m1 0h1m6 0h1m1 0h2m1 0h1m6 0h9m1 0h1m3 0h3m2 0h2m2 0h2m1 0h1m4 0h2m1 0h1m1 0h1m2 0h1m4 0h1m3 0h5m1 0h4m2 0h1m1 0h3m1 0h1M4 8.5h1m1 0h3m1 0h1m2 0h1m4 0h2m2 0h2m3 0h10m1 0h3m2 0h4m2 0h9m2 0h1m3 0h1m1 0h2m1 0h3m1 0h7m1 0h3m1 0h1m1 0h2m1 0h1m3 0h1m1 0h1m1 0h1m1 0h3m1 0h1M4 9.5h1m5 0h1m1 0h1m2 0h2m3 0h1m1 0h2m1 0h1m2 0h1m1 0h1m3 0h1m1 0h3m2 0h1m2 0h1m1 0h1m5 0h1m3 0h1m2 0h1m3 0h5m2 0h1m1 0h1m1 0h1m3 0h1m1 0h4m1 0h1m2 0h3m4 0h1m2 0h1m5 0h1M4 10.5h7m1 0h1m1 0h1m1 0h1m1 0h1m1 0h1m1 0h1m1 0h1m1 0h1m1 0h1m1 0h1m1 0h1m1 0h1m1 0h1m1 0h1m1 0h1m1 0h1m1 0h1m1 0h1m1 0h1m1 0h1m1 0h1m1 0h1m1 0h1m1 0h1m1 0h1m1 0h1m1 0h1m1 0h1m1 0h1m1 0h1m1 0h1m1 0h1m1 0h1m1 0h1m1 0h1m1 0h1m1 0h1m1 0h1m1 0h1m1 0h1m1 0h1m1 0h1m1 0h1m1 0h7M13 11.5h1m1 0h5m3 0h3m4 0h1m3 0h1m3 0h3m3 0h1m2 0h3m1 0h2m3 0h3m1 0h1m1 0h2m3 0h1m5 0h2m3 0h3m4 0h1m6 0h2m1 0h2M4 12.5h5m1 0h3m2 0h1m1 0h2m1 0h1m2 0h6m1 0h6m2 0h3m1 0h6m2 0h1m1 0h5m1 0h1m1 0h3m3 0h3m2 0h1m2 0h6m1 0h1m2 0h1m1 0h2m2 0h1m2 0h1m1 0h1m1 0h1m1 0h1m1 0h1m1 0h1M4 13.5h1m2 0h1m3 0h1m1 0h1m2 0h1m1 0h3m2 0h1m2 0h1m2 0h4m1 0h1m1 0h2m1 0h4m2 0h2m1 0h2m2 0h1m1 0h3m1 0h2m7 0h4m1 0h2m4 0h2m1 0h2m3 0h4m4 0h1m2 0h1m2 0h3M7 14.5h2m1 0h2m1 0h1m2 0h1m3 0h1m4 0h2m1 0h1m2 0h2m1 0h3m2 0h6m2 0h1m1 0h5m2 0h1m1 0h1m2 0h1m5 0h2m1 0h1m8 0h1m2 0h1m3 0h1m1 0h1m5 0h3m1 0h1m2 0h1m2 0h1M7 15.5h1m1 0h1m1 0h1m1 0h1m1 0h3m2 0h1m3 0h2m1 0h2m1 0h1m3 0h4m1 0h2m3 0h2m1 0h1m3 0h2m1 0h1m1 0h5m1 0h1m1 0h5m2 0h1m1 0h2m3 0h1m1 0h1m1 0h1m1 0h6m3 0h2m1 0h2m2 0h1m2 0h2M4 16.5h1m1 0h2m2 0h1m2 0h1m1 0h1m2 0h1m5 0h2m3 0h6m2 0h5m3 0h1m3 0h2m1 0h5m4 0h1m3 0h1m3 0h2m2 0h2m2 0h1m2 0h6m1 0h1m1 0h6m1 0h6M5 17.5h3m4 0h4m3 0h4m1 0h1m1 0h2m3 0h1m1 0h2m1 0h4m1 0h1m2 0h1m2 0h1m1 0h1m4 0h2m1 0h1m1 0h3m2 0h1m1 0h2m1 0h1m12 0h1m1 0h1m2 0h2m2 0h1m5 0h4m2 0h2M4 18.5h1m5 0h1m1 0h1m2 0h10m1 0h2m3 0h6m2 0h3m2 0h1m1 0h1m2 0h3m1 0h2m1 0h2m5 0h2m4 0h1m1 0h2m1 0h2m1 0h1m1 0h3m1 0h1m4 0h2m1 0h1m4 0h1m1 0h1m1 0h5M9 19.5h1m1 0h5m1 0h3m4 0h1m2 0h3m5 0h3m1 0h1m2 0h1m2 0h1m1 0h1m2 0h3m2 0h1m3 0h3m2 0h2m3 0h5m2 0h1m2 0h2m5 0h1m9 0h6m1 0h1M5 20.5h2m3 0h1m2 0h4m1 0h1m2 0h2m2 0h1m1 0h2m1 0h3m1 0h1m1 0h3m1 0h1m1 0h2m1 0h2m4 0h5m1 0h1m1 0h3m2 0h1m2 0h1m1 0h2m2 0h1m1 0h2m3 0h1m1 0h1m3 0h1m1 0h2m2 0h3m2 0h2m3 0h3M7 21.5h1m3 0h1m2 0h2m1 0h1m1 0h2m2 0h1m1 0h2m2 0h1m1 0h1m1 0h1m5 0h7m6 0h5m1 0h1m2 0h1m1 0h1m6 0h1m1 0h2m3 0h1m4 0h3m6 0h1m3 0h1m6 0h1m1 0h1M9 22.5h3m1 0h1m1 0h2m1 0h2m1 0h1m1 0h1m3 0h2m1 0h12m1 0h1m2 0h4m4 0h2m2 0h1m1 0h1m3 0h3m3 0h2m1 0h1m3 0h2m2 0h1m1 0h5m3 0h1m4 0h2m4 0h3M6 23.5h2m8 0h1m2 0h1m3 0h1m1 0h3m5 0h2m3 0h1m4 0h1m1 0h1m2 0h4m2 0h1m2 0h2m1 0h6m3 0h1m1 0h2m2 0h3m1 0h3m2 0h1m1 0h1m2 0h1m2 0h2m4 0h1m2 0h2M8 24.5h4m1 0h1m1 0h1m4 0h1m1 0h4m4 0h1m4 0h1m6 0h4m1 0h1m1 0h3m3 0h1m1 0h1m1 0h2m2 0h4m4 0h1m1 0h3m2 0h2m1 0h2m3 0h3m3 0h1m1 0h1m4 0h1m1 0h1M4 25.5h1m3 0h2m1 0h2m2 0h1m1 0h1m1 0h1m1 0h5m1 0h2m1 0h1m2 0h2m3 0h4m1 0h3m1 0h1m1 0h2m1 0h1m1 0h1m1 0h1m2 0h1m2 0h1m3 0h1m1 0h5m1 0h4m3 0h1m2 0h1m1 0h1m2 0h5m6 0h2m1 0h2M4 26.5h2m3 0h2m5 0h2m1 0h1m1 0h2m2 0h1m3 0h3m1 0h1m2 0h4m2 0h1m1 0h2m2 0h5m1 0h2m2 0h4m1 0h2m1 0h3m3 0h5m1 0h1m1 0h4m2 0h1m1 0h2m1 0h2m2 0h1m1 0h1m5 0h1M4 27.5h2m1 0h2m2 0h11m3 0h1m1 0h2m3 0h2m1 0h1m1 0h2m2 0h5m2 0h3m4 0h1m1 0h2m2 0h3m1 0h2m3 0h1m1 0h2m3 0h1m1 0h1m3 0h1m1 0h1m2 0h1m1 0h4m3 0h4m2 0h1M5 28.5h1m4 0h2m5 0h2m3 0h1m2 0h1m2 0h1m1 0h1m3 0h3m1 0h3m1 0h3m5 0h1m1 0h1m10 0h1m2 0h1m1 0h1m1 0h1m4 0h2m1 0h12m3 0h6m2 0h1m1 0h2M4 29.5h2m8 0h1m2 0h2m3 0h4m2 0h1m2 0h1m1 0h2m2 0h1m1 0h3m1 0h2m1 0h1m1 0h2m1 0h1m2 0h3m1 0h1m2 0h1m1 0h3m2 0h2m1 0h4m2 0h1m2 0h1m1 0h1m1 0h2m2 0h5m1 0h5m1 0h1m2 0h1M8 30.5h5m2 0h3m2 0h1m1 0h1m1 0h1m5 0h6m2 0h1m1 0h1m4 0h1m1 0h1m2 0h1m1 0h7m1 0h1m2 0h3m2 0h1m1 0h1m1 0h1m1 0h5m2 0h2m1 0h1m2 0h2m1 0h2m2 0h9M4 31.5h3m1 0h1m3 0h1m1 0h5m3 0h4m2 0h1m1 0h1m3 0h6m1 0h1m1 0h1m1 0h1m1 0h4m1 0h1m3 0h2m2 0h2m1 0h1m1 0h1m1 0h1m1 0h4m1 0h1m3 0h3m1 0h3m3 0h4m3 0h2m3 0h3M7 32.5h2m1 0h1m1 0h1m1 0h2m2 0h3m6 0h4m1 0h1m1 0h4m4 0h2m1 0h3m2 0h3m1 0h1m1 0h2m4 0h1m1 0h2m1 0h2m2 0h4m1 0h1m1 0h1m3 0h1m1 0h3m1 0h1m1 0h1m1 0h2m1 0h2m1 0h1m1 0h3m1 0h1M5 33.5h1m2 0h1m3 0h1m1 0h2m2 0h1m3 0h3m3 0h1m1 0h1m3 0h1m4 0h2m1 0h2m2 0h3m1 0h3m3 0h1m1 0h1m5 0h2m4 0h2m2 0h1m3 0h1m5 0h4m2 0h4m2 0h1m3 0h3m1 0h1M8 34.5h7m1 0h1m1 0h2m3 0h3m2 0h7m2 0h2m1 0h1m1 0h3m1 0h1m2 0h1m1 0h6m4 0h3m1 0h1m2 0h3m1 0h10m2 0h1m1 0h1m2 0h2m2 0h1m2 0h6m1 0h1M4 35.5h6m1 0h1m1 0h2m4 0h2m3 0h1m2 0h1m2 0h2m2 0h1m2 0h2m1 0h2m2 0h2m1 0h1m4 0h1m1 0h1m1 0h2m3 0h1m1 0h1m1 0h1m1 0h3m1 0h3m2 0h2m1 0h1m2 0h2m1 0h1m2 0h1m2 0h1m3 0h2m1 0h1m1 0h1m3 0h1M7 36.5h5m1 0h1m3 0h5m1 0h3m6 0h7m1 0h2m2 0h1m1 0h1m5 0h1m1 0h1m3 0h1m4 0h1m2 0h2m6 0h2m1 0h2m1 0h1m6 0h1m1 0h1m1 0h1m1 0h2m1 0h1m2 0h1m3 0h2M5 37.5h1m1 0h3m4 0h2m1 0h5m1 0h7m3 0h1m3 0h5m1 0h2m1 0h2m4 0h1m1 0h1m2 0h3m1 0h3m2 0h2m1 0h2m1 0h1m3 0h2m1 0h1m1 0h2m1 0h3m4 0h1m1 0h1m1 0h2m4 0h1m2 0h1M4 38.5h1m1 0h3m1 0h1m1 0h1m2 0h1m1 0h1m1 0h1m1 0h2m1 0h2m1 0h5m5 0h2m4 0h1m2 0h3m3 0h1m2 0h2m1 0h2m1 0h1m2 0h1m1 0h1m1 0h1m2 0h1m2 0h4m2 0h2m2 0h1m3 0h1m2 0h1m2 0h1m2 0h1m1 0h2m1 0h1M4 39.5h2m3 0h1m3 0h3m2 0h1m4 0h2m1 0h1m1 0h1m1 0h1m1 0h5m2 0h3m2 0h3m1 0h1m1 0h1m1 0h2m1 0h1m2 0h1m4 0h5m1 0h1m1 0h1m2 0h2m2 0h2m1 0h3m3 0h2m3 0h4m3 0h3M5 40.5h1m1 0h2m1 0h1m2 0h1m3 0h2m3 0h2m5 0h1m1 0h1m3 0h5m2 0h2m3 0h1m1 0h1m3 0h2m4 0h1m1 0h1m1 0h2m2 0h3m2 0h3m3 0h3m4 0h1m1 0h2m1 0h3m1 0h1m4 0h2m2 0h2M5 41.5h2m5 0h1m2 0h3m1 0h1m2 0h1m1 0h3m1 0h2m5 0h4m2 0h1m2 0h1m2 0h3m2 0h1m2 0h1m1 0h1m1 0h1m1 0h1m5 0h3m1 0h2m1 0h2m1 0h2m1 0h1m1 0h3m2 0h4m3 0h4m1 0h1m1 0h1m2 0h1M5 42.5h1m1 0h2m1 0h9m1 0h2m3 0h2m1 0h2m2 0h1m4 0h3m2 0h2m3 0h4m2 0h1m1 0h1m1 0h1m2 0h4m5 0h2m1 0h2m1 0h2m3 0h1m2 0h2m1 0h1m3 0h2m7 0h2m1 0h1m1 0h1M4 43.5h1m1 0h2m1 0h1m2 0h4m1 0h1m2 0h1m1 0h3m2 0h2m1 0h1m1 0h1m2 0h2m1 0h1m1 0h2m4 0h1m2 0h1m2 0h3m1 0h4m1 0h1m3 0h2m3 0h2m4 0h3m3 0h6m1 0h1m4 0h1m1 0h3m3 0h2M6 44.5h5m2 0h1m2 0h2m1 0h1m1 0h2m1 0h2m1 0h1m1 0h4m1 0h2m1 0h1m2 0h1m1 0h1m3 0h2m1 0h1m3 0h1m2 0h4m1 0h1m1 0h5m3 0h1m4 0h1m4 0h2m7 0h3m2 0h2m1 0h2m1 0h1m1 0h2M5 45.5h1m2 0h1m2 0h3m1 0h1m1 0h1m6 0h4m1 0h1m1 0h1m2 0h1m4 0h2m1 0h2m2 0h5m1 0h5m4 0h1m1 0h1m3 0h2m1 0h3m3 0h2m8 0h1m1 0h1m1 0h1m1 0h3m2 0h2m2 0h1M6 46.5h2m1 0h7m1 0h1m1 0h3m2 0h2m4 0h2m1 0h1m3 0h2m1 0h1m1 0h1m2 0h3m2 0h2m1 0h1m2 0h1m3 0h1m2 0h1m1 0h1m1 0h2m1 0h1m2 0h1m2 0h1m1 0h2m3 0h2m4 0h5m1 0h1m1 0h1m1 0h1m1 0h1m1 0h2M5 47.5h1m1 0h2m2 0h2m1 0h1m1 0h1m1 0h3m1 0h4m1 0h3m1 0h1m1 0h2m3 0h1m1 0h3m3 0h2m1 0h5m6 0h5m1 0h2m1 0h1m3 0h2m2 0h2m2 0h2m1 0h1m1 0h5m2 0h1m3 0h2m1 0h1m1 0h1M7 48.5h2m1 0h1m1 0h5m5 0h1m3 0h3m1 0h1m3 0h3m5 0h1m1 0h3m1 0h3m2 0h3m6 0h2m1 0h1m1 0h2m4 0h1m1 0h1m2 0h2m1 0h2m1 0h3m1 0h1m1 0h1m3 0h2m3 0h1m1 0h1M5 49.5h3m1 0h1m2 0h1m1 0h1m3 0h2m2 0h2m1 0h2m2 0h1m1 0h2m4 0h6m1 0h1m1 0h3m2 0h2m4 0h2m1 0h3m1 0h1m2 0h4m1 0h1m5 0h3m3 0h2m2 0h2m4 0h1m1 0h1m2 0h1m2 0h1M5 50.5h3m2 0h1m5 0h3m3 0h4m1 0h1m1 0h3m2 0h4m1 0h1m2 0h1m6 0h2m1 0h4m1 0h1m1 0h3m2 0h2m1 0h1m1 0h1m2 0h1m1 0h4m1 0h1m1 0h1m1 0h1m1 0h1m2 0h2m1 0h2m5 0h1m5 0h1M6 51.5h1m1 0h2m2 0h3m2 0h1m1 0h2m5 0h1m2 0h1m2 0h1m1 0h1m1 0h2m2 0h2m1 0h1m1 0h1m1 0h3m2 0h1m2 0h2m1 0h3m1 0h3m2 0h5m1 0h4m2 0h4m1 0h3m1 0h1m1 0h1m3 0h1m3 0h4M4 52.5h9m1 0h1m2 0h1m2 0h2m1 0h1m1 0h1m1 0h2m1 0h7m4 0h3m5 0h1m1 0h6m1 0h1m2 0h1m2 0h1m3 0h2m1 0h1m1 0h6m1 0h1m1 0h1m6 0h2m2 0h8m1 0h3M4 53.5h5m3 0h2m3 0h2m1 0h5m1 0h3m1 0h1m3 0h1m1 0h6m3 0h1m1 0h1m3 0h2m3 0h3m1 0h1m2 0h2m1 0h4m1 0h1m2 0h1m3 0h2m3 0h3m1 0h2m1 0h3m1 0h1m1 0h1m3 0h2M4 54.5h1m3 0h1m1 0h1m1 0h1m2 0h2m1 0h3m1 0h1m1 0h2m4 0h1m1 0h1m1 0h4m1 0h1m1 0h4m1 0h2m1 0h2m1 0h1m1 0h1m1 0h1m3 0h1m1 0h2m3 0h1m2 0h1m2 0h2m1 0h1m1 0h1m2 0h4m2 0h2m1 0h1m1 0h1m2 0h2m1 0h1m1 0h2M6 55.5h3m3 0h3m2 0h2m1 0h3m1 0h3m1 0h3m3 0h2m3 0h2m2 0h2m1 0h1m2 0h1m2 0h1m3 0h1m2 0h5m3 0h1m2 0h1m1 0h1m1 0h1m3 0h1m1 0h1m1 0h1m2 0h1m4 0h2m1 0h4m3 0h1m2 0h1M5 56.5h1m2 0h8m1 0h4m1 0h1m2 0h1m2 0h8m1 0h1m2 0h2m6 0h1m1 0h1m1 0h5m2 0h1m1 0h2m1 0h4m6 0h5m2 0h2m1 0h1m3 0h1m2 0h1m2 0h7m2 0h2M4 57.5h1m4 0h1m3 0h2m1 0h3m1 0h1m2 0h4m2 0h1m4 0h2m2 0h3m2 0h1m1 0h1m1 0h3m1 0h1m2 0h1m1 0h2m2 0h2m2 0h5m1 0h2m1 0h1m1 0h2m2 0h1m1 0h1m5 0h1m1 0h3m5 0h1m2 0h1m1 0h2M4 58.5h5m1 0h1m1 0h1m2 0h1m3 0h1m1 0h2m2 0h2m1 0h1m1 0h1m8 0h2m1 0h1m1 0h5m1 0h1m2 0h1m2 0h3m9 0h1m2 0h2m1 0h1m1 0h2m2 0h2m1 0h1m1 0h2m8 0h1m2 0h6M6 59.5h1m2 0h1m4 0h1m2 0h2m1 0h1m1 0h1m5 0h1m2 0h2m4 0h1m1 0h3m3 0h4m2 0h1m2 0h1m2 0h1m5 0h8m1 0h2m4 0h1m2 0h2m1 0h1m3 0h1m1 0h1m2 0h4m5 0h1m1 0h1M6 60.5h3m1 0h1m1 0h6m1 0h3m2 0h2m3 0h2m1 0h2m3 0h3m1 0h4m1 0h1m3 0h3m2 0h1m1 0h1m5 0h6m2 0h3m1 0h4m4 0h1m2 0h1m2 0h3m3 0h1m2 0h1m1 0h2m1 0h1M4 61.5h3m2 0h1m2 0h1m1 0h2m1 0h1m2 0h2m2 0h1m1 0h2m1 0h2m1 0h1m1 0h1m8 0h1m1 0h1m1 0h1m2 0h4m1 0h1m2 0h3m1 0h1m1 0h1m1 0h2m2 0h1m1 0h2m5 0h1m1 0h2m1 0h1m3 0h5m1 0h1m1 0h2m1 0h1m3 0h2M5 62.5h1m1 0h1m1 0h2m5 0h1m2 0h2m2 0h1m1 0h1m3 0h1m1 0h1m1 0h3m2 0h3m2 0h1m2 0h1m1 0h1m2 0h1m1 0h1m5 0h1m1 0h1m3 0h1m1 0h1m1 0h1m3 0h4m2 0h1m1 0h1m5 0h1m2 0h1m1 0h4m1 0h2m1 0h1M4 63.5h1m1 0h3m2 0h1m1 0h3m6 0h1m3 0h4m2 0h1m2 0h1m1 0h9m2 0h5m3 0h1m2 0h2m3 0h1m2 0h1m1 0h3m3 0h1m1 0h3m3 0h1m1 0h1m3 0h1m1 0h1m4 0h1m2 0h1m1 0h1m1 0h1M4 64.5h1m1 0h1m1 0h3m2 0h5m1 0h1m1 0h2m1 0h1m1 0h1m1 0h5m3 0h1m2 0h2m1 0h2m1 0h4m2 0h1m1 0h1m2 0h1m4 0h2m1 0h1m1 0h3m2 0h4m2 0h1m5 0h1m3 0h1m1 0h6m2 0h1m1 0h1m3 0h1M9 65.5h1m1 0h1m1 0h2m1 0h3m1 0h4m1 0h2m1 0h1m1 0h12m1 0h4m2 0h3m1 0h1m1 0h4m1 0h9m1 0h1m1 0h1m2 0h1m2 0h1m1 0h2m1 0h1m2 0h1m3 0h1m2 0h1m6 0h5M7 66.5h1m1 0h2m1 0h3m2 0h4m1 0h2m5 0h2m1 0h1m3 0h1m1 0h3m1 0h2m3 0h3m7 0h1m1 0h3m1 0h2m3 0h1m2 0h3m1 0h1m2 0h1m1 0h1m1 0h6m1 0h1m2 0h2m1 0h1m1 0h1m2 0h1m1 0h3M8 67.5h1m2 0h1m4 0h2m2 0h1m1 0h3m3 0h1m1 0h5m1 0h3m2 0h1m1 0h1m1 0h1m1 0h1m3 0h3m4 0h3m1 0h3m1 0h3m4 0h1m1 0h3m1 0h4m4 0h1m3 0h1m1 0h2m1 0h2m1 0h2m1 0h1m1 0h1M5 68.5h1m1 0h5m1 0h1m1 0h1m2 0h1m3 0h1m1 0h4m1 0h2m2 0h5m1 0h6m1 0h2m1 0h2m1 0h1m1 0h1m5 0h4m1 0h1m1 0h3m2 0h1m1 0h2m1 0h1m1 0h2m3 0h1m6 0h3m1 0h1m1 0h1m2 0h1m1 0h3M4 69.5h3m1 0h1m3 0h1m1 0h1m4 0h1m1 0h2m2 0h1m1 0h2m2 0h1m2 0h1m2 0h1m4 0h2m2 0h1m6 0h1m1 0h1m4 0h1m1 0h1m7 0h3m2 0h2m2 0h2m3 0h7m3 0h1m2 0h5m1 0h1M6 70.5h2m2 0h1m1 0h1m1 0h5m2 0h2m2 0h1m1 0h2m1 0h2m3 0h1m5 0h2m2 0h1m1 0h2m1 0h1m1 0h2m5 0h1m1 0h2m2 0h6m1 0h3m2 0h1m3 0h2m1 0h5m1 0h1m3 0h1m2 0h1m2 0h1m2 0h1M4 71.5h1m3 0h1m5 0h1m4 0h1m2 0h1m1 0h1m1 0h1m1 0h1m1 0h1m1 0h1m1 0h2m1 0h2m1 0h1m1 0h8m3 0h1m3 0h1m1 0h1m3 0h2m1 0h1m5 0h1m1 0h1m4 0h1m1 0h1m1 0h3m3 0h1m3 0h1m1 0h6m2 0h1M5 72.5h10m1 0h2m1 0h1m1 0h3m1 0h2m1 0h2m1 0h4m1 0h2m3 0h3m1 0h3m3 0h2m2 0h1m4 0h1m1 0h3m3 0h3m1 0h2m1 0h1m1 0h4m1 0h1m5 0h3m2 0h1m1 0h1m1 0h1m3 0h3M5 73.5h3m3 0h1m1 0h3m1 0h3m2 0h2m1 0h3m1 0h1m4 0h1m1 0h2m6 0h1m5 0h2m1 0h1m4 0h1m6 0h4m1 0h1m1 0h3m1 0h5m4 0h2m1 0h2m1 0h3m3 0h4m1 0h2M8 74.5h5m2 0h1m2 0h4m3 0h1m3 0h6m2 0h2m1 0h3m2 0h1m4 0h7m1 0h1m1 0h1m2 0h2m2 0h1m2 0h9m4 0h1m2 0h1m1 0h2m1 0h1m2 0h11M5 75.5h2m1 0h1m3 0h2m1 0h3m3 0h3m1 0h2m3 0h1m3 0h6m2 0h3m2 0h1m1 0h1m2 0h1m3 0h2m1 0h1m4 0h1m3 0h2m3 0h2m3 0h1m2 0h8m1 0h2m1 0h4m3 0h1m3 0h1M4 76.5h2m1 0h2m1 0h1m1 0h1m4 0h1m1 0h1m1 0h1m5 0h2m1 0h1m1 0h1m1 0h1m1 0h2m2 0h2m1 0h1m1 0h1m1 0h1m2 0h3m1 0h1m1 0h1m1 0h2m1 0h5m8 0h1m1 0h1m1 0h1m3 0h3m10 0h2m1 0h1m1 0h1m2 0h2M4 77.5h3m1 0h1m3 0h2m6 0h1m1 0h2m1 0h2m1 0h1m1 0h1m3 0h2m5 0h1m1 0h4m1 0h1m1 0h3m3 0h4m2 0h2m2 0h1m1 0h2m2 0h3m3 0h2m2 0h1m2 0h2m2 0h3m3 0h2m3 0h2M5 78.5h1m1 0h6m5 0h3m1 0h3m3 0h1m1 0h5m1 0h1m1 0h1m1 0h1m1 0h1m3 0h1m2 0h1m2 0h5m4 0h2m1 0h2m1 0h1m1 0h1m3 0h7m2 0h2m2 0h2m1 0h1m2 0h1m2 0h6m2 0h1M4 79.5h1m6 0h1m4 0h2m1 0h3m1 0h3m2 0h1m1 0h1m1 0h2m2 0h1m2 0h1m3 0h1m1 0h2m1 0h2m1 0h1m3 0h1m3 0h2m5 0h1m2 0h1m1 0h1m2 0h2m2 0h2m2 0h1m1 0h5m1 0h2m1 0h3m5 0h3M6 80.5h1m1 0h5m2 0h1m1 0h1m3 0h3m2 0h3m2 0h1m1 0h1m1 0h1m2 0h1m1 0h1m1 0h2m1 0h1m5 0h2m3 0h2m7 0h2m1 0h2m1 0h8m1 0h6m3 0h4m2 0h1m1 0h1m3 0h3M4 81.5h3m1 0h2m1 0h1m4 0h1m1 0h1m4 0h1m1 0h4m2 0h1m1 0h4m2 0h1m1 0h2m2 0h2m2 0h2m4 0h1m1 0h5m1 0h2m1 0h3m1 0h1m1 0h2m1 0h2m1 0h2m1 0h2m1 0h1m1 0h2m8 0h3m5 0h1M4 82.5h1m3 0h7m1 0h7m2 0h1m3 0h2m3 0h4m3 0h1m3 0h2m3 0h1m2 0h2m4 0h2m2 0h1m6 0h1m1 0h1m3 0h1m6 0h1m1 0h1m2 0h1m2 0h1m1 0h2m1 0h4m1 0h2m1 0h1M4 83.5h1m1 0h3m2 0h1m1 0h1m1 0h1m1 0h2m4 0h2m1 0h2m1 0h1m2 0h2m5 0h1m6 0h1m1 0h3m1 0h2m3 0h1m4 0h5m2 0h4m4 0h1m1 0h1m2 0h2m3 0h5m1 0h3m1 0h1m1 0h1m3 0h1M5 84.5h1m1 0h1m1 0h3m1 0h1m1 0h8m1 0h1m1 0h1m1 0h2m1 0h3m5 0h3m1 0h3m2 0h2m1 0h1m2 0h4m1 0h1m5 0h10m3 0h1m3 0h1m1 0h1m1 0h1m4 0h2m5 0h1m2 0h3M4 85.5h1m1 0h3m3 0h1m3 0h2m1 0h2m1 0h1m1 0h1m1 0h2m1 0h1m1 0h3m2 0h2m1 0h1m4 0h3m1 0h1m2 0h1m3 0h6m2 0h6m1 0h2m3 0h1m2 0h1m2 0h6m1 0h1m1 0h2m2 0h3m1 0h1m1 0h1m2 0h2M4 86.5h3m1 0h1m1 0h1m1 0h2m1 0h1m5 0h3m2 0h3m3 0h4m2 0h8m2 0h3m1 0h1m2 0h1m2 0h4m1 0h1m3 0h1m1 0h1m3 0h8m4 0h2m1 0h3m1 0h3m2 0h2m2 0h2M5 87.5h2m1 0h2m3 0h1m1 0h1m3 0h2m4 0h1m2 0h5m2 0h2m4 0h1m3 0h1m10 0h3m1 0h2m1 0h1m1 0h2m2 0h3m3 0h1m2 0h2m3 0h2m1 0h8m1 0h4m1 0h3M6 88.5h1m1 0h1m1 0h2m3 0h2m2 0h4m1 0h3m2 0h1m1 0h1m4 0h2m5 0h1m1 0h1m1 0h1m7 0h1m1 0h2m1 0h3m1 0h1m1 0h2m1 0h2m2 0h2m3 0h1m1 0h3m2 0h1m1 0h1m4 0h1m2 0h2m1 0h1M5 89.5h1m1 0h1m3 0h1m7 0h2m2 0h1m1 0h4m2 0h1m1 0h1m2 0h3m1 0h1m4 0h2m2 0h1m8 0h1m5 0h1m6 0h3m2 0h4m1 0h1m3 0h1m1 0h2m3 0h1m2 0h1m4 0h1m1 0h3M7 90.5h1m1 0h3m2 0h2m2 0h1m1 0h1m1 0h2m3 0h1m2 0h1m1 0h2m3 0h2m1 0h1m2 0h1m2 0h2m2 0h1m7 0h3m3 0h4m1 0h8m1 0h1m1 0h4m2 0h1m5 0h1m1 0h1m3 0h1m2 0h4M6 91.5h2m1 0h1m1 0h1m4 0h3m1 0h1m2 0h2m3 0h3m1 0h1m4 0h1m1 0h4m1 0h3m1 0h2m4 0h5m1 0h3m2 0h1m1 0h3m1 0h2m6 0h3m1 0h2m2 0h1m1 0h4m1 0h3m7 0h1M4 92.5h1m1 0h1m2 0h2m2 0h1m2 0h5m1 0h1m2 0h1m4 0h6m3 0h1m1 0h1m1 0h4m2 0h2m1 0h4m3 0h1m1 0h2m1 0h3m2 0h5m1 0h1m1 0h1m2 0h1m4 0h1m1 0h3m2 0h3m1 0h2m3 0h2m1 0h1M4 93.5h1m1 0h1m1 0h1m5 0h4m1 0h1m3 0h2m1 0h1m2 0h3m1 0h3m1 0h1m2 0h2m3 0h3m4 0h1m1 0h1m4 0h3m1 0h2m1 0h2m1 0h2m1 0h2m1 0h1m2 0h2m2 0h1m1 0h1m3 0h1m2 0h3m1 0h2m1 0h1m3 0h1M4 94.5h1m2 0h2m1 0h1m1 0h2m2 0h2m1 0h2m2 0h1m2 0h2m1 0h1m1 0h1m4 0h6m1 0h2m1 0h2m2 0h1m2 0h4m1 0h1m1 0h2m1 0h1m1 0h1m1 0h3m1 0h1m3 0h1m1 0h4m2 0h1m1 0h1m3 0h3m1 0h3m1 0h1m4 0h3M4 95.5h1m1 0h2m1 0h1m1 0h1m1 0h1m2 0h2m1 0h2m1 0h1m1 0h2m1 0h3m5 0h1m2 0h1m2 0h1m1 0h2m1 0h1m1 0h2m2 0h1m1 0h3m3 0h1m7 0h3m3 0h3m2 0h1m2 0h2m1 0h1m9 0h7m1 0h1M8 96.5h1m1 0h2m1 0h3m1 0h1m3 0h2m1 0h2m2 0h8m1 0h1m1 0h3m1 0h1m4 0h3m1 0h6m1 0h1m1 0h1m5 0h2m2 0h1m2 0h5m1 0h1m2 0h1m5 0h1m1 0h1m1 0h2m1 0h5m2 0h2M12 97.5h2m2 0h1m1 0h1m2 0h1m3 0h2m3 0h1m3 0h2m3 0h1m2 0h2m1 0h1m2 0h1m3 0h1m3 0h1m7 0h2m1 0h1m6 0h1m3 0h1m1 0h5m1 0h4m6 0h1m3 0h1m1 0h3M4 98.5h7m1 0h3m2 0h1m1 0h3m2 0h4m1 0h2m1 0h1m1 0h3m1 0h1m1 0h1m1 0h1m1 0h5m3 0h1m1 0h1m1 0h2m4 0h1m2 0h1m1 0h1m2 0h1m1 0h1m1 0h1m1 0h1m1 0h2m1 0h3m5 0h1m2 0h1m1 0h1m1 0h1m1 0h1m1 0h4M4 99.5h1m5 0h1m2 0h1m2 0h2m4 0h3m1 0h1m1 0h1m1 0h1m3 0h2m4 0h4m1 0h2m3 0h3m3 0h1m1 0h3m1 0h1m1 0h3m2 0h1m1 0h1m1 0h2m3 0h2m2 0h1m1 0h1m1 0h2m2 0h1m5 0h1m3 0h1m1 0h1M4 100.5h1m1 0h3m1 0h1m1 0h3m2 0h1m2 0h1m2 0h1m1 0h1m1 0h2m1 0h5m1 0h1m1 0h1m5 0h2m1 0h1m1 0h2m1 0h5m1 0h2m1 0h3m5 0h2m3 0h7m1 0h1m7 0h2m1 0h8m1 0h3M4 101.5h1m1 0h3m1 0h1m1 0h2m1 0h4m1 0h8m1 0h1m1 0h1m5 0h2m1 0h3m2 0h3m4 0h1m5 0h4m3 0h1m4 0h1m2 0h2m2 0h2m1 0h3m1 0h3m3 0h1m2 0h1m1 0h2m2 0h1m1 0h1m1 0h1M4 102.5h1m1 0h3m1 0h1m1 0h1m5 0h1m1 0h1m2 0h5m2 0h2m2 0h1m1 0h1m2 0h2m2 0h1m1 0h1m2 0h4m4 0h2m3 0h4m2 0h1m1 0h3m1 0h2m5 0h3m2 0h4m4 0h1m1 0h1m7 0h1M4 103.5h1m5 0h1m1 0h1m1 0h1m1 0h3m2 0h1m1 0h3m1 0h1m2 0h2m1 0h2m1 0h2m2 0h3m2 0h1m1 0h2m1 0h1m1 0h1m1 0h5m3 0h4m1 0h1m2 0h3m1 0h1m3 0h1m1 0h3m2 0h4m1 0h2m2 0h1m2 0h2m1 0h4M4 104.5h7m1 0h3m1 0h2m3 0h1m1 0h9m1 0h1m1 0h3m2 0h2m3 0h2m1 0h3m2 0h1m4 0h2m2 0h1m9 0h2m1 0h3m2 0h2m9 0h1m2 0h2m2 0h1m2 0h2"/></svg>
