<svg xmlns="http://www.w3.org/2000/svg" viewBox="0 0 97 97" shape-rendering="crispEdges"><path fill="#ffffff" d="M0 0h97v97H0z"/><path stroke="#000000" d="M4 4.5h7m1 0h3m2 0h1m2 0h4m3 0h1m2 0h1m2 0h5m1 0h1m1 0h4m1 0h5m1 0h2m1 0h1m1 0h2m3 0h2m1 0h2m1 0h2m1 0h4m3 0h1m1 0h1m1 0h3m1 0h7M4 5.5h1m5 0h1m1 0h1m1 0h4m3 0h1m1 0h1m1 0h1m1 0h1m2 0h1m3 0h1m4 0h1m3 0h1m1 0h1m1 0h2m1 0h3m7 0h1m1 0h2m3 0h1m1 0h4m1 0h3m1 0h3m2 0h1m2 0h1m5 0h1M4 6.5h1m1 0h3m1 0h1m2 0h2m1 0h1m2 0h1m1 0h1m6 0h1m2 0h3m6 0h4m1 0h1m4 0h2m2 0h3m1 0h4m3 0h2m1 0h3m2 0h1m1 0h1m1 0h1m1 0h1m6 0h1m1 0h3m1 0h1M4 7.5h1m1 0h3m1 0h1m2 0h1m4 0h1m2 0h1m2 0h2m2 0h1m1 0h2m4 0h1m1 0h2m1 0h1m2 0h1m3 0h1m1 0h1m3 0h1m1 0h1m10 0h4m2 0h1m3 0h1m2 0h1m1 0h1m1 0h1m1 0h1m1 0h3m1 0h1M4 8.5h1m1 0h3m1 0h1m1 0h2m5 0h3m1 0h1m1 0h1m2 0h1m1 0h7m3 0h1m2 0h3m2 0h1m1 0h2m1 0h1m1 0h1m1 0h6m2 0h2m2 0h1m4 0h2m1 0h1m1 0h2m2 0h1m2 0h1m1 0h3m1 0h1M4 9.5h1m5 0h1m1 0h3m2 0h3m2 0h2m3 0h1m1 0h4m3 0h1m2 0h1m3 0h1m1 0h1m6 0h1m1 0h1m1 0h1m1 0h1m3 0h3m11 0h2m5 0h1m2 0h1m5 0h1M4 10.5h7m1 0h1m1 0h1m1 0h1m1 0h1m1 0h1m1 0h1m1 0h1m1 0h1m1 0h1m1 0h1m1 0h1m1 0h1m1 0h1m1 0h1m1 0h1m1 0h1m1 0h1m1 0h1m1 0h1m1 0h1m1 0h1m1 0h1m1 0h1m1 0h1m1 0h1m1 0h1m1 0h1m1 0h1m1 0h1m1 0h1m1 0h1m1 0h1m1 0h1m1 0h1m1 0h1m1 0h1m1 0h1m1 0h7M12 11.5h1m4 0h3m2 0h2m3 0h2m1 0h3m3 0h1m1 0h1m4 0h1m7 0h1m2 0h1m3 0h1m3 0h1m5 0h2m1 0h2m2 0h1m3 0h5M4 12.5h3m2 0h2m1 0h1m1 0h4m3 0h1m1 0h4m2 0h2m1 0h5m2 0h3m1 0h3m1 0h1m1 0h2m1 0h1m1 0h2m1 0h6m2 0h4m1 0h2m4 0h4m2 0h7m2 0h2M11 13.5h2m3 0h3m2 0h4m3 0h3m4 0h1m1 0h1m2 0h1m1 0h1m1 0h1m2 0h4m1 0h1m2 0h4m2 0h1m1 0h1m1 0h1m1 0h1m2 0h1m1 0h2m1 0h3m3 0h1m1 0h2m1 0h1m1 0h3m1 0h1M5 14.5h1m1 0h2m1 0h1m2 0h2m6 0h1m2 0h1m1 0h4m1 0h2m3 0h1m1 0h1m1 0h1m1 0h1m8 0h1m1 0h5m1 0h3m2 0h3m1 0h2m1 0h4m1 0h1m1 0h1m2 0h1m2 0h3m3 0h2M4 15.5h1m1 0h1m8 0h2m2 0h1m2 0h4m2 0h1m3 0h1m1 0h1m2 0h4m1 0h3m1 0h1m1 0h1m4 0h1m1 0h8m1 0h1m1 0h1m3 0h1m1 0h1m6 0h1m2 0h1m4 0h1m1 0h3M4 16.5h1m1 0h6m3 0h2m1 0h1m2 0h1m1 0h1m1 0h1m3 0h1m2 0h1m1 0h7m2 0h2m1 0h1m1 0h1m1 0h2m1 0h1m3 0h3m2 0h1m5 0h2m3 0h1m2 0h1m1 0h1m1 0h1m2 0h1m1 0h1m1 0h2m1 0h2M6 17.5h3m2 0h3m1 0h1m2 0h2m2 0h2m1 0h3m3 0h1m2 0h3m1 0h1m2 0h5m1 0h1m1 0h5m2 0h2m1 0h2m2 0h1m4 0h2m2 0h3m3 0h1m6 0h1m2 0h2m2 0h1M6 18.5h1m2 0h3m2 0h1m1 0h1m4 0h1m3 0h1m2 0h2m1 0h1m3 0h1m1 0h1m1 0h1m1 0h2m2 0h1m1 0h3m1 0h3m3 0h3m2 0h1m6 0h6m3 0h2m2 0h1m2 0h5m2 0h1M5 19.5h1m2 0h2m1 0h1m2 0h1m1 0h2m3 0h1m3 0h2m2 0h3m1 0h4m1 0h4m4 0h3m1 0h2m2 0h2m3 0h1m2 0h1m1 0h1m2 0h1m2 0h1m1 0h2m2 0h3m1 0h2m2 0h1m3 0h1m2 0h2M5 20.5h1m1 0h1m1 0h2m2 0h6m1 0h4m3 0h1m2 0h1m2 0h1m1 0h1m3 0h1m1 0h1m1 0h2m2 0h4m1 0h1m1 0h1m1 0h4m1 0h3m5 0h3m3 0h3m2 0h2m1 0h2m2 0h6M4 21.5h1m1 0h1m1 0h1m2 0h1m2 0h2m1 0h1m1 0h3m1 0h3m3 0h1m1 0h2m1 0h2m3 0h1m1 0h1m1 0h2m3 0h3m1 0h1m1 0h3m1 0h1m1 0h2m1 0h1m3 0h3m4 0h1m1 0h1m3 0h2m1 0h2m2 0h2M4 22.5h1m2 0h5m2 0h2m4 0h3m2 0h3m1 0h7m2 0h1m1 0h1m1 0h1m3 0h1m1 0h1m2 0h2m1 0h1m3 0h1m1 0h1m1 0h1m1 0h1m1 0h3m4 0h2m4 0h2m1 0h4m2 0h1m1 0h1M4 23.5h3m4 0h1m1 0h3m4 0h5m1 0h1m1 0h1m1 0h4m1 0h2m2 0h1m1 0h1m5 0h1m3 0h1m2 0h1m2 0h2m1 0h2m1 0h2m1 0h2m1 0h1m2 0h5m1 0h1m1 0h1m3 0h7M10 24.5h3m2 0h1m2 0h2m2 0h1m1 0h2m1 0h2m1 0h5m1 0h2m1 0h8m3 0h1m1 0h1m1 0h1m2 0h1m1 0h2m1 0h2m1 0h1m1 0h2m1 0h1m2 0h5m1 0h1m2 0h7m1 0h2M4 25.5h1m1 0h2m1 0h1m2 0h1m2 0h1m1 0h1m1 0h8m1 0h1m1 0h1m2 0h1m1 0h1m3 0h1m1 0h1m1 0h1m3 0h1m3 0h2m1 0h1m1 0h3m4 0h2m1 0h1m1 0h3m1 0h1m1 0h2m2 0h6M6 26.5h3m1 0h4m2 0h1m1 0h1m2 0h3m1 0h4m1 0h1m5 0h1m1 0h5m2 0h3m1 0h1m1 0h1m1 0h1m6 0h1m4 0h1m1 0h3m1 0h1m1 0h1m6 0h3m2 0h1m1 0h3m1 0h2M5 27.5h1m3 0h1m1 0h1m6 0h2m4 0h2m2 0h1m3 0h2m2 0h4m1 0h1m1 0h1m1 0h2m1 0h2m2 0h1m1 0h5m3 0h3m2 0h1m1 0h2m2 0h3m2 0h1m1 0h1m5 0h4M4 28.5h1m2 0h5m1 0h2m1 0h1m3 0h1m1 0h5m2 0h1m2 0h1m4 0h2m4 0h1m5 0h1m1 0h1m1 0h2m1 0h2m1 0h1m1 0h3m1 0h4m1 0h2m3 0h2m1 0h2m2 0h1m4 0h2m1 0h3M5 29.5h1m3 0h1m5 0h3m3 0h2m1 0h1m1 0h3m4 0h2m2 0h1m2 0h3m1 0h1m4 0h1m1 0h3m1 0h1m1 0h1m1 0h4m2 0h2m3 0h2m2 0h1m1 0h1m1 0h2m4 0h2m1 0h2m1 0h3M6 30.5h1m1 0h5m1 0h1m1 0h1m1 0h1m2 0h1m1 0h3m1 0h3m1 0h1m1 0h2m2 0h1m2 0h2m2 0h1m1 0h1m1 0h4m1 0h1m1 0h2m3 0h2m2 0h1m1 0h3m3 0h1m1 0h3m1 0h3m1 0h1m1 0h1m2 0h6M4 31.5h3m4 0h4m7 0h1m5 0h2m1 0h1m1 0h1m2 0h1m3 0h1m2 0h1m7 0h5m5 0h3m1 0h1m3 0h1m3 0h1m2 0h1m1 0h2m1 0h1m1 0h1m2 0h1m2 0h1m1 0h1M4 32.5h2m1 0h6m2 0h1m3 0h3m1 0h1m1 0h1m2 0h1m3 0h5m1 0h1m1 0h1m4 0h1m1 0h4m1 0h1m1 0h2m2 0h5m1 0h3m2 0h6m1 0h1m1 0h1m5 0h6m2 0h1M4 33.5h5m3 0h1m2 0h2m6 0h1m3 0h4m1 0h1m3 0h1m3 0h1m1 0h2m1 0h1m3 0h3m1 0h1m2 0h3m3 0h3m2 0h2m2 0h1m1 0h1m1 0h4m2 0h4m3 0h2M4 34.5h3m1 0h1m1 0h1m1 0h1m2 0h1m2 0h1m3 0h1m4 0h1m1 0h1m2 0h1m1 0h1m1 0h1m1 0h2m1 0h1m1 0h2m1 0h4m1 0h4m1 0h3m1 0h1m1 0h2m4 0h1m1 0h2m1 0h3m1 0h1m1 0h2m1 0h3m1 0h1m1 0h3M7 35.5h2m3 0h1m2 0h2m6 0h4m2 0h1m1 0h2m3 0h1m2 0h1m2 0h1m1 0h4m1 0h2m1 0h2m3 0h2m3 0h1m7 0h1m3 0h2m4 0h1m1 0h1m1 0h1m3 0h2m1 0h2M4 36.5h1m1 0h7m1 0h2m1 0h4m2 0h1m3 0h2m2 0h6m1 0h1m2 0h1m1 0h1m4 0h2m5 0h1m1 0h6m2 0h1m1 0h8m3 0h1m1 0h2m2 0h5m1 0h3M5 37.5h3m3 0h2m1 0h1m1 0h2m2 0h2m3 0h3m1 0h1m4 0h2m2 0h1m2 0h4m1 0h1m3 0h1m1 0h1m1 0h1m1 0h1m3 0h2m3 0h1m1 0h1m3 0h1m1 0h7m1 0h1m2 0h3m1 0h2m2 0h1M5 38.5h1m3 0h6m2 0h1m3 0h2m1 0h1m2 0h2m4 0h3m1 0h3m3 0h1m1 0h1m1 0h1m2 0h2m1 0h1m2 0h1m1 0h2m1 0h1m6 0h1m1 0h1m2 0h1m3 0h1m1 0h3m4 0h3m1 0h3M4 39.5h3m1 0h2m4 0h2m2 0h1m2 0h4m1 0h1m1 0h4m2 0h3m1 0h2m2 0h1m4 0h2m2 0h4m1 0h2m2 0h2m1 0h2m1 0h2m1 0h3m2 0h4m3 0h2m3 0h1m4 0h1M6 40.5h1m1 0h5m2 0h1m1 0h1m1 0h1m1 0h3m1 0h1m1 0h1m2 0h1m1 0h1m1 0h1m2 0h1m2 0h1m1 0h1m1 0h2m1 0h1m4 0h2m2 0h5m1 0h1m3 0h1m4 0h7m1 0h2m4 0h2m3 0h3M4 41.5h3m4 0h1m4 0h1m1 0h1m2 0h1m3 0h1m4 0h1m1 0h5m2 0h3m1 0h3m4 0h1m1 0h1m1 0h1m1 0h2m3 0h1m2 0h1m2 0h1m3 0h1m1 0h1m6 0h1m5 0h2m1 0h4M4 42.5h2m1 0h2m1 0h1m1 0h1m3 0h1m2 0h1m1 0h1m2 0h4m1 0h2m1 0h1m1 0h1m1 0h1m2 0h1m1 0h6m1 0h2m3 0h1m1 0h1m2 0h3m2 0h1m4 0h1m1 0h1m2 0h1m2 0h1m2 0h7m1 0h1m4 0h1M4 43.5h1m1 0h1m7 0h5m4 0h3m4 0h1m1 0h1m3 0h1m1 0h1m2 0h3m1 0h3m5 0h1m2 0h1m1 0h1m3 0h1m2 0h2m3 0h1m2 0h1m2 0h2m2 0h5m1 0h3m1 0h2M7 44.5h1m2 0h2m3 0h3m2 0h6m1 0h4m1 0h1m2 0h1m1 0h2m2 0h1m2 0h2m1 0h2m1 0h3m1 0h2m2 0h1m2 0h4m1 0h2m1 0h1m3 0h1m4 0h1m6 0h1m1 0h2m1 0h1m1 0h1M5 45.5h1m2 0h2m2 0h3m1 0h1m1 0h2m3 0h1m2 0h1m1 0h2m4 0h2m4 0h1m2 0h2m1 0h2m1 0h1m1 0h3m1 0h1m2 0h1m3 0h2m3 0h1m6 0h1m1 0h1m7 0h3M4 46.5h5m1 0h3m1 0h1m1 0h1m1 0h1m2 0h1m1 0h2m1 0h1m1 0h3m1 0h5m3 0h1m1 0h2m1 0h2m1 0h2m1 0h1m2 0h1m1 0h5m1 0h2m1 0h2m1 0h1m2 0h2m1 0h2m1 0h1m1 0h4m1 0h1m2 0h2m1 0h1m1 0h1M9 47.5h1m1 0h2m2 0h1m2 0h1m2 0h4m2 0h1m1 0h2m2 0h1m1 0h1m2 0h1m2 0h1m1 0h2m3 0h2m1 0h1m3 0h1m2 0h1m4 0h1m4 0h1m2 0h2m3 0h1m3 0h4m2 0h2m1 0h1M6 48.5h3m1 0h1m2 0h1m1 0h3m1 0h4m1 0h1m2 0h1m4 0h1m2 0h4m3 0h1m1 0h4m1 0h2m1 0h1m3 0h1m1 0h5m1 0h6m1 0h6m1 0h1m3 0h1m1 0h1m3 0h1m1 0h3M4 49.5h1m2 0h1m8 0h3m2 0h4m1 0h2m1 0h1m3 0h1m6 0h3m3 0h1m1 0h1m3 0h1m3 0h4m3 0h3m1 0h1m1 0h2m2 0h1m1 0h2m1 0h2m1 0h1m1 0h3m2 0h5M4 50.5h3m2 0h4m5 0h1m1 0h4m2 0h1m3 0h3m4 0h2m2 0h2m3 0h2m1 0h1m6 0h1m2 0h3m1 0h4m2 0h1m1 0h1m3 0h6m2 0h1m4 0h1m3 0h1M4 51.5h4m1 0h1m1 0h2m1 0h1m1 0h9m1 0h3m2 0h1m1 0h6m2 0h1m2 0h1m6 0h1m2 0h1m3 0h1m1 0h3m1 0h3m6 0h3m1 0h1m3 0h1m1 0h2m1 0h1m1 0h1m1 0h1M4 52.5h5m1 0h1m1 0h1m1 0h1m1 0h3m1 0h2m1 0h2m1 0h1m3 0h2m1 0h1m1 0h1m6 0h1m1 0h1m5 0h1m1 0h1m1 0h1m2 0h4m1 0h2m1 0h2m1 0h1m2 0h2m3 0h2m3 0h3m2 0h2m1 0h1m2 0h1M7 53.5h1m10 0h2m2 0h1m3 0h6m1 0h2m5 0h4m3 0h2m1 0h2m1 0h1m1 0h1m1 0h1m1 0h3m2 0h1m1 0h3m2 0h2m3 0h1m1 0h2m2 0h3m1 0h1m1 0h1m2 0h1M8 54.5h1m1 0h2m2 0h1m1 0h1m2 0h5m2 0h1m2 0h1m1 0h1m1 0h2m1 0h8m1 0h5m1 0h1m2 0h2m1 0h2m2 0h2m1 0h6m1 0h1m3 0h1m1 0h4m2 0h2m3 0h1m2 0h2M4 55.5h2m1 0h1m1 0h1m4 0h2m2 0h2m3 0h9m2 0h2m1 0h2m2 0h6m1 0h1m2 0h4m1 0h1m1 0h2m1 0h6m1 0h2m1 0h1m2 0h1m2 0h1m1 0h2m4 0h1m6 0h1M4 56.5h1m1 0h1m1 0h5m1 0h2m4 0h2m1 0h2m1 0h1m2 0h2m2 0h2m1 0h2m1 0h1m2 0h1m1 0h1m7 0h2m3 0h3m1 0h1m1 0h2m4 0h2m2 0h1m1 0h1m5 0h3m1 0h1m1 0h1m4 0h1M6 57.5h1m1 0h2m2 0h2m1 0h4m1 0h2m2 0h1m1 0h2m4 0h2m3 0h2m1 0h6m3 0h1m1 0h2m1 0h1m2 0h3m2 0h1m1 0h1m4 0h1m1 0h2m1 0h4m4 0h1m2 0h1m4 0h1M4 58.5h1m2 0h6m3 0h1m3 0h1m1 0h6m1 0h2m1 0h8m3 0h1m3 0h1m2 0h2m1 0h2m1 0h7m1 0h2m1 0h4m1 0h1m2 0h1m2 0h4m2 0h6M4 59.5h2m1 0h2m3 0h1m7 0h2m3 0h1m5 0h2m3 0h1m3 0h1m6 0h1m2 0h1m4 0h1m1 0h2m3 0h3m4 0h1m1 0h1m9 0h4m3 0h1m1 0h2M4 60.5h1m1 0h3m1 0h1m1 0h2m2 0h1m1 0h2m1 0h1m1 0h1m1 0h2m1 0h1m3 0h1m1 0h1m1 0h1m3 0h5m5 0h2m1 0h1m2 0h3m1 0h1m1 0h3m1 0h1m1 0h1m1 0h1m3 0h1m1 0h1m4 0h4m1 0h1m1 0h2m1 0h1M4 61.5h5m3 0h1m3 0h3m5 0h2m1 0h2m2 0h2m3 0h1m1 0h4m2 0h1m1 0h2m1 0h1m5 0h1m2 0h1m3 0h1m1 0h1m2 0h1m4 0h3m1 0h1m3 0h1m1 0h1m1 0h1m3 0h2M6 62.5h8m1 0h3m1 0h1m1 0h2m5 0h2m2 0h5m1 0h2m1 0h2m3 0h2m1 0h1m1 0h1m2 0h3m1 0h5m1 0h1m3 0h1m3 0h1m2 0h4m3 0h9M4 63.5h3m1 0h2m3 0h1m2 0h2m3 0h2m3 0h1m1 0h1m8 0h3m4 0h1m3 0h1m2 0h2m2 0h1m3 0h2m1 0h2m8 0h4m1 0h2m4 0h4m2 0h4M6 64.5h1m1 0h1m1 0h2m1 0h1m1 0h1m1 0h4m2 0h5m1 0h1m1 0h1m1 0h1m1 0h8m1 0h3m1 0h1m3 0h2m2 0h3m1 0h1m1 0h1m2 0h1m1 0h1m3 0h1m1 0h3m2 0h1m2 0h1m4 0h1m1 0h2m2 0h1M4 65.5h2m1 0h3m1 0h4m5 0h3m4 0h1m3 0h1m2 0h1m1 0h1m2 0h2m2 0h2m1 0h3m1 0h1m3 0h3m1 0h1m2 0h2m2 0h3m2 0h1m1 0h1m2 0h1m1 0h1m2 0h6m2 0h1M4 66.5h2m2 0h1m1 0h3m2 0h1m1 0h1m3 0h2m1 0h4m1 0h1m1 0h1m2 0h4m1 0h4m1 0h2m1 0h3m2 0h6m2 0h1m5 0h1m1 0h2m6 0h5m1 0h1m1 0h3m1 0h1m1 0h3M4 67.5h1m4 0h1m1 0h2m3 0h1m1 0h1m1 0h1m1 0h1m4 0h1m1 0h3m1 0h1m1 0h2m2 0h1m1 0h1m4 0h4m1 0h1m1 0h1m1 0h2m2 0h2m2 0h4m1 0h2m2 0h4m1 0h1m2 0h3m1 0h1m4 0h2M6 68.5h3m1 0h1m2 0h7m3 0h3m2 0h1m1 0h1m1 0h2m2 0h2m3 0h3m1 0h1m1 0h1m1 0h1m2 0h2m9 0h1m1 0h5m1 0h1m2 0h6m1 0h1m3 0h1m1 0h1m1 0h4M6 69.5h3m2 0h1m3 0h1m2 0h1m4 0h1m1 0h4m3 0h1m1 0h2m1 0h3m1 0h1m4 0h2m1 0h1m1 0h1m2 0h3m1 0h1m2 0h1m1 0h1m1 0h4m1 0h3m3 0h4m3 0h3m1 0h1m1 0h1m1 0h2M4 70.5h1m1 0h1m1 0h5m1 0h6m3 0h1m3 0h2m3 0h1m1 0h2m1 0h3m2 0h2m3 0h1m1 0h1m3 0h1m1 0h1m1 0h1m1 0h2m3 0h4m1 0h3m3 0h1m5 0h2m1 0h2m1 0h1m2 0h1M4 71.5h4m1 0h1m2 0h6m2 0h3m2 0h4m3 0h4m2 0h2m1 0h2m2 0h3m2 0h1m1 0h1m1 0h2m1 0h6m3 0h1m1 0h1m6 0h4m1 0h1m1 0h3m2 0h1m2 0h3M7 72.5h2m1 0h4m2 0h1m3 0h10m2 0h11m1 0h3m1 0h1m1 0h2m2 0h1m1 0h4m2 0h1m1 0h2m3 0h1m1 0h2m1 0h2m3 0h1m2 0h4m2 0h2m1 0h1M5 73.5h1m3 0h1m1 0h1m2 0h1m3 0h1m1 0h2m3 0h2m1 0h1m2 0h3m5 0h1m2 0h2m1 0h2m1 0h1m1 0h3m2 0h1m3 0h3m5 0h4m1 0h1m1 0h5m1 0h3m1 0h1m1 0h2m1 0h4M8 74.5h3m1 0h2m2 0h4m1 0h2m2 0h4m3 0h6m1 0h2m1 0h1m1 0h3m1 0h1m5 0h3m1 0h4m1 0h1m1 0h3m2 0h1m1 0h1m2 0h1m2 0h3m1 0h1m1 0h1m1 0h1m1 0h2m1 0h2M4 75.5h2m1 0h1m3 0h3m4 0h1m3 0h2m2 0h1m1 0h2m1 0h6m1 0h2m2 0h1m2 0h1m1 0h1m1 0h1m1 0h1m2 0h2m3 0h1m1 0h4m1 0h2m4 0h1m1 0h1m2 0h2m2 0h2m3 0h1m2 0h1m1 0h1M4 76.5h1m5 0h2m5 0h5m1 0h2m1 0h2m1 0h2m1 0h4m2 0h4m1 0h1m2 0h2m1 0h2m2 0h1m2 0h2m3 0h2m1 0h2m2 0h1m2 0h1m1 0h1m2 0h1m1 0h1m1 0h1m1 0h1m1 0h3m1 0h2m1 0h1M5 77.5h5m1 0h1m4 0h2m1 0h3m1 0h1m6 0h1m2 0h5m1 0h1m1 0h1m1 0h4m2 0h1m1 0h1m1 0h3m1 0h1m1 0h1m1 0h2m1 0h4m1 0h2m1 0h2m1 0h3m1 0h1m1 0h4m1 0h1m3 0h3M5 78.5h1m2 0h3m1 0h6m1 0h1m5 0h1m1 0h2m1 0h2m5 0h1m3 0h1m2 0h1m1 0h2m1 0h1m1 0h1m3 0h1m1 0h3m1 0h1m2 0h3m2 0h2m1 0h2m1 0h1m1 0h7m5 0h1M13 79.5h1m4 0h2m1 0h2m4 0h2m3 0h3m1 0h1m2 0h6m2 0h3m4 0h5m2 0h2m1 0h1m3 0h3m1 0h1m8 0h2m1 0h5m2 0h2M4 80.5h4m2 0h3m2 0h1m3 0h1m2 0h2m1 0h1m1 0h5m1 0h2m1 0h1m1 0h2m2 0h3m2 0h3m6 0h1m1 0h9m1 0h2m3 0h1m2 0h1m1 0h2m1 0h1m1 0h1m3 0h3m1 0h1M6 81.5h1m2 0h1m1 0h1m3 0h1m6 0h2m4 0h2m3 0h1m5 0h1m2 0h6m3 0h1m3 0h2m1 0h3m1 0h1m1 0h4m2 0h1m1 0h4m1 0h1m2 0h1m3 0h1m1 0h1m1 0h1M4 82.5h1m2 0h1m2 0h1m2 0h1m1 0h1m3 0h1m1 0h2m2 0h1m2 0h2m1 0h6m1 0h1m2 0h3m1 0h2m1 0h1m2 0h4m1 0h1m2 0h1m1 0h5m1 0h1m1 0h1m4 0h1m2 0h1m3 0h2m3 0h1m1 0h3M4 83.5h2m2 0h2m2 0h1m1 0h4m2 0h1m1 0h2m2 0h2m3 0h3m3 0h1m1 0h1m4 0h1m1 0h1m1 0h1m1 0h4m1 0h4m3 0h1m4 0h2m2 0h1m1 0h2m1 0h2m2 0h3m1 0h2m2 0h1m1 0h1m1 0h1M4 84.5h1m2 0h1m2 0h1m2 0h5m1 0h6m1 0h1m1 0h3m1 0h5m1 0h1m1 0h3m1 0h2m1 0h1m1 0h2m2 0h1m1 0h1m1 0h7m3 0h1m1 0h12m1 0h10M12 85.5h2m1 0h1m1 0h1m4 0h1m1 0h2m1 0h2m1 0h1m1 0h1m3 0h1m1 0h3m3 0h2m1 0h1m1 0h1m2 0h1m1 0h1m2 0h2m3 0h1m1 0h2m2 0h1m2 0h2m4 0h2m1 0h1m3 0h1m3 0h1M4 86.5h7m4 0h2m2 0h1m4 0h3m4 0h2m1 0h1m1 0h2m1 0h4m2 0h1m2 0h5m5 0h1m1 0h1m1 0h2m1 0h2m2 0h5m4 0h1m4 0h2m1 0h1m1 0h1m3 0h1M4 87.5h1m5 0h1m1 0h2m2 0h1m1 0h1m1 0h1m1 0h2m4 0h5m3 0h1m2 0h1m1 0h5m2 0h3m6 0h2m3 0h8m1 0h3m4 0h2m4 0h1m3 0h1m1 0h3M4 88.5h1m1 0h3m1 0h1m3 0h3m1 0h1m1 0h3m2 0h1m4 0h1m1 0h8m1 0h1m1 0h1m1 0h1m1 0h1m2 0h3m2 0h1m2 0h9m1 0h2m1 0h1m4 0h1m2 0h3m1 0h6m2 0h2M4 89.5h1m1 0h3m1 0h1m3 0h1m1 0h2m3 0h3m1 0h1m1 0h2m1 0h1m1 0h4m2 0h1m1 0h4m2 0h1m1 0h2m3 0h4m2 0h1m2 0h2m1 0h1m3 0h1m1 0h1m2 0h1m1 0h1m6 0h8M4 90.5h1m1 0h3m1 0h1m1 0h1m3 0h1m1 0h2m1 0h1m1 0h2m1 0h1m3 0h1m2 0h4m4 0h2m1 0h2m1 0h2m1 0h1m2 0h2m3 0h2m1 0h2m1 0h1m2 0h1m1 0h1m4 0h1m2 0h3m1 0h3m1 0h1m3 0h4M4 91.5h1m5 0h1m1 0h2m3 0h1m4 0h1m1 0h2m6 0h3m2 0h1m1 0h2m5 0h1m1 0h1m1 0h2m3 0h8m1 0h1m1 0h3m2 0h1m2 0h1m2 0h3m1 0h1m1 0h2m3 0h3M4 92.5h7m1 0h1m1 0h2m7 0h1m1 0h4m2 0h3m1 0h1m2 0h1m2 0h2m2 0h9m1 0h3m1 0h1m1 0h3m1 0h1m1 0h1m1 0h3m1 0h1m4 0h1m2 0h1m2 0h1m1 0h3m3 0h1"/></svg>
