<svg xmlns="http://www.w3.org/2000/svg" viewBox="0 0 109 109" shape-rendering="crispEdges"><path fill="#ffffff" d="M0 0h109v109H0z"/><path stroke="#000000" d="M4 4.5h7m1 0h4m2 0h1m1 0h3m1 0h1m1 0h6m6 0h2m1 0h1m1 0h5m1 0h2m1 0h1m1 0h2m2 0h1m2 0h1m1 0h1m2 0h1m2 0h1m1 0h1m2 0h1m1 0h2m2 0h2m1 0h1m3 0h1m3 0h1m2 0h2m2 0h7M4 5.5h1m5 0h1m2 0h1m3 0h3m2 0h4m1 0h4m6 0h3m4 0h1m1 0h1m2 0h1m1 0h1m2 0h1m1 0h1m1 0h4m2 0h1m2 0h2m1 0h2m3 0h3m1 0h5m3 0h2m4 0h1m4 0h1m5 0h1M4 6.5h1m1 0h3m1 0h1m2 0h1m1 0h1m3 0h2m2 0h2m2 0h5m3 0h1m4 0h1m1 0h2m2 0h4m2 0h6m1 0h2m1 0h1m2 0h1m1 0h3m2 0h1m2 0h3m1 0h7m6 0h1m2 0h1m2 0h1m1 0h3m1 0h1M4 7.5h1m1 0h3m1 0h1m3 0h1m1 0h3m2 0h1m4 0h4m2 0h2m2 0h2m1 0h1m1 0h1m1 0h1m1 0h1m1 0h1m1 0h2m3 0h1m3 0h1m2 0h5m1 0h2m1 0h1m1 0h1m2 0h1m3 0h1m1 0h1m3 0h1m5 0h2m1 0h2m2 0h1m1 0h3m1 0h1M4 8.5h1m1 0h3m1 0h1m3 0h6m1 0h1m2 0h2m1 0h1m2 0h5m4 0h5m5 0h1m2 0h7m2 0h1m2 0h2m2 0h1m1 0h1m3 0h5m1 0h7m1 0h2m1 0h4m1 0h1m1 0h1m1 0h3m1 0h1M4 9.5h1m5 0h1m2 0h5m1 0h6m3 0h3m3 0h4m2 0h2m3 0h2m1 0h1m1 0h3m3 0h5m2 0h1m1 0h1m1 0h1m1 0h1m2 0h1m1 0h1m3 0h9m3 0h4m1 0h1m2 0h1m5 0h1M4 10.5h7m1 0h1m1 0h1m1 0h1m1 0h1m1 0h1m1 0h1m1 0h1m1 0h1m1 0h1m1 0h1m1 0h1m1 0h1m1 0h1m1 0h1m1 0h1m1 0h1m1 0h1m1 0h1m1 0h1m1 0h1m1 0h1m1 0h1m1 0h1m1 0h1m1 0h1m1 0h1m1 0h1m1 0h1m1 0h1m1 0h1m1 0h1m1 0h1m1 0h1m1 0h1m1 0h1m1 0h1m1 0h1m1 0h1m1 0h1m1 0h1m1 0h1m1 0h1m1 0h1m1 0h7M12 11.5h2m3 0h6m2 0h1m3 0h2m3 0h1m2 0h2m1 0h1m1 0h3m1 0h2m1 0h1m2 0h1m3 0h2m1 0h6m1 0h2m1 0h4m1 0h1m3 0h1m1 0h4m3 0h3m3 0h1m2 0h1M4 12.5h2m1 0h2m1 0h1m4 0h3m1 0h2m3 0h2m2 0h7m1 0h4m1 0h1m2 0h1m3 0h1m1 0h1m1 0h6m2 0h4m4 0h1m1 0h2m1 0h6m4 0h3m1 0h1m1 0h1m2 0h2m4 0h1m5 0h1M6 13.5h2m3 0h1m1 0h2m2 0h2m1 0h2m1 0h1m1 0h1m2 0h4m4 0h1m1 0h1m2 0h1m3 0h2m1 0h1m1 0h1m1 0h2m1 0h2m1 0h1m1 0h1m3 0h1m2 0h3m1 0h1m2 0h1m1 0h2m3 0h1m3 0h1m1 0h3m1 0h2m2 0h1m2 0h2m2 0h2M4 14.5h1m3 0h1m1 0h2m2 0h1m2 0h1m2 0h1m1 0h2m1 0h3m1 0h3m1 0h3m1 0h3m1 0h4m2 0h1m3 0h2m4 0h1m1 0h1m1 0h1m1 0h1m1 0h3m3 0h1m5 0h1m1 0h7m1 0h1m1 0h4m1 0h2m1 0h2m1 0h1m1 0h1M5 15.5h1m1 0h1m1 0h1m2 0h1m1 0h1m1 0h1m1 0h2m3 0h1m4 0h3m3 0h1m1 0h1m1 0h1m1 0h2m2 0h1m2 0h1m1 0h4m4 0h1m1 0h1m1 0h1m1 0h5m4 0h1m3 0h1m2 0h1m3 0h1m5 0h1m3 0h4m1 0h1m1 0h4M5 16.5h3m2 0h1m2 0h3m2 0h2m2 0h1m2 0h2m1 0h1m1 0h1m1 0h2m2 0h3m1 0h1m1 0h2m1 0h1m2 0h1m2 0h1m1 0h6m3 0h3m3 0h3m1 0h3m2 0h1m2 0h3m2 0h1m1 0h1m1 0h2m3 0h2m1 0h1m1 0h1m2 0h3M5 17.5h2m5 0h4m1 0h3m1 0h2m6 0h1m3 0h1m3 0h4m1 0h3m2 0h1m1 0h5m1 0h2m1 0h2m2 0h2m1 0h2m1 0h2m1 0h2m1 0h2m2 0h2m1 0h3m2 0h2m2 0h1m1 0h3m2 0h1m1 0h1m1 0h2m1 0h1M7 18.5h4m2 0h2m1 0h2m3 0h1m1 0h1m3 0h2m1 0h3m2 0h2m1 0h6m1 0h1m2 0h3m1 0h2m1 0h1m3 0h2m1 0h3m1 0h3m2 0h1m1 0h4m2 0h1m2 0h1m1 0h2m1 0h1m3 0h2m1 0h1m1 0h1m1 0h1m3 0h1m1 0h1M6 19.5h1m2 0h1m1 0h4m2 0h1m3 0h2m2 0h1m2 0h1m4 0h1m2 0h3m3 0h1m2 0h2m2 0h1m1 0h1m1 0h2m2 0h2m2 0h2m1 0h1m1 0h1m1 0h1m2 0h1m2 0h1m1 0h4m2 0h2m4 0h7m1 0h2m1 0h6M5 20.5h2m1 0h3m1 0h3m2 0h2m1 0h1m2 0h2m1 0h1m1 0h2m1 0h2m1 0h1m3 0h1m2 0h3m2 0h3m1 0h1m1 0h2m1 0h3m1 0h4m3 0h2m1 0h1m1 0h4m1 0h3m1 0h2m2 0h3m2 0h2m2 0h1m1 0h2m1 0h2M4 21.5h4m3 0h1m4 0h1m2 0h1m1 0h1m1 0h1m3 0h2m2 0h1m1 0h1m2 0h1m2 0h1m4 0h3m1 0h1m1 0h3m5 0h1m1 0h6m1 0h2m2 0h1m1 0h4m1 0h5m1 0h2m1 0h1m1 0h2m1 0h2m1 0h1m3 0h2m2 0h2M4 22.5h1m1 0h2m1 0h2m2 0h2m8 0h1m3 0h1m3 0h2m2 0h4m1 0h2m2 0h1m1 0h2m2 0h4m1 0h1m1 0h1m1 0h2m1 0h1m3 0h4m1 0h1m1 0h1m1 0h2m1 0h4m1 0h1m1 0h3m1 0h1m1 0h1m1 0h1m1 0h1m1 0h1m2 0h3M6 23.5h2m1 0h1m2 0h2m1 0h2m4 0h4m2 0h5m4 0h2m2 0h1m2 0h1m1 0h2m3 0h1m1 0h1m1 0h1m1 0h1m2 0h1m4 0h1m2 0h2m6 0h1m2 0h1m1 0h1m1 0h2m1 0h2m3 0h1m2 0h3m2 0h5M4 24.5h3m2 0h3m4 0h5m2 0h2m1 0h2m1 0h1m3 0h5m1 0h4m1 0h1m1 0h1m1 0h2m1 0h1m2 0h2m1 0h3m1 0h2m1 0h3m1 0h2m4 0h1m2 0h1m2 0h5m1 0h5m2 0h2m5 0h4M5 25.5h2m4 0h3m1 0h1m3 0h1m1 0h1m1 0h1m1 0h2m3 0h1m3 0h1m2 0h3m1 0h2m3 0h3m3 0h2m1 0h1m4 0h2m1 0h1m1 0h3m3 0h1m1 0h3m1 0h1m3 0h1m4 0h1m1 0h1m1 0h1m5 0h1m3 0h1m3 0h1M9 26.5h5m1 0h3m2 0h1m1 0h1m1 0h1m2 0h1m1 0h1m3 0h2m2 0h3m2 0h1m1 0h3m5 0h2m3 0h1m1 0h1m2 0h1m1 0h1m1 0h3m1 0h1m2 0h1m2 0h4m1 0h1m1 0h1m1 0h1m4 0h1m1 0h2m1 0h1m3 0h2m2 0h1M4 27.5h1m2 0h1m1 0h1m1 0h1m3 0h1m1 0h1m1 0h1m2 0h1m2 0h2m1 0h1m3 0h4m1 0h1m1 0h1m9 0h3m1 0h1m1 0h1m3 0h3m3 0h2m2 0h2m1 0h1m1 0h1m1 0h4m1 0h2m2 0h5m2 0h7m1 0h2m1 0h1M5 28.5h1m1 0h6m1 0h5m1 0h1m1 0h2m3 0h4m1 0h5m3 0h2m2 0h1m2 0h2m7 0h4m1 0h2m1 0h1m1 0h5m1 0h1m1 0h4m2 0h3m1 0h3m1 0h2m1 0h6m2 0h2m2 0h1M6 29.5h2m1 0h1m3 0h2m2 0h1m1 0h4m1 0h2m1 0h2m1 0h1m3 0h1m1 0h6m1 0h1m1 0h2m3 0h3m1 0h5m1 0h1m1 0h8m1 0h2m5 0h1m1 0h1m1 0h4m2 0h1m9 0h1m1 0h3M6 30.5h7m1 0h3m4 0h3m1 0h1m1 0h1m2 0h8m2 0h1m2 0h2m2 0h2m1 0h1m1 0h7m3 0h1m2 0h1m1 0h1m3 0h2m1 0h5m1 0h2m2 0h2m2 0h1m3 0h1m1 0h8M4 31.5h1m3 0h1m3 0h1m2 0h4m2 0h1m2 0h1m1 0h1m1 0h3m3 0h3m1 0h3m4 0h1m3 0h4m3 0h2m3 0h2m1 0h2m2 0h1m5 0h1m3 0h1m1 0h1m3 0h4m2 0h1m2 0h4m3 0h1m3 0h1M4 32.5h1m2 0h2m1 0h1m1 0h4m1 0h2m1 0h2m1 0h1m1 0h3m1 0h2m1 0h1m1 0h1m1 0h1m3 0h2m1 0h2m1 0h3m1 0h1m1 0h1m1 0h1m1 0h1m1 0h3m2 0h4m1 0h2m2 0h1m1 0h1m1 0h1m1 0h3m1 0h8m1 0h1m3 0h2m1 0h1m1 0h2M5 33.5h1m2 0h1m3 0h2m1 0h3m3 0h1m2 0h4m1 0h2m3 0h2m3 0h1m1 0h3m1 0h2m2 0h1m1 0h2m3 0h7m1 0h3m3 0h1m1 0h3m3 0h3m1 0h1m1 0h1m6 0h1m1 0h2m1 0h1m3 0h2m1 0h2M5 34.5h11m2 0h2m1 0h2m1 0h2m1 0h9m2 0h3m1 0h1m2 0h4m2 0h7m1 0h1m1 0h2m1 0h2m1 0h2m1 0h1m3 0h5m1 0h1m3 0h4m1 0h1m2 0h1m3 0h6m1 0h1M9 35.5h1m2 0h6m1 0h1m2 0h1m1 0h2m1 0h2m1 0h2m4 0h1m1 0h1m1 0h1m1 0h1m1 0h7m1 0h2m2 0h2m2 0h3m5 0h2m2 0h2m1 0h2m1 0h3m1 0h4m3 0h3m1 0h1m1 0h1m1 0h1m1 0h1m1 0h2M4 36.5h1m1 0h1m3 0h2m4 0h1m4 0h1m1 0h2m2 0h1m1 0h1m1 0h4m2 0h4m2 0h3m1 0h3m1 0h2m1 0h3m4 0h1m1 0h3m3 0h1m2 0h1m2 0h1m1 0h2m3 0h3m1 0h1m2 0h1m2 0h1m2 0h6m2 0h2M6 37.5h1m2 0h1m1 0h1m1 0h1m2 0h2m1 0h3m1 0h1m3 0h1m2 0h1m1 0h1m1 0h2m1 0h4m2 0h10m1 0h2m4 0h2m1 0h1m1 0h1m1 0h1m4 0h4m1 0h1m3 0h1m4 0h4m3 0h1m1 0h1m2 0h2m2 0h2M5 38.5h3m2 0h1m3 0h1m1 0h1m1 0h3m3 0h2m2 0h7m2 0h1m2 0h1m2 0h2m3 0h1m1 0h1m2 0h1m1 0h1m1 0h2m2 0h2m1 0h1m3 0h3m1 0h4m1 0h1m1 0h1m2 0h1m1 0h1m6 0h5m2 0h1m2 0h1M5 39.5h2m2 0h1m3 0h2m1 0h2m4 0h6m1 0h1m3 0h1m2 0h1m3 0h1m1 0h2m1 0h4m1 0h4m1 0h1m2 0h1m1 0h5m5 0h1m2 0h4m1 0h2m3 0h1m2 0h1m1 0h1m2 0h4m3 0h1m1 0h1m2 0h2M4 40.5h3m3 0h3m1 0h2m5 0h2m1 0h1m1 0h3m1 0h3m1 0h1m1 0h2m2 0h4m1 0h2m1 0h2m5 0h3m3 0h1m2 0h2m3 0h1m3 0h4m1 0h1m6 0h2m1 0h1m1 0h1m2 0h1m1 0h3m1 0h1m1 0h1m1 0h1M4 41.5h2m9 0h2m2 0h3m1 0h1m2 0h5m1 0h5m1 0h1m2 0h2m2 0h1m3 0h1m1 0h1m1 0h2m1 0h1m2 0h1m1 0h1m3 0h1m2 0h1m4 0h5m2 0h1m1 0h1m2 0h1m1 0h3m3 0h2m1 0h1m1 0h1m1 0h1m1 0h2M4 42.5h1m2 0h1m2 0h1m1 0h2m4 0h2m1 0h3m2 0h2m1 0h1m2 0h6m1 0h3m1 0h4m1 0h2m3 0h1m1 0h2m1 0h4m2 0h2m1 0h1m2 0h1m3 0h3m2 0h2m2 0h1m2 0h6m1 0h2m2 0h1m3 0h1M5 43.5h1m1 0h1m1 0h1m1 0h1m1 0h1m1 0h2m1 0h1m3 0h1m1 0h1m1 0h9m1 0h4m1 0h1m1 0h1m1 0h1m3 0h2m3 0h1m1 0h6m1 0h1m1 0h1m3 0h2m3 0h3m4 0h1m4 0h1m4 0h1m2 0h1m1 0h1m4 0h1m1 0h1M4 44.5h1m4 0h2m2 0h1m1 0h1m3 0h5m1 0h1m7 0h2m2 0h1m2 0h1m2 0h4m2 0h1m3 0h1m2 0h5m1 0h2m6 0h1m6 0h1m2 0h1m1 0h1m1 0h1m2 0h1m1 0h3m1 0h2m2 0h4m1 0h3M7 45.5h1m1 0h1m4 0h3m1 0h1m1 0h2m1 0h5m2 0h1m2 0h1m1 0h1m1 0h2m1 0h1m1 0h1m1 0h2m1 0h1m1 0h1m1 0h1m1 0h3m3 0h2m1 0h2m1 0h1m3 0h2m2 0h1m1 0h3m2 0h1m1 0h2m1 0h5m3 0h1m3 0h1m1 0h1m1 0h3M4 46.5h1m2 0h4m1 0h2m1 0h3m1 0h4m1 0h1m3 0h2m1 0h1m4 0h1m1 0h2m5 0h1m2 0h2m6 0h1m1 0h1m1 0h2m1 0h1m1 0h1m1 0h1m5 0h2m1 0h1m1 0h2m1 0h1m5 0h2m1 0h3m1 0h1m1 0h3m3 0h2M6 47.5h4m4 0h1m2 0h1m7 0h2m6 0h2m2 0h5m2 0h4m4 0h5m3 0h1m1 0h7m1 0h1m2 0h2m2 0h1m1 0h3m3 0h7m1 0h1m3 0h2m1 0h2m1 0h1M7 48.5h5m1 0h9m2 0h6m1 0h2m1 0h1m7 0h1m1 0h3m1 0h1m1 0h1m1 0h1m3 0h5m1 0h2m1 0h1m1 0h1m3 0h2m1 0h5m5 0h2m3 0h4m1 0h1m1 0h2m1 0h1m2 0h2M5 49.5h3m1 0h1m2 0h1m1 0h1m1 0h1m2 0h1m4 0h2m1 0h3m1 0h2m3 0h2m5 0h2m1 0h1m1 0h1m3 0h3m3 0h1m1 0h1m1 0h1m1 0h2m1 0h8m1 0h1m3 0h2m3 0h1m3 0h5m1 0h1m1 0h3m4 0h1M5 50.5h1m1 0h1m1 0h3m4 0h4m2 0h1m1 0h1m1 0h5m1 0h5m1 0h6m2 0h3m5 0h3m7 0h2m1 0h1m2 0h1m1 0h1m2 0h2m2 0h3m5 0h1m5 0h3m2 0h3m1 0h1m1 0h1M4 51.5h1m1 0h3m4 0h1m1 0h1m1 0h3m6 0h1m2 0h1m2 0h2m1 0h1m2 0h2m2 0h4m2 0h1m4 0h1m1 0h2m2 0h1m2 0h1m2 0h3m1 0h5m3 0h1m1 0h2m2 0h4m1 0h1m1 0h1m1 0h4m1 0h1m2 0h2m1 0h1M5 52.5h1m2 0h5m1 0h1m1 0h2m1 0h1m1 0h2m2 0h3m1 0h6m2 0h1m1 0h1m1 0h1m1 0h1m1 0h1m3 0h1m2 0h7m1 0h1m2 0h2m1 0h1m4 0h2m1 0h5m3 0h2m1 0h1m2 0h1m1 0h4m1 0h7M4 53.5h5m3 0h3m1 0h3m2 0h2m2 0h1m1 0h1m1 0h2m3 0h3m4 0h1m2 0h1m1 0h2m3 0h2m3 0h2m2 0h1m5 0h2m1 0h1m2 0h3m3 0h4m4 0h6m4 0h1m3 0h5M6 54.5h1m1 0h1m1 0h1m1 0h2m2 0h1m1 0h1m3 0h2m1 0h6m1 0h1m1 0h1m2 0h2m1 0h1m1 0h1m1 0h2m1 0h1m2 0h3m1 0h1m1 0h1m1 0h1m4 0h1m7 0h1m2 0h1m1 0h1m1 0h1m4 0h1m2 0h1m1 0h4m1 0h1m2 0h1m1 0h1m1 0h2M4 55.5h1m2 0h2m3 0h1m5 0h5m1 0h3m1 0h1m1 0h1m3 0h1m1 0h4m3 0h1m8 0h1m3 0h1m1 0h1m1 0h1m7 0h1m1 0h1m1 0h1m1 0h1m3 0h2m1 0h1m4 0h2m1 0h2m1 0h1m1 0h3m3 0h1m1 0h1M4 56.5h1m1 0h9m1 0h6m5 0h8m2 0h1m2 0h4m2 0h3m1 0h8m2 0h7m4 0h8m2 0h4m3 0h2m3 0h2m1 0h5m1 0h3M4 57.5h4m1 0h1m2 0h1m4 0h1m1 0h2m1 0h4m5 0h1m2 0h1m1 0h1m1 0h3m2 0h2m1 0h2m1 0h2m1 0h1m1 0h3m2 0h2m1 0h3m2 0h3m1 0h1m2 0h3m1 0h1m7 0h1m1 0h1m4 0h1m2 0h1m1 0h1m4 0h2M4 58.5h1m5 0h1m5 0h5m4 0h2m1 0h1m1 0h3m1 0h5m2 0h1m4 0h2m1 0h1m2 0h5m2 0h4m1 0h2m2 0h1m1 0h2m1 0h2m1 0h1m2 0h3m2 0h10m1 0h2m2 0h1M5 59.5h1m1 0h2m8 0h1m1 0h1m1 0h1m1 0h1m1 0h4m3 0h2m1 0h2m4 0h6m2 0h2m2 0h1m1 0h1m4 0h3m4 0h2m3 0h5m1 0h1m1 0h5m1 0h4m2 0h3m3 0h2m3 0h2M7 60.5h2m1 0h1m2 0h2m1 0h8m1 0h3m1 0h2m3 0h2m1 0h1m1 0h2m2 0h1m1 0h2m1 0h1m3 0h2m1 0h2m1 0h1m2 0h1m2 0h5m4 0h2m1 0h1m2 0h3m1 0h2m4 0h2m3 0h5m3 0h1m1 0h1M4 61.5h4m4 0h3m1 0h2m1 0h1m2 0h1m1 0h1m1 0h1m1 0h3m1 0h1m2 0h2m1 0h1m2 0h2m7 0h4m2 0h4m2 0h3m1 0h7m4 0h1m3 0h2m1 0h1m1 0h1m2 0h1m1 0h2m1 0h1m2 0h1m3 0h3M4 62.5h3m1 0h5m2 0h1m1 0h2m3 0h1m1 0h1m1 0h2m3 0h2m3 0h3m2 0h5m2 0h4m2 0h2m2 0h2m1 0h4m3 0h1m4 0h6m1 0h1m2 0h1m1 0h3m2 0h1m2 0h2m1 0h3m4 0h1M5 63.5h1m1 0h2m2 0h2m6 0h4m2 0h1m3 0h2m3 0h5m1 0h2m3 0h3m1 0h2m1 0h2m2 0h2m1 0h2m1 0h1m1 0h1m1 0h1m1 0h2m4 0h1m1 0h1m2 0h1m1 0h1m6 0h2m2 0h1m4 0h2m2 0h1m1 0h1M6 64.5h1m2 0h4m2 0h1m2 0h1m2 0h1m2 0h3m3 0h3m4 0h1m1 0h1m1 0h1m1 0h4m2 0h1m7 0h1m1 0h2m1 0h1m1 0h6m6 0h1m1 0h4m2 0h1m2 0h1m1 0h9m1 0h2m1 0h1M5 65.5h2m1 0h1m4 0h1m2 0h3m1 0h1m2 0h2m1 0h3m1 0h1m4 0h1m1 0h3m5 0h1m2 0h3m1 0h2m1 0h2m3 0h2m6 0h1m1 0h1m2 0h2m3 0h3m1 0h1m2 0h1m5 0h1m3 0h1m1 0h1m1 0h3m1 0h2M4 66.5h2m1 0h1m1 0h2m2 0h1m1 0h1m1 0h4m1 0h4m1 0h2m3 0h1m3 0h1m4 0h1m1 0h1m2 0h1m2 0h1m1 0h4m1 0h1m1 0h1m1 0h2m1 0h1m3 0h1m3 0h1m3 0h4m1 0h2m2 0h1m3 0h1m1 0h1m1 0h3m3 0h1m1 0h1m1 0h1M4 67.5h1m2 0h1m1 0h1m1 0h1m2 0h2m1 0h1m2 0h1m3 0h3m1 0h3m1 0h1m1 0h1m1 0h1m1 0h5m2 0h1m1 0h1m3 0h3m2 0h3m1 0h2m1 0h3m5 0h2m1 0h1m1 0h1m5 0h1m3 0h5m2 0h2m1 0h3m1 0h1m1 0h1M7 68.5h1m2 0h5m2 0h2m1 0h2m1 0h4m2 0h3m1 0h1m1 0h3m3 0h1m2 0h1m1 0h4m1 0h1m2 0h3m2 0h1m1 0h6m1 0h1m2 0h1m1 0h1m3 0h2m1 0h1m2 0h1m2 0h1m1 0h6m1 0h1m1 0h2m1 0h2m2 0h1M5 69.5h1m6 0h1m1 0h1m1 0h1m5 0h3m4 0h1m1 0h1m4 0h2m1 0h5m1 0h1m2 0h1m1 0h2m4 0h1m3 0h8m1 0h1m3 0h1m2 0h1m2 0h1m1 0h1m2 0h1m4 0h3m1 0h2m1 0h2m2 0h3m1 0h1M4 70.5h1m5 0h2m1 0h2m1 0h4m2 0h2m2 0h4m1 0h1m1 0h8m2 0h1m5 0h1m3 0h2m1 0h1m2 0h2m1 0h2m1 0h5m1 0h2m9 0h2m1 0h1m5 0h1m1 0h2m4 0h2m1 0h3M5 71.5h1m1 0h1m4 0h7m1 0h1m1 0h1m1 0h2m5 0h2m2 0h2m3 0h2m1 0h2m1 0h1m1 0h1m2 0h2m1 0h1m1 0h1m3 0h1m4 0h1m1 0h4m1 0h1m1 0h1m1 0h3m1 0h1m1 0h3m4 0h1m5 0h4m2 0h2M4 72.5h1m1 0h1m1 0h1m1 0h1m2 0h4m1 0h2m4 0h1m1 0h2m2 0h1m3 0h4m3 0h2m2 0h1m2 0h3m2 0h2m3 0h1m2 0h4m1 0h3m2 0h2m1 0h3m3 0h1m1 0h3m1 0h3m1 0h1m2 0h1m3 0h1m3 0h4M6 73.5h1m5 0h2m1 0h5m1 0h3m1 0h1m3 0h1m4 0h1m10 0h1m2 0h1m2 0h1m1 0h4m1 0h2m2 0h3m2 0h2m3 0h1m6 0h3m1 0h1m3 0h2m3 0h3m1 0h1m1 0h2m4 0h1M4 74.5h1m1 0h8m3 0h2m1 0h1m1 0h1m1 0h5m1 0h5m2 0h1m1 0h4m1 0h1m1 0h15m3 0h1m2 0h1m2 0h10m1 0h2m1 0h3m2 0h4m2 0h8M4 75.5h2m2 0h1m3 0h2m3 0h1m1 0h3m2 0h2m4 0h1m3 0h1m2 0h3m2 0h1m1 0h1m1 0h1m2 0h4m3 0h4m2 0h1m1 0h1m1 0h3m2 0h1m1 0h2m3 0h1m2 0h1m1 0h2m2 0h4m1 0h5m3 0h1m3 0h1M5 76.5h1m1 0h2m1 0h1m1 0h2m3 0h3m1 0h2m2 0h1m4 0h1m1 0h1m1 0h4m3 0h1m2 0h1m5 0h3m1 0h1m1 0h3m2 0h2m1 0h5m1 0h1m3 0h1m1 0h1m1 0h4m4 0h1m1 0h2m1 0h3m2 0h1m1 0h1m1 0h2M5 77.5h1m1 0h2m3 0h1m1 0h2m1 0h2m5 0h1m1 0h5m3 0h1m2 0h1m4 0h1m3 0h1m1 0h1m2 0h2m3 0h3m1 0h4m3 0h1m2 0h1m2 0h2m3 0h4m1 0h1m1 0h1m1 0h2m3 0h1m3 0h1m3 0h1m3 0h1M6 78.5h1m1 0h5m1 0h2m1 0h1m2 0h1m3 0h1m1 0h2m2 0h6m1 0h2m2 0h4m4 0h2m1 0h5m1 0h3m1 0h2m2 0h1m1 0h5m1 0h7m2 0h2m1 0h2m1 0h1m1 0h11m2 0h1M4 79.5h6m1 0h1m2 0h1m1 0h1m2 0h1m4 0h1m2 0h1m4 0h1m1 0h2m1 0h2m2 0h7m4 0h2m1 0h1m2 0h1m2 0h3m5 0h2m1 0h2m7 0h2m5 0h4m2 0h1m1 0h5m2 0h1M5 80.5h1m1 0h1m1 0h3m1 0h2m4 0h1m3 0h3m2 0h1m1 0h1m1 0h1m1 0h8m2 0h3m1 0h3m2 0h1m1 0h1m1 0h1m2 0h2m1 0h2m1 0h1m2 0h1m1 0h1m1 0h1m1 0h4m4 0h1m1 0h3m2 0h1m2 0h1m1 0h3m1 0h2m1 0h2M4 81.5h1m1 0h1m5 0h2m1 0h1m2 0h1m4 0h2m2 0h2m1 0h2m1 0h1m2 0h1m4 0h1m1 0h2m3 0h2m2 0h1m1 0h1m1 0h2m6 0h2m6 0h2m1 0h1m1 0h1m3 0h1m2 0h5m2 0h1m1 0h1m1 0h1m2 0h1m1 0h1m2 0h2M7 82.5h1m1 0h2m2 0h1m2 0h1m2 0h1m1 0h2m2 0h2m1 0h1m1 0h13m1 0h1m1 0h1m2 0h1m1 0h1m1 0h3m2 0h1m1 0h1m1 0h1m1 0h2m1 0h1m1 0h5m1 0h2m1 0h1m1 0h1m1 0h3m1 0h2m4 0h2m1 0h1m1 0h3m3 0h1M5 83.5h5m1 0h2m1 0h1m1 0h1m1 0h2m1 0h3m4 0h2m2 0h1m1 0h3m3 0h1m2 0h1m2 0h2m1 0h1m2 0h3m2 0h2m1 0h4m1 0h1m1 0h1m1 0h1m7 0h1m2 0h4m2 0h2m1 0h1m1 0h1m1 0h1m2 0h1m2 0h5M4 84.5h2m2 0h1m1 0h1m2 0h1m3 0h1m1 0h3m1 0h1m3 0h2m1 0h2m3 0h1m1 0h1m1 0h2m2 0h3m4 0h1m1 0h3m1 0h1m1 0h3m1 0h3m2 0h1m2 0h1m2 0h1m1 0h5m1 0h3m1 0h7m6 0h2m2 0h2M4 85.5h2m7 0h2m7 0h2m4 0h1m2 0h2m1 0h3m2 0h4m5 0h3m1 0h1m2 0h1m1 0h1m4 0h3m6 0h1m1 0h1m2 0h1m2 0h1m1 0h3m1 0h1m1 0h4m2 0h1m1 0h1m1 0h1m2 0h1m3 0h1M5 86.5h1m1 0h2m1 0h1m1 0h2m5 0h3m1 0h1m2 0h1m1 0h1m1 0h1m2 0h1m1 0h1m1 0h4m3 0h1m2 0h1m1 0h3m1 0h3m1 0h3m6 0h2m1 0h3m1 0h1m1 0h2m2 0h6m1 0h1m1 0h1m2 0h2m2 0h2m1 0h1m1 0h2m2 0h1M4 87.5h2m2 0h2m2 0h4m1 0h1m4 0h3m1 0h3m1 0h1m2 0h4m1 0h1m2 0h2m2 0h1m1 0h4m1 0h2m1 0h3m2 0h2m1 0h1m4 0h2m2 0h2m4 0h2m1 0h1m2 0h2m2 0h1m1 0h1m1 0h1m1 0h1m3 0h2m1 0h1m1 0h2M4 88.5h4m1 0h4m1 0h1m1 0h1m1 0h1m1 0h1m4 0h1m1 0h5m2 0h4m1 0h1m1 0h1m1 0h5m1 0h2m1 0h1m3 0h2m1 0h2m1 0h5m3 0h2m2 0h1m2 0h2m2 0h2m2 0h2m2 0h2m6 0h3m1 0h2m1 0h1M5 89.5h1m8 0h1m2 0h1m2 0h1m1 0h1m3 0h1m1 0h1m1 0h1m1 0h1m1 0h2m4 0h2m1 0h1m1 0h1m3 0h1m1 0h1m2 0h4m1 0h3m4 0h1m3 0h2m3 0h2m1 0h1m2 0h1m1 0h1m3 0h1m1 0h2m2 0h2m1 0h1m1 0h1m1 0h1m1 0h3M4 90.5h2m3 0h3m2 0h1m2 0h1m1 0h1m3 0h1m1 0h4m1 0h1m1 0h1m2 0h2m4 0h2m1 0h1m1 0h2m1 0h1m3 0h3m1 0h5m1 0h4m1 0h1m1 0h1m1 0h3m1 0h2m1 0h1m2 0h2m4 0h2m1 0h1m3 0h2m1 0h1m2 0h1m1 0h1M4 91.5h2m9 0h3m1 0h3m1 0h1m1 0h1m2 0h3m1 0h3m1 0h1m1 0h1m1 0h5m3 0h4m1 0h1m4 0h1m2 0h1m1 0h1m1 0h1m1 0h4m2 0h2m1 0h2m1 0h1m4 0h1m1 0h2m1 0h2m6 0h1m4 0h2M4 92.5h1m3 0h3m2 0h2m3 0h1m1 0h3m1 0h5m3 0h3m2 0h1m4 0h4m6 0h4m3 0h2m3 0h1m2 0h1m1 0h1m2 0h4m1 0h1m2 0h1m1 0h1m1 0h1m1 0h1m1 0h1m7 0h2m1 0h6M4 93.5h1m3 0h2m2 0h1m1 0h2m2 0h3m1 0h1m1 0h1m1 0h1m2 0h1m2 0h3m1 0h5m2 0h3m2 0h6m1 0h2m2 0h3m1 0h2m4 0h1m2 0h1m1 0h1m2 0h1m2 0h3m5 0h2m2 0h1m2 0h1m1 0h1m1 0h1m1 0h2m1 0h1M4 94.5h1m2 0h2m1 0h4m1 0h6m2 0h2m2 0h2m4 0h2m2 0h1m1 0h3m1 0h8m1 0h2m1 0h1m2 0h1m2 0h1m2 0h1m1 0h6m1 0h3m3 0h2m1 0h2m1 0h3m1 0h1m1 0h9m1 0h1M4 95.5h1m1 0h2m1 0h1m2 0h4m3 0h2m1 0h1m2 0h1m2 0h1m1 0h1m1 0h1m1 0h1m3 0h3m1 0h1m1 0h1m1 0h3m4 0h1m1 0h1m5 0h1m4 0h1m5 0h6m1 0h2m4 0h1m1 0h1m4 0h1m3 0h1m1 0h2m1 0h1m1 0h2M8 96.5h1m1 0h1m2 0h1m1 0h2m1 0h1m1 0h2m1 0h1m3 0h1m2 0h5m1 0h5m1 0h1m1 0h1m1 0h1m2 0h1m2 0h6m4 0h5m1 0h1m1 0h1m3 0h5m5 0h5m2 0h1m4 0h8M12 97.5h4m1 0h2m6 0h3m1 0h2m3 0h2m2 0h2m2 0h1m2 0h8m3 0h3m1 0h6m1 0h8m3 0h1m1 0h1m1 0h2m1 0h2m1 0h1m1 0h7m3 0h1m2 0h1M4 98.5h7m4 0h3m2 0h5m1 0h3m1 0h1m1 0h1m1 0h4m1 0h3m4 0h1m1 0h3m1 0h1m1 0h1m1 0h1m5 0h11m1 0h1m1 0h1m1 0h3m2 0h1m1 0h1m2 0h5m1 0h3m1 0h1m1 0h3m1 0h1M4 99.5h1m5 0h1m2 0h1m1 0h2m3 0h2m1 0h1m3 0h1m2 0h1m3 0h2m1 0h1m1 0h4m3 0h4m2 0h1m3 0h5m3 0h1m2 0h1m5 0h2m3 0h4m3 0h1m1 0h1m1 0h1m1 0h2m3 0h1m3 0h1m1 0h2M4 100.5h1m1 0h3m1 0h1m1 0h2m3 0h2m3 0h1m1 0h11m3 0h3m2 0h3m3 0h1m1 0h7m1 0h1m1 0h1m1 0h2m2 0h4m1 0h7m1 0h3m7 0h3m1 0h1m1 0h9M4 101.5h1m1 0h3m1 0h1m1 0h1m5 0h5m1 0h2m5 0h1m3 0h2m1 0h1m3 0h2m3 0h2m1 0h3m3 0h1m1 0h1m1 0h4m1 0h3m4 0h3m1 0h2m3 0h3m1 0h1m4 0h2m2 0h3m1 0h2m1 0h1M4 102.5h1m1 0h3m1 0h1m2 0h1m1 0h1m1 0h2m1 0h3m2 0h3m2 0h4m1 0h4m1 0h1m1 0h1m1 0h1m1 0h2m2 0h1m1 0h1m2 0h2m1 0h1m3 0h1m1 0h2m2 0h3m4 0h1m1 0h1m4 0h1m1 0h1m1 0h5m1 0h1m1 0h1m1 0h2m5 0h2M4 103.5h1m5 0h1m1 0h2m1 0h2m1 0h1m2 0h1m1 0h4m2 0h1m1 0h2m1 0h1m1 0h3m2 0h1m3 0h4m1 0h2m2 0h1m1 0h2m1 0h2m3 0h2m1 0h3m1 0h2m3 0h2m1 0h1m1 0h1m4 0h1m1 0h2m1 0h4m2 0h2m1 0h1m1 0h1m1 0h1M4 104.5h7m1 0h3m1 0h2m3 0h4m3 0h3m1 0h2m2 0h2m2 0h4m1 0h1m1 0h6m2 0h3m3 0h1m1 0h5m3 0h3m6 0h2m3 0h2m1 0h1m2 0h1m1 0h3m1 0h1m4 0h1"/></svg>
