<svg xmlns="http://www.w3.org/2000/svg" viewBox="0 0 109 109" shape-rendering="crispEdges"><path fill="#ffffff" d="M0 0h109v109H0z"/><path stroke="#000000" d="M4 4.5h7m1 0h1m1 0h1m3 0h3m2 0h3m2 0h2m2 0h1m1 0h4m1 0h3m2 0h6m2 0h1m2 0h3m4 0h1m4 0h1m1 0h2m1 0h1m5 0h3m2 0h1m1 0h1m6 0h4m2 0h7M4 5.5h1m5 0h1m1 0h1m1 0h1m1 0h1m1 0h1m1 0h2m5 0h2m1 0h2m5 0h3m1 0h3m1 0h2m2 0h2m1 0h2m1 0h2m2 0h2m1 0h2m1 0h4m4 0h1m1 0h2m1 0h3m2 0h3m1 0h1m2 0h3m5 0h1m5 0h1M4 6.5h1m1 0h3m1 0h1m1 0h2m5 0h1m1 0h1m1 0h3m1 0h3m3 0h1m2 0h1m1 0h2m4 0h1m1 0h2m1 0h2m2 0h1m1 0h4m4 0h3m1 0h2m2 0h3m2 0h1m2 0h6m3 0h1m1 0h3m2 0h1m2 0h1m1 0h3m1 0h1M4 7.5h1m1 0h3m1 0h1m1 0h2m2 0h4m1 0h5m1 0h4m9 0h2m1 0h2m1 0h6m1 0h1m1 0h1m1 0h3m1 0h1m1 0h1m4 0h1m1 0h1m4 0h1m2 0h3m2 0h1m1 0h8m1 0h2m2 0h1m1 0h3m1 0h1M4 8.5h1m1 0h3m1 0h1m2 0h1m3 0h2m1 0h1m1 0h3m5 0h5m2 0h1m1 0h2m1 0h2m2 0h1m1 0h1m2 0h6m2 0h3m1 0h1m1 0h2m3 0h2m2 0h5m1 0h4m1 0h1m4 0h3m1 0h1m1 0h1m1 0h1m1 0h3m1 0h1M4 9.5h1m5 0h1m1 0h3m2 0h2m3 0h4m1 0h1m1 0h2m3 0h4m2 0h2m3 0h1m6 0h1m3 0h1m1 0h1m7 0h6m2 0h1m3 0h1m1 0h1m2 0h3m1 0h1m1 0h1m1 0h1m1 0h1m1 0h1m2 0h1m5 0h1M4 10.5h7m1 0h1m1 0h1m1 0h1m1 0h1m1 0h1m1 0h1m1 0h1m1 0h1m1 0h1m1 0h1m1 0h1m1 0h1m1 0h1m1 0h1m1 0h1m1 0h1m1 0h1m1 0h1m1 0h1m1 0h1m1 0h1m1 0h1m1 0h1m1 0h1m1 0h1m1 0h1m1 0h1m1 0h1m1 0h1m1 0h1m1 0h1m1 0h1m1 0h1m1 0h1m1 0h1m1 0h1m1 0h1m1 0h1m1 0h1m1 0h1m1 0h1m1 0h1m1 0h1m1 0h7M13 11.5h1m3 0h1m1 0h1m1 0h1m2 0h2m1 0h4m3 0h3m1 0h2m4 0h4m2 0h3m3 0h1m2 0h1m1 0h1m1 0h4m2 0h2m3 0h1m3 0h3m1 0h2m2 0h1m1 0h2m1 0h6M4 12.5h2m2 0h3m3 0h1m1 0h2m3 0h1m3 0h3m1 0h8m7 0h3m4 0h6m2 0h5m6 0h2m2 0h6m2 0h2m4 0h1m1 0h3m1 0h3m2 0h1m1 0h4M4 13.5h1m6 0h3m1 0h4m1 0h1m4 0h3m3 0h2m3 0h1m2 0h3m1 0h1m2 0h3m3 0h1m3 0h3m1 0h1m3 0h1m1 0h4m5 0h1m1 0h1m2 0h1m2 0h1m1 0h1m1 0h2m1 0h2m2 0h3m2 0h3M6 14.5h3m1 0h1m1 0h1m2 0h2m2 0h1m1 0h3m4 0h8m1 0h1m1 0h2m2 0h4m1 0h2m3 0h1m1 0h3m2 0h4m5 0h1m1 0h2m1 0h3m1 0h1m1 0h2m1 0h1m3 0h1m1 0h1m2 0h4m1 0h1m1 0h2m1 0h1M5 15.5h1m2 0h1m3 0h2m2 0h3m3 0h3m2 0h4m2 0h8m1 0h3m1 0h1m3 0h3m2 0h2m2 0h2m1 0h1m1 0h1m3 0h2m2 0h3m4 0h1m1 0h1m1 0h3m4 0h1m3 0h1m1 0h4m1 0h2M4 16.5h3m3 0h2m5 0h4m1 0h1m1 0h1m1 0h2m1 0h1m1 0h1m2 0h2m2 0h3m1 0h1m2 0h4m1 0h1m1 0h1m1 0h2m4 0h1m3 0h1m4 0h2m1 0h1m1 0h1m1 0h1m2 0h2m3 0h2m2 0h4m4 0h1m1 0h1m3 0h3M5 17.5h2m5 0h1m2 0h2m3 0h1m1 0h1m2 0h1m1 0h2m4 0h1m2 0h1m3 0h1m1 0h1m2 0h1m1 0h8m1 0h1m3 0h3m1 0h4m2 0h1m2 0h1m4 0h1m2 0h1m1 0h2m1 0h4m2 0h2m2 0h3m2 0h2m1 0h1M4 18.5h1m2 0h1m2 0h1m1 0h2m1 0h5m2 0h2m1 0h1m1 0h1m4 0h4m2 0h1m2 0h2m1 0h4m1 0h1m1 0h2m3 0h4m1 0h1m2 0h2m3 0h1m1 0h1m1 0h2m1 0h1m2 0h2m2 0h1m2 0h3m2 0h1m1 0h1m1 0h1m2 0h5m1 0h1M4 19.5h1m1 0h1m1 0h1m2 0h5m1 0h1m4 0h2m1 0h1m2 0h2m1 0h2m1 0h3m1 0h1m2 0h2m2 0h2m1 0h2m2 0h2m2 0h2m3 0h1m1 0h2m1 0h1m1 0h1m2 0h7m2 0h2m1 0h2m2 0h1m1 0h2m2 0h3m1 0h5m1 0h1M5 20.5h3m1 0h3m1 0h2m1 0h1m4 0h2m1 0h1m4 0h4m1 0h3m3 0h1m3 0h1m3 0h2m1 0h1m1 0h5m1 0h5m1 0h1m4 0h2m1 0h3m1 0h2m1 0h2m1 0h2m3 0h2m5 0h1m5 0h1m1 0h1M4 21.5h1m2 0h2m4 0h5m1 0h1m1 0h2m1 0h2m1 0h1m2 0h4m3 0h2m3 0h1m1 0h2m1 0h2m1 0h1m4 0h1m1 0h1m4 0h2m3 0h1m1 0h1m1 0h3m1 0h2m3 0h1m1 0h1m1 0h3m2 0h1m1 0h1m1 0h2m2 0h2m2 0h1m1 0h2M4 22.5h1m3 0h3m4 0h4m1 0h4m1 0h3m1 0h5m2 0h1m1 0h2m2 0h2m3 0h4m2 0h1m1 0h2m2 0h2m1 0h2m3 0h1m3 0h1m1 0h1m1 0h2m1 0h2m2 0h1m1 0h3m3 0h2m9 0h1M6 23.5h3m3 0h3m1 0h1m1 0h1m3 0h1m3 0h4m1 0h3m1 0h1m2 0h1m2 0h1m2 0h4m1 0h1m2 0h1m2 0h1m4 0h3m1 0h1m3 0h3m1 0h2m5 0h1m2 0h1m2 0h2m2 0h4m4 0h5m2 0h1M4 24.5h7m3 0h1m2 0h7m4 0h2m1 0h1m2 0h2m2 0h1m1 0h4m5 0h1m2 0h1m1 0h1m1 0h1m1 0h1m3 0h1m2 0h1m3 0h2m5 0h3m1 0h1m1 0h2m1 0h1m1 0h1m2 0h1m2 0h1m1 0h2m1 0h2m1 0h2M4 25.5h1m1 0h1m2 0h1m1 0h7m2 0h1m3 0h1m1 0h1m3 0h1m1 0h1m1 0h2m1 0h8m1 0h2m1 0h1m1 0h2m1 0h4m1 0h2m1 0h2m4 0h2m1 0h2m2 0h2m2 0h2m1 0h1m1 0h1m2 0h3m2 0h1m1 0h1m1 0h1m2 0h3m1 0h1M4 26.5h2m4 0h1m1 0h1m2 0h2m2 0h3m4 0h2m1 0h4m3 0h1m1 0h1m4 0h1m2 0h1m2 0h1m2 0h3m1 0h2m3 0h3m1 0h2m1 0h1m2 0h1m1 0h2m2 0h5m3 0h3m3 0h3m1 0h2m3 0h1M4 27.5h3m1 0h2m2 0h2m2 0h1m4 0h3m3 0h4m2 0h1m1 0h4m4 0h1m1 0h5m1 0h1m2 0h1m1 0h2m2 0h5m3 0h2m1 0h1m1 0h1m2 0h2m1 0h1m1 0h1m1 0h1m1 0h2m2 0h1m1 0h2m3 0h1m3 0h1m1 0h1M4 28.5h2m2 0h1m1 0h1m6 0h5m2 0h4m4 0h1m1 0h3m3 0h3m2 0h2m2 0h1m2 0h2m1 0h1m1 0h1m3 0h1m1 0h2m2 0h1m4 0h3m1 0h3m1 0h1m2 0h1m3 0h5m5 0h6M7 29.5h1m1 0h1m2 0h1m3 0h2m3 0h2m4 0h2m1 0h7m2 0h1m3 0h2m1 0h7m3 0h1m1 0h3m1 0h1m2 0h1m1 0h1m2 0h1m1 0h1m3 0h1m2 0h1m2 0h4m1 0h2m1 0h1m1 0h2m2 0h1m1 0h2m1 0h2M7 30.5h7m2 0h2m1 0h1m2 0h4m1 0h11m1 0h2m2 0h1m1 0h3m4 0h8m3 0h1m1 0h1m1 0h1m2 0h1m2 0h11m1 0h2m2 0h2m1 0h10m2 0h1M4 31.5h2m1 0h2m3 0h1m1 0h4m2 0h3m7 0h1m3 0h1m1 0h2m1 0h9m1 0h4m3 0h2m3 0h4m1 0h1m2 0h3m2 0h1m3 0h1m3 0h2m1 0h3m6 0h3m3 0h2m1 0h1M4 32.5h1m3 0h1m1 0h1m1 0h5m1 0h1m2 0h2m1 0h2m1 0h2m1 0h1m1 0h1m1 0h1m1 0h1m1 0h2m2 0h3m1 0h7m1 0h1m1 0h1m1 0h3m1 0h1m1 0h1m9 0h1m1 0h1m1 0h1m1 0h2m1 0h6m2 0h2m1 0h3m1 0h1m1 0h2M4 33.5h2m2 0h1m3 0h4m1 0h1m1 0h1m2 0h1m4 0h4m3 0h1m1 0h3m1 0h2m1 0h2m2 0h1m2 0h3m3 0h1m2 0h1m1 0h1m2 0h1m2 0h1m2 0h2m1 0h2m3 0h1m1 0h1m3 0h1m2 0h1m3 0h2m2 0h2m3 0h1m1 0h1m1 0h1M4 34.5h1m3 0h6m1 0h3m1 0h1m2 0h5m1 0h7m2 0h2m1 0h1m2 0h3m3 0h2m1 0h7m6 0h1m1 0h1m1 0h2m1 0h1m1 0h6m3 0h1m1 0h1m1 0h1m1 0h1m1 0h2m3 0h6m1 0h1M11 35.5h1m2 0h1m1 0h1m1 0h1m2 0h2m2 0h1m1 0h3m1 0h1m3 0h2m1 0h3m2 0h1m1 0h4m1 0h3m1 0h2m3 0h1m1 0h1m4 0h1m1 0h3m6 0h3m1 0h5m1 0h1m1 0h1m1 0h1m2 0h2m3 0h1m3 0h1M4 36.5h1m2 0h2m1 0h6m2 0h11m1 0h1m1 0h1m1 0h3m1 0h2m1 0h1m5 0h1m1 0h1m1 0h3m1 0h1m2 0h1m1 0h1m1 0h5m1 0h1m1 0h7m1 0h1m1 0h1m1 0h2m2 0h2m1 0h1m1 0h7m3 0h3M4 37.5h1m1 0h2m3 0h1m1 0h3m2 0h1m11 0h2m1 0h1m1 0h1m1 0h1m4 0h2m8 0h1m1 0h3m1 0h1m1 0h2m1 0h2m4 0h1m5 0h1m1 0h1m1 0h1m1 0h1m1 0h1m5 0h2m1 0h1m3 0h1m2 0h2m2 0h2M7 38.5h1m1 0h3m2 0h2m7 0h1m1 0h3m1 0h1m3 0h3m1 0h2m2 0h1m1 0h3m2 0h1m1 0h1m4 0h2m1 0h2m1 0h2m2 0h3m4 0h3m7 0h1m1 0h1m1 0h2m2 0h2m6 0h2m4 0h1M8 39.5h1m7 0h1m1 0h1m1 0h2m2 0h1m2 0h3m2 0h1m5 0h2m2 0h1m2 0h1m1 0h2m2 0h3m1 0h1m1 0h3m1 0h1m2 0h1m3 0h3m1 0h1m1 0h4m4 0h2m1 0h1m1 0h2m1 0h3m1 0h2m1 0h3m1 0h1m2 0h1M4 40.5h2m1 0h2m1 0h4m2 0h1m2 0h1m1 0h3m2 0h1m1 0h1m2 0h1m3 0h5m1 0h3m1 0h8m2 0h1m1 0h4m1 0h4m2 0h1m3 0h1m2 0h1m4 0h5m4 0h1m2 0h9m1 0h1m1 0h1M6 41.5h1m1 0h2m2 0h2m2 0h1m1 0h1m1 0h6m2 0h3m1 0h2m2 0h1m1 0h1m2 0h1m2 0h3m1 0h3m3 0h2m1 0h3m2 0h1m1 0h1m1 0h1m1 0h1m2 0h1m2 0h1m1 0h1m5 0h1m3 0h1m5 0h1m1 0h1m1 0h2m4 0h1M6 42.5h5m2 0h2m2 0h3m2 0h3m1 0h1m1 0h1m4 0h2m1 0h3m6 0h2m2 0h2m1 0h1m1 0h1m2 0h1m4 0h3m1 0h5m1 0h1m5 0h1m5 0h2m5 0h1m6 0h1m2 0h1m1 0h1M5 43.5h1m2 0h1m2 0h1m8 0h2m2 0h1m1 0h3m2 0h1m1 0h2m1 0h1m2 0h3m2 0h1m1 0h3m4 0h2m1 0h1m1 0h1m4 0h2m1 0h1m1 0h4m1 0h3m2 0h1m1 0h2m1 0h1m2 0h3m1 0h2m1 0h2m1 0h2m1 0h1m1 0h2m1 0h1M10 44.5h3m1 0h2m2 0h1m3 0h1m1 0h2m2 0h1m3 0h2m6 0h2m3 0h1m7 0h2m3 0h2m1 0h4m6 0h5m2 0h5m1 0h2m4 0h1m3 0h2m1 0h1m1 0h2m1 0h1m1 0h1M4 45.5h2m1 0h1m3 0h5m1 0h4m3 0h1m1 0h1m3 0h1m3 0h1m2 0h1m3 0h4m4 0h1m1 0h4m1 0h2m1 0h3m1 0h2m1 0h2m2 0h2m1 0h1m1 0h3m3 0h1m1 0h1m1 0h2m1 0h2m2 0h1m1 0h2m1 0h4m3 0h1M4 46.5h3m2 0h7m1 0h4m5 0h1m1 0h5m1 0h4m1 0h1m3 0h2m1 0h1m1 0h2m1 0h2m1 0h2m1 0h4m1 0h2m1 0h6m2 0h1m3 0h1m1 0h1m1 0h2m1 0h1m2 0h2m1 0h2m1 0h1m1 0h3m2 0h3M4 47.5h3m1 0h2m3 0h4m1 0h5m1 0h5m1 0h1m1 0h1m4 0h2m1 0h2m2 0h1m1 0h1m1 0h2m1 0h1m1 0h1m2 0h2m3 0h3m5 0h1m3 0h2m1 0h2m4 0h5m5 0h1m2 0h2m1 0h2m2 0h1M5 48.5h10m2 0h2m4 0h1m1 0h1m1 0h2m1 0h1m1 0h1m3 0h1m2 0h1m1 0h3m2 0h1m6 0h2m1 0h2m1 0h8m1 0h1m1 0h2m2 0h1m2 0h4m3 0h2m2 0h1m1 0h4m2 0h1m1 0h2m2 0h3M14 49.5h1m2 0h3m1 0h1m1 0h1m2 0h1m1 0h1m1 0h3m1 0h3m1 0h1m1 0h3m1 0h5m1 0h1m3 0h2m1 0h2m2 0h1m1 0h2m2 0h2m1 0h1m2 0h1m1 0h1m2 0h1m1 0h1m2 0h1m2 0h1m3 0h1m3 0h1m1 0h4m1 0h1M8 50.5h1m1 0h1m3 0h1m3 0h1m2 0h2m1 0h1m1 0h1m3 0h1m1 0h1m1 0h2m3 0h2m3 0h2m2 0h3m3 0h1m1 0h3m2 0h9m2 0h2m5 0h1m2 0h2m2 0h1m2 0h1m1 0h1m4 0h1m2 0h2m2 0h1M4 51.5h1m1 0h3m2 0h2m1 0h2m1 0h2m3 0h2m3 0h1m3 0h1m1 0h3m1 0h1m1 0h1m1 0h1m2 0h2m3 0h2m1 0h2m2 0h1m3 0h3m6 0h2m1 0h1m1 0h1m2 0h1m1 0h1m3 0h1m2 0h2m3 0h1m1 0h3m5 0h1m1 0h2M4 52.5h2m1 0h6m6 0h4m2 0h10m4 0h1m3 0h1m1 0h1m2 0h1m1 0h7m1 0h4m1 0h2m1 0h2m1 0h1m2 0h1m1 0h5m1 0h1m1 0h2m1 0h3m5 0h2m1 0h6M4 53.5h2m1 0h2m3 0h1m1 0h1m3 0h4m2 0h1m1 0h1m1 0h1m1 0h1m3 0h1m1 0h1m1 0h1m2 0h3m3 0h1m2 0h3m3 0h1m1 0h2m3 0h2m1 0h3m3 0h1m1 0h1m3 0h1m3 0h1m2 0h1m1 0h2m2 0h1m4 0h1m3 0h1m2 0h2M5 54.5h2m1 0h1m1 0h1m1 0h1m1 0h1m3 0h3m7 0h3m1 0h1m1 0h5m3 0h1m1 0h2m1 0h2m1 0h1m1 0h1m1 0h1m1 0h3m1 0h2m2 0h1m1 0h9m1 0h1m1 0h6m2 0h4m1 0h2m1 0h3m1 0h1m1 0h1m1 0h1M4 55.5h1m1 0h3m3 0h3m1 0h1m1 0h1m2 0h2m1 0h4m1 0h2m3 0h1m4 0h1m5 0h1m2 0h3m1 0h1m3 0h2m3 0h2m3 0h3m2 0h1m1 0h2m3 0h3m1 0h1m2 0h1m2 0h3m2 0h1m2 0h1m3 0h3m1 0h1M4 56.5h1m1 0h7m1 0h3m4 0h1m1 0h1m3 0h1m1 0h9m2 0h1m1 0h3m2 0h1m1 0h8m3 0h1m2 0h1m2 0h1m2 0h4m1 0h6m3 0h1m1 0h1m1 0h1m8 0h5m3 0h1M8 57.5h1m2 0h2m1 0h1m3 0h1m1 0h3m4 0h2m3 0h4m2 0h1m1 0h2m1 0h2m1 0h2m4 0h1m1 0h2m1 0h3m6 0h1m1 0h1m2 0h2m3 0h1m1 0h2m3 0h1m2 0h5m2 0h4m3 0h1m1 0h3M5 58.5h1m1 0h6m1 0h1m2 0h4m2 0h1m2 0h3m3 0h1m2 0h5m3 0h1m4 0h1m2 0h4m1 0h6m2 0h1m1 0h5m1 0h1m1 0h2m1 0h3m2 0h3m3 0h1m2 0h2m10 0h2M4 59.5h1m1 0h1m4 0h1m2 0h1m1 0h1m1 0h1m1 0h1m2 0h1m1 0h2m3 0h1m1 0h1m3 0h3m1 0h1m2 0h2m1 0h1m2 0h1m1 0h2m5 0h1m3 0h3m3 0h1m1 0h1m1 0h2m1 0h2m1 0h1m2 0h1m2 0h1m2 0h1m1 0h1m5 0h3m3 0h3M6 60.5h1m2 0h2m1 0h2m4 0h2m1 0h2m3 0h1m1 0h7m1 0h2m1 0h2m1 0h2m2 0h2m2 0h2m2 0h2m1 0h1m3 0h1m1 0h1m2 0h6m2 0h1m2 0h3m4 0h5m2 0h2m3 0h1m2 0h1m3 0h2M4 61.5h1m1 0h1m5 0h1m2 0h4m5 0h3m1 0h1m3 0h1m1 0h1m1 0h1m1 0h2m8 0h2m3 0h2m5 0h3m7 0h1m3 0h1m3 0h2m1 0h1m2 0h1m2 0h2m1 0h1m1 0h1m3 0h3m1 0h2M4 62.5h2m2 0h1m1 0h1m1 0h1m4 0h1m2 0h2m2 0h1m1 0h1m1 0h1m4 0h1m5 0h1m1 0h2m1 0h4m3 0h1m2 0h2m1 0h1m4 0h1m2 0h2m3 0h1m1 0h2m2 0h7m1 0h1m1 0h1m4 0h1m4 0h1m1 0h1m2 0h2M4 63.5h2m1 0h1m1 0h1m1 0h2m4 0h1m1 0h2m1 0h1m1 0h1m1 0h2m1 0h1m1 0h1m2 0h1m1 0h1m8 0h1m1 0h1m1 0h2m1 0h3m3 0h5m1 0h2m2 0h4m1 0h4m1 0h3m1 0h1m1 0h3m1 0h1m3 0h2m1 0h7m1 0h2M6 64.5h1m2 0h6m2 0h1m6 0h4m2 0h2m1 0h4m1 0h2m1 0h1m2 0h4m1 0h1m2 0h2m2 0h1m2 0h3m1 0h2m2 0h1m2 0h1m2 0h1m1 0h1m2 0h1m7 0h3m1 0h3m1 0h2m5 0h1M12 65.5h3m1 0h5m1 0h1m6 0h3m1 0h1m3 0h1m6 0h1m5 0h2m1 0h3m1 0h3m1 0h2m1 0h4m2 0h5m1 0h1m2 0h1m1 0h2m4 0h4m1 0h1m1 0h2m2 0h1m1 0h1m3 0h1M5 66.5h3m1 0h3m1 0h2m2 0h2m1 0h1m4 0h1m1 0h1m1 0h5m1 0h1m1 0h1m1 0h2m2 0h2m1 0h1m1 0h1m2 0h2m2 0h2m1 0h2m4 0h1m3 0h1m1 0h2m4 0h2m1 0h3m1 0h4m1 0h1m3 0h1m3 0h1m3 0h1m2 0h2M5 67.5h2m4 0h3m4 0h2m3 0h1m1 0h2m2 0h1m1 0h1m3 0h1m2 0h4m2 0h1m2 0h1m3 0h1m2 0h3m1 0h2m1 0h1m1 0h2m1 0h5m2 0h1m1 0h2m3 0h1m3 0h3m1 0h2m1 0h1m1 0h1m1 0h1m2 0h1m4 0h1M4 68.5h2m2 0h4m3 0h4m2 0h7m1 0h1m3 0h7m3 0h2m1 0h2m1 0h1m1 0h6m1 0h3m1 0h1m1 0h1m4 0h7m4 0h3m3 0h1m2 0h4m1 0h3m1 0h1m4 0h1M5 69.5h2m1 0h1m2 0h2m1 0h7m1 0h1m1 0h5m6 0h1m1 0h1m1 0h2m2 0h3m5 0h4m1 0h2m1 0h1m1 0h1m2 0h2m1 0h3m2 0h2m1 0h3m1 0h1m9 0h3m1 0h2m5 0h2M5 70.5h1m4 0h2m1 0h2m1 0h4m2 0h2m1 0h1m4 0h3m1 0h6m2 0h1m8 0h1m3 0h2m1 0h1m2 0h1m3 0h5m2 0h1m1 0h1m4 0h3m1 0h1m2 0h2m2 0h1m1 0h1m4 0h4m1 0h3M4 71.5h1m3 0h1m7 0h1m1 0h1m1 0h1m1 0h1m1 0h4m2 0h1m1 0h1m3 0h4m1 0h1m5 0h4m5 0h5m2 0h1m1 0h2m1 0h1m1 0h2m1 0h3m1 0h1m2 0h1m1 0h1m1 0h5m1 0h2m1 0h2m6 0h1m1 0h2M5 72.5h3m2 0h3m1 0h4m3 0h3m2 0h4m1 0h2m2 0h2m1 0h1m5 0h1m4 0h1m1 0h2m2 0h2m1 0h1m1 0h5m3 0h1m1 0h2m1 0h1m2 0h1m1 0h2m1 0h1m1 0h8m2 0h2m1 0h1m4 0h1M4 73.5h2m2 0h1m4 0h1m1 0h1m2 0h1m4 0h5m1 0h3m3 0h1m2 0h2m1 0h4m1 0h4m1 0h1m1 0h3m1 0h2m6 0h1m1 0h1m1 0h1m2 0h2m1 0h2m1 0h1m1 0h1m2 0h3m1 0h1m2 0h1m1 0h1m2 0h2m1 0h1m1 0h4M4 74.5h1m2 0h7m1 0h2m2 0h1m2 0h2m1 0h4m1 0h6m1 0h3m1 0h1m2 0h1m5 0h7m1 0h1m1 0h3m1 0h1m4 0h1m4 0h7m1 0h5m1 0h1m1 0h2m1 0h10M8 75.5h1m3 0h1m4 0h1m1 0h1m1 0h4m1 0h2m1 0h2m3 0h2m4 0h1m1 0h2m1 0h4m2 0h2m3 0h2m1 0h1m2 0h2m1 0h1m1 0h1m1 0h4m1 0h1m3 0h3m2 0h1m1 0h1m1 0h1m1 0h2m1 0h5m3 0h1m3 0h1M4 76.5h1m1 0h1m1 0h1m1 0h1m1 0h2m1 0h2m1 0h1m4 0h1m1 0h1m3 0h2m1 0h1m1 0h1m5 0h1m1 0h2m2 0h3m3 0h1m1 0h1m1 0h1m1 0h2m1 0h1m2 0h1m1 0h1m4 0h4m1 0h1m1 0h2m2 0h1m1 0h1m1 0h5m1 0h1m3 0h1m1 0h1m1 0h2m1 0h1M7 77.5h2m3 0h1m3 0h2m2 0h1m2 0h1m1 0h1m4 0h1m3 0h1m1 0h3m2 0h5m1 0h3m2 0h1m3 0h1m3 0h3m1 0h4m2 0h3m1 0h1m3 0h1m1 0h5m2 0h1m1 0h1m1 0h2m3 0h1m3 0h1m3 0h1M6 78.5h1m1 0h6m1 0h1m1 0h1m3 0h5m1 0h1m1 0h7m1 0h2m8 0h2m2 0h7m2 0h1m1 0h2m1 0h1m1 0h2m1 0h2m2 0h7m1 0h1m2 0h1m1 0h3m1 0h10m2 0h1M4 79.5h1m1 0h2m1 0h1m1 0h1m1 0h3m2 0h2m2 0h2m1 0h1m1 0h1m1 0h5m2 0h2m3 0h1m3 0h1m3 0h1m2 0h1m1 0h2m1 0h1m2 0h1m1 0h2m1 0h1m4 0h5m3 0h3m1 0h1m2 0h1m2 0h1m2 0h3m1 0h2m2 0h4M4 80.5h2m2 0h1m1 0h1m2 0h3m1 0h1m7 0h1m2 0h7m1 0h1m1 0h1m3 0h1m1 0h2m2 0h1m1 0h1m1 0h3m3 0h1m1 0h1m2 0h1m3 0h7m3 0h1m1 0h1m1 0h6m3 0h1m2 0h3m2 0h1m1 0h3m1 0h1M5 81.5h3m6 0h1m2 0h1m1 0h2m7 0h3m3 0h3m2 0h1m4 0h2m1 0h1m1 0h1m1 0h2m1 0h3m1 0h2m1 0h2m2 0h1m2 0h1m2 0h1m1 0h8m1 0h4m1 0h2m3 0h1m4 0h1m1 0h4M4 82.5h1m3 0h3m1 0h1m2 0h4m3 0h1m2 0h3m2 0h2m6 0h1m5 0h1m1 0h1m3 0h1m1 0h1m1 0h2m1 0h5m3 0h1m1 0h1m1 0h1m2 0h1m2 0h1m1 0h3m1 0h2m1 0h2m2 0h2m1 0h1m3 0h3m1 0h1m1 0h2m1 0h1M4 83.5h2m1 0h1m7 0h1m1 0h4m1 0h3m1 0h1m1 0h2m2 0h1m2 0h2m1 0h4m3 0h1m3 0h5m1 0h1m1 0h3m3 0h5m2 0h3m2 0h1m1 0h1m3 0h1m1 0h1m4 0h1m1 0h1m1 0h2m4 0h1m4 0h2M4 84.5h1m4 0h3m2 0h1m3 0h1m3 0h2m5 0h1m1 0h1m2 0h1m3 0h2m3 0h2m1 0h1m4 0h3m1 0h1m1 0h3m2 0h3m1 0h1m1 0h2m6 0h3m1 0h2m1 0h1m1 0h5m6 0h1m2 0h1m3 0h1M8 85.5h1m2 0h3m1 0h6m1 0h2m1 0h1m1 0h1m4 0h2m1 0h1m2 0h1m2 0h4m2 0h1m3 0h1m2 0h3m1 0h2m6 0h2m2 0h6m2 0h3m2 0h1m1 0h1m1 0h5m2 0h4m1 0h1m1 0h2M6 86.5h1m2 0h10m2 0h1m1 0h1m1 0h2m3 0h1m2 0h1m1 0h1m2 0h8m4 0h1m1 0h1m2 0h5m1 0h1m4 0h2m3 0h3m1 0h2m3 0h2m1 0h3m1 0h1m1 0h1m1 0h1m1 0h8M5 87.5h1m1 0h2m2 0h2m3 0h4m3 0h1m2 0h2m3 0h1m6 0h6m1 0h2m2 0h1m1 0h1m3 0h3m2 0h1m7 0h1m1 0h1m1 0h1m1 0h5m2 0h2m1 0h8m1 0h4m2 0h1m2 0h1M5 88.5h1m4 0h2m5 0h1m1 0h4m1 0h1m2 0h1m2 0h1m3 0h4m1 0h2m1 0h2m4 0h1m3 0h1m3 0h1m3 0h1m5 0h2m4 0h1m2 0h1m4 0h1m2 0h1m1 0h2m2 0h2m2 0h6m2 0h1m1 0h1M4 89.5h3m1 0h1m2 0h1m2 0h1m2 0h1m1 0h1m3 0h4m2 0h1m1 0h2m1 0h3m2 0h4m2 0h3m1 0h3m3 0h1m2 0h1m1 0h1m1 0h1m4 0h2m3 0h1m4 0h1m1 0h1m3 0h1m1 0h1m2 0h4m8 0h3m1 0h1M6 90.5h1m1 0h4m5 0h3m2 0h1m2 0h2m1 0h1m2 0h1m1 0h1m2 0h1m1 0h2m4 0h1m5 0h1m1 0h2m1 0h1m3 0h2m1 0h1m5 0h1m1 0h3m1 0h3m1 0h1m1 0h1m1 0h5m2 0h3m1 0h2m1 0h1m2 0h2m3 0h1M4 91.5h3m1 0h2m1 0h4m1 0h1m3 0h3m1 0h2m1 0h2m1 0h4m6 0h1m1 0h1m1 0h1m1 0h1m1 0h5m2 0h3m2 0h1m4 0h1m5 0h1m2 0h5m2 0h1m1 0h8m1 0h1m1 0h1m3 0h5M4 92.5h2m1 0h4m2 0h1m1 0h1m7 0h1m5 0h5m4 0h2m1 0h1m1 0h1m2 0h2m3 0h1m2 0h3m1 0h1m1 0h2m8 0h1m1 0h2m1 0h1m2 0h5m1 0h1m1 0h4m1 0h1m1 0h2m4 0h3m1 0h2M4 93.5h2m3 0h1m1 0h2m1 0h3m1 0h1m1 0h1m1 0h1m1 0h3m2 0h1m2 0h1m2 0h1m1 0h2m1 0h1m6 0h1m1 0h1m1 0h3m1 0h3m1 0h2m1 0h1m3 0h1m2 0h4m4 0h1m1 0h6m4 0h1m1 0h2m2 0h5m1 0h1m2 0h1M4 94.5h1m2 0h2m1 0h1m1 0h1m2 0h3m1 0h2m1 0h2m1 0h2m2 0h1m1 0h1m6 0h1m2 0h1m1 0h11m1 0h2m3 0h2m1 0h1m2 0h1m1 0h2m2 0h1m1 0h1m5 0h4m1 0h2m2 0h4m1 0h2m1 0h2m4 0h1M4 95.5h1m1 0h2m1 0h1m3 0h8m2 0h1m1 0h1m1 0h2m2 0h1m1 0h1m1 0h3m7 0h1m1 0h1m2 0h1m6 0h1m2 0h1m1 0h1m3 0h2m1 0h1m2 0h3m3 0h2m1 0h2m5 0h1m1 0h1m1 0h1m3 0h2m1 0h1m2 0h3M8 96.5h1m1 0h2m1 0h2m1 0h6m1 0h2m1 0h2m1 0h7m3 0h1m6 0h4m1 0h7m2 0h1m5 0h3m1 0h3m1 0h6m4 0h5m1 0h1m3 0h7m1 0h1M12 97.5h1m5 0h3m1 0h2m1 0h2m1 0h1m1 0h1m3 0h1m1 0h1m3 0h4m2 0h1m1 0h2m1 0h2m3 0h1m1 0h4m1 0h1m2 0h2m3 0h1m2 0h1m3 0h1m1 0h1m4 0h1m1 0h1m2 0h1m2 0h1m2 0h1m3 0h2m1 0h1M4 98.5h7m2 0h2m2 0h1m7 0h1m3 0h2m1 0h1m1 0h1m3 0h2m3 0h1m2 0h2m1 0h4m1 0h1m1 0h2m1 0h3m2 0h4m3 0h1m2 0h1m1 0h1m1 0h2m1 0h2m3 0h1m1 0h2m1 0h1m2 0h3m1 0h1m1 0h2m2 0h1M4 99.5h1m5 0h1m1 0h3m1 0h2m1 0h3m3 0h1m1 0h1m2 0h1m3 0h7m3 0h1m1 0h1m2 0h2m1 0h1m3 0h1m2 0h1m2 0h3m3 0h3m1 0h3m3 0h4m1 0h1m1 0h3m2 0h4m1 0h2m3 0h4M4 100.5h1m1 0h3m1 0h1m1 0h2m1 0h4m3 0h2m1 0h2m1 0h1m1 0h7m2 0h1m5 0h2m1 0h1m1 0h1m1 0h5m1 0h1m4 0h3m1 0h1m6 0h5m5 0h2m4 0h2m1 0h2m1 0h8M4 101.5h1m1 0h3m1 0h1m5 0h2m3 0h4m1 0h2m1 0h2m1 0h1m2 0h1m1 0h2m2 0h2m4 0h1m1 0h2m2 0h1m2 0h1m1 0h1m1 0h1m1 0h7m2 0h3m1 0h3m1 0h2m1 0h2m5 0h2m1 0h2m1 0h3m4 0h1M4 102.5h1m1 0h3m1 0h1m2 0h1m2 0h1m1 0h1m1 0h1m6 0h1m1 0h3m1 0h4m1 0h4m1 0h1m2 0h1m1 0h1m1 0h1m2 0h1m1 0h5m1 0h1m1 0h3m3 0h1m1 0h1m3 0h1m1 0h1m8 0h2m1 0h2m2 0h3m2 0h1m2 0h4M4 103.5h1m5 0h1m1 0h2m1 0h1m1 0h1m1 0h1m1 0h1m1 0h4m1 0h1m2 0h2m3 0h4m1 0h2m1 0h1m1 0h1m2 0h1m1 0h3m1 0h1m4 0h2m3 0h1m3 0h1m1 0h2m1 0h1m4 0h3m2 0h1m1 0h2m1 0h1m1 0h2m5 0h2m1 0h4M4 104.5h7m1 0h3m1 0h1m4 0h1m2 0h2m1 0h1m1 0h4m1 0h2m1 0h1m2 0h1m1 0h4m1 0h2m2 0h1m2 0h3m1 0h2m6 0h2m1 0h1m2 0h1m3 0h2m1 0h5m1 0h1m1 0h1m2 0h1m1 0h4m2 0h2m2 0h2"/></svg>
