<svg xmlns="http://www.w3.org/2000/svg" viewBox="0 0 109 109" shape-rendering="crispEdges"><path fill="#ffffff" d="M0 0h109v109H0z"/><path stroke="#000000" d="M4 4.5h7m1 0h1m7 0h7m3 0h1m1 0h1m3 0h2m4 0h2m3 0h1m2 0h2m3 0h1m2 0h1m3 0h1m4 0h3m1 0h2m2 0h2m1 0h1m1 0h1m1 0h1m2 0h1m2 0h2m2 0h4m2 0h7M4 5.5h1m5 0h1m1 0h1m1 0h1m3 0h1m2 0h1m1 0h3m3 0h1m1 0h5m1 0h2m1 0h1m3 0h1m1 0h1m1 0h1m2 0h1m1 0h1m1 0h1m1 0h3m2 0h1m4 0h3m1 0h1m1 0h1m2 0h2m1 0h2m1 0h1m1 0h3m3 0h1m7 0h1m5 0h1M4 6.5h1m1 0h3m1 0h1m1 0h3m4 0h3m8 0h2m1 0h2m1 0h3m2 0h2m2 0h3m1 0h1m1 0h2m1 0h3m2 0h1m2 0h3m2 0h1m1 0h2m2 0h2m1 0h1m1 0h5m4 0h1m3 0h2m2 0h1m2 0h1m1 0h3m1 0h1M4 7.5h1m1 0h3m1 0h1m1 0h2m1 0h1m1 0h4m1 0h1m1 0h4m1 0h2m1 0h1m7 0h1m5 0h3m1 0h1m2 0h2m3 0h2m1 0h1m1 0h1m1 0h2m1 0h1m1 0h2m1 0h2m1 0h3m1 0h6m2 0h1m3 0h4m2 0h1m1 0h3m1 0h1M4 8.5h1m1 0h3m1 0h1m4 0h2m2 0h1m1 0h2m5 0h1m1 0h5m2 0h1m5 0h1m2 0h1m2 0h1m1 0h6m1 0h1m4 0h1m1 0h5m3 0h7m4 0h2m2 0h4m2 0h1m1 0h1m1 0h1m1 0h3m1 0h1M4 9.5h1m5 0h1m1 0h4m2 0h2m2 0h1m3 0h1m3 0h1m3 0h1m5 0h2m1 0h3m3 0h1m2 0h1m3 0h1m3 0h1m2 0h1m1 0h1m2 0h1m3 0h3m3 0h2m1 0h1m2 0h1m2 0h3m1 0h2m2 0h1m2 0h1m5 0h1M4 10.5h7m1 0h1m1 0h1m1 0h1m1 0h1m1 0h1m1 0h1m1 0h1m1 0h1m1 0h1m1 0h1m1 0h1m1 0h1m1 0h1m1 0h1m1 0h1m1 0h1m1 0h1m1 0h1m1 0h1m1 0h1m1 0h1m1 0h1m1 0h1m1 0h1m1 0h1m1 0h1m1 0h1m1 0h1m1 0h1m1 0h1m1 0h1m1 0h1m1 0h1m1 0h1m1 0h1m1 0h1m1 0h1m1 0h1m1 0h1m1 0h1m1 0h1m1 0h1m1 0h1m1 0h7M13 11.5h1m1 0h1m2 0h2m4 0h2m1 0h2m1 0h1m3 0h2m2 0h2m2 0h4m1 0h1m1 0h1m2 0h1m3 0h1m1 0h1m1 0h1m2 0h1m2 0h1m1 0h1m2 0h1m1 0h2m3 0h1m4 0h1m2 0h4m3 0h3M4 12.5h2m2 0h3m4 0h2m3 0h4m1 0h13m4 0h2m1 0h2m1 0h1m3 0h5m1 0h7m2 0h3m1 0h1m1 0h6m3 0h1m1 0h3m3 0h1m1 0h2m1 0h2m2 0h1m1 0h4M4 13.5h3m1 0h2m1 0h1m1 0h2m2 0h2m1 0h1m2 0h1m2 0h1m1 0h1m1 0h1m3 0h2m1 0h2m2 0h1m2 0h1m1 0h5m3 0h2m2 0h4m1 0h2m2 0h4m6 0h1m3 0h9m2 0h1m1 0h1m5 0h1m1 0h2M5 14.5h2m2 0h2m1 0h1m2 0h4m6 0h1m3 0h1m1 0h3m3 0h1m1 0h1m1 0h1m4 0h1m3 0h1m2 0h2m2 0h1m3 0h1m4 0h3m5 0h3m1 0h5m2 0h1m3 0h6m1 0h1m2 0h1m1 0h1m1 0h1M6 15.5h4m1 0h2m5 0h1m1 0h1m1 0h1m7 0h1m1 0h6m1 0h1m2 0h1m1 0h1m1 0h8m1 0h3m2 0h1m1 0h1m1 0h1m6 0h1m1 0h1m1 0h1m4 0h1m1 0h3m1 0h3m1 0h1m1 0h2m2 0h4m1 0h2m1 0h1M4 16.5h1m5 0h1m1 0h4m6 0h1m3 0h1m1 0h1m2 0h7m2 0h2m1 0h2m2 0h1m2 0h3m2 0h2m2 0h1m1 0h2m1 0h2m5 0h10m1 0h4m1 0h1m1 0h2m1 0h1m2 0h1m2 0h1m1 0h3m1 0h1M4 17.5h2m3 0h1m2 0h1m2 0h1m2 0h1m2 0h1m4 0h3m2 0h4m1 0h1m1 0h2m3 0h1m2 0h1m1 0h3m2 0h1m2 0h3m2 0h1m1 0h1m1 0h2m1 0h3m2 0h2m1 0h4m1 0h2m2 0h1m1 0h1m2 0h3m5 0h1m2 0h3M4 18.5h1m3 0h1m1 0h1m4 0h2m1 0h3m2 0h1m2 0h2m1 0h1m2 0h1m2 0h1m1 0h2m1 0h1m4 0h1m1 0h4m3 0h1m1 0h1m2 0h1m1 0h1m1 0h1m1 0h3m1 0h2m4 0h3m2 0h2m1 0h7m1 0h1m1 0h3m4 0h3m1 0h1M5 19.5h4m2 0h2m6 0h1m3 0h1m2 0h1m1 0h2m1 0h4m5 0h2m2 0h7m2 0h1m2 0h1m1 0h4m1 0h1m1 0h1m1 0h2m1 0h1m2 0h1m5 0h1m1 0h1m1 0h3m1 0h1m2 0h5m5 0h2m1 0h1M4 20.5h3m1 0h3m2 0h1m2 0h1m1 0h1m8 0h1m1 0h1m1 0h1m2 0h1m1 0h3m1 0h2m2 0h1m1 0h3m1 0h1m3 0h2m2 0h3m1 0h4m2 0h1m1 0h1m5 0h1m2 0h1m2 0h2m1 0h1m1 0h1m1 0h1m2 0h3m4 0h1m1 0h1m1 0h1M4 21.5h1m1 0h1m2 0h1m2 0h1m1 0h2m1 0h1m3 0h1m2 0h2m2 0h1m1 0h1m1 0h1m3 0h1m5 0h6m1 0h2m1 0h2m1 0h1m1 0h1m1 0h1m1 0h4m4 0h1m2 0h1m1 0h9m1 0h1m2 0h2m2 0h2m1 0h5m1 0h2m2 0h1M4 22.5h2m1 0h1m1 0h2m2 0h1m1 0h1m7 0h1m1 0h2m1 0h1m3 0h1m9 0h1m1 0h4m4 0h1m1 0h3m3 0h1m2 0h2m1 0h2m1 0h2m2 0h1m1 0h1m2 0h1m1 0h1m2 0h2m1 0h1m3 0h2m1 0h1m2 0h3m3 0h2M4 23.5h2m1 0h1m4 0h5m2 0h3m1 0h2m1 0h2m3 0h1m1 0h3m1 0h1m3 0h1m3 0h2m8 0h5m1 0h2m3 0h2m1 0h1m3 0h2m1 0h1m1 0h1m1 0h1m1 0h1m1 0h1m1 0h1m1 0h3m3 0h1m1 0h3m1 0h3m1 0h1M4 24.5h1m1 0h2m1 0h4m2 0h1m2 0h1m3 0h3m2 0h4m3 0h2m3 0h1m2 0h1m1 0h2m2 0h2m2 0h1m5 0h2m1 0h1m3 0h7m1 0h2m3 0h1m2 0h1m2 0h1m1 0h1m2 0h4m1 0h2m1 0h2m1 0h1m1 0h2M5 25.5h2m1 0h1m2 0h1m1 0h1m1 0h4m1 0h4m1 0h1m2 0h1m1 0h2m1 0h1m1 0h1m3 0h1m2 0h2m1 0h1m2 0h1m3 0h1m3 0h1m1 0h2m1 0h1m1 0h1m1 0h2m2 0h1m1 0h1m9 0h3m1 0h2m4 0h1m1 0h1m2 0h1m1 0h5m1 0h1M5 26.5h2m1 0h1m1 0h2m5 0h2m1 0h3m2 0h2m1 0h1m1 0h3m2 0h1m2 0h2m1 0h2m1 0h1m1 0h2m1 0h3m1 0h3m4 0h4m3 0h1m1 0h2m2 0h1m7 0h4m1 0h3m1 0h1m3 0h2m3 0h1m3 0h1M4 27.5h2m1 0h2m4 0h2m1 0h3m4 0h2m1 0h1m2 0h1m3 0h3m3 0h1m2 0h1m1 0h1m5 0h2m2 0h1m1 0h5m6 0h1m2 0h1m5 0h1m1 0h1m1 0h1m1 0h1m1 0h1m2 0h2m1 0h1m1 0h2m1 0h1m1 0h1m4 0h1m1 0h1M4 28.5h1m1 0h1m2 0h4m1 0h4m10 0h2m1 0h1m2 0h1m2 0h2m2 0h1m5 0h3m1 0h2m1 0h3m1 0h3m2 0h3m3 0h1m1 0h1m2 0h2m2 0h1m7 0h1m6 0h1m1 0h2m1 0h4m2 0h1M4 29.5h1m1 0h2m1 0h1m2 0h3m1 0h1m1 0h4m1 0h5m4 0h2m1 0h3m3 0h2m8 0h1m1 0h1m1 0h1m3 0h1m1 0h1m2 0h4m2 0h1m3 0h3m1 0h2m1 0h4m2 0h3m1 0h2m1 0h5m2 0h2M6 30.5h1m1 0h7m1 0h1m3 0h1m1 0h1m1 0h1m1 0h1m1 0h7m1 0h2m1 0h2m1 0h1m2 0h1m4 0h8m3 0h4m6 0h1m2 0h8m1 0h1m2 0h1m1 0h1m1 0h2m4 0h7m1 0h1M5 31.5h1m2 0h1m3 0h3m1 0h2m4 0h1m1 0h2m2 0h3m3 0h1m3 0h3m1 0h11m3 0h2m1 0h1m1 0h1m5 0h1m4 0h1m1 0h1m3 0h1m2 0h4m1 0h4m1 0h2m1 0h3m3 0h1M4 32.5h2m1 0h2m1 0h1m1 0h1m3 0h1m1 0h1m2 0h3m2 0h1m1 0h3m1 0h1m1 0h1m4 0h1m2 0h2m2 0h1m1 0h1m2 0h2m1 0h1m1 0h2m6 0h4m2 0h3m1 0h1m1 0h1m1 0h4m1 0h2m2 0h1m3 0h6m1 0h1m1 0h1m3 0h1M6 33.5h3m3 0h3m2 0h1m4 0h1m4 0h4m3 0h2m1 0h1m4 0h1m1 0h3m1 0h3m1 0h1m3 0h1m1 0h4m1 0h1m1 0h1m4 0h1m1 0h3m3 0h1m2 0h3m1 0h3m1 0h3m4 0h1m3 0h3M8 34.5h5m3 0h1m2 0h2m1 0h1m1 0h1m3 0h8m4 0h5m1 0h1m1 0h1m1 0h1m1 0h6m1 0h1m8 0h5m1 0h5m1 0h2m1 0h2m2 0h1m2 0h2m3 0h6m1 0h2M4 35.5h1m6 0h5m2 0h1m3 0h1m2 0h2m1 0h4m1 0h9m1 0h2m3 0h3m3 0h1m1 0h1m1 0h1m3 0h3m1 0h1m1 0h2m1 0h1m1 0h5m1 0h1m1 0h1m3 0h4m3 0h1m1 0h1m2 0h1m5 0h2M6 36.5h5m1 0h1m1 0h6m3 0h4m2 0h4m2 0h1m3 0h1m4 0h4m5 0h1m3 0h1m1 0h1m3 0h2m1 0h1m2 0h1m1 0h3m1 0h2m1 0h5m1 0h1m1 0h1m2 0h5m1 0h4m2 0h1m1 0h1M4 37.5h1m1 0h1m4 0h1m2 0h3m1 0h1m1 0h2m2 0h3m3 0h1m2 0h1m1 0h1m1 0h2m4 0h1m5 0h1m3 0h1m3 0h1m1 0h5m2 0h1m1 0h1m1 0h3m2 0h2m1 0h4m2 0h1m4 0h1m2 0h1m1 0h2m2 0h1m1 0h2m1 0h2M4 38.5h2m1 0h2m1 0h3m1 0h1m2 0h4m2 0h3m2 0h1m1 0h1m1 0h5m1 0h2m1 0h1m2 0h2m1 0h2m1 0h2m1 0h1m2 0h1m2 0h2m1 0h1m2 0h1m1 0h1m1 0h2m2 0h1m4 0h1m1 0h1m1 0h1m2 0h1m1 0h3m2 0h2m4 0h3m3 0h1M5 39.5h3m1 0h1m6 0h1m3 0h2m2 0h1m1 0h1m2 0h2m3 0h1m2 0h1m5 0h4m7 0h3m3 0h1m2 0h2m2 0h2m2 0h1m4 0h1m2 0h2m2 0h1m4 0h1m2 0h3m1 0h1m3 0h4m1 0h1M4 40.5h1m1 0h2m2 0h1m1 0h1m2 0h4m1 0h1m2 0h1m1 0h5m1 0h4m7 0h1m2 0h4m3 0h1m1 0h1m3 0h1m1 0h1m1 0h2m2 0h1m1 0h2m3 0h2m1 0h1m3 0h2m1 0h1m3 0h4m4 0h2m1 0h1m1 0h1m1 0h1m1 0h1M4 41.5h1m2 0h1m1 0h1m1 0h4m1 0h5m1 0h1m2 0h3m1 0h2m2 0h1m1 0h1m3 0h1m2 0h1m1 0h3m2 0h1m1 0h3m5 0h1m1 0h4m1 0h3m3 0h1m1 0h1m2 0h1m1 0h1m1 0h1m4 0h2m3 0h1m1 0h2m3 0h1m3 0h3M6 42.5h1m1 0h3m1 0h2m3 0h6m1 0h3m2 0h2m1 0h1m4 0h2m1 0h3m1 0h1m2 0h1m2 0h1m2 0h1m1 0h1m1 0h4m1 0h2m2 0h2m1 0h1m6 0h2m1 0h3m4 0h1m4 0h1m1 0h1m1 0h2m1 0h1m4 0h1M4 43.5h2m1 0h3m3 0h1m1 0h2m2 0h1m2 0h2m1 0h2m2 0h2m1 0h1m1 0h1m5 0h1m1 0h2m3 0h2m1 0h4m1 0h4m2 0h1m1 0h1m3 0h3m8 0h1m1 0h1m1 0h4m4 0h1m1 0h1m2 0h4m2 0h4M7 44.5h1m1 0h3m1 0h2m1 0h3m4 0h3m1 0h1m4 0h3m1 0h1m1 0h1m1 0h2m2 0h1m1 0h1m4 0h1m1 0h2m2 0h4m2 0h1m2 0h2m1 0h2m1 0h1m1 0h1m1 0h4m2 0h2m1 0h1m1 0h2m1 0h2m2 0h2m1 0h1M6 45.5h4m1 0h3m1 0h3m4 0h3m5 0h1m1 0h1m1 0h1m1 0h2m1 0h2m1 0h1m4 0h2m1 0h1m1 0h2m4 0h1m5 0h3m2 0h3m6 0h2m2 0h1m2 0h3m2 0h3m2 0h1m2 0h3m1 0h2M5 46.5h2m1 0h4m1 0h1m3 0h1m2 0h1m2 0h1m1 0h4m2 0h1m2 0h2m2 0h1m1 0h2m3 0h2m1 0h1m1 0h1m4 0h1m1 0h2m2 0h2m2 0h1m3 0h3m1 0h1m5 0h1m3 0h1m1 0h2m6 0h2m1 0h1m1 0h1m1 0h1m1 0h3M6 47.5h1m2 0h1m1 0h1m1 0h1m3 0h1m1 0h2m1 0h3m2 0h6m2 0h1m1 0h2m1 0h2m1 0h1m4 0h1m1 0h1m2 0h1m2 0h1m3 0h1m1 0h5m1 0h1m2 0h1m1 0h1m5 0h1m1 0h1m1 0h1m1 0h1m6 0h2m5 0h1m2 0h2M4 48.5h1m4 0h3m3 0h1m4 0h2m1 0h1m1 0h6m1 0h2m1 0h1m1 0h1m1 0h1m3 0h3m1 0h2m2 0h1m1 0h1m1 0h1m1 0h2m3 0h1m2 0h2m1 0h1m2 0h1m4 0h1m1 0h4m1 0h1m2 0h4m1 0h4m1 0h1m2 0h1m1 0h2m1 0h1M5 49.5h1m2 0h2m1 0h1m1 0h1m1 0h1m2 0h1m2 0h1m1 0h1m2 0h5m9 0h10m1 0h1m1 0h1m3 0h3m6 0h2m1 0h1m1 0h2m2 0h3m2 0h1m3 0h1m1 0h3m1 0h7m2 0h1m1 0h1m2 0h1M6 50.5h1m2 0h2m1 0h3m2 0h1m2 0h1m2 0h1m4 0h2m1 0h7m1 0h2m1 0h5m3 0h1m1 0h1m5 0h1m1 0h3m3 0h5m2 0h1m4 0h1m1 0h2m4 0h1m1 0h2m1 0h2m1 0h1m1 0h1M4 51.5h1m3 0h2m4 0h1m3 0h1m1 0h2m2 0h1m1 0h5m1 0h1m4 0h1m4 0h1m2 0h2m1 0h1m1 0h2m1 0h1m2 0h1m1 0h5m1 0h1m2 0h3m1 0h2m6 0h1m4 0h1m1 0h1m1 0h4m1 0h1m2 0h1m2 0h3m1 0h1M4 52.5h1m2 0h6m1 0h3m2 0h3m3 0h1m2 0h1m1 0h5m7 0h3m3 0h2m2 0h5m1 0h1m1 0h1m1 0h3m3 0h18m1 0h2m4 0h2m1 0h6m2 0h1M4 53.5h2m2 0h1m3 0h1m2 0h1m1 0h1m2 0h2m1 0h1m2 0h1m2 0h2m3 0h8m4 0h1m1 0h1m2 0h2m3 0h1m2 0h1m2 0h1m1 0h3m3 0h1m1 0h3m3 0h1m1 0h2m4 0h1m1 0h1m3 0h1m1 0h3m3 0h1m1 0h1M4 54.5h1m2 0h2m1 0h1m1 0h2m1 0h1m2 0h3m1 0h1m1 0h2m4 0h1m1 0h1m1 0h1m1 0h1m1 0h2m4 0h2m2 0h1m1 0h3m1 0h1m1 0h2m4 0h2m1 0h1m2 0h3m1 0h1m1 0h1m1 0h1m1 0h8m2 0h2m1 0h2m1 0h3m1 0h1m1 0h1m1 0h1M4 55.5h5m3 0h1m3 0h1m1 0h1m2 0h4m1 0h5m3 0h2m1 0h3m3 0h3m1 0h1m1 0h4m3 0h3m1 0h5m1 0h2m1 0h2m3 0h1m3 0h2m7 0h1m1 0h3m3 0h2m3 0h2M7 56.5h7m2 0h1m3 0h2m1 0h1m3 0h2m1 0h5m1 0h1m2 0h3m2 0h13m3 0h1m1 0h1m1 0h2m1 0h1m3 0h1m2 0h5m1 0h1m1 0h2m1 0h1m3 0h1m2 0h1m2 0h7M4 57.5h4m1 0h1m2 0h1m2 0h1m1 0h1m2 0h4m3 0h2m1 0h1m1 0h3m1 0h2m2 0h1m2 0h2m5 0h3m4 0h2m1 0h1m1 0h1m1 0h1m2 0h2m3 0h1m1 0h1m3 0h1m1 0h1m2 0h1m1 0h1m1 0h1m1 0h3m2 0h1m4 0h6M4 58.5h1m1 0h1m2 0h2m3 0h1m1 0h3m3 0h1m1 0h1m2 0h1m3 0h2m2 0h2m1 0h1m2 0h1m2 0h2m1 0h5m3 0h1m6 0h2m1 0h1m1 0h3m1 0h5m6 0h1m1 0h3m1 0h2m1 0h1m1 0h1m5 0h4M5 59.5h2m2 0h1m1 0h2m3 0h2m2 0h1m1 0h5m1 0h7m2 0h7m6 0h2m1 0h1m1 0h1m1 0h2m1 0h1m1 0h1m2 0h1m1 0h1m1 0h2m2 0h4m1 0h1m2 0h3m3 0h1m1 0h1m1 0h2m1 0h1m3 0h1m4 0h1M5 60.5h1m1 0h1m2 0h5m1 0h1m1 0h1m6 0h1m1 0h1m7 0h1m3 0h3m2 0h2m1 0h1m4 0h2m1 0h3m1 0h4m1 0h1m4 0h1m1 0h3m1 0h1m1 0h3m1 0h3m3 0h6m7 0h2m1 0h2M5 61.5h5m2 0h1m4 0h1m1 0h3m5 0h2m1 0h1m2 0h3m4 0h3m2 0h1m2 0h7m5 0h1m2 0h2m1 0h1m3 0h1m1 0h2m1 0h2m1 0h2m1 0h1m2 0h4m1 0h1m1 0h1m4 0h3m1 0h3M6 62.5h1m3 0h1m1 0h2m1 0h3m1 0h2m1 0h1m1 0h1m1 0h2m1 0h2m2 0h1m1 0h1m2 0h8m4 0h1m1 0h1m1 0h1m4 0h2m1 0h1m6 0h1m5 0h2m1 0h1m2 0h1m4 0h1m3 0h4m2 0h4m3 0h1M4 63.5h2m1 0h2m2 0h2m2 0h2m3 0h1m1 0h1m1 0h1m3 0h2m1 0h2m1 0h1m1 0h2m2 0h4m2 0h1m1 0h2m1 0h1m1 0h1m1 0h2m2 0h3m5 0h1m3 0h2m1 0h2m4 0h2m3 0h2m1 0h1m1 0h2m1 0h1m3 0h1m1 0h1m3 0h1M4 64.5h1m1 0h3m1 0h1m2 0h1m3 0h2m1 0h1m2 0h1m1 0h4m1 0h4m1 0h1m1 0h1m1 0h3m3 0h2m1 0h2m3 0h1m2 0h4m1 0h2m3 0h1m1 0h3m2 0h3m2 0h1m1 0h3m4 0h4m1 0h1m1 0h2m1 0h1m4 0h3M4 65.5h3m2 0h1m1 0h3m2 0h2m1 0h1m8 0h1m1 0h2m2 0h2m2 0h4m1 0h1m1 0h1m1 0h1m4 0h2m1 0h2m2 0h1m1 0h1m1 0h1m3 0h1m1 0h5m3 0h2m4 0h2m1 0h3m1 0h1m1 0h1m2 0h1m1 0h2m5 0h1M6 66.5h3m1 0h1m1 0h2m1 0h1m2 0h2m2 0h2m5 0h1m3 0h4m2 0h3m3 0h1m1 0h3m3 0h1m1 0h1m1 0h1m2 0h2m2 0h1m1 0h4m1 0h3m6 0h2m1 0h1m1 0h2m2 0h1m2 0h1m2 0h3m3 0h4M4 67.5h1m2 0h2m2 0h4m1 0h1m1 0h2m2 0h1m1 0h1m2 0h1m2 0h3m3 0h2m1 0h2m1 0h3m1 0h1m2 0h1m1 0h4m2 0h1m2 0h3m2 0h1m1 0h3m1 0h2m1 0h5m1 0h2m1 0h1m4 0h5m1 0h1m1 0h3m3 0h3M6 68.5h5m2 0h1m3 0h2m4 0h1m2 0h3m1 0h1m1 0h3m1 0h2m4 0h1m2 0h1m1 0h1m1 0h1m3 0h1m4 0h1m1 0h7m6 0h1m2 0h2m5 0h2m1 0h2m2 0h1m4 0h3m3 0h3M7 69.5h1m1 0h1m2 0h1m2 0h3m1 0h1m1 0h1m1 0h3m1 0h2m1 0h1m5 0h2m1 0h1m1 0h4m1 0h1m2 0h1m1 0h3m1 0h2m1 0h4m1 0h5m2 0h1m1 0h2m1 0h1m1 0h1m1 0h5m2 0h2m1 0h1m1 0h1m3 0h1m2 0h1M4 70.5h4m2 0h2m1 0h5m1 0h3m2 0h1m1 0h1m1 0h1m1 0h1m1 0h1m3 0h1m1 0h1m3 0h2m1 0h1m5 0h2m3 0h1m1 0h1m3 0h1m1 0h1m1 0h2m5 0h7m3 0h2m1 0h2m6 0h1m4 0h3m1 0h2M5 71.5h2m2 0h1m7 0h3m2 0h1m1 0h9m4 0h1m1 0h2m2 0h1m3 0h1m1 0h3m1 0h1m1 0h1m3 0h5m3 0h1m1 0h1m2 0h1m1 0h2m2 0h1m1 0h2m3 0h1m5 0h3m4 0h2m2 0h3M4 72.5h2m3 0h7m1 0h1m1 0h1m2 0h3m1 0h3m2 0h1m1 0h1m2 0h1m1 0h1m3 0h1m4 0h1m4 0h1m3 0h1m3 0h2m1 0h1m2 0h2m4 0h4m1 0h2m6 0h4m2 0h3m2 0h3m1 0h1M4 73.5h1m3 0h2m1 0h1m1 0h2m3 0h3m2 0h1m1 0h2m1 0h3m1 0h2m2 0h1m6 0h3m2 0h2m1 0h2m5 0h4m2 0h2m3 0h1m1 0h2m1 0h1m2 0h2m1 0h1m2 0h4m1 0h3m2 0h1m1 0h2m3 0h1m1 0h1m1 0h1M5 74.5h1m1 0h6m1 0h2m2 0h1m1 0h2m3 0h2m1 0h8m4 0h5m1 0h1m5 0h5m3 0h1m1 0h1m6 0h2m1 0h1m1 0h5m2 0h1m1 0h5m1 0h1m1 0h1m1 0h8m2 0h2M4 75.5h1m2 0h2m3 0h8m2 0h1m1 0h2m1 0h4m3 0h1m1 0h2m2 0h1m1 0h1m1 0h2m1 0h1m2 0h3m3 0h1m4 0h2m3 0h1m1 0h1m1 0h1m2 0h2m3 0h2m1 0h4m2 0h1m2 0h3m2 0h2m3 0h3m1 0h1M5 76.5h4m1 0h1m1 0h1m1 0h1m1 0h1m1 0h1m4 0h1m2 0h2m2 0h1m1 0h1m1 0h2m1 0h1m2 0h2m1 0h2m1 0h3m3 0h1m1 0h1m1 0h3m2 0h1m1 0h2m1 0h1m1 0h4m1 0h2m1 0h1m1 0h1m1 0h1m1 0h1m3 0h2m3 0h1m1 0h1m2 0h1m1 0h1m1 0h1m3 0h1M4 77.5h1m1 0h1m1 0h1m3 0h3m1 0h4m1 0h1m1 0h2m2 0h4m3 0h1m3 0h1m3 0h2m1 0h1m3 0h1m1 0h2m3 0h1m2 0h3m1 0h3m1 0h1m1 0h3m2 0h1m3 0h2m1 0h1m1 0h1m1 0h1m1 0h1m1 0h2m1 0h1m3 0h1m3 0h3M5 78.5h1m2 0h8m1 0h1m3 0h2m3 0h2m1 0h6m1 0h1m1 0h2m1 0h1m2 0h1m2 0h4m1 0h7m5 0h3m1 0h1m1 0h2m1 0h6m1 0h4m1 0h3m1 0h1m3 0h2m1 0h5m1 0h3M4 79.5h3m1 0h2m1 0h2m2 0h1m3 0h2m1 0h1m4 0h1m2 0h1m2 0h1m2 0h5m3 0h2m1 0h1m4 0h1m2 0h1m4 0h1m1 0h2m3 0h1m1 0h2m1 0h5m1 0h2m2 0h1m1 0h1m1 0h3m2 0h2m5 0h1m2 0h3M5 80.5h4m1 0h1m1 0h1m2 0h1m1 0h2m1 0h1m6 0h1m1 0h1m1 0h1m1 0h1m2 0h2m1 0h1m1 0h2m1 0h1m1 0h2m3 0h1m2 0h1m2 0h6m3 0h1m1 0h2m7 0h2m1 0h1m1 0h2m1 0h2m1 0h1m5 0h5m1 0h2m2 0h1M5 81.5h1m2 0h2m1 0h2m2 0h1m2 0h3m1 0h2m5 0h2m3 0h1m4 0h2m4 0h1m1 0h4m2 0h2m2 0h1m2 0h7m2 0h1m1 0h1m1 0h1m1 0h1m1 0h3m1 0h1m3 0h1m3 0h1m2 0h2m1 0h3m3 0h4M4 82.5h2m4 0h2m1 0h3m1 0h2m1 0h1m2 0h1m1 0h1m3 0h2m3 0h2m1 0h2m3 0h3m5 0h1m4 0h2m6 0h1m3 0h2m4 0h2m1 0h2m1 0h1m1 0h2m3 0h1m2 0h1m1 0h1m1 0h2m2 0h2m2 0h2M5 83.5h4m2 0h1m1 0h1m2 0h1m2 0h3m1 0h1m5 0h1m4 0h1m1 0h3m8 0h3m2 0h1m1 0h4m1 0h1m4 0h3m1 0h2m1 0h2m1 0h3m5 0h1m1 0h4m2 0h5m1 0h1m2 0h2m3 0h1M4 84.5h4m2 0h3m3 0h3m1 0h1m1 0h2m3 0h2m4 0h1m2 0h4m1 0h5m1 0h2m6 0h1m2 0h1m1 0h1m2 0h2m3 0h2m2 0h2m1 0h3m4 0h2m2 0h1m2 0h3m3 0h2m2 0h2m2 0h1M4 85.5h1m1 0h2m4 0h4m1 0h2m2 0h1m1 0h1m1 0h2m1 0h1m2 0h1m1 0h1m1 0h1m3 0h1m1 0h1m6 0h1m1 0h1m3 0h1m1 0h2m1 0h1m1 0h1m3 0h2m1 0h2m1 0h1m2 0h3m1 0h1m4 0h1m1 0h1m3 0h1m2 0h1m5 0h2m1 0h1M4 86.5h7m1 0h1m1 0h1m1 0h1m1 0h6m2 0h6m3 0h1m1 0h1m1 0h3m2 0h1m2 0h2m1 0h1m1 0h1m2 0h1m2 0h2m1 0h1m1 0h3m2 0h2m3 0h1m3 0h3m1 0h2m1 0h3m1 0h1m1 0h1m3 0h5m2 0h3M7 87.5h1m1 0h1m1 0h5m3 0h2m2 0h2m2 0h2m3 0h1m1 0h1m4 0h3m1 0h2m1 0h1m1 0h1m1 0h1m1 0h3m3 0h2m2 0h1m1 0h2m2 0h1m1 0h1m1 0h2m1 0h4m1 0h1m1 0h1m1 0h6m2 0h1m3 0h1m3 0h2m2 0h1M4 88.5h1m1 0h1m1 0h1m1 0h1m1 0h3m2 0h3m1 0h4m6 0h4m5 0h1m2 0h2m3 0h6m2 0h1m4 0h2m1 0h1m3 0h1m2 0h1m4 0h4m1 0h2m1 0h2m1 0h1m1 0h1m2 0h1m4 0h2m3 0h1m1 0h1M5 89.5h1m1 0h2m5 0h5m1 0h3m1 0h2m1 0h1m1 0h3m2 0h1m1 0h4m1 0h3m1 0h1m2 0h2m1 0h1m1 0h1m2 0h6m1 0h5m3 0h3m4 0h2m1 0h1m1 0h1m4 0h1m1 0h1m2 0h2m2 0h1m2 0h1m2 0h1M4 90.5h1m1 0h2m1 0h3m1 0h7m3 0h7m1 0h3m1 0h2m4 0h3m3 0h4m2 0h1m1 0h2m2 0h3m2 0h1m1 0h1m2 0h4m7 0h1m4 0h2m5 0h1m3 0h1m1 0h3m1 0h2M5 91.5h1m5 0h1m1 0h1m2 0h1m2 0h2m6 0h10m1 0h4m8 0h3m2 0h6m1 0h1m1 0h2m1 0h1m1 0h1m2 0h1m1 0h2m1 0h1m1 0h3m5 0h2m2 0h4m1 0h7m1 0h1M4 92.5h3m3 0h1m1 0h1m2 0h3m2 0h2m1 0h1m1 0h2m2 0h4m1 0h2m4 0h1m5 0h4m1 0h1m2 0h2m2 0h3m3 0h5m3 0h1m2 0h1m7 0h1m3 0h2m1 0h2m2 0h1m5 0h2m1 0h2M4 93.5h6m2 0h1m2 0h2m1 0h1m1 0h1m3 0h1m1 0h3m1 0h1m2 0h1m1 0h1m1 0h1m2 0h4m1 0h1m3 0h1m1 0h2m1 0h2m1 0h2m3 0h1m3 0h1m3 0h1m1 0h1m8 0h2m1 0h1m1 0h1m1 0h4m1 0h6m1 0h1m1 0h2M4 94.5h1m2 0h2m1 0h2m3 0h1m1 0h3m4 0h2m1 0h1m1 0h1m2 0h1m2 0h1m3 0h3m2 0h1m1 0h1m1 0h2m1 0h2m1 0h1m1 0h1m1 0h4m1 0h1m1 0h1m1 0h2m1 0h1m1 0h2m1 0h3m1 0h2m2 0h1m1 0h4m2 0h4m2 0h2m1 0h1m1 0h1M4 95.5h1m1 0h2m1 0h1m5 0h2m4 0h3m2 0h3m1 0h1m1 0h1m2 0h1m1 0h4m2 0h1m1 0h1m1 0h2m1 0h2m5 0h1m1 0h1m2 0h2m1 0h3m1 0h7m1 0h1m1 0h1m2 0h9m2 0h2m1 0h2m1 0h1m1 0h1m1 0h2M8 96.5h1m1 0h2m3 0h2m1 0h1m6 0h2m2 0h6m1 0h1m1 0h1m2 0h2m1 0h6m1 0h6m2 0h2m1 0h2m1 0h1m1 0h1m2 0h3m1 0h9m2 0h5m1 0h1m3 0h6m1 0h2M12 97.5h2m1 0h4m1 0h4m1 0h6m3 0h2m1 0h2m1 0h2m1 0h1m3 0h2m2 0h2m3 0h1m1 0h2m2 0h1m3 0h1m1 0h1m2 0h4m3 0h1m1 0h3m1 0h2m6 0h3m1 0h1m3 0h2m1 0h2M4 98.5h7m2 0h1m7 0h2m4 0h1m1 0h2m1 0h1m1 0h3m1 0h2m1 0h1m1 0h1m1 0h1m2 0h3m1 0h1m1 0h1m1 0h5m2 0h2m3 0h1m4 0h2m1 0h1m1 0h4m4 0h2m1 0h1m3 0h1m1 0h2m1 0h1m1 0h1m1 0h1M4 99.5h1m5 0h1m1 0h2m1 0h1m2 0h2m1 0h1m2 0h2m3 0h2m3 0h1m2 0h1m1 0h3m4 0h1m3 0h1m1 0h1m3 0h1m2 0h1m2 0h2m2 0h1m1 0h1m3 0h1m1 0h1m3 0h2m2 0h1m2 0h1m2 0h1m2 0h1m1 0h4m3 0h3M4 100.5h1m1 0h3m1 0h1m1 0h2m1 0h1m1 0h3m2 0h1m2 0h1m1 0h8m1 0h1m1 0h1m4 0h1m1 0h2m1 0h2m1 0h6m2 0h2m1 0h2m3 0h1m1 0h2m1 0h1m1 0h5m4 0h1m1 0h1m1 0h2m2 0h10M4 101.5h1m1 0h3m1 0h1m3 0h1m1 0h1m1 0h1m3 0h1m1 0h4m1 0h2m1 0h1m2 0h1m1 0h1m1 0h2m1 0h1m1 0h5m1 0h1m2 0h1m1 0h3m1 0h3m1 0h3m1 0h1m1 0h1m2 0h8m3 0h4m1 0h2m10 0h3M4 102.5h1m1 0h3m1 0h1m2 0h3m1 0h3m3 0h2m1 0h1m5 0h2m1 0h1m1 0h2m1 0h1m3 0h5m1 0h1m2 0h2m2 0h2m2 0h5m1 0h2m2 0h1m2 0h7m5 0h3m2 0h5m5 0h1m1 0h2M4 103.5h1m5 0h1m1 0h1m4 0h3m2 0h1m2 0h2m1 0h4m3 0h2m3 0h2m1 0h1m5 0h2m1 0h1m1 0h2m1 0h4m1 0h2m2 0h2m2 0h4m1 0h1m1 0h4m3 0h5m1 0h2m2 0h1m1 0h1m2 0h1m3 0h2M4 104.5h7m1 0h3m3 0h1m3 0h1m2 0h2m1 0h1m1 0h2m1 0h2m1 0h1m2 0h1m1 0h1m2 0h4m1 0h1m1 0h3m1 0h1m2 0h2m1 0h1m1 0h3m2 0h4m3 0h1m1 0h2m4 0h2m3 0h1m2 0h1m1 0h2m2 0h2m1 0h4"/></svg>
