<svg xmlns="http://www.w3.org/2000/svg" viewBox="0 0 109 109" shape-rendering="crispEdges"><path fill="#ffffff" d="M0 0h109v109H0z"/><path stroke="#000000" d="M4 4.5h7m1 0h2m1 0h2m2 0h1m2 0h2m1 0h1m1 0h2m5 0h1m2 0h2m2 0h1m2 0h1m2 0h6m1 0h4m9 0h1m2 0h2m1 0h1m1 0h3m1 0h1m1 0h5m2 0h1m1 0h1m3 0h2m2 0h7M4 5.5h1m5 0h1m3 0h1m1 0h2m1 0h1m1 0h1m1 0h1m1 0h1m1 0h4m3 0h2m1 0h2m1 0h3m1 0h3m1 0h1m1 0h2m1 0h2m2 0h1m2 0h1m1 0h1m1 0h3m1 0h1m2 0h2m3 0h1m4 0h2m5 0h2m3 0h1m4 0h1m5 0h1M4 6.5h1m1 0h3m1 0h1m1 0h2m1 0h2m1 0h1m1 0h2m1 0h1m2 0h2m1 0h2m2 0h1m1 0h1m1 0h3m1 0h1m1 0h2m1 0h2m1 0h1m1 0h1m1 0h1m1 0h1m5 0h1m3 0h5m4 0h1m1 0h1m1 0h1m3 0h1m1 0h2m5 0h2m2 0h1m2 0h1m1 0h3m1 0h1M4 7.5h1m1 0h3m1 0h1m1 0h1m1 0h1m1 0h2m6 0h1m1 0h2m2 0h1m1 0h1m3 0h5m1 0h1m3 0h2m3 0h7m1 0h1m1 0h1m4 0h2m6 0h5m2 0h1m1 0h1m1 0h1m1 0h1m1 0h2m1 0h1m1 0h2m2 0h1m1 0h3m1 0h1M4 8.5h1m1 0h3m1 0h1m1 0h1m2 0h2m1 0h3m1 0h1m2 0h1m1 0h1m2 0h5m1 0h1m1 0h3m2 0h1m4 0h1m3 0h5m1 0h3m2 0h2m1 0h2m1 0h3m2 0h6m1 0h1m2 0h5m4 0h2m1 0h1m1 0h1m1 0h3m1 0h1M4 9.5h1m5 0h1m2 0h1m2 0h2m1 0h1m4 0h1m4 0h2m3 0h3m2 0h2m3 0h2m3 0h2m1 0h1m3 0h3m1 0h1m4 0h3m1 0h2m3 0h1m3 0h2m1 0h2m2 0h2m1 0h1m1 0h2m1 0h1m1 0h1m2 0h1m5 0h1M4 10.5h7m1 0h1m1 0h1m1 0h1m1 0h1m1 0h1m1 0h1m1 0h1m1 0h1m1 0h1m1 0h1m1 0h1m1 0h1m1 0h1m1 0h1m1 0h1m1 0h1m1 0h1m1 0h1m1 0h1m1 0h1m1 0h1m1 0h1m1 0h1m1 0h1m1 0h1m1 0h1m1 0h1m1 0h1m1 0h1m1 0h1m1 0h1m1 0h1m1 0h1m1 0h1m1 0h1m1 0h1m1 0h1m1 0h1m1 0h1m1 0h1m1 0h1m1 0h1m1 0h1m1 0h7M13 11.5h1m2 0h2m2 0h1m1 0h1m1 0h2m1 0h2m1 0h1m3 0h1m2 0h1m1 0h1m2 0h1m1 0h1m2 0h1m2 0h3m3 0h2m2 0h3m2 0h3m2 0h1m1 0h1m1 0h1m3 0h1m2 0h2m3 0h1m3 0h4M4 12.5h4m2 0h1m1 0h4m2 0h2m1 0h4m3 0h11m2 0h1m1 0h4m1 0h1m3 0h5m3 0h1m3 0h1m1 0h1m1 0h3m2 0h10m1 0h3m2 0h1m1 0h5m1 0h1m2 0h3m1 0h1M12 13.5h2m1 0h2m1 0h1m1 0h1m4 0h1m2 0h2m1 0h1m1 0h1m2 0h1m3 0h1m1 0h3m1 0h1m3 0h2m2 0h5m1 0h3m3 0h4m1 0h1m3 0h1m1 0h1m5 0h1m2 0h6m5 0h1m1 0h1m3 0h1M6 14.5h1m3 0h1m1 0h1m4 0h2m3 0h1m1 0h1m1 0h1m1 0h1m1 0h1m1 0h2m1 0h2m4 0h2m1 0h2m2 0h2m2 0h1m3 0h3m6 0h1m2 0h1m3 0h1m1 0h1m1 0h1m4 0h1m5 0h1m2 0h9m2 0h1m1 0h2M4 15.5h3m1 0h2m6 0h1m1 0h2m1 0h1m2 0h2m3 0h4m8 0h3m2 0h1m2 0h2m2 0h3m3 0h1m1 0h1m2 0h3m2 0h1m3 0h7m1 0h2m2 0h2m1 0h1m1 0h1m2 0h1m4 0h1m1 0h4M5 16.5h3m1 0h3m1 0h1m4 0h4m3 0h2m1 0h4m3 0h6m2 0h1m1 0h4m1 0h1m3 0h2m1 0h7m3 0h1m1 0h6m1 0h3m2 0h2m1 0h2m1 0h1m1 0h1m5 0h1m1 0h3m1 0h1m1 0h2M4 17.5h3m5 0h2m1 0h3m3 0h2m5 0h3m1 0h3m1 0h2m1 0h4m1 0h1m2 0h1m1 0h2m1 0h2m1 0h1m1 0h3m2 0h1m1 0h2m1 0h1m1 0h1m1 0h1m6 0h1m1 0h2m3 0h3m1 0h1m1 0h5m1 0h1m2 0h1m1 0h2M6 18.5h6m2 0h2m2 0h1m2 0h1m1 0h2m5 0h4m1 0h3m2 0h4m2 0h5m2 0h1m1 0h2m1 0h1m5 0h2m1 0h3m2 0h1m1 0h4m2 0h3m2 0h2m2 0h3m1 0h1m1 0h3m2 0h1m1 0h1M5 19.5h5m3 0h2m1 0h1m3 0h3m4 0h1m2 0h2m2 0h1m2 0h1m1 0h2m2 0h1m1 0h1m2 0h1m4 0h3m3 0h2m4 0h5m2 0h5m6 0h1m2 0h1m1 0h3m1 0h2m1 0h1m2 0h1m2 0h1m1 0h2M4 20.5h1m2 0h4m8 0h2m6 0h2m1 0h1m1 0h3m3 0h1m8 0h3m1 0h1m2 0h1m1 0h3m4 0h1m1 0h2m2 0h4m4 0h1m3 0h1m1 0h3m2 0h1m2 0h1m1 0h2m1 0h2m1 0h2m2 0h2M8 21.5h1m2 0h2m2 0h1m5 0h2m1 0h5m1 0h3m2 0h1m5 0h2m1 0h6m2 0h4m3 0h4m1 0h2m2 0h1m2 0h1m2 0h1m1 0h1m1 0h2m1 0h1m1 0h4m1 0h3m1 0h2m1 0h2m1 0h1m1 0h1M4 22.5h1m2 0h1m1 0h3m1 0h2m4 0h1m1 0h1m1 0h3m2 0h1m1 0h1m2 0h1m2 0h1m6 0h2m1 0h5m1 0h1m8 0h1m3 0h2m2 0h2m6 0h2m1 0h1m4 0h1m1 0h2m1 0h1m1 0h2m2 0h3m5 0h1M4 23.5h1m2 0h2m2 0h1m2 0h1m2 0h1m1 0h1m1 0h2m2 0h1m5 0h2m5 0h1m1 0h2m2 0h1m1 0h1m1 0h3m3 0h1m5 0h1m1 0h3m1 0h2m5 0h3m2 0h1m1 0h1m3 0h3m1 0h1m1 0h1m1 0h2m1 0h1m2 0h1m1 0h1M6 24.5h1m1 0h1m1 0h1m2 0h3m3 0h1m2 0h3m1 0h1m1 0h1m5 0h6m2 0h1m2 0h1m5 0h5m1 0h1m2 0h3m2 0h1m2 0h1m1 0h5m3 0h4m1 0h1m1 0h2m1 0h1m2 0h3m1 0h5m1 0h2M7 25.5h1m1 0h1m3 0h1m2 0h1m1 0h4m2 0h1m1 0h1m1 0h2m3 0h3m1 0h1m1 0h1m1 0h2m2 0h1m7 0h1m1 0h5m3 0h11m2 0h2m2 0h1m1 0h1m2 0h1m8 0h7M6 26.5h1m3 0h2m2 0h1m3 0h2m1 0h1m1 0h1m3 0h1m1 0h2m2 0h1m1 0h1m6 0h1m1 0h1m1 0h1m3 0h2m1 0h3m2 0h1m1 0h2m1 0h1m2 0h2m1 0h1m1 0h1m1 0h2m2 0h1m3 0h3m2 0h1m1 0h1m1 0h2m4 0h1m1 0h5M7 27.5h1m6 0h1m2 0h6m1 0h4m3 0h1m2 0h1m1 0h2m2 0h1m1 0h3m1 0h1m1 0h3m2 0h1m1 0h1m1 0h1m2 0h1m1 0h3m1 0h1m1 0h2m1 0h1m1 0h2m2 0h1m1 0h3m1 0h3m5 0h1m1 0h2m1 0h1m4 0h1m1 0h2M6 28.5h1m1 0h1m1 0h1m2 0h3m3 0h1m1 0h2m5 0h1m4 0h2m1 0h1m2 0h3m3 0h1m4 0h1m2 0h4m1 0h2m4 0h1m1 0h1m1 0h2m4 0h3m1 0h1m1 0h1m1 0h3m5 0h1m2 0h1m3 0h4m1 0h1M4 29.5h3m2 0h1m3 0h1m3 0h3m1 0h1m1 0h1m2 0h1m3 0h1m4 0h4m1 0h1m2 0h1m3 0h2m1 0h1m1 0h2m1 0h6m1 0h2m1 0h1m1 0h1m3 0h1m1 0h2m2 0h1m1 0h2m2 0h3m1 0h2m1 0h1m2 0h1m1 0h3m1 0h2m2 0h1M7 30.5h6m1 0h5m1 0h1m1 0h1m4 0h1m2 0h5m1 0h1m3 0h1m1 0h1m3 0h1m5 0h5m1 0h10m2 0h9m2 0h3m1 0h1m1 0h1m1 0h2m1 0h1m1 0h1m1 0h6m2 0h1M4 31.5h2m2 0h1m3 0h1m3 0h1m2 0h1m2 0h2m1 0h1m1 0h1m1 0h2m3 0h1m1 0h2m1 0h5m3 0h1m1 0h1m2 0h1m3 0h1m3 0h3m3 0h1m1 0h2m1 0h2m1 0h1m3 0h1m1 0h5m5 0h1m4 0h2m3 0h1m1 0h2M6 32.5h3m1 0h1m1 0h2m2 0h1m3 0h1m5 0h2m1 0h2m1 0h1m1 0h3m2 0h2m3 0h3m1 0h1m2 0h2m1 0h1m1 0h4m1 0h2m1 0h1m1 0h1m4 0h1m2 0h1m1 0h1m1 0h3m3 0h2m3 0h1m2 0h2m2 0h1m1 0h1m1 0h2m2 0h1M6 33.5h3m3 0h2m5 0h1m1 0h2m5 0h3m3 0h3m1 0h2m1 0h3m1 0h3m1 0h4m3 0h1m2 0h1m2 0h1m2 0h2m2 0h1m4 0h1m3 0h3m1 0h2m1 0h2m1 0h1m2 0h2m2 0h2m3 0h4M5 34.5h8m1 0h1m4 0h1m1 0h1m1 0h1m2 0h1m1 0h1m1 0h6m1 0h1m2 0h1m5 0h3m2 0h6m2 0h1m1 0h2m2 0h1m2 0h1m2 0h1m1 0h7m1 0h1m1 0h1m4 0h1m1 0h2m2 0h1m1 0h8M7 35.5h1m1 0h1m1 0h1m2 0h1m1 0h1m1 0h1m1 0h4m1 0h2m1 0h1m1 0h1m1 0h2m1 0h1m2 0h4m2 0h2m2 0h1m2 0h2m3 0h1m1 0h2m1 0h1m3 0h1m1 0h1m2 0h1m1 0h2m1 0h1m1 0h3m1 0h5m5 0h1m2 0h4m1 0h1M7 36.5h4m1 0h1m1 0h4m1 0h2m2 0h1m1 0h1m2 0h4m1 0h2m3 0h1m3 0h2m1 0h2m1 0h1m1 0h3m9 0h1m1 0h3m5 0h1m1 0h3m5 0h1m1 0h1m2 0h3m5 0h1m1 0h1m2 0h5M4 37.5h6m2 0h1m4 0h1m6 0h5m1 0h1m1 0h1m4 0h1m1 0h2m2 0h2m1 0h1m1 0h1m1 0h1m3 0h2m1 0h2m1 0h1m5 0h1m1 0h1m1 0h2m1 0h1m5 0h2m1 0h3m1 0h1m2 0h3m1 0h1m1 0h1m2 0h4m2 0h1M4 38.5h1m2 0h2m1 0h1m1 0h4m2 0h2m2 0h1m2 0h3m2 0h3m3 0h2m1 0h1m3 0h1m3 0h2m1 0h2m1 0h1m4 0h1m1 0h3m2 0h1m1 0h5m1 0h2m1 0h1m2 0h2m3 0h1m1 0h6m4 0h5m1 0h2M5 39.5h1m1 0h1m1 0h1m2 0h1m1 0h6m2 0h1m4 0h1m1 0h1m2 0h1m2 0h1m1 0h1m3 0h2m1 0h1m4 0h1m4 0h1m1 0h1m1 0h4m2 0h1m3 0h2m2 0h2m2 0h3m1 0h1m2 0h1m1 0h1m1 0h1m1 0h4m1 0h1m2 0h1m2 0h1m1 0h3M4 40.5h5m1 0h1m1 0h3m3 0h1m2 0h2m1 0h1m2 0h1m2 0h1m2 0h1m1 0h2m4 0h1m4 0h2m4 0h1m1 0h2m3 0h1m1 0h2m1 0h2m1 0h2m4 0h1m1 0h3m3 0h1m2 0h1m1 0h1m1 0h1m1 0h1m3 0h1m3 0h3m2 0h2M4 41.5h1m1 0h2m1 0h1m2 0h1m1 0h2m2 0h4m4 0h1m1 0h3m8 0h1m4 0h1m2 0h1m3 0h1m3 0h3m1 0h5m3 0h1m7 0h1m3 0h1m1 0h3m2 0h2m1 0h1m2 0h2m1 0h1m1 0h2m1 0h1m1 0h2M4 42.5h1m1 0h3m1 0h1m1 0h1m1 0h1m1 0h3m2 0h1m1 0h2m2 0h4m2 0h1m2 0h8m2 0h3m1 0h2m3 0h4m1 0h1m6 0h2m1 0h1m3 0h2m2 0h2m1 0h1m1 0h2m2 0h4m3 0h3m3 0h2m1 0h2M4 43.5h2m3 0h1m2 0h3m1 0h3m1 0h1m4 0h2m1 0h1m1 0h2m2 0h2m1 0h1m1 0h1m1 0h3m4 0h1m2 0h3m1 0h3m2 0h2m1 0h1m1 0h1m1 0h1m2 0h1m1 0h2m3 0h1m1 0h1m1 0h2m3 0h1m1 0h1m3 0h2m1 0h1m1 0h2m3 0h2M4 44.5h3m1 0h1m1 0h5m1 0h1m1 0h1m1 0h1m4 0h3m3 0h4m4 0h1m1 0h2m1 0h2m2 0h2m1 0h1m1 0h1m3 0h1m4 0h1m1 0h2m1 0h1m3 0h2m1 0h5m1 0h3m1 0h2m1 0h1m1 0h2m1 0h1m1 0h2m1 0h1m1 0h1m1 0h2m1 0h1M4 45.5h2m3 0h1m1 0h3m1 0h1m1 0h1m2 0h2m1 0h4m4 0h1m1 0h1m1 0h4m1 0h1m2 0h1m5 0h2m2 0h1m3 0h2m3 0h1m4 0h2m1 0h1m1 0h4m1 0h3m2 0h2m1 0h1m1 0h1m4 0h1m1 0h4m3 0h1M8 46.5h3m2 0h1m3 0h2m2 0h5m1 0h2m2 0h1m1 0h1m3 0h3m2 0h2m1 0h2m3 0h1m5 0h2m2 0h1m5 0h1m1 0h2m2 0h1m1 0h3m1 0h1m3 0h2m1 0h1m4 0h2m3 0h2m2 0h1m3 0h1M6 47.5h2m1 0h1m1 0h1m2 0h2m1 0h2m1 0h4m4 0h1m2 0h1m1 0h1m1 0h2m3 0h2m2 0h1m1 0h1m1 0h4m2 0h1m1 0h1m5 0h3m2 0h1m1 0h1m1 0h2m8 0h1m2 0h5m2 0h1m1 0h2m3 0h2m2 0h1M6 48.5h7m1 0h3m3 0h3m1 0h1m4 0h2m1 0h2m2 0h1m1 0h2m1 0h1m2 0h2m1 0h7m4 0h2m2 0h1m1 0h1m3 0h1m1 0h3m2 0h1m1 0h3m1 0h2m3 0h1m1 0h1m1 0h1m3 0h2m2 0h3m3 0h1M8 49.5h2m1 0h1m1 0h2m1 0h1m2 0h2m2 0h1m5 0h1m2 0h3m2 0h1m2 0h3m1 0h1m4 0h4m1 0h1m4 0h2m2 0h1m1 0h1m1 0h4m2 0h1m1 0h1m2 0h3m2 0h1m1 0h1m2 0h3m1 0h1m4 0h1m1 0h1m2 0h2M6 50.5h3m1 0h1m3 0h1m2 0h1m1 0h1m2 0h1m2 0h1m1 0h1m1 0h1m4 0h1m2 0h4m1 0h1m4 0h3m1 0h3m1 0h3m4 0h2m2 0h6m1 0h2m1 0h1m1 0h2m1 0h3m3 0h1m3 0h1m1 0h1m3 0h4m1 0h3M4 51.5h1m2 0h1m4 0h4m1 0h2m3 0h2m2 0h1m4 0h2m6 0h1m1 0h5m2 0h1m2 0h1m2 0h3m1 0h1m1 0h2m1 0h1m1 0h1m3 0h1m1 0h1m3 0h3m2 0h5m2 0h1m2 0h1m6 0h1m2 0h1m2 0h2M6 52.5h1m1 0h5m1 0h1m2 0h1m2 0h1m2 0h2m1 0h1m1 0h1m1 0h5m3 0h1m7 0h2m1 0h1m2 0h6m5 0h3m2 0h3m2 0h10m1 0h1m2 0h2m1 0h3m3 0h5m1 0h1M4 53.5h1m2 0h2m3 0h1m1 0h1m1 0h2m3 0h2m3 0h2m2 0h1m3 0h2m1 0h1m3 0h1m1 0h1m1 0h2m2 0h1m1 0h2m3 0h2m5 0h3m1 0h4m2 0h2m3 0h3m4 0h3m3 0h1m2 0h1m1 0h1m3 0h1m1 0h1m1 0h1M4 54.5h1m1 0h1m1 0h1m1 0h1m1 0h1m1 0h1m1 0h2m1 0h4m2 0h1m4 0h1m1 0h1m1 0h2m4 0h2m1 0h2m3 0h1m3 0h1m1 0h1m1 0h1m2 0h1m2 0h2m3 0h2m1 0h3m1 0h1m1 0h1m1 0h1m1 0h1m5 0h2m2 0h2m2 0h3m1 0h1m1 0h1m3 0h1M6 55.5h3m3 0h1m1 0h4m3 0h5m3 0h2m3 0h4m5 0h3m6 0h1m3 0h1m1 0h2m5 0h1m3 0h2m3 0h1m3 0h1m3 0h3m5 0h1m5 0h1m3 0h1m3 0h1M4 56.5h10m1 0h1m1 0h2m3 0h1m1 0h2m1 0h1m2 0h6m3 0h1m1 0h3m1 0h4m2 0h6m2 0h3m5 0h2m5 0h5m4 0h1m3 0h1m2 0h1m5 0h7M7 57.5h2m3 0h1m2 0h2m5 0h1m2 0h1m1 0h1m3 0h3m2 0h1m5 0h3m1 0h1m1 0h1m1 0h1m1 0h2m2 0h1m5 0h1m1 0h1m2 0h3m1 0h1m1 0h2m1 0h2m2 0h1m2 0h2m1 0h2m2 0h1m1 0h1m1 0h3m1 0h1m1 0h2m1 0h2M5 58.5h2m2 0h2m3 0h1m1 0h1m1 0h1m2 0h3m1 0h2m2 0h1m1 0h1m3 0h1m1 0h2m2 0h4m2 0h1m3 0h9m4 0h1m2 0h2m2 0h1m3 0h1m2 0h3m3 0h2m1 0h1m2 0h5m1 0h1m1 0h4m1 0h2M7 59.5h1m1 0h1m2 0h3m2 0h2m1 0h1m1 0h2m4 0h5m1 0h3m6 0h3m5 0h1m3 0h2m2 0h2m3 0h1m1 0h2m1 0h1m1 0h3m3 0h1m3 0h2m4 0h1m6 0h1m6 0h2M4 60.5h1m2 0h1m1 0h2m4 0h2m1 0h1m1 0h1m2 0h2m4 0h2m3 0h1m1 0h1m2 0h4m1 0h2m1 0h1m1 0h1m1 0h1m3 0h2m3 0h1m1 0h1m2 0h5m2 0h1m2 0h3m1 0h1m1 0h3m4 0h1m7 0h1m1 0h2m2 0h2M6 61.5h4m1 0h2m4 0h2m2 0h1m1 0h1m1 0h1m1 0h4m3 0h1m7 0h1m2 0h2m1 0h1m1 0h1m4 0h1m1 0h1m1 0h1m1 0h2m2 0h6m1 0h1m3 0h1m2 0h5m1 0h1m1 0h1m2 0h7m2 0h1m3 0h1M8 62.5h1m1 0h1m2 0h1m2 0h4m1 0h2m1 0h2m5 0h1m1 0h2m2 0h3m1 0h1m1 0h1m1 0h1m1 0h2m5 0h1m4 0h1m3 0h1m1 0h2m1 0h2m5 0h5m1 0h3m1 0h2m1 0h12m2 0h1M5 63.5h1m1 0h3m1 0h1m2 0h1m2 0h1m1 0h2m2 0h4m2 0h1m1 0h1m1 0h2m1 0h1m2 0h4m1 0h1m2 0h3m1 0h1m4 0h1m1 0h1m1 0h5m3 0h2m3 0h6m3 0h4m2 0h2m2 0h1m5 0h1m3 0h1M4 64.5h1m1 0h7m1 0h1m2 0h1m1 0h1m4 0h1m1 0h1m1 0h2m1 0h2m2 0h2m3 0h2m1 0h1m2 0h1m1 0h2m2 0h1m2 0h3m2 0h1m1 0h3m4 0h3m1 0h3m1 0h3m2 0h2m3 0h1m1 0h4m2 0h2m2 0h1m2 0h2M6 65.5h1m1 0h2m1 0h2m3 0h1m2 0h1m2 0h3m1 0h1m2 0h2m3 0h2m4 0h1m2 0h2m1 0h3m2 0h1m2 0h2m2 0h3m2 0h1m1 0h1m1 0h2m1 0h3m2 0h2m1 0h1m3 0h1m2 0h5m4 0h1m3 0h5M4 66.5h4m2 0h2m1 0h2m1 0h1m3 0h2m2 0h2m1 0h1m3 0h1m2 0h1m1 0h1m4 0h1m1 0h4m2 0h4m1 0h6m1 0h1m1 0h2m1 0h1m1 0h5m2 0h1m1 0h2m1 0h1m1 0h1m1 0h1m6 0h2m1 0h1m8 0h2M4 67.5h1m1 0h1m1 0h2m1 0h1m1 0h2m1 0h1m1 0h1m1 0h4m2 0h3m1 0h3m2 0h1m2 0h6m1 0h3m1 0h1m6 0h1m1 0h2m1 0h2m2 0h1m1 0h1m2 0h9m6 0h2m1 0h3m1 0h2m1 0h2m1 0h1m1 0h1m1 0h1M4 68.5h8m3 0h1m1 0h1m1 0h1m3 0h1m2 0h1m1 0h2m1 0h2m1 0h2m2 0h2m3 0h3m3 0h1m7 0h1m1 0h3m2 0h2m4 0h2m2 0h2m2 0h1m1 0h4m2 0h1m3 0h1m2 0h1m2 0h1m1 0h1m2 0h2M4 69.5h1m2 0h3m1 0h1m1 0h2m2 0h2m1 0h1m3 0h3m1 0h1m2 0h1m1 0h3m1 0h2m1 0h1m3 0h2m1 0h1m1 0h3m1 0h1m1 0h1m1 0h6m4 0h1m1 0h2m1 0h1m1 0h2m1 0h1m1 0h2m1 0h1m2 0h2m4 0h1m1 0h5m1 0h3m2 0h1M5 70.5h1m1 0h1m1 0h3m4 0h1m2 0h6m2 0h2m2 0h1m1 0h2m2 0h2m4 0h1m3 0h1m2 0h1m2 0h1m1 0h6m1 0h3m1 0h2m1 0h2m1 0h1m1 0h1m1 0h2m1 0h1m2 0h5m1 0h1m1 0h1m1 0h3m3 0h6M6 71.5h1m1 0h2m2 0h1m2 0h1m2 0h1m4 0h3m1 0h1m4 0h1m1 0h1m2 0h1m2 0h3m1 0h1m2 0h1m1 0h7m1 0h2m2 0h2m1 0h2m2 0h1m7 0h1m1 0h1m1 0h1m1 0h1m3 0h1m3 0h8m2 0h2M4 72.5h7m1 0h2m1 0h3m1 0h4m1 0h1m1 0h1m1 0h1m3 0h3m1 0h2m3 0h2m3 0h1m1 0h1m4 0h1m1 0h1m4 0h1m8 0h1m2 0h2m4 0h1m1 0h1m1 0h1m1 0h5m2 0h1m5 0h1m4 0h1m1 0h1M4 73.5h3m1 0h1m2 0h3m1 0h3m2 0h1m3 0h1m1 0h1m1 0h2m1 0h4m2 0h1m4 0h2m7 0h2m2 0h1m1 0h5m3 0h1m1 0h3m8 0h2m1 0h1m2 0h3m4 0h2m1 0h1m2 0h2m4 0h2M8 74.5h7m5 0h3m3 0h2m1 0h7m1 0h2m3 0h1m1 0h3m1 0h1m1 0h1m1 0h5m2 0h2m1 0h3m1 0h2m6 0h5m1 0h1m1 0h2m2 0h1m2 0h1m2 0h1m2 0h6m2 0h2M8 75.5h1m3 0h1m2 0h5m1 0h1m3 0h2m2 0h2m3 0h1m1 0h1m2 0h1m1 0h4m3 0h1m1 0h1m1 0h1m3 0h3m1 0h1m2 0h4m4 0h1m2 0h1m3 0h2m1 0h1m2 0h1m3 0h1m1 0h1m1 0h2m2 0h1m3 0h2m2 0h1M5 76.5h2m1 0h1m1 0h1m1 0h3m4 0h4m2 0h6m1 0h1m1 0h2m3 0h3m2 0h1m1 0h1m2 0h1m1 0h2m1 0h1m1 0h2m2 0h1m2 0h1m1 0h1m4 0h1m3 0h1m1 0h1m1 0h1m2 0h2m2 0h1m1 0h2m1 0h1m1 0h1m1 0h3m1 0h1m1 0h3m1 0h1M5 77.5h1m1 0h2m3 0h1m1 0h1m1 0h2m4 0h1m4 0h4m3 0h1m1 0h1m6 0h3m2 0h1m1 0h3m3 0h2m1 0h1m8 0h1m2 0h1m1 0h2m3 0h1m5 0h1m2 0h2m1 0h3m2 0h2m3 0h1m2 0h1M5 78.5h1m1 0h6m1 0h1m4 0h1m7 0h1m1 0h7m1 0h2m1 0h1m1 0h2m2 0h1m2 0h2m1 0h6m5 0h2m1 0h1m1 0h5m1 0h5m1 0h1m1 0h2m3 0h2m3 0h1m1 0h9M7 79.5h1m1 0h1m1 0h3m1 0h1m3 0h2m1 0h2m1 0h1m1 0h4m2 0h2m1 0h3m1 0h1m1 0h3m1 0h3m2 0h2m1 0h1m3 0h4m1 0h1m1 0h2m1 0h1m3 0h6m8 0h1m1 0h1m1 0h1m1 0h1m5 0h2m4 0h1M4 80.5h2m3 0h3m2 0h3m1 0h2m2 0h1m3 0h1m2 0h3m1 0h2m1 0h1m1 0h2m4 0h1m1 0h1m1 0h2m1 0h1m6 0h1m1 0h4m2 0h1m4 0h1m3 0h2m1 0h3m1 0h2m1 0h1m1 0h1m2 0h2m1 0h1m1 0h3m3 0h3M4 81.5h2m1 0h2m2 0h1m1 0h4m1 0h2m1 0h3m2 0h1m2 0h2m2 0h1m3 0h3m2 0h4m2 0h3m1 0h1m2 0h2m1 0h3m1 0h2m4 0h1m2 0h1m2 0h1m1 0h2m1 0h2m3 0h2m1 0h1m1 0h2m1 0h4m2 0h2m1 0h1m1 0h1M5 82.5h1m1 0h5m1 0h1m2 0h1m6 0h4m3 0h1m1 0h1m1 0h3m2 0h2m1 0h3m1 0h1m5 0h1m1 0h3m2 0h1m2 0h1m1 0h5m1 0h1m2 0h3m1 0h1m1 0h2m6 0h1m2 0h1m5 0h1m4 0h2M5 83.5h1m1 0h2m2 0h1m2 0h1m1 0h1m1 0h1m1 0h4m2 0h1m1 0h1m1 0h1m3 0h1m4 0h1m2 0h3m1 0h1m1 0h2m2 0h5m3 0h2m1 0h1m2 0h1m1 0h1m1 0h3m4 0h2m1 0h1m4 0h1m1 0h4m1 0h1m1 0h1m4 0h2m1 0h3M8 84.5h4m5 0h1m3 0h2m1 0h1m1 0h4m3 0h1m5 0h2m1 0h2m2 0h2m3 0h2m1 0h1m1 0h1m1 0h2m1 0h2m2 0h3m1 0h1m3 0h1m2 0h1m2 0h1m2 0h2m3 0h1m2 0h1m2 0h1m1 0h2m5 0h1M4 85.5h1m2 0h1m1 0h1m1 0h1m6 0h1m1 0h1m2 0h2m3 0h1m1 0h1m1 0h1m1 0h3m1 0h1m9 0h2m1 0h2m1 0h2m3 0h1m1 0h2m1 0h1m5 0h1m3 0h2m1 0h1m1 0h1m1 0h1m4 0h2m1 0h2m1 0h3m1 0h1m1 0h3m1 0h3M8 86.5h3m2 0h1m7 0h1m1 0h1m3 0h1m1 0h4m1 0h1m5 0h1m2 0h1m1 0h1m2 0h3m2 0h1m1 0h1m2 0h5m3 0h2m4 0h1m5 0h4m1 0h1m1 0h1m1 0h1m5 0h1m1 0h2m1 0h3m2 0h2M4 87.5h1m1 0h2m1 0h1m2 0h1m1 0h7m1 0h6m7 0h2m1 0h1m1 0h1m1 0h1m1 0h1m3 0h1m3 0h2m1 0h3m3 0h1m4 0h1m1 0h1m1 0h4m3 0h1m1 0h1m2 0h3m3 0h1m1 0h1m1 0h1m2 0h1m8 0h1M4 88.5h1m3 0h3m1 0h4m1 0h1m2 0h1m1 0h1m1 0h2m1 0h1m2 0h1m6 0h2m1 0h3m3 0h1m3 0h1m4 0h4m1 0h4m2 0h3m1 0h1m1 0h3m1 0h4m1 0h5m1 0h3m3 0h5m3 0h1m1 0h2M4 89.5h2m1 0h3m1 0h4m6 0h1m2 0h1m2 0h1m1 0h2m2 0h1m3 0h1m3 0h2m1 0h2m2 0h2m1 0h1m3 0h1m1 0h2m1 0h1m7 0h1m3 0h5m1 0h1m1 0h2m4 0h2m1 0h4m1 0h3m2 0h1m1 0h2m1 0h1M4 90.5h2m1 0h4m1 0h2m1 0h1m1 0h3m2 0h4m1 0h2m4 0h1m1 0h1m3 0h1m5 0h2m1 0h1m1 0h3m2 0h1m2 0h1m1 0h2m2 0h1m1 0h1m1 0h1m1 0h1m1 0h2m1 0h1m1 0h4m3 0h3m1 0h1m1 0h1m1 0h1m4 0h1m2 0h3M6 91.5h1m4 0h3m5 0h1m2 0h1m2 0h1m2 0h2m1 0h1m1 0h1m4 0h2m2 0h2m7 0h1m1 0h1m1 0h1m2 0h1m2 0h2m1 0h2m1 0h1m3 0h1m2 0h1m1 0h1m2 0h2m1 0h1m3 0h1m2 0h1m3 0h1m3 0h2m5 0h1M8 92.5h1m1 0h1m5 0h1m1 0h1m2 0h1m2 0h1m4 0h2m2 0h1m1 0h3m1 0h1m1 0h3m1 0h3m1 0h1m2 0h1m2 0h4m1 0h1m1 0h1m1 0h1m6 0h1m3 0h2m3 0h1m2 0h2m4 0h2m2 0h1m1 0h1m4 0h1m2 0h1M5 93.5h3m4 0h1m1 0h2m1 0h1m2 0h8m5 0h4m3 0h2m2 0h1m1 0h3m2 0h1m4 0h1m1 0h3m3 0h1m3 0h4m4 0h3m1 0h1m8 0h2m1 0h3m1 0h2m1 0h1m1 0h1m2 0h1M4 94.5h1m2 0h2m1 0h1m1 0h1m5 0h1m2 0h1m2 0h1m1 0h1m3 0h1m2 0h1m3 0h1m2 0h2m2 0h2m1 0h3m3 0h2m2 0h2m2 0h4m1 0h7m4 0h2m1 0h1m3 0h1m3 0h1m4 0h1m1 0h1m1 0h1m1 0h1M4 95.5h1m1 0h2m1 0h1m5 0h1m2 0h1m1 0h2m3 0h1m2 0h1m3 0h1m1 0h1m1 0h1m5 0h1m1 0h3m1 0h1m2 0h1m1 0h2m6 0h3m1 0h2m4 0h1m4 0h1m3 0h1m1 0h1m1 0h1m1 0h1m6 0h1m2 0h1m1 0h1m2 0h4M8 96.5h1m1 0h1m2 0h3m3 0h1m2 0h1m1 0h1m2 0h9m3 0h2m1 0h1m4 0h1m1 0h11m1 0h3m1 0h2m1 0h1m1 0h1m1 0h1m1 0h5m3 0h3m1 0h4m1 0h2m1 0h1m1 0h6m2 0h1M12 97.5h2m2 0h2m1 0h2m1 0h2m2 0h2m2 0h1m3 0h3m1 0h1m1 0h2m1 0h1m2 0h2m1 0h1m2 0h1m3 0h1m1 0h1m2 0h3m2 0h1m1 0h1m2 0h4m3 0h1m3 0h1m1 0h2m7 0h1m1 0h2m3 0h1m2 0h1M4 98.5h7m3 0h1m1 0h2m1 0h1m3 0h1m4 0h1m1 0h1m1 0h1m1 0h1m1 0h3m1 0h3m1 0h5m1 0h3m1 0h1m1 0h7m4 0h2m1 0h1m3 0h1m1 0h1m1 0h1m2 0h1m1 0h1m1 0h2m3 0h1m1 0h1m3 0h1m1 0h1m1 0h3M4 99.5h1m5 0h1m2 0h1m1 0h5m2 0h5m2 0h2m3 0h3m1 0h3m3 0h1m2 0h4m1 0h1m3 0h6m2 0h1m1 0h2m3 0h4m3 0h3m1 0h2m2 0h1m1 0h1m2 0h6m3 0h5M4 100.5h1m1 0h3m1 0h1m2 0h1m2 0h2m1 0h3m1 0h1m2 0h1m1 0h7m6 0h1m2 0h1m3 0h1m3 0h5m4 0h2m2 0h1m1 0h2m4 0h6m1 0h3m2 0h2m2 0h1m3 0h2m1 0h6M4 101.5h1m1 0h3m1 0h1m1 0h1m2 0h1m2 0h1m1 0h2m1 0h1m2 0h1m1 0h2m2 0h1m1 0h4m1 0h3m3 0h1m6 0h1m2 0h1m6 0h3m2 0h4m2 0h1m4 0h1m1 0h2m1 0h2m1 0h3m1 0h2m1 0h2m3 0h1m3 0h1M4 102.5h1m1 0h3m1 0h1m1 0h1m2 0h2m1 0h2m3 0h1m1 0h1m2 0h1m1 0h1m1 0h2m1 0h1m1 0h4m3 0h3m7 0h1m2 0h2m2 0h2m2 0h3m1 0h1m1 0h3m4 0h1m5 0h1m1 0h1m2 0h1m1 0h3m4 0h2m4 0h1M4 103.5h1m5 0h1m1 0h1m1 0h1m4 0h1m4 0h2m1 0h3m1 0h2m1 0h1m1 0h2m3 0h4m2 0h1m1 0h2m1 0h1m1 0h1m1 0h1m2 0h3m1 0h3m2 0h1m1 0h1m1 0h1m2 0h1m3 0h2m1 0h2m1 0h2m2 0h2m1 0h1m1 0h1m1 0h2m2 0h1m1 0h2M4 104.5h7m1 0h3m2 0h1m1 0h1m4 0h6m3 0h2m1 0h3m4 0h1m2 0h1m1 0h2m1 0h2m1 0h1m1 0h1m1 0h2m3 0h2m2 0h1m1 0h2m1 0h1m1 0h1m1 0h1m3 0h1m5 0h1m3 0h1m1 0h4m2 0h1m1 0h1m1 0h2"/></svg>
