<svg xmlns="http://www.w3.org/2000/svg" viewBox="0 0 97 97" shape-rendering="crispEdges"><path fill="#ffffff" d="M0 0h97v97H0z"/><path stroke="#000000" d="M4 4.5h7m1 0h3m1 0h1m1 0h2m2 0h1m2 0h2m3 0h2m2 0h2m4 0h1m1 0h5m1 0h3m1 0h2m1 0h2m1 0h1m3 0h1m2 0h1m1 0h2m2 0h2m2 0h2m1 0h2m1 0h4m1 0h7M4 5.5h1m5 0h1m1 0h4m2 0h2m3 0h2m3 0h2m1 0h4m1 0h4m2 0h1m2 0h4m1 0h1m1 0h2m1 0h1m5 0h1m1 0h1m3 0h3m2 0h2m5 0h1m1 0h1m1 0h1m2 0h1m5 0h1M4 6.5h1m1 0h3m1 0h1m1 0h1m1 0h1m3 0h1m1 0h1m1 0h2m1 0h2m2 0h2m3 0h2m1 0h4m1 0h4m3 0h2m1 0h1m1 0h3m1 0h1m2 0h1m3 0h1m1 0h3m3 0h1m4 0h1m1 0h1m5 0h1m1 0h3m1 0h1M4 7.5h1m1 0h3m1 0h1m1 0h1m1 0h2m1 0h1m1 0h2m1 0h1m2 0h1m2 0h1m1 0h1m1 0h1m1 0h3m1 0h1m2 0h1m5 0h2m1 0h4m1 0h2m7 0h2m3 0h2m2 0h2m1 0h1m2 0h1m2 0h1m1 0h1m1 0h1m1 0h3m1 0h1M4 8.5h1m1 0h3m1 0h1m2 0h1m1 0h1m3 0h1m2 0h3m6 0h6m2 0h3m5 0h1m6 0h2m1 0h6m1 0h3m3 0h5m3 0h1m2 0h1m1 0h1m2 0h1m1 0h3m1 0h1M4 9.5h1m5 0h1m1 0h4m1 0h5m4 0h4m2 0h1m3 0h2m4 0h1m1 0h2m3 0h1m4 0h5m3 0h4m1 0h1m1 0h3m3 0h1m1 0h1m1 0h1m1 0h1m1 0h1m2 0h1m5 0h1M4 10.5h7m1 0h1m1 0h1m1 0h1m1 0h1m1 0h1m1 0h1m1 0h1m1 0h1m1 0h1m1 0h1m1 0h1m1 0h1m1 0h1m1 0h1m1 0h1m1 0h1m1 0h1m1 0h1m1 0h1m1 0h1m1 0h1m1 0h1m1 0h1m1 0h1m1 0h1m1 0h1m1 0h1m1 0h1m1 0h1m1 0h1m1 0h1m1 0h1m1 0h1m1 0h1m1 0h1m1 0h1m1 0h1m1 0h7M13 11.5h4m1 0h3m3 0h4m1 0h1m2 0h1m3 0h1m1 0h2m1 0h1m1 0h5m2 0h1m1 0h2m3 0h2m3 0h3m2 0h1m1 0h2m1 0h5m4 0h3M4 12.5h2m2 0h3m4 0h1m1 0h5m1 0h3m4 0h1m1 0h5m1 0h1m1 0h4m3 0h1m2 0h1m1 0h1m2 0h1m2 0h5m1 0h3m2 0h1m2 0h3m2 0h2m1 0h5m2 0h1m1 0h4M4 13.5h1m1 0h3m2 0h2m1 0h1m8 0h2m5 0h2m2 0h3m1 0h1m1 0h1m3 0h1m1 0h2m1 0h1m3 0h3m1 0h3m2 0h1m1 0h2m1 0h1m1 0h2m2 0h1m4 0h1m2 0h1m5 0h1m1 0h2M4 14.5h1m1 0h1m1 0h1m1 0h1m1 0h1m3 0h1m1 0h3m1 0h1m1 0h2m1 0h1m1 0h3m3 0h1m1 0h2m5 0h2m2 0h3m1 0h2m5 0h1m2 0h2m1 0h2m2 0h1m2 0h7m1 0h1m1 0h2m1 0h1m1 0h3m1 0h2M4 15.5h2m5 0h1m4 0h1m2 0h3m1 0h1m5 0h2m1 0h2m3 0h1m1 0h1m1 0h2m1 0h3m1 0h1m1 0h2m1 0h2m1 0h2m1 0h2m2 0h1m1 0h2m2 0h1m4 0h3m4 0h2m2 0h1m3 0h2M6 16.5h1m1 0h4m4 0h2m1 0h2m1 0h2m1 0h1m1 0h2m1 0h2m2 0h1m1 0h1m1 0h2m1 0h1m3 0h1m1 0h3m1 0h3m4 0h4m1 0h1m1 0h2m1 0h1m1 0h1m2 0h2m2 0h1m1 0h2m3 0h3m3 0h2M4 17.5h2m5 0h5m2 0h1m2 0h2m5 0h2m1 0h6m1 0h3m2 0h1m3 0h1m1 0h2m4 0h1m3 0h1m1 0h2m3 0h1m1 0h7m2 0h1m1 0h2m4 0h4m1 0h1m1 0h1M4 18.5h2m1 0h6m1 0h5m1 0h4m1 0h1m2 0h1m2 0h5m2 0h1m4 0h5m7 0h3m5 0h1m1 0h1m3 0h1m1 0h1m1 0h4m1 0h1m1 0h1m1 0h1m2 0h1m1 0h1m4 0h1M4 19.5h1m3 0h2m1 0h3m1 0h1m4 0h2m1 0h4m2 0h3m6 0h1m2 0h1m2 0h1m2 0h1m1 0h2m4 0h1m2 0h6m4 0h1m3 0h1m2 0h3m3 0h1m4 0h5M6 20.5h1m1 0h3m1 0h6m2 0h1m3 0h7m3 0h1m2 0h2m2 0h1m1 0h2m1 0h4m1 0h4m2 0h1m1 0h5m5 0h3m1 0h2m1 0h2m3 0h1m4 0h1m1 0h1m1 0h1M4 21.5h3m1 0h1m2 0h2m1 0h2m1 0h1m2 0h2m1 0h1m3 0h1m2 0h1m3 0h2m1 0h1m1 0h10m1 0h1m2 0h1m1 0h5m1 0h1m1 0h6m2 0h2m1 0h1m2 0h2m4 0h2m1 0h1m2 0h1M4 22.5h2m3 0h4m4 0h2m1 0h2m1 0h2m1 0h1m1 0h2m1 0h2m1 0h1m1 0h3m1 0h1m1 0h1m4 0h1m4 0h3m3 0h2m1 0h5m1 0h1m3 0h2m1 0h1m1 0h4m3 0h3m2 0h1m1 0h3M4 23.5h1m7 0h1m1 0h1m2 0h3m1 0h3m2 0h2m4 0h4m1 0h1m1 0h1m3 0h1m1 0h1m2 0h1m1 0h2m2 0h2m1 0h4m1 0h2m1 0h2m2 0h2m1 0h1m1 0h1m1 0h1m1 0h3m2 0h1m1 0h2m3 0h2M4 24.5h1m2 0h2m1 0h2m2 0h2m2 0h1m1 0h2m1 0h4m2 0h1m1 0h1m1 0h1m2 0h4m1 0h3m1 0h2m4 0h1m5 0h1m2 0h2m3 0h3m5 0h2m4 0h1m1 0h3m4 0h1m2 0h1M5 25.5h2m1 0h1m2 0h1m3 0h1m1 0h1m1 0h1m1 0h4m2 0h2m1 0h1m1 0h1m1 0h1m1 0h1m1 0h1m4 0h1m2 0h2m5 0h1m1 0h2m2 0h1m1 0h1m6 0h1m1 0h1m7 0h1m1 0h4m5 0h1M4 26.5h1m1 0h1m2 0h5m1 0h1m6 0h1m2 0h1m2 0h2m1 0h4m2 0h2m1 0h1m1 0h2m4 0h1m1 0h1m1 0h1m1 0h2m1 0h1m2 0h2m3 0h2m3 0h4m4 0h2m1 0h2m2 0h3m1 0h1m1 0h2M4 27.5h1m1 0h1m4 0h1m2 0h1m8 0h1m1 0h1m2 0h1m2 0h1m1 0h2m4 0h2m1 0h1m2 0h1m1 0h1m1 0h1m1 0h3m1 0h1m3 0h3m1 0h4m3 0h1m2 0h2m2 0h1m3 0h2m4 0h1m1 0h2M5 28.5h3m2 0h1m1 0h1m1 0h1m2 0h3m1 0h1m1 0h1m2 0h4m1 0h2m1 0h2m1 0h1m2 0h1m5 0h1m3 0h1m2 0h1m2 0h5m2 0h1m3 0h5m2 0h1m1 0h3m1 0h3m1 0h3m1 0h1m1 0h1m1 0h1M5 29.5h2m1 0h1m2 0h3m1 0h1m6 0h1m1 0h3m3 0h2m1 0h1m2 0h1m1 0h4m1 0h3m1 0h1m2 0h2m3 0h1m1 0h2m1 0h1m5 0h1m1 0h1m3 0h3m3 0h1m1 0h1m1 0h1m2 0h1m1 0h3M5 30.5h1m1 0h2m1 0h1m1 0h1m1 0h1m2 0h1m2 0h1m2 0h2m1 0h2m3 0h4m3 0h1m3 0h1m1 0h1m1 0h1m3 0h1m1 0h2m3 0h3m1 0h2m1 0h2m1 0h1m2 0h3m1 0h2m2 0h2m3 0h1m3 0h2M5 31.5h1m2 0h1m3 0h2m1 0h2m1 0h2m3 0h2m6 0h3m1 0h2m3 0h1m1 0h2m1 0h3m6 0h1m2 0h1m1 0h1m1 0h1m1 0h1m2 0h3m2 0h1m1 0h2m2 0h1m3 0h1m1 0h3m1 0h3m2 0h1M5 32.5h8m1 0h2m5 0h1m1 0h3m1 0h1m2 0h1m1 0h5m1 0h3m6 0h2m1 0h1m2 0h1m1 0h8m1 0h5m1 0h5m1 0h1m1 0h1m5 0h6M4 33.5h1m2 0h2m3 0h1m1 0h1m6 0h3m2 0h2m1 0h4m3 0h4m1 0h5m2 0h5m5 0h1m3 0h2m1 0h3m1 0h1m2 0h1m1 0h4m1 0h1m1 0h1m1 0h2m3 0h2M4 34.5h5m1 0h1m1 0h1m1 0h3m3 0h1m5 0h4m2 0h1m1 0h1m1 0h6m1 0h4m2 0h3m3 0h4m1 0h1m1 0h1m1 0h2m1 0h2m1 0h5m1 0h1m1 0h3m3 0h1m1 0h1m1 0h1m2 0h1M4 35.5h1m1 0h1m1 0h1m3 0h1m3 0h1m1 0h3m1 0h1m4 0h1m1 0h1m2 0h1m3 0h2m1 0h2m1 0h1m1 0h4m3 0h1m1 0h1m2 0h1m1 0h1m3 0h3m2 0h4m2 0h1m2 0h1m1 0h2m3 0h2m3 0h2m2 0h1M4 36.5h2m2 0h5m1 0h3m2 0h1m4 0h1m2 0h3m1 0h6m2 0h1m1 0h1m2 0h1m1 0h1m3 0h3m4 0h7m1 0h2m3 0h1m1 0h1m3 0h1m1 0h2m1 0h2m1 0h7M7 37.5h3m1 0h3m3 0h1m3 0h1m2 0h1m1 0h2m2 0h1m1 0h1m1 0h2m2 0h1m3 0h2m1 0h2m2 0h3m2 0h1m1 0h2m6 0h1m1 0h2m2 0h2m1 0h3m2 0h2m1 0h1m2 0h3m1 0h5M5 38.5h1m1 0h1m1 0h3m1 0h2m1 0h1m2 0h1m2 0h1m4 0h1m2 0h1m5 0h3m2 0h1m1 0h1m5 0h3m1 0h2m2 0h1m2 0h2m2 0h2m7 0h1m1 0h2m1 0h2m3 0h2m1 0h1m1 0h1M5 39.5h2m1 0h2m1 0h1m1 0h2m3 0h2m2 0h1m1 0h4m4 0h1m1 0h1m3 0h1m4 0h2m10 0h3m3 0h6m1 0h2m3 0h1m2 0h1m2 0h1m6 0h3m1 0h3M4 40.5h2m2 0h1m1 0h2m1 0h3m1 0h2m3 0h2m1 0h1m2 0h2m1 0h1m3 0h3m4 0h3m4 0h2m3 0h3m2 0h1m5 0h5m1 0h1m2 0h6m6 0h1m1 0h3m1 0h1M4 41.5h1m1 0h3m3 0h4m2 0h1m1 0h1m1 0h2m1 0h1m2 0h3m1 0h2m3 0h1m2 0h3m1 0h7m1 0h3m1 0h1m4 0h1m1 0h1m1 0h2m3 0h1m1 0h2m1 0h3m1 0h1m1 0h4m1 0h7M4 42.5h2m2 0h1m1 0h3m1 0h1m1 0h3m1 0h1m2 0h1m1 0h2m2 0h2m1 0h2m1 0h1m1 0h1m1 0h1m1 0h1m3 0h3m1 0h2m1 0h2m4 0h1m1 0h1m1 0h3m5 0h5m5 0h2m2 0h6m2 0h1M4 43.5h1m1 0h1m1 0h2m3 0h1m2 0h3m3 0h2m2 0h1m1 0h1m1 0h2m1 0h1m2 0h1m1 0h3m1 0h2m1 0h2m2 0h1m1 0h1m2 0h10m1 0h3m1 0h1m3 0h1m1 0h6m2 0h1m5 0h1m2 0h1M4 44.5h3m3 0h3m1 0h1m1 0h1m1 0h2m1 0h2m2 0h1m1 0h1m1 0h2m3 0h2m4 0h1m1 0h2m1 0h3m1 0h1m2 0h2m2 0h2m1 0h3m4 0h1m3 0h1m2 0h3m2 0h1m1 0h1m1 0h1m3 0h1m1 0h1m1 0h2M4 45.5h1m1 0h2m1 0h1m1 0h1m7 0h3m1 0h5m2 0h4m1 0h3m1 0h1m1 0h1m1 0h1m1 0h2m1 0h2m3 0h1m1 0h1m2 0h3m1 0h2m1 0h2m1 0h3m2 0h2m2 0h2m1 0h1m2 0h1m2 0h1m1 0h1m2 0h2M4 46.5h2m2 0h3m3 0h1m1 0h1m1 0h5m1 0h3m4 0h1m1 0h1m1 0h3m1 0h3m1 0h2m2 0h1m2 0h2m4 0h3m1 0h2m5 0h2m1 0h2m1 0h3m2 0h1m3 0h3m4 0h4M4 47.5h1m1 0h1m1 0h1m5 0h2m1 0h3m2 0h2m1 0h2m1 0h3m2 0h2m1 0h1m1 0h1m2 0h1m2 0h1m1 0h1m1 0h1m1 0h1m2 0h3m7 0h1m1 0h1m1 0h3m1 0h2m6 0h2m2 0h1m1 0h1m1 0h1m3 0h2M4 48.5h3m1 0h4m1 0h2m5 0h1m2 0h2m1 0h1m1 0h2m2 0h1m1 0h1m5 0h1m1 0h1m1 0h1m2 0h1m4 0h2m1 0h4m3 0h2m1 0h2m1 0h1m6 0h1m1 0h1m1 0h2m2 0h1m2 0h1m1 0h1m1 0h2M5 49.5h1m2 0h1m2 0h4m2 0h1m1 0h2m1 0h4m6 0h1m2 0h2m1 0h3m1 0h1m2 0h1m1 0h1m1 0h5m1 0h2m6 0h1m4 0h1m1 0h2m1 0h1m3 0h4m1 0h1m1 0h3m2 0h1m2 0h1M8 50.5h1m1 0h4m1 0h1m3 0h1m1 0h1m1 0h2m1 0h2m1 0h1m1 0h1m1 0h1m3 0h3m2 0h1m2 0h1m1 0h1m2 0h2m1 0h1m1 0h4m2 0h1m1 0h1m3 0h1m1 0h2m1 0h1m1 0h3m2 0h1m4 0h3M5 51.5h1m1 0h3m2 0h2m2 0h2m1 0h3m1 0h1m1 0h5m3 0h1m4 0h1m1 0h1m1 0h1m1 0h3m3 0h6m1 0h1m2 0h2m1 0h1m2 0h2m1 0h1m3 0h1m3 0h3m4 0h1m1 0h4m1 0h1M7 52.5h2m1 0h7m1 0h1m1 0h2m1 0h2m6 0h1m1 0h6m1 0h2m3 0h1m1 0h2m1 0h3m6 0h2m1 0h3m3 0h2m1 0h2m4 0h1m1 0h2m1 0h3m2 0h1m2 0h1m1 0h1M4 53.5h2m1 0h2m2 0h2m2 0h2m1 0h1m2 0h1m1 0h2m1 0h4m1 0h1m2 0h2m2 0h1m1 0h1m5 0h4m2 0h1m3 0h1m2 0h3m2 0h3m3 0h1m2 0h2m1 0h4m4 0h1m4 0h4M5 54.5h2m1 0h1m1 0h1m1 0h1m6 0h1m2 0h4m1 0h2m2 0h2m3 0h6m2 0h1m2 0h1m2 0h1m1 0h2m2 0h2m1 0h3m1 0h2m3 0h3m1 0h2m1 0h3m4 0h1m2 0h1m3 0h3M6 55.5h2m5 0h1m1 0h1m2 0h1m1 0h1m1 0h2m1 0h3m3 0h1m1 0h2m1 0h3m3 0h1m2 0h1m3 0h5m1 0h1m1 0h1m5 0h1m2 0h1m5 0h1m3 0h3m2 0h1m1 0h4m1 0h1M5 56.5h1m4 0h5m4 0h3m1 0h1m2 0h1m3 0h3m1 0h2m1 0h1m1 0h4m1 0h3m2 0h1m3 0h1m1 0h2m2 0h1m1 0h1m2 0h2m1 0h9m3 0h1m2 0h1m2 0h2m1 0h1m2 0h2M6 57.5h3m2 0h1m1 0h2m1 0h2m2 0h2m2 0h1m2 0h1m1 0h2m1 0h3m6 0h3m3 0h1m5 0h1m1 0h1m1 0h1m3 0h1m2 0h1m7 0h1m1 0h1m2 0h4m1 0h4m3 0h1M6 58.5h1m1 0h5m2 0h2m3 0h5m2 0h1m4 0h5m1 0h3m1 0h1m1 0h2m1 0h2m1 0h1m2 0h1m1 0h1m1 0h6m3 0h4m1 0h2m2 0h3m1 0h3m1 0h10M6 59.5h3m3 0h1m3 0h1m5 0h2m2 0h1m3 0h1m1 0h1m3 0h3m1 0h1m1 0h6m1 0h2m1 0h2m4 0h1m3 0h10m1 0h1m1 0h1m2 0h3m3 0h1m3 0h1m1 0h2M4 60.5h2m2 0h1m1 0h1m1 0h2m1 0h2m1 0h1m2 0h3m1 0h1m3 0h2m1 0h1m1 0h1m1 0h4m1 0h1m2 0h6m3 0h3m2 0h1m1 0h1m1 0h1m1 0h1m1 0h2m1 0h1m1 0h1m1 0h1m2 0h1m1 0h5m1 0h1m1 0h1m1 0h5M5 61.5h4m3 0h2m2 0h1m2 0h1m1 0h1m2 0h4m2 0h1m1 0h1m3 0h1m1 0h1m1 0h2m1 0h1m2 0h1m1 0h2m1 0h3m2 0h1m1 0h1m3 0h3m1 0h2m2 0h2m1 0h2m2 0h1m2 0h5m3 0h2m2 0h1M4 62.5h1m3 0h6m3 0h1m4 0h3m1 0h1m1 0h3m1 0h5m1 0h2m1 0h1m4 0h1m1 0h2m2 0h1m3 0h8m1 0h1m4 0h1m5 0h1m1 0h1m1 0h2m1 0h8M4 63.5h1m8 0h1m1 0h3m1 0h2m4 0h2m2 0h3m1 0h1m2 0h2m3 0h2m1 0h2m1 0h1m1 0h1m2 0h3m1 0h2m5 0h2m1 0h1m2 0h2m2 0h1m4 0h1m2 0h1m2 0h1m4 0h1m2 0h1M4 64.5h1m3 0h1m1 0h2m2 0h1m2 0h3m1 0h7m2 0h1m2 0h3m1 0h1m1 0h3m3 0h1m1 0h1m2 0h1m2 0h1m7 0h1m3 0h1m1 0h1m3 0h1m2 0h2m1 0h1m5 0h1m1 0h1m2 0h5M7 65.5h1m3 0h1m1 0h2m4 0h1m1 0h5m2 0h2m1 0h1m1 0h3m1 0h4m2 0h1m3 0h1m1 0h1m2 0h1m2 0h1m5 0h4m1 0h1m1 0h4m1 0h1m2 0h1m1 0h5m2 0h1m1 0h1M5 66.5h2m1 0h1m1 0h2m2 0h2m2 0h2m2 0h2m1 0h1m5 0h1m1 0h5m1 0h1m3 0h5m1 0h1m1 0h1m3 0h2m4 0h4m4 0h1m3 0h1m3 0h1m2 0h4m1 0h1m3 0h1m1 0h2M4 67.5h4m1 0h1m1 0h1m1 0h1m4 0h3m4 0h3m1 0h2m1 0h1m1 0h2m2 0h2m5 0h2m1 0h2m2 0h2m5 0h3m1 0h3m3 0h1m4 0h1m2 0h1m2 0h2m2 0h1m1 0h1m4 0h2M6 68.5h1m1 0h1m1 0h5m1 0h2m2 0h4m1 0h1m4 0h2m2 0h1m1 0h2m1 0h1m3 0h4m2 0h1m1 0h3m2 0h1m1 0h1m1 0h3m1 0h6m1 0h1m1 0h1m2 0h5m7 0h1M5 69.5h1m6 0h1m2 0h2m1 0h4m2 0h1m1 0h1m3 0h9m1 0h2m2 0h3m1 0h1m1 0h3m3 0h1m1 0h2m2 0h3m3 0h1m3 0h1m1 0h1m4 0h3m2 0h1m1 0h1m1 0h1m2 0h1M4 70.5h3m1 0h6m3 0h1m1 0h4m3 0h3m4 0h1m2 0h1m7 0h2m2 0h1m2 0h1m1 0h1m3 0h2m2 0h2m3 0h2m1 0h1m3 0h3m1 0h2m1 0h2m3 0h2m1 0h1m1 0h2M4 71.5h1m2 0h1m1 0h1m1 0h2m1 0h2m1 0h1m1 0h1m1 0h1m1 0h4m2 0h7m2 0h2m2 0h2m1 0h1m1 0h1m2 0h2m1 0h1m3 0h1m3 0h5m1 0h1m1 0h1m1 0h1m4 0h5m5 0h1m3 0h1M4 72.5h1m3 0h3m1 0h2m1 0h2m3 0h1m2 0h1m1 0h2m2 0h1m2 0h1m1 0h3m2 0h1m3 0h1m1 0h3m3 0h1m1 0h4m2 0h2m2 0h1m1 0h2m2 0h1m3 0h1m1 0h1m2 0h1m1 0h3m1 0h2m3 0h2M6 73.5h2m1 0h1m1 0h1m1 0h1m1 0h2m7 0h6m3 0h4m4 0h1m4 0h1m3 0h1m4 0h1m1 0h1m1 0h3m1 0h1m1 0h2m1 0h1m2 0h3m2 0h3m3 0h3m5 0h2M4 74.5h1m3 0h1m1 0h1m1 0h4m3 0h1m1 0h1m3 0h2m1 0h2m1 0h1m1 0h3m2 0h1m1 0h1m1 0h3m2 0h1m2 0h1m1 0h1m2 0h5m1 0h2m1 0h1m1 0h5m7 0h4m3 0h3m4 0h1M4 75.5h1m2 0h2m3 0h2m4 0h2m1 0h1m3 0h1m3 0h5m3 0h1m1 0h1m2 0h1m1 0h1m4 0h1m5 0h1m1 0h1m1 0h3m1 0h2m2 0h1m1 0h1m2 0h1m2 0h1m2 0h1m1 0h1m1 0h3m1 0h2m3 0h1M6 76.5h1m3 0h1m1 0h3m1 0h1m1 0h1m1 0h2m1 0h2m6 0h4m1 0h2m2 0h3m3 0h2m4 0h1m3 0h2m1 0h1m2 0h2m1 0h1m1 0h3m1 0h1m1 0h1m1 0h2m1 0h2m1 0h3m1 0h1m1 0h3m1 0h1M4 77.5h1m2 0h3m5 0h1m2 0h1m1 0h1m1 0h1m1 0h1m1 0h6m3 0h2m4 0h2m1 0h3m3 0h1m2 0h1m2 0h1m1 0h3m3 0h2m3 0h1m1 0h1m2 0h3m1 0h1m1 0h2m3 0h2m1 0h2m1 0h1M4 78.5h1m1 0h6m1 0h4m2 0h4m1 0h1m2 0h3m2 0h1m1 0h1m3 0h1m1 0h2m3 0h1m1 0h1m2 0h2m1 0h2m1 0h2m1 0h1m1 0h1m1 0h1m1 0h1m2 0h2m1 0h2m1 0h1m1 0h1m3 0h2m2 0h1m1 0h1m1 0h1m1 0h3M4 79.5h1m1 0h1m1 0h1m2 0h3m1 0h1m4 0h2m1 0h2m2 0h2m1 0h1m1 0h3m4 0h2m4 0h3m3 0h1m2 0h1m1 0h2m2 0h1m1 0h1m3 0h2m2 0h2m1 0h4m2 0h1m2 0h1m5 0h1M4 80.5h1m1 0h2m1 0h3m1 0h1m1 0h2m1 0h1m2 0h1m1 0h3m1 0h3m2 0h2m1 0h1m2 0h2m3 0h1m1 0h4m1 0h3m1 0h5m1 0h1m4 0h4m5 0h2m4 0h1m1 0h6m1 0h1m1 0h2M4 81.5h2m2 0h2m2 0h1m1 0h1m4 0h2m2 0h1m2 0h4m1 0h1m3 0h1m1 0h3m1 0h3m2 0h1m1 0h4m2 0h1m1 0h1m6 0h2m2 0h2m2 0h3m1 0h3m1 0h4m3 0h5m1 0h1M4 82.5h1m2 0h1m2 0h2m2 0h4m1 0h2m1 0h1m3 0h2m1 0h1m1 0h1m2 0h1m2 0h2m1 0h1m8 0h2m1 0h1m1 0h1m1 0h7m1 0h2m1 0h1m2 0h1m1 0h1m1 0h2m2 0h2m3 0h1m5 0h4M4 83.5h2m2 0h2m1 0h4m2 0h3m2 0h1m1 0h1m1 0h1m1 0h3m2 0h1m2 0h1m1 0h3m1 0h1m1 0h3m1 0h1m1 0h4m2 0h2m3 0h1m2 0h2m5 0h2m2 0h3m1 0h1m1 0h1m4 0h1m1 0h4M4 84.5h1m2 0h1m2 0h1m1 0h1m1 0h2m3 0h3m6 0h3m1 0h6m3 0h2m2 0h3m2 0h1m3 0h13m1 0h2m2 0h1m2 0h1m2 0h1m2 0h1m1 0h7m2 0h1M12 85.5h1m3 0h2m1 0h1m1 0h4m2 0h2m1 0h1m1 0h1m3 0h1m1 0h1m1 0h1m1 0h1m1 0h2m1 0h2m1 0h5m1 0h1m1 0h1m3 0h1m2 0h1m2 0h3m5 0h1m1 0h1m1 0h1m1 0h1m1 0h1m3 0h2M4 86.5h7m2 0h1m1 0h3m1 0h1m2 0h3m5 0h1m1 0h1m1 0h1m1 0h2m3 0h2m2 0h1m2 0h2m3 0h3m1 0h2m1 0h1m1 0h1m2 0h1m2 0h4m1 0h1m2 0h3m1 0h1m2 0h2m1 0h1m1 0h1m1 0h1M4 87.5h1m5 0h1m1 0h4m1 0h6m3 0h2m3 0h2m3 0h2m1 0h2m2 0h2m2 0h2m2 0h1m3 0h4m3 0h4m1 0h1m1 0h1m2 0h4m2 0h3m1 0h1m1 0h1m3 0h2m1 0h2M4 88.5h1m1 0h3m1 0h1m1 0h1m3 0h1m4 0h2m1 0h4m1 0h1m2 0h8m2 0h5m2 0h3m2 0h10m1 0h2m1 0h5m1 0h2m5 0h1m2 0h5m1 0h1M4 89.5h1m1 0h3m1 0h1m2 0h1m1 0h1m1 0h1m2 0h1m1 0h2m1 0h1m1 0h7m4 0h1m1 0h3m1 0h1m2 0h1m2 0h2m1 0h2m1 0h2m1 0h1m2 0h3m2 0h6m1 0h2m2 0h2m2 0h2m3 0h2M4 90.5h1m1 0h3m1 0h1m2 0h1m1 0h2m2 0h1m1 0h1m3 0h2m1 0h3m1 0h1m4 0h5m3 0h1m1 0h4m2 0h1m3 0h1m1 0h2m1 0h1m1 0h2m6 0h3m1 0h2m6 0h3m4 0h2M4 91.5h1m5 0h1m1 0h2m1 0h1m1 0h3m1 0h2m2 0h1m4 0h1m1 0h2m1 0h2m1 0h1m2 0h1m9 0h1m3 0h2m3 0h2m2 0h1m1 0h1m1 0h1m1 0h3m1 0h2m1 0h1m1 0h1m2 0h7m1 0h3M4 92.5h7m1 0h1m11 0h1m3 0h2m4 0h2m4 0h2m5 0h3m2 0h1m2 0h2m2 0h4m1 0h4m1 0h5m1 0h1m2 0h1m2 0h1m2 0h2m3 0h1m1 0h1"/></svg>
