<svg xmlns="http://www.w3.org/2000/svg" viewBox="0 0 109 109" shape-rendering="crispEdges"><path fill="#ffffff" d="M0 0h109v109H0z"/><path stroke="#000000" d="M4 4.5h7m2 0h4m1 0h6m2 0h1m1 0h1m2 0h3m2 0h1m1 0h1m1 0h1m2 0h2m5 0h1m1 0h1m1 0h3m1 0h1m3 0h1m3 0h1m1 0h4m1 0h1m1 0h1m2 0h1m1 0h7m1 0h1m2 0h2m1 0h2m2 0h7M4 5.5h1m5 0h1m6 0h8m2 0h1m2 0h2m6 0h4m1 0h2m1 0h1m1 0h1m5 0h1m1 0h3m4 0h1m1 0h1m2 0h1m4 0h4m1 0h1m1 0h3m1 0h1m5 0h1m7 0h1m5 0h1M4 6.5h1m1 0h3m1 0h1m5 0h2m1 0h1m2 0h1m3 0h3m3 0h1m1 0h1m3 0h3m1 0h2m1 0h2m1 0h3m2 0h2m1 0h2m2 0h2m2 0h2m1 0h2m1 0h2m1 0h3m1 0h2m3 0h1m1 0h1m1 0h3m4 0h1m1 0h1m2 0h1m1 0h3m1 0h1M4 7.5h1m1 0h3m1 0h1m1 0h2m1 0h2m1 0h1m5 0h1m3 0h1m1 0h1m7 0h1m1 0h3m2 0h1m2 0h2m1 0h5m2 0h1m3 0h1m1 0h1m1 0h1m4 0h2m1 0h1m1 0h1m1 0h3m1 0h2m2 0h7m1 0h2m2 0h1m1 0h3m1 0h1M4 8.5h1m1 0h3m1 0h1m1 0h1m1 0h2m3 0h3m5 0h2m1 0h6m1 0h3m3 0h4m3 0h1m1 0h5m2 0h1m2 0h1m2 0h1m1 0h1m1 0h1m1 0h1m1 0h6m1 0h1m1 0h2m1 0h1m1 0h4m1 0h1m1 0h1m1 0h1m1 0h1m1 0h3m1 0h1M4 9.5h1m5 0h1m2 0h2m2 0h2m1 0h1m1 0h1m7 0h1m3 0h5m1 0h2m1 0h1m2 0h1m3 0h3m3 0h1m2 0h1m1 0h1m1 0h3m1 0h5m2 0h1m3 0h1m3 0h1m3 0h1m1 0h1m1 0h1m4 0h1m2 0h1m5 0h1M4 10.5h7m1 0h1m1 0h1m1 0h1m1 0h1m1 0h1m1 0h1m1 0h1m1 0h1m1 0h1m1 0h1m1 0h1m1 0h1m1 0h1m1 0h1m1 0h1m1 0h1m1 0h1m1 0h1m1 0h1m1 0h1m1 0h1m1 0h1m1 0h1m1 0h1m1 0h1m1 0h1m1 0h1m1 0h1m1 0h1m1 0h1m1 0h1m1 0h1m1 0h1m1 0h1m1 0h1m1 0h1m1 0h1m1 0h1m1 0h1m1 0h1m1 0h1m1 0h1m1 0h1m1 0h7M19 11.5h4m2 0h1m1 0h4m3 0h2m3 0h2m1 0h1m2 0h2m3 0h1m1 0h1m3 0h1m1 0h5m1 0h1m1 0h1m1 0h1m1 0h1m1 0h1m1 0h1m3 0h3m3 0h1m2 0h1m1 0h2m2 0h2M4 12.5h2m3 0h3m1 0h3m1 0h3m1 0h2m2 0h2m3 0h9m1 0h5m3 0h3m1 0h6m2 0h1m3 0h2m5 0h1m2 0h5m3 0h1m2 0h1m4 0h1m2 0h1m2 0h1m3 0h2M4 13.5h2m3 0h1m1 0h4m1 0h2m1 0h1m1 0h2m2 0h2m1 0h1m2 0h3m2 0h1m3 0h1m2 0h1m1 0h1m3 0h3m1 0h2m3 0h1m3 0h1m1 0h1m3 0h2m4 0h3m4 0h2m1 0h1m1 0h1m1 0h1m2 0h2m1 0h1m1 0h1m1 0h3m3 0h1M4 14.5h4m2 0h1m1 0h4m1 0h1m6 0h1m1 0h3m3 0h4m1 0h1m2 0h1m4 0h2m1 0h1m2 0h2m5 0h2m2 0h2m1 0h1m1 0h1m2 0h1m2 0h2m2 0h2m4 0h1m2 0h1m4 0h1m3 0h2m2 0h3m1 0h1M6 15.5h4m1 0h1m1 0h2m4 0h2m2 0h1m2 0h3m1 0h1m1 0h1m1 0h1m2 0h1m3 0h8m1 0h1m1 0h2m5 0h1m2 0h2m3 0h2m1 0h2m2 0h4m1 0h2m2 0h2m3 0h2m1 0h2m1 0h3m2 0h3m1 0h2M6 16.5h2m2 0h2m1 0h2m1 0h2m2 0h1m4 0h1m1 0h1m4 0h1m4 0h3m1 0h8m1 0h1m3 0h3m1 0h1m1 0h1m3 0h2m2 0h4m1 0h1m1 0h2m2 0h1m2 0h2m2 0h2m1 0h2m2 0h5m1 0h2m1 0h1m1 0h1M4 17.5h2m1 0h2m2 0h1m1 0h1m1 0h1m2 0h4m2 0h4m3 0h1m7 0h1m1 0h2m5 0h2m5 0h2m2 0h1m1 0h1m1 0h1m1 0h2m1 0h2m2 0h1m4 0h1m6 0h2m2 0h6m2 0h1m1 0h3m3 0h1M5 18.5h1m1 0h2m1 0h1m1 0h2m1 0h1m1 0h1m3 0h1m1 0h2m3 0h1m3 0h3m2 0h2m1 0h1m1 0h1m1 0h2m1 0h1m1 0h7m1 0h2m2 0h2m2 0h1m5 0h7m1 0h3m2 0h1m1 0h3m3 0h1m3 0h2m1 0h1m1 0h4M4 19.5h1m1 0h1m1 0h1m2 0h1m2 0h1m1 0h3m2 0h1m1 0h3m1 0h1m1 0h2m8 0h1m2 0h2m2 0h1m1 0h1m1 0h1m4 0h2m3 0h1m2 0h5m2 0h1m1 0h2m1 0h2m1 0h1m1 0h1m3 0h3m2 0h1m2 0h1m2 0h1m1 0h1m1 0h4m1 0h1M4 20.5h2m2 0h1m1 0h3m3 0h1m4 0h2m1 0h2m5 0h3m2 0h1m4 0h1m1 0h1m1 0h1m4 0h2m1 0h4m3 0h1m1 0h3m3 0h1m1 0h1m1 0h2m4 0h1m1 0h3m2 0h1m2 0h1m1 0h4m1 0h4m1 0h1m1 0h1m1 0h1M4 21.5h1m1 0h3m2 0h3m3 0h2m3 0h1m2 0h1m1 0h1m1 0h1m2 0h1m1 0h1m2 0h1m1 0h2m3 0h1m1 0h2m4 0h2m2 0h7m1 0h1m2 0h1m3 0h1m1 0h2m2 0h1m1 0h5m1 0h1m4 0h1m4 0h1m1 0h1m1 0h1m1 0h3M6 22.5h2m2 0h2m3 0h1m3 0h1m2 0h2m1 0h3m1 0h3m2 0h4m1 0h1m1 0h5m1 0h1m2 0h1m1 0h1m1 0h3m1 0h4m3 0h1m2 0h2m1 0h2m1 0h2m2 0h3m4 0h1m1 0h3m2 0h1m2 0h2m1 0h2m1 0h1m1 0h2M8 23.5h2m2 0h1m1 0h1m2 0h1m1 0h1m1 0h1m3 0h1m8 0h2m1 0h6m1 0h1m2 0h1m1 0h1m2 0h2m2 0h3m1 0h1m2 0h4m2 0h2m3 0h3m5 0h2m1 0h1m1 0h1m2 0h3m5 0h1m1 0h1m3 0h1M6 24.5h2m2 0h1m1 0h2m2 0h3m1 0h2m4 0h3m2 0h1m1 0h1m3 0h1m1 0h3m1 0h2m1 0h5m1 0h3m1 0h4m1 0h2m1 0h1m2 0h4m4 0h1m3 0h2m3 0h1m2 0h4m1 0h3m2 0h1m1 0h2m1 0h3M4 25.5h2m1 0h2m2 0h2m1 0h1m1 0h3m1 0h3m1 0h4m1 0h2m2 0h1m3 0h1m1 0h7m2 0h1m4 0h2m1 0h1m2 0h1m4 0h1m3 0h1m2 0h1m2 0h1m2 0h2m2 0h4m1 0h1m1 0h1m1 0h3m3 0h1m3 0h2m1 0h2M4 26.5h1m3 0h3m2 0h1m2 0h4m1 0h3m1 0h2m1 0h4m1 0h1m2 0h1m2 0h2m4 0h3m1 0h1m8 0h1m1 0h2m2 0h1m5 0h1m2 0h5m1 0h1m2 0h2m1 0h1m2 0h1m1 0h1m1 0h2m2 0h2m1 0h3m1 0h1M4 27.5h3m1 0h1m2 0h1m1 0h1m1 0h1m2 0h3m3 0h1m1 0h3m1 0h6m3 0h2m1 0h2m1 0h1m1 0h1m9 0h2m3 0h1m1 0h1m1 0h1m1 0h2m2 0h1m3 0h1m2 0h1m2 0h1m1 0h2m1 0h1m1 0h2m1 0h1m1 0h1m1 0h2m1 0h4m1 0h1M8 28.5h1m1 0h4m3 0h3m1 0h1m1 0h1m2 0h1m1 0h2m1 0h1m2 0h6m2 0h1m1 0h1m1 0h5m1 0h2m1 0h1m1 0h3m1 0h2m5 0h1m2 0h1m1 0h1m1 0h2m2 0h2m3 0h2m2 0h1m2 0h2m1 0h1m1 0h1m1 0h2m1 0h1m2 0h1M4 29.5h2m1 0h2m2 0h1m1 0h2m1 0h1m1 0h2m1 0h1m2 0h3m1 0h2m1 0h2m1 0h1m3 0h2m2 0h6m1 0h1m3 0h1m3 0h3m5 0h1m1 0h3m1 0h2m2 0h2m3 0h2m1 0h3m2 0h1m2 0h1m1 0h3m2 0h2M5 30.5h9m1 0h3m3 0h5m1 0h1m2 0h5m3 0h1m2 0h1m1 0h1m2 0h1m2 0h2m1 0h5m1 0h4m2 0h2m2 0h2m1 0h1m1 0h7m1 0h1m1 0h1m4 0h1m1 0h3m1 0h1m1 0h6m1 0h2M4 31.5h1m1 0h1m1 0h1m3 0h1m2 0h4m1 0h1m3 0h1m2 0h2m1 0h1m3 0h2m1 0h8m1 0h1m1 0h5m3 0h2m2 0h1m1 0h1m1 0h1m1 0h5m1 0h1m1 0h1m3 0h1m2 0h1m1 0h2m2 0h1m3 0h1m1 0h1m1 0h2m3 0h1m2 0h2M8 32.5h1m1 0h1m1 0h1m3 0h1m1 0h1m4 0h3m1 0h4m1 0h1m1 0h3m1 0h1m1 0h1m2 0h1m1 0h3m3 0h2m1 0h1m1 0h1m1 0h4m2 0h1m3 0h1m1 0h1m3 0h1m1 0h1m1 0h2m2 0h3m1 0h1m2 0h1m4 0h3m1 0h1m1 0h2m1 0h2M4 33.5h2m1 0h2m3 0h1m6 0h5m4 0h3m3 0h1m2 0h2m3 0h6m2 0h3m3 0h2m1 0h1m1 0h2m3 0h1m2 0h3m1 0h2m3 0h1m5 0h1m1 0h4m2 0h2m2 0h1m3 0h5M4 34.5h2m1 0h6m3 0h1m3 0h1m3 0h2m1 0h10m4 0h2m1 0h1m1 0h1m1 0h2m1 0h7m3 0h1m3 0h1m2 0h1m1 0h1m1 0h1m1 0h6m1 0h1m1 0h8m5 0h5m1 0h2M4 35.5h1m2 0h1m4 0h3m2 0h3m1 0h1m2 0h4m2 0h2m3 0h1m4 0h2m1 0h2m1 0h2m4 0h2m2 0h1m1 0h2m3 0h2m1 0h1m2 0h3m1 0h1m1 0h2m2 0h2m1 0h1m4 0h4m3 0h1m3 0h1m2 0h2m1 0h1M4 36.5h8m3 0h3m1 0h2m1 0h1m2 0h5m1 0h3m2 0h1m1 0h1m1 0h1m1 0h2m2 0h1m2 0h2m1 0h1m1 0h1m1 0h1m1 0h1m2 0h1m1 0h1m2 0h1m1 0h2m2 0h2m6 0h1m4 0h1m1 0h1m4 0h1m2 0h1m1 0h1m6 0h1M6 37.5h4m2 0h4m2 0h1m1 0h1m1 0h2m2 0h1m1 0h5m5 0h2m4 0h2m1 0h1m2 0h1m1 0h1m2 0h2m5 0h3m4 0h3m2 0h2m1 0h1m2 0h1m3 0h1m7 0h2m5 0h2m1 0h2M4 38.5h1m1 0h1m3 0h3m3 0h1m1 0h2m1 0h2m2 0h1m2 0h1m2 0h1m2 0h1m2 0h1m2 0h2m1 0h2m1 0h1m1 0h1m1 0h1m4 0h5m1 0h1m1 0h4m1 0h4m8 0h1m3 0h5m2 0h1m1 0h1m1 0h3m3 0h2M7 39.5h1m1 0h1m1 0h1m1 0h2m1 0h2m1 0h3m1 0h1m1 0h2m2 0h1m1 0h2m1 0h1m2 0h1m1 0h2m1 0h3m1 0h1m2 0h2m2 0h1m1 0h1m1 0h3m1 0h1m3 0h3m5 0h1m1 0h2m1 0h1m3 0h2m3 0h1m2 0h1m1 0h2m4 0h1m2 0h1m1 0h1M6 40.5h2m2 0h2m2 0h2m1 0h2m3 0h1m1 0h3m1 0h2m2 0h1m5 0h8m1 0h3m4 0h2m1 0h1m2 0h3m2 0h1m2 0h1m1 0h1m1 0h2m1 0h1m1 0h1m4 0h2m3 0h3m1 0h1m3 0h3m2 0h2m1 0h1M4 41.5h2m3 0h1m1 0h2m3 0h1m1 0h1m1 0h1m1 0h2m2 0h1m1 0h2m1 0h1m5 0h4m1 0h4m4 0h2m4 0h1m1 0h1m2 0h1m1 0h3m2 0h1m1 0h2m1 0h1m2 0h1m3 0h2m2 0h2m1 0h2m1 0h3m2 0h2m3 0h1m1 0h1m1 0h1M7 42.5h4m2 0h5m1 0h1m5 0h2m1 0h1m2 0h2m1 0h6m1 0h5m1 0h1m1 0h4m1 0h2m1 0h3m1 0h1m4 0h1m3 0h1m1 0h2m1 0h1m2 0h1m1 0h1m1 0h1m1 0h3m1 0h3m1 0h1m3 0h2m2 0h1m1 0h2M4 43.5h1m1 0h4m2 0h5m3 0h1m1 0h1m1 0h4m2 0h3m1 0h1m4 0h2m5 0h3m2 0h1m3 0h1m1 0h3m1 0h1m1 0h2m2 0h1m1 0h5m1 0h1m1 0h4m1 0h1m2 0h2m2 0h1m1 0h1m1 0h2m2 0h2m3 0h2M8 44.5h5m1 0h2m1 0h3m1 0h1m1 0h3m1 0h2m1 0h1m1 0h2m2 0h1m4 0h1m2 0h1m3 0h6m2 0h1m3 0h1m1 0h1m1 0h5m2 0h2m1 0h2m1 0h1m1 0h2m1 0h4m1 0h3m1 0h1m1 0h1m5 0h5M7 45.5h1m3 0h2m2 0h1m1 0h1m1 0h1m1 0h2m3 0h1m1 0h3m2 0h3m2 0h1m1 0h1m3 0h2m5 0h1m1 0h1m3 0h2m1 0h3m1 0h1m2 0h1m4 0h4m3 0h1m2 0h1m1 0h4m1 0h1m3 0h2m2 0h5M4 46.5h1m2 0h2m1 0h2m3 0h4m2 0h1m1 0h1m1 0h2m5 0h2m2 0h1m3 0h1m1 0h2m1 0h3m2 0h2m2 0h4m1 0h4m6 0h1m1 0h3m1 0h7m4 0h1m5 0h1m2 0h2m1 0h1M7 47.5h3m2 0h2m4 0h1m1 0h2m2 0h2m4 0h1m3 0h1m2 0h1m1 0h1m1 0h1m1 0h1m2 0h1m1 0h1m2 0h1m3 0h5m1 0h1m1 0h8m2 0h8m2 0h2m3 0h1m6 0h3m2 0h1m1 0h1M4 48.5h1m1 0h5m1 0h2m1 0h1m2 0h1m2 0h1m2 0h2m1 0h1m1 0h1m1 0h2m1 0h4m2 0h1m1 0h2m1 0h7m1 0h1m2 0h2m4 0h1m3 0h4m2 0h1m3 0h2m5 0h1m1 0h2m1 0h5m1 0h1m1 0h1m2 0h1m4 0h1M5 49.5h1m3 0h1m1 0h1m1 0h1m3 0h1m1 0h1m1 0h1m1 0h1m1 0h1m2 0h1m1 0h2m1 0h2m6 0h1m1 0h3m2 0h1m1 0h1m1 0h1m3 0h1m1 0h2m3 0h1m3 0h2m1 0h1m3 0h1m4 0h2m2 0h4m1 0h1m1 0h2m2 0h1m4 0h1m3 0h1M5 50.5h1m1 0h5m1 0h1m3 0h1m2 0h1m1 0h1m2 0h6m1 0h2m1 0h3m1 0h2m1 0h1m3 0h3m2 0h1m4 0h1m2 0h1m1 0h1m1 0h2m2 0h1m3 0h5m1 0h1m5 0h1m4 0h1m1 0h2m3 0h1m2 0h3M4 51.5h2m1 0h3m6 0h1m1 0h2m1 0h1m1 0h4m1 0h1m1 0h1m1 0h1m1 0h1m1 0h2m1 0h1m1 0h3m1 0h1m2 0h1m2 0h2m1 0h3m2 0h1m1 0h1m1 0h5m2 0h1m2 0h2m2 0h1m2 0h1m3 0h1m1 0h3m1 0h2m1 0h1m3 0h2m1 0h2m2 0h1M8 52.5h7m2 0h6m5 0h1m1 0h8m2 0h1m4 0h4m1 0h7m1 0h4m2 0h1m1 0h1m1 0h1m1 0h1m1 0h1m1 0h7m4 0h2m2 0h1m1 0h1m2 0h8m1 0h2M4 53.5h1m1 0h1m1 0h1m3 0h1m1 0h2m2 0h2m4 0h1m1 0h1m1 0h3m3 0h1m2 0h2m6 0h2m3 0h1m1 0h1m3 0h1m3 0h1m1 0h2m2 0h1m3 0h1m2 0h2m3 0h2m2 0h1m1 0h1m1 0h1m5 0h1m1 0h1m1 0h1m3 0h1m1 0h1M4 54.5h1m2 0h2m1 0h1m1 0h1m1 0h2m2 0h1m1 0h4m2 0h1m2 0h2m1 0h1m1 0h1m1 0h1m2 0h1m2 0h2m1 0h1m1 0h1m1 0h4m1 0h1m1 0h1m2 0h1m1 0h2m2 0h2m1 0h2m2 0h1m1 0h1m1 0h1m1 0h2m1 0h4m1 0h1m2 0h1m2 0h1m1 0h3m1 0h1m1 0h1m1 0h1M8 55.5h1m3 0h1m2 0h1m1 0h1m4 0h3m1 0h1m2 0h2m3 0h5m3 0h2m7 0h2m3 0h3m2 0h2m4 0h2m5 0h1m3 0h1m1 0h3m3 0h1m1 0h2m1 0h1m3 0h2m3 0h1m1 0h1m1 0h1M6 56.5h8m1 0h2m5 0h1m1 0h1m2 0h1m2 0h8m4 0h1m2 0h3m3 0h9m1 0h2m3 0h1m1 0h1m4 0h7m1 0h1m1 0h1m6 0h1m1 0h1m1 0h1m1 0h8M9 57.5h1m1 0h1m2 0h1m1 0h2m1 0h2m1 0h1m6 0h3m2 0h1m1 0h1m1 0h3m2 0h1m2 0h3m2 0h1m2 0h1m1 0h3m2 0h5m2 0h1m3 0h1m7 0h1m2 0h2m1 0h1m1 0h2m1 0h2m8 0h1m2 0h1M7 58.5h1m1 0h4m2 0h1m2 0h2m1 0h6m1 0h5m1 0h2m1 0h2m1 0h1m3 0h1m3 0h2m2 0h1m2 0h1m2 0h1m1 0h3m3 0h1m2 0h3m6 0h1m3 0h2m2 0h1m2 0h4m6 0h1m2 0h1m1 0h1M5 59.5h2m4 0h3m2 0h1m3 0h4m1 0h1m2 0h1m3 0h1m3 0h2m3 0h2m2 0h1m1 0h2m2 0h2m2 0h1m2 0h1m1 0h1m1 0h1m1 0h3m3 0h1m1 0h2m4 0h3m1 0h5m3 0h4m2 0h1m1 0h1m2 0h2M4 60.5h1m2 0h4m2 0h5m1 0h3m2 0h2m4 0h1m4 0h1m2 0h2m1 0h3m1 0h1m2 0h2m2 0h2m1 0h2m5 0h1m1 0h4m2 0h2m2 0h1m5 0h1m1 0h1m3 0h3m1 0h1m1 0h1m1 0h1m3 0h2m1 0h1m1 0h2M5 61.5h2m1 0h2m1 0h5m3 0h1m3 0h1m1 0h1m2 0h1m1 0h1m2 0h4m1 0h2m3 0h1m1 0h1m1 0h1m1 0h1m1 0h4m3 0h1m3 0h2m1 0h1m3 0h1m1 0h1m5 0h2m1 0h1m2 0h2m1 0h1m1 0h4m1 0h2m1 0h2m3 0h1M4 62.5h3m2 0h2m2 0h1m2 0h6m2 0h1m3 0h2m1 0h3m11 0h3m1 0h2m3 0h2m1 0h3m1 0h1m5 0h1m4 0h1m3 0h1m6 0h1m5 0h1m1 0h4m1 0h1m1 0h1M4 63.5h2m1 0h2m5 0h2m5 0h1m1 0h3m6 0h1m1 0h1m1 0h2m1 0h1m1 0h1m1 0h1m1 0h2m1 0h3m1 0h3m5 0h3m2 0h2m2 0h1m5 0h1m3 0h1m1 0h2m1 0h4m2 0h2m3 0h1m6 0h1m1 0h1M4 64.5h1m1 0h1m3 0h1m2 0h2m4 0h2m2 0h1m2 0h1m2 0h4m3 0h2m1 0h2m2 0h1m2 0h2m1 0h9m1 0h1m1 0h2m6 0h1m2 0h2m1 0h1m1 0h1m2 0h3m1 0h2m2 0h1m1 0h1m1 0h1m1 0h2m3 0h1m1 0h3M6 65.5h4m1 0h1m1 0h2m2 0h1m1 0h3m1 0h1m2 0h2m3 0h1m2 0h1m1 0h2m2 0h2m2 0h1m2 0h1m1 0h1m1 0h1m3 0h1m1 0h2m1 0h2m2 0h2m3 0h1m1 0h2m1 0h4m1 0h2m1 0h4m4 0h1m1 0h1m3 0h2m3 0h1m1 0h1M4 66.5h3m1 0h1m1 0h1m2 0h1m1 0h2m2 0h1m2 0h2m2 0h1m2 0h1m1 0h1m2 0h1m3 0h2m2 0h1m1 0h2m2 0h4m2 0h2m3 0h1m2 0h1m1 0h1m2 0h1m4 0h5m1 0h2m3 0h1m1 0h2m1 0h2m2 0h3m1 0h2m1 0h3m1 0h2M5 67.5h1m2 0h1m2 0h1m9 0h1m1 0h1m1 0h2m2 0h2m2 0h2m1 0h1m1 0h1m2 0h2m3 0h2m1 0h1m2 0h8m2 0h5m3 0h2m9 0h1m1 0h2m2 0h2m2 0h1m2 0h2m2 0h2m1 0h2m1 0h1M4 68.5h1m1 0h5m1 0h2m1 0h2m1 0h2m2 0h3m1 0h1m1 0h1m6 0h2m4 0h1m1 0h4m2 0h1m2 0h5m2 0h1m1 0h6m4 0h3m2 0h1m2 0h1m2 0h2m1 0h2m3 0h2m1 0h1m1 0h4m1 0h4M4 69.5h5m5 0h2m1 0h4m1 0h1m1 0h2m2 0h2m15 0h3m1 0h1m2 0h1m3 0h1m2 0h1m1 0h3m1 0h3m3 0h1m2 0h1m5 0h1m5 0h4m1 0h2m1 0h2m1 0h2M4 70.5h2m2 0h4m1 0h1m2 0h2m1 0h1m1 0h1m1 0h1m2 0h5m1 0h3m3 0h3m3 0h1m7 0h2m1 0h1m1 0h1m3 0h1m1 0h2m2 0h1m1 0h1m2 0h3m2 0h1m2 0h1m1 0h1m1 0h1m1 0h1m1 0h1m1 0h3m3 0h5m1 0h3M5 71.5h1m1 0h1m3 0h3m1 0h2m1 0h3m1 0h1m1 0h1m1 0h2m1 0h2m4 0h5m2 0h2m1 0h8m1 0h2m1 0h1m2 0h1m3 0h1m4 0h2m3 0h4m5 0h3m1 0h1m2 0h3m2 0h2m1 0h1m1 0h3M7 72.5h1m2 0h4m2 0h1m1 0h1m1 0h1m1 0h3m5 0h1m3 0h1m3 0h2m2 0h1m1 0h2m1 0h8m2 0h2m2 0h1m1 0h1m1 0h1m2 0h2m2 0h3m3 0h1m1 0h1m1 0h2m2 0h1m4 0h5m2 0h1m2 0h1m1 0h1M6 73.5h1m1 0h1m2 0h1m1 0h1m5 0h3m1 0h1m1 0h1m2 0h1m3 0h2m2 0h1m1 0h2m1 0h2m1 0h1m5 0h1m2 0h3m3 0h1m5 0h2m1 0h3m3 0h1m2 0h1m4 0h1m1 0h2m4 0h4m2 0h1m2 0h1m1 0h3M6 74.5h1m1 0h7m1 0h1m1 0h1m3 0h4m2 0h1m1 0h6m1 0h3m1 0h3m1 0h4m1 0h7m6 0h2m1 0h3m1 0h3m1 0h6m2 0h2m3 0h2m4 0h8m1 0h1m1 0h1M5 75.5h2m1 0h1m3 0h2m1 0h1m2 0h1m3 0h2m1 0h1m1 0h2m1 0h1m3 0h1m3 0h3m4 0h1m2 0h1m3 0h1m3 0h1m2 0h4m1 0h2m4 0h1m3 0h1m3 0h2m2 0h1m2 0h8m2 0h2m3 0h1M6 76.5h3m1 0h1m1 0h1m3 0h1m1 0h1m3 0h1m2 0h2m3 0h1m1 0h1m1 0h4m2 0h1m1 0h2m1 0h1m2 0h2m1 0h2m1 0h1m1 0h1m1 0h1m1 0h1m2 0h1m1 0h3m1 0h6m1 0h1m1 0h2m2 0h2m1 0h1m1 0h4m3 0h1m1 0h1m1 0h1m1 0h5M5 77.5h1m2 0h1m3 0h2m1 0h2m1 0h6m4 0h1m1 0h1m3 0h1m2 0h2m1 0h2m1 0h4m4 0h2m3 0h2m7 0h3m1 0h2m3 0h1m3 0h3m2 0h1m2 0h2m2 0h2m1 0h1m1 0h2m3 0h1m2 0h1M6 78.5h8m6 0h1m1 0h1m2 0h1m1 0h1m1 0h6m2 0h1m2 0h1m3 0h15m2 0h1m1 0h2m2 0h1m5 0h6m3 0h1m1 0h3m1 0h1m2 0h1m1 0h2m1 0h9M11 79.5h2m2 0h2m6 0h2m1 0h1m1 0h1m1 0h1m1 0h2m1 0h2m1 0h1m2 0h4m1 0h2m1 0h2m1 0h1m1 0h3m2 0h1m3 0h3m1 0h1m1 0h2m3 0h1m1 0h1m3 0h1m3 0h1m3 0h3m1 0h3m3 0h2m1 0h1m1 0h2M4 80.5h8m3 0h1m1 0h4m3 0h6m1 0h1m1 0h1m4 0h1m2 0h5m3 0h6m1 0h3m3 0h1m2 0h1m1 0h1m1 0h2m1 0h1m2 0h3m2 0h1m1 0h1m2 0h4m4 0h6m3 0h1M8 81.5h2m3 0h1m1 0h1m1 0h1m1 0h1m1 0h1m1 0h1m2 0h1m1 0h1m1 0h5m2 0h1m2 0h1m5 0h2m1 0h4m1 0h1m2 0h1m2 0h1m2 0h2m3 0h3m1 0h4m5 0h1m1 0h2m1 0h1m4 0h2m1 0h1m3 0h1m4 0h2M4 82.5h1m1 0h1m1 0h5m1 0h6m1 0h1m2 0h2m1 0h3m2 0h6m3 0h1m1 0h6m4 0h2m1 0h3m3 0h4m2 0h1m1 0h1m1 0h3m1 0h1m1 0h1m1 0h3m2 0h4m2 0h1m1 0h2m1 0h4m3 0h2M4 83.5h1m1 0h1m2 0h1m3 0h1m3 0h1m1 0h3m2 0h2m1 0h1m5 0h3m1 0h1m1 0h1m1 0h3m1 0h2m1 0h3m1 0h2m1 0h5m8 0h2m3 0h5m1 0h1m1 0h1m1 0h2m2 0h3m1 0h8m4 0h1M7 84.5h5m1 0h2m1 0h1m4 0h3m1 0h1m3 0h3m3 0h3m2 0h1m2 0h2m8 0h2m1 0h1m2 0h1m4 0h2m1 0h2m1 0h1m2 0h1m1 0h2m1 0h1m1 0h4m2 0h2m3 0h4m3 0h2m1 0h3M7 85.5h2m3 0h1m1 0h2m1 0h2m2 0h2m1 0h4m1 0h1m2 0h1m3 0h3m1 0h4m2 0h1m1 0h1m4 0h2m1 0h4m1 0h2m1 0h3m1 0h5m3 0h3m6 0h2m4 0h1m4 0h8M5 86.5h3m1 0h2m2 0h1m1 0h1m2 0h4m1 0h3m3 0h1m4 0h1m1 0h3m3 0h1m1 0h2m2 0h2m3 0h1m1 0h5m4 0h1m1 0h2m1 0h1m1 0h1m1 0h1m1 0h1m4 0h1m2 0h1m1 0h1m1 0h1m2 0h2m2 0h8m1 0h1M6 87.5h3m3 0h3m7 0h2m1 0h1m3 0h1m4 0h1m4 0h2m1 0h1m1 0h2m1 0h1m1 0h1m1 0h7m1 0h1m3 0h1m3 0h1m1 0h1m2 0h1m1 0h1m3 0h2m2 0h1m1 0h1m2 0h2m2 0h4m3 0h1m2 0h2m1 0h1M5 88.5h1m1 0h1m2 0h4m1 0h1m1 0h1m2 0h1m3 0h1m2 0h2m2 0h9m1 0h2m3 0h1m5 0h1m1 0h2m1 0h2m1 0h1m1 0h2m4 0h2m1 0h2m1 0h1m3 0h1m1 0h1m1 0h1m5 0h2m1 0h1m2 0h4m1 0h1m3 0h2M4 89.5h1m3 0h2m1 0h3m1 0h1m4 0h1m1 0h2m3 0h1m2 0h1m1 0h1m1 0h2m1 0h1m1 0h2m3 0h1m1 0h1m1 0h1m2 0h5m1 0h4m1 0h3m1 0h2m1 0h4m2 0h2m2 0h1m2 0h1m3 0h4m1 0h3m1 0h1m1 0h1m2 0h2m1 0h1M4 90.5h1m3 0h4m3 0h1m6 0h2m2 0h1m1 0h1m5 0h2m4 0h1m1 0h2m2 0h2m1 0h2m1 0h2m2 0h3m1 0h3m3 0h2m3 0h1m2 0h1m2 0h2m3 0h7m1 0h2m3 0h3m3 0h3M5 91.5h1m2 0h2m6 0h1m4 0h1m1 0h2m1 0h3m3 0h2m4 0h2m6 0h1m4 0h4m1 0h1m2 0h1m1 0h2m1 0h7m2 0h1m2 0h4m3 0h1m2 0h2m1 0h1m2 0h2m2 0h1m4 0h2m1 0h1M4 92.5h1m2 0h5m1 0h1m1 0h4m2 0h1m1 0h1m11 0h2m2 0h1m1 0h1m8 0h3m2 0h1m6 0h4m1 0h1m2 0h1m5 0h3m3 0h1m2 0h2m2 0h1m3 0h3m1 0h1m1 0h1m2 0h1m1 0h1M4 93.5h1m1 0h2m3 0h5m3 0h1m1 0h2m6 0h2m1 0h2m4 0h1m4 0h1m1 0h1m1 0h3m2 0h1m1 0h1m1 0h1m4 0h1m1 0h2m2 0h1m2 0h2m1 0h2m1 0h1m1 0h1m2 0h1m2 0h1m1 0h5m1 0h2m1 0h6m1 0h1M4 94.5h1m2 0h2m1 0h2m1 0h2m2 0h2m2 0h1m1 0h5m1 0h1m1 0h1m1 0h3m1 0h2m1 0h1m1 0h1m1 0h2m4 0h2m1 0h2m1 0h1m1 0h2m2 0h1m1 0h2m2 0h1m2 0h1m1 0h1m1 0h1m2 0h1m1 0h2m2 0h1m1 0h2m1 0h4m4 0h2m1 0h1m2 0h2M4 95.5h1m1 0h2m1 0h1m1 0h2m1 0h1m7 0h2m1 0h1m2 0h4m3 0h1m2 0h2m1 0h1m1 0h2m1 0h1m2 0h4m2 0h1m1 0h2m2 0h1m6 0h1m3 0h1m1 0h1m1 0h1m1 0h1m3 0h3m3 0h2m4 0h1m1 0h1m1 0h1m4 0h1M8 96.5h1m1 0h1m2 0h2m3 0h1m2 0h1m2 0h5m1 0h6m1 0h4m1 0h3m3 0h3m1 0h7m2 0h7m3 0h2m1 0h5m1 0h1m2 0h2m1 0h2m2 0h1m2 0h2m1 0h7M12 97.5h4m1 0h1m1 0h1m1 0h4m2 0h2m1 0h1m3 0h1m2 0h1m1 0h2m1 0h1m2 0h1m4 0h1m1 0h1m3 0h8m2 0h1m1 0h1m3 0h3m3 0h2m1 0h1m1 0h1m1 0h2m1 0h1m1 0h3m2 0h2m3 0h2M4 98.5h7m1 0h1m1 0h2m1 0h2m1 0h5m2 0h4m1 0h1m1 0h1m4 0h2m1 0h1m1 0h2m3 0h2m1 0h1m1 0h1m1 0h3m2 0h2m4 0h2m3 0h1m1 0h1m1 0h1m1 0h2m1 0h2m1 0h2m4 0h1m1 0h5m1 0h1m1 0h2m1 0h1M4 99.5h1m5 0h1m1 0h1m1 0h1m2 0h2m2 0h3m2 0h1m1 0h3m3 0h3m1 0h2m4 0h5m2 0h2m3 0h6m1 0h1m2 0h1m3 0h2m2 0h1m3 0h3m2 0h1m1 0h3m3 0h1m1 0h4m3 0h1M4 100.5h1m1 0h3m1 0h1m4 0h6m2 0h1m3 0h2m1 0h5m5 0h5m6 0h7m1 0h2m2 0h3m3 0h2m3 0h5m2 0h2m6 0h1m2 0h1m2 0h8m1 0h1M4 101.5h1m1 0h3m1 0h1m3 0h1m2 0h1m4 0h3m1 0h3m3 0h1m2 0h1m4 0h1m2 0h2m4 0h1m5 0h1m1 0h2m1 0h1m7 0h3m1 0h1m2 0h5m3 0h8m8 0h1M4 102.5h1m1 0h3m1 0h1m3 0h2m1 0h3m1 0h2m3 0h1m5 0h2m1 0h2m3 0h1m1 0h1m2 0h2m1 0h1m2 0h2m4 0h3m1 0h2m1 0h1m2 0h1m1 0h1m2 0h5m7 0h4m2 0h3m5 0h1m4 0h1M4 103.5h1m5 0h1m1 0h3m4 0h3m4 0h1m1 0h3m2 0h1m1 0h1m1 0h2m2 0h4m2 0h1m1 0h5m7 0h1m1 0h1m1 0h2m4 0h2m4 0h2m2 0h5m2 0h7m3 0h2m1 0h1m2 0h1M4 104.5h7m1 0h6m2 0h2m1 0h2m3 0h2m6 0h2m2 0h1m4 0h1m4 0h1m6 0h1m3 0h1m1 0h1m2 0h2m1 0h2m2 0h3m6 0h2m1 0h2m1 0h3m3 0h1m1 0h4m2 0h1"/></svg>
