<svg xmlns="http://www.w3.org/2000/svg" viewBox="0 0 109 109" shape-rendering="crispEdges"><path fill="#ffffff" d="M0 0h109v109H0z"/><path stroke="#000000" d="M4 4.5h7m1 0h2m1 0h1m1 0h2m1 0h1m1 0h1m1 0h2m1 0h1m1 0h6m1 0h3m1 0h6m1 0h1m2 0h1m4 0h1m5 0h1m2 0h1m1 0h1m1 0h4m2 0h3m1 0h3m1 0h1m1 0h3m3 0h1m3 0h2m2 0h7M4 5.5h1m5 0h1m2 0h2m1 0h2m1 0h3m1 0h2m1 0h1m1 0h1m3 0h8m1 0h4m3 0h1m3 0h2m2 0h3m1 0h2m1 0h5m4 0h1m3 0h1m4 0h1m2 0h3m1 0h1m3 0h1m5 0h1m5 0h1M4 6.5h1m1 0h3m1 0h1m2 0h2m2 0h3m1 0h1m2 0h2m1 0h1m8 0h3m4 0h1m2 0h3m4 0h2m4 0h1m7 0h1m2 0h2m1 0h2m3 0h6m3 0h1m3 0h1m1 0h1m1 0h1m2 0h1m1 0h3m1 0h1M4 7.5h1m1 0h3m1 0h1m2 0h2m1 0h3m5 0h1m1 0h1m1 0h3m2 0h1m3 0h1m2 0h1m1 0h2m2 0h2m5 0h2m2 0h1m2 0h1m2 0h1m1 0h1m1 0h1m2 0h2m2 0h2m2 0h3m2 0h2m3 0h1m5 0h2m2 0h1m1 0h3m1 0h1M4 8.5h1m1 0h3m1 0h1m3 0h2m2 0h1m2 0h1m2 0h1m2 0h1m1 0h7m1 0h9m1 0h1m1 0h2m1 0h5m1 0h3m2 0h1m1 0h2m1 0h2m1 0h1m1 0h6m3 0h2m1 0h1m2 0h7m1 0h1m1 0h1m1 0h3m1 0h1M4 9.5h1m5 0h1m4 0h4m3 0h1m2 0h4m1 0h1m3 0h1m1 0h3m1 0h2m2 0h3m3 0h3m3 0h1m3 0h1m1 0h2m2 0h1m2 0h2m1 0h3m3 0h3m2 0h1m1 0h2m1 0h1m1 0h2m1 0h1m1 0h1m2 0h1m5 0h1M4 10.5h7m1 0h1m1 0h1m1 0h1m1 0h1m1 0h1m1 0h1m1 0h1m1 0h1m1 0h1m1 0h1m1 0h1m1 0h1m1 0h1m1 0h1m1 0h1m1 0h1m1 0h1m1 0h1m1 0h1m1 0h1m1 0h1m1 0h1m1 0h1m1 0h1m1 0h1m1 0h1m1 0h1m1 0h1m1 0h1m1 0h1m1 0h1m1 0h1m1 0h1m1 0h1m1 0h1m1 0h1m1 0h1m1 0h1m1 0h1m1 0h1m1 0h1m1 0h1m1 0h1m1 0h7M12 11.5h3m1 0h1m4 0h3m6 0h1m3 0h2m1 0h2m5 0h1m1 0h1m1 0h3m1 0h1m3 0h1m1 0h1m1 0h1m1 0h2m3 0h1m1 0h2m1 0h1m1 0h1m3 0h1m1 0h2m1 0h2m2 0h1m1 0h1m1 0h1m1 0h4M4 12.5h2m1 0h2m1 0h1m5 0h1m2 0h2m1 0h2m1 0h10m1 0h1m1 0h1m1 0h5m1 0h1m2 0h2m1 0h8m2 0h1m1 0h1m2 0h1m1 0h1m4 0h5m1 0h2m2 0h3m1 0h2m2 0h1m1 0h1m1 0h1m1 0h1m5 0h1M5 13.5h1m2 0h2m4 0h1m1 0h2m1 0h3m4 0h3m2 0h1m4 0h1m1 0h1m2 0h5m1 0h3m1 0h1m1 0h2m2 0h4m2 0h2m1 0h4m2 0h3m1 0h1m3 0h3m2 0h2m2 0h4m1 0h1m1 0h1m1 0h1m2 0h3M4 14.5h1m5 0h8m3 0h1m1 0h1m2 0h2m3 0h9m1 0h1m1 0h2m1 0h2m4 0h4m4 0h2m1 0h1m1 0h1m1 0h1m1 0h4m3 0h2m2 0h1m1 0h2m1 0h7m2 0h1m1 0h3m1 0h1m2 0h2M4 15.5h1m7 0h1m5 0h1m1 0h1m1 0h3m3 0h3m1 0h1m5 0h2m1 0h3m2 0h3m1 0h3m5 0h1m2 0h1m1 0h4m3 0h1m2 0h2m3 0h1m19 0h3m2 0h1M5 16.5h3m2 0h1m4 0h2m6 0h2m1 0h5m1 0h1m2 0h1m1 0h1m2 0h1m1 0h2m5 0h2m2 0h2m2 0h2m2 0h1m4 0h5m1 0h2m1 0h1m1 0h1m1 0h2m1 0h1m1 0h1m1 0h3m1 0h1m1 0h1m2 0h1m1 0h1m1 0h3m2 0h1M5 17.5h2m1 0h1m3 0h1m4 0h1m1 0h2m1 0h1m2 0h1m1 0h6m3 0h1m3 0h1m5 0h1m3 0h1m1 0h4m1 0h2m1 0h2m2 0h2m2 0h2m1 0h2m3 0h1m1 0h3m3 0h2m4 0h1m1 0h1m3 0h1m2 0h1m1 0h3M4 18.5h1m3 0h4m1 0h3m1 0h6m2 0h1m2 0h1m3 0h3m4 0h2m1 0h1m1 0h2m1 0h1m1 0h7m5 0h1m1 0h1m1 0h1m1 0h4m2 0h1m2 0h1m2 0h1m1 0h1m1 0h1m1 0h1m2 0h2m3 0h5m4 0h3M5 19.5h2m2 0h1m1 0h1m1 0h2m1 0h2m3 0h1m2 0h3m1 0h1m1 0h1m1 0h3m1 0h1m1 0h6m2 0h2m3 0h2m1 0h1m2 0h4m2 0h2m2 0h2m2 0h1m1 0h2m1 0h2m2 0h1m2 0h2m4 0h1m1 0h2m1 0h1m3 0h2m1 0h2M4 20.5h2m1 0h2m1 0h2m1 0h1m1 0h1m10 0h3m1 0h1m2 0h1m2 0h1m2 0h3m1 0h1m2 0h2m1 0h1m1 0h2m2 0h5m1 0h1m2 0h2m1 0h4m2 0h5m2 0h1m3 0h2m1 0h1m1 0h1m1 0h2m1 0h3m3 0h1m2 0h1M4 21.5h2m2 0h1m2 0h1m2 0h2m3 0h3m1 0h1m3 0h2m1 0h1m3 0h1m3 0h1m1 0h1m2 0h1m1 0h1m2 0h1m4 0h1m1 0h3m1 0h4m6 0h1m1 0h1m3 0h2m1 0h5m1 0h4m4 0h4m7 0h1M5 22.5h2m3 0h3m1 0h2m2 0h1m1 0h1m1 0h2m5 0h1m1 0h6m4 0h2m1 0h1m1 0h1m1 0h1m1 0h3m1 0h2m1 0h1m2 0h3m2 0h2m2 0h2m1 0h2m1 0h2m1 0h1m4 0h1m1 0h3m2 0h1m2 0h2m1 0h1m1 0h2m2 0h1M4 23.5h1m2 0h3m6 0h1m13 0h1m1 0h1m1 0h6m9 0h1m1 0h3m1 0h1m1 0h3m4 0h1m1 0h2m1 0h1m1 0h1m1 0h6m1 0h1m1 0h2m1 0h4m1 0h2m1 0h1m2 0h5m1 0h1m1 0h1M5 24.5h2m1 0h1m1 0h5m5 0h2m1 0h4m2 0h4m2 0h1m3 0h1m2 0h2m2 0h2m2 0h2m1 0h3m2 0h1m9 0h1m3 0h5m2 0h1m2 0h2m4 0h3m5 0h3m2 0h1m2 0h1M4 25.5h6m1 0h2m1 0h3m2 0h1m1 0h1m2 0h6m1 0h4m1 0h1m1 0h4m1 0h2m3 0h1m1 0h1m5 0h1m3 0h2m1 0h1m4 0h10m2 0h1m7 0h1m1 0h1m5 0h4m1 0h1m1 0h1M4 26.5h7m2 0h1m1 0h2m1 0h2m2 0h2m1 0h3m2 0h2m1 0h1m3 0h2m1 0h1m1 0h1m2 0h6m3 0h1m1 0h1m2 0h1m1 0h1m1 0h1m2 0h2m1 0h1m1 0h1m2 0h2m2 0h4m1 0h1m1 0h1m1 0h2m2 0h1m1 0h3m1 0h2m1 0h2M4 27.5h1m1 0h1m8 0h1m1 0h5m3 0h3m6 0h2m3 0h2m4 0h2m1 0h1m1 0h2m1 0h1m2 0h3m1 0h1m2 0h2m1 0h3m1 0h1m2 0h1m1 0h1m6 0h1m2 0h1m2 0h1m2 0h1m3 0h2m2 0h3m1 0h2M4 28.5h1m1 0h3m1 0h3m1 0h1m3 0h2m4 0h3m1 0h1m1 0h1m3 0h3m1 0h2m2 0h8m1 0h1m1 0h2m2 0h1m1 0h2m1 0h6m3 0h2m4 0h1m2 0h1m1 0h1m3 0h2m1 0h1m5 0h1m1 0h1m1 0h1m1 0h4M4 29.5h1m1 0h1m1 0h2m1 0h8m2 0h4m2 0h2m1 0h1m4 0h2m1 0h3m2 0h1m1 0h3m1 0h1m1 0h1m3 0h1m3 0h2m2 0h1m1 0h1m1 0h8m1 0h1m4 0h3m1 0h1m3 0h1m1 0h2m2 0h1m2 0h2m2 0h1M7 30.5h7m2 0h1m3 0h1m3 0h1m1 0h1m3 0h5m1 0h4m2 0h2m2 0h4m2 0h5m2 0h1m5 0h2m2 0h2m1 0h9m2 0h2m4 0h1m6 0h6m2 0h1M5 31.5h1m1 0h2m3 0h1m2 0h1m2 0h2m1 0h3m2 0h3m1 0h1m3 0h2m1 0h1m1 0h4m3 0h1m1 0h5m3 0h1m1 0h5m1 0h2m1 0h1m1 0h1m1 0h2m1 0h1m3 0h3m2 0h3m1 0h1m1 0h2m2 0h4m3 0h5M6 32.5h3m1 0h1m1 0h6m1 0h1m1 0h2m2 0h2m1 0h1m1 0h1m1 0h1m1 0h1m4 0h2m3 0h1m3 0h3m1 0h1m1 0h1m1 0h1m1 0h2m3 0h4m1 0h2m1 0h4m1 0h1m1 0h1m2 0h1m1 0h2m1 0h3m1 0h1m3 0h1m1 0h1m1 0h1m1 0h1m1 0h3M8 33.5h1m3 0h2m1 0h2m2 0h1m4 0h2m2 0h3m3 0h2m2 0h1m1 0h1m1 0h1m2 0h4m1 0h1m1 0h1m3 0h1m1 0h1m1 0h2m2 0h1m1 0h1m7 0h1m3 0h1m1 0h1m3 0h1m1 0h4m1 0h1m1 0h1m2 0h1m3 0h4M8 34.5h5m3 0h1m3 0h1m5 0h3m1 0h13m1 0h2m1 0h1m2 0h12m3 0h2m1 0h1m2 0h11m3 0h1m3 0h4m1 0h1m1 0h5m1 0h1m1 0h1M4 35.5h3m5 0h1m1 0h1m2 0h1m1 0h1m1 0h1m2 0h2m1 0h1m5 0h2m1 0h1m1 0h2m2 0h4m1 0h1m1 0h1m1 0h1m1 0h2m1 0h2m1 0h2m5 0h1m1 0h6m3 0h2m2 0h1m5 0h1m2 0h1m1 0h1m2 0h7m1 0h1M4 36.5h1m3 0h3m1 0h1m5 0h1m1 0h6m1 0h1m2 0h2m2 0h1m1 0h4m1 0h2m3 0h4m1 0h2m6 0h2m1 0h1m2 0h1m2 0h1m1 0h1m1 0h1m3 0h3m1 0h1m1 0h4m1 0h2m2 0h1m3 0h1m2 0h1m2 0h4M4 37.5h1m4 0h1m1 0h1m2 0h1m2 0h2m1 0h2m1 0h1m1 0h3m2 0h2m1 0h1m1 0h1m1 0h3m3 0h3m2 0h3m2 0h2m1 0h3m1 0h1m2 0h1m1 0h2m1 0h1m1 0h2m1 0h3m5 0h1m5 0h9m2 0h2m1 0h3M4 38.5h2m1 0h2m1 0h1m1 0h1m2 0h2m1 0h3m1 0h1m1 0h2m3 0h1m1 0h2m1 0h2m3 0h2m1 0h1m2 0h1m1 0h2m1 0h3m1 0h1m2 0h1m3 0h2m1 0h2m3 0h1m2 0h3m2 0h2m1 0h1m1 0h1m5 0h1m2 0h1m1 0h1m2 0h1m3 0h2M4 39.5h1m3 0h1m2 0h2m1 0h3m1 0h4m1 0h3m1 0h1m1 0h3m1 0h4m4 0h2m5 0h1m1 0h4m1 0h1m5 0h3m4 0h1m1 0h1m1 0h5m3 0h1m3 0h3m2 0h1m2 0h4m2 0h3m1 0h3M4 40.5h3m1 0h7m1 0h2m4 0h1m1 0h1m2 0h4m2 0h2m1 0h1m1 0h5m3 0h2m2 0h1m1 0h4m1 0h3m1 0h1m1 0h2m1 0h4m1 0h1m2 0h1m1 0h4m2 0h1m5 0h2m1 0h2m1 0h4m2 0h4M4 41.5h1m2 0h1m1 0h1m2 0h2m1 0h1m1 0h2m4 0h2m1 0h1m5 0h1m1 0h1m6 0h1m1 0h1m2 0h2m2 0h3m1 0h1m1 0h1m3 0h1m4 0h2m1 0h3m1 0h2m1 0h2m2 0h1m1 0h1m1 0h1m4 0h2m3 0h2m1 0h2m1 0h4m1 0h1M4 42.5h8m1 0h2m2 0h3m1 0h2m2 0h2m8 0h1m2 0h1m1 0h2m2 0h3m1 0h3m2 0h2m1 0h2m1 0h3m6 0h1m1 0h2m1 0h5m1 0h1m2 0h1m3 0h2m1 0h4m1 0h4m2 0h1m3 0h1M6 43.5h4m4 0h2m4 0h2m1 0h3m1 0h2m1 0h3m1 0h2m3 0h1m2 0h4m3 0h1m2 0h2m1 0h1m1 0h2m2 0h6m3 0h2m2 0h2m3 0h3m3 0h1m1 0h3m1 0h1m1 0h1m1 0h4m2 0h1m2 0h1M7 44.5h1m1 0h2m1 0h1m1 0h1m1 0h2m4 0h1m1 0h1m1 0h1m1 0h3m1 0h1m4 0h3m1 0h5m7 0h2m2 0h2m2 0h1m2 0h6m6 0h2m2 0h2m2 0h2m3 0h1m6 0h1m2 0h3m1 0h2M6 45.5h1m4 0h2m2 0h2m3 0h1m3 0h4m4 0h2m1 0h1m4 0h1m2 0h2m1 0h1m1 0h1m2 0h2m1 0h1m1 0h3m1 0h1m1 0h1m3 0h1m6 0h3m1 0h1m1 0h2m3 0h3m1 0h1m3 0h2m1 0h1m1 0h3m2 0h1m1 0h1M4 46.5h2m4 0h3m3 0h1m1 0h1m1 0h3m2 0h1m1 0h4m3 0h1m2 0h1m1 0h4m1 0h1m2 0h1m1 0h1m1 0h4m2 0h1m1 0h4m2 0h2m1 0h1m1 0h1m1 0h2m4 0h3m3 0h1m1 0h7m3 0h2m5 0h2M4 47.5h2m5 0h1m2 0h1m1 0h1m3 0h1m1 0h1m5 0h1m3 0h1m1 0h3m1 0h1m2 0h2m1 0h4m6 0h3m1 0h1m1 0h2m3 0h2m1 0h3m1 0h3m3 0h4m2 0h3m2 0h1m1 0h1m1 0h4m1 0h1m1 0h3m1 0h1M4 48.5h1m1 0h1m2 0h3m4 0h4m1 0h1m1 0h1m1 0h3m1 0h1m1 0h1m1 0h1m1 0h1m1 0h1m3 0h3m1 0h1m1 0h7m1 0h1m3 0h1m2 0h3m3 0h1m1 0h1m2 0h3m1 0h1m3 0h1m1 0h1m3 0h1m1 0h1m1 0h2m3 0h4m1 0h1m1 0h2M4 49.5h1m2 0h1m1 0h1m3 0h1m2 0h1m1 0h1m1 0h2m1 0h1m1 0h2m4 0h3m3 0h1m3 0h2m3 0h1m1 0h3m3 0h4m2 0h2m1 0h1m1 0h3m1 0h1m2 0h1m2 0h2m2 0h2m5 0h1m3 0h10M6 50.5h1m1 0h6m2 0h2m2 0h1m3 0h2m1 0h2m1 0h6m3 0h1m1 0h5m1 0h3m1 0h1m2 0h1m3 0h1m1 0h3m4 0h2m2 0h2m1 0h1m2 0h3m4 0h3m1 0h1m3 0h4m2 0h1m3 0h2M8 51.5h2m1 0h1m2 0h3m2 0h1m1 0h1m1 0h2m1 0h1m1 0h3m2 0h1m2 0h1m1 0h3m2 0h4m3 0h2m2 0h1m2 0h1m1 0h2m1 0h3m1 0h1m1 0h6m1 0h2m1 0h1m2 0h1m2 0h3m1 0h1m1 0h3m1 0h2m1 0h1m1 0h1m1 0h1m2 0h1M6 52.5h8m1 0h2m1 0h2m5 0h2m1 0h7m2 0h1m1 0h2m3 0h1m1 0h4m1 0h7m1 0h1m3 0h2m1 0h1m2 0h2m1 0h1m1 0h5m1 0h1m2 0h3m2 0h2m2 0h1m1 0h8m1 0h2M4 53.5h2m1 0h2m3 0h4m6 0h1m2 0h1m1 0h4m3 0h1m1 0h1m1 0h1m2 0h2m1 0h2m1 0h2m2 0h2m3 0h3m1 0h3m1 0h1m2 0h2m3 0h3m3 0h1m1 0h1m1 0h4m1 0h2m5 0h3m3 0h3M5 54.5h4m1 0h1m1 0h7m1 0h1m3 0h3m1 0h3m1 0h1m1 0h1m1 0h1m1 0h1m2 0h2m1 0h1m1 0h4m1 0h2m1 0h1m1 0h1m2 0h2m1 0h2m3 0h1m3 0h1m1 0h2m1 0h1m1 0h1m3 0h1m1 0h1m2 0h1m3 0h3m2 0h1m1 0h1m1 0h1M4 55.5h1m1 0h1m1 0h1m3 0h2m3 0h4m2 0h1m1 0h2m1 0h1m1 0h1m3 0h2m4 0h1m1 0h1m4 0h1m4 0h1m3 0h1m1 0h1m1 0h4m5 0h1m1 0h2m1 0h1m3 0h1m1 0h2m3 0h2m5 0h1m3 0h1m3 0h1m2 0h2M4 56.5h1m3 0h5m1 0h3m1 0h2m3 0h1m1 0h3m2 0h5m2 0h1m4 0h6m1 0h10m2 0h1m1 0h3m1 0h1m1 0h1m2 0h8m2 0h2m1 0h1m4 0h1m1 0h3m1 0h8M4 57.5h2m1 0h2m2 0h1m1 0h6m1 0h1m2 0h1m1 0h2m8 0h3m3 0h1m6 0h1m6 0h1m2 0h1m3 0h2m2 0h1m4 0h2m3 0h6m3 0h1m5 0h1m3 0h2m1 0h2M4 58.5h3m3 0h1m4 0h2m2 0h2m1 0h3m1 0h2m4 0h1m1 0h2m2 0h2m2 0h2m1 0h1m4 0h2m1 0h1m1 0h2m1 0h5m1 0h1m1 0h1m3 0h2m1 0h2m1 0h3m2 0h2m5 0h1m2 0h2m1 0h3m2 0h1m2 0h3M4 59.5h2m1 0h1m4 0h2m2 0h2m1 0h1m2 0h5m1 0h1m1 0h2m1 0h1m3 0h2m1 0h1m2 0h1m1 0h3m1 0h4m1 0h2m2 0h4m1 0h2m1 0h3m1 0h1m5 0h1m1 0h8m1 0h1m1 0h1m2 0h3m3 0h1m1 0h2m2 0h1M4 60.5h1m1 0h2m2 0h2m4 0h1m2 0h3m1 0h1m1 0h2m1 0h1m2 0h2m2 0h3m3 0h2m2 0h3m1 0h3m1 0h3m1 0h1m1 0h2m2 0h2m2 0h2m2 0h2m5 0h3m1 0h1m1 0h1m2 0h4m1 0h1m1 0h2m7 0h1M7 61.5h1m1 0h1m3 0h3m1 0h1m4 0h2m1 0h1m1 0h2m1 0h1m1 0h1m1 0h1m3 0h2m1 0h2m1 0h1m2 0h1m2 0h2m5 0h4m1 0h1m1 0h4m1 0h1m2 0h1m1 0h1m1 0h1m3 0h2m3 0h1m1 0h5m1 0h1m1 0h2m1 0h1m1 0h3M4 62.5h1m1 0h2m2 0h1m3 0h2m1 0h1m4 0h1m5 0h1m1 0h2m2 0h6m1 0h2m2 0h3m4 0h1m2 0h1m2 0h1m2 0h2m1 0h4m1 0h1m4 0h4m1 0h2m1 0h2m1 0h1m2 0h4m1 0h4m1 0h2m2 0h3M4 63.5h1m1 0h1m1 0h1m3 0h1m1 0h1m2 0h1m1 0h1m1 0h2m2 0h5m1 0h5m3 0h1m6 0h1m1 0h5m1 0h2m2 0h1m1 0h2m2 0h1m1 0h4m2 0h1m1 0h3m1 0h1m2 0h4m8 0h7m2 0h1m1 0h1M4 64.5h1m3 0h3m1 0h1m1 0h1m1 0h2m1 0h2m1 0h1m2 0h1m2 0h2m3 0h4m1 0h1m3 0h1m2 0h2m2 0h1m1 0h1m2 0h3m1 0h1m1 0h1m5 0h2m2 0h1m1 0h2m1 0h2m1 0h3m1 0h1m1 0h2m1 0h2m2 0h2m6 0h1m1 0h2M7 65.5h2m2 0h2m2 0h1m4 0h2m1 0h1m3 0h1m1 0h1m3 0h1m6 0h2m5 0h2m1 0h1m1 0h1m4 0h5m1 0h1m1 0h1m4 0h3m1 0h1m1 0h1m1 0h1m2 0h1m1 0h1m2 0h1m3 0h7m2 0h1m1 0h1m2 0h1M4 66.5h1m1 0h2m2 0h4m2 0h2m4 0h3m1 0h1m1 0h1m1 0h2m6 0h1m1 0h3m1 0h4m2 0h1m3 0h1m1 0h5m5 0h1m1 0h2m1 0h2m3 0h1m2 0h3m1 0h1m1 0h3m1 0h2m1 0h1m1 0h8m1 0h1M4 67.5h1m1 0h2m1 0h1m1 0h1m2 0h2m4 0h1m2 0h1m3 0h1m1 0h5m3 0h1m2 0h1m2 0h1m1 0h2m1 0h2m1 0h1m2 0h1m1 0h1m1 0h2m2 0h3m4 0h2m1 0h1m2 0h2m2 0h2m4 0h4m1 0h1m1 0h1m3 0h2m1 0h4m1 0h1M4 68.5h2m2 0h3m1 0h3m3 0h2m1 0h4m7 0h1m1 0h2m1 0h2m4 0h3m1 0h2m2 0h2m3 0h1m1 0h5m3 0h2m1 0h1m2 0h1m8 0h1m2 0h1m2 0h1m3 0h1m1 0h1m1 0h1m1 0h1m2 0h2m2 0h1M7 69.5h2m2 0h2m1 0h2m1 0h2m1 0h2m1 0h3m1 0h4m1 0h2m2 0h1m3 0h5m5 0h3m3 0h2m4 0h1m2 0h2m1 0h2m1 0h2m4 0h1m1 0h2m1 0h1m1 0h3m7 0h2m1 0h1m4 0h1m1 0h1M5 70.5h4m1 0h1m1 0h3m1 0h1m1 0h1m7 0h5m1 0h5m2 0h1m2 0h2m1 0h2m1 0h1m4 0h2m2 0h1m3 0h3m1 0h3m1 0h1m1 0h1m2 0h1m1 0h1m7 0h2m1 0h1m2 0h1m2 0h1m1 0h1m1 0h1m1 0h2m1 0h3M7 71.5h1m1 0h1m1 0h6m2 0h1m1 0h1m1 0h3m1 0h2m2 0h1m1 0h1m1 0h4m1 0h1m1 0h3m2 0h3m1 0h2m1 0h1m3 0h1m1 0h5m2 0h1m1 0h1m1 0h1m3 0h2m3 0h2m3 0h2m4 0h3m2 0h1M4 72.5h1m2 0h1m2 0h5m1 0h1m1 0h2m1 0h1m1 0h3m2 0h1m2 0h2m6 0h1m4 0h4m2 0h1m2 0h1m1 0h2m7 0h1m1 0h1m2 0h1m2 0h1m1 0h2m1 0h2m1 0h2m3 0h3m1 0h3m1 0h2m3 0h2m3 0h2M4 73.5h1m3 0h2m1 0h2m1 0h1m2 0h2m2 0h1m1 0h1m2 0h1m5 0h1m3 0h1m2 0h1m1 0h1m2 0h1m1 0h1m1 0h1m1 0h1m1 0h1m1 0h1m1 0h1m1 0h1m1 0h2m1 0h3m3 0h1m1 0h4m1 0h5m1 0h1m2 0h1m1 0h2m2 0h4m1 0h5m2 0h2M8 74.5h6m1 0h1m4 0h1m6 0h1m1 0h6m3 0h3m4 0h13m2 0h3m1 0h3m4 0h1m1 0h6m2 0h2m1 0h3m1 0h2m1 0h2m1 0h7m1 0h1M5 75.5h1m2 0h1m3 0h2m4 0h2m2 0h1m3 0h3m1 0h1m3 0h1m1 0h1m2 0h1m3 0h3m1 0h1m4 0h1m3 0h3m2 0h2m4 0h3m4 0h1m3 0h5m1 0h1m2 0h4m3 0h3m3 0h4M8 76.5h1m1 0h1m1 0h2m3 0h1m2 0h1m1 0h5m2 0h2m1 0h1m1 0h6m1 0h1m1 0h4m1 0h2m1 0h2m1 0h1m1 0h1m2 0h1m3 0h1m2 0h4m1 0h2m1 0h1m1 0h1m1 0h1m3 0h2m1 0h1m1 0h3m1 0h1m1 0h2m1 0h1m1 0h1m1 0h2m1 0h2M5 77.5h1m1 0h2m3 0h1m2 0h1m1 0h3m2 0h4m1 0h1m1 0h2m3 0h2m1 0h1m4 0h1m1 0h1m1 0h1m1 0h1m3 0h1m3 0h1m2 0h3m4 0h1m1 0h3m2 0h2m3 0h2m1 0h3m2 0h1m2 0h1m3 0h1m2 0h1m3 0h2M6 78.5h7m3 0h4m1 0h4m5 0h5m8 0h2m3 0h2m2 0h6m1 0h1m2 0h2m4 0h5m1 0h5m2 0h1m1 0h3m1 0h1m1 0h2m2 0h2m1 0h6m2 0h1M5 79.5h1m2 0h2m2 0h2m1 0h1m1 0h1m1 0h1m2 0h1m1 0h2m1 0h1m3 0h2m3 0h2m4 0h1m3 0h2m1 0h3m2 0h1m1 0h2m1 0h2m1 0h3m3 0h1m2 0h2m8 0h2m7 0h1m5 0h1m1 0h1m1 0h3M4 80.5h3m1 0h3m3 0h5m3 0h2m2 0h1m3 0h2m1 0h5m6 0h1m1 0h1m5 0h2m1 0h2m1 0h1m2 0h1m1 0h2m1 0h1m2 0h7m1 0h2m3 0h5m1 0h3m3 0h2m1 0h3m2 0h2M4 81.5h2m2 0h1m2 0h5m2 0h1m2 0h1m6 0h1m3 0h1m1 0h1m1 0h2m1 0h2m6 0h5m2 0h1m1 0h1m1 0h7m1 0h3m3 0h2m2 0h1m1 0h5m1 0h3m3 0h7m2 0h1M6 82.5h2m1 0h2m1 0h1m2 0h2m1 0h1m1 0h3m3 0h3m2 0h1m2 0h1m1 0h1m1 0h2m1 0h1m1 0h1m1 0h1m3 0h1m1 0h2m1 0h1m1 0h1m3 0h2m1 0h1m4 0h2m1 0h2m2 0h3m2 0h3m2 0h1m1 0h1m1 0h2m1 0h3m3 0h3m2 0h1M4 83.5h1m1 0h1m1 0h1m2 0h2m1 0h3m2 0h2m1 0h3m3 0h3m2 0h2m2 0h1m1 0h1m7 0h1m6 0h1m1 0h1m1 0h2m4 0h2m2 0h5m1 0h1m1 0h2m2 0h2m2 0h4m1 0h3m1 0h2m4 0h6M4 84.5h1m1 0h2m2 0h1m1 0h2m1 0h1m2 0h2m2 0h1m6 0h1m1 0h2m1 0h1m3 0h4m3 0h3m1 0h3m1 0h1m3 0h1m1 0h1m1 0h2m2 0h1m4 0h1m2 0h3m2 0h3m1 0h1m1 0h4m1 0h1m1 0h5m1 0h2m3 0h2M5 85.5h2m4 0h1m1 0h5m1 0h1m2 0h3m3 0h1m1 0h3m3 0h2m1 0h4m2 0h1m1 0h2m4 0h2m2 0h2m1 0h2m1 0h2m1 0h1m1 0h1m1 0h1m1 0h2m2 0h2m3 0h1m2 0h1m1 0h2m1 0h2m3 0h1m1 0h3m1 0h1m3 0h1M5 86.5h1m2 0h6m1 0h1m1 0h3m2 0h1m1 0h1m1 0h3m5 0h1m3 0h2m1 0h2m3 0h2m3 0h5m1 0h3m1 0h2m1 0h1m1 0h1m1 0h1m1 0h1m2 0h1m4 0h1m4 0h1m2 0h4m1 0h2m3 0h1m2 0h1m1 0h2m1 0h1M4 87.5h1m1 0h2m3 0h1m2 0h2m4 0h1m2 0h2m1 0h3m3 0h2m3 0h3m2 0h3m1 0h1m1 0h1m1 0h2m1 0h3m1 0h3m3 0h2m2 0h3m1 0h1m1 0h3m1 0h1m2 0h3m4 0h8m2 0h4m1 0h3M4 88.5h1m1 0h1m1 0h3m2 0h2m1 0h7m1 0h4m3 0h1m4 0h2m3 0h3m1 0h1m4 0h1m1 0h1m1 0h4m3 0h1m2 0h2m1 0h1m2 0h1m2 0h1m2 0h3m1 0h1m5 0h1m1 0h1m1 0h1m2 0h1m2 0h1m2 0h1m1 0h1M5 89.5h2m4 0h1m3 0h4m3 0h1m1 0h2m4 0h1m4 0h3m1 0h1m1 0h3m1 0h1m4 0h2m3 0h4m1 0h4m1 0h1m2 0h3m2 0h3m1 0h2m1 0h2m2 0h2m1 0h3m3 0h4m3 0h1M4 90.5h2m1 0h1m1 0h3m6 0h2m3 0h1m3 0h2m1 0h2m3 0h3m2 0h3m1 0h1m1 0h2m1 0h1m2 0h1m1 0h1m4 0h1m1 0h1m1 0h2m3 0h2m1 0h1m1 0h4m1 0h1m5 0h1m2 0h3m1 0h1m1 0h4m6 0h1M8 91.5h2m2 0h6m7 0h1m1 0h1m1 0h1m1 0h1m2 0h3m3 0h3m3 0h1m2 0h1m1 0h6m2 0h1m2 0h1m3 0h1m1 0h2m2 0h2m2 0h1m4 0h3m1 0h1m3 0h1m3 0h6m4 0h1M4 92.5h1m1 0h1m1 0h1m1 0h1m3 0h3m2 0h4m2 0h1m2 0h4m1 0h4m1 0h4m1 0h1m1 0h4m4 0h1m1 0h1m3 0h2m2 0h2m1 0h1m3 0h1m6 0h4m1 0h3m3 0h4m1 0h1m1 0h1m1 0h1m1 0h4M4 93.5h1m1 0h2m6 0h2m1 0h2m5 0h1m1 0h3m2 0h5m2 0h3m1 0h1m1 0h2m3 0h3m1 0h1m4 0h1m2 0h3m1 0h5m2 0h4m1 0h2m3 0h2m1 0h1m2 0h1m1 0h2m2 0h1m2 0h1m2 0h2M4 94.5h1m2 0h2m1 0h1m2 0h1m4 0h1m4 0h5m2 0h2m2 0h1m1 0h4m2 0h1m2 0h3m1 0h3m1 0h1m2 0h1m2 0h1m2 0h1m3 0h1m4 0h2m1 0h2m1 0h1m1 0h1m5 0h1m2 0h1m1 0h6m1 0h3m1 0h1M4 95.5h1m1 0h2m1 0h1m3 0h3m2 0h1m1 0h2m1 0h2m1 0h1m2 0h1m2 0h1m1 0h1m3 0h2m2 0h1m2 0h2m2 0h2m4 0h1m5 0h1m3 0h3m3 0h1m1 0h2m1 0h2m2 0h3m3 0h1m1 0h5m1 0h1m1 0h1m1 0h2m1 0h1M8 96.5h1m1 0h2m1 0h1m4 0h3m1 0h2m1 0h1m1 0h1m2 0h5m1 0h1m3 0h1m1 0h2m2 0h2m1 0h1m1 0h6m1 0h1m2 0h1m2 0h1m2 0h1m2 0h2m1 0h6m1 0h1m2 0h3m3 0h16M12 97.5h2m3 0h1m1 0h1m2 0h1m1 0h4m1 0h2m3 0h1m2 0h3m1 0h2m3 0h1m1 0h1m2 0h2m3 0h1m3 0h2m4 0h1m1 0h3m3 0h1m3 0h1m5 0h1m6 0h2m2 0h2m3 0h2M4 98.5h7m3 0h1m1 0h3m1 0h3m2 0h1m2 0h3m1 0h1m1 0h3m3 0h7m1 0h1m1 0h1m1 0h1m1 0h1m1 0h3m1 0h2m1 0h2m4 0h1m1 0h1m2 0h1m1 0h1m1 0h1m4 0h8m1 0h2m2 0h1m1 0h1m1 0h3m1 0h1M4 99.5h1m5 0h1m2 0h1m1 0h3m5 0h3m1 0h1m2 0h1m3 0h1m2 0h2m1 0h1m1 0h2m1 0h3m1 0h2m1 0h1m3 0h1m1 0h2m2 0h2m2 0h2m1 0h1m2 0h3m3 0h5m1 0h3m3 0h4m2 0h1m3 0h1m1 0h1m1 0h1M4 100.5h1m1 0h3m1 0h1m1 0h1m4 0h1m3 0h2m1 0h3m2 0h10m2 0h3m2 0h2m4 0h6m1 0h5m1 0h1m1 0h3m1 0h8m6 0h2m1 0h2m4 0h7m1 0h2M4 101.5h1m1 0h3m1 0h1m1 0h6m2 0h4m1 0h1m1 0h1m2 0h1m1 0h1m1 0h1m1 0h3m1 0h1m3 0h1m1 0h2m2 0h1m4 0h1m2 0h2m2 0h1m2 0h4m2 0h2m1 0h2m1 0h1m4 0h2m1 0h2m2 0h1m4 0h4m1 0h4M4 102.5h1m1 0h3m1 0h1m2 0h3m2 0h2m2 0h1m2 0h5m1 0h1m1 0h3m1 0h3m3 0h2m1 0h1m1 0h2m2 0h3m1 0h1m2 0h1m2 0h1m1 0h2m6 0h2m2 0h2m1 0h2m2 0h1m2 0h2m2 0h1m1 0h1m1 0h1m1 0h1m1 0h3m2 0h2M4 103.5h1m5 0h1m1 0h1m5 0h3m2 0h4m4 0h1m1 0h3m1 0h1m2 0h7m1 0h1m1 0h5m4 0h2m4 0h1m2 0h1m1 0h1m1 0h1m3 0h2m1 0h6m1 0h1m2 0h1m3 0h4m1 0h1m2 0h2m1 0h1M4 104.5h7m1 0h4m1 0h3m6 0h1m1 0h1m2 0h1m1 0h2m2 0h1m1 0h1m3 0h1m2 0h2m3 0h6m1 0h5m1 0h1m1 0h2m3 0h3m2 0h1m3 0h3m1 0h4m1 0h3m9 0h1"/></svg>
