<svg xmlns="http://www.w3.org/2000/svg" viewBox="0 0 113 113" shape-rendering="crispEdges"><path fill="#ffffff" d="M0 0h113v113H0z"/><path stroke="#000000" d="M4 4.5h7m3 0h2m2 0h1m2 0h1m3 0h1m3 0h2m1 0h1m1 0h1m1 0h2m1 0h1m1 0h3m1 0h1m4 0h4m5 0h4m6 0h3m1 0h1m4 0h2m2 0h3m1 0h2m6 0h3m1 0h1m3 0h7M4 5.5h1m5 0h1m4 0h1m1 0h2m1 0h4m1 0h6m6 0h2m1 0h3m3 0h1m1 0h1m5 0h2m3 0h1m1 0h4m1 0h1m2 0h1m1 0h1m1 0h2m3 0h2m1 0h1m3 0h1m1 0h1m2 0h2m1 0h3m2 0h1m3 0h1m5 0h1M4 6.5h1m1 0h3m1 0h1m3 0h2m1 0h2m2 0h3m1 0h1m1 0h1m1 0h2m4 0h4m1 0h4m2 0h3m4 0h1m4 0h1m5 0h3m1 0h4m1 0h1m3 0h1m1 0h1m1 0h2m4 0h1m1 0h1m2 0h2m3 0h3m2 0h1m1 0h3m1 0h1M4 7.5h1m1 0h3m1 0h1m1 0h1m1 0h1m1 0h1m2 0h2m1 0h2m1 0h1m1 0h3m2 0h2m4 0h1m3 0h2m2 0h2m3 0h6m1 0h6m3 0h2m1 0h4m3 0h3m1 0h6m1 0h3m2 0h1m1 0h1m4 0h1m1 0h1m1 0h3m1 0h1M4 8.5h1m1 0h3m1 0h1m1 0h1m1 0h1m2 0h3m3 0h10m2 0h2m1 0h3m3 0h2m1 0h1m3 0h6m4 0h1m4 0h3m1 0h2m4 0h5m4 0h2m1 0h1m5 0h1m1 0h1m2 0h2m1 0h1m1 0h3m1 0h1M4 9.5h1m5 0h1m4 0h1m2 0h4m2 0h1m1 0h3m3 0h2m2 0h2m1 0h3m1 0h1m2 0h1m1 0h2m2 0h1m3 0h2m2 0h4m1 0h1m1 0h2m1 0h2m1 0h1m1 0h2m3 0h1m1 0h3m1 0h2m1 0h2m3 0h3m2 0h1m2 0h1m5 0h1M4 10.5h7m1 0h1m1 0h1m1 0h1m1 0h1m1 0h1m1 0h1m1 0h1m1 0h1m1 0h1m1 0h1m1 0h1m1 0h1m1 0h1m1 0h1m1 0h1m1 0h1m1 0h1m1 0h1m1 0h1m1 0h1m1 0h1m1 0h1m1 0h1m1 0h1m1 0h1m1 0h1m1 0h1m1 0h1m1 0h1m1 0h1m1 0h1m1 0h1m1 0h1m1 0h1m1 0h1m1 0h1m1 0h1m1 0h1m1 0h1m1 0h1m1 0h1m1 0h1m1 0h1m1 0h1m1 0h1m1 0h7M15 11.5h1m5 0h2m3 0h3m3 0h2m1 0h1m2 0h2m3 0h1m1 0h1m1 0h1m2 0h1m1 0h1m3 0h1m2 0h1m2 0h1m1 0h1m1 0h2m1 0h1m2 0h5m3 0h1m1 0h4m1 0h1m5 0h2m2 0h1m2 0h1M4 12.5h2m3 0h3m2 0h1m1 0h1m4 0h4m1 0h7m1 0h3m2 0h2m1 0h3m1 0h3m3 0h5m3 0h2m1 0h3m1 0h3m2 0h1m3 0h7m1 0h2m1 0h2m1 0h1m1 0h1m3 0h1m2 0h2m3 0h2M4 13.5h2m1 0h1m3 0h2m1 0h1m1 0h1m1 0h1m1 0h1m1 0h4m1 0h3m4 0h1m1 0h1m4 0h7m3 0h3m1 0h1m1 0h2m5 0h1m2 0h2m6 0h1m6 0h5m3 0h3m3 0h2m1 0h1m6 0h1M6 14.5h3m1 0h2m3 0h1m4 0h1m1 0h1m2 0h4m1 0h1m2 0h3m4 0h1m5 0h2m1 0h2m1 0h4m1 0h1m2 0h5m4 0h1m1 0h1m1 0h2m1 0h1m2 0h1m1 0h2m1 0h3m1 0h2m1 0h1m1 0h1m1 0h1m1 0h1m5 0h1m2 0h3M5 15.5h2m7 0h6m1 0h2m1 0h1m2 0h2m4 0h1m1 0h1m2 0h2m2 0h10m1 0h1m1 0h4m2 0h2m1 0h2m2 0h1m1 0h1m1 0h2m1 0h1m1 0h1m4 0h3m1 0h2m3 0h1m1 0h1m1 0h2m5 0h1m1 0h2m2 0h1M9 16.5h5m2 0h1m1 0h2m1 0h3m3 0h3m2 0h1m1 0h4m1 0h1m1 0h3m4 0h1m2 0h3m1 0h1m3 0h3m2 0h3m2 0h1m3 0h5m1 0h2m1 0h2m3 0h5m1 0h3m2 0h2m2 0h1m1 0h5M5 17.5h2m1 0h2m1 0h1m3 0h2m1 0h2m1 0h1m1 0h1m1 0h2m1 0h1m4 0h3m1 0h1m1 0h1m1 0h1m1 0h1m1 0h1m1 0h1m3 0h1m3 0h3m3 0h1m2 0h1m3 0h3m1 0h5m1 0h1m3 0h1m1 0h4m2 0h1m1 0h2m2 0h2m4 0h1m1 0h1M5 18.5h2m2 0h3m1 0h1m2 0h2m2 0h2m2 0h2m1 0h1m3 0h1m2 0h1m1 0h2m1 0h2m2 0h2m1 0h1m3 0h1m1 0h2m9 0h2m1 0h1m1 0h1m4 0h5m5 0h7m4 0h1m1 0h1m1 0h4m1 0h1m1 0h2m1 0h1M4 19.5h5m3 0h2m1 0h1m1 0h1m3 0h1m1 0h2m1 0h1m1 0h3m1 0h1m4 0h1m1 0h1m2 0h1m2 0h2m1 0h1m2 0h2m4 0h1m1 0h4m1 0h3m1 0h3m1 0h1m3 0h4m5 0h3m1 0h5m1 0h1m1 0h2m1 0h1m2 0h2m1 0h1m1 0h1M5 20.5h1m2 0h1m1 0h1m1 0h1m3 0h1m2 0h1m1 0h1m1 0h1m2 0h1m2 0h3m3 0h6m3 0h4m5 0h3m2 0h4m3 0h4m6 0h3m1 0h6m1 0h3m1 0h2m1 0h1m1 0h3m1 0h1m1 0h1m3 0h2M6 21.5h4m5 0h3m6 0h3m3 0h1m4 0h4m1 0h2m2 0h1m1 0h1m1 0h6m1 0h1m1 0h5m1 0h1m2 0h1m1 0h2m2 0h2m1 0h2m1 0h1m1 0h3m4 0h1m3 0h3m1 0h1m1 0h4m1 0h2m1 0h2m1 0h1M5 22.5h1m1 0h4m2 0h1m3 0h1m3 0h1m2 0h3m1 0h4m1 0h2m6 0h5m3 0h2m1 0h1m1 0h1m1 0h5m1 0h3m3 0h2m2 0h3m2 0h1m1 0h1m1 0h1m1 0h2m2 0h1m1 0h1m1 0h1m1 0h4m1 0h2m1 0h1m2 0h1m1 0h3M4 23.5h3m4 0h1m1 0h1m2 0h1m1 0h2m1 0h1m4 0h3m1 0h4m4 0h1m1 0h2m1 0h3m2 0h1m1 0h2m1 0h1m4 0h2m1 0h1m1 0h2m4 0h2m4 0h1m3 0h1m3 0h2m7 0h1m2 0h1m1 0h1m2 0h2m1 0h1m3 0h2M4 24.5h4m1 0h2m3 0h2m1 0h2m2 0h2m2 0h2m2 0h1m1 0h2m1 0h1m6 0h8m5 0h2m2 0h3m2 0h1m1 0h1m3 0h3m1 0h2m3 0h2m3 0h4m1 0h3m2 0h1m2 0h2m1 0h1m1 0h4m1 0h1m1 0h1M4 25.5h2m2 0h1m2 0h2m2 0h3m1 0h1m2 0h1m3 0h3m2 0h3m4 0h1m1 0h1m2 0h1m1 0h2m1 0h1m1 0h1m1 0h1m3 0h2m1 0h1m6 0h1m1 0h2m1 0h2m2 0h2m1 0h1m2 0h3m1 0h1m3 0h4m1 0h2m1 0h5m1 0h1m2 0h2M6 26.5h1m2 0h3m1 0h3m2 0h1m5 0h1m2 0h1m2 0h3m1 0h2m2 0h1m1 0h1m6 0h1m1 0h1m1 0h2m2 0h1m1 0h2m2 0h2m3 0h1m2 0h2m2 0h2m3 0h2m2 0h4m2 0h1m1 0h2m1 0h7m2 0h2m1 0h1m1 0h2M6 27.5h2m3 0h6m1 0h1m1 0h1m3 0h2m3 0h1m2 0h3m2 0h1m1 0h3m4 0h2m1 0h2m2 0h1m1 0h3m1 0h6m2 0h3m3 0h3m1 0h1m1 0h4m1 0h1m1 0h3m3 0h2m1 0h2m5 0h5M6 28.5h7m2 0h1m2 0h2m3 0h2m1 0h8m1 0h6m1 0h1m1 0h5m1 0h1m1 0h6m1 0h1m3 0h2m6 0h1m2 0h1m1 0h5m3 0h1m2 0h1m1 0h2m1 0h1m2 0h11m2 0h1M4 29.5h2m2 0h1m3 0h1m4 0h1m1 0h1m1 0h1m1 0h4m1 0h1m3 0h1m1 0h1m1 0h2m5 0h2m1 0h3m1 0h1m1 0h1m3 0h2m1 0h1m2 0h1m2 0h3m2 0h1m1 0h1m1 0h1m1 0h1m3 0h6m1 0h3m4 0h3m3 0h1m3 0h2m2 0h1M8 30.5h1m1 0h1m1 0h2m1 0h1m1 0h1m4 0h1m2 0h4m1 0h1m1 0h1m2 0h1m1 0h1m1 0h8m2 0h1m1 0h2m1 0h1m1 0h3m3 0h1m2 0h1m2 0h2m1 0h1m1 0h1m1 0h2m1 0h1m1 0h3m1 0h2m2 0h1m1 0h3m1 0h3m3 0h1m1 0h1m1 0h2m1 0h1M4 31.5h1m1 0h3m3 0h1m1 0h3m1 0h1m1 0h1m4 0h4m3 0h1m3 0h3m7 0h2m2 0h1m1 0h1m3 0h1m1 0h1m1 0h1m1 0h3m1 0h1m2 0h2m1 0h2m2 0h1m3 0h1m1 0h2m1 0h1m2 0h2m2 0h2m1 0h1m2 0h3m3 0h1M4 32.5h2m2 0h5m1 0h2m2 0h2m1 0h5m1 0h6m1 0h1m1 0h1m2 0h1m1 0h2m1 0h2m2 0h3m1 0h5m2 0h1m1 0h1m1 0h1m3 0h5m2 0h1m1 0h5m2 0h4m2 0h1m1 0h3m2 0h1m1 0h1m1 0h6m1 0h2M4 33.5h2m2 0h1m2 0h1m2 0h3m5 0h2m1 0h1m2 0h2m3 0h1m2 0h1m1 0h2m4 0h5m2 0h1m1 0h3m2 0h2m2 0h1m5 0h3m4 0h2m1 0h1m3 0h2m1 0h2m2 0h1m1 0h5m5 0h4m1 0h3M5 34.5h1m1 0h1m2 0h7m1 0h5m2 0h2m4 0h1m1 0h1m2 0h1m10 0h1m2 0h1m4 0h1m1 0h4m1 0h1m1 0h2m3 0h4m1 0h1m1 0h1m1 0h8m3 0h1m1 0h1m1 0h1m3 0h4m1 0h3m3 0h1M6 35.5h1m1 0h2m1 0h2m3 0h1m1 0h5m1 0h2m2 0h1m3 0h1m1 0h2m5 0h1m2 0h2m1 0h6m1 0h2m1 0h3m1 0h5m3 0h3m1 0h1m2 0h2m1 0h4m2 0h1m1 0h2m2 0h1m1 0h1m2 0h1m1 0h1m3 0h1m4 0h1M10 36.5h1m1 0h3m1 0h1m1 0h1m2 0h6m1 0h2m1 0h2m1 0h1m5 0h1m5 0h1m2 0h1m1 0h2m4 0h1m3 0h4m1 0h2m1 0h1m4 0h4m1 0h1m3 0h2m4 0h2m1 0h2m3 0h1m2 0h2m3 0h2m1 0h1M4 37.5h1m1 0h2m3 0h1m1 0h1m2 0h3m1 0h4m7 0h4m2 0h2m1 0h3m3 0h1m1 0h2m1 0h6m2 0h1m1 0h1m1 0h1m1 0h1m2 0h6m2 0h3m2 0h1m5 0h1m4 0h1m1 0h1m1 0h1m1 0h1m3 0h2m2 0h3M5 38.5h1m1 0h2m1 0h3m3 0h2m1 0h1m1 0h4m1 0h2m1 0h2m3 0h2m2 0h2m3 0h1m3 0h1m1 0h1m1 0h1m1 0h1m2 0h2m3 0h2m1 0h2m3 0h2m2 0h2m3 0h1m2 0h1m3 0h1m2 0h1m1 0h1m1 0h1m1 0h1m1 0h2m2 0h1m2 0h1m3 0h2M4 39.5h1m1 0h4m2 0h1m1 0h6m4 0h2m2 0h1m1 0h1m1 0h3m1 0h2m1 0h3m1 0h4m5 0h1m5 0h1m1 0h2m3 0h5m3 0h2m1 0h1m2 0h1m4 0h1m2 0h1m2 0h1m1 0h1m3 0h2m3 0h1m2 0h1m1 0h2M5 40.5h1m1 0h1m1 0h3m3 0h4m1 0h1m1 0h2m1 0h1m2 0h1m2 0h1m1 0h2m2 0h2m1 0h2m1 0h2m2 0h1m4 0h2m2 0h2m1 0h1m2 0h1m1 0h1m1 0h1m2 0h1m1 0h1m1 0h2m4 0h1m1 0h3m1 0h2m1 0h1m1 0h1m1 0h5m1 0h1m2 0h2m3 0h3M5 41.5h1m1 0h1m1 0h1m1 0h1m9 0h1m1 0h2m4 0h2m3 0h1m2 0h4m1 0h1m2 0h4m1 0h2m4 0h4m2 0h1m3 0h2m2 0h4m1 0h1m1 0h3m1 0h1m1 0h1m1 0h3m1 0h1m1 0h4m4 0h1m2 0h1m2 0h4M4 42.5h1m2 0h1m1 0h2m1 0h2m1 0h4m1 0h1m2 0h2m2 0h1m2 0h2m1 0h3m1 0h1m1 0h1m5 0h3m2 0h4m7 0h1m3 0h1m1 0h2m1 0h1m1 0h2m4 0h1m2 0h1m2 0h3m5 0h1m1 0h3m2 0h2m2 0h1m1 0h1m2 0h1M7 43.5h1m1 0h1m2 0h3m1 0h3m1 0h1m1 0h3m1 0h1m1 0h2m1 0h1m4 0h3m2 0h1m2 0h1m1 0h1m3 0h1m3 0h1m2 0h3m1 0h2m1 0h1m1 0h1m1 0h1m4 0h2m1 0h2m2 0h2m1 0h2m1 0h1m1 0h3m1 0h4m1 0h2m3 0h2m1 0h1m1 0h2M7 44.5h1m1 0h3m2 0h1m2 0h4m1 0h1m1 0h3m4 0h2m2 0h1m1 0h2m1 0h1m1 0h3m2 0h7m1 0h2m3 0h1m2 0h1m1 0h1m1 0h3m2 0h3m4 0h1m2 0h2m2 0h4m1 0h2m2 0h1m2 0h2m1 0h5m2 0h1M4 45.5h1m1 0h1m1 0h1m2 0h4m2 0h2m2 0h1m1 0h1m1 0h2m1 0h1m1 0h1m1 0h1m6 0h1m5 0h1m2 0h1m2 0h1m2 0h2m3 0h2m2 0h1m1 0h2m1 0h5m1 0h1m1 0h1m1 0h2m2 0h1m1 0h1m1 0h1m1 0h2m1 0h1m4 0h1m1 0h1m2 0h1m2 0h1m2 0h1M4 46.5h1m1 0h1m3 0h1m1 0h1m3 0h10m1 0h4m2 0h3m1 0h1m3 0h1m1 0h1m1 0h2m1 0h1m1 0h1m5 0h6m3 0h1m2 0h3m2 0h1m1 0h2m1 0h7m2 0h3m1 0h3m2 0h2m1 0h2m2 0h1m1 0h1m1 0h2M4 47.5h1m3 0h2m6 0h3m3 0h1m1 0h2m2 0h1m2 0h4m3 0h2m1 0h1m1 0h1m4 0h1m3 0h1m2 0h1m2 0h1m1 0h1m1 0h4m3 0h1m7 0h1m1 0h2m1 0h1m2 0h1m1 0h2m1 0h1m3 0h3m7 0h1m1 0h2M4 48.5h1m1 0h2m2 0h3m1 0h2m2 0h1m1 0h2m2 0h1m2 0h2m1 0h4m3 0h2m1 0h3m1 0h2m2 0h3m1 0h1m2 0h5m2 0h2m2 0h3m1 0h2m2 0h1m3 0h9m5 0h2m1 0h1m1 0h1m1 0h1m1 0h1m1 0h3m1 0h1M6 49.5h1m1 0h2m3 0h4m1 0h4m1 0h2m1 0h1m1 0h1m1 0h3m4 0h2m1 0h1m3 0h1m2 0h2m1 0h1m2 0h2m4 0h4m1 0h1m3 0h4m2 0h1m1 0h2m3 0h1m3 0h2m6 0h2m3 0h2m2 0h1m2 0h1M4 50.5h3m3 0h1m1 0h4m3 0h2m1 0h6m1 0h1m1 0h2m2 0h6m3 0h2m1 0h1m1 0h3m4 0h1m2 0h1m4 0h1m1 0h1m1 0h1m1 0h2m3 0h1m3 0h1m1 0h6m2 0h3m4 0h2m2 0h1m4 0h1m1 0h1M5 51.5h4m3 0h1m2 0h1m2 0h4m1 0h3m2 0h2m1 0h1m1 0h2m1 0h1m1 0h1m1 0h1m5 0h2m1 0h1m1 0h1m3 0h1m1 0h1m1 0h3m1 0h1m2 0h6m2 0h3m2 0h1m1 0h1m2 0h2m2 0h2m2 0h1m2 0h1m2 0h5m1 0h3M6 52.5h7m1 0h1m1 0h2m1 0h2m1 0h4m1 0h7m4 0h1m1 0h1m4 0h2m2 0h1m2 0h6m2 0h2m1 0h1m1 0h1m1 0h1m2 0h5m1 0h9m2 0h1m1 0h2m2 0h2m1 0h1m3 0h5m2 0h1M5 53.5h1m2 0h1m3 0h1m1 0h1m1 0h1m2 0h2m3 0h1m1 0h1m1 0h1m3 0h1m2 0h2m3 0h1m1 0h4m2 0h5m3 0h1m1 0h1m2 0h3m1 0h1m1 0h1m1 0h4m1 0h3m3 0h2m2 0h3m6 0h1m6 0h1m3 0h5M4 54.5h1m1 0h1m1 0h1m1 0h1m1 0h2m2 0h1m3 0h2m1 0h1m1 0h1m1 0h2m1 0h1m1 0h2m3 0h7m2 0h1m1 0h1m3 0h1m1 0h1m1 0h1m5 0h1m1 0h1m4 0h2m2 0h1m2 0h1m1 0h1m1 0h2m1 0h1m6 0h1m4 0h6m1 0h1m1 0h5M5 55.5h2m1 0h1m3 0h3m5 0h3m1 0h1m1 0h3m3 0h4m2 0h2m1 0h2m1 0h1m1 0h3m1 0h1m1 0h1m3 0h4m1 0h1m2 0h5m1 0h1m1 0h3m1 0h1m3 0h2m1 0h1m1 0h2m3 0h1m3 0h1m1 0h1m3 0h1m3 0h3M6 56.5h1m1 0h5m1 0h1m3 0h1m6 0h1m1 0h8m4 0h6m2 0h1m1 0h1m2 0h5m1 0h1m1 0h1m2 0h2m3 0h1m2 0h1m2 0h7m2 0h1m8 0h2m3 0h1m1 0h7m1 0h1M6 57.5h3m2 0h1m2 0h2m2 0h3m2 0h1m2 0h2m2 0h2m2 0h2m3 0h2m1 0h5m1 0h1m3 0h2m3 0h1m1 0h1m5 0h1m2 0h2m1 0h1m1 0h3m2 0h1m7 0h3m3 0h4m8 0h2m1 0h1M4 58.5h1m1 0h1m2 0h2m2 0h1m1 0h1m1 0h1m1 0h1m3 0h1m1 0h4m2 0h2m1 0h1m1 0h1m1 0h3m3 0h1m1 0h1m1 0h1m1 0h2m2 0h2m1 0h1m2 0h2m3 0h4m1 0h1m4 0h2m2 0h1m1 0h1m2 0h1m2 0h3m3 0h3m5 0h1m5 0h1M7 59.5h2m2 0h5m1 0h1m1 0h1m7 0h7m2 0h4m8 0h2m3 0h2m2 0h3m2 0h1m1 0h2m1 0h2m1 0h1m1 0h1m4 0h3m1 0h5m1 0h3m1 0h3m1 0h1m2 0h2m1 0h1m2 0h1m1 0h3M5 60.5h1m1 0h1m2 0h1m1 0h2m1 0h1m1 0h4m1 0h1m1 0h1m1 0h4m1 0h1m2 0h1m1 0h1m1 0h4m3 0h1m2 0h2m2 0h3m3 0h1m1 0h1m2 0h1m1 0h5m4 0h1m2 0h1m1 0h1m1 0h2m2 0h1m1 0h2m2 0h1m1 0h3m1 0h3m3 0h3m1 0h1M5 61.5h4m5 0h1m1 0h4m1 0h1m2 0h1m1 0h6m1 0h1m1 0h1m2 0h3m3 0h1m3 0h2m1 0h1m1 0h2m1 0h2m1 0h4m1 0h4m1 0h3m1 0h2m1 0h1m2 0h1m2 0h2m4 0h1m3 0h1m1 0h3m1 0h2m1 0h2m4 0h2M4 62.5h1m2 0h6m1 0h3m3 0h2m1 0h2m1 0h1m3 0h6m1 0h1m1 0h1m1 0h1m3 0h1m2 0h1m1 0h1m1 0h1m1 0h1m3 0h1m2 0h1m4 0h3m2 0h2m3 0h4m3 0h4m1 0h3m2 0h6m1 0h4m2 0h1m1 0h1M7 63.5h3m3 0h1m1 0h1m1 0h1m1 0h1m2 0h6m3 0h3m7 0h1m2 0h2m1 0h4m1 0h2m4 0h2m2 0h1m2 0h1m1 0h2m5 0h1m2 0h1m2 0h2m1 0h2m1 0h1m5 0h4m3 0h1m2 0h1m2 0h2M4 64.5h1m3 0h3m1 0h2m1 0h2m1 0h6m4 0h1m3 0h1m1 0h1m1 0h1m2 0h1m1 0h4m2 0h2m3 0h2m1 0h3m2 0h4m2 0h3m1 0h2m2 0h1m1 0h1m1 0h1m1 0h1m1 0h1m1 0h2m1 0h1m2 0h5m1 0h2m1 0h2m1 0h1m1 0h2m2 0h1M4 65.5h1m1 0h2m1 0h1m2 0h2m2 0h1m1 0h1m1 0h1m2 0h1m1 0h3m3 0h1m3 0h2m1 0h1m2 0h5m1 0h1m2 0h3m2 0h1m1 0h5m3 0h3m1 0h3m1 0h3m1 0h4m4 0h1m1 0h2m2 0h2m4 0h4m1 0h1m3 0h3M4 66.5h1m3 0h1m1 0h1m7 0h1m1 0h1m2 0h1m4 0h4m2 0h3m1 0h1m3 0h1m3 0h2m1 0h1m3 0h2m6 0h1m1 0h1m2 0h2m6 0h1m2 0h1m1 0h2m4 0h2m1 0h1m3 0h3m3 0h1m1 0h4m4 0h1M4 67.5h2m1 0h3m1 0h2m1 0h1m1 0h3m1 0h1m1 0h2m2 0h2m1 0h1m1 0h2m1 0h1m3 0h1m3 0h1m2 0h1m2 0h4m1 0h1m1 0h2m4 0h6m4 0h1m3 0h1m4 0h1m3 0h2m2 0h1m1 0h2m3 0h1m1 0h1m2 0h4m2 0h2M10 68.5h2m1 0h5m2 0h3m2 0h1m3 0h1m1 0h4m5 0h1m2 0h1m1 0h3m1 0h1m1 0h1m1 0h6m1 0h2m1 0h2m1 0h2m2 0h1m1 0h3m1 0h1m3 0h1m2 0h2m3 0h7m5 0h2m1 0h2m1 0h1M7 69.5h3m2 0h2m1 0h1m1 0h2m1 0h1m4 0h2m3 0h4m3 0h1m2 0h1m1 0h1m7 0h3m2 0h3m1 0h1m5 0h1m1 0h2m1 0h3m1 0h2m1 0h2m1 0h1m6 0h1m2 0h2m2 0h1m1 0h3m4 0h2M4 70.5h7m1 0h1m2 0h2m1 0h2m1 0h2m2 0h1m1 0h2m1 0h1m2 0h1m2 0h2m1 0h1m2 0h2m2 0h2m1 0h3m2 0h2m3 0h1m1 0h1m2 0h1m1 0h3m1 0h4m1 0h1m2 0h2m1 0h1m2 0h5m3 0h3m2 0h1m1 0h2m1 0h7M7 71.5h2m2 0h3m2 0h1m5 0h1m2 0h2m3 0h2m1 0h2m1 0h3m2 0h1m3 0h2m1 0h1m1 0h4m1 0h1m1 0h2m2 0h1m3 0h1m2 0h1m1 0h2m2 0h2m2 0h1m5 0h1m1 0h1m1 0h3m1 0h3m1 0h3m5 0h1m1 0h1M6 72.5h2m1 0h3m1 0h4m4 0h1m1 0h3m6 0h2m1 0h1m1 0h1m5 0h3m2 0h1m2 0h3m2 0h1m1 0h3m3 0h1m1 0h3m2 0h4m1 0h1m1 0h3m1 0h1m3 0h1m2 0h1m2 0h1m1 0h4m4 0h2m1 0h1M7 73.5h2m5 0h2m1 0h7m1 0h1m1 0h2m1 0h3m2 0h3m3 0h2m1 0h3m3 0h3m2 0h1m1 0h2m3 0h1m1 0h1m1 0h2m4 0h1m3 0h4m1 0h2m3 0h4m2 0h2m3 0h1m4 0h1m5 0h1M4 74.5h3m1 0h1m1 0h1m1 0h1m1 0h1m8 0h3m1 0h1m5 0h1m3 0h3m1 0h1m5 0h3m4 0h3m1 0h2m2 0h1m1 0h1m1 0h1m1 0h1m1 0h4m1 0h3m2 0h1m2 0h1m1 0h1m4 0h2m3 0h2m4 0h4m2 0h2M4 75.5h1m1 0h1m1 0h2m1 0h1m2 0h5m3 0h4m1 0h3m1 0h2m1 0h1m1 0h1m1 0h3m4 0h3m1 0h1m1 0h1m1 0h2m1 0h4m3 0h2m3 0h1m1 0h2m6 0h2m2 0h2m2 0h1m1 0h1m2 0h3m2 0h2m2 0h3m1 0h1m1 0h1m1 0h1M6 76.5h7m1 0h1m4 0h2m5 0h7m3 0h1m1 0h3m2 0h4m2 0h2m1 0h5m1 0h1m1 0h1m1 0h1m6 0h3m3 0h7m1 0h2m1 0h1m3 0h4m1 0h2m1 0h1m1 0h5m3 0h1M5 77.5h1m1 0h2m3 0h3m4 0h1m1 0h2m1 0h1m1 0h1m1 0h1m3 0h1m4 0h2m3 0h1m1 0h1m3 0h2m1 0h2m3 0h3m4 0h1m7 0h2m1 0h1m1 0h1m3 0h1m1 0h3m2 0h1m1 0h2m1 0h1m2 0h1m2 0h1m1 0h1m3 0h1m2 0h2M5 78.5h4m1 0h1m1 0h2m1 0h1m2 0h4m5 0h2m1 0h1m1 0h3m2 0h1m2 0h2m2 0h4m1 0h1m1 0h2m1 0h1m1 0h4m1 0h1m9 0h2m1 0h1m1 0h1m1 0h1m1 0h3m1 0h1m2 0h2m6 0h1m1 0h1m1 0h2m1 0h1m1 0h4M5 79.5h1m2 0h1m3 0h2m2 0h1m4 0h3m2 0h1m1 0h1m3 0h1m2 0h1m2 0h1m1 0h2m2 0h1m2 0h1m1 0h4m3 0h3m1 0h4m3 0h5m2 0h1m1 0h1m3 0h1m1 0h1m7 0h1m1 0h1m3 0h2m1 0h2m3 0h1m2 0h2M5 80.5h2m1 0h5m1 0h1m1 0h3m1 0h2m2 0h1m3 0h6m2 0h1m3 0h2m3 0h2m1 0h9m1 0h2m1 0h3m2 0h2m2 0h1m1 0h11m5 0h1m1 0h1m1 0h5m1 0h1m1 0h9M4 81.5h2m1 0h2m3 0h1m3 0h2m1 0h2m2 0h1m2 0h1m2 0h1m1 0h1m2 0h3m1 0h3m1 0h1m2 0h2m1 0h1m2 0h2m2 0h4m3 0h1m2 0h1m1 0h1m4 0h1m1 0h1m1 0h1m2 0h3m2 0h1m1 0h4m1 0h7m1 0h2m2 0h2m3 0h1M6 82.5h1m3 0h2m6 0h1m1 0h2m1 0h2m4 0h2m1 0h2m3 0h1m2 0h1m3 0h3m1 0h2m1 0h2m1 0h3m2 0h3m1 0h3m1 0h1m1 0h1m2 0h3m2 0h9m3 0h1m3 0h3m4 0h1m5 0h2M6 83.5h3m2 0h3m2 0h4m1 0h1m3 0h2m1 0h2m2 0h1m1 0h4m1 0h4m1 0h3m2 0h1m9 0h1m2 0h1m1 0h5m1 0h3m3 0h1m3 0h1m1 0h1m2 0h4m4 0h3m2 0h3m1 0h3M4 84.5h1m1 0h1m2 0h2m1 0h2m4 0h1m1 0h3m3 0h1m4 0h5m2 0h1m1 0h1m2 0h1m2 0h1m1 0h1m3 0h2m1 0h1m1 0h1m4 0h1m1 0h1m4 0h1m2 0h1m1 0h1m4 0h2m1 0h1m3 0h1m1 0h2m3 0h1m1 0h2m2 0h6m3 0h1M5 85.5h1m2 0h1m3 0h3m1 0h1m1 0h1m5 0h1m2 0h3m1 0h1m4 0h1m2 0h2m1 0h2m1 0h2m1 0h1m5 0h2m2 0h2m1 0h1m10 0h5m3 0h1m1 0h1m3 0h2m2 0h1m1 0h3m2 0h1m1 0h1m1 0h1m4 0h2M5 86.5h4m1 0h2m1 0h1m2 0h1m1 0h2m1 0h3m1 0h1m1 0h1m8 0h2m2 0h1m1 0h3m1 0h3m3 0h1m2 0h1m1 0h1m2 0h1m1 0h3m4 0h1m1 0h2m2 0h1m2 0h3m2 0h3m1 0h1m1 0h2m2 0h2m1 0h1m3 0h1m3 0h3M5 87.5h3m1 0h1m1 0h1m1 0h1m3 0h1m2 0h1m2 0h1m3 0h1m3 0h1m2 0h1m1 0h1m2 0h1m2 0h1m1 0h3m3 0h1m1 0h4m1 0h1m1 0h4m1 0h1m2 0h2m1 0h3m2 0h1m5 0h1m3 0h2m1 0h1m2 0h1m1 0h2m2 0h1m1 0h5m1 0h1m1 0h2M7 88.5h1m1 0h7m2 0h5m1 0h3m1 0h1m1 0h5m2 0h3m3 0h1m2 0h1m1 0h1m4 0h1m3 0h2m2 0h2m1 0h2m1 0h3m1 0h2m2 0h2m1 0h1m1 0h1m1 0h5m1 0h2m2 0h4m1 0h1m1 0h1m1 0h1m1 0h1m2 0h1m1 0h1M6 89.5h2m1 0h1m5 0h5m2 0h1m1 0h2m1 0h2m3 0h2m2 0h4m2 0h1m1 0h3m1 0h9m1 0h3m1 0h1m1 0h3m2 0h1m2 0h1m6 0h2m1 0h6m2 0h3m2 0h1m1 0h1m1 0h3m4 0h1m1 0h1M4 90.5h3m2 0h2m1 0h6m1 0h2m3 0h2m1 0h3m1 0h2m2 0h2m5 0h4m3 0h2m1 0h1m2 0h4m1 0h2m4 0h1m2 0h2m1 0h2m1 0h3m1 0h1m1 0h4m2 0h2m2 0h2m1 0h1m1 0h1m5 0h2m1 0h3M4 91.5h2m1 0h1m5 0h1m1 0h1m3 0h1m1 0h1m2 0h1m2 0h1m2 0h1m1 0h2m1 0h1m1 0h1m2 0h7m1 0h1m1 0h1m1 0h1m1 0h1m1 0h3m2 0h2m1 0h1m1 0h1m1 0h2m1 0h1m4 0h1m3 0h1m5 0h1m1 0h1m2 0h2m2 0h1m5 0h1m2 0h3M4 92.5h2m1 0h2m1 0h2m2 0h2m1 0h2m1 0h1m1 0h2m2 0h1m3 0h3m1 0h1m8 0h2m1 0h2m1 0h1m2 0h1m1 0h2m3 0h4m2 0h5m1 0h4m2 0h3m1 0h1m2 0h6m10 0h1m4 0h1m2 0h1M5 93.5h1m3 0h1m1 0h8m1 0h1m1 0h1m5 0h1m4 0h2m1 0h1m1 0h2m1 0h1m1 0h3m1 0h4m1 0h2m3 0h1m1 0h6m1 0h1m4 0h1m5 0h1m2 0h1m1 0h1m2 0h1m4 0h1m1 0h3m1 0h1m1 0h1m2 0h3m1 0h1m1 0h1M5 94.5h1m1 0h4m5 0h2m1 0h4m1 0h3m1 0h1m1 0h1m3 0h5m1 0h6m5 0h2m1 0h2m1 0h1m1 0h4m1 0h1m3 0h1m1 0h1m1 0h6m2 0h2m6 0h1m2 0h1m1 0h1m3 0h1m3 0h1m1 0h1m1 0h1m2 0h1M4 95.5h1m1 0h1m1 0h2m1 0h3m3 0h7m3 0h4m3 0h2m5 0h1m1 0h2m3 0h2m4 0h1m3 0h1m1 0h2m2 0h1m7 0h3m3 0h2m1 0h2m4 0h1m2 0h1m2 0h2m3 0h2m3 0h5M4 96.5h1m3 0h3m3 0h2m1 0h1m1 0h1m3 0h1m1 0h2m1 0h3m4 0h2m1 0h1m2 0h4m1 0h2m3 0h2m2 0h2m1 0h2m12 0h2m3 0h2m1 0h1m1 0h1m1 0h1m3 0h1m1 0h2m1 0h4m2 0h1m1 0h1m2 0h3M4 97.5h1m2 0h2m4 0h1m1 0h6m3 0h2m1 0h6m2 0h1m1 0h2m4 0h1m1 0h1m3 0h3m2 0h1m2 0h4m1 0h2m1 0h1m2 0h6m6 0h1m4 0h2m2 0h2m3 0h1m1 0h1m2 0h2m1 0h2m2 0h1M4 98.5h3m3 0h1m1 0h3m2 0h1m1 0h2m1 0h2m4 0h1m1 0h3m3 0h1m6 0h4m4 0h1m2 0h5m3 0h2m2 0h2m1 0h2m4 0h4m4 0h1m1 0h1m1 0h3m5 0h1m2 0h1m2 0h1m1 0h3m2 0h1M6 99.5h1m1 0h2m4 0h1m2 0h1m2 0h4m3 0h4m1 0h1m1 0h1m3 0h4m2 0h5m1 0h2m4 0h5m3 0h1m1 0h3m2 0h1m2 0h2m1 0h3m1 0h1m1 0h3m2 0h1m1 0h3m1 0h2m1 0h2m3 0h2m2 0h3M7 100.5h2m1 0h1m1 0h1m2 0h1m3 0h1m1 0h2m2 0h2m1 0h5m2 0h5m3 0h2m1 0h1m2 0h1m2 0h8m3 0h1m1 0h2m1 0h2m1 0h1m1 0h8m3 0h3m1 0h1m1 0h4m4 0h1m1 0h5m2 0h2M12 101.5h2m1 0h1m2 0h1m1 0h1m2 0h2m3 0h1m3 0h1m2 0h3m3 0h1m3 0h2m2 0h1m2 0h1m3 0h1m3 0h1m1 0h1m1 0h1m2 0h4m1 0h1m2 0h2m3 0h4m2 0h2m1 0h1m5 0h1m1 0h1m1 0h2m3 0h1m1 0h3M4 102.5h7m1 0h1m2 0h2m9 0h1m1 0h1m1 0h1m1 0h3m2 0h1m1 0h1m2 0h2m1 0h1m3 0h2m1 0h1m1 0h1m1 0h1m5 0h3m3 0h1m2 0h1m1 0h2m1 0h1m1 0h1m1 0h1m2 0h1m1 0h5m1 0h1m2 0h1m2 0h1m1 0h2m1 0h1m1 0h2M4 103.5h1m5 0h1m1 0h1m5 0h1m2 0h4m2 0h2m3 0h1m1 0h1m1 0h3m5 0h1m2 0h1m1 0h1m2 0h1m3 0h2m2 0h1m1 0h1m1 0h2m3 0h2m1 0h1m2 0h2m3 0h2m4 0h2m1 0h1m2 0h1m1 0h3m2 0h2m3 0h2m1 0h2M4 104.5h1m1 0h3m1 0h1m2 0h3m1 0h1m1 0h4m1 0h1m1 0h15m1 0h1m2 0h2m1 0h1m2 0h7m1 0h2m1 0h1m1 0h1m1 0h1m3 0h2m1 0h2m1 0h5m1 0h1m1 0h1m5 0h3m2 0h1m2 0h1m1 0h6M4 105.5h1m1 0h3m1 0h1m5 0h6m2 0h1m3 0h1m2 0h1m2 0h1m1 0h4m2 0h1m4 0h9m2 0h1m1 0h1m2 0h2m1 0h3m1 0h1m3 0h1m4 0h3m1 0h1m1 0h1m3 0h1m1 0h1m1 0h1m4 0h1m1 0h1m2 0h2m1 0h1M4 106.5h1m1 0h3m1 0h1m5 0h2m2 0h2m2 0h1m5 0h1m1 0h1m3 0h1m1 0h1m3 0h4m2 0h1m2 0h1m2 0h5m2 0h1m3 0h2m2 0h7m2 0h2m1 0h1m1 0h1m3 0h2m1 0h3m1 0h1m2 0h4m2 0h1m1 0h4M4 107.5h1m5 0h1m1 0h1m1 0h1m2 0h4m5 0h1m6 0h3m1 0h1m5 0h1m1 0h2m3 0h3m2 0h2m4 0h2m5 0h2m2 0h2m1 0h1m1 0h2m1 0h1m1 0h1m1 0h1m7 0h4m1 0h2m2 0h2M4 108.5h7m1 0h1m1 0h1m1 0h1m7 0h1m2 0h2m5 0h1m2 0h2m1 0h2m1 0h1m1 0h1m3 0h9m1 0h1m1 0h2m4 0h1m1 0h2m2 0h1m2 0h2m2 0h1m7 0h1m4 0h1m1 0h1m1 0h3m1 0h4m1 0h2"/></svg>
