<svg xmlns="http://www.w3.org/2000/svg" viewBox="0 0 117 117" shape-rendering="crispEdges"><path fill="#ffffff" d="M0 0h117v117H0z"/><path stroke="#000000" d="M4 4.5h7m1 0h2m1 0h2m1 0h2m1 0h1m4 0h3m1 0h5m3 0h3m1 0h1m1 0h1m1 0h3m2 0h3m2 0h2m1 0h11m1 0h5m1 0h1m2 0h2m1 0h2m1 0h1m1 0h1m2 0h3m1 0h1m1 0h1m3 0h1m2 0h1m1 0h7M4 5.5h1m5 0h1m2 0h2m1 0h5m1 0h2m5 0h2m2 0h2m1 0h1m2 0h3m4 0h1m2 0h1m2 0h3m1 0h1m3 0h2m3 0h4m2 0h1m3 0h4m1 0h4m2 0h2m4 0h1m1 0h1m1 0h1m1 0h2m2 0h1m1 0h1m1 0h1m5 0h1M4 6.5h1m1 0h3m1 0h1m2 0h1m3 0h1m2 0h1m5 0h1m1 0h1m2 0h1m3 0h1m1 0h2m1 0h1m1 0h2m4 0h1m3 0h6m3 0h1m3 0h1m1 0h2m1 0h1m3 0h1m4 0h1m1 0h1m2 0h1m1 0h3m4 0h1m5 0h2m1 0h3m1 0h1m1 0h3m1 0h1M4 7.5h1m1 0h3m1 0h1m1 0h2m5 0h2m3 0h2m2 0h1m1 0h1m3 0h1m3 0h2m2 0h6m1 0h1m4 0h1m2 0h2m1 0h2m1 0h1m3 0h1m1 0h2m3 0h1m2 0h2m1 0h2m2 0h5m2 0h2m2 0h1m1 0h2m1 0h1m1 0h2m2 0h1m1 0h3m1 0h1M4 8.5h1m1 0h3m1 0h1m1 0h4m1 0h5m2 0h4m1 0h8m1 0h2m4 0h1m1 0h3m1 0h1m2 0h9m1 0h1m2 0h2m3 0h3m2 0h3m1 0h5m3 0h1m1 0h2m1 0h2m5 0h5m1 0h1m1 0h3m1 0h1M4 9.5h1m5 0h1m1 0h1m1 0h2m2 0h4m3 0h4m3 0h1m3 0h2m6 0h5m2 0h2m2 0h2m3 0h1m3 0h1m1 0h2m3 0h2m2 0h3m2 0h1m3 0h1m1 0h4m3 0h4m4 0h1m1 0h1m2 0h1m5 0h1M4 10.5h7m1 0h1m1 0h1m1 0h1m1 0h1m1 0h1m1 0h1m1 0h1m1 0h1m1 0h1m1 0h1m1 0h1m1 0h1m1 0h1m1 0h1m1 0h1m1 0h1m1 0h1m1 0h1m1 0h1m1 0h1m1 0h1m1 0h1m1 0h1m1 0h1m1 0h1m1 0h1m1 0h1m1 0h1m1 0h1m1 0h1m1 0h1m1 0h1m1 0h1m1 0h1m1 0h1m1 0h1m1 0h1m1 0h1m1 0h1m1 0h1m1 0h1m1 0h1m1 0h1m1 0h1m1 0h1m1 0h1m1 0h1m1 0h7M12 11.5h4m2 0h1m7 0h1m1 0h1m2 0h2m3 0h1m2 0h1m1 0h3m2 0h1m1 0h4m1 0h1m2 0h1m3 0h3m4 0h1m2 0h2m2 0h1m2 0h4m3 0h2m1 0h4m6 0h4m2 0h2M4 12.5h1m3 0h1m1 0h4m1 0h2m1 0h4m1 0h3m1 0h1m3 0h6m1 0h1m2 0h2m2 0h3m2 0h1m1 0h9m1 0h1m1 0h3m6 0h2m2 0h2m1 0h5m4 0h2m1 0h2m1 0h3m1 0h2m1 0h2m1 0h5m2 0h1M4 13.5h1m8 0h2m1 0h4m1 0h1m5 0h6m3 0h1m3 0h1m1 0h3m1 0h1m1 0h1m1 0h1m2 0h7m2 0h1m2 0h4m2 0h1m6 0h1m1 0h3m1 0h2m3 0h3m1 0h1m1 0h2m3 0h3m1 0h1m2 0h1m3 0h2M4 14.5h1m4 0h2m1 0h1m2 0h1m4 0h1m1 0h4m1 0h2m3 0h2m1 0h1m2 0h1m1 0h3m1 0h2m3 0h1m5 0h1m1 0h2m3 0h1m4 0h1m1 0h2m1 0h2m1 0h1m1 0h1m3 0h1m1 0h1m1 0h2m1 0h1m1 0h2m1 0h2m1 0h1m3 0h1m2 0h6m1 0h2M4 15.5h1m2 0h1m1 0h1m2 0h1m1 0h1m3 0h5m4 0h1m2 0h1m3 0h1m4 0h1m1 0h2m1 0h1m2 0h1m4 0h2m1 0h1m3 0h2m2 0h1m1 0h1m5 0h1m1 0h1m2 0h2m2 0h1m6 0h1m2 0h2m1 0h2m2 0h4m1 0h6m2 0h1M4 16.5h1m1 0h1m2 0h3m1 0h1m1 0h2m1 0h3m2 0h1m1 0h1m6 0h1m3 0h1m1 0h2m1 0h1m2 0h3m3 0h7m1 0h2m2 0h1m9 0h3m1 0h1m4 0h2m2 0h1m2 0h1m1 0h1m8 0h1m2 0h2m4 0h1M6 17.5h2m1 0h1m2 0h1m4 0h1m2 0h2m1 0h3m1 0h1m2 0h3m2 0h2m2 0h1m1 0h1m1 0h2m5 0h5m6 0h2m1 0h1m1 0h2m2 0h2m1 0h1m1 0h2m5 0h1m2 0h1m3 0h1m4 0h1m1 0h1m7 0h2m2 0h2M4 18.5h4m1 0h2m2 0h1m3 0h2m1 0h2m2 0h2m2 0h2m1 0h1m2 0h1m2 0h1m3 0h1m2 0h2m3 0h3m4 0h1m1 0h1m4 0h1m7 0h5m4 0h5m1 0h4m2 0h1m1 0h1m3 0h1m1 0h1m1 0h1m1 0h3m1 0h1m1 0h1M4 19.5h1m1 0h2m6 0h2m2 0h1m1 0h3m2 0h2m1 0h2m1 0h2m1 0h8m2 0h3m1 0h1m1 0h1m8 0h4m1 0h1m1 0h1m1 0h1m1 0h2m3 0h2m2 0h2m4 0h1m4 0h1m1 0h2m1 0h1m1 0h1m1 0h1m1 0h1m1 0h2m1 0h1m1 0h1m1 0h1M6 20.5h1m3 0h4m2 0h1m2 0h1m1 0h1m1 0h3m1 0h1m1 0h1m1 0h1m1 0h1m3 0h8m1 0h2m1 0h3m5 0h1m1 0h1m6 0h3m1 0h3m4 0h4m6 0h1m1 0h1m1 0h1m1 0h1m1 0h2m2 0h1m1 0h4m1 0h3m2 0h2M5 21.5h2m4 0h2m1 0h3m2 0h2m1 0h2m3 0h1m3 0h1m3 0h1m1 0h1m2 0h1m1 0h2m1 0h3m3 0h2m1 0h1m1 0h1m6 0h1m1 0h1m1 0h2m1 0h6m1 0h1m3 0h5m2 0h1m1 0h2m2 0h6m1 0h1m2 0h1m4 0h1M4 22.5h1m2 0h1m2 0h4m2 0h4m2 0h3m5 0h3m2 0h1m3 0h3m4 0h4m1 0h1m1 0h4m1 0h1m2 0h2m1 0h5m4 0h3m2 0h1m1 0h2m3 0h1m1 0h1m2 0h1m1 0h2m4 0h1m2 0h2m1 0h2m1 0h1m1 0h4M4 23.5h1m6 0h1m1 0h1m1 0h1m1 0h2m1 0h2m1 0h2m1 0h2m1 0h2m3 0h1m1 0h2m1 0h2m2 0h2m3 0h1m1 0h1m2 0h1m1 0h1m1 0h1m3 0h4m2 0h4m2 0h1m2 0h1m1 0h1m3 0h2m1 0h2m1 0h1m2 0h2m2 0h2m2 0h1m2 0h3m2 0h1m2 0h1m1 0h1M4 24.5h5m1 0h2m2 0h1m1 0h4m3 0h1m1 0h3m4 0h1m1 0h1m3 0h2m1 0h1m2 0h4m1 0h1m1 0h1m1 0h5m4 0h1m3 0h2m3 0h1m1 0h2m1 0h3m5 0h1m1 0h1m3 0h2m1 0h3m1 0h4m3 0h1m7 0h1M4 25.5h3m8 0h1m3 0h1m2 0h1m2 0h2m1 0h1m5 0h2m2 0h1m2 0h1m1 0h4m1 0h1m3 0h3m1 0h5m1 0h6m1 0h4m1 0h1m5 0h3m2 0h1m1 0h1m1 0h2m2 0h1m3 0h2m1 0h3m1 0h1m1 0h2m2 0h1m1 0h1M10 26.5h1m1 0h2m2 0h2m1 0h2m6 0h1m1 0h1m1 0h1m5 0h1m1 0h3m6 0h3m3 0h1m1 0h1m1 0h3m1 0h2m1 0h1m1 0h3m3 0h3m1 0h2m5 0h1m2 0h1m2 0h4m1 0h3m7 0h2m1 0h5M4 27.5h2m1 0h2m2 0h2m2 0h1m1 0h2m1 0h4m1 0h1m2 0h2m1 0h1m2 0h7m4 0h1m1 0h8m2 0h1m2 0h3m2 0h2m1 0h4m1 0h2m4 0h1m2 0h2m5 0h1m1 0h4m2 0h1m1 0h1m1 0h3m3 0h1m1 0h1m1 0h2M5 28.5h4m1 0h3m1 0h3m2 0h2m1 0h3m1 0h4m1 0h6m1 0h1m3 0h1m1 0h1m1 0h5m1 0h3m3 0h1m1 0h1m1 0h1m2 0h2m1 0h3m1 0h1m1 0h1m1 0h1m2 0h1m1 0h1m1 0h1m4 0h2m1 0h2m3 0h1m1 0h2m1 0h1m3 0h1m2 0h2m1 0h1M4 29.5h3m1 0h2m1 0h2m1 0h1m1 0h3m1 0h1m1 0h1m1 0h4m1 0h1m3 0h8m1 0h2m1 0h4m1 0h2m2 0h2m1 0h3m1 0h2m1 0h1m2 0h1m2 0h2m5 0h1m3 0h2m6 0h1m1 0h2m1 0h1m1 0h1m1 0h1m2 0h1m2 0h1m3 0h1m2 0h1M4 30.5h1m3 0h1m1 0h5m1 0h1m1 0h5m2 0h1m2 0h2m1 0h2m2 0h1m2 0h1m1 0h1m1 0h1m2 0h1m1 0h2m2 0h1m3 0h1m6 0h1m1 0h2m1 0h1m3 0h4m1 0h1m1 0h1m1 0h4m1 0h2m1 0h1m3 0h2m1 0h1m2 0h1m3 0h2m5 0h3M4 31.5h1m1 0h1m2 0h1m2 0h1m1 0h3m1 0h1m1 0h4m2 0h2m1 0h2m4 0h1m2 0h3m1 0h2m3 0h1m1 0h2m2 0h1m2 0h2m2 0h1m2 0h3m2 0h2m1 0h1m2 0h4m2 0h2m1 0h2m3 0h2m3 0h1m2 0h1m1 0h1m1 0h9m2 0h2M6 32.5h10m2 0h3m2 0h1m3 0h1m1 0h2m1 0h5m2 0h2m3 0h1m1 0h2m1 0h3m1 0h2m1 0h6m1 0h1m2 0h11m1 0h1m1 0h8m1 0h2m1 0h5m2 0h11M4 33.5h3m1 0h1m3 0h1m2 0h2m1 0h4m1 0h2m1 0h1m1 0h1m3 0h1m3 0h1m1 0h2m1 0h1m1 0h5m2 0h2m2 0h1m1 0h1m3 0h2m2 0h1m1 0h1m1 0h1m1 0h1m1 0h2m4 0h1m1 0h1m3 0h2m5 0h1m1 0h3m2 0h1m1 0h5m3 0h1M8 34.5h1m1 0h1m1 0h1m2 0h3m2 0h4m1 0h1m1 0h1m4 0h1m1 0h1m1 0h1m1 0h2m3 0h1m1 0h1m2 0h1m3 0h1m2 0h2m1 0h1m1 0h3m2 0h7m1 0h1m1 0h1m2 0h1m1 0h1m1 0h1m1 0h2m4 0h1m1 0h1m2 0h1m2 0h1m1 0h1m1 0h3m1 0h1m1 0h2m1 0h1M5 35.5h1m1 0h2m3 0h1m5 0h2m3 0h2m2 0h1m1 0h1m1 0h2m3 0h1m1 0h2m1 0h1m1 0h1m3 0h5m1 0h1m1 0h2m3 0h4m2 0h1m9 0h1m1 0h3m3 0h1m3 0h2m2 0h2m3 0h3m1 0h1m2 0h1m3 0h1m1 0h3M4 36.5h1m2 0h6m1 0h4m2 0h2m1 0h1m1 0h1m1 0h1m2 0h8m1 0h1m2 0h3m2 0h1m1 0h1m1 0h2m2 0h6m1 0h3m3 0h1m1 0h1m1 0h3m5 0h5m4 0h1m6 0h2m2 0h2m1 0h10M8 37.5h2m1 0h2m1 0h1m2 0h2m2 0h2m1 0h2m1 0h1m1 0h4m1 0h1m2 0h1m3 0h1m2 0h1m1 0h2m4 0h1m1 0h1m1 0h1m2 0h1m2 0h1m1 0h1m1 0h4m1 0h2m2 0h1m2 0h3m1 0h2m1 0h1m3 0h1m1 0h1m1 0h1m9 0h1m1 0h6m1 0h1M5 38.5h1m3 0h3m1 0h2m4 0h1m1 0h1m2 0h2m2 0h3m1 0h2m1 0h2m1 0h3m1 0h1m5 0h1m1 0h1m2 0h2m1 0h2m1 0h1m1 0h2m2 0h1m1 0h2m4 0h1m1 0h1m1 0h2m2 0h2m1 0h4m3 0h3m1 0h6m1 0h1m2 0h1m1 0h2m1 0h2M5 39.5h2m2 0h1m1 0h2m1 0h3m4 0h2m1 0h2m1 0h6m3 0h1m1 0h1m1 0h1m2 0h1m4 0h7m3 0h4m1 0h1m1 0h1m4 0h1m2 0h3m2 0h3m1 0h2m10 0h3m1 0h1m1 0h2m1 0h1m2 0h1m3 0h2M4 40.5h1m1 0h5m1 0h1m1 0h4m3 0h5m1 0h2m2 0h1m1 0h7m1 0h2m1 0h3m3 0h3m2 0h12m1 0h2m1 0h1m2 0h5m1 0h1m1 0h3m2 0h9m1 0h1m3 0h4m2 0h2m3 0h1M5 41.5h2m1 0h2m1 0h1m1 0h5m3 0h1m3 0h1m1 0h3m2 0h1m2 0h1m5 0h1m3 0h1m2 0h3m1 0h2m1 0h2m2 0h2m1 0h1m1 0h1m1 0h3m5 0h1m6 0h2m1 0h1m1 0h1m3 0h2m1 0h2m2 0h1m2 0h2m2 0h2m2 0h2m1 0h2M4 42.5h1m2 0h1m1 0h2m1 0h1m2 0h1m1 0h3m1 0h1m3 0h2m2 0h2m1 0h1m1 0h2m1 0h1m1 0h6m1 0h1m1 0h2m1 0h1m1 0h1m2 0h3m1 0h1m2 0h2m5 0h3m4 0h1m1 0h2m1 0h3m1 0h1m1 0h1m3 0h2m1 0h1m1 0h1m1 0h1m2 0h1m2 0h1m1 0h2m1 0h2M4 43.5h1m1 0h3m2 0h1m4 0h1m3 0h1m5 0h2m1 0h1m2 0h2m3 0h1m1 0h6m1 0h2m1 0h2m1 0h2m1 0h2m2 0h5m1 0h1m1 0h1m1 0h1m4 0h1m1 0h1m2 0h3m2 0h2m2 0h1m1 0h3m1 0h1m4 0h3m2 0h2m3 0h1M4 44.5h1m2 0h1m2 0h2m1 0h2m1 0h1m1 0h1m1 0h2m2 0h2m3 0h1m1 0h4m1 0h1m4 0h2m1 0h1m2 0h1m1 0h1m1 0h4m2 0h1m1 0h1m1 0h2m2 0h3m1 0h1m2 0h1m3 0h1m4 0h2m1 0h1m3 0h2m2 0h1m1 0h1m1 0h5m1 0h1m3 0h2m2 0h1m1 0h1M4 45.5h3m1 0h2m1 0h1m2 0h2m1 0h1m1 0h1m3 0h1m1 0h1m2 0h1m2 0h1m2 0h1m1 0h4m1 0h2m3 0h1m3 0h1m1 0h4m2 0h1m1 0h1m1 0h3m1 0h1m1 0h1m2 0h3m1 0h3m3 0h3m2 0h1m1 0h2m1 0h1m2 0h12m1 0h1m1 0h4M8 46.5h1m1 0h1m3 0h1m2 0h1m1 0h1m1 0h1m1 0h1m1 0h1m2 0h2m1 0h1m1 0h3m2 0h1m1 0h1m1 0h1m1 0h2m4 0h1m3 0h1m1 0h1m1 0h1m4 0h2m2 0h1m2 0h9m1 0h4m1 0h2m1 0h3m2 0h1m3 0h1m4 0h3m3 0h1m3 0h1M4 47.5h1m2 0h3m2 0h1m5 0h3m3 0h1m1 0h2m2 0h1m1 0h2m1 0h1m1 0h1m1 0h1m2 0h2m1 0h1m1 0h5m3 0h4m1 0h6m1 0h3m4 0h3m5 0h1m3 0h5m2 0h1m1 0h1m2 0h2m1 0h3m1 0h1m3 0h3M4 48.5h2m1 0h2m1 0h1m2 0h1m2 0h3m2 0h1m1 0h1m2 0h4m1 0h1m2 0h2m3 0h1m1 0h1m1 0h1m2 0h2m2 0h6m3 0h3m6 0h1m1 0h1m1 0h1m3 0h3m3 0h2m1 0h1m1 0h1m2 0h1m1 0h1m1 0h1m1 0h1m5 0h3m2 0h1M4 49.5h2m1 0h3m1 0h1m1 0h1m7 0h6m4 0h1m1 0h1m1 0h2m1 0h4m1 0h3m6 0h1m1 0h1m2 0h1m1 0h1m2 0h1m4 0h1m1 0h1m3 0h1m2 0h1m4 0h2m3 0h1m3 0h1m1 0h1m3 0h3m1 0h4m1 0h1m1 0h1m1 0h1m2 0h1M5 50.5h3m2 0h1m9 0h1m1 0h2m1 0h2m3 0h3m1 0h1m1 0h1m2 0h1m2 0h2m2 0h1m6 0h1m2 0h1m1 0h2m1 0h2m1 0h1m4 0h3m1 0h1m2 0h1m1 0h3m2 0h5m5 0h3m4 0h1m1 0h3m1 0h1m2 0h4M4 51.5h3m7 0h2m3 0h4m1 0h1m2 0h3m1 0h3m3 0h1m2 0h1m2 0h2m2 0h2m1 0h2m2 0h2m2 0h1m3 0h2m1 0h1m2 0h4m1 0h1m2 0h1m2 0h3m1 0h3m1 0h3m1 0h2m9 0h3m1 0h3m1 0h1m1 0h1M6 52.5h1m1 0h3m2 0h1m3 0h7m7 0h3m2 0h1m1 0h1m2 0h5m1 0h1m2 0h6m1 0h1m1 0h1m3 0h5m1 0h3m4 0h4m2 0h1m2 0h1m1 0h1m3 0h1m2 0h4m2 0h3m3 0h5M4 53.5h3m2 0h1m7 0h2m2 0h1m1 0h3m2 0h5m2 0h1m2 0h1m1 0h2m1 0h2m5 0h1m1 0h5m3 0h1m1 0h1m5 0h1m2 0h2m4 0h4m2 0h1m2 0h4m1 0h1m2 0h2m2 0h3m3 0h1m2 0h5M4 54.5h1m2 0h1m1 0h3m1 0h2m1 0h1m2 0h3m1 0h2m2 0h1m1 0h2m3 0h4m1 0h2m3 0h3m1 0h1m1 0h1m1 0h1m1 0h1m1 0h1m1 0h1m2 0h1m2 0h1m1 0h1m2 0h1m3 0h3m1 0h3m1 0h2m1 0h3m2 0h4m7 0h1m1 0h2m1 0h5m1 0h1M4 55.5h1m2 0h2m3 0h1m3 0h2m3 0h1m6 0h1m6 0h1m2 0h2m2 0h3m1 0h1m1 0h2m1 0h3m1 0h1m1 0h5m2 0h1m1 0h1m1 0h1m4 0h2m5 0h3m4 0h4m1 0h2m2 0h4m3 0h2M4 56.5h2m1 0h7m1 0h2m3 0h3m2 0h1m2 0h3m1 0h6m1 0h3m1 0h1m1 0h2m2 0h1m1 0h1m1 0h1m1 0h6m1 0h1m3 0h2m1 0h1m1 0h1m2 0h1m2 0h1m1 0h6m3 0h1m3 0h1m1 0h1m2 0h3m1 0h8m2 0h2M6 57.5h3m3 0h6m1 0h2m5 0h2m3 0h2m3 0h1m1 0h3m1 0h2m2 0h2m1 0h1m6 0h1m3 0h1m3 0h1m1 0h1m2 0h1m1 0h1m1 0h1m3 0h1m2 0h1m3 0h2m3 0h1m2 0h3m3 0h1m3 0h3m3 0h1m1 0h1M8 58.5h1m1 0h1m1 0h1m3 0h2m4 0h2m4 0h1m3 0h1m1 0h1m1 0h1m3 0h1m4 0h1m5 0h3m2 0h1m1 0h1m1 0h2m2 0h1m4 0h1m2 0h5m1 0h1m1 0h1m1 0h1m1 0h4m1 0h5m1 0h1m3 0h1m4 0h1m1 0h1m1 0h5M5 59.5h1m1 0h2m3 0h2m2 0h2m1 0h1m1 0h2m2 0h4m3 0h1m3 0h4m4 0h4m2 0h1m1 0h3m1 0h1m3 0h3m2 0h1m1 0h1m1 0h3m5 0h1m2 0h1m3 0h1m1 0h2m3 0h2m2 0h4m2 0h1m1 0h2m3 0h1m1 0h1m1 0h1M7 60.5h6m1 0h1m1 0h1m1 0h3m1 0h1m1 0h1m3 0h9m2 0h4m3 0h1m3 0h2m2 0h8m2 0h2m5 0h2m1 0h1m1 0h11m1 0h2m1 0h1m1 0h4m2 0h1m4 0h7M4 61.5h2m1 0h1m1 0h1m2 0h1m1 0h2m3 0h3m2 0h1m2 0h3m7 0h1m1 0h1m2 0h3m1 0h5m1 0h1m1 0h1m3 0h2m2 0h4m3 0h4m1 0h1m1 0h1m1 0h1m6 0h2m1 0h1m1 0h1m1 0h1m1 0h5m6 0h1m5 0h2M4 62.5h1m4 0h2m3 0h3m3 0h2m2 0h1m1 0h1m1 0h1m2 0h6m1 0h2m1 0h5m3 0h1m2 0h4m3 0h3m1 0h2m2 0h1m3 0h5m3 0h2m2 0h1m3 0h2m2 0h1m1 0h2m1 0h3m7 0h1m4 0h1M4 63.5h6m1 0h1m5 0h3m5 0h2m5 0h2m2 0h1m1 0h1m1 0h1m1 0h2m1 0h1m2 0h1m1 0h6m1 0h3m2 0h1m1 0h1m1 0h1m1 0h1m1 0h2m2 0h1m3 0h4m1 0h1m1 0h1m2 0h1m3 0h2m4 0h5m1 0h2m3 0h1M6 64.5h1m1 0h3m4 0h1m1 0h1m1 0h2m1 0h2m1 0h1m1 0h1m1 0h1m2 0h1m1 0h1m4 0h2m1 0h1m1 0h2m1 0h4m1 0h2m2 0h1m2 0h1m1 0h1m1 0h1m1 0h8m2 0h5m1 0h1m1 0h1m4 0h5m4 0h5m1 0h4m1 0h3M4 65.5h1m1 0h1m2 0h1m2 0h7m1 0h1m2 0h3m2 0h2m1 0h1m1 0h1m1 0h2m1 0h2m1 0h2m1 0h6m3 0h1m1 0h2m3 0h1m3 0h7m1 0h3m4 0h1m2 0h1m4 0h2m1 0h1m1 0h2m1 0h1m2 0h1m3 0h1m1 0h1m1 0h2m1 0h2M4 66.5h3m1 0h1m1 0h2m3 0h1m3 0h1m2 0h1m1 0h1m1 0h1m4 0h1m2 0h2m1 0h3m2 0h3m2 0h1m5 0h1m1 0h2m2 0h2m1 0h3m1 0h2m2 0h2m1 0h2m1 0h1m3 0h1m1 0h2m1 0h1m5 0h1m1 0h1m1 0h3m1 0h4m4 0h2m1 0h2M4 67.5h6m2 0h3m3 0h2m1 0h1m3 0h1m5 0h1m6 0h2m3 0h1m2 0h1m1 0h1m2 0h3m1 0h4m2 0h2m2 0h1m3 0h3m4 0h3m4 0h5m3 0h2m1 0h3m1 0h1m2 0h1m3 0h1m3 0h3M5 68.5h1m2 0h1m1 0h5m1 0h1m1 0h1m3 0h2m1 0h1m3 0h1m1 0h2m1 0h3m1 0h2m3 0h3m2 0h2m3 0h1m1 0h1m1 0h3m2 0h2m1 0h1m1 0h1m5 0h1m2 0h1m1 0h1m2 0h1m1 0h2m1 0h1m2 0h1m3 0h3m3 0h1m1 0h2m1 0h3m1 0h5M5 69.5h2m1 0h2m2 0h1m4 0h4m2 0h1m4 0h1m3 0h1m2 0h1m1 0h1m3 0h1m1 0h1m1 0h2m1 0h1m3 0h1m1 0h1m1 0h1m3 0h2m3 0h1m1 0h1m3 0h2m3 0h3m3 0h2m1 0h2m1 0h1m2 0h1m1 0h1m1 0h1m1 0h3m2 0h1m1 0h1m2 0h5M5 70.5h1m1 0h4m1 0h2m1 0h1m1 0h1m1 0h1m2 0h3m1 0h1m2 0h1m1 0h1m2 0h1m1 0h5m3 0h2m2 0h1m1 0h2m2 0h1m1 0h1m1 0h1m1 0h1m1 0h2m1 0h4m5 0h3m1 0h2m1 0h1m3 0h1m3 0h1m2 0h1m2 0h4m4 0h1m1 0h7M4 71.5h2m1 0h1m1 0h1m1 0h2m1 0h2m1 0h1m1 0h1m2 0h1m1 0h1m1 0h1m1 0h3m2 0h1m1 0h5m2 0h4m1 0h1m2 0h2m2 0h1m3 0h2m1 0h3m3 0h1m2 0h1m2 0h2m1 0h3m1 0h1m3 0h1m2 0h1m1 0h4m1 0h1m8 0h4m2 0h1m1 0h1M6 72.5h3m1 0h6m1 0h1m2 0h2m3 0h2m1 0h1m1 0h1m2 0h4m1 0h1m1 0h1m3 0h1m3 0h2m3 0h1m1 0h2m1 0h2m2 0h3m1 0h1m5 0h7m7 0h2m3 0h1m1 0h5m11 0h1m2 0h1M4 73.5h3m1 0h1m5 0h4m1 0h1m1 0h2m1 0h3m1 0h1m7 0h1m1 0h1m1 0h6m3 0h2m2 0h3m1 0h1m1 0h1m2 0h1m4 0h2m4 0h1m3 0h2m2 0h4m1 0h2m3 0h1m1 0h1m3 0h1m2 0h1m1 0h3m2 0h2m1 0h3M4 74.5h1m2 0h1m2 0h3m1 0h2m1 0h3m1 0h3m2 0h1m1 0h2m3 0h1m1 0h5m1 0h7m2 0h2m1 0h3m1 0h1m1 0h2m1 0h1m3 0h1m2 0h1m1 0h1m3 0h5m1 0h2m2 0h1m1 0h2m1 0h2m3 0h4m3 0h6m2 0h2M5 75.5h2m1 0h2m1 0h2m1 0h1m5 0h2m2 0h1m3 0h1m1 0h1m1 0h1m1 0h1m1 0h1m1 0h2m1 0h4m2 0h2m3 0h1m1 0h1m1 0h2m2 0h2m2 0h1m1 0h2m4 0h6m1 0h1m5 0h3m1 0h2m1 0h3m1 0h6m1 0h1m3 0h3m1 0h1M5 76.5h1m2 0h1m1 0h1m4 0h2m1 0h1m1 0h2m2 0h2m3 0h1m1 0h1m3 0h1m1 0h2m2 0h1m2 0h1m3 0h1m1 0h1m1 0h1m6 0h1m1 0h4m1 0h2m2 0h2m4 0h1m3 0h1m3 0h2m1 0h2m2 0h1m3 0h1m1 0h2m2 0h2m2 0h1m1 0h1m1 0h1m1 0h1M7 77.5h1m6 0h1m2 0h2m2 0h1m3 0h1m6 0h1m1 0h5m1 0h3m1 0h2m3 0h3m2 0h1m1 0h2m3 0h4m4 0h3m1 0h2m1 0h1m5 0h1m1 0h2m2 0h1m1 0h1m4 0h1m3 0h4m1 0h1m1 0h1m2 0h1m1 0h2M4 78.5h1m1 0h1m1 0h3m2 0h4m3 0h8m9 0h1m2 0h2m1 0h1m4 0h5m1 0h4m1 0h4m5 0h2m3 0h4m1 0h1m1 0h4m1 0h2m1 0h1m2 0h4m4 0h4m2 0h1m1 0h1m3 0h1M4 79.5h1m1 0h1m2 0h1m2 0h5m1 0h1m1 0h3m1 0h4m1 0h1m2 0h1m5 0h4m2 0h4m1 0h2m3 0h1m4 0h1m2 0h1m1 0h1m1 0h1m2 0h1m5 0h1m2 0h1m1 0h4m1 0h2m1 0h4m1 0h2m7 0h2m1 0h2m1 0h2M4 80.5h1m1 0h1m1 0h10m3 0h2m1 0h4m2 0h1m1 0h7m3 0h1m3 0h1m1 0h4m2 0h1m1 0h6m3 0h4m1 0h3m4 0h1m1 0h7m1 0h1m3 0h1m1 0h2m3 0h3m2 0h6m2 0h2M5 81.5h4m3 0h1m1 0h1m3 0h1m1 0h2m1 0h3m1 0h1m1 0h2m1 0h1m3 0h4m1 0h1m1 0h6m4 0h1m1 0h2m3 0h1m1 0h4m3 0h1m1 0h1m1 0h1m1 0h3m2 0h1m3 0h2m1 0h5m1 0h1m1 0h3m3 0h1m2 0h1m3 0h5M4 82.5h1m1 0h1m1 0h1m1 0h1m1 0h1m1 0h2m3 0h6m2 0h1m1 0h4m1 0h1m1 0h1m2 0h2m1 0h3m1 0h2m1 0h1m2 0h1m3 0h1m1 0h1m1 0h1m2 0h1m1 0h1m1 0h2m3 0h2m1 0h1m1 0h2m1 0h1m1 0h1m1 0h4m1 0h1m1 0h1m4 0h1m6 0h2m1 0h1m1 0h2M5 83.5h4m3 0h1m2 0h2m1 0h4m1 0h1m3 0h1m1 0h2m1 0h1m3 0h3m1 0h3m1 0h6m1 0h3m1 0h2m3 0h1m5 0h1m1 0h1m1 0h1m1 0h3m1 0h1m3 0h1m3 0h1m1 0h3m1 0h1m5 0h3m4 0h2m3 0h2m1 0h2M8 84.5h5m1 0h2m1 0h2m4 0h4m1 0h1m2 0h6m1 0h1m1 0h2m1 0h1m1 0h1m1 0h3m1 0h2m2 0h8m1 0h2m3 0h4m1 0h3m2 0h7m3 0h3m1 0h2m1 0h3m1 0h1m2 0h7M4 85.5h1m2 0h2m2 0h2m1 0h1m4 0h2m1 0h2m1 0h1m2 0h1m1 0h2m2 0h2m1 0h1m6 0h1m2 0h6m1 0h3m1 0h4m3 0h1m3 0h1m2 0h2m1 0h1m1 0h1m1 0h2m1 0h1m2 0h1m1 0h2m4 0h1m1 0h4m1 0h1m1 0h1m4 0h2m3 0h1M4 86.5h3m1 0h1m1 0h1m1 0h1m1 0h1m1 0h2m1 0h3m1 0h1m4 0h2m1 0h5m1 0h1m2 0h4m2 0h5m1 0h1m2 0h1m3 0h4m1 0h4m1 0h2m2 0h2m1 0h2m1 0h2m1 0h3m2 0h5m4 0h1m1 0h5m1 0h3m2 0h1m2 0h1M4 87.5h2m2 0h1m3 0h2m1 0h1m1 0h2m3 0h2m1 0h1m3 0h2m1 0h2m2 0h1m2 0h1m1 0h1m1 0h1m1 0h1m2 0h1m2 0h2m1 0h4m1 0h1m1 0h3m1 0h1m2 0h1m3 0h1m1 0h1m1 0h2m1 0h2m1 0h1m5 0h1m3 0h2m1 0h2m1 0h1m2 0h3m3 0h6M6 88.5h1m2 0h4m3 0h2m1 0h4m1 0h1m7 0h2m1 0h1m1 0h2m2 0h3m1 0h1m1 0h1m1 0h1m7 0h6m3 0h3m1 0h3m1 0h1m2 0h1m2 0h2m2 0h4m3 0h1m2 0h2m1 0h5m1 0h2m2 0h1m1 0h1m2 0h1M4 89.5h2m3 0h1m1 0h1m1 0h1m2 0h1m1 0h1m2 0h2m2 0h1m1 0h1m3 0h3m1 0h2m1 0h1m1 0h2m2 0h1m2 0h1m2 0h3m3 0h1m1 0h1m1 0h1m1 0h2m5 0h2m2 0h2m2 0h2m1 0h1m2 0h2m1 0h1m1 0h1m1 0h2m1 0h1m1 0h2m2 0h3m3 0h1m2 0h1M4 90.5h2m1 0h2m1 0h7m2 0h2m2 0h1m1 0h1m2 0h1m1 0h1m1 0h5m3 0h1m1 0h1m1 0h1m1 0h1m7 0h2m3 0h3m1 0h6m1 0h1m2 0h3m1 0h3m1 0h4m1 0h1m1 0h2m1 0h2m1 0h2m1 0h1m1 0h4m1 0h1m2 0h6M5 91.5h1m1 0h1m3 0h1m2 0h3m2 0h2m3 0h1m1 0h1m2 0h1m1 0h1m1 0h4m6 0h3m2 0h1m2 0h1m1 0h1m1 0h2m2 0h1m2 0h6m1 0h1m5 0h3m1 0h3m2 0h2m1 0h1m1 0h1m2 0h2m1 0h1m2 0h2m2 0h5m2 0h2M5 92.5h1m4 0h2m5 0h1m2 0h6m1 0h2m6 0h2m1 0h2m5 0h2m2 0h2m1 0h1m1 0h1m4 0h1m2 0h1m1 0h1m1 0h3m1 0h3m1 0h2m1 0h1m1 0h1m2 0h1m6 0h1m1 0h2m8 0h3m2 0h1m1 0h2M5 93.5h4m2 0h2m4 0h1m2 0h1m2 0h1m4 0h2m1 0h6m1 0h2m1 0h1m2 0h1m1 0h1m2 0h1m1 0h1m1 0h2m2 0h2m3 0h1m1 0h2m6 0h1m1 0h1m1 0h2m2 0h3m1 0h1m1 0h2m2 0h1m5 0h3m1 0h3m1 0h2m1 0h2m1 0h1M5 94.5h2m3 0h3m1 0h2m3 0h1m1 0h3m1 0h1m1 0h2m2 0h3m1 0h2m1 0h1m2 0h1m2 0h4m1 0h2m1 0h5m3 0h1m3 0h1m1 0h2m5 0h1m1 0h1m1 0h1m3 0h3m1 0h1m3 0h1m1 0h5m1 0h1m1 0h1m2 0h1m1 0h2m1 0h1m1 0h1m2 0h1M6 95.5h4m1 0h3m9 0h1m3 0h1m1 0h3m4 0h4m2 0h1m3 0h1m1 0h1m2 0h2m2 0h4m1 0h2m3 0h1m3 0h3m1 0h1m1 0h2m2 0h1m4 0h2m1 0h1m2 0h1m2 0h2m2 0h1m2 0h1m2 0h2m1 0h1m2 0h4M4 96.5h2m2 0h5m1 0h1m1 0h1m1 0h2m4 0h1m1 0h4m1 0h1m2 0h2m4 0h1m2 0h1m2 0h1m1 0h1m1 0h8m1 0h2m1 0h1m1 0h2m1 0h3m1 0h1m1 0h1m1 0h2m1 0h2m1 0h1m1 0h1m2 0h5m1 0h1m1 0h1m1 0h3m2 0h2m1 0h1m1 0h1m1 0h1m2 0h1M5 97.5h1m1 0h2m2 0h1m2 0h3m2 0h3m2 0h2m1 0h3m1 0h2m7 0h1m1 0h2m1 0h1m1 0h1m3 0h1m2 0h1m1 0h1m1 0h3m2 0h1m1 0h1m2 0h1m1 0h3m2 0h1m1 0h2m3 0h1m1 0h1m1 0h1m1 0h6m1 0h2m1 0h2m4 0h1m1 0h2m1 0h1M4 98.5h1m1 0h2m1 0h4m1 0h1m1 0h2m1 0h1m2 0h3m8 0h1m1 0h3m5 0h1m1 0h1m1 0h1m2 0h2m2 0h2m2 0h1m1 0h1m2 0h3m6 0h2m2 0h1m7 0h2m2 0h1m2 0h4m3 0h2m3 0h3m1 0h4M4 99.5h1m1 0h1m1 0h2m1 0h1m2 0h1m1 0h1m1 0h2m1 0h4m2 0h1m1 0h3m5 0h1m1 0h1m1 0h1m3 0h1m1 0h1m1 0h2m1 0h1m1 0h1m2 0h1m3 0h2m2 0h1m1 0h2m2 0h1m1 0h3m1 0h1m1 0h1m2 0h2m1 0h5m2 0h4m2 0h2m2 0h1m1 0h1m1 0h1m1 0h1m1 0h1M4 100.5h2m1 0h4m4 0h1m1 0h1m1 0h4m1 0h2m1 0h1m2 0h1m1 0h1m3 0h1m2 0h5m1 0h1m1 0h1m7 0h1m3 0h2m5 0h2m2 0h2m1 0h3m1 0h2m1 0h1m3 0h2m1 0h3m2 0h2m3 0h2m4 0h3m2 0h2m1 0h2M4 101.5h2m5 0h2m1 0h1m4 0h1m1 0h2m1 0h3m9 0h2m1 0h1m1 0h1m1 0h2m4 0h1m3 0h1m1 0h4m1 0h1m1 0h2m2 0h3m1 0h2m3 0h1m1 0h2m2 0h1m2 0h2m4 0h1m1 0h1m1 0h1m2 0h2m1 0h1m1 0h2m1 0h2m2 0h2M5 102.5h4m1 0h4m3 0h1m1 0h1m1 0h2m1 0h1m2 0h1m1 0h1m2 0h1m1 0h2m3 0h1m3 0h1m1 0h3m1 0h3m1 0h5m3 0h3m4 0h2m1 0h1m1 0h1m1 0h1m5 0h1m2 0h1m1 0h2m3 0h1m2 0h4m1 0h1m4 0h2m4 0h2M6 103.5h4m1 0h4m1 0h1m3 0h3m2 0h1m2 0h1m1 0h2m5 0h1m2 0h1m4 0h2m3 0h3m2 0h1m1 0h1m1 0h1m4 0h1m1 0h3m2 0h1m2 0h7m1 0h1m2 0h1m3 0h1m2 0h3m1 0h2m1 0h3m8 0h3M4 104.5h3m1 0h1m1 0h2m1 0h1m3 0h1m1 0h1m1 0h1m2 0h2m1 0h1m1 0h2m1 0h5m1 0h2m2 0h2m3 0h1m8 0h5m2 0h2m1 0h1m7 0h3m3 0h10m2 0h1m1 0h1m1 0h1m2 0h2m1 0h1m1 0h5M12 105.5h2m2 0h4m2 0h1m9 0h1m3 0h1m3 0h1m3 0h1m1 0h2m1 0h1m1 0h1m1 0h1m1 0h2m3 0h3m2 0h3m1 0h1m1 0h1m1 0h4m3 0h1m3 0h1m1 0h4m1 0h1m1 0h2m1 0h9m3 0h3M4 106.5h7m1 0h1m2 0h2m1 0h3m5 0h1m1 0h5m1 0h1m1 0h1m1 0h1m1 0h1m1 0h1m1 0h2m3 0h2m2 0h4m1 0h1m1 0h1m1 0h2m1 0h1m2 0h2m3 0h1m5 0h2m1 0h1m1 0h1m3 0h3m1 0h3m5 0h1m3 0h1m1 0h1m1 0h5M4 107.5h1m5 0h1m2 0h2m1 0h2m1 0h1m1 0h2m7 0h1m1 0h1m3 0h2m2 0h1m2 0h1m2 0h1m1 0h1m1 0h1m1 0h1m2 0h2m3 0h1m3 0h1m2 0h2m1 0h3m1 0h2m3 0h2m3 0h2m1 0h2m2 0h3m1 0h2m4 0h4m3 0h1m2 0h1M4 108.5h1m1 0h3m1 0h1m1 0h2m2 0h2m1 0h1m1 0h1m1 0h4m3 0h1m1 0h6m1 0h1m1 0h4m1 0h4m3 0h1m2 0h5m5 0h2m2 0h2m3 0h11m2 0h3m2 0h2m2 0h1m1 0h1m1 0h12M4 109.5h1m1 0h3m1 0h1m2 0h1m3 0h5m1 0h1m1 0h2m3 0h5m1 0h2m1 0h2m1 0h3m1 0h2m1 0h1m2 0h1m1 0h1m1 0h5m2 0h1m1 0h2m2 0h1m4 0h1m1 0h1m2 0h3m2 0h1m4 0h4m1 0h4m2 0h5m1 0h1m3 0h1m1 0h1M4 110.5h1m1 0h3m1 0h1m2 0h6m5 0h1m3 0h1m2 0h2m6 0h1m1 0h2m1 0h1m1 0h3m3 0h1m2 0h1m2 0h2m1 0h3m1 0h1m2 0h1m2 0h1m4 0h2m1 0h2m2 0h1m3 0h1m1 0h1m1 0h1m2 0h4m1 0h2m1 0h3m2 0h2m2 0h1M4 111.5h1m5 0h1m3 0h1m1 0h1m2 0h1m4 0h1m1 0h1m3 0h1m1 0h6m5 0h1m1 0h1m4 0h3m2 0h1m1 0h2m3 0h1m1 0h5m3 0h1m1 0h1m1 0h1m1 0h1m1 0h3m3 0h2m1 0h1m1 0h1m1 0h1m1 0h1m2 0h1m2 0h1m3 0h1m3 0h1m1 0h1M4 112.5h7m1 0h1m2 0h1m3 0h1m2 0h3m2 0h2m1 0h2m2 0h3m1 0h2m2 0h2m6 0h2m1 0h1m1 0h1m2 0h1m1 0h1m6 0h1m2 0h3m2 0h3m1 0h1m1 0h2m2 0h2m1 0h2m1 0h1m1 0h1m6 0h1m1 0h1m2 0h2m1 0h1m1 0h3"/></svg>
