<svg xmlns="http://www.w3.org/2000/svg" viewBox="0 0 113 113" shape-rendering="crispEdges"><path fill="#ffffff" d="M0 0h113v113H0z"/><path stroke="#000000" d="M4 4.5h7m1 0h1m2 0h1m10 0h1m3 0h2m2 0h1m1 0h2m2 0h1m1 0h2m5 0h2m2 0h2m2 0h5m3 0h5m1 0h1m1 0h4m1 0h3m1 0h2m1 0h1m1 0h2m3 0h1m4 0h2m3 0h7M4 5.5h1m5 0h1m1 0h3m1 0h1m1 0h3m1 0h2m1 0h1m1 0h3m9 0h3m1 0h2m2 0h1m1 0h1m1 0h2m1 0h1m1 0h1m3 0h3m1 0h6m2 0h5m2 0h1m4 0h1m3 0h2m1 0h3m1 0h4m3 0h1m5 0h1M4 6.5h1m1 0h3m1 0h1m1 0h2m1 0h6m1 0h1m1 0h1m1 0h1m1 0h1m1 0h1m3 0h5m1 0h1m1 0h1m1 0h1m5 0h4m2 0h1m2 0h1m1 0h3m1 0h1m2 0h1m2 0h1m1 0h2m1 0h2m1 0h6m5 0h2m2 0h1m3 0h2m2 0h1m1 0h3m1 0h1M4 7.5h1m1 0h3m1 0h1m3 0h1m5 0h4m2 0h1m2 0h1m1 0h5m1 0h5m2 0h2m1 0h4m1 0h3m1 0h5m5 0h1m2 0h1m3 0h2m2 0h4m1 0h4m1 0h1m1 0h3m1 0h1m1 0h1m4 0h1m1 0h1m1 0h3m1 0h1M4 8.5h1m1 0h3m1 0h1m1 0h1m3 0h2m1 0h2m2 0h1m4 0h9m3 0h3m1 0h1m1 0h2m1 0h2m1 0h5m1 0h1m1 0h1m4 0h4m1 0h2m3 0h8m2 0h5m1 0h4m2 0h1m1 0h2m1 0h1m1 0h3m1 0h1M4 9.5h1m5 0h1m2 0h3m2 0h2m1 0h2m1 0h3m1 0h1m3 0h1m3 0h1m1 0h1m2 0h3m1 0h2m4 0h2m3 0h4m1 0h1m2 0h1m3 0h5m2 0h2m3 0h1m2 0h2m3 0h2m1 0h1m3 0h1m3 0h1m2 0h1m5 0h1M4 10.5h7m1 0h1m1 0h1m1 0h1m1 0h1m1 0h1m1 0h1m1 0h1m1 0h1m1 0h1m1 0h1m1 0h1m1 0h1m1 0h1m1 0h1m1 0h1m1 0h1m1 0h1m1 0h1m1 0h1m1 0h1m1 0h1m1 0h1m1 0h1m1 0h1m1 0h1m1 0h1m1 0h1m1 0h1m1 0h1m1 0h1m1 0h1m1 0h1m1 0h1m1 0h1m1 0h1m1 0h1m1 0h1m1 0h1m1 0h1m1 0h1m1 0h1m1 0h1m1 0h1m1 0h1m1 0h1m1 0h7M14 11.5h1m4 0h3m1 0h1m4 0h1m3 0h4m1 0h1m1 0h1m1 0h1m3 0h2m1 0h2m1 0h2m3 0h1m1 0h4m1 0h1m2 0h3m4 0h2m1 0h1m3 0h2m1 0h1m5 0h1m3 0h1m1 0h5M4 12.5h1m2 0h6m1 0h1m3 0h3m1 0h2m4 0h6m2 0h3m2 0h1m1 0h1m2 0h2m1 0h1m2 0h7m2 0h3m3 0h3m1 0h1m2 0h1m1 0h6m2 0h1m2 0h2m3 0h6m1 0h3m2 0h1m1 0h3M4 13.5h2m3 0h1m3 0h2m1 0h4m1 0h3m1 0h7m3 0h1m1 0h3m1 0h8m5 0h3m1 0h1m1 0h4m4 0h1m2 0h2m4 0h1m1 0h1m3 0h3m2 0h1m1 0h6m1 0h2m1 0h1m1 0h1m1 0h2m2 0h1M4 14.5h2m1 0h1m2 0h1m1 0h1m1 0h1m1 0h4m1 0h1m2 0h1m3 0h5m1 0h3m5 0h2m2 0h1m2 0h3m1 0h2m1 0h2m1 0h2m2 0h1m3 0h2m3 0h2m1 0h2m4 0h3m3 0h1m1 0h2m1 0h3m2 0h2m2 0h3m2 0h1M4 15.5h2m3 0h1m1 0h1m2 0h2m1 0h3m1 0h1m1 0h2m2 0h1m1 0h1m1 0h1m1 0h1m4 0h4m2 0h2m1 0h1m1 0h1m3 0h2m2 0h3m4 0h3m2 0h2m1 0h2m1 0h1m1 0h3m1 0h2m2 0h1m1 0h2m2 0h1m2 0h1m1 0h2m1 0h1m3 0h3M5 16.5h2m3 0h1m2 0h1m1 0h1m1 0h1m1 0h3m1 0h4m4 0h3m1 0h1m4 0h1m2 0h1m1 0h2m1 0h2m2 0h2m6 0h3m1 0h1m1 0h2m2 0h1m2 0h4m1 0h1m1 0h2m3 0h1m4 0h2m1 0h2m2 0h1m1 0h2m1 0h1m1 0h1m1 0h2M7 17.5h2m2 0h1m1 0h1m3 0h3m1 0h2m1 0h2m4 0h1m1 0h2m1 0h2m1 0h4m1 0h3m1 0h1m4 0h1m1 0h1m1 0h3m3 0h2m1 0h1m2 0h1m1 0h4m2 0h6m1 0h5m1 0h4m2 0h4m3 0h2m3 0h2M4 18.5h2m3 0h2m1 0h2m1 0h1m1 0h1m1 0h1m1 0h1m5 0h2m1 0h1m3 0h2m3 0h2m2 0h1m2 0h2m1 0h4m2 0h2m2 0h4m1 0h1m1 0h6m1 0h2m1 0h2m1 0h2m4 0h1m2 0h1m1 0h1m3 0h3m1 0h3m2 0h2m1 0h1m1 0h1M4 19.5h2m1 0h1m3 0h1m1 0h3m7 0h2m3 0h1m1 0h4m1 0h1m1 0h1m1 0h1m1 0h1m2 0h2m2 0h2m1 0h3m4 0h1m1 0h3m4 0h2m3 0h3m1 0h1m4 0h1m6 0h1m3 0h3m2 0h2m1 0h1m1 0h1m1 0h1m1 0h2M4 20.5h1m1 0h1m2 0h3m1 0h1m2 0h3m5 0h4m1 0h2m2 0h7m1 0h4m4 0h1m3 0h1m1 0h1m2 0h1m2 0h1m1 0h2m2 0h1m1 0h2m1 0h1m1 0h2m3 0h3m3 0h1m1 0h1m3 0h1m2 0h1m1 0h1m2 0h4m1 0h1m1 0h2M4 21.5h2m2 0h2m3 0h4m1 0h2m4 0h1m3 0h4m1 0h2m2 0h2m1 0h1m2 0h1m1 0h2m1 0h1m1 0h2m2 0h1m5 0h1m1 0h2m1 0h1m1 0h2m1 0h5m2 0h8m1 0h1m1 0h1m1 0h1m1 0h2m2 0h2m1 0h3m2 0h1m1 0h1m1 0h1M4 22.5h1m3 0h1m1 0h1m1 0h2m2 0h5m1 0h1m2 0h1m1 0h5m1 0h2m1 0h1m4 0h1m4 0h2m2 0h3m2 0h2m6 0h2m3 0h7m1 0h2m1 0h3m3 0h4m2 0h2m1 0h2m1 0h1m1 0h2m2 0h1m1 0h2m1 0h1M4 23.5h3m1 0h1m2 0h1m4 0h1m1 0h1m2 0h2m1 0h14m1 0h1m1 0h4m2 0h1m2 0h9m1 0h7m1 0h2m1 0h1m1 0h4m2 0h3m5 0h2m1 0h1m1 0h3m1 0h2m2 0h5m3 0h1M7 24.5h2m1 0h4m4 0h1m1 0h1m1 0h1m1 0h2m1 0h2m4 0h4m1 0h5m1 0h1m7 0h1m1 0h1m2 0h1m1 0h1m1 0h1m1 0h2m1 0h1m2 0h2m6 0h4m2 0h1m2 0h1m1 0h1m2 0h1m2 0h1m2 0h1m1 0h2m4 0h2M5 25.5h2m5 0h1m1 0h1m2 0h1m1 0h6m1 0h1m3 0h1m2 0h1m1 0h1m7 0h1m2 0h4m1 0h1m4 0h2m3 0h1m1 0h4m1 0h1m1 0h1m1 0h1m1 0h2m1 0h3m1 0h2m3 0h6m1 0h4m6 0h4m1 0h1M4 26.5h1m3 0h4m6 0h1m2 0h1m1 0h2m1 0h2m1 0h1m2 0h1m1 0h1m1 0h1m1 0h2m1 0h5m1 0h2m1 0h2m1 0h1m1 0h4m1 0h3m2 0h2m1 0h1m1 0h3m4 0h3m1 0h1m1 0h3m1 0h1m2 0h1m2 0h1m1 0h6m2 0h1m1 0h2m1 0h1M7 27.5h1m3 0h1m2 0h1m1 0h4m1 0h3m3 0h1m1 0h2m1 0h1m4 0h1m1 0h1m1 0h2m1 0h1m1 0h1m8 0h2m1 0h7m5 0h1m1 0h1m1 0h3m1 0h2m3 0h4m2 0h4m1 0h1m1 0h5m1 0h1m1 0h3M4 28.5h2m1 0h7m1 0h1m4 0h1m1 0h1m1 0h1m1 0h7m1 0h3m2 0h1m3 0h1m1 0h1m2 0h2m1 0h7m1 0h2m1 0h3m3 0h3m3 0h1m1 0h5m1 0h2m2 0h1m1 0h3m1 0h1m2 0h1m2 0h7m1 0h1m1 0h1M5 29.5h4m3 0h1m1 0h2m4 0h1m2 0h2m1 0h3m3 0h4m3 0h1m1 0h1m1 0h1m2 0h3m1 0h1m1 0h1m3 0h1m2 0h2m1 0h1m3 0h3m1 0h3m2 0h2m3 0h2m2 0h3m5 0h6m2 0h1m3 0h1m1 0h1M8 30.5h1m1 0h1m1 0h2m2 0h1m1 0h3m1 0h1m3 0h3m1 0h1m1 0h1m1 0h1m1 0h2m6 0h1m1 0h1m3 0h3m1 0h1m1 0h1m4 0h1m2 0h2m2 0h2m3 0h1m2 0h1m1 0h1m1 0h1m1 0h1m1 0h1m1 0h5m1 0h4m1 0h4m1 0h1m1 0h2m2 0h1M6 31.5h1m1 0h1m3 0h1m3 0h4m2 0h1m1 0h3m1 0h1m3 0h1m1 0h1m1 0h1m3 0h3m1 0h1m1 0h1m1 0h2m1 0h2m3 0h1m1 0h1m1 0h3m2 0h2m3 0h5m1 0h1m3 0h1m1 0h3m2 0h1m1 0h3m3 0h1m2 0h3m3 0h2M5 32.5h1m2 0h5m4 0h2m1 0h2m1 0h2m3 0h7m1 0h1m2 0h1m1 0h1m3 0h4m2 0h6m2 0h1m2 0h3m2 0h2m1 0h2m1 0h1m1 0h6m5 0h1m1 0h1m4 0h1m3 0h1m2 0h5m1 0h3M5 33.5h3m3 0h1m2 0h4m1 0h1m1 0h1m1 0h3m2 0h2m5 0h1m1 0h2m3 0h1m2 0h2m3 0h1m4 0h1m5 0h1m1 0h2m1 0h1m2 0h1m1 0h3m1 0h1m5 0h1m3 0h1m1 0h2m2 0h6m2 0h1m1 0h2m1 0h5M4 34.5h1m1 0h6m2 0h1m1 0h2m1 0h4m3 0h1m2 0h1m2 0h1m1 0h1m2 0h1m2 0h1m2 0h2m2 0h1m4 0h3m4 0h3m1 0h1m1 0h4m2 0h1m5 0h2m4 0h2m2 0h2m3 0h7m1 0h1m2 0h1m1 0h1m1 0h2M6 35.5h1m1 0h2m2 0h1m1 0h3m1 0h2m3 0h4m3 0h2m1 0h2m4 0h3m1 0h2m5 0h1m2 0h1m4 0h2m1 0h2m13 0h2m1 0h2m1 0h3m2 0h1m2 0h1m2 0h1m1 0h4m2 0h3m1 0h2m1 0h1M4 36.5h4m1 0h3m2 0h3m1 0h2m2 0h1m1 0h2m1 0h3m4 0h1m2 0h1m2 0h2m4 0h1m2 0h1m6 0h1m5 0h1m1 0h2m2 0h1m2 0h4m3 0h2m5 0h2m2 0h2m1 0h4m1 0h3m1 0h1m1 0h1m1 0h1m1 0h2M4 37.5h1m1 0h3m3 0h1m1 0h1m2 0h2m1 0h3m3 0h1m1 0h1m1 0h2m1 0h1m2 0h2m1 0h1m1 0h1m3 0h2m2 0h5m3 0h1m1 0h3m1 0h1m1 0h6m3 0h1m3 0h1m1 0h9m3 0h1m2 0h1m3 0h1m2 0h1m1 0h2m2 0h1M4 38.5h2m3 0h2m1 0h1m1 0h3m3 0h11m3 0h1m2 0h1m1 0h3m1 0h1m1 0h1m1 0h5m2 0h2m1 0h1m2 0h5m2 0h2m1 0h2m3 0h3m1 0h1m2 0h2m1 0h1m1 0h2m6 0h6m1 0h1M6 39.5h1m6 0h2m1 0h1m1 0h1m1 0h1m1 0h2m2 0h1m1 0h1m1 0h2m2 0h3m1 0h3m2 0h2m2 0h2m4 0h1m1 0h3m3 0h1m1 0h1m3 0h3m2 0h1m1 0h3m3 0h3m1 0h3m3 0h2m1 0h2m2 0h3m3 0h1m2 0h3M5 40.5h2m2 0h3m2 0h1m8 0h2m1 0h3m1 0h1m1 0h3m1 0h2m2 0h1m7 0h2m1 0h2m1 0h3m2 0h6m1 0h1m3 0h1m1 0h1m1 0h1m3 0h2m6 0h2m3 0h2m1 0h3m2 0h2m1 0h4m1 0h1M5 41.5h2m1 0h2m4 0h1m1 0h1m1 0h2m1 0h1m1 0h1m1 0h1m2 0h2m3 0h1m7 0h1m3 0h3m1 0h4m1 0h1m7 0h2m2 0h1m1 0h5m2 0h3m1 0h1m1 0h1m3 0h3m1 0h1m1 0h2m1 0h5m2 0h3m1 0h1m1 0h2M6 42.5h1m1 0h3m2 0h1m2 0h1m2 0h1m2 0h4m2 0h3m1 0h2m2 0h3m1 0h1m1 0h3m1 0h1m3 0h3m1 0h3m2 0h3m1 0h1m1 0h3m1 0h5m1 0h2m1 0h1m2 0h1m3 0h1m1 0h2m1 0h2m2 0h5m1 0h1m1 0h1m1 0h1m3 0h1M4 43.5h1m2 0h1m4 0h1m3 0h2m2 0h7m2 0h1m3 0h2m1 0h3m1 0h2m1 0h2m1 0h3m3 0h2m2 0h1m2 0h1m2 0h1m1 0h2m5 0h4m1 0h1m1 0h1m1 0h1m3 0h1m2 0h2m1 0h4m1 0h1m4 0h2m2 0h1M4 44.5h5m1 0h2m2 0h8m1 0h1m2 0h1m2 0h4m1 0h2m4 0h3m5 0h1m3 0h1m3 0h2m1 0h1m3 0h4m2 0h1m2 0h1m1 0h2m1 0h1m1 0h2m1 0h3m2 0h2m2 0h1m1 0h2m1 0h2m2 0h1m2 0h5M5 45.5h2m1 0h2m2 0h1m1 0h3m1 0h4m1 0h2m2 0h1m1 0h1m4 0h1m1 0h1m2 0h2m4 0h1m5 0h2m4 0h1m2 0h4m1 0h1m1 0h1m3 0h3m2 0h4m1 0h2m2 0h4m5 0h1m1 0h1m1 0h2m1 0h1m1 0h4M4 46.5h8m2 0h2m1 0h2m1 0h1m2 0h1m1 0h1m2 0h1m1 0h3m2 0h3m1 0h1m3 0h1m5 0h1m5 0h1m2 0h1m3 0h3m5 0h4m2 0h2m1 0h3m3 0h1m1 0h1m1 0h2m1 0h4m1 0h1m1 0h1m2 0h2m1 0h4M4 47.5h1m1 0h2m1 0h1m1 0h1m1 0h3m2 0h1m3 0h1m1 0h3m5 0h1m3 0h1m2 0h1m2 0h2m2 0h2m6 0h3m1 0h3m1 0h3m3 0h1m1 0h4m4 0h1m4 0h1m1 0h2m2 0h1m1 0h1m1 0h3m1 0h1m2 0h1m3 0h3M4 48.5h2m1 0h5m2 0h2m6 0h1m2 0h1m8 0h3m3 0h2m2 0h2m1 0h6m4 0h2m2 0h1m9 0h1m1 0h2m2 0h1m2 0h1m1 0h2m1 0h1m2 0h1m4 0h4m3 0h2m4 0h2M6 49.5h2m3 0h2m1 0h2m1 0h2m7 0h1m1 0h1m1 0h2m4 0h1m2 0h1m8 0h3m1 0h1m2 0h2m4 0h1m4 0h2m1 0h2m1 0h2m3 0h1m1 0h3m2 0h1m1 0h1m2 0h2m1 0h1m2 0h1m3 0h1m1 0h1m4 0h1M4 50.5h1m1 0h1m1 0h5m3 0h4m2 0h3m3 0h1m2 0h1m2 0h2m1 0h4m1 0h1m1 0h1m2 0h1m1 0h1m2 0h1m1 0h1m1 0h1m4 0h2m1 0h1m2 0h2m1 0h3m1 0h2m2 0h3m1 0h4m3 0h5m2 0h1m1 0h2m2 0h3m1 0h3M4 51.5h3m1 0h1m6 0h3m1 0h1m1 0h2m3 0h1m1 0h4m1 0h3m1 0h1m1 0h1m4 0h3m2 0h3m4 0h2m2 0h1m1 0h8m6 0h1m1 0h3m9 0h3m2 0h1m2 0h2m1 0h3m1 0h3M4 52.5h1m2 0h6m2 0h2m1 0h2m5 0h2m1 0h6m5 0h1m1 0h2m2 0h2m1 0h11m8 0h1m2 0h3m1 0h1m1 0h5m1 0h1m7 0h1m2 0h1m1 0h1m1 0h2m1 0h5m1 0h1m1 0h1M4 53.5h1m3 0h1m3 0h4m2 0h1m7 0h3m3 0h6m1 0h2m3 0h2m1 0h3m2 0h1m3 0h2m2 0h3m1 0h3m1 0h2m1 0h1m2 0h1m1 0h1m3 0h2m1 0h3m5 0h1m2 0h5m1 0h1m3 0h1m2 0h2M4 54.5h3m1 0h1m1 0h1m1 0h2m2 0h2m1 0h4m3 0h1m1 0h1m1 0h1m1 0h2m4 0h2m1 0h2m1 0h3m1 0h5m1 0h1m1 0h1m3 0h2m1 0h2m1 0h1m1 0h1m3 0h1m2 0h2m1 0h1m1 0h1m1 0h1m1 0h1m1 0h4m1 0h1m2 0h7m1 0h1m1 0h1m1 0h3M4 55.5h1m1 0h1m1 0h1m3 0h1m2 0h1m3 0h2m1 0h2m1 0h1m2 0h1m3 0h1m2 0h2m1 0h3m1 0h1m1 0h1m1 0h1m1 0h5m3 0h1m3 0h2m1 0h1m1 0h4m2 0h1m4 0h1m3 0h1m6 0h3m1 0h1m1 0h1m3 0h1m2 0h1m3 0h2m2 0h1M4 56.5h2m1 0h7m1 0h1m2 0h2m2 0h1m1 0h1m2 0h6m2 0h3m1 0h2m1 0h1m2 0h1m1 0h2m3 0h7m1 0h1m4 0h1m4 0h3m3 0h7m3 0h7m1 0h1m1 0h9m1 0h2M6 57.5h2m1 0h1m3 0h3m1 0h1m2 0h1m3 0h1m3 0h1m3 0h1m5 0h2m1 0h2m1 0h1m1 0h1m1 0h2m1 0h5m1 0h6m3 0h1m3 0h2m6 0h4m1 0h1m1 0h1m5 0h5m1 0h3m2 0h1m1 0h2M6 58.5h1m2 0h3m1 0h4m2 0h1m1 0h2m1 0h1m1 0h1m5 0h3m1 0h1m1 0h4m1 0h1m5 0h3m3 0h5m2 0h1m3 0h2m1 0h1m2 0h2m1 0h3m3 0h1m2 0h1m4 0h3m1 0h1m2 0h1m2 0h2m1 0h1m2 0h1M5 59.5h3m4 0h1m2 0h2m3 0h2m2 0h3m1 0h1m1 0h1m1 0h1m3 0h3m3 0h2m2 0h1m3 0h1m1 0h1m4 0h1m1 0h1m2 0h1m1 0h1m1 0h3m1 0h1m4 0h4m1 0h1m1 0h3m3 0h2m1 0h4m1 0h1m3 0h1m1 0h1m1 0h1M4 60.5h4m2 0h4m2 0h5m1 0h2m5 0h1m1 0h1m1 0h3m1 0h1m4 0h1m1 0h1m1 0h1m1 0h2m1 0h1m1 0h1m1 0h1m1 0h1m2 0h2m1 0h1m4 0h2m1 0h1m6 0h2m5 0h3m1 0h5m1 0h1m1 0h4m3 0h1m1 0h2M4 61.5h3m5 0h1m5 0h1m1 0h1m2 0h3m2 0h1m1 0h1m3 0h1m1 0h1m2 0h1m1 0h4m1 0h1m1 0h1m1 0h3m1 0h3m2 0h6m2 0h1m2 0h3m1 0h3m1 0h3m3 0h3m1 0h2m1 0h2m2 0h4m1 0h3m1 0h1m1 0h2M6 62.5h3m1 0h2m2 0h4m1 0h1m2 0h3m1 0h1m1 0h1m1 0h4m1 0h1m1 0h2m1 0h1m1 0h3m1 0h1m1 0h2m4 0h1m3 0h1m2 0h3m6 0h4m1 0h4m1 0h2m4 0h2m2 0h1m1 0h1m1 0h2m1 0h1m1 0h1m2 0h1m1 0h1M5 63.5h2m1 0h2m5 0h3m2 0h5m3 0h5m2 0h1m3 0h1m1 0h3m3 0h3m2 0h4m2 0h1m2 0h1m4 0h1m6 0h1m1 0h2m3 0h2m1 0h1m2 0h1m1 0h1m6 0h1m1 0h1m2 0h1m1 0h1m1 0h1m1 0h2M4 64.5h2m2 0h1m1 0h4m1 0h1m7 0h1m2 0h1m1 0h5m3 0h4m5 0h2m3 0h1m1 0h2m1 0h1m5 0h3m4 0h1m3 0h2m1 0h1m1 0h2m1 0h2m2 0h1m1 0h1m1 0h3m1 0h7m1 0h1m1 0h4m2 0h1M4 65.5h3m2 0h1m1 0h1m1 0h4m1 0h1m4 0h1m3 0h1m1 0h2m1 0h1m3 0h1m2 0h1m2 0h3m3 0h6m2 0h1m2 0h1m5 0h2m3 0h3m1 0h1m1 0h1m10 0h1m1 0h2m2 0h4m2 0h1m2 0h2m1 0h1m1 0h2M6 66.5h1m2 0h3m4 0h6m2 0h2m1 0h1m3 0h3m1 0h1m1 0h3m3 0h1m1 0h3m1 0h3m1 0h1m3 0h1m1 0h1m3 0h1m3 0h2m5 0h2m1 0h1m2 0h5m4 0h1m2 0h1m1 0h1m1 0h1m1 0h1m1 0h2m2 0h2m1 0h2M5 67.5h5m3 0h2m1 0h1m2 0h2m3 0h1m1 0h1m2 0h1m1 0h1m2 0h1m1 0h3m2 0h4m5 0h5m1 0h1m1 0h4m1 0h3m1 0h1m1 0h1m4 0h1m2 0h3m3 0h1m4 0h3m2 0h1m1 0h1m1 0h3m1 0h1m3 0h1m1 0h2M7 68.5h2m1 0h1m1 0h2m4 0h1m1 0h1m2 0h1m1 0h2m7 0h2m3 0h2m1 0h1m1 0h6m1 0h1m1 0h1m5 0h3m1 0h8m1 0h3m3 0h2m1 0h1m2 0h2m1 0h1m3 0h1m2 0h3m5 0h1m1 0h1m2 0h1M4 69.5h3m1 0h2m1 0h1m4 0h2m1 0h2m1 0h1m1 0h1m3 0h1m1 0h1m1 0h2m3 0h1m5 0h1m2 0h2m2 0h1m5 0h2m3 0h2m1 0h4m1 0h1m2 0h2m2 0h2m7 0h2m2 0h1m3 0h1m3 0h1m1 0h1m4 0h2m1 0h2M5 70.5h3m2 0h1m2 0h1m2 0h1m2 0h2m2 0h4m1 0h1m4 0h3m2 0h1m2 0h1m2 0h3m1 0h1m3 0h1m1 0h1m1 0h1m2 0h1m1 0h2m1 0h2m1 0h3m1 0h1m3 0h2m1 0h4m1 0h4m2 0h1m1 0h1m1 0h4m1 0h1m3 0h1m1 0h1m1 0h2M4 71.5h1m6 0h5m1 0h1m8 0h1m1 0h1m1 0h1m1 0h1m6 0h1m5 0h2m4 0h4m3 0h2m1 0h1m2 0h2m3 0h2m1 0h1m2 0h2m1 0h5m1 0h5m1 0h2m3 0h1m3 0h5m2 0h3M5 72.5h1m4 0h1m1 0h1m3 0h4m2 0h1m1 0h2m4 0h1m1 0h1m1 0h4m2 0h4m2 0h3m1 0h1m2 0h2m1 0h4m1 0h4m1 0h1m1 0h2m1 0h1m2 0h3m2 0h1m1 0h1m2 0h2m2 0h2m1 0h2m1 0h1m2 0h1m3 0h1m6 0h1M9 73.5h1m3 0h1m1 0h1m3 0h3m1 0h4m4 0h3m1 0h1m1 0h2m1 0h1m1 0h2m2 0h1m1 0h1m3 0h3m1 0h1m1 0h1m2 0h2m1 0h1m2 0h2m5 0h3m2 0h1m3 0h7m2 0h4m1 0h2m1 0h1m2 0h2m1 0h1M4 74.5h1m3 0h1m1 0h2m2 0h1m1 0h4m1 0h1m1 0h1m2 0h1m1 0h1m2 0h2m1 0h1m3 0h2m1 0h1m1 0h1m1 0h4m4 0h2m3 0h1m1 0h2m2 0h2m1 0h2m1 0h1m2 0h6m1 0h2m1 0h1m3 0h2m1 0h3m1 0h1m1 0h1m1 0h1m2 0h1m4 0h3M7 75.5h1m4 0h4m2 0h1m4 0h1m1 0h1m5 0h5m1 0h4m1 0h1m3 0h2m1 0h4m3 0h2m1 0h6m4 0h1m5 0h1m4 0h3m2 0h2m1 0h1m1 0h1m1 0h5m1 0h5m1 0h1m2 0h1M5 76.5h9m1 0h1m1 0h2m6 0h2m1 0h6m1 0h2m1 0h2m2 0h1m1 0h1m1 0h4m1 0h6m2 0h1m2 0h1m1 0h1m5 0h2m2 0h12m2 0h1m1 0h1m1 0h5m1 0h1m1 0h5m3 0h1M4 77.5h2m2 0h1m3 0h1m6 0h1m8 0h1m3 0h1m1 0h2m2 0h4m1 0h2m1 0h2m2 0h1m1 0h1m3 0h2m3 0h2m1 0h2m2 0h1m2 0h4m1 0h1m3 0h1m2 0h1m4 0h1m3 0h2m1 0h1m3 0h2m3 0h1m1 0h1M4 78.5h2m2 0h1m1 0h1m1 0h6m3 0h4m1 0h3m1 0h1m1 0h1m3 0h1m2 0h7m1 0h4m1 0h1m1 0h1m1 0h1m2 0h1m1 0h1m2 0h1m1 0h1m1 0h1m1 0h3m1 0h1m1 0h1m1 0h1m1 0h1m2 0h1m2 0h1m1 0h1m1 0h1m1 0h1m2 0h6m1 0h1m1 0h3m1 0h1M5 79.5h1m1 0h2m3 0h1m1 0h2m3 0h3m1 0h6m3 0h3m3 0h5m1 0h1m5 0h1m1 0h1m3 0h4m4 0h1m1 0h4m6 0h1m3 0h1m1 0h3m2 0h1m2 0h1m1 0h2m2 0h2m1 0h2m3 0h5M4 80.5h3m1 0h6m1 0h2m1 0h1m2 0h1m3 0h2m1 0h6m2 0h1m1 0h1m1 0h1m2 0h1m1 0h1m6 0h6m5 0h5m1 0h5m2 0h6m2 0h3m2 0h2m1 0h1m1 0h2m1 0h12M5 81.5h1m2 0h2m2 0h2m1 0h2m1 0h1m2 0h2m2 0h1m3 0h1m1 0h1m2 0h5m1 0h3m1 0h2m1 0h1m3 0h1m6 0h6m2 0h3m1 0h1m5 0h1m1 0h2m1 0h3m1 0h3m2 0h2m1 0h1m4 0h1m2 0h8M4 82.5h1m1 0h1m3 0h2m3 0h1m1 0h2m2 0h2m2 0h4m1 0h1m3 0h1m1 0h1m1 0h1m3 0h4m2 0h1m1 0h1m3 0h1m1 0h1m1 0h1m1 0h1m5 0h1m2 0h6m1 0h4m1 0h2m2 0h1m4 0h5m3 0h2m3 0h5M4 83.5h3m4 0h2m2 0h1m4 0h1m1 0h2m1 0h1m1 0h1m1 0h2m1 0h2m1 0h1m1 0h4m1 0h1m2 0h2m1 0h3m1 0h2m1 0h1m1 0h1m1 0h2m1 0h1m2 0h1m1 0h1m1 0h2m2 0h2m2 0h6m3 0h1m3 0h2m1 0h1m1 0h4m1 0h2m1 0h1m3 0h1M4 84.5h3m1 0h1m1 0h3m8 0h2m2 0h1m5 0h1m4 0h1m1 0h3m2 0h2m1 0h3m1 0h2m1 0h2m1 0h1m1 0h2m1 0h2m1 0h2m4 0h1m5 0h2m1 0h3m1 0h1m1 0h1m2 0h1m2 0h1m3 0h1m1 0h1m1 0h4m3 0h3M6 85.5h4m1 0h3m2 0h1m2 0h3m1 0h3m2 0h2m3 0h4m1 0h3m2 0h1m1 0h3m5 0h2m1 0h1m4 0h1m2 0h1m1 0h5m1 0h1m2 0h1m2 0h1m1 0h1m1 0h2m1 0h2m2 0h2m1 0h1m3 0h2m3 0h1m2 0h1m1 0h3M4 86.5h1m2 0h1m2 0h4m3 0h2m4 0h1m2 0h1m2 0h1m1 0h3m4 0h2m1 0h1m1 0h1m3 0h2m2 0h2m1 0h2m1 0h1m3 0h1m2 0h1m4 0h1m1 0h1m2 0h5m1 0h1m1 0h2m2 0h2m1 0h2m2 0h1m7 0h3m1 0h1m1 0h1M5 87.5h3m6 0h2m1 0h1m5 0h1m1 0h10m4 0h1m2 0h2m2 0h2m2 0h1m5 0h2m2 0h4m1 0h2m1 0h1m3 0h1m1 0h2m1 0h1m4 0h2m3 0h1m3 0h2m2 0h3m2 0h2m2 0h3m1 0h1M4 88.5h3m2 0h2m2 0h5m7 0h1m1 0h2m1 0h3m2 0h5m2 0h1m5 0h1m4 0h2m2 0h1m2 0h1m1 0h2m3 0h4m1 0h1m5 0h4m3 0h1m1 0h5m1 0h1m1 0h1m1 0h6m4 0h2M6 89.5h3m3 0h3m2 0h1m1 0h3m1 0h1m5 0h4m1 0h2m1 0h1m3 0h1m1 0h1m1 0h1m1 0h1m2 0h1m2 0h1m2 0h6m1 0h1m2 0h3m1 0h2m1 0h2m2 0h1m2 0h1m1 0h2m1 0h2m2 0h1m1 0h2m2 0h2m2 0h1m1 0h1m1 0h1m1 0h1m1 0h1M6 90.5h2m1 0h2m1 0h1m1 0h6m1 0h1m1 0h2m2 0h1m5 0h3m1 0h1m2 0h1m1 0h2m4 0h7m1 0h1m4 0h3m4 0h3m1 0h2m4 0h2m1 0h1m1 0h1m2 0h1m5 0h1m1 0h1m2 0h1m2 0h2m1 0h1m2 0h1M5 91.5h2m2 0h1m2 0h1m1 0h4m4 0h1m1 0h2m1 0h2m1 0h1m1 0h3m3 0h1m1 0h1m3 0h3m2 0h1m4 0h1m5 0h5m4 0h4m1 0h1m2 0h1m2 0h1m1 0h1m1 0h1m3 0h3m2 0h2m1 0h1m3 0h2m1 0h1m1 0h2m1 0h1M5 92.5h2m2 0h2m6 0h2m1 0h1m1 0h1m1 0h1m3 0h1m1 0h5m2 0h1m2 0h4m1 0h1m1 0h2m3 0h1m1 0h1m1 0h1m1 0h2m1 0h3m1 0h1m6 0h1m1 0h3m2 0h1m3 0h1m1 0h4m2 0h1m2 0h2m1 0h1m5 0h1m2 0h3M5 93.5h2m1 0h2m2 0h2m3 0h3m1 0h1m4 0h1m1 0h2m1 0h1m1 0h2m1 0h4m3 0h2m1 0h1m8 0h4m2 0h1m2 0h1m1 0h2m1 0h1m7 0h5m2 0h1m4 0h2m2 0h2m1 0h5m1 0h2m2 0h1M4 94.5h3m1 0h4m3 0h2m1 0h2m1 0h1m1 0h1m1 0h3m1 0h2m1 0h1m2 0h1m3 0h2m1 0h1m4 0h2m3 0h4m1 0h4m2 0h2m1 0h1m3 0h3m2 0h1m2 0h1m3 0h3m1 0h5m1 0h2m1 0h1m2 0h6m1 0h4M4 95.5h3m1 0h2m2 0h2m6 0h1m1 0h2m1 0h1m1 0h1m1 0h1m1 0h6m2 0h1m4 0h2m4 0h2m1 0h1m2 0h1m2 0h1m4 0h2m1 0h1m1 0h4m5 0h1m2 0h2m1 0h2m4 0h1m1 0h2m1 0h5m2 0h4m1 0h2M4 96.5h5m1 0h1m1 0h2m2 0h1m3 0h2m2 0h2m1 0h1m1 0h1m1 0h2m1 0h2m5 0h1m1 0h1m3 0h3m5 0h1m2 0h2m1 0h1m1 0h1m1 0h1m1 0h2m4 0h2m5 0h4m1 0h2m1 0h8m1 0h1m1 0h2m1 0h1m1 0h1m1 0h1m1 0h1M4 97.5h1m1 0h1m1 0h1m4 0h1m2 0h1m1 0h1m1 0h3m1 0h1m1 0h1m4 0h3m1 0h2m1 0h1m1 0h5m1 0h2m1 0h2m2 0h3m4 0h2m2 0h1m6 0h1m1 0h1m1 0h1m2 0h2m1 0h1m1 0h1m2 0h5m6 0h4m2 0h2M4 98.5h3m3 0h1m1 0h1m1 0h1m4 0h1m1 0h4m1 0h1m1 0h1m1 0h1m3 0h1m1 0h5m4 0h2m1 0h1m2 0h3m1 0h8m1 0h2m1 0h2m1 0h3m1 0h3m1 0h1m3 0h4m1 0h1m3 0h1m1 0h5m2 0h2m1 0h1M6 99.5h1m1 0h2m2 0h2m2 0h1m3 0h1m1 0h3m1 0h4m1 0h1m1 0h5m2 0h3m1 0h1m1 0h3m1 0h1m3 0h2m2 0h2m2 0h1m2 0h1m1 0h3m2 0h2m2 0h1m2 0h3m5 0h2m1 0h2m1 0h2m2 0h3m3 0h2m1 0h1M7 100.5h2m1 0h1m3 0h1m2 0h4m2 0h3m1 0h6m1 0h1m1 0h2m4 0h1m1 0h2m1 0h1m3 0h7m1 0h1m2 0h1m3 0h1m1 0h3m5 0h8m1 0h3m1 0h1m2 0h1m1 0h1m1 0h10m2 0h1M12 101.5h1m2 0h2m1 0h1m1 0h2m1 0h1m2 0h3m3 0h1m1 0h3m1 0h1m3 0h1m2 0h1m6 0h1m3 0h1m6 0h2m1 0h1m2 0h3m2 0h3m3 0h3m1 0h2m3 0h2m1 0h1m1 0h7m3 0h1m1 0h1m1 0h1M4 102.5h7m1 0h2m2 0h1m4 0h3m2 0h3m1 0h1m1 0h3m5 0h1m3 0h2m1 0h2m3 0h1m1 0h1m1 0h1m4 0h2m3 0h1m1 0h3m2 0h2m1 0h1m1 0h1m1 0h1m1 0h3m2 0h2m2 0h4m2 0h1m1 0h2m1 0h1m1 0h1m3 0h1M4 103.5h1m5 0h1m1 0h3m3 0h1m1 0h3m2 0h4m3 0h6m4 0h1m1 0h1m2 0h1m3 0h2m3 0h2m1 0h4m4 0h1m1 0h1m1 0h2m2 0h2m3 0h3m1 0h1m1 0h1m2 0h1m1 0h1m2 0h2m1 0h1m2 0h1m3 0h1m3 0h1M4 104.5h1m1 0h3m1 0h1m1 0h1m1 0h2m2 0h1m4 0h10m2 0h2m1 0h1m1 0h2m7 0h13m1 0h2m2 0h1m3 0h3m1 0h8m1 0h1m1 0h4m1 0h8m1 0h5m1 0h1M4 105.5h1m1 0h3m1 0h1m1 0h8m1 0h1m2 0h5m1 0h4m1 0h1m1 0h1m2 0h3m1 0h3m1 0h1m2 0h2m4 0h1m4 0h2m1 0h1m1 0h4m3 0h1m5 0h2m9 0h1m2 0h1m1 0h4m1 0h1m1 0h2m3 0h1M4 106.5h1m1 0h3m1 0h1m2 0h2m2 0h1m4 0h2m3 0h4m2 0h2m2 0h3m1 0h2m2 0h2m2 0h1m2 0h1m7 0h1m1 0h7m1 0h3m1 0h2m1 0h2m1 0h1m1 0h1m1 0h1m3 0h1m2 0h2m1 0h2m2 0h3m2 0h2m3 0h1M4 107.5h1m5 0h1m2 0h4m2 0h3m1 0h2m1 0h3m3 0h2m2 0h3m6 0h2m3 0h1m1 0h2m4 0h3m2 0h1m4 0h1m1 0h1m1 0h1m1 0h3m3 0h4m4 0h1m1 0h1m2 0h2m4 0h1m5 0h1m2 0h1M4 108.5h7m1 0h1m1 0h1m1 0h2m4 0h2m1 0h2m1 0h2m6 0h1m2 0h2m1 0h6m2 0h4m1 0h1m1 0h3m2 0h1m1 0h3m6 0h2m2 0h2m1 0h1m2 0h1m2 0h4m3 0h1m3 0h1m2 0h2m1 0h5"/></svg>
