<svg xmlns="http://www.w3.org/2000/svg" viewBox="0 0 113 113" shape-rendering="crispEdges"><path fill="#ffffff" d="M0 0h113v113H0z"/><path stroke="#000000" d="M4 4.5h7m2 0h2m1 0h1m1 0h1m2 0h1m2 0h1m3 0h1m4 0h1m5 0h2m1 0h1m4 0h5m4 0h1m1 0h1m1 0h3m2 0h2m1 0h2m1 0h2m3 0h2m1 0h4m4 0h4m2 0h2m3 0h1m3 0h7M4 5.5h1m5 0h1m1 0h1m1 0h1m5 0h1m4 0h1m1 0h4m1 0h4m3 0h1m3 0h1m1 0h3m2 0h1m4 0h1m5 0h4m1 0h2m1 0h3m1 0h1m2 0h2m1 0h1m1 0h2m4 0h2m1 0h3m4 0h2m3 0h1m5 0h1M4 6.5h1m1 0h3m1 0h1m7 0h1m1 0h3m5 0h7m2 0h2m1 0h2m3 0h3m1 0h1m4 0h4m1 0h3m2 0h1m2 0h1m3 0h1m3 0h2m2 0h2m1 0h2m1 0h2m10 0h3m2 0h1m1 0h3m1 0h1M4 7.5h1m1 0h3m1 0h1m1 0h1m2 0h1m2 0h3m2 0h2m1 0h1m3 0h2m2 0h2m2 0h2m1 0h2m1 0h1m1 0h1m2 0h1m2 0h1m1 0h3m3 0h2m4 0h4m1 0h1m1 0h7m1 0h2m1 0h1m1 0h4m1 0h3m1 0h1m1 0h1m2 0h1m1 0h1m1 0h3m1 0h1M4 8.5h1m1 0h3m1 0h1m4 0h4m2 0h2m1 0h2m2 0h7m3 0h1m5 0h1m1 0h1m1 0h9m2 0h2m5 0h5m2 0h1m2 0h7m1 0h1m1 0h2m2 0h3m3 0h1m2 0h2m1 0h1m1 0h3m1 0h1M4 9.5h1m5 0h1m1 0h2m1 0h1m2 0h1m1 0h6m1 0h2m3 0h3m2 0h5m1 0h2m2 0h1m3 0h2m3 0h1m1 0h1m1 0h1m3 0h1m3 0h3m2 0h1m2 0h1m3 0h3m1 0h2m3 0h1m1 0h2m4 0h1m1 0h1m2 0h1m5 0h1M4 10.5h7m1 0h1m1 0h1m1 0h1m1 0h1m1 0h1m1 0h1m1 0h1m1 0h1m1 0h1m1 0h1m1 0h1m1 0h1m1 0h1m1 0h1m1 0h1m1 0h1m1 0h1m1 0h1m1 0h1m1 0h1m1 0h1m1 0h1m1 0h1m1 0h1m1 0h1m1 0h1m1 0h1m1 0h1m1 0h1m1 0h1m1 0h1m1 0h1m1 0h1m1 0h1m1 0h1m1 0h1m1 0h1m1 0h1m1 0h1m1 0h1m1 0h1m1 0h1m1 0h1m1 0h1m1 0h1m1 0h7M17 11.5h1m2 0h1m3 0h2m2 0h1m3 0h1m4 0h1m2 0h1m1 0h3m3 0h1m1 0h3m3 0h1m1 0h2m1 0h3m3 0h2m1 0h1m1 0h2m2 0h1m3 0h1m7 0h3m2 0h3m1 0h3M4 12.5h5m1 0h3m3 0h1m3 0h3m1 0h2m2 0h7m1 0h1m5 0h1m2 0h1m1 0h3m2 0h7m1 0h1m2 0h2m1 0h2m2 0h2m1 0h8m1 0h2m1 0h1m1 0h1m1 0h1m2 0h1m4 0h2m1 0h2m1 0h1m1 0h1m1 0h1M4 13.5h2m1 0h1m1 0h1m5 0h2m1 0h3m1 0h1m1 0h1m1 0h1m3 0h2m4 0h1m2 0h1m1 0h2m4 0h1m1 0h2m1 0h1m4 0h3m1 0h3m2 0h1m2 0h3m1 0h1m1 0h1m3 0h2m4 0h1m2 0h6m1 0h1m3 0h1m2 0h3m2 0h2M6 14.5h6m2 0h4m4 0h2m1 0h1m2 0h1m2 0h1m1 0h2m1 0h5m1 0h1m1 0h2m1 0h2m1 0h1m2 0h2m3 0h3m3 0h1m2 0h1m2 0h2m1 0h1m3 0h2m1 0h2m2 0h1m3 0h2m1 0h4m1 0h2m1 0h7m1 0h1M7 15.5h1m6 0h1m1 0h6m2 0h3m5 0h2m3 0h1m2 0h3m1 0h1m1 0h1m2 0h2m2 0h1m1 0h1m1 0h1m1 0h1m1 0h1m1 0h1m3 0h1m1 0h2m1 0h1m1 0h2m1 0h1m4 0h1m1 0h2m1 0h2m1 0h3m1 0h2m2 0h2m6 0h1M5 16.5h1m1 0h2m1 0h2m2 0h2m2 0h3m1 0h4m1 0h1m1 0h1m1 0h2m5 0h3m1 0h1m1 0h2m2 0h4m2 0h1m2 0h1m3 0h2m7 0h3m2 0h1m2 0h2m1 0h1m6 0h2m3 0h3m1 0h2m2 0h3m1 0h1m2 0h1M5 17.5h1m1 0h3m7 0h2m1 0h9m3 0h3m2 0h2m1 0h1m7 0h1m1 0h1m1 0h4m4 0h1m2 0h1m4 0h3m3 0h4m2 0h3m3 0h2m2 0h1m1 0h1m2 0h1m4 0h1M4 18.5h1m1 0h7m4 0h5m1 0h1m2 0h1m1 0h1m1 0h1m3 0h2m1 0h3m2 0h2m2 0h1m7 0h2m2 0h1m3 0h3m5 0h2m1 0h5m1 0h1m2 0h1m2 0h2m3 0h1m2 0h3m4 0h1m2 0h2m1 0h1m1 0h1M5 19.5h2m2 0h1m1 0h1m3 0h1m4 0h2m4 0h3m1 0h1m3 0h2m1 0h2m1 0h1m2 0h1m2 0h1m1 0h1m1 0h1m1 0h2m1 0h2m3 0h1m2 0h8m2 0h4m3 0h2m1 0h1m1 0h3m8 0h1m3 0h1m4 0h2M6 20.5h1m1 0h1m1 0h1m1 0h1m3 0h1m1 0h2m2 0h1m3 0h2m3 0h3m1 0h1m3 0h1m1 0h3m1 0h4m1 0h1m4 0h1m1 0h1m1 0h1m1 0h1m1 0h1m3 0h1m1 0h1m2 0h2m1 0h2m1 0h1m1 0h1m4 0h4m2 0h1m4 0h2m1 0h3m2 0h3M4 21.5h1m2 0h2m3 0h2m5 0h1m1 0h6m1 0h2m2 0h2m2 0h1m3 0h1m1 0h1m3 0h2m1 0h2m4 0h4m1 0h2m3 0h1m4 0h4m2 0h1m1 0h2m2 0h2m1 0h3m2 0h5m2 0h1m3 0h2m3 0h1M5 22.5h3m1 0h3m1 0h2m2 0h5m5 0h1m1 0h1m2 0h1m2 0h1m3 0h1m1 0h2m4 0h3m1 0h1m1 0h3m3 0h3m5 0h1m1 0h2m2 0h1m2 0h1m2 0h1m3 0h1m2 0h7m1 0h1m1 0h1m1 0h1m3 0h4m1 0h2M4 23.5h2m2 0h2m4 0h2m1 0h8m1 0h1m3 0h1m1 0h2m2 0h1m3 0h1m2 0h1m1 0h3m1 0h1m1 0h3m1 0h1m1 0h3m2 0h1m1 0h2m2 0h1m6 0h5m4 0h3m1 0h3m2 0h3m2 0h1m4 0h2m1 0h1M6 24.5h1m1 0h4m1 0h1m2 0h4m1 0h1m1 0h1m1 0h2m7 0h2m1 0h4m4 0h2m2 0h3m1 0h1m1 0h2m1 0h2m4 0h2m1 0h3m1 0h1m3 0h7m2 0h3m3 0h1m2 0h2m2 0h1m1 0h3m2 0h1m3 0h1M4 25.5h1m1 0h2m3 0h3m1 0h1m3 0h6m2 0h4m1 0h3m3 0h1m2 0h1m1 0h1m1 0h1m2 0h3m1 0h1m1 0h2m1 0h2m2 0h1m1 0h2m3 0h1m2 0h1m2 0h1m1 0h1m3 0h1m1 0h2m1 0h8m2 0h1m1 0h2m2 0h1m2 0h1m1 0h1M4 26.5h1m3 0h1m1 0h2m3 0h4m5 0h2m1 0h1m1 0h1m2 0h2m1 0h1m1 0h4m1 0h1m1 0h2m3 0h2m1 0h1m2 0h2m1 0h4m4 0h1m1 0h1m1 0h2m2 0h1m4 0h2m1 0h1m1 0h1m1 0h2m2 0h1m1 0h1m4 0h3m1 0h1m1 0h1m1 0h1m1 0h2M14 27.5h2m2 0h1m4 0h1m1 0h2m1 0h2m1 0h1m1 0h3m1 0h1m1 0h6m2 0h1m2 0h1m2 0h2m3 0h1m4 0h2m1 0h3m1 0h1m1 0h4m1 0h2m2 0h3m3 0h1m2 0h1m1 0h3m4 0h1m2 0h1m1 0h3M5 28.5h2m1 0h6m1 0h2m1 0h1m1 0h1m1 0h1m2 0h1m2 0h5m1 0h3m1 0h3m3 0h1m2 0h2m2 0h6m4 0h1m3 0h3m4 0h2m2 0h6m1 0h2m2 0h4m7 0h7m3 0h1M5 29.5h1m1 0h2m3 0h4m8 0h2m2 0h1m3 0h2m3 0h2m4 0h4m1 0h1m1 0h1m1 0h1m3 0h2m2 0h1m2 0h3m1 0h2m3 0h1m1 0h3m3 0h1m2 0h3m2 0h1m1 0h3m2 0h1m4 0h1m3 0h1M4 30.5h1m1 0h1m1 0h1m1 0h1m1 0h1m1 0h1m1 0h1m3 0h1m2 0h2m3 0h1m1 0h1m1 0h2m4 0h2m1 0h1m1 0h1m3 0h1m2 0h1m1 0h1m1 0h1m1 0h1m2 0h1m1 0h1m1 0h3m3 0h2m2 0h1m1 0h2m1 0h1m1 0h1m1 0h2m3 0h1m1 0h1m1 0h2m2 0h1m3 0h2m1 0h1m1 0h2m2 0h1M4 31.5h1m2 0h2m3 0h1m2 0h1m1 0h2m1 0h2m6 0h1m3 0h2m1 0h1m1 0h1m2 0h3m3 0h1m5 0h1m3 0h4m10 0h4m1 0h2m3 0h3m1 0h3m2 0h1m2 0h3m1 0h2m2 0h1m3 0h1m1 0h2M4 32.5h2m1 0h6m5 0h1m1 0h1m1 0h1m3 0h7m4 0h3m1 0h5m1 0h1m1 0h8m1 0h2m2 0h6m1 0h1m2 0h2m2 0h5m1 0h1m1 0h1m1 0h4m1 0h2m1 0h1m4 0h6m1 0h3M4 33.5h2m1 0h1m5 0h1m1 0h1m1 0h2m2 0h2m2 0h2m2 0h1m2 0h1m2 0h2m3 0h1m3 0h2m3 0h2m3 0h1m1 0h1m2 0h1m4 0h1m4 0h5m3 0h7m3 0h1m3 0h2m4 0h1m1 0h1m4 0h1m1 0h3M4 34.5h1m2 0h5m1 0h1m4 0h1m4 0h2m1 0h1m3 0h1m3 0h2m1 0h1m2 0h2m1 0h1m1 0h1m5 0h2m1 0h1m1 0h1m2 0h1m1 0h1m1 0h1m1 0h1m2 0h1m2 0h1m2 0h1m1 0h1m1 0h3m3 0h2m3 0h1m1 0h1m1 0h1m1 0h1m1 0h3m1 0h1m1 0h1m1 0h1m1 0h1M4 35.5h1m1 0h2m6 0h2m1 0h2m2 0h3m1 0h1m1 0h8m2 0h2m1 0h1m2 0h1m7 0h1m2 0h1m2 0h1m4 0h1m1 0h2m1 0h3m1 0h1m2 0h1m1 0h4m1 0h1m2 0h2m1 0h1m2 0h1m6 0h2m1 0h1m4 0h3M6 36.5h6m2 0h3m1 0h2m3 0h1m2 0h4m3 0h1m1 0h1m3 0h1m2 0h1m1 0h1m1 0h4m2 0h2m1 0h1m2 0h1m1 0h1m2 0h1m2 0h1m1 0h4m1 0h2m1 0h1m3 0h1m1 0h1m5 0h2m1 0h1m2 0h1m2 0h1m3 0h1m2 0h1m1 0h1m1 0h1M4 37.5h5m2 0h1m3 0h1m5 0h1m1 0h2m1 0h1m2 0h2m4 0h1m1 0h1m2 0h1m1 0h1m2 0h4m2 0h1m1 0h1m2 0h3m3 0h5m1 0h1m4 0h1m1 0h1m2 0h2m8 0h1m2 0h3m1 0h3m1 0h1m4 0h1m3 0h1M5 38.5h1m2 0h1m1 0h2m4 0h5m1 0h1m3 0h1m1 0h6m3 0h2m5 0h1m1 0h3m2 0h1m2 0h1m1 0h1m1 0h3m4 0h2m1 0h1m1 0h1m1 0h3m1 0h1m3 0h4m2 0h1m1 0h1m1 0h1m1 0h3m3 0h1m4 0h3M4 39.5h3m1 0h1m3 0h1m3 0h1m1 0h2m2 0h2m1 0h1m1 0h1m6 0h1m4 0h1m2 0h1m1 0h1m1 0h3m2 0h1m2 0h2m1 0h2m1 0h1m1 0h3m3 0h9m2 0h4m2 0h2m2 0h4m1 0h1m1 0h1m3 0h1m1 0h3m2 0h1M4 40.5h1m1 0h5m1 0h3m3 0h3m2 0h3m2 0h4m2 0h3m2 0h2m1 0h1m2 0h2m2 0h1m1 0h2m1 0h1m1 0h1m2 0h3m2 0h1m1 0h2m6 0h1m2 0h1m1 0h2m3 0h2m1 0h1m2 0h3m2 0h2m2 0h2m2 0h1m2 0h3M4 41.5h1m1 0h2m3 0h2m1 0h2m1 0h1m1 0h2m1 0h2m3 0h2m2 0h1m2 0h2m1 0h1m1 0h9m3 0h5m2 0h2m2 0h3m2 0h2m3 0h5m1 0h1m3 0h1m1 0h2m1 0h3m1 0h1m1 0h1m5 0h1m2 0h3m2 0h1M5 42.5h1m1 0h1m2 0h1m1 0h2m1 0h1m1 0h1m2 0h1m1 0h5m1 0h2m2 0h1m4 0h1m1 0h1m3 0h2m2 0h1m1 0h1m4 0h1m3 0h2m2 0h1m1 0h2m1 0h1m3 0h1m2 0h1m1 0h1m1 0h1m5 0h3m2 0h2m1 0h1m2 0h1m1 0h2m2 0h1m1 0h1M6 43.5h1m5 0h1m2 0h2m2 0h1m1 0h2m1 0h1m10 0h2m6 0h2m7 0h6m4 0h1m1 0h2m1 0h1m3 0h3m6 0h2m1 0h2m2 0h2m1 0h2m1 0h1m2 0h1m1 0h2m1 0h1m1 0h2m1 0h1M4 44.5h1m1 0h2m1 0h2m1 0h2m4 0h1m1 0h1m1 0h1m4 0h3m2 0h1m3 0h3m1 0h2m1 0h1m6 0h1m6 0h1m1 0h1m1 0h2m4 0h1m1 0h1m2 0h5m2 0h1m1 0h2m4 0h2m8 0h1m3 0h1m1 0h1m1 0h3M4 45.5h1m1 0h3m3 0h6m1 0h1m1 0h2m1 0h4m1 0h1m1 0h2m1 0h4m1 0h1m1 0h2m4 0h1m1 0h2m1 0h4m1 0h1m5 0h1m2 0h3m1 0h1m2 0h1m1 0h1m2 0h1m1 0h1m2 0h1m1 0h1m1 0h1m2 0h3m2 0h5m3 0h2m2 0h2M4 46.5h2m1 0h1m1 0h4m3 0h1m3 0h3m1 0h2m1 0h1m1 0h1m2 0h1m2 0h1m2 0h1m3 0h1m1 0h1m1 0h5m1 0h1m2 0h2m1 0h1m5 0h1m2 0h1m6 0h3m1 0h2m1 0h1m4 0h2m1 0h1m3 0h1m3 0h2m1 0h3m1 0h1m1 0h1M8 47.5h2m2 0h2m3 0h2m2 0h2m2 0h1m2 0h1m3 0h2m2 0h1m1 0h1m2 0h1m3 0h2m5 0h2m3 0h1m2 0h1m3 0h1m1 0h2m1 0h2m1 0h2m1 0h1m4 0h1m1 0h1m1 0h1m1 0h1m2 0h3m4 0h3m2 0h1m1 0h1m1 0h2M4 48.5h3m3 0h6m1 0h2m3 0h3m2 0h2m3 0h2m1 0h5m3 0h1m2 0h3m1 0h2m3 0h1m3 0h1m4 0h4m1 0h1m6 0h1m5 0h1m4 0h2m2 0h2m4 0h1m1 0h1m1 0h1m2 0h1m2 0h1M4 49.5h4m1 0h1m2 0h2m1 0h3m2 0h1m2 0h1m1 0h2m1 0h2m1 0h2m8 0h2m1 0h3m1 0h1m3 0h1m1 0h1m4 0h1m1 0h1m2 0h1m1 0h1m1 0h1m2 0h6m1 0h1m1 0h1m2 0h1m1 0h2m4 0h10m1 0h2m1 0h1m1 0h2M5 50.5h1m1 0h2m1 0h1m2 0h2m1 0h1m1 0h2m1 0h2m4 0h1m5 0h3m1 0h1m2 0h1m1 0h2m2 0h8m1 0h3m5 0h2m1 0h4m1 0h1m5 0h1m2 0h3m3 0h1m2 0h3m1 0h3m3 0h4m3 0h1m1 0h1M5 51.5h1m1 0h1m1 0h1m1 0h2m4 0h2m3 0h1m2 0h1m1 0h2m2 0h5m2 0h2m1 0h2m1 0h3m4 0h2m1 0h2m1 0h1m2 0h3m1 0h2m2 0h1m1 0h1m1 0h1m2 0h1m1 0h3m2 0h1m2 0h3m1 0h1m1 0h5m1 0h1m1 0h2m1 0h2m1 0h3M4 52.5h1m2 0h7m1 0h2m1 0h8m2 0h5m1 0h1m2 0h1m3 0h3m2 0h2m1 0h1m2 0h5m2 0h1m1 0h4m4 0h1m1 0h1m1 0h1m2 0h5m2 0h1m6 0h15M4 53.5h1m3 0h1m3 0h1m1 0h10m1 0h2m1 0h1m3 0h4m3 0h1m4 0h1m1 0h1m1 0h1m1 0h3m3 0h1m1 0h2m1 0h1m2 0h1m1 0h3m1 0h1m1 0h1m3 0h1m3 0h1m1 0h2m2 0h3m3 0h1m1 0h1m1 0h5m3 0h1m2 0h1M4 54.5h1m1 0h3m1 0h1m1 0h1m1 0h2m1 0h1m6 0h2m1 0h2m1 0h1m1 0h1m6 0h1m1 0h4m2 0h1m2 0h1m1 0h1m1 0h1m1 0h1m1 0h1m6 0h1m7 0h2m1 0h1m1 0h1m1 0h2m3 0h2m1 0h1m2 0h1m1 0h1m1 0h1m2 0h1m1 0h1m1 0h1m1 0h2M5 55.5h1m2 0h1m3 0h3m1 0h2m2 0h1m1 0h2m3 0h2m3 0h1m3 0h1m2 0h2m1 0h4m3 0h2m1 0h1m3 0h1m1 0h3m1 0h3m5 0h1m1 0h1m1 0h1m1 0h1m3 0h1m1 0h1m1 0h1m2 0h2m1 0h1m1 0h2m6 0h1m3 0h3m1 0h1M4 56.5h2m2 0h5m1 0h2m1 0h1m2 0h3m3 0h1m1 0h9m2 0h1m3 0h1m6 0h1m1 0h5m1 0h1m1 0h1m1 0h1m1 0h6m1 0h1m1 0h2m1 0h6m1 0h1m2 0h1m1 0h4m1 0h2m1 0h3m1 0h5m1 0h2M4 57.5h1m1 0h2m1 0h1m1 0h1m1 0h1m3 0h4m3 0h9m6 0h1m1 0h1m3 0h1m6 0h1m2 0h1m1 0h1m1 0h1m4 0h1m1 0h3m2 0h1m4 0h4m2 0h2m2 0h2m2 0h1m2 0h3m1 0h4m2 0h1M4 58.5h1m1 0h5m1 0h2m1 0h2m2 0h1m2 0h1m9 0h1m2 0h1m1 0h1m2 0h1m2 0h1m2 0h1m1 0h2m2 0h1m1 0h1m3 0h1m2 0h1m3 0h2m2 0h2m6 0h3m1 0h1m3 0h5m4 0h3m2 0h5m1 0h1M4 59.5h3m5 0h1m1 0h1m3 0h2m2 0h1m1 0h2m5 0h1m1 0h1m2 0h1m1 0h4m2 0h2m2 0h2m1 0h2m4 0h1m1 0h2m3 0h1m2 0h1m4 0h1m1 0h3m2 0h3m1 0h4m3 0h2m4 0h3m1 0h1m1 0h1m1 0h1m1 0h1m1 0h1M5 60.5h3m2 0h1m1 0h1m3 0h1m1 0h1m2 0h4m8 0h1m1 0h1m1 0h3m3 0h2m2 0h1m1 0h2m2 0h3m4 0h2m4 0h1m5 0h1m1 0h3m1 0h5m1 0h1m3 0h3m1 0h1m2 0h1m3 0h1m3 0h2m1 0h2M4 61.5h4m5 0h1m2 0h4m1 0h4m1 0h6m2 0h1m2 0h3m1 0h2m1 0h1m1 0h1m4 0h3m2 0h1m1 0h2m4 0h1m2 0h1m7 0h3m1 0h1m3 0h1m1 0h2m2 0h3m1 0h1m1 0h2m1 0h6m3 0h1M8 62.5h3m3 0h2m4 0h3m2 0h3m5 0h1m3 0h4m1 0h1m3 0h5m1 0h1m1 0h3m1 0h1m2 0h1m1 0h2m3 0h1m2 0h1m1 0h1m1 0h1m9 0h1m2 0h1m1 0h1m1 0h6m2 0h1m1 0h3m1 0h1m1 0h1M6 63.5h1m1 0h1m2 0h3m2 0h1m2 0h2m1 0h3m1 0h2m3 0h1m4 0h2m2 0h1m1 0h1m1 0h6m3 0h2m1 0h3m4 0h3m1 0h6m3 0h4m4 0h2m1 0h6m1 0h2m1 0h2m1 0h1m1 0h1m1 0h4M4 64.5h1m4 0h2m1 0h1m2 0h1m4 0h3m2 0h1m1 0h4m3 0h1m1 0h2m1 0h1m1 0h7m2 0h1m2 0h1m1 0h6m1 0h1m4 0h1m3 0h4m2 0h1m1 0h1m4 0h3m3 0h2m2 0h3m4 0h1m1 0h1M7 65.5h2m2 0h1m1 0h1m1 0h1m1 0h1m2 0h1m3 0h3m2 0h1m1 0h2m3 0h1m8 0h3m1 0h3m1 0h1m1 0h8m2 0h3m1 0h1m1 0h1m1 0h3m2 0h1m1 0h2m1 0h6m3 0h1m3 0h1m5 0h1m1 0h2m2 0h1M4 66.5h2m1 0h2m1 0h2m2 0h2m2 0h1m4 0h1m1 0h1m1 0h4m1 0h1m2 0h3m3 0h3m1 0h1m3 0h1m1 0h2m1 0h2m2 0h2m2 0h1m3 0h1m1 0h1m1 0h2m2 0h2m1 0h2m2 0h1m4 0h1m1 0h2m2 0h1m1 0h1m2 0h1m1 0h1m1 0h1m1 0h2m1 0h2M4 67.5h1m2 0h1m3 0h1m3 0h1m5 0h1m2 0h1m1 0h1m1 0h1m1 0h3m1 0h1m5 0h4m3 0h5m1 0h1m3 0h2m1 0h2m3 0h1m1 0h3m4 0h1m1 0h1m1 0h1m1 0h1m4 0h5m1 0h4m1 0h1m4 0h1m6 0h1M5 68.5h2m1 0h4m1 0h2m2 0h2m6 0h3m1 0h1m1 0h1m1 0h3m2 0h1m2 0h1m6 0h1m3 0h1m1 0h3m1 0h2m1 0h5m1 0h1m3 0h1m1 0h1m1 0h2m5 0h1m6 0h2m4 0h3m2 0h3m1 0h2m2 0h1M8 69.5h1m2 0h1m2 0h4m2 0h1m3 0h1m1 0h1m4 0h2m1 0h1m1 0h3m1 0h2m2 0h5m1 0h1m2 0h2m1 0h1m1 0h2m2 0h1m4 0h2m1 0h1m4 0h3m5 0h4m3 0h2m1 0h5m1 0h1m2 0h2m2 0h1M4 70.5h4m1 0h4m4 0h2m2 0h5m3 0h1m2 0h1m1 0h1m3 0h1m3 0h3m3 0h5m3 0h1m2 0h1m1 0h1m4 0h1m4 0h4m3 0h2m3 0h1m4 0h7m1 0h2m3 0h2m1 0h2M4 71.5h2m3 0h1m3 0h1m1 0h2m1 0h1m3 0h1m2 0h1m2 0h3m1 0h1m7 0h2m1 0h1m1 0h3m1 0h3m1 0h2m3 0h1m3 0h2m2 0h2m1 0h1m1 0h1m1 0h2m1 0h1m1 0h1m1 0h5m1 0h2m1 0h1m1 0h4m3 0h3m1 0h4M4 72.5h2m2 0h1m1 0h1m1 0h1m1 0h1m1 0h6m1 0h1m2 0h1m1 0h1m1 0h3m1 0h1m1 0h2m2 0h2m1 0h1m2 0h2m1 0h1m1 0h3m1 0h3m2 0h3m3 0h2m1 0h2m2 0h7m1 0h4m2 0h1m10 0h1m2 0h1m1 0h1m2 0h1M9 73.5h1m3 0h3m1 0h1m2 0h1m1 0h3m3 0h2m3 0h2m4 0h1m1 0h2m2 0h2m1 0h1m1 0h4m1 0h1m6 0h4m4 0h2m1 0h3m1 0h1m1 0h2m1 0h1m1 0h2m7 0h1m4 0h3m1 0h3m3 0h1M5 74.5h1m1 0h1m2 0h1m1 0h2m3 0h2m1 0h4m1 0h1m1 0h1m4 0h1m1 0h2m3 0h1m1 0h1m4 0h2m3 0h2m1 0h1m1 0h2m1 0h1m1 0h3m3 0h3m3 0h1m1 0h1m2 0h1m1 0h4m2 0h4m2 0h5m1 0h2m1 0h5m1 0h1M4 75.5h1m1 0h4m3 0h3m2 0h3m1 0h1m1 0h1m2 0h1m1 0h3m1 0h2m2 0h3m3 0h1m1 0h1m1 0h1m3 0h2m3 0h1m1 0h4m1 0h2m10 0h1m1 0h3m1 0h2m2 0h1m1 0h1m1 0h2m3 0h2m3 0h5m3 0h1M4 76.5h3m1 0h5m5 0h1m2 0h3m4 0h5m3 0h2m2 0h5m3 0h1m1 0h1m1 0h8m3 0h2m2 0h3m3 0h1m2 0h14m3 0h1m3 0h1m2 0h5m1 0h3M5 77.5h1m2 0h1m3 0h1m5 0h3m2 0h2m1 0h1m1 0h1m3 0h1m1 0h1m1 0h3m1 0h2m4 0h1m1 0h5m3 0h1m1 0h2m4 0h1m2 0h2m3 0h1m3 0h1m3 0h1m2 0h2m2 0h2m1 0h2m2 0h2m1 0h1m1 0h2m3 0h1m1 0h1m1 0h1M6 78.5h1m1 0h1m1 0h1m1 0h1m1 0h1m1 0h1m2 0h1m3 0h2m1 0h3m1 0h1m1 0h4m2 0h1m1 0h2m1 0h1m2 0h1m1 0h1m1 0h3m1 0h1m1 0h1m1 0h1m2 0h3m2 0h5m2 0h1m2 0h1m1 0h1m1 0h1m1 0h3m2 0h1m2 0h1m2 0h3m1 0h4m1 0h1m1 0h1M4 79.5h1m2 0h2m3 0h1m2 0h2m1 0h1m5 0h2m1 0h2m3 0h1m6 0h2m2 0h2m1 0h1m2 0h1m1 0h2m3 0h1m2 0h3m1 0h1m1 0h1m5 0h1m3 0h2m3 0h2m3 0h1m4 0h1m1 0h3m5 0h1m3 0h2m1 0h2M6 80.5h1m1 0h6m4 0h1m6 0h11m1 0h1m2 0h1m5 0h1m2 0h1m1 0h6m3 0h1m2 0h1m4 0h1m1 0h1m4 0h6m1 0h1m1 0h3m2 0h1m1 0h1m1 0h2m2 0h9m1 0h1M6 81.5h1m4 0h3m2 0h1m1 0h3m6 0h2m1 0h1m1 0h3m2 0h1m4 0h1m2 0h3m1 0h1m2 0h1m1 0h3m2 0h4m1 0h1m3 0h4m1 0h1m2 0h1m1 0h1m2 0h3m1 0h3m1 0h1m4 0h3m4 0h2m1 0h1m1 0h1M4 82.5h2m2 0h4m1 0h3m1 0h5m2 0h6m2 0h2m3 0h3m1 0h1m2 0h2m1 0h1m3 0h1m1 0h1m1 0h3m2 0h3m1 0h4m2 0h1m2 0h2m3 0h1m1 0h1m1 0h3m1 0h1m1 0h1m2 0h5m1 0h1m1 0h1m1 0h1m1 0h1m1 0h3M7 83.5h3m3 0h2m2 0h2m1 0h3m1 0h2m1 0h1m2 0h3m2 0h1m1 0h1m5 0h5m1 0h1m2 0h2m2 0h3m1 0h2m1 0h3m2 0h2m5 0h1m1 0h1m2 0h2m1 0h6m4 0h1m3 0h1m2 0h2m1 0h1m4 0h1M5 84.5h6m1 0h1m2 0h4m1 0h1m2 0h1m4 0h1m1 0h5m1 0h2m1 0h2m2 0h3m1 0h4m2 0h1m5 0h1m2 0h2m2 0h1m1 0h1m1 0h2m2 0h1m1 0h1m1 0h1m1 0h2m1 0h3m1 0h6m2 0h1m2 0h1m1 0h3m2 0h2m1 0h1M4 85.5h3m2 0h1m1 0h1m1 0h2m4 0h1m1 0h1m2 0h3m3 0h1m1 0h1m3 0h1m2 0h1m1 0h2m1 0h1m2 0h3m1 0h2m3 0h3m1 0h5m1 0h8m5 0h1m1 0h1m3 0h1m2 0h3m3 0h2m5 0h3m2 0h1M5 86.5h3m1 0h3m1 0h2m1 0h3m2 0h2m3 0h1m1 0h2m1 0h1m1 0h1m1 0h1m3 0h4m2 0h1m5 0h1m1 0h1m1 0h1m1 0h2m1 0h2m2 0h1m3 0h1m1 0h1m5 0h1m2 0h1m1 0h2m2 0h1m1 0h4m2 0h3m2 0h1m1 0h1m2 0h1m2 0h1M4 87.5h5m2 0h2m3 0h3m1 0h1m1 0h5m1 0h3m4 0h1m1 0h1m2 0h2m4 0h1m1 0h4m3 0h1m2 0h2m1 0h1m1 0h1m1 0h1m2 0h4m4 0h4m2 0h6m5 0h3m2 0h5m3 0h1m1 0h1M4 88.5h3m3 0h1m1 0h2m2 0h3m1 0h5m3 0h1m1 0h1m4 0h2m2 0h2m2 0h2m1 0h1m3 0h2m1 0h1m6 0h3m2 0h3m1 0h1m4 0h2m2 0h3m1 0h3m2 0h2m1 0h1m2 0h2m1 0h2m4 0h1M4 89.5h1m2 0h3m2 0h1m1 0h2m1 0h1m1 0h1m1 0h2m1 0h2m1 0h6m1 0h4m2 0h3m2 0h1m1 0h1m1 0h1m1 0h1m3 0h6m1 0h2m3 0h4m3 0h9m1 0h2m1 0h2m5 0h1m4 0h2m2 0h4M5 90.5h2m3 0h2m2 0h1m2 0h2m1 0h2m1 0h6m2 0h1m1 0h1m1 0h1m1 0h1m1 0h2m2 0h1m2 0h2m1 0h1m3 0h1m1 0h2m1 0h1m1 0h1m4 0h4m1 0h2m4 0h1m2 0h1m2 0h1m1 0h1m2 0h4m1 0h1m4 0h1m4 0h2m4 0h1M6 91.5h1m1 0h1m6 0h4m2 0h1m5 0h1m4 0h2m2 0h7m1 0h2m1 0h1m1 0h2m1 0h1m1 0h5m1 0h2m1 0h1m4 0h5m5 0h1m3 0h1m1 0h3m2 0h1m2 0h2m1 0h1m2 0h1m3 0h2m2 0h3M6 92.5h1m2 0h2m3 0h1m2 0h3m1 0h2m3 0h3m1 0h8m1 0h4m2 0h2m2 0h1m3 0h1m1 0h2m1 0h1m1 0h1m1 0h1m1 0h1m2 0h6m3 0h2m2 0h8m2 0h2m2 0h1m2 0h1m2 0h1m1 0h1m3 0h1m1 0h1M4 93.5h1m1 0h2m4 0h1m1 0h4m1 0h4m1 0h1m4 0h1m1 0h2m1 0h1m1 0h2m1 0h1m2 0h1m1 0h3m1 0h2m3 0h1m2 0h2m4 0h1m1 0h2m1 0h1m1 0h1m1 0h2m5 0h1m2 0h2m5 0h2m3 0h2m2 0h3m1 0h1m1 0h1m1 0h3M4 94.5h1m3 0h1m1 0h1m3 0h1m1 0h1m1 0h2m2 0h2m2 0h1m1 0h2m1 0h1m1 0h1m2 0h2m1 0h1m1 0h2m4 0h2m2 0h2m1 0h1m1 0h1m1 0h5m1 0h1m2 0h1m2 0h1m5 0h1m1 0h1m3 0h2m1 0h1m3 0h2m2 0h1m3 0h7M6 95.5h1m1 0h2m2 0h3m2 0h1m1 0h1m4 0h2m1 0h2m1 0h2m1 0h2m1 0h1m6 0h1m1 0h5m1 0h3m1 0h3m1 0h1m1 0h1m2 0h2m2 0h1m2 0h1m1 0h1m2 0h1m1 0h1m1 0h1m1 0h1m1 0h1m1 0h2m1 0h2m1 0h1m1 0h2m3 0h1m3 0h1m3 0h1M4 96.5h1m1 0h10m3 0h1m1 0h4m1 0h3m3 0h4m2 0h2m1 0h1m3 0h1m3 0h7m1 0h3m1 0h1m1 0h1m2 0h3m1 0h2m4 0h3m1 0h2m1 0h2m1 0h1m2 0h1m1 0h2m1 0h4m6 0h2m1 0h2M4 97.5h1m4 0h1m10 0h1m3 0h1m2 0h1m1 0h3m2 0h1m3 0h3m2 0h1m3 0h1m1 0h1m1 0h1m1 0h5m5 0h1m1 0h1m2 0h3m1 0h1m2 0h3m1 0h3m1 0h1m2 0h3m1 0h5m1 0h1m1 0h1m1 0h1m1 0h3m1 0h1m1 0h1M4 98.5h3m3 0h1m1 0h1m2 0h1m1 0h2m1 0h1m2 0h1m1 0h1m4 0h2m1 0h1m1 0h1m2 0h2m1 0h6m2 0h4m1 0h1m1 0h1m3 0h1m2 0h2m5 0h1m2 0h2m1 0h2m4 0h2m3 0h1m1 0h3m1 0h1m1 0h2m1 0h4m1 0h1m1 0h1m1 0h2M6 99.5h1m1 0h2m1 0h4m6 0h3m4 0h1m1 0h1m1 0h1m3 0h1m1 0h2m3 0h3m2 0h4m1 0h1m2 0h1m2 0h1m1 0h1m4 0h1m1 0h2m1 0h1m1 0h2m1 0h1m2 0h1m1 0h1m1 0h2m3 0h2m1 0h2m1 0h1m1 0h1m1 0h1m1 0h1m1 0h2m2 0h1m1 0h1M7 100.5h2m1 0h1m9 0h1m3 0h3m1 0h5m2 0h1m2 0h5m1 0h3m3 0h1m1 0h7m1 0h2m2 0h3m2 0h3m1 0h10m3 0h3m2 0h3m1 0h2m3 0h6m1 0h2M12 101.5h3m1 0h1m1 0h1m1 0h3m1 0h1m3 0h1m3 0h1m3 0h3m1 0h1m4 0h1m3 0h2m1 0h1m3 0h1m1 0h2m7 0h8m1 0h1m3 0h1m1 0h1m2 0h2m2 0h1m1 0h3m4 0h1m1 0h1m3 0h1m1 0h3M4 102.5h7m1 0h1m2 0h1m1 0h3m1 0h1m1 0h2m3 0h1m1 0h1m1 0h3m1 0h1m1 0h1m1 0h2m1 0h1m1 0h1m1 0h1m1 0h2m1 0h1m1 0h1m1 0h1m4 0h1m3 0h1m1 0h1m2 0h1m3 0h3m1 0h1m1 0h1m1 0h4m1 0h3m1 0h1m1 0h2m1 0h1m3 0h1m1 0h1m1 0h2m2 0h1M4 103.5h1m5 0h1m3 0h1m1 0h3m2 0h1m1 0h2m1 0h1m1 0h1m3 0h3m2 0h1m1 0h1m1 0h1m1 0h2m4 0h2m1 0h1m3 0h1m1 0h1m6 0h1m1 0h2m1 0h3m1 0h3m3 0h1m2 0h3m1 0h1m1 0h1m4 0h1m1 0h2m1 0h2m3 0h1m1 0h2M4 104.5h1m1 0h3m1 0h1m1 0h1m3 0h3m3 0h1m1 0h10m4 0h2m1 0h2m2 0h1m1 0h1m1 0h1m2 0h8m1 0h1m5 0h1m2 0h1m1 0h12m2 0h5m1 0h1m2 0h1m1 0h1m2 0h6m1 0h1M4 105.5h1m1 0h3m1 0h1m1 0h1m2 0h1m2 0h2m2 0h1m1 0h3m3 0h1m4 0h1m2 0h1m3 0h5m4 0h2m1 0h3m1 0h1m1 0h2m3 0h1m1 0h1m2 0h3m1 0h3m1 0h1m6 0h1m2 0h1m1 0h1m5 0h1m1 0h3m1 0h1m1 0h2M4 106.5h1m1 0h3m1 0h1m1 0h1m2 0h1m2 0h4m3 0h2m1 0h1m1 0h2m4 0h2m2 0h4m1 0h2m2 0h2m1 0h1m4 0h1m1 0h3m3 0h3m2 0h2m6 0h1m2 0h1m2 0h1m1 0h1m1 0h2m2 0h1m1 0h4m1 0h2m1 0h2m2 0h1M4 107.5h1m5 0h1m1 0h1m4 0h2m2 0h1m2 0h1m2 0h1m1 0h2m1 0h3m3 0h2m1 0h1m2 0h2m1 0h3m1 0h5m3 0h2m1 0h1m2 0h1m1 0h7m1 0h3m2 0h1m1 0h2m1 0h2m1 0h2m1 0h3m1 0h1m3 0h1m3 0h1m1 0h1M4 108.5h7m1 0h3m1 0h1m1 0h1m1 0h1m1 0h1m1 0h1m2 0h2m2 0h3m5 0h1m3 0h1m1 0h1m1 0h1m3 0h3m4 0h2m1 0h3m4 0h1m1 0h3m1 0h3m1 0h1m3 0h5m5 0h1m6 0h1m2 0h1m1 0h1m1 0h2"/></svg>
