<svg xmlns="http://www.w3.org/2000/svg" viewBox="0 0 129 129" shape-rendering="crispEdges"><path fill="#ffffff" d="M0 0h129v129H0z"/><path stroke="#000000" d="M4 4.5h7m2 0h1m1 0h3m4 0h1m4 0h2m2 0h1m1 0h1m1 0h1m1 0h1m1 0h5m1 0h1m6 0h2m1 0h1m2 0h6m1 0h1m2 0h4m1 0h3m1 0h1m1 0h2m6 0h2m2 0h1m2 0h2m4 0h5m4 0h4m1 0h2m2 0h7M4 5.5h1m5 0h1m2 0h5m2 0h1m6 0h2m1 0h10m2 0h3m2 0h3m2 0h4m1 0h2m2 0h1m2 0h2m1 0h3m1 0h1m2 0h6m2 0h2m1 0h1m2 0h1m2 0h4m1 0h2m1 0h3m3 0h1m3 0h1m1 0h2m1 0h1m1 0h1m1 0h1m5 0h1M4 6.5h1m1 0h3m1 0h1m1 0h3m1 0h1m1 0h1m1 0h3m1 0h2m1 0h11m6 0h1m6 0h1m4 0h2m2 0h5m4 0h1m2 0h2m4 0h1m4 0h2m3 0h2m4 0h3m4 0h1m2 0h1m3 0h2m3 0h1m1 0h2m1 0h1m1 0h3m1 0h1M4 7.5h1m1 0h3m1 0h1m1 0h2m2 0h1m1 0h1m1 0h1m2 0h2m1 0h1m1 0h4m4 0h3m1 0h2m1 0h1m3 0h3m3 0h1m1 0h1m3 0h1m1 0h4m2 0h4m1 0h1m3 0h1m7 0h1m4 0h2m2 0h1m1 0h3m2 0h2m1 0h1m1 0h1m3 0h1m1 0h1m1 0h4m1 0h1m1 0h3m1 0h1M4 8.5h1m1 0h3m1 0h1m1 0h2m3 0h1m4 0h1m3 0h2m1 0h2m1 0h6m1 0h6m1 0h2m3 0h1m1 0h1m1 0h1m1 0h9m1 0h2m1 0h1m2 0h1m2 0h1m4 0h1m2 0h1m3 0h5m6 0h1m4 0h4m2 0h1m1 0h2m1 0h1m2 0h1m1 0h3m1 0h1M4 9.5h1m5 0h1m1 0h6m3 0h2m4 0h1m1 0h1m2 0h1m3 0h1m1 0h2m1 0h1m3 0h1m3 0h2m1 0h1m1 0h2m2 0h1m1 0h1m3 0h1m2 0h1m1 0h3m1 0h1m2 0h1m1 0h1m1 0h1m4 0h2m1 0h1m3 0h1m1 0h1m1 0h1m2 0h2m2 0h2m2 0h1m1 0h4m1 0h2m2 0h1m5 0h1M4 10.5h7m1 0h1m1 0h1m1 0h1m1 0h1m1 0h1m1 0h1m1 0h1m1 0h1m1 0h1m1 0h1m1 0h1m1 0h1m1 0h1m1 0h1m1 0h1m1 0h1m1 0h1m1 0h1m1 0h1m1 0h1m1 0h1m1 0h1m1 0h1m1 0h1m1 0h1m1 0h1m1 0h1m1 0h1m1 0h1m1 0h1m1 0h1m1 0h1m1 0h1m1 0h1m1 0h1m1 0h1m1 0h1m1 0h1m1 0h1m1 0h1m1 0h1m1 0h1m1 0h1m1 0h1m1 0h1m1 0h1m1 0h1m1 0h1m1 0h1m1 0h1m1 0h1m1 0h1m1 0h1m1 0h7M12 11.5h1m3 0h1m7 0h1m3 0h2m1 0h2m3 0h1m7 0h1m1 0h1m2 0h1m1 0h1m1 0h1m3 0h4m3 0h1m1 0h1m5 0h4m1 0h3m2 0h1m1 0h1m1 0h3m3 0h2m4 0h4m3 0h2m1 0h1m3 0h2m1 0h1M4 12.5h1m1 0h5m3 0h4m1 0h1m2 0h2m2 0h1m5 0h9m1 0h1m1 0h1m3 0h1m3 0h1m1 0h1m1 0h3m1 0h11m1 0h1m1 0h1m1 0h2m2 0h2m3 0h1m2 0h5m1 0h1m1 0h2m1 0h1m1 0h2m1 0h2m1 0h3m3 0h1m4 0h5M5 13.5h1m5 0h2m3 0h1m1 0h1m3 0h1m1 0h2m1 0h2m1 0h2m2 0h1m1 0h2m2 0h1m2 0h5m2 0h3m2 0h3m1 0h2m1 0h2m4 0h1m1 0h1m1 0h6m1 0h2m1 0h1m2 0h2m3 0h1m3 0h1m1 0h1m4 0h1m2 0h2m1 0h3m2 0h2m1 0h1m4 0h3M8 14.5h3m1 0h2m1 0h3m2 0h2m3 0h3m1 0h1m1 0h2m5 0h2m3 0h2m1 0h3m1 0h1m3 0h2m1 0h2m4 0h2m1 0h5m2 0h2m3 0h2m1 0h1m1 0h8m3 0h2m1 0h1m1 0h2m3 0h1m1 0h1m1 0h2m6 0h2m1 0h1m3 0h1M5 15.5h1m1 0h3m2 0h3m1 0h1m2 0h2m3 0h1m1 0h1m3 0h1m1 0h3m1 0h1m2 0h6m1 0h2m1 0h1m2 0h3m2 0h1m1 0h2m3 0h2m2 0h1m3 0h1m2 0h1m1 0h1m1 0h1m1 0h2m2 0h2m7 0h1m1 0h1m1 0h2m3 0h2m5 0h1m1 0h1m1 0h3m2 0h3m1 0h1M7 16.5h1m1 0h2m1 0h1m4 0h1m1 0h1m4 0h1m1 0h3m2 0h1m9 0h3m5 0h1m1 0h2m2 0h4m1 0h3m2 0h3m1 0h4m3 0h2m1 0h1m6 0h3m1 0h2m1 0h2m1 0h2m2 0h5m1 0h4m1 0h2m2 0h1m1 0h2m2 0h2M6 17.5h1m1 0h2m1 0h3m1 0h2m3 0h1m1 0h1m1 0h3m1 0h6m1 0h2m3 0h1m1 0h3m2 0h2m2 0h7m3 0h2m1 0h1m1 0h1m2 0h1m4 0h3m2 0h3m1 0h1m2 0h4m1 0h2m1 0h8m1 0h1m1 0h4m1 0h1m1 0h1m6 0h2M5 18.5h1m1 0h1m1 0h2m2 0h1m1 0h1m2 0h1m2 0h1m4 0h1m1 0h1m4 0h2m6 0h4m4 0h1m2 0h2m1 0h1m1 0h1m1 0h1m6 0h1m1 0h1m2 0h1m1 0h1m1 0h1m2 0h1m1 0h3m1 0h2m2 0h2m1 0h1m1 0h1m2 0h2m1 0h1m2 0h2m1 0h2m1 0h5m1 0h3m3 0h3m1 0h1M6 19.5h1m2 0h1m1 0h2m3 0h1m1 0h4m2 0h1m1 0h1m1 0h1m2 0h1m1 0h1m6 0h2m3 0h1m2 0h1m2 0h2m9 0h2m2 0h1m1 0h1m1 0h4m7 0h3m3 0h1m2 0h2m2 0h2m4 0h1m2 0h2m1 0h1m1 0h1m3 0h1m3 0h1m1 0h1m2 0h4M4 20.5h1m4 0h2m2 0h1m2 0h1m3 0h1m2 0h1m1 0h1m1 0h4m4 0h1m3 0h1m2 0h1m3 0h1m3 0h6m2 0h1m3 0h1m1 0h2m2 0h1m1 0h2m2 0h2m1 0h1m3 0h2m1 0h1m3 0h2m1 0h3m1 0h1m1 0h1m1 0h2m2 0h1m1 0h1m1 0h2m1 0h3m1 0h2m1 0h1m1 0h1m1 0h1m2 0h1M5 21.5h5m1 0h1m4 0h1m1 0h3m2 0h2m1 0h1m2 0h1m2 0h1m3 0h1m1 0h2m5 0h1m1 0h4m1 0h2m3 0h3m4 0h1m1 0h2m3 0h3m7 0h3m1 0h3m2 0h4m1 0h5m1 0h4m1 0h1m1 0h1m1 0h1m1 0h2m1 0h5m1 0h4M7 22.5h5m3 0h2m6 0h1m1 0h1m3 0h2m1 0h3m2 0h4m2 0h1m2 0h1m3 0h1m3 0h2m2 0h1m2 0h1m1 0h2m4 0h2m1 0h2m3 0h1m8 0h1m3 0h2m1 0h4m3 0h2m4 0h2m3 0h1m1 0h2m2 0h1m2 0h1m2 0h2M4 23.5h5m2 0h2m1 0h8m3 0h3m2 0h5m1 0h3m2 0h1m2 0h2m3 0h1m2 0h1m2 0h7m1 0h3m1 0h1m2 0h3m1 0h2m1 0h5m5 0h1m5 0h1m1 0h3m2 0h7m5 0h1m1 0h1m1 0h1m1 0h1m1 0h3m1 0h1M7 24.5h2m1 0h1m6 0h1m1 0h1m2 0h2m3 0h1m1 0h5m2 0h1m2 0h1m3 0h1m1 0h6m2 0h1m1 0h1m1 0h1m4 0h2m1 0h2m5 0h2m2 0h2m1 0h2m1 0h10m2 0h5m1 0h2m3 0h1m3 0h3m2 0h2m1 0h3m1 0h4M4 25.5h1m3 0h1m3 0h2m1 0h4m2 0h1m1 0h1m1 0h1m3 0h1m1 0h1m1 0h1m2 0h3m1 0h1m1 0h1m1 0h3m2 0h1m1 0h3m1 0h2m3 0h2m2 0h2m1 0h1m3 0h1m1 0h2m1 0h2m3 0h4m1 0h1m3 0h3m1 0h1m6 0h1m1 0h2m2 0h2m8 0h4m1 0h1m1 0h1M7 26.5h1m2 0h3m2 0h5m3 0h2m1 0h3m1 0h2m3 0h3m1 0h1m1 0h3m3 0h2m1 0h2m1 0h2m1 0h2m5 0h2m2 0h3m2 0h1m1 0h3m3 0h1m1 0h2m3 0h1m1 0h1m2 0h2m3 0h2m6 0h1m1 0h1m3 0h4m1 0h3m5 0h1M5 27.5h2m6 0h4m1 0h3m1 0h1m2 0h1m2 0h4m1 0h3m1 0h3m4 0h2m1 0h1m3 0h1m1 0h4m1 0h2m2 0h1m1 0h3m2 0h1m1 0h1m3 0h1m3 0h7m2 0h1m1 0h1m1 0h3m2 0h1m1 0h3m4 0h1m1 0h2m3 0h2m2 0h1m4 0h1M6 28.5h1m1 0h1m1 0h1m7 0h3m1 0h1m4 0h3m1 0h2m1 0h3m3 0h2m1 0h8m1 0h1m1 0h1m6 0h1m4 0h1m3 0h1m2 0h2m1 0h3m4 0h1m1 0h5m1 0h2m1 0h1m1 0h3m1 0h1m2 0h1m1 0h1m3 0h2m2 0h1m1 0h1m1 0h1m1 0h1m1 0h1M8 29.5h2m1 0h1m4 0h2m1 0h2m4 0h4m1 0h1m1 0h1m3 0h1m1 0h3m2 0h2m1 0h1m2 0h1m1 0h2m2 0h1m1 0h2m1 0h1m1 0h1m1 0h3m1 0h1m1 0h2m4 0h1m2 0h4m1 0h1m5 0h1m4 0h2m4 0h1m2 0h2m5 0h3m2 0h1m1 0h1m1 0h1m1 0h1m1 0h1M4 30.5h3m1 0h1m1 0h1m1 0h1m2 0h2m1 0h3m1 0h2m3 0h1m3 0h1m1 0h7m1 0h1m4 0h2m1 0h1m1 0h3m1 0h5m1 0h11m2 0h1m2 0h3m1 0h3m1 0h1m4 0h1m1 0h2m2 0h2m3 0h1m1 0h2m1 0h4m1 0h1m3 0h1m1 0h3m1 0h2m1 0h1M4 31.5h1m1 0h2m3 0h1m2 0h1m1 0h1m5 0h3m2 0h1m1 0h1m3 0h1m1 0h1m2 0h1m1 0h1m2 0h1m1 0h1m1 0h1m7 0h2m4 0h1m1 0h1m3 0h1m2 0h1m4 0h1m2 0h2m5 0h1m3 0h1m1 0h3m1 0h3m1 0h2m2 0h4m1 0h1m1 0h1m1 0h3m2 0h6m1 0h1M4 32.5h1m1 0h9m2 0h1m7 0h4m3 0h6m2 0h1m1 0h2m1 0h1m4 0h1m5 0h2m1 0h7m1 0h1m1 0h1m2 0h1m1 0h4m2 0h1m1 0h1m5 0h7m3 0h1m1 0h3m1 0h3m1 0h2m1 0h3m1 0h6m3 0h1M8 33.5h1m3 0h2m2 0h4m1 0h1m2 0h2m1 0h2m1 0h3m3 0h2m1 0h1m2 0h1m1 0h1m2 0h1m2 0h1m4 0h2m2 0h2m3 0h1m2 0h2m2 0h3m1 0h6m2 0h1m1 0h1m2 0h1m3 0h1m2 0h1m3 0h2m1 0h2m2 0h1m1 0h1m1 0h1m1 0h3m1 0h1m3 0h1m3 0h1M4 34.5h1m2 0h2m1 0h1m1 0h4m2 0h1m4 0h3m1 0h1m3 0h2m1 0h1m1 0h3m2 0h1m2 0h2m2 0h1m2 0h1m3 0h1m1 0h2m1 0h1m1 0h1m1 0h1m1 0h7m2 0h2m1 0h2m2 0h2m1 0h1m2 0h1m1 0h1m1 0h1m4 0h1m1 0h2m2 0h1m7 0h1m1 0h4m1 0h1m1 0h2m1 0h1M4 35.5h2m2 0h1m3 0h1m4 0h1m1 0h3m5 0h4m1 0h1m3 0h1m5 0h1m1 0h2m2 0h1m3 0h1m7 0h1m3 0h1m1 0h1m1 0h3m1 0h1m1 0h1m1 0h3m2 0h2m1 0h1m1 0h1m1 0h1m3 0h1m1 0h1m5 0h2m1 0h2m1 0h1m1 0h2m1 0h1m1 0h1m1 0h2m3 0h2M5 36.5h1m2 0h7m6 0h1m1 0h1m4 0h10m1 0h2m2 0h3m1 0h2m2 0h1m3 0h2m1 0h7m1 0h3m1 0h3m1 0h1m4 0h2m5 0h1m1 0h5m3 0h2m1 0h1m3 0h3m2 0h3m5 0h5m2 0h1M4 37.5h1m1 0h1m4 0h3m4 0h2m1 0h1m3 0h7m1 0h1m1 0h1m4 0h1m9 0h1m1 0h3m2 0h1m1 0h1m1 0h2m7 0h3m3 0h1m2 0h4m3 0h1m3 0h2m2 0h1m2 0h2m5 0h1m2 0h3m3 0h3m1 0h3m1 0h1M6 38.5h2m1 0h4m4 0h1m1 0h2m1 0h3m3 0h1m2 0h1m3 0h1m2 0h3m1 0h3m1 0h1m2 0h2m2 0h1m1 0h1m3 0h2m2 0h1m2 0h4m3 0h1m7 0h3m1 0h2m1 0h1m2 0h1m3 0h1m1 0h3m3 0h1m1 0h2m1 0h1m3 0h2m3 0h1m5 0h2M5 39.5h1m1 0h2m2 0h3m2 0h1m1 0h1m1 0h1m1 0h3m5 0h1m3 0h1m1 0h1m1 0h1m4 0h1m4 0h1m2 0h2m1 0h1m1 0h1m1 0h1m1 0h3m3 0h1m3 0h1m4 0h2m2 0h1m1 0h2m1 0h1m2 0h10m3 0h2m2 0h1m2 0h1m2 0h1m2 0h2m2 0h1m1 0h2M6 40.5h1m3 0h1m1 0h1m7 0h1m3 0h1m2 0h1m2 0h2m1 0h4m2 0h2m1 0h1m3 0h2m2 0h1m1 0h2m1 0h3m4 0h1m2 0h1m1 0h1m2 0h2m2 0h1m1 0h2m3 0h1m2 0h1m1 0h2m4 0h2m5 0h2m2 0h3m2 0h2m3 0h2m1 0h1m2 0h3m1 0h2M4 41.5h2m1 0h1m1 0h1m1 0h2m3 0h3m5 0h4m2 0h1m2 0h4m1 0h2m2 0h1m1 0h1m1 0h1m1 0h2m2 0h3m1 0h1m1 0h1m6 0h1m1 0h4m2 0h1m1 0h2m2 0h1m4 0h2m2 0h1m1 0h2m6 0h1m1 0h3m1 0h3m5 0h1m1 0h2m1 0h1m4 0h3M9 42.5h2m3 0h4m1 0h4m1 0h1m1 0h1m2 0h3m1 0h3m1 0h3m1 0h2m1 0h2m2 0h5m4 0h1m1 0h2m1 0h1m1 0h1m1 0h2m2 0h6m1 0h2m1 0h4m2 0h2m2 0h4m1 0h1m1 0h1m3 0h3m1 0h2m1 0h2m2 0h2m1 0h1m2 0h1m2 0h3M4 43.5h5m3 0h2m2 0h6m2 0h1m2 0h2m2 0h1m3 0h1m2 0h1m3 0h1m1 0h1m3 0h2m1 0h2m2 0h1m1 0h3m1 0h1m6 0h7m2 0h1m1 0h1m1 0h2m3 0h1m2 0h1m4 0h1m1 0h1m5 0h2m3 0h4m1 0h2m1 0h3m6 0h1M4 44.5h1m2 0h1m2 0h1m1 0h1m1 0h1m1 0h2m2 0h2m4 0h1m1 0h1m2 0h1m1 0h3m1 0h1m1 0h5m4 0h2m1 0h2m4 0h2m1 0h1m1 0h2m1 0h1m1 0h1m1 0h2m2 0h1m1 0h3m10 0h1m5 0h1m1 0h5m3 0h3m2 0h1m7 0h1m2 0h1m1 0h1M12 45.5h7m6 0h2m2 0h1m2 0h2m2 0h4m2 0h2m1 0h6m1 0h4m4 0h3m1 0h1m1 0h2m4 0h1m1 0h1m1 0h1m1 0h5m4 0h2m2 0h3m1 0h1m3 0h1m1 0h2m3 0h4m1 0h1m1 0h1m3 0h3m1 0h1m1 0h2M4 46.5h2m2 0h1m1 0h3m3 0h2m1 0h1m2 0h2m1 0h1m1 0h1m2 0h1m1 0h2m1 0h2m2 0h3m1 0h2m8 0h1m1 0h1m1 0h1m1 0h1m2 0h1m8 0h1m2 0h4m3 0h1m1 0h1m1 0h2m1 0h2m2 0h1m2 0h1m4 0h1m4 0h6m1 0h1m2 0h3m1 0h1m2 0h3M5 47.5h2m6 0h1m2 0h1m2 0h1m1 0h2m2 0h1m2 0h1m1 0h2m1 0h3m4 0h1m2 0h2m1 0h1m1 0h1m1 0h2m2 0h1m5 0h1m1 0h1m2 0h1m1 0h2m1 0h2m3 0h2m1 0h3m3 0h3m1 0h1m2 0h2m1 0h1m1 0h1m1 0h2m2 0h2m1 0h5m1 0h1m1 0h1m2 0h6M4 48.5h2m4 0h1m1 0h1m1 0h4m2 0h6m1 0h4m2 0h2m2 0h1m1 0h2m1 0h1m1 0h1m1 0h3m1 0h1m1 0h3m1 0h3m1 0h1m3 0h1m2 0h2m2 0h4m2 0h2m1 0h1m1 0h2m3 0h5m1 0h1m3 0h1m2 0h2m3 0h6m1 0h1m1 0h1m3 0h2m1 0h2M5 49.5h2m8 0h4m2 0h1m1 0h2m5 0h1m1 0h1m1 0h1m1 0h1m1 0h1m1 0h3m3 0h1m3 0h1m1 0h1m1 0h3m2 0h3m1 0h6m1 0h2m2 0h4m1 0h4m2 0h1m3 0h3m2 0h3m9 0h1m2 0h1m1 0h1m2 0h1m5 0h4M6 50.5h2m1 0h3m1 0h1m4 0h2m2 0h1m3 0h4m1 0h1m1 0h1m1 0h1m1 0h2m1 0h1m1 0h1m1 0h1m1 0h3m1 0h2m2 0h1m2 0h1m1 0h3m2 0h1m3 0h1m4 0h2m1 0h2m5 0h9m3 0h1m2 0h2m3 0h1m2 0h1m2 0h2m1 0h1m4 0h4M4 51.5h2m2 0h1m4 0h1m3 0h2m1 0h1m2 0h1m1 0h1m1 0h2m1 0h2m1 0h1m1 0h1m2 0h2m1 0h2m1 0h1m1 0h1m2 0h2m4 0h2m4 0h1m1 0h1m1 0h7m1 0h1m3 0h2m5 0h1m6 0h1m1 0h1m2 0h2m3 0h2m3 0h4m1 0h1m2 0h1m7 0h3M4 52.5h1m2 0h1m2 0h1m2 0h3m1 0h2m2 0h4m1 0h1m3 0h1m5 0h1m1 0h4m2 0h4m2 0h1m1 0h1m5 0h4m2 0h1m2 0h1m2 0h1m2 0h3m1 0h2m1 0h2m6 0h3m1 0h1m1 0h1m3 0h1m1 0h1m1 0h2m1 0h1m1 0h1m2 0h2m1 0h1m1 0h2m3 0h1m1 0h1m1 0h1M5 53.5h4m2 0h3m1 0h1m1 0h1m1 0h1m1 0h3m5 0h2m1 0h1m1 0h1m2 0h3m5 0h2m1 0h4m1 0h1m1 0h2m2 0h1m2 0h3m4 0h1m2 0h1m1 0h1m3 0h2m1 0h1m1 0h1m1 0h2m3 0h2m1 0h2m3 0h3m1 0h1m2 0h1m1 0h1m1 0h2m2 0h1m1 0h3m1 0h1m1 0h2M4 54.5h9m1 0h3m2 0h5m1 0h6m2 0h1m1 0h6m2 0h1m1 0h3m2 0h2m3 0h3m1 0h5m1 0h2m1 0h1m1 0h2m4 0h3m3 0h1m1 0h4m2 0h1m3 0h3m4 0h2m2 0h2m2 0h1m1 0h3m3 0h2m1 0h2m2 0h1M6 55.5h1m1 0h1m2 0h2m1 0h1m2 0h1m7 0h1m3 0h3m2 0h2m4 0h1m1 0h1m3 0h1m1 0h2m2 0h4m2 0h3m1 0h4m1 0h1m1 0h1m1 0h1m5 0h1m1 0h2m5 0h4m1 0h1m1 0h1m3 0h3m1 0h1m1 0h4m2 0h1m6 0h1m2 0h1m2 0h1M4 56.5h4m2 0h3m3 0h1m1 0h2m2 0h1m4 0h4m2 0h3m1 0h2m1 0h3m1 0h5m2 0h1m1 0h3m4 0h2m2 0h3m1 0h1m7 0h1m1 0h2m1 0h2m4 0h1m2 0h4m1 0h2m1 0h1m3 0h1m2 0h2m1 0h1m1 0h1m1 0h1m1 0h3m1 0h3m1 0h3M6 57.5h2m3 0h1m2 0h5m2 0h3m2 0h2m2 0h2m1 0h2m1 0h1m2 0h2m2 0h2m3 0h2m1 0h1m2 0h1m1 0h4m3 0h1m1 0h1m2 0h1m1 0h3m2 0h1m3 0h1m2 0h1m1 0h1m1 0h1m1 0h3m3 0h1m2 0h1m5 0h1m1 0h1m1 0h2m2 0h8m3 0h2M4 58.5h1m1 0h2m1 0h3m1 0h3m1 0h1m2 0h6m3 0h1m3 0h3m2 0h2m2 0h3m1 0h3m1 0h1m2 0h2m6 0h3m2 0h2m2 0h1m6 0h3m2 0h1m2 0h5m2 0h4m3 0h1m1 0h1m1 0h2m1 0h1m2 0h2m2 0h1m1 0h1m1 0h2m2 0h1m1 0h1M5 59.5h1m1 0h1m1 0h1m1 0h4m1 0h1m1 0h4m1 0h1m1 0h2m3 0h2m4 0h1m1 0h1m1 0h3m3 0h1m2 0h2m4 0h1m1 0h1m1 0h3m2 0h1m1 0h4m1 0h9m1 0h1m1 0h1m1 0h5m10 0h3m3 0h1m2 0h1m1 0h1m1 0h1m2 0h2m1 0h3m1 0h2M4 60.5h1m3 0h5m1 0h1m3 0h1m1 0h2m1 0h4m1 0h2m1 0h6m1 0h3m2 0h4m1 0h3m4 0h2m2 0h7m3 0h1m2 0h7m2 0h4m1 0h1m1 0h8m1 0h4m3 0h1m1 0h3m1 0h1m3 0h9m1 0h1M4 61.5h5m3 0h1m2 0h2m1 0h3m1 0h1m1 0h1m1 0h5m1 0h1m3 0h2m3 0h2m3 0h3m2 0h3m3 0h4m3 0h2m2 0h1m1 0h3m3 0h1m1 0h1m2 0h1m2 0h1m3 0h1m3 0h1m1 0h1m2 0h2m1 0h2m1 0h2m2 0h1m2 0h2m3 0h2m3 0h1m1 0h1m1 0h1M8 62.5h1m1 0h1m1 0h1m3 0h1m1 0h1m3 0h3m4 0h1m2 0h1m1 0h1m1 0h2m2 0h1m1 0h2m1 0h2m1 0h3m1 0h1m6 0h2m1 0h1m1 0h1m1 0h1m1 0h1m4 0h2m1 0h5m1 0h4m1 0h2m1 0h1m1 0h3m2 0h1m1 0h1m3 0h2m1 0h1m1 0h2m1 0h1m2 0h1m1 0h1m1 0h1m1 0h1m1 0h2M4 63.5h1m1 0h3m3 0h5m3 0h2m3 0h1m5 0h2m3 0h1m1 0h2m2 0h4m1 0h2m3 0h2m3 0h4m3 0h2m6 0h1m1 0h1m1 0h1m5 0h1m1 0h2m1 0h2m3 0h1m3 0h1m2 0h3m3 0h1m1 0h1m1 0h2m2 0h1m2 0h1m3 0h1m3 0h1M4 64.5h2m1 0h6m1 0h1m1 0h1m4 0h1m3 0h1m2 0h2m1 0h7m3 0h3m1 0h3m3 0h3m2 0h9m1 0h1m2 0h1m2 0h1m2 0h2m1 0h1m4 0h2m2 0h6m1 0h3m2 0h5m1 0h2m2 0h2m2 0h2m1 0h5M6 65.5h2m1 0h1m1 0h1m1 0h1m1 0h4m2 0h1m2 0h2m3 0h2m5 0h2m1 0h1m6 0h1m1 0h7m1 0h1m2 0h1m3 0h3m1 0h1m2 0h1m4 0h1m1 0h1m1 0h3m3 0h1m2 0h1m2 0h2m1 0h4m3 0h1m1 0h1m2 0h1m6 0h3m1 0h1m2 0h1m1 0h1M4 66.5h5m1 0h1m1 0h1m1 0h2m2 0h4m1 0h1m2 0h2m3 0h1m1 0h7m3 0h1m1 0h3m6 0h1m4 0h1m1 0h1m1 0h2m1 0h1m2 0h1m2 0h2m2 0h3m5 0h2m4 0h1m2 0h1m1 0h1m5 0h4m2 0h4m2 0h2m1 0h7m1 0h1M4 67.5h3m5 0h2m3 0h2m2 0h1m3 0h4m1 0h1m2 0h1m1 0h2m1 0h2m1 0h1m1 0h1m2 0h1m1 0h1m2 0h3m1 0h2m1 0h1m3 0h2m2 0h1m5 0h1m3 0h3m2 0h1m2 0h2m5 0h4m1 0h2m1 0h1m2 0h2m2 0h1m3 0h4m1 0h1m1 0h2m2 0h2m1 0h1M4 68.5h1m1 0h1m3 0h2m1 0h3m1 0h2m2 0h2m1 0h2m2 0h2m1 0h1m4 0h2m2 0h1m1 0h1m1 0h8m1 0h2m2 0h2m1 0h2m1 0h3m1 0h1m3 0h5m6 0h1m1 0h1m3 0h4m1 0h1m1 0h5m2 0h5m1 0h2m1 0h3m1 0h1m2 0h1m2 0h2M4 69.5h6m1 0h4m1 0h2m2 0h2m4 0h1m3 0h1m4 0h2m4 0h6m1 0h1m1 0h1m1 0h1m1 0h3m2 0h1m1 0h1m2 0h1m2 0h2m5 0h3m1 0h2m1 0h3m1 0h3m1 0h2m3 0h1m2 0h2m1 0h1m2 0h1m2 0h1m1 0h5m3 0h2m2 0h1m1 0h1M4 70.5h2m3 0h2m1 0h1m3 0h1m2 0h5m2 0h3m3 0h1m1 0h4m1 0h1m1 0h2m4 0h3m1 0h1m5 0h3m1 0h4m1 0h2m3 0h2m1 0h4m1 0h3m3 0h1m5 0h4m2 0h1m7 0h2m1 0h1m2 0h1m3 0h6m1 0h3M4 71.5h1m1 0h3m2 0h1m6 0h7m2 0h4m1 0h1m1 0h1m2 0h1m2 0h3m2 0h1m3 0h2m2 0h1m1 0h1m3 0h1m4 0h1m1 0h1m1 0h2m5 0h3m2 0h2m1 0h4m1 0h2m1 0h4m1 0h1m1 0h2m4 0h1m4 0h1m1 0h2m3 0h1m1 0h6M4 72.5h1m1 0h3m1 0h7m1 0h1m5 0h1m1 0h7m1 0h1m1 0h1m1 0h1m5 0h1m1 0h1m1 0h3m2 0h1m1 0h1m2 0h5m1 0h1m3 0h1m1 0h6m1 0h1m2 0h1m3 0h2m2 0h1m2 0h1m3 0h1m4 0h1m1 0h2m1 0h4m4 0h1m1 0h4m4 0h2M6 73.5h2m3 0h1m4 0h1m2 0h4m1 0h2m1 0h1m4 0h1m1 0h3m1 0h1m3 0h1m2 0h1m1 0h3m2 0h1m2 0h1m2 0h2m3 0h2m3 0h3m5 0h1m1 0h2m2 0h1m2 0h1m2 0h1m2 0h2m4 0h1m1 0h2m2 0h2m5 0h1m7 0h1m2 0h1M8 74.5h1m1 0h5m3 0h1m1 0h1m1 0h1m1 0h1m2 0h3m4 0h1m1 0h1m6 0h1m2 0h1m2 0h1m2 0h1m5 0h3m1 0h2m2 0h2m1 0h1m2 0h2m2 0h1m1 0h1m1 0h3m4 0h3m1 0h1m7 0h3m2 0h1m1 0h2m1 0h6m2 0h2m1 0h2M4 75.5h3m1 0h2m3 0h2m1 0h2m1 0h3m1 0h1m1 0h2m1 0h1m1 0h2m2 0h4m2 0h3m3 0h2m2 0h1m4 0h2m2 0h1m3 0h3m1 0h1m1 0h2m3 0h2m2 0h2m2 0h3m1 0h2m1 0h2m1 0h1m2 0h1m1 0h4m2 0h2m4 0h2m2 0h4m2 0h1m2 0h2M7 76.5h1m2 0h1m2 0h1m6 0h1m2 0h3m4 0h2m5 0h1m5 0h1m1 0h1m1 0h2m1 0h1m2 0h1m1 0h3m1 0h1m2 0h1m1 0h5m1 0h2m3 0h2m1 0h1m2 0h2m1 0h2m1 0h2m1 0h2m1 0h4m4 0h2m2 0h1m1 0h1m1 0h2m1 0h5m1 0h1m2 0h1m2 0h1M5 77.5h1m3 0h1m2 0h5m2 0h5m1 0h1m3 0h1m2 0h1m2 0h4m3 0h3m1 0h1m3 0h1m2 0h2m1 0h1m2 0h1m1 0h1m1 0h2m1 0h2m1 0h1m1 0h1m1 0h1m3 0h1m3 0h1m1 0h2m1 0h4m2 0h1m1 0h1m3 0h1m4 0h2m7 0h2m3 0h2m2 0h1m1 0h1M4 78.5h1m3 0h3m1 0h3m2 0h6m2 0h1m1 0h1m1 0h1m2 0h1m10 0h1m1 0h1m2 0h3m1 0h2m3 0h2m2 0h1m2 0h4m7 0h2m2 0h1m5 0h2m1 0h1m1 0h1m1 0h1m1 0h1m1 0h2m1 0h1m3 0h4m2 0h2m1 0h2m1 0h2m4 0h2m1 0h1M5 79.5h1m5 0h3m2 0h3m2 0h1m4 0h1m1 0h1m1 0h3m2 0h1m1 0h3m1 0h1m1 0h2m2 0h1m1 0h2m3 0h2m3 0h4m1 0h1m7 0h1m3 0h2m1 0h2m1 0h1m1 0h1m1 0h1m1 0h6m1 0h2m1 0h1m3 0h1m2 0h2m1 0h1m1 0h1m2 0h2m6 0h1M4 80.5h3m1 0h1m1 0h5m2 0h4m2 0h1m1 0h2m6 0h5m1 0h5m1 0h2m3 0h3m3 0h3m1 0h1m2 0h1m2 0h1m1 0h3m1 0h1m3 0h1m1 0h5m1 0h2m1 0h1m1 0h3m1 0h2m1 0h2m1 0h1m3 0h1m2 0h1m1 0h1m1 0h1m8 0h3m1 0h2M6 81.5h1m1 0h2m4 0h2m1 0h1m1 0h3m1 0h2m2 0h3m2 0h2m1 0h3m1 0h1m1 0h1m1 0h1m1 0h1m2 0h1m1 0h3m4 0h1m1 0h1m1 0h2m1 0h1m5 0h1m1 0h2m1 0h2m3 0h3m4 0h2m1 0h1m3 0h1m1 0h1m1 0h1m2 0h2m3 0h6m2 0h2m2 0h2m1 0h1M4 82.5h1m1 0h1m3 0h2m1 0h2m2 0h3m1 0h1m10 0h3m1 0h2m1 0h1m5 0h2m1 0h1m1 0h2m3 0h3m6 0h2m1 0h1m1 0h2m1 0h4m1 0h1m2 0h1m1 0h4m4 0h2m1 0h3m5 0h1m5 0h2m1 0h7m1 0h1m1 0h1M4 83.5h1m1 0h1m1 0h2m1 0h1m2 0h2m1 0h1m1 0h1m1 0h3m12 0h1m3 0h1m1 0h2m2 0h2m2 0h7m2 0h1m1 0h2m5 0h2m1 0h1m4 0h1m1 0h5m4 0h3m1 0h1m2 0h1m3 0h1m1 0h1m1 0h3m2 0h3m1 0h3m2 0h4m1 0h1m2 0h1M5 84.5h6m1 0h3m2 0h2m1 0h1m3 0h6m1 0h2m1 0h2m1 0h2m1 0h1m1 0h1m2 0h1m2 0h2m1 0h3m3 0h1m7 0h2m2 0h1m1 0h1m1 0h3m4 0h1m1 0h1m3 0h1m2 0h1m1 0h2m1 0h5m1 0h1m1 0h4m4 0h4m1 0h2m3 0h1M5 85.5h1m2 0h1m2 0h3m1 0h1m2 0h4m2 0h1m1 0h3m1 0h1m3 0h1m2 0h1m1 0h1m1 0h3m2 0h3m1 0h3m3 0h3m5 0h1m2 0h1m2 0h1m4 0h2m2 0h3m5 0h3m3 0h3m6 0h5m3 0h3m4 0h1m3 0h2m1 0h1M4 86.5h1m4 0h3m1 0h4m4 0h1m1 0h2m2 0h4m1 0h1m1 0h1m5 0h3m2 0h2m1 0h2m1 0h4m4 0h2m2 0h1m1 0h1m2 0h1m1 0h4m1 0h1m2 0h2m4 0h3m2 0h1m2 0h1m1 0h1m4 0h1m2 0h1m1 0h1m2 0h1m1 0h1m2 0h1m3 0h1m1 0h1m4 0h1M5 87.5h2m2 0h1m2 0h1m2 0h1m2 0h11m2 0h3m1 0h1m5 0h1m4 0h4m1 0h8m1 0h2m2 0h2m2 0h1m2 0h2m2 0h1m2 0h1m3 0h2m1 0h1m1 0h5m7 0h3m2 0h3m1 0h1m1 0h1m1 0h1m1 0h4m2 0h1M5 88.5h2m1 0h10m1 0h1m3 0h3m2 0h1m1 0h1m1 0h5m2 0h1m3 0h1m2 0h1m2 0h1m5 0h12m1 0h2m2 0h2m2 0h2m1 0h1m8 0h5m1 0h2m3 0h1m1 0h3m5 0h5m2 0h5m1 0h1m1 0h1M4 89.5h1m1 0h1m1 0h1m3 0h2m1 0h2m1 0h3m1 0h2m6 0h3m3 0h1m2 0h8m1 0h1m1 0h3m2 0h2m2 0h2m3 0h5m1 0h2m4 0h1m2 0h1m1 0h1m1 0h2m2 0h2m3 0h2m3 0h1m2 0h5m5 0h1m1 0h1m1 0h1m1 0h1m3 0h3m1 0h1M4 90.5h1m1 0h1m1 0h1m1 0h1m1 0h2m1 0h3m2 0h2m2 0h1m1 0h1m2 0h4m1 0h1m1 0h1m1 0h1m4 0h2m1 0h4m1 0h1m1 0h2m2 0h4m1 0h1m1 0h1m3 0h10m2 0h3m1 0h1m2 0h2m1 0h1m1 0h3m1 0h1m2 0h2m1 0h6m5 0h1m2 0h1m1 0h1m1 0h5M4 91.5h1m2 0h2m3 0h1m3 0h1m2 0h1m1 0h1m1 0h1m2 0h1m1 0h1m2 0h2m3 0h1m1 0h4m2 0h2m1 0h1m2 0h3m2 0h1m4 0h1m3 0h1m1 0h2m4 0h1m4 0h5m1 0h2m3 0h1m3 0h2m1 0h3m1 0h2m1 0h1m5 0h1m2 0h3m2 0h1m3 0h1m2 0h2M7 92.5h7m3 0h1m2 0h2m1 0h5m1 0h1m2 0h10m1 0h1m1 0h3m2 0h3m1 0h1m2 0h1m2 0h5m3 0h1m1 0h1m3 0h2m1 0h3m1 0h2m2 0h1m2 0h5m2 0h1m2 0h2m1 0h1m6 0h1m3 0h1m3 0h6m1 0h2M4 93.5h1m2 0h1m1 0h1m2 0h1m2 0h1m1 0h3m3 0h1m2 0h1m1 0h1m2 0h1m1 0h2m3 0h4m4 0h2m1 0h1m1 0h1m2 0h1m2 0h1m1 0h1m1 0h1m1 0h2m3 0h4m7 0h1m1 0h1m4 0h6m1 0h1m2 0h2m1 0h2m1 0h5m4 0h3m1 0h2m1 0h1m1 0h2m1 0h1M5 94.5h2m1 0h1m1 0h2m4 0h2m2 0h1m2 0h3m2 0h3m1 0h2m2 0h1m1 0h2m1 0h1m1 0h1m1 0h3m1 0h1m2 0h1m3 0h1m1 0h1m1 0h1m1 0h1m1 0h1m1 0h1m5 0h1m1 0h3m2 0h1m1 0h2m1 0h1m1 0h1m1 0h2m3 0h2m2 0h2m1 0h1m2 0h2m2 0h4m1 0h1m1 0h2m2 0h2m1 0h1m1 0h2M5 95.5h1m1 0h1m3 0h1m2 0h1m3 0h1m2 0h1m2 0h1m3 0h3m4 0h1m2 0h2m3 0h1m1 0h1m1 0h2m1 0h2m1 0h3m1 0h1m3 0h1m2 0h3m1 0h1m2 0h1m1 0h1m2 0h1m3 0h1m3 0h1m1 0h4m3 0h1m1 0h2m2 0h1m1 0h1m3 0h2m2 0h2m1 0h1m1 0h1m4 0h1m2 0h1M4 96.5h2m1 0h1m1 0h2m2 0h5m2 0h2m1 0h1m5 0h1m1 0h2m1 0h1m1 0h1m1 0h4m1 0h3m3 0h1m6 0h1m1 0h1m1 0h1m7 0h2m2 0h2m1 0h2m1 0h4m2 0h3m1 0h2m2 0h3m3 0h1m4 0h3m2 0h2m1 0h1m2 0h1m1 0h1m1 0h3m1 0h3M7 97.5h3m1 0h2m7 0h1m2 0h1m1 0h1m2 0h1m1 0h2m2 0h2m1 0h4m1 0h1m1 0h5m2 0h1m1 0h1m1 0h1m2 0h1m3 0h1m1 0h2m2 0h2m1 0h1m4 0h1m7 0h1m1 0h3m3 0h8m8 0h2m3 0h1m1 0h1m1 0h5m2 0h1M8 98.5h5m4 0h1m1 0h1m9 0h1m1 0h1m4 0h1m1 0h1m1 0h1m2 0h2m1 0h2m1 0h5m3 0h2m1 0h6m2 0h1m3 0h2m1 0h1m1 0h2m4 0h1m1 0h3m2 0h3m1 0h1m3 0h2m3 0h1m3 0h3m2 0h2m2 0h4m1 0h1m1 0h1M5 99.5h1m1 0h2m5 0h2m2 0h2m1 0h3m2 0h2m3 0h1m1 0h2m2 0h2m4 0h2m3 0h3m1 0h1m1 0h2m2 0h1m3 0h1m1 0h2m1 0h1m2 0h1m4 0h6m1 0h3m7 0h1m1 0h4m1 0h1m2 0h2m2 0h1m2 0h1m6 0h1m5 0h1m1 0h1M4 100.5h1m1 0h1m1 0h3m1 0h1m1 0h1m1 0h1m5 0h1m4 0h1m2 0h3m1 0h1m3 0h2m1 0h1m5 0h1m2 0h3m1 0h2m2 0h2m3 0h4m2 0h1m6 0h1m4 0h1m3 0h2m1 0h4m2 0h3m1 0h7m2 0h1m2 0h4m3 0h1m1 0h2m1 0h3M5 101.5h2m4 0h5m1 0h2m1 0h5m1 0h2m1 0h2m1 0h1m1 0h2m1 0h1m1 0h4m1 0h5m1 0h1m1 0h2m1 0h1m5 0h1m3 0h1m1 0h2m2 0h1m8 0h3m1 0h5m1 0h1m2 0h1m2 0h2m1 0h1m1 0h2m1 0h5m1 0h1m1 0h5m2 0h2m2 0h1M7 102.5h1m2 0h1m1 0h1m1 0h2m1 0h1m1 0h2m1 0h1m2 0h3m4 0h2m1 0h1m4 0h2m2 0h3m1 0h2m1 0h3m3 0h1m3 0h1m5 0h2m1 0h1m1 0h1m1 0h3m3 0h3m1 0h2m3 0h2m2 0h2m3 0h4m1 0h1m2 0h2m3 0h1m1 0h1m1 0h2m3 0h1M4 103.5h1m1 0h4m1 0h1m1 0h2m1 0h1m1 0h2m1 0h1m3 0h2m1 0h3m1 0h3m1 0h1m2 0h2m1 0h2m1 0h2m5 0h2m3 0h1m2 0h1m1 0h1m1 0h1m5 0h1m1 0h2m1 0h3m1 0h1m2 0h2m1 0h1m3 0h2m2 0h2m1 0h1m1 0h1m3 0h3m2 0h1m1 0h5m4 0h1m1 0h2m2 0h1M5 104.5h6m2 0h2m3 0h1m4 0h1m3 0h9m1 0h2m1 0h1m1 0h1m2 0h1m1 0h6m2 0h1m1 0h2m1 0h1m3 0h1m1 0h1m2 0h1m1 0h1m1 0h2m3 0h2m2 0h1m2 0h1m1 0h5m1 0h1m1 0h1m1 0h1m1 0h2m8 0h3m3 0h6m1 0h1m1 0h1M4 105.5h1m1 0h4m1 0h2m5 0h1m3 0h5m2 0h1m5 0h2m11 0h4m1 0h1m1 0h2m1 0h1m1 0h4m6 0h1m1 0h1m2 0h3m1 0h4m2 0h4m1 0h4m2 0h3m2 0h1m3 0h2m1 0h2m4 0h2m3 0h1m3 0h1M4 106.5h1m1 0h1m1 0h8m1 0h2m1 0h1m1 0h1m3 0h1m4 0h2m1 0h1m1 0h1m1 0h1m1 0h2m5 0h1m1 0h1m1 0h6m1 0h1m2 0h3m1 0h1m1 0h1m1 0h2m6 0h1m1 0h1m1 0h3m1 0h2m3 0h2m1 0h1m1 0h2m3 0h2m2 0h1m1 0h1m2 0h3m1 0h1m1 0h1m2 0h2m2 0h1M4 107.5h5m2 0h2m1 0h1m1 0h2m3 0h1m7 0h1m5 0h1m1 0h1m2 0h2m1 0h1m1 0h1m1 0h1m2 0h1m1 0h1m4 0h1m2 0h1m1 0h1m2 0h2m1 0h1m1 0h1m2 0h5m2 0h1m1 0h1m3 0h2m2 0h6m2 0h4m1 0h2m1 0h1m1 0h3m1 0h1m1 0h1m1 0h3m2 0h1m1 0h1M5 108.5h2m3 0h1m1 0h3m3 0h1m1 0h4m2 0h1m1 0h4m6 0h2m4 0h4m2 0h2m1 0h2m1 0h1m2 0h4m5 0h1m2 0h3m4 0h3m3 0h1m1 0h6m7 0h3m4 0h4m1 0h1m2 0h2m1 0h3m1 0h2m1 0h1M4 109.5h1m1 0h1m2 0h1m1 0h2m1 0h3m3 0h2m2 0h1m1 0h1m1 0h1m2 0h1m1 0h1m1 0h2m4 0h5m4 0h1m1 0h2m1 0h2m3 0h3m1 0h2m1 0h1m3 0h1m1 0h1m2 0h1m6 0h1m1 0h1m1 0h1m2 0h1m7 0h1m6 0h3m2 0h2m8 0h2m1 0h2M5 110.5h1m1 0h4m1 0h2m3 0h2m3 0h2m1 0h1m1 0h1m2 0h1m5 0h2m2 0h1m2 0h2m2 0h2m3 0h1m3 0h1m2 0h1m3 0h3m6 0h2m5 0h1m1 0h1m1 0h2m2 0h1m3 0h1m3 0h3m2 0h1m4 0h2m2 0h1m2 0h1m1 0h3m3 0h1M4 111.5h3m1 0h1m2 0h4m2 0h1m1 0h1m2 0h1m1 0h1m1 0h4m2 0h2m1 0h1m2 0h3m2 0h2m7 0h2m1 0h1m1 0h2m3 0h1m3 0h1m1 0h2m1 0h1m1 0h2m2 0h6m2 0h4m4 0h1m1 0h2m2 0h2m1 0h1m1 0h2m4 0h2m2 0h3m1 0h3m3 0h1M4 112.5h1m2 0h2m1 0h3m2 0h1m1 0h1m1 0h1m3 0h3m1 0h1m2 0h1m1 0h2m1 0h8m1 0h1m2 0h1m1 0h3m1 0h1m3 0h1m5 0h1m1 0h1m4 0h1m2 0h4m1 0h1m1 0h2m1 0h4m1 0h2m1 0h1m2 0h4m2 0h1m4 0h1m9 0h1m5 0h4M4 113.5h1m6 0h2m1 0h1m3 0h1m3 0h6m1 0h3m1 0h3m1 0h1m1 0h3m1 0h4m2 0h4m7 0h1m1 0h1m2 0h1m1 0h1m1 0h1m1 0h1m1 0h2m3 0h4m2 0h1m2 0h1m1 0h3m1 0h2m1 0h2m1 0h1m1 0h2m3 0h3m2 0h1m1 0h2m1 0h3m2 0h4M4 114.5h2m1 0h1m1 0h3m4 0h4m1 0h3m1 0h4m3 0h1m2 0h2m1 0h1m1 0h2m2 0h1m1 0h2m1 0h3m1 0h1m3 0h1m1 0h1m3 0h1m1 0h3m1 0h1m3 0h1m2 0h1m2 0h1m7 0h3m4 0h5m1 0h2m2 0h2m1 0h3m1 0h2m2 0h2m1 0h1m2 0h1m2 0h1M4 115.5h1m1 0h4m7 0h3m1 0h1m2 0h2m2 0h1m6 0h2m5 0h1m2 0h1m1 0h2m2 0h1m1 0h1m1 0h1m2 0h2m1 0h4m1 0h1m1 0h3m1 0h2m2 0h1m2 0h5m2 0h1m4 0h1m4 0h2m1 0h1m1 0h4m5 0h1m1 0h4m1 0h3m1 0h1M5 116.5h3m2 0h2m1 0h3m1 0h3m4 0h4m1 0h9m1 0h1m1 0h1m4 0h3m3 0h1m5 0h1m1 0h5m1 0h4m2 0h3m1 0h3m1 0h2m1 0h1m1 0h1m2 0h7m2 0h8m1 0h1m4 0h3m1 0h6m1 0h2M12 117.5h2m1 0h1m1 0h3m1 0h1m3 0h8m3 0h3m2 0h1m2 0h2m3 0h1m1 0h3m1 0h1m1 0h4m3 0h2m2 0h2m4 0h3m2 0h1m4 0h1m3 0h1m3 0h5m5 0h2m1 0h3m1 0h2m4 0h2m3 0h1m1 0h1m1 0h1M4 118.5h7m10 0h2m1 0h3m4 0h2m1 0h1m1 0h1m1 0h2m1 0h2m1 0h3m1 0h2m1 0h3m1 0h1m2 0h1m1 0h1m1 0h1m1 0h5m5 0h1m1 0h1m1 0h1m2 0h1m1 0h6m1 0h1m1 0h1m1 0h1m3 0h1m7 0h8m2 0h1m1 0h1m1 0h1m1 0h1M4 119.5h1m5 0h1m1 0h1m1 0h1m1 0h2m1 0h2m2 0h1m1 0h3m1 0h2m1 0h1m3 0h5m3 0h2m2 0h1m1 0h3m1 0h1m2 0h2m1 0h1m3 0h1m1 0h3m1 0h1m3 0h1m1 0h1m1 0h1m1 0h1m1 0h1m1 0h1m1 0h3m3 0h1m1 0h2m2 0h9m2 0h1m1 0h1m2 0h1m1 0h1m3 0h2M4 120.5h1m1 0h3m1 0h1m1 0h1m1 0h1m3 0h1m2 0h1m1 0h2m5 0h8m1 0h1m2 0h1m2 0h1m1 0h3m1 0h1m1 0h1m1 0h2m2 0h6m1 0h2m3 0h1m1 0h2m1 0h4m1 0h1m4 0h7m1 0h3m3 0h1m1 0h3m8 0h1m1 0h7M4 121.5h1m1 0h3m1 0h1m1 0h2m3 0h2m1 0h1m2 0h2m2 0h1m3 0h6m1 0h2m1 0h2m3 0h3m3 0h1m2 0h3m3 0h3m1 0h1m2 0h1m1 0h1m1 0h5m1 0h2m2 0h2m1 0h1m4 0h1m1 0h1m2 0h2m2 0h3m3 0h2m3 0h2m1 0h1m2 0h1m2 0h4m1 0h1M4 122.5h1m1 0h3m1 0h1m1 0h1m1 0h1m1 0h3m2 0h2m1 0h3m3 0h2m2 0h1m4 0h2m2 0h1m6 0h2m2 0h2m1 0h3m1 0h1m1 0h1m1 0h1m1 0h2m2 0h1m1 0h3m1 0h2m2 0h2m4 0h3m2 0h4m2 0h3m1 0h1m2 0h2m2 0h2m1 0h3m3 0h1m5 0h1M4 123.5h1m5 0h1m2 0h2m1 0h1m2 0h2m4 0h1m2 0h2m4 0h1m2 0h2m2 0h2m6 0h1m4 0h2m3 0h2m1 0h1m1 0h2m2 0h3m2 0h1m7 0h1m2 0h1m1 0h1m1 0h1m1 0h1m2 0h2m2 0h1m1 0h2m2 0h2m1 0h2m4 0h5m1 0h5m1 0h1M4 124.5h7m1 0h2m2 0h2m1 0h6m1 0h1m1 0h1m3 0h2m1 0h1m1 0h1m3 0h2m1 0h1m3 0h4m2 0h4m5 0h1m1 0h1m1 0h1m1 0h1m3 0h1m4 0h1m2 0h1m1 0h2m1 0h3m2 0h2m2 0h1m1 0h1m4 0h1m2 0h1m2 0h4m4 0h3m3 0h3"/></svg>
