<svg xmlns="http://www.w3.org/2000/svg" viewBox="0 0 129 129" shape-rendering="crispEdges"><path fill="#ffffff" d="M0 0h129v129H0z"/><path stroke="#000000" d="M4 4.5h7m2 0h1m2 0h2m1 0h1m4 0h5m3 0h1m1 0h1m2 0h1m1 0h1m2 0h1m1 0h2m1 0h5m1 0h1m1 0h1m1 0h1m1 0h1m1 0h1m1 0h2m1 0h1m2 0h4m3 0h2m6 0h2m1 0h2m1 0h1m3 0h1m2 0h3m2 0h1m2 0h1m2 0h1m3 0h1m1 0h2m2 0h7M4 5.5h1m5 0h1m2 0h1m1 0h5m2 0h3m1 0h3m1 0h2m3 0h1m5 0h3m1 0h1m1 0h2m1 0h3m1 0h2m2 0h2m2 0h3m3 0h2m3 0h1m2 0h2m1 0h1m4 0h2m2 0h2m2 0h1m5 0h4m1 0h2m3 0h2m1 0h1m2 0h1m1 0h1m1 0h1m5 0h1M4 6.5h1m1 0h3m1 0h1m1 0h3m2 0h2m1 0h8m1 0h3m1 0h1m2 0h5m1 0h2m4 0h2m2 0h1m1 0h1m2 0h1m1 0h4m1 0h1m1 0h1m2 0h1m7 0h3m1 0h1m1 0h1m1 0h5m1 0h1m1 0h3m1 0h1m2 0h4m3 0h1m1 0h1m3 0h1m1 0h2m1 0h1m1 0h3m1 0h1M4 7.5h1m1 0h3m1 0h1m1 0h1m3 0h4m1 0h2m1 0h2m3 0h3m1 0h1m6 0h1m1 0h1m1 0h2m1 0h2m2 0h4m2 0h1m4 0h1m1 0h3m1 0h4m1 0h1m2 0h3m1 0h5m1 0h1m1 0h1m2 0h1m2 0h2m7 0h1m1 0h1m1 0h1m1 0h2m1 0h1m1 0h3m1 0h1m1 0h3m1 0h1M4 8.5h1m1 0h3m1 0h1m1 0h5m4 0h1m1 0h1m2 0h12m2 0h1m1 0h2m2 0h1m5 0h1m2 0h2m1 0h8m1 0h1m2 0h1m1 0h3m2 0h1m1 0h2m2 0h3m1 0h6m1 0h1m1 0h1m1 0h2m4 0h1m1 0h3m2 0h3m1 0h1m2 0h1m1 0h3m1 0h1M4 9.5h1m5 0h1m1 0h2m1 0h3m6 0h4m2 0h1m1 0h1m3 0h2m1 0h1m1 0h2m1 0h3m1 0h1m1 0h2m3 0h1m3 0h2m3 0h2m1 0h5m3 0h2m2 0h1m2 0h1m5 0h1m3 0h4m1 0h4m3 0h2m3 0h1m4 0h2m2 0h1m5 0h1M4 10.5h7m1 0h1m1 0h1m1 0h1m1 0h1m1 0h1m1 0h1m1 0h1m1 0h1m1 0h1m1 0h1m1 0h1m1 0h1m1 0h1m1 0h1m1 0h1m1 0h1m1 0h1m1 0h1m1 0h1m1 0h1m1 0h1m1 0h1m1 0h1m1 0h1m1 0h1m1 0h1m1 0h1m1 0h1m1 0h1m1 0h1m1 0h1m1 0h1m1 0h1m1 0h1m1 0h1m1 0h1m1 0h1m1 0h1m1 0h1m1 0h1m1 0h1m1 0h1m1 0h1m1 0h1m1 0h1m1 0h1m1 0h1m1 0h1m1 0h1m1 0h1m1 0h1m1 0h1m1 0h1m1 0h7M12 11.5h2m3 0h2m2 0h1m1 0h3m3 0h1m2 0h1m3 0h1m2 0h1m1 0h3m1 0h3m2 0h1m2 0h1m2 0h3m1 0h1m3 0h3m1 0h1m1 0h3m1 0h2m1 0h2m3 0h3m1 0h1m1 0h1m3 0h3m2 0h3m1 0h1m1 0h2m1 0h3m2 0h3m2 0h1M4 12.5h1m1 0h5m5 0h1m3 0h2m3 0h1m1 0h3m1 0h7m1 0h1m1 0h3m4 0h1m2 0h2m3 0h1m2 0h6m2 0h3m4 0h1m2 0h1m2 0h1m4 0h9m1 0h6m2 0h1m1 0h1m2 0h2m1 0h3m1 0h1m2 0h5M4 13.5h1m1 0h1m1 0h1m3 0h2m1 0h4m3 0h2m1 0h2m1 0h2m3 0h3m2 0h1m2 0h2m3 0h1m1 0h2m1 0h3m1 0h2m2 0h1m1 0h1m2 0h2m1 0h1m1 0h2m4 0h1m1 0h1m4 0h1m2 0h2m2 0h1m9 0h5m1 0h1m2 0h2m1 0h2m2 0h2m1 0h1m2 0h2M8 14.5h1m1 0h3m1 0h4m2 0h9m1 0h1m5 0h1m1 0h1m5 0h3m1 0h2m2 0h2m1 0h3m2 0h1m3 0h1m3 0h1m4 0h1m1 0h2m2 0h1m1 0h2m3 0h3m5 0h1m1 0h7m3 0h3m10 0h1m1 0h3M5 15.5h3m3 0h4m1 0h1m1 0h3m3 0h2m4 0h2m2 0h3m3 0h1m1 0h2m1 0h1m2 0h1m1 0h2m3 0h2m3 0h1m1 0h1m1 0h1m2 0h1m2 0h2m1 0h1m2 0h2m2 0h4m2 0h2m1 0h1m1 0h4m1 0h1m1 0h1m3 0h4m3 0h2m1 0h1m1 0h1m3 0h1m1 0h1m1 0h1M4 16.5h2m2 0h5m3 0h1m5 0h4m1 0h1m1 0h2m2 0h1m4 0h1m1 0h3m1 0h3m3 0h1m1 0h1m1 0h2m1 0h1m1 0h1m1 0h2m1 0h1m1 0h1m1 0h1m1 0h1m1 0h1m1 0h2m3 0h2m1 0h1m3 0h1m3 0h4m1 0h2m5 0h1m1 0h4m2 0h3m1 0h5m3 0h3M4 17.5h1m1 0h3m5 0h1m2 0h6m1 0h1m1 0h1m1 0h1m2 0h4m1 0h3m1 0h2m1 0h1m2 0h1m1 0h3m1 0h1m3 0h1m1 0h5m1 0h3m1 0h3m3 0h1m1 0h6m2 0h1m1 0h4m3 0h3m3 0h3m2 0h1m2 0h2m3 0h1m1 0h4m1 0h3M4 18.5h1m3 0h3m1 0h3m1 0h1m1 0h1m1 0h1m2 0h3m1 0h5m1 0h1m3 0h5m3 0h3m2 0h1m2 0h1m1 0h1m1 0h1m5 0h1m1 0h1m1 0h4m2 0h1m3 0h1m1 0h1m5 0h1m6 0h1m4 0h3m1 0h1m2 0h1m1 0h1m2 0h2m1 0h7m2 0h3M4 19.5h1m1 0h3m2 0h1m1 0h2m1 0h3m3 0h2m2 0h1m1 0h3m1 0h1m1 0h2m5 0h3m3 0h3m1 0h2m3 0h1m2 0h1m5 0h1m2 0h3m2 0h1m2 0h3m4 0h1m2 0h1m4 0h2m2 0h1m1 0h1m5 0h1m3 0h5m1 0h3m2 0h1m1 0h5M4 20.5h2m1 0h1m2 0h1m3 0h3m2 0h1m2 0h5m2 0h3m1 0h3m3 0h1m1 0h1m2 0h1m1 0h2m1 0h1m2 0h2m1 0h1m1 0h1m7 0h1m1 0h2m2 0h1m1 0h1m4 0h1m3 0h2m3 0h2m2 0h1m2 0h1m2 0h1m1 0h3m1 0h1m2 0h1m1 0h2m5 0h1m3 0h1m3 0h2M8 21.5h2m2 0h2m1 0h2m4 0h1m2 0h1m2 0h2m1 0h1m1 0h1m1 0h5m3 0h1m1 0h1m2 0h1m3 0h1m1 0h1m2 0h1m2 0h1m2 0h1m1 0h2m1 0h4m1 0h1m1 0h1m1 0h1m2 0h5m1 0h1m2 0h2m1 0h1m1 0h3m1 0h1m1 0h1m1 0h1m3 0h2m1 0h1m2 0h1m1 0h3m1 0h3m1 0h3M5 22.5h2m1 0h6m1 0h2m3 0h1m3 0h2m8 0h3m2 0h2m2 0h1m1 0h2m1 0h2m1 0h1m2 0h1m2 0h1m1 0h4m1 0h1m1 0h2m2 0h1m2 0h3m5 0h1m1 0h1m2 0h3m1 0h2m6 0h1m1 0h1m1 0h1m1 0h1m1 0h2m2 0h1m2 0h1m1 0h1m2 0h4m1 0h1M4 23.5h2m1 0h2m3 0h2m3 0h2m4 0h1m4 0h3m1 0h1m1 0h1m1 0h4m2 0h1m3 0h3m4 0h3m2 0h3m2 0h1m1 0h2m1 0h1m4 0h2m2 0h2m1 0h1m3 0h1m3 0h1m1 0h1m3 0h1m2 0h1m4 0h1m1 0h4m1 0h2m2 0h1m1 0h1m2 0h1m2 0h3M6 24.5h5m2 0h1m1 0h1m4 0h1m2 0h1m1 0h1m1 0h2m1 0h1m1 0h2m1 0h2m1 0h6m1 0h1m1 0h1m1 0h1m4 0h2m2 0h2m1 0h3m1 0h1m1 0h3m3 0h2m2 0h1m3 0h1m1 0h1m1 0h1m1 0h2m1 0h1m1 0h1m2 0h1m1 0h4m1 0h3m1 0h1m1 0h3m2 0h1m1 0h3m3 0h1m2 0h1M4 25.5h1m1 0h1m5 0h2m1 0h1m1 0h1m1 0h2m2 0h1m1 0h2m1 0h4m1 0h1m1 0h1m2 0h1m1 0h2m2 0h2m2 0h1m1 0h3m1 0h5m1 0h1m3 0h1m3 0h2m1 0h4m1 0h2m2 0h1m5 0h1m2 0h1m3 0h2m2 0h6m1 0h9m3 0h1m1 0h2m2 0h1M4 26.5h3m2 0h2m1 0h2m1 0h1m2 0h2m1 0h4m2 0h3m1 0h1m1 0h1m5 0h1m2 0h1m1 0h1m3 0h1m1 0h2m3 0h1m2 0h1m2 0h1m1 0h1m1 0h5m4 0h2m1 0h5m3 0h1m1 0h1m2 0h2m3 0h1m2 0h2m1 0h1m4 0h1m1 0h5m1 0h2m2 0h1m2 0h4M5 27.5h5m2 0h1m1 0h2m1 0h1m1 0h1m1 0h1m1 0h1m3 0h2m1 0h1m2 0h2m4 0h1m2 0h1m1 0h6m1 0h2m2 0h6m3 0h1m1 0h1m1 0h1m1 0h3m2 0h1m1 0h2m3 0h1m1 0h1m1 0h1m2 0h4m4 0h2m1 0h2m1 0h1m1 0h3m3 0h1m1 0h3m2 0h1m4 0h2M5 28.5h3m2 0h1m1 0h1m1 0h2m3 0h1m6 0h1m4 0h2m3 0h1m1 0h1m5 0h1m1 0h1m1 0h2m6 0h1m2 0h1m1 0h1m1 0h2m1 0h4m1 0h1m1 0h1m6 0h2m5 0h1m3 0h1m1 0h3m1 0h1m1 0h1m1 0h1m2 0h1m2 0h1m1 0h1m3 0h2m1 0h1m2 0h1m2 0h1M6 29.5h1m9 0h1m3 0h2m1 0h1m1 0h1m1 0h1m3 0h1m1 0h1m1 0h5m1 0h2m1 0h4m3 0h1m2 0h3m1 0h1m1 0h1m2 0h7m2 0h1m2 0h1m2 0h3m1 0h4m1 0h3m4 0h1m1 0h1m5 0h1m2 0h2m1 0h2m1 0h1m1 0h2m1 0h1m7 0h1M4 30.5h1m2 0h1m2 0h3m1 0h5m1 0h2m1 0h1m4 0h2m1 0h2m1 0h1m1 0h1m4 0h3m5 0h1m4 0h1m1 0h4m2 0h9m2 0h1m2 0h2m1 0h1m2 0h1m2 0h2m9 0h1m2 0h2m1 0h1m1 0h3m1 0h2m1 0h1m2 0h3m1 0h1m1 0h1m1 0h1m1 0h1M5 31.5h1m1 0h1m1 0h1m1 0h2m1 0h3m2 0h1m2 0h1m2 0h3m2 0h1m1 0h2m1 0h1m3 0h3m2 0h2m1 0h1m2 0h2m1 0h2m2 0h1m3 0h1m6 0h4m2 0h2m5 0h3m1 0h2m3 0h1m2 0h5m3 0h1m4 0h1m3 0h1m1 0h1m5 0h2m1 0h1m2 0h1M4 32.5h1m1 0h1m1 0h6m1 0h1m7 0h3m1 0h1m3 0h7m5 0h1m3 0h1m1 0h1m3 0h3m2 0h1m1 0h5m1 0h2m2 0h2m3 0h1m1 0h1m1 0h1m3 0h2m1 0h7m6 0h1m8 0h4m4 0h6m2 0h1M5 33.5h1m2 0h1m3 0h2m5 0h2m1 0h1m3 0h1m1 0h2m1 0h2m3 0h1m2 0h1m1 0h2m2 0h2m4 0h3m6 0h1m3 0h4m2 0h5m1 0h2m3 0h1m2 0h5m3 0h3m2 0h2m2 0h1m1 0h3m1 0h1m3 0h1m1 0h4m3 0h5M4 34.5h1m2 0h2m1 0h1m1 0h3m1 0h2m1 0h1m3 0h3m1 0h1m1 0h4m1 0h1m1 0h2m1 0h2m2 0h1m2 0h1m1 0h5m1 0h3m1 0h3m1 0h1m1 0h2m2 0h1m1 0h1m4 0h3m3 0h2m5 0h1m1 0h1m1 0h2m1 0h1m1 0h1m1 0h2m2 0h2m1 0h1m3 0h1m2 0h2m1 0h1m1 0h1m1 0h1m3 0h1M4 35.5h1m1 0h1m1 0h1m3 0h1m2 0h3m1 0h3m1 0h1m1 0h1m3 0h1m2 0h1m3 0h4m1 0h1m1 0h3m1 0h2m1 0h2m2 0h1m1 0h2m1 0h2m3 0h2m3 0h4m1 0h2m1 0h1m2 0h1m1 0h3m1 0h3m3 0h1m1 0h1m1 0h1m1 0h1m1 0h2m4 0h1m2 0h1m3 0h2m1 0h1m3 0h1m1 0h3M4 36.5h1m3 0h8m5 0h2m2 0h4m1 0h7m1 0h1m3 0h9m2 0h1m1 0h10m1 0h2m2 0h1m1 0h2m3 0h1m3 0h3m2 0h10m2 0h1m4 0h3m1 0h1m1 0h1m1 0h3m1 0h6m1 0h1m1 0h1M4 37.5h1m3 0h2m1 0h6m4 0h1m1 0h2m1 0h1m2 0h1m2 0h3m1 0h3m1 0h2m3 0h4m2 0h2m3 0h2m1 0h1m1 0h1m1 0h2m1 0h1m2 0h2m5 0h1m1 0h2m1 0h2m3 0h1m1 0h2m2 0h1m1 0h1m2 0h1m1 0h1m1 0h1m3 0h2m1 0h1m1 0h3m1 0h2m1 0h4m1 0h1m1 0h1M5 38.5h1m1 0h2m1 0h2m2 0h3m3 0h1m1 0h2m1 0h1m3 0h1m1 0h4m3 0h1m1 0h1m4 0h2m1 0h2m8 0h5m1 0h8m1 0h1m1 0h2m2 0h1m1 0h2m3 0h3m1 0h2m2 0h2m1 0h2m1 0h3m3 0h1m1 0h2m1 0h1m1 0h1m1 0h1m1 0h5m1 0h1M4 39.5h3m4 0h1m1 0h1m3 0h3m1 0h1m2 0h1m1 0h3m1 0h4m2 0h1m1 0h2m2 0h4m7 0h1m1 0h1m1 0h1m5 0h3m7 0h3m1 0h2m1 0h1m1 0h2m2 0h2m1 0h3m1 0h2m6 0h1m1 0h1m1 0h1m1 0h3m2 0h3m2 0h1m2 0h4M5 40.5h1m4 0h1m4 0h1m1 0h1m1 0h1m1 0h1m3 0h5m1 0h2m1 0h4m1 0h2m2 0h1m1 0h1m2 0h4m2 0h1m4 0h2m2 0h1m3 0h1m1 0h1m2 0h1m1 0h1m1 0h1m1 0h4m5 0h1m2 0h1m1 0h1m1 0h1m3 0h2m1 0h1m5 0h1m1 0h2m2 0h1m2 0h1m2 0h6M7 41.5h2m2 0h1m3 0h3m1 0h1m2 0h1m3 0h1m2 0h1m4 0h1m2 0h2m1 0h2m1 0h3m1 0h1m1 0h1m1 0h3m1 0h1m7 0h2m3 0h1m2 0h2m3 0h1m1 0h1m1 0h2m1 0h2m2 0h2m1 0h1m1 0h5m1 0h2m3 0h1m2 0h3m1 0h1m1 0h2m2 0h3m1 0h2M7 42.5h2m1 0h2m1 0h2m1 0h2m1 0h1m1 0h1m1 0h4m1 0h1m1 0h1m3 0h4m1 0h2m5 0h1m1 0h1m1 0h1m1 0h1m2 0h1m3 0h8m1 0h2m1 0h1m2 0h5m1 0h2m1 0h2m2 0h1m1 0h1m4 0h2m2 0h2m1 0h3m1 0h1m4 0h3m3 0h2m3 0h2M4 43.5h1m1 0h1m1 0h2m3 0h1m3 0h1m3 0h3m1 0h1m1 0h8m3 0h1m2 0h3m2 0h2m1 0h1m1 0h3m2 0h3m1 0h2m1 0h5m2 0h2m5 0h3m1 0h2m1 0h4m1 0h2m1 0h7m1 0h1m2 0h6m2 0h2m2 0h1m1 0h2m1 0h1m1 0h1M4 44.5h1m5 0h2m5 0h2m1 0h3m1 0h1m1 0h4m1 0h1m2 0h2m4 0h1m1 0h1m2 0h2m2 0h2m4 0h5m3 0h2m2 0h9m1 0h1m2 0h1m1 0h1m1 0h2m1 0h3m2 0h1m2 0h1m3 0h1m1 0h2m1 0h3m2 0h2m1 0h4m2 0h1m1 0h1m1 0h1M9 45.5h1m2 0h2m1 0h5m2 0h1m1 0h1m1 0h3m1 0h2m4 0h1m4 0h3m2 0h3m1 0h3m1 0h1m1 0h3m2 0h2m2 0h5m1 0h1m1 0h4m1 0h2m1 0h1m2 0h1m2 0h1m1 0h1m2 0h6m5 0h1m1 0h3m2 0h1m3 0h1m1 0h1m2 0h2m2 0h2M5 46.5h7m1 0h1m3 0h3m2 0h2m1 0h2m1 0h6m5 0h1m1 0h5m1 0h5m1 0h1m3 0h3m1 0h2m1 0h1m1 0h2m2 0h4m1 0h1m3 0h3m1 0h1m1 0h1m2 0h4m1 0h2m4 0h2m2 0h2m1 0h1m2 0h2m1 0h4m1 0h7M4 47.5h1m2 0h1m1 0h1m1 0h1m5 0h5m2 0h3m2 0h1m1 0h3m1 0h3m2 0h5m2 0h5m1 0h2m1 0h1m6 0h1m3 0h1m2 0h1m1 0h3m2 0h1m1 0h3m2 0h2m3 0h1m3 0h2m1 0h3m1 0h2m2 0h4m1 0h1m1 0h2m2 0h2m1 0h3m1 0h1M4 48.5h1m1 0h1m1 0h10m1 0h2m4 0h1m1 0h1m1 0h2m1 0h3m1 0h2m1 0h1m1 0h1m2 0h2m2 0h1m1 0h1m1 0h1m1 0h1m2 0h2m4 0h1m1 0h2m2 0h3m1 0h5m1 0h1m1 0h2m2 0h1m1 0h2m1 0h2m2 0h1m1 0h3m2 0h1m1 0h4m4 0h2m1 0h5m3 0h1m1 0h1M4 49.5h2m2 0h2m2 0h2m1 0h2m1 0h1m4 0h3m4 0h1m1 0h1m1 0h3m1 0h1m3 0h1m2 0h3m3 0h1m1 0h2m1 0h1m2 0h1m2 0h1m2 0h1m3 0h1m2 0h1m5 0h1m3 0h1m2 0h5m2 0h1m1 0h1m1 0h3m1 0h1m2 0h2m1 0h1m1 0h1m1 0h2m2 0h1m1 0h2m2 0h1m3 0h1M4 50.5h2m1 0h4m1 0h2m2 0h2m1 0h1m1 0h2m4 0h1m2 0h4m1 0h1m2 0h1m1 0h2m1 0h3m2 0h1m5 0h1m3 0h2m1 0h3m1 0h1m1 0h3m1 0h1m1 0h4m1 0h2m2 0h1m4 0h2m2 0h1m1 0h1m2 0h2m2 0h1m1 0h3m1 0h1m2 0h3m3 0h1m4 0h1m3 0h1M4 51.5h2m2 0h2m2 0h1m1 0h1m3 0h1m1 0h1m2 0h7m2 0h1m1 0h1m2 0h2m2 0h2m1 0h4m1 0h2m2 0h1m1 0h3m2 0h1m1 0h1m2 0h1m1 0h1m3 0h1m2 0h1m3 0h1m1 0h1m1 0h3m3 0h1m3 0h2m1 0h1m4 0h3m1 0h5m3 0h1m1 0h1m1 0h5m1 0h1m1 0h1M5 52.5h1m2 0h1m1 0h1m2 0h1m1 0h2m2 0h1m2 0h2m2 0h4m1 0h4m2 0h3m3 0h1m2 0h2m2 0h6m1 0h5m5 0h1m2 0h2m4 0h1m2 0h2m1 0h1m2 0h2m1 0h1m1 0h1m1 0h5m1 0h3m2 0h1m6 0h1m1 0h1m1 0h2m2 0h1m1 0h2m1 0h1M5 53.5h3m1 0h1m2 0h2m2 0h4m1 0h3m5 0h1m2 0h1m1 0h2m4 0h1m1 0h1m1 0h1m1 0h1m1 0h1m2 0h3m1 0h4m2 0h1m3 0h1m4 0h2m1 0h1m3 0h2m2 0h3m1 0h1m1 0h7m1 0h1m1 0h1m1 0h4m1 0h4m1 0h3m2 0h3m1 0h2m2 0h2M4 54.5h2m1 0h1m2 0h1m3 0h1m4 0h5m1 0h1m4 0h2m1 0h10m2 0h2m2 0h2m2 0h1m1 0h2m1 0h3m4 0h1m3 0h2m1 0h1m2 0h6m1 0h1m1 0h2m1 0h5m3 0h1m1 0h2m2 0h1m1 0h1m1 0h2m1 0h2m1 0h2m2 0h1m4 0h1m1 0h1M4 55.5h2m1 0h2m5 0h3m1 0h3m2 0h2m1 0h1m1 0h2m3 0h3m1 0h4m1 0h3m2 0h3m2 0h1m1 0h2m1 0h2m1 0h2m1 0h1m4 0h1m1 0h1m1 0h1m2 0h1m2 0h1m1 0h1m1 0h2m1 0h1m1 0h2m1 0h1m1 0h2m3 0h1m4 0h1m1 0h1m1 0h1m1 0h1m3 0h4m3 0h1m1 0h1m2 0h1M4 56.5h1m1 0h3m1 0h2m1 0h1m2 0h1m1 0h4m2 0h4m1 0h2m1 0h1m1 0h1m1 0h1m3 0h3m2 0h1m2 0h2m1 0h2m2 0h1m1 0h1m2 0h1m3 0h7m1 0h1m1 0h1m1 0h2m1 0h5m1 0h1m1 0h3m3 0h7m1 0h1m1 0h1m2 0h1m1 0h1m2 0h2m2 0h1m1 0h4m1 0h3M5 57.5h1m1 0h1m3 0h1m3 0h3m1 0h2m1 0h1m1 0h7m1 0h1m2 0h2m1 0h1m2 0h2m2 0h1m7 0h1m2 0h1m1 0h1m5 0h4m2 0h2m1 0h4m1 0h5m1 0h1m1 0h1m1 0h1m2 0h1m1 0h1m6 0h4m1 0h2m3 0h1m4 0h3m6 0h1M7 58.5h5m2 0h1m1 0h2m3 0h1m1 0h1m4 0h2m3 0h1m1 0h2m1 0h1m2 0h1m3 0h1m1 0h2m2 0h2m6 0h1m3 0h2m2 0h2m2 0h1m1 0h1m2 0h1m4 0h2m2 0h3m10 0h1m1 0h2m7 0h1m3 0h3m2 0h2m1 0h1m2 0h1M4 59.5h6m1 0h3m3 0h2m1 0h2m6 0h1m1 0h3m2 0h1m3 0h1m1 0h8m1 0h4m2 0h1m2 0h1m3 0h3m3 0h2m2 0h2m4 0h1m3 0h6m1 0h1m1 0h6m1 0h3m3 0h3m3 0h1m3 0h1m1 0h1m3 0h1m1 0h2M6 60.5h1m1 0h8m2 0h1m6 0h4m1 0h9m1 0h1m1 0h7m1 0h5m2 0h2m1 0h5m2 0h5m4 0h1m3 0h2m6 0h5m3 0h1m3 0h4m5 0h1m1 0h1m2 0h8M5 61.5h1m1 0h2m3 0h2m2 0h6m1 0h4m1 0h5m3 0h3m3 0h1m1 0h4m1 0h1m1 0h1m2 0h1m1 0h2m1 0h2m3 0h4m2 0h1m2 0h1m1 0h3m2 0h1m2 0h3m2 0h1m3 0h5m1 0h1m3 0h1m2 0h3m4 0h3m1 0h1m3 0h1m2 0h1M8 62.5h1m1 0h1m1 0h5m1 0h1m1 0h1m1 0h7m2 0h2m1 0h1m1 0h1m1 0h1m3 0h2m5 0h2m1 0h4m1 0h4m1 0h1m1 0h1m1 0h2m1 0h1m1 0h3m2 0h1m2 0h2m2 0h1m3 0h2m1 0h1m1 0h2m1 0h1m1 0h3m1 0h6m1 0h3m4 0h2m1 0h1m1 0h1m2 0h1M8 63.5h1m3 0h1m1 0h2m1 0h2m1 0h5m1 0h1m3 0h1m1 0h1m3 0h2m2 0h4m2 0h1m1 0h3m5 0h1m1 0h1m1 0h1m3 0h1m2 0h2m1 0h1m1 0h1m2 0h3m6 0h1m2 0h2m3 0h4m2 0h1m1 0h1m2 0h1m4 0h3m2 0h2m1 0h1m3 0h1m1 0h1M4 64.5h1m2 0h8m5 0h2m1 0h1m1 0h1m2 0h1m1 0h1m1 0h5m3 0h2m2 0h3m1 0h5m5 0h1m1 0h5m2 0h1m2 0h1m1 0h2m2 0h2m2 0h4m1 0h2m1 0h6m1 0h1m3 0h1m4 0h1m1 0h1m2 0h2m1 0h2m2 0h7M5 65.5h1m3 0h1m2 0h3m1 0h1m2 0h3m1 0h1m1 0h2m1 0h1m1 0h1m7 0h4m3 0h1m4 0h1m4 0h1m1 0h1m1 0h2m4 0h1m2 0h1m3 0h1m1 0h2m4 0h2m1 0h1m1 0h1m2 0h4m1 0h2m1 0h2m3 0h1m3 0h2m2 0h4m2 0h1m3 0h1m2 0h2M8 66.5h1m1 0h7m1 0h3m1 0h6m3 0h6m7 0h1m3 0h1m1 0h1m3 0h2m2 0h1m1 0h1m2 0h1m1 0h2m2 0h3m2 0h4m1 0h3m1 0h1m1 0h2m2 0h1m1 0h1m3 0h1m10 0h3m1 0h2m1 0h1m2 0h1m6 0h2M4 67.5h2m2 0h2m2 0h1m3 0h1m4 0h1m2 0h1m3 0h2m2 0h1m1 0h2m2 0h3m3 0h4m2 0h3m1 0h1m2 0h1m2 0h1m2 0h7m2 0h1m2 0h2m1 0h1m6 0h3m2 0h1m2 0h4m1 0h1m1 0h5m1 0h2m4 0h1m2 0h1m4 0h1m1 0h2M7 68.5h1m1 0h3m1 0h1m1 0h3m1 0h3m2 0h1m2 0h1m1 0h1m3 0h2m1 0h2m1 0h2m1 0h1m2 0h3m1 0h1m1 0h2m4 0h4m3 0h1m1 0h1m3 0h1m1 0h4m3 0h1m1 0h1m3 0h1m2 0h2m5 0h1m2 0h2m3 0h3m3 0h2m1 0h1m8 0h4M5 69.5h1m1 0h2m3 0h2m2 0h1m2 0h1m1 0h2m1 0h5m1 0h4m2 0h1m1 0h1m1 0h2m2 0h2m2 0h5m2 0h6m2 0h1m1 0h1m2 0h5m1 0h1m2 0h1m1 0h2m1 0h5m2 0h4m1 0h5m1 0h2m1 0h2m1 0h6m2 0h2m2 0h1M5 70.5h1m1 0h2m1 0h4m2 0h1m2 0h1m1 0h3m1 0h3m1 0h1m1 0h2m1 0h2m2 0h2m3 0h1m5 0h1m1 0h4m1 0h3m2 0h1m4 0h1m1 0h2m1 0h2m2 0h1m2 0h4m1 0h3m1 0h1m1 0h2m2 0h2m1 0h1m2 0h1m1 0h1m1 0h5m1 0h3m1 0h1m3 0h2m1 0h1m3 0h1M7 71.5h3m2 0h1m1 0h1m4 0h2m1 0h2m1 0h2m3 0h1m4 0h4m1 0h3m5 0h1m1 0h3m1 0h1m3 0h1m2 0h3m1 0h4m1 0h1m2 0h1m1 0h1m1 0h1m1 0h2m6 0h2m1 0h2m1 0h3m2 0h2m4 0h1m1 0h1m2 0h1m1 0h5m1 0h1m2 0h2m2 0h1M4 72.5h3m3 0h1m1 0h3m3 0h1m3 0h2m1 0h1m1 0h3m1 0h3m1 0h1m1 0h2m3 0h2m2 0h2m1 0h1m2 0h1m2 0h2m2 0h1m2 0h1m1 0h1m3 0h1m2 0h3m1 0h5m5 0h2m2 0h1m4 0h2m3 0h3m1 0h1m2 0h4m3 0h2m4 0h2m1 0h1m1 0h1M4 73.5h1m1 0h1m1 0h1m2 0h2m3 0h1m2 0h3m2 0h1m1 0h2m1 0h3m1 0h3m1 0h4m3 0h4m1 0h5m2 0h2m3 0h1m2 0h1m2 0h2m1 0h1m3 0h1m4 0h2m1 0h1m1 0h1m1 0h1m1 0h1m2 0h1m1 0h5m4 0h1m1 0h3m3 0h2m1 0h1m3 0h1m2 0h1M5 74.5h2m3 0h2m2 0h1m1 0h1m1 0h3m1 0h3m1 0h1m2 0h3m1 0h1m1 0h3m2 0h2m1 0h4m3 0h2m1 0h2m1 0h1m4 0h1m2 0h3m1 0h4m1 0h2m1 0h2m5 0h1m2 0h4m2 0h1m2 0h3m2 0h1m1 0h1m2 0h2m2 0h1m3 0h1m1 0h1m2 0h1m4 0h2M4 75.5h3m1 0h1m4 0h5m2 0h1m4 0h2m2 0h1m6 0h2m3 0h1m1 0h2m1 0h1m1 0h3m2 0h2m1 0h2m1 0h4m1 0h1m3 0h1m1 0h1m2 0h1m1 0h1m2 0h5m2 0h1m1 0h1m5 0h4m1 0h2m1 0h1m2 0h1m1 0h4m3 0h1m1 0h1m5 0h2M4 76.5h1m3 0h1m1 0h2m1 0h2m1 0h6m1 0h1m1 0h2m1 0h1m5 0h1m5 0h1m1 0h1m1 0h4m2 0h14m3 0h1m2 0h1m5 0h1m1 0h1m3 0h2m1 0h2m2 0h2m7 0h1m4 0h1m1 0h1m2 0h1m5 0h1m3 0h3m3 0h1M7 77.5h3m1 0h3m4 0h2m5 0h1m1 0h8m1 0h2m3 0h1m1 0h1m1 0h1m9 0h3m2 0h1m1 0h1m1 0h2m1 0h2m1 0h3m2 0h1m2 0h1m2 0h2m2 0h3m1 0h1m1 0h1m5 0h1m1 0h1m2 0h1m2 0h1m1 0h2m2 0h3m1 0h1m1 0h3m1 0h4M6 78.5h2m2 0h2m1 0h1m1 0h1m2 0h2m2 0h1m2 0h2m1 0h5m1 0h1m1 0h1m1 0h1m4 0h3m2 0h2m2 0h1m2 0h2m1 0h1m1 0h1m1 0h1m1 0h1m2 0h2m2 0h1m2 0h1m1 0h2m8 0h4m1 0h1m2 0h2m1 0h2m2 0h1m4 0h2m1 0h3m3 0h1m4 0h2m2 0h1M4 79.5h1m3 0h1m2 0h2m1 0h1m1 0h1m1 0h7m5 0h1m1 0h1m1 0h1m2 0h1m4 0h1m1 0h5m1 0h1m4 0h1m2 0h1m1 0h1m1 0h4m1 0h4m2 0h3m1 0h1m1 0h3m1 0h3m5 0h1m1 0h2m2 0h1m4 0h1m1 0h2m1 0h1m1 0h2m1 0h2m2 0h1m1 0h1m1 0h1m1 0h1m1 0h1M7 80.5h1m2 0h3m3 0h3m1 0h1m2 0h1m7 0h4m2 0h6m1 0h1m2 0h1m2 0h2m3 0h3m2 0h1m1 0h4m1 0h2m2 0h2m2 0h4m2 0h1m1 0h2m1 0h1m7 0h1m1 0h6m1 0h2m3 0h2m1 0h2m2 0h5m4 0h1M5 81.5h2m11 0h1m1 0h3m1 0h2m1 0h2m1 0h1m2 0h2m3 0h1m1 0h2m2 0h4m3 0h3m1 0h3m3 0h1m1 0h2m4 0h2m2 0h3m2 0h1m2 0h1m1 0h1m1 0h2m2 0h1m2 0h1m1 0h1m3 0h1m2 0h1m3 0h2m1 0h1m2 0h1m1 0h4m1 0h1m3 0h1m1 0h1M4 82.5h3m1 0h1m1 0h2m1 0h2m2 0h1m1 0h4m6 0h4m1 0h2m1 0h1m1 0h1m4 0h1m2 0h2m5 0h4m1 0h6m5 0h1m2 0h1m1 0h1m1 0h1m1 0h3m1 0h1m2 0h2m2 0h1m1 0h4m2 0h1m1 0h1m2 0h2m1 0h1m2 0h1m1 0h2m1 0h3m2 0h1m1 0h4M4 83.5h1m4 0h1m6 0h2m2 0h1m2 0h2m3 0h2m2 0h2m3 0h2m1 0h1m1 0h2m2 0h4m1 0h2m3 0h1m3 0h1m1 0h1m1 0h3m4 0h1m1 0h2m5 0h1m3 0h2m4 0h1m2 0h2m1 0h3m5 0h1m1 0h1m1 0h1m2 0h1m1 0h2m1 0h2m2 0h1m1 0h2M6 84.5h6m4 0h3m1 0h1m1 0h1m2 0h1m2 0h2m5 0h2m1 0h5m3 0h3m1 0h3m1 0h1m4 0h2m2 0h1m3 0h2m3 0h1m3 0h2m2 0h1m2 0h1m2 0h4m1 0h3m1 0h4m1 0h2m1 0h2m1 0h1m3 0h2m1 0h1m2 0h1m1 0h4m2 0h1M7 85.5h1m3 0h7m1 0h2m2 0h1m1 0h1m2 0h1m4 0h2m3 0h1m3 0h1m1 0h1m1 0h2m1 0h1m7 0h3m2 0h1m1 0h1m1 0h3m4 0h2m3 0h6m2 0h1m1 0h2m1 0h2m2 0h1m1 0h4m2 0h1m1 0h2m3 0h2m1 0h1m1 0h1m1 0h1m2 0h3M5 86.5h3m2 0h1m1 0h3m1 0h4m1 0h2m2 0h1m1 0h2m1 0h3m3 0h1m1 0h2m1 0h1m2 0h1m1 0h2m1 0h1m1 0h1m3 0h1m1 0h2m2 0h1m1 0h1m3 0h1m1 0h1m3 0h3m1 0h1m8 0h2m1 0h2m1 0h1m1 0h11m3 0h2m1 0h2m1 0h1m2 0h3m1 0h1m2 0h1M4 87.5h1m1 0h4m3 0h2m1 0h1m1 0h1m4 0h2m8 0h2m1 0h1m1 0h1m1 0h1m1 0h1m8 0h4m4 0h1m2 0h1m2 0h1m4 0h1m1 0h2m1 0h1m3 0h3m1 0h2m3 0h1m1 0h1m1 0h4m1 0h1m4 0h4m1 0h1m2 0h1m4 0h3m2 0h1m2 0h1M5 88.5h2m1 0h5m1 0h3m1 0h1m1 0h2m1 0h3m2 0h9m5 0h2m1 0h4m3 0h2m1 0h4m1 0h6m1 0h1m5 0h1m6 0h1m2 0h1m4 0h7m1 0h2m2 0h2m5 0h1m1 0h1m2 0h1m3 0h5m1 0h3M5 89.5h4m3 0h1m3 0h3m3 0h3m3 0h1m3 0h1m3 0h5m2 0h1m1 0h2m1 0h1m1 0h3m2 0h1m1 0h1m2 0h1m3 0h2m3 0h2m3 0h2m1 0h1m2 0h2m1 0h1m3 0h2m3 0h7m2 0h1m1 0h5m4 0h3m1 0h1m3 0h2M7 90.5h2m1 0h1m1 0h1m2 0h1m3 0h2m2 0h1m6 0h3m1 0h1m1 0h1m2 0h3m2 0h2m2 0h2m1 0h5m4 0h1m1 0h1m1 0h3m2 0h2m2 0h2m1 0h1m2 0h1m4 0h3m1 0h1m1 0h1m1 0h1m2 0h2m6 0h3m5 0h1m1 0h1m1 0h2m1 0h1m1 0h5M5 91.5h1m2 0h1m3 0h1m4 0h3m2 0h3m1 0h7m3 0h2m1 0h1m1 0h2m1 0h1m2 0h1m2 0h1m1 0h7m1 0h1m3 0h4m2 0h3m2 0h2m3 0h3m1 0h2m1 0h2m3 0h1m7 0h5m1 0h2m1 0h4m1 0h3m3 0h1m2 0h1M4 92.5h1m1 0h10m1 0h1m3 0h2m1 0h4m3 0h7m1 0h1m3 0h5m3 0h2m2 0h3m1 0h7m1 0h11m1 0h1m1 0h1m1 0h2m1 0h7m1 0h1m1 0h1m1 0h2m1 0h1m2 0h1m6 0h3m1 0h8M7 93.5h1m7 0h1m1 0h1m2 0h3m1 0h3m1 0h6m1 0h2m1 0h2m1 0h3m3 0h3m3 0h1m1 0h2m2 0h2m3 0h2m1 0h2m2 0h1m1 0h4m1 0h1m1 0h4m1 0h1m1 0h2m2 0h4m2 0h1m3 0h1m1 0h2m2 0h2m2 0h1m1 0h3m1 0h4m1 0h2M4 94.5h1m1 0h3m1 0h1m2 0h1m1 0h2m1 0h2m1 0h1m3 0h2m2 0h1m6 0h2m2 0h1m1 0h1m2 0h1m5 0h3m1 0h5m2 0h2m1 0h4m4 0h2m1 0h1m8 0h1m2 0h3m8 0h3m2 0h1m4 0h1m4 0h2m1 0h2m2 0h1m2 0h1M4 95.5h2m2 0h2m2 0h4m5 0h1m1 0h1m1 0h3m1 0h1m1 0h1m5 0h4m3 0h1m1 0h1m1 0h2m2 0h1m2 0h1m3 0h3m3 0h1m2 0h2m3 0h3m1 0h6m1 0h1m6 0h1m1 0h1m1 0h3m2 0h1m5 0h1m8 0h4m4 0h1M5 96.5h3m2 0h1m3 0h5m3 0h2m1 0h2m2 0h2m3 0h2m6 0h1m5 0h1m2 0h5m1 0h2m2 0h2m2 0h3m1 0h1m1 0h1m2 0h1m4 0h1m1 0h2m4 0h3m5 0h3m1 0h3m4 0h1m1 0h4m2 0h1m1 0h3m2 0h1m2 0h1M8 97.5h1m2 0h3m3 0h1m1 0h1m1 0h4m3 0h1m1 0h3m1 0h1m1 0h1m2 0h1m2 0h1m1 0h3m1 0h3m1 0h2m2 0h2m6 0h1m2 0h3m3 0h3m1 0h2m3 0h1m6 0h1m2 0h3m1 0h1m3 0h2m1 0h3m4 0h1m3 0h1m2 0h3m1 0h2m1 0h1M5 98.5h2m1 0h5m1 0h2m1 0h1m3 0h3m2 0h4m5 0h1m2 0h1m1 0h2m2 0h1m3 0h3m1 0h1m4 0h1m1 0h1m2 0h2m1 0h1m1 0h1m1 0h1m1 0h2m1 0h2m2 0h1m4 0h1m1 0h3m1 0h1m1 0h1m5 0h1m2 0h1m1 0h2m2 0h2m1 0h3m2 0h1m1 0h3m1 0h1m1 0h3M4 99.5h3m4 0h1m1 0h1m1 0h7m5 0h3m1 0h1m1 0h1m3 0h1m1 0h2m1 0h2m6 0h2m4 0h4m3 0h2m3 0h1m1 0h2m1 0h1m2 0h2m1 0h1m2 0h1m2 0h1m3 0h2m8 0h5m2 0h2m1 0h2m1 0h1m1 0h1m1 0h1m1 0h1m1 0h2m1 0h2M4 100.5h1m1 0h3m1 0h1m2 0h1m1 0h2m2 0h1m2 0h2m1 0h5m2 0h4m6 0h2m4 0h1m1 0h1m2 0h2m2 0h2m2 0h2m1 0h2m2 0h1m4 0h2m5 0h2m3 0h1m4 0h3m4 0h2m4 0h5m1 0h1m3 0h1m1 0h1m4 0h2m1 0h2M5 101.5h3m1 0h1m1 0h1m2 0h2m2 0h1m2 0h3m4 0h2m7 0h2m4 0h1m2 0h1m1 0h4m1 0h1m2 0h1m1 0h2m1 0h1m1 0h1m1 0h1m1 0h7m4 0h1m1 0h4m1 0h1m1 0h1m1 0h1m5 0h1m3 0h1m1 0h1m3 0h1m1 0h1m1 0h2m1 0h1m2 0h1m1 0h3m1 0h2m1 0h1M6 102.5h1m1 0h4m1 0h2m1 0h1m2 0h1m2 0h2m1 0h1m2 0h2m1 0h1m3 0h1m3 0h1m1 0h1m3 0h2m1 0h3m6 0h1m1 0h2m1 0h1m1 0h2m1 0h1m2 0h1m1 0h1m8 0h1m2 0h1m1 0h1m1 0h1m1 0h1m1 0h1m3 0h2m2 0h6m1 0h1m2 0h2m3 0h1m5 0h4M4 103.5h2m1 0h1m1 0h1m3 0h2m5 0h3m3 0h1m1 0h1m2 0h2m1 0h3m1 0h2m1 0h1m3 0h2m2 0h1m2 0h1m1 0h1m1 0h4m1 0h4m1 0h1m3 0h1m6 0h1m1 0h1m1 0h1m1 0h1m1 0h1m5 0h1m3 0h2m1 0h2m3 0h2m1 0h2m2 0h1m1 0h1m2 0h7m1 0h2M4 104.5h7m1 0h3m1 0h2m2 0h2m2 0h1m3 0h2m1 0h1m2 0h4m1 0h1m1 0h4m1 0h2m3 0h2m1 0h3m2 0h1m4 0h3m1 0h1m1 0h1m3 0h5m2 0h2m3 0h2m5 0h1m4 0h7m3 0h1m1 0h4m1 0h1m8 0h1M5 105.5h3m1 0h1m4 0h1m5 0h1m1 0h4m2 0h3m2 0h1m3 0h1m2 0h2m5 0h2m3 0h1m3 0h1m1 0h2m1 0h1m1 0h1m3 0h1m1 0h2m1 0h6m1 0h1m2 0h2m1 0h1m3 0h1m1 0h7m2 0h1m2 0h1m2 0h1m1 0h1m1 0h3m1 0h1m4 0h2m1 0h1M10 106.5h1m4 0h1m7 0h1m1 0h4m5 0h2m2 0h5m1 0h1m2 0h1m2 0h1m2 0h1m1 0h3m4 0h1m1 0h3m4 0h1m8 0h3m1 0h3m1 0h1m2 0h2m1 0h1m1 0h1m1 0h1m1 0h2m1 0h4m2 0h3m1 0h2m2 0h1m1 0h3m1 0h2M4 107.5h1m2 0h3m1 0h4m1 0h2m1 0h1m1 0h1m1 0h5m3 0h2m1 0h2m2 0h2m3 0h5m1 0h1m5 0h3m2 0h2m1 0h1m6 0h1m7 0h4m2 0h3m1 0h1m1 0h3m3 0h1m3 0h6m1 0h2m3 0h3m2 0h2m1 0h1m3 0h1M4 108.5h1m1 0h1m1 0h1m1 0h2m1 0h1m5 0h2m6 0h2m1 0h2m4 0h4m1 0h1m4 0h3m1 0h2m10 0h3m2 0h5m2 0h3m1 0h9m2 0h4m1 0h2m1 0h2m2 0h1m3 0h1m1 0h1m1 0h3m1 0h2m1 0h3m1 0h1m3 0h1M4 109.5h1m1 0h1m2 0h1m2 0h4m1 0h1m2 0h3m1 0h2m5 0h2m2 0h3m1 0h7m1 0h4m2 0h1m2 0h1m1 0h3m1 0h1m1 0h1m5 0h1m1 0h1m1 0h3m1 0h4m1 0h3m1 0h5m1 0h1m1 0h4m2 0h2m1 0h3m1 0h1m2 0h1m3 0h1m1 0h1m1 0h1M5 110.5h1m3 0h2m4 0h2m1 0h1m2 0h3m1 0h2m1 0h6m2 0h4m3 0h1m1 0h3m1 0h2m2 0h4m4 0h1m1 0h1m1 0h1m1 0h2m4 0h5m4 0h1m2 0h2m1 0h1m1 0h1m1 0h1m1 0h2m1 0h2m1 0h4m2 0h7m2 0h2m1 0h2m3 0h2M5 111.5h1m1 0h1m1 0h1m1 0h1m1 0h1m4 0h4m1 0h2m4 0h3m2 0h2m1 0h1m3 0h1m2 0h3m2 0h4m5 0h1m1 0h1m2 0h2m2 0h1m1 0h2m1 0h3m1 0h3m1 0h2m1 0h1m2 0h2m1 0h1m1 0h2m3 0h2m3 0h1m1 0h1m1 0h1m2 0h1m1 0h1m1 0h2m1 0h2m2 0h1m1 0h1M4 112.5h1m1 0h6m3 0h1m2 0h1m1 0h8m3 0h2m1 0h1m1 0h1m1 0h3m2 0h6m1 0h1m1 0h2m1 0h2m1 0h4m1 0h2m1 0h2m1 0h6m1 0h1m5 0h1m1 0h3m1 0h3m1 0h3m1 0h5m2 0h1m2 0h2m1 0h1m1 0h3m1 0h2m1 0h1m3 0h1M4 113.5h1m1 0h1m1 0h1m2 0h4m2 0h1m2 0h1m2 0h2m1 0h1m2 0h2m6 0h1m6 0h3m2 0h1m2 0h7m1 0h1m2 0h1m1 0h2m5 0h1m1 0h3m2 0h1m1 0h2m2 0h1m1 0h1m6 0h1m1 0h1m1 0h4m1 0h3m2 0h3m1 0h1m1 0h2m4 0h2M4 114.5h2m1 0h1m1 0h2m2 0h1m2 0h1m1 0h1m1 0h1m2 0h1m4 0h4m1 0h1m1 0h1m1 0h1m2 0h1m4 0h3m1 0h1m2 0h2m1 0h2m1 0h1m1 0h3m2 0h2m3 0h2m1 0h1m1 0h1m3 0h3m1 0h3m1 0h1m1 0h2m3 0h1m2 0h1m1 0h1m1 0h2m1 0h1m2 0h4m1 0h1m3 0h3m3 0h1M4 115.5h1m1 0h4m1 0h1m2 0h2m3 0h4m4 0h2m1 0h3m2 0h2m1 0h1m3 0h1m1 0h1m6 0h1m1 0h1m3 0h2m1 0h1m2 0h2m2 0h1m1 0h1m3 0h1m2 0h3m2 0h3m5 0h1m1 0h1m1 0h1m1 0h1m1 0h1m2 0h2m2 0h1m1 0h3m2 0h5m1 0h2m5 0h1M5 116.5h3m2 0h3m1 0h2m1 0h7m2 0h2m1 0h1m2 0h5m1 0h2m1 0h2m7 0h2m2 0h1m2 0h1m1 0h6m4 0h2m2 0h4m1 0h1m3 0h1m1 0h11m5 0h2m1 0h3m5 0h2m1 0h1m1 0h5m1 0h1m1 0h1M12 117.5h2m1 0h2m2 0h2m1 0h2m1 0h1m2 0h1m1 0h1m1 0h1m3 0h2m1 0h1m2 0h1m1 0h2m2 0h2m10 0h1m3 0h2m1 0h1m2 0h1m2 0h1m3 0h8m3 0h1m3 0h2m1 0h1m3 0h1m3 0h2m2 0h1m1 0h1m2 0h1m1 0h1m1 0h1m3 0h2m1 0h1M4 118.5h7m2 0h6m1 0h4m3 0h2m3 0h1m1 0h1m1 0h5m1 0h1m1 0h4m2 0h2m1 0h1m1 0h1m1 0h1m2 0h1m1 0h1m1 0h1m2 0h2m2 0h1m2 0h3m1 0h2m2 0h2m1 0h2m1 0h1m1 0h1m1 0h3m4 0h2m4 0h1m6 0h1m1 0h3m1 0h1m1 0h1m2 0h1M4 119.5h1m5 0h1m1 0h1m1 0h2m1 0h5m2 0h2m2 0h3m1 0h1m3 0h1m4 0h2m2 0h2m2 0h1m5 0h2m1 0h3m3 0h3m2 0h1m2 0h3m2 0h6m1 0h1m2 0h2m3 0h2m1 0h1m1 0h1m1 0h1m1 0h1m4 0h2m3 0h2m2 0h2m3 0h5M4 120.5h1m1 0h3m1 0h1m1 0h1m2 0h2m2 0h2m2 0h3m1 0h1m2 0h7m2 0h1m2 0h1m2 0h1m1 0h1m2 0h3m1 0h1m1 0h1m3 0h6m5 0h1m1 0h2m3 0h4m1 0h10m2 0h4m1 0h6m1 0h4m4 0h8M4 121.5h1m1 0h3m1 0h1m1 0h3m1 0h1m2 0h1m2 0h5m1 0h5m1 0h3m4 0h1m4 0h3m1 0h3m1 0h8m4 0h1m5 0h2m1 0h4m5 0h2m2 0h1m3 0h3m1 0h2m3 0h2m6 0h1m2 0h2m1 0h1m1 0h3m1 0h2m1 0h1M4 122.5h1m1 0h3m1 0h1m1 0h1m1 0h1m1 0h2m4 0h1m1 0h1m2 0h1m1 0h2m3 0h3m1 0h1m3 0h4m1 0h1m4 0h1m1 0h1m1 0h3m1 0h2m1 0h3m1 0h4m2 0h2m1 0h1m1 0h1m2 0h3m1 0h1m2 0h1m2 0h3m2 0h6m6 0h3m3 0h1m2 0h2m5 0h1M4 123.5h1m5 0h1m3 0h2m1 0h1m1 0h1m6 0h3m2 0h5m2 0h2m2 0h1m2 0h1m1 0h4m1 0h1m1 0h3m1 0h1m1 0h2m2 0h1m2 0h1m2 0h1m1 0h3m4 0h2m1 0h1m1 0h2m1 0h1m4 0h5m1 0h1m3 0h1m3 0h1m1 0h3m1 0h1m4 0h3m2 0h1m1 0h1M4 124.5h7m1 0h2m2 0h8m1 0h1m6 0h1m1 0h2m2 0h2m3 0h1m3 0h2m4 0h2m2 0h1m1 0h5m3 0h1m1 0h1m1 0h1m1 0h1m1 0h1m3 0h1m1 0h1m2 0h2m3 0h2m3 0h1m2 0h4m1 0h2m4 0h1m1 0h2m2 0h1m3 0h4m1 0h2"/></svg>
