<svg xmlns="http://www.w3.org/2000/svg" viewBox="0 0 113 113" shape-rendering="crispEdges"><path fill="#ffffff" d="M0 0h113v113H0z"/><path stroke="#000000" d="M4 4.5h7m1 0h1m1 0h1m1 0h1m1 0h1m1 0h2m3 0h1m5 0h2m1 0h1m1 0h2m3 0h1m2 0h1m1 0h1m1 0h1m1 0h5m4 0h2m1 0h3m1 0h2m3 0h3m4 0h2m2 0h5m1 0h1m4 0h3m2 0h1m3 0h7M4 5.5h1m5 0h1m4 0h1m4 0h1m4 0h2m1 0h1m1 0h1m4 0h5m4 0h1m2 0h1m3 0h1m1 0h1m1 0h1m4 0h1m1 0h3m2 0h2m1 0h1m2 0h2m2 0h1m1 0h1m1 0h1m1 0h1m14 0h1m3 0h1m5 0h1M4 6.5h1m1 0h3m1 0h1m4 0h1m2 0h1m1 0h1m2 0h4m1 0h3m1 0h1m3 0h1m1 0h1m1 0h2m2 0h1m1 0h2m2 0h1m3 0h1m1 0h1m1 0h2m2 0h1m1 0h2m1 0h2m1 0h5m4 0h4m3 0h1m3 0h2m3 0h1m1 0h3m2 0h1m1 0h3m1 0h1M4 7.5h1m1 0h3m1 0h1m3 0h1m1 0h1m1 0h1m1 0h2m1 0h2m1 0h4m2 0h3m3 0h1m2 0h3m4 0h1m2 0h3m1 0h2m1 0h6m4 0h1m4 0h1m3 0h1m1 0h1m1 0h2m3 0h2m2 0h2m3 0h2m3 0h1m1 0h1m1 0h3m1 0h1M4 8.5h1m1 0h3m1 0h1m2 0h5m7 0h1m2 0h8m1 0h1m1 0h1m2 0h1m1 0h4m3 0h6m3 0h4m2 0h1m5 0h1m2 0h7m2 0h2m3 0h2m3 0h1m4 0h2m1 0h1m1 0h3m1 0h1M4 9.5h1m5 0h1m3 0h2m2 0h1m3 0h2m3 0h2m3 0h4m2 0h1m1 0h1m1 0h1m3 0h1m1 0h5m3 0h2m2 0h2m6 0h4m1 0h2m1 0h1m3 0h3m1 0h1m4 0h2m2 0h2m4 0h1m2 0h1m5 0h1M4 10.5h7m1 0h1m1 0h1m1 0h1m1 0h1m1 0h1m1 0h1m1 0h1m1 0h1m1 0h1m1 0h1m1 0h1m1 0h1m1 0h1m1 0h1m1 0h1m1 0h1m1 0h1m1 0h1m1 0h1m1 0h1m1 0h1m1 0h1m1 0h1m1 0h1m1 0h1m1 0h1m1 0h1m1 0h1m1 0h1m1 0h1m1 0h1m1 0h1m1 0h1m1 0h1m1 0h1m1 0h1m1 0h1m1 0h1m1 0h1m1 0h1m1 0h1m1 0h1m1 0h1m1 0h1m1 0h1m1 0h7M12 11.5h1m2 0h1m3 0h3m1 0h3m2 0h1m3 0h3m4 0h1m1 0h1m2 0h2m1 0h2m1 0h3m3 0h1m3 0h2m2 0h4m1 0h1m3 0h2m1 0h1m3 0h1m1 0h1m3 0h2m1 0h4m1 0h2m2 0h1M4 12.5h2m1 0h2m1 0h1m2 0h2m5 0h3m2 0h1m2 0h5m4 0h4m2 0h1m2 0h4m1 0h11m1 0h4m1 0h2m2 0h2m1 0h6m4 0h6m3 0h2m2 0h2m2 0h1m5 0h1M4 13.5h1m2 0h2m3 0h1m2 0h1m1 0h3m2 0h1m1 0h7m4 0h1m2 0h1m3 0h1m2 0h6m3 0h2m3 0h4m1 0h1m1 0h1m1 0h1m5 0h3m9 0h1m3 0h1m1 0h4m1 0h1m1 0h1m1 0h1m1 0h3m2 0h1M5 14.5h3m2 0h2m1 0h1m1 0h2m2 0h1m1 0h2m1 0h3m2 0h2m3 0h1m2 0h6m2 0h2m2 0h1m5 0h1m2 0h1m1 0h3m1 0h1m1 0h2m3 0h2m6 0h1m2 0h7m1 0h2m2 0h1m1 0h2m1 0h2m1 0h3m1 0h2M6 15.5h4m1 0h3m1 0h2m6 0h7m2 0h1m1 0h4m3 0h2m1 0h1m1 0h1m2 0h7m1 0h1m1 0h1m1 0h4m1 0h5m2 0h4m3 0h3m2 0h8m1 0h3m1 0h1m2 0h1m1 0h2m1 0h1M4 16.5h1m1 0h1m2 0h2m1 0h2m1 0h3m7 0h2m1 0h3m1 0h1m1 0h2m3 0h1m2 0h3m2 0h3m3 0h1m1 0h1m1 0h1m2 0h1m3 0h1m1 0h1m1 0h2m1 0h2m3 0h2m1 0h2m1 0h3m1 0h6m1 0h7m1 0h1m1 0h5M5 17.5h3m5 0h2m1 0h1m5 0h2m3 0h2m1 0h1m4 0h5m1 0h1m1 0h3m1 0h1m1 0h1m1 0h3m1 0h2m3 0h1m1 0h1m1 0h1m1 0h2m1 0h2m1 0h1m2 0h1m1 0h2m2 0h2m1 0h3m1 0h1m1 0h1m1 0h2m2 0h1m4 0h3m1 0h1m1 0h1M7 18.5h5m1 0h2m2 0h1m1 0h1m3 0h1m3 0h1m2 0h1m1 0h2m4 0h1m1 0h4m2 0h3m1 0h2m2 0h2m1 0h1m1 0h2m2 0h4m4 0h4m6 0h1m2 0h3m1 0h1m3 0h1m1 0h1m4 0h1m4 0h2m1 0h2M5 19.5h2m1 0h1m3 0h4m2 0h1m1 0h1m1 0h2m3 0h4m2 0h1m1 0h3m2 0h1m1 0h1m2 0h2m2 0h2m1 0h7m1 0h3m2 0h2m1 0h3m2 0h1m1 0h1m1 0h1m2 0h3m3 0h1m3 0h4m3 0h3m1 0h2m1 0h1m1 0h1M4 20.5h1m1 0h1m1 0h3m2 0h8m1 0h1m1 0h1m4 0h3m1 0h1m1 0h1m1 0h2m3 0h1m1 0h1m1 0h1m1 0h2m1 0h1m1 0h2m2 0h1m5 0h1m1 0h1m1 0h2m2 0h2m3 0h8m1 0h1m1 0h1m1 0h3m3 0h1m7 0h2m3 0h1M4 21.5h1m8 0h1m5 0h3m2 0h5m1 0h3m6 0h1m1 0h1m3 0h2m3 0h1m1 0h4m1 0h1m1 0h4m1 0h1m1 0h1m2 0h3m3 0h1m7 0h2m2 0h1m1 0h1m1 0h1m3 0h1m2 0h4m1 0h2m1 0h1m1 0h1M6 22.5h1m1 0h1m1 0h1m3 0h1m2 0h2m2 0h3m2 0h2m3 0h1m2 0h1m6 0h4m1 0h4m2 0h1m1 0h4m6 0h1m3 0h3m3 0h4m1 0h1m2 0h2m2 0h2m1 0h1m1 0h7m1 0h1m1 0h1m2 0h2m1 0h2M4 23.5h6m2 0h2m1 0h1m1 0h1m1 0h2m1 0h2m3 0h6m1 0h2m1 0h2m1 0h1m1 0h3m2 0h3m2 0h1m2 0h7m2 0h3m9 0h1m1 0h2m1 0h1m1 0h1m1 0h1m1 0h2m7 0h2m2 0h1m2 0h1m2 0h3M6 24.5h1m3 0h1m1 0h1m2 0h3m1 0h3m1 0h1m1 0h1m3 0h3m1 0h5m1 0h1m2 0h2m4 0h1m6 0h1m1 0h2m3 0h1m5 0h1m3 0h2m1 0h1m1 0h2m2 0h1m2 0h2m1 0h2m1 0h1m1 0h6m1 0h2m1 0h2m2 0h1m1 0h1M4 25.5h1m2 0h1m1 0h1m2 0h1m1 0h1m2 0h1m1 0h2m1 0h2m1 0h1m2 0h2m2 0h2m1 0h2m2 0h1m3 0h1m1 0h2m2 0h2m1 0h5m1 0h1m2 0h2m3 0h1m1 0h1m1 0h1m2 0h2m1 0h3m2 0h4m1 0h1m2 0h2m3 0h2m2 0h1m1 0h1m2 0h1m2 0h1m1 0h1M4 26.5h2m3 0h2m1 0h1m3 0h3m1 0h1m1 0h1m1 0h1m1 0h1m2 0h1m3 0h1m1 0h2m1 0h2m2 0h1m4 0h2m2 0h3m4 0h4m1 0h2m2 0h2m1 0h1m1 0h1m1 0h1m3 0h2m1 0h1m1 0h2m1 0h1m1 0h1m2 0h1m1 0h3m5 0h1m1 0h1m4 0h1M5 27.5h3m5 0h3m1 0h2m1 0h2m9 0h6m2 0h1m1 0h1m2 0h4m1 0h2m2 0h1m1 0h1m7 0h2m4 0h1m6 0h2m2 0h1m4 0h1m2 0h1m3 0h5m4 0h3m2 0h1m1 0h1M5 28.5h8m1 0h2m1 0h2m3 0h1m1 0h15m3 0h1m3 0h4m1 0h6m2 0h1m6 0h2m1 0h1m1 0h1m2 0h1m1 0h5m3 0h3m1 0h6m1 0h4m1 0h6m1 0h2M8 29.5h1m3 0h4m1 0h4m1 0h1m3 0h1m1 0h1m3 0h1m1 0h1m2 0h1m2 0h1m1 0h2m2 0h1m2 0h4m3 0h1m1 0h2m2 0h1m1 0h1m3 0h1m2 0h1m2 0h1m1 0h1m3 0h1m1 0h5m1 0h1m1 0h2m8 0h1m3 0h2m1 0h1M7 30.5h2m1 0h1m1 0h1m1 0h1m1 0h1m1 0h3m1 0h4m1 0h2m1 0h1m1 0h1m1 0h1m1 0h5m1 0h1m1 0h1m1 0h2m1 0h4m1 0h1m1 0h1m7 0h6m3 0h1m1 0h2m1 0h1m1 0h1m2 0h1m1 0h6m2 0h1m5 0h2m1 0h1m1 0h2M7 31.5h2m3 0h3m3 0h2m1 0h1m2 0h1m2 0h2m3 0h1m1 0h6m1 0h1m4 0h2m3 0h2m3 0h2m1 0h1m2 0h1m2 0h1m1 0h1m1 0h1m2 0h1m1 0h1m1 0h1m3 0h2m1 0h7m2 0h1m5 0h1m1 0h1m3 0h1M4 32.5h2m1 0h10m1 0h1m1 0h3m2 0h1m1 0h6m8 0h3m1 0h2m2 0h8m1 0h4m3 0h1m2 0h1m1 0h3m3 0h5m1 0h1m1 0h7m4 0h1m1 0h8m2 0h1M7 33.5h3m1 0h2m2 0h1m4 0h2m1 0h4m1 0h1m3 0h3m1 0h1m2 0h1m3 0h1m2 0h4m4 0h5m9 0h3m5 0h2m1 0h1m1 0h1m1 0h1m1 0h1m1 0h4m1 0h1m1 0h1m2 0h2m4 0h1m1 0h4M4 34.5h1m1 0h6m1 0h1m4 0h2m1 0h1m1 0h5m4 0h2m8 0h1m2 0h1m3 0h1m2 0h3m1 0h5m1 0h1m1 0h2m1 0h1m1 0h2m2 0h2m8 0h3m2 0h1m4 0h1m1 0h2m1 0h3m1 0h2m2 0h1m1 0h1M7 35.5h3m1 0h1m6 0h5m1 0h2m1 0h1m3 0h4m1 0h1m4 0h1m1 0h2m2 0h1m3 0h1m1 0h1m1 0h4m1 0h3m1 0h3m1 0h1m2 0h1m2 0h1m1 0h4m1 0h1m1 0h3m1 0h1m1 0h1m5 0h4m1 0h1m1 0h4m2 0h1M4 36.5h2m4 0h2m2 0h1m1 0h2m2 0h1m3 0h1m4 0h1m1 0h1m2 0h1m2 0h2m2 0h3m1 0h4m1 0h1m2 0h3m1 0h1m1 0h1m1 0h1m1 0h2m2 0h1m1 0h1m3 0h2m1 0h1m4 0h1m2 0h1m1 0h2m2 0h1m1 0h1m2 0h4m1 0h3m1 0h1m1 0h3M4 37.5h1m2 0h2m2 0h2m1 0h3m1 0h1m4 0h1m2 0h1m1 0h1m1 0h1m1 0h3m2 0h1m2 0h2m3 0h2m1 0h1m1 0h1m1 0h1m1 0h1m5 0h2m2 0h1m1 0h1m3 0h1m4 0h4m1 0h1m1 0h1m4 0h1m3 0h1m2 0h1m6 0h1m1 0h1m1 0h4M6 38.5h2m2 0h1m2 0h3m3 0h1m2 0h1m1 0h2m3 0h11m5 0h1m1 0h1m1 0h2m2 0h4m3 0h3m1 0h1m3 0h3m6 0h1m1 0h2m1 0h1m1 0h2m1 0h1m1 0h3m1 0h4m3 0h1m1 0h1m1 0h3M5 39.5h3m3 0h3m3 0h3m1 0h1m2 0h5m5 0h1m1 0h1m2 0h2m2 0h2m4 0h1m1 0h4m1 0h3m1 0h3m1 0h2m2 0h1m1 0h1m1 0h2m1 0h3m1 0h2m1 0h1m1 0h1m1 0h3m3 0h2m1 0h4m1 0h2m3 0h1m1 0h2M4 40.5h2m1 0h2m1 0h1m1 0h1m2 0h2m1 0h8m2 0h1m1 0h2m1 0h2m3 0h1m1 0h6m2 0h1m3 0h1m1 0h4m1 0h1m4 0h1m1 0h5m1 0h3m3 0h1m1 0h4m6 0h8m3 0h3m1 0h3M5 41.5h4m4 0h7m1 0h1m3 0h1m5 0h1m2 0h4m2 0h3m1 0h3m1 0h1m1 0h2m1 0h2m2 0h2m1 0h2m1 0h2m2 0h1m2 0h4m1 0h1m3 0h3m2 0h1m1 0h1m1 0h1m1 0h4m1 0h1m1 0h1m1 0h1m1 0h1m3 0h4M5 42.5h1m1 0h1m1 0h3m2 0h2m3 0h5m2 0h2m1 0h2m2 0h2m3 0h1m3 0h1m1 0h1m6 0h2m6 0h1m2 0h1m2 0h1m3 0h1m1 0h1m1 0h2m2 0h3m1 0h1m2 0h1m2 0h2m3 0h3m2 0h5m1 0h5M6 43.5h1m2 0h1m1 0h3m1 0h1m1 0h5m6 0h2m6 0h1m1 0h2m7 0h1m2 0h1m3 0h6m2 0h1m1 0h5m4 0h2m1 0h2m2 0h2m1 0h1m2 0h1m1 0h3m1 0h3m1 0h3m3 0h1m2 0h1m1 0h2M4 44.5h1m1 0h1m1 0h1m1 0h4m1 0h1m1 0h3m1 0h2m2 0h3m2 0h3m2 0h5m4 0h2m2 0h3m1 0h7m2 0h1m6 0h1m1 0h1m1 0h4m2 0h2m1 0h2m2 0h2m1 0h1m3 0h2m3 0h1m3 0h1m2 0h1m1 0h1m1 0h1M4 45.5h1m1 0h2m1 0h1m1 0h1m2 0h2m1 0h3m1 0h2m1 0h1m2 0h2m1 0h1m1 0h1m1 0h1m2 0h2m1 0h3m1 0h1m1 0h1m1 0h1m1 0h1m3 0h1m1 0h1m2 0h4m7 0h2m3 0h2m1 0h8m1 0h3m1 0h2m1 0h3m1 0h2m1 0h1m2 0h4M4 46.5h1m1 0h2m1 0h2m2 0h1m1 0h1m2 0h1m7 0h2m1 0h2m3 0h1m1 0h1m4 0h1m1 0h2m3 0h1m1 0h1m1 0h1m2 0h3m1 0h1m5 0h1m1 0h2m1 0h4m1 0h2m1 0h6m1 0h1m1 0h2m1 0h2m1 0h5m1 0h3m1 0h1m3 0h2M4 47.5h2m1 0h1m1 0h1m2 0h1m3 0h4m3 0h1m2 0h1m1 0h3m1 0h2m1 0h2m2 0h1m2 0h3m3 0h1m2 0h1m1 0h2m2 0h1m1 0h1m3 0h5m4 0h1m3 0h1m1 0h3m1 0h1m1 0h1m1 0h3m3 0h1m1 0h1m6 0h1m3 0h2M6 48.5h3m1 0h2m1 0h2m1 0h2m1 0h2m2 0h2m1 0h6m1 0h1m1 0h3m2 0h1m2 0h1m1 0h1m3 0h1m2 0h2m2 0h1m1 0h3m1 0h2m1 0h3m2 0h1m1 0h1m1 0h2m1 0h3m2 0h1m2 0h1m4 0h1m2 0h2m1 0h4m2 0h5M5 49.5h1m2 0h1m3 0h1m1 0h1m3 0h3m1 0h6m4 0h1m4 0h1m2 0h5m2 0h1m1 0h2m3 0h2m2 0h2m1 0h1m2 0h2m3 0h4m2 0h1m1 0h1m3 0h3m1 0h2m3 0h2m3 0h1m2 0h2m2 0h1m1 0h1m2 0h1M5 50.5h2m3 0h1m2 0h1m7 0h1m1 0h6m1 0h1m3 0h1m5 0h2m1 0h2m2 0h1m3 0h1m1 0h1m1 0h1m4 0h1m2 0h2m1 0h1m1 0h3m2 0h1m1 0h2m1 0h2m2 0h3m2 0h2m2 0h1m2 0h4m3 0h1m1 0h2m2 0h2M5 51.5h2m4 0h1m1 0h1m1 0h2m3 0h1m1 0h3m1 0h2m2 0h3m1 0h1m1 0h1m1 0h3m2 0h5m1 0h1m2 0h2m1 0h2m1 0h1m2 0h2m4 0h1m2 0h2m1 0h1m5 0h2m2 0h1m1 0h1m4 0h1m4 0h1m3 0h1m1 0h2m2 0h1m1 0h2M4 52.5h2m2 0h6m1 0h2m7 0h10m2 0h3m1 0h4m1 0h4m1 0h1m1 0h7m1 0h1m1 0h2m2 0h2m2 0h1m1 0h1m1 0h7m1 0h1m1 0h1m1 0h4m3 0h2m2 0h1m2 0h5m2 0h1M4 53.5h1m2 0h2m3 0h3m2 0h1m10 0h1m3 0h1m3 0h2m2 0h1m4 0h1m1 0h2m3 0h1m3 0h6m1 0h1m1 0h3m1 0h2m1 0h3m1 0h1m3 0h9m1 0h1m2 0h1m2 0h1m1 0h1m1 0h1m3 0h3m1 0h1M4 54.5h3m1 0h1m1 0h1m1 0h1m1 0h2m1 0h1m1 0h2m3 0h1m1 0h3m1 0h1m1 0h1m2 0h2m1 0h3m2 0h2m1 0h1m5 0h1m1 0h1m1 0h1m2 0h1m1 0h1m3 0h1m2 0h5m1 0h1m1 0h1m1 0h1m1 0h1m2 0h1m2 0h3m3 0h1m4 0h1m2 0h1m1 0h1m1 0h1m3 0h1M6 55.5h3m3 0h1m2 0h1m1 0h4m1 0h1m2 0h2m1 0h1m3 0h2m2 0h1m2 0h2m3 0h1m1 0h1m3 0h1m1 0h1m3 0h2m1 0h3m1 0h2m2 0h2m1 0h1m1 0h3m1 0h1m3 0h3m3 0h1m7 0h1m2 0h2m1 0h1m3 0h1M4 56.5h10m1 0h5m1 0h1m1 0h1m1 0h2m1 0h7m1 0h2m3 0h1m1 0h4m1 0h1m1 0h1m1 0h8m1 0h1m4 0h1m1 0h5m1 0h1m1 0h6m2 0h7m1 0h1m2 0h3m2 0h7M4 57.5h2m2 0h1m2 0h1m2 0h2m6 0h1m1 0h6m1 0h2m1 0h2m1 0h1m2 0h1m1 0h2m2 0h1m4 0h1m2 0h1m1 0h1m3 0h2m3 0h1m3 0h2m4 0h1m2 0h1m1 0h2m3 0h2m7 0h2m2 0h1m1 0h1m3 0h1m1 0h1M4 58.5h1m3 0h3m2 0h2m1 0h4m1 0h1m2 0h1m2 0h1m3 0h3m2 0h5m3 0h1m1 0h1m3 0h4m1 0h1m1 0h2m2 0h8m1 0h2m1 0h1m2 0h2m1 0h1m1 0h1m1 0h1m1 0h1m1 0h1m1 0h1m1 0h1m1 0h3m2 0h2m3 0h3m2 0h1M5 59.5h5m1 0h3m2 0h1m1 0h3m1 0h3m3 0h1m1 0h3m1 0h1m1 0h1m1 0h5m2 0h5m1 0h1m1 0h2m2 0h1m3 0h1m4 0h5m1 0h1m3 0h2m1 0h1m1 0h1m1 0h2m3 0h1m1 0h2m1 0h1m2 0h3m1 0h1m4 0h1m1 0h2M4 60.5h2m2 0h1m1 0h5m1 0h1m1 0h1m1 0h1m1 0h1m2 0h1m2 0h1m1 0h3m1 0h1m1 0h1m1 0h1m1 0h1m3 0h2m3 0h6m1 0h2m6 0h1m1 0h2m1 0h1m1 0h1m2 0h5m2 0h1m1 0h2m2 0h1m1 0h1m4 0h1m4 0h2m1 0h1m5 0h1M6 61.5h3m2 0h5m2 0h1m3 0h1m3 0h2m3 0h1m1 0h1m1 0h6m3 0h1m5 0h3m3 0h1m1 0h3m1 0h1m1 0h4m4 0h4m1 0h1m1 0h1m1 0h1m5 0h2m4 0h4m4 0h1m1 0h1M5 62.5h2m2 0h2m1 0h2m3 0h5m2 0h1m2 0h1m1 0h5m2 0h1m3 0h3m2 0h2m4 0h4m4 0h3m1 0h1m3 0h3m1 0h1m1 0h1m1 0h2m2 0h1m3 0h1m2 0h2m1 0h1m4 0h2m1 0h4m3 0h5M5 63.5h1m2 0h2m2 0h1m4 0h3m4 0h3m3 0h2m2 0h1m1 0h1m1 0h1m2 0h1m3 0h1m1 0h5m1 0h1m2 0h1m5 0h1m1 0h2m2 0h1m1 0h1m2 0h1m3 0h3m1 0h2m1 0h4m7 0h1m1 0h1m1 0h1m2 0h1m1 0h1m1 0h2M9 64.5h2m1 0h1m2 0h3m1 0h3m1 0h2m2 0h2m2 0h1m1 0h2m1 0h1m3 0h1m3 0h1m2 0h2m4 0h1m2 0h1m1 0h1m2 0h5m4 0h2m2 0h1m4 0h2m1 0h1m1 0h3m3 0h2m4 0h1m1 0h1m1 0h1m2 0h3M4 65.5h1m7 0h1m1 0h1m4 0h1m3 0h3m1 0h3m1 0h1m1 0h1m4 0h3m3 0h3m1 0h2m1 0h1m1 0h1m1 0h1m1 0h1m1 0h1m1 0h1m2 0h2m4 0h1m1 0h3m2 0h1m1 0h2m1 0h3m1 0h1m2 0h3m3 0h2m4 0h1m4 0h1M4 66.5h1m1 0h3m1 0h1m2 0h1m3 0h2m2 0h2m1 0h1m1 0h4m1 0h4m1 0h1m2 0h3m1 0h4m4 0h2m2 0h1m1 0h2m2 0h2m1 0h4m2 0h2m1 0h1m1 0h1m2 0h1m2 0h4m4 0h1m1 0h4m1 0h1m1 0h3m6 0h2M7 67.5h2m3 0h1m1 0h4m3 0h4m2 0h2m4 0h3m2 0h3m2 0h2m1 0h1m1 0h1m1 0h1m1 0h1m2 0h3m1 0h6m1 0h1m2 0h3m1 0h1m2 0h1m1 0h1m4 0h1m2 0h1m3 0h1m1 0h2m1 0h1m1 0h1m1 0h1m1 0h1m1 0h1m2 0h2M5 68.5h1m2 0h3m1 0h4m1 0h2m1 0h1m2 0h1m5 0h4m1 0h3m3 0h1m2 0h1m1 0h1m1 0h2m1 0h2m3 0h1m1 0h1m1 0h1m1 0h1m1 0h2m1 0h4m3 0h1m1 0h2m1 0h5m1 0h1m2 0h2m2 0h1m7 0h2m2 0h4m1 0h1M7 69.5h2m2 0h1m6 0h2m3 0h1m1 0h1m4 0h1m1 0h2m3 0h3m4 0h1m1 0h1m2 0h1m3 0h1m5 0h2m1 0h1m1 0h3m1 0h1m1 0h3m1 0h3m1 0h1m5 0h1m1 0h1m1 0h1m1 0h1m1 0h2m3 0h1m4 0h2m1 0h2M4 70.5h1m2 0h1m1 0h3m1 0h5m1 0h3m3 0h2m2 0h9m1 0h1m1 0h1m1 0h2m2 0h2m1 0h1m1 0h2m2 0h6m1 0h1m2 0h1m2 0h1m1 0h2m6 0h1m4 0h9m1 0h2m1 0h1m3 0h1m1 0h2m1 0h3M5 71.5h2m4 0h2m1 0h1m1 0h1m1 0h1m1 0h1m2 0h1m1 0h1m1 0h4m2 0h2m1 0h3m2 0h1m1 0h1m1 0h1m2 0h1m3 0h3m2 0h5m3 0h1m3 0h3m2 0h2m6 0h2m2 0h3m3 0h1m1 0h2m6 0h1m1 0h2m1 0h2M7 72.5h5m1 0h1m1 0h1m1 0h5m2 0h2m1 0h4m2 0h1m1 0h1m1 0h1m1 0h1m1 0h1m1 0h1m3 0h1m1 0h3m6 0h3m1 0h2m1 0h1m1 0h5m1 0h2m4 0h2m1 0h2m3 0h4m2 0h1m4 0h2m1 0h7M4 73.5h5m4 0h2m4 0h2m2 0h1m1 0h4m1 0h2m4 0h1m3 0h1m2 0h7m2 0h1m4 0h4m1 0h3m1 0h1m3 0h1m4 0h1m1 0h3m1 0h1m4 0h1m1 0h1m3 0h2m4 0h2m6 0h3M5 74.5h1m1 0h6m2 0h2m2 0h1m1 0h1m9 0h2m3 0h1m2 0h2m2 0h1m1 0h2m1 0h1m2 0h2m1 0h1m1 0h5m1 0h2m7 0h1m1 0h1m1 0h4m2 0h5m2 0h1m1 0h4m3 0h3m2 0h3m1 0h1m1 0h1M8 75.5h1m2 0h4m1 0h4m7 0h2m2 0h4m1 0h1m2 0h3m4 0h4m1 0h1m3 0h2m1 0h2m2 0h2m1 0h2m1 0h1m1 0h1m1 0h4m1 0h1m3 0h3m3 0h1m2 0h5m1 0h3m3 0h1m1 0h1m1 0h2M5 76.5h1m1 0h6m2 0h3m2 0h2m3 0h8m3 0h1m1 0h5m1 0h1m4 0h8m1 0h1m1 0h3m3 0h1m1 0h1m1 0h2m3 0h7m1 0h5m1 0h1m1 0h2m2 0h1m4 0h5m1 0h1M5 77.5h2m1 0h1m3 0h1m2 0h1m3 0h1m1 0h3m1 0h1m2 0h1m3 0h1m2 0h3m2 0h1m1 0h2m3 0h1m1 0h1m1 0h2m3 0h6m2 0h1m1 0h2m1 0h1m4 0h1m1 0h1m3 0h1m1 0h1m6 0h2m2 0h1m1 0h1m2 0h3m3 0h3M4 78.5h3m1 0h1m1 0h1m1 0h1m3 0h3m2 0h2m2 0h4m1 0h1m1 0h4m1 0h4m3 0h4m1 0h4m1 0h1m1 0h3m2 0h2m2 0h3m2 0h3m3 0h1m1 0h1m1 0h4m2 0h3m5 0h1m1 0h5m1 0h1m1 0h4M4 79.5h1m1 0h3m3 0h6m4 0h4m2 0h1m3 0h1m2 0h1m1 0h1m1 0h6m1 0h1m2 0h4m3 0h3m1 0h1m2 0h1m1 0h1m4 0h3m1 0h1m1 0h1m3 0h1m1 0h2m1 0h1m3 0h2m1 0h1m2 0h3m1 0h2m3 0h1m1 0h3M8 80.5h7m5 0h4m2 0h7m4 0h2m1 0h2m1 0h3m1 0h1m1 0h2m1 0h9m4 0h2m2 0h1m2 0h3m1 0h5m1 0h3m1 0h2m2 0h1m1 0h3m1 0h1m1 0h8m2 0h1M4 81.5h1m1 0h1m1 0h2m2 0h1m1 0h3m2 0h6m2 0h1m1 0h2m1 0h1m1 0h4m2 0h1m4 0h1m1 0h2m1 0h1m1 0h1m1 0h2m1 0h2m2 0h3m1 0h1m1 0h3m1 0h1m3 0h3m2 0h1m3 0h1m2 0h2m1 0h2m4 0h4m1 0h2m1 0h1m2 0h2M4 82.5h1m2 0h1m1 0h3m2 0h1m3 0h1m3 0h3m4 0h1m1 0h2m2 0h4m1 0h3m1 0h4m1 0h1m1 0h3m1 0h1m1 0h4m1 0h5m2 0h2m1 0h3m2 0h1m1 0h1m1 0h3m1 0h1m3 0h1m1 0h2m7 0h1m1 0h2m1 0h1m1 0h2M4 83.5h1m1 0h2m3 0h1m1 0h1m2 0h2m3 0h4m1 0h1m1 0h7m1 0h2m1 0h5m1 0h3m1 0h1m4 0h3m1 0h5m1 0h1m2 0h1m1 0h4m3 0h2m1 0h2m1 0h3m2 0h3m3 0h4m1 0h7m1 0h1m1 0h1M6 84.5h3m1 0h1m2 0h1m1 0h2m4 0h1m1 0h1m1 0h2m2 0h2m1 0h5m1 0h1m1 0h3m1 0h1m1 0h1m2 0h1m2 0h1m2 0h1m2 0h1m2 0h2m1 0h1m2 0h3m3 0h2m4 0h1m1 0h1m1 0h1m2 0h1m1 0h2m1 0h2m1 0h1m3 0h3m1 0h3m1 0h1m1 0h1M6 85.5h2m3 0h3m1 0h1m1 0h1m4 0h1m2 0h1m1 0h3m4 0h4m1 0h3m1 0h1m1 0h2m2 0h1m3 0h1m2 0h1m1 0h3m1 0h1m2 0h2m4 0h2m2 0h4m4 0h2m1 0h2m4 0h2m1 0h3m1 0h1m1 0h1m2 0h2m1 0h2M5 86.5h1m2 0h1m1 0h1m1 0h1m1 0h2m1 0h1m4 0h4m5 0h3m1 0h1m1 0h4m1 0h1m1 0h10m2 0h1m3 0h3m1 0h1m6 0h1m1 0h2m3 0h2m2 0h1m2 0h1m1 0h2m4 0h2m4 0h2m1 0h1m2 0h4M4 87.5h1m2 0h1m1 0h1m1 0h1m1 0h2m2 0h1m1 0h1m1 0h1m4 0h1m7 0h1m3 0h1m2 0h4m1 0h3m1 0h5m1 0h5m2 0h3m2 0h4m1 0h2m1 0h1m2 0h1m1 0h1m3 0h3m1 0h1m1 0h4m1 0h3m1 0h4m1 0h2M6 88.5h3m1 0h3m1 0h2m1 0h1m2 0h3m1 0h3m3 0h2m1 0h1m1 0h2m1 0h2m1 0h2m3 0h1m1 0h1m1 0h1m2 0h1m1 0h6m1 0h1m1 0h2m1 0h3m1 0h1m4 0h1m1 0h4m1 0h1m1 0h1m1 0h3m2 0h3m2 0h1m1 0h1m1 0h1m1 0h3m1 0h1M6 89.5h4m4 0h2m1 0h1m2 0h2m1 0h5m1 0h2m1 0h1m1 0h2m1 0h3m1 0h3m1 0h3m2 0h1m5 0h1m1 0h1m1 0h3m1 0h6m3 0h1m2 0h3m5 0h2m1 0h2m2 0h2m3 0h1m1 0h3m1 0h3m3 0h1M4 90.5h4m2 0h5m1 0h2m3 0h4m3 0h1m3 0h1m4 0h1m3 0h1m1 0h1m1 0h1m2 0h3m1 0h2m1 0h1m1 0h2m2 0h1m2 0h1m3 0h3m1 0h2m2 0h1m3 0h1m2 0h2m1 0h1m1 0h1m2 0h1m2 0h1m2 0h1m3 0h2m2 0h1m1 0h1M4 91.5h1m2 0h1m1 0h1m1 0h2m3 0h2m1 0h1m4 0h3m3 0h1m3 0h1m1 0h2m1 0h8m2 0h1m1 0h1m2 0h1m1 0h1m1 0h1m2 0h2m3 0h1m1 0h2m1 0h2m1 0h1m7 0h2m2 0h1m1 0h5m4 0h5m2 0h3M4 92.5h2m2 0h1m1 0h1m1 0h1m1 0h4m1 0h1m2 0h3m2 0h2m4 0h4m1 0h1m3 0h4m1 0h1m3 0h2m2 0h5m3 0h3m1 0h5m1 0h3m1 0h1m1 0h2m2 0h1m1 0h4m4 0h1m4 0h3m4 0h4M4 93.5h2m1 0h1m4 0h3m3 0h2m2 0h1m8 0h2m3 0h1m4 0h1m1 0h1m2 0h2m1 0h2m2 0h1m1 0h1m1 0h8m1 0h1m1 0h1m1 0h1m2 0h2m2 0h1m5 0h4m2 0h2m3 0h2m3 0h1m4 0h4M6 94.5h5m3 0h2m2 0h5m3 0h1m3 0h1m1 0h4m2 0h9m1 0h2m1 0h1m2 0h1m1 0h1m2 0h1m1 0h4m3 0h1m3 0h6m2 0h2m1 0h2m4 0h1m2 0h2m4 0h1m1 0h1m1 0h5m1 0h1M5 95.5h1m3 0h1m5 0h1m1 0h1m2 0h1m2 0h1m1 0h1m1 0h2m1 0h1m2 0h3m1 0h1m4 0h3m1 0h1m1 0h1m2 0h1m1 0h3m2 0h3m4 0h2m4 0h2m1 0h2m1 0h1m1 0h1m1 0h2m1 0h1m1 0h2m5 0h4m2 0h2m3 0h4M4 96.5h3m3 0h1m3 0h1m1 0h2m3 0h1m3 0h1m2 0h2m2 0h1m5 0h1m1 0h1m1 0h2m1 0h1m2 0h3m1 0h1m2 0h1m1 0h1m1 0h1m1 0h2m2 0h1m2 0h3m1 0h1m1 0h1m3 0h1m4 0h1m4 0h5m1 0h1m1 0h2m1 0h2m1 0h5m1 0h1M4 97.5h1m3 0h2m1 0h2m1 0h2m3 0h2m1 0h1m1 0h1m1 0h4m1 0h4m2 0h4m2 0h1m1 0h2m1 0h1m1 0h2m6 0h2m1 0h2m1 0h2m2 0h2m1 0h3m6 0h1m2 0h4m2 0h2m2 0h2m1 0h2m2 0h1m1 0h1m1 0h1m1 0h1M4 98.5h3m3 0h1m1 0h2m2 0h2m3 0h1m1 0h4m2 0h4m1 0h1m1 0h1m3 0h1m1 0h1m2 0h1m2 0h1m4 0h1m1 0h5m2 0h3m2 0h1m2 0h1m1 0h2m2 0h2m5 0h1m1 0h2m1 0h3m2 0h7m8 0h1M6 99.5h1m1 0h2m3 0h1m2 0h2m2 0h5m2 0h2m1 0h1m2 0h3m2 0h4m3 0h1m1 0h3m1 0h2m1 0h1m4 0h1m1 0h1m2 0h1m1 0h1m4 0h1m1 0h3m1 0h1m1 0h2m1 0h3m3 0h1m1 0h2m2 0h2m2 0h1m1 0h2m3 0h2M7 100.5h2m1 0h2m1 0h5m2 0h3m1 0h1m1 0h8m2 0h5m1 0h1m1 0h1m1 0h1m2 0h1m2 0h5m1 0h1m1 0h1m2 0h5m1 0h1m1 0h1m2 0h7m1 0h1m1 0h1m1 0h1m1 0h1m1 0h1m1 0h1m4 0h1m2 0h5m2 0h2M12 101.5h1m3 0h1m1 0h2m5 0h4m3 0h1m1 0h2m1 0h1m3 0h3m3 0h2m1 0h1m1 0h1m3 0h1m1 0h3m1 0h1m1 0h1m3 0h1m1 0h2m3 0h2m3 0h1m1 0h2m6 0h1m5 0h3m1 0h1m3 0h1m1 0h1M4 102.5h7m2 0h5m1 0h2m1 0h2m1 0h4m1 0h1m1 0h1m3 0h7m2 0h1m1 0h1m2 0h3m1 0h1m1 0h3m1 0h1m2 0h5m2 0h1m5 0h1m1 0h1m1 0h2m2 0h1m1 0h3m5 0h1m1 0h2m1 0h2m1 0h1m1 0h2m1 0h1M4 103.5h1m5 0h1m4 0h3m3 0h1m2 0h1m3 0h1m3 0h2m3 0h2m3 0h1m2 0h3m1 0h4m3 0h1m5 0h2m1 0h1m6 0h1m1 0h3m3 0h3m2 0h1m2 0h2m1 0h1m2 0h1m1 0h1m1 0h1m1 0h1m3 0h2m1 0h2M4 104.5h1m1 0h3m1 0h1m1 0h3m4 0h2m2 0h3m1 0h6m1 0h2m1 0h5m4 0h1m2 0h8m5 0h1m2 0h1m1 0h1m1 0h1m1 0h3m1 0h10m2 0h3m1 0h3m1 0h2m1 0h1m1 0h5m3 0h1M4 105.5h1m1 0h3m1 0h1m1 0h1m2 0h2m2 0h1m3 0h1m4 0h7m2 0h1m2 0h1m1 0h1m4 0h4m1 0h2m1 0h5m2 0h2m3 0h2m5 0h2m2 0h2m2 0h6m1 0h1m2 0h2m4 0h2m1 0h2m1 0h1m1 0h1M4 106.5h1m1 0h3m1 0h1m2 0h1m3 0h1m1 0h1m1 0h1m3 0h1m2 0h1m3 0h1m1 0h1m1 0h1m1 0h2m1 0h2m1 0h3m1 0h1m2 0h3m1 0h2m3 0h2m1 0h1m1 0h2m4 0h2m3 0h2m2 0h1m1 0h2m3 0h1m1 0h1m1 0h1m1 0h1m6 0h1m1 0h2m1 0h4M4 107.5h1m5 0h1m1 0h3m2 0h4m3 0h1m1 0h1m1 0h3m2 0h2m2 0h1m1 0h3m4 0h3m1 0h3m1 0h3m3 0h6m1 0h4m1 0h2m1 0h1m1 0h1m1 0h5m3 0h2m3 0h2m2 0h1m2 0h2m1 0h7M4 108.5h7m1 0h3m1 0h3m1 0h1m2 0h3m4 0h1m1 0h1m1 0h10m3 0h1m5 0h3m1 0h1m3 0h1m1 0h3m4 0h3m3 0h3m2 0h3m2 0h3m1 0h2m1 0h1m1 0h1m1 0h2m2 0h2m2 0h1"/></svg>
