<svg xmlns="http://www.w3.org/2000/svg" viewBox="0 0 113 113" shape-rendering="crispEdges"><path fill="#ffffff" d="M0 0h113v113H0z"/><path stroke="#000000" d="M4 4.5h7m1 0h1m1 0h1m1 0h2m7 0h1m2 0h1m3 0h2m1 0h2m1 0h1m3 0h3m1 0h2m1 0h3m2 0h3m1 0h2m1 0h1m4 0h2m1 0h2m2 0h3m4 0h1m3 0h1m1 0h3m2 0h2m1 0h5m3 0h7M4 5.5h1m5 0h1m2 0h3m1 0h1m1 0h2m1 0h1m1 0h1m2 0h4m1 0h1m1 0h2m2 0h1m1 0h3m1 0h4m1 0h2m2 0h1m3 0h1m1 0h1m1 0h3m2 0h5m2 0h2m1 0h1m2 0h3m4 0h1m1 0h1m3 0h1m1 0h1m1 0h3m3 0h1m5 0h1M4 6.5h1m1 0h3m1 0h1m1 0h1m3 0h1m1 0h3m1 0h2m1 0h2m1 0h1m1 0h2m2 0h4m2 0h2m1 0h1m1 0h7m2 0h1m2 0h1m1 0h6m1 0h2m1 0h2m1 0h1m1 0h1m2 0h1m4 0h3m5 0h2m1 0h1m2 0h4m2 0h1m1 0h3m1 0h1M4 7.5h1m1 0h3m1 0h1m4 0h1m1 0h1m2 0h1m1 0h4m2 0h1m2 0h1m1 0h1m6 0h1m2 0h2m2 0h1m3 0h1m5 0h3m1 0h3m4 0h1m1 0h1m3 0h1m1 0h1m1 0h2m10 0h1m2 0h1m2 0h1m3 0h1m1 0h1m1 0h3m1 0h1M4 8.5h1m1 0h3m1 0h1m3 0h4m1 0h1m1 0h1m1 0h11m1 0h2m2 0h2m1 0h4m2 0h1m1 0h8m1 0h2m1 0h1m3 0h3m3 0h10m1 0h2m4 0h1m2 0h2m1 0h1m3 0h2m1 0h1m1 0h3m1 0h1M4 9.5h1m5 0h1m1 0h2m2 0h1m1 0h2m1 0h1m6 0h1m3 0h1m2 0h1m4 0h4m2 0h1m1 0h1m2 0h2m3 0h2m1 0h1m1 0h1m1 0h1m3 0h6m3 0h1m3 0h1m3 0h2m2 0h2m1 0h4m1 0h2m1 0h1m2 0h1m5 0h1M4 10.5h7m1 0h1m1 0h1m1 0h1m1 0h1m1 0h1m1 0h1m1 0h1m1 0h1m1 0h1m1 0h1m1 0h1m1 0h1m1 0h1m1 0h1m1 0h1m1 0h1m1 0h1m1 0h1m1 0h1m1 0h1m1 0h1m1 0h1m1 0h1m1 0h1m1 0h1m1 0h1m1 0h1m1 0h1m1 0h1m1 0h1m1 0h1m1 0h1m1 0h1m1 0h1m1 0h1m1 0h1m1 0h1m1 0h1m1 0h1m1 0h1m1 0h1m1 0h1m1 0h1m1 0h1m1 0h1m1 0h7M14 11.5h3m1 0h1m4 0h1m1 0h4m3 0h1m9 0h4m1 0h1m2 0h3m3 0h1m1 0h1m4 0h1m1 0h1m1 0h1m4 0h3m1 0h1m3 0h1m2 0h4m1 0h6m2 0h1m1 0h1m1 0h1M4 12.5h1m1 0h1m3 0h2m3 0h1m6 0h1m1 0h1m1 0h1m1 0h6m1 0h1m2 0h1m6 0h2m1 0h1m2 0h6m3 0h1m4 0h3m8 0h5m1 0h5m2 0h1m1 0h1m1 0h2m1 0h2m5 0h1m2 0h1m1 0h1M4 13.5h1m2 0h3m2 0h2m1 0h3m2 0h1m1 0h2m1 0h1m3 0h1m4 0h2m1 0h1m1 0h2m4 0h1m1 0h1m2 0h1m4 0h1m1 0h1m3 0h2m2 0h1m1 0h1m2 0h1m1 0h2m4 0h3m2 0h1m4 0h5m2 0h2m1 0h2m3 0h3m2 0h1M6 14.5h5m2 0h1m1 0h1m2 0h1m2 0h2m2 0h1m1 0h2m2 0h3m1 0h1m1 0h1m4 0h1m1 0h2m1 0h2m3 0h3m2 0h3m1 0h2m5 0h1m2 0h7m2 0h2m1 0h3m2 0h1m2 0h1m1 0h3m1 0h4m1 0h2m4 0h1M5 15.5h2m6 0h7m5 0h6m1 0h2m2 0h8m3 0h1m1 0h3m3 0h1m1 0h1m1 0h3m2 0h2m1 0h2m2 0h4m1 0h1m3 0h1m1 0h1m4 0h2m2 0h1m1 0h2m4 0h1m3 0h2m2 0h2M5 16.5h1m4 0h1m4 0h2m2 0h1m1 0h1m1 0h1m1 0h2m5 0h1m1 0h2m2 0h2m2 0h1m5 0h3m1 0h3m1 0h3m2 0h1m2 0h4m2 0h1m1 0h4m6 0h1m1 0h2m3 0h4m1 0h2m1 0h4m1 0h2m3 0h1M4 17.5h2m2 0h2m1 0h3m3 0h1m1 0h3m3 0h4m2 0h2m2 0h1m1 0h1m1 0h2m3 0h1m1 0h1m1 0h2m3 0h1m1 0h2m2 0h1m4 0h3m1 0h2m2 0h2m2 0h1m1 0h1m1 0h2m2 0h1m1 0h2m1 0h3m4 0h1m3 0h1m1 0h1m4 0h1M4 18.5h3m1 0h1m1 0h1m1 0h1m3 0h2m2 0h1m3 0h1m3 0h1m1 0h1m3 0h3m5 0h3m3 0h4m1 0h1m2 0h3m2 0h2m1 0h1m3 0h1m4 0h5m2 0h1m2 0h1m1 0h2m1 0h1m1 0h4m1 0h1m5 0h2m1 0h1m1 0h3M7 19.5h2m4 0h3m1 0h1m1 0h2m1 0h2m2 0h1m2 0h2m1 0h1m3 0h1m1 0h1m1 0h2m1 0h1m3 0h2m2 0h2m1 0h2m1 0h2m2 0h1m2 0h1m2 0h2m2 0h3m2 0h2m4 0h2m2 0h1m3 0h2m2 0h2m3 0h3m1 0h1m2 0h1M6 20.5h1m1 0h3m1 0h2m1 0h3m2 0h1m2 0h1m1 0h1m1 0h1m4 0h2m1 0h5m1 0h1m2 0h1m3 0h5m3 0h1m1 0h1m2 0h1m1 0h3m2 0h2m1 0h3m1 0h3m1 0h1m1 0h1m1 0h6m1 0h2m3 0h5m1 0h1m1 0h1m3 0h2M4 21.5h1m1 0h1m1 0h2m4 0h1m1 0h6m4 0h3m2 0h1m1 0h4m1 0h5m3 0h1m1 0h1m3 0h1m1 0h1m1 0h1m2 0h3m1 0h1m5 0h1m2 0h2m1 0h3m3 0h2m1 0h2m1 0h1m1 0h6m1 0h1m5 0h1m2 0h1m1 0h2M5 22.5h2m1 0h1m1 0h4m3 0h4m2 0h1m1 0h1m2 0h1m1 0h2m2 0h1m1 0h1m1 0h1m3 0h1m1 0h3m3 0h2m3 0h3m5 0h6m1 0h3m2 0h1m1 0h1m1 0h1m2 0h4m2 0h1m1 0h1m1 0h5m1 0h1m4 0h2M7 23.5h1m1 0h1m1 0h3m1 0h1m3 0h1m5 0h4m2 0h3m1 0h1m1 0h3m2 0h1m1 0h2m3 0h2m1 0h1m2 0h1m2 0h2m1 0h2m1 0h4m2 0h1m2 0h2m1 0h2m1 0h1m2 0h1m3 0h1m1 0h2m2 0h3m3 0h1m1 0h2m3 0h3M7 24.5h1m1 0h3m2 0h1m1 0h2m1 0h1m3 0h1m1 0h4m1 0h1m2 0h1m1 0h1m7 0h1m1 0h1m1 0h1m1 0h4m3 0h1m1 0h1m1 0h4m2 0h1m4 0h1m1 0h2m5 0h1m1 0h1m1 0h1m2 0h2m1 0h1m1 0h2m1 0h4m1 0h1m1 0h1m1 0h1m1 0h3M4 25.5h2m1 0h1m5 0h1m1 0h6m1 0h2m1 0h1m1 0h2m1 0h1m1 0h4m5 0h3m1 0h1m1 0h1m1 0h1m1 0h2m1 0h1m1 0h1m2 0h2m1 0h1m2 0h1m2 0h2m4 0h2m1 0h2m1 0h1m3 0h1m3 0h1m1 0h1m1 0h1m3 0h1m4 0h1m1 0h1m2 0h2M4 26.5h2m4 0h3m1 0h1m1 0h4m1 0h2m1 0h1m1 0h1m1 0h2m1 0h1m5 0h2m2 0h1m1 0h3m2 0h1m2 0h1m3 0h2m1 0h1m1 0h1m2 0h4m1 0h1m5 0h3m1 0h9m1 0h1m1 0h1m4 0h1m3 0h1m2 0h5m1 0h1M4 27.5h1m1 0h1m1 0h1m6 0h2m1 0h1m3 0h1m1 0h1m1 0h1m2 0h3m3 0h1m5 0h5m3 0h4m2 0h1m1 0h2m3 0h2m7 0h3m1 0h1m1 0h1m1 0h3m3 0h1m2 0h1m2 0h1m3 0h3m4 0h6M6 28.5h1m1 0h7m3 0h1m2 0h1m4 0h7m4 0h2m2 0h5m2 0h9m1 0h4m1 0h4m1 0h2m3 0h8m6 0h2m2 0h1m1 0h2m1 0h1m1 0h7m1 0h1m1 0h1M6 29.5h1m1 0h1m3 0h1m6 0h6m1 0h3m3 0h3m1 0h2m4 0h1m1 0h1m1 0h1m2 0h2m1 0h1m3 0h1m2 0h1m1 0h2m1 0h5m3 0h2m1 0h2m3 0h1m1 0h2m6 0h1m2 0h1m1 0h2m2 0h2m3 0h1m2 0h1M5 30.5h2m1 0h1m1 0h1m1 0h2m1 0h1m1 0h3m2 0h7m1 0h1m1 0h3m1 0h1m1 0h1m1 0h1m3 0h1m1 0h1m1 0h1m1 0h1m1 0h1m1 0h1m1 0h4m2 0h1m1 0h4m2 0h1m1 0h1m1 0h1m1 0h1m1 0h1m1 0h2m2 0h1m3 0h2m4 0h3m2 0h2m1 0h1m1 0h3m1 0h1M8 31.5h1m3 0h1m4 0h1m1 0h1m1 0h1m1 0h1m1 0h1m1 0h2m3 0h1m2 0h1m1 0h1m2 0h3m6 0h1m1 0h2m3 0h5m1 0h1m1 0h2m1 0h1m1 0h1m6 0h1m3 0h1m1 0h1m1 0h1m2 0h1m2 0h4m1 0h3m2 0h1m3 0h1m2 0h2M5 32.5h1m1 0h7m1 0h2m1 0h2m1 0h2m2 0h8m2 0h1m1 0h2m1 0h1m1 0h1m1 0h2m2 0h1m1 0h7m1 0h1m1 0h4m4 0h2m1 0h2m1 0h1m1 0h5m4 0h1m2 0h2m1 0h2m1 0h2m1 0h1m2 0h5m1 0h2M5 33.5h1m5 0h7m4 0h1m2 0h2m3 0h1m1 0h1m3 0h1m1 0h5m1 0h2m4 0h4m1 0h1m2 0h2m2 0h1m1 0h1m1 0h1m1 0h1m1 0h3m1 0h1m5 0h1m1 0h1m1 0h1m1 0h1m2 0h4m2 0h4m1 0h1m1 0h1m1 0h1m1 0h1M5 34.5h1m4 0h2m4 0h1m4 0h2m3 0h1m2 0h1m1 0h1m4 0h1m3 0h1m1 0h2m1 0h1m1 0h2m1 0h1m1 0h1m2 0h3m2 0h6m2 0h3m1 0h1m1 0h1m1 0h1m7 0h2m1 0h1m1 0h1m2 0h1m2 0h6m1 0h3m1 0h1m1 0h1M5 35.5h1m2 0h2m3 0h1m2 0h1m1 0h3m1 0h1m1 0h7m1 0h1m1 0h1m1 0h1m2 0h1m1 0h3m4 0h4m2 0h1m1 0h1m1 0h2m1 0h2m1 0h1m1 0h9m1 0h2m6 0h2m3 0h2m2 0h1m3 0h2m4 0h1m3 0h1M5 36.5h2m1 0h4m2 0h1m4 0h1m2 0h1m2 0h2m1 0h2m1 0h1m1 0h2m1 0h2m1 0h2m1 0h3m1 0h1m3 0h2m2 0h2m1 0h2m1 0h3m1 0h1m1 0h1m2 0h1m4 0h1m4 0h1m4 0h4m1 0h2m1 0h1m1 0h1m3 0h1m1 0h1m1 0h3m3 0h1M5 37.5h4m2 0h1m1 0h2m2 0h1m1 0h3m1 0h2m1 0h1m1 0h1m1 0h2m1 0h2m2 0h1m1 0h3m2 0h2m1 0h2m1 0h1m1 0h3m2 0h1m2 0h1m2 0h1m2 0h1m2 0h3m1 0h4m3 0h2m2 0h2m7 0h1m1 0h3m1 0h2m2 0h2M5 38.5h1m2 0h4m1 0h4m1 0h1m3 0h2m1 0h2m2 0h1m2 0h1m1 0h2m1 0h1m1 0h2m1 0h1m1 0h2m1 0h1m1 0h1m3 0h1m2 0h2m2 0h1m3 0h2m1 0h3m1 0h1m1 0h3m3 0h1m1 0h1m2 0h5m1 0h1m2 0h1m1 0h2m2 0h2m1 0h3m1 0h3M9 39.5h1m2 0h4m2 0h1m6 0h2m1 0h1m2 0h3m1 0h3m1 0h2m2 0h1m1 0h2m1 0h3m6 0h3m1 0h2m4 0h2m2 0h2m4 0h1m2 0h1m2 0h1m1 0h1m1 0h2m2 0h2m2 0h3m2 0h1m3 0h1M4 40.5h2m2 0h1m1 0h1m3 0h2m7 0h1m1 0h2m3 0h4m2 0h2m1 0h1m1 0h1m4 0h2m2 0h3m1 0h1m1 0h1m1 0h2m1 0h3m1 0h1m3 0h3m2 0h4m1 0h1m2 0h4m1 0h1m5 0h2m1 0h6m2 0h2m1 0h2M6 41.5h1m1 0h2m1 0h2m1 0h2m1 0h1m1 0h4m4 0h1m1 0h2m3 0h3m2 0h2m1 0h1m1 0h1m2 0h1m1 0h2m1 0h2m1 0h1m2 0h4m1 0h4m4 0h1m1 0h2m5 0h2m1 0h3m1 0h2m1 0h1m4 0h1m2 0h1m2 0h1m1 0h1m1 0h2M5 42.5h1m1 0h1m1 0h2m1 0h1m2 0h4m1 0h1m2 0h2m3 0h2m2 0h3m2 0h3m1 0h2m3 0h1m4 0h1m1 0h1m1 0h1m1 0h1m4 0h3m2 0h2m1 0h2m1 0h3m1 0h4m1 0h1m1 0h1m1 0h1m1 0h1m2 0h2m2 0h1m5 0h2m1 0h1M4 43.5h2m1 0h3m2 0h6m1 0h4m1 0h1m1 0h1m1 0h3m1 0h2m3 0h1m6 0h1m1 0h1m3 0h1m3 0h1m3 0h1m1 0h1m1 0h1m1 0h1m2 0h2m2 0h2m2 0h3m1 0h3m4 0h2m3 0h2m4 0h1m2 0h1m3 0h1m3 0h1M4 44.5h3m3 0h1m2 0h3m2 0h2m2 0h3m1 0h1m1 0h2m6 0h2m4 0h3m5 0h1m1 0h2m4 0h1m1 0h1m1 0h1m1 0h1m1 0h1m1 0h1m2 0h4m2 0h3m1 0h2m1 0h1m1 0h5m2 0h3m1 0h1m2 0h3m1 0h1m1 0h1M5 45.5h2m1 0h2m1 0h1m1 0h1m2 0h3m4 0h1m2 0h5m3 0h1m1 0h3m5 0h1m1 0h1m2 0h9m1 0h1m2 0h1m4 0h1m6 0h1m3 0h4m4 0h1m2 0h5m1 0h1m1 0h1m1 0h1m2 0h1m1 0h1m1 0h3M4 46.5h1m2 0h2m1 0h1m4 0h4m1 0h2m9 0h2m1 0h1m4 0h2m6 0h1m2 0h2m1 0h1m10 0h3m1 0h1m1 0h4m1 0h1m3 0h2m2 0h1m1 0h1m1 0h8m3 0h1m1 0h1m6 0h2M4 47.5h1m2 0h1m1 0h1m2 0h1m1 0h2m1 0h1m1 0h2m9 0h1m1 0h1m3 0h2m1 0h3m2 0h1m4 0h1m1 0h1m1 0h1m3 0h1m1 0h1m4 0h1m2 0h1m7 0h1m4 0h5m4 0h3m1 0h1m1 0h2m2 0h1m6 0h2M4 48.5h1m2 0h2m1 0h2m1 0h1m4 0h5m4 0h8m2 0h2m4 0h1m5 0h3m3 0h6m1 0h3m1 0h3m1 0h3m1 0h2m4 0h2m1 0h1m1 0h2m1 0h4m2 0h3m2 0h2m1 0h1m2 0h1M4 49.5h5m6 0h1m2 0h1m1 0h1m2 0h3m2 0h2m2 0h1m2 0h4m1 0h4m2 0h1m2 0h1m2 0h3m2 0h1m1 0h1m3 0h1m3 0h2m3 0h2m1 0h1m2 0h2m2 0h2m7 0h4m3 0h1m2 0h2M6 50.5h2m1 0h3m2 0h2m1 0h2m1 0h1m1 0h1m6 0h1m6 0h1m1 0h1m2 0h1m1 0h1m3 0h6m1 0h3m1 0h2m1 0h2m1 0h1m2 0h4m2 0h1m1 0h1m1 0h1m2 0h4m2 0h1m2 0h1m1 0h2m1 0h1m4 0h2m1 0h1m1 0h1m1 0h3M5 51.5h1m1 0h1m1 0h1m2 0h2m1 0h1m4 0h1m3 0h4m4 0h3m1 0h1m5 0h1m1 0h1m2 0h1m1 0h1m1 0h2m1 0h1m2 0h5m8 0h1m3 0h3m1 0h2m2 0h3m4 0h1m2 0h2m5 0h1m1 0h1m1 0h1m3 0h2M5 52.5h1m1 0h8m1 0h2m1 0h2m4 0h1m1 0h6m2 0h2m2 0h2m2 0h1m1 0h1m3 0h8m1 0h1m3 0h1m1 0h3m3 0h2m1 0h1m1 0h6m1 0h4m1 0h3m1 0h4m1 0h1m1 0h7m1 0h3M5 53.5h4m3 0h3m2 0h1m2 0h1m2 0h1m4 0h1m3 0h1m1 0h1m2 0h4m1 0h1m3 0h1m1 0h2m1 0h2m3 0h2m1 0h1m1 0h2m1 0h1m3 0h1m4 0h1m2 0h1m3 0h1m1 0h1m2 0h1m1 0h1m1 0h3m1 0h2m1 0h1m1 0h1m1 0h1m3 0h2M5 54.5h1m2 0h1m1 0h1m1 0h2m1 0h1m1 0h4m7 0h1m1 0h1m1 0h2m1 0h2m1 0h1m1 0h3m2 0h3m1 0h4m1 0h1m1 0h7m1 0h2m2 0h1m3 0h2m1 0h2m1 0h1m1 0h2m1 0h2m3 0h3m3 0h4m1 0h2m1 0h1m1 0h3M8 55.5h1m3 0h7m1 0h1m2 0h2m2 0h2m3 0h1m2 0h5m1 0h1m1 0h2m2 0h3m1 0h2m3 0h2m1 0h1m1 0h3m1 0h1m1 0h1m4 0h1m1 0h1m1 0h1m3 0h3m3 0h1m1 0h3m2 0h2m1 0h3m1 0h1m3 0h2m1 0h2M4 56.5h2m1 0h7m1 0h1m1 0h1m1 0h1m2 0h2m1 0h9m1 0h1m1 0h1m2 0h1m1 0h2m2 0h2m1 0h1m2 0h6m1 0h2m1 0h1m1 0h4m2 0h2m2 0h1m1 0h5m2 0h1m3 0h2m1 0h1m3 0h1m1 0h1m3 0h5m2 0h2M4 57.5h2m3 0h1m3 0h1m1 0h2m1 0h6m2 0h2m3 0h2m1 0h1m1 0h1m2 0h3m2 0h1m1 0h2m2 0h1m1 0h3m2 0h1m2 0h1m2 0h1m1 0h2m1 0h1m1 0h3m1 0h1m2 0h1m3 0h1m3 0h1m3 0h1m2 0h1m4 0h1m2 0h4m2 0h1M4 58.5h3m3 0h2m1 0h2m3 0h5m1 0h1m1 0h9m3 0h2m2 0h3m2 0h4m2 0h2m4 0h6m3 0h1m2 0h1m1 0h1m1 0h3m1 0h1m2 0h1m1 0h3m1 0h2m2 0h2m1 0h3m1 0h2m1 0h3m2 0h2M4 59.5h1m3 0h2m1 0h1m1 0h1m1 0h1m1 0h3m1 0h1m1 0h1m7 0h3m3 0h1m1 0h1m1 0h4m6 0h2m2 0h3m1 0h1m1 0h1m1 0h2m3 0h3m3 0h3m1 0h1m1 0h2m4 0h2m2 0h2m2 0h2m1 0h1m2 0h1m2 0h1m1 0h1M7 60.5h2m1 0h2m1 0h1m3 0h1m5 0h2m1 0h1m3 0h2m1 0h1m1 0h1m4 0h1m3 0h1m1 0h1m1 0h1m1 0h1m2 0h3m4 0h2m1 0h1m1 0h1m1 0h2m2 0h3m1 0h1m1 0h2m2 0h3m1 0h1m1 0h1m1 0h1m1 0h6m1 0h1m1 0h1m1 0h2M4 61.5h3m5 0h1m3 0h5m2 0h1m1 0h1m6 0h2m3 0h2m1 0h1m1 0h2m3 0h1m3 0h1m1 0h2m1 0h1m1 0h2m1 0h2m5 0h2m1 0h1m1 0h2m4 0h1m1 0h2m2 0h5m1 0h1m3 0h1m1 0h6m5 0h1M6 62.5h2m2 0h1m8 0h4m1 0h1m1 0h1m1 0h1m1 0h11m5 0h3m1 0h3m1 0h1m3 0h1m1 0h2m2 0h2m1 0h4m1 0h2m2 0h5m5 0h2m1 0h2m1 0h2m4 0h1m1 0h5m1 0h2M4 63.5h1m1 0h2m4 0h5m1 0h1m3 0h2m3 0h1m4 0h1m2 0h1m1 0h1m4 0h2m5 0h1m1 0h2m1 0h1m1 0h6m1 0h1m2 0h1m1 0h2m4 0h1m1 0h4m4 0h2m7 0h4m1 0h2m1 0h2m3 0h2M4 64.5h1m1 0h1m2 0h2m1 0h3m8 0h3m2 0h2m1 0h2m1 0h2m1 0h2m1 0h1m1 0h1m1 0h1m3 0h9m2 0h9m1 0h1m2 0h1m1 0h2m4 0h2m4 0h2m2 0h1m1 0h1m2 0h3m1 0h10M5 65.5h2m1 0h2m1 0h2m1 0h1m1 0h2m5 0h1m2 0h1m3 0h1m1 0h1m5 0h1m4 0h1m1 0h1m1 0h2m1 0h2m1 0h1m1 0h1m2 0h1m2 0h1m1 0h5m5 0h2m5 0h3m1 0h2m2 0h1m2 0h4m1 0h4m1 0h1m1 0h3m2 0h1M4 66.5h2m2 0h5m1 0h5m3 0h2m2 0h4m12 0h2m1 0h1m4 0h3m1 0h2m4 0h1m1 0h11m1 0h1m2 0h8m1 0h3m3 0h3m2 0h1m3 0h1m1 0h3m1 0h2M7 67.5h2m2 0h3m3 0h3m2 0h2m2 0h3m5 0h1m2 0h1m2 0h1m1 0h3m2 0h1m4 0h2m1 0h1m3 0h2m1 0h2m1 0h1m1 0h2m2 0h1m1 0h2m1 0h2m4 0h2m1 0h2m1 0h1m4 0h1m1 0h3m1 0h3m1 0h1m1 0h4M4 68.5h1m2 0h5m7 0h1m2 0h2m2 0h1m1 0h1m1 0h4m2 0h2m1 0h1m1 0h2m1 0h1m1 0h2m1 0h3m1 0h1m2 0h1m3 0h5m2 0h1m1 0h1m3 0h2m2 0h2m2 0h1m2 0h4m4 0h3m3 0h1m3 0h1m1 0h2M5 69.5h2m1 0h2m1 0h1m3 0h1m2 0h1m1 0h2m2 0h2m1 0h1m5 0h2m2 0h1m1 0h1m1 0h1m1 0h1m2 0h5m1 0h1m5 0h2m2 0h1m1 0h6m1 0h3m3 0h1m5 0h2m1 0h2m1 0h1m1 0h1m2 0h1m2 0h4m2 0h2m1 0h1M6 70.5h1m2 0h2m3 0h1m1 0h2m1 0h1m1 0h4m1 0h1m1 0h1m2 0h2m1 0h5m3 0h1m2 0h1m8 0h1m1 0h1m3 0h3m1 0h1m3 0h1m3 0h2m2 0h1m3 0h2m1 0h1m2 0h2m1 0h1m1 0h5m1 0h2m1 0h1m1 0h1m3 0h1m1 0h1M4 71.5h1m3 0h2m4 0h5m2 0h1m7 0h1m8 0h1m1 0h1m1 0h3m5 0h1m1 0h1m1 0h1m14 0h1m1 0h1m2 0h1m4 0h1m3 0h2m2 0h1m1 0h1m2 0h2m2 0h2m2 0h1m1 0h4M4 72.5h1m2 0h6m1 0h1m3 0h1m3 0h2m1 0h1m1 0h1m3 0h1m1 0h1m1 0h1m1 0h1m1 0h1m5 0h1m2 0h3m1 0h2m2 0h2m3 0h2m1 0h2m2 0h2m3 0h1m1 0h2m1 0h1m4 0h4m3 0h4m1 0h1m3 0h4m2 0h3M4 73.5h1m3 0h1m2 0h2m4 0h2m1 0h2m2 0h3m1 0h1m1 0h1m8 0h3m1 0h1m1 0h6m2 0h1m3 0h2m1 0h2m3 0h4m2 0h2m2 0h1m1 0h2m1 0h1m2 0h1m4 0h2m5 0h4m2 0h1m3 0h1M6 74.5h1m2 0h3m1 0h1m3 0h2m1 0h2m2 0h1m1 0h1m1 0h1m1 0h1m1 0h1m2 0h2m1 0h2m1 0h1m1 0h1m1 0h5m1 0h2m1 0h1m1 0h1m1 0h5m3 0h1m1 0h4m2 0h3m5 0h1m2 0h2m3 0h1m5 0h2m2 0h2m1 0h4m1 0h1M4 75.5h1m2 0h1m3 0h1m1 0h1m3 0h1m6 0h2m2 0h2m2 0h4m1 0h1m1 0h4m1 0h1m2 0h3m3 0h2m3 0h4m1 0h2m2 0h2m1 0h2m1 0h2m2 0h1m3 0h1m1 0h1m3 0h2m4 0h1m3 0h3m3 0h1m4 0h1M5 76.5h1m2 0h6m1 0h1m3 0h3m1 0h1m2 0h1m1 0h6m2 0h3m1 0h1m1 0h1m1 0h2m2 0h1m3 0h5m2 0h1m2 0h1m5 0h2m3 0h1m2 0h6m2 0h1m2 0h1m1 0h4m1 0h13M5 77.5h1m2 0h1m3 0h1m2 0h2m1 0h2m2 0h2m2 0h1m1 0h1m3 0h1m3 0h2m3 0h6m1 0h5m3 0h1m1 0h3m1 0h1m3 0h1m4 0h4m1 0h1m3 0h1m1 0h1m5 0h1m5 0h1m2 0h1m2 0h1m3 0h1m1 0h2M5 78.5h4m1 0h1m1 0h4m1 0h1m5 0h1m2 0h3m1 0h1m1 0h1m1 0h4m2 0h1m2 0h1m1 0h1m3 0h1m1 0h2m1 0h1m1 0h9m6 0h3m1 0h2m1 0h1m1 0h1m3 0h1m4 0h6m2 0h1m1 0h2m1 0h1m1 0h5M4 79.5h2m1 0h2m3 0h1m5 0h8m2 0h1m3 0h4m1 0h3m1 0h3m1 0h1m4 0h1m1 0h1m3 0h1m2 0h3m5 0h1m2 0h5m1 0h1m3 0h2m1 0h3m9 0h1m1 0h2m1 0h1m3 0h3m1 0h1M4 80.5h3m1 0h6m3 0h2m2 0h1m4 0h8m1 0h5m1 0h3m1 0h3m1 0h1m2 0h5m1 0h2m1 0h2m2 0h3m1 0h4m2 0h6m4 0h1m3 0h3m2 0h2m1 0h11M4 81.5h3m2 0h1m4 0h2m2 0h2m1 0h1m3 0h1m2 0h1m2 0h4m4 0h4m2 0h1m2 0h5m3 0h2m1 0h5m1 0h3m1 0h1m2 0h1m3 0h2m2 0h2m1 0h1m1 0h2m5 0h1m1 0h2m3 0h2m3 0h2m1 0h1M5 82.5h2m1 0h6m1 0h4m1 0h2m3 0h2m1 0h1m2 0h2m1 0h2m2 0h1m1 0h1m1 0h1m3 0h4m1 0h2m2 0h1m1 0h1m1 0h5m5 0h3m4 0h1m1 0h2m2 0h1m3 0h3m1 0h3m1 0h2m1 0h1m1 0h3m3 0h1m2 0h1M5 83.5h1m1 0h3m1 0h1m1 0h1m1 0h1m1 0h2m2 0h1m1 0h3m1 0h1m1 0h3m2 0h1m2 0h1m5 0h3m3 0h1m6 0h1m1 0h1m1 0h1m2 0h5m1 0h1m1 0h1m2 0h1m3 0h1m1 0h1m3 0h1m6 0h1m4 0h5m4 0h1m1 0h1M7 84.5h1m2 0h2m1 0h1m2 0h3m1 0h1m1 0h1m4 0h1m2 0h2m3 0h3m1 0h1m1 0h2m2 0h3m1 0h1m1 0h3m2 0h2m2 0h2m1 0h1m2 0h3m3 0h1m5 0h2m1 0h1m1 0h1m3 0h1m1 0h1m2 0h3m1 0h3m3 0h1m1 0h1m1 0h3M6 85.5h2m1 0h1m2 0h1m1 0h1m3 0h1m1 0h3m4 0h2m1 0h1m1 0h1m1 0h1m1 0h1m1 0h1m1 0h1m2 0h1m3 0h5m1 0h1m2 0h2m2 0h1m7 0h1m2 0h1m2 0h2m1 0h3m2 0h2m5 0h3m3 0h1m1 0h2m1 0h1m1 0h1m2 0h1M5 86.5h2m1 0h1m1 0h1m3 0h3m1 0h2m3 0h1m3 0h1m1 0h4m1 0h1m2 0h2m1 0h1m2 0h4m2 0h2m2 0h1m1 0h2m2 0h2m2 0h2m2 0h1m2 0h1m1 0h1m2 0h1m3 0h5m2 0h2m1 0h1m1 0h1m2 0h1m4 0h2m1 0h2m2 0h2M4 87.5h2m2 0h2m3 0h1m1 0h1m2 0h1m1 0h3m2 0h1m2 0h1m1 0h1m2 0h2m1 0h2m1 0h1m2 0h2m3 0h3m1 0h1m3 0h1m2 0h1m1 0h4m2 0h4m1 0h2m2 0h1m2 0h1m2 0h1m3 0h2m1 0h2m1 0h2m7 0h1m1 0h1m2 0h2m1 0h1M4 88.5h1m1 0h2m2 0h2m1 0h1m1 0h4m2 0h1m2 0h2m3 0h3m1 0h1m2 0h2m1 0h2m4 0h4m1 0h1m1 0h1m1 0h4m3 0h2m1 0h1m3 0h2m1 0h3m1 0h4m1 0h2m1 0h2m2 0h1m1 0h1m4 0h1m1 0h2m1 0h2m2 0h1m3 0h2M9 89.5h1m2 0h2m1 0h1m1 0h1m4 0h1m4 0h1m2 0h2m1 0h1m4 0h1m1 0h1m4 0h2m2 0h1m1 0h1m1 0h2m1 0h1m1 0h1m5 0h2m2 0h1m3 0h3m2 0h3m1 0h4m4 0h1m1 0h1m5 0h1m3 0h3m1 0h1m2 0h1M4 90.5h2m2 0h3m1 0h2m3 0h4m1 0h3m2 0h1m1 0h3m6 0h2m3 0h1m2 0h5m4 0h1m1 0h5m1 0h1m1 0h1m4 0h1m2 0h1m4 0h1m1 0h1m1 0h1m2 0h2m1 0h3m4 0h1m2 0h1m1 0h1m1 0h1m2 0h4M6 91.5h1m1 0h1m2 0h3m4 0h1m1 0h1m2 0h4m3 0h1m1 0h1m2 0h1m1 0h1m3 0h2m1 0h1m1 0h2m2 0h3m3 0h3m3 0h4m6 0h2m2 0h1m1 0h2m3 0h1m1 0h2m1 0h1m1 0h1m1 0h1m3 0h1m1 0h5m3 0h3M7 92.5h1m2 0h2m1 0h4m5 0h1m1 0h2m1 0h1m3 0h2m1 0h1m3 0h4m1 0h2m2 0h1m2 0h2m2 0h2m1 0h1m1 0h2m1 0h3m2 0h2m2 0h6m5 0h1m1 0h4m1 0h1m1 0h1m2 0h1m2 0h3m2 0h3m1 0h3M4 93.5h2m1 0h1m3 0h1m5 0h1m4 0h4m1 0h1m5 0h4m1 0h1m6 0h2m1 0h1m1 0h1m4 0h2m4 0h1m2 0h3m1 0h1m1 0h1m4 0h2m1 0h1m1 0h1m3 0h1m4 0h2m1 0h1m1 0h1m3 0h4m1 0h3m1 0h1M4 94.5h3m1 0h3m4 0h3m3 0h2m3 0h1m3 0h1m2 0h1m3 0h1m1 0h1m1 0h2m1 0h1m1 0h3m1 0h1m4 0h2m1 0h1m1 0h5m2 0h1m2 0h3m2 0h5m1 0h2m1 0h3m2 0h2m2 0h4m2 0h1m1 0h1m1 0h1m1 0h1m1 0h1M6 95.5h1m5 0h1m2 0h3m1 0h6m1 0h2m2 0h1m1 0h1m3 0h1m4 0h1m1 0h1m1 0h5m2 0h4m2 0h2m1 0h2m1 0h2m3 0h3m1 0h2m1 0h2m1 0h1m1 0h3m3 0h2m4 0h1m2 0h3m2 0h1m1 0h2m1 0h3M4 96.5h8m3 0h1m1 0h1m1 0h1m2 0h1m2 0h6m1 0h1m4 0h1m5 0h1m2 0h2m2 0h1m2 0h2m1 0h2m2 0h1m3 0h1m2 0h4m1 0h1m2 0h2m1 0h3m4 0h1m4 0h1m1 0h1m1 0h3m3 0h1m2 0h4m1 0h1M8 97.5h2m2 0h2m1 0h1m1 0h1m1 0h1m1 0h1m3 0h1m3 0h3m2 0h1m1 0h1m1 0h1m2 0h1m1 0h1m3 0h2m1 0h1m1 0h1m1 0h2m1 0h1m1 0h1m1 0h1m2 0h2m3 0h2m1 0h2m1 0h2m4 0h1m6 0h1m5 0h2m1 0h1m4 0h1m1 0h1m1 0h3M4 98.5h3m3 0h1m2 0h4m1 0h1m5 0h2m3 0h2m1 0h1m1 0h1m2 0h4m1 0h1m1 0h6m1 0h1m1 0h1m2 0h3m1 0h1m1 0h2m1 0h1m4 0h1m2 0h2m1 0h1m1 0h1m1 0h3m1 0h1m1 0h1m2 0h2m2 0h2m1 0h2m2 0h1m2 0h3m1 0h1M6 99.5h1m1 0h2m1 0h1m2 0h1m1 0h1m1 0h1m2 0h2m1 0h1m5 0h4m1 0h1m2 0h2m6 0h4m1 0h8m4 0h2m3 0h1m2 0h6m1 0h2m1 0h3m4 0h1m1 0h2m1 0h2m2 0h1m1 0h2m2 0h2m1 0h2M7 100.5h2m1 0h2m1 0h1m3 0h1m1 0h3m1 0h1m4 0h9m1 0h1m2 0h1m2 0h2m1 0h1m2 0h9m1 0h2m1 0h1m2 0h3m3 0h3m1 0h9m1 0h4m2 0h1m3 0h1m1 0h9m1 0h1M12 101.5h1m1 0h1m4 0h1m3 0h3m2 0h1m3 0h7m1 0h2m5 0h3m2 0h1m3 0h2m1 0h7m1 0h1m1 0h1m2 0h1m3 0h1m3 0h2m1 0h1m2 0h3m1 0h1m3 0h1m3 0h1m1 0h1m3 0h1m1 0h2M4 102.5h7m1 0h8m2 0h1m1 0h1m2 0h2m1 0h1m1 0h1m1 0h1m1 0h6m2 0h9m1 0h1m1 0h2m2 0h1m1 0h1m1 0h2m1 0h1m3 0h3m1 0h2m1 0h1m1 0h9m1 0h4m1 0h1m1 0h4m1 0h1m1 0h1m2 0h1M4 103.5h1m5 0h1m2 0h1m2 0h1m2 0h1m5 0h2m1 0h1m3 0h1m1 0h4m2 0h1m1 0h1m3 0h1m1 0h2m1 0h2m3 0h1m2 0h1m2 0h1m1 0h1m1 0h7m2 0h2m3 0h2m2 0h1m3 0h1m1 0h4m2 0h1m1 0h1m1 0h1m3 0h1m2 0h1M4 104.5h1m1 0h3m1 0h1m2 0h2m1 0h3m4 0h1m2 0h7m3 0h3m1 0h2m2 0h2m2 0h1m1 0h8m2 0h2m4 0h1m1 0h1m1 0h1m2 0h2m1 0h7m6 0h1m1 0h1m4 0h1m2 0h6m2 0h1M4 105.5h1m1 0h3m1 0h1m4 0h1m1 0h1m2 0h2m1 0h2m1 0h1m2 0h1m1 0h2m1 0h2m1 0h3m5 0h3m1 0h1m3 0h3m1 0h3m1 0h1m1 0h1m2 0h1m1 0h1m3 0h2m8 0h1m3 0h1m2 0h5m1 0h1m1 0h1m1 0h2m5 0h1M4 106.5h1m1 0h3m1 0h1m1 0h2m3 0h1m1 0h3m2 0h1m2 0h1m1 0h1m3 0h2m2 0h3m1 0h1m2 0h4m4 0h1m1 0h2m4 0h1m1 0h1m1 0h1m2 0h2m1 0h1m2 0h1m2 0h4m4 0h1m3 0h1m1 0h2m1 0h1m4 0h3m3 0h1m1 0h3M4 107.5h1m5 0h1m9 0h3m1 0h2m1 0h2m1 0h6m1 0h1m2 0h1m1 0h1m1 0h2m4 0h1m2 0h1m9 0h1m5 0h1m1 0h3m1 0h2m3 0h1m3 0h1m7 0h2m3 0h2m1 0h1m2 0h1M4 108.5h7m1 0h6m1 0h2m2 0h1m1 0h2m3 0h5m8 0h1m1 0h2m3 0h1m1 0h4m2 0h4m1 0h5m2 0h1m2 0h2m1 0h2m1 0h1m2 0h1m2 0h1m2 0h3m1 0h2m1 0h5m3 0h1m1 0h2m1 0h1"/></svg>
