<svg xmlns="http://www.w3.org/2000/svg" viewBox="0 0 97 97" shape-rendering="crispEdges"><path fill="#ffffff" d="M0 0h97v97H0z"/><path stroke="#000000" d="M4 4.5h7m1 0h2m1 0h1m4 0h4m2 0h3m1 0h3m1 0h1m2 0h1m2 0h7m2 0h2m6 0h2m1 0h5m1 0h2m6 0h3m2 0h6m1 0h7M4 5.5h1m5 0h1m2 0h1m1 0h2m1 0h1m5 0h3m1 0h1m1 0h1m1 0h3m3 0h2m4 0h1m2 0h1m1 0h1m1 0h3m5 0h5m3 0h1m2 0h3m5 0h1m4 0h1m2 0h1m5 0h1M4 6.5h1m1 0h3m1 0h1m1 0h2m1 0h2m1 0h2m2 0h2m1 0h1m2 0h1m2 0h1m4 0h1m1 0h3m2 0h1m2 0h1m1 0h1m5 0h2m2 0h2m1 0h2m1 0h2m2 0h2m1 0h4m1 0h1m1 0h2m1 0h1m4 0h1m1 0h3m1 0h1M4 7.5h1m1 0h3m1 0h1m1 0h1m2 0h2m2 0h2m1 0h1m6 0h1m1 0h3m5 0h2m1 0h1m1 0h1m1 0h1m5 0h1m1 0h3m1 0h4m3 0h2m3 0h2m2 0h1m1 0h1m3 0h1m1 0h1m1 0h1m1 0h1m1 0h3m1 0h1M4 8.5h1m1 0h3m1 0h1m1 0h3m1 0h3m2 0h1m1 0h1m2 0h1m3 0h1m1 0h6m1 0h1m1 0h1m1 0h1m3 0h1m1 0h3m5 0h6m1 0h1m1 0h3m2 0h3m5 0h3m1 0h1m2 0h1m1 0h3m1 0h1M4 9.5h1m5 0h1m2 0h7m1 0h2m2 0h3m2 0h1m1 0h1m3 0h1m4 0h2m1 0h2m4 0h1m3 0h2m2 0h1m3 0h4m1 0h2m2 0h1m1 0h2m3 0h1m1 0h2m1 0h1m2 0h1m5 0h1M4 10.5h7m1 0h1m1 0h1m1 0h1m1 0h1m1 0h1m1 0h1m1 0h1m1 0h1m1 0h1m1 0h1m1 0h1m1 0h1m1 0h1m1 0h1m1 0h1m1 0h1m1 0h1m1 0h1m1 0h1m1 0h1m1 0h1m1 0h1m1 0h1m1 0h1m1 0h1m1 0h1m1 0h1m1 0h1m1 0h1m1 0h1m1 0h1m1 0h1m1 0h1m1 0h1m1 0h1m1 0h1m1 0h1m1 0h7M13 11.5h13m1 0h2m3 0h1m3 0h1m1 0h3m1 0h2m3 0h2m2 0h1m1 0h2m3 0h1m3 0h3m3 0h1m1 0h1m1 0h1m2 0h1m1 0h4m1 0h3M4 12.5h4m2 0h1m1 0h1m5 0h1m2 0h3m1 0h1m1 0h3m2 0h6m1 0h1m2 0h1m1 0h1m1 0h1m3 0h1m2 0h1m3 0h6m1 0h1m1 0h1m1 0h1m4 0h1m1 0h1m1 0h1m3 0h3m1 0h1m2 0h3m1 0h1M5 13.5h4m5 0h1m4 0h1m2 0h1m5 0h1m1 0h6m4 0h1m2 0h2m2 0h1m2 0h2m2 0h1m1 0h1m3 0h1m1 0h1m3 0h1m2 0h2m4 0h1m1 0h1m1 0h1m1 0h1m1 0h5m2 0h2M5 14.5h3m1 0h3m2 0h1m1 0h3m3 0h1m2 0h1m1 0h2m1 0h2m1 0h1m1 0h1m1 0h1m2 0h1m2 0h5m1 0h3m5 0h1m2 0h1m3 0h1m2 0h1m4 0h1m2 0h2m1 0h2m1 0h4m1 0h1m1 0h3m1 0h1M5 15.5h1m1 0h3m1 0h2m1 0h2m1 0h5m5 0h3m3 0h1m6 0h1m1 0h2m1 0h1m2 0h4m1 0h1m1 0h1m2 0h1m2 0h1m1 0h4m2 0h1m1 0h1m2 0h1m1 0h1m3 0h1m2 0h2m7 0h1M5 16.5h1m3 0h4m2 0h6m2 0h2m1 0h3m4 0h3m3 0h2m2 0h2m2 0h3m1 0h1m2 0h2m1 0h1m1 0h2m2 0h2m1 0h2m2 0h1m1 0h1m1 0h1m1 0h1m5 0h2m2 0h1m1 0h1m1 0h3M4 17.5h3m1 0h1m2 0h3m5 0h2m4 0h1m1 0h1m2 0h2m1 0h2m1 0h2m2 0h1m2 0h4m2 0h2m1 0h1m4 0h3m3 0h1m1 0h1m2 0h1m1 0h2m1 0h1m1 0h1m1 0h5m1 0h2m2 0h1m4 0h1M4 18.5h1m5 0h5m2 0h2m1 0h2m3 0h1m1 0h2m2 0h1m1 0h1m1 0h2m1 0h1m4 0h1m4 0h2m3 0h1m1 0h2m2 0h7m2 0h1m1 0h1m1 0h2m1 0h3m2 0h1m3 0h3m3 0h3M4 19.5h1m2 0h3m2 0h1m3 0h2m1 0h2m1 0h2m4 0h2m2 0h1m1 0h1m2 0h3m1 0h1m1 0h1m1 0h1m1 0h2m2 0h2m1 0h1m4 0h1m1 0h2m3 0h4m7 0h1m2 0h3m2 0h2m5 0h1M5 20.5h1m1 0h1m2 0h2m1 0h1m1 0h6m1 0h3m2 0h3m4 0h1m3 0h3m4 0h4m4 0h2m2 0h1m2 0h6m2 0h2m3 0h1m1 0h1m3 0h3m2 0h4m1 0h1M4 21.5h1m1 0h1m1 0h2m1 0h1m1 0h1m1 0h2m2 0h1m2 0h2m4 0h1m2 0h1m2 0h1m4 0h1m4 0h1m4 0h1m2 0h3m3 0h3m2 0h1m1 0h1m1 0h1m1 0h6m1 0h2m3 0h2m5 0h1m1 0h1M4 22.5h2m1 0h2m1 0h1m1 0h6m3 0h4m1 0h1m2 0h1m2 0h2m2 0h6m3 0h2m5 0h2m1 0h4m2 0h1m1 0h1m1 0h1m1 0h1m1 0h1m1 0h3m1 0h6m2 0h1m1 0h4m2 0h2M8 23.5h2m1 0h1m3 0h2m1 0h2m1 0h2m1 0h5m1 0h1m3 0h6m1 0h3m2 0h2m1 0h1m1 0h1m2 0h2m2 0h1m2 0h3m1 0h1m2 0h1m1 0h3m1 0h1m1 0h1m2 0h1m2 0h2m2 0h2m1 0h1m1 0h1M5 24.5h3m1 0h2m1 0h2m1 0h3m1 0h2m2 0h1m7 0h3m1 0h1m1 0h4m6 0h1m3 0h4m1 0h2m1 0h1m2 0h4m1 0h1m1 0h1m3 0h3m1 0h1m1 0h1m2 0h2m1 0h2m1 0h1M4 25.5h1m4 0h1m1 0h1m7 0h5m1 0h1m3 0h1m1 0h3m3 0h3m2 0h2m3 0h6m1 0h2m1 0h2m1 0h2m7 0h1m2 0h2m1 0h1m2 0h1m5 0h5m2 0h2M4 26.5h3m1 0h1m1 0h1m2 0h3m1 0h1m1 0h1m2 0h1m1 0h2m1 0h1m2 0h2m1 0h3m3 0h1m1 0h1m1 0h2m2 0h1m2 0h1m2 0h5m1 0h2m1 0h2m1 0h1m3 0h2m5 0h2m1 0h3m2 0h4m2 0h3M5 27.5h1m1 0h3m4 0h3m1 0h2m4 0h1m3 0h1m2 0h1m5 0h2m1 0h1m2 0h10m2 0h1m1 0h7m1 0h2m1 0h2m1 0h1m1 0h1m1 0h1m2 0h3m1 0h1m3 0h1m4 0h1M9 28.5h8m1 0h3m4 0h1m2 0h3m3 0h12m1 0h2m2 0h2m2 0h2m1 0h1m2 0h3m2 0h2m1 0h2m1 0h2m1 0h1m3 0h1m1 0h3m2 0h1m3 0h3M4 29.5h1m1 0h1m2 0h1m1 0h1m1 0h1m2 0h3m1 0h2m5 0h2m2 0h1m2 0h1m1 0h1m1 0h3m1 0h4m2 0h4m3 0h3m1 0h2m2 0h1m5 0h4m3 0h1m4 0h1m1 0h3m1 0h1m3 0h1M4 30.5h7m1 0h1m1 0h1m2 0h1m2 0h2m1 0h1m4 0h3m4 0h1m4 0h2m3 0h1m5 0h2m2 0h1m1 0h4m1 0h2m3 0h4m1 0h1m2 0h2m1 0h1m2 0h1m1 0h1m1 0h1m1 0h3M5 31.5h1m1 0h2m4 0h2m3 0h1m1 0h1m1 0h1m2 0h1m4 0h5m2 0h1m1 0h6m1 0h1m4 0h1m1 0h1m2 0h1m1 0h4m1 0h2m1 0h1m1 0h3m1 0h6m2 0h1m1 0h6m1 0h1M4 32.5h3m1 0h6m1 0h3m8 0h2m1 0h2m1 0h6m2 0h1m1 0h1m4 0h1m1 0h1m2 0h1m1 0h9m1 0h3m4 0h2m2 0h1m5 0h1m1 0h6M4 33.5h2m2 0h1m3 0h1m3 0h3m7 0h7m3 0h1m1 0h1m2 0h1m1 0h1m1 0h5m3 0h1m4 0h1m3 0h3m2 0h1m4 0h4m1 0h1m1 0h2m2 0h2m3 0h3M4 34.5h1m1 0h3m1 0h1m1 0h1m1 0h2m2 0h3m2 0h2m1 0h7m1 0h1m1 0h1m4 0h1m1 0h2m2 0h1m5 0h4m1 0h1m1 0h1m1 0h1m1 0h1m2 0h1m1 0h3m3 0h1m1 0h2m2 0h1m2 0h1m1 0h1m1 0h1m3 0h1M4 35.5h1m3 0h1m3 0h1m1 0h1m1 0h1m1 0h3m1 0h3m1 0h1m1 0h5m3 0h1m2 0h1m1 0h2m1 0h7m6 0h2m3 0h1m1 0h2m3 0h1m1 0h2m3 0h1m1 0h1m1 0h2m2 0h1m3 0h4M4 36.5h11m1 0h1m3 0h1m1 0h1m2 0h2m1 0h2m1 0h9m1 0h1m5 0h2m2 0h2m5 0h5m5 0h5m1 0h1m1 0h2m1 0h4m1 0h6M4 37.5h2m6 0h1m2 0h2m1 0h3m1 0h2m3 0h1m3 0h1m1 0h1m1 0h5m4 0h1m1 0h1m1 0h3m4 0h2m2 0h2m1 0h1m2 0h2m2 0h2m3 0h1m2 0h2m2 0h2m3 0h3m1 0h2M5 38.5h1m2 0h4m3 0h1m1 0h2m2 0h1m2 0h1m2 0h1m1 0h3m1 0h1m1 0h2m2 0h2m3 0h1m1 0h4m1 0h5m9 0h8m1 0h5m1 0h2m1 0h1m3 0h2m2 0h1M4 39.5h1m1 0h3m3 0h3m5 0h2m1 0h1m2 0h3m1 0h2m2 0h2m5 0h3m1 0h1m1 0h1m2 0h3m3 0h1m2 0h2m3 0h2m3 0h1m1 0h1m8 0h4m5 0h2M5 40.5h8m4 0h2m2 0h1m1 0h2m1 0h1m2 0h1m3 0h4m4 0h1m1 0h2m4 0h1m2 0h2m4 0h1m1 0h1m2 0h1m2 0h3m2 0h1m1 0h1m2 0h2m1 0h1m1 0h5m2 0h3M7 41.5h1m3 0h1m1 0h1m1 0h1m1 0h4m3 0h1m2 0h2m3 0h3m2 0h1m1 0h3m1 0h1m3 0h2m3 0h1m2 0h2m4 0h1m4 0h1m2 0h1m2 0h1m1 0h1m2 0h6m1 0h5m2 0h2M5 42.5h1m1 0h6m1 0h1m1 0h3m3 0h1m4 0h1m1 0h1m1 0h3m6 0h3m4 0h1m3 0h3m6 0h2m1 0h2m4 0h7m4 0h1m2 0h4m2 0h4M5 43.5h2m2 0h1m2 0h1m2 0h3m2 0h2m1 0h5m3 0h4m1 0h1m1 0h1m1 0h6m1 0h4m1 0h2m1 0h1m2 0h5m1 0h3m3 0h1m3 0h1m2 0h1m5 0h1m1 0h2m3 0h1M4 44.5h3m1 0h1m1 0h1m1 0h1m3 0h1m6 0h2m3 0h3m3 0h1m2 0h1m2 0h1m3 0h1m1 0h2m3 0h1m1 0h2m2 0h2m4 0h1m1 0h2m1 0h2m1 0h1m1 0h1m2 0h3m2 0h1m1 0h1m3 0h1m3 0h1M6 45.5h2m1 0h1m2 0h3m1 0h1m4 0h4m1 0h4m1 0h4m2 0h1m2 0h2m1 0h2m1 0h3m1 0h3m2 0h1m2 0h1m4 0h1m1 0h1m4 0h1m1 0h1m3 0h2m2 0h2m3 0h1m1 0h2m1 0h1m1 0h1M4 46.5h1m3 0h3m1 0h1m1 0h1m1 0h2m1 0h1m1 0h2m1 0h1m1 0h1m1 0h3m2 0h3m1 0h5m3 0h1m2 0h3m2 0h1m4 0h1m8 0h2m2 0h2m1 0h1m1 0h1m1 0h1m1 0h3m1 0h6m2 0h1M4 47.5h1m1 0h2m1 0h1m3 0h3m1 0h1m3 0h5m1 0h1m2 0h1m2 0h4m1 0h2m1 0h1m1 0h2m1 0h1m2 0h10m1 0h1m5 0h1m1 0h2m1 0h3m1 0h2m1 0h1m1 0h3m2 0h3m1 0h3M5 48.5h2m3 0h1m3 0h3m1 0h1m3 0h1m1 0h2m2 0h2m2 0h1m1 0h1m4 0h1m1 0h2m2 0h2m1 0h4m3 0h1m1 0h1m1 0h1m1 0h2m3 0h2m2 0h2m1 0h2m1 0h3m1 0h3m2 0h2m1 0h1m2 0h1M5 49.5h1m1 0h1m4 0h1m3 0h2m2 0h3m1 0h2m1 0h3m3 0h2m1 0h1m1 0h2m2 0h1m1 0h1m1 0h1m1 0h1m1 0h2m2 0h2m1 0h1m1 0h1m3 0h3m4 0h1m4 0h2m3 0h1m4 0h1m4 0h2M5 50.5h2m3 0h3m1 0h2m1 0h2m1 0h2m2 0h2m2 0h1m2 0h1m1 0h1m3 0h1m1 0h1m1 0h2m3 0h4m2 0h1m1 0h1m2 0h2m4 0h5m1 0h1m1 0h1m1 0h2m1 0h2m3 0h2m2 0h2m2 0h1m2 0h1M5 51.5h2m1 0h2m3 0h1m1 0h1m1 0h6m3 0h2m1 0h1m1 0h2m2 0h1m5 0h2m4 0h1m1 0h3m1 0h2m4 0h4m2 0h1m2 0h1m2 0h1m2 0h2m4 0h3m3 0h1m2 0h3M6 52.5h1m1 0h1m1 0h2m1 0h4m1 0h1m3 0h6m1 0h1m3 0h1m2 0h2m1 0h7m1 0h3m4 0h1m1 0h1m5 0h8m5 0h1m1 0h2m1 0h1m1 0h2m7 0h1M5 53.5h1m1 0h3m1 0h2m1 0h1m1 0h1m4 0h2m1 0h2m3 0h2m2 0h3m1 0h2m1 0h3m1 0h2m1 0h1m9 0h1m2 0h1m4 0h2m1 0h2m1 0h1m2 0h2m5 0h2m1 0h1m2 0h2m1 0h3M6 54.5h3m1 0h2m1 0h1m1 0h1m6 0h1m1 0h2m2 0h1m3 0h1m2 0h1m1 0h5m2 0h1m2 0h1m3 0h1m3 0h2m1 0h3m1 0h5m1 0h1m1 0h4m1 0h1m1 0h1m1 0h1m1 0h4m3 0h1m1 0h3M4 55.5h1m2 0h1m3 0h1m3 0h2m3 0h2m2 0h1m1 0h3m1 0h2m4 0h2m1 0h1m1 0h1m1 0h1m2 0h2m1 0h1m1 0h1m2 0h1m1 0h1m2 0h1m3 0h4m2 0h2m4 0h1m3 0h1m2 0h1m1 0h1m7 0h1M4 56.5h1m3 0h1m1 0h2m1 0h1m2 0h7m1 0h2m1 0h2m2 0h1m1 0h1m1 0h2m2 0h2m1 0h2m1 0h1m1 0h1m3 0h1m3 0h2m2 0h5m3 0h2m5 0h2m3 0h1m1 0h2m1 0h1m1 0h4M4 57.5h2m1 0h1m3 0h1m2 0h11m4 0h1m1 0h3m1 0h4m5 0h1m1 0h5m2 0h3m1 0h1m1 0h1m2 0h1m3 0h1m1 0h4m2 0h2m1 0h1m3 0h1m3 0h3m1 0h1m1 0h2M4 58.5h1m1 0h1m1 0h7m1 0h1m5 0h1m2 0h1m1 0h1m3 0h6m1 0h2m1 0h2m1 0h2m3 0h1m1 0h1m1 0h12m1 0h1m2 0h2m1 0h1m2 0h1m2 0h1m3 0h1m1 0h5m3 0h1M4 59.5h3m1 0h1m3 0h2m3 0h1m1 0h4m1 0h1m2 0h2m1 0h1m1 0h1m3 0h1m8 0h2m3 0h1m4 0h1m1 0h2m3 0h3m1 0h1m2 0h1m1 0h2m1 0h4m3 0h2m1 0h1m3 0h1m1 0h3M5 60.5h4m1 0h1m1 0h5m2 0h2m1 0h1m1 0h3m1 0h1m1 0h1m1 0h1m1 0h1m1 0h2m1 0h3m2 0h1m1 0h1m2 0h2m2 0h4m1 0h1m1 0h1m1 0h1m1 0h1m2 0h2m3 0h3m2 0h1m1 0h1m1 0h1m1 0h2m1 0h1m1 0h1m2 0h1M6 61.5h1m1 0h1m3 0h1m1 0h2m2 0h5m1 0h1m2 0h1m2 0h3m3 0h5m1 0h3m1 0h2m5 0h2m2 0h2m3 0h1m3 0h1m4 0h2m1 0h2m2 0h4m2 0h1m3 0h4M8 62.5h6m1 0h1m1 0h1m1 0h1m1 0h2m1 0h1m1 0h1m1 0h1m1 0h8m1 0h2m2 0h4m1 0h1m1 0h4m4 0h5m3 0h4m3 0h9m1 0h8M4 63.5h1m2 0h1m1 0h1m2 0h1m1 0h1m2 0h1m6 0h2m1 0h1m1 0h1m4 0h2m2 0h1m2 0h1m4 0h1m3 0h2m1 0h4m10 0h7m1 0h4m2 0h1m3 0h1m1 0h1m3 0h2M4 64.5h1m1 0h1m1 0h3m1 0h1m2 0h1m1 0h3m1 0h1m1 0h1m1 0h2m3 0h3m3 0h1m3 0h1m1 0h2m1 0h2m1 0h1m7 0h2m4 0h1m1 0h1m1 0h1m1 0h2m2 0h2m2 0h1m1 0h3m1 0h1m1 0h1m2 0h2m1 0h3M6 65.5h1m1 0h2m1 0h1m1 0h2m1 0h1m1 0h1m1 0h4m1 0h1m1 0h1m2 0h1m2 0h1m1 0h2m6 0h3m2 0h1m1 0h1m1 0h1m1 0h2m1 0h2m2 0h2m6 0h2m4 0h1m2 0h1m3 0h2m1 0h1m1 0h1m1 0h1M5 66.5h2m1 0h3m3 0h1m1 0h1m1 0h2m4 0h1m3 0h3m2 0h1m2 0h1m1 0h1m1 0h2m5 0h1m1 0h2m8 0h3m2 0h2m1 0h1m1 0h1m7 0h1m1 0h3m5 0h1m2 0h1m1 0h1M5 67.5h2m2 0h1m2 0h1m2 0h1m3 0h3m2 0h3m7 0h2m1 0h1m1 0h3m1 0h5m3 0h3m1 0h1m7 0h1m1 0h1m2 0h2m1 0h2m1 0h5m5 0h2m1 0h2m1 0h2M4 68.5h3m1 0h1m1 0h3m3 0h2m4 0h1m1 0h2m1 0h1m2 0h2m1 0h1m6 0h1m1 0h1m1 0h3m1 0h1m6 0h1m1 0h4m2 0h2m1 0h2m2 0h1m4 0h1m2 0h2m1 0h3m2 0h1m2 0h2M5 69.5h1m1 0h1m8 0h2m1 0h1m2 0h2m3 0h3m1 0h2m6 0h1m7 0h2m1 0h2m1 0h3m1 0h1m2 0h1m1 0h2m2 0h5m1 0h2m2 0h1m1 0h1m2 0h1m1 0h3m2 0h2M4 70.5h3m3 0h1m1 0h1m1 0h1m1 0h2m3 0h1m1 0h1m1 0h1m1 0h2m4 0h2m1 0h3m2 0h1m3 0h1m3 0h1m1 0h1m2 0h2m3 0h1m1 0h1m1 0h1m3 0h4m2 0h2m2 0h2m3 0h1m1 0h2m1 0h4M4 71.5h2m5 0h1m1 0h3m1 0h1m1 0h2m1 0h5m1 0h3m1 0h1m1 0h3m1 0h1m5 0h4m1 0h1m1 0h5m1 0h3m1 0h3m1 0h1m1 0h1m1 0h1m2 0h3m2 0h1m1 0h1m1 0h4m1 0h6M4 72.5h2m2 0h3m3 0h1m1 0h1m1 0h1m3 0h1m1 0h2m3 0h1m1 0h3m1 0h1m1 0h1m1 0h1m3 0h4m1 0h1m2 0h1m2 0h3m2 0h2m2 0h1m4 0h5m1 0h2m1 0h3m7 0h1m1 0h1m1 0h1M5 73.5h1m2 0h1m3 0h4m1 0h2m1 0h1m1 0h2m2 0h1m2 0h2m2 0h2m2 0h2m2 0h1m2 0h1m6 0h2m3 0h1m1 0h2m3 0h1m4 0h3m1 0h1m1 0h1m1 0h1m1 0h2m1 0h1m2 0h1m1 0h2m3 0h2M5 74.5h2m1 0h4m1 0h7m1 0h2m1 0h1m1 0h2m4 0h1m2 0h1m1 0h1m1 0h2m4 0h1m1 0h1m4 0h1m1 0h3m3 0h1m1 0h1m1 0h2m1 0h2m2 0h3m2 0h1m3 0h1m1 0h1m3 0h1m5 0h1M4 75.5h2m1 0h2m4 0h2m4 0h2m2 0h1m4 0h4m1 0h1m2 0h4m1 0h5m4 0h4m2 0h1m4 0h1m1 0h1m3 0h2m2 0h2m1 0h4m1 0h5m1 0h1m1 0h1m1 0h1M4 76.5h1m1 0h1m3 0h1m3 0h1m3 0h3m1 0h1m1 0h1m1 0h1m1 0h1m1 0h1m2 0h3m1 0h4m1 0h5m1 0h1m3 0h1m3 0h2m1 0h3m1 0h1m3 0h1m1 0h1m2 0h5m2 0h1m1 0h2m1 0h6m1 0h2M4 77.5h1m2 0h1m3 0h1m1 0h2m1 0h1m1 0h2m1 0h1m1 0h1m3 0h7m2 0h5m3 0h1m1 0h1m1 0h1m5 0h2m2 0h3m1 0h1m4 0h1m2 0h1m2 0h2m1 0h2m1 0h2m1 0h1m2 0h1m1 0h1m3 0h2M6 78.5h1m2 0h2m3 0h3m1 0h1m1 0h1m1 0h2m2 0h2m2 0h1m4 0h1m9 0h1m1 0h4m1 0h1m2 0h2m1 0h6m2 0h2m4 0h1m1 0h1m4 0h2m2 0h2m2 0h4M5 79.5h1m2 0h2m1 0h3m1 0h1m2 0h4m3 0h1m1 0h1m1 0h2m1 0h1m2 0h8m2 0h2m2 0h1m7 0h1m1 0h4m1 0h3m1 0h1m4 0h1m3 0h1m2 0h1m2 0h1m1 0h3m3 0h1M5 80.5h2m1 0h1m1 0h1m1 0h7m1 0h3m3 0h2m2 0h1m2 0h3m2 0h2m1 0h1m1 0h4m1 0h1m1 0h3m1 0h3m4 0h2m1 0h4m1 0h1m1 0h1m1 0h1m1 0h2m7 0h1m1 0h3m2 0h2M5 81.5h1m1 0h1m1 0h1m4 0h3m1 0h1m1 0h1m5 0h1m6 0h1m1 0h3m1 0h2m2 0h3m1 0h2m2 0h6m2 0h1m2 0h2m1 0h2m3 0h3m2 0h4m1 0h3m2 0h1m2 0h1m1 0h1m1 0h1M4 82.5h1m2 0h1m2 0h1m1 0h1m1 0h1m3 0h2m3 0h2m1 0h1m3 0h3m1 0h1m4 0h2m3 0h2m2 0h1m3 0h2m2 0h1m1 0h7m3 0h1m2 0h2m2 0h1m1 0h1m1 0h2m6 0h3m2 0h1M4 83.5h2m2 0h2m2 0h2m1 0h1m1 0h1m2 0h2m1 0h1m1 0h1m3 0h1m2 0h1m3 0h2m1 0h1m1 0h2m1 0h2m2 0h1m1 0h1m1 0h1m1 0h3m1 0h3m6 0h2m4 0h4m1 0h1m1 0h4m1 0h2m1 0h1M4 84.5h1m2 0h1m2 0h3m1 0h6m1 0h3m1 0h3m1 0h1m1 0h8m2 0h1m1 0h4m1 0h1m1 0h4m3 0h10m2 0h1m4 0h2m2 0h1m1 0h1m2 0h6m2 0h1M12 85.5h1m3 0h2m2 0h1m3 0h1m2 0h1m2 0h1m1 0h1m3 0h3m1 0h6m1 0h1m3 0h2m1 0h2m2 0h1m3 0h2m1 0h1m1 0h3m1 0h3m1 0h1m2 0h5m1 0h1m3 0h3M4 86.5h7m5 0h2m2 0h3m1 0h1m4 0h2m1 0h1m1 0h1m1 0h1m1 0h1m3 0h7m2 0h1m2 0h5m1 0h1m1 0h6m6 0h3m1 0h2m1 0h1m1 0h2m1 0h1m1 0h1m1 0h1m1 0h1M4 87.5h1m5 0h1m4 0h1m3 0h1m2 0h1m3 0h1m1 0h1m1 0h1m1 0h1m3 0h3m1 0h1m1 0h2m1 0h2m1 0h1m1 0h1m2 0h2m1 0h1m1 0h1m3 0h1m1 0h1m1 0h2m1 0h1m2 0h3m2 0h3m1 0h4m3 0h1M4 88.5h1m1 0h3m1 0h1m3 0h1m1 0h2m1 0h1m1 0h4m3 0h2m2 0h6m2 0h1m1 0h1m3 0h1m2 0h4m3 0h10m1 0h2m5 0h1m1 0h1m2 0h2m1 0h1m1 0h5m1 0h1m1 0h1M4 89.5h1m1 0h3m1 0h1m1 0h1m1 0h1m1 0h1m1 0h2m15 0h2m2 0h1m1 0h3m1 0h1m1 0h1m1 0h1m1 0h1m2 0h1m1 0h1m1 0h2m1 0h1m1 0h3m1 0h1m1 0h1m1 0h1m1 0h3m1 0h2m5 0h3M4 90.5h1m1 0h3m1 0h1m1 0h1m2 0h2m4 0h1m1 0h2m2 0h2m2 0h2m2 0h1m3 0h1m1 0h1m3 0h1m1 0h3m1 0h4m1 0h1m3 0h1m5 0h1m1 0h2m1 0h6m2 0h1m1 0h1m1 0h2m1 0h3m3 0h1M4 91.5h1m5 0h1m1 0h2m1 0h1m4 0h2m3 0h3m1 0h3m3 0h1m1 0h1m1 0h1m3 0h2m4 0h1m1 0h2m5 0h2m2 0h1m5 0h1m1 0h2m4 0h4m1 0h1m1 0h3m1 0h3m1 0h1M4 92.5h7m1 0h2m3 0h1m3 0h1m3 0h5m1 0h4m5 0h1m1 0h1m1 0h2m2 0h1m2 0h1m3 0h3m5 0h2m5 0h1m5 0h4m2 0h4m1 0h2m2 0h1"/></svg>
