<svg xmlns="http://www.w3.org/2000/svg" viewBox="0 0 113 113" shape-rendering="crispEdges"><path fill="#ffffff" d="M0 0h113v113H0z"/><path stroke="#000000" d="M4 4.5h7m3 0h2m4 0h1m1 0h2m1 0h3m6 0h2m1 0h1m3 0h1m1 0h2m1 0h3m3 0h1m3 0h1m1 0h1m2 0h3m2 0h2m2 0h2m1 0h3m1 0h4m3 0h2m9 0h1m2 0h1m3 0h7M4 5.5h1m5 0h1m1 0h1m1 0h1m1 0h2m2 0h4m2 0h1m3 0h1m2 0h1m7 0h3m2 0h4m4 0h3m2 0h1m1 0h3m1 0h1m1 0h1m1 0h1m1 0h2m1 0h2m3 0h1m1 0h2m1 0h1m1 0h2m1 0h4m3 0h3m3 0h1m5 0h1M4 6.5h1m1 0h3m1 0h1m3 0h1m2 0h1m1 0h1m1 0h2m1 0h2m2 0h1m2 0h2m1 0h5m2 0h8m2 0h1m2 0h5m2 0h2m2 0h1m5 0h1m1 0h1m1 0h1m1 0h3m1 0h2m1 0h1m9 0h6m2 0h1m1 0h3m1 0h1M4 7.5h1m1 0h3m1 0h1m1 0h1m1 0h2m2 0h3m5 0h2m3 0h1m1 0h2m1 0h4m2 0h1m4 0h1m1 0h2m1 0h3m1 0h4m5 0h2m1 0h4m3 0h2m2 0h1m2 0h4m3 0h2m3 0h4m2 0h1m1 0h1m1 0h3m1 0h1M4 8.5h1m1 0h3m1 0h1m6 0h4m3 0h2m2 0h9m1 0h1m2 0h6m4 0h7m3 0h3m1 0h2m1 0h5m2 0h7m3 0h1m1 0h2m3 0h1m1 0h1m4 0h2m1 0h1m1 0h3m1 0h1M4 9.5h1m5 0h1m1 0h2m1 0h5m1 0h2m4 0h2m3 0h1m1 0h2m2 0h1m1 0h1m3 0h1m1 0h2m1 0h1m1 0h2m3 0h1m1 0h1m3 0h2m1 0h1m2 0h1m2 0h2m3 0h1m3 0h3m1 0h2m1 0h2m6 0h1m1 0h1m1 0h1m2 0h1m5 0h1M4 10.5h7m1 0h1m1 0h1m1 0h1m1 0h1m1 0h1m1 0h1m1 0h1m1 0h1m1 0h1m1 0h1m1 0h1m1 0h1m1 0h1m1 0h1m1 0h1m1 0h1m1 0h1m1 0h1m1 0h1m1 0h1m1 0h1m1 0h1m1 0h1m1 0h1m1 0h1m1 0h1m1 0h1m1 0h1m1 0h1m1 0h1m1 0h1m1 0h1m1 0h1m1 0h1m1 0h1m1 0h1m1 0h1m1 0h1m1 0h1m1 0h1m1 0h1m1 0h1m1 0h1m1 0h1m1 0h1m1 0h7M14 11.5h6m2 0h4m1 0h2m3 0h6m2 0h3m3 0h1m5 0h1m3 0h1m1 0h5m3 0h2m1 0h1m1 0h1m2 0h1m1 0h1m3 0h3m3 0h1m1 0h2m1 0h2m2 0h1m1 0h3M4 12.5h5m1 0h3m4 0h1m1 0h2m1 0h1m2 0h1m2 0h5m1 0h2m1 0h2m1 0h5m1 0h1m1 0h2m1 0h9m3 0h3m1 0h3m5 0h6m1 0h4m1 0h2m2 0h6m2 0h3m1 0h1m1 0h1m1 0h1M4 13.5h1m1 0h4m3 0h2m1 0h1m1 0h1m3 0h1m4 0h6m1 0h1m2 0h2m1 0h7m1 0h3m2 0h3m1 0h1m2 0h2m1 0h2m1 0h3m2 0h1m1 0h2m1 0h4m2 0h1m3 0h3m2 0h1m2 0h2m1 0h1m3 0h2m3 0h1M4 14.5h1m2 0h11m2 0h1m2 0h3m2 0h2m6 0h1m1 0h1m1 0h1m1 0h2m2 0h1m1 0h2m1 0h3m1 0h1m1 0h3m1 0h5m1 0h3m1 0h1m2 0h3m4 0h2m1 0h1m3 0h1m1 0h1m3 0h5m1 0h1m2 0h1m1 0h1m2 0h1M6 15.5h4m2 0h1m5 0h1m2 0h1m1 0h3m2 0h4m1 0h1m2 0h1m2 0h1m1 0h7m1 0h4m1 0h1m1 0h3m5 0h1m2 0h1m2 0h1m1 0h4m5 0h1m1 0h1m3 0h3m1 0h1m6 0h1m1 0h1m3 0h1m3 0h1M8 16.5h3m1 0h1m1 0h2m1 0h1m2 0h1m4 0h2m1 0h1m4 0h1m8 0h7m4 0h6m1 0h1m1 0h3m1 0h10m2 0h2m1 0h1m1 0h2m1 0h4m1 0h1m1 0h1m2 0h1m1 0h1m2 0h1m3 0h1M6 17.5h3m2 0h1m1 0h1m1 0h2m5 0h5m1 0h2m1 0h1m2 0h1m3 0h2m1 0h2m1 0h3m2 0h3m4 0h1m3 0h3m1 0h2m2 0h5m1 0h2m1 0h7m1 0h1m5 0h4m1 0h1m1 0h1m1 0h1m3 0h1M5 18.5h1m2 0h1m1 0h1m3 0h6m1 0h1m1 0h3m1 0h1m2 0h4m5 0h1m5 0h4m1 0h2m1 0h3m2 0h4m1 0h3m6 0h3m1 0h4m1 0h1m2 0h3m1 0h1m2 0h1m2 0h2m3 0h3m3 0h1m2 0h1M6 19.5h1m1 0h1m2 0h2m2 0h1m1 0h1m1 0h2m2 0h1m1 0h1m2 0h1m4 0h3m1 0h1m4 0h3m3 0h2m1 0h1m2 0h3m1 0h1m2 0h4m3 0h2m10 0h1m1 0h1m2 0h2m1 0h5m1 0h3m2 0h4m1 0h1m2 0h2M6 20.5h2m1 0h4m1 0h2m5 0h3m1 0h2m3 0h3m1 0h2m1 0h1m2 0h1m2 0h1m1 0h1m1 0h1m3 0h5m1 0h2m1 0h1m2 0h1m1 0h2m2 0h1m2 0h3m2 0h1m3 0h3m1 0h4m1 0h1m2 0h1m1 0h1m1 0h1m1 0h1m1 0h2m1 0h1m2 0h2M5 21.5h3m3 0h2m1 0h4m2 0h2m3 0h1m4 0h1m2 0h3m1 0h5m2 0h1m1 0h1m1 0h2m2 0h1m1 0h1m3 0h1m2 0h1m1 0h1m2 0h6m1 0h1m1 0h1m1 0h1m1 0h1m2 0h1m2 0h1m1 0h1m1 0h1m1 0h3m2 0h2m3 0h3m1 0h3M4 22.5h1m2 0h2m1 0h4m1 0h4m1 0h6m1 0h3m2 0h2m2 0h1m6 0h1m6 0h6m1 0h1m4 0h1m1 0h3m2 0h2m2 0h1m2 0h1m5 0h2m1 0h3m2 0h1m1 0h1m1 0h7m1 0h2m1 0h2m1 0h1M4 23.5h3m4 0h1m3 0h1m1 0h1m1 0h1m1 0h2m5 0h4m2 0h2m1 0h2m1 0h2m2 0h1m1 0h1m3 0h1m5 0h4m1 0h3m3 0h1m2 0h5m5 0h3m2 0h2m1 0h1m1 0h1m1 0h1m4 0h1m2 0h2m1 0h1m2 0h1m1 0h1M6 24.5h1m1 0h1m1 0h1m1 0h5m1 0h2m1 0h1m1 0h1m1 0h1m1 0h3m1 0h2m1 0h2m1 0h1m1 0h6m1 0h1m2 0h1m1 0h1m2 0h5m1 0h1m1 0h2m2 0h1m5 0h5m3 0h2m1 0h2m4 0h1m2 0h1m1 0h2m6 0h1m1 0h1m1 0h1m1 0h1M5 25.5h2m2 0h1m1 0h3m2 0h1m4 0h1m1 0h2m1 0h1m2 0h1m1 0h3m1 0h1m1 0h3m1 0h2m1 0h1m1 0h4m1 0h1m3 0h2m3 0h2m4 0h2m1 0h3m1 0h1m2 0h2m2 0h1m1 0h7m1 0h2m2 0h1m3 0h1m3 0h1m1 0h1m1 0h2M7 26.5h1m1 0h2m4 0h1m2 0h7m2 0h1m2 0h1m1 0h1m2 0h1m1 0h1m3 0h3m3 0h1m2 0h1m1 0h1m4 0h3m2 0h1m1 0h1m1 0h1m1 0h1m1 0h1m1 0h3m6 0h3m2 0h1m2 0h1m3 0h1m3 0h1m1 0h1m1 0h3m1 0h1m1 0h1M5 27.5h1m1 0h2m2 0h1m3 0h1m2 0h1m4 0h2m2 0h2m1 0h3m4 0h1m1 0h2m1 0h1m3 0h1m2 0h2m1 0h3m1 0h4m1 0h1m1 0h2m4 0h1m1 0h1m5 0h2m1 0h1m2 0h1m1 0h1m4 0h1m1 0h1m3 0h1m1 0h1m2 0h2m1 0h5M8 28.5h5m1 0h1m1 0h2m2 0h1m1 0h2m1 0h2m1 0h5m1 0h1m1 0h2m1 0h2m1 0h2m3 0h1m4 0h7m1 0h1m1 0h1m1 0h1m1 0h1m2 0h1m3 0h1m1 0h10m2 0h2m1 0h3m1 0h1m1 0h1m1 0h1m1 0h5M6 29.5h1m1 0h1m3 0h1m3 0h1m1 0h2m1 0h4m3 0h1m3 0h2m1 0h1m4 0h1m3 0h4m2 0h1m1 0h1m3 0h1m1 0h2m1 0h2m1 0h2m3 0h2m2 0h4m3 0h4m1 0h2m1 0h4m1 0h1m3 0h2m1 0h1m3 0h1m2 0h2M4 30.5h1m1 0h3m1 0h1m1 0h2m1 0h1m6 0h2m1 0h4m1 0h1m1 0h2m1 0h1m1 0h1m1 0h1m1 0h1m4 0h1m2 0h1m2 0h1m1 0h1m1 0h4m2 0h4m1 0h3m1 0h1m1 0h2m1 0h1m1 0h1m1 0h2m2 0h3m1 0h2m1 0h2m2 0h1m4 0h1m1 0h1m1 0h1m3 0h1M4 31.5h1m1 0h3m3 0h2m2 0h3m4 0h1m1 0h2m1 0h1m3 0h3m1 0h1m2 0h3m4 0h3m3 0h1m3 0h1m1 0h2m1 0h1m1 0h2m1 0h2m1 0h2m3 0h1m1 0h1m3 0h4m4 0h1m2 0h1m1 0h5m2 0h1m3 0h4M6 32.5h10m1 0h1m2 0h1m1 0h4m1 0h6m2 0h1m4 0h1m1 0h1m1 0h1m3 0h1m1 0h8m1 0h1m1 0h3m2 0h2m3 0h1m3 0h6m2 0h4m4 0h2m1 0h1m2 0h1m1 0h8M4 33.5h2m2 0h2m1 0h1m1 0h1m9 0h2m8 0h1m2 0h2m1 0h11m1 0h1m1 0h1m1 0h1m1 0h1m1 0h3m1 0h2m1 0h1m6 0h1m2 0h1m1 0h3m1 0h1m3 0h2m5 0h1m1 0h3m2 0h1m1 0h1m1 0h1m2 0h2M6 34.5h2m1 0h6m1 0h1m1 0h3m1 0h4m10 0h1m3 0h2m2 0h1m3 0h2m1 0h1m1 0h2m1 0h4m4 0h3m1 0h1m1 0h1m1 0h2m1 0h4m6 0h1m2 0h3m2 0h3m2 0h1m4 0h1m1 0h3M5 35.5h1m1 0h2m3 0h4m1 0h1m2 0h2m1 0h2m3 0h1m1 0h2m1 0h1m1 0h2m2 0h3m2 0h1m5 0h4m4 0h1m3 0h1m2 0h1m1 0h7m1 0h1m3 0h2m1 0h3m2 0h2m1 0h4m4 0h2m1 0h2m4 0h1M6 36.5h1m1 0h3m4 0h3m1 0h2m2 0h3m2 0h2m2 0h1m1 0h1m1 0h3m2 0h2m2 0h3m2 0h1m1 0h1m1 0h4m4 0h2m1 0h1m1 0h1m1 0h1m2 0h1m1 0h1m6 0h1m1 0h1m1 0h4m1 0h3m1 0h1m2 0h3m1 0h1m1 0h4m1 0h1M8 37.5h1m3 0h1m1 0h2m1 0h3m3 0h1m1 0h1m6 0h4m2 0h1m2 0h3m2 0h7m7 0h1m2 0h2m1 0h1m5 0h2m2 0h1m2 0h1m1 0h2m1 0h3m4 0h3m1 0h1m1 0h1m1 0h1m3 0h1m2 0h1M4 38.5h4m2 0h4m2 0h2m2 0h2m1 0h2m1 0h1m1 0h4m2 0h1m1 0h1m2 0h1m3 0h3m4 0h1m3 0h1m1 0h2m5 0h6m2 0h1m1 0h3m1 0h1m1 0h1m3 0h1m1 0h1m1 0h2m1 0h4m2 0h1m1 0h3m5 0h1m1 0h1M4 39.5h1m2 0h1m1 0h1m2 0h4m2 0h1m1 0h2m1 0h1m1 0h2m3 0h2m1 0h2m1 0h1m8 0h1m2 0h6m2 0h1m1 0h1m1 0h1m3 0h4m1 0h1m1 0h1m3 0h2m1 0h1m1 0h1m3 0h2m4 0h1m3 0h1m6 0h2m2 0h1M5 40.5h1m3 0h2m1 0h1m2 0h2m1 0h2m1 0h1m4 0h2m2 0h1m1 0h2m2 0h3m2 0h1m3 0h4m1 0h1m1 0h3m9 0h5m4 0h1m2 0h1m1 0h3m3 0h1m1 0h2m2 0h3m4 0h3M6 41.5h3m2 0h3m3 0h3m1 0h10m3 0h1m1 0h3m5 0h1m1 0h2m1 0h4m2 0h1m1 0h1m1 0h2m1 0h2m2 0h1m3 0h2m3 0h1m4 0h3m2 0h4m1 0h3m2 0h3m1 0h1m2 0h1m1 0h1m2 0h1M6 42.5h1m1 0h1m1 0h1m1 0h2m1 0h2m1 0h6m1 0h3m2 0h1m3 0h2m1 0h1m2 0h2m1 0h1m1 0h1m2 0h1m1 0h1m1 0h2m1 0h2m6 0h2m2 0h3m1 0h3m1 0h1m1 0h2m3 0h2m1 0h1m2 0h1m1 0h1m1 0h3m1 0h3m1 0h1m1 0h1m3 0h1m1 0h1M5 43.5h2m1 0h2m1 0h3m1 0h1m1 0h2m2 0h3m1 0h1m2 0h3m1 0h2m4 0h1m2 0h1m2 0h3m1 0h2m5 0h3m1 0h3m2 0h2m4 0h3m3 0h4m5 0h3m1 0h1m2 0h1m2 0h3m2 0h1m4 0h4M5 44.5h1m1 0h1m2 0h6m1 0h6m1 0h1m1 0h1m4 0h1m2 0h2m2 0h1m2 0h2m1 0h1m2 0h1m1 0h1m1 0h3m1 0h1m1 0h1m2 0h2m2 0h1m1 0h2m1 0h2m3 0h1m3 0h1m1 0h1m1 0h2m1 0h1m1 0h2m3 0h1m1 0h1m1 0h1m4 0h1m1 0h1m2 0h2M4 45.5h1m1 0h1m1 0h2m1 0h3m1 0h3m5 0h4m1 0h1m1 0h3m4 0h1m1 0h1m2 0h1m5 0h4m3 0h3m1 0h2m1 0h1m1 0h2m1 0h1m1 0h1m3 0h1m2 0h2m5 0h2m1 0h1m3 0h2m2 0h2m1 0h1m5 0h4M4 46.5h10m2 0h2m2 0h4m2 0h1m1 0h2m2 0h1m1 0h1m2 0h4m1 0h1m2 0h1m1 0h1m2 0h2m1 0h1m1 0h1m5 0h1m4 0h2m2 0h4m5 0h1m4 0h3m1 0h1m1 0h3m3 0h3m1 0h2m1 0h1m4 0h1M5 47.5h1m1 0h2m2 0h2m1 0h1m1 0h2m1 0h1m2 0h5m2 0h2m1 0h2m2 0h2m2 0h3m1 0h3m2 0h2m1 0h2m5 0h1m1 0h3m3 0h1m1 0h2m1 0h1m2 0h1m3 0h2m1 0h1m2 0h2m2 0h1m2 0h4m1 0h1m4 0h1m1 0h2m2 0h1M4 48.5h3m2 0h7m5 0h3m1 0h4m4 0h1m2 0h1m1 0h3m1 0h4m2 0h3m1 0h4m1 0h2m2 0h1m2 0h2m1 0h2m1 0h1m1 0h6m1 0h3m1 0h6m1 0h4m3 0h1m1 0h1m2 0h2m1 0h1m2 0h1M6 49.5h1m1 0h1m6 0h1m4 0h2m3 0h1m2 0h2m1 0h2m1 0h1m1 0h2m1 0h1m2 0h1m4 0h3m2 0h1m3 0h1m1 0h1m2 0h2m1 0h1m3 0h3m2 0h5m2 0h1m2 0h1m2 0h2m1 0h2m1 0h1m2 0h2m2 0h1m4 0h3M4 50.5h1m1 0h2m1 0h3m1 0h1m1 0h2m1 0h1m2 0h1m2 0h2m1 0h3m4 0h2m1 0h1m1 0h3m1 0h1m1 0h1m2 0h1m1 0h4m2 0h3m3 0h1m1 0h1m5 0h1m1 0h2m4 0h1m1 0h1m1 0h2m1 0h1m2 0h2m2 0h8m3 0h2m2 0h1M5 51.5h1m2 0h2m2 0h1m1 0h1m5 0h1m2 0h2m3 0h1m1 0h1m2 0h4m1 0h1m1 0h1m2 0h1m2 0h3m3 0h3m1 0h1m1 0h1m1 0h1m2 0h1m1 0h2m1 0h3m1 0h6m1 0h4m3 0h1m4 0h1m1 0h1m2 0h5m2 0h1m4 0h1M4 52.5h3m1 0h6m3 0h1m3 0h2m1 0h1m3 0h7m2 0h1m1 0h3m1 0h2m1 0h3m2 0h6m9 0h2m1 0h4m1 0h7m1 0h1m3 0h1m3 0h1m1 0h2m5 0h7m2 0h1M4 53.5h1m1 0h3m3 0h3m1 0h2m2 0h3m1 0h2m2 0h1m3 0h1m2 0h3m2 0h1m1 0h1m1 0h1m1 0h1m1 0h3m1 0h1m3 0h1m1 0h2m1 0h3m3 0h4m1 0h1m1 0h3m3 0h1m1 0h1m2 0h1m4 0h4m3 0h2m1 0h1m3 0h1m1 0h2M4 54.5h2m2 0h1m1 0h1m1 0h2m3 0h2m3 0h2m4 0h1m1 0h1m1 0h2m1 0h2m3 0h1m1 0h3m2 0h3m1 0h2m1 0h1m1 0h1m6 0h1m2 0h6m1 0h1m2 0h1m1 0h1m1 0h3m2 0h2m2 0h1m3 0h1m1 0h2m3 0h1m1 0h1m1 0h1m1 0h3M5 55.5h1m2 0h1m3 0h1m2 0h5m2 0h1m5 0h1m3 0h2m1 0h4m2 0h1m1 0h2m1 0h4m1 0h2m3 0h1m1 0h3m5 0h3m1 0h2m4 0h1m3 0h1m1 0h1m3 0h3m1 0h3m3 0h1m1 0h1m1 0h1m3 0h1M5 56.5h2m1 0h6m2 0h1m1 0h1m3 0h2m1 0h2m1 0h5m3 0h2m1 0h1m1 0h7m2 0h1m1 0h7m1 0h2m1 0h1m3 0h2m1 0h2m4 0h5m3 0h2m3 0h1m4 0h1m4 0h6m2 0h1M5 57.5h2m1 0h2m3 0h2m1 0h2m2 0h1m2 0h2m2 0h1m2 0h1m3 0h3m2 0h1m2 0h4m1 0h3m6 0h1m2 0h1m1 0h2m1 0h2m1 0h1m6 0h1m2 0h3m1 0h3m8 0h5m2 0h2m1 0h1m1 0h2m1 0h2M4 58.5h2m1 0h1m1 0h2m6 0h2m2 0h5m1 0h4m10 0h2m3 0h3m5 0h3m1 0h2m3 0h2m2 0h1m6 0h2m4 0h1m1 0h1m3 0h1m1 0h2m1 0h1m2 0h2m3 0h3m2 0h1m3 0h1M4 59.5h1m1 0h2m3 0h1m1 0h2m3 0h1m6 0h2m3 0h1m2 0h1m5 0h2m2 0h1m1 0h2m1 0h4m6 0h8m2 0h2m1 0h1m1 0h1m1 0h2m4 0h1m1 0h1m1 0h1m2 0h1m5 0h4m1 0h5m1 0h1M4 60.5h1m3 0h4m2 0h1m2 0h1m2 0h1m3 0h1m1 0h1m1 0h1m1 0h2m3 0h1m2 0h2m1 0h1m3 0h2m13 0h4m1 0h4m1 0h1m1 0h3m1 0h2m1 0h1m1 0h1m2 0h1m3 0h1m3 0h1m6 0h1m1 0h1m1 0h5M4 61.5h2m1 0h1m3 0h2m6 0h1m1 0h3m1 0h2m5 0h1m1 0h3m1 0h1m4 0h1m1 0h1m2 0h3m1 0h4m1 0h3m1 0h2m1 0h2m2 0h1m8 0h1m1 0h1m1 0h1m3 0h5m2 0h2m1 0h5m1 0h1m5 0h1M6 62.5h1m3 0h2m2 0h2m1 0h3m2 0h4m3 0h1m1 0h3m2 0h1m2 0h1m3 0h2m3 0h1m1 0h1m1 0h2m3 0h1m1 0h1m1 0h2m3 0h3m1 0h1m4 0h1m3 0h1m3 0h1m2 0h1m1 0h1m1 0h1m2 0h2m2 0h1m1 0h3m1 0h2m1 0h2M4 63.5h2m3 0h1m2 0h3m1 0h1m2 0h2m1 0h1m1 0h3m5 0h3m1 0h2m1 0h1m1 0h1m2 0h1m1 0h1m2 0h2m4 0h1m2 0h3m2 0h2m1 0h2m1 0h3m1 0h1m1 0h1m1 0h1m1 0h1m3 0h2m3 0h2m1 0h2m1 0h4m2 0h1m1 0h1m2 0h2M4 64.5h2m3 0h3m2 0h2m4 0h3m3 0h1m3 0h4m1 0h2m1 0h1m1 0h3m3 0h1m5 0h2m2 0h1m1 0h1m2 0h1m2 0h2m4 0h1m1 0h2m1 0h4m1 0h1m2 0h1m1 0h2m1 0h1m1 0h1m4 0h1m3 0h1m1 0h3m3 0h1M5 65.5h1m1 0h3m3 0h1m1 0h1m1 0h1m2 0h1m3 0h1m1 0h2m2 0h1m1 0h1m4 0h4m1 0h1m1 0h1m1 0h2m2 0h3m1 0h2m1 0h3m3 0h3m1 0h4m2 0h2m1 0h1m2 0h1m4 0h1m3 0h1m3 0h1m12 0h1m2 0h1M5 66.5h2m1 0h3m3 0h1m1 0h1m1 0h8m2 0h4m1 0h4m1 0h1m1 0h2m2 0h2m1 0h1m3 0h2m7 0h2m2 0h3m1 0h2m3 0h1m2 0h4m1 0h3m2 0h1m2 0h1m2 0h6m2 0h1m5 0h1M5 67.5h2m2 0h1m1 0h1m2 0h1m3 0h4m1 0h1m1 0h1m4 0h2m3 0h1m1 0h1m3 0h1m10 0h2m4 0h2m4 0h1m1 0h2m2 0h3m5 0h2m2 0h1m1 0h1m1 0h6m2 0h1m6 0h3m4 0h1M5 68.5h1m1 0h2m1 0h1m1 0h2m1 0h2m1 0h1m3 0h1m1 0h2m1 0h3m1 0h2m2 0h1m6 0h2m1 0h3m1 0h4m1 0h2m1 0h2m3 0h3m2 0h2m3 0h7m3 0h1m1 0h2m1 0h2m3 0h1m3 0h3m1 0h1m1 0h2m3 0h2M6 69.5h3m2 0h4m1 0h1m1 0h1m3 0h1m1 0h2m1 0h3m2 0h1m1 0h1m2 0h1m1 0h1m3 0h1m2 0h1m5 0h1m1 0h2m2 0h1m2 0h2m1 0h1m4 0h4m3 0h1m1 0h2m1 0h1m3 0h1m2 0h1m1 0h2m2 0h1m1 0h3m1 0h1m1 0h1m3 0h1M6 70.5h2m2 0h1m1 0h1m2 0h5m2 0h1m1 0h2m1 0h8m2 0h4m2 0h1m2 0h3m1 0h1m3 0h1m2 0h1m3 0h2m1 0h1m2 0h1m1 0h2m2 0h1m1 0h1m1 0h2m2 0h4m1 0h3m1 0h2m1 0h1m2 0h5m1 0h2m1 0h1M4 71.5h1m2 0h2m2 0h4m10 0h1m2 0h1m1 0h1m3 0h3m6 0h1m1 0h2m1 0h2m1 0h2m4 0h2m1 0h1m1 0h3m1 0h4m1 0h2m3 0h3m1 0h1m3 0h3m3 0h2m1 0h2m4 0h3m1 0h3M5 72.5h3m2 0h1m1 0h2m2 0h1m1 0h2m2 0h1m1 0h1m2 0h2m4 0h1m1 0h1m3 0h1m1 0h1m1 0h1m1 0h1m1 0h1m1 0h1m2 0h1m3 0h1m1 0h1m3 0h4m2 0h1m1 0h1m1 0h2m2 0h2m1 0h2m1 0h1m2 0h1m4 0h1m2 0h1m5 0h5m1 0h1M4 73.5h3m1 0h2m2 0h4m6 0h3m1 0h4m1 0h1m3 0h1m1 0h1m1 0h2m1 0h1m3 0h1m3 0h6m1 0h2m3 0h2m1 0h4m3 0h1m4 0h1m5 0h1m2 0h4m5 0h3m1 0h1m1 0h1m1 0h2M8 74.5h1m1 0h4m1 0h2m3 0h2m5 0h2m2 0h3m1 0h1m1 0h7m1 0h2m2 0h1m1 0h1m1 0h4m1 0h1m1 0h1m1 0h4m2 0h4m1 0h2m5 0h2m1 0h1m2 0h1m1 0h1m4 0h1m3 0h1m2 0h1m2 0h3m1 0h2M5 75.5h3m1 0h1m1 0h2m4 0h3m5 0h2m3 0h1m3 0h1m1 0h2m4 0h2m2 0h1m2 0h2m1 0h1m1 0h1m1 0h4m4 0h1m1 0h1m2 0h1m2 0h2m3 0h1m1 0h1m5 0h1m1 0h2m2 0h1m3 0h2m1 0h2m2 0h1m1 0h2m1 0h2M5 76.5h2m1 0h5m1 0h3m1 0h2m1 0h2m3 0h7m1 0h1m1 0h2m9 0h3m1 0h7m3 0h1m3 0h3m6 0h7m2 0h1m5 0h1m1 0h1m1 0h2m2 0h1m2 0h5m1 0h3M6 77.5h1m1 0h1m3 0h1m1 0h1m1 0h5m1 0h1m4 0h2m3 0h1m5 0h1m3 0h1m2 0h2m1 0h1m3 0h1m3 0h1m1 0h2m2 0h6m1 0h3m1 0h2m1 0h1m3 0h2m2 0h4m2 0h2m7 0h2m3 0h2m1 0h2M6 78.5h1m1 0h1m1 0h1m1 0h1m3 0h1m1 0h1m4 0h1m1 0h4m1 0h1m1 0h1m4 0h1m3 0h2m1 0h3m1 0h2m1 0h2m1 0h1m1 0h4m1 0h2m4 0h2m2 0h2m1 0h3m1 0h1m1 0h2m5 0h1m3 0h2m2 0h1m1 0h1m2 0h1m1 0h1m1 0h1m1 0h3M7 79.5h2m3 0h4m1 0h2m1 0h3m1 0h1m1 0h1m1 0h1m3 0h1m2 0h3m2 0h1m10 0h2m3 0h1m1 0h1m2 0h2m1 0h2m6 0h2m2 0h1m3 0h1m1 0h2m1 0h1m5 0h2m2 0h1m2 0h1m1 0h1m3 0h2m2 0h1M7 80.5h6m1 0h3m1 0h3m6 0h7m2 0h1m3 0h2m4 0h1m1 0h1m2 0h6m1 0h2m1 0h2m1 0h2m1 0h1m1 0h1m4 0h1m1 0h7m4 0h2m3 0h1m1 0h3m2 0h7m1 0h2M5 81.5h1m5 0h2m2 0h2m4 0h1m3 0h1m1 0h1m1 0h1m3 0h4m2 0h7m1 0h2m2 0h1m2 0h2m1 0h2m2 0h4m2 0h2m1 0h1m4 0h1m5 0h3m2 0h2m2 0h2m1 0h3m4 0h1m3 0h1m1 0h1m1 0h1M6 82.5h2m2 0h1m3 0h2m2 0h2m3 0h2m1 0h2m1 0h1m1 0h1m1 0h4m3 0h1m1 0h3m3 0h3m5 0h3m2 0h3m1 0h1m3 0h2m4 0h2m1 0h1m1 0h3m1 0h1m3 0h2m1 0h2m2 0h2m6 0h1m1 0h3M4 83.5h4m4 0h1m1 0h1m1 0h1m3 0h4m2 0h3m1 0h3m1 0h2m1 0h1m5 0h2m4 0h1m4 0h1m1 0h4m3 0h1m1 0h2m2 0h2m2 0h2m1 0h1m1 0h1m1 0h1m6 0h1m1 0h1m3 0h1m2 0h6m5 0h2M6 84.5h3m1 0h1m2 0h6m1 0h2m1 0h1m1 0h1m3 0h2m2 0h1m1 0h2m1 0h2m2 0h3m1 0h1m1 0h3m1 0h1m2 0h1m1 0h3m1 0h1m2 0h6m1 0h1m1 0h1m10 0h1m2 0h2m3 0h2m1 0h1m2 0h5m1 0h1M4 85.5h2m1 0h2m2 0h5m2 0h2m2 0h2m1 0h1m1 0h3m3 0h3m1 0h1m3 0h1m1 0h8m2 0h2m1 0h3m1 0h1m1 0h1m1 0h5m2 0h3m1 0h2m1 0h2m2 0h4m1 0h1m1 0h2m2 0h1m1 0h1m4 0h3m2 0h1m1 0h2M4 86.5h1m1 0h7m2 0h2m1 0h1m1 0h1m2 0h2m2 0h1m1 0h1m10 0h2m4 0h1m2 0h1m2 0h1m1 0h1m1 0h3m2 0h1m1 0h2m2 0h3m1 0h1m3 0h1m1 0h1m2 0h4m1 0h4m2 0h4m3 0h3m2 0h2m1 0h1m1 0h1M7 87.5h3m1 0h2m2 0h2m1 0h1m2 0h2m2 0h1m1 0h1m3 0h1m5 0h3m5 0h4m1 0h1m2 0h4m1 0h5m1 0h2m1 0h2m1 0h3m2 0h2m2 0h2m4 0h3m2 0h1m2 0h2m2 0h1m1 0h5m3 0h2M4 88.5h2m2 0h3m1 0h2m2 0h1m8 0h3m1 0h1m2 0h1m4 0h1m9 0h4m1 0h1m1 0h2m1 0h3m1 0h5m2 0h4m1 0h1m1 0h2m2 0h5m1 0h1m3 0h1m2 0h5m6 0h1m2 0h1m1 0h1M5 89.5h1m9 0h2m1 0h1m2 0h1m2 0h1m1 0h1m4 0h1m3 0h1m1 0h1m1 0h1m2 0h2m1 0h2m1 0h1m1 0h2m1 0h2m1 0h5m3 0h4m6 0h1m5 0h1m2 0h1m1 0h1m1 0h2m1 0h4m1 0h3m1 0h2m1 0h3m1 0h2M5 90.5h1m2 0h1m1 0h3m1 0h1m1 0h1m5 0h3m1 0h1m2 0h1m4 0h2m1 0h2m2 0h1m1 0h4m5 0h1m2 0h2m2 0h1m1 0h7m3 0h1m1 0h1m5 0h2m2 0h1m2 0h2m1 0h3m1 0h6m2 0h1m3 0h3M4 91.5h1m1 0h2m7 0h4m1 0h1m1 0h1m4 0h1m1 0h1m7 0h2m1 0h2m1 0h1m5 0h5m2 0h1m3 0h1m6 0h1m4 0h1m3 0h1m2 0h3m1 0h1m1 0h1m2 0h1m5 0h3m1 0h1m1 0h2m1 0h2m2 0h2M7 92.5h5m2 0h4m2 0h1m3 0h1m1 0h1m2 0h1m1 0h1m2 0h1m1 0h1m1 0h1m5 0h1m6 0h1m3 0h1m5 0h1m1 0h4m1 0h1m3 0h1m2 0h2m1 0h2m2 0h3m4 0h1m2 0h4m4 0h1m2 0h1m2 0h1m1 0h1M4 93.5h3m1 0h2m4 0h1m1 0h2m1 0h1m3 0h2m1 0h1m3 0h1m1 0h1m1 0h1m1 0h1m2 0h1m1 0h1m1 0h1m1 0h2m1 0h1m1 0h1m1 0h1m3 0h5m1 0h1m3 0h4m1 0h1m1 0h5m1 0h1m3 0h6m1 0h3m5 0h1m1 0h1m2 0h4M5 94.5h2m1 0h1m1 0h1m2 0h1m1 0h2m1 0h2m2 0h1m1 0h2m1 0h4m2 0h1m5 0h1m3 0h1m1 0h4m3 0h1m3 0h6m2 0h3m10 0h2m1 0h4m2 0h2m3 0h2m2 0h5m1 0h2m1 0h2M5 95.5h1m2 0h1m3 0h1m1 0h1m2 0h4m1 0h3m2 0h1m2 0h2m1 0h2m2 0h1m3 0h1m2 0h1m1 0h1m5 0h1m1 0h3m2 0h6m2 0h1m3 0h1m4 0h2m4 0h1m2 0h1m3 0h1m3 0h7m1 0h1m1 0h2m1 0h2M4 96.5h1m1 0h2m2 0h1m2 0h4m7 0h3m6 0h3m3 0h2m2 0h2m4 0h1m2 0h1m1 0h1m1 0h1m2 0h1m6 0h1m3 0h4m8 0h1m1 0h2m5 0h1m4 0h1m1 0h2m1 0h2m2 0h2m1 0h1M4 97.5h1m1 0h1m4 0h3m1 0h1m1 0h2m2 0h4m3 0h2m2 0h2m1 0h1m1 0h5m2 0h3m8 0h3m5 0h1m1 0h3m1 0h1m2 0h3m2 0h1m2 0h1m2 0h4m2 0h1m3 0h3m4 0h1m2 0h1m2 0h2M4 98.5h3m3 0h1m3 0h2m2 0h1m1 0h2m2 0h1m2 0h2m1 0h3m1 0h1m2 0h1m2 0h3m1 0h1m2 0h1m11 0h3m3 0h2m1 0h6m1 0h1m1 0h1m1 0h1m2 0h1m1 0h1m3 0h1m1 0h2m5 0h1m2 0h1m1 0h2m1 0h1M6 99.5h1m1 0h2m1 0h1m1 0h3m1 0h4m1 0h3m1 0h3m1 0h2m3 0h4m1 0h4m7 0h2m3 0h3m1 0h1m2 0h3m1 0h2m1 0h1m2 0h1m1 0h1m4 0h6m1 0h3m1 0h1m1 0h5m2 0h3m1 0h1m1 0h2M7 100.5h2m1 0h1m1 0h1m1 0h3m2 0h1m3 0h1m1 0h1m2 0h5m1 0h1m1 0h2m2 0h3m2 0h2m4 0h6m2 0h2m1 0h1m2 0h1m2 0h1m1 0h1m2 0h1m1 0h10m2 0h2m2 0h2m1 0h3m3 0h6m1 0h1M12 101.5h1m2 0h2m1 0h1m2 0h3m2 0h3m3 0h4m3 0h2m2 0h1m3 0h1m3 0h2m3 0h3m1 0h3m2 0h5m4 0h1m1 0h1m3 0h1m1 0h2m1 0h2m3 0h5m1 0h1m2 0h2m3 0h1m1 0h3M4 102.5h7m1 0h2m1 0h8m1 0h2m1 0h2m1 0h1m1 0h3m2 0h1m1 0h3m2 0h2m3 0h1m1 0h2m1 0h1m1 0h1m2 0h1m2 0h1m3 0h1m1 0h1m1 0h2m1 0h1m1 0h2m1 0h1m1 0h3m1 0h2m2 0h2m5 0h1m4 0h1m1 0h1m1 0h2m1 0h2M4 103.5h1m5 0h1m3 0h1m3 0h1m2 0h1m2 0h1m3 0h1m3 0h1m1 0h3m3 0h2m3 0h5m2 0h1m3 0h2m3 0h1m1 0h5m1 0h1m3 0h1m2 0h1m3 0h2m1 0h2m1 0h2m2 0h2m2 0h1m1 0h2m1 0h2m3 0h1m1 0h2M4 104.5h1m1 0h3m1 0h1m1 0h2m2 0h1m4 0h1m2 0h1m1 0h8m4 0h1m1 0h1m2 0h2m3 0h9m3 0h2m2 0h2m2 0h1m1 0h2m2 0h1m1 0h5m1 0h1m1 0h2m5 0h2m5 0h8M4 105.5h1m1 0h3m1 0h1m1 0h1m1 0h1m1 0h1m3 0h1m1 0h1m1 0h1m3 0h2m1 0h1m1 0h1m1 0h1m1 0h2m1 0h2m3 0h5m1 0h3m1 0h1m3 0h6m1 0h1m6 0h1m3 0h1m1 0h2m2 0h1m1 0h1m4 0h6m2 0h1m2 0h1m1 0h2M4 106.5h1m1 0h3m1 0h1m1 0h2m4 0h1m4 0h2m1 0h1m6 0h2m1 0h5m1 0h2m6 0h2m1 0h3m1 0h1m1 0h5m1 0h4m1 0h1m3 0h1m2 0h2m2 0h1m1 0h3m2 0h1m1 0h2m2 0h1m2 0h1m2 0h1m1 0h2m2 0h1M4 107.5h1m5 0h1m1 0h1m3 0h4m4 0h3m1 0h2m1 0h1m1 0h3m3 0h1m1 0h1m1 0h1m6 0h1m1 0h2m2 0h1m1 0h1m1 0h3m5 0h2m1 0h1m2 0h2m3 0h1m2 0h1m2 0h1m3 0h2m4 0h3m1 0h1m1 0h1M4 108.5h7m1 0h1m1 0h5m1 0h2m2 0h2m2 0h2m4 0h3m1 0h2m3 0h2m1 0h1m2 0h3m1 0h1m1 0h3m1 0h3m4 0h2m3 0h1m4 0h1m3 0h3m3 0h1m1 0h1m1 0h1m1 0h3m2 0h4m2 0h1m2 0h2"/></svg>
