<svg xmlns="http://www.w3.org/2000/svg" viewBox="0 0 109 109" shape-rendering="crispEdges"><path fill="#ffffff" d="M0 0h109v109H0z"/><path stroke="#000000" d="M4 4.5h7m2 0h1m3 0h1m4 0h2m3 0h2m1 0h1m2 0h2m1 0h1m2 0h4m3 0h1m2 0h2m1 0h2m2 0h2m5 0h1m3 0h1m2 0h1m2 0h1m1 0h1m1 0h5m1 0h2m2 0h1m1 0h2m1 0h4m2 0h7M4 5.5h1m5 0h1m1 0h1m1 0h1m1 0h1m1 0h1m2 0h2m1 0h2m2 0h1m2 0h2m3 0h4m2 0h2m2 0h1m1 0h1m2 0h2m1 0h2m2 0h1m1 0h1m1 0h1m3 0h1m1 0h2m3 0h1m1 0h4m8 0h2m3 0h1m5 0h1m5 0h1M4 6.5h1m1 0h3m1 0h1m2 0h1m3 0h1m1 0h2m1 0h1m3 0h1m3 0h2m2 0h1m1 0h3m1 0h2m3 0h1m2 0h1m3 0h2m2 0h2m1 0h2m1 0h3m2 0h3m1 0h1m1 0h2m1 0h4m1 0h1m1 0h1m2 0h4m1 0h1m1 0h1m1 0h1m2 0h1m1 0h3m1 0h1M4 7.5h1m1 0h3m1 0h1m1 0h2m3 0h1m4 0h1m1 0h1m1 0h1m1 0h1m1 0h2m2 0h2m2 0h6m3 0h1m3 0h1m3 0h1m5 0h1m4 0h1m1 0h3m1 0h3m1 0h1m1 0h1m3 0h1m1 0h1m2 0h1m2 0h1m3 0h2m2 0h1m1 0h3m1 0h1M4 8.5h1m1 0h3m1 0h1m5 0h2m2 0h2m1 0h1m1 0h2m2 0h6m4 0h1m1 0h1m3 0h2m1 0h1m3 0h5m1 0h2m3 0h1m2 0h1m5 0h1m1 0h6m1 0h1m1 0h2m1 0h1m1 0h1m1 0h2m2 0h1m1 0h1m1 0h1m1 0h3m1 0h1M4 9.5h1m5 0h1m1 0h3m1 0h1m3 0h1m1 0h1m2 0h1m2 0h3m3 0h1m2 0h1m1 0h1m5 0h3m4 0h1m3 0h1m1 0h3m1 0h1m1 0h1m2 0h2m1 0h1m3 0h1m3 0h1m1 0h1m4 0h3m1 0h1m1 0h1m1 0h1m1 0h1m2 0h1m5 0h1M4 10.5h7m1 0h1m1 0h1m1 0h1m1 0h1m1 0h1m1 0h1m1 0h1m1 0h1m1 0h1m1 0h1m1 0h1m1 0h1m1 0h1m1 0h1m1 0h1m1 0h1m1 0h1m1 0h1m1 0h1m1 0h1m1 0h1m1 0h1m1 0h1m1 0h1m1 0h1m1 0h1m1 0h1m1 0h1m1 0h1m1 0h1m1 0h1m1 0h1m1 0h1m1 0h1m1 0h1m1 0h1m1 0h1m1 0h1m1 0h1m1 0h1m1 0h1m1 0h1m1 0h1m1 0h7M13 11.5h3m1 0h1m4 0h3m1 0h2m2 0h1m3 0h3m1 0h1m2 0h1m1 0h2m3 0h1m1 0h3m3 0h1m1 0h5m3 0h1m3 0h1m2 0h2m3 0h6m9 0h3M4 12.5h5m1 0h3m1 0h1m1 0h2m3 0h1m2 0h2m2 0h1m1 0h6m1 0h2m1 0h3m1 0h3m1 0h1m1 0h7m5 0h1m2 0h1m3 0h1m1 0h1m2 0h6m2 0h1m2 0h1m1 0h1m2 0h2m4 0h2m1 0h1m1 0h1m1 0h1M4 13.5h1m1 0h1m2 0h1m3 0h1m1 0h1m2 0h1m1 0h1m2 0h4m2 0h1m1 0h1m2 0h1m1 0h4m3 0h2m1 0h2m1 0h2m1 0h3m2 0h3m1 0h7m1 0h3m3 0h3m1 0h1m2 0h3m1 0h1m1 0h1m5 0h4m1 0h2m2 0h1M4 14.5h1m2 0h2m1 0h1m1 0h1m1 0h1m1 0h3m1 0h1m1 0h2m3 0h1m1 0h1m4 0h1m1 0h3m1 0h3m3 0h2m4 0h3m6 0h3m2 0h3m3 0h1m5 0h2m2 0h2m2 0h3m1 0h2m3 0h1m2 0h2m4 0h1M8 15.5h1m5 0h2m3 0h1m1 0h3m4 0h1m2 0h1m2 0h1m2 0h4m3 0h1m3 0h1m6 0h1m1 0h3m1 0h2m1 0h2m2 0h2m1 0h1m2 0h1m2 0h2m3 0h1m1 0h2m1 0h1m1 0h1m4 0h4m2 0h1m2 0h1M5 16.5h1m1 0h1m1 0h2m2 0h1m1 0h3m7 0h2m1 0h2m4 0h1m1 0h5m1 0h1m4 0h2m1 0h1m1 0h1m2 0h1m1 0h5m2 0h1m4 0h2m1 0h5m3 0h3m1 0h2m2 0h1m3 0h3m1 0h3m1 0h2M5 17.5h2m2 0h1m2 0h2m1 0h1m3 0h5m3 0h1m1 0h1m6 0h3m3 0h3m2 0h1m5 0h1m5 0h2m1 0h5m4 0h1m5 0h4m3 0h1m2 0h1m1 0h4m2 0h3m1 0h1m3 0h1M4 18.5h1m1 0h5m6 0h1m2 0h3m3 0h5m1 0h1m1 0h1m1 0h3m2 0h1m3 0h5m1 0h3m1 0h1m1 0h2m4 0h3m1 0h1m3 0h2m2 0h1m1 0h1m4 0h3m4 0h1m2 0h3m3 0h2m1 0h2M6 19.5h3m9 0h1m1 0h1m1 0h1m1 0h3m1 0h1m1 0h2m1 0h1m1 0h3m1 0h1m4 0h1m2 0h1m1 0h2m1 0h5m1 0h2m2 0h1m5 0h1m4 0h2m4 0h3m1 0h3m2 0h1m3 0h1m1 0h1m1 0h6m2 0h1M4 20.5h5m1 0h1m1 0h3m2 0h1m1 0h3m2 0h1m1 0h5m2 0h3m3 0h1m1 0h1m4 0h1m1 0h2m1 0h1m4 0h3m2 0h1m1 0h1m1 0h1m1 0h2m1 0h1m1 0h2m2 0h1m4 0h3m2 0h1m2 0h1m5 0h2m1 0h2m2 0h1M4 21.5h1m7 0h2m1 0h1m1 0h1m3 0h1m1 0h4m1 0h1m3 0h2m1 0h1m2 0h4m1 0h1m3 0h1m1 0h1m3 0h1m1 0h4m4 0h1m1 0h1m1 0h3m3 0h1m4 0h3m5 0h1m2 0h2m2 0h2m2 0h1m2 0h2M4 22.5h8m1 0h1m2 0h3m1 0h2m4 0h1m1 0h1m2 0h1m1 0h1m1 0h4m1 0h1m1 0h1m1 0h1m1 0h1m1 0h2m2 0h4m4 0h1m2 0h9m3 0h1m3 0h1m1 0h3m1 0h3m2 0h2m2 0h1m1 0h2m5 0h1M4 23.5h2m1 0h1m3 0h1m1 0h2m2 0h1m2 0h2m2 0h2m2 0h1m4 0h2m2 0h2m2 0h2m3 0h3m3 0h1m5 0h4m3 0h2m2 0h3m4 0h2m2 0h2m2 0h2m1 0h4m1 0h1m1 0h1m2 0h2m1 0h1m1 0h2M5 24.5h2m2 0h3m1 0h4m1 0h7m1 0h2m2 0h1m7 0h1m1 0h2m1 0h1m3 0h3m1 0h1m2 0h1m3 0h1m1 0h1m2 0h2m2 0h1m2 0h1m1 0h3m1 0h2m3 0h1m1 0h3m4 0h3m3 0h1m3 0h1m1 0h1M6 25.5h2m5 0h2m1 0h4m1 0h1m1 0h1m2 0h1m3 0h1m1 0h1m2 0h2m1 0h1m1 0h2m3 0h1m2 0h1m1 0h5m2 0h1m1 0h3m2 0h3m1 0h1m1 0h1m1 0h2m1 0h3m2 0h1m1 0h2m2 0h2m5 0h1m1 0h1m4 0h1m2 0h2M5 26.5h1m3 0h2m1 0h2m1 0h3m1 0h3m2 0h1m1 0h2m6 0h1m2 0h5m2 0h1m1 0h2m2 0h1m1 0h1m1 0h1m2 0h1m1 0h1m3 0h1m1 0h1m7 0h3m2 0h3m2 0h1m4 0h2m2 0h12M4 27.5h1m8 0h1m8 0h2m2 0h6m3 0h1m2 0h3m1 0h2m1 0h1m1 0h1m4 0h2m2 0h4m2 0h1m4 0h3m1 0h1m1 0h2m1 0h1m2 0h3m10 0h1m1 0h1m5 0h2m1 0h2M5 28.5h2m1 0h3m1 0h1m2 0h2m5 0h1m1 0h2m2 0h2m7 0h1m1 0h2m2 0h2m2 0h2m3 0h4m1 0h5m1 0h7m2 0h1m1 0h2m1 0h1m2 0h2m3 0h1m1 0h3m1 0h1m4 0h2m1 0h2M6 29.5h2m4 0h1m2 0h1m2 0h1m1 0h1m2 0h1m3 0h5m1 0h2m2 0h2m5 0h3m2 0h3m1 0h2m1 0h1m3 0h3m3 0h2m1 0h5m2 0h1m1 0h4m1 0h1m2 0h1m1 0h4m1 0h1m2 0h1m1 0h1m1 0h2m2 0h1M6 30.5h1m1 0h5m3 0h1m1 0h1m2 0h3m2 0h2m2 0h5m5 0h2m1 0h1m1 0h2m4 0h6m1 0h2m5 0h1m1 0h2m1 0h3m1 0h9m3 0h7m3 0h5m1 0h3M5 31.5h1m1 0h2m3 0h1m2 0h3m4 0h3m1 0h1m3 0h1m3 0h1m1 0h1m2 0h4m2 0h1m1 0h1m2 0h1m1 0h1m3 0h3m2 0h2m3 0h1m2 0h1m4 0h1m3 0h2m3 0h2m1 0h2m8 0h1m3 0h4M6 32.5h3m1 0h1m1 0h2m2 0h1m2 0h5m3 0h2m1 0h1m1 0h1m1 0h1m1 0h2m1 0h5m4 0h1m3 0h1m1 0h1m1 0h2m4 0h1m1 0h2m4 0h1m2 0h2m1 0h1m1 0h2m1 0h1m1 0h2m1 0h1m2 0h2m2 0h2m1 0h1m1 0h1m1 0h1m2 0h2M4 33.5h5m3 0h3m1 0h1m1 0h4m3 0h2m2 0h2m3 0h1m2 0h2m1 0h1m1 0h2m4 0h1m1 0h1m1 0h1m3 0h6m1 0h1m1 0h1m1 0h2m1 0h1m1 0h1m1 0h1m3 0h1m5 0h2m3 0h1m6 0h1m3 0h1m1 0h2M4 34.5h9m3 0h1m2 0h2m1 0h2m3 0h2m1 0h10m4 0h2m1 0h1m3 0h6m1 0h5m2 0h1m1 0h3m1 0h1m1 0h6m1 0h3m1 0h2m4 0h3m2 0h7M4 35.5h1m1 0h1m6 0h1m1 0h1m1 0h1m2 0h1m1 0h1m1 0h2m1 0h3m5 0h2m1 0h2m1 0h2m1 0h1m3 0h1m1 0h1m1 0h1m1 0h1m1 0h3m1 0h1m2 0h4m2 0h2m1 0h2m2 0h1m1 0h2m2 0h3m1 0h2m1 0h1m3 0h1m3 0h2m2 0h1M7 36.5h1m1 0h3m6 0h2m1 0h1m5 0h1m4 0h2m2 0h3m2 0h2m3 0h4m4 0h1m1 0h4m5 0h1m1 0h3m3 0h1m3 0h1m2 0h1m1 0h1m1 0h1m6 0h1m4 0h1m1 0h1m1 0h1m1 0h2M5 37.5h4m4 0h1m1 0h1m1 0h1m1 0h1m1 0h2m1 0h1m1 0h1m1 0h1m1 0h1m1 0h5m3 0h2m1 0h1m1 0h1m1 0h2m4 0h1m1 0h2m1 0h1m1 0h2m4 0h1m2 0h2m1 0h1m2 0h1m1 0h1m1 0h1m1 0h2m1 0h1m2 0h3m1 0h4m1 0h5m1 0h1m1 0h1M6 38.5h6m1 0h2m2 0h2m1 0h1m1 0h1m1 0h1m1 0h1m1 0h2m1 0h2m4 0h1m1 0h2m1 0h1m1 0h1m2 0h1m1 0h1m2 0h1m1 0h1m5 0h3m3 0h1m1 0h4m1 0h2m1 0h1m2 0h1m15 0h3m2 0h3M5 39.5h1m3 0h1m1 0h2m5 0h1m3 0h1m1 0h1m3 0h2m1 0h1m2 0h8m1 0h2m3 0h1m1 0h1m1 0h4m1 0h2m4 0h3m1 0h2m3 0h1m1 0h1m1 0h1m3 0h1m8 0h3m1 0h1m3 0h2m3 0h1M7 40.5h6m2 0h4m1 0h7m2 0h2m1 0h3m1 0h1m6 0h7m2 0h3m1 0h2m5 0h4m4 0h1m1 0h1m1 0h1m1 0h4m6 0h1m2 0h1m6 0h1m4 0h3M5 41.5h5m1 0h3m1 0h1m2 0h1m6 0h2m12 0h2m4 0h1m1 0h1m3 0h1m1 0h2m1 0h1m1 0h2m1 0h1m2 0h2m1 0h1m1 0h2m1 0h3m1 0h5m2 0h5m1 0h3m2 0h2m2 0h3m1 0h1M7 42.5h2m1 0h1m4 0h1m1 0h5m3 0h2m1 0h1m1 0h4m1 0h1m1 0h1m3 0h2m1 0h1m1 0h1m2 0h2m4 0h1m1 0h1m3 0h1m1 0h1m1 0h1m1 0h1m3 0h1m1 0h1m2 0h1m1 0h1m1 0h1m1 0h1m1 0h1m1 0h1m1 0h2m5 0h1m3 0h1m2 0h3M4 43.5h1m1 0h2m1 0h1m1 0h1m2 0h4m11 0h3m1 0h1m4 0h1m1 0h1m2 0h1m4 0h4m3 0h1m2 0h2m2 0h1m1 0h1m1 0h2m1 0h1m7 0h3m2 0h2m1 0h1m1 0h1m1 0h2m3 0h3m1 0h1m1 0h2M4 44.5h1m1 0h2m1 0h4m2 0h1m5 0h1m3 0h3m1 0h1m4 0h2m5 0h2m1 0h3m1 0h1m1 0h3m1 0h3m1 0h4m2 0h1m1 0h2m1 0h3m1 0h1m1 0h1m1 0h2m1 0h1m3 0h1m1 0h1m1 0h1m1 0h1m2 0h3m2 0h1m3 0h2M4 45.5h4m1 0h1m1 0h1m1 0h6m2 0h2m2 0h2m1 0h1m1 0h1m4 0h1m1 0h1m1 0h2m1 0h2m3 0h1m5 0h3m2 0h4m1 0h1m1 0h3m2 0h2m9 0h2m1 0h3m1 0h4m1 0h4m2 0h1m2 0h1M4 46.5h1m2 0h4m3 0h1m1 0h2m3 0h1m1 0h4m3 0h1m1 0h1m2 0h3m1 0h4m2 0h3m1 0h2m1 0h1m1 0h1m1 0h1m1 0h4m1 0h4m3 0h2m4 0h2m5 0h4m1 0h1m8 0h1m1 0h1m1 0h4M5 47.5h1m2 0h2m3 0h2m1 0h2m1 0h3m2 0h1m1 0h3m3 0h1m3 0h1m5 0h4m5 0h2m2 0h2m1 0h1m1 0h2m2 0h1m4 0h4m2 0h3m1 0h2m3 0h1m2 0h11m2 0h1m1 0h1m1 0h1M4 48.5h1m1 0h2m1 0h2m1 0h1m5 0h2m2 0h6m8 0h1m1 0h1m1 0h2m3 0h1m2 0h1m1 0h3m1 0h3m1 0h4m5 0h1m1 0h3m1 0h3m1 0h1m1 0h1m2 0h1m1 0h1m1 0h1m4 0h2m1 0h2m3 0h1m2 0h3M6 49.5h4m2 0h1m2 0h3m1 0h1m1 0h2m1 0h1m2 0h2m1 0h1m2 0h1m1 0h1m1 0h2m4 0h1m5 0h1m1 0h2m4 0h2m1 0h1m4 0h2m1 0h4m4 0h1m1 0h2m1 0h3m4 0h2m1 0h1m1 0h2m2 0h1m1 0h1m2 0h3M4 50.5h3m3 0h1m1 0h1m1 0h2m1 0h1m3 0h1m1 0h1m1 0h1m2 0h1m1 0h3m3 0h1m1 0h1m1 0h1m3 0h5m3 0h5m1 0h2m2 0h1m2 0h1m2 0h4m1 0h3m4 0h1m1 0h1m5 0h1m1 0h1m7 0h2m3 0h2M4 51.5h2m1 0h1m1 0h1m3 0h2m2 0h1m1 0h5m3 0h1m2 0h1m1 0h2m1 0h1m1 0h1m4 0h2m1 0h3m2 0h1m2 0h5m3 0h2m1 0h1m1 0h3m2 0h5m3 0h2m1 0h4m2 0h5m1 0h1m3 0h1m1 0h2M4 52.5h1m1 0h1m1 0h6m2 0h4m1 0h2m1 0h2m3 0h6m2 0h1m1 0h1m1 0h2m1 0h2m1 0h12m2 0h2m2 0h1m1 0h1m4 0h1m1 0h7m2 0h1m1 0h7m4 0h5m1 0h2M4 53.5h5m3 0h1m2 0h1m2 0h1m2 0h1m5 0h1m2 0h1m3 0h1m7 0h2m1 0h2m1 0h2m1 0h2m3 0h2m1 0h2m2 0h3m1 0h1m2 0h2m2 0h1m3 0h1m2 0h1m2 0h1m2 0h4m3 0h1m1 0h1m3 0h1m2 0h1M4 54.5h2m1 0h2m1 0h1m1 0h2m3 0h1m1 0h1m1 0h5m2 0h1m1 0h1m1 0h1m1 0h1m1 0h3m2 0h1m1 0h1m1 0h2m1 0h3m1 0h1m1 0h1m1 0h2m3 0h2m6 0h1m1 0h4m1 0h1m1 0h1m7 0h1m1 0h1m1 0h4m2 0h1m1 0h1m1 0h1m1 0h3M5 55.5h2m1 0h1m3 0h2m1 0h4m2 0h1m2 0h1m5 0h1m3 0h1m1 0h1m2 0h1m3 0h2m1 0h7m3 0h2m2 0h1m2 0h3m1 0h2m2 0h1m2 0h1m3 0h4m3 0h1m7 0h1m2 0h1m3 0h3m1 0h1M6 56.5h10m2 0h1m3 0h2m1 0h2m1 0h10m1 0h2m5 0h1m3 0h1m1 0h5m1 0h2m5 0h1m3 0h3m1 0h11m3 0h2m2 0h1m2 0h7m1 0h2M7 57.5h3m4 0h3m1 0h1m1 0h1m2 0h1m1 0h3m3 0h1m2 0h2m1 0h3m1 0h3m1 0h1m1 0h1m1 0h1m2 0h1m2 0h1m1 0h2m2 0h2m3 0h1m10 0h4m1 0h3m1 0h2m1 0h1m2 0h2m3 0h1m1 0h2m3 0h1M5 58.5h1m4 0h2m4 0h1m1 0h3m1 0h2m3 0h3m1 0h3m4 0h1m3 0h4m6 0h1m7 0h3m1 0h1m4 0h7m2 0h2m2 0h1m1 0h1m1 0h1m2 0h1m5 0h2m1 0h1m1 0h2m1 0h1M5 59.5h2m5 0h2m5 0h1m1 0h5m2 0h1m2 0h1m1 0h1m4 0h1m3 0h4m1 0h1m1 0h1m5 0h1m2 0h1m1 0h3m1 0h2m2 0h1m1 0h1m2 0h1m1 0h3m2 0h3m1 0h3m2 0h2m1 0h3m3 0h1m1 0h3M4 60.5h8m4 0h1m1 0h1m2 0h4m3 0h2m1 0h1m1 0h1m1 0h3m1 0h5m5 0h1m2 0h2m3 0h1m1 0h2m5 0h3m1 0h1m3 0h2m1 0h1m1 0h1m3 0h1m1 0h2m1 0h2m2 0h3m1 0h2m2 0h5M6 61.5h2m3 0h11m1 0h2m2 0h1m1 0h4m1 0h1m1 0h1m2 0h1m3 0h1m1 0h7m8 0h2m1 0h1m2 0h1m1 0h3m1 0h1m1 0h1m1 0h1m1 0h1m3 0h1m4 0h1m2 0h1m2 0h2m3 0h1m4 0h1M5 62.5h1m2 0h4m1 0h4m1 0h3m3 0h1m3 0h8m1 0h1m1 0h1m2 0h1m8 0h1m4 0h3m2 0h3m2 0h3m2 0h1m1 0h1m2 0h1m1 0h2m2 0h2m1 0h1m2 0h1m2 0h2m3 0h1m1 0h7M6 63.5h2m1 0h1m1 0h3m1 0h4m1 0h1m1 0h1m1 0h3m1 0h2m2 0h1m2 0h1m2 0h1m2 0h1m1 0h3m6 0h1m1 0h1m1 0h1m1 0h3m2 0h2m1 0h1m3 0h1m2 0h1m2 0h1m1 0h2m1 0h1m2 0h1m1 0h2m5 0h7m1 0h1m1 0h2M7 64.5h1m1 0h2m1 0h1m1 0h2m1 0h1m1 0h2m3 0h5m1 0h1m1 0h3m1 0h1m1 0h2m1 0h2m2 0h1m4 0h1m2 0h1m3 0h1m1 0h1m1 0h2m1 0h1m2 0h5m1 0h1m1 0h3m4 0h1m1 0h1m2 0h1m6 0h1m3 0h4M4 65.5h2m1 0h2m3 0h2m1 0h4m2 0h2m5 0h1m1 0h1m1 0h2m1 0h3m1 0h1m3 0h2m4 0h1m1 0h2m5 0h1m3 0h2m2 0h2m3 0h4m3 0h2m1 0h2m2 0h1m2 0h5m1 0h1m1 0h2m2 0h3m1 0h1M6 66.5h1m2 0h3m2 0h1m2 0h6m5 0h1m2 0h1m3 0h1m1 0h1m3 0h1m2 0h3m1 0h1m2 0h2m4 0h1m2 0h1m2 0h3m1 0h1m3 0h3m1 0h1m2 0h3m1 0h1m2 0h1m2 0h2m1 0h1m1 0h4m1 0h1M4 67.5h2m7 0h3m3 0h1m3 0h3m1 0h3m1 0h4m1 0h1m2 0h3m1 0h2m1 0h1m2 0h2m1 0h1m3 0h1m2 0h4m2 0h6m1 0h1m8 0h1m2 0h1m1 0h1m1 0h2m2 0h1m1 0h1m2 0h2m1 0h1m2 0h2M4 68.5h1m1 0h12m1 0h2m1 0h4m1 0h1m3 0h1m1 0h1m1 0h1m4 0h2m2 0h3m1 0h2m1 0h2m1 0h6m4 0h1m1 0h1m2 0h1m1 0h1m1 0h1m3 0h1m2 0h2m2 0h2m4 0h2m1 0h2m3 0h2m1 0h4M4 69.5h1m2 0h3m3 0h1m1 0h1m6 0h2m1 0h1m2 0h1m1 0h1m1 0h1m2 0h1m2 0h1m4 0h1m2 0h1m4 0h1m2 0h1m3 0h1m1 0h1m1 0h1m3 0h3m1 0h3m2 0h2m7 0h1m4 0h3m2 0h1m6 0h3M5 70.5h1m3 0h2m1 0h1m1 0h2m2 0h2m1 0h6m1 0h2m1 0h2m3 0h1m2 0h1m1 0h1m1 0h1m4 0h3m6 0h4m2 0h1m1 0h3m1 0h2m1 0h2m2 0h2m1 0h1m2 0h3m1 0h1m3 0h2m1 0h1m1 0h1m1 0h4m2 0h1M6 71.5h2m1 0h1m5 0h2m2 0h1m2 0h2m1 0h1m1 0h2m1 0h1m1 0h1m1 0h1m2 0h2m2 0h2m4 0h2m4 0h1m1 0h1m1 0h2m1 0h2m1 0h9m1 0h1m2 0h1m2 0h1m1 0h1m1 0h1m2 0h1m3 0h2m1 0h3m1 0h2m1 0h1m1 0h2M4 72.5h4m1 0h3m1 0h3m1 0h2m1 0h3m5 0h4m1 0h1m2 0h14m1 0h1m7 0h1m2 0h1m1 0h2m3 0h3m1 0h1m3 0h2m3 0h1m1 0h2m3 0h2m2 0h3m3 0h2m2 0h1M4 73.5h2m1 0h1m8 0h5m3 0h2m2 0h4m3 0h1m1 0h1m1 0h3m1 0h1m3 0h1m2 0h3m1 0h2m1 0h1m2 0h1m9 0h1m1 0h2m4 0h2m2 0h3m1 0h1m1 0h1m1 0h3m1 0h1m4 0h3m1 0h2M4 74.5h2m1 0h6m2 0h1m3 0h1m1 0h1m1 0h2m2 0h2m1 0h6m7 0h2m2 0h1m1 0h2m1 0h6m3 0h3m2 0h2m3 0h1m1 0h6m2 0h1m1 0h1m5 0h1m1 0h2m2 0h10M5 75.5h2m1 0h1m3 0h1m2 0h1m2 0h1m1 0h2m1 0h1m6 0h1m3 0h1m2 0h1m1 0h8m2 0h1m1 0h2m3 0h3m2 0h3m4 0h1m1 0h2m2 0h1m3 0h2m1 0h1m3 0h6m4 0h2m3 0h1m1 0h3M4 76.5h1m1 0h3m1 0h1m1 0h3m1 0h1m3 0h1m1 0h1m1 0h1m2 0h2m1 0h1m1 0h1m1 0h1m5 0h1m1 0h1m1 0h1m2 0h2m2 0h2m1 0h1m1 0h1m2 0h3m3 0h1m2 0h7m1 0h1m1 0h1m1 0h4m3 0h3m1 0h2m2 0h2m1 0h1m1 0h2M5 77.5h1m1 0h2m3 0h1m1 0h1m2 0h1m1 0h2m4 0h1m1 0h1m2 0h1m3 0h1m1 0h1m7 0h1m1 0h1m1 0h3m1 0h1m3 0h6m3 0h1m1 0h2m2 0h4m3 0h1m3 0h1m1 0h3m5 0h2m1 0h2m3 0h3m1 0h1M5 78.5h1m2 0h5m3 0h3m3 0h1m6 0h6m2 0h5m2 0h4m1 0h1m2 0h17m1 0h1m1 0h7m2 0h2m2 0h3m3 0h1m2 0h1m1 0h5m1 0h3M5 79.5h1m1 0h2m5 0h1m1 0h4m1 0h3m4 0h1m2 0h2m1 0h2m2 0h2m1 0h1m1 0h2m1 0h4m1 0h1m2 0h1m3 0h1m2 0h1m4 0h3m2 0h4m3 0h1m4 0h2m3 0h2m1 0h2m2 0h1m4 0h2m1 0h2M4 80.5h1m2 0h1m2 0h2m5 0h1m2 0h2m2 0h1m2 0h4m3 0h1m1 0h1m2 0h1m1 0h1m1 0h1m2 0h1m1 0h1m6 0h1m4 0h1m2 0h1m3 0h1m1 0h1m3 0h1m1 0h2m4 0h2m1 0h2m2 0h1m2 0h1m1 0h2m1 0h1m3 0h2m1 0h2M8 81.5h2m2 0h4m5 0h2m6 0h3m1 0h2m1 0h1m1 0h1m2 0h3m2 0h5m1 0h1m3 0h1m1 0h2m2 0h2m3 0h1m2 0h1m3 0h1m1 0h2m1 0h1m3 0h1m2 0h1m1 0h4m3 0h3m1 0h2m2 0h2M5 82.5h3m2 0h1m3 0h3m3 0h9m2 0h1m1 0h3m1 0h4m2 0h1m2 0h1m1 0h2m1 0h1m1 0h3m1 0h3m1 0h1m3 0h1m3 0h3m5 0h1m1 0h1m1 0h3m3 0h3m1 0h1m1 0h4m2 0h1m1 0h4M7 83.5h1m4 0h1m3 0h1m2 0h1m2 0h2m1 0h2m1 0h3m1 0h1m1 0h3m1 0h3m2 0h3m3 0h1m6 0h2m2 0h1m1 0h1m2 0h3m1 0h1m2 0h1m1 0h2m1 0h1m1 0h1m1 0h2m1 0h1m5 0h1m2 0h2m1 0h1m1 0h3M4 84.5h1m4 0h4m2 0h3m1 0h1m1 0h4m1 0h3m6 0h1m2 0h1m1 0h2m1 0h1m1 0h1m5 0h2m4 0h1m5 0h2m5 0h1m1 0h1m7 0h1m2 0h2m3 0h1m1 0h1m1 0h1m1 0h1m2 0h2m2 0h4M4 85.5h1m4 0h1m2 0h2m4 0h2m3 0h1m1 0h2m1 0h2m1 0h1m3 0h1m1 0h1m3 0h3m1 0h1m1 0h1m1 0h3m2 0h1m1 0h1m1 0h1m8 0h1m1 0h2m2 0h2m2 0h1m2 0h5m1 0h1m3 0h1m6 0h1m1 0h2m1 0h1M5 86.5h2m1 0h1m1 0h2m1 0h1m5 0h1m1 0h1m4 0h3m3 0h3m1 0h1m2 0h1m1 0h2m3 0h2m1 0h1m2 0h1m3 0h1m1 0h1m1 0h2m1 0h2m1 0h6m1 0h1m1 0h1m3 0h1m3 0h2m1 0h2m2 0h1m2 0h1m1 0h4m4 0h1M4 87.5h2m1 0h3m5 0h5m1 0h1m2 0h2m2 0h1m3 0h1m1 0h7m1 0h1m2 0h1m4 0h2m1 0h2m3 0h1m1 0h1m2 0h1m1 0h2m1 0h1m2 0h1m3 0h1m4 0h4m2 0h1m1 0h1m2 0h1m1 0h2m1 0h4m2 0h1m1 0h1M4 88.5h3m2 0h3m1 0h1m6 0h2m3 0h1m1 0h1m2 0h2m1 0h1m1 0h1m4 0h1m7 0h1m5 0h2m2 0h1m4 0h5m1 0h3m2 0h1m1 0h1m1 0h2m1 0h3m3 0h4m1 0h1m3 0h1m6 0h1M5 89.5h3m4 0h3m4 0h1m5 0h1m2 0h2m1 0h1m1 0h2m1 0h3m1 0h4m2 0h4m3 0h4m3 0h4m1 0h1m1 0h2m1 0h2m7 0h1m4 0h4m2 0h1m1 0h1m1 0h1m2 0h2m1 0h2M4 90.5h5m1 0h1m1 0h1m1 0h4m4 0h3m3 0h4m1 0h2m10 0h2m4 0h1m2 0h2m1 0h1m1 0h2m4 0h1m3 0h5m1 0h3m4 0h1m1 0h1m1 0h3m2 0h1m2 0h1m3 0h1m2 0h2M4 91.5h1m2 0h1m1 0h1m1 0h1m1 0h3m5 0h2m1 0h2m1 0h1m1 0h1m1 0h2m1 0h1m1 0h5m3 0h1m1 0h1m1 0h2m2 0h3m2 0h1m1 0h1m2 0h2m1 0h1m2 0h1m2 0h1m2 0h1m1 0h1m4 0h2m1 0h3m1 0h3m2 0h1m1 0h4m3 0h2M4 92.5h1m1 0h8m2 0h2m1 0h5m1 0h1m4 0h2m1 0h2m2 0h1m1 0h2m1 0h1m7 0h1m3 0h2m2 0h1m2 0h1m3 0h1m1 0h1m1 0h5m1 0h1m2 0h9m3 0h3m1 0h2m1 0h1m4 0h2M4 93.5h1m4 0h1m2 0h1m3 0h1m1 0h2m1 0h3m1 0h1m5 0h1m2 0h1m4 0h2m7 0h1m4 0h1m1 0h2m3 0h1m1 0h1m2 0h4m1 0h1m1 0h2m1 0h1m2 0h3m3 0h2m6 0h3m3 0h1m1 0h1m1 0h2M4 94.5h1m2 0h2m1 0h3m1 0h2m4 0h1m1 0h1m4 0h2m2 0h4m1 0h2m5 0h7m1 0h6m4 0h5m1 0h1m1 0h1m1 0h1m3 0h3m3 0h1m2 0h4m7 0h3m1 0h1m1 0h1m1 0h1M4 95.5h1m1 0h2m1 0h1m2 0h1m2 0h1m1 0h1m3 0h3m1 0h4m2 0h1m1 0h1m2 0h3m2 0h2m1 0h1m3 0h1m4 0h1m1 0h1m5 0h1m4 0h1m2 0h1m2 0h1m1 0h1m2 0h3m2 0h1m1 0h4m1 0h2m2 0h2m2 0h2m5 0h1M8 96.5h1m1 0h2m3 0h1m1 0h1m4 0h1m1 0h5m1 0h5m3 0h1m2 0h1m1 0h1m1 0h2m2 0h8m1 0h1m1 0h2m1 0h3m3 0h4m1 0h5m1 0h3m1 0h2m4 0h1m3 0h1m1 0h5M12 97.5h2m1 0h2m4 0h3m2 0h1m1 0h3m3 0h1m2 0h2m2 0h4m2 0h4m1 0h1m3 0h2m2 0h1m4 0h2m1 0h2m1 0h2m1 0h1m3 0h3m2 0h1m1 0h4m5 0h1m1 0h1m3 0h1m1 0h1M4 98.5h7m1 0h1m1 0h1m1 0h3m1 0h7m1 0h1m1 0h1m1 0h1m1 0h2m1 0h1m4 0h2m3 0h2m1 0h3m1 0h1m1 0h2m5 0h1m1 0h2m3 0h2m2 0h1m1 0h1m1 0h1m1 0h6m2 0h1m1 0h1m3 0h3m1 0h1m1 0h3M4 99.5h1m5 0h1m2 0h2m1 0h1m1 0h3m1 0h1m3 0h1m2 0h2m3 0h1m2 0h3m1 0h1m1 0h2m2 0h2m2 0h2m3 0h1m2 0h2m1 0h1m1 0h2m1 0h4m1 0h3m3 0h2m3 0h4m3 0h1m1 0h3m1 0h1m3 0h2m1 0h2M4 100.5h1m1 0h3m1 0h1m1 0h3m2 0h3m1 0h3m1 0h1m2 0h1m1 0h5m5 0h2m2 0h1m1 0h1m2 0h2m1 0h5m3 0h2m1 0h2m1 0h3m1 0h3m1 0h5m4 0h1m1 0h1m3 0h3m2 0h8M4 101.5h1m1 0h3m1 0h1m1 0h1m2 0h2m1 0h1m1 0h5m2 0h5m1 0h1m2 0h1m1 0h1m3 0h4m1 0h1m1 0h8m1 0h2m3 0h2m3 0h1m1 0h3m7 0h1m4 0h1m2 0h1m2 0h1m2 0h1m1 0h2m1 0h2m2 0h1M4 102.5h1m1 0h3m1 0h1m1 0h1m1 0h1m2 0h5m1 0h1m1 0h1m1 0h1m5 0h4m2 0h1m2 0h1m1 0h1m2 0h3m1 0h1m2 0h6m1 0h1m1 0h2m2 0h1m1 0h1m1 0h6m2 0h1m2 0h1m1 0h2m2 0h1m1 0h1m4 0h2m1 0h3m2 0h1M4 103.5h1m5 0h1m1 0h9m2 0h1m8 0h1m1 0h3m3 0h2m3 0h2m1 0h2m2 0h1m2 0h1m1 0h2m4 0h1m1 0h6m2 0h1m1 0h1m1 0h1m1 0h3m1 0h1m1 0h1m1 0h2m1 0h2m6 0h3m2 0h1M4 104.5h7m1 0h2m3 0h4m1 0h1m4 0h2m1 0h2m4 0h1m1 0h3m3 0h2m2 0h7m3 0h1m4 0h5m4 0h1m1 0h2m3 0h2m7 0h2m1 0h1m1 0h1m5 0h1"/></svg>
