<svg xmlns="http://www.w3.org/2000/svg" viewBox="0 0 113 113" shape-rendering="crispEdges"><path fill="#ffffff" d="M0 0h113v113H0z"/><path stroke="#000000" d="M4 4.5h7m1 0h4m2 0h3m1 0h1m3 0h1m2 0h3m2 0h1m5 0h3m3 0h5m2 0h4m2 0h1m2 0h4m2 0h1m1 0h1m2 0h1m1 0h2m2 0h3m2 0h1m1 0h1m1 0h1m4 0h1m2 0h1m1 0h1m3 0h7M4 5.5h1m5 0h1m1 0h1m1 0h1m1 0h1m1 0h1m3 0h3m1 0h3m1 0h2m2 0h1m2 0h2m2 0h3m3 0h1m1 0h1m2 0h2m4 0h3m2 0h2m1 0h1m2 0h1m2 0h1m5 0h2m2 0h2m5 0h1m2 0h2m1 0h1m2 0h1m3 0h1m5 0h1M4 6.5h1m1 0h3m1 0h1m1 0h1m1 0h4m1 0h2m4 0h1m2 0h2m1 0h4m1 0h1m3 0h1m2 0h2m1 0h1m2 0h5m1 0h1m1 0h2m1 0h1m1 0h1m1 0h1m2 0h1m3 0h1m1 0h1m1 0h3m1 0h2m1 0h2m1 0h2m2 0h1m1 0h1m1 0h1m1 0h2m1 0h2m2 0h1m1 0h3m1 0h1M4 7.5h1m1 0h3m1 0h1m2 0h4m1 0h2m3 0h8m5 0h3m1 0h1m1 0h5m1 0h3m1 0h1m3 0h3m4 0h3m6 0h3m5 0h2m1 0h3m1 0h1m2 0h1m1 0h1m2 0h1m1 0h1m2 0h1m1 0h1m1 0h3m1 0h1M4 8.5h1m1 0h3m1 0h1m1 0h5m3 0h1m2 0h1m1 0h1m2 0h6m2 0h2m1 0h2m1 0h3m1 0h2m1 0h2m1 0h5m1 0h2m1 0h1m2 0h1m2 0h1m2 0h1m2 0h8m1 0h1m4 0h1m1 0h2m3 0h3m2 0h2m1 0h1m1 0h3m1 0h1M4 9.5h1m5 0h1m2 0h1m1 0h3m1 0h2m1 0h2m1 0h2m1 0h1m3 0h1m2 0h2m2 0h1m3 0h1m1 0h1m1 0h1m1 0h1m1 0h2m3 0h1m4 0h2m1 0h3m4 0h3m1 0h2m3 0h1m1 0h3m1 0h1m2 0h1m1 0h2m6 0h1m2 0h1m5 0h1M4 10.5h7m1 0h1m1 0h1m1 0h1m1 0h1m1 0h1m1 0h1m1 0h1m1 0h1m1 0h1m1 0h1m1 0h1m1 0h1m1 0h1m1 0h1m1 0h1m1 0h1m1 0h1m1 0h1m1 0h1m1 0h1m1 0h1m1 0h1m1 0h1m1 0h1m1 0h1m1 0h1m1 0h1m1 0h1m1 0h1m1 0h1m1 0h1m1 0h1m1 0h1m1 0h1m1 0h1m1 0h1m1 0h1m1 0h1m1 0h1m1 0h1m1 0h1m1 0h1m1 0h1m1 0h1m1 0h1m1 0h7M14 11.5h2m1 0h1m1 0h2m5 0h3m3 0h2m1 0h1m4 0h2m1 0h2m1 0h1m1 0h1m2 0h2m3 0h3m5 0h6m6 0h1m3 0h1m1 0h2m4 0h4m1 0h3m2 0h2M4 12.5h1m2 0h6m1 0h5m2 0h1m1 0h1m1 0h1m1 0h7m1 0h1m1 0h1m4 0h1m1 0h5m1 0h7m2 0h2m3 0h1m2 0h1m2 0h2m2 0h1m1 0h5m1 0h1m1 0h1m1 0h1m2 0h1m2 0h1m1 0h3m1 0h2m1 0h1m2 0h1m1 0h3M4 13.5h3m2 0h1m4 0h1m1 0h1m2 0h2m1 0h1m1 0h1m2 0h1m1 0h1m7 0h1m2 0h2m1 0h2m2 0h3m1 0h3m1 0h5m2 0h1m6 0h4m5 0h2m2 0h1m3 0h1m1 0h1m1 0h4m2 0h1m2 0h1m1 0h1m1 0h1m1 0h2M7 14.5h1m1 0h3m6 0h1m2 0h2m1 0h1m1 0h1m1 0h1m2 0h1m1 0h1m1 0h1m1 0h2m1 0h1m7 0h2m1 0h2m3 0h2m2 0h1m3 0h1m2 0h1m1 0h2m2 0h2m2 0h1m2 0h2m1 0h2m3 0h3m2 0h1m2 0h1m3 0h1m2 0h1m2 0h3M6 15.5h1m10 0h2m1 0h1m2 0h2m1 0h2m3 0h1m2 0h1m1 0h5m4 0h1m1 0h4m1 0h3m1 0h2m1 0h1m1 0h3m3 0h2m1 0h1m1 0h1m1 0h1m1 0h3m1 0h1m1 0h2m1 0h3m1 0h2m1 0h1m3 0h3m1 0h4m1 0h1m2 0h1M5 16.5h4m1 0h3m3 0h1m1 0h6m1 0h4m2 0h4m3 0h3m1 0h1m2 0h2m5 0h2m3 0h2m1 0h6m1 0h2m1 0h1m1 0h1m5 0h4m6 0h2m1 0h1m1 0h1m1 0h1m4 0h3m1 0h1m3 0h1M4 17.5h1m2 0h1m1 0h1m2 0h1m3 0h1m1 0h3m1 0h1m2 0h2m2 0h1m1 0h4m1 0h1m1 0h3m3 0h6m1 0h4m4 0h1m2 0h5m3 0h3m1 0h2m1 0h2m1 0h2m1 0h1m1 0h1m2 0h2m3 0h3m1 0h1m2 0h2m1 0h4M4 18.5h1m3 0h4m3 0h2m1 0h6m2 0h3m3 0h1m1 0h3m1 0h1m5 0h3m1 0h1m4 0h2m1 0h1m2 0h2m4 0h4m1 0h3m3 0h1m2 0h1m1 0h1m1 0h2m4 0h1m2 0h3m1 0h1m1 0h1m1 0h2m2 0h1m1 0h1m1 0h1M5 19.5h3m5 0h1m1 0h1m1 0h1m4 0h3m2 0h2m1 0h3m1 0h1m1 0h3m1 0h2m2 0h1m2 0h1m1 0h4m2 0h1m1 0h1m1 0h3m3 0h2m5 0h1m1 0h3m1 0h1m2 0h4m4 0h1m1 0h1m1 0h2m5 0h3m2 0h2m1 0h1M4 20.5h2m1 0h2m1 0h5m1 0h1m1 0h2m3 0h2m1 0h1m1 0h1m1 0h1m1 0h3m2 0h2m2 0h3m1 0h2m1 0h1m1 0h1m3 0h1m1 0h2m4 0h1m1 0h1m1 0h2m3 0h4m1 0h6m5 0h2m1 0h2m3 0h2m3 0h1m4 0h1m1 0h1M6 21.5h1m4 0h1m1 0h1m1 0h2m5 0h1m1 0h1m1 0h4m1 0h1m1 0h1m1 0h3m2 0h3m1 0h1m1 0h1m2 0h1m2 0h2m5 0h3m3 0h3m1 0h1m1 0h2m3 0h1m2 0h2m5 0h1m2 0h1m1 0h2m2 0h2m2 0h2m2 0h1m1 0h1M4 22.5h3m1 0h1m1 0h2m2 0h2m2 0h1m1 0h3m3 0h1m2 0h1m1 0h1m2 0h1m1 0h1m4 0h1m1 0h2m2 0h2m1 0h1m1 0h6m6 0h1m1 0h1m2 0h1m2 0h1m1 0h1m1 0h1m2 0h5m11 0h1m3 0h1m1 0h1m3 0h1M4 23.5h1m2 0h2m5 0h1m3 0h1m6 0h1m1 0h2m3 0h3m4 0h1m2 0h4m2 0h2m1 0h1m2 0h1m6 0h2m6 0h4m3 0h1m1 0h4m1 0h1m2 0h2m1 0h2m1 0h1m1 0h2m5 0h2m1 0h1m1 0h1m1 0h1M4 24.5h1m1 0h2m1 0h3m2 0h1m4 0h1m2 0h2m1 0h1m2 0h2m1 0h1m1 0h1m1 0h2m1 0h1m1 0h2m3 0h1m1 0h2m2 0h3m2 0h3m1 0h6m7 0h1m1 0h3m1 0h1m2 0h3m1 0h1m1 0h1m1 0h2m1 0h2m1 0h1m1 0h3m2 0h2m2 0h1M4 25.5h3m2 0h1m2 0h1m1 0h7m1 0h5m1 0h1m1 0h1m1 0h1m1 0h1m3 0h1m3 0h4m4 0h1m1 0h3m1 0h1m1 0h1m1 0h3m2 0h3m2 0h2m1 0h1m1 0h2m3 0h2m3 0h6m2 0h2m1 0h1m1 0h1m1 0h1m1 0h5m1 0h1M7 26.5h1m1 0h2m3 0h1m1 0h2m1 0h7m1 0h1m1 0h1m1 0h1m5 0h2m3 0h1m1 0h1m3 0h3m1 0h1m1 0h1m2 0h1m1 0h1m6 0h1m2 0h1m1 0h3m1 0h1m7 0h1m2 0h1m1 0h1m3 0h1m1 0h1m1 0h2m1 0h3m1 0h1m1 0h1m1 0h2M6 27.5h2m1 0h1m2 0h1m1 0h6m2 0h2m2 0h1m2 0h1m3 0h2m2 0h2m1 0h3m1 0h5m1 0h4m1 0h1m2 0h3m1 0h1m1 0h3m2 0h3m2 0h5m1 0h1m3 0h3m5 0h2m2 0h1m1 0h1m3 0h2m3 0h1M6 28.5h1m1 0h8m1 0h4m1 0h1m1 0h11m2 0h1m1 0h3m3 0h1m1 0h1m2 0h1m1 0h6m3 0h1m1 0h1m3 0h1m2 0h1m2 0h10m1 0h2m1 0h2m1 0h1m1 0h4m1 0h8m1 0h1m1 0h1M6 29.5h1m1 0h1m3 0h1m2 0h2m2 0h2m1 0h3m2 0h2m3 0h4m2 0h1m1 0h1m4 0h1m6 0h1m3 0h2m3 0h1m3 0h2m2 0h1m1 0h1m1 0h4m3 0h2m1 0h1m2 0h1m1 0h2m3 0h1m1 0h4m1 0h1m3 0h1m1 0h1M5 30.5h1m2 0h1m1 0h1m1 0h2m2 0h1m2 0h4m2 0h1m1 0h2m1 0h1m1 0h4m4 0h1m1 0h1m2 0h1m1 0h1m2 0h1m1 0h1m1 0h1m1 0h1m3 0h2m3 0h3m2 0h3m1 0h3m1 0h1m1 0h1m2 0h1m2 0h2m1 0h1m3 0h2m5 0h1m1 0h1m1 0h5M6 31.5h3m3 0h1m2 0h1m3 0h2m2 0h1m1 0h4m3 0h1m1 0h2m3 0h1m3 0h2m1 0h2m2 0h1m1 0h1m3 0h1m2 0h1m1 0h2m1 0h2m1 0h1m2 0h1m1 0h1m1 0h3m3 0h7m3 0h3m3 0h1m1 0h3m3 0h5M7 32.5h8m2 0h2m1 0h5m2 0h6m1 0h3m4 0h1m2 0h3m2 0h2m1 0h6m1 0h1m1 0h3m1 0h1m2 0h1m1 0h1m5 0h7m3 0h5m2 0h4m2 0h10M6 33.5h1m1 0h2m2 0h1m9 0h2m1 0h1m2 0h1m3 0h1m1 0h1m1 0h1m1 0h4m3 0h1m1 0h3m1 0h3m3 0h2m1 0h2m2 0h1m1 0h4m2 0h1m2 0h2m1 0h3m1 0h3m5 0h1m1 0h3m2 0h2m1 0h2m2 0h1m1 0h2M8 34.5h5m1 0h5m1 0h1m1 0h2m1 0h2m1 0h2m2 0h1m1 0h1m4 0h3m8 0h2m1 0h1m1 0h3m2 0h1m1 0h1m2 0h2m3 0h3m2 0h2m2 0h7m1 0h6m1 0h2m2 0h1m1 0h1m1 0h1m3 0h2M6 35.5h1m6 0h1m2 0h1m1 0h8m1 0h1m1 0h2m1 0h1m4 0h6m2 0h2m2 0h1m2 0h1m1 0h3m1 0h1m1 0h3m1 0h2m1 0h2m2 0h3m3 0h1m3 0h3m1 0h1m4 0h4m2 0h1m1 0h1m1 0h1m3 0h3m1 0h1M8 36.5h1m1 0h1m4 0h1m1 0h1m2 0h2m1 0h2m1 0h1m1 0h1m3 0h2m2 0h1m2 0h1m1 0h1m1 0h2m2 0h3m3 0h1m2 0h2m1 0h2m1 0h1m1 0h2m1 0h4m1 0h1m3 0h1m1 0h4m2 0h1m2 0h1m3 0h1m4 0h5m1 0h1m1 0h1m2 0h2M4 37.5h1m1 0h2m8 0h3m3 0h1m1 0h5m2 0h3m1 0h1m2 0h1m3 0h2m2 0h3m3 0h1m2 0h1m1 0h1m3 0h3m1 0h1m1 0h1m1 0h2m8 0h1m2 0h1m1 0h1m3 0h1m1 0h2m1 0h8m7 0h1M9 38.5h2m1 0h2m1 0h1m3 0h4m1 0h1m1 0h1m1 0h1m4 0h1m3 0h1m1 0h3m1 0h3m1 0h5m1 0h1m3 0h1m1 0h2m1 0h2m1 0h2m2 0h1m1 0h2m1 0h3m5 0h3m1 0h1m1 0h1m1 0h2m2 0h4m1 0h1m1 0h1m2 0h1m3 0h1M5 39.5h1m1 0h1m3 0h1m3 0h2m1 0h2m3 0h1m1 0h3m4 0h1m2 0h1m2 0h3m2 0h1m1 0h2m4 0h2m1 0h3m3 0h1m1 0h1m1 0h3m3 0h1m1 0h1m1 0h3m1 0h3m1 0h1m1 0h1m1 0h3m1 0h3m2 0h3m2 0h2m2 0h3M6 40.5h3m1 0h2m2 0h1m4 0h5m2 0h3m1 0h1m2 0h1m2 0h1m1 0h1m3 0h3m2 0h1m2 0h1m2 0h1m1 0h1m1 0h3m1 0h1m1 0h4m8 0h1m1 0h5m3 0h2m1 0h3m1 0h3m6 0h1m1 0h6M4 41.5h2m2 0h1m7 0h1m1 0h3m1 0h2m2 0h1m2 0h1m2 0h3m1 0h2m1 0h1m2 0h1m1 0h3m1 0h1m3 0h2m2 0h1m2 0h1m1 0h2m1 0h1m3 0h1m3 0h1m1 0h1m2 0h2m2 0h3m2 0h1m1 0h1m1 0h5m1 0h4m2 0h2m2 0h1m1 0h1M4 42.5h1m2 0h4m2 0h1m2 0h3m2 0h1m1 0h1m3 0h1m1 0h2m3 0h1m1 0h1m6 0h6m1 0h1m2 0h2m1 0h1m4 0h3m5 0h2m1 0h1m1 0h1m1 0h1m2 0h2m2 0h1m1 0h5m2 0h4m2 0h3m2 0h1m1 0h3M6 43.5h2m3 0h1m6 0h1m1 0h2m2 0h2m1 0h1m4 0h1m2 0h2m2 0h5m3 0h1m2 0h1m1 0h1m3 0h2m1 0h1m2 0h1m1 0h2m7 0h1m1 0h2m1 0h1m2 0h3m5 0h2m1 0h1m3 0h3m1 0h1m5 0h3M6 44.5h2m2 0h2m1 0h3m1 0h1m1 0h2m4 0h4m1 0h3m1 0h2m2 0h1m2 0h1m1 0h6m1 0h1m3 0h1m3 0h1m1 0h4m1 0h2m1 0h1m2 0h2m1 0h3m2 0h3m3 0h1m3 0h1m1 0h1m3 0h1m3 0h5m2 0h1m1 0h1M7 45.5h1m3 0h1m2 0h1m1 0h1m3 0h4m2 0h1m1 0h4m2 0h1m1 0h1m1 0h5m1 0h1m1 0h1m3 0h4m1 0h4m3 0h4m6 0h1m2 0h1m3 0h1m1 0h6m5 0h2m1 0h2m4 0h1m1 0h3M6 46.5h1m1 0h4m5 0h2m2 0h1m3 0h5m1 0h2m3 0h1m3 0h2m1 0h1m1 0h7m1 0h1m1 0h1m2 0h2m1 0h1m6 0h3m1 0h4m1 0h2m1 0h4m2 0h1m4 0h2m2 0h2m1 0h1m1 0h1m1 0h2m1 0h4M4 47.5h1m1 0h4m2 0h1m4 0h3m1 0h2m1 0h1m1 0h2m3 0h2m1 0h2m1 0h1m2 0h2m1 0h4m1 0h1m1 0h2m3 0h3m1 0h2m1 0h5m2 0h12m4 0h1m2 0h1m3 0h1m1 0h3m1 0h4m1 0h4M5 48.5h3m2 0h1m3 0h4m1 0h5m2 0h1m2 0h3m1 0h2m1 0h2m2 0h1m1 0h3m1 0h3m2 0h1m1 0h2m1 0h1m1 0h2m3 0h3m1 0h3m1 0h1m1 0h3m1 0h2m1 0h1m1 0h4m1 0h1m1 0h1m3 0h1m1 0h1m1 0h2m1 0h1m2 0h1m1 0h3M4 49.5h2m2 0h2m2 0h1m1 0h1m3 0h5m1 0h5m2 0h1m1 0h1m2 0h1m1 0h1m2 0h1m1 0h6m3 0h6m1 0h2m1 0h1m3 0h2m1 0h1m2 0h1m1 0h4m2 0h1m1 0h3m1 0h1m4 0h4m2 0h4m2 0h3m1 0h2M4 50.5h4m2 0h1m2 0h2m2 0h3m1 0h4m1 0h1m3 0h4m3 0h1m1 0h1m1 0h1m1 0h4m3 0h2m1 0h2m2 0h1m1 0h1m1 0h1m2 0h4m1 0h1m1 0h1m1 0h2m1 0h1m1 0h3m6 0h4m1 0h1m2 0h3m1 0h3m1 0h1m1 0h1M8 51.5h2m3 0h1m2 0h3m1 0h1m1 0h3m1 0h1m2 0h1m4 0h3m5 0h2m2 0h2m2 0h1m1 0h2m2 0h3m4 0h1m2 0h3m1 0h3m1 0h4m3 0h2m1 0h1m2 0h5m1 0h1m2 0h3m1 0h5M4 52.5h9m1 0h1m1 0h3m2 0h2m5 0h6m1 0h1m1 0h1m1 0h2m1 0h2m2 0h1m1 0h1m2 0h7m2 0h2m1 0h3m1 0h1m2 0h2m1 0h1m1 0h6m4 0h2m1 0h2m1 0h1m1 0h1m1 0h2m3 0h7M4 53.5h5m3 0h2m1 0h3m2 0h2m1 0h6m3 0h1m1 0h1m2 0h3m2 0h3m2 0h1m2 0h1m1 0h1m3 0h3m1 0h2m1 0h2m2 0h1m1 0h3m1 0h1m1 0h2m3 0h4m1 0h1m4 0h1m3 0h2m1 0h2m1 0h1m3 0h5M5 54.5h4m1 0h1m1 0h1m2 0h1m10 0h1m1 0h1m1 0h1m1 0h1m2 0h2m1 0h3m3 0h1m1 0h3m2 0h2m1 0h1m1 0h1m1 0h1m3 0h1m1 0h1m7 0h1m1 0h1m1 0h1m1 0h1m1 0h3m3 0h1m1 0h5m1 0h2m1 0h4m1 0h1m1 0h5M5 55.5h2m1 0h1m3 0h1m5 0h8m1 0h2m3 0h1m3 0h2m1 0h3m2 0h2m1 0h1m2 0h3m3 0h2m1 0h2m1 0h3m4 0h3m2 0h3m3 0h1m5 0h5m1 0h1m1 0h2m1 0h4m3 0h4M7 56.5h6m9 0h4m2 0h5m1 0h1m1 0h2m1 0h1m1 0h1m3 0h1m1 0h10m3 0h1m1 0h4m1 0h1m2 0h1m1 0h1m1 0h10m1 0h2m3 0h1m1 0h2m1 0h1m3 0h6m2 0h2M4 57.5h5m3 0h5m1 0h2m1 0h2m2 0h1m1 0h1m1 0h3m2 0h2m3 0h1m6 0h2m3 0h1m7 0h2m2 0h5m2 0h1m2 0h2m1 0h2m1 0h3m2 0h1m1 0h2m5 0h4m1 0h4m2 0h1m1 0h1M4 58.5h1m1 0h2m1 0h3m1 0h3m1 0h1m2 0h2m4 0h1m1 0h3m2 0h1m2 0h1m2 0h1m2 0h1m1 0h1m3 0h2m1 0h1m2 0h1m1 0h3m2 0h2m2 0h5m2 0h2m2 0h1m1 0h1m3 0h8m1 0h1m2 0h2m1 0h1m1 0h1m2 0h3m1 0h2M7 59.5h1m1 0h1m1 0h1m2 0h1m1 0h1m1 0h1m1 0h1m1 0h3m1 0h1m2 0h1m2 0h1m1 0h1m1 0h2m2 0h2m3 0h2m1 0h1m2 0h2m5 0h1m3 0h1m1 0h2m1 0h1m1 0h3m1 0h1m1 0h2m1 0h1m5 0h4m2 0h1m4 0h1m5 0h1m3 0h2m1 0h1M7 60.5h1m2 0h1m2 0h2m1 0h1m1 0h2m5 0h1m3 0h4m1 0h1m2 0h1m2 0h7m1 0h1m3 0h6m1 0h1m1 0h2m2 0h6m1 0h4m4 0h2m1 0h1m3 0h1m1 0h1m2 0h2m1 0h1m1 0h1m5 0h1m2 0h1M7 61.5h1m3 0h2m2 0h2m1 0h2m5 0h2m1 0h1m6 0h1m1 0h1m1 0h3m1 0h5m4 0h1m1 0h1m1 0h1m4 0h1m2 0h1m8 0h1m1 0h1m1 0h2m1 0h4m2 0h1m2 0h1m2 0h3m1 0h1m1 0h3m2 0h2M4 62.5h1m1 0h1m3 0h1m3 0h4m1 0h2m1 0h4m1 0h1m5 0h1m1 0h2m1 0h1m1 0h3m3 0h1m2 0h1m3 0h1m1 0h5m3 0h1m8 0h3m1 0h8m4 0h4m2 0h1m4 0h1m1 0h2m1 0h1m2 0h2M4 63.5h6m3 0h5m3 0h1m2 0h4m2 0h1m2 0h2m1 0h1m5 0h1m2 0h1m3 0h2m2 0h1m1 0h1m2 0h4m4 0h3m2 0h2m1 0h3m2 0h1m2 0h1m1 0h4m1 0h1m1 0h5m3 0h1m1 0h1m2 0h1m1 0h1M5 64.5h1m2 0h1m1 0h1m3 0h2m1 0h1m2 0h1m2 0h1m2 0h2m2 0h4m4 0h2m2 0h1m4 0h2m2 0h1m1 0h3m1 0h3m1 0h1m1 0h7m1 0h1m5 0h1m2 0h3m1 0h4m3 0h9m1 0h1m1 0h2m1 0h1m1 0h1M5 65.5h2m2 0h1m2 0h3m2 0h1m2 0h3m1 0h1m1 0h4m1 0h5m4 0h1m2 0h2m1 0h1m3 0h1m4 0h1m1 0h3m1 0h8m4 0h1m1 0h2m6 0h1m1 0h1m1 0h2m2 0h1m2 0h1m2 0h3m2 0h1m2 0h1M5 66.5h7m3 0h3m2 0h2m2 0h6m5 0h2m5 0h3m1 0h1m1 0h2m1 0h3m4 0h2m3 0h1m4 0h1m1 0h2m1 0h1m2 0h1m1 0h1m1 0h1m1 0h2m1 0h1m6 0h1m1 0h2m1 0h1m1 0h2m1 0h2m1 0h1m1 0h1M5 67.5h1m1 0h2m4 0h1m4 0h1m1 0h4m1 0h5m1 0h1m7 0h1m2 0h1m1 0h3m2 0h2m1 0h2m3 0h2m1 0h2m1 0h1m4 0h3m2 0h1m1 0h2m3 0h2m1 0h2m2 0h1m5 0h1m1 0h1m3 0h3m3 0h2m1 0h1M10 68.5h4m5 0h1m3 0h4m1 0h1m1 0h2m4 0h1m5 0h1m1 0h1m3 0h3m1 0h4m1 0h3m2 0h1m3 0h1m8 0h3m1 0h1m2 0h4m1 0h4m1 0h2m3 0h1m1 0h3m2 0h3m1 0h1M5 69.5h2m4 0h1m1 0h1m2 0h2m2 0h1m1 0h2m2 0h1m2 0h3m1 0h1m2 0h2m11 0h2m3 0h2m2 0h1m2 0h4m3 0h2m1 0h1m1 0h1m1 0h1m3 0h1m1 0h2m2 0h7m1 0h2m3 0h1m1 0h1m1 0h1m1 0h4M4 70.5h1m1 0h2m1 0h3m2 0h2m1 0h2m1 0h12m1 0h1m5 0h2m2 0h1m1 0h1m3 0h1m2 0h4m1 0h2m1 0h6m1 0h3m1 0h2m1 0h1m2 0h1m1 0h1m1 0h1m2 0h1m2 0h4m3 0h1m1 0h1m2 0h3m2 0h2m1 0h1M6 71.5h3m2 0h1m7 0h1m1 0h1m6 0h2m1 0h1m1 0h1m1 0h1m2 0h2m4 0h2m6 0h1m1 0h7m2 0h1m3 0h1m3 0h2m1 0h1m1 0h1m1 0h1m4 0h2m2 0h1m1 0h4m1 0h2m1 0h1m1 0h2m2 0h1m1 0h2m1 0h1M4 72.5h1m1 0h1m1 0h1m1 0h1m3 0h3m1 0h1m1 0h1m3 0h3m2 0h1m4 0h3m1 0h3m5 0h3m4 0h4m2 0h2m7 0h2m1 0h1m1 0h1m1 0h2m2 0h2m1 0h1m1 0h2m1 0h1m1 0h3m1 0h1m1 0h1m2 0h3m1 0h1m2 0h1m1 0h2M4 73.5h1m1 0h1m1 0h1m3 0h9m2 0h1m1 0h1m3 0h2m1 0h1m1 0h3m2 0h1m2 0h4m2 0h2m2 0h2m1 0h1m1 0h4m2 0h1m1 0h3m4 0h5m5 0h3m1 0h1m1 0h1m2 0h2m1 0h1m1 0h3m1 0h5m1 0h3M4 74.5h3m3 0h1m6 0h3m1 0h1m1 0h7m2 0h3m2 0h1m1 0h1m1 0h3m1 0h1m1 0h4m2 0h4m1 0h3m1 0h4m1 0h4m7 0h3m4 0h3m1 0h5m2 0h4m1 0h2m1 0h3M7 75.5h1m1 0h1m2 0h2m1 0h3m4 0h2m1 0h1m1 0h2m1 0h2m3 0h1m1 0h5m1 0h1m1 0h1m8 0h2m1 0h1m4 0h2m2 0h1m1 0h2m2 0h3m3 0h4m1 0h5m4 0h1m1 0h3m3 0h1m3 0h1m2 0h1M4 76.5h14m4 0h1m1 0h1m1 0h1m1 0h5m3 0h1m2 0h1m1 0h4m2 0h1m2 0h1m1 0h5m3 0h1m4 0h2m2 0h1m1 0h2m1 0h7m1 0h3m2 0h2m1 0h1m3 0h1m1 0h1m3 0h8M4 77.5h1m1 0h3m3 0h1m2 0h1m1 0h2m2 0h1m3 0h4m3 0h4m6 0h5m1 0h1m3 0h1m3 0h1m2 0h3m1 0h2m1 0h2m3 0h2m2 0h2m3 0h2m2 0h8m2 0h3m2 0h2m3 0h1M4 78.5h2m1 0h2m1 0h1m1 0h1m1 0h1m1 0h2m1 0h1m4 0h2m1 0h2m1 0h1m1 0h2m3 0h1m1 0h1m1 0h1m3 0h1m3 0h2m1 0h1m1 0h1m1 0h4m2 0h1m1 0h2m1 0h1m1 0h1m2 0h3m1 0h1m1 0h1m1 0h3m2 0h2m1 0h3m1 0h4m4 0h1m1 0h1m1 0h1m2 0h1M8 79.5h1m3 0h1m1 0h2m8 0h1m3 0h1m3 0h1m1 0h2m2 0h1m1 0h1m1 0h1m4 0h1m1 0h2m1 0h1m3 0h1m3 0h1m1 0h1m1 0h4m1 0h1m1 0h2m3 0h1m3 0h3m1 0h3m1 0h2m2 0h3m2 0h1m2 0h1m3 0h1m1 0h1M6 80.5h1m1 0h5m1 0h1m2 0h1m1 0h5m4 0h5m2 0h2m3 0h1m1 0h2m1 0h1m4 0h8m2 0h1m1 0h1m3 0h1m4 0h3m2 0h5m3 0h1m3 0h3m1 0h1m1 0h1m1 0h1m1 0h1m1 0h6m1 0h2M4 81.5h1m1 0h1m2 0h1m1 0h1m1 0h4m2 0h1m2 0h1m3 0h1m1 0h3m1 0h2m3 0h1m1 0h2m1 0h1m1 0h2m2 0h1m1 0h1m1 0h2m7 0h1m3 0h1m1 0h1m1 0h1m3 0h1m1 0h2m2 0h1m1 0h4m2 0h2m2 0h1m2 0h1m2 0h1m1 0h2m4 0h1m1 0h1M4 82.5h8m1 0h2m1 0h1m1 0h1m3 0h2m1 0h1m2 0h3m1 0h2m4 0h1m2 0h2m1 0h3m4 0h1m1 0h1m3 0h1m1 0h6m2 0h2m2 0h1m2 0h1m3 0h2m1 0h8m2 0h2m2 0h1m1 0h1m1 0h2m1 0h1m1 0h5M4 83.5h1m2 0h1m1 0h1m1 0h3m3 0h2m2 0h2m2 0h4m8 0h4m1 0h1m1 0h1m4 0h2m1 0h1m8 0h1m1 0h2m1 0h3m1 0h2m4 0h2m1 0h2m1 0h1m1 0h1m1 0h2m1 0h3m1 0h1m1 0h3m3 0h1m4 0h2M5 84.5h2m3 0h1m2 0h4m2 0h1m2 0h1m4 0h2m1 0h3m2 0h1m1 0h4m2 0h1m5 0h1m1 0h2m1 0h1m2 0h2m4 0h3m1 0h1m1 0h2m2 0h3m1 0h2m5 0h3m3 0h5m1 0h1m1 0h1m2 0h2m2 0h3M4 85.5h2m2 0h1m3 0h1m1 0h2m1 0h1m1 0h2m8 0h2m1 0h1m1 0h1m7 0h1m2 0h1m2 0h5m2 0h2m1 0h1m1 0h1m1 0h1m2 0h1m1 0h1m1 0h6m2 0h2m1 0h2m4 0h4m1 0h1m4 0h2m2 0h2m1 0h2m1 0h1m1 0h1M4 86.5h1m1 0h1m3 0h1m2 0h1m1 0h1m1 0h1m1 0h1m2 0h2m1 0h2m2 0h4m1 0h4m2 0h1m1 0h2m1 0h1m1 0h3m2 0h4m1 0h2m2 0h2m1 0h2m2 0h1m4 0h1m4 0h2m3 0h1m2 0h1m1 0h4m2 0h3m2 0h2m1 0h1m1 0h5M12 87.5h1m2 0h4m5 0h1m5 0h2m2 0h1m1 0h4m2 0h1m1 0h1m1 0h2m1 0h1m1 0h1m1 0h4m3 0h3m1 0h1m3 0h11m1 0h1m1 0h3m1 0h1m3 0h3m1 0h2m1 0h1m2 0h1m4 0h1M4 88.5h1m5 0h3m1 0h2m2 0h1m4 0h2m2 0h2m2 0h2m4 0h4m2 0h2m2 0h3m1 0h1m3 0h3m1 0h3m3 0h1m3 0h1m1 0h3m3 0h1m1 0h4m3 0h3m2 0h4m4 0h1m1 0h3m1 0h1m1 0h2M4 89.5h2m5 0h1m1 0h1m1 0h2m1 0h1m1 0h5m1 0h5m5 0h3m2 0h1m1 0h2m1 0h1m1 0h2m2 0h2m1 0h1m1 0h3m1 0h1m2 0h1m4 0h2m2 0h1m1 0h6m1 0h3m3 0h1m3 0h3m1 0h4m1 0h3m2 0h1M4 90.5h7m4 0h1m1 0h1m2 0h2m1 0h1m1 0h1m2 0h1m2 0h2m2 0h1m1 0h2m1 0h1m1 0h6m2 0h1m1 0h5m1 0h3m2 0h1m3 0h5m6 0h2m1 0h1m1 0h5m1 0h3m2 0h1m4 0h1m1 0h1m3 0h1m1 0h2M9 91.5h1m1 0h1m1 0h2m1 0h1m2 0h1m1 0h1m2 0h2m1 0h1m2 0h2m2 0h1m5 0h2m1 0h4m1 0h1m1 0h2m1 0h1m2 0h3m4 0h1m3 0h1m4 0h2m1 0h1m1 0h1m3 0h3m1 0h1m3 0h2m2 0h2m2 0h2m1 0h1m1 0h1m1 0h1m2 0h2M6 92.5h1m1 0h1m1 0h1m2 0h1m1 0h1m2 0h1m2 0h6m1 0h4m1 0h1m2 0h3m4 0h4m2 0h1m1 0h5m1 0h1m2 0h3m1 0h1m1 0h2m2 0h2m1 0h1m2 0h1m1 0h1m2 0h2m1 0h3m2 0h3m2 0h6m1 0h2m2 0h1M4 93.5h1m2 0h2m4 0h1m2 0h1m2 0h3m2 0h3m1 0h3m2 0h5m5 0h1m1 0h1m2 0h2m1 0h2m3 0h2m2 0h1m1 0h1m1 0h1m1 0h4m6 0h3m1 0h2m2 0h1m1 0h4m1 0h2m2 0h3m2 0h3m1 0h5M4 94.5h2m2 0h1m1 0h1m1 0h1m1 0h3m1 0h1m3 0h2m2 0h1m1 0h1m2 0h6m6 0h2m1 0h1m1 0h3m9 0h3m1 0h2m2 0h1m1 0h1m1 0h1m1 0h1m1 0h1m1 0h9m2 0h1m3 0h2m5 0h1m1 0h1m1 0h3M7 95.5h3m1 0h1m2 0h1m10 0h1m3 0h2m1 0h3m1 0h3m1 0h1m3 0h1m1 0h3m1 0h2m1 0h3m7 0h1m1 0h1m2 0h1m1 0h2m1 0h1m1 0h1m2 0h1m3 0h1m1 0h1m3 0h1m1 0h2m2 0h2m2 0h1m1 0h1m1 0h1m2 0h1m1 0h2M4 96.5h3m3 0h2m1 0h1m3 0h2m1 0h3m3 0h3m1 0h6m2 0h2m1 0h4m5 0h1m1 0h1m2 0h1m1 0h4m2 0h2m2 0h2m2 0h1m1 0h1m1 0h1m1 0h1m3 0h1m3 0h3m1 0h1m5 0h2m2 0h1m1 0h1m2 0h2m1 0h2M4 97.5h1m1 0h2m1 0h1m1 0h2m1 0h1m4 0h3m2 0h1m3 0h1m1 0h7m1 0h2m1 0h3m1 0h2m1 0h4m3 0h3m2 0h1m1 0h7m2 0h3m3 0h1m2 0h3m1 0h1m1 0h1m2 0h2m1 0h2m1 0h3m1 0h4m1 0h1m3 0h1M4 98.5h3m3 0h3m1 0h1m1 0h1m1 0h2m1 0h2m1 0h3m2 0h1m2 0h1m1 0h2m1 0h1m1 0h2m2 0h1m3 0h2m1 0h1m2 0h2m1 0h1m1 0h5m2 0h2m7 0h1m1 0h2m2 0h2m2 0h3m1 0h3m3 0h1m1 0h1m3 0h1m1 0h3m1 0h2M6 99.5h1m1 0h2m1 0h1m1 0h2m1 0h6m2 0h1m2 0h3m1 0h1m1 0h6m1 0h1m2 0h1m5 0h1m1 0h4m3 0h1m1 0h1m2 0h6m3 0h2m1 0h2m2 0h5m1 0h1m1 0h1m1 0h1m1 0h2m2 0h2m3 0h2m6 0h1M7 100.5h2m1 0h4m1 0h1m2 0h3m2 0h1m4 0h6m2 0h1m1 0h1m1 0h4m1 0h2m1 0h2m1 0h6m2 0h1m3 0h1m1 0h2m2 0h3m1 0h8m4 0h4m1 0h1m2 0h1m1 0h1m1 0h2m1 0h5m1 0h1m1 0h1M12 101.5h1m6 0h3m1 0h3m1 0h2m3 0h1m1 0h1m6 0h8m2 0h2m3 0h1m1 0h2m2 0h1m1 0h3m1 0h1m1 0h1m1 0h1m2 0h2m3 0h1m2 0h1m4 0h4m1 0h2m3 0h3m3 0h1m2 0h2M4 102.5h7m1 0h5m1 0h1m1 0h3m2 0h1m1 0h2m1 0h1m1 0h2m1 0h3m1 0h2m2 0h3m2 0h1m2 0h2m1 0h1m1 0h1m1 0h4m1 0h2m1 0h1m1 0h1m2 0h1m3 0h2m1 0h1m1 0h2m1 0h1m1 0h1m1 0h1m1 0h2m1 0h3m3 0h1m1 0h1m1 0h1m1 0h4M4 103.5h1m5 0h1m1 0h1m1 0h2m2 0h1m2 0h1m1 0h2m3 0h1m3 0h6m3 0h1m1 0h1m2 0h2m4 0h1m3 0h2m3 0h1m2 0h1m5 0h3m3 0h1m3 0h1m1 0h1m3 0h1m1 0h2m2 0h2m2 0h1m2 0h2m3 0h1M4 104.5h1m1 0h3m1 0h1m1 0h1m1 0h3m2 0h3m4 0h7m1 0h1m1 0h1m5 0h4m1 0h2m3 0h8m1 0h1m1 0h2m2 0h2m1 0h1m1 0h2m1 0h6m4 0h1m4 0h1m2 0h2m2 0h1m1 0h8M4 105.5h1m1 0h3m1 0h1m1 0h1m2 0h1m2 0h1m1 0h2m1 0h1m1 0h1m4 0h3m1 0h1m4 0h5m1 0h1m1 0h1m2 0h1m3 0h7m3 0h4m2 0h5m1 0h1m5 0h2m1 0h4m3 0h1m1 0h1m1 0h2m2 0h1m3 0h1M4 106.5h1m1 0h3m1 0h1m6 0h1m4 0h1m1 0h1m2 0h3m4 0h1m3 0h4m3 0h2m1 0h1m1 0h3m3 0h4m2 0h2m3 0h1m3 0h6m3 0h2m1 0h1m1 0h4m2 0h3m2 0h1m3 0h1m2 0h1m1 0h1m1 0h2M4 107.5h1m5 0h1m3 0h1m1 0h6m2 0h2m1 0h3m3 0h1m1 0h2m1 0h1m2 0h2m3 0h4m1 0h1m1 0h2m1 0h1m4 0h1m2 0h3m1 0h1m1 0h1m1 0h2m1 0h1m2 0h2m2 0h1m1 0h2m1 0h1m1 0h3m1 0h1m1 0h2m1 0h2m1 0h3m2 0h3M4 108.5h7m1 0h1m1 0h1m5 0h2m1 0h2m2 0h2m2 0h2m1 0h1m4 0h1m2 0h3m2 0h1m2 0h1m3 0h5m1 0h3m1 0h1m1 0h1m2 0h1m3 0h4m1 0h1m1 0h3m2 0h1m4 0h2m2 0h1m2 0h1m4 0h1"/></svg>
