<svg xmlns="http://www.w3.org/2000/svg" viewBox="0 0 93 93" shape-rendering="crispEdges"><path fill="#ffffff" d="M0 0h93v93H0z"/><path stroke="#000000" d="M4 4.5h7m1 0h1m2 0h3m2 0h1m1 0h2m2 0h2m2 0h2m3 0h2m1 0h1m2 0h3m1 0h1m3 0h1m1 0h1m1 0h2m2 0h1m1 0h1m1 0h2m2 0h1m2 0h3m2 0h2m1 0h3m1 0h1m1 0h7M4 5.5h1m5 0h1m1 0h1m4 0h10m3 0h3m1 0h1m8 0h1m1 0h1m1 0h1m1 0h1m1 0h1m2 0h2m3 0h1m1 0h1m1 0h1m1 0h2m1 0h1m2 0h1m3 0h1m1 0h3m2 0h1m5 0h1M4 6.5h1m1 0h3m1 0h1m3 0h2m2 0h3m3 0h1m1 0h2m6 0h1m2 0h2m1 0h7m1 0h2m3 0h2m1 0h2m2 0h2m1 0h6m1 0h2m1 0h3m2 0h1m3 0h1m1 0h3m1 0h1M4 7.5h1m1 0h3m1 0h1m2 0h1m1 0h1m4 0h1m1 0h1m1 0h1m3 0h3m1 0h3m2 0h5m1 0h1m2 0h1m2 0h2m1 0h2m2 0h2m2 0h4m1 0h1m3 0h4m2 0h1m3 0h1m2 0h1m1 0h3m1 0h1M4 8.5h1m1 0h3m1 0h1m1 0h1m1 0h1m2 0h3m1 0h3m1 0h4m1 0h8m2 0h1m2 0h5m2 0h5m1 0h5m1 0h1m1 0h1m1 0h1m3 0h2m4 0h3m3 0h1m1 0h3m1 0h1M4 9.5h1m5 0h1m1 0h1m2 0h1m3 0h1m1 0h1m3 0h1m5 0h2m3 0h2m1 0h1m1 0h1m2 0h2m4 0h4m2 0h1m3 0h4m1 0h1m2 0h1m1 0h1m1 0h2m5 0h1m2 0h1m5 0h1M4 10.5h7m1 0h1m1 0h1m1 0h1m1 0h1m1 0h1m1 0h1m1 0h1m1 0h1m1 0h1m1 0h1m1 0h1m1 0h1m1 0h1m1 0h1m1 0h1m1 0h1m1 0h1m1 0h1m1 0h1m1 0h1m1 0h1m1 0h1m1 0h1m1 0h1m1 0h1m1 0h1m1 0h1m1 0h1m1 0h1m1 0h1m1 0h1m1 0h1m1 0h1m1 0h1m1 0h1m1 0h7M12 11.5h1m2 0h1m1 0h4m1 0h3m2 0h1m1 0h1m1 0h2m3 0h4m1 0h1m2 0h2m3 0h2m2 0h1m1 0h2m3 0h1m4 0h2m4 0h1m1 0h2m1 0h2m2 0h1M4 12.5h3m2 0h2m1 0h2m3 0h1m1 0h1m1 0h2m1 0h1m1 0h1m4 0h6m1 0h1m1 0h7m3 0h1m1 0h1m1 0h1m1 0h5m3 0h1m5 0h5m2 0h8m2 0h2M6 13.5h1m1 0h1m2 0h1m2 0h1m1 0h1m2 0h1m1 0h1m3 0h1m2 0h5m1 0h1m1 0h4m1 0h1m1 0h1m1 0h1m1 0h2m1 0h2m2 0h3m1 0h1m2 0h5m2 0h4m2 0h7m5 0h1m1 0h1M4 14.5h2m4 0h1m4 0h1m2 0h3m1 0h1m2 0h1m1 0h2m4 0h1m1 0h3m2 0h2m8 0h1m2 0h2m2 0h1m1 0h2m1 0h1m2 0h1m5 0h5m1 0h1m1 0h3m1 0h3m2 0h1M4 15.5h4m3 0h1m6 0h1m2 0h2m3 0h1m1 0h3m2 0h2m3 0h5m1 0h1m3 0h2m7 0h1m1 0h1m2 0h2m2 0h1m1 0h1m2 0h1m3 0h6m1 0h1m1 0h5M7 16.5h4m1 0h1m2 0h1m2 0h3m1 0h3m1 0h1m2 0h1m1 0h4m1 0h1m7 0h1m4 0h1m2 0h4m1 0h1m1 0h1m1 0h5m1 0h4m2 0h6m1 0h2m1 0h1m3 0h2M5 17.5h2m2 0h1m4 0h6m1 0h2m2 0h2m1 0h1m1 0h1m1 0h1m5 0h2m1 0h1m3 0h1m3 0h3m1 0h2m1 0h1m1 0h1m1 0h1m1 0h2m1 0h2m1 0h2m1 0h3m3 0h1m2 0h1m2 0h2m1 0h2M5 18.5h1m1 0h2m1 0h1m2 0h1m2 0h2m1 0h1m1 0h5m2 0h1m2 0h2m1 0h2m1 0h1m2 0h2m1 0h1m1 0h2m1 0h1m4 0h1m2 0h1m1 0h2m1 0h2m2 0h4m1 0h4m1 0h1m2 0h1m1 0h2m1 0h2m1 0h1M5 19.5h1m1 0h3m1 0h2m1 0h1m3 0h2m2 0h1m1 0h1m1 0h1m5 0h1m1 0h5m2 0h2m1 0h2m5 0h1m1 0h3m1 0h1m3 0h1m2 0h1m4 0h2m1 0h1m1 0h3m6 0h2m1 0h3M5 20.5h2m1 0h3m1 0h3m4 0h2m1 0h2m4 0h2m1 0h1m6 0h3m4 0h5m1 0h3m2 0h1m1 0h3m2 0h6m1 0h1m1 0h5m1 0h1m1 0h1m2 0h1m1 0h1m2 0h1M5 21.5h1m1 0h3m2 0h1m1 0h1m1 0h1m1 0h3m1 0h2m2 0h1m1 0h1m1 0h1m3 0h2m2 0h2m3 0h2m4 0h2m1 0h1m4 0h1m2 0h3m1 0h1m1 0h2m2 0h1m1 0h3m1 0h2m5 0h1m2 0h1M5 22.5h3m2 0h2m2 0h2m3 0h2m2 0h2m1 0h1m2 0h1m1 0h1m2 0h3m1 0h1m1 0h1m2 0h1m5 0h1m1 0h1m1 0h2m4 0h3m1 0h1m1 0h1m2 0h1m1 0h1m2 0h1m1 0h3m1 0h1m3 0h1m1 0h1m2 0h1M6 23.5h4m4 0h2m1 0h1m2 0h2m1 0h1m3 0h2m2 0h2m4 0h3m2 0h1m2 0h4m2 0h2m4 0h1m1 0h3m2 0h3m2 0h1m1 0h1m1 0h2m4 0h1m1 0h1m1 0h5M4 24.5h2m3 0h5m1 0h1m5 0h1m3 0h2m1 0h1m2 0h1m2 0h1m2 0h1m3 0h4m1 0h1m1 0h1m1 0h2m5 0h1m1 0h2m1 0h3m1 0h1m2 0h1m1 0h4m3 0h4m1 0h2m1 0h1m1 0h1M4 25.5h1m2 0h2m3 0h1m2 0h1m4 0h1m1 0h7m2 0h3m1 0h3m1 0h1m2 0h2m1 0h1m1 0h3m1 0h2m1 0h1m2 0h4m5 0h2m3 0h1m2 0h1m1 0h3m3 0h2m1 0h3M5 26.5h1m1 0h1m1 0h3m3 0h1m1 0h1m2 0h1m3 0h10m2 0h2m4 0h1m3 0h3m1 0h2m1 0h1m1 0h2m2 0h11m2 0h1m3 0h3m2 0h2m1 0h1m2 0h2M7 27.5h1m1 0h1m2 0h2m2 0h7m1 0h1m1 0h1m1 0h1m1 0h4m2 0h2m2 0h3m2 0h1m1 0h1m2 0h1m1 0h1m1 0h2m1 0h1m6 0h1m1 0h1m2 0h2m1 0h2m2 0h1m2 0h4m1 0h1m1 0h1m1 0h1M4 28.5h1m1 0h3m1 0h1m1 0h2m1 0h4m1 0h2m5 0h1m3 0h1m5 0h3m1 0h1m4 0h2m3 0h4m1 0h1m1 0h2m2 0h1m3 0h8m2 0h2m3 0h1m2 0h1M8 29.5h2m3 0h2m1 0h1m1 0h1m1 0h1m2 0h3m1 0h1m1 0h1m3 0h3m2 0h1m3 0h2m5 0h2m1 0h3m1 0h3m1 0h2m2 0h1m2 0h1m1 0h1m2 0h2m1 0h1m2 0h1m1 0h1m2 0h1m1 0h1m1 0h2M4 30.5h5m1 0h2m1 0h1m3 0h2m1 0h1m1 0h2m1 0h2m2 0h2m3 0h2m2 0h1m2 0h3m1 0h1m2 0h3m1 0h1m4 0h1m3 0h2m3 0h1m1 0h1m3 0h1m1 0h1m1 0h2m1 0h1m5 0h2m1 0h1M4 31.5h6m2 0h4m1 0h1m1 0h1m2 0h1m3 0h1m3 0h2m1 0h1m4 0h1m2 0h1m2 0h1m1 0h1m1 0h1m2 0h1m1 0h1m1 0h1m1 0h5m1 0h2m1 0h1m1 0h1m1 0h2m2 0h1m2 0h1m1 0h2m1 0h3m1 0h1M4 32.5h2m2 0h6m1 0h1m2 0h3m3 0h1m2 0h1m4 0h5m2 0h2m1 0h1m1 0h2m1 0h1m3 0h1m4 0h5m1 0h2m1 0h3m2 0h4m5 0h6m1 0h1m1 0h1M6 33.5h1m1 0h1m3 0h4m2 0h3m1 0h4m2 0h1m2 0h2m3 0h1m1 0h3m2 0h1m4 0h1m4 0h1m1 0h2m3 0h1m3 0h2m2 0h3m1 0h3m1 0h1m1 0h3m3 0h1m1 0h1M5 34.5h4m1 0h1m1 0h1m2 0h2m1 0h1m3 0h2m1 0h4m3 0h1m1 0h1m1 0h2m1 0h2m1 0h2m1 0h2m1 0h2m1 0h2m1 0h3m1 0h1m1 0h1m1 0h1m1 0h3m1 0h4m1 0h1m2 0h3m1 0h1m1 0h1m1 0h4M7 35.5h2m3 0h1m4 0h3m5 0h2m1 0h5m3 0h1m4 0h2m1 0h2m2 0h2m1 0h1m4 0h1m3 0h3m1 0h2m4 0h3m1 0h7m3 0h2m1 0h1M4 36.5h2m1 0h11m1 0h2m1 0h3m2 0h1m2 0h1m1 0h6m2 0h1m1 0h1m2 0h2m6 0h8m1 0h5m2 0h3m1 0h2m1 0h1m1 0h8m1 0h1M5 37.5h1m1 0h2m2 0h1m1 0h1m2 0h3m1 0h1m1 0h1m2 0h5m2 0h1m1 0h2m2 0h1m1 0h2m1 0h1m3 0h2m1 0h1m2 0h1m1 0h1m1 0h1m2 0h1m4 0h3m1 0h1m1 0h1m1 0h5m1 0h5m2 0h3M4 38.5h2m2 0h1m1 0h1m1 0h2m2 0h1m2 0h1m3 0h4m1 0h1m3 0h1m1 0h4m1 0h3m1 0h1m1 0h2m1 0h1m1 0h6m1 0h3m2 0h1m1 0h1m1 0h2m2 0h1m1 0h1m1 0h4m4 0h1m1 0h1m3 0h1M4 39.5h1m1 0h1m4 0h1m3 0h1m1 0h2m3 0h2m1 0h1m1 0h1m2 0h2m1 0h1m3 0h2m3 0h1m1 0h3m2 0h1m2 0h2m2 0h4m1 0h3m4 0h5m1 0h1m3 0h1m3 0h1m1 0h4M5 40.5h1m1 0h1m1 0h3m3 0h2m3 0h3m1 0h1m3 0h3m1 0h3m3 0h1m1 0h3m1 0h1m4 0h1m2 0h2m2 0h1m1 0h1m1 0h2m3 0h1m1 0h1m1 0h2m1 0h1m2 0h1m2 0h4m3 0h2m1 0h1M5 41.5h1m1 0h2m4 0h3m1 0h1m2 0h2m2 0h1m3 0h2m1 0h3m2 0h1m3 0h1m1 0h3m4 0h1m2 0h5m1 0h3m1 0h1m1 0h7m1 0h1m1 0h2m2 0h2m4 0h2M5 42.5h1m1 0h1m2 0h1m3 0h3m3 0h2m1 0h2m1 0h1m1 0h1m1 0h1m2 0h2m1 0h1m1 0h1m1 0h2m1 0h1m1 0h2m1 0h1m1 0h1m2 0h1m5 0h3m3 0h1m2 0h1m1 0h2m6 0h1m2 0h1m2 0h1m1 0h2M6 43.5h1m2 0h1m3 0h2m1 0h2m1 0h3m1 0h1m2 0h2m3 0h4m1 0h2m1 0h2m1 0h1m3 0h2m1 0h1m2 0h1m1 0h5m2 0h1m1 0h1m4 0h2m1 0h1m3 0h1m2 0h4m4 0h2M4 44.5h1m3 0h3m2 0h2m2 0h2m1 0h3m1 0h2m1 0h2m1 0h1m1 0h1m1 0h1m2 0h1m1 0h3m1 0h1m1 0h1m1 0h1m3 0h3m1 0h2m4 0h3m1 0h4m2 0h1m1 0h1m1 0h1m3 0h5m1 0h2M5 45.5h1m1 0h1m3 0h2m2 0h2m1 0h1m4 0h1m3 0h1m7 0h1m1 0h1m3 0h2m1 0h1m5 0h1m1 0h2m1 0h2m4 0h2m2 0h1m3 0h1m1 0h1m1 0h2m3 0h8m2 0h1M5 46.5h1m1 0h2m1 0h1m1 0h2m2 0h4m1 0h5m1 0h5m1 0h2m1 0h1m2 0h4m1 0h8m1 0h1m1 0h1m2 0h1m3 0h2m5 0h2m2 0h6m3 0h2m3 0h1M4 47.5h2m1 0h1m4 0h1m1 0h1m2 0h4m5 0h1m1 0h2m6 0h4m4 0h1m1 0h1m1 0h2m2 0h1m1 0h1m2 0h1m3 0h2m2 0h4m1 0h2m1 0h1m4 0h1m2 0h2m2 0h3M4 48.5h2m3 0h6m4 0h2m1 0h1m1 0h1m1 0h1m1 0h1m3 0h2m2 0h2m1 0h2m2 0h1m5 0h1m2 0h4m2 0h1m1 0h1m1 0h1m1 0h3m1 0h1m2 0h3m2 0h1m1 0h4m1 0h1m2 0h3M4 49.5h1m2 0h1m1 0h1m1 0h3m1 0h1m4 0h1m1 0h4m1 0h2m2 0h1m1 0h3m3 0h1m1 0h2m4 0h1m2 0h2m8 0h1m3 0h1m1 0h1m1 0h2m1 0h2m2 0h2m5 0h2m1 0h3M4 50.5h1m1 0h1m2 0h5m1 0h2m3 0h4m1 0h2m1 0h1m4 0h2m1 0h11m2 0h3m1 0h3m2 0h1m2 0h1m2 0h1m2 0h5m3 0h1m2 0h3m1 0h1m1 0h3m1 0h1M6 51.5h2m3 0h1m3 0h1m5 0h1m1 0h1m2 0h6m3 0h1m1 0h3m4 0h2m2 0h1m3 0h1m7 0h2m1 0h3m2 0h1m2 0h1m2 0h1m4 0h2m1 0h1m2 0h4M4 52.5h2m1 0h1m1 0h2m3 0h2m1 0h2m2 0h2m1 0h3m2 0h1m1 0h6m1 0h3m1 0h5m1 0h1m1 0h2m1 0h4m1 0h2m2 0h11m2 0h1m1 0h4m1 0h2m1 0h1m2 0h1M5 53.5h2m1 0h2m1 0h1m2 0h1m1 0h1m4 0h1m1 0h1m1 0h1m2 0h3m1 0h3m3 0h3m6 0h3m2 0h1m6 0h3m2 0h1m1 0h1m1 0h4m1 0h2m2 0h1m1 0h1m4 0h2m2 0h1M4 54.5h2m3 0h4m1 0h1m1 0h1m3 0h2m4 0h5m4 0h3m1 0h1m7 0h2m2 0h2m1 0h2m1 0h2m1 0h1m2 0h1m1 0h5m1 0h1m6 0h2m1 0h1m1 0h1m3 0h1M4 55.5h2m2 0h2m1 0h2m1 0h1m2 0h3m1 0h1m4 0h1m1 0h3m3 0h1m1 0h2m1 0h1m2 0h2m1 0h3m1 0h5m4 0h5m2 0h1m2 0h2m3 0h2m1 0h1m3 0h1m3 0h1m3 0h1M8 56.5h5m1 0h1m1 0h2m1 0h1m1 0h3m7 0h13m2 0h1m1 0h3m1 0h11m2 0h4m1 0h1m4 0h2m1 0h1m1 0h7m1 0h1M5 57.5h1m1 0h2m3 0h2m3 0h1m1 0h1m1 0h1m1 0h1m1 0h1m6 0h1m3 0h2m1 0h2m1 0h1m1 0h1m2 0h1m2 0h1m1 0h1m1 0h1m1 0h1m3 0h1m2 0h4m4 0h1m1 0h1m2 0h1m1 0h1m1 0h1m3 0h1m2 0h1M4 58.5h2m1 0h2m1 0h1m1 0h2m3 0h4m1 0h1m1 0h1m1 0h1m1 0h1m1 0h1m1 0h1m1 0h1m1 0h2m3 0h1m3 0h1m2 0h6m1 0h2m1 0h1m1 0h2m1 0h2m1 0h1m1 0h3m1 0h3m3 0h3m1 0h1m1 0h1M8 59.5h1m3 0h1m2 0h1m1 0h2m4 0h2m1 0h2m1 0h2m1 0h1m3 0h2m3 0h1m2 0h1m2 0h1m1 0h1m1 0h1m1 0h1m1 0h2m3 0h2m1 0h6m4 0h3m2 0h1m1 0h1m3 0h1m3 0h1M4 60.5h1m1 0h7m1 0h4m1 0h1m2 0h2m5 0h1m1 0h7m1 0h1m2 0h6m1 0h1m4 0h1m1 0h8m5 0h5m3 0h2m1 0h5M8 61.5h2m2 0h1m1 0h5m1 0h1m3 0h1m3 0h2m2 0h2m1 0h1m1 0h1m2 0h2m3 0h2m3 0h2m2 0h2m1 0h2m1 0h3m2 0h6m1 0h1m2 0h1m3 0h3m1 0h1m1 0h1M5 62.5h1m4 0h2m1 0h2m1 0h1m10 0h3m1 0h2m1 0h2m2 0h2m1 0h3m1 0h2m1 0h1m2 0h4m3 0h5m7 0h1m3 0h3m2 0h1m1 0h1m1 0h1m3 0h2M4 63.5h2m1 0h3m1 0h2m1 0h1m1 0h2m1 0h4m2 0h5m2 0h4m1 0h2m1 0h2m1 0h1m2 0h1m1 0h1m1 0h1m1 0h1m1 0h1m7 0h1m1 0h2m2 0h1m1 0h2m2 0h1m1 0h3m2 0h1m1 0h2M4 64.5h1m3 0h3m3 0h2m1 0h2m1 0h1m3 0h4m4 0h1m1 0h6m1 0h5m1 0h1m1 0h3m1 0h1m1 0h1m8 0h1m1 0h2m1 0h5m1 0h2m1 0h3m3 0h1m1 0h3M9 65.5h1m1 0h2m1 0h1m1 0h3m1 0h1m3 0h1m3 0h1m1 0h4m4 0h1m3 0h1m1 0h2m1 0h1m3 0h4m1 0h1m1 0h3m1 0h1m1 0h1m1 0h5m1 0h4m3 0h3m3 0h3M10 66.5h1m2 0h3m1 0h2m1 0h1m3 0h2m4 0h3m1 0h1m3 0h1m1 0h1m2 0h1m1 0h7m3 0h1m9 0h1m1 0h3m2 0h1m1 0h1m3 0h2m1 0h2m2 0h2m1 0h1M4 67.5h1m1 0h1m5 0h3m1 0h1m4 0h1m1 0h7m1 0h2m3 0h1m1 0h2m1 0h2m3 0h4m2 0h2m1 0h2m3 0h2m2 0h1m3 0h2m1 0h3m1 0h2m3 0h5m2 0h2M6 68.5h1m1 0h4m1 0h3m1 0h1m2 0h2m1 0h1m1 0h4m1 0h10m1 0h2m3 0h5m1 0h3m2 0h2m1 0h2m3 0h1m3 0h2m1 0h1m1 0h1m1 0h3m2 0h2m1 0h1m1 0h1M4 69.5h4m1 0h1m2 0h2m2 0h4m2 0h3m2 0h1m5 0h2m4 0h1m1 0h2m1 0h1m1 0h1m1 0h5m2 0h2m6 0h1m8 0h2m3 0h7m2 0h1M4 70.5h2m3 0h3m1 0h1m2 0h1m3 0h1m1 0h1m1 0h1m1 0h2m1 0h2m1 0h2m1 0h2m2 0h3m1 0h3m3 0h2m1 0h1m5 0h1m3 0h1m2 0h1m1 0h3m3 0h1m2 0h4m1 0h8M5 71.5h1m1 0h1m4 0h4m2 0h2m3 0h1m1 0h1m2 0h1m1 0h5m3 0h4m1 0h2m3 0h1m2 0h1m3 0h2m1 0h1m4 0h1m1 0h1m1 0h2m1 0h1m2 0h6m7 0h3M6 72.5h1m3 0h1m1 0h1m2 0h1m4 0h3m3 0h3m3 0h2m2 0h1m3 0h6m2 0h1m2 0h1m4 0h2m1 0h2m2 0h2m1 0h5m1 0h1m1 0h2m1 0h3m1 0h2m1 0h2M4 73.5h6m1 0h6m2 0h1m2 0h1m1 0h2m1 0h3m1 0h1m2 0h1m1 0h1m1 0h2m1 0h2m1 0h2m1 0h1m2 0h1m1 0h2m2 0h1m1 0h1m4 0h1m2 0h1m2 0h4m2 0h2m1 0h1m1 0h1m4 0h1m1 0h2M4 74.5h1m1 0h3m1 0h1m3 0h2m1 0h1m6 0h1m5 0h1m2 0h2m1 0h2m2 0h2m2 0h1m1 0h1m2 0h4m3 0h1m2 0h2m1 0h1m6 0h1m1 0h3m2 0h1m5 0h1m1 0h1m2 0h1M4 75.5h1m1 0h2m4 0h5m1 0h1m6 0h3m3 0h1m2 0h1m2 0h1m4 0h3m1 0h3m1 0h5m1 0h3m3 0h4m4 0h1m1 0h2m5 0h1m1 0h2m1 0h2m1 0h1M4 76.5h1m1 0h1m1 0h4m3 0h5m1 0h1m1 0h2m1 0h1m3 0h1m2 0h3m1 0h5m1 0h2m1 0h3m1 0h7m1 0h1m1 0h1m2 0h2m3 0h7m1 0h1m1 0h1m1 0h1m1 0h1m1 0h3M6 77.5h4m1 0h1m3 0h1m1 0h1m2 0h1m1 0h1m1 0h1m2 0h3m2 0h5m7 0h1m1 0h5m1 0h1m1 0h1m4 0h1m4 0h1m1 0h9m1 0h1m4 0h1m1 0h1m3 0h2M4 78.5h3m1 0h1m1 0h1m1 0h1m1 0h1m1 0h1m2 0h1m2 0h4m1 0h1m6 0h3m1 0h1m1 0h2m3 0h1m1 0h1m1 0h3m1 0h2m2 0h1m2 0h1m1 0h4m3 0h1m1 0h1m1 0h3m4 0h2m1 0h1m1 0h4M5 79.5h1m1 0h1m1 0h1m1 0h1m4 0h1m1 0h1m3 0h5m2 0h1m2 0h1m1 0h1m4 0h1m1 0h1m1 0h2m2 0h1m2 0h3m1 0h2m2 0h3m1 0h1m1 0h1m2 0h3m1 0h3m7 0h1m4 0h1m1 0h1M4 80.5h1m5 0h3m2 0h1m2 0h1m2 0h6m5 0h7m1 0h2m4 0h2m1 0h12m2 0h4m7 0h1m3 0h7m1 0h1M12 81.5h3m1 0h3m1 0h1m1 0h4m4 0h3m3 0h1m1 0h1m3 0h1m2 0h1m1 0h1m3 0h1m1 0h1m1 0h2m3 0h2m1 0h2m2 0h1m1 0h2m3 0h2m1 0h2m1 0h1m3 0h1m1 0h2M4 82.5h7m3 0h2m1 0h1m1 0h3m1 0h2m2 0h4m1 0h1m1 0h1m1 0h3m2 0h7m1 0h4m1 0h3m1 0h1m1 0h4m1 0h3m2 0h1m2 0h2m3 0h1m1 0h1m1 0h1m1 0h2M4 83.5h1m5 0h1m1 0h3m1 0h1m1 0h3m1 0h3m4 0h4m3 0h3m1 0h3m1 0h1m1 0h1m1 0h1m1 0h2m4 0h1m3 0h1m2 0h1m1 0h1m3 0h1m1 0h2m1 0h1m2 0h1m1 0h2m3 0h1m2 0h1M4 84.5h1m1 0h3m1 0h1m2 0h2m1 0h2m1 0h2m2 0h5m3 0h7m2 0h1m1 0h3m2 0h1m2 0h1m1 0h1m3 0h5m1 0h4m2 0h2m4 0h1m4 0h7m2 0h1M4 85.5h1m1 0h3m1 0h1m2 0h2m1 0h3m1 0h1m2 0h1m1 0h8m1 0h4m2 0h1m3 0h2m1 0h1m1 0h1m3 0h1m2 0h3m1 0h2m1 0h1m3 0h2m1 0h1m1 0h1m1 0h4m5 0h2m1 0h1M4 86.5h1m1 0h3m1 0h1m1 0h3m3 0h1m1 0h1m4 0h1m1 0h2m2 0h2m1 0h1m2 0h3m3 0h1m2 0h5m1 0h1m1 0h1m1 0h1m1 0h2m1 0h1m5 0h5m1 0h1m2 0h1m2 0h1m1 0h8M4 87.5h1m5 0h1m1 0h1m1 0h5m2 0h1m1 0h4m2 0h1m1 0h4m1 0h1m1 0h2m3 0h1m1 0h1m2 0h1m1 0h1m4 0h1m2 0h1m1 0h1m1 0h2m2 0h1m3 0h2m1 0h2m1 0h2m1 0h3m1 0h1M4 88.5h7m1 0h3m3 0h1m2 0h1m1 0h1m1 0h1m1 0h4m1 0h1m1 0h2m1 0h1m1 0h2m1 0h2m1 0h1m3 0h1m4 0h1m2 0h1m1 0h1m2 0h1m1 0h4m1 0h2m3 0h1m3 0h5m1 0h1m3 0h1"/></svg>
