<svg xmlns="http://www.w3.org/2000/svg" viewBox="0 0 113 113" shape-rendering="crispEdges"><path fill="#ffffff" d="M0 0h113v113H0z"/><path stroke="#000000" d="M4 4.5h7m1 0h4m1 0h1m3 0h1m1 0h3m4 0h3m1 0h1m1 0h4m2 0h1m1 0h1m1 0h3m1 0h3m2 0h2m2 0h2m1 0h3m1 0h1m2 0h1m1 0h1m1 0h1m4 0h2m2 0h3m1 0h1m1 0h1m1 0h2m4 0h1m1 0h1m3 0h7M4 5.5h1m5 0h1m1 0h2m2 0h1m1 0h2m2 0h1m1 0h5m5 0h1m4 0h1m1 0h1m5 0h2m3 0h1m1 0h2m2 0h2m2 0h3m1 0h3m2 0h4m3 0h2m1 0h2m1 0h5m1 0h1m2 0h1m4 0h1m3 0h1m5 0h1M4 6.5h1m1 0h3m1 0h1m3 0h2m3 0h4m2 0h3m1 0h2m1 0h2m5 0h1m4 0h1m1 0h1m3 0h1m5 0h6m1 0h2m1 0h3m2 0h5m2 0h3m1 0h2m1 0h2m2 0h2m2 0h1m3 0h3m2 0h1m1 0h3m1 0h1M4 7.5h1m1 0h3m1 0h1m3 0h1m1 0h2m6 0h1m2 0h2m1 0h1m2 0h1m2 0h1m1 0h1m3 0h2m1 0h1m1 0h1m2 0h1m1 0h2m1 0h1m1 0h3m1 0h1m1 0h1m4 0h1m1 0h2m1 0h2m1 0h2m1 0h3m1 0h1m2 0h1m3 0h3m3 0h1m3 0h1m1 0h1m1 0h3m1 0h1M4 8.5h1m1 0h3m1 0h1m1 0h2m1 0h1m3 0h1m1 0h1m1 0h1m4 0h5m1 0h1m2 0h1m2 0h1m4 0h4m1 0h1m1 0h9m2 0h3m1 0h1m1 0h3m2 0h8m2 0h1m1 0h4m1 0h2m1 0h1m1 0h1m2 0h2m1 0h1m1 0h3m1 0h1M4 9.5h1m5 0h1m1 0h1m1 0h2m1 0h6m1 0h3m1 0h1m3 0h2m1 0h5m2 0h1m1 0h1m1 0h2m1 0h1m1 0h2m3 0h5m2 0h2m3 0h3m2 0h1m1 0h2m3 0h1m3 0h1m1 0h3m1 0h2m1 0h4m2 0h1m2 0h1m5 0h1M4 10.5h7m1 0h1m1 0h1m1 0h1m1 0h1m1 0h1m1 0h1m1 0h1m1 0h1m1 0h1m1 0h1m1 0h1m1 0h1m1 0h1m1 0h1m1 0h1m1 0h1m1 0h1m1 0h1m1 0h1m1 0h1m1 0h1m1 0h1m1 0h1m1 0h1m1 0h1m1 0h1m1 0h1m1 0h1m1 0h1m1 0h1m1 0h1m1 0h1m1 0h1m1 0h1m1 0h1m1 0h1m1 0h1m1 0h1m1 0h1m1 0h1m1 0h1m1 0h1m1 0h1m1 0h1m1 0h1m1 0h7M12 11.5h2m1 0h1m3 0h3m1 0h1m3 0h2m3 0h4m1 0h1m1 0h2m3 0h1m1 0h3m1 0h3m3 0h2m1 0h1m1 0h1m3 0h1m2 0h1m1 0h1m2 0h2m1 0h1m3 0h1m2 0h1m3 0h3m4 0h1m1 0h2m2 0h1M4 12.5h3m2 0h2m1 0h1m1 0h1m2 0h3m1 0h1m2 0h2m2 0h6m1 0h1m1 0h1m2 0h1m3 0h3m1 0h2m1 0h6m1 0h2m4 0h1m1 0h3m2 0h1m2 0h1m1 0h6m2 0h2m2 0h2m1 0h1m1 0h1m1 0h1m2 0h2m1 0h4m2 0h2M4 13.5h2m1 0h3m3 0h2m2 0h4m2 0h1m2 0h1m1 0h2m2 0h1m1 0h2m4 0h3m2 0h1m2 0h5m1 0h3m1 0h1m1 0h2m3 0h1m2 0h1m1 0h1m1 0h1m1 0h2m4 0h2m2 0h3m1 0h1m1 0h2m3 0h1m1 0h3m1 0h1m1 0h3m2 0h1M4 14.5h1m1 0h1m3 0h1m1 0h2m2 0h3m1 0h1m1 0h3m2 0h1m2 0h1m1 0h5m1 0h9m4 0h2m1 0h6m2 0h1m1 0h2m2 0h1m2 0h3m4 0h3m3 0h1m2 0h2m1 0h4m1 0h4m1 0h3m1 0h1m1 0h2M6 15.5h4m1 0h1m1 0h1m2 0h3m1 0h2m1 0h2m3 0h3m2 0h1m2 0h2m1 0h3m2 0h2m1 0h2m6 0h3m13 0h3m1 0h2m4 0h2m2 0h1m1 0h2m2 0h1m4 0h1m7 0h2m1 0h1M4 16.5h1m2 0h1m2 0h1m2 0h4m1 0h1m1 0h1m2 0h8m1 0h2m1 0h2m2 0h1m1 0h1m2 0h1m2 0h3m4 0h2m3 0h1m4 0h3m1 0h2m2 0h2m5 0h2m2 0h1m6 0h2m1 0h2m1 0h2m1 0h1m4 0h2m1 0h2M4 17.5h1m3 0h2m1 0h1m1 0h1m4 0h4m2 0h1m1 0h1m1 0h2m6 0h7m1 0h3m1 0h2m2 0h1m1 0h4m4 0h1m3 0h1m1 0h2m1 0h1m2 0h3m4 0h2m1 0h1m3 0h3m1 0h4m3 0h1m1 0h1M5 18.5h3m2 0h2m1 0h4m1 0h6m4 0h1m2 0h1m1 0h5m2 0h2m1 0h1m1 0h2m1 0h1m2 0h3m3 0h1m1 0h3m2 0h1m1 0h1m2 0h1m3 0h5m5 0h1m1 0h1m2 0h1m3 0h4m1 0h2m3 0h2m2 0h1M4 19.5h3m4 0h1m2 0h5m1 0h1m2 0h1m1 0h1m1 0h3m1 0h1m2 0h1m1 0h1m1 0h2m4 0h2m1 0h1m2 0h2m1 0h1m2 0h7m2 0h1m3 0h1m2 0h2m1 0h2m1 0h1m1 0h2m2 0h1m2 0h1m3 0h1m1 0h2m1 0h3m1 0h2m2 0h5M5 20.5h1m2 0h1m1 0h2m3 0h2m6 0h2m3 0h1m1 0h3m1 0h5m1 0h3m3 0h1m2 0h1m1 0h2m3 0h2m1 0h2m3 0h1m2 0h1m1 0h1m2 0h1m3 0h1m1 0h1m1 0h8m1 0h1m1 0h2m2 0h2m1 0h2m1 0h1m1 0h1m1 0h1M4 21.5h3m1 0h2m1 0h2m2 0h1m2 0h1m2 0h1m1 0h3m1 0h1m4 0h1m1 0h2m1 0h2m2 0h1m2 0h1m2 0h1m3 0h3m1 0h3m1 0h4m3 0h1m1 0h3m1 0h1m3 0h1m1 0h1m1 0h7m4 0h5m4 0h2m1 0h1m2 0h3M4 22.5h3m1 0h4m1 0h1m1 0h3m4 0h1m3 0h1m4 0h1m1 0h1m4 0h1m2 0h4m1 0h5m1 0h1m1 0h3m1 0h1m1 0h1m1 0h1m1 0h1m3 0h2m2 0h1m6 0h4m1 0h1m1 0h1m5 0h5m1 0h1m1 0h3m1 0h3m1 0h1M5 23.5h1m3 0h1m1 0h1m1 0h1m3 0h1m2 0h1m5 0h1m3 0h3m3 0h1m3 0h2m1 0h3m6 0h1m2 0h1m8 0h1m4 0h1m4 0h4m1 0h1m1 0h2m1 0h1m1 0h1m1 0h1m1 0h1m3 0h2m1 0h3m1 0h1m1 0h1m1 0h2m1 0h1M4 24.5h1m2 0h6m2 0h1m3 0h1m1 0h1m3 0h1m2 0h3m1 0h1m2 0h1m2 0h1m1 0h1m2 0h1m1 0h1m1 0h1m1 0h2m1 0h1m1 0h3m1 0h2m1 0h1m2 0h1m1 0h1m1 0h1m3 0h2m2 0h1m1 0h3m3 0h5m3 0h1m2 0h1m1 0h1m2 0h4m3 0h1M5 25.5h2m4 0h1m2 0h2m2 0h4m4 0h1m6 0h2m1 0h2m1 0h2m1 0h3m1 0h3m1 0h2m2 0h3m2 0h1m2 0h1m8 0h1m2 0h1m1 0h1m2 0h3m3 0h1m1 0h1m1 0h1m2 0h1m1 0h5m2 0h4m3 0h1M5 26.5h3m2 0h1m1 0h2m2 0h1m1 0h1m1 0h1m2 0h1m1 0h1m4 0h2m2 0h4m1 0h1m1 0h2m1 0h1m3 0h3m1 0h2m1 0h2m4 0h1m1 0h3m1 0h9m2 0h2m1 0h2m4 0h3m1 0h4m2 0h1m1 0h1m2 0h3M4 27.5h1m2 0h1m4 0h6m2 0h1m1 0h4m1 0h1m2 0h2m2 0h1m3 0h2m1 0h1m1 0h5m2 0h2m3 0h1m1 0h2m1 0h3m4 0h1m1 0h2m5 0h1m2 0h1m1 0h2m1 0h1m2 0h2m3 0h1m1 0h5m1 0h1m2 0h3m1 0h2M8 28.5h6m3 0h1m1 0h1m1 0h3m1 0h1m1 0h7m3 0h5m4 0h3m1 0h1m1 0h6m2 0h1m2 0h1m2 0h1m1 0h4m2 0h1m1 0h6m2 0h2m2 0h4m3 0h2m1 0h1m1 0h6M4 29.5h1m1 0h3m3 0h8m2 0h1m2 0h1m1 0h2m3 0h3m1 0h2m1 0h3m2 0h1m2 0h2m2 0h2m3 0h1m1 0h1m1 0h1m1 0h3m2 0h1m2 0h1m1 0h1m2 0h2m3 0h5m1 0h2m1 0h1m5 0h3m2 0h1m3 0h3m1 0h1M6 30.5h1m1 0h1m1 0h1m1 0h4m2 0h2m1 0h2m1 0h5m1 0h1m1 0h2m3 0h2m5 0h2m1 0h2m3 0h1m1 0h1m1 0h2m1 0h1m3 0h4m5 0h3m1 0h1m1 0h1m1 0h1m1 0h1m3 0h1m1 0h2m2 0h5m1 0h1m1 0h1m1 0h1m1 0h1m3 0h1M7 31.5h2m3 0h1m2 0h3m1 0h2m1 0h1m2 0h4m3 0h2m3 0h1m1 0h1m1 0h2m1 0h5m1 0h3m3 0h2m7 0h1m2 0h1m4 0h1m2 0h1m3 0h1m2 0h2m1 0h2m1 0h2m1 0h1m3 0h3m1 0h1m3 0h1m1 0h1m1 0h1M4 32.5h1m1 0h1m1 0h7m1 0h3m1 0h13m5 0h10m2 0h13m1 0h2m1 0h2m3 0h11m1 0h2m2 0h2m1 0h1m3 0h1m3 0h6M4 33.5h1m2 0h3m3 0h3m2 0h2m1 0h1m1 0h1m1 0h1m2 0h1m1 0h1m1 0h1m1 0h1m3 0h4m1 0h2m2 0h2m2 0h3m1 0h1m2 0h1m1 0h1m1 0h2m2 0h3m4 0h2m2 0h1m4 0h1m2 0h6m2 0h2m3 0h1m1 0h1m1 0h4m1 0h2M4 34.5h2m1 0h1m2 0h1m1 0h3m1 0h3m1 0h3m2 0h2m3 0h2m1 0h4m2 0h4m1 0h1m3 0h2m2 0h1m2 0h3m2 0h1m1 0h3m1 0h1m2 0h3m1 0h1m2 0h3m4 0h3m1 0h1m1 0h1m3 0h1m1 0h7m1 0h3m2 0h1M6 35.5h1m2 0h1m2 0h1m3 0h2m1 0h1m4 0h2m2 0h3m1 0h2m2 0h1m8 0h3m2 0h4m1 0h2m1 0h2m1 0h3m4 0h1m3 0h1m1 0h1m2 0h1m2 0h1m1 0h1m2 0h1m5 0h1m2 0h2m1 0h1m2 0h1m1 0h2m1 0h3M5 36.5h2m1 0h3m2 0h2m4 0h3m3 0h1m1 0h1m1 0h6m3 0h4m1 0h1m1 0h7m1 0h4m2 0h3m1 0h1m1 0h4m3 0h1m1 0h1m1 0h1m4 0h1m4 0h3m1 0h1m3 0h1m1 0h1m1 0h3m1 0h2m1 0h1m1 0h1M5 37.5h1m1 0h3m4 0h1m1 0h9m1 0h1m2 0h5m2 0h2m1 0h3m1 0h1m4 0h1m4 0h1m1 0h1m2 0h1m3 0h2m1 0h1m1 0h2m2 0h1m1 0h1m5 0h1m1 0h2m1 0h1m1 0h1m2 0h2m2 0h1m3 0h1m4 0h1m3 0h1m1 0h1M5 38.5h2m2 0h2m1 0h1m3 0h7m1 0h1m2 0h1m1 0h6m1 0h2m1 0h1m1 0h1m4 0h2m3 0h1m2 0h1m4 0h2m1 0h2m1 0h1m1 0h2m2 0h5m1 0h2m1 0h2m1 0h4m1 0h1m1 0h3m1 0h3m1 0h5m1 0h1m3 0h1M5 39.5h5m4 0h2m1 0h2m2 0h3m1 0h1m4 0h1m1 0h2m2 0h3m2 0h1m4 0h2m5 0h2m1 0h1m3 0h1m1 0h1m1 0h1m2 0h1m1 0h1m3 0h2m9 0h1m2 0h1m3 0h1m1 0h1m1 0h4m2 0h1m4 0h1m1 0h1M5 40.5h1m3 0h2m1 0h4m1 0h1m3 0h1m4 0h1m1 0h3m1 0h3m2 0h1m2 0h2m2 0h3m1 0h1m3 0h2m1 0h3m1 0h1m3 0h1m1 0h1m2 0h2m3 0h2m3 0h2m1 0h3m1 0h1m3 0h1m2 0h2m1 0h1m2 0h2m1 0h2m2 0h1m1 0h2M4 41.5h1m1 0h2m1 0h1m4 0h1m1 0h2m1 0h1m3 0h2m3 0h4m11 0h1m1 0h2m3 0h3m2 0h1m1 0h1m1 0h1m5 0h2m3 0h4m1 0h4m1 0h4m1 0h2m1 0h1m1 0h1m1 0h2m1 0h1m1 0h1m1 0h2m1 0h3M4 42.5h3m1 0h1m1 0h3m2 0h1m2 0h2m2 0h1m6 0h1m1 0h2m1 0h1m1 0h2m1 0h3m1 0h1m1 0h2m5 0h1m1 0h2m1 0h1m1 0h2m1 0h9m1 0h4m1 0h1m2 0h1m3 0h4m1 0h2m2 0h1m2 0h2m2 0h5m1 0h1M4 43.5h6m2 0h2m1 0h1m1 0h1m1 0h1m2 0h1m2 0h2m2 0h2m3 0h1m3 0h3m1 0h1m2 0h1m1 0h2m3 0h1m3 0h2m1 0h4m2 0h1m1 0h1m1 0h5m3 0h2m1 0h3m2 0h2m2 0h9m2 0h1m3 0h2m1 0h2M4 44.5h1m1 0h2m1 0h3m1 0h1m3 0h1m2 0h4m2 0h2m1 0h2m1 0h2m2 0h5m2 0h1m1 0h1m1 0h3m2 0h1m1 0h6m4 0h2m3 0h1m1 0h1m1 0h1m1 0h1m1 0h2m2 0h2m1 0h1m1 0h1m1 0h1m1 0h3m1 0h2m10 0h1m1 0h1M4 45.5h1m3 0h2m1 0h1m3 0h1m1 0h6m1 0h3m3 0h1m9 0h2m1 0h1m4 0h1m2 0h2m1 0h2m1 0h1m1 0h2m1 0h1m2 0h1m1 0h1m3 0h1m2 0h1m3 0h3m2 0h1m1 0h1m4 0h1m1 0h1m1 0h3m1 0h1m1 0h2m2 0h2m1 0h2M5 46.5h2m1 0h1m1 0h1m2 0h1m1 0h3m1 0h1m1 0h7m1 0h4m1 0h1m1 0h1m5 0h1m1 0h4m2 0h1m4 0h1m1 0h2m1 0h3m2 0h2m1 0h2m1 0h1m1 0h1m1 0h1m2 0h2m1 0h3m1 0h5m5 0h1m1 0h1m1 0h4m2 0h1M9 47.5h1m2 0h1m2 0h1m3 0h1m3 0h2m1 0h1m1 0h1m2 0h2m1 0h7m2 0h5m3 0h1m5 0h1m3 0h3m1 0h6m5 0h2m1 0h2m4 0h1m1 0h1m3 0h2m2 0h1m4 0h1m2 0h3m1 0h1M7 48.5h1m1 0h2m1 0h3m1 0h3m2 0h2m1 0h1m2 0h1m1 0h1m7 0h1m1 0h2m1 0h3m2 0h2m4 0h3m1 0h3m1 0h2m4 0h1m1 0h2m4 0h1m1 0h1m1 0h1m4 0h1m1 0h2m1 0h1m1 0h1m2 0h1m1 0h3m2 0h1m2 0h1m2 0h2M5 49.5h3m4 0h1m2 0h1m1 0h2m1 0h1m4 0h2m2 0h5m2 0h1m4 0h1m4 0h6m2 0h2m1 0h2m1 0h2m4 0h1m2 0h1m6 0h3m1 0h3m2 0h1m2 0h3m1 0h1m1 0h1m4 0h4m1 0h2m2 0h1M6 50.5h6m1 0h2m1 0h2m1 0h5m1 0h1m1 0h5m1 0h2m3 0h1m1 0h3m1 0h1m2 0h2m2 0h1m4 0h1m1 0h1m2 0h1m1 0h2m3 0h4m2 0h2m1 0h4m1 0h1m2 0h1m2 0h7m1 0h3m1 0h3m1 0h1m2 0h2M4 51.5h1m3 0h2m2 0h1m1 0h6m1 0h1m2 0h3m3 0h2m3 0h2m4 0h3m3 0h1m1 0h1m2 0h4m1 0h4m1 0h4m2 0h2m1 0h1m2 0h1m4 0h1m1 0h2m4 0h3m2 0h2m1 0h2m1 0h3m1 0h2m1 0h1m2 0h1M6 52.5h9m2 0h1m4 0h1m2 0h9m2 0h3m1 0h4m1 0h2m1 0h2m2 0h5m1 0h1m3 0h2m1 0h3m2 0h1m2 0h1m2 0h5m1 0h2m3 0h2m1 0h1m2 0h3m1 0h1m1 0h8m1 0h1M5 53.5h4m3 0h4m3 0h2m2 0h1m1 0h1m1 0h2m3 0h1m1 0h1m3 0h1m2 0h1m2 0h3m5 0h1m3 0h3m1 0h1m2 0h2m2 0h1m1 0h1m4 0h3m3 0h2m5 0h1m1 0h1m3 0h2m1 0h2m2 0h1m3 0h1m3 0h1M7 54.5h2m1 0h1m1 0h11m2 0h1m1 0h2m1 0h1m1 0h1m2 0h1m1 0h1m1 0h1m3 0h5m1 0h1m1 0h2m1 0h1m1 0h3m1 0h5m3 0h1m1 0h3m1 0h3m1 0h1m1 0h2m3 0h2m5 0h2m3 0h1m1 0h2m1 0h1m1 0h2m2 0h1M8 55.5h1m3 0h2m2 0h1m1 0h1m3 0h7m3 0h3m1 0h3m1 0h1m7 0h3m1 0h1m3 0h1m6 0h1m2 0h2m6 0h1m1 0h1m3 0h2m1 0h2m2 0h1m1 0h1m2 0h1m6 0h2m3 0h1m1 0h2M4 56.5h3m1 0h5m2 0h1m1 0h1m3 0h1m3 0h1m2 0h10m1 0h2m2 0h1m2 0h1m3 0h7m2 0h1m2 0h2m1 0h2m2 0h1m2 0h1m1 0h7m1 0h1m13 0h1m1 0h1m1 0h6M4 57.5h4m4 0h1m2 0h4m2 0h1m1 0h6m1 0h2m1 0h1m3 0h1m1 0h2m1 0h4m1 0h1m1 0h3m2 0h1m2 0h1m1 0h1m2 0h1m1 0h2m2 0h4m2 0h1m1 0h1m1 0h1m2 0h1m2 0h2m2 0h2m2 0h2m1 0h6m2 0h3m1 0h1M5 58.5h1m4 0h2m2 0h1m1 0h1m5 0h4m5 0h3m1 0h6m3 0h1m2 0h1m1 0h2m2 0h3m2 0h2m1 0h1m1 0h1m1 0h4m1 0h1m4 0h1m1 0h1m1 0h1m1 0h5m1 0h1m1 0h2m2 0h3m1 0h1m2 0h1m2 0h3m2 0h1M4 59.5h2m2 0h2m3 0h1m3 0h1m2 0h1m1 0h1m1 0h2m2 0h1m1 0h4m1 0h1m1 0h2m1 0h1m4 0h1m1 0h1m1 0h2m1 0h2m5 0h1m2 0h1m2 0h1m1 0h2m3 0h4m3 0h1m3 0h1m2 0h1m1 0h3m2 0h3m1 0h1m2 0h3m1 0h2m1 0h1M10 60.5h5m1 0h1m1 0h1m7 0h1m4 0h4m1 0h2m4 0h1m1 0h3m2 0h1m3 0h2m1 0h3m1 0h2m1 0h2m2 0h1m1 0h1m1 0h4m1 0h5m3 0h1m2 0h5m1 0h1m2 0h1m2 0h1m3 0h1m4 0h1M4 61.5h2m1 0h1m4 0h1m2 0h3m1 0h1m5 0h4m1 0h3m3 0h2m4 0h1m4 0h3m1 0h4m5 0h1m2 0h1m1 0h1m1 0h6m2 0h1m1 0h1m3 0h1m1 0h1m1 0h1m1 0h1m2 0h1m2 0h1m1 0h1m2 0h1m7 0h1m1 0h1M4 62.5h5m1 0h1m5 0h2m3 0h1m1 0h3m1 0h1m2 0h2m1 0h1m1 0h1m1 0h1m1 0h2m1 0h1m2 0h3m4 0h1m3 0h5m1 0h1m1 0h2m4 0h1m2 0h3m1 0h5m2 0h1m1 0h1m7 0h1m4 0h2m3 0h3m1 0h1M4 63.5h1m1 0h1m2 0h1m3 0h1m2 0h1m2 0h1m1 0h1m1 0h2m2 0h1m1 0h4m1 0h1m1 0h3m2 0h1m3 0h6m1 0h2m3 0h3m4 0h2m4 0h1m6 0h3m2 0h1m4 0h2m5 0h2m2 0h1m1 0h2m1 0h3m2 0h1M5 64.5h1m4 0h7m2 0h2m2 0h1m2 0h1m1 0h1m2 0h2m1 0h1m1 0h1m2 0h1m1 0h2m1 0h2m1 0h4m2 0h1m1 0h2m2 0h4m1 0h1m4 0h3m1 0h2m3 0h4m1 0h3m4 0h2m1 0h1m2 0h1m1 0h1m3 0h4m1 0h2M5 65.5h1m2 0h2m1 0h1m1 0h2m1 0h3m1 0h2m4 0h3m1 0h1m1 0h1m2 0h1m2 0h1m1 0h1m2 0h2m2 0h1m2 0h1m1 0h3m1 0h1m2 0h3m2 0h1m3 0h4m1 0h2m1 0h5m2 0h4m5 0h2m3 0h1m2 0h1m1 0h1m4 0h2M4 66.5h1m2 0h1m1 0h2m7 0h3m4 0h3m1 0h2m1 0h2m2 0h1m3 0h1m2 0h1m1 0h2m1 0h4m1 0h5m3 0h8m1 0h3m1 0h2m1 0h2m3 0h1m1 0h2m1 0h1m1 0h2m1 0h2m4 0h1m4 0h3m1 0h1M4 67.5h1m3 0h2m1 0h2m1 0h4m2 0h1m1 0h3m1 0h1m1 0h2m1 0h1m1 0h1m7 0h1m3 0h2m5 0h1m2 0h3m2 0h2m1 0h7m1 0h3m1 0h1m1 0h1m1 0h2m1 0h2m2 0h2m3 0h4m6 0h1m1 0h2m2 0h2M5 68.5h1m4 0h1m2 0h1m2 0h3m1 0h1m1 0h1m1 0h1m1 0h2m2 0h5m1 0h1m1 0h2m4 0h2m2 0h3m3 0h2m1 0h2m1 0h6m1 0h1m2 0h2m1 0h1m2 0h1m3 0h1m1 0h3m1 0h1m1 0h1m1 0h2m2 0h1m3 0h1m1 0h1m1 0h2m1 0h4M4 69.5h5m3 0h1m1 0h1m4 0h1m1 0h1m1 0h1m2 0h2m1 0h1m4 0h1m1 0h2m3 0h2m6 0h4m4 0h1m1 0h2m2 0h1m1 0h8m1 0h1m7 0h2m3 0h3m2 0h2m1 0h6m1 0h4M6 70.5h3m1 0h1m1 0h1m1 0h6m2 0h1m2 0h1m1 0h5m1 0h3m1 0h1m1 0h1m1 0h1m1 0h3m1 0h2m2 0h1m2 0h2m2 0h4m2 0h4m2 0h3m1 0h1m1 0h2m2 0h2m2 0h3m1 0h1m3 0h1m5 0h1m2 0h1m1 0h2m1 0h3M4 71.5h2m1 0h1m3 0h2m3 0h1m3 0h1m7 0h3m3 0h6m3 0h1m1 0h1m2 0h3m5 0h3m2 0h1m2 0h2m1 0h2m1 0h1m2 0h1m1 0h3m1 0h1m4 0h1m1 0h3m6 0h1m4 0h1m3 0h1M4 72.5h1m2 0h4m1 0h2m1 0h3m1 0h1m2 0h1m2 0h3m1 0h1m1 0h2m3 0h2m4 0h1m3 0h1m1 0h1m1 0h1m2 0h1m2 0h3m1 0h5m1 0h7m1 0h1m1 0h1m1 0h2m2 0h3m2 0h3m4 0h1m1 0h1m2 0h1m3 0h2m2 0h2M4 73.5h1m1 0h2m4 0h2m4 0h3m2 0h4m4 0h1m2 0h1m1 0h1m1 0h1m1 0h1m8 0h1m4 0h4m1 0h2m2 0h2m4 0h1m2 0h1m1 0h1m3 0h3m3 0h1m3 0h1m3 0h1m2 0h2m3 0h3m1 0h3M4 74.5h4m1 0h7m1 0h1m1 0h5m1 0h2m1 0h1m3 0h1m2 0h4m2 0h1m2 0h1m2 0h4m2 0h2m2 0h2m1 0h2m3 0h1m2 0h3m1 0h3m1 0h1m1 0h1m1 0h2m2 0h3m1 0h2m2 0h1m2 0h1m2 0h1m2 0h1m1 0h1m1 0h4M6 75.5h4m1 0h5m3 0h1m2 0h2m1 0h1m1 0h1m3 0h1m4 0h1m4 0h3m3 0h1m3 0h3m1 0h1m1 0h1m1 0h1m1 0h3m6 0h1m2 0h1m2 0h2m3 0h3m2 0h1m1 0h1m1 0h1m1 0h2m3 0h3m5 0h1m1 0h1M4 76.5h3m1 0h5m2 0h1m2 0h1m1 0h1m1 0h1m2 0h2m1 0h5m3 0h1m1 0h1m1 0h2m2 0h1m1 0h1m1 0h9m1 0h1m1 0h3m1 0h1m1 0h2m4 0h1m2 0h7m1 0h2m2 0h1m1 0h1m1 0h5m1 0h9M4 77.5h2m1 0h2m3 0h2m2 0h2m3 0h1m3 0h1m1 0h2m3 0h1m1 0h1m3 0h1m1 0h1m1 0h2m5 0h1m2 0h1m3 0h2m3 0h3m1 0h1m2 0h1m1 0h1m1 0h1m1 0h1m1 0h1m3 0h1m2 0h6m1 0h1m2 0h3m4 0h1m3 0h1M5 78.5h4m1 0h1m1 0h6m1 0h4m1 0h1m1 0h1m1 0h1m1 0h1m1 0h1m1 0h3m1 0h2m1 0h2m2 0h1m1 0h4m1 0h1m1 0h1m1 0h1m1 0h1m1 0h1m1 0h3m4 0h2m1 0h1m2 0h2m1 0h1m1 0h1m1 0h4m2 0h1m3 0h3m1 0h1m1 0h1m1 0h1m1 0h1m1 0h4M5 79.5h1m1 0h2m3 0h1m1 0h1m1 0h3m2 0h3m1 0h1m2 0h1m3 0h1m1 0h3m1 0h2m1 0h1m2 0h2m2 0h2m1 0h2m3 0h2m3 0h2m2 0h1m3 0h4m3 0h1m3 0h1m3 0h1m3 0h2m1 0h1m5 0h2m1 0h1m3 0h2M4 80.5h1m1 0h1m1 0h5m1 0h1m9 0h1m1 0h8m1 0h1m1 0h1m5 0h1m1 0h3m1 0h1m2 0h6m2 0h3m1 0h1m1 0h4m3 0h1m2 0h5m1 0h1m1 0h1m2 0h7m6 0h5m3 0h1M4 81.5h4m1 0h1m4 0h1m1 0h1m1 0h1m1 0h1m1 0h2m1 0h1m2 0h1m2 0h3m1 0h2m5 0h1m1 0h1m1 0h1m4 0h1m1 0h4m4 0h2m1 0h1m1 0h4m2 0h1m1 0h1m4 0h4m2 0h1m1 0h1m1 0h1m1 0h1m1 0h2m1 0h2m1 0h3m2 0h3M5 82.5h2m3 0h1m5 0h3m1 0h2m1 0h1m1 0h2m8 0h3m2 0h1m1 0h1m1 0h6m1 0h3m1 0h3m2 0h1m1 0h6m1 0h1m1 0h1m1 0h2m4 0h1m1 0h3m2 0h1m2 0h1m2 0h1m2 0h1m3 0h2m2 0h2M5 83.5h1m1 0h1m1 0h1m2 0h1m5 0h1m1 0h5m5 0h1m8 0h1m1 0h1m1 0h1m2 0h2m1 0h1m2 0h1m1 0h3m5 0h1m3 0h5m1 0h1m4 0h2m1 0h1m2 0h2m2 0h1m2 0h2m4 0h1m1 0h2m3 0h3m1 0h1M4 84.5h1m3 0h1m1 0h1m1 0h1m1 0h3m1 0h3m3 0h1m2 0h1m1 0h4m2 0h1m2 0h3m1 0h1m1 0h5m1 0h3m2 0h1m1 0h3m3 0h2m1 0h1m1 0h1m3 0h1m2 0h1m1 0h1m2 0h1m2 0h1m3 0h2m1 0h1m1 0h2m2 0h1m1 0h1m1 0h1m2 0h3M5 85.5h1m3 0h1m3 0h1m1 0h1m6 0h1m3 0h2m4 0h3m1 0h2m1 0h1m2 0h1m2 0h1m6 0h2m1 0h2m3 0h2m2 0h3m1 0h1m1 0h1m2 0h1m1 0h1m4 0h1m1 0h1m2 0h8m1 0h1m2 0h6M4 86.5h1m4 0h3m3 0h2m3 0h1m1 0h2m1 0h2m3 0h2m1 0h5m1 0h2m2 0h1m1 0h2m3 0h5m2 0h6m1 0h1m1 0h3m3 0h1m1 0h1m3 0h1m1 0h2m1 0h1m1 0h2m3 0h1m1 0h1m1 0h1m3 0h5m1 0h3m1 0h1M6 87.5h1m2 0h1m1 0h2m1 0h1m1 0h1m4 0h2m1 0h1m2 0h1m3 0h7m1 0h5m1 0h1m1 0h1m2 0h1m2 0h2m3 0h3m4 0h2m1 0h1m2 0h1m3 0h2m2 0h2m2 0h1m1 0h2m1 0h4m1 0h1m3 0h1m1 0h1m1 0h3m1 0h1M4 88.5h2m1 0h1m1 0h4m1 0h1m3 0h1m1 0h2m2 0h1m3 0h1m1 0h6m1 0h3m2 0h1m3 0h2m1 0h2m1 0h2m2 0h3m2 0h2m1 0h1m4 0h1m2 0h1m1 0h2m2 0h1m2 0h3m1 0h1m2 0h3m1 0h3m1 0h2m1 0h1m1 0h1m1 0h1m1 0h2m1 0h1M7 89.5h1m1 0h1m1 0h1m1 0h1m1 0h6m2 0h1m2 0h2m4 0h2m4 0h5m2 0h1m4 0h2m1 0h2m6 0h1m3 0h2m2 0h2m1 0h1m2 0h1m4 0h6m4 0h3m1 0h2m1 0h3m1 0h1m1 0h2m1 0h1m1 0h1M4 90.5h1m3 0h5m1 0h1m1 0h1m1 0h1m2 0h1m2 0h4m2 0h2m4 0h3m2 0h1m1 0h1m3 0h1m3 0h1m1 0h4m3 0h3m1 0h1m1 0h1m1 0h1m1 0h1m1 0h1m2 0h1m2 0h2m1 0h1m1 0h1m1 0h3m1 0h3m1 0h2m2 0h1m1 0h1m1 0h1m2 0h2m2 0h1M4 91.5h2m1 0h1m1 0h1m5 0h2m1 0h1m3 0h1m5 0h1m3 0h2m1 0h4m1 0h1m2 0h1m1 0h1m2 0h3m4 0h3m2 0h1m2 0h1m1 0h2m2 0h2m2 0h1m1 0h2m1 0h1m3 0h3m1 0h1m1 0h4m2 0h1m2 0h1m3 0h4m1 0h2M7 92.5h1m2 0h2m2 0h1m2 0h2m4 0h2m1 0h1m1 0h2m1 0h1m4 0h2m1 0h1m1 0h3m1 0h1m1 0h1m5 0h1m1 0h1m1 0h5m5 0h1m6 0h2m3 0h2m2 0h1m1 0h1m2 0h1m3 0h2m3 0h1m2 0h2m3 0h3M6 93.5h1m1 0h1m3 0h1m1 0h2m1 0h2m7 0h1m1 0h1m2 0h1m1 0h2m2 0h1m3 0h1m1 0h2m4 0h2m2 0h1m2 0h1m4 0h1m4 0h1m3 0h1m4 0h3m2 0h1m2 0h2m2 0h3m2 0h2m1 0h3m1 0h1m1 0h1m2 0h5M4 94.5h1m5 0h1m2 0h3m1 0h1m2 0h1m1 0h4m4 0h1m3 0h1m1 0h1m1 0h1m2 0h5m2 0h1m2 0h1m2 0h1m1 0h4m1 0h2m1 0h1m3 0h1m1 0h1m1 0h1m1 0h2m1 0h1m2 0h1m1 0h2m3 0h3m1 0h3m3 0h2m1 0h3m2 0h2m1 0h1M9 95.5h1m2 0h1m1 0h1m1 0h3m1 0h5m1 0h2m1 0h2m1 0h2m1 0h1m4 0h2m1 0h2m3 0h1m2 0h3m1 0h3m1 0h2m1 0h1m1 0h1m4 0h1m2 0h4m2 0h2m1 0h1m1 0h1m1 0h1m1 0h1m3 0h3m3 0h2m1 0h1m1 0h1m3 0h2M4 96.5h2m1 0h4m5 0h1m2 0h1m2 0h1m1 0h2m1 0h1m3 0h3m1 0h4m1 0h1m2 0h1m2 0h1m2 0h4m1 0h1m1 0h2m2 0h1m1 0h1m1 0h3m1 0h2m1 0h1m2 0h2m6 0h3m3 0h2m2 0h3m2 0h2m1 0h2m4 0h3M7 97.5h2m2 0h8m2 0h2m1 0h2m1 0h5m1 0h1m4 0h1m3 0h3m1 0h1m2 0h1m1 0h1m4 0h3m3 0h1m2 0h2m2 0h1m1 0h1m3 0h2m1 0h1m4 0h4m2 0h1m1 0h1m2 0h1m2 0h1m3 0h1m6 0h1M4 98.5h3m3 0h1m2 0h1m2 0h1m2 0h1m2 0h4m2 0h1m1 0h2m2 0h3m2 0h5m1 0h4m1 0h2m3 0h1m1 0h2m1 0h1m1 0h4m1 0h7m6 0h3m1 0h2m4 0h3m3 0h2m2 0h2m1 0h1M6 99.5h1m1 0h2m4 0h1m3 0h1m1 0h3m3 0h2m1 0h1m2 0h2m1 0h2m1 0h4m1 0h1m3 0h3m6 0h3m2 0h2m3 0h2m3 0h1m1 0h4m2 0h1m4 0h1m2 0h1m2 0h1m2 0h3m2 0h5m1 0h1M7 100.5h2m1 0h4m1 0h2m2 0h1m1 0h4m1 0h1m1 0h7m2 0h4m1 0h1m3 0h1m4 0h10m2 0h3m3 0h1m1 0h1m1 0h1m1 0h6m1 0h4m1 0h2m1 0h2m6 0h7m2 0h1M12 101.5h2m1 0h3m2 0h1m1 0h1m2 0h1m2 0h1m3 0h1m3 0h2m6 0h2m3 0h2m1 0h1m3 0h3m1 0h1m1 0h2m2 0h1m2 0h1m2 0h1m1 0h1m1 0h1m3 0h2m1 0h1m2 0h1m1 0h2m2 0h1m1 0h2m3 0h2m3 0h1m2 0h2M4 102.5h7m8 0h1m1 0h2m2 0h2m1 0h1m1 0h1m1 0h1m1 0h1m1 0h5m1 0h1m4 0h4m1 0h1m1 0h1m1 0h3m1 0h1m2 0h1m1 0h2m1 0h3m1 0h1m2 0h2m1 0h1m1 0h2m1 0h2m1 0h2m2 0h5m1 0h2m1 0h2m1 0h1m1 0h1m2 0h2M4 103.5h1m5 0h1m1 0h1m1 0h2m2 0h2m1 0h1m2 0h1m1 0h1m1 0h1m3 0h1m1 0h1m2 0h1m1 0h2m1 0h1m1 0h2m1 0h6m3 0h1m2 0h2m2 0h2m3 0h1m7 0h1m3 0h2m2 0h1m2 0h1m1 0h2m1 0h1m2 0h1m4 0h1m3 0h4M4 104.5h1m1 0h3m1 0h1m2 0h2m1 0h1m1 0h8m2 0h6m1 0h3m1 0h1m3 0h2m2 0h1m4 0h6m1 0h1m3 0h3m2 0h1m3 0h2m2 0h5m1 0h3m1 0h1m3 0h2m1 0h3m4 0h5m2 0h2M4 105.5h1m1 0h3m1 0h1m3 0h1m1 0h3m2 0h1m1 0h1m1 0h3m1 0h3m3 0h4m3 0h1m1 0h1m2 0h2m5 0h2m7 0h1m2 0h4m4 0h10m1 0h1m1 0h5m1 0h1m2 0h6m1 0h1m1 0h1M4 106.5h1m1 0h3m1 0h1m1 0h2m2 0h1m3 0h3m1 0h1m1 0h1m1 0h3m1 0h1m2 0h1m2 0h2m1 0h1m2 0h4m1 0h1m1 0h3m1 0h5m1 0h1m2 0h2m1 0h1m1 0h6m3 0h2m3 0h1m3 0h2m1 0h2m1 0h1m3 0h5m1 0h6M4 107.5h1m5 0h1m1 0h1m1 0h1m1 0h1m1 0h3m4 0h2m1 0h1m4 0h1m3 0h1m1 0h1m2 0h1m1 0h3m4 0h1m1 0h6m2 0h2m1 0h1m2 0h2m1 0h1m3 0h4m1 0h2m1 0h1m1 0h1m2 0h4m1 0h1m3 0h2m1 0h1m1 0h1m3 0h1M4 108.5h7m1 0h1m2 0h3m1 0h1m1 0h3m2 0h5m1 0h6m1 0h1m1 0h1m1 0h7m2 0h2m1 0h1m4 0h3m1 0h1m3 0h2m1 0h1m1 0h3m2 0h1m1 0h2m1 0h2m1 0h4m1 0h2m1 0h3m1 0h1m2 0h1m1 0h4m1 0h1"/></svg>
