<svg xmlns="http://www.w3.org/2000/svg" viewBox="0 0 109 109" shape-rendering="crispEdges"><path fill="#ffffff" d="M0 0h109v109H0z"/><path stroke="#000000" d="M4 4.5h7m2 0h1m1 0h1m3 0h1m1 0h4m5 0h5m5 0h1m1 0h2m1 0h3m4 0h1m1 0h1m3 0h3m1 0h3m1 0h2m2 0h2m1 0h1m1 0h2m1 0h3m1 0h3m1 0h2m6 0h2m2 0h7M4 5.5h1m5 0h1m1 0h1m1 0h2m2 0h1m2 0h1m1 0h1m1 0h1m2 0h3m1 0h2m1 0h1m1 0h1m1 0h3m1 0h1m4 0h4m2 0h1m1 0h1m4 0h1m1 0h2m7 0h3m4 0h1m1 0h2m5 0h1m1 0h1m1 0h1m5 0h1m5 0h1M4 6.5h1m1 0h3m1 0h1m1 0h1m1 0h4m2 0h11m2 0h1m1 0h2m4 0h4m1 0h3m4 0h1m4 0h4m1 0h4m3 0h4m2 0h4m4 0h1m1 0h1m1 0h1m1 0h4m1 0h1m2 0h1m1 0h3m1 0h1M4 7.5h1m1 0h3m1 0h1m1 0h4m1 0h2m3 0h1m1 0h1m2 0h3m1 0h2m1 0h2m2 0h1m3 0h1m1 0h1m1 0h5m4 0h1m3 0h3m1 0h1m1 0h1m1 0h1m2 0h7m1 0h3m1 0h1m1 0h1m2 0h1m1 0h1m2 0h4m2 0h1m1 0h3m1 0h1M4 8.5h1m1 0h3m1 0h1m2 0h2m2 0h2m3 0h2m2 0h1m1 0h1m1 0h5m5 0h4m1 0h1m2 0h2m2 0h5m3 0h5m2 0h5m2 0h7m2 0h2m2 0h1m1 0h1m4 0h1m1 0h1m1 0h1m1 0h3m1 0h1M4 9.5h1m5 0h1m2 0h1m3 0h1m1 0h1m2 0h1m1 0h2m3 0h2m3 0h1m2 0h3m2 0h1m1 0h5m1 0h3m3 0h3m4 0h1m3 0h1m6 0h1m3 0h1m1 0h2m3 0h1m2 0h6m1 0h1m2 0h1m5 0h1M4 10.5h7m1 0h1m1 0h1m1 0h1m1 0h1m1 0h1m1 0h1m1 0h1m1 0h1m1 0h1m1 0h1m1 0h1m1 0h1m1 0h1m1 0h1m1 0h1m1 0h1m1 0h1m1 0h1m1 0h1m1 0h1m1 0h1m1 0h1m1 0h1m1 0h1m1 0h1m1 0h1m1 0h1m1 0h1m1 0h1m1 0h1m1 0h1m1 0h1m1 0h1m1 0h1m1 0h1m1 0h1m1 0h1m1 0h1m1 0h1m1 0h1m1 0h1m1 0h1m1 0h1m1 0h7M12 11.5h1m1 0h2m1 0h4m2 0h5m2 0h1m3 0h1m3 0h3m1 0h1m1 0h4m2 0h1m1 0h1m3 0h1m2 0h1m2 0h2m1 0h1m3 0h1m1 0h1m1 0h2m3 0h3m1 0h2m1 0h4m1 0h2m1 0h1m1 0h1M4 12.5h1m5 0h1m1 0h1m1 0h3m6 0h3m1 0h1m1 0h7m1 0h1m1 0h1m1 0h1m1 0h1m4 0h9m2 0h2m1 0h1m2 0h3m3 0h1m1 0h8m1 0h3m1 0h2m2 0h3m4 0h2m2 0h3M9 13.5h1m2 0h1m1 0h2m1 0h1m2 0h2m1 0h3m1 0h2m1 0h1m4 0h1m1 0h1m2 0h4m1 0h3m5 0h1m3 0h3m1 0h1m4 0h1m3 0h1m3 0h1m1 0h1m1 0h2m1 0h1m4 0h2m3 0h4m3 0h2m3 0h2M4 14.5h2m1 0h1m2 0h2m2 0h4m2 0h5m1 0h1m4 0h1m3 0h1m1 0h1m1 0h1m3 0h1m1 0h2m2 0h1m2 0h1m1 0h2m2 0h3m5 0h1m2 0h2m2 0h2m1 0h2m2 0h2m1 0h2m1 0h1m1 0h1m2 0h3m2 0h1m1 0h2m2 0h3M5 15.5h2m1 0h2m2 0h5m4 0h1m1 0h1m1 0h1m4 0h1m1 0h1m2 0h6m1 0h4m1 0h1m3 0h1m3 0h2m3 0h2m1 0h1m4 0h1m1 0h2m1 0h1m3 0h5m3 0h2m1 0h7m3 0h3m1 0h2M7 16.5h2m1 0h2m2 0h2m1 0h1m1 0h3m2 0h1m1 0h1m2 0h2m1 0h1m3 0h1m1 0h1m1 0h1m2 0h1m1 0h1m2 0h2m4 0h1m2 0h1m1 0h5m1 0h2m1 0h1m1 0h1m2 0h1m1 0h3m1 0h4m1 0h6m2 0h6m1 0h1m1 0h1m2 0h1M4 17.5h1m2 0h2m4 0h3m2 0h2m5 0h3m1 0h1m1 0h6m2 0h1m9 0h1m1 0h4m2 0h2m2 0h1m1 0h3m2 0h3m2 0h1m1 0h1m2 0h1m4 0h1m1 0h8m3 0h1m3 0h3m1 0h1M4 18.5h2m1 0h1m2 0h6m2 0h3m3 0h1m1 0h5m1 0h4m1 0h1m1 0h1m1 0h2m1 0h2m1 0h1m4 0h1m4 0h3m3 0h1m2 0h2m2 0h1m1 0h4m1 0h1m4 0h1m1 0h4m1 0h1m1 0h5m2 0h1m1 0h2m1 0h2M4 19.5h1m1 0h1m1 0h1m5 0h2m3 0h4m1 0h1m3 0h1m1 0h1m1 0h3m4 0h3m1 0h2m1 0h4m2 0h1m1 0h1m1 0h1m1 0h1m1 0h3m1 0h1m1 0h3m1 0h4m2 0h2m5 0h2m3 0h3m1 0h2m2 0h1m7 0h1M4 20.5h1m1 0h2m1 0h2m1 0h1m1 0h5m1 0h6m2 0h2m4 0h4m3 0h3m3 0h1m4 0h2m1 0h2m1 0h1m1 0h1m1 0h1m1 0h1m1 0h1m1 0h1m4 0h1m3 0h3m2 0h3m2 0h1m3 0h1m1 0h1m2 0h1m1 0h1m1 0h5M4 21.5h6m5 0h2m4 0h2m1 0h1m1 0h1m1 0h2m1 0h1m2 0h3m3 0h1m1 0h7m1 0h1m1 0h2m1 0h1m1 0h7m2 0h1m4 0h1m2 0h2m1 0h3m1 0h2m2 0h1m1 0h6m1 0h1m3 0h3m3 0h1M5 22.5h3m2 0h1m2 0h5m4 0h3m1 0h3m2 0h1m1 0h2m1 0h2m1 0h1m2 0h2m1 0h1m7 0h2m1 0h3m2 0h1m1 0h1m1 0h3m2 0h1m1 0h2m2 0h2m1 0h5m1 0h1m1 0h4m1 0h1m2 0h1m3 0h2m1 0h2M6 23.5h4m1 0h2m1 0h1m7 0h1m1 0h2m1 0h2m2 0h1m1 0h1m1 0h1m2 0h1m1 0h2m1 0h1m2 0h1m1 0h1m2 0h1m1 0h2m1 0h2m2 0h2m1 0h3m2 0h1m1 0h2m1 0h1m2 0h1m1 0h2m1 0h1m1 0h1m2 0h2m1 0h1m2 0h1m1 0h1m1 0h1m2 0h1m2 0h1M5 24.5h1m3 0h2m2 0h4m1 0h2m1 0h2m5 0h2m3 0h1m1 0h1m2 0h1m2 0h1m1 0h3m1 0h1m5 0h2m1 0h1m1 0h1m1 0h2m2 0h2m2 0h3m1 0h7m2 0h3m2 0h5m2 0h3m3 0h4M4 25.5h1m1 0h4m2 0h1m1 0h2m3 0h2m3 0h2m1 0h1m1 0h3m2 0h2m1 0h1m1 0h2m1 0h2m1 0h4m1 0h1m1 0h1m1 0h2m1 0h1m5 0h2m1 0h2m1 0h2m1 0h1m2 0h1m2 0h1m2 0h1m1 0h2m1 0h1m3 0h5m2 0h2m1 0h1m1 0h3M4 26.5h1m2 0h1m1 0h3m2 0h2m3 0h1m1 0h2m3 0h1m2 0h1m2 0h4m1 0h1m6 0h1m7 0h1m2 0h1m3 0h1m2 0h1m5 0h7m2 0h1m1 0h1m1 0h6m1 0h1m1 0h1m1 0h1m3 0h1m3 0h2m1 0h1M5 27.5h1m1 0h2m2 0h1m1 0h1m1 0h1m3 0h7m1 0h3m2 0h1m4 0h1m1 0h1m1 0h1m5 0h1m3 0h3m1 0h1m1 0h1m8 0h1m2 0h2m3 0h1m2 0h1m1 0h1m1 0h2m1 0h1m6 0h1m6 0h3m1 0h1m1 0h1M4 28.5h2m1 0h4m1 0h7m1 0h2m1 0h2m7 0h1m2 0h2m2 0h3m5 0h2m1 0h3m1 0h2m4 0h1m1 0h3m2 0h4m1 0h1m1 0h1m4 0h1m2 0h2m1 0h2m1 0h1m1 0h1m5 0h2m1 0h1m1 0h1M4 29.5h1m4 0h1m4 0h6m2 0h1m1 0h1m2 0h1m1 0h2m1 0h2m1 0h1m3 0h4m2 0h2m1 0h1m3 0h1m1 0h2m2 0h2m2 0h1m2 0h1m3 0h1m1 0h1m1 0h2m4 0h1m1 0h1m6 0h1m6 0h2m1 0h2m2 0h1M5 30.5h9m1 0h1m1 0h3m1 0h7m2 0h5m7 0h2m1 0h2m1 0h2m2 0h6m1 0h1m1 0h3m1 0h1m2 0h2m1 0h2m1 0h5m2 0h1m1 0h1m5 0h3m1 0h2m1 0h5M5 31.5h4m3 0h1m5 0h4m1 0h2m2 0h4m3 0h1m3 0h1m1 0h1m2 0h1m1 0h4m1 0h3m3 0h1m1 0h2m2 0h1m2 0h4m1 0h1m1 0h3m3 0h1m2 0h7m3 0h1m2 0h3m3 0h1m1 0h1M4 32.5h1m3 0h1m1 0h1m1 0h1m2 0h2m3 0h5m1 0h2m1 0h2m1 0h1m1 0h1m1 0h1m1 0h1m2 0h5m3 0h2m1 0h1m1 0h1m1 0h1m2 0h1m1 0h1m2 0h2m1 0h3m1 0h1m2 0h1m1 0h1m1 0h1m3 0h1m1 0h1m1 0h1m3 0h1m5 0h1m1 0h1m1 0h1m1 0h3M4 33.5h2m2 0h1m3 0h3m1 0h2m1 0h5m1 0h2m2 0h2m3 0h4m3 0h1m1 0h2m2 0h6m3 0h1m1 0h1m5 0h4m5 0h2m3 0h3m2 0h2m3 0h3m2 0h2m1 0h1m3 0h1m1 0h1M4 34.5h3m1 0h8m1 0h1m1 0h1m2 0h1m1 0h1m4 0h6m6 0h1m2 0h1m3 0h1m1 0h7m1 0h3m4 0h2m2 0h10m1 0h3m1 0h1m1 0h2m4 0h2m1 0h10M7 35.5h3m1 0h1m2 0h2m2 0h2m3 0h1m1 0h2m1 0h1m1 0h1m1 0h2m8 0h1m1 0h1m1 0h3m1 0h2m2 0h3m1 0h2m1 0h5m4 0h2m1 0h2m3 0h2m2 0h3m3 0h2m3 0h3m3 0h2m1 0h1M5 36.5h2m1 0h4m1 0h1m2 0h2m2 0h1m2 0h1m4 0h1m2 0h1m3 0h2m1 0h2m3 0h3m1 0h1m2 0h1m8 0h2m1 0h5m1 0h1m4 0h1m1 0h1m1 0h4m1 0h2m4 0h1m1 0h2m1 0h1m6 0h1m2 0h1M5 37.5h2m2 0h1m1 0h1m1 0h2m7 0h1m4 0h2m2 0h1m6 0h3m1 0h2m1 0h5m2 0h1m1 0h2m2 0h2m2 0h1m1 0h1m1 0h1m3 0h4m3 0h1m3 0h4m3 0h1m1 0h1m1 0h4m5 0h4M7 38.5h1m1 0h2m3 0h3m1 0h2m1 0h1m3 0h1m2 0h4m1 0h7m3 0h1m1 0h3m1 0h1m2 0h1m1 0h5m1 0h2m3 0h1m3 0h1m2 0h2m1 0h3m1 0h2m4 0h3m2 0h1m4 0h4m1 0h1m1 0h3M5 39.5h2m2 0h1m5 0h1m4 0h2m1 0h1m1 0h2m1 0h1m7 0h5m1 0h4m2 0h2m3 0h1m2 0h1m1 0h2m1 0h2m3 0h2m1 0h1m1 0h2m1 0h3m5 0h1m1 0h3m2 0h1m1 0h1m5 0h1m4 0h2M7 40.5h5m1 0h1m2 0h8m2 0h5m1 0h1m3 0h1m1 0h1m1 0h2m1 0h1m5 0h1m1 0h1m2 0h1m1 0h1m1 0h1m1 0h3m1 0h4m2 0h2m4 0h3m2 0h5m1 0h5m1 0h1m1 0h1m1 0h1m1 0h1m2 0h3M4 41.5h1m3 0h2m1 0h1m1 0h3m2 0h1m8 0h1m1 0h1m1 0h1m2 0h1m7 0h3m2 0h1m2 0h1m3 0h1m5 0h1m2 0h1m2 0h2m1 0h1m2 0h2m1 0h1m2 0h2m4 0h3m1 0h1m4 0h2m1 0h2m3 0h1M4 42.5h2m1 0h1m2 0h1m1 0h3m2 0h1m1 0h1m2 0h1m1 0h1m3 0h1m4 0h3m3 0h2m1 0h2m1 0h3m2 0h1m2 0h2m3 0h3m2 0h2m1 0h1m3 0h1m1 0h6m3 0h3m1 0h1m3 0h1m2 0h1m1 0h3m3 0h1m1 0h3M4 43.5h1m1 0h4m1 0h1m1 0h3m5 0h1m2 0h1m1 0h1m1 0h1m2 0h1m2 0h2m2 0h1m2 0h1m1 0h1m4 0h3m2 0h3m3 0h1m1 0h6m2 0h2m2 0h2m3 0h1m5 0h5m1 0h5m1 0h1m1 0h2m1 0h1m2 0h1M7 44.5h2m1 0h7m1 0h2m2 0h7m3 0h2m4 0h1m3 0h1m1 0h4m1 0h2m1 0h1m1 0h1m4 0h4m2 0h1m2 0h3m1 0h1m2 0h2m2 0h1m2 0h2m4 0h4m8 0h2m1 0h2M6 45.5h1m1 0h1m2 0h2m1 0h1m1 0h3m1 0h3m2 0h1m1 0h1m5 0h2m1 0h3m2 0h1m3 0h1m3 0h1m3 0h1m2 0h3m5 0h7m3 0h2m3 0h1m1 0h1m1 0h10m3 0h2m4 0h1m1 0h1M8 46.5h1m1 0h3m2 0h2m1 0h1m1 0h1m2 0h2m2 0h3m1 0h1m1 0h3m4 0h2m7 0h1m2 0h3m2 0h1m1 0h2m3 0h1m3 0h1m3 0h1m6 0h3m1 0h2m1 0h3m1 0h1m1 0h1m1 0h4m1 0h1m2 0h1m1 0h1M6 47.5h2m4 0h1m1 0h3m4 0h1m3 0h1m1 0h1m2 0h1m1 0h2m2 0h1m3 0h2m1 0h1m4 0h4m1 0h3m2 0h1m1 0h1m1 0h3m1 0h1m2 0h1m2 0h1m2 0h1m1 0h1m2 0h7m1 0h1m1 0h1m1 0h3m2 0h1m5 0h1M5 48.5h1m1 0h2m1 0h2m2 0h1m4 0h2m2 0h1m2 0h1m1 0h6m1 0h3m6 0h4m2 0h1m4 0h1m3 0h3m2 0h2m1 0h4m2 0h4m1 0h1m6 0h1m1 0h1m1 0h2m5 0h1m3 0h1m1 0h3M5 49.5h3m4 0h2m1 0h1m1 0h1m2 0h1m1 0h1m1 0h1m4 0h1m3 0h1m1 0h1m1 0h1m2 0h1m1 0h3m2 0h4m1 0h2m6 0h1m1 0h2m1 0h1m2 0h1m1 0h1m1 0h1m1 0h1m1 0h2m3 0h2m1 0h2m1 0h2m3 0h1m3 0h2m1 0h5M4 50.5h1m2 0h1m2 0h1m4 0h3m2 0h3m3 0h1m1 0h1m2 0h2m1 0h3m2 0h1m1 0h2m1 0h2m1 0h3m1 0h2m3 0h6m2 0h1m1 0h1m3 0h2m3 0h1m2 0h1m3 0h1m1 0h3m3 0h1m1 0h1m8 0h1M4 51.5h1m1 0h1m4 0h2m2 0h3m1 0h3m4 0h2m4 0h3m2 0h2m2 0h1m1 0h1m6 0h3m1 0h1m3 0h3m1 0h1m1 0h1m1 0h1m1 0h1m3 0h2m6 0h1m2 0h1m4 0h3m1 0h4m3 0h2M5 52.5h1m1 0h7m1 0h2m2 0h1m1 0h1m1 0h1m1 0h3m1 0h6m3 0h1m2 0h2m1 0h2m2 0h1m3 0h6m2 0h1m1 0h1m1 0h1m4 0h1m2 0h1m1 0h8m1 0h1m3 0h3m1 0h10m3 0h1M4 53.5h5m3 0h1m1 0h2m1 0h2m2 0h2m1 0h1m1 0h2m2 0h1m3 0h1m2 0h2m1 0h3m1 0h4m1 0h1m1 0h2m3 0h4m1 0h1m6 0h1m3 0h3m3 0h1m3 0h1m1 0h1m2 0h2m1 0h2m1 0h2m1 0h1m3 0h2m1 0h1M5 54.5h1m2 0h1m1 0h1m1 0h3m1 0h1m1 0h1m1 0h1m1 0h1m3 0h2m1 0h2m1 0h1m1 0h1m3 0h3m2 0h1m2 0h1m1 0h3m1 0h1m1 0h1m1 0h1m5 0h2m2 0h3m1 0h3m1 0h1m1 0h1m1 0h1m2 0h5m1 0h4m2 0h1m1 0h2m1 0h1m1 0h1m1 0h3M4 55.5h1m3 0h1m3 0h2m1 0h1m2 0h1m5 0h1m2 0h1m2 0h1m3 0h1m2 0h4m4 0h3m1 0h1m1 0h2m3 0h2m1 0h2m2 0h1m2 0h1m1 0h7m3 0h1m4 0h4m2 0h2m1 0h3m1 0h1m3 0h1m3 0h1M4 56.5h2m1 0h6m3 0h3m8 0h8m2 0h1m2 0h4m2 0h1m1 0h9m1 0h3m1 0h7m1 0h1m3 0h5m1 0h5m2 0h1m1 0h1m1 0h2m3 0h6m2 0h1M4 57.5h4m3 0h3m3 0h1m2 0h1m1 0h8m1 0h4m1 0h1m1 0h1m1 0h1m3 0h1m1 0h3m2 0h2m1 0h1m2 0h1m2 0h5m3 0h1m1 0h3m7 0h2m3 0h2m1 0h2m1 0h3m1 0h1m2 0h4m2 0h1M4 58.5h1m1 0h1m1 0h1m1 0h1m1 0h2m2 0h1m1 0h1m3 0h2m1 0h1m1 0h2m4 0h1m2 0h2m1 0h1m1 0h1m1 0h1m2 0h2m9 0h2m1 0h2m2 0h4m1 0h3m1 0h2m3 0h1m1 0h5m3 0h1m1 0h1m3 0h1m2 0h3m1 0h3M5 59.5h3m3 0h1m2 0h1m2 0h1m2 0h1m1 0h1m3 0h1m2 0h2m2 0h1m1 0h1m1 0h1m2 0h4m5 0h1m1 0h6m1 0h4m2 0h2m1 0h1m2 0h2m2 0h3m5 0h1m1 0h3m2 0h1m2 0h1m2 0h1m3 0h3M4 60.5h1m1 0h5m2 0h1m3 0h2m3 0h1m2 0h1m2 0h1m5 0h1m3 0h7m4 0h2m1 0h3m1 0h1m2 0h1m2 0h1m3 0h3m2 0h1m4 0h1m4 0h8m4 0h1m2 0h2m3 0h3M7 61.5h1m1 0h1m1 0h2m3 0h1m2 0h1m1 0h2m3 0h2m3 0h2m4 0h2m3 0h5m3 0h1m2 0h1m2 0h1m1 0h5m2 0h2m2 0h3m2 0h3m2 0h1m2 0h1m1 0h1m2 0h1m1 0h1m1 0h3m1 0h2m2 0h1m1 0h2M7 62.5h2m1 0h2m3 0h1m1 0h7m1 0h1m1 0h1m2 0h1m3 0h3m3 0h2m5 0h1m1 0h2m5 0h3m1 0h4m1 0h1m2 0h1m2 0h1m3 0h2m1 0h7m2 0h1m6 0h1m1 0h5m1 0h1m1 0h1M5 63.5h3m8 0h2m2 0h5m1 0h5m3 0h3m6 0h1m4 0h1m1 0h2m2 0h1m1 0h2m3 0h1m6 0h2m1 0h1m4 0h5m5 0h3m1 0h2m1 0h4m1 0h3M8 64.5h5m1 0h2m1 0h1m4 0h4m4 0h2m3 0h4m1 0h1m2 0h4m1 0h1m1 0h2m4 0h2m1 0h4m3 0h2m1 0h1m5 0h2m1 0h1m1 0h1m3 0h1m3 0h1m4 0h2m1 0h1m2 0h2M4 65.5h3m1 0h2m2 0h3m1 0h3m1 0h1m3 0h4m2 0h1m3 0h1m1 0h4m1 0h1m1 0h1m1 0h2m6 0h2m2 0h1m1 0h1m1 0h1m2 0h1m1 0h1m1 0h1m3 0h1m2 0h2m5 0h4m2 0h3m1 0h1m1 0h1m3 0h1m2 0h1m1 0h2M10 66.5h11m1 0h2m1 0h1m1 0h1m1 0h3m3 0h4m4 0h1m1 0h4m2 0h1m1 0h3m2 0h1m1 0h1m4 0h1m7 0h2m3 0h2m1 0h1m3 0h4m2 0h1m2 0h2m1 0h3m2 0h3M4 67.5h1m1 0h2m5 0h3m2 0h1m3 0h1m2 0h1m3 0h1m2 0h1m1 0h1m1 0h2m1 0h6m4 0h1m1 0h2m2 0h4m3 0h1m2 0h2m1 0h1m2 0h2m1 0h1m2 0h1m1 0h1m2 0h5m1 0h1m1 0h1m2 0h1m3 0h1m2 0h4M4 68.5h1m1 0h1m3 0h1m2 0h1m1 0h1m2 0h2m1 0h1m1 0h1m2 0h2m3 0h2m5 0h4m2 0h1m2 0h1m4 0h3m1 0h1m1 0h3m3 0h1m5 0h3m2 0h1m2 0h1m2 0h6m4 0h1m4 0h1m3 0h2m2 0h1M5 69.5h1m1 0h2m3 0h2m2 0h1m4 0h1m3 0h3m1 0h2m1 0h1m2 0h2m1 0h3m1 0h1m2 0h4m1 0h1m9 0h1m3 0h4m4 0h1m1 0h1m1 0h2m11 0h1m3 0h2m1 0h1m4 0h2M6 70.5h1m1 0h1m1 0h1m3 0h1m2 0h3m1 0h1m1 0h1m1 0h1m4 0h2m1 0h3m3 0h2m1 0h2m5 0h2m1 0h3m2 0h2m1 0h5m1 0h1m2 0h2m1 0h2m1 0h1m1 0h1m2 0h3m1 0h1m1 0h1m1 0h1m2 0h1m1 0h1m2 0h1m2 0h1m4 0h1M5 71.5h1m8 0h1m2 0h4m1 0h2m1 0h1m1 0h1m4 0h1m1 0h2m3 0h2m3 0h2m1 0h2m1 0h2m1 0h1m3 0h1m1 0h1m1 0h1m3 0h2m1 0h1m2 0h1m4 0h2m1 0h7m1 0h3m1 0h3m8 0h1M4 72.5h1m3 0h1m1 0h2m1 0h1m1 0h3m1 0h1m1 0h3m1 0h2m1 0h4m2 0h3m2 0h2m1 0h1m6 0h1m2 0h2m2 0h3m2 0h1m3 0h1m1 0h2m2 0h1m1 0h2m1 0h1m1 0h2m1 0h1m1 0h4m3 0h5m1 0h5M5 73.5h1m2 0h1m2 0h1m2 0h3m7 0h2m6 0h1m3 0h5m1 0h3m1 0h1m3 0h1m2 0h1m2 0h1m1 0h2m2 0h2m2 0h2m2 0h1m4 0h1m1 0h3m2 0h3m6 0h1m4 0h4m2 0h3M6 74.5h1m1 0h12m5 0h3m2 0h5m1 0h3m4 0h1m2 0h1m2 0h1m2 0h5m4 0h1m5 0h1m2 0h1m2 0h6m1 0h4m1 0h4m1 0h3m2 0h8M5 75.5h4m3 0h2m1 0h4m1 0h2m1 0h1m5 0h2m3 0h4m3 0h1m1 0h3m1 0h6m3 0h3m1 0h2m3 0h1m3 0h3m1 0h2m3 0h1m1 0h4m1 0h1m4 0h2m1 0h4m3 0h5M8 76.5h1m1 0h1m1 0h1m1 0h1m1 0h2m2 0h2m3 0h1m1 0h1m2 0h1m1 0h1m1 0h2m2 0h4m3 0h1m2 0h2m1 0h2m1 0h1m1 0h2m1 0h4m1 0h4m1 0h1m1 0h2m1 0h1m1 0h1m1 0h1m2 0h2m1 0h1m5 0h1m1 0h5m1 0h1m1 0h1m1 0h3M4 77.5h1m2 0h2m3 0h4m2 0h1m1 0h3m1 0h1m1 0h1m1 0h3m3 0h6m1 0h1m1 0h2m2 0h4m1 0h1m3 0h2m1 0h3m1 0h1m4 0h1m1 0h1m3 0h1m3 0h1m2 0h1m1 0h1m2 0h6m4 0h1m3 0h1M4 78.5h1m1 0h1m1 0h6m2 0h1m1 0h1m1 0h3m2 0h11m7 0h1m5 0h1m1 0h7m2 0h3m2 0h3m1 0h1m2 0h7m1 0h1m4 0h1m1 0h3m1 0h2m1 0h10M5 79.5h1m2 0h1m5 0h2m1 0h1m3 0h1m1 0h1m1 0h1m5 0h1m2 0h2m2 0h1m1 0h3m2 0h1m2 0h1m1 0h2m4 0h1m1 0h1m4 0h3m2 0h1m1 0h1m2 0h2m1 0h3m2 0h2m1 0h3m2 0h2m1 0h4m1 0h2m1 0h1m1 0h1m1 0h1M6 80.5h5m1 0h2m1 0h2m1 0h1m1 0h1m2 0h2m1 0h1m1 0h5m1 0h2m3 0h4m5 0h1m3 0h3m2 0h2m2 0h2m1 0h4m2 0h5m1 0h2m6 0h2m1 0h3m1 0h1m1 0h3m1 0h1m1 0h1m2 0h1m1 0h1M4 81.5h1m1 0h2m1 0h1m1 0h1m1 0h2m3 0h1m2 0h4m1 0h1m1 0h2m5 0h1m1 0h1m4 0h1m1 0h5m1 0h1m1 0h1m2 0h2m4 0h2m1 0h2m3 0h1m3 0h3m2 0h1m1 0h1m1 0h1m2 0h2m1 0h1m2 0h2m8 0h1m1 0h2M4 82.5h5m1 0h2m1 0h1m1 0h7m1 0h4m1 0h2m2 0h3m3 0h2m1 0h1m1 0h1m1 0h4m3 0h1m1 0h2m1 0h2m1 0h1m1 0h1m1 0h1m1 0h2m1 0h1m2 0h4m4 0h1m2 0h4m2 0h1m1 0h2m2 0h4m1 0h1m1 0h1M4 83.5h3m2 0h1m1 0h3m1 0h2m3 0h3m1 0h1m3 0h2m3 0h1m1 0h1m5 0h1m1 0h1m2 0h3m3 0h2m1 0h2m1 0h1m3 0h3m1 0h1m1 0h2m4 0h1m2 0h1m2 0h1m2 0h4m7 0h1m1 0h2m1 0h1m2 0h1m1 0h1M7 84.5h1m2 0h3m2 0h1m3 0h1m1 0h1m3 0h1m1 0h2m3 0h1m5 0h2m2 0h3m1 0h1m1 0h2m2 0h1m4 0h1m1 0h1m1 0h1m1 0h3m2 0h1m5 0h1m2 0h2m4 0h4m4 0h1m2 0h1m1 0h3m1 0h1m1 0h1M4 85.5h2m2 0h2m1 0h1m3 0h2m3 0h1m5 0h3m2 0h1m1 0h1m1 0h1m2 0h3m1 0h5m1 0h3m1 0h2m1 0h9m2 0h2m1 0h4m1 0h3m1 0h5m1 0h1m1 0h6m1 0h1m4 0h1m1 0h3m1 0h1M6 86.5h1m1 0h1m1 0h1m2 0h1m2 0h1m1 0h7m3 0h3m1 0h3m1 0h3m6 0h3m1 0h3m2 0h2m3 0h1m2 0h1m1 0h6m1 0h1m3 0h2m1 0h2m1 0h3m1 0h1m2 0h1m1 0h3m3 0h1m5 0h1M4 87.5h1m1 0h2m1 0h1m1 0h3m3 0h1m2 0h6m1 0h1m2 0h1m1 0h3m2 0h2m1 0h1m2 0h3m1 0h1m1 0h1m1 0h1m1 0h1m2 0h1m3 0h7m1 0h1m4 0h5m2 0h1m6 0h1m4 0h4m1 0h3m1 0h1m1 0h2M4 88.5h1m3 0h1m1 0h1m2 0h1m3 0h1m1 0h1m2 0h1m1 0h5m1 0h1m1 0h3m1 0h1m1 0h2m1 0h1m1 0h2m1 0h3m2 0h3m1 0h1m5 0h1m2 0h1m1 0h1m1 0h2m1 0h9m1 0h2m2 0h2m1 0h1m1 0h1m1 0h4m1 0h1m2 0h1m1 0h1M4 89.5h2m1 0h1m1 0h1m5 0h1m1 0h2m1 0h1m5 0h2m1 0h1m3 0h5m1 0h3m1 0h1m1 0h1m1 0h1m1 0h3m2 0h1m1 0h1m1 0h1m5 0h2m1 0h5m1 0h1m2 0h3m1 0h1m2 0h2m2 0h3m1 0h1m1 0h1m1 0h1m4 0h1m3 0h1M5 90.5h1m3 0h8m4 0h1m3 0h1m2 0h1m4 0h1m3 0h3m3 0h3m4 0h5m2 0h1m1 0h4m1 0h1m1 0h1m1 0h2m1 0h1m9 0h2m7 0h1m1 0h2m2 0h3m3 0h2M5 91.5h3m1 0h1m1 0h2m1 0h1m1 0h1m2 0h1m3 0h5m2 0h3m1 0h1m3 0h1m2 0h2m1 0h4m1 0h1m1 0h2m1 0h4m2 0h2m1 0h4m2 0h1m1 0h1m3 0h4m2 0h1m2 0h1m2 0h1m3 0h1m5 0h1m2 0h4M4 92.5h1m1 0h2m2 0h3m3 0h1m1 0h4m1 0h1m1 0h3m1 0h1m3 0h1m1 0h2m1 0h2m1 0h1m1 0h2m4 0h1m3 0h2m1 0h4m4 0h2m3 0h2m1 0h1m2 0h1m1 0h2m1 0h3m1 0h1m1 0h1m2 0h3m3 0h2m1 0h1m1 0h2m1 0h2M4 93.5h1m1 0h3m2 0h1m4 0h3m2 0h1m1 0h3m1 0h1m2 0h3m2 0h2m2 0h4m2 0h1m1 0h1m5 0h1m1 0h2m1 0h1m2 0h1m1 0h3m1 0h1m3 0h1m1 0h4m3 0h1m1 0h2m1 0h1m3 0h3m2 0h2m1 0h1m3 0h2m1 0h1M4 94.5h1m2 0h2m1 0h2m3 0h1m1 0h1m1 0h1m2 0h2m1 0h1m1 0h1m2 0h3m1 0h1m1 0h3m7 0h2m1 0h4m2 0h3m1 0h4m4 0h3m1 0h4m4 0h1m3 0h1m1 0h1m1 0h2m1 0h1m1 0h1m2 0h2m1 0h2m3 0h1M4 95.5h1m1 0h2m1 0h1m2 0h5m2 0h1m1 0h10m3 0h2m2 0h1m2 0h1m2 0h1m1 0h1m4 0h1m2 0h1m4 0h1m1 0h3m8 0h2m2 0h1m1 0h1m2 0h3m1 0h1m1 0h1m3 0h1m1 0h2m6 0h1m1 0h2M8 96.5h1m1 0h3m2 0h3m3 0h1m1 0h3m1 0h1m1 0h6m1 0h1m2 0h2m3 0h3m3 0h7m1 0h1m2 0h1m1 0h2m1 0h1m4 0h2m1 0h6m1 0h2m1 0h2m3 0h2m2 0h8m1 0h3M12 97.5h3m4 0h2m2 0h1m2 0h3m1 0h1m3 0h4m2 0h1m1 0h1m1 0h3m4 0h2m3 0h1m1 0h5m2 0h1m2 0h1m1 0h1m1 0h3m3 0h2m2 0h1m1 0h2m4 0h1m1 0h2m2 0h1m3 0h1m3 0h1M4 98.5h7m3 0h1m3 0h8m4 0h1m1 0h1m1 0h2m3 0h1m1 0h1m1 0h1m1 0h2m3 0h3m1 0h1m1 0h1m2 0h1m2 0h2m6 0h1m3 0h1m1 0h1m1 0h3m1 0h1m1 0h1m1 0h2m3 0h1m1 0h2m1 0h1m1 0h1m1 0h1m2 0h1M4 99.5h1m5 0h1m2 0h1m1 0h1m2 0h6m1 0h2m2 0h2m3 0h1m3 0h1m2 0h2m2 0h1m6 0h1m3 0h1m3 0h2m1 0h2m2 0h5m2 0h1m3 0h1m1 0h1m1 0h2m2 0h2m1 0h2m1 0h5m3 0h1m1 0h1m1 0h1M4 100.5h1m1 0h3m1 0h1m2 0h1m4 0h1m1 0h1m1 0h3m2 0h1m2 0h5m1 0h4m1 0h1m1 0h1m1 0h2m1 0h1m1 0h7m3 0h1m2 0h1m2 0h1m3 0h9m2 0h1m1 0h3m1 0h1m1 0h3m2 0h8m1 0h1M4 101.5h1m1 0h3m1 0h1m2 0h1m2 0h1m1 0h1m4 0h3m2 0h1m2 0h2m1 0h2m3 0h2m1 0h7m1 0h2m4 0h4m2 0h4m1 0h2m3 0h3m2 0h2m2 0h1m1 0h2m1 0h1m3 0h1m1 0h3m2 0h2m2 0h2M4 102.5h1m1 0h3m1 0h1m3 0h1m2 0h1m5 0h2m1 0h1m1 0h1m2 0h1m4 0h1m1 0h2m1 0h3m2 0h1m5 0h1m1 0h1m2 0h2m1 0h3m2 0h2m4 0h2m1 0h1m4 0h1m1 0h1m2 0h1m2 0h1m1 0h1m3 0h4m1 0h1m1 0h1m1 0h2M4 103.5h1m5 0h1m5 0h2m1 0h1m2 0h2m1 0h2m1 0h1m2 0h1m2 0h2m2 0h1m2 0h2m2 0h2m1 0h1m1 0h1m2 0h2m3 0h1m2 0h2m2 0h1m2 0h1m1 0h2m1 0h2m3 0h1m1 0h5m1 0h3m5 0h2m4 0h2m2 0h1M4 104.5h7m1 0h3m2 0h2m3 0h3m1 0h2m4 0h5m1 0h4m1 0h2m2 0h3m2 0h4m3 0h3m1 0h1m1 0h3m3 0h1m1 0h1m1 0h1m1 0h1m1 0h1m1 0h1m2 0h4m1 0h1m1 0h3m3 0h2"/></svg>
