<svg xmlns="http://www.w3.org/2000/svg" viewBox="0 0 109 109" shape-rendering="crispEdges"><path fill="#ffffff" d="M0 0h109v109H0z"/><path stroke="#000000" d="M4 4.5h7m2 0h2m1 0h2m4 0h1m1 0h3m7 0h2m1 0h1m3 0h1m4 0h3m2 0h1m1 0h4m2 0h1m1 0h1m1 0h2m5 0h1m10 0h1m1 0h1m1 0h1m1 0h1m1 0h1m1 0h2m1 0h2m2 0h7M4 5.5h1m5 0h1m1 0h1m1 0h1m1 0h6m1 0h3m3 0h1m2 0h4m2 0h1m2 0h3m2 0h2m2 0h3m1 0h1m1 0h1m2 0h1m2 0h1m1 0h1m2 0h2m2 0h3m3 0h1m8 0h2m3 0h1m1 0h1m4 0h1m5 0h1M4 6.5h1m1 0h3m1 0h1m6 0h2m1 0h2m3 0h1m2 0h1m1 0h1m1 0h1m3 0h1m1 0h1m1 0h1m7 0h1m2 0h2m2 0h1m5 0h1m3 0h1m1 0h2m6 0h2m1 0h2m3 0h2m5 0h3m2 0h1m2 0h1m1 0h3m1 0h1M4 7.5h1m1 0h3m1 0h1m1 0h2m6 0h1m1 0h1m3 0h2m1 0h2m2 0h3m2 0h2m1 0h1m3 0h2m3 0h1m1 0h1m3 0h1m3 0h8m1 0h2m1 0h2m2 0h3m1 0h1m1 0h1m1 0h1m1 0h1m1 0h2m1 0h1m1 0h3m2 0h1m1 0h3m1 0h1M4 8.5h1m1 0h3m1 0h1m2 0h1m1 0h1m4 0h2m1 0h1m4 0h8m1 0h2m4 0h1m2 0h1m2 0h1m2 0h9m5 0h1m1 0h1m1 0h2m1 0h6m1 0h1m7 0h3m1 0h1m1 0h1m1 0h1m1 0h1m1 0h3m1 0h1M4 9.5h1m5 0h1m1 0h2m2 0h2m1 0h3m1 0h3m4 0h1m3 0h1m1 0h3m3 0h1m2 0h3m2 0h1m1 0h1m3 0h2m3 0h1m1 0h5m2 0h1m3 0h1m3 0h3m1 0h2m1 0h1m2 0h2m1 0h3m1 0h1m2 0h1m5 0h1M4 10.5h7m1 0h1m1 0h1m1 0h1m1 0h1m1 0h1m1 0h1m1 0h1m1 0h1m1 0h1m1 0h1m1 0h1m1 0h1m1 0h1m1 0h1m1 0h1m1 0h1m1 0h1m1 0h1m1 0h1m1 0h1m1 0h1m1 0h1m1 0h1m1 0h1m1 0h1m1 0h1m1 0h1m1 0h1m1 0h1m1 0h1m1 0h1m1 0h1m1 0h1m1 0h1m1 0h1m1 0h1m1 0h1m1 0h1m1 0h1m1 0h1m1 0h1m1 0h1m1 0h1m1 0h7M13 11.5h2m1 0h5m1 0h1m1 0h1m2 0h1m1 0h2m3 0h3m1 0h3m2 0h2m1 0h1m1 0h1m1 0h1m1 0h1m3 0h1m1 0h3m1 0h6m1 0h2m3 0h1m3 0h5m1 0h1m2 0h1m3 0h2m3 0h1M4 12.5h5m1 0h7m2 0h1m3 0h1m1 0h1m2 0h1m1 0h8m2 0h1m2 0h2m1 0h3m1 0h1m1 0h10m1 0h1m1 0h2m2 0h10m5 0h1m1 0h2m1 0h1m2 0h2m3 0h1m1 0h1m1 0h1m1 0h1M7 13.5h2m2 0h7m1 0h2m1 0h1m1 0h2m1 0h1m1 0h3m1 0h1m1 0h1m1 0h1m1 0h1m1 0h3m2 0h1m1 0h2m1 0h2m1 0h2m2 0h1m7 0h1m1 0h2m2 0h1m1 0h2m6 0h1m1 0h1m1 0h1m1 0h1m1 0h3m1 0h1m2 0h1m2 0h2m2 0h1M4 14.5h3m1 0h1m1 0h2m2 0h1m6 0h1m2 0h1m1 0h9m1 0h3m2 0h1m2 0h1m1 0h2m4 0h1m1 0h1m1 0h1m5 0h1m1 0h1m3 0h1m2 0h3m2 0h1m2 0h1m2 0h1m1 0h1m1 0h4m3 0h3m2 0h1m1 0h1m1 0h1m1 0h1M5 15.5h1m2 0h1m6 0h3m1 0h2m1 0h1m2 0h1m1 0h2m4 0h2m1 0h2m1 0h1m1 0h2m3 0h1m1 0h1m2 0h2m1 0h3m2 0h2m1 0h2m1 0h2m2 0h2m2 0h4m2 0h5m2 0h1m1 0h3m6 0h1m1 0h6M6 16.5h1m3 0h2m1 0h1m2 0h1m1 0h2m1 0h1m1 0h1m4 0h2m2 0h2m3 0h2m1 0h1m1 0h1m1 0h1m4 0h1m1 0h3m4 0h2m1 0h1m1 0h2m3 0h1m5 0h2m1 0h4m1 0h5m4 0h1m5 0h2m1 0h2M4 17.5h2m6 0h2m3 0h1m5 0h1m1 0h2m2 0h3m1 0h1m2 0h1m2 0h2m1 0h2m6 0h1m1 0h1m2 0h4m3 0h4m1 0h2m2 0h1m2 0h2m1 0h2m3 0h1m1 0h4m1 0h1m2 0h1m4 0h2m4 0h2M4 18.5h2m1 0h5m1 0h1m3 0h1m4 0h4m1 0h2m6 0h6m4 0h1m4 0h6m1 0h1m1 0h4m1 0h2m2 0h3m2 0h2m2 0h1m1 0h1m2 0h1m1 0h3m2 0h2m1 0h2m1 0h1m1 0h1m2 0h5M4 19.5h2m3 0h1m2 0h1m1 0h4m4 0h1m2 0h1m2 0h1m1 0h7m1 0h1m3 0h3m3 0h4m1 0h2m3 0h1m2 0h5m1 0h1m1 0h4m1 0h1m3 0h1m1 0h1m1 0h1m2 0h1m1 0h2m3 0h6m1 0h1m1 0h1m1 0h1M5 20.5h3m2 0h2m3 0h1m2 0h1m1 0h3m3 0h3m4 0h2m1 0h2m1 0h1m1 0h3m3 0h2m2 0h3m1 0h1m1 0h3m5 0h3m1 0h4m4 0h2m2 0h1m1 0h3m1 0h1m3 0h1m1 0h1m4 0h1m3 0h1M9 21.5h1m2 0h1m1 0h3m2 0h3m2 0h3m1 0h1m1 0h7m4 0h7m1 0h1m2 0h2m1 0h2m1 0h5m4 0h2m1 0h1m1 0h2m1 0h1m2 0h4m2 0h1m5 0h5m2 0h1m1 0h5M4 22.5h5m1 0h2m3 0h2m1 0h3m2 0h2m1 0h1m3 0h3m1 0h1m1 0h1m1 0h1m3 0h1m1 0h1m1 0h4m7 0h5m2 0h1m2 0h2m2 0h3m1 0h1m1 0h2m1 0h1m4 0h2m1 0h1m3 0h3m1 0h3m1 0h1m3 0h1M5 23.5h1m1 0h3m4 0h2m2 0h4m1 0h1m1 0h1m2 0h1m2 0h3m2 0h1m1 0h1m1 0h2m3 0h1m2 0h1m2 0h1m1 0h4m1 0h5m2 0h1m5 0h3m1 0h3m5 0h1m1 0h5m2 0h3m1 0h3m2 0h2M4 24.5h1m1 0h1m2 0h2m2 0h1m3 0h1m1 0h1m1 0h3m1 0h1m1 0h1m1 0h1m2 0h1m2 0h1m1 0h1m3 0h1m1 0h1m1 0h1m1 0h1m4 0h3m2 0h3m4 0h2m1 0h1m9 0h6m1 0h1m2 0h3m1 0h6m1 0h3m1 0h3M5 25.5h1m2 0h1m2 0h2m3 0h1m1 0h1m1 0h1m2 0h3m1 0h1m5 0h2m2 0h1m1 0h1m1 0h1m2 0h2m3 0h1m3 0h4m2 0h1m2 0h1m1 0h2m1 0h2m2 0h5m2 0h1m3 0h2m1 0h2m2 0h2m3 0h3m7 0h1M4 26.5h1m1 0h1m1 0h1m1 0h4m3 0h1m1 0h3m1 0h1m1 0h4m2 0h3m1 0h1m1 0h1m1 0h2m4 0h1m1 0h2m1 0h2m4 0h1m2 0h1m1 0h2m2 0h1m2 0h1m1 0h2m2 0h2m1 0h1m4 0h1m1 0h2m3 0h1m4 0h1m2 0h2m1 0h1m2 0h1M5 27.5h1m1 0h1m4 0h1m2 0h3m1 0h2m2 0h2m2 0h3m1 0h1m4 0h2m2 0h1m1 0h1m2 0h1m1 0h2m1 0h1m2 0h2m4 0h1m2 0h1m2 0h5m2 0h1m2 0h2m2 0h4m1 0h3m2 0h2m2 0h3m2 0h2m2 0h1m1 0h1M8 28.5h1m1 0h2m1 0h1m1 0h2m3 0h2m2 0h1m4 0h1m2 0h3m5 0h1m3 0h1m2 0h3m7 0h3m1 0h2m2 0h1m2 0h1m2 0h2m2 0h2m1 0h2m2 0h1m1 0h4m1 0h2m1 0h1m2 0h1m2 0h1m3 0h2M4 29.5h1m1 0h1m1 0h2m3 0h4m1 0h1m2 0h1m1 0h4m1 0h1m2 0h2m4 0h1m1 0h1m1 0h2m2 0h2m8 0h2m1 0h5m2 0h1m5 0h1m1 0h2m2 0h2m3 0h1m1 0h1m2 0h2m1 0h2m1 0h2m1 0h2m2 0h2m1 0h2M4 30.5h1m1 0h1m1 0h6m2 0h2m1 0h1m1 0h1m4 0h1m2 0h6m1 0h3m2 0h1m2 0h1m4 0h8m1 0h1m6 0h1m1 0h4m3 0h6m2 0h2m4 0h1m4 0h1m1 0h7m1 0h1M8 31.5h1m3 0h1m7 0h1m3 0h1m4 0h2m3 0h2m1 0h1m3 0h1m2 0h2m1 0h1m2 0h3m3 0h1m1 0h1m1 0h2m3 0h1m1 0h2m1 0h1m1 0h3m3 0h1m1 0h1m1 0h2m2 0h1m1 0h4m1 0h2m1 0h1m3 0h3M7 32.5h2m1 0h1m1 0h4m1 0h4m3 0h4m1 0h2m1 0h1m1 0h1m1 0h1m3 0h1m1 0h5m3 0h3m1 0h1m1 0h3m1 0h1m2 0h2m3 0h1m4 0h2m1 0h1m1 0h1m1 0h2m2 0h1m1 0h1m2 0h1m1 0h1m3 0h2m1 0h1m1 0h2M4 33.5h1m1 0h1m1 0h1m3 0h3m1 0h1m1 0h5m2 0h1m2 0h1m1 0h1m3 0h1m1 0h2m2 0h2m2 0h1m3 0h1m2 0h2m3 0h2m4 0h1m4 0h1m4 0h3m3 0h3m1 0h1m1 0h2m1 0h3m1 0h2m1 0h1m1 0h1m3 0h2m2 0h1M4 34.5h1m3 0h5m2 0h5m3 0h6m1 0h8m5 0h2m2 0h1m1 0h10m2 0h8m1 0h1m3 0h6m1 0h1m2 0h6m3 0h9m1 0h1M4 35.5h4m1 0h1m1 0h3m3 0h1m2 0h3m2 0h1m1 0h2m1 0h1m2 0h1m2 0h1m3 0h1m2 0h2m4 0h1m1 0h3m1 0h1m2 0h3m4 0h3m1 0h1m2 0h1m2 0h2m3 0h3m2 0h4m2 0h1m1 0h2m1 0h1m1 0h2m3 0h1M10 36.5h12m1 0h4m3 0h1m1 0h1m2 0h1m1 0h2m2 0h1m3 0h2m5 0h2m1 0h6m6 0h1m6 0h5m1 0h1m3 0h1m2 0h1m1 0h2m2 0h3m2 0h5M5 37.5h5m3 0h1m2 0h2m1 0h1m1 0h1m3 0h2m5 0h1m2 0h2m1 0h9m1 0h3m1 0h2m3 0h1m1 0h1m1 0h2m1 0h3m5 0h1m3 0h3m1 0h3m1 0h2m3 0h1m1 0h1m1 0h2m2 0h1m2 0h2m2 0h1M5 38.5h3m2 0h3m1 0h2m1 0h1m1 0h2m2 0h1m2 0h1m1 0h3m1 0h1m1 0h4m2 0h2m3 0h1m4 0h4m1 0h1m1 0h1m2 0h3m1 0h1m2 0h1m1 0h1m1 0h2m1 0h1m2 0h1m1 0h1m2 0h2m1 0h2m3 0h1m7 0h1m3 0h1M4 39.5h1m2 0h2m4 0h4m1 0h1m1 0h1m3 0h9m1 0h3m2 0h3m1 0h1m1 0h1m1 0h1m1 0h2m4 0h1m1 0h4m2 0h4m2 0h1m2 0h1m11 0h1m4 0h1m4 0h2m1 0h1m1 0h1m2 0h1M5 40.5h1m2 0h1m1 0h1m2 0h1m3 0h2m2 0h5m2 0h2m2 0h3m3 0h1m3 0h2m5 0h1m3 0h1m1 0h1m1 0h2m1 0h4m2 0h1m2 0h1m1 0h1m2 0h5m2 0h4m1 0h1m1 0h1m1 0h3m7 0h1m2 0h2M4 41.5h1m2 0h1m1 0h1m2 0h2m1 0h3m3 0h3m2 0h1m1 0h2m1 0h2m1 0h1m1 0h1m1 0h2m5 0h1m2 0h1m2 0h2m1 0h1m2 0h1m1 0h1m3 0h1m1 0h3m1 0h9m1 0h1m1 0h2m1 0h2m2 0h2m2 0h4m1 0h1m3 0h1M4 42.5h1m3 0h1m1 0h1m2 0h1m2 0h1m1 0h1m6 0h1m2 0h1m1 0h1m1 0h9m1 0h1m1 0h2m2 0h1m3 0h3m1 0h2m2 0h3m1 0h2m1 0h2m4 0h2m2 0h2m4 0h2m1 0h2m7 0h1m1 0h6M5 43.5h1m1 0h2m4 0h1m1 0h3m3 0h2m6 0h3m3 0h2m2 0h1m2 0h2m4 0h1m5 0h1m1 0h2m2 0h1m2 0h1m1 0h2m1 0h1m3 0h1m1 0h1m2 0h1m2 0h1m1 0h2m1 0h1m1 0h1m2 0h1m5 0h3m1 0h5M4 44.5h1m2 0h5m3 0h2m3 0h1m2 0h1m4 0h1m2 0h6m3 0h2m1 0h2m1 0h6m3 0h2m1 0h1m5 0h1m1 0h6m5 0h1m1 0h1m2 0h1m1 0h2m2 0h1m2 0h2m4 0h1m3 0h1M5 45.5h1m1 0h3m2 0h2m1 0h1m1 0h1m1 0h1m2 0h2m1 0h2m1 0h1m1 0h1m4 0h1m1 0h1m2 0h1m2 0h1m3 0h1m3 0h1m1 0h1m2 0h2m1 0h1m2 0h1m1 0h2m4 0h1m2 0h2m1 0h2m3 0h2m2 0h3m3 0h2m2 0h1m2 0h1m1 0h1m1 0h1M4 46.5h3m1 0h1m1 0h3m2 0h1m1 0h1m2 0h4m2 0h2m2 0h1m4 0h3m3 0h1m9 0h4m1 0h2m1 0h1m1 0h2m3 0h1m1 0h3m2 0h1m1 0h1m2 0h2m1 0h2m2 0h3m1 0h1m6 0h1m2 0h1m1 0h1M4 47.5h1m2 0h3m2 0h3m1 0h2m2 0h2m1 0h2m3 0h1m2 0h3m6 0h1m4 0h5m1 0h2m1 0h3m1 0h2m1 0h4m2 0h1m1 0h3m1 0h6m3 0h3m1 0h3m2 0h2m4 0h1m2 0h1m3 0h1M5 48.5h3m1 0h3m2 0h4m4 0h2m3 0h1m2 0h2m1 0h2m2 0h3m2 0h1m3 0h2m2 0h1m3 0h3m8 0h1m1 0h2m2 0h1m4 0h2m2 0h2m1 0h3m2 0h7m2 0h1m1 0h1m1 0h1m1 0h1M5 49.5h1m1 0h3m1 0h1m7 0h1m1 0h1m2 0h3m1 0h3m9 0h5m1 0h3m1 0h4m4 0h1m1 0h4m2 0h1m3 0h1m1 0h2m1 0h2m3 0h1m1 0h1m2 0h2m1 0h1m3 0h1m2 0h1m2 0h2m2 0h3M4 50.5h3m1 0h1m1 0h2m1 0h1m1 0h1m1 0h2m1 0h1m1 0h2m1 0h1m2 0h4m2 0h1m1 0h2m1 0h1m1 0h4m2 0h3m2 0h2m2 0h2m1 0h2m2 0h5m1 0h2m1 0h2m2 0h2m1 0h2m2 0h1m3 0h2m1 0h1m1 0h1m1 0h1m1 0h1m1 0h2M4 51.5h1m1 0h4m1 0h2m1 0h2m1 0h1m4 0h1m3 0h2m2 0h1m1 0h4m1 0h1m2 0h1m5 0h3m5 0h1m1 0h1m5 0h1m3 0h1m1 0h1m1 0h1m1 0h1m3 0h1m1 0h1m2 0h3m1 0h3m1 0h1m1 0h1m1 0h2m1 0h1m1 0h2m1 0h1M4 52.5h2m1 0h6m5 0h6m1 0h1m3 0h6m1 0h1m3 0h1m7 0h2m1 0h9m1 0h1m1 0h1m1 0h1m6 0h10m2 0h2m2 0h1m1 0h1m5 0h5m1 0h1M4 53.5h1m1 0h3m3 0h3m1 0h5m6 0h1m2 0h1m3 0h1m1 0h1m1 0h1m1 0h2m1 0h2m2 0h1m2 0h3m3 0h1m2 0h1m1 0h2m4 0h3m1 0h1m2 0h1m3 0h3m2 0h1m2 0h3m1 0h1m2 0h4m3 0h1m1 0h1m1 0h1M4 54.5h2m2 0h1m1 0h1m1 0h4m1 0h1m1 0h4m2 0h1m4 0h1m1 0h1m1 0h4m2 0h1m1 0h1m1 0h1m1 0h1m2 0h2m1 0h1m1 0h1m1 0h1m1 0h1m1 0h2m3 0h1m3 0h2m2 0h2m1 0h1m1 0h1m1 0h1m1 0h1m1 0h2m1 0h3m1 0h1m1 0h1m2 0h1m1 0h1m1 0h5M7 55.5h2m3 0h1m1 0h1m2 0h1m1 0h1m1 0h4m3 0h1m1 0h1m3 0h1m3 0h3m2 0h1m2 0h2m3 0h2m3 0h4m3 0h1m5 0h1m1 0h1m2 0h1m3 0h1m1 0h1m1 0h2m6 0h3m1 0h3m3 0h5M4 56.5h11m1 0h2m1 0h1m9 0h6m1 0h1m1 0h1m1 0h3m1 0h1m7 0h5m3 0h3m4 0h2m4 0h9m1 0h1m2 0h4m2 0h1m3 0h5m2 0h1M7 57.5h3m2 0h2m2 0h2m1 0h1m1 0h2m5 0h1m1 0h2m1 0h2m1 0h1m3 0h1m2 0h1m9 0h1m1 0h2m8 0h1m5 0h2m2 0h2m1 0h1m2 0h1m1 0h1m1 0h1m3 0h1m1 0h3m3 0h1m1 0h1m2 0h1M5 58.5h3m2 0h1m3 0h1m1 0h1m1 0h1m2 0h4m4 0h3m3 0h1m1 0h1m2 0h1m2 0h1m2 0h1m4 0h4m1 0h1m1 0h2m1 0h2m4 0h1m2 0h1m1 0h2m1 0h1m1 0h2m1 0h3m2 0h1m2 0h1m2 0h6m1 0h1m2 0h2m1 0h1M4 59.5h2m1 0h2m3 0h1m2 0h5m2 0h1m1 0h1m1 0h3m1 0h4m8 0h1m1 0h3m2 0h1m1 0h1m1 0h1m1 0h2m1 0h2m2 0h6m1 0h1m1 0h3m4 0h1m1 0h2m1 0h1m1 0h1m2 0h4m2 0h1m2 0h1m1 0h2m1 0h2M4 60.5h7m2 0h1m1 0h1m1 0h2m2 0h1m3 0h1m1 0h5m1 0h1m1 0h2m1 0h1m3 0h5m1 0h1m6 0h1m1 0h2m2 0h1m4 0h1m3 0h1m2 0h3m2 0h2m2 0h2m1 0h1m1 0h1m9 0h3m1 0h1M6 61.5h4m2 0h1m3 0h1m1 0h3m1 0h1m1 0h1m2 0h1m1 0h2m1 0h1m1 0h2m1 0h3m1 0h1m1 0h1m2 0h1m1 0h2m1 0h1m3 0h2m2 0h3m3 0h1m2 0h2m3 0h1m1 0h1m2 0h1m4 0h3m1 0h2m3 0h5m1 0h1m2 0h2M6 62.5h3m1 0h2m3 0h1m1 0h4m2 0h3m1 0h1m1 0h1m3 0h6m1 0h4m2 0h1m4 0h1m1 0h1m6 0h1m1 0h3m3 0h3m3 0h1m1 0h3m1 0h1m1 0h1m1 0h3m3 0h2m5 0h1m1 0h3M12 63.5h4m1 0h3m1 0h1m1 0h1m1 0h1m1 0h2m5 0h1m1 0h1m4 0h1m1 0h3m2 0h1m4 0h2m1 0h1m2 0h3m3 0h6m2 0h1m1 0h1m1 0h1m1 0h2m3 0h2m1 0h1m2 0h2m1 0h3m4 0h4M4 64.5h1m1 0h2m1 0h2m1 0h2m2 0h3m1 0h2m1 0h4m1 0h1m1 0h1m1 0h2m1 0h1m1 0h2m3 0h2m1 0h1m2 0h1m1 0h2m1 0h1m3 0h2m1 0h5m1 0h2m1 0h6m1 0h2m2 0h1m1 0h1m3 0h4m1 0h1m1 0h1m1 0h5m1 0h4M4 65.5h2m1 0h1m1 0h1m1 0h2m1 0h2m1 0h4m1 0h1m2 0h2m1 0h1m1 0h1m1 0h1m1 0h1m2 0h1m2 0h1m2 0h3m3 0h1m1 0h1m3 0h2m3 0h3m3 0h1m1 0h1m2 0h2m1 0h5m2 0h1m2 0h1m2 0h2m1 0h1m2 0h1m4 0h2m3 0h1M8 66.5h3m1 0h3m2 0h3m1 0h2m1 0h1m3 0h1m2 0h2m6 0h2m1 0h1m2 0h1m2 0h1m1 0h2m2 0h2m6 0h1m2 0h2m1 0h1m4 0h1m8 0h1m7 0h1m2 0h1m2 0h3m2 0h3M5 67.5h1m1 0h3m1 0h1m2 0h1m8 0h1m2 0h1m2 0h1m3 0h3m2 0h1m3 0h3m1 0h5m6 0h2m2 0h1m4 0h3m2 0h2m2 0h4m5 0h3m2 0h3m1 0h3m1 0h3m1 0h1m1 0h1M4 68.5h1m1 0h2m1 0h3m4 0h6m4 0h3m1 0h1m1 0h1m1 0h1m2 0h4m2 0h2m3 0h1m1 0h1m2 0h3m2 0h1m1 0h3m1 0h1m1 0h1m1 0h1m2 0h4m3 0h2m1 0h3m10 0h2m3 0h3m1 0h2M6 69.5h1m1 0h1m3 0h1m1 0h6m4 0h3m1 0h1m11 0h2m1 0h2m3 0h2m1 0h2m2 0h5m2 0h1m1 0h4m1 0h2m1 0h1m3 0h3m5 0h2m1 0h3m1 0h2m1 0h6m3 0h1M4 70.5h2m1 0h6m3 0h1m1 0h1m2 0h1m1 0h1m3 0h2m3 0h2m1 0h1m3 0h2m1 0h1m2 0h3m1 0h5m1 0h1m2 0h6m2 0h1m4 0h1m4 0h1m2 0h1m4 0h2m1 0h2m1 0h1m1 0h3m3 0h1m1 0h4M5 71.5h1m1 0h1m1 0h1m1 0h1m1 0h1m4 0h1m3 0h2m2 0h1m1 0h1m1 0h1m2 0h7m1 0h2m1 0h2m2 0h1m1 0h1m1 0h1m1 0h2m1 0h1m2 0h4m1 0h2m1 0h3m1 0h1m1 0h4m3 0h1m1 0h1m1 0h1m1 0h1m1 0h1m6 0h1m1 0h1m1 0h1m2 0h1M4 72.5h4m2 0h3m2 0h1m4 0h1m1 0h4m2 0h1m3 0h5m3 0h2m1 0h1m1 0h2m2 0h1m1 0h1m2 0h5m1 0h7m1 0h2m3 0h1m1 0h6m1 0h1m3 0h1m3 0h2m2 0h2m3 0h1m2 0h2M5 73.5h1m3 0h1m2 0h3m1 0h1m1 0h1m3 0h4m1 0h1m1 0h3m3 0h1m2 0h1m1 0h1m1 0h1m1 0h1m1 0h2m1 0h1m1 0h3m2 0h1m4 0h5m1 0h6m1 0h1m1 0h1m6 0h6m1 0h1m2 0h2m2 0h1m5 0h1M4 74.5h1m2 0h7m2 0h1m1 0h2m2 0h7m1 0h5m1 0h1m3 0h7m1 0h11m2 0h1m2 0h3m1 0h2m2 0h1m1 0h6m1 0h1m1 0h1m7 0h1m1 0h9m2 0h1M4 75.5h1m3 0h1m3 0h2m1 0h1m1 0h2m5 0h4m1 0h2m3 0h1m1 0h2m1 0h3m4 0h1m1 0h3m1 0h1m3 0h1m1 0h1m6 0h1m5 0h1m1 0h2m3 0h2m1 0h1m2 0h2m1 0h4m1 0h5m3 0h2m1 0h1M7 76.5h2m1 0h1m1 0h1m3 0h5m2 0h3m4 0h1m1 0h1m1 0h1m1 0h2m1 0h2m2 0h4m3 0h1m1 0h1m1 0h1m1 0h1m2 0h4m1 0h2m5 0h1m1 0h2m1 0h1m1 0h2m1 0h6m2 0h1m4 0h3m1 0h1m1 0h2M4 77.5h1m1 0h1m1 0h1m3 0h1m2 0h1m1 0h1m1 0h1m2 0h1m3 0h3m1 0h1m3 0h3m1 0h1m5 0h1m1 0h1m3 0h3m3 0h1m1 0h3m1 0h1m1 0h2m1 0h4m1 0h1m1 0h1m3 0h2m2 0h1m1 0h1m1 0h1m3 0h1m4 0h2m3 0h3m1 0h1M5 78.5h1m2 0h8m3 0h1m4 0h3m2 0h6m1 0h2m1 0h2m1 0h1m1 0h1m1 0h1m3 0h9m1 0h2m1 0h1m2 0h4m1 0h2m1 0h6m1 0h2m4 0h3m2 0h1m1 0h11M5 79.5h1m1 0h1m5 0h1m1 0h4m2 0h2m2 0h1m2 0h4m1 0h2m1 0h4m4 0h3m1 0h2m1 0h4m1 0h1m1 0h1m1 0h2m2 0h1m1 0h1m1 0h6m5 0h2m2 0h1m1 0h2m6 0h3m3 0h3m1 0h1M4 80.5h2m1 0h4m3 0h1m1 0h4m1 0h5m1 0h1m1 0h1m1 0h2m1 0h3m2 0h1m2 0h1m2 0h1m1 0h6m1 0h1m1 0h1m1 0h2m1 0h3m1 0h4m1 0h1m1 0h3m2 0h1m1 0h2m2 0h1m3 0h1m1 0h1m1 0h1m1 0h3m2 0h1m1 0h2M6 81.5h1m1 0h2m3 0h2m1 0h4m1 0h1m1 0h4m1 0h3m3 0h2m1 0h1m1 0h1m3 0h2m1 0h1m3 0h4m1 0h3m3 0h2m1 0h1m2 0h1m2 0h1m1 0h1m5 0h4m3 0h1m5 0h1m2 0h3m1 0h1M8 82.5h3m2 0h1m2 0h3m1 0h2m1 0h2m3 0h2m1 0h4m1 0h1m3 0h1m2 0h1m1 0h1m1 0h1m1 0h6m6 0h1m3 0h3m2 0h3m1 0h1m3 0h1m3 0h3m4 0h1m1 0h1m1 0h3m2 0h1m2 0h4M4 83.5h2m1 0h2m2 0h1m6 0h3m3 0h2m2 0h1m4 0h3m1 0h1m1 0h1m1 0h1m2 0h1m6 0h3m2 0h2m1 0h1m3 0h2m2 0h2m1 0h1m2 0h2m2 0h1m1 0h2m1 0h8m1 0h1m3 0h3m1 0h2m2 0h2M6 84.5h2m1 0h5m1 0h1m2 0h2m3 0h1m2 0h1m1 0h1m1 0h3m1 0h3m7 0h3m1 0h1m1 0h2m1 0h2m1 0h3m3 0h3m1 0h1m1 0h2m2 0h1m2 0h2m1 0h1m2 0h1m1 0h1m1 0h1m2 0h1m1 0h1m2 0h1m2 0h1m1 0h1m1 0h5M7 85.5h1m1 0h1m1 0h1m1 0h1m1 0h2m1 0h2m1 0h1m2 0h3m1 0h3m1 0h5m2 0h1m1 0h2m3 0h1m1 0h2m1 0h2m1 0h1m1 0h4m1 0h1m2 0h1m1 0h3m1 0h1m1 0h5m1 0h1m1 0h1m1 0h1m1 0h1m1 0h1m1 0h2m1 0h1m1 0h3m2 0h1m2 0h1m1 0h2M4 86.5h1m4 0h2m2 0h1m3 0h2m1 0h1m1 0h3m1 0h3m2 0h3m2 0h1m3 0h2m3 0h1m1 0h3m3 0h2m2 0h2m2 0h1m1 0h3m1 0h1m1 0h1m1 0h1m1 0h2m1 0h2m1 0h2m4 0h1m1 0h2m6 0h1m1 0h2M5 87.5h1m1 0h1m5 0h3m2 0h1m1 0h1m2 0h1m1 0h1m2 0h1m1 0h1m5 0h1m2 0h2m5 0h1m3 0h2m1 0h2m1 0h4m3 0h2m1 0h2m1 0h1m2 0h1m6 0h2m2 0h1m1 0h1m3 0h1m1 0h1m1 0h1m1 0h3m3 0h1M7 88.5h4m1 0h2m2 0h2m1 0h1m4 0h2m1 0h2m1 0h5m4 0h1m5 0h1m1 0h1m1 0h1m3 0h5m1 0h4m2 0h3m4 0h1m4 0h1m2 0h1m2 0h4m1 0h1m2 0h1m2 0h3m4 0h3M5 89.5h1m5 0h1m1 0h1m1 0h2m1 0h1m2 0h1m1 0h2m2 0h2m2 0h1m1 0h1m2 0h2m3 0h4m1 0h1m3 0h1m1 0h1m1 0h1m3 0h2m6 0h1m1 0h1m1 0h2m3 0h2m1 0h3m3 0h2m1 0h1m1 0h1m1 0h2m3 0h1m1 0h1m1 0h1M5 90.5h3m1 0h2m2 0h1m1 0h1m1 0h2m6 0h3m3 0h1m1 0h1m1 0h1m1 0h1m2 0h1m1 0h1m1 0h5m1 0h3m2 0h2m7 0h1m1 0h2m1 0h2m2 0h1m1 0h3m6 0h2m2 0h1m2 0h1m1 0h2m7 0h3M4 91.5h2m2 0h2m3 0h2m1 0h3m1 0h1m4 0h4m5 0h3m5 0h4m3 0h1m3 0h1m1 0h1m3 0h2m4 0h1m2 0h1m1 0h2m1 0h4m1 0h1m2 0h6m3 0h8M4 92.5h1m1 0h1m2 0h2m1 0h1m1 0h1m1 0h2m4 0h2m1 0h1m1 0h1m1 0h6m1 0h3m1 0h1m2 0h1m1 0h1m4 0h1m1 0h1m1 0h2m1 0h1m1 0h1m1 0h1m1 0h2m1 0h1m1 0h1m1 0h1m3 0h3m2 0h1m3 0h2m1 0h1m2 0h1m6 0h2m1 0h3m2 0h1M4 93.5h1m3 0h2m1 0h2m4 0h1m2 0h1m4 0h1m2 0h2m2 0h2m1 0h1m4 0h3m4 0h2m2 0h1m3 0h4m1 0h2m3 0h5m1 0h1m1 0h3m1 0h1m1 0h4m1 0h2m1 0h3m2 0h4m2 0h4m1 0h1M4 94.5h1m2 0h2m1 0h1m1 0h3m1 0h3m3 0h1m1 0h2m1 0h1m3 0h1m4 0h1m4 0h1m1 0h1m4 0h2m2 0h7m1 0h1m1 0h3m1 0h2m1 0h2m1 0h1m3 0h1m2 0h2m1 0h1m1 0h1m6 0h3m3 0h1m3 0h2M4 95.5h1m1 0h2m1 0h1m1 0h1m2 0h1m1 0h2m3 0h1m1 0h2m1 0h5m1 0h3m1 0h3m3 0h1m4 0h1m1 0h1m1 0h1m1 0h4m1 0h4m4 0h5m5 0h1m3 0h4m1 0h2m1 0h3m2 0h2m2 0h5M8 96.5h1m1 0h1m3 0h1m4 0h1m8 0h1m1 0h6m1 0h2m1 0h2m2 0h1m1 0h1m1 0h2m2 0h5m1 0h1m2 0h5m2 0h1m1 0h2m1 0h6m5 0h1m1 0h1m3 0h1m2 0h8M12 97.5h2m2 0h1m1 0h2m1 0h1m4 0h1m2 0h2m3 0h6m2 0h1m2 0h2m1 0h2m2 0h1m3 0h1m1 0h1m1 0h1m2 0h1m3 0h3m2 0h1m1 0h1m3 0h2m1 0h2m4 0h8m1 0h1m3 0h1m3 0h1M4 98.5h7m1 0h1m3 0h1m3 0h1m1 0h1m2 0h2m3 0h1m1 0h1m1 0h2m3 0h1m2 0h1m1 0h1m1 0h3m1 0h1m1 0h1m1 0h1m1 0h1m2 0h1m2 0h1m2 0h3m3 0h1m1 0h2m1 0h1m1 0h2m1 0h2m2 0h1m1 0h2m1 0h5m1 0h1m1 0h1m1 0h3M4 99.5h1m5 0h1m2 0h1m2 0h1m3 0h5m1 0h1m2 0h2m3 0h1m1 0h1m1 0h3m2 0h1m2 0h1m1 0h1m3 0h1m3 0h1m1 0h1m1 0h2m3 0h3m1 0h3m2 0h1m3 0h3m2 0h4m1 0h3m3 0h3m3 0h3m1 0h1M4 100.5h1m1 0h3m1 0h1m1 0h2m3 0h1m2 0h1m1 0h1m1 0h2m1 0h1m2 0h6m1 0h2m2 0h4m4 0h1m2 0h5m1 0h2m1 0h2m1 0h1m1 0h1m2 0h3m1 0h9m1 0h1m1 0h1m1 0h1m5 0h1m2 0h8M4 101.5h1m1 0h3m1 0h1m1 0h1m1 0h1m1 0h4m2 0h1m1 0h1m2 0h1m1 0h1m3 0h1m2 0h1m1 0h3m3 0h1m4 0h1m2 0h3m2 0h2m2 0h3m2 0h1m1 0h4m1 0h5m2 0h2m2 0h11m1 0h2m1 0h3m1 0h1M4 102.5h1m1 0h3m1 0h1m1 0h4m3 0h2m2 0h3m3 0h1m6 0h3m4 0h7m2 0h1m3 0h1m1 0h1m1 0h2m3 0h1m2 0h3m1 0h3m1 0h3m5 0h2m4 0h2m6 0h1m3 0h2M4 103.5h1m5 0h1m1 0h2m1 0h3m4 0h3m2 0h1m1 0h1m8 0h1m2 0h2m4 0h3m2 0h2m1 0h3m2 0h1m1 0h1m3 0h2m1 0h2m1 0h1m1 0h1m1 0h2m7 0h6m1 0h1m5 0h2m1 0h1m1 0h1M4 104.5h7m1 0h4m1 0h7m2 0h1m1 0h8m2 0h1m1 0h2m1 0h2m1 0h1m2 0h3m1 0h2m1 0h1m1 0h3m1 0h2m1 0h11m1 0h1m1 0h1m2 0h2m1 0h6m1 0h1m2 0h1m2 0h3m1 0h1"/></svg>
