<svg xmlns="http://www.w3.org/2000/svg" viewBox="0 0 113 113" shape-rendering="crispEdges"><path fill="#ffffff" d="M0 0h113v113H0z"/><path stroke="#000000" d="M4 4.5h7m1 0h1m4 0h4m1 0h1m1 0h1m1 0h2m1 0h5m1 0h2m3 0h1m2 0h1m1 0h5m2 0h1m3 0h1m2 0h1m1 0h1m3 0h2m1 0h1m1 0h1m3 0h2m5 0h1m1 0h1m1 0h2m4 0h2m2 0h4m3 0h7M4 5.5h1m5 0h1m1 0h2m4 0h2m2 0h6m1 0h2m4 0h2m1 0h1m1 0h2m1 0h5m3 0h4m3 0h1m1 0h3m1 0h2m1 0h2m4 0h3m3 0h1m4 0h2m1 0h3m1 0h3m4 0h1m3 0h1m5 0h1M4 6.5h1m1 0h3m1 0h1m1 0h5m1 0h2m1 0h1m2 0h3m1 0h1m2 0h1m3 0h4m1 0h1m2 0h1m1 0h2m3 0h3m1 0h3m5 0h3m1 0h2m1 0h1m1 0h1m1 0h3m4 0h3m2 0h3m1 0h3m1 0h1m1 0h1m1 0h3m2 0h1m1 0h3m1 0h1M4 7.5h1m1 0h3m1 0h1m1 0h1m2 0h2m1 0h1m1 0h4m3 0h1m1 0h1m2 0h1m1 0h1m1 0h1m2 0h1m1 0h4m1 0h1m2 0h2m4 0h1m3 0h1m1 0h1m1 0h1m2 0h1m1 0h3m2 0h2m1 0h4m1 0h2m1 0h1m3 0h2m2 0h1m1 0h2m1 0h1m2 0h1m1 0h1m1 0h3m1 0h1M4 8.5h1m1 0h3m1 0h1m3 0h2m2 0h1m1 0h1m1 0h3m1 0h1m1 0h5m1 0h1m2 0h7m1 0h1m2 0h1m1 0h1m1 0h6m1 0h4m2 0h1m2 0h1m2 0h4m1 0h6m1 0h2m5 0h1m1 0h3m2 0h1m1 0h2m1 0h1m1 0h3m1 0h1M4 9.5h1m5 0h1m1 0h5m3 0h1m1 0h1m2 0h1m1 0h2m3 0h1m1 0h2m1 0h2m2 0h1m1 0h2m2 0h3m1 0h2m3 0h2m1 0h2m4 0h2m1 0h2m1 0h1m1 0h1m1 0h2m3 0h3m3 0h4m1 0h1m1 0h3m3 0h1m2 0h1m5 0h1M4 10.5h7m1 0h1m1 0h1m1 0h1m1 0h1m1 0h1m1 0h1m1 0h1m1 0h1m1 0h1m1 0h1m1 0h1m1 0h1m1 0h1m1 0h1m1 0h1m1 0h1m1 0h1m1 0h1m1 0h1m1 0h1m1 0h1m1 0h1m1 0h1m1 0h1m1 0h1m1 0h1m1 0h1m1 0h1m1 0h1m1 0h1m1 0h1m1 0h1m1 0h1m1 0h1m1 0h1m1 0h1m1 0h1m1 0h1m1 0h1m1 0h1m1 0h1m1 0h1m1 0h1m1 0h1m1 0h1m1 0h7M13 11.5h1m1 0h2m2 0h1m2 0h1m2 0h4m3 0h2m3 0h2m1 0h1m1 0h1m3 0h1m2 0h1m1 0h2m3 0h9m1 0h2m4 0h1m1 0h3m3 0h1m2 0h1m2 0h1m1 0h1m2 0h1m4 0h1m1 0h2M4 12.5h2m2 0h3m2 0h1m5 0h3m2 0h14m1 0h1m2 0h1m3 0h1m1 0h1m3 0h5m1 0h2m1 0h1m1 0h1m1 0h2m1 0h2m1 0h1m2 0h1m1 0h5m1 0h2m1 0h1m2 0h2m1 0h1m3 0h2m2 0h2m2 0h1m1 0h4M6 13.5h1m2 0h1m1 0h1m1 0h1m2 0h1m3 0h1m5 0h1m1 0h1m2 0h1m3 0h2m1 0h2m2 0h2m1 0h4m1 0h1m4 0h2m1 0h1m1 0h1m5 0h2m4 0h4m1 0h1m1 0h1m1 0h3m3 0h3m1 0h2m2 0h1m1 0h1m6 0h1m3 0h1M4 14.5h1m1 0h1m1 0h6m2 0h4m5 0h2m1 0h1m1 0h1m1 0h5m1 0h2m5 0h1m2 0h1m1 0h2m2 0h6m1 0h1m3 0h3m2 0h1m1 0h3m1 0h5m3 0h1m2 0h2m3 0h1m3 0h4m2 0h1m1 0h1m1 0h1m1 0h1M4 15.5h2m1 0h3m1 0h1m2 0h2m2 0h1m2 0h2m1 0h4m1 0h4m1 0h3m1 0h1m1 0h1m1 0h2m5 0h2m1 0h3m4 0h1m3 0h1m2 0h1m1 0h2m1 0h1m1 0h1m2 0h1m1 0h4m3 0h3m5 0h3m1 0h2m1 0h2m2 0h1m1 0h1m1 0h1M5 16.5h3m2 0h2m1 0h1m1 0h2m1 0h2m1 0h1m3 0h2m1 0h1m1 0h2m3 0h4m2 0h2m1 0h1m1 0h2m3 0h3m2 0h3m4 0h2m2 0h2m1 0h4m1 0h1m1 0h1m3 0h1m3 0h2m1 0h4m3 0h1m1 0h1m3 0h2m3 0h2M5 17.5h1m1 0h3m2 0h3m2 0h1m1 0h3m2 0h1m2 0h3m8 0h2m1 0h2m1 0h1m2 0h1m1 0h1m1 0h1m1 0h4m1 0h1m3 0h1m1 0h3m1 0h2m1 0h1m2 0h1m1 0h3m2 0h1m1 0h1m8 0h4m3 0h1m2 0h2m1 0h2m1 0h1M4 18.5h4m1 0h2m1 0h1m1 0h1m1 0h1m1 0h2m2 0h1m2 0h1m1 0h2m1 0h1m6 0h1m1 0h4m1 0h1m1 0h2m5 0h1m3 0h4m1 0h4m1 0h2m1 0h5m2 0h2m4 0h1m3 0h2m1 0h1m8 0h2m1 0h2m2 0h2M5 19.5h1m1 0h1m1 0h1m1 0h5m6 0h5m1 0h1m3 0h1m2 0h1m1 0h1m3 0h1m1 0h1m1 0h3m2 0h3m2 0h1m1 0h2m1 0h2m1 0h3m1 0h2m1 0h1m4 0h2m2 0h2m2 0h1m1 0h1m1 0h5m1 0h1m1 0h3m2 0h1m2 0h6M6 20.5h2m2 0h1m2 0h1m1 0h1m1 0h5m1 0h1m2 0h2m8 0h1m2 0h1m1 0h3m1 0h2m1 0h3m1 0h3m1 0h1m3 0h1m1 0h2m3 0h5m1 0h1m2 0h1m1 0h3m3 0h5m2 0h1m2 0h1m1 0h1m1 0h2m1 0h1m3 0h2M4 21.5h1m1 0h1m1 0h1m3 0h1m3 0h3m1 0h3m1 0h2m1 0h2m1 0h1m5 0h1m1 0h1m1 0h1m1 0h1m1 0h1m1 0h2m1 0h1m4 0h2m1 0h1m4 0h4m2 0h1m2 0h1m1 0h1m3 0h2m2 0h10m3 0h1m1 0h1m2 0h1m3 0h1m1 0h4M8 22.5h1m1 0h2m4 0h1m3 0h1m1 0h1m3 0h2m2 0h3m1 0h1m1 0h1m6 0h2m4 0h1m3 0h1m1 0h1m3 0h1m3 0h1m1 0h2m1 0h1m1 0h3m1 0h2m4 0h1m4 0h3m2 0h5m1 0h2m1 0h2m1 0h1m1 0h5M11 23.5h2m1 0h1m3 0h2m1 0h2m1 0h2m1 0h1m1 0h7m5 0h1m3 0h3m2 0h2m2 0h2m3 0h1m1 0h2m4 0h3m2 0h2m1 0h1m1 0h8m1 0h1m4 0h2m1 0h1m1 0h3m2 0h1m3 0h2M4 24.5h2m4 0h2m1 0h1m1 0h1m1 0h2m3 0h1m3 0h1m5 0h1m2 0h1m1 0h1m2 0h1m1 0h1m1 0h1m2 0h2m1 0h2m1 0h1m2 0h1m3 0h1m3 0h1m1 0h2m1 0h4m1 0h2m1 0h1m2 0h1m2 0h2m3 0h2m2 0h1m1 0h2m2 0h3m2 0h5M7 25.5h2m7 0h1m1 0h1m3 0h2m1 0h3m1 0h1m1 0h2m1 0h2m7 0h3m3 0h3m1 0h10m3 0h1m2 0h6m1 0h3m2 0h6m2 0h1m2 0h1m1 0h3m1 0h7m1 0h2M4 26.5h2m3 0h4m4 0h1m3 0h1m1 0h2m2 0h2m2 0h1m2 0h1m1 0h1m3 0h1m1 0h2m1 0h1m1 0h1m1 0h6m2 0h2m1 0h1m1 0h1m1 0h3m1 0h1m2 0h1m1 0h2m3 0h4m1 0h1m3 0h1m1 0h1m1 0h1m1 0h1m3 0h1m1 0h1m1 0h1m1 0h2m1 0h3M4 27.5h1m2 0h3m2 0h2m1 0h1m1 0h1m5 0h1m1 0h1m1 0h2m1 0h1m1 0h2m3 0h1m3 0h1m3 0h1m4 0h1m2 0h3m3 0h1m2 0h10m1 0h1m2 0h1m5 0h1m2 0h2m1 0h2m4 0h1m1 0h3m1 0h3m4 0h1M5 28.5h1m2 0h5m2 0h1m2 0h1m6 0h2m1 0h5m3 0h1m3 0h1m1 0h1m2 0h1m1 0h1m2 0h1m1 0h7m2 0h4m7 0h2m2 0h5m1 0h3m1 0h4m2 0h1m1 0h1m2 0h1m1 0h6m2 0h2M4 29.5h5m3 0h4m1 0h2m2 0h1m1 0h1m1 0h4m3 0h1m3 0h2m3 0h2m1 0h1m6 0h2m3 0h2m1 0h2m1 0h1m1 0h1m1 0h2m1 0h2m1 0h1m2 0h2m3 0h1m4 0h1m6 0h1m1 0h1m1 0h1m3 0h1m3 0h1m1 0h1m1 0h1M4 30.5h1m2 0h2m1 0h1m1 0h2m3 0h1m1 0h2m2 0h4m1 0h1m1 0h1m1 0h1m4 0h6m8 0h2m1 0h1m1 0h3m4 0h2m5 0h2m1 0h2m1 0h1m1 0h1m1 0h1m1 0h2m1 0h1m3 0h1m3 0h1m4 0h3m1 0h1m1 0h3m1 0h1M4 31.5h2m1 0h2m3 0h3m1 0h1m4 0h1m1 0h1m3 0h2m3 0h1m2 0h1m2 0h3m2 0h3m1 0h2m1 0h1m1 0h1m3 0h2m1 0h4m2 0h6m2 0h4m3 0h1m1 0h2m3 0h3m5 0h4m1 0h1m3 0h2m2 0h1M5 32.5h1m2 0h5m3 0h2m2 0h4m4 0h5m1 0h1m3 0h5m2 0h3m2 0h7m2 0h1m1 0h2m2 0h1m4 0h1m1 0h10m2 0h2m1 0h1m1 0h1m1 0h1m1 0h2m2 0h1m1 0h6m1 0h3M4 33.5h1m1 0h2m4 0h1m1 0h6m2 0h4m1 0h5m3 0h1m1 0h2m1 0h1m4 0h1m3 0h2m1 0h1m1 0h1m2 0h3m1 0h1m2 0h1m4 0h4m1 0h3m1 0h1m2 0h2m1 0h1m2 0h2m1 0h2m1 0h3m1 0h4m1 0h3m1 0h1M5 34.5h1m1 0h1m2 0h2m4 0h2m1 0h1m5 0h2m2 0h2m2 0h1m3 0h1m1 0h1m1 0h1m2 0h3m1 0h1m1 0h4m3 0h2m1 0h1m1 0h1m2 0h4m5 0h2m2 0h1m1 0h2m1 0h1m1 0h3m4 0h3m2 0h1m1 0h1m2 0h1m1 0h1m2 0h1M4 35.5h1m2 0h1m1 0h1m2 0h2m2 0h4m3 0h2m1 0h2m7 0h1m1 0h1m1 0h1m1 0h1m3 0h1m3 0h3m1 0h1m2 0h4m1 0h1m1 0h2m3 0h3m2 0h2m1 0h1m1 0h2m1 0h1m2 0h1m1 0h1m1 0h1m1 0h1m2 0h2m1 0h2m1 0h1m1 0h1m1 0h2m1 0h2M4 36.5h2m2 0h1m1 0h1m1 0h1m4 0h1m1 0h3m2 0h1m1 0h2m6 0h1m1 0h2m1 0h5m1 0h1m1 0h2m1 0h4m1 0h1m1 0h1m3 0h1m3 0h2m1 0h2m1 0h2m3 0h1m1 0h2m4 0h2m1 0h4m3 0h2m1 0h1m4 0h1m1 0h1m1 0h2M5 37.5h1m3 0h1m1 0h2m6 0h1m1 0h1m3 0h2m2 0h1m1 0h1m1 0h4m1 0h5m1 0h1m1 0h2m1 0h1m2 0h1m7 0h3m8 0h2m3 0h2m1 0h1m1 0h1m1 0h3m1 0h1m2 0h4m1 0h4m2 0h2m1 0h1m2 0h2M5 38.5h1m1 0h2m1 0h3m1 0h1m3 0h1m1 0h4m2 0h2m4 0h2m5 0h4m1 0h1m2 0h1m1 0h2m5 0h1m1 0h4m2 0h1m1 0h1m3 0h1m1 0h1m2 0h1m4 0h1m1 0h2m4 0h1m4 0h2m2 0h3m4 0h1m2 0h1M4 39.5h2m3 0h1m4 0h1m3 0h1m2 0h1m1 0h1m2 0h1m1 0h1m3 0h1m2 0h2m2 0h2m1 0h4m1 0h2m1 0h3m1 0h4m1 0h1m1 0h1m1 0h2m1 0h1m2 0h2m1 0h3m1 0h1m1 0h1m1 0h2m4 0h1m2 0h3m1 0h3m2 0h1m1 0h3m1 0h3M4 40.5h1m1 0h1m1 0h1m1 0h1m1 0h2m2 0h2m1 0h5m2 0h2m2 0h1m1 0h2m1 0h2m1 0h1m1 0h4m1 0h2m1 0h6m1 0h1m3 0h1m2 0h1m7 0h1m1 0h1m2 0h1m1 0h1m2 0h1m1 0h1m3 0h3m1 0h2m2 0h1m3 0h1m1 0h3m4 0h2M5 41.5h1m1 0h1m4 0h4m1 0h2m2 0h1m2 0h1m2 0h2m3 0h1m1 0h1m2 0h2m2 0h3m2 0h1m3 0h2m1 0h3m1 0h2m2 0h1m3 0h1m2 0h2m1 0h3m6 0h3m5 0h1m1 0h1m4 0h1m1 0h1m1 0h1m1 0h1m2 0h5M4 42.5h4m2 0h2m2 0h1m1 0h1m1 0h5m3 0h3m1 0h3m2 0h1m2 0h2m3 0h5m5 0h1m1 0h1m1 0h2m3 0h1m1 0h1m1 0h1m5 0h3m1 0h1m1 0h4m2 0h3m2 0h1m1 0h1m1 0h2m1 0h3m6 0h2m1 0h1M4 43.5h1m7 0h1m2 0h11m1 0h1m1 0h5m4 0h1m6 0h1m1 0h6m2 0h3m1 0h2m1 0h3m3 0h1m2 0h2m1 0h2m1 0h2m2 0h1m6 0h1m1 0h2m1 0h3m1 0h2m1 0h1m3 0h1m2 0h1M5 44.5h2m1 0h3m2 0h7m1 0h3m2 0h1m2 0h3m1 0h1m2 0h5m1 0h1m1 0h5m1 0h3m1 0h4m1 0h1m1 0h5m2 0h2m1 0h1m1 0h1m3 0h3m3 0h2m1 0h1m4 0h2m2 0h5m4 0h3m1 0h1M4 45.5h3m1 0h1m2 0h1m1 0h2m1 0h5m2 0h1m4 0h3m3 0h10m3 0h1m1 0h1m1 0h1m3 0h2m4 0h1m3 0h2m1 0h2m1 0h2m3 0h1m1 0h1m2 0h1m3 0h1m4 0h1m1 0h1m3 0h1m1 0h2m2 0h2m4 0h1M4 46.5h1m1 0h1m3 0h2m3 0h3m2 0h1m2 0h2m2 0h1m5 0h2m1 0h1m7 0h3m2 0h1m2 0h2m1 0h2m3 0h2m6 0h3m2 0h3m1 0h3m3 0h2m2 0h1m2 0h1m1 0h1m1 0h2m1 0h1m1 0h1m1 0h1m3 0h1M4 47.5h2m1 0h2m2 0h1m1 0h1m2 0h2m1 0h1m1 0h1m1 0h1m6 0h4m1 0h2m2 0h1m1 0h1m1 0h1m3 0h2m1 0h1m2 0h3m2 0h2m3 0h5m2 0h2m2 0h1m2 0h2m1 0h5m1 0h1m2 0h2m3 0h2m1 0h5m2 0h1m1 0h2M7 48.5h11m1 0h11m3 0h6m2 0h2m2 0h1m3 0h5m2 0h1m1 0h4m3 0h2m1 0h1m1 0h3m2 0h1m2 0h3m1 0h1m2 0h1m3 0h1m4 0h1m2 0h3m1 0h2m2 0h4M4 49.5h1m1 0h1m2 0h1m3 0h2m7 0h1m5 0h1m1 0h1m1 0h1m3 0h1m1 0h1m1 0h1m1 0h1m1 0h1m2 0h1m2 0h2m1 0h3m1 0h2m2 0h4m3 0h4m3 0h3m2 0h1m2 0h3m5 0h1m1 0h2m1 0h2m1 0h2m7 0h1M6 50.5h2m2 0h2m3 0h1m2 0h2m2 0h4m1 0h3m2 0h3m3 0h1m2 0h4m1 0h1m1 0h1m1 0h4m2 0h2m1 0h2m1 0h2m2 0h2m1 0h1m1 0h1m1 0h3m1 0h1m1 0h1m1 0h2m3 0h1m2 0h1m3 0h2m3 0h3m1 0h2m1 0h2m1 0h1M4 51.5h3m1 0h2m1 0h1m2 0h2m4 0h1m1 0h3m1 0h2m2 0h1m1 0h1m4 0h1m1 0h1m2 0h1m2 0h1m3 0h2m2 0h2m2 0h1m1 0h4m1 0h5m2 0h1m1 0h3m1 0h1m4 0h2m2 0h1m3 0h2m1 0h2m1 0h2m1 0h3m2 0h1m2 0h1M6 52.5h1m1 0h5m4 0h1m1 0h1m1 0h1m5 0h6m3 0h2m1 0h2m1 0h1m1 0h1m1 0h1m3 0h1m1 0h5m1 0h1m3 0h1m4 0h1m3 0h2m1 0h1m1 0h6m2 0h3m2 0h1m3 0h1m1 0h1m2 0h1m1 0h9M7 53.5h2m3 0h2m2 0h2m3 0h1m3 0h4m3 0h2m2 0h1m3 0h1m6 0h1m1 0h1m2 0h1m3 0h1m2 0h3m1 0h1m2 0h2m2 0h1m2 0h1m2 0h1m3 0h1m1 0h2m1 0h1m4 0h4m1 0h1m2 0h3m3 0h1m2 0h2M6 54.5h3m1 0h1m1 0h1m2 0h1m4 0h1m6 0h2m1 0h1m1 0h2m4 0h1m1 0h4m1 0h1m2 0h1m2 0h2m1 0h1m1 0h2m1 0h1m2 0h3m1 0h3m5 0h3m1 0h1m1 0h1m1 0h4m2 0h1m2 0h1m1 0h1m1 0h2m1 0h1m1 0h1m1 0h1m1 0h3m1 0h1M4 55.5h1m2 0h2m3 0h1m2 0h5m2 0h1m1 0h1m3 0h1m3 0h1m1 0h4m6 0h1m2 0h1m4 0h1m3 0h1m1 0h1m4 0h1m4 0h2m1 0h6m3 0h1m3 0h1m2 0h1m1 0h1m1 0h2m1 0h1m1 0h3m1 0h1m3 0h1m1 0h1M4 56.5h2m2 0h5m3 0h1m1 0h2m2 0h2m1 0h8m1 0h1m1 0h2m6 0h1m1 0h1m3 0h1m1 0h6m2 0h2m2 0h4m1 0h4m1 0h1m1 0h6m2 0h1m1 0h2m4 0h4m1 0h8m1 0h3M4 57.5h3m1 0h2m1 0h5m2 0h1m1 0h1m1 0h5m1 0h2m1 0h2m2 0h2m1 0h2m1 0h1m2 0h2m1 0h2m4 0h1m1 0h1m1 0h2m2 0h2m1 0h1m1 0h1m1 0h4m1 0h1m1 0h1m2 0h2m2 0h1m1 0h4m2 0h3m1 0h2m2 0h2m1 0h1m3 0h1m1 0h2M4 58.5h2m1 0h1m2 0h3m3 0h1m2 0h1m3 0h2m1 0h3m2 0h3m3 0h1m3 0h2m1 0h1m2 0h1m1 0h1m2 0h2m1 0h1m1 0h1m1 0h1m2 0h1m1 0h1m2 0h2m3 0h1m1 0h1m1 0h1m1 0h1m2 0h2m2 0h1m1 0h1m5 0h3m3 0h3m1 0h2m2 0h2M8 59.5h1m4 0h2m4 0h1m1 0h1m6 0h1m1 0h1m2 0h1m2 0h1m1 0h2m3 0h2m5 0h1m1 0h2m7 0h5m5 0h2m1 0h4m3 0h2m1 0h2m2 0h1m4 0h1m4 0h4m2 0h1M7 60.5h2m1 0h1m1 0h1m1 0h1m1 0h2m2 0h1m1 0h1m2 0h1m2 0h1m7 0h3m2 0h1m1 0h1m1 0h1m1 0h1m1 0h2m1 0h2m1 0h1m1 0h2m1 0h3m2 0h1m2 0h7m2 0h1m6 0h4m2 0h1m3 0h1m1 0h2m2 0h5m2 0h2M8 61.5h1m5 0h3m1 0h2m1 0h1m2 0h1m3 0h1m1 0h3m1 0h1m3 0h2m7 0h2m2 0h2m1 0h1m3 0h1m2 0h1m4 0h4m1 0h1m1 0h2m2 0h2m1 0h1m1 0h1m2 0h6m3 0h5m1 0h1m1 0h1M4 62.5h1m1 0h2m2 0h6m2 0h4m5 0h3m1 0h1m6 0h2m1 0h3m2 0h1m2 0h1m2 0h2m2 0h1m2 0h3m3 0h1m2 0h2m1 0h1m1 0h2m1 0h1m3 0h1m1 0h4m1 0h1m2 0h6m5 0h1m1 0h3m1 0h1M4 63.5h1m1 0h1m1 0h1m2 0h1m1 0h1m2 0h3m1 0h3m1 0h2m1 0h1m1 0h1m6 0h1m1 0h1m1 0h1m1 0h1m2 0h1m1 0h1m1 0h1m1 0h3m1 0h3m1 0h1m2 0h1m2 0h1m1 0h3m6 0h2m2 0h3m1 0h1m1 0h1m4 0h3m1 0h6m1 0h1M5 64.5h1m1 0h2m1 0h1m1 0h1m1 0h1m1 0h1m3 0h5m1 0h1m1 0h2m5 0h1m1 0h3m1 0h1m2 0h1m3 0h1m1 0h1m3 0h7m5 0h2m1 0h2m3 0h1m1 0h1m2 0h2m1 0h2m2 0h1m2 0h6m2 0h1m1 0h2m1 0h1m1 0h1m2 0h1M4 65.5h1m1 0h2m3 0h2m1 0h3m3 0h1m4 0h2m1 0h1m5 0h1m1 0h1m1 0h1m1 0h1m1 0h4m1 0h2m1 0h1m1 0h3m1 0h2m1 0h1m1 0h1m1 0h2m1 0h1m1 0h6m3 0h7m1 0h1m1 0h2m2 0h1m1 0h1m1 0h3m1 0h2m1 0h1m1 0h2M5 66.5h1m1 0h4m1 0h1m1 0h1m2 0h1m1 0h1m2 0h1m3 0h2m1 0h2m1 0h2m1 0h1m3 0h1m1 0h1m1 0h2m1 0h2m3 0h4m1 0h4m1 0h4m2 0h2m1 0h1m2 0h2m1 0h1m1 0h2m2 0h1m7 0h4m2 0h1m1 0h2m2 0h1m2 0h2m1 0h1M5 67.5h3m1 0h1m6 0h2m1 0h1m3 0h3m5 0h2m1 0h1m1 0h3m1 0h1m3 0h2m6 0h2m1 0h1m2 0h2m2 0h1m1 0h1m3 0h1m1 0h3m2 0h1m2 0h1m1 0h1m1 0h1m1 0h2m1 0h1m2 0h2m2 0h4m1 0h2m2 0h2m2 0h1M4 68.5h1m1 0h2m2 0h4m1 0h1m2 0h1m5 0h1m1 0h1m2 0h2m2 0h2m1 0h3m1 0h1m1 0h3m1 0h1m1 0h4m1 0h2m1 0h1m1 0h1m2 0h1m5 0h1m2 0h2m2 0h1m1 0h2m1 0h1m1 0h1m1 0h3m1 0h1m1 0h1m1 0h2m1 0h4m1 0h2m1 0h1m2 0h2M7 69.5h1m1 0h1m5 0h2m1 0h1m1 0h1m3 0h3m3 0h1m1 0h2m1 0h3m2 0h1m1 0h1m1 0h5m1 0h1m2 0h5m3 0h2m2 0h2m1 0h1m4 0h1m2 0h3m2 0h2m1 0h3m1 0h1m1 0h1m3 0h1m1 0h1m1 0h1m2 0h1m1 0h1m1 0h4M5 70.5h2m1 0h4m3 0h10m2 0h3m8 0h4m1 0h6m2 0h2m2 0h1m1 0h1m3 0h3m2 0h1m4 0h1m2 0h2m2 0h3m6 0h3m2 0h4m1 0h2m1 0h4M6 71.5h2m4 0h1m1 0h3m2 0h3m3 0h2m1 0h4m1 0h1m4 0h3m1 0h1m1 0h1m3 0h1m3 0h3m1 0h1m1 0h1m1 0h1m1 0h2m5 0h2m2 0h3m2 0h1m1 0h1m2 0h2m1 0h2m1 0h1m6 0h1m1 0h4m1 0h1m1 0h2M6 72.5h2m2 0h2m4 0h1m1 0h3m1 0h1m2 0h1m3 0h2m1 0h2m1 0h1m1 0h1m4 0h2m1 0h2m4 0h1m3 0h1m2 0h7m1 0h1m2 0h8m1 0h3m1 0h2m3 0h1m2 0h4m1 0h1m1 0h3m5 0h4M4 73.5h5m3 0h4m1 0h1m1 0h1m3 0h1m4 0h1m3 0h1m3 0h1m6 0h1m2 0h2m3 0h4m2 0h2m4 0h6m2 0h1m2 0h1m1 0h5m7 0h1m1 0h4m2 0h2m1 0h1m2 0h1m1 0h2M4 74.5h1m3 0h1m1 0h4m2 0h1m1 0h5m2 0h2m1 0h2m4 0h1m2 0h1m2 0h1m1 0h1m1 0h2m5 0h3m1 0h3m1 0h1m1 0h4m9 0h3m1 0h1m2 0h1m2 0h4m2 0h1m1 0h1m1 0h2m1 0h2m1 0h2m1 0h1m1 0h4M4 75.5h1m1 0h2m6 0h2m1 0h3m1 0h2m1 0h1m1 0h3m2 0h1m1 0h1m3 0h3m4 0h1m2 0h1m1 0h1m3 0h1m1 0h1m3 0h2m2 0h2m2 0h1m1 0h1m1 0h1m1 0h1m1 0h6m1 0h2m5 0h1m3 0h1m1 0h3m1 0h1m2 0h7M6 76.5h10m3 0h4m1 0h1m3 0h5m1 0h1m3 0h2m4 0h1m3 0h1m3 0h7m2 0h1m1 0h3m1 0h5m1 0h2m1 0h5m3 0h2m3 0h1m3 0h1m6 0h5m1 0h3M5 77.5h4m3 0h3m3 0h1m1 0h1m2 0h3m1 0h2m3 0h1m1 0h1m2 0h1m1 0h2m2 0h1m2 0h4m2 0h1m3 0h1m1 0h3m1 0h3m1 0h1m3 0h1m1 0h1m1 0h3m3 0h1m3 0h6m3 0h1m1 0h1m2 0h3m3 0h1m2 0h2M5 78.5h1m2 0h1m1 0h1m1 0h1m1 0h1m4 0h1m3 0h1m3 0h2m1 0h1m1 0h3m2 0h2m1 0h1m1 0h5m1 0h5m1 0h1m1 0h4m1 0h2m1 0h1m1 0h1m2 0h1m2 0h1m2 0h2m1 0h1m1 0h1m1 0h1m2 0h2m1 0h1m2 0h1m2 0h1m2 0h2m1 0h1m1 0h1m1 0h4M4 79.5h1m3 0h1m3 0h1m1 0h1m1 0h2m4 0h1m1 0h1m1 0h1m1 0h1m3 0h1m1 0h4m1 0h2m1 0h3m2 0h1m2 0h3m3 0h1m1 0h1m7 0h2m1 0h2m2 0h4m3 0h2m1 0h6m3 0h1m2 0h1m1 0h2m1 0h1m3 0h5M7 80.5h8m1 0h2m1 0h2m2 0h1m1 0h9m1 0h1m3 0h3m4 0h1m1 0h2m2 0h7m1 0h2m1 0h1m1 0h1m1 0h2m2 0h2m3 0h5m2 0h4m1 0h1m1 0h1m1 0h1m2 0h1m1 0h1m2 0h7M4 81.5h4m6 0h1m1 0h5m2 0h1m4 0h3m2 0h2m2 0h5m1 0h1m10 0h3m1 0h4m5 0h1m1 0h2m3 0h3m2 0h1m1 0h3m3 0h3m1 0h1m1 0h1m2 0h1m1 0h1m1 0h1m1 0h1m1 0h1m2 0h2M4 82.5h1m2 0h1m2 0h1m1 0h1m2 0h1m5 0h1m1 0h1m2 0h3m1 0h1m1 0h1m3 0h1m3 0h1m1 0h3m2 0h1m3 0h1m2 0h3m1 0h4m1 0h1m1 0h4m1 0h3m3 0h2m1 0h1m5 0h1m1 0h2m2 0h4m1 0h1m1 0h1m4 0h2m2 0h2M4 83.5h2m1 0h1m1 0h1m1 0h1m7 0h4m1 0h3m2 0h2m8 0h2m3 0h1m1 0h1m1 0h1m1 0h3m2 0h3m1 0h1m2 0h1m1 0h3m5 0h1m1 0h2m1 0h2m1 0h1m3 0h6m2 0h1m3 0h3m6 0h2m1 0h1M5 84.5h2m1 0h3m1 0h2m2 0h1m2 0h3m1 0h1m6 0h1m1 0h1m1 0h1m4 0h1m2 0h1m3 0h4m2 0h11m2 0h1m1 0h3m2 0h1m1 0h1m2 0h1m2 0h1m2 0h1m2 0h1m1 0h1m3 0h1m5 0h1m5 0h2m1 0h2M8 85.5h1m2 0h1m2 0h3m3 0h2m1 0h3m1 0h5m3 0h2m3 0h2m2 0h3m1 0h1m1 0h1m2 0h6m3 0h1m1 0h1m1 0h1m4 0h1m2 0h4m3 0h5m1 0h5m2 0h3m2 0h2m3 0h1m1 0h3M10 86.5h2m1 0h1m2 0h7m2 0h1m2 0h4m2 0h1m1 0h1m1 0h2m2 0h4m5 0h1m5 0h2m1 0h1m5 0h3m1 0h4m2 0h1m1 0h4m3 0h2m4 0h1m1 0h3m2 0h2m4 0h1m2 0h1M7 87.5h2m3 0h3m1 0h1m1 0h2m2 0h4m5 0h3m1 0h1m2 0h1m1 0h3m1 0h1m2 0h5m1 0h2m1 0h1m1 0h1m1 0h1m1 0h2m1 0h5m1 0h1m1 0h1m8 0h3m2 0h1m1 0h3m2 0h2m1 0h2m2 0h4m1 0h1M7 88.5h2m1 0h1m2 0h2m1 0h1m1 0h3m3 0h3m1 0h1m1 0h1m1 0h4m1 0h2m2 0h1m3 0h2m4 0h3m1 0h1m1 0h1m1 0h1m1 0h1m1 0h2m1 0h1m1 0h4m3 0h2m1 0h1m3 0h1m1 0h3m6 0h2m3 0h1m3 0h2m1 0h2M5 89.5h3m5 0h1m1 0h1m2 0h2m3 0h1m1 0h6m1 0h1m3 0h2m1 0h1m1 0h1m1 0h1m1 0h1m1 0h2m1 0h1m1 0h1m2 0h3m1 0h2m3 0h4m2 0h2m4 0h6m1 0h1m1 0h3m2 0h1m1 0h3m1 0h1m2 0h2m6 0h1M5 90.5h6m3 0h2m1 0h3m1 0h2m1 0h4m1 0h1m2 0h2m1 0h1m3 0h1m6 0h1m1 0h1m3 0h1m2 0h3m1 0h1m6 0h1m1 0h2m4 0h2m1 0h1m2 0h3m3 0h2m1 0h1m1 0h1m1 0h4m2 0h1m4 0h1M5 91.5h4m3 0h1m6 0h2m1 0h1m1 0h8m3 0h1m1 0h1m1 0h1m1 0h2m2 0h2m1 0h1m4 0h1m1 0h4m2 0h1m3 0h4m2 0h1m2 0h1m4 0h1m1 0h2m1 0h1m1 0h1m3 0h1m1 0h1m6 0h1m1 0h2m1 0h1m1 0h3M5 92.5h6m7 0h1m3 0h1m2 0h1m1 0h1m1 0h3m3 0h1m1 0h1m1 0h5m1 0h1m4 0h1m1 0h2m4 0h1m1 0h1m1 0h1m5 0h1m1 0h3m3 0h3m1 0h1m1 0h1m3 0h1m2 0h2m3 0h3m1 0h2m2 0h3m1 0h1m1 0h1M4 93.5h1m1 0h1m2 0h1m1 0h1m2 0h2m5 0h3m6 0h3m1 0h2m3 0h2m1 0h1m2 0h1m2 0h1m3 0h1m1 0h1m3 0h5m2 0h1m2 0h2m6 0h3m2 0h1m1 0h2m2 0h5m1 0h1m1 0h4m1 0h2m2 0h2m1 0h1M9 94.5h2m2 0h1m2 0h1m1 0h1m3 0h1m3 0h2m3 0h2m2 0h1m1 0h1m2 0h1m2 0h2m2 0h1m7 0h2m1 0h2m1 0h2m2 0h2m1 0h1m1 0h3m4 0h1m1 0h1m1 0h1m1 0h1m1 0h1m1 0h1m2 0h2m1 0h3m1 0h1m3 0h1m4 0h1M4 95.5h2m1 0h3m4 0h1m2 0h1m1 0h2m3 0h1m4 0h2m1 0h1m3 0h2m2 0h2m5 0h5m8 0h2m1 0h1m3 0h2m3 0h4m1 0h1m2 0h1m1 0h2m1 0h1m2 0h1m4 0h1m4 0h2m3 0h5M4 96.5h2m1 0h5m1 0h3m1 0h1m2 0h1m6 0h1m3 0h2m4 0h5m2 0h4m1 0h1m2 0h1m1 0h5m3 0h1m1 0h1m2 0h1m2 0h1m1 0h1m1 0h2m1 0h1m1 0h2m1 0h6m1 0h1m3 0h1m4 0h1m3 0h1m2 0h4M4 97.5h3m1 0h1m2 0h1m2 0h1m4 0h2m2 0h5m1 0h1m3 0h1m1 0h4m2 0h5m3 0h9m1 0h3m1 0h1m5 0h1m2 0h2m1 0h3m2 0h1m1 0h2m1 0h2m6 0h2m1 0h2m3 0h1m4 0h1M4 98.5h3m3 0h2m1 0h1m5 0h1m4 0h3m12 0h3m5 0h1m1 0h2m4 0h3m1 0h5m1 0h1m1 0h1m3 0h1m1 0h1m1 0h2m1 0h1m1 0h8m1 0h2m3 0h2m1 0h1m1 0h1m2 0h1m1 0h1m1 0h3M6 99.5h1m1 0h2m2 0h1m5 0h3m1 0h1m3 0h1m1 0h4m1 0h1m1 0h1m2 0h1m1 0h1m3 0h1m2 0h1m1 0h1m3 0h1m5 0h1m1 0h1m7 0h2m6 0h1m2 0h1m2 0h2m2 0h1m1 0h1m5 0h1m1 0h1m2 0h1m1 0h2m1 0h1m1 0h1M7 100.5h2m1 0h1m1 0h2m1 0h1m1 0h1m2 0h1m1 0h1m1 0h10m2 0h1m2 0h2m1 0h6m1 0h8m1 0h7m3 0h1m4 0h1m1 0h12m1 0h3m1 0h1m1 0h4m1 0h7m2 0h1M12 101.5h3m1 0h1m1 0h1m3 0h1m3 0h1m1 0h1m3 0h2m1 0h3m4 0h1m1 0h2m1 0h1m2 0h1m1 0h1m3 0h1m1 0h1m1 0h1m1 0h4m1 0h1m1 0h1m1 0h3m2 0h1m3 0h2m1 0h3m3 0h2m1 0h2m1 0h1m1 0h4m3 0h5M4 102.5h7m2 0h2m2 0h7m2 0h1m1 0h1m1 0h1m1 0h2m1 0h1m1 0h3m1 0h1m2 0h1m1 0h1m3 0h1m1 0h1m1 0h1m1 0h3m4 0h3m1 0h1m2 0h2m2 0h1m1 0h1m1 0h1m1 0h4m1 0h1m2 0h1m3 0h5m1 0h1m1 0h1m1 0h1m1 0h5M4 103.5h1m5 0h1m1 0h2m2 0h2m2 0h5m3 0h1m3 0h2m1 0h1m2 0h1m1 0h1m1 0h8m2 0h1m3 0h1m2 0h1m1 0h4m1 0h1m1 0h2m4 0h1m1 0h1m3 0h4m1 0h1m1 0h1m4 0h1m3 0h1m1 0h1m1 0h1m3 0h4M4 104.5h1m1 0h3m1 0h1m1 0h1m2 0h3m1 0h1m1 0h1m3 0h1m2 0h5m1 0h1m1 0h2m3 0h1m5 0h1m2 0h1m1 0h7m1 0h1m1 0h2m1 0h1m1 0h1m1 0h2m1 0h1m3 0h7m2 0h2m3 0h2m4 0h2m1 0h9M4 105.5h1m1 0h3m1 0h1m2 0h4m1 0h1m1 0h3m1 0h2m8 0h2m1 0h1m1 0h1m2 0h2m1 0h1m6 0h3m3 0h1m1 0h1m1 0h3m1 0h1m2 0h4m1 0h4m3 0h3m3 0h1m1 0h7m4 0h2m2 0h5M4 106.5h1m1 0h3m1 0h1m3 0h5m2 0h1m1 0h1m4 0h3m1 0h1m2 0h2m1 0h2m2 0h1m4 0h2m4 0h5m1 0h1m2 0h1m2 0h4m1 0h1m2 0h2m1 0h1m3 0h5m2 0h1m1 0h1m2 0h1m1 0h1m2 0h2m2 0h1m1 0h3M4 107.5h1m5 0h1m1 0h2m9 0h7m1 0h2m3 0h5m1 0h2m1 0h1m4 0h1m1 0h1m1 0h1m4 0h2m1 0h11m1 0h1m3 0h1m2 0h2m1 0h2m1 0h1m1 0h1m2 0h3m3 0h1m6 0h2M4 108.5h7m1 0h1m1 0h5m2 0h1m3 0h7m2 0h6m1 0h2m3 0h4m6 0h2m1 0h3m1 0h1m1 0h2m1 0h4m1 0h1m2 0h1m1 0h1m3 0h1m1 0h1m1 0h2m1 0h1m6 0h1m1 0h1m5 0h3m1 0h1"/></svg>
