<svg xmlns="http://www.w3.org/2000/svg" viewBox="0 0 93 93" shape-rendering="crispEdges"><path fill="#ffffff" d="M0 0h93v93H0z"/><path stroke="#000000" d="M4 4.5h7m2 0h1m1 0h2m2 0h1m3 0h1m1 0h1m3 0h1m1 0h7m4 0h5m1 0h3m4 0h1m1 0h1m1 0h1m1 0h1m2 0h1m1 0h2m1 0h1m1 0h2m2 0h1m1 0h2m1 0h1m1 0h7M4 5.5h1m5 0h1m1 0h1m1 0h1m1 0h6m1 0h2m4 0h2m1 0h3m3 0h3m2 0h2m2 0h3m2 0h3m2 0h1m3 0h2m1 0h2m2 0h2m1 0h1m1 0h4m1 0h2m2 0h1m5 0h1M4 6.5h1m1 0h3m1 0h1m3 0h2m1 0h1m1 0h1m1 0h1m1 0h1m1 0h1m3 0h4m1 0h1m2 0h1m1 0h5m1 0h1m1 0h1m3 0h1m8 0h2m2 0h2m1 0h1m4 0h3m3 0h1m3 0h1m1 0h3m1 0h1M4 7.5h1m1 0h3m1 0h1m1 0h2m3 0h2m1 0h6m1 0h2m2 0h3m1 0h3m1 0h1m1 0h1m3 0h2m2 0h2m4 0h2m6 0h3m1 0h1m1 0h1m1 0h2m1 0h4m1 0h1m2 0h1m1 0h3m1 0h1M4 8.5h1m1 0h3m1 0h1m3 0h2m3 0h2m3 0h2m2 0h9m1 0h4m1 0h1m1 0h2m1 0h1m1 0h1m1 0h1m1 0h1m1 0h10m2 0h1m1 0h1m1 0h5m1 0h1m3 0h1m1 0h3m1 0h1M4 9.5h1m5 0h1m1 0h1m2 0h2m1 0h4m1 0h6m3 0h1m3 0h1m1 0h4m1 0h3m3 0h3m1 0h4m3 0h1m2 0h3m1 0h1m2 0h1m1 0h1m1 0h1m2 0h1m1 0h1m2 0h1m5 0h1M4 10.5h7m1 0h1m1 0h1m1 0h1m1 0h1m1 0h1m1 0h1m1 0h1m1 0h1m1 0h1m1 0h1m1 0h1m1 0h1m1 0h1m1 0h1m1 0h1m1 0h1m1 0h1m1 0h1m1 0h1m1 0h1m1 0h1m1 0h1m1 0h1m1 0h1m1 0h1m1 0h1m1 0h1m1 0h1m1 0h1m1 0h1m1 0h1m1 0h1m1 0h1m1 0h1m1 0h1m1 0h7M13 11.5h5m2 0h6m1 0h1m2 0h1m1 0h1m3 0h1m4 0h1m2 0h5m3 0h1m3 0h1m3 0h1m1 0h2m1 0h2m1 0h2m5 0h2m1 0h1M4 12.5h5m1 0h3m4 0h5m1 0h1m2 0h3m2 0h8m1 0h1m1 0h2m1 0h2m1 0h2m2 0h1m3 0h5m2 0h2m1 0h2m1 0h3m2 0h1m3 0h1m1 0h2m1 0h1m1 0h1m1 0h1M6 13.5h1m1 0h2m1 0h2m1 0h2m1 0h1m1 0h1m2 0h2m3 0h4m1 0h1m1 0h2m4 0h3m1 0h4m3 0h2m1 0h1m1 0h3m2 0h2m3 0h2m1 0h2m2 0h2m1 0h2m1 0h1m1 0h3m2 0h1M4 14.5h1m1 0h2m2 0h4m2 0h3m3 0h1m1 0h3m1 0h2m1 0h1m2 0h2m1 0h3m3 0h1m4 0h1m2 0h1m2 0h1m1 0h1m2 0h2m5 0h3m1 0h1m7 0h1m4 0h1m3 0h2M4 15.5h1m1 0h3m2 0h3m1 0h7m1 0h1m1 0h2m2 0h1m1 0h2m3 0h1m3 0h2m2 0h1m2 0h1m1 0h2m1 0h1m1 0h3m1 0h1m2 0h1m1 0h2m2 0h1m2 0h1m1 0h1m1 0h4m2 0h1m1 0h2m1 0h1m1 0h1M5 16.5h1m1 0h1m2 0h1m1 0h1m1 0h2m2 0h1m3 0h1m1 0h2m1 0h2m1 0h1m2 0h3m2 0h1m1 0h1m1 0h2m1 0h2m4 0h1m1 0h1m1 0h3m2 0h3m3 0h1m1 0h1m1 0h1m1 0h2m1 0h1m1 0h1m7 0h1m2 0h1M5 17.5h3m1 0h1m1 0h1m1 0h1m1 0h2m4 0h1m1 0h2m1 0h2m2 0h1m3 0h1m2 0h3m1 0h1m2 0h3m1 0h1m1 0h1m2 0h2m2 0h2m1 0h1m1 0h4m1 0h1m3 0h1m1 0h2m1 0h1m2 0h2m2 0h3m1 0h1M5 18.5h2m3 0h2m2 0h1m3 0h8m1 0h1m1 0h3m4 0h1m1 0h1m2 0h2m1 0h1m1 0h1m1 0h1m1 0h2m2 0h2m4 0h1m5 0h1m1 0h2m2 0h1m1 0h1m2 0h2m5 0h1M6 19.5h2m1 0h1m4 0h2m3 0h2m3 0h3m1 0h2m1 0h8m1 0h3m4 0h1m1 0h3m3 0h1m1 0h1m4 0h6m1 0h2m3 0h2m2 0h3m1 0h2m1 0h4M5 20.5h1m2 0h3m2 0h2m1 0h1m2 0h2m1 0h3m1 0h1m14 0h2m1 0h2m4 0h2m2 0h5m1 0h1m3 0h4m2 0h1m1 0h1m1 0h3m1 0h1m2 0h2m1 0h5M4 21.5h2m8 0h4m3 0h1m1 0h1m1 0h2m1 0h1m2 0h1m1 0h1m1 0h4m5 0h1m1 0h3m2 0h2m2 0h3m2 0h2m4 0h7m2 0h3m6 0h1m1 0h1m1 0h1M5 22.5h1m1 0h2m1 0h1m1 0h1m2 0h2m6 0h1m4 0h1m3 0h3m1 0h1m4 0h1m1 0h2m2 0h2m1 0h1m2 0h1m3 0h1m5 0h1m3 0h2m2 0h2m2 0h7m2 0h2m1 0h1M4 23.5h6m1 0h1m1 0h2m1 0h2m1 0h1m2 0h1m2 0h1m1 0h2m2 0h2m1 0h1m1 0h1m1 0h1m1 0h1m1 0h1m1 0h2m2 0h2m1 0h2m2 0h6m1 0h1m2 0h1m3 0h4m1 0h2m3 0h1m1 0h2m2 0h1m2 0h1M4 24.5h1m3 0h1m1 0h3m2 0h4m1 0h2m3 0h1m3 0h2m2 0h3m1 0h3m5 0h4m3 0h5m2 0h1m5 0h1m2 0h1m3 0h2m1 0h1m1 0h1m1 0h1m1 0h4m2 0h1M4 25.5h1m3 0h1m5 0h1m1 0h1m2 0h1m1 0h1m1 0h1m1 0h2m4 0h6m3 0h1m1 0h1m2 0h2m7 0h2m1 0h1m3 0h1m4 0h1m1 0h1m1 0h1m2 0h2m1 0h3m2 0h1m2 0h3M4 26.5h1m5 0h1m3 0h1m2 0h3m2 0h2m3 0h3m2 0h1m1 0h1m2 0h2m1 0h2m3 0h3m6 0h2m1 0h1m1 0h1m1 0h1m1 0h1m3 0h2m3 0h1m1 0h2m6 0h2m2 0h3M5 27.5h2m1 0h2m1 0h2m1 0h3m3 0h2m2 0h4m1 0h1m4 0h5m3 0h2m3 0h1m1 0h1m3 0h1m1 0h3m3 0h1m1 0h1m2 0h1m1 0h1m2 0h1m3 0h3m3 0h1m1 0h6M10 28.5h1m1 0h2m2 0h2m3 0h3m1 0h2m4 0h1m1 0h3m2 0h1m1 0h1m1 0h2m1 0h3m1 0h1m1 0h1m1 0h1m3 0h1m2 0h1m1 0h6m4 0h1m2 0h2m2 0h1m3 0h1m3 0h1M4 29.5h1m1 0h2m3 0h8m1 0h1m2 0h1m1 0h2m3 0h3m2 0h1m4 0h1m3 0h1m2 0h4m3 0h1m2 0h2m4 0h3m3 0h1m1 0h3m2 0h2m1 0h2m2 0h1m1 0h3M9 30.5h2m1 0h1m2 0h8m1 0h2m2 0h5m1 0h2m1 0h1m2 0h2m1 0h1m1 0h1m2 0h1m1 0h1m2 0h1m5 0h1m1 0h1m1 0h1m2 0h2m1 0h2m3 0h1m1 0h3m4 0h4M4 31.5h1m2 0h2m9 0h1m1 0h1m1 0h1m2 0h2m2 0h3m4 0h3m1 0h1m2 0h4m1 0h5m1 0h1m3 0h2m2 0h2m3 0h5m4 0h1m1 0h1m1 0h1m1 0h3M6 32.5h1m1 0h6m1 0h1m1 0h1m2 0h3m2 0h4m2 0h7m2 0h2m6 0h2m4 0h9m3 0h3m1 0h1m2 0h1m1 0h1m2 0h9M4 33.5h1m1 0h3m3 0h2m2 0h2m7 0h1m3 0h1m2 0h1m3 0h2m1 0h1m8 0h3m1 0h5m3 0h1m4 0h1m1 0h3m2 0h1m1 0h1m5 0h1m3 0h3M5 34.5h1m2 0h1m1 0h1m1 0h1m1 0h2m1 0h1m6 0h2m2 0h2m1 0h2m1 0h1m1 0h2m2 0h1m2 0h2m2 0h1m4 0h1m2 0h2m1 0h1m1 0h2m1 0h1m5 0h2m1 0h2m1 0h2m1 0h1m1 0h1m1 0h1m1 0h2M5 35.5h1m1 0h2m3 0h1m1 0h1m1 0h4m1 0h3m1 0h1m2 0h3m1 0h1m3 0h1m1 0h2m1 0h1m1 0h2m2 0h4m1 0h5m3 0h2m2 0h4m1 0h1m1 0h2m1 0h2m1 0h1m1 0h2m3 0h1M5 36.5h2m1 0h8m4 0h1m1 0h2m2 0h1m2 0h2m1 0h7m2 0h5m4 0h1m4 0h6m3 0h1m3 0h1m1 0h4m6 0h9M5 37.5h3m3 0h4m1 0h1m6 0h1m1 0h2m1 0h1m2 0h2m5 0h3m1 0h2m2 0h5m1 0h3m2 0h2m3 0h1m1 0h1m4 0h1m1 0h2m1 0h1m2 0h2m3 0h2m2 0h2M4 38.5h1m2 0h1m2 0h2m5 0h1m3 0h1m5 0h2m5 0h5m1 0h1m2 0h1m3 0h3m1 0h1m1 0h1m1 0h5m12 0h2m2 0h3m2 0h1m1 0h1m3 0h2M8 39.5h2m3 0h1m1 0h1m3 0h2m1 0h1m2 0h2m1 0h3m2 0h3m2 0h1m1 0h1m1 0h2m3 0h2m3 0h2m1 0h1m1 0h1m3 0h2m1 0h1m2 0h1m2 0h2m4 0h3m1 0h1m1 0h1m4 0h2M4 40.5h1m5 0h1m3 0h2m2 0h2m1 0h1m2 0h1m4 0h1m1 0h1m5 0h1m1 0h2m1 0h1m2 0h12m3 0h1m3 0h1m1 0h1m3 0h1m1 0h1m3 0h1m4 0h2m1 0h2m1 0h2M8 41.5h1m2 0h1m2 0h2m2 0h3m1 0h7m1 0h1m1 0h2m3 0h7m1 0h2m1 0h1m1 0h1m1 0h4m2 0h1m2 0h1m3 0h2m2 0h1m3 0h6m6 0h3M4 42.5h1m1 0h1m3 0h3m2 0h2m3 0h1m1 0h1m2 0h1m1 0h3m2 0h1m2 0h1m1 0h3m3 0h1m2 0h2m2 0h1m2 0h1m1 0h1m2 0h4m3 0h1m4 0h1m2 0h1m1 0h4m1 0h5m2 0h1M4 43.5h1m4 0h1m2 0h3m2 0h1m1 0h1m1 0h2m4 0h1m3 0h1m1 0h2m2 0h2m1 0h8m1 0h1m5 0h1m1 0h1m3 0h2m3 0h1m6 0h1m1 0h3m2 0h1m1 0h3M4 44.5h9m2 0h1m1 0h2m2 0h1m8 0h1m3 0h3m2 0h5m1 0h3m1 0h1m3 0h1m1 0h2m1 0h6m2 0h2m1 0h3m1 0h2m2 0h3m3 0h3m2 0h1M4 45.5h1m2 0h1m6 0h1m1 0h5m2 0h1m4 0h1m1 0h2m1 0h3m3 0h3m1 0h2m2 0h1m1 0h3m3 0h1m1 0h1m3 0h1m2 0h1m2 0h1m1 0h2m3 0h1m3 0h1m1 0h2m2 0h1m2 0h1M4 46.5h1m5 0h1m1 0h1m1 0h3m1 0h2m2 0h1m3 0h2m7 0h1m2 0h2m1 0h2m2 0h2m1 0h2m3 0h4m1 0h5m3 0h3m3 0h1m1 0h1m5 0h3m1 0h1m2 0h2M4 47.5h2m2 0h2m1 0h2m3 0h2m1 0h1m1 0h1m1 0h1m1 0h2m2 0h1m6 0h1m1 0h1m12 0h2m1 0h4m6 0h2m2 0h1m1 0h3m1 0h3m1 0h1m2 0h1m1 0h1m1 0h1M4 48.5h1m4 0h2m1 0h1m1 0h1m1 0h1m1 0h1m4 0h9m1 0h3m1 0h2m2 0h5m2 0h3m1 0h1m3 0h5m2 0h2m2 0h1m1 0h1m1 0h5m1 0h1m1 0h2m2 0h4M4 49.5h1m1 0h1m1 0h1m2 0h1m6 0h1m1 0h3m1 0h2m5 0h2m2 0h3m1 0h6m1 0h2m1 0h4m2 0h4m1 0h2m1 0h2m1 0h1m2 0h2m2 0h1m2 0h1m2 0h1m7 0h2M4 50.5h2m1 0h1m2 0h1m1 0h2m2 0h2m5 0h1m3 0h4m1 0h1m2 0h1m1 0h1m2 0h1m3 0h1m1 0h1m1 0h2m2 0h1m2 0h1m5 0h2m2 0h2m1 0h1m1 0h3m1 0h1m1 0h2m4 0h4m1 0h2M4 51.5h1m2 0h1m4 0h1m4 0h3m1 0h2m1 0h2m1 0h1m1 0h4m1 0h1m1 0h2m2 0h1m5 0h3m1 0h3m2 0h2m2 0h1m3 0h2m3 0h1m1 0h1m1 0h1m1 0h2m3 0h2m1 0h4M6 52.5h1m3 0h1m1 0h3m2 0h1m2 0h1m1 0h3m1 0h1m2 0h1m2 0h1m1 0h1m2 0h4m1 0h1m2 0h1m2 0h1m5 0h1m2 0h2m1 0h2m1 0h1m2 0h1m3 0h1m1 0h4m1 0h2m2 0h1m2 0h3m1 0h1M4 53.5h4m1 0h1m1 0h2m3 0h2m4 0h2m2 0h2m1 0h3m1 0h1m4 0h1m3 0h2m1 0h3m1 0h1m1 0h1m1 0h1m4 0h1m1 0h3m1 0h1m3 0h1m1 0h1m1 0h5m1 0h1m4 0h1m1 0h2m1 0h1M6 54.5h3m1 0h1m3 0h2m1 0h2m2 0h1m1 0h2m1 0h1m1 0h2m3 0h1m3 0h1m1 0h3m1 0h2m1 0h1m2 0h2m2 0h3m2 0h3m1 0h2m3 0h1m2 0h1m1 0h1m1 0h1m5 0h1m3 0h1m1 0h2M4 55.5h1m3 0h1m4 0h1m1 0h2m2 0h3m1 0h1m2 0h2m2 0h1m6 0h5m3 0h1m1 0h1m2 0h2m2 0h1m2 0h1m1 0h1m2 0h1m1 0h7m2 0h1m7 0h2m1 0h1M7 56.5h6m1 0h1m4 0h2m1 0h1m1 0h1m1 0h2m2 0h1m1 0h5m3 0h2m1 0h2m1 0h2m1 0h1m1 0h2m2 0h7m1 0h1m1 0h1m1 0h1m2 0h5m1 0h2m1 0h6m2 0h1M5 57.5h1m2 0h1m3 0h2m1 0h9m4 0h2m1 0h2m3 0h1m2 0h1m1 0h4m2 0h1m1 0h1m3 0h2m1 0h1m3 0h2m1 0h1m3 0h1m2 0h2m8 0h1m3 0h2M4 58.5h1m1 0h3m1 0h1m1 0h1m4 0h1m4 0h2m3 0h4m1 0h1m1 0h1m1 0h1m2 0h1m2 0h1m1 0h2m1 0h1m4 0h2m2 0h1m1 0h1m1 0h1m3 0h2m2 0h1m1 0h4m1 0h2m2 0h2m1 0h1m1 0h1m1 0h1m1 0h1M6 59.5h1m1 0h1m3 0h1m1 0h2m4 0h1m1 0h2m1 0h1m1 0h1m1 0h4m3 0h2m2 0h1m3 0h1m2 0h3m1 0h1m1 0h2m1 0h1m3 0h4m3 0h2m4 0h1m2 0h5m3 0h2m2 0h1M5 60.5h2m1 0h6m2 0h1m3 0h1m2 0h1m1 0h1m2 0h9m3 0h3m1 0h1m1 0h1m2 0h3m3 0h6m4 0h4m1 0h1m2 0h1m1 0h3m1 0h6m1 0h2M4 61.5h2m2 0h2m2 0h3m1 0h1m1 0h1m1 0h1m1 0h2m1 0h2m1 0h1m4 0h1m4 0h2m1 0h4m2 0h1m1 0h5m1 0h5m1 0h2m1 0h3m1 0h4m4 0h1m1 0h2m4 0h3m1 0h1M4 62.5h1m1 0h3m1 0h4m1 0h3m1 0h3m1 0h1m2 0h1m3 0h2m1 0h1m4 0h1m2 0h1m1 0h4m4 0h2m1 0h1m1 0h3m3 0h4m2 0h1m1 0h2m3 0h1m2 0h1m1 0h2m2 0h1m1 0h1m1 0h1M6 63.5h2m4 0h2m2 0h5m2 0h2m1 0h1m1 0h1m2 0h2m1 0h2m1 0h2m1 0h4m1 0h1m1 0h1m1 0h2m1 0h2m1 0h1m4 0h2m1 0h1m1 0h1m7 0h1m4 0h1m3 0h1m1 0h1m1 0h1m1 0h1M9 64.5h3m6 0h3m2 0h3m1 0h4m2 0h4m8 0h2m1 0h1m6 0h2m4 0h5m2 0h1m4 0h2m5 0h1m1 0h2m2 0h1m1 0h1M4 65.5h1m1 0h2m1 0h1m4 0h1m2 0h1m4 0h2m2 0h2m4 0h3m2 0h1m5 0h3m2 0h4m2 0h5m2 0h3m1 0h4m2 0h1m3 0h5m2 0h1m3 0h1m1 0h1M4 66.5h1m2 0h2m1 0h2m2 0h1m5 0h1m1 0h1m1 0h2m1 0h1m1 0h1m1 0h1m1 0h1m2 0h1m2 0h2m1 0h1m1 0h2m4 0h1m1 0h1m3 0h1m2 0h1m2 0h2m2 0h1m1 0h1m1 0h2m3 0h5m2 0h5M4 67.5h2m1 0h3m2 0h2m1 0h1m2 0h2m2 0h3m1 0h2m3 0h1m1 0h1m4 0h1m1 0h1m6 0h4m1 0h1m1 0h2m1 0h1m2 0h3m1 0h1m5 0h3m1 0h2m2 0h1m1 0h1m1 0h3m2 0h2M4 68.5h1m1 0h1m1 0h3m5 0h1m2 0h2m9 0h6m1 0h1m1 0h1m2 0h1m2 0h1m5 0h1m3 0h1m1 0h6m1 0h1m4 0h2m1 0h2m1 0h1m2 0h1m1 0h1m1 0h1m1 0h1m1 0h2M4 69.5h1m4 0h1m1 0h1m1 0h1m2 0h2m2 0h1m2 0h1m1 0h2m1 0h2m1 0h2m1 0h1m1 0h5m1 0h2m2 0h1m5 0h3m1 0h1m4 0h1m2 0h6m3 0h5m2 0h1m1 0h1m2 0h3M4 70.5h1m1 0h8m1 0h1m1 0h1m3 0h1m1 0h1m4 0h1m2 0h2m4 0h1m2 0h1m2 0h4m7 0h1m3 0h2m1 0h1m2 0h2m1 0h1m1 0h2m2 0h1m2 0h1m2 0h3m3 0h1m1 0h1M7 71.5h1m5 0h3m4 0h1m2 0h1m2 0h3m1 0h2m4 0h4m1 0h1m1 0h2m1 0h2m1 0h1m1 0h2m3 0h3m1 0h9m1 0h2m2 0h6m1 0h1m1 0h3M4 72.5h3m1 0h1m1 0h4m1 0h4m1 0h3m6 0h2m1 0h1m5 0h3m9 0h1m1 0h4m1 0h3m2 0h4m2 0h1m1 0h1m4 0h2m2 0h2m2 0h1m3 0h2M5 73.5h2m1 0h1m4 0h1m1 0h2m1 0h2m1 0h1m1 0h1m3 0h1m1 0h1m1 0h1m2 0h1m2 0h2m2 0h3m1 0h3m1 0h5m1 0h2m2 0h1m1 0h1m4 0h4m3 0h1m2 0h1m1 0h1m3 0h3m3 0h1M4 74.5h9m2 0h3m1 0h1m1 0h1m1 0h5m4 0h2m1 0h1m1 0h2m3 0h1m2 0h2m1 0h2m3 0h4m1 0h1m4 0h1m1 0h3m4 0h3m1 0h4m1 0h4m2 0h2M4 75.5h4m3 0h3m2 0h2m1 0h1m4 0h2m2 0h1m1 0h1m6 0h3m1 0h1m2 0h1m2 0h1m2 0h4m1 0h3m4 0h1m1 0h2m1 0h3m1 0h1m4 0h2m1 0h3m1 0h1m2 0h2M4 76.5h1m1 0h1m1 0h4m1 0h1m7 0h2m2 0h1m4 0h1m1 0h2m2 0h1m4 0h1m1 0h1m1 0h1m2 0h1m1 0h1m3 0h4m1 0h1m3 0h1m1 0h1m1 0h2m1 0h2m1 0h1m1 0h1m5 0h4m1 0h2M4 77.5h1m1 0h1m2 0h1m1 0h1m2 0h1m1 0h1m1 0h1m3 0h1m1 0h2m1 0h1m2 0h1m1 0h7m1 0h1m3 0h2m2 0h6m1 0h1m1 0h5m1 0h1m4 0h4m1 0h4m2 0h4m2 0h2m1 0h1M4 78.5h3m1 0h1m1 0h3m6 0h1m3 0h4m2 0h1m6 0h1m2 0h2m2 0h1m2 0h2m1 0h1m1 0h3m4 0h3m1 0h3m1 0h7m2 0h1m2 0h2m1 0h1m1 0h1m2 0h2M5 79.5h1m1 0h1m1 0h1m4 0h1m3 0h3m1 0h1m1 0h1m1 0h4m2 0h2m1 0h1m1 0h1m1 0h3m2 0h1m2 0h1m3 0h1m1 0h1m4 0h1m1 0h3m2 0h2m1 0h6m2 0h2m4 0h2m1 0h1m1 0h2M4 80.5h1m5 0h1m3 0h1m2 0h2m2 0h1m5 0h1m1 0h8m2 0h2m3 0h1m1 0h1m1 0h1m1 0h1m1 0h1m1 0h1m1 0h5m3 0h2m2 0h1m2 0h2m1 0h2m4 0h5m1 0h2M12 81.5h1m2 0h1m2 0h2m1 0h5m2 0h3m1 0h1m3 0h1m3 0h1m1 0h2m3 0h1m3 0h4m1 0h1m3 0h4m6 0h1m4 0h2m3 0h1m3 0h3M4 82.5h7m1 0h1m4 0h2m2 0h2m2 0h2m1 0h1m1 0h1m1 0h1m1 0h1m1 0h4m1 0h1m1 0h1m2 0h1m1 0h2m2 0h3m1 0h1m1 0h1m1 0h2m2 0h4m3 0h1m3 0h1m1 0h1m2 0h1m1 0h1m1 0h3m1 0h1M4 83.5h1m5 0h1m2 0h1m1 0h1m1 0h2m2 0h3m2 0h1m1 0h2m1 0h2m3 0h2m1 0h1m1 0h2m1 0h2m2 0h7m1 0h1m3 0h5m1 0h2m3 0h2m2 0h6m3 0h2M4 84.5h1m1 0h3m1 0h1m1 0h1m3 0h1m1 0h2m1 0h6m5 0h6m1 0h1m3 0h1m4 0h1m2 0h2m2 0h6m1 0h1m1 0h1m2 0h1m2 0h1m2 0h1m1 0h1m1 0h2m1 0h9M4 85.5h1m1 0h3m1 0h1m1 0h3m5 0h3m1 0h2m9 0h2m1 0h1m1 0h2m4 0h3m1 0h1m2 0h2m1 0h2m2 0h2m1 0h2m1 0h1m1 0h3m1 0h1m1 0h1m4 0h1m3 0h4m1 0h1M4 86.5h1m1 0h3m1 0h1m1 0h2m2 0h1m3 0h1m2 0h1m1 0h1m5 0h8m1 0h2m1 0h2m1 0h1m3 0h1m3 0h5m4 0h2m2 0h1m2 0h1m3 0h4m4 0h1m2 0h2m1 0h1M4 87.5h1m5 0h1m1 0h1m2 0h1m2 0h1m1 0h3m1 0h1m1 0h3m1 0h4m2 0h2m1 0h4m1 0h1m1 0h1m1 0h2m4 0h2m5 0h2m7 0h2m1 0h1m2 0h1m9 0h1m1 0h1M4 88.5h7m1 0h1m1 0h1m2 0h1m1 0h1m1 0h3m1 0h2m3 0h1m2 0h2m2 0h1m1 0h2m2 0h2m1 0h1m1 0h2m1 0h6m5 0h1m1 0h1m1 0h1m1 0h1m3 0h1m6 0h1m3 0h1m3 0h2"/></svg>
