<svg xmlns="http://www.w3.org/2000/svg" viewBox="0 0 113 113" shape-rendering="crispEdges"><path fill="#ffffff" d="M0 0h113v113H0z"/><path stroke="#000000" d="M4 4.5h7m1 0h1m2 0h1m1 0h4m1 0h3m1 0h4m1 0h1m1 0h1m2 0h1m1 0h1m1 0h1m2 0h1m1 0h3m1 0h3m2 0h4m2 0h1m3 0h3m1 0h1m1 0h3m1 0h2m1 0h1m1 0h2m1 0h2m2 0h1m2 0h1m2 0h1m1 0h2m1 0h2m3 0h7M4 5.5h1m5 0h1m1 0h4m2 0h4m2 0h4m1 0h1m2 0h9m2 0h4m1 0h2m1 0h1m4 0h2m2 0h1m2 0h1m1 0h2m2 0h1m4 0h4m3 0h2m1 0h1m2 0h1m4 0h2m1 0h1m1 0h2m3 0h1m5 0h1M4 6.5h1m1 0h3m1 0h1m2 0h2m1 0h1m1 0h1m2 0h2m1 0h1m3 0h1m3 0h1m3 0h2m2 0h1m1 0h2m2 0h1m1 0h1m1 0h2m2 0h4m2 0h3m1 0h1m1 0h2m2 0h3m1 0h1m4 0h1m1 0h1m1 0h1m1 0h1m1 0h1m1 0h4m1 0h1m3 0h2m2 0h1m1 0h3m1 0h1M4 7.5h1m1 0h3m1 0h1m1 0h1m3 0h4m4 0h1m6 0h2m2 0h1m1 0h1m5 0h3m1 0h2m3 0h2m1 0h1m1 0h2m1 0h4m1 0h4m1 0h1m3 0h1m2 0h1m1 0h3m3 0h1m3 0h2m2 0h1m2 0h2m2 0h1m1 0h1m1 0h3m1 0h1M4 8.5h1m1 0h3m1 0h1m3 0h5m3 0h2m4 0h10m1 0h6m1 0h1m3 0h1m1 0h5m2 0h1m3 0h1m6 0h2m3 0h6m2 0h1m1 0h2m3 0h3m1 0h1m1 0h2m1 0h2m1 0h1m1 0h3m1 0h1M4 9.5h1m5 0h1m2 0h1m3 0h5m1 0h1m2 0h3m3 0h1m1 0h1m1 0h1m1 0h1m3 0h2m2 0h1m3 0h1m1 0h1m3 0h4m1 0h4m1 0h4m1 0h1m2 0h3m3 0h5m5 0h1m2 0h1m1 0h1m3 0h1m2 0h1m5 0h1M4 10.5h7m1 0h1m1 0h1m1 0h1m1 0h1m1 0h1m1 0h1m1 0h1m1 0h1m1 0h1m1 0h1m1 0h1m1 0h1m1 0h1m1 0h1m1 0h1m1 0h1m1 0h1m1 0h1m1 0h1m1 0h1m1 0h1m1 0h1m1 0h1m1 0h1m1 0h1m1 0h1m1 0h1m1 0h1m1 0h1m1 0h1m1 0h1m1 0h1m1 0h1m1 0h1m1 0h1m1 0h1m1 0h1m1 0h1m1 0h1m1 0h1m1 0h1m1 0h1m1 0h1m1 0h1m1 0h1m1 0h7M12 11.5h1m1 0h2m1 0h1m1 0h1m1 0h5m1 0h2m3 0h1m2 0h1m4 0h4m1 0h4m1 0h1m1 0h1m3 0h1m3 0h1m3 0h1m1 0h2m5 0h1m1 0h2m3 0h1m5 0h1m3 0h3m1 0h1m2 0h1m1 0h1M4 12.5h1m1 0h2m1 0h3m5 0h9m2 0h5m5 0h4m2 0h5m1 0h7m2 0h1m1 0h1m1 0h2m2 0h1m3 0h10m2 0h3m5 0h1m1 0h1m1 0h3m1 0h1m2 0h1m2 0h1m1 0h2M5 13.5h4m2 0h5m2 0h2m1 0h1m1 0h1m1 0h1m1 0h2m2 0h1m1 0h1m2 0h3m5 0h4m1 0h1m1 0h2m2 0h2m1 0h2m1 0h1m4 0h6m6 0h2m2 0h4m3 0h1m1 0h4m3 0h1m1 0h3m1 0h5M5 14.5h1m1 0h2m1 0h1m3 0h2m2 0h1m4 0h3m1 0h1m7 0h2m1 0h1m2 0h2m2 0h2m1 0h1m1 0h2m4 0h2m1 0h1m1 0h1m1 0h2m2 0h1m1 0h1m2 0h4m1 0h1m1 0h4m1 0h2m3 0h1m1 0h1m1 0h2m1 0h1m1 0h1m4 0h3m1 0h1M5 15.5h1m3 0h1m1 0h1m1 0h3m2 0h1m1 0h3m1 0h1m4 0h1m1 0h1m1 0h1m1 0h2m1 0h1m1 0h1m1 0h1m1 0h2m2 0h1m2 0h1m1 0h1m3 0h1m1 0h7m1 0h1m1 0h1m4 0h4m2 0h1m2 0h2m3 0h2m2 0h5m2 0h1m2 0h4M4 16.5h2m4 0h2m2 0h2m1 0h1m1 0h1m2 0h1m2 0h2m1 0h4m1 0h3m1 0h2m2 0h4m2 0h2m1 0h4m1 0h1m2 0h1m1 0h2m4 0h1m1 0h5m1 0h3m2 0h1m1 0h1m1 0h3m1 0h1m1 0h1m1 0h2m1 0h1m1 0h1m2 0h2m3 0h1m1 0h1m1 0h1M4 17.5h3m1 0h1m2 0h1m4 0h2m3 0h1m2 0h4m1 0h5m1 0h2m1 0h1m2 0h4m1 0h1m1 0h1m8 0h4m1 0h1m3 0h4m2 0h1m1 0h2m1 0h1m2 0h1m4 0h2m1 0h1m4 0h1m3 0h3m3 0h1m1 0h2M5 18.5h1m1 0h2m1 0h1m1 0h2m5 0h1m1 0h1m1 0h1m2 0h2m1 0h1m2 0h1m4 0h6m2 0h1m2 0h1m1 0h1m1 0h1m2 0h1m2 0h1m2 0h1m1 0h5m3 0h1m1 0h1m2 0h1m1 0h1m4 0h1m1 0h2m1 0h1m1 0h4m2 0h1m4 0h1m3 0h4M4 19.5h2m1 0h1m1 0h1m1 0h1m2 0h1m1 0h2m1 0h2m1 0h13m3 0h2m1 0h4m1 0h3m2 0h4m2 0h1m2 0h1m1 0h1m1 0h2m1 0h2m3 0h2m3 0h1m1 0h4m1 0h3m3 0h1m1 0h1m3 0h2m2 0h2m1 0h1m2 0h2M4 20.5h1m1 0h11m1 0h2m4 0h5m4 0h1m1 0h2m2 0h1m1 0h1m2 0h3m1 0h3m1 0h1m1 0h1m1 0h1m2 0h6m1 0h2m2 0h3m1 0h1m2 0h1m2 0h2m1 0h1m3 0h1m1 0h2m3 0h3m6 0h1m3 0h1M4 21.5h1m3 0h1m3 0h4m1 0h1m2 0h1m1 0h1m1 0h1m1 0h6m5 0h1m2 0h3m3 0h2m2 0h2m3 0h2m2 0h3m4 0h2m2 0h1m5 0h1m1 0h4m1 0h1m1 0h4m1 0h3m1 0h1m1 0h3m2 0h1m1 0h1m1 0h1m1 0h1M5 22.5h1m3 0h3m2 0h4m1 0h2m1 0h3m3 0h13m2 0h1m1 0h1m3 0h1m1 0h2m4 0h1m4 0h2m1 0h1m5 0h1m3 0h1m1 0h1m1 0h1m1 0h1m2 0h2m1 0h1m4 0h1m1 0h1m1 0h1m5 0h1m2 0h1m1 0h2M6 23.5h1m2 0h1m1 0h8m3 0h1m2 0h1m1 0h1m2 0h1m1 0h3m1 0h3m3 0h8m2 0h4m4 0h4m1 0h1m1 0h1m7 0h2m2 0h3m4 0h1m1 0h1m1 0h1m1 0h1m6 0h2m1 0h1m1 0h2m1 0h2M6 24.5h2m2 0h2m1 0h3m4 0h1m2 0h2m5 0h1m2 0h3m2 0h3m1 0h2m3 0h5m1 0h1m2 0h1m1 0h2m1 0h5m4 0h1m6 0h1m3 0h1m1 0h4m3 0h1m5 0h2m1 0h1m6 0h2M4 25.5h2m1 0h1m1 0h1m2 0h1m6 0h1m2 0h2m2 0h3m2 0h1m1 0h4m1 0h2m5 0h1m2 0h1m3 0h2m1 0h1m7 0h3m2 0h1m1 0h1m1 0h1m1 0h3m2 0h1m1 0h2m1 0h2m1 0h6m1 0h1m5 0h1m2 0h1M4 26.5h1m3 0h3m1 0h1m1 0h1m3 0h1m2 0h1m7 0h1m1 0h1m5 0h2m1 0h3m2 0h2m1 0h1m1 0h1m3 0h1m1 0h5m1 0h1m3 0h1m2 0h2m4 0h2m2 0h1m2 0h3m4 0h4m3 0h4m1 0h1m1 0h1m1 0h4M4 27.5h3m1 0h2m2 0h2m3 0h1m1 0h1m1 0h1m3 0h3m2 0h2m3 0h2m2 0h1m2 0h1m1 0h1m1 0h1m1 0h2m6 0h1m3 0h1m2 0h1m2 0h3m2 0h2m1 0h2m4 0h2m2 0h2m1 0h2m3 0h6m1 0h4m2 0h1M6 28.5h1m1 0h5m1 0h1m3 0h3m4 0h1m2 0h5m2 0h4m1 0h4m2 0h1m1 0h1m1 0h11m3 0h2m2 0h3m1 0h1m3 0h6m3 0h2m1 0h3m2 0h2m2 0h1m2 0h5m2 0h1M4 29.5h1m3 0h1m3 0h2m1 0h1m1 0h4m2 0h1m3 0h2m3 0h1m3 0h2m1 0h1m1 0h1m1 0h5m3 0h2m3 0h4m2 0h3m1 0h2m2 0h3m2 0h2m3 0h3m3 0h2m5 0h2m2 0h4m3 0h4M4 30.5h1m1 0h3m1 0h1m1 0h2m3 0h2m8 0h2m1 0h1m1 0h1m1 0h2m1 0h1m1 0h1m3 0h1m1 0h3m1 0h1m2 0h1m1 0h1m1 0h2m2 0h1m1 0h1m5 0h1m2 0h1m1 0h2m1 0h1m1 0h1m1 0h1m2 0h1m3 0h2m2 0h1m1 0h1m3 0h2m1 0h1m1 0h1m1 0h2m1 0h2M4 31.5h1m1 0h1m1 0h1m3 0h1m1 0h1m1 0h2m3 0h1m1 0h2m2 0h2m3 0h8m1 0h2m3 0h3m1 0h1m1 0h1m3 0h5m1 0h3m1 0h1m3 0h2m1 0h1m2 0h1m3 0h4m5 0h1m3 0h1m4 0h3m3 0h1m2 0h1M4 32.5h1m1 0h7m1 0h1m3 0h3m3 0h2m2 0h9m2 0h1m1 0h4m1 0h1m3 0h1m1 0h5m2 0h4m2 0h1m3 0h1m1 0h1m1 0h1m2 0h6m4 0h2m1 0h1m1 0h1m3 0h2m1 0h7m1 0h3M4 33.5h6m1 0h1m2 0h1m1 0h2m2 0h4m1 0h2m1 0h1m1 0h1m2 0h4m1 0h2m1 0h1m3 0h1m2 0h1m1 0h1m7 0h5m3 0h3m7 0h2m1 0h3m2 0h1m2 0h2m3 0h1m1 0h2m1 0h3m4 0h2M5 34.5h1m2 0h1m1 0h2m5 0h3m1 0h2m1 0h1m2 0h2m2 0h1m1 0h1m1 0h2m1 0h1m1 0h1m1 0h2m1 0h1m1 0h1m6 0h4m2 0h3m1 0h2m2 0h1m1 0h3m1 0h2m3 0h1m2 0h1m2 0h1m2 0h4m2 0h3m2 0h3m2 0h3m1 0h1M4 35.5h2m1 0h1m3 0h1m4 0h1m1 0h2m3 0h2m1 0h4m1 0h1m2 0h2m2 0h1m2 0h1m1 0h3m2 0h1m1 0h1m2 0h3m3 0h3m3 0h1m2 0h1m3 0h2m6 0h1m4 0h4m1 0h5m3 0h2m1 0h1m1 0h1m3 0h2M5 36.5h3m2 0h2m5 0h12m1 0h2m1 0h8m1 0h2m2 0h1m4 0h1m1 0h1m3 0h1m1 0h1m5 0h1m1 0h1m1 0h1m6 0h1m2 0h1m1 0h2m1 0h2m1 0h4m2 0h1m2 0h4m2 0h1m1 0h1m2 0h2M9 37.5h1m2 0h2m2 0h4m1 0h3m4 0h6m2 0h1m1 0h1m4 0h1m1 0h1m1 0h1m1 0h2m1 0h1m1 0h1m2 0h1m2 0h1m1 0h1m1 0h1m2 0h2m1 0h2m1 0h3m2 0h2m2 0h1m2 0h2m1 0h2m2 0h2m3 0h4m1 0h1m1 0h1m1 0h1M5 38.5h1m2 0h3m3 0h1m2 0h2m1 0h1m1 0h5m4 0h4m2 0h2m1 0h3m2 0h1m1 0h2m3 0h2m2 0h1m3 0h1m1 0h2m2 0h3m2 0h1m7 0h1m3 0h4m4 0h3m1 0h1m3 0h3m6 0h1M5 39.5h2m1 0h2m1 0h2m1 0h1m3 0h1m1 0h2m2 0h4m3 0h4m2 0h1m3 0h1m1 0h1m1 0h2m3 0h1m1 0h5m4 0h3m1 0h4m1 0h1m2 0h2m1 0h1m2 0h3m1 0h2m1 0h1m4 0h1m2 0h2m1 0h3m3 0h1m2 0h2M6 40.5h5m3 0h1m6 0h1m4 0h3m1 0h1m1 0h4m3 0h1m3 0h4m7 0h1m2 0h3m2 0h3m1 0h1m1 0h2m1 0h4m4 0h2m2 0h3m1 0h2m2 0h1m3 0h3m1 0h1m2 0h2m1 0h1M8 41.5h1m2 0h5m1 0h1m1 0h2m1 0h2m4 0h1m1 0h2m1 0h5m2 0h4m1 0h1m3 0h1m1 0h1m3 0h1m6 0h6m2 0h1m3 0h3m2 0h2m5 0h2m1 0h2m2 0h2m1 0h3m2 0h3m2 0h3M4 42.5h2m4 0h3m2 0h1m1 0h1m1 0h2m2 0h1m1 0h2m1 0h3m2 0h2m2 0h1m1 0h1m2 0h2m6 0h5m1 0h1m1 0h3m3 0h2m1 0h2m3 0h1m9 0h2m2 0h1m1 0h2m2 0h3m1 0h6m2 0h1m2 0h1M5 43.5h1m1 0h1m1 0h1m1 0h1m9 0h1m3 0h1m5 0h2m1 0h2m1 0h4m1 0h5m1 0h1m3 0h1m1 0h1m3 0h1m2 0h1m1 0h2m1 0h2m4 0h2m2 0h4m1 0h6m2 0h1m4 0h5m2 0h1m2 0h1m1 0h2M4 44.5h1m1 0h6m1 0h3m2 0h3m1 0h2m3 0h1m1 0h1m1 0h1m5 0h2m2 0h1m1 0h3m1 0h1m1 0h4m1 0h3m2 0h1m1 0h1m1 0h1m2 0h2m1 0h2m1 0h2m3 0h1m1 0h1m1 0h2m4 0h3m1 0h2m1 0h2m5 0h3m1 0h1m2 0h1M4 45.5h2m1 0h3m4 0h1m4 0h2m2 0h2m1 0h1m1 0h1m1 0h1m1 0h2m1 0h1m1 0h1m4 0h1m2 0h1m1 0h1m1 0h1m6 0h1m2 0h2m1 0h4m1 0h1m1 0h1m3 0h1m1 0h1m1 0h3m4 0h3m1 0h2m1 0h2m1 0h1m1 0h1m2 0h1m1 0h2m2 0h1m1 0h1M9 46.5h2m1 0h2m1 0h1m3 0h2m2 0h1m1 0h2m2 0h1m3 0h1m1 0h5m2 0h1m3 0h1m2 0h1m4 0h1m2 0h3m1 0h3m2 0h2m2 0h2m3 0h2m1 0h3m1 0h1m5 0h3m2 0h1m1 0h1m2 0h6M5 47.5h3m3 0h3m2 0h1m1 0h2m1 0h2m1 0h2m2 0h1m1 0h1m1 0h2m2 0h1m2 0h2m2 0h1m5 0h1m1 0h1m1 0h1m1 0h8m4 0h2m1 0h1m1 0h2m1 0h2m1 0h2m1 0h5m3 0h1m2 0h2m1 0h2m1 0h1m1 0h1m1 0h6M4 48.5h2m4 0h1m2 0h3m1 0h4m8 0h1m1 0h2m2 0h1m3 0h1m1 0h4m2 0h3m1 0h1m1 0h5m1 0h2m1 0h2m3 0h5m3 0h1m2 0h1m1 0h1m1 0h2m3 0h1m1 0h1m3 0h3m2 0h2m2 0h1m1 0h1m2 0h2M9 49.5h1m2 0h3m3 0h2m2 0h3m1 0h3m2 0h1m1 0h2m2 0h1m2 0h1m1 0h1m2 0h2m2 0h3m2 0h1m4 0h1m4 0h2m1 0h1m1 0h8m2 0h1m1 0h1m1 0h1m1 0h1m2 0h1m1 0h1m2 0h2m1 0h1m2 0h1m2 0h1m1 0h2m2 0h1M4 50.5h1m2 0h1m2 0h3m1 0h1m1 0h4m3 0h4m1 0h1m3 0h2m2 0h1m3 0h2m2 0h2m3 0h2m2 0h1m1 0h1m2 0h1m1 0h1m1 0h1m6 0h1m1 0h1m2 0h2m1 0h1m1 0h3m1 0h1m1 0h1m1 0h6m1 0h2m3 0h3m1 0h6M7 51.5h2m2 0h1m1 0h7m2 0h1m1 0h1m1 0h3m5 0h1m1 0h1m2 0h1m4 0h2m2 0h1m1 0h1m1 0h2m2 0h4m1 0h2m2 0h4m1 0h1m1 0h1m1 0h1m2 0h2m2 0h1m1 0h2m5 0h3m1 0h5m1 0h2m3 0h2m1 0h1M4 52.5h2m2 0h7m3 0h1m3 0h3m1 0h7m4 0h1m1 0h1m1 0h1m1 0h1m1 0h2m3 0h1m1 0h6m4 0h1m1 0h1m2 0h3m2 0h1m3 0h5m2 0h3m2 0h1m1 0h3m2 0h2m1 0h7m1 0h1m1 0h1M4 53.5h3m1 0h1m3 0h4m3 0h1m1 0h1m2 0h1m3 0h1m3 0h1m2 0h1m3 0h8m3 0h3m3 0h1m2 0h1m3 0h1m2 0h2m4 0h1m1 0h3m3 0h6m3 0h5m1 0h6m3 0h1m3 0h1M5 54.5h4m1 0h1m1 0h1m2 0h3m1 0h1m2 0h2m1 0h1m2 0h1m1 0h1m1 0h3m1 0h2m1 0h1m3 0h2m2 0h3m2 0h1m1 0h1m1 0h1m5 0h1m2 0h3m2 0h1m1 0h1m1 0h1m1 0h1m1 0h1m1 0h1m2 0h1m1 0h2m1 0h3m1 0h1m3 0h1m1 0h1m1 0h1m1 0h1m1 0h2M4 55.5h2m1 0h2m3 0h6m3 0h3m1 0h1m1 0h2m3 0h2m1 0h1m1 0h1m1 0h1m1 0h3m1 0h1m1 0h1m1 0h1m1 0h2m3 0h3m1 0h2m1 0h3m1 0h7m1 0h2m3 0h2m3 0h1m1 0h1m1 0h1m2 0h1m1 0h1m5 0h1m3 0h3M4 56.5h13m1 0h2m1 0h2m5 0h6m1 0h3m3 0h1m3 0h3m2 0h9m1 0h4m5 0h2m1 0h1m1 0h9m1 0h1m1 0h1m1 0h1m1 0h1m2 0h2m1 0h2m1 0h6m1 0h1M5 57.5h1m3 0h1m1 0h4m1 0h4m1 0h2m2 0h2m1 0h2m1 0h2m3 0h1m2 0h4m1 0h2m1 0h2m2 0h3m3 0h2m1 0h2m3 0h1m1 0h1m1 0h1m1 0h1m3 0h1m2 0h1m1 0h1m2 0h1m2 0h1m2 0h1m1 0h2m3 0h1m1 0h1m2 0h5M4 58.5h1m2 0h2m1 0h1m1 0h3m4 0h2m1 0h3m2 0h1m1 0h6m2 0h1m2 0h2m3 0h1m1 0h1m1 0h2m2 0h1m3 0h7m1 0h1m1 0h1m1 0h1m1 0h1m2 0h4m1 0h2m1 0h4m2 0h1m1 0h10m2 0h2m1 0h3M4 59.5h2m1 0h3m3 0h1m1 0h1m2 0h1m1 0h2m2 0h3m1 0h3m2 0h1m1 0h6m2 0h2m3 0h1m2 0h3m3 0h1m1 0h1m1 0h1m1 0h1m1 0h1m1 0h1m1 0h2m2 0h2m2 0h3m2 0h1m1 0h4m1 0h3m1 0h2m4 0h2m2 0h1m3 0h2M5 60.5h1m3 0h2m3 0h1m3 0h1m1 0h1m4 0h1m1 0h1m1 0h1m1 0h2m3 0h3m1 0h1m2 0h3m3 0h1m1 0h4m1 0h4m2 0h1m1 0h3m1 0h1m1 0h1m1 0h5m6 0h1m1 0h1m1 0h1m1 0h1m2 0h3m7 0h1m1 0h1m2 0h2M6 61.5h1m1 0h1m2 0h2m1 0h3m2 0h2m3 0h3m1 0h2m1 0h1m1 0h1m1 0h3m1 0h2m1 0h2m1 0h2m1 0h4m1 0h3m1 0h1m2 0h1m3 0h1m1 0h5m1 0h1m2 0h1m3 0h1m1 0h1m1 0h2m2 0h5m1 0h3m1 0h1m1 0h1m2 0h2M5 62.5h3m2 0h5m5 0h2m1 0h2m1 0h3m5 0h1m3 0h5m11 0h1m1 0h3m1 0h1m1 0h4m1 0h1m2 0h1m1 0h2m4 0h3m5 0h5m1 0h1m3 0h2m1 0h4m1 0h1m1 0h2M4 63.5h5m2 0h3m2 0h2m3 0h1m2 0h2m2 0h1m1 0h1m3 0h1m1 0h1m1 0h3m5 0h1m1 0h3m1 0h4m3 0h1m1 0h1m1 0h8m1 0h1m1 0h1m2 0h1m4 0h4m1 0h1m3 0h1m10 0h4M7 64.5h1m1 0h4m1 0h3m5 0h3m1 0h1m2 0h1m3 0h5m1 0h2m1 0h4m2 0h1m1 0h1m2 0h1m1 0h2m1 0h3m3 0h2m1 0h1m1 0h2m1 0h2m1 0h1m9 0h1m1 0h1m1 0h4m1 0h1m2 0h1m2 0h1m3 0h5M4 65.5h2m7 0h2m1 0h1m3 0h2m1 0h4m1 0h1m1 0h5m2 0h3m2 0h4m1 0h2m1 0h2m1 0h3m1 0h1m7 0h1m1 0h2m2 0h1m1 0h1m4 0h2m1 0h1m1 0h1m1 0h1m2 0h3m2 0h1m1 0h4m3 0h1m3 0h2M4 66.5h3m3 0h6m2 0h1m2 0h2m1 0h2m1 0h1m1 0h1m4 0h2m1 0h3m1 0h1m2 0h1m3 0h1m2 0h1m1 0h1m1 0h1m3 0h1m3 0h6m1 0h5m3 0h1m1 0h2m1 0h1m2 0h1m1 0h1m3 0h1m2 0h2m2 0h1m4 0h3m1 0h1M6 67.5h1m2 0h1m1 0h3m6 0h3m1 0h1m3 0h2m1 0h1m3 0h1m4 0h2m2 0h3m1 0h1m2 0h1m1 0h4m1 0h1m2 0h1m1 0h1m2 0h2m1 0h4m1 0h3m1 0h2m1 0h2m1 0h5m1 0h2m1 0h1m1 0h1m1 0h4m1 0h5M5 68.5h1m1 0h1m2 0h1m3 0h1m1 0h1m2 0h1m1 0h2m1 0h3m1 0h1m1 0h1m2 0h2m3 0h2m2 0h1m2 0h2m3 0h2m1 0h1m3 0h1m1 0h1m1 0h1m2 0h1m2 0h1m3 0h1m3 0h1m1 0h1m2 0h3m3 0h3m1 0h4m2 0h1m2 0h1m2 0h4m2 0h1M5 69.5h2m2 0h1m2 0h4m2 0h2m1 0h1m9 0h1m3 0h1m1 0h1m4 0h5m2 0h2m2 0h3m1 0h1m1 0h1m5 0h1m2 0h2m1 0h3m2 0h2m1 0h2m2 0h2m1 0h2m2 0h2m2 0h1m3 0h4m2 0h1M4 70.5h1m1 0h5m3 0h2m1 0h2m1 0h1m1 0h7m2 0h3m1 0h1m1 0h3m2 0h2m2 0h5m3 0h3m1 0h2m4 0h1m2 0h1m2 0h1m3 0h1m3 0h4m1 0h1m1 0h3m2 0h1m2 0h4m1 0h4M4 71.5h2m1 0h2m4 0h5m5 0h1m1 0h2m1 0h1m3 0h1m6 0h3m1 0h3m1 0h2m3 0h1m1 0h3m3 0h3m1 0h1m1 0h1m7 0h1m2 0h5m1 0h1m1 0h1m3 0h3m5 0h1m3 0h1m1 0h1m3 0h1M5 72.5h7m1 0h1m2 0h2m2 0h1m2 0h7m1 0h2m3 0h1m1 0h4m3 0h1m1 0h3m3 0h1m2 0h1m1 0h4m2 0h1m1 0h1m3 0h2m2 0h1m4 0h3m1 0h1m1 0h1m1 0h1m1 0h1m3 0h4m3 0h1m2 0h1m1 0h2M7 73.5h1m5 0h3m1 0h1m1 0h1m3 0h1m1 0h5m1 0h2m1 0h1m4 0h3m3 0h2m2 0h6m1 0h4m1 0h3m1 0h1m1 0h2m6 0h1m2 0h2m1 0h1m1 0h3m1 0h7m1 0h3m1 0h2m5 0h1M4 74.5h5m1 0h2m3 0h1m4 0h3m1 0h8m1 0h3m2 0h5m2 0h1m3 0h1m1 0h4m1 0h1m2 0h5m1 0h1m1 0h1m1 0h1m1 0h4m1 0h1m1 0h1m4 0h1m2 0h1m1 0h2m2 0h1m1 0h1m1 0h1m6 0h2m2 0h2M4 75.5h2m1 0h2m7 0h1m1 0h1m1 0h1m1 0h1m1 0h1m1 0h1m1 0h1m1 0h3m1 0h1m6 0h4m1 0h1m1 0h1m2 0h3m1 0h1m2 0h2m2 0h4m6 0h2m1 0h1m1 0h3m2 0h3m1 0h4m2 0h1m2 0h1m1 0h1m1 0h2m1 0h1m1 0h1m3 0h1M4 76.5h2m2 0h6m1 0h2m3 0h1m3 0h1m1 0h1m1 0h5m3 0h1m1 0h1m1 0h1m2 0h3m3 0h9m1 0h1m2 0h1m4 0h1m2 0h2m1 0h1m2 0h5m1 0h2m1 0h2m1 0h1m1 0h3m1 0h4m2 0h5m1 0h3M4 77.5h1m1 0h1m1 0h1m3 0h1m3 0h1m2 0h1m1 0h1m2 0h1m1 0h1m1 0h1m3 0h1m3 0h2m4 0h1m1 0h1m1 0h1m2 0h2m1 0h1m3 0h3m1 0h2m1 0h5m2 0h1m2 0h1m2 0h1m3 0h2m3 0h2m1 0h1m1 0h2m6 0h1m1 0h1m3 0h1M6 78.5h1m1 0h1m1 0h1m1 0h4m1 0h1m1 0h1m6 0h1m1 0h1m1 0h1m1 0h2m1 0h1m3 0h2m1 0h2m5 0h2m1 0h1m1 0h1m1 0h2m3 0h5m1 0h1m1 0h1m1 0h2m1 0h3m1 0h1m1 0h1m4 0h6m2 0h1m1 0h1m2 0h1m1 0h1m1 0h1m1 0h1m2 0h1M4 79.5h2m2 0h1m3 0h2m2 0h2m8 0h3m3 0h1m1 0h2m1 0h2m1 0h1m1 0h1m1 0h2m1 0h2m1 0h1m1 0h1m3 0h1m3 0h2m3 0h1m3 0h1m3 0h1m2 0h1m3 0h2m4 0h1m1 0h1m3 0h1m3 0h1m1 0h3m3 0h4M5 80.5h13m4 0h2m1 0h2m1 0h5m2 0h3m5 0h1m1 0h1m4 0h9m2 0h3m2 0h3m1 0h2m1 0h1m1 0h6m1 0h1m1 0h1m1 0h1m1 0h1m4 0h1m2 0h1m1 0h9m1 0h1M4 81.5h1m3 0h1m3 0h2m3 0h1m2 0h2m2 0h2m2 0h1m1 0h2m2 0h1m2 0h2m3 0h2m3 0h3m2 0h1m1 0h1m1 0h3m2 0h1m1 0h2m3 0h1m1 0h1m2 0h1m1 0h1m1 0h1m1 0h2m2 0h1m1 0h5m2 0h2m1 0h1m1 0h2m2 0h1m6 0h1M4 82.5h2m1 0h1m1 0h2m1 0h1m1 0h4m1 0h3m1 0h2m2 0h3m1 0h2m5 0h4m2 0h1m2 0h2m3 0h3m5 0h2m3 0h5m1 0h1m3 0h3m1 0h1m3 0h4m2 0h1m1 0h1m4 0h3m2 0h2m2 0h3M4 83.5h3m1 0h2m2 0h4m2 0h1m2 0h6m1 0h2m2 0h2m1 0h1m2 0h1m2 0h2m1 0h4m7 0h7m1 0h5m1 0h1m3 0h1m2 0h2m2 0h1m1 0h2m3 0h5m1 0h2m1 0h1m1 0h1m2 0h2m2 0h4M5 84.5h1m3 0h2m3 0h1m1 0h1m6 0h4m3 0h2m3 0h1m1 0h2m1 0h1m1 0h1m1 0h1m1 0h1m2 0h1m1 0h1m1 0h1m2 0h2m2 0h6m2 0h2m1 0h2m1 0h1m2 0h1m1 0h1m1 0h2m3 0h1m1 0h3m1 0h1m1 0h1m1 0h2m1 0h3m1 0h1m1 0h1m1 0h2M4 85.5h1m3 0h2m2 0h2m1 0h2m1 0h3m3 0h1m1 0h1m2 0h1m1 0h2m1 0h6m1 0h4m1 0h1m4 0h3m1 0h1m2 0h1m1 0h1m2 0h5m1 0h2m1 0h1m2 0h2m1 0h1m1 0h1m1 0h1m3 0h1m2 0h1m2 0h1m4 0h2m2 0h2m5 0h1M4 86.5h1m5 0h1m1 0h1m5 0h2m3 0h1m1 0h1m1 0h1m1 0h2m1 0h6m1 0h1m1 0h1m1 0h3m1 0h3m3 0h5m1 0h1m1 0h1m2 0h2m1 0h2m1 0h3m3 0h1m3 0h1m4 0h2m3 0h1m4 0h2m1 0h1m2 0h5m1 0h2M5 87.5h3m3 0h2m3 0h2m3 0h3m1 0h1m1 0h2m1 0h1m3 0h2m2 0h1m5 0h1m4 0h2m1 0h1m1 0h2m1 0h6m2 0h1m1 0h2m4 0h5m4 0h2m1 0h8m1 0h1m2 0h1m2 0h1m1 0h1m2 0h1m2 0h1M4 88.5h1m1 0h6m2 0h2m1 0h1m2 0h1m2 0h1m2 0h2m2 0h1m1 0h3m3 0h1m4 0h1m5 0h2m2 0h3m1 0h1m1 0h6m1 0h1m4 0h4m5 0h1m2 0h2m3 0h2m1 0h1m1 0h1m1 0h3m1 0h1m1 0h6m1 0h1M5 89.5h1m2 0h1m2 0h1m1 0h6m1 0h2m1 0h1m2 0h1m1 0h2m5 0h9m3 0h2m1 0h2m1 0h3m2 0h1m2 0h1m1 0h1m1 0h1m2 0h1m2 0h1m1 0h1m1 0h1m6 0h6m4 0h2m1 0h2m6 0h1m1 0h1m1 0h1M5 90.5h2m2 0h2m1 0h3m2 0h1m1 0h1m2 0h2m3 0h1m1 0h1m1 0h1m1 0h2m1 0h1m1 0h1m3 0h1m1 0h1m2 0h1m1 0h1m3 0h2m1 0h1m1 0h1m2 0h1m2 0h1m2 0h3m3 0h1m1 0h7m1 0h2m2 0h4m2 0h2m2 0h5m1 0h1m1 0h4M4 91.5h1m1 0h1m2 0h1m3 0h1m2 0h1m1 0h1m1 0h4m2 0h2m1 0h6m1 0h2m1 0h2m5 0h1m2 0h3m2 0h1m2 0h1m3 0h4m1 0h1m5 0h1m1 0h1m2 0h1m5 0h4m4 0h3m2 0h1m1 0h1m1 0h1m2 0h1m2 0h2M4 92.5h1m1 0h1m1 0h4m3 0h1m2 0h4m2 0h1m2 0h3m3 0h2m1 0h7m1 0h3m2 0h1m1 0h1m5 0h1m2 0h1m1 0h3m1 0h1m1 0h1m2 0h2m3 0h1m4 0h1m2 0h3m1 0h1m1 0h1m2 0h4m2 0h3m1 0h1m1 0h1M5 93.5h5m4 0h1m2 0h3m2 0h1m1 0h1m3 0h1m4 0h1m2 0h4m3 0h1m1 0h1m1 0h4m4 0h3m3 0h2m1 0h3m1 0h1m1 0h2m4 0h1m1 0h1m2 0h4m1 0h1m2 0h5m2 0h4m2 0h1m1 0h1m1 0h1m1 0h1M4 94.5h1m3 0h3m1 0h5m1 0h6m3 0h1m2 0h2m1 0h2m1 0h1m1 0h2m4 0h4m1 0h1m1 0h1m2 0h3m1 0h1m1 0h2m2 0h1m1 0h1m2 0h2m1 0h1m2 0h2m1 0h1m2 0h2m1 0h2m1 0h1m2 0h1m1 0h1m2 0h2m1 0h3m1 0h1m3 0h3M4 95.5h3m2 0h1m2 0h2m1 0h5m1 0h2m1 0h1m1 0h1m1 0h1m1 0h1m1 0h2m5 0h1m1 0h6m1 0h1m1 0h1m1 0h1m1 0h1m1 0h1m1 0h3m3 0h1m2 0h3m1 0h3m1 0h1m2 0h1m1 0h2m2 0h2m1 0h1m3 0h1m1 0h2m2 0h3m8 0h1M5 96.5h3m2 0h1m2 0h2m7 0h2m1 0h2m3 0h2m2 0h3m2 0h5m5 0h2m4 0h1m1 0h1m1 0h1m2 0h3m3 0h1m1 0h1m3 0h1m6 0h1m3 0h1m1 0h5m3 0h2m2 0h3m2 0h5M4 97.5h1m2 0h3m2 0h2m3 0h1m1 0h1m1 0h1m3 0h2m1 0h3m2 0h3m1 0h3m1 0h2m2 0h2m4 0h1m3 0h2m3 0h2m1 0h1m3 0h1m5 0h1m1 0h1m1 0h1m1 0h1m1 0h1m4 0h1m2 0h3m1 0h3m3 0h3m2 0h1m1 0h1M4 98.5h3m3 0h1m4 0h2m4 0h1m2 0h1m1 0h2m3 0h2m1 0h2m1 0h4m1 0h1m3 0h3m1 0h1m1 0h1m2 0h2m1 0h4m5 0h1m2 0h1m2 0h2m2 0h6m1 0h1m5 0h2m4 0h1m1 0h1m3 0h3m1 0h2M6 99.5h1m1 0h2m1 0h1m1 0h3m2 0h2m3 0h1m3 0h2m1 0h2m1 0h2m1 0h1m1 0h3m2 0h1m3 0h1m5 0h1m1 0h1m1 0h3m2 0h1m4 0h1m1 0h4m3 0h7m5 0h2m1 0h4m1 0h2m1 0h1m6 0h3M7 100.5h2m1 0h2m1 0h3m4 0h1m1 0h2m1 0h9m1 0h1m1 0h1m3 0h5m1 0h1m4 0h5m1 0h1m3 0h1m1 0h8m1 0h1m2 0h6m1 0h2m1 0h1m1 0h1m3 0h2m2 0h2m1 0h9M12 101.5h1m1 0h2m1 0h1m2 0h1m1 0h3m1 0h1m1 0h1m3 0h1m2 0h1m1 0h4m1 0h4m2 0h1m3 0h1m3 0h4m2 0h1m3 0h1m2 0h2m1 0h1m2 0h2m3 0h3m2 0h1m1 0h1m1 0h3m3 0h1m1 0h1m2 0h1m3 0h1m1 0h1m1 0h1M4 102.5h7m1 0h3m2 0h3m8 0h1m1 0h1m1 0h3m1 0h1m1 0h2m2 0h1m1 0h1m6 0h2m1 0h1m1 0h2m1 0h3m2 0h2m1 0h1m1 0h1m3 0h1m2 0h1m1 0h1m1 0h4m2 0h3m2 0h2m1 0h1m1 0h1m3 0h1m1 0h1m1 0h2m1 0h1M4 103.5h1m5 0h1m1 0h1m2 0h3m1 0h2m1 0h3m1 0h3m3 0h3m1 0h1m1 0h1m2 0h2m1 0h1m1 0h1m1 0h3m1 0h1m3 0h5m2 0h2m3 0h1m1 0h3m3 0h1m3 0h1m1 0h1m1 0h2m2 0h4m1 0h1m1 0h3m1 0h2m3 0h1m3 0h1M4 104.5h1m1 0h3m1 0h1m2 0h2m2 0h2m4 0h1m1 0h2m1 0h5m2 0h1m1 0h1m2 0h3m1 0h1m3 0h3m1 0h6m3 0h2m4 0h1m1 0h2m1 0h3m1 0h5m1 0h1m5 0h1m1 0h2m1 0h1m1 0h10M4 105.5h1m1 0h3m1 0h1m1 0h3m1 0h1m2 0h3m2 0h1m2 0h1m1 0h1m1 0h3m7 0h3m2 0h1m1 0h10m1 0h2m1 0h2m3 0h2m2 0h1m3 0h1m1 0h2m2 0h1m3 0h2m5 0h2m1 0h2m2 0h1m1 0h1m1 0h5M4 106.5h1m1 0h3m1 0h1m1 0h1m2 0h1m1 0h2m1 0h1m5 0h2m1 0h1m1 0h1m1 0h4m1 0h2m1 0h1m1 0h1m1 0h2m2 0h2m1 0h4m1 0h1m2 0h1m2 0h1m1 0h2m4 0h1m1 0h5m6 0h2m2 0h3m6 0h8m1 0h1M4 107.5h1m5 0h1m5 0h3m1 0h1m3 0h2m1 0h4m1 0h1m1 0h1m1 0h2m1 0h2m1 0h1m4 0h1m2 0h1m1 0h5m1 0h1m2 0h2m2 0h2m1 0h1m2 0h1m3 0h1m1 0h1m1 0h1m1 0h1m1 0h3m2 0h1m1 0h1m1 0h1m1 0h2m4 0h1m1 0h1m1 0h1m1 0h1m1 0h1M4 108.5h7m1 0h1m1 0h1m3 0h5m2 0h1m1 0h4m6 0h1m4 0h1m2 0h1m4 0h1m1 0h1m1 0h3m1 0h2m5 0h2m1 0h1m4 0h1m1 0h3m1 0h3m6 0h1m1 0h3m3 0h1m3 0h1m1 0h5"/></svg>
