<svg xmlns="http://www.w3.org/2000/svg" viewBox="0 0 97 97" shape-rendering="crispEdges"><path fill="#ffffff" d="M0 0h97v97H0z"/><path stroke="#000000" d="M4 4.5h7m3 0h1m1 0h1m1 0h1m2 0h5m3 0h1m3 0h3m1 0h1m1 0h1m1 0h1m2 0h1m1 0h3m1 0h2m1 0h1m1 0h1m2 0h2m1 0h1m3 0h3m1 0h1m1 0h2m1 0h1m1 0h1m3 0h1m1 0h3m1 0h7M4 5.5h1m5 0h1m2 0h1m1 0h4m7 0h1m1 0h6m2 0h1m1 0h3m2 0h1m1 0h4m1 0h1m4 0h1m3 0h1m3 0h1m2 0h1m1 0h2m1 0h1m3 0h2m2 0h3m1 0h1m2 0h1m5 0h1M4 6.5h1m1 0h3m1 0h1m2 0h1m1 0h1m1 0h1m2 0h2m3 0h1m1 0h1m5 0h2m1 0h1m1 0h1m1 0h2m3 0h1m1 0h1m1 0h2m1 0h1m5 0h1m2 0h1m3 0h1m1 0h1m2 0h2m4 0h2m1 0h3m4 0h1m1 0h3m1 0h1M4 7.5h1m1 0h3m1 0h1m1 0h3m2 0h2m4 0h1m7 0h2m1 0h2m3 0h1m1 0h3m3 0h2m2 0h1m4 0h1m1 0h1m3 0h7m5 0h1m2 0h3m1 0h2m1 0h1m1 0h1m1 0h3m1 0h1M4 8.5h1m1 0h3m1 0h1m1 0h1m3 0h4m1 0h1m1 0h3m1 0h2m3 0h5m1 0h1m2 0h1m3 0h3m9 0h8m1 0h1m1 0h2m2 0h3m1 0h1m1 0h1m1 0h2m1 0h1m2 0h1m1 0h3m1 0h1M4 9.5h1m5 0h1m2 0h10m3 0h3m1 0h3m3 0h2m4 0h1m2 0h3m3 0h6m1 0h1m3 0h3m1 0h2m2 0h5m2 0h2m2 0h1m1 0h1m2 0h1m5 0h1M4 10.5h7m1 0h1m1 0h1m1 0h1m1 0h1m1 0h1m1 0h1m1 0h1m1 0h1m1 0h1m1 0h1m1 0h1m1 0h1m1 0h1m1 0h1m1 0h1m1 0h1m1 0h1m1 0h1m1 0h1m1 0h1m1 0h1m1 0h1m1 0h1m1 0h1m1 0h1m1 0h1m1 0h1m1 0h1m1 0h1m1 0h1m1 0h1m1 0h1m1 0h1m1 0h1m1 0h1m1 0h1m1 0h1m1 0h7M13 11.5h2m1 0h2m1 0h2m2 0h1m1 0h4m2 0h2m3 0h1m1 0h1m2 0h3m2 0h2m3 0h4m3 0h1m3 0h2m2 0h1m1 0h1m3 0h1m2 0h8M4 12.5h2m3 0h3m1 0h1m1 0h1m1 0h2m1 0h3m1 0h2m1 0h10m1 0h1m2 0h1m1 0h1m5 0h1m4 0h3m1 0h5m4 0h1m1 0h4m1 0h1m2 0h1m1 0h4m5 0h2M4 13.5h3m4 0h1m2 0h3m1 0h6m2 0h4m1 0h1m4 0h5m4 0h2m1 0h2m2 0h1m2 0h1m1 0h1m1 0h1m2 0h3m1 0h3m2 0h5m2 0h1m1 0h1m2 0h1m1 0h1m2 0h3m1 0h1M4 14.5h3m1 0h4m4 0h3m1 0h3m1 0h1m4 0h2m3 0h3m2 0h1m1 0h2m1 0h1m5 0h3m1 0h2m1 0h1m2 0h2m3 0h2m1 0h2m2 0h2m1 0h2m4 0h3M7 15.5h2m3 0h3m4 0h1m2 0h1m4 0h2m1 0h1m1 0h1m2 0h1m2 0h3m1 0h1m4 0h1m3 0h2m1 0h1m1 0h1m1 0h2m1 0h2m1 0h2m3 0h1m2 0h1m4 0h4m4 0h1m3 0h1M4 16.5h4m2 0h1m3 0h1m1 0h1m2 0h1m1 0h2m1 0h2m2 0h1m1 0h1m1 0h1m1 0h3m1 0h1m1 0h5m2 0h4m4 0h4m3 0h1m1 0h1m3 0h1m1 0h3m2 0h2m1 0h1m1 0h1m1 0h1m1 0h3m2 0h2M5 17.5h3m1 0h1m1 0h2m2 0h1m5 0h2m5 0h5m2 0h1m1 0h1m1 0h2m2 0h2m5 0h1m1 0h1m1 0h1m3 0h3m2 0h2m1 0h1m3 0h4m1 0h1m5 0h1m1 0h1m2 0h1m1 0h3m1 0h1M8 18.5h4m1 0h1m1 0h9m1 0h1m2 0h1m3 0h1m4 0h2m1 0h1m4 0h5m2 0h1m1 0h1m1 0h1m1 0h1m1 0h1m2 0h1m3 0h1m1 0h1m1 0h2m2 0h1m1 0h1m3 0h3m1 0h1m2 0h1M6 19.5h1m2 0h1m1 0h1m1 0h2m4 0h1m1 0h2m1 0h3m1 0h1m1 0h2m2 0h1m1 0h2m1 0h1m1 0h2m2 0h3m1 0h4m2 0h1m2 0h4m4 0h3m1 0h2m1 0h2m2 0h1m2 0h1m2 0h4m2 0h1m1 0h1M6 20.5h1m3 0h1m5 0h1m2 0h1m1 0h2m1 0h2m3 0h1m2 0h2m1 0h2m1 0h1m3 0h1m1 0h2m3 0h5m1 0h1m2 0h1m1 0h1m4 0h3m2 0h1m1 0h3m1 0h1m1 0h1m4 0h3m3 0h1m1 0h1M4 21.5h6m2 0h1m1 0h3m1 0h4m1 0h1m1 0h1m2 0h1m8 0h1m1 0h3m3 0h3m2 0h1m3 0h1m1 0h1m3 0h2m1 0h2m3 0h3m1 0h3m4 0h1m1 0h1m2 0h1m1 0h1m3 0h1m1 0h1M4 22.5h1m2 0h4m5 0h1m1 0h1m3 0h2m1 0h1m1 0h3m7 0h1m2 0h1m1 0h1m1 0h2m2 0h5m1 0h3m1 0h3m1 0h1m3 0h2m2 0h1m2 0h1m7 0h1m1 0h2m1 0h1m2 0h3M4 23.5h1m1 0h2m3 0h1m6 0h2m3 0h1m2 0h4m6 0h2m1 0h1m1 0h1m1 0h6m2 0h2m2 0h1m4 0h1m1 0h1m1 0h5m1 0h1m2 0h1m2 0h3m1 0h1m2 0h2m1 0h2m1 0h1m2 0h1M5 24.5h4m1 0h1m8 0h2m1 0h1m3 0h1m3 0h2m1 0h5m1 0h1m1 0h1m2 0h4m1 0h1m6 0h2m2 0h6m1 0h1m1 0h1m1 0h2m2 0h1m2 0h1m3 0h2m2 0h7M4 25.5h1m2 0h3m2 0h2m1 0h3m1 0h3m2 0h1m1 0h3m2 0h4m2 0h2m3 0h5m1 0h1m4 0h1m4 0h2m2 0h1m5 0h3m2 0h1m2 0h1m2 0h1m1 0h1m3 0h2m1 0h3M5 26.5h1m4 0h3m1 0h2m2 0h2m2 0h1m2 0h3m1 0h2m5 0h1m5 0h4m9 0h1m1 0h1m2 0h1m1 0h1m1 0h1m1 0h2m3 0h4m1 0h2m1 0h1m1 0h1m1 0h2M5 27.5h2m1 0h2m1 0h1m2 0h2m1 0h1m2 0h4m1 0h1m1 0h3m1 0h1m4 0h1m2 0h2m2 0h3m2 0h1m1 0h1m1 0h2m2 0h2m1 0h1m3 0h3m1 0h4m2 0h4m1 0h2m2 0h1m4 0h1m1 0h3M4 28.5h1m5 0h3m3 0h1m1 0h1m2 0h1m1 0h1m1 0h1m1 0h1m4 0h1m1 0h1m1 0h1m6 0h1m10 0h1m3 0h2m1 0h3m1 0h4m1 0h2m1 0h1m1 0h3m4 0h2m3 0h1m1 0h1m2 0h1M4 29.5h1m4 0h1m3 0h2m1 0h3m4 0h1m3 0h2m1 0h1m2 0h3m1 0h1m3 0h1m4 0h1m2 0h3m1 0h1m2 0h1m2 0h5m1 0h3m3 0h1m2 0h1m4 0h2m1 0h1m1 0h2m1 0h1m2 0h1m1 0h1M5 30.5h7m2 0h1m1 0h2m2 0h2m1 0h2m3 0h1m2 0h1m2 0h3m2 0h3m2 0h4m2 0h1m1 0h1m1 0h1m2 0h3m1 0h2m2 0h5m1 0h1m2 0h1m2 0h1m1 0h6m1 0h2m3 0h1M4 31.5h1m1 0h4m3 0h1m3 0h3m1 0h3m1 0h1m1 0h1m3 0h1m2 0h1m2 0h2m1 0h1m1 0h1m3 0h3m3 0h1m2 0h1m3 0h2m1 0h1m3 0h1m1 0h1m1 0h1m3 0h1m1 0h1m1 0h1m1 0h5m4 0h2m1 0h1M4 32.5h10m2 0h3m1 0h1m7 0h10m2 0h4m1 0h3m2 0h1m2 0h2m2 0h10m1 0h1m1 0h2m1 0h1m1 0h2m2 0h3m1 0h6m1 0h1M5 33.5h2m1 0h1m3 0h1m3 0h1m1 0h4m2 0h1m1 0h1m4 0h2m3 0h1m1 0h5m1 0h2m1 0h1m1 0h1m6 0h3m3 0h4m1 0h3m1 0h1m1 0h3m1 0h3m1 0h1m1 0h2m3 0h1M6 34.5h1m1 0h1m1 0h1m1 0h1m5 0h4m1 0h2m1 0h7m1 0h1m1 0h1m3 0h1m1 0h2m1 0h1m1 0h3m1 0h1m5 0h2m1 0h1m1 0h2m2 0h4m1 0h1m1 0h1m1 0h1m2 0h1m1 0h1m1 0h3m1 0h1m1 0h2m1 0h2M5 35.5h1m2 0h1m3 0h1m1 0h1m1 0h1m3 0h1m6 0h1m1 0h1m1 0h2m3 0h1m3 0h1m3 0h7m1 0h1m1 0h1m3 0h1m3 0h1m1 0h3m4 0h2m3 0h1m3 0h1m2 0h2m3 0h1m1 0h1m1 0h1M7 36.5h6m1 0h1m1 0h2m2 0h1m1 0h1m1 0h2m3 0h2m1 0h5m3 0h7m2 0h3m2 0h3m1 0h5m1 0h4m4 0h2m2 0h3m2 0h1m2 0h5m1 0h3M4 37.5h2m1 0h1m4 0h1m1 0h4m2 0h1m1 0h1m1 0h3m2 0h1m1 0h3m2 0h1m3 0h2m1 0h1m1 0h2m1 0h1m2 0h1m1 0h1m3 0h4m2 0h2m1 0h5m2 0h1m1 0h1m3 0h5m1 0h1m1 0h2M5 38.5h6m5 0h1m1 0h1m2 0h1m2 0h1m1 0h1m3 0h2m2 0h1m2 0h1m2 0h6m2 0h1m5 0h1m4 0h3m2 0h2m2 0h3m2 0h2m1 0h2m1 0h1m3 0h2m5 0h3M4 39.5h4m1 0h1m1 0h4m2 0h1m1 0h1m1 0h6m1 0h1m2 0h1m1 0h1m1 0h1m1 0h2m4 0h1m1 0h2m2 0h1m1 0h4m2 0h4m1 0h1m2 0h1m1 0h1m1 0h3m2 0h2m1 0h1m1 0h1m10 0h1m1 0h1M4 40.5h1m1 0h1m3 0h1m1 0h3m1 0h4m2 0h6m1 0h2m1 0h1m4 0h3m1 0h3m1 0h1m1 0h2m1 0h5m2 0h1m2 0h1m1 0h5m1 0h1m1 0h2m1 0h2m1 0h6m4 0h1m2 0h1m1 0h1M5 41.5h1m1 0h2m4 0h4m1 0h2m1 0h1m1 0h1m2 0h2m4 0h1m3 0h1m1 0h1m2 0h4m2 0h4m1 0h4m4 0h1m3 0h1m1 0h2m6 0h1m2 0h4m7 0h5M5 42.5h1m1 0h2m1 0h2m4 0h4m2 0h2m3 0h2m2 0h5m3 0h5m1 0h1m1 0h1m1 0h1m2 0h1m2 0h1m4 0h4m1 0h1m2 0h3m1 0h1m2 0h2m7 0h1m1 0h5M4 43.5h5m3 0h2m1 0h1m1 0h3m2 0h1m1 0h1m3 0h3m1 0h3m2 0h1m2 0h2m1 0h6m1 0h1m1 0h4m1 0h1m3 0h2m1 0h4m1 0h2m2 0h1m3 0h1m2 0h2m2 0h1m2 0h1m2 0h3M6 44.5h3m1 0h3m1 0h1m1 0h1m2 0h2m2 0h1m1 0h2m2 0h3m2 0h1m1 0h2m1 0h1m2 0h3m2 0h1m2 0h1m1 0h2m3 0h2m1 0h3m1 0h2m2 0h2m2 0h4m1 0h1m3 0h1m2 0h3m1 0h1M4 45.5h2m3 0h1m2 0h4m1 0h3m1 0h4m2 0h3m2 0h1m1 0h1m2 0h2m4 0h1m1 0h1m1 0h1m2 0h2m1 0h1m1 0h1m3 0h1m2 0h3m5 0h2m1 0h1m5 0h1m1 0h1m2 0h2m1 0h4m1 0h1M6 46.5h2m1 0h3m2 0h4m1 0h1m2 0h1m2 0h1m1 0h2m2 0h2m1 0h2m1 0h1m2 0h1m1 0h1m1 0h4m2 0h2m2 0h7m1 0h2m1 0h2m4 0h1m1 0h5m1 0h2m3 0h1m2 0h1m1 0h4M4 47.5h4m1 0h1m2 0h3m1 0h2m1 0h1m2 0h1m1 0h1m1 0h1m2 0h2m2 0h2m1 0h4m2 0h4m2 0h1m3 0h1m1 0h2m8 0h2m2 0h2m3 0h1m1 0h1m6 0h2m2 0h1m1 0h2m1 0h2M4 48.5h1m1 0h2m1 0h2m1 0h1m2 0h1m1 0h2m1 0h3m2 0h1m2 0h1m3 0h2m1 0h1m3 0h2m1 0h5m1 0h1m1 0h1m1 0h2m1 0h1m1 0h2m5 0h1m1 0h3m3 0h1m3 0h4m1 0h5m5 0h2M6 49.5h3m4 0h1m3 0h1m1 0h1m1 0h1m2 0h2m3 0h2m1 0h2m1 0h1m2 0h1m1 0h1m1 0h3m2 0h1m3 0h1m3 0h1m1 0h1m1 0h3m2 0h3m1 0h1m2 0h1m1 0h4m4 0h1m1 0h4m3 0h1m1 0h1M5 50.5h2m3 0h1m6 0h1m3 0h2m2 0h1m2 0h1m4 0h2m1 0h6m2 0h3m3 0h1m1 0h1m1 0h1m2 0h2m1 0h5m1 0h1m1 0h2m2 0h5m2 0h1m4 0h1m2 0h3m1 0h2M6 51.5h4m1 0h1m1 0h2m1 0h2m3 0h1m1 0h1m5 0h2m4 0h4m2 0h1m1 0h1m2 0h1m3 0h7m1 0h3m3 0h2m1 0h1m2 0h1m2 0h1m1 0h4m2 0h1m1 0h3m2 0h2m2 0h1M4 52.5h1m2 0h2m1 0h1m4 0h2m1 0h3m3 0h1m2 0h4m1 0h2m1 0h3m2 0h1m1 0h2m6 0h2m1 0h1m3 0h3m1 0h2m1 0h2m5 0h4m1 0h1m1 0h7m1 0h5M9 53.5h1m1 0h1m1 0h1m2 0h1m2 0h2m1 0h2m2 0h2m1 0h1m2 0h1m7 0h2m2 0h1m1 0h3m1 0h1m1 0h2m1 0h1m1 0h1m3 0h1m1 0h1m2 0h2m2 0h3m1 0h1m1 0h1m1 0h3m4 0h1m1 0h1m4 0h1M4 54.5h1m4 0h2m1 0h2m4 0h3m1 0h1m1 0h5m1 0h3m1 0h1m3 0h1m1 0h2m1 0h2m1 0h1m3 0h1m1 0h2m1 0h4m1 0h1m2 0h2m1 0h3m4 0h2m1 0h3m1 0h2m2 0h1m1 0h1m2 0h2m1 0h1M8 55.5h2m1 0h1m1 0h2m1 0h2m2 0h3m1 0h1m1 0h1m1 0h3m1 0h1m3 0h1m2 0h1m3 0h2m1 0h3m5 0h1m7 0h1m1 0h1m4 0h2m1 0h3m3 0h1m2 0h3m2 0h3m1 0h1M6 56.5h2m2 0h4m2 0h2m2 0h1m1 0h1m1 0h3m1 0h3m3 0h3m3 0h2m1 0h1m1 0h1m10 0h1m1 0h1m1 0h1m2 0h1m3 0h2m4 0h1m1 0h1m1 0h2m1 0h1m1 0h1m4 0h4m1 0h1M4 57.5h4m1 0h1m3 0h3m1 0h1m1 0h5m3 0h1m1 0h1m1 0h1m1 0h3m1 0h4m1 0h1m1 0h1m2 0h1m1 0h4m2 0h3m2 0h1m3 0h1m7 0h1m2 0h2m1 0h1m4 0h3m1 0h1m2 0h1M4 58.5h1m1 0h1m1 0h5m2 0h1m9 0h1m1 0h2m3 0h5m7 0h3m3 0h6m1 0h8m2 0h2m2 0h1m1 0h1m2 0h3m1 0h1m2 0h7m1 0h2M5 59.5h2m1 0h1m3 0h1m1 0h1m3 0h2m1 0h3m2 0h3m1 0h1m1 0h1m3 0h1m3 0h3m4 0h2m1 0h1m2 0h3m1 0h2m3 0h1m1 0h1m1 0h1m2 0h3m3 0h1m2 0h1m3 0h1m1 0h1m3 0h5M4 60.5h1m3 0h1m1 0h1m1 0h1m4 0h1m1 0h6m1 0h1m1 0h2m2 0h1m1 0h1m1 0h1m1 0h1m1 0h4m1 0h4m2 0h4m3 0h1m1 0h1m1 0h4m3 0h2m6 0h2m1 0h1m1 0h3m1 0h1m1 0h2m1 0h1M4 61.5h2m1 0h2m3 0h1m1 0h1m3 0h1m1 0h1m1 0h3m1 0h1m2 0h1m2 0h1m3 0h1m3 0h1m4 0h1m1 0h6m1 0h3m1 0h1m3 0h2m3 0h2m1 0h2m1 0h1m3 0h1m3 0h2m1 0h1m3 0h2m2 0h1M8 62.5h6m2 0h1m1 0h5m1 0h1m1 0h1m1 0h2m2 0h5m2 0h4m1 0h2m3 0h3m1 0h1m1 0h1m2 0h5m1 0h1m1 0h1m3 0h3m1 0h1m1 0h2m6 0h7M4 63.5h4m5 0h2m2 0h1m2 0h2m1 0h1m2 0h2m1 0h2m3 0h2m1 0h1m1 0h2m5 0h1m2 0h1m1 0h3m1 0h2m1 0h3m1 0h1m1 0h2m1 0h2m4 0h5m2 0h1m3 0h3m5 0h1M5 64.5h1m2 0h7m1 0h1m2 0h1m5 0h1m1 0h1m2 0h1m2 0h1m3 0h1m2 0h1m1 0h1m2 0h1m2 0h2m1 0h4m1 0h4m2 0h7m3 0h3m2 0h1m1 0h1m1 0h2m3 0h1m1 0h2m2 0h1M7 65.5h3m1 0h1m1 0h7m1 0h1m1 0h1m1 0h1m2 0h1m1 0h2m1 0h1m3 0h3m1 0h1m1 0h5m3 0h1m3 0h1m1 0h1m2 0h3m2 0h5m1 0h1m3 0h3m2 0h2m1 0h3m1 0h1m1 0h2M5 66.5h1m1 0h5m2 0h1m1 0h1m4 0h2m3 0h1m2 0h1m1 0h2m2 0h1m1 0h2m1 0h4m6 0h2m1 0h1m1 0h1m2 0h3m2 0h1m1 0h2m2 0h2m1 0h1m1 0h1m1 0h2m5 0h1m1 0h1m2 0h2m1 0h1M5 67.5h1m3 0h1m1 0h1m1 0h1m2 0h1m3 0h2m2 0h4m2 0h3m6 0h4m1 0h3m3 0h8m1 0h2m1 0h2m1 0h2m3 0h1m1 0h1m1 0h4m1 0h1m1 0h1m4 0h1m1 0h1m3 0h1M4 68.5h5m1 0h2m1 0h1m3 0h4m1 0h1m1 0h1m1 0h1m1 0h1m2 0h2m1 0h4m1 0h1m7 0h1m1 0h1m1 0h2m1 0h5m1 0h1m6 0h2m1 0h1m1 0h1m1 0h1m1 0h1m2 0h6m1 0h3m1 0h2M4 69.5h3m5 0h2m1 0h1m2 0h1m1 0h2m4 0h2m2 0h2m2 0h2m3 0h3m3 0h1m2 0h2m1 0h2m1 0h3m1 0h1m2 0h9m1 0h2m4 0h4m3 0h1m1 0h1m2 0h1m1 0h1M4 70.5h1m2 0h4m2 0h2m2 0h2m2 0h1m1 0h3m2 0h1m1 0h1m1 0h2m1 0h1m1 0h1m1 0h1m2 0h2m1 0h1m1 0h1m2 0h1m2 0h1m1 0h5m1 0h1m2 0h3m1 0h3m1 0h2m1 0h1m4 0h2m1 0h6M4 71.5h3m2 0h1m4 0h2m1 0h2m2 0h1m1 0h2m3 0h4m2 0h2m1 0h2m1 0h3m2 0h3m1 0h2m5 0h1m1 0h1m2 0h1m4 0h2m1 0h1m4 0h1m2 0h2m1 0h1m2 0h4m1 0h1m3 0h1M4 72.5h2m1 0h4m1 0h2m2 0h1m1 0h1m3 0h3m1 0h1m11 0h1m3 0h1m1 0h3m2 0h1m1 0h3m1 0h1m2 0h2m3 0h3m1 0h2m2 0h3m2 0h2m1 0h1m7 0h2M6 73.5h4m2 0h1m1 0h1m2 0h5m1 0h1m2 0h3m2 0h1m1 0h1m2 0h1m1 0h1m1 0h1m1 0h1m1 0h1m1 0h1m2 0h5m2 0h1m1 0h1m1 0h5m2 0h4m1 0h3m2 0h3m1 0h2m1 0h1m3 0h1m1 0h1M8 74.5h1m1 0h3m1 0h1m2 0h2m2 0h2m2 0h3m1 0h2m1 0h2m2 0h1m2 0h3m11 0h2m2 0h2m2 0h4m1 0h2m2 0h1m7 0h3m3 0h2m3 0h2M6 75.5h2m1 0h1m4 0h1m1 0h2m1 0h2m2 0h1m1 0h4m3 0h1m2 0h3m1 0h3m1 0h5m1 0h1m2 0h1m2 0h1m2 0h2m1 0h3m1 0h2m5 0h1m2 0h1m1 0h1m2 0h3m2 0h2m3 0h3M4 76.5h1m1 0h2m1 0h2m3 0h2m3 0h1m2 0h1m1 0h3m1 0h1m3 0h1m1 0h4m1 0h1m2 0h1m3 0h2m1 0h1m1 0h1m4 0h1m4 0h2m1 0h2m2 0h1m2 0h1m1 0h4m2 0h2m1 0h2m1 0h1m2 0h1M4 77.5h4m3 0h5m4 0h2m3 0h3m1 0h1m5 0h1m3 0h1m2 0h2m1 0h1m7 0h2m1 0h2m1 0h1m1 0h2m1 0h1m2 0h3m2 0h1m1 0h1m5 0h2m1 0h1m4 0h1m1 0h1M5 78.5h1m4 0h2m2 0h1m2 0h1m8 0h6m2 0h1m2 0h1m1 0h1m2 0h5m1 0h1m4 0h3m1 0h1m3 0h1m1 0h1m3 0h2m1 0h2m1 0h1m1 0h2m1 0h3m1 0h1m2 0h1m1 0h1m2 0h1m1 0h1M9 79.5h1m2 0h1m3 0h2m1 0h2m1 0h2m1 0h1m1 0h2m8 0h2m2 0h1m4 0h1m1 0h1m1 0h2m1 0h3m1 0h1m2 0h1m2 0h3m3 0h1m1 0h4m2 0h4m2 0h3m1 0h1m2 0h3M4 80.5h2m2 0h1m1 0h1m1 0h1m1 0h1m1 0h1m1 0h3m6 0h1m1 0h2m2 0h4m4 0h1m2 0h2m1 0h1m1 0h1m1 0h1m1 0h3m2 0h2m1 0h1m9 0h3m1 0h1m2 0h1m4 0h1m4 0h1m1 0h1M4 81.5h1m2 0h1m3 0h1m2 0h2m3 0h3m2 0h1m1 0h1m1 0h2m1 0h1m4 0h3m2 0h1m2 0h1m2 0h2m1 0h1m1 0h1m2 0h1m4 0h3m2 0h3m4 0h1m1 0h1m1 0h1m1 0h1m1 0h1m1 0h2m1 0h2m2 0h1m1 0h1M4 82.5h1m2 0h1m2 0h2m1 0h4m3 0h2m1 0h2m1 0h1m2 0h2m3 0h1m1 0h1m1 0h2m2 0h1m1 0h2m1 0h1m1 0h2m2 0h3m1 0h1m2 0h1m1 0h2m1 0h1m3 0h1m1 0h4m1 0h4m2 0h2m1 0h1m1 0h3m1 0h1M4 83.5h2m2 0h2m1 0h1m1 0h2m1 0h2m6 0h1m2 0h6m1 0h2m1 0h1m1 0h1m2 0h1m1 0h3m3 0h1m2 0h1m1 0h3m1 0h1m1 0h1m1 0h2m2 0h4m2 0h1m2 0h1m3 0h1m5 0h1m2 0h1m1 0h1M4 84.5h1m2 0h1m2 0h1m1 0h1m1 0h1m1 0h2m2 0h1m1 0h2m2 0h1m1 0h1m1 0h7m2 0h1m1 0h2m3 0h1m2 0h1m2 0h2m1 0h9m2 0h4m3 0h1m1 0h2m1 0h2m2 0h7M12 85.5h3m1 0h2m2 0h1m1 0h1m3 0h4m1 0h2m3 0h1m3 0h1m1 0h1m2 0h1m1 0h1m1 0h2m1 0h3m1 0h3m3 0h1m1 0h1m4 0h1m1 0h1m2 0h1m1 0h2m6 0h1m3 0h1m1 0h1m1 0h1M4 86.5h7m1 0h2m5 0h4m2 0h2m4 0h2m1 0h1m1 0h3m1 0h3m1 0h1m1 0h1m2 0h1m1 0h1m1 0h2m1 0h1m1 0h1m1 0h1m1 0h1m6 0h7m1 0h1m2 0h3m1 0h1m1 0h1m1 0h1m2 0h1M4 87.5h1m5 0h1m1 0h1m2 0h1m1 0h3m1 0h1m1 0h1m7 0h2m3 0h1m3 0h2m6 0h4m2 0h1m2 0h2m3 0h2m2 0h3m6 0h5m3 0h2m3 0h5M4 88.5h1m1 0h3m1 0h1m4 0h1m1 0h1m6 0h1m1 0h1m1 0h2m1 0h8m3 0h1m1 0h2m1 0h1m1 0h4m1 0h1m3 0h7m4 0h1m2 0h3m1 0h1m1 0h3m1 0h7m1 0h2M4 89.5h1m1 0h3m1 0h1m3 0h3m3 0h1m1 0h2m2 0h3m2 0h3m1 0h2m2 0h2m1 0h3m1 0h4m3 0h1m2 0h4m2 0h1m1 0h2m1 0h3m1 0h1m1 0h1m3 0h2m1 0h1m2 0h2m1 0h2M4 90.5h1m1 0h3m1 0h1m4 0h3m1 0h1m1 0h2m2 0h1m1 0h1m2 0h1m2 0h2m1 0h1m4 0h4m1 0h4m1 0h1m2 0h4m3 0h1m2 0h1m2 0h1m4 0h1m1 0h2m3 0h1m1 0h2m3 0h1m2 0h1m1 0h1M4 91.5h1m5 0h1m1 0h1m1 0h2m3 0h1m1 0h3m1 0h1m5 0h2m1 0h2m3 0h1m2 0h2m3 0h1m3 0h2m1 0h2m3 0h2m8 0h1m1 0h3m2 0h4m1 0h1m1 0h1m2 0h1m1 0h1m1 0h1m1 0h1M4 92.5h7m1 0h2m2 0h3m5 0h2m1 0h2m2 0h2m1 0h1m1 0h2m1 0h1m5 0h1m1 0h1m2 0h1m1 0h1m1 0h1m1 0h3m2 0h2m3 0h2m1 0h1m1 0h2m2 0h1m1 0h1m4 0h2m3 0h1m1 0h1"/></svg>
