<svg xmlns="http://www.w3.org/2000/svg" viewBox="0 0 109 109" shape-rendering="crispEdges"><path fill="#ffffff" d="M0 0h109v109H0z"/><path stroke="#000000" d="M4 4.5h7m4 0h2m1 0h1m1 0h1m1 0h2m3 0h2m1 0h1m2 0h4m2 0h4m3 0h1m2 0h2m2 0h1m3 0h1m6 0h1m2 0h1m2 0h1m2 0h1m1 0h1m5 0h1m1 0h2m2 0h1m1 0h2m1 0h1m1 0h2m2 0h7M4 5.5h1m5 0h1m1 0h6m1 0h1m1 0h3m1 0h1m2 0h1m2 0h3m2 0h4m2 0h2m2 0h1m1 0h2m1 0h2m1 0h2m2 0h1m1 0h4m2 0h1m1 0h2m3 0h1m1 0h2m10 0h2m2 0h1m1 0h1m4 0h1m5 0h1M4 6.5h1m1 0h3m1 0h1m2 0h1m1 0h1m1 0h4m1 0h3m1 0h1m3 0h2m2 0h2m1 0h2m1 0h2m3 0h1m1 0h1m4 0h2m2 0h2m1 0h2m6 0h3m1 0h1m1 0h2m1 0h4m1 0h1m1 0h1m2 0h4m3 0h1m1 0h1m2 0h1m1 0h3m1 0h1M4 7.5h1m1 0h3m1 0h1m1 0h2m1 0h1m3 0h1m2 0h1m3 0h1m1 0h2m1 0h1m2 0h1m3 0h6m3 0h1m2 0h2m3 0h1m5 0h1m2 0h2m2 0h3m1 0h3m1 0h2m4 0h1m1 0h1m2 0h1m2 0h2m2 0h2m2 0h1m1 0h3m1 0h1M4 8.5h1m1 0h3m1 0h1m2 0h4m3 0h1m1 0h2m1 0h2m2 0h6m1 0h1m2 0h1m1 0h1m3 0h5m2 0h5m1 0h2m3 0h1m8 0h1m1 0h6m1 0h1m1 0h2m1 0h1m1 0h1m1 0h5m1 0h1m1 0h1m1 0h3m1 0h1M4 9.5h1m5 0h1m1 0h2m1 0h1m2 0h1m1 0h6m2 0h3m3 0h1m2 0h1m1 0h1m5 0h2m5 0h1m3 0h1m1 0h1m1 0h1m1 0h1m1 0h5m1 0h1m3 0h1m3 0h1m1 0h1m4 0h3m1 0h1m1 0h3m1 0h1m2 0h1m5 0h1M4 10.5h7m1 0h1m1 0h1m1 0h1m1 0h1m1 0h1m1 0h1m1 0h1m1 0h1m1 0h1m1 0h1m1 0h1m1 0h1m1 0h1m1 0h1m1 0h1m1 0h1m1 0h1m1 0h1m1 0h1m1 0h1m1 0h1m1 0h1m1 0h1m1 0h1m1 0h1m1 0h1m1 0h1m1 0h1m1 0h1m1 0h1m1 0h1m1 0h1m1 0h1m1 0h1m1 0h1m1 0h1m1 0h1m1 0h1m1 0h1m1 0h1m1 0h1m1 0h1m1 0h1m1 0h7M14 11.5h1m1 0h3m2 0h2m1 0h1m1 0h2m1 0h2m3 0h3m1 0h1m2 0h1m1 0h2m4 0h2m1 0h1m3 0h1m1 0h2m1 0h2m7 0h1m2 0h2m3 0h6m10 0h1m1 0h1M4 12.5h5m1 0h3m3 0h1m6 0h1m1 0h1m2 0h1m1 0h6m1 0h1m2 0h3m1 0h5m1 0h7m3 0h1m1 0h1m3 0h1m2 0h1m1 0h1m2 0h6m1 0h2m2 0h1m1 0h1m2 0h1m6 0h1m1 0h1m1 0h1m1 0h1M6 13.5h4m2 0h1m7 0h2m2 0h1m5 0h2m2 0h1m1 0h1m2 0h1m3 0h2m1 0h1m1 0h3m1 0h1m4 0h2m1 0h5m1 0h2m1 0h3m3 0h3m1 0h1m1 0h4m1 0h1m1 0h1m5 0h4m2 0h2m1 0h1M5 14.5h2m1 0h6m1 0h1m1 0h2m3 0h1m3 0h2m1 0h1m4 0h1m1 0h1m1 0h1m1 0h5m1 0h2m4 0h3m6 0h3m1 0h4m3 0h2m3 0h1m1 0h1m3 0h1m2 0h1m3 0h2m6 0h1m5 0h1M7 15.5h2m5 0h2m1 0h2m2 0h3m2 0h1m1 0h4m2 0h1m2 0h1m1 0h2m7 0h1m6 0h1m1 0h6m1 0h1m1 0h1m1 0h2m1 0h1m2 0h1m2 0h2m2 0h1m2 0h2m1 0h1m1 0h1m4 0h1m2 0h1m1 0h1m2 0h3M4 16.5h5m1 0h1m1 0h1m1 0h1m1 0h2m4 0h2m4 0h2m4 0h1m1 0h5m2 0h1m3 0h2m1 0h1m1 0h2m1 0h1m1 0h2m1 0h2m2 0h1m7 0h1m2 0h2m3 0h1m1 0h1m1 0h2m1 0h1m4 0h3m1 0h3m1 0h1m2 0h1M4 17.5h4m5 0h1m1 0h3m1 0h2m1 0h1m1 0h2m1 0h1m2 0h1m5 0h3m2 0h1m2 0h1m2 0h1m11 0h2m1 0h5m2 0h1m1 0h1m1 0h2m2 0h4m1 0h1m1 0h1m2 0h1m1 0h4m2 0h3m1 0h1m3 0h1M4 18.5h3m1 0h1m1 0h3m1 0h1m5 0h2m2 0h1m1 0h5m1 0h1m1 0h1m1 0h3m5 0h6m1 0h3m1 0h1m1 0h2m4 0h3m1 0h1m2 0h1m3 0h2m1 0h1m3 0h1m1 0h2m2 0h1m1 0h1m2 0h3m3 0h1m2 0h2M4 19.5h2m2 0h1m3 0h2m4 0h2m1 0h5m2 0h1m1 0h2m1 0h1m1 0h2m1 0h2m3 0h2m2 0h1m1 0h2m1 0h1m1 0h3m1 0h2m2 0h3m3 0h1m1 0h3m6 0h3m1 0h3m1 0h2m3 0h1m1 0h1m1 0h6m2 0h1M5 20.5h2m1 0h1m1 0h1m1 0h3m3 0h5m3 0h5m2 0h3m3 0h1m2 0h1m3 0h1m1 0h2m1 0h1m4 0h3m2 0h3m1 0h1m1 0h2m2 0h2m1 0h1m1 0h1m4 0h3m1 0h2m1 0h2m5 0h2m1 0h1m1 0h1m1 0h1M6 21.5h2m3 0h1m1 0h1m1 0h1m2 0h1m2 0h3m1 0h2m1 0h1m3 0h2m1 0h1m2 0h5m1 0h1m2 0h1m1 0h1m3 0h1m1 0h4m2 0h3m1 0h1m1 0h6m5 0h3m4 0h3m1 0h2m2 0h2m2 0h1m2 0h2M4 22.5h1m1 0h6m1 0h1m6 0h3m1 0h1m1 0h2m3 0h1m1 0h1m1 0h5m2 0h1m1 0h1m1 0h1m1 0h2m2 0h4m4 0h1m2 0h8m1 0h1m2 0h1m3 0h1m1 0h2m2 0h1m1 0h1m2 0h2m2 0h1m1 0h2m5 0h1M4 23.5h1m2 0h3m3 0h2m2 0h2m1 0h1m2 0h1m1 0h1m7 0h2m2 0h2m1 0h2m4 0h3m3 0h1m5 0h4m3 0h2m2 0h3m4 0h2m2 0h2m2 0h1m2 0h4m1 0h1m1 0h1m2 0h2m1 0h1m1 0h2M4 24.5h1m1 0h1m3 0h3m3 0h1m1 0h3m5 0h1m3 0h1m7 0h1m4 0h1m3 0h3m1 0h1m2 0h1m3 0h1m1 0h1m2 0h2m2 0h1m2 0h1m1 0h3m1 0h2m3 0h1m2 0h1m1 0h1m3 0h3m3 0h1m3 0h1m1 0h1M5 25.5h3m3 0h3m1 0h1m3 0h2m2 0h1m2 0h3m1 0h1m1 0h1m2 0h2m1 0h5m2 0h1m2 0h1m1 0h5m2 0h5m2 0h3m1 0h1m1 0h4m1 0h3m2 0h1m1 0h1m1 0h2m1 0h1m5 0h1m1 0h1m4 0h1m2 0h2M5 26.5h1m2 0h1m1 0h1m2 0h1m3 0h1m2 0h4m2 0h1m1 0h1m5 0h1m2 0h4m1 0h1m1 0h1m1 0h2m2 0h1m1 0h1m1 0h1m4 0h1m3 0h1m1 0h1m1 0h1m5 0h3m2 0h3m2 0h3m2 0h2m2 0h12M6 27.5h1m1 0h1m2 0h2m2 0h1m1 0h2m1 0h1m1 0h3m1 0h2m1 0h3m3 0h1m2 0h1m2 0h1m1 0h1m1 0h1m1 0h1m4 0h2m2 0h2m1 0h1m2 0h1m4 0h3m1 0h1m1 0h2m1 0h1m2 0h3m2 0h2m6 0h1m1 0h1m5 0h2m1 0h2M6 28.5h1m1 0h3m1 0h1m2 0h2m4 0h1m2 0h2m2 0h2m7 0h1m5 0h2m1 0h3m1 0h1m1 0h4m1 0h1m1 0h3m1 0h4m1 0h2m2 0h1m1 0h4m2 0h2m1 0h1m1 0h1m1 0h2m1 0h2m4 0h2m1 0h2M4 29.5h3m1 0h2m2 0h1m5 0h3m1 0h1m1 0h1m2 0h1m1 0h3m1 0h2m2 0h3m4 0h3m4 0h1m1 0h2m1 0h1m3 0h1m1 0h1m3 0h8m1 0h2m1 0h4m1 0h1m2 0h1m1 0h1m1 0h2m1 0h1m2 0h1m1 0h1m1 0h2m2 0h1M8 30.5h9m1 0h2m2 0h1m1 0h1m1 0h2m2 0h5m5 0h2m1 0h1m1 0h2m2 0h8m1 0h2m1 0h1m3 0h1m4 0h3m1 0h5m2 0h2m3 0h3m2 0h2m3 0h5m1 0h3M6 31.5h3m3 0h1m1 0h4m1 0h1m1 0h1m1 0h1m2 0h1m3 0h1m3 0h1m1 0h1m2 0h4m4 0h1m1 0h2m1 0h1m3 0h2m3 0h2m3 0h1m1 0h2m4 0h1m3 0h1m1 0h1m2 0h2m1 0h2m1 0h1m6 0h1m3 0h4M6 32.5h3m1 0h1m1 0h2m1 0h1m3 0h2m1 0h1m1 0h1m2 0h2m1 0h1m1 0h1m1 0h1m2 0h1m1 0h5m1 0h1m2 0h1m3 0h1m1 0h1m1 0h2m6 0h2m2 0h1m1 0h1m3 0h1m1 0h1m1 0h4m1 0h2m1 0h1m2 0h1m3 0h1m2 0h1m1 0h1m1 0h1m2 0h2M4 33.5h5m3 0h1m1 0h6m1 0h1m1 0h1m1 0h2m2 0h2m3 0h2m1 0h2m1 0h1m1 0h2m2 0h1m1 0h1m1 0h1m1 0h1m3 0h6m1 0h1m1 0h1m1 0h1m2 0h1m1 0h1m1 0h1m3 0h1m5 0h2m4 0h1m5 0h1m3 0h1m1 0h2M4 34.5h10m2 0h4m3 0h1m3 0h2m1 0h5m2 0h3m4 0h4m4 0h5m1 0h4m2 0h2m1 0h3m1 0h1m1 0h6m2 0h2m1 0h2m3 0h4m2 0h7M4 35.5h1m7 0h7m2 0h1m2 0h2m1 0h3m1 0h2m5 0h2m1 0h2m1 0h3m1 0h1m1 0h1m3 0h1m1 0h3m1 0h1m4 0h2m2 0h2m1 0h1m1 0h2m2 0h3m1 0h3m1 0h2m5 0h1m3 0h2m2 0h1M4 36.5h1m1 0h1m2 0h2m1 0h1m2 0h3m1 0h3m5 0h1m4 0h2m2 0h3m2 0h2m3 0h5m3 0h1m1 0h4m1 0h2m2 0h1m1 0h3m3 0h1m3 0h1m2 0h1m1 0h1m1 0h1m6 0h1m1 0h2m1 0h1m1 0h1m1 0h1m1 0h2M5 37.5h3m1 0h1m1 0h2m2 0h3m1 0h1m1 0h2m1 0h1m1 0h1m1 0h1m1 0h1m2 0h4m3 0h2m1 0h1m1 0h1m1 0h2m1 0h4m1 0h1m2 0h1m1 0h1m1 0h1m1 0h1m1 0h1m2 0h2m1 0h1m4 0h1m1 0h1m1 0h2m1 0h1m2 0h3m1 0h2m1 0h1m1 0h5m1 0h1m1 0h1M4 38.5h1m4 0h7m3 0h2m1 0h2m2 0h1m1 0h2m2 0h1m2 0h3m1 0h2m1 0h1m1 0h1m2 0h3m1 0h2m1 0h2m4 0h1m2 0h1m2 0h1m1 0h4m1 0h4m2 0h1m12 0h1m2 0h3m2 0h3M6 39.5h1m1 0h2m1 0h1m5 0h4m1 0h3m3 0h2m2 0h1m1 0h8m1 0h2m3 0h3m2 0h6m2 0h1m1 0h3m1 0h2m3 0h1m1 0h1m1 0h1m3 0h1m8 0h4m1 0h1m2 0h2m3 0h1M5 40.5h1m1 0h1m2 0h3m3 0h3m5 0h3m2 0h3m1 0h3m7 0h5m1 0h2m1 0h3m1 0h2m8 0h1m4 0h1m1 0h1m1 0h1m1 0h4m6 0h1m2 0h1m1 0h3m2 0h1m4 0h3M4 41.5h3m2 0h1m1 0h4m1 0h1m4 0h1m1 0h4m5 0h1m2 0h1m3 0h2m4 0h1m1 0h4m2 0h2m3 0h2m1 0h1m5 0h1m1 0h2m1 0h3m1 0h5m2 0h5m1 0h5m1 0h1m2 0h4m2 0h1M7 42.5h1m1 0h2m2 0h1m2 0h6m1 0h4m1 0h1m1 0h3m2 0h1m1 0h1m3 0h2m1 0h1m1 0h1m4 0h1m4 0h2m1 0h1m3 0h1m2 0h2m3 0h1m1 0h1m2 0h1m1 0h1m1 0h1m1 0h1m1 0h1m1 0h1m1 0h2m1 0h2m3 0h2m1 0h1m1 0h1m2 0h1M4 43.5h1m1 0h1m1 0h2m1 0h1m1 0h1m1 0h2m4 0h2m1 0h1m4 0h3m2 0h1m3 0h1m1 0h1m2 0h1m3 0h1m3 0h1m3 0h1m2 0h1m2 0h1m2 0h1m1 0h2m1 0h1m7 0h3m2 0h2m1 0h1m1 0h1m1 0h2m1 0h1m3 0h1m3 0h4M5 44.5h1m1 0h1m2 0h1m1 0h2m3 0h2m2 0h1m2 0h1m2 0h1m1 0h1m3 0h3m1 0h2m2 0h2m1 0h3m3 0h3m1 0h3m1 0h1m2 0h1m2 0h4m1 0h3m1 0h1m1 0h1m1 0h2m1 0h1m1 0h1m1 0h1m1 0h1m1 0h1m1 0h1m2 0h2m6 0h1m1 0h1M7 45.5h2m2 0h1m3 0h4m5 0h2m2 0h1m4 0h3m1 0h4m1 0h2m3 0h1m5 0h3m2 0h2m1 0h1m1 0h1m1 0h3m2 0h2m12 0h3m1 0h4m1 0h4m1 0h2m1 0h1m1 0h1M7 46.5h1m1 0h3m2 0h2m2 0h1m2 0h1m3 0h1m6 0h1m2 0h2m2 0h4m2 0h3m1 0h2m1 0h1m1 0h1m1 0h1m1 0h2m1 0h1m1 0h4m3 0h2m4 0h1m4 0h7m8 0h4m1 0h2M4 47.5h1m2 0h1m1 0h1m1 0h5m1 0h1m2 0h2m3 0h5m2 0h3m1 0h2m4 0h2m1 0h1m5 0h2m2 0h2m1 0h1m1 0h2m2 0h3m2 0h4m2 0h7m2 0h1m3 0h9m3 0h2m1 0h2M4 48.5h2m1 0h4m2 0h1m1 0h1m1 0h2m1 0h1m1 0h1m1 0h1m1 0h2m1 0h1m3 0h1m2 0h1m3 0h3m2 0h1m2 0h1m1 0h3m1 0h3m1 0h2m1 0h1m5 0h1m1 0h1m1 0h1m1 0h3m2 0h2m1 0h2m1 0h1m1 0h1m1 0h1m2 0h2m1 0h2m3 0h1m2 0h2M6 49.5h4m3 0h1m1 0h1m3 0h1m1 0h2m2 0h1m1 0h2m4 0h1m1 0h1m2 0h1m10 0h1m2 0h2m3 0h4m3 0h3m1 0h4m4 0h2m1 0h1m2 0h2m3 0h3m1 0h1m1 0h2m4 0h1m2 0h3M4 50.5h5m1 0h6m9 0h2m1 0h1m2 0h2m3 0h2m2 0h1m3 0h5m3 0h1m2 0h2m1 0h2m2 0h1m2 0h1m2 0h4m1 0h3m4 0h1m1 0h1m7 0h1m7 0h1m1 0h1m2 0h2M4 51.5h2m1 0h1m3 0h2m1 0h1m2 0h1m2 0h1m1 0h1m1 0h4m1 0h2m1 0h2m1 0h1m1 0h2m3 0h2m1 0h3m2 0h1m2 0h1m1 0h3m3 0h2m1 0h1m1 0h3m1 0h1m3 0h2m1 0h1m1 0h3m1 0h3m1 0h1m1 0h4m1 0h1m3 0h2m1 0h1M4 52.5h3m1 0h6m2 0h2m4 0h1m1 0h2m3 0h6m2 0h1m1 0h1m1 0h2m1 0h2m1 0h12m2 0h2m2 0h1m1 0h1m1 0h1m4 0h7m2 0h1m5 0h3m4 0h5m1 0h2M4 53.5h5m3 0h1m2 0h1m1 0h3m3 0h1m3 0h1m2 0h1m3 0h1m6 0h1m1 0h1m1 0h2m1 0h2m1 0h2m3 0h2m1 0h2m2 0h3m1 0h1m2 0h2m1 0h2m3 0h1m2 0h1m2 0h7m3 0h1m1 0h1m3 0h1m2 0h1M5 54.5h1m1 0h2m1 0h1m1 0h2m3 0h1m4 0h1m2 0h1m1 0h2m1 0h1m1 0h1m1 0h1m1 0h8m1 0h2m1 0h3m1 0h1m1 0h1m1 0h2m3 0h2m11 0h1m1 0h1m1 0h1m6 0h2m1 0h1m1 0h4m2 0h1m1 0h1m1 0h1m1 0h3M4 55.5h1m1 0h1m1 0h1m3 0h2m1 0h5m1 0h2m4 0h2m1 0h1m3 0h1m1 0h1m6 0h2m1 0h7m3 0h2m2 0h1m2 0h3m1 0h3m2 0h1m1 0h1m3 0h4m3 0h2m6 0h1m2 0h1m3 0h3m1 0h1M6 56.5h7m2 0h1m3 0h1m1 0h2m2 0h3m1 0h9m1 0h1m2 0h1m3 0h1m3 0h1m1 0h5m1 0h2m5 0h1m3 0h2m1 0h12m1 0h1m1 0h2m2 0h1m2 0h7m1 0h2M7 57.5h2m3 0h1m4 0h1m1 0h3m1 0h4m1 0h1m2 0h1m2 0h2m1 0h3m2 0h2m1 0h1m1 0h1m1 0h1m2 0h4m2 0h1m2 0h2m3 0h1m4 0h2m4 0h4m1 0h3m2 0h1m1 0h1m2 0h2m3 0h1m1 0h1m4 0h1M5 58.5h4m1 0h4m1 0h2m1 0h2m1 0h4m3 0h2m1 0h3m4 0h2m2 0h4m6 0h2m6 0h3m1 0h1m4 0h7m2 0h2m2 0h1m1 0h3m2 0h1m5 0h2m1 0h1m2 0h1m1 0h1M9 59.5h1m1 0h2m2 0h2m8 0h1m2 0h1m2 0h1m1 0h1m4 0h1m1 0h1m2 0h3m1 0h1m1 0h1m5 0h1m4 0h3m1 0h2m1 0h2m1 0h1m2 0h1m1 0h3m2 0h3m1 0h1m1 0h1m2 0h2m1 0h3m3 0h1m1 0h3M4 60.5h2m2 0h5m1 0h1m3 0h1m1 0h3m1 0h1m4 0h1m1 0h1m1 0h1m1 0h3m1 0h1m1 0h3m5 0h2m1 0h1m1 0h1m2 0h1m1 0h2m1 0h1m3 0h3m1 0h1m3 0h2m1 0h1m1 0h1m3 0h1m1 0h2m1 0h1m1 0h1m1 0h3m1 0h2m1 0h1m1 0h4M7 61.5h1m3 0h2m1 0h1m1 0h3m1 0h1m1 0h3m4 0h4m1 0h1m1 0h1m2 0h1m3 0h1m1 0h7m1 0h2m2 0h2m1 0h2m1 0h1m2 0h5m1 0h1m1 0h1m1 0h1m1 0h1m3 0h3m2 0h1m1 0h1m3 0h2m3 0h1m1 0h1m2 0h1M4 62.5h7m1 0h2m4 0h1m2 0h1m1 0h1m4 0h8m1 0h1m1 0h1m2 0h1m8 0h1m4 0h1m4 0h3m2 0h1m1 0h1m2 0h1m1 0h1m2 0h1m1 0h3m1 0h2m1 0h1m2 0h1m2 0h2m3 0h1m1 0h1m2 0h4M6 63.5h1m2 0h1m6 0h6m1 0h4m1 0h2m2 0h1m5 0h1m2 0h1m1 0h4m5 0h1m1 0h1m1 0h2m1 0h2m2 0h2m1 0h2m2 0h1m2 0h1m2 0h1m1 0h2m1 0h1m2 0h1m1 0h2m1 0h1m3 0h7m1 0h1m1 0h2M6 64.5h2m1 0h2m1 0h4m3 0h1m1 0h2m1 0h5m1 0h1m1 0h5m1 0h2m1 0h2m2 0h1m4 0h1m2 0h1m3 0h1m1 0h1m4 0h1m3 0h4m1 0h1m1 0h3m2 0h1m1 0h1m1 0h1m2 0h1m1 0h1m4 0h1m3 0h4M4 65.5h6m1 0h1m1 0h1m1 0h3m1 0h3m1 0h2m3 0h1m1 0h1m1 0h2m2 0h2m1 0h1m3 0h4m2 0h1m1 0h2m5 0h1m2 0h3m2 0h2m3 0h4m3 0h1m1 0h3m2 0h1m2 0h1m1 0h3m1 0h1m1 0h2m2 0h3m1 0h1M6 66.5h8m1 0h1m1 0h3m1 0h1m6 0h1m2 0h1m5 0h1m3 0h1m2 0h2m2 0h1m2 0h2m4 0h1m2 0h6m1 0h1m3 0h3m1 0h1m2 0h3m1 0h1m2 0h1m2 0h2m1 0h1m1 0h4m1 0h1M4 67.5h2m1 0h2m4 0h3m2 0h3m2 0h3m1 0h3m1 0h5m3 0h3m1 0h4m2 0h2m1 0h1m3 0h1m2 0h12m1 0h1m6 0h3m2 0h1m1 0h1m1 0h3m1 0h1m1 0h1m2 0h2m1 0h1m2 0h2M4 68.5h1m2 0h2m1 0h3m2 0h3m1 0h1m2 0h4m1 0h1m3 0h1m1 0h1m1 0h2m3 0h2m2 0h3m1 0h1m2 0h2m1 0h6m1 0h2m3 0h1m2 0h1m1 0h1m1 0h1m2 0h2m2 0h2m2 0h2m4 0h2m1 0h1m4 0h2m1 0h4M4 69.5h5m2 0h1m2 0h1m2 0h1m1 0h1m2 0h2m1 0h1m2 0h1m1 0h1m1 0h1m2 0h1m2 0h1m4 0h1m2 0h1m2 0h1m4 0h1m3 0h1m1 0h1m1 0h2m2 0h3m1 0h3m6 0h2m3 0h1m4 0h3m2 0h1m6 0h3M5 70.5h2m1 0h1m1 0h3m1 0h1m4 0h4m2 0h2m1 0h2m1 0h2m3 0h1m2 0h1m1 0h1m1 0h1m3 0h1m2 0h2m5 0h4m2 0h5m1 0h2m1 0h2m2 0h2m1 0h1m2 0h3m1 0h1m3 0h1m3 0h2m1 0h4m2 0h1M11 71.5h1m1 0h2m2 0h1m4 0h1m2 0h1m1 0h2m1 0h1m1 0h1m1 0h1m2 0h2m2 0h2m4 0h1m1 0h1m1 0h1m1 0h1m1 0h1m1 0h2m1 0h1m2 0h9m1 0h1m2 0h1m2 0h1m1 0h1m1 0h1m2 0h1m3 0h1m1 0h1m1 0h2m1 0h2m1 0h2m1 0h1M5 72.5h3m2 0h3m2 0h2m1 0h1m4 0h2m3 0h6m2 0h11m1 0h1m1 0h1m1 0h1m3 0h1m2 0h1m3 0h3m3 0h3m1 0h1m1 0h4m3 0h1m1 0h2m3 0h2m1 0h1m1 0h2m3 0h2m1 0h2M4 73.5h3m1 0h2m1 0h1m2 0h3m1 0h1m2 0h1m1 0h3m2 0h5m2 0h1m1 0h1m1 0h3m1 0h1m3 0h1m2 0h2m2 0h2m1 0h1m2 0h1m3 0h2m4 0h1m1 0h2m1 0h2m1 0h2m2 0h3m1 0h1m1 0h1m1 0h1m8 0h2m3 0h1M5 74.5h1m2 0h7m3 0h2m1 0h1m5 0h2m1 0h6m7 0h2m2 0h1m1 0h1m2 0h6m3 0h3m2 0h2m3 0h1m1 0h6m2 0h1m1 0h1m5 0h1m1 0h1m3 0h6m3 0h1M5 75.5h2m1 0h1m3 0h1m1 0h1m1 0h1m3 0h1m2 0h2m5 0h1m3 0h1m2 0h1m1 0h10m3 0h1m3 0h8m1 0h1m2 0h1m1 0h2m2 0h1m3 0h2m1 0h1m3 0h7m1 0h4m3 0h5M5 76.5h4m1 0h1m1 0h1m2 0h2m1 0h1m1 0h1m3 0h1m2 0h2m1 0h1m1 0h1m1 0h1m2 0h2m1 0h1m1 0h1m1 0h1m2 0h2m2 0h2m1 0h1m1 0h1m2 0h3m3 0h1m2 0h7m1 0h1m1 0h1m1 0h4m3 0h3m5 0h2m1 0h1m1 0h1m1 0h3M4 77.5h1m1 0h1m1 0h1m3 0h1m1 0h7m1 0h2m3 0h1m2 0h1m3 0h1m1 0h1m7 0h1m1 0h1m1 0h3m1 0h1m3 0h3m2 0h1m5 0h2m2 0h4m3 0h1m2 0h2m1 0h3m5 0h2m1 0h2m3 0h4M6 78.5h1m1 0h5m1 0h5m1 0h2m2 0h3m2 0h6m4 0h3m1 0h5m1 0h1m1 0h8m1 0h3m2 0h1m1 0h2m1 0h1m1 0h7m6 0h2m4 0h1m2 0h7m3 0h1M4 79.5h1m1 0h2m1 0h1m2 0h1m1 0h1m3 0h1m1 0h2m1 0h1m1 0h1m2 0h1m2 0h1m2 0h2m1 0h1m1 0h1m1 0h1m1 0h2m1 0h4m4 0h1m1 0h1m1 0h1m2 0h1m5 0h2m2 0h5m2 0h1m4 0h2m2 0h3m1 0h2m2 0h1m4 0h3M5 80.5h2m3 0h10m2 0h1m4 0h5m2 0h1m1 0h1m1 0h2m1 0h1m1 0h2m1 0h1m1 0h1m11 0h1m2 0h1m3 0h1m1 0h1m3 0h1m1 0h1m5 0h1m2 0h2m2 0h1m2 0h1m1 0h2m5 0h4M5 81.5h3m1 0h1m1 0h2m6 0h1m1 0h1m1 0h1m6 0h2m1 0h2m1 0h2m3 0h2m1 0h1m1 0h5m1 0h1m5 0h2m2 0h2m3 0h1m1 0h2m3 0h1m1 0h2m1 0h1m1 0h3m2 0h1m2 0h3m4 0h2m1 0h2m2 0h2M5 82.5h2m1 0h3m2 0h1m1 0h2m2 0h4m4 0h2m1 0h2m1 0h3m1 0h1m1 0h2m2 0h1m2 0h1m1 0h2m1 0h1m1 0h2m2 0h3m1 0h1m3 0h1m3 0h4m6 0h1m1 0h3m5 0h1m1 0h1m1 0h2m4 0h1m1 0h4M4 83.5h3m2 0h1m2 0h1m3 0h2m1 0h2m1 0h1m1 0h3m1 0h3m4 0h3m1 0h2m2 0h3m3 0h1m2 0h1m2 0h3m2 0h1m1 0h1m2 0h3m1 0h1m1 0h1m2 0h2m1 0h1m1 0h1m2 0h1m1 0h1m3 0h1m1 0h1m2 0h2m3 0h3M6 84.5h1m1 0h1m1 0h3m2 0h4m1 0h1m1 0h1m1 0h1m1 0h3m1 0h2m1 0h3m2 0h1m1 0h1m1 0h4m11 0h1m5 0h2m4 0h1m1 0h2m7 0h1m2 0h2m1 0h2m2 0h1m1 0h1m1 0h2m1 0h1m3 0h4M4 85.5h3m5 0h2m3 0h5m2 0h3m1 0h2m1 0h1m3 0h1m1 0h1m5 0h3m1 0h1m1 0h3m2 0h1m1 0h1m1 0h1m8 0h1m2 0h1m3 0h1m2 0h1m2 0h5m2 0h2m1 0h1m6 0h1m1 0h2m1 0h1M6 86.5h1m1 0h3m2 0h1m1 0h2m3 0h5m1 0h3m3 0h3m1 0h1m3 0h2m4 0h2m1 0h1m2 0h1m3 0h1m1 0h1m1 0h2m1 0h2m1 0h3m3 0h2m1 0h1m3 0h1m3 0h2m1 0h2m2 0h1m2 0h1m2 0h1m1 0h1m4 0h1M7 87.5h1m1 0h1m2 0h1m2 0h1m1 0h1m1 0h2m2 0h3m2 0h1m3 0h2m1 0h4m1 0h1m4 0h1m4 0h2m1 0h2m3 0h1m1 0h1m2 0h1m1 0h2m1 0h2m1 0h1m2 0h1m2 0h1m2 0h4m2 0h1m1 0h1m2 0h1m1 0h2m1 0h1m1 0h2m2 0h1m1 0h1M4 88.5h3m3 0h4m3 0h1m4 0h4m1 0h1m1 0h1m1 0h1m1 0h1m1 0h1m12 0h1m5 0h2m1 0h1m5 0h5m1 0h2m1 0h1m2 0h1m2 0h2m1 0h2m1 0h7m1 0h1m3 0h3m4 0h1M6 89.5h3m3 0h1m1 0h1m1 0h3m4 0h3m1 0h3m1 0h1m4 0h4m2 0h2m2 0h4m3 0h5m2 0h4m1 0h1m1 0h2m1 0h2m1 0h2m3 0h2m3 0h1m1 0h1m1 0h1m2 0h1m1 0h1m1 0h1m3 0h1m1 0h2M4 90.5h3m2 0h2m2 0h1m2 0h5m2 0h2m2 0h1m1 0h3m1 0h2m6 0h1m3 0h2m4 0h1m2 0h2m2 0h3m4 0h1m3 0h4m1 0h3m5 0h1m2 0h1m1 0h2m2 0h1m2 0h1m2 0h2m2 0h2M4 91.5h1m1 0h2m1 0h1m2 0h2m6 0h1m1 0h1m2 0h1m3 0h1m1 0h2m1 0h1m1 0h3m3 0h1m1 0h1m1 0h1m1 0h2m2 0h2m3 0h1m1 0h1m2 0h2m1 0h1m5 0h1m1 0h2m1 0h1m4 0h5m2 0h3m2 0h1m1 0h3m4 0h2M4 92.5h1m2 0h2m1 0h2m1 0h2m2 0h1m1 0h2m2 0h3m4 0h2m1 0h2m2 0h1m2 0h1m1 0h1m3 0h1m3 0h1m2 0h3m2 0h1m2 0h1m3 0h1m3 0h5m1 0h1m2 0h6m1 0h2m4 0h2m1 0h2m1 0h1m1 0h1m2 0h2M4 93.5h1m3 0h2m2 0h1m1 0h3m1 0h2m1 0h2m2 0h4m2 0h1m2 0h1m10 0h2m1 0h1m4 0h1m1 0h4m1 0h1m1 0h1m2 0h3m2 0h1m1 0h2m1 0h1m1 0h1m1 0h2m3 0h2m4 0h1m1 0h3m3 0h3m1 0h2M4 94.5h1m2 0h2m1 0h1m1 0h1m1 0h1m1 0h1m3 0h1m1 0h1m1 0h5m2 0h4m2 0h1m5 0h2m1 0h4m1 0h3m1 0h2m4 0h5m1 0h3m1 0h1m3 0h2m1 0h4m2 0h4m2 0h1m4 0h3m1 0h3m1 0h1M4 95.5h1m1 0h2m1 0h1m1 0h3m2 0h2m1 0h3m3 0h4m2 0h1m1 0h1m1 0h1m1 0h2m2 0h2m1 0h2m2 0h1m4 0h3m1 0h2m2 0h1m4 0h2m1 0h1m2 0h1m1 0h1m2 0h2m3 0h1m1 0h4m1 0h1m3 0h2m2 0h4m3 0h1M8 96.5h1m1 0h1m2 0h1m2 0h1m1 0h2m1 0h2m4 0h2m1 0h5m1 0h1m1 0h1m2 0h1m1 0h1m2 0h1m2 0h8m1 0h1m1 0h2m1 0h3m3 0h4m1 0h9m1 0h2m8 0h1m1 0h5M12 97.5h1m3 0h2m2 0h1m3 0h1m3 0h3m3 0h5m2 0h5m1 0h4m1 0h1m3 0h2m2 0h2m3 0h2m1 0h2m1 0h2m1 0h1m3 0h3m2 0h1m1 0h4m5 0h1m1 0h1m3 0h1m1 0h1M4 98.5h7m1 0h2m3 0h3m3 0h3m2 0h1m1 0h1m1 0h1m1 0h1m1 0h2m4 0h2m1 0h4m1 0h3m1 0h1m1 0h2m3 0h2m2 0h2m3 0h2m2 0h1m1 0h1m1 0h8m2 0h1m5 0h3m1 0h1m1 0h3M4 99.5h1m5 0h1m2 0h1m3 0h1m1 0h2m1 0h1m2 0h1m3 0h2m3 0h1m1 0h4m1 0h1m1 0h3m1 0h2m2 0h2m3 0h1m2 0h3m3 0h1m1 0h4m1 0h3m3 0h1m4 0h4m5 0h3m1 0h1m3 0h2m1 0h2M4 100.5h1m1 0h3m1 0h1m1 0h2m1 0h1m4 0h4m1 0h1m2 0h1m1 0h6m4 0h2m2 0h1m1 0h1m3 0h1m1 0h5m3 0h3m1 0h1m1 0h3m1 0h3m1 0h6m3 0h1m1 0h1m3 0h3m1 0h9M4 101.5h1m1 0h3m1 0h1m1 0h2m1 0h1m3 0h1m1 0h4m2 0h5m1 0h1m4 0h1m3 0h4m1 0h1m1 0h8m1 0h2m3 0h2m3 0h1m1 0h3m7 0h1m4 0h1m2 0h1m2 0h1m4 0h2m2 0h1m2 0h1M4 102.5h1m1 0h3m1 0h1m1 0h1m1 0h2m1 0h3m1 0h1m1 0h1m1 0h1m1 0h1m5 0h4m2 0h1m2 0h1m1 0h1m2 0h5m1 0h1m1 0h5m1 0h2m4 0h1m1 0h1m1 0h6m2 0h1m2 0h1m1 0h2m2 0h1m1 0h1m1 0h5m1 0h1m4 0h1M4 103.5h1m5 0h1m1 0h1m1 0h2m4 0h1m2 0h1m8 0h1m1 0h3m3 0h2m3 0h3m1 0h2m1 0h4m1 0h2m4 0h8m2 0h1m1 0h1m1 0h1m1 0h3m1 0h1m1 0h1m1 0h2m1 0h1m7 0h1m4 0h1M4 104.5h7m1 0h2m2 0h3m3 0h2m2 0h3m1 0h2m4 0h1m1 0h3m3 0h2m2 0h7m3 0h1m4 0h1m2 0h2m4 0h1m1 0h2m3 0h2m7 0h2m3 0h1"/></svg>
