<svg xmlns="http://www.w3.org/2000/svg" viewBox="0 0 93 93" shape-rendering="crispEdges"><path fill="#ffffff" d="M0 0h93v93H0z"/><path stroke="#000000" d="M4 4.5h7m1 0h1m1 0h1m2 0h1m5 0h1m3 0h1m3 0h3m1 0h2m1 0h3m4 0h2m1 0h1m1 0h6m1 0h1m2 0h1m5 0h1m7 0h2m2 0h1m1 0h1m1 0h7M4 5.5h1m5 0h1m1 0h2m1 0h1m3 0h1m1 0h1m1 0h4m1 0h1m1 0h2m2 0h2m1 0h3m1 0h3m5 0h2m1 0h1m2 0h2m1 0h1m3 0h3m2 0h2m1 0h1m1 0h2m2 0h4m2 0h1m5 0h1M4 6.5h1m1 0h3m1 0h1m1 0h1m3 0h1m1 0h2m3 0h2m3 0h3m4 0h1m1 0h1m4 0h3m1 0h2m1 0h1m2 0h3m1 0h1m1 0h1m2 0h1m1 0h1m3 0h2m1 0h1m1 0h5m1 0h1m3 0h1m1 0h3m1 0h1M4 7.5h1m1 0h3m1 0h1m1 0h10m4 0h2m1 0h3m2 0h1m2 0h1m2 0h2m2 0h3m2 0h1m1 0h2m1 0h2m2 0h1m1 0h2m3 0h5m1 0h4m2 0h1m1 0h1m2 0h1m1 0h3m1 0h1M4 8.5h1m1 0h3m1 0h1m2 0h1m1 0h3m3 0h1m1 0h1m2 0h1m1 0h3m1 0h11m2 0h3m1 0h2m1 0h1m1 0h8m1 0h2m2 0h2m2 0h1m3 0h4m3 0h1m1 0h3m1 0h1M4 9.5h1m5 0h1m1 0h1m2 0h1m2 0h4m2 0h1m1 0h7m3 0h7m1 0h1m2 0h2m2 0h1m2 0h1m1 0h1m3 0h1m2 0h1m2 0h1m1 0h1m2 0h1m2 0h1m2 0h1m1 0h1m2 0h1m5 0h1M4 10.5h7m1 0h1m1 0h1m1 0h1m1 0h1m1 0h1m1 0h1m1 0h1m1 0h1m1 0h1m1 0h1m1 0h1m1 0h1m1 0h1m1 0h1m1 0h1m1 0h1m1 0h1m1 0h1m1 0h1m1 0h1m1 0h1m1 0h1m1 0h1m1 0h1m1 0h1m1 0h1m1 0h1m1 0h1m1 0h1m1 0h1m1 0h1m1 0h1m1 0h1m1 0h1m1 0h1m1 0h7M13 11.5h1m2 0h4m1 0h1m2 0h1m1 0h1m1 0h2m2 0h1m3 0h2m1 0h3m1 0h2m6 0h2m1 0h1m1 0h1m3 0h1m2 0h1m2 0h5m2 0h2m1 0h1M4 12.5h2m2 0h3m2 0h3m7 0h3m2 0h1m3 0h6m1 0h3m1 0h1m1 0h1m4 0h3m1 0h7m1 0h3m1 0h3m3 0h1m1 0h1m2 0h1m1 0h2m2 0h1m1 0h4M5 13.5h2m1 0h2m2 0h2m2 0h2m2 0h3m1 0h2m3 0h1m1 0h1m2 0h1m1 0h1m2 0h1m5 0h5m1 0h3m1 0h1m4 0h2m3 0h1m2 0h1m1 0h2m4 0h9m1 0h1M5 14.5h2m1 0h5m1 0h1m3 0h2m1 0h1m1 0h1m3 0h2m3 0h1m1 0h1m2 0h1m1 0h1m3 0h1m2 0h2m1 0h3m1 0h1m1 0h4m1 0h5m2 0h1m2 0h2m1 0h2m2 0h2m1 0h1m1 0h2m2 0h1M4 15.5h2m2 0h2m3 0h6m1 0h1m1 0h2m1 0h3m2 0h1m1 0h2m3 0h5m1 0h5m1 0h2m2 0h1m1 0h3m3 0h2m4 0h5m4 0h2m5 0h1m1 0h2m1 0h1M6 16.5h1m1 0h1m1 0h4m3 0h1m3 0h1m1 0h2m1 0h2m1 0h1m1 0h2m3 0h1m3 0h1m4 0h1m2 0h3m1 0h3m3 0h2m1 0h2m2 0h1m1 0h2m3 0h1m2 0h1m2 0h2m3 0h2m3 0h1M4 17.5h1m1 0h4m1 0h1m2 0h1m1 0h1m2 0h1m3 0h2m1 0h1m1 0h2m2 0h2m1 0h2m3 0h2m1 0h2m2 0h1m1 0h7m2 0h2m3 0h2m1 0h1m4 0h2m1 0h2m1 0h1m2 0h1m1 0h1m1 0h3m1 0h1M6 18.5h3m1 0h3m3 0h3m1 0h1m5 0h3m2 0h1m1 0h1m2 0h1m1 0h1m1 0h3m1 0h2m4 0h1m1 0h1m3 0h1m1 0h1m1 0h1m2 0h2m1 0h1m1 0h1m3 0h1m4 0h2m1 0h3m1 0h1m1 0h3M4 19.5h6m1 0h1m3 0h4m1 0h2m2 0h3m1 0h4m1 0h1m1 0h3m1 0h1m2 0h1m1 0h3m1 0h2m2 0h1m2 0h2m4 0h1m4 0h3m1 0h1m1 0h2m3 0h1m1 0h3m1 0h1m1 0h1M5 20.5h1m2 0h3m3 0h2m6 0h3m1 0h2m2 0h2m1 0h2m1 0h2m2 0h1m2 0h2m1 0h1m3 0h1m1 0h1m1 0h2m7 0h4m3 0h1m4 0h1m1 0h1m2 0h1m1 0h2m1 0h2m1 0h1M4 21.5h2m1 0h1m3 0h1m2 0h4m1 0h2m3 0h1m2 0h2m1 0h1m2 0h1m2 0h1m3 0h1m1 0h3m1 0h2m5 0h1m4 0h2m2 0h1m2 0h1m3 0h1m1 0h1m2 0h3m4 0h4m1 0h1m1 0h1M6 22.5h1m1 0h3m1 0h2m2 0h1m2 0h1m1 0h3m2 0h3m6 0h2m1 0h1m2 0h1m1 0h1m1 0h2m1 0h3m1 0h3m3 0h2m1 0h1m1 0h2m2 0h1m5 0h1m4 0h1m2 0h1m2 0h1M4 23.5h2m5 0h1m3 0h4m2 0h1m1 0h1m1 0h3m5 0h1m8 0h1m1 0h1m1 0h6m3 0h1m3 0h1m4 0h2m1 0h2m3 0h1m1 0h2m3 0h2m1 0h2m1 0h1m1 0h1M7 24.5h2m1 0h2m1 0h2m3 0h2m1 0h4m7 0h3m1 0h1m1 0h6m1 0h2m1 0h2m2 0h1m8 0h1m2 0h1m1 0h3m9 0h1m2 0h1m1 0h2m1 0h1M7 25.5h1m5 0h2m3 0h1m1 0h1m5 0h2m1 0h3m1 0h3m1 0h1m3 0h1m2 0h3m1 0h2m3 0h1m1 0h3m2 0h1m3 0h2m4 0h3m1 0h1m4 0h1m2 0h2m2 0h3M6 26.5h1m1 0h1m1 0h3m1 0h2m2 0h9m2 0h1m2 0h1m1 0h1m2 0h1m1 0h1m1 0h1m1 0h1m6 0h2m2 0h1m3 0h7m3 0h5m2 0h2m3 0h1m3 0h2M5 27.5h3m1 0h1m1 0h3m4 0h3m1 0h1m2 0h1m2 0h1m3 0h4m1 0h4m2 0h1m1 0h1m1 0h1m1 0h4m3 0h2m3 0h2m1 0h5m1 0h2m1 0h3m5 0h1m1 0h4M4 28.5h1m3 0h4m1 0h1m6 0h2m2 0h2m1 0h4m1 0h1m1 0h3m1 0h1m1 0h1m1 0h1m5 0h1m1 0h1m5 0h2m1 0h4m1 0h3m2 0h1m1 0h2m4 0h1m1 0h1m1 0h2M7 29.5h2m2 0h2m1 0h4m9 0h2m1 0h1m1 0h3m2 0h1m2 0h1m1 0h2m1 0h1m1 0h3m1 0h1m1 0h2m4 0h2m4 0h5m2 0h1m2 0h1m1 0h1m3 0h4m1 0h2M6 30.5h1m1 0h1m1 0h5m2 0h1m2 0h2m2 0h3m1 0h1m3 0h6m1 0h1m1 0h7m1 0h3m1 0h2m1 0h1m1 0h1m5 0h1m3 0h1m5 0h2m2 0h7m1 0h1m1 0h1M5 31.5h2m8 0h2m2 0h1m1 0h2m1 0h6m1 0h4m1 0h1m1 0h2m2 0h2m2 0h1m1 0h1m1 0h1m2 0h3m1 0h1m1 0h1m1 0h2m1 0h1m2 0h1m1 0h3m3 0h1m2 0h4m1 0h2m1 0h3M4 32.5h2m2 0h6m1 0h3m1 0h1m2 0h4m1 0h2m3 0h5m3 0h2m1 0h1m3 0h1m2 0h1m4 0h6m1 0h1m2 0h1m2 0h2m1 0h3m1 0h1m3 0h10M6 33.5h3m3 0h2m3 0h1m3 0h3m2 0h1m2 0h4m3 0h2m1 0h1m3 0h1m3 0h1m1 0h1m2 0h5m3 0h1m1 0h1m3 0h1m1 0h1m1 0h2m5 0h2m1 0h1m3 0h1m1 0h3M5 34.5h1m1 0h2m1 0h1m1 0h1m2 0h1m1 0h1m1 0h1m3 0h1m3 0h1m1 0h1m2 0h1m1 0h1m1 0h1m2 0h1m1 0h1m1 0h1m2 0h2m2 0h2m3 0h2m1 0h1m1 0h2m2 0h1m5 0h1m1 0h3m3 0h3m1 0h1m1 0h5M5 35.5h4m3 0h1m4 0h1m3 0h4m2 0h1m1 0h2m1 0h1m3 0h3m1 0h2m1 0h1m1 0h3m2 0h2m1 0h1m1 0h2m3 0h1m1 0h2m3 0h5m3 0h2m2 0h2m3 0h1m1 0h3M5 36.5h9m2 0h3m1 0h1m1 0h2m2 0h1m3 0h7m1 0h1m6 0h1m7 0h2m1 0h6m4 0h5m4 0h1m1 0h1m1 0h6m1 0h3M5 37.5h1m3 0h1m2 0h1m2 0h6m4 0h2m1 0h1m1 0h1m1 0h1m2 0h3m2 0h1m1 0h5m5 0h1m2 0h1m1 0h2m1 0h2m1 0h2m3 0h2m1 0h1m5 0h2m1 0h1m1 0h1m1 0h4M4 38.5h1m1 0h7m2 0h3m1 0h1m2 0h3m1 0h5m1 0h2m1 0h3m4 0h3m5 0h6m3 0h2m3 0h1m2 0h5m1 0h1m2 0h4m2 0h2m2 0h1M4 39.5h2m1 0h1m1 0h1m1 0h1m1 0h2m1 0h3m3 0h1m2 0h1m2 0h3m1 0h1m2 0h2m3 0h1m1 0h1m1 0h1m1 0h1m1 0h2m2 0h4m1 0h1m5 0h1m3 0h3m1 0h1m2 0h6m1 0h1m2 0h1m1 0h1M5 40.5h1m1 0h2m1 0h2m1 0h3m2 0h4m1 0h1m2 0h2m3 0h1m2 0h2m1 0h1m6 0h5m1 0h2m1 0h1m1 0h1m1 0h2m1 0h1m3 0h1m2 0h1m4 0h1m1 0h1m2 0h1m1 0h2m6 0h2M4 41.5h1m4 0h1m1 0h1m1 0h1m1 0h8m1 0h2m1 0h1m5 0h1m1 0h1m2 0h1m2 0h1m2 0h3m2 0h2m1 0h4m1 0h1m1 0h2m4 0h1m2 0h3m4 0h1m4 0h1m1 0h1m2 0h1m2 0h1M5 42.5h1m1 0h1m1 0h2m7 0h3m3 0h2m1 0h1m2 0h2m1 0h1m2 0h1m1 0h3m2 0h1m3 0h1m8 0h1m2 0h1m1 0h1m1 0h2m2 0h1m1 0h2m3 0h1m2 0h1m5 0h3m1 0h1M4 43.5h1m2 0h2m2 0h3m1 0h1m1 0h3m2 0h1m1 0h3m1 0h1m2 0h1m2 0h1m2 0h1m4 0h2m1 0h1m1 0h6m3 0h2m2 0h3m1 0h1m1 0h4m1 0h1m4 0h2m4 0h2m1 0h1m1 0h2M5 44.5h1m1 0h6m1 0h1m2 0h1m2 0h1m1 0h1m1 0h1m2 0h1m2 0h1m1 0h1m1 0h4m1 0h2m4 0h6m2 0h1m4 0h1m4 0h1m1 0h2m3 0h1m1 0h7m2 0h2m5 0h1M7 45.5h1m1 0h1m1 0h3m1 0h1m4 0h2m1 0h2m3 0h1m1 0h1m1 0h1m3 0h7m1 0h1m4 0h2m3 0h1m2 0h1m1 0h3m2 0h1m1 0h1m1 0h1m3 0h1m3 0h1m1 0h4m1 0h1m2 0h1m1 0h1M4 46.5h3m1 0h1m1 0h1m4 0h1m3 0h1m2 0h3m1 0h3m1 0h1m2 0h1m1 0h1m4 0h1m1 0h1m1 0h1m1 0h3m1 0h4m1 0h1m1 0h1m1 0h2m1 0h2m2 0h1m2 0h1m1 0h4m1 0h2m6 0h2m2 0h1M4 47.5h1m1 0h1m6 0h2m1 0h1m6 0h1m1 0h1m1 0h1m1 0h1m2 0h1m1 0h1m1 0h1m3 0h1m2 0h5m2 0h1m1 0h1m1 0h2m7 0h3m1 0h1m1 0h1m4 0h1m3 0h1m3 0h1m2 0h4M4 48.5h3m1 0h3m1 0h1m4 0h7m2 0h1m1 0h1m3 0h1m1 0h1m1 0h1m1 0h1m5 0h2m1 0h2m1 0h1m2 0h6m2 0h1m1 0h1m1 0h5m2 0h1m1 0h1m3 0h1m5 0h1m1 0h1M6 49.5h2m1 0h1m2 0h3m2 0h1m1 0h1m8 0h7m5 0h1m3 0h1m1 0h3m1 0h2m1 0h2m1 0h2m1 0h1m3 0h1m1 0h1m2 0h3m4 0h1m1 0h2m2 0h3m4 0h1M4 50.5h1m2 0h1m1 0h6m1 0h1m1 0h1m2 0h3m1 0h2m1 0h1m1 0h1m2 0h1m1 0h1m1 0h2m1 0h1m2 0h1m1 0h1m1 0h5m9 0h1m2 0h6m7 0h1m1 0h1m1 0h1m1 0h4M4 51.5h2m1 0h2m5 0h6m3 0h1m3 0h3m2 0h2m2 0h2m1 0h3m1 0h1m1 0h1m1 0h2m1 0h1m1 0h2m1 0h1m1 0h4m1 0h1m2 0h1m3 0h1m5 0h1m1 0h1m1 0h3m2 0h2m1 0h2M6 52.5h2m1 0h2m6 0h3m2 0h1m3 0h2m4 0h1m1 0h2m5 0h1m1 0h1m1 0h2m1 0h3m6 0h2m1 0h3m3 0h2m3 0h1m2 0h2m3 0h2m1 0h1m1 0h1M4 53.5h1m1 0h1m4 0h3m2 0h1m1 0h1m2 0h3m1 0h1m2 0h3m2 0h1m3 0h1m1 0h1m1 0h1m2 0h1m1 0h2m1 0h1m2 0h2m4 0h3m2 0h3m1 0h1m2 0h1m1 0h2m4 0h3m1 0h3m1 0h2M4 54.5h1m4 0h3m3 0h1m1 0h1m1 0h1m5 0h5m2 0h1m1 0h1m2 0h4m3 0h1m1 0h1m1 0h1m1 0h2m2 0h4m1 0h3m1 0h2m1 0h1m1 0h2m2 0h3m1 0h3m1 0h4m1 0h2M5 55.5h1m2 0h2m2 0h2m3 0h4m1 0h2m4 0h6m1 0h1m1 0h1m3 0h1m2 0h1m1 0h2m2 0h1m1 0h1m2 0h4m2 0h3m1 0h3m2 0h1m2 0h4m8 0h2m1 0h1M5 56.5h2m1 0h5m1 0h1m1 0h5m2 0h1m1 0h3m2 0h1m1 0h6m2 0h1m1 0h1m1 0h2m2 0h1m1 0h4m1 0h6m2 0h1m1 0h2m7 0h1m1 0h1m2 0h7m1 0h2M4 57.5h3m1 0h1m3 0h1m5 0h1m3 0h1m1 0h1m3 0h1m1 0h1m1 0h1m3 0h1m1 0h2m2 0h1m1 0h1m3 0h1m1 0h1m2 0h1m1 0h2m3 0h2m1 0h1m1 0h2m2 0h1m2 0h3m3 0h3m3 0h1M4 58.5h1m1 0h3m1 0h1m1 0h1m1 0h1m1 0h1m1 0h6m1 0h2m2 0h1m1 0h2m1 0h1m1 0h2m2 0h1m1 0h1m3 0h2m3 0h1m3 0h2m1 0h1m1 0h4m1 0h2m1 0h1m1 0h3m3 0h2m2 0h1m1 0h1m1 0h1m2 0h1M4 59.5h1m1 0h1m1 0h1m3 0h2m3 0h1m3 0h4m5 0h1m1 0h1m3 0h4m2 0h1m2 0h3m8 0h1m3 0h3m4 0h3m1 0h2m2 0h3m1 0h2m3 0h4M4 60.5h2m2 0h6m2 0h3m3 0h9m1 0h6m1 0h1m2 0h5m1 0h1m2 0h2m1 0h1m1 0h5m1 0h1m3 0h1m1 0h4m6 0h1m1 0h8M8 61.5h1m5 0h4m1 0h1m1 0h1m3 0h1m1 0h1m3 0h3m1 0h4m5 0h4m1 0h1m4 0h3m2 0h1m2 0h3m1 0h1m3 0h1m1 0h1m2 0h2m2 0h1m1 0h1m1 0h1m2 0h1m1 0h1M4 62.5h1m1 0h2m1 0h3m2 0h1m1 0h4m1 0h7m3 0h2m4 0h1m1 0h2m3 0h3m4 0h2m4 0h1m1 0h1m2 0h2m1 0h2m1 0h2m2 0h3m2 0h1m9 0h1M5 63.5h4m5 0h1m1 0h1m5 0h2m3 0h2m2 0h1m2 0h2m7 0h1m6 0h1m1 0h2m1 0h5m4 0h1m1 0h2m1 0h1m5 0h1m2 0h3m3 0h1m2 0h1M6 64.5h1m1 0h4m2 0h2m3 0h1m3 0h2m3 0h1m1 0h2m1 0h2m6 0h1m4 0h1m1 0h1m5 0h1m1 0h2m1 0h2m2 0h3m1 0h2m1 0h2m1 0h3m2 0h1m1 0h2m2 0h3m1 0h1M5 65.5h1m2 0h2m2 0h1m1 0h1m1 0h1m1 0h1m3 0h3m6 0h3m3 0h1m2 0h3m1 0h1m1 0h2m4 0h1m3 0h4m2 0h3m1 0h1m1 0h2m1 0h2m1 0h2m4 0h1m1 0h6M4 66.5h1m2 0h2m1 0h1m1 0h1m3 0h1m7 0h2m1 0h1m2 0h8m7 0h3m2 0h1m1 0h2m1 0h2m1 0h1m5 0h2m3 0h3m7 0h6m1 0h3M5 67.5h2m1 0h1m2 0h1m1 0h1m1 0h2m4 0h1m3 0h2m2 0h2m2 0h2m2 0h2m5 0h3m1 0h1m1 0h1m5 0h1m4 0h2m1 0h1m3 0h3m2 0h3m5 0h1m1 0h3m1 0h2M4 68.5h4m1 0h4m1 0h1m1 0h3m1 0h1m2 0h2m1 0h1m1 0h1m1 0h1m2 0h3m3 0h2m2 0h1m1 0h1m2 0h2m1 0h1m2 0h1m1 0h1m1 0h2m4 0h4m1 0h4m6 0h3m2 0h1M5 69.5h1m2 0h1m5 0h2m1 0h3m2 0h1m5 0h1m1 0h1m5 0h2m1 0h2m1 0h1m2 0h6m1 0h1m1 0h1m2 0h1m3 0h2m2 0h2m1 0h1m3 0h2m2 0h2m1 0h2m2 0h1m1 0h3M8 70.5h4m1 0h1m1 0h2m1 0h1m2 0h3m2 0h1m1 0h1m1 0h3m3 0h1m2 0h1m1 0h3m3 0h5m2 0h3m1 0h3m1 0h7m1 0h4m4 0h2m4 0h1m1 0h3M4 71.5h3m1 0h1m2 0h2m1 0h5m2 0h1m1 0h1m3 0h2m1 0h1m3 0h1m1 0h2m1 0h1m1 0h1m1 0h3m2 0h4m3 0h4m2 0h1m1 0h1m1 0h1m2 0h3m3 0h2m1 0h6m1 0h3M6 72.5h3m1 0h1m5 0h1m1 0h2m1 0h1m2 0h2m1 0h2m2 0h1m1 0h2m2 0h2m2 0h3m4 0h5m2 0h2m3 0h3m3 0h1m3 0h1m2 0h1m2 0h3m1 0h1m1 0h4M6 73.5h1m1 0h2m4 0h1m4 0h1m1 0h1m2 0h2m2 0h1m1 0h1m1 0h2m2 0h1m1 0h2m3 0h4m3 0h2m2 0h1m1 0h5m3 0h2m1 0h3m5 0h3m4 0h3m1 0h1M7 74.5h1m1 0h7m4 0h1m1 0h2m1 0h1m1 0h3m1 0h1m2 0h2m1 0h1m1 0h1m2 0h2m5 0h2m1 0h3m7 0h1m2 0h3m1 0h3m1 0h1m2 0h4m5 0h1M5 75.5h2m2 0h1m2 0h4m1 0h3m1 0h2m1 0h1m3 0h1m1 0h5m3 0h1m2 0h2m2 0h1m1 0h9m5 0h1m1 0h2m3 0h1m1 0h3m1 0h2m3 0h2m1 0h1m4 0h1M4 76.5h3m3 0h1m1 0h2m1 0h3m1 0h1m1 0h1m1 0h2m3 0h1m6 0h1m4 0h1m6 0h1m1 0h1m1 0h4m3 0h1m1 0h3m1 0h3m5 0h1m3 0h3m1 0h5m1 0h1M4 77.5h3m2 0h1m1 0h1m1 0h2m1 0h8m1 0h1m1 0h8m2 0h2m1 0h1m1 0h3m2 0h1m4 0h3m3 0h1m1 0h1m2 0h4m1 0h1m1 0h1m2 0h1m2 0h4m1 0h5m1 0h2M4 78.5h3m1 0h1m1 0h1m8 0h3m1 0h6m4 0h6m6 0h1m2 0h7m1 0h1m1 0h2m1 0h1m1 0h1m2 0h1m3 0h1m1 0h1m1 0h3m1 0h3m3 0h1m1 0h2M5 79.5h1m1 0h1m1 0h1m1 0h3m2 0h2m4 0h1m1 0h1m2 0h1m2 0h1m6 0h1m3 0h2m2 0h3m4 0h1m1 0h1m2 0h1m1 0h2m1 0h3m5 0h3m2 0h1m1 0h1m2 0h2m3 0h1m1 0h1M4 80.5h1m5 0h2m6 0h1m1 0h2m1 0h2m1 0h2m3 0h6m2 0h6m2 0h1m1 0h2m1 0h1m1 0h1m1 0h6m2 0h6m5 0h1m2 0h7m1 0h3M12 81.5h1m2 0h1m4 0h2m3 0h1m2 0h1m2 0h2m3 0h3m1 0h2m3 0h2m1 0h1m2 0h3m2 0h1m3 0h1m2 0h1m1 0h1m1 0h1m2 0h4m1 0h2m2 0h2m3 0h1m1 0h1m1 0h1M4 82.5h7m4 0h1m1 0h3m1 0h2m4 0h1m1 0h2m1 0h1m1 0h1m1 0h2m2 0h1m1 0h4m2 0h1m2 0h1m1 0h4m1 0h1m1 0h1m1 0h3m1 0h2m1 0h4m1 0h1m2 0h1m2 0h1m1 0h1m1 0h2m2 0h1M4 83.5h1m5 0h1m1 0h1m1 0h2m1 0h3m1 0h1m1 0h5m1 0h4m3 0h2m6 0h1m1 0h1m1 0h2m3 0h1m2 0h1m3 0h1m4 0h1m1 0h2m1 0h4m1 0h1m1 0h4m3 0h5M4 84.5h1m1 0h3m1 0h1m1 0h1m2 0h3m1 0h1m1 0h2m1 0h2m4 0h7m1 0h2m6 0h1m1 0h1m1 0h1m2 0h8m1 0h1m1 0h2m3 0h1m2 0h1m2 0h1m3 0h6m1 0h3M4 85.5h1m1 0h3m1 0h1m2 0h1m1 0h1m1 0h1m2 0h3m1 0h3m1 0h1m1 0h1m5 0h1m3 0h1m1 0h3m1 0h1m1 0h1m2 0h1m1 0h3m1 0h2m1 0h2m1 0h2m1 0h2m2 0h2m1 0h6m1 0h2m1 0h4m1 0h1M4 86.5h1m1 0h3m1 0h1m2 0h2m1 0h1m2 0h2m2 0h10m2 0h4m6 0h1m2 0h4m1 0h1m1 0h2m4 0h1m2 0h5m1 0h2m1 0h1m4 0h3m1 0h1m1 0h4M4 87.5h1m5 0h1m1 0h1m3 0h6m2 0h6m1 0h2m1 0h2m1 0h3m2 0h1m10 0h1m3 0h2m1 0h1m5 0h1m1 0h2m1 0h2m1 0h1m1 0h1m2 0h1m1 0h5m1 0h1M4 88.5h7m1 0h2m2 0h3m3 0h1m1 0h3m1 0h3m1 0h6m7 0h7m2 0h1m1 0h1m2 0h2m3 0h2m1 0h2m8 0h3m3 0h2m1 0h3"/></svg>
