<svg xmlns="http://www.w3.org/2000/svg" viewBox="0 0 97 97" shape-rendering="crispEdges"><path fill="#ffffff" d="M0 0h97v97H0z"/><path stroke="#000000" d="M4 4.5h7m4 0h1m3 0h1m4 0h1m3 0h1m1 0h1m2 0h1m2 0h1m3 0h7m2 0h1m1 0h1m1 0h4m4 0h1m6 0h1m4 0h3m1 0h3m1 0h4m1 0h7M4 5.5h1m5 0h1m1 0h3m3 0h1m2 0h2m1 0h1m3 0h1m1 0h4m1 0h1m1 0h3m2 0h1m2 0h8m2 0h3m1 0h2m3 0h1m2 0h1m1 0h1m1 0h1m2 0h3m1 0h2m1 0h1m1 0h1m2 0h1m5 0h1M4 6.5h1m1 0h3m1 0h1m3 0h1m1 0h2m1 0h1m3 0h2m1 0h1m4 0h2m1 0h1m1 0h2m2 0h1m1 0h1m1 0h1m4 0h1m6 0h1m1 0h2m4 0h4m2 0h8m2 0h2m4 0h1m1 0h3m1 0h1M4 7.5h1m1 0h3m1 0h1m1 0h1m2 0h1m2 0h2m1 0h1m1 0h1m3 0h1m3 0h1m1 0h2m2 0h1m1 0h2m1 0h3m1 0h4m1 0h1m1 0h1m1 0h3m1 0h1m4 0h1m5 0h1m3 0h3m3 0h1m1 0h1m1 0h1m1 0h1m1 0h3m1 0h1M4 8.5h1m1 0h3m1 0h1m3 0h1m2 0h2m5 0h3m1 0h1m3 0h9m4 0h3m1 0h1m1 0h3m2 0h7m2 0h1m2 0h1m4 0h1m1 0h1m1 0h2m1 0h1m2 0h1m2 0h1m1 0h3m1 0h1M4 9.5h1m5 0h1m1 0h1m1 0h2m1 0h3m1 0h1m1 0h1m4 0h2m2 0h1m3 0h2m3 0h2m1 0h3m1 0h1m1 0h2m1 0h1m1 0h2m1 0h1m3 0h1m1 0h2m4 0h1m1 0h1m3 0h2m1 0h1m1 0h1m1 0h1m2 0h1m5 0h1M4 10.5h7m1 0h1m1 0h1m1 0h1m1 0h1m1 0h1m1 0h1m1 0h1m1 0h1m1 0h1m1 0h1m1 0h1m1 0h1m1 0h1m1 0h1m1 0h1m1 0h1m1 0h1m1 0h1m1 0h1m1 0h1m1 0h1m1 0h1m1 0h1m1 0h1m1 0h1m1 0h1m1 0h1m1 0h1m1 0h1m1 0h1m1 0h1m1 0h1m1 0h1m1 0h1m1 0h1m1 0h1m1 0h1m1 0h7M13 11.5h1m1 0h3m3 0h2m6 0h1m1 0h2m3 0h7m2 0h5m2 0h1m1 0h2m2 0h1m3 0h1m1 0h1m2 0h2m1 0h5m1 0h1m1 0h1m1 0h1m2 0h1M4 12.5h5m1 0h3m1 0h3m6 0h2m3 0h1m3 0h5m1 0h1m2 0h1m1 0h1m1 0h1m2 0h2m2 0h2m1 0h8m1 0h2m1 0h1m2 0h1m3 0h1m1 0h2m1 0h3m3 0h1m1 0h1m1 0h1m1 0h1M4 13.5h1m1 0h4m1 0h3m4 0h1m2 0h5m1 0h2m2 0h2m1 0h2m7 0h5m2 0h1m1 0h1m3 0h1m2 0h3m4 0h1m3 0h1m1 0h1m2 0h5m2 0h3m3 0h1m2 0h1M4 14.5h2m1 0h1m1 0h3m3 0h3m2 0h1m2 0h1m3 0h1m6 0h3m2 0h1m1 0h1m2 0h3m3 0h4m1 0h1m1 0h1m3 0h2m2 0h1m2 0h2m2 0h2m7 0h3m3 0h1m1 0h1m1 0h2M7 15.5h1m3 0h1m1 0h4m1 0h1m1 0h1m1 0h2m2 0h3m2 0h2m1 0h2m2 0h1m1 0h1m5 0h2m3 0h2m3 0h1m2 0h1m2 0h2m2 0h2m3 0h3m3 0h1m1 0h2m3 0h3m1 0h4M5 16.5h1m1 0h1m2 0h5m2 0h2m1 0h1m2 0h1m1 0h1m1 0h2m1 0h1m2 0h7m3 0h1m2 0h4m1 0h1m3 0h3m1 0h2m2 0h2m2 0h6m1 0h1m1 0h2m4 0h3m1 0h1m1 0h2m1 0h2M6 17.5h2m3 0h5m1 0h1m1 0h1m1 0h5m1 0h1m8 0h2m1 0h3m2 0h1m5 0h2m2 0h2m3 0h3m2 0h2m1 0h1m4 0h1m3 0h2m6 0h3m1 0h5M5 18.5h1m1 0h1m2 0h1m2 0h2m1 0h1m3 0h2m2 0h1m1 0h7m5 0h1m1 0h1m1 0h1m4 0h2m1 0h1m1 0h2m1 0h4m1 0h1m2 0h1m4 0h1m2 0h1m2 0h1m2 0h1m1 0h2m1 0h1m1 0h3m1 0h3M7 19.5h1m1 0h1m1 0h1m1 0h3m2 0h1m2 0h1m1 0h3m1 0h3m6 0h1m1 0h2m1 0h1m2 0h1m6 0h2m1 0h1m1 0h1m1 0h2m1 0h2m3 0h1m1 0h2m1 0h2m4 0h1m1 0h1m1 0h3m2 0h1m2 0h1m2 0h1M4 20.5h1m1 0h1m2 0h4m2 0h2m2 0h2m1 0h1m1 0h2m2 0h3m1 0h5m1 0h1m3 0h2m1 0h5m1 0h3m4 0h1m3 0h1m2 0h4m1 0h1m5 0h1m1 0h1m1 0h1m2 0h4m2 0h1m1 0h1M5 21.5h1m5 0h4m1 0h3m2 0h1m1 0h4m2 0h1m4 0h1m4 0h3m4 0h3m5 0h2m5 0h4m2 0h1m1 0h1m1 0h2m1 0h1m6 0h2m3 0h1m1 0h1m1 0h3M4 22.5h2m3 0h2m3 0h3m3 0h2m2 0h1m3 0h1m6 0h1m1 0h1m1 0h3m1 0h2m1 0h1m2 0h1m2 0h2m1 0h1m1 0h3m1 0h1m1 0h1m1 0h1m2 0h4m1 0h7m1 0h1m5 0h2m1 0h2M5 23.5h5m1 0h4m1 0h1m2 0h3m1 0h2m4 0h4m7 0h1m1 0h4m1 0h4m1 0h1m2 0h1m4 0h1m2 0h1m1 0h2m1 0h2m3 0h4m1 0h1m2 0h2m3 0h2m1 0h3M6 24.5h2m2 0h4m1 0h2m1 0h4m1 0h4m1 0h8m8 0h1m1 0h1m3 0h1m3 0h2m2 0h2m1 0h1m5 0h1m2 0h1m2 0h2m1 0h1m2 0h3m2 0h3M6 25.5h1m1 0h2m4 0h2m3 0h1m1 0h1m1 0h1m1 0h2m2 0h3m1 0h2m2 0h4m1 0h1m4 0h6m1 0h1m1 0h1m3 0h5m4 0h2m2 0h3m2 0h1m2 0h3m5 0h4M4 26.5h3m2 0h2m1 0h1m2 0h1m1 0h2m4 0h2m1 0h1m1 0h2m1 0h1m5 0h1m1 0h2m1 0h2m1 0h6m1 0h2m2 0h1m1 0h1m2 0h2m2 0h2m5 0h8m1 0h1m2 0h1m6 0h1M4 27.5h1m3 0h1m4 0h1m1 0h5m3 0h2m3 0h1m5 0h3m2 0h3m1 0h1m1 0h1m2 0h2m7 0h2m1 0h2m1 0h2m1 0h1m1 0h2m6 0h3m3 0h4m4 0h1M6 28.5h1m1 0h4m1 0h1m2 0h2m3 0h1m4 0h2m2 0h1m1 0h1m1 0h1m3 0h4m3 0h1m1 0h2m2 0h1m2 0h2m4 0h1m2 0h1m1 0h1m1 0h4m1 0h1m1 0h1m1 0h1m2 0h5m2 0h4M7 29.5h1m1 0h1m1 0h2m1 0h6m2 0h1m1 0h2m7 0h1m1 0h1m6 0h1m3 0h1m2 0h2m2 0h1m1 0h2m2 0h1m2 0h3m1 0h1m4 0h1m1 0h1m1 0h5m2 0h1m5 0h1m1 0h1M4 30.5h1m5 0h1m1 0h2m2 0h1m1 0h1m2 0h2m2 0h2m1 0h1m1 0h13m2 0h3m2 0h3m1 0h1m3 0h3m2 0h3m3 0h1m1 0h2m3 0h2m1 0h4m3 0h3m2 0h2M4 31.5h6m1 0h4m1 0h7m2 0h1m1 0h3m5 0h1m4 0h3m3 0h1m1 0h2m2 0h1m1 0h1m1 0h1m1 0h2m1 0h1m2 0h2m2 0h3m1 0h2m1 0h3m2 0h1m1 0h1m1 0h3m1 0h2m1 0h2M5 32.5h1m2 0h6m2 0h3m3 0h1m1 0h3m2 0h2m1 0h5m2 0h1m3 0h4m2 0h1m1 0h1m4 0h1m1 0h5m3 0h2m7 0h1m1 0h3m2 0h7m1 0h1M4 33.5h3m1 0h1m3 0h1m1 0h1m3 0h1m2 0h1m1 0h1m1 0h1m4 0h1m1 0h1m3 0h3m4 0h1m1 0h1m2 0h3m4 0h4m3 0h2m2 0h1m1 0h1m1 0h4m2 0h2m4 0h1m1 0h1m3 0h1m1 0h3M4 34.5h5m1 0h1m1 0h2m4 0h1m1 0h1m2 0h4m4 0h2m1 0h1m1 0h6m1 0h1m4 0h1m1 0h1m1 0h1m1 0h5m1 0h1m1 0h3m2 0h1m2 0h4m4 0h1m2 0h1m2 0h1m1 0h1m1 0h1M6 35.5h1m1 0h1m3 0h1m5 0h3m1 0h5m1 0h2m2 0h1m3 0h2m2 0h1m1 0h3m5 0h1m3 0h2m2 0h1m3 0h1m2 0h1m1 0h1m1 0h2m2 0h2m2 0h1m1 0h2m1 0h1m1 0h1m3 0h2M8 36.5h5m1 0h1m2 0h1m1 0h2m1 0h2m3 0h4m1 0h5m6 0h3m3 0h5m1 0h2m1 0h5m1 0h4m1 0h3m1 0h1m7 0h1m1 0h6m2 0h2M5 37.5h2m1 0h1m2 0h1m1 0h2m1 0h2m1 0h1m1 0h2m1 0h1m3 0h1m1 0h4m3 0h2m1 0h1m1 0h1m1 0h2m3 0h3m2 0h4m1 0h3m2 0h1m1 0h1m2 0h2m1 0h1m1 0h1m3 0h1m2 0h2m3 0h1m1 0h1m2 0h1M4 38.5h5m1 0h3m1 0h4m5 0h1m5 0h1m4 0h1m1 0h2m2 0h2m1 0h2m1 0h1m4 0h4m4 0h2m3 0h1m4 0h3m1 0h3m3 0h1m1 0h5m1 0h1m1 0h1M5 39.5h1m2 0h2m2 0h1m1 0h2m4 0h1m3 0h1m3 0h3m2 0h1m5 0h1m1 0h1m4 0h4m1 0h1m1 0h1m2 0h1m3 0h1m1 0h1m2 0h4m1 0h5m4 0h1m2 0h1m2 0h2m2 0h1m1 0h2M4 40.5h3m3 0h1m1 0h3m2 0h2m3 0h1m1 0h2m3 0h1m4 0h3m1 0h2m3 0h2m1 0h1m2 0h1m2 0h2m2 0h3m1 0h2m2 0h5m2 0h3m3 0h1m1 0h2m2 0h3M5 41.5h5m1 0h1m2 0h2m1 0h1m2 0h3m2 0h1m1 0h2m1 0h4m2 0h3m2 0h1m1 0h2m1 0h4m3 0h1m6 0h2m1 0h2m1 0h2m1 0h1m3 0h2m1 0h1m2 0h2m1 0h1m2 0h2m3 0h1m1 0h1M4 42.5h1m1 0h3m1 0h1m1 0h1m6 0h3m6 0h1m6 0h1m1 0h1m3 0h3m2 0h1m2 0h2m7 0h3m1 0h1m2 0h7m3 0h2m1 0h1m1 0h3m6 0h1M5 43.5h1m2 0h1m2 0h1m1 0h4m1 0h2m2 0h1m1 0h2m5 0h2m3 0h2m2 0h3m3 0h3m1 0h1m1 0h2m1 0h1m3 0h2m1 0h1m1 0h2m1 0h6m1 0h1m2 0h2m4 0h1m1 0h2m3 0h1M4 44.5h3m1 0h1m1 0h1m2 0h1m1 0h1m1 0h1m1 0h3m1 0h1m3 0h1m1 0h1m1 0h1m1 0h2m1 0h4m2 0h8m2 0h2m1 0h3m2 0h2m2 0h2m1 0h1m2 0h1m1 0h2m1 0h1m1 0h1m2 0h1m1 0h1m5 0h1m1 0h1M5 45.5h1m1 0h1m1 0h1m1 0h1m1 0h1m2 0h1m1 0h1m1 0h1m2 0h5m3 0h1m2 0h2m1 0h1m7 0h1m1 0h2m2 0h1m1 0h1m1 0h3m1 0h1m1 0h4m4 0h1m1 0h4m4 0h4m1 0h4m3 0h1M4 46.5h1m2 0h4m2 0h2m1 0h1m1 0h1m1 0h1m4 0h1m2 0h4m2 0h1m1 0h1m2 0h3m2 0h1m1 0h1m2 0h1m3 0h1m4 0h1m10 0h1m1 0h3m4 0h2m3 0h6m1 0h1m1 0h1M5 47.5h2m1 0h2m2 0h1m3 0h2m1 0h2m2 0h2m1 0h1m1 0h1m2 0h1m5 0h2m3 0h1m5 0h3m1 0h2m1 0h2m4 0h1m1 0h2m2 0h2m10 0h1m1 0h1m1 0h1m1 0h2m1 0h2m2 0h1M4 48.5h1m1 0h1m1 0h3m2 0h1m1 0h1m1 0h1m1 0h1m2 0h1m2 0h1m3 0h1m1 0h1m3 0h1m4 0h1m6 0h5m3 0h1m1 0h2m5 0h6m1 0h1m6 0h6m5 0h1m1 0h2M4 49.5h6m1 0h1m2 0h1m2 0h4m3 0h1m1 0h4m1 0h3m1 0h1m1 0h2m1 0h1m1 0h2m1 0h2m1 0h2m1 0h1m2 0h2m1 0h1m1 0h1m5 0h1m3 0h2m2 0h1m2 0h1m5 0h4m4 0h1m1 0h1M5 50.5h1m1 0h1m2 0h1m2 0h3m1 0h1m1 0h1m1 0h1m4 0h2m3 0h2m1 0h1m1 0h5m3 0h1m2 0h1m2 0h3m6 0h1m1 0h5m2 0h1m1 0h3m4 0h6m1 0h5m1 0h1M5 51.5h1m1 0h1m1 0h1m3 0h5m1 0h1m1 0h1m1 0h1m3 0h2m3 0h1m1 0h1m3 0h2m1 0h1m4 0h1m2 0h2m2 0h2m1 0h1m1 0h2m1 0h2m2 0h2m1 0h1m4 0h1m1 0h2m2 0h3m5 0h3m2 0h1M5 52.5h2m1 0h4m1 0h3m2 0h2m1 0h1m1 0h1m2 0h1m1 0h3m1 0h2m1 0h2m1 0h2m1 0h2m2 0h1m1 0h4m2 0h1m1 0h2m2 0h2m1 0h1m4 0h3m3 0h1m1 0h1m2 0h1m1 0h1m1 0h5m4 0h1M7 53.5h2m4 0h2m8 0h3m4 0h2m2 0h2m1 0h5m2 0h1m1 0h4m3 0h2m3 0h1m1 0h1m1 0h3m2 0h1m2 0h3m5 0h1m1 0h1m7 0h1m3 0h1M4 54.5h5m1 0h1m2 0h1m1 0h2m3 0h2m1 0h2m2 0h2m1 0h2m2 0h1m3 0h1m1 0h1m1 0h1m3 0h1m2 0h1m1 0h1m2 0h1m6 0h1m2 0h1m8 0h2m1 0h6m2 0h2m3 0h2M4 55.5h3m1 0h1m5 0h1m1 0h1m1 0h1m2 0h2m1 0h1m1 0h2m1 0h1m2 0h1m4 0h1m1 0h2m2 0h2m1 0h1m1 0h4m2 0h1m1 0h1m2 0h3m1 0h4m2 0h3m1 0h1m1 0h1m3 0h1m2 0h1m2 0h4m3 0h1M5 56.5h1m1 0h1m2 0h2m6 0h2m2 0h1m4 0h2m5 0h2m2 0h1m1 0h1m1 0h1m3 0h1m1 0h2m3 0h1m2 0h1m6 0h3m2 0h5m12 0h1m3 0h3M5 57.5h1m1 0h1m1 0h1m5 0h1m2 0h1m1 0h1m1 0h1m1 0h6m1 0h4m3 0h4m5 0h2m3 0h1m3 0h3m1 0h1m1 0h4m1 0h1m2 0h1m4 0h8m1 0h1m2 0h2m2 0h1M8 58.5h9m5 0h1m2 0h1m1 0h2m2 0h7m1 0h5m1 0h1m4 0h7m1 0h8m6 0h3m7 0h1m1 0h5m3 0h1M7 59.5h2m3 0h1m1 0h1m1 0h3m3 0h1m1 0h2m1 0h1m1 0h1m1 0h2m3 0h2m4 0h2m2 0h2m1 0h4m1 0h1m2 0h2m3 0h2m1 0h3m5 0h2m4 0h1m4 0h1m3 0h1M8 60.5h1m1 0h1m1 0h2m2 0h2m1 0h1m1 0h1m2 0h1m1 0h1m1 0h5m1 0h1m1 0h1m1 0h1m2 0h3m2 0h1m6 0h1m4 0h1m1 0h1m1 0h1m3 0h1m2 0h3m3 0h1m1 0h2m1 0h2m2 0h1m1 0h1m1 0h2m2 0h1M4 61.5h1m1 0h1m1 0h1m3 0h2m1 0h2m2 0h2m3 0h1m2 0h1m2 0h3m3 0h3m2 0h1m1 0h2m3 0h1m3 0h1m4 0h2m3 0h2m1 0h2m7 0h1m2 0h4m1 0h1m1 0h1m3 0h1m2 0h1M5 62.5h10m1 0h2m1 0h2m4 0h2m1 0h1m1 0h1m1 0h5m2 0h3m2 0h2m2 0h3m4 0h1m1 0h6m1 0h1m5 0h1m3 0h1m1 0h2m4 0h8m1 0h1M4 63.5h3m2 0h1m1 0h1m1 0h2m3 0h1m2 0h2m3 0h3m6 0h3m3 0h1m4 0h1m1 0h2m1 0h3m1 0h1m1 0h4m4 0h1m1 0h1m1 0h2m1 0h1m1 0h1m2 0h1m1 0h1m1 0h1m1 0h1m2 0h1m2 0h2M4 64.5h1m2 0h1m1 0h2m2 0h1m1 0h6m1 0h3m2 0h1m2 0h1m4 0h1m1 0h1m1 0h1m2 0h1m1 0h5m5 0h3m1 0h1m1 0h1m1 0h3m1 0h1m3 0h1m1 0h2m1 0h2m4 0h2m1 0h1m2 0h1m3 0h2M4 65.5h1m1 0h1m1 0h1m3 0h2m4 0h1m5 0h3m1 0h1m7 0h1m3 0h1m1 0h2m1 0h1m1 0h1m1 0h3m1 0h2m1 0h6m1 0h2m5 0h4m2 0h1m2 0h3m1 0h2m2 0h2m2 0h1M4 66.5h3m3 0h2m1 0h3m4 0h3m2 0h2m1 0h1m1 0h6m2 0h2m1 0h1m5 0h2m3 0h1m7 0h3m3 0h2m2 0h2m1 0h2m1 0h1m1 0h4m1 0h1m1 0h2m2 0h1m1 0h1M6 67.5h1m2 0h1m1 0h1m3 0h1m3 0h3m1 0h1m12 0h1m1 0h4m2 0h1m1 0h1m2 0h5m1 0h2m1 0h6m1 0h1m1 0h3m3 0h1m1 0h3m1 0h2m1 0h1m1 0h2m5 0h1M5 68.5h1m1 0h4m3 0h2m1 0h1m1 0h2m2 0h1m1 0h2m1 0h1m4 0h4m2 0h1m3 0h2m3 0h1m1 0h3m1 0h3m2 0h1m8 0h5m1 0h1m1 0h1m2 0h2m2 0h5m1 0h1m1 0h1M7 69.5h1m3 0h1m2 0h1m1 0h1m2 0h1m1 0h7m6 0h1m1 0h1m2 0h3m2 0h2m3 0h4m1 0h1m2 0h2m1 0h9m3 0h1m4 0h3m1 0h4m1 0h1m1 0h1m1 0h3M5 70.5h1m1 0h1m2 0h2m1 0h3m2 0h1m2 0h2m4 0h2m4 0h2m1 0h3m2 0h1m2 0h1m1 0h1m3 0h2m2 0h2m1 0h3m1 0h4m3 0h1m1 0h1m3 0h1m2 0h2m1 0h1m2 0h1m4 0h1m1 0h2M5 71.5h1m1 0h2m2 0h2m5 0h2m3 0h2m2 0h1m3 0h1m2 0h2m1 0h2m1 0h5m2 0h3m2 0h2m1 0h6m2 0h1m1 0h3m1 0h2m2 0h2m2 0h3m1 0h4m6 0h1M5 72.5h2m2 0h2m3 0h2m1 0h2m1 0h1m2 0h2m1 0h1m1 0h1m2 0h2m1 0h1m2 0h1m1 0h2m1 0h1m2 0h4m3 0h5m3 0h1m1 0h1m2 0h1m1 0h2m3 0h1m1 0h2m2 0h3m1 0h1m2 0h1m1 0h3m2 0h1M9 73.5h1m2 0h2m2 0h2m1 0h2m1 0h3m4 0h4m1 0h1m3 0h2m2 0h2m2 0h1m1 0h1m2 0h2m5 0h2m2 0h4m1 0h2m4 0h1m1 0h1m2 0h4m1 0h1m1 0h3m2 0h1m1 0h1M6 74.5h2m1 0h2m2 0h2m3 0h2m2 0h1m1 0h2m2 0h2m2 0h1m1 0h1m1 0h2m1 0h1m3 0h1m1 0h1m2 0h1m2 0h2m2 0h4m2 0h2m1 0h1m4 0h3m3 0h1m2 0h1m3 0h2m3 0h3m1 0h2M4 75.5h1m6 0h1m1 0h1m1 0h1m1 0h2m1 0h4m1 0h1m2 0h1m1 0h5m1 0h2m2 0h1m1 0h1m1 0h4m1 0h3m1 0h1m1 0h1m2 0h2m2 0h1m1 0h1m2 0h2m3 0h1m3 0h2m1 0h1m1 0h1m4 0h4m2 0h1M5 76.5h1m2 0h5m2 0h1m1 0h1m1 0h2m3 0h2m3 0h3m5 0h3m1 0h1m3 0h2m1 0h1m2 0h1m1 0h2m2 0h1m1 0h3m2 0h6m2 0h1m3 0h2m3 0h3m3 0h4m1 0h1M4 77.5h1m6 0h1m2 0h1m1 0h1m2 0h1m3 0h5m4 0h3m2 0h1m2 0h1m1 0h1m2 0h1m7 0h2m1 0h2m1 0h1m2 0h1m4 0h3m2 0h1m1 0h1m5 0h2m2 0h3m1 0h1m1 0h1m1 0h1M4 78.5h1m2 0h1m1 0h4m3 0h2m1 0h2m4 0h2m1 0h5m2 0h2m1 0h2m1 0h2m1 0h3m1 0h2m1 0h1m1 0h1m1 0h1m6 0h1m1 0h1m2 0h1m2 0h2m1 0h1m1 0h2m1 0h2m2 0h1m2 0h1m1 0h1m2 0h1m1 0h1M5 79.5h2m1 0h1m3 0h1m2 0h1m1 0h1m1 0h4m2 0h1m1 0h1m2 0h1m1 0h3m1 0h1m1 0h3m1 0h2m1 0h2m1 0h3m2 0h1m2 0h2m1 0h1m1 0h2m1 0h1m2 0h2m3 0h1m1 0h1m3 0h1m1 0h1m2 0h1m1 0h1m1 0h1m3 0h2M4 80.5h1m1 0h1m3 0h1m2 0h1m2 0h1m1 0h1m3 0h1m1 0h3m5 0h1m4 0h1m2 0h1m6 0h1m1 0h1m1 0h3m1 0h1m3 0h2m1 0h2m2 0h1m1 0h1m1 0h1m4 0h3m1 0h1m1 0h4m1 0h1m3 0h2M4 81.5h1m2 0h3m1 0h3m1 0h4m1 0h2m1 0h1m1 0h1m1 0h1m2 0h4m1 0h1m2 0h4m1 0h3m3 0h1m2 0h4m1 0h1m1 0h2m2 0h1m1 0h2m1 0h2m1 0h1m2 0h1m1 0h2m1 0h1m1 0h1m4 0h1m2 0h4M4 82.5h1m2 0h1m2 0h1m4 0h1m4 0h1m1 0h3m1 0h3m1 0h4m1 0h1m2 0h2m2 0h1m1 0h1m1 0h1m4 0h1m1 0h3m1 0h1m1 0h4m2 0h1m1 0h3m1 0h2m1 0h4m1 0h2m3 0h2m2 0h2M4 83.5h2m2 0h2m1 0h2m4 0h2m1 0h2m1 0h1m3 0h1m3 0h1m1 0h1m1 0h2m3 0h1m1 0h5m1 0h3m1 0h2m2 0h3m1 0h4m2 0h1m1 0h4m2 0h1m1 0h1m1 0h4m1 0h4m3 0h2M4 84.5h1m2 0h1m2 0h1m1 0h1m1 0h2m1 0h2m2 0h1m1 0h1m3 0h2m3 0h5m3 0h2m3 0h2m2 0h1m1 0h1m1 0h1m1 0h2m1 0h5m2 0h4m2 0h3m2 0h2m1 0h1m4 0h5m2 0h2M12 85.5h1m1 0h1m1 0h1m1 0h2m3 0h1m4 0h3m1 0h1m3 0h4m3 0h2m1 0h1m1 0h1m3 0h4m1 0h2m3 0h1m2 0h1m1 0h2m3 0h2m4 0h5m1 0h1m3 0h1m1 0h1M4 86.5h7m1 0h1m1 0h1m1 0h1m1 0h2m1 0h3m3 0h1m1 0h1m1 0h2m1 0h1m1 0h7m1 0h2m1 0h3m1 0h4m1 0h3m1 0h1m1 0h2m4 0h7m2 0h2m2 0h4m1 0h1m1 0h1m2 0h2M4 87.5h1m5 0h1m3 0h3m2 0h1m2 0h3m3 0h3m1 0h1m3 0h3m1 0h1m3 0h1m3 0h2m2 0h1m5 0h1m3 0h1m5 0h2m1 0h1m4 0h3m1 0h3m1 0h1m3 0h1m1 0h1M4 88.5h1m1 0h3m1 0h1m1 0h1m1 0h2m1 0h1m1 0h2m1 0h2m1 0h1m3 0h1m1 0h7m2 0h2m1 0h2m1 0h7m4 0h8m2 0h2m7 0h4m4 0h7M4 89.5h1m1 0h3m1 0h1m1 0h2m3 0h1m1 0h1m1 0h2m2 0h1m2 0h1m1 0h2m1 0h2m3 0h2m3 0h1m2 0h1m2 0h2m1 0h1m1 0h4m4 0h1m3 0h5m2 0h2m1 0h1m1 0h3m1 0h1m2 0h5m1 0h1M4 90.5h1m1 0h3m1 0h1m1 0h2m2 0h6m4 0h1m2 0h1m2 0h1m1 0h1m1 0h3m1 0h4m1 0h1m2 0h2m1 0h1m3 0h1m4 0h2m1 0h3m1 0h1m5 0h3m3 0h1m1 0h1m2 0h1m1 0h1m2 0h3M4 91.5h1m5 0h1m1 0h6m1 0h1m2 0h2m1 0h1m1 0h1m1 0h4m2 0h1m1 0h1m1 0h1m5 0h1m1 0h1m1 0h1m1 0h2m2 0h1m1 0h1m2 0h3m6 0h2m2 0h1m2 0h2m3 0h1m1 0h3m1 0h1m3 0h1M4 92.5h7m1 0h1m2 0h2m4 0h6m2 0h2m1 0h1m2 0h1m2 0h2m3 0h1m2 0h1m1 0h3m1 0h1m1 0h1m11 0h2m1 0h1m2 0h2m1 0h1m1 0h1m5 0h1m3 0h1m2 0h1"/></svg>
