<svg xmlns="http://www.w3.org/2000/svg" viewBox="0 0 117 117" shape-rendering="crispEdges"><path fill="#ffffff" d="M0 0h117v117H0z"/><path stroke="#000000" d="M4 4.5h7m4 0h1m1 0h2m2 0h1m1 0h3m3 0h5m4 0h2m1 0h2m5 0h1m4 0h2m2 0h1m3 0h3m1 0h1m2 0h3m2 0h1m5 0h2m1 0h1m1 0h3m1 0h1m4 0h3m1 0h2m2 0h1m2 0h1m1 0h7M4 5.5h1m5 0h1m2 0h2m1 0h1m3 0h2m2 0h3m5 0h2m2 0h2m1 0h1m3 0h2m5 0h4m2 0h1m2 0h2m1 0h1m5 0h8m2 0h1m3 0h1m1 0h2m1 0h1m2 0h3m2 0h1m1 0h2m3 0h1m1 0h1m1 0h1m5 0h1M4 6.5h1m1 0h3m1 0h1m2 0h2m2 0h2m1 0h2m1 0h1m2 0h3m1 0h1m1 0h4m2 0h1m1 0h2m3 0h2m1 0h3m2 0h1m3 0h1m3 0h3m1 0h1m3 0h1m3 0h1m4 0h1m1 0h2m2 0h1m1 0h1m1 0h2m2 0h2m3 0h1m3 0h4m1 0h1m1 0h3m1 0h1M4 7.5h1m1 0h3m1 0h1m2 0h1m2 0h3m3 0h2m3 0h2m4 0h1m1 0h2m1 0h1m1 0h2m2 0h2m2 0h1m1 0h1m3 0h1m6 0h1m2 0h2m1 0h1m2 0h2m1 0h2m1 0h1m2 0h2m1 0h3m2 0h1m5 0h4m2 0h1m1 0h3m2 0h1m1 0h3m1 0h1M4 8.5h1m1 0h3m1 0h1m2 0h1m1 0h2m2 0h1m1 0h2m2 0h4m1 0h1m1 0h5m3 0h1m3 0h2m2 0h1m3 0h1m1 0h10m1 0h1m2 0h1m1 0h3m1 0h1m2 0h1m1 0h6m2 0h1m1 0h1m1 0h1m2 0h2m2 0h2m2 0h3m1 0h1m1 0h3m1 0h1M4 9.5h1m5 0h1m1 0h2m1 0h1m2 0h2m3 0h1m1 0h2m1 0h2m2 0h1m3 0h1m1 0h2m4 0h2m2 0h4m4 0h1m3 0h1m2 0h2m2 0h6m1 0h2m1 0h1m2 0h1m3 0h1m1 0h2m1 0h1m2 0h1m1 0h3m4 0h1m1 0h1m2 0h1m5 0h1M4 10.5h7m1 0h1m1 0h1m1 0h1m1 0h1m1 0h1m1 0h1m1 0h1m1 0h1m1 0h1m1 0h1m1 0h1m1 0h1m1 0h1m1 0h1m1 0h1m1 0h1m1 0h1m1 0h1m1 0h1m1 0h1m1 0h1m1 0h1m1 0h1m1 0h1m1 0h1m1 0h1m1 0h1m1 0h1m1 0h1m1 0h1m1 0h1m1 0h1m1 0h1m1 0h1m1 0h1m1 0h1m1 0h1m1 0h1m1 0h1m1 0h1m1 0h1m1 0h1m1 0h1m1 0h1m1 0h1m1 0h1m1 0h1m1 0h7M14 11.5h1m3 0h1m2 0h3m1 0h2m1 0h1m1 0h3m3 0h1m1 0h1m1 0h3m4 0h1m2 0h1m3 0h1m1 0h1m3 0h1m2 0h1m1 0h1m2 0h2m6 0h1m3 0h1m3 0h1m2 0h3m3 0h1m2 0h3m2 0h1m2 0h1M4 12.5h1m2 0h1m1 0h2m1 0h1m1 0h2m1 0h1m3 0h1m3 0h3m2 0h8m1 0h3m6 0h1m1 0h1m1 0h3m1 0h5m1 0h1m1 0h2m2 0h1m1 0h2m4 0h2m2 0h5m1 0h1m1 0h4m6 0h2m1 0h2m1 0h2m1 0h1M4 13.5h3m2 0h1m7 0h1m1 0h3m2 0h3m3 0h1m1 0h1m3 0h4m4 0h2m4 0h1m1 0h2m2 0h1m4 0h1m1 0h1m1 0h1m3 0h4m3 0h1m2 0h1m1 0h2m3 0h1m1 0h2m2 0h2m1 0h3m1 0h4m2 0h1m1 0h1m3 0h1M4 14.5h1m1 0h1m2 0h4m1 0h2m1 0h1m1 0h1m3 0h1m1 0h1m2 0h3m1 0h2m1 0h1m1 0h1m1 0h1m2 0h3m1 0h1m2 0h1m2 0h2m2 0h3m1 0h1m1 0h1m1 0h2m1 0h2m2 0h3m2 0h3m1 0h2m3 0h1m1 0h4m3 0h4m1 0h1m2 0h1m5 0h1m1 0h2M4 15.5h1m3 0h1m2 0h1m1 0h1m3 0h3m2 0h5m1 0h1m1 0h5m2 0h1m2 0h2m3 0h2m1 0h1m2 0h1m2 0h1m2 0h4m2 0h1m1 0h1m3 0h1m2 0h2m3 0h4m2 0h1m1 0h1m1 0h4m1 0h1m1 0h2m1 0h1m3 0h2m1 0h1m1 0h1M4 16.5h1m3 0h1m1 0h1m1 0h1m1 0h1m2 0h1m1 0h1m3 0h4m1 0h3m1 0h1m1 0h1m1 0h4m1 0h4m3 0h2m1 0h5m1 0h1m1 0h2m5 0h2m2 0h2m1 0h1m2 0h1m2 0h1m3 0h1m4 0h1m3 0h3m3 0h1m1 0h2m4 0h2m3 0h2M5 17.5h1m2 0h1m3 0h2m2 0h1m1 0h1m4 0h3m4 0h2m2 0h2m5 0h2m3 0h1m1 0h1m2 0h1m2 0h3m1 0h1m6 0h3m1 0h4m1 0h2m1 0h2m3 0h3m1 0h1m3 0h1m1 0h2m1 0h1m5 0h1m2 0h2m2 0h2m1 0h2M4 18.5h2m4 0h2m1 0h1m3 0h1m2 0h3m1 0h1m2 0h1m1 0h1m2 0h3m2 0h2m7 0h1m1 0h5m1 0h3m1 0h2m1 0h1m1 0h2m1 0h8m2 0h1m2 0h2m1 0h2m2 0h1m1 0h2m1 0h1m1 0h1m1 0h1m2 0h1m2 0h1m1 0h1m2 0h1m1 0h1m1 0h3M5 19.5h1m3 0h1m3 0h1m1 0h1m3 0h1m2 0h2m2 0h2m3 0h1m1 0h1m3 0h3m4 0h2m2 0h2m1 0h2m2 0h1m1 0h1m1 0h1m1 0h1m3 0h1m3 0h3m2 0h2m3 0h2m2 0h1m1 0h1m4 0h1m1 0h2m4 0h2m1 0h3m1 0h1m1 0h1m2 0h3M5 20.5h1m1 0h2m1 0h2m1 0h1m1 0h2m2 0h3m3 0h1m1 0h1m1 0h1m1 0h6m1 0h4m3 0h1m1 0h1m4 0h3m1 0h3m1 0h1m2 0h11m5 0h1m5 0h1m2 0h1m4 0h2m4 0h1m1 0h1m1 0h6m2 0h2M5 21.5h5m1 0h1m2 0h3m1 0h1m3 0h4m1 0h3m2 0h1m2 0h2m2 0h4m1 0h3m1 0h2m3 0h3m2 0h6m1 0h4m1 0h4m4 0h2m1 0h1m1 0h1m1 0h3m1 0h5m2 0h5m1 0h3m1 0h1m1 0h1m2 0h2M6 22.5h1m1 0h5m2 0h6m2 0h2m3 0h1m2 0h1m2 0h3m2 0h1m1 0h1m6 0h1m1 0h3m2 0h2m1 0h1m1 0h6m1 0h2m2 0h4m1 0h3m1 0h4m1 0h4m1 0h1m1 0h1m2 0h2m1 0h1m1 0h2m1 0h2m1 0h1m1 0h1m3 0h1M11 23.5h3m1 0h3m1 0h1m4 0h2m1 0h4m2 0h4m1 0h2m1 0h4m5 0h1m3 0h2m1 0h3m1 0h2m1 0h6m1 0h1m2 0h1m2 0h3m1 0h4m1 0h2m6 0h1m2 0h2m1 0h1m3 0h1m2 0h2m1 0h1M5 24.5h1m1 0h4m2 0h4m1 0h1m1 0h4m2 0h1m1 0h2m3 0h2m1 0h1m1 0h1m5 0h1m3 0h2m2 0h1m1 0h1m1 0h1m1 0h2m1 0h1m1 0h1m2 0h2m1 0h3m1 0h2m1 0h1m7 0h1m3 0h3m2 0h1m1 0h1m1 0h3m2 0h1m2 0h1m3 0h2M4 25.5h3m1 0h1m5 0h2m1 0h1m5 0h1m2 0h3m1 0h2m1 0h5m2 0h2m1 0h2m2 0h2m4 0h4m1 0h1m1 0h1m3 0h2m4 0h3m1 0h4m1 0h1m1 0h2m1 0h2m1 0h1m4 0h4m2 0h1m1 0h1m2 0h1m1 0h2m1 0h1M4 26.5h1m5 0h1m2 0h3m1 0h3m1 0h1m2 0h2m1 0h1m7 0h8m1 0h1m1 0h1m3 0h1m6 0h2m3 0h1m1 0h2m1 0h1m1 0h3m2 0h1m1 0h1m1 0h1m1 0h2m1 0h1m3 0h1m1 0h1m1 0h3m2 0h2m2 0h3m4 0h1m1 0h1m1 0h1M4 27.5h1m1 0h1m1 0h2m3 0h2m2 0h4m3 0h1m2 0h5m2 0h3m2 0h2m2 0h1m1 0h2m2 0h1m1 0h2m1 0h4m1 0h1m1 0h3m2 0h1m2 0h2m5 0h1m2 0h2m4 0h3m5 0h1m1 0h2m2 0h1m1 0h4m4 0h1m1 0h1M4 28.5h3m2 0h2m1 0h1m1 0h3m2 0h3m1 0h3m2 0h1m4 0h1m3 0h1m7 0h1m2 0h1m1 0h2m1 0h1m1 0h2m4 0h1m1 0h1m1 0h3m1 0h1m1 0h4m1 0h3m1 0h1m3 0h2m1 0h5m2 0h2m1 0h2m1 0h2m2 0h3m1 0h1m1 0h3M5 29.5h1m2 0h2m2 0h3m2 0h2m1 0h1m1 0h1m4 0h1m5 0h4m3 0h1m2 0h6m1 0h1m3 0h1m1 0h1m1 0h1m1 0h1m2 0h1m2 0h1m3 0h1m2 0h2m3 0h1m1 0h3m1 0h1m1 0h2m2 0h1m1 0h1m1 0h1m1 0h4m1 0h1m1 0h1m4 0h2m1 0h1M4 30.5h1m1 0h2m1 0h3m1 0h2m1 0h1m1 0h1m2 0h3m1 0h2m3 0h3m4 0h2m2 0h1m1 0h2m5 0h2m1 0h4m8 0h2m3 0h1m1 0h3m3 0h2m1 0h3m4 0h1m3 0h3m1 0h1m2 0h4m2 0h3m3 0h1M5 31.5h1m1 0h3m1 0h1m1 0h1m2 0h1m1 0h1m2 0h1m2 0h1m3 0h1m1 0h2m1 0h1m2 0h2m5 0h1m1 0h1m1 0h2m3 0h2m2 0h2m1 0h5m1 0h1m1 0h1m2 0h2m1 0h2m1 0h1m3 0h1m1 0h1m1 0h7m3 0h7m4 0h3m2 0h3M4 32.5h1m1 0h7m1 0h1m3 0h1m1 0h1m1 0h1m4 0h1m1 0h2m1 0h8m2 0h4m6 0h1m3 0h5m1 0h1m1 0h2m4 0h1m1 0h1m5 0h1m1 0h6m2 0h2m1 0h1m5 0h1m4 0h1m1 0h6M6 33.5h1m1 0h1m3 0h1m1 0h2m1 0h1m1 0h4m3 0h3m1 0h1m1 0h1m3 0h1m2 0h1m3 0h1m2 0h1m4 0h3m2 0h1m3 0h3m2 0h1m1 0h1m2 0h1m1 0h1m1 0h1m1 0h1m2 0h2m3 0h5m1 0h1m3 0h4m3 0h1m1 0h2m3 0h1m2 0h1M5 34.5h4m1 0h1m1 0h2m1 0h1m2 0h1m3 0h1m3 0h2m1 0h1m2 0h1m1 0h1m1 0h1m1 0h3m4 0h1m4 0h4m2 0h1m1 0h1m1 0h3m1 0h2m1 0h2m3 0h1m2 0h3m2 0h1m1 0h1m1 0h1m2 0h2m2 0h1m1 0h1m1 0h1m1 0h1m1 0h3m1 0h2m1 0h1m1 0h1m3 0h1M5 35.5h1m2 0h1m3 0h3m1 0h1m3 0h2m1 0h1m4 0h5m3 0h2m1 0h2m2 0h1m1 0h1m2 0h1m1 0h1m1 0h1m3 0h1m3 0h1m3 0h2m1 0h6m1 0h2m2 0h3m3 0h2m2 0h2m7 0h2m1 0h1m1 0h3m3 0h3m1 0h1M5 36.5h2m1 0h5m1 0h8m2 0h2m3 0h10m1 0h1m1 0h1m1 0h1m3 0h4m4 0h8m2 0h3m1 0h1m1 0h1m3 0h1m3 0h5m4 0h4m1 0h1m3 0h1m3 0h1m1 0h8M6 37.5h1m1 0h2m1 0h1m2 0h1m3 0h1m3 0h2m4 0h1m1 0h2m1 0h4m4 0h1m1 0h3m1 0h2m6 0h7m2 0h1m2 0h1m1 0h1m2 0h4m1 0h1m2 0h1m1 0h1m2 0h1m2 0h2m5 0h2m1 0h2m1 0h1m1 0h1m1 0h3m1 0h3M6 38.5h1m2 0h3m2 0h2m1 0h1m1 0h1m2 0h1m2 0h3m3 0h1m2 0h3m2 0h5m3 0h1m3 0h2m4 0h4m1 0h1m1 0h1m1 0h1m3 0h1m2 0h1m2 0h1m5 0h1m1 0h3m1 0h1m1 0h2m4 0h2m2 0h1m1 0h3m2 0h3m2 0h1M7 39.5h3m5 0h2m1 0h2m1 0h1m1 0h2m1 0h4m1 0h1m1 0h1m1 0h6m3 0h2m1 0h1m2 0h1m2 0h1m2 0h1m5 0h6m2 0h3m3 0h8m1 0h3m1 0h1m2 0h1m1 0h1m1 0h1m1 0h1m1 0h2m4 0h1M5 40.5h8m1 0h1m1 0h2m1 0h1m1 0h1m1 0h1m1 0h2m1 0h2m1 0h2m6 0h1m2 0h1m1 0h2m2 0h1m1 0h1m2 0h2m2 0h1m1 0h1m2 0h1m2 0h1m2 0h2m2 0h4m1 0h1m1 0h6m1 0h4m1 0h1m1 0h1m2 0h2m1 0h7m1 0h3m2 0h1M6 41.5h2m1 0h1m1 0h1m3 0h2m1 0h1m2 0h4m3 0h1m1 0h1m2 0h1m1 0h1m2 0h1m1 0h1m3 0h1m1 0h2m6 0h1m1 0h2m4 0h1m1 0h1m1 0h3m4 0h1m2 0h1m1 0h1m4 0h2m1 0h3m7 0h3m2 0h1m3 0h2m1 0h1m1 0h2M5 42.5h2m2 0h5m2 0h1m3 0h1m1 0h2m1 0h1m1 0h7m5 0h4m2 0h1m1 0h6m4 0h1m1 0h1m2 0h1m2 0h5m1 0h1m1 0h1m3 0h1m1 0h1m9 0h1m3 0h1m2 0h1m2 0h1m2 0h4m4 0h1M8 43.5h2m5 0h2m1 0h1m1 0h2m3 0h1m3 0h3m3 0h4m2 0h1m1 0h2m3 0h1m5 0h1m8 0h3m1 0h2m1 0h3m1 0h1m1 0h5m6 0h3m3 0h4m1 0h2m1 0h1m2 0h4m1 0h1m1 0h2M5 44.5h1m1 0h2m1 0h2m5 0h2m2 0h2m2 0h2m2 0h1m1 0h1m1 0h1m1 0h6m3 0h3m5 0h1m1 0h1m1 0h5m6 0h2m1 0h2m1 0h6m1 0h1m2 0h1m8 0h1m6 0h2m2 0h1m2 0h1m1 0h1m1 0h2M4 45.5h1m7 0h2m1 0h3m1 0h1m2 0h2m1 0h1m1 0h1m2 0h3m4 0h3m6 0h2m1 0h1m1 0h2m2 0h1m1 0h1m1 0h1m3 0h3m2 0h2m1 0h4m3 0h3m2 0h1m2 0h3m4 0h1m1 0h3m1 0h2m1 0h4m2 0h1m1 0h3M4 46.5h1m1 0h2m2 0h2m1 0h1m4 0h3m3 0h1m2 0h1m4 0h3m1 0h1m2 0h4m2 0h1m1 0h2m3 0h1m1 0h1m3 0h1m3 0h1m1 0h2m1 0h2m1 0h4m1 0h1m2 0h1m2 0h2m1 0h2m3 0h3m5 0h1m4 0h3m4 0h1m1 0h2M4 47.5h3m2 0h1m1 0h4m1 0h3m2 0h1m2 0h1m4 0h2m1 0h1m2 0h2m8 0h1m3 0h2m1 0h2m6 0h1m1 0h1m1 0h1m3 0h1m2 0h1m1 0h3m1 0h1m1 0h1m1 0h3m2 0h3m1 0h2m2 0h1m2 0h3m4 0h1m1 0h1m1 0h2m1 0h2M4 48.5h1m2 0h1m1 0h4m3 0h2m1 0h1m4 0h2m2 0h4m1 0h1m3 0h1m1 0h5m3 0h1m2 0h2m1 0h1m2 0h3m1 0h1m3 0h1m2 0h1m1 0h1m1 0h1m2 0h1m1 0h3m1 0h2m2 0h2m4 0h1m2 0h4m2 0h3m1 0h3m1 0h1m1 0h1m1 0h2M11 49.5h9m1 0h2m2 0h2m2 0h4m3 0h6m1 0h1m1 0h3m2 0h1m1 0h1m3 0h1m1 0h3m2 0h3m1 0h2m5 0h1m1 0h1m2 0h4m3 0h8m3 0h2m1 0h1m3 0h1m3 0h5M4 50.5h3m3 0h1m1 0h4m3 0h1m5 0h2m2 0h1m4 0h3m1 0h1m6 0h2m1 0h1m1 0h1m1 0h3m1 0h1m2 0h1m4 0h2m5 0h1m4 0h2m1 0h2m3 0h1m2 0h2m6 0h1m1 0h5m1 0h2m2 0h1m2 0h2M5 51.5h4m2 0h2m2 0h4m2 0h1m1 0h1m1 0h9m2 0h1m4 0h2m3 0h8m1 0h1m3 0h2m1 0h1m1 0h2m1 0h1m1 0h2m1 0h2m1 0h1m1 0h5m1 0h2m3 0h1m2 0h1m3 0h1m6 0h2m1 0h1m5 0h1M4 52.5h2m1 0h4m2 0h3m1 0h2m2 0h1m4 0h1m1 0h1m1 0h1m2 0h1m4 0h2m4 0h1m1 0h4m8 0h2m2 0h1m3 0h2m1 0h3m1 0h2m1 0h3m1 0h1m1 0h1m1 0h1m2 0h3m1 0h1m1 0h2m2 0h3m5 0h2m1 0h2m2 0h1M4 53.5h1m1 0h1m5 0h3m3 0h1m2 0h1m2 0h3m1 0h4m1 0h2m3 0h2m3 0h2m5 0h1m1 0h1m2 0h7m1 0h3m1 0h1m1 0h1m2 0h2m1 0h4m2 0h1m1 0h2m1 0h1m1 0h1m1 0h1m1 0h2m1 0h3m1 0h1m3 0h1m1 0h1m1 0h6M6 54.5h5m5 0h2m1 0h1m2 0h1m2 0h3m2 0h1m1 0h1m3 0h1m2 0h1m2 0h1m1 0h4m2 0h1m2 0h2m3 0h3m1 0h2m1 0h1m1 0h3m2 0h4m6 0h3m1 0h1m3 0h2m5 0h3m1 0h2m1 0h3m2 0h2m1 0h1M4 55.5h1m1 0h1m5 0h2m1 0h2m1 0h1m1 0h1m6 0h1m1 0h2m2 0h4m2 0h2m2 0h2m1 0h2m1 0h1m5 0h1m2 0h1m4 0h1m1 0h1m4 0h1m1 0h1m2 0h4m5 0h1m4 0h2m1 0h2m2 0h1m2 0h1m2 0h2m1 0h1m1 0h1m1 0h1m1 0h2M6 56.5h7m1 0h9m4 0h1m2 0h7m3 0h1m1 0h2m4 0h1m1 0h1m1 0h1m3 0h6m1 0h1m7 0h2m2 0h3m2 0h7m1 0h3m1 0h2m1 0h1m3 0h2m2 0h7m1 0h1M6 57.5h1m1 0h1m3 0h1m1 0h1m2 0h2m2 0h2m2 0h3m2 0h3m3 0h2m2 0h3m3 0h2m5 0h1m2 0h1m3 0h1m1 0h1m3 0h1m1 0h1m2 0h2m1 0h1m1 0h1m1 0h1m1 0h1m3 0h5m1 0h1m3 0h3m3 0h2m1 0h2m3 0h3M8 58.5h1m1 0h1m1 0h1m1 0h2m1 0h2m1 0h2m1 0h1m4 0h3m1 0h1m1 0h1m1 0h4m2 0h1m1 0h1m1 0h1m4 0h2m1 0h1m1 0h1m1 0h1m1 0h3m1 0h1m1 0h4m3 0h2m1 0h5m1 0h1m1 0h2m1 0h1m2 0h2m1 0h1m4 0h2m1 0h1m1 0h2m1 0h1m1 0h3m1 0h1M4 59.5h1m2 0h2m3 0h3m3 0h4m1 0h1m2 0h1m2 0h1m1 0h2m3 0h2m3 0h2m2 0h3m7 0h2m3 0h1m3 0h4m4 0h1m3 0h1m3 0h1m3 0h6m3 0h1m1 0h1m2 0h3m3 0h1m3 0h1m1 0h1m1 0h1M6 60.5h8m2 0h8m1 0h1m1 0h1m2 0h7m1 0h1m4 0h1m1 0h2m1 0h1m1 0h2m1 0h2m1 0h5m1 0h1m2 0h3m1 0h3m4 0h2m1 0h8m2 0h1m4 0h3m1 0h1m1 0h3m1 0h6m2 0h1M5 61.5h5m2 0h4m1 0h5m1 0h1m3 0h2m4 0h2m1 0h1m2 0h1m2 0h2m5 0h1m2 0h4m6 0h1m3 0h2m4 0h2m2 0h1m1 0h1m2 0h1m2 0h4m1 0h2m2 0h1m1 0h1m2 0h2m2 0h1m1 0h2m1 0h5M4 62.5h1m1 0h5m1 0h2m1 0h1m1 0h1m1 0h2m4 0h1m1 0h3m2 0h1m1 0h11m1 0h2m2 0h1m2 0h2m1 0h2m3 0h2m1 0h2m1 0h1m1 0h1m1 0h2m1 0h1m1 0h3m2 0h1m1 0h1m1 0h2m2 0h2m3 0h3m4 0h3m2 0h4m2 0h1M4 63.5h1m1 0h4m3 0h1m3 0h2m3 0h2m1 0h1m5 0h2m2 0h3m1 0h1m2 0h7m2 0h1m1 0h2m4 0h3m1 0h1m2 0h1m4 0h2m3 0h1m1 0h1m1 0h1m3 0h1m2 0h8m1 0h3m1 0h1m2 0h1m1 0h2m1 0h2m1 0h2M6 64.5h1m1 0h6m3 0h1m2 0h4m1 0h1m1 0h3m1 0h1m1 0h3m1 0h2m1 0h1m5 0h1m1 0h1m1 0h1m1 0h3m1 0h3m3 0h1m2 0h8m1 0h1m2 0h2m1 0h2m2 0h6m2 0h2m2 0h2m2 0h1m1 0h1m1 0h2m3 0h3M6 65.5h1m1 0h1m6 0h1m1 0h1m4 0h3m5 0h1m1 0h3m1 0h1m5 0h3m1 0h1m2 0h4m1 0h3m5 0h1m5 0h4m2 0h3m1 0h1m5 0h1m1 0h1m2 0h1m1 0h1m5 0h2m3 0h1m1 0h6m2 0h1M5 66.5h3m2 0h1m3 0h4m2 0h2m1 0h1m1 0h1m2 0h3m1 0h2m1 0h2m2 0h2m1 0h2m1 0h2m5 0h1m2 0h2m2 0h1m3 0h2m2 0h3m3 0h2m1 0h1m2 0h1m2 0h1m1 0h2m1 0h2m2 0h1m4 0h1m3 0h2m4 0h1m1 0h1m1 0h2M5 67.5h1m3 0h1m2 0h2m1 0h2m4 0h2m1 0h1m1 0h4m1 0h3m1 0h1m1 0h2m2 0h2m1 0h4m2 0h1m1 0h2m3 0h3m1 0h1m1 0h1m1 0h4m1 0h1m2 0h2m5 0h3m4 0h2m2 0h1m2 0h2m1 0h6m3 0h2m3 0h1M5 68.5h13m3 0h1m4 0h1m2 0h3m2 0h1m2 0h2m2 0h1m1 0h1m1 0h1m2 0h1m1 0h3m1 0h2m1 0h5m2 0h1m1 0h1m5 0h1m5 0h1m2 0h2m1 0h1m1 0h1m1 0h1m1 0h2m2 0h1m3 0h1m1 0h3m1 0h2m3 0h1M4 69.5h1m1 0h1m6 0h1m1 0h3m1 0h6m2 0h1m2 0h3m1 0h4m2 0h2m1 0h2m4 0h2m1 0h1m1 0h1m1 0h1m1 0h1m2 0h1m1 0h5m1 0h2m1 0h1m1 0h4m4 0h3m1 0h1m3 0h1m2 0h1m3 0h3m5 0h1m1 0h4M5 70.5h2m2 0h2m1 0h4m1 0h2m2 0h1m1 0h1m2 0h1m2 0h1m2 0h1m3 0h1m1 0h1m1 0h1m1 0h1m1 0h1m3 0h1m2 0h1m1 0h4m1 0h3m3 0h2m1 0h3m2 0h1m1 0h1m1 0h2m3 0h1m4 0h4m2 0h5m1 0h9m1 0h1m1 0h2M8 71.5h1m2 0h2m3 0h1m4 0h2m3 0h1m4 0h6m4 0h1m2 0h6m4 0h3m2 0h1m1 0h1m1 0h1m2 0h5m3 0h2m2 0h1m1 0h1m2 0h1m3 0h4m2 0h5m2 0h2m2 0h2m3 0h2M6 72.5h2m2 0h1m2 0h2m1 0h1m1 0h2m1 0h2m1 0h1m2 0h3m1 0h1m1 0h3m1 0h3m8 0h1m1 0h1m1 0h1m1 0h1m1 0h1m2 0h1m2 0h5m1 0h1m1 0h1m3 0h1m1 0h1m1 0h1m1 0h2m3 0h1m1 0h1m2 0h2m2 0h1m1 0h1m3 0h1m2 0h1m2 0h1m1 0h1m1 0h3M4 73.5h1m3 0h1m2 0h1m8 0h1m2 0h1m2 0h2m3 0h2m4 0h3m2 0h4m2 0h2m1 0h2m1 0h1m1 0h1m1 0h2m1 0h1m1 0h1m1 0h1m3 0h5m2 0h4m5 0h1m3 0h1m3 0h6m1 0h4m1 0h3m4 0h1M4 74.5h3m1 0h4m1 0h4m2 0h4m1 0h5m3 0h1m1 0h4m4 0h3m2 0h2m4 0h2m1 0h1m1 0h4m1 0h1m1 0h1m1 0h2m1 0h1m1 0h1m1 0h1m1 0h3m1 0h3m3 0h1m1 0h1m1 0h2m3 0h1m3 0h1m1 0h4m1 0h4m2 0h1M11 75.5h3m1 0h1m1 0h2m1 0h1m1 0h1m1 0h2m2 0h1m2 0h2m1 0h1m3 0h5m3 0h4m2 0h1m1 0h1m2 0h1m5 0h2m1 0h5m3 0h1m3 0h1m2 0h3m1 0h1m1 0h4m1 0h1m1 0h1m1 0h1m1 0h2m1 0h2m2 0h2m1 0h2M9 76.5h4m1 0h2m2 0h1m4 0h8m1 0h2m8 0h1m1 0h1m3 0h1m1 0h2m2 0h3m2 0h1m1 0h2m2 0h1m2 0h1m1 0h1m2 0h1m1 0h2m1 0h1m3 0h5m1 0h5m3 0h4m4 0h1m1 0h2m3 0h2M5 77.5h2m1 0h1m2 0h2m1 0h3m1 0h4m2 0h4m2 0h3m6 0h1m1 0h6m3 0h4m2 0h3m4 0h6m1 0h2m2 0h1m2 0h3m3 0h2m2 0h1m2 0h1m1 0h1m3 0h2m1 0h1m1 0h3m1 0h2m2 0h1m2 0h1M4 78.5h1m2 0h1m2 0h1m2 0h1m1 0h2m3 0h1m1 0h1m3 0h1m2 0h1m1 0h2m1 0h1m1 0h1m1 0h2m3 0h1m1 0h1m2 0h1m1 0h1m1 0h2m1 0h2m3 0h3m2 0h2m3 0h1m2 0h2m1 0h1m1 0h2m1 0h1m2 0h1m1 0h1m2 0h1m5 0h2m1 0h1m3 0h1m3 0h1m2 0h1m1 0h1M6 79.5h3m2 0h1m2 0h2m1 0h1m1 0h1m3 0h1m6 0h1m2 0h1m1 0h1m3 0h1m1 0h2m1 0h1m1 0h1m6 0h2m1 0h4m1 0h1m1 0h2m2 0h4m3 0h2m2 0h3m1 0h1m2 0h1m1 0h2m3 0h3m3 0h1m2 0h1m1 0h1m4 0h3M4 80.5h1m1 0h1m1 0h5m2 0h5m1 0h1m2 0h3m4 0h12m1 0h1m1 0h4m4 0h7m2 0h1m1 0h1m3 0h1m1 0h4m1 0h1m2 0h8m2 0h2m2 0h1m1 0h1m1 0h1m1 0h2m3 0h6m1 0h1M6 81.5h1m1 0h1m3 0h1m1 0h6m2 0h2m3 0h2m3 0h1m3 0h1m1 0h1m3 0h4m3 0h3m1 0h4m3 0h1m2 0h3m1 0h3m2 0h1m1 0h3m3 0h1m3 0h2m1 0h1m3 0h2m3 0h2m1 0h4m1 0h1m3 0h2M4 82.5h1m2 0h2m1 0h1m1 0h2m5 0h6m6 0h2m1 0h1m1 0h6m5 0h4m1 0h1m1 0h3m1 0h1m1 0h1m3 0h1m5 0h6m1 0h1m1 0h2m1 0h1m1 0h1m5 0h1m1 0h2m1 0h4m2 0h2m1 0h1m1 0h1m1 0h2m2 0h1M6 83.5h1m1 0h1m3 0h2m1 0h2m2 0h3m2 0h5m2 0h2m3 0h4m3 0h1m3 0h3m6 0h1m3 0h1m1 0h1m1 0h3m2 0h1m1 0h1m1 0h2m2 0h1m1 0h2m3 0h1m3 0h1m2 0h1m1 0h1m3 0h1m1 0h1m1 0h1m2 0h1m3 0h3M4 84.5h2m2 0h8m6 0h1m1 0h5m2 0h6m3 0h2m3 0h3m3 0h2m2 0h6m3 0h1m1 0h1m1 0h1m1 0h1m2 0h4m2 0h9m3 0h1m1 0h2m1 0h4m3 0h6M4 85.5h1m1 0h2m1 0h1m4 0h3m1 0h1m3 0h1m1 0h1m1 0h3m2 0h1m2 0h3m3 0h2m1 0h1m5 0h1m1 0h3m1 0h2m1 0h2m2 0h7m2 0h3m3 0h1m3 0h1m8 0h2m5 0h1m2 0h1m2 0h1m3 0h3m1 0h1M8 86.5h3m2 0h1m1 0h1m2 0h1m2 0h1m1 0h4m1 0h2m2 0h2m1 0h3m2 0h1m1 0h2m2 0h2m2 0h1m1 0h2m4 0h1m1 0h2m3 0h3m4 0h1m1 0h1m2 0h4m3 0h2m1 0h1m2 0h1m1 0h1m3 0h2m4 0h1m1 0h5m1 0h1M5 87.5h1m5 0h2m1 0h1m1 0h1m2 0h1m1 0h1m4 0h1m5 0h1m5 0h3m1 0h4m2 0h2m1 0h2m1 0h2m1 0h2m2 0h1m1 0h1m1 0h1m1 0h1m2 0h1m1 0h1m1 0h2m3 0h5m1 0h2m1 0h2m4 0h2m1 0h2m1 0h3m1 0h2M5 88.5h1m2 0h1m1 0h1m2 0h1m6 0h2m2 0h1m1 0h4m6 0h1m1 0h1m2 0h1m1 0h1m2 0h1m1 0h1m1 0h6m4 0h1m1 0h2m2 0h1m1 0h1m2 0h1m1 0h1m1 0h1m1 0h3m6 0h2m1 0h1m3 0h1m2 0h1m2 0h1m1 0h1m2 0h1m5 0h1M7 89.5h1m4 0h1m3 0h2m2 0h3m3 0h4m1 0h2m1 0h4m4 0h3m5 0h2m2 0h3m1 0h2m1 0h2m2 0h2m2 0h2m2 0h1m8 0h2m2 0h1m1 0h1m2 0h1m2 0h1m1 0h1m2 0h1m1 0h1m1 0h1m2 0h2m1 0h1M4 90.5h2m2 0h1m1 0h1m3 0h1m1 0h2m1 0h1m2 0h1m2 0h1m2 0h4m1 0h2m1 0h1m1 0h1m2 0h1m1 0h1m1 0h3m1 0h1m2 0h1m1 0h1m2 0h4m1 0h3m2 0h3m3 0h3m1 0h4m4 0h1m4 0h1m2 0h3m1 0h3m4 0h2m1 0h2m1 0h2M5 91.5h1m5 0h1m1 0h2m1 0h1m7 0h1m1 0h2m1 0h1m1 0h3m1 0h8m5 0h1m1 0h2m3 0h1m1 0h1m1 0h6m2 0h1m1 0h1m3 0h2m4 0h1m1 0h2m7 0h1m1 0h1m1 0h2m1 0h1m1 0h1m1 0h1m1 0h1m1 0h1m1 0h1m3 0h1M4 92.5h3m2 0h3m1 0h3m2 0h1m1 0h4m1 0h1m5 0h2m2 0h3m2 0h1m1 0h1m2 0h2m2 0h1m3 0h3m1 0h1m1 0h1m1 0h3m2 0h1m1 0h1m1 0h2m1 0h1m1 0h1m2 0h1m2 0h1m1 0h4m2 0h1m4 0h1m2 0h1m3 0h1m5 0h2m3 0h1M5 93.5h1m1 0h1m1 0h1m2 0h1m3 0h1m2 0h2m3 0h1m1 0h2m2 0h1m1 0h8m2 0h1m1 0h1m2 0h1m2 0h1m1 0h3m1 0h1m1 0h1m1 0h5m1 0h1m3 0h2m6 0h3m1 0h2m1 0h2m1 0h1m1 0h1m1 0h3m2 0h2m3 0h3m4 0h3M4 94.5h4m1 0h2m1 0h1m9 0h2m1 0h1m1 0h3m3 0h1m1 0h1m1 0h1m1 0h2m1 0h1m3 0h1m3 0h3m5 0h3m1 0h2m2 0h3m1 0h3m2 0h2m2 0h3m4 0h1m1 0h1m1 0h5m1 0h1m2 0h4m1 0h1m1 0h1m4 0h2M7 95.5h2m4 0h2m1 0h3m1 0h2m4 0h1m1 0h2m3 0h4m1 0h1m2 0h1m2 0h3m1 0h4m3 0h4m1 0h1m1 0h3m3 0h1m1 0h1m1 0h3m1 0h1m1 0h1m2 0h1m6 0h2m1 0h3m1 0h2m1 0h2m2 0h1m2 0h5M4 96.5h1m1 0h2m2 0h2m1 0h1m2 0h1m1 0h2m1 0h1m1 0h3m4 0h1m1 0h1m1 0h1m3 0h1m2 0h2m1 0h2m1 0h1m1 0h1m1 0h2m3 0h3m1 0h4m2 0h2m1 0h3m2 0h2m1 0h1m7 0h3m3 0h3m2 0h1m3 0h1m4 0h2m3 0h1M5 97.5h1m5 0h2m1 0h2m3 0h1m5 0h1m1 0h1m1 0h1m2 0h2m1 0h2m1 0h1m1 0h3m1 0h1m1 0h1m2 0h3m1 0h2m1 0h1m1 0h3m1 0h1m4 0h3m1 0h1m1 0h2m2 0h2m1 0h4m1 0h1m2 0h4m1 0h2m1 0h4m1 0h5m2 0h5M4 98.5h2m1 0h5m2 0h1m7 0h6m1 0h2m2 0h1m1 0h2m1 0h2m2 0h2m2 0h1m2 0h1m1 0h2m2 0h1m2 0h1m1 0h1m1 0h4m2 0h1m1 0h1m2 0h1m3 0h3m1 0h2m1 0h3m1 0h2m4 0h1m3 0h1m3 0h1m4 0h1m1 0h3M4 99.5h3m1 0h2m1 0h3m1 0h5m1 0h1m2 0h1m2 0h2m2 0h1m1 0h3m1 0h2m1 0h3m1 0h4m1 0h1m1 0h1m2 0h1m1 0h2m2 0h1m1 0h2m2 0h1m3 0h1m5 0h2m8 0h1m3 0h1m1 0h4m3 0h2m3 0h3m1 0h4M4 100.5h1m2 0h4m5 0h1m3 0h1m2 0h4m6 0h4m2 0h1m4 0h1m1 0h1m2 0h1m2 0h1m1 0h1m1 0h1m7 0h3m1 0h1m1 0h1m7 0h2m1 0h3m4 0h6m1 0h5m2 0h1m1 0h2m2 0h1m1 0h1M7 101.5h3m1 0h1m8 0h3m1 0h1m1 0h1m4 0h1m1 0h1m2 0h3m3 0h1m1 0h1m1 0h4m1 0h1m1 0h1m1 0h4m2 0h5m1 0h2m1 0h1m1 0h2m1 0h1m3 0h1m1 0h1m1 0h1m2 0h1m3 0h3m1 0h1m2 0h1m3 0h3m1 0h2m3 0h1M5 102.5h4m1 0h3m1 0h6m2 0h1m2 0h1m3 0h2m1 0h2m10 0h1m1 0h1m1 0h2m6 0h5m3 0h2m1 0h2m1 0h1m1 0h1m1 0h1m1 0h1m5 0h1m2 0h1m1 0h1m1 0h1m1 0h1m1 0h2m2 0h1m1 0h1m1 0h1m2 0h2m1 0h1m4 0h1M6 103.5h4m3 0h3m2 0h3m2 0h1m3 0h1m1 0h2m3 0h1m2 0h6m1 0h3m1 0h2m1 0h2m2 0h1m3 0h4m2 0h3m3 0h2m1 0h1m1 0h2m1 0h2m2 0h2m1 0h2m3 0h2m2 0h1m1 0h1m8 0h1m1 0h2m1 0h1M4 104.5h3m1 0h1m1 0h1m4 0h1m1 0h1m1 0h1m3 0h1m1 0h2m3 0h1m1 0h6m1 0h1m1 0h1m1 0h2m2 0h5m1 0h8m2 0h2m2 0h1m2 0h1m2 0h2m2 0h1m2 0h5m6 0h1m3 0h2m2 0h3m2 0h9M12 105.5h2m4 0h3m2 0h1m2 0h3m1 0h3m3 0h3m1 0h4m2 0h1m1 0h5m1 0h3m3 0h1m2 0h1m1 0h2m3 0h3m1 0h1m1 0h1m1 0h3m3 0h2m2 0h1m3 0h1m2 0h4m2 0h1m1 0h2m3 0h2m1 0h2M4 106.5h7m2 0h4m3 0h2m1 0h4m1 0h1m3 0h1m1 0h1m1 0h1m5 0h1m3 0h4m4 0h3m1 0h1m1 0h1m1 0h3m1 0h1m1 0h1m2 0h2m3 0h1m1 0h3m1 0h1m1 0h1m6 0h1m2 0h5m1 0h1m1 0h1m1 0h1m1 0h1m1 0h1m1 0h2M4 107.5h1m5 0h1m1 0h1m4 0h2m2 0h3m2 0h1m2 0h4m3 0h1m1 0h2m1 0h2m1 0h1m3 0h3m1 0h2m1 0h2m3 0h1m2 0h1m1 0h1m3 0h1m6 0h1m2 0h2m3 0h2m1 0h1m1 0h1m1 0h1m1 0h3m2 0h1m2 0h2m1 0h1m3 0h1m1 0h3M4 108.5h1m1 0h3m1 0h1m3 0h2m1 0h1m1 0h1m1 0h4m2 0h1m3 0h6m1 0h3m2 0h1m1 0h5m1 0h1m4 0h5m3 0h2m3 0h1m1 0h1m3 0h1m1 0h1m2 0h5m2 0h5m2 0h4m2 0h1m1 0h1m1 0h5m1 0h2M4 109.5h1m1 0h3m1 0h1m1 0h11m2 0h2m1 0h1m2 0h6m1 0h2m1 0h3m1 0h2m4 0h2m2 0h1m2 0h1m1 0h2m1 0h1m1 0h1m2 0h1m2 0h1m1 0h1m2 0h1m1 0h3m1 0h1m1 0h3m2 0h1m1 0h1m2 0h6m1 0h2m1 0h1m1 0h1m1 0h1m2 0h1M4 110.5h1m1 0h3m1 0h1m2 0h1m1 0h2m1 0h1m2 0h2m2 0h1m2 0h1m1 0h1m1 0h1m3 0h3m2 0h1m3 0h1m5 0h2m6 0h9m3 0h1m4 0h2m1 0h1m1 0h2m4 0h8m1 0h2m1 0h1m7 0h3m2 0h1M4 111.5h1m5 0h1m3 0h1m5 0h1m2 0h2m1 0h1m1 0h4m2 0h1m1 0h3m5 0h1m1 0h1m1 0h2m1 0h1m2 0h1m1 0h1m8 0h2m1 0h2m1 0h1m4 0h1m2 0h1m2 0h3m5 0h2m1 0h6m2 0h1m2 0h3m1 0h1M4 112.5h7m1 0h1m4 0h4m2 0h1m1 0h1m3 0h2m2 0h1m1 0h1m3 0h1m1 0h1m3 0h5m1 0h1m2 0h2m1 0h2m2 0h1m1 0h2m1 0h2m1 0h1m2 0h1m2 0h3m3 0h1m2 0h1m1 0h3m3 0h2m2 0h3m1 0h2m2 0h1m1 0h2m2 0h3"/></svg>
