<svg xmlns="http://www.w3.org/2000/svg" viewBox="0 0 129 129" shape-rendering="crispEdges"><path fill="#ffffff" d="M0 0h129v129H0z"/><path stroke="#000000" d="M4 4.5h7m1 0h1m2 0h2m1 0h2m4 0h2m1 0h1m1 0h2m2 0h1m2 0h2m1 0h2m4 0h2m2 0h1m2 0h3m1 0h4m2 0h3m1 0h3m1 0h1m1 0h1m1 0h2m4 0h3m2 0h1m1 0h2m3 0h4m1 0h1m2 0h2m1 0h1m2 0h3m1 0h6m2 0h7M4 5.5h1m5 0h1m5 0h1m1 0h3m2 0h1m1 0h2m2 0h1m2 0h5m1 0h4m2 0h1m2 0h1m4 0h1m1 0h2m1 0h1m3 0h4m1 0h1m1 0h2m2 0h4m5 0h4m3 0h2m1 0h2m2 0h1m3 0h2m1 0h2m3 0h2m2 0h2m1 0h1m1 0h1m1 0h1m5 0h1M4 6.5h1m1 0h3m1 0h1m2 0h1m2 0h1m1 0h1m2 0h1m3 0h3m1 0h3m4 0h1m8 0h1m1 0h1m2 0h1m1 0h3m3 0h1m5 0h1m3 0h11m1 0h1m5 0h2m3 0h4m1 0h1m1 0h2m1 0h2m1 0h1m2 0h6m2 0h2m1 0h1m1 0h3m1 0h1M4 7.5h1m1 0h3m1 0h1m1 0h1m2 0h2m1 0h1m3 0h1m1 0h1m2 0h1m3 0h5m1 0h2m1 0h2m1 0h2m2 0h6m1 0h2m1 0h2m3 0h3m1 0h2m2 0h1m3 0h2m3 0h1m1 0h3m2 0h6m2 0h2m1 0h2m1 0h1m1 0h1m1 0h2m1 0h1m1 0h2m1 0h1m1 0h3m1 0h1m1 0h3m1 0h1M4 8.5h1m1 0h3m1 0h1m1 0h2m4 0h2m1 0h1m1 0h1m2 0h1m4 0h7m6 0h1m1 0h1m1 0h4m1 0h1m2 0h1m1 0h1m1 0h7m1 0h1m3 0h1m3 0h1m2 0h1m1 0h5m2 0h10m1 0h5m3 0h1m1 0h2m1 0h2m1 0h1m2 0h1m1 0h3m1 0h1M4 9.5h1m5 0h1m1 0h2m1 0h1m2 0h3m4 0h8m3 0h2m1 0h1m2 0h2m1 0h1m1 0h1m2 0h2m1 0h1m2 0h1m1 0h3m3 0h1m1 0h1m4 0h2m4 0h2m1 0h1m2 0h1m2 0h1m1 0h1m3 0h1m1 0h4m2 0h2m2 0h1m2 0h1m2 0h3m1 0h2m2 0h1m5 0h1M4 10.5h7m1 0h1m1 0h1m1 0h1m1 0h1m1 0h1m1 0h1m1 0h1m1 0h1m1 0h1m1 0h1m1 0h1m1 0h1m1 0h1m1 0h1m1 0h1m1 0h1m1 0h1m1 0h1m1 0h1m1 0h1m1 0h1m1 0h1m1 0h1m1 0h1m1 0h1m1 0h1m1 0h1m1 0h1m1 0h1m1 0h1m1 0h1m1 0h1m1 0h1m1 0h1m1 0h1m1 0h1m1 0h1m1 0h1m1 0h1m1 0h1m1 0h1m1 0h1m1 0h1m1 0h1m1 0h1m1 0h1m1 0h1m1 0h1m1 0h1m1 0h1m1 0h1m1 0h1m1 0h1m1 0h7M12 11.5h2m5 0h2m3 0h1m2 0h1m1 0h4m3 0h3m1 0h1m5 0h1m2 0h1m2 0h2m2 0h1m2 0h2m3 0h3m1 0h2m2 0h2m2 0h1m1 0h2m1 0h2m5 0h1m3 0h1m3 0h1m3 0h1m1 0h3m1 0h2m2 0h2m1 0h4M4 12.5h1m3 0h1m1 0h4m2 0h1m1 0h3m5 0h1m1 0h9m1 0h1m1 0h2m2 0h4m2 0h2m4 0h1m1 0h9m1 0h1m1 0h2m1 0h5m1 0h3m1 0h4m1 0h6m2 0h1m5 0h1m2 0h1m1 0h4m2 0h2m1 0h6m2 0h1M5 13.5h3m5 0h3m1 0h1m5 0h2m1 0h2m6 0h3m4 0h3m3 0h1m1 0h1m2 0h1m1 0h2m2 0h2m2 0h1m3 0h4m1 0h1m2 0h1m4 0h1m3 0h4m2 0h1m2 0h3m1 0h2m1 0h2m1 0h1m1 0h2m3 0h1m2 0h1m1 0h1m1 0h5m1 0h1M8 14.5h1m1 0h2m2 0h4m1 0h2m3 0h2m1 0h1m2 0h2m1 0h3m3 0h1m5 0h2m2 0h1m1 0h1m1 0h1m4 0h3m2 0h1m3 0h1m4 0h2m1 0h1m2 0h1m6 0h1m3 0h3m1 0h3m1 0h2m2 0h1m2 0h2m4 0h3m1 0h1m1 0h1m1 0h1m3 0h1m1 0h1M4 15.5h1m1 0h1m1 0h1m2 0h5m3 0h3m2 0h1m5 0h1m5 0h1m1 0h2m1 0h3m1 0h1m2 0h1m1 0h1m3 0h3m1 0h1m1 0h5m4 0h1m2 0h1m1 0h1m1 0h3m1 0h1m2 0h6m2 0h3m1 0h1m5 0h2m1 0h1m5 0h2m4 0h2m3 0h2m1 0h1M5 16.5h1m1 0h1m1 0h2m2 0h1m4 0h2m3 0h6m7 0h3m1 0h1m3 0h3m4 0h4m3 0h1m1 0h1m2 0h1m1 0h1m5 0h1m1 0h1m1 0h1m3 0h4m2 0h5m1 0h1m7 0h5m2 0h3m2 0h4m1 0h5m1 0h1M5 17.5h1m1 0h1m1 0h1m1 0h2m2 0h4m1 0h5m3 0h2m2 0h2m3 0h2m2 0h1m2 0h1m4 0h1m1 0h1m1 0h1m1 0h4m2 0h1m1 0h3m1 0h1m1 0h1m1 0h1m1 0h2m3 0h3m2 0h1m2 0h3m1 0h2m2 0h2m2 0h1m2 0h4m1 0h2m1 0h1m2 0h5m1 0h3M4 18.5h4m2 0h2m2 0h2m2 0h1m1 0h1m2 0h2m1 0h1m1 0h2m2 0h1m2 0h1m2 0h2m1 0h2m1 0h3m2 0h2m4 0h2m1 0h1m1 0h1m1 0h2m1 0h1m4 0h2m1 0h2m3 0h1m3 0h1m4 0h1m1 0h1m1 0h4m2 0h2m2 0h1m1 0h3m2 0h2m4 0h2m2 0h2m1 0h1m1 0h1M4 19.5h1m1 0h3m3 0h2m1 0h2m1 0h1m2 0h7m2 0h3m1 0h2m1 0h1m2 0h2m1 0h3m4 0h4m2 0h7m1 0h1m1 0h1m2 0h1m3 0h3m4 0h2m1 0h1m4 0h1m1 0h2m3 0h1m2 0h3m2 0h1m1 0h1m1 0h1m1 0h1m1 0h1m3 0h2M4 20.5h2m3 0h11m3 0h1m7 0h1m4 0h1m2 0h1m1 0h1m1 0h3m1 0h1m1 0h4m1 0h1m3 0h1m2 0h1m1 0h1m1 0h5m1 0h1m1 0h7m2 0h1m3 0h1m1 0h1m1 0h1m3 0h1m1 0h1m2 0h3m4 0h1m2 0h1m1 0h3m1 0h4m1 0h2m2 0h1M6 21.5h4m1 0h1m2 0h1m2 0h1m1 0h3m1 0h1m1 0h3m3 0h2m2 0h1m2 0h1m1 0h4m6 0h1m2 0h3m1 0h4m1 0h5m8 0h2m2 0h1m3 0h1m2 0h2m1 0h1m2 0h2m1 0h2m1 0h1m1 0h1m3 0h3m1 0h3m1 0h1m3 0h1m5 0h3M4 22.5h1m2 0h1m2 0h1m1 0h1m1 0h2m3 0h1m2 0h2m1 0h6m6 0h4m3 0h1m1 0h1m7 0h4m2 0h3m1 0h2m2 0h1m2 0h1m1 0h2m1 0h1m1 0h1m1 0h6m1 0h2m1 0h3m1 0h1m3 0h5m1 0h3m1 0h3m1 0h4m5 0h1M5 23.5h1m1 0h1m1 0h1m2 0h2m1 0h4m1 0h1m4 0h1m4 0h2m3 0h1m5 0h1m1 0h3m3 0h2m1 0h4m4 0h1m1 0h2m1 0h1m1 0h3m9 0h1m2 0h1m5 0h1m2 0h4m1 0h4m1 0h3m1 0h1m1 0h4m2 0h4m2 0h5M5 24.5h1m1 0h2m1 0h4m2 0h2m1 0h2m1 0h1m1 0h2m1 0h2m3 0h2m1 0h2m1 0h1m1 0h1m1 0h1m2 0h1m4 0h4m3 0h1m5 0h1m1 0h1m1 0h1m1 0h2m1 0h1m4 0h1m2 0h1m1 0h1m1 0h1m3 0h1m9 0h1m2 0h1m1 0h1m1 0h1m1 0h2m1 0h5m3 0h1m2 0h1m1 0h2M4 25.5h3m1 0h1m4 0h5m1 0h1m4 0h1m2 0h1m1 0h2m2 0h1m1 0h2m2 0h1m1 0h8m2 0h3m2 0h1m3 0h1m1 0h1m1 0h3m5 0h1m1 0h2m1 0h1m1 0h1m1 0h2m5 0h2m1 0h1m2 0h4m2 0h1m1 0h1m1 0h1m4 0h3m3 0h1m3 0h4m1 0h1M4 26.5h1m1 0h6m2 0h1m1 0h3m1 0h1m1 0h3m3 0h1m1 0h5m1 0h1m1 0h2m3 0h2m2 0h2m4 0h2m3 0h2m2 0h3m3 0h3m1 0h1m8 0h1m2 0h2m1 0h1m1 0h1m6 0h2m2 0h3m1 0h1m1 0h4m4 0h1m2 0h3m1 0h1m1 0h1M4 27.5h6m1 0h1m1 0h1m7 0h2m2 0h8m2 0h5m1 0h1m1 0h1m1 0h1m1 0h1m2 0h1m1 0h2m1 0h1m1 0h1m3 0h1m4 0h2m6 0h3m2 0h1m4 0h1m3 0h1m1 0h1m5 0h3m5 0h2m1 0h1m1 0h1m4 0h1m1 0h3m1 0h1m2 0h2M5 28.5h4m1 0h3m2 0h1m1 0h1m3 0h1m1 0h3m1 0h3m2 0h1m1 0h1m3 0h3m4 0h1m4 0h4m1 0h1m3 0h1m1 0h1m2 0h1m1 0h1m1 0h1m5 0h6m7 0h2m1 0h1m1 0h1m2 0h2m1 0h3m1 0h1m2 0h1m2 0h1m2 0h1m6 0h2m2 0h1M5 29.5h1m1 0h3m1 0h1m1 0h2m2 0h1m1 0h1m3 0h2m1 0h1m1 0h4m4 0h5m1 0h3m1 0h3m4 0h1m3 0h3m2 0h1m1 0h2m1 0h2m1 0h1m2 0h2m1 0h3m1 0h4m1 0h5m2 0h1m1 0h1m1 0h10m1 0h4m3 0h1m2 0h3m1 0h1m2 0h1M5 30.5h2m2 0h3m1 0h3m7 0h1m2 0h2m2 0h2m3 0h1m1 0h1m1 0h1m1 0h2m1 0h2m1 0h1m1 0h4m2 0h1m6 0h5m3 0h2m3 0h1m1 0h1m1 0h2m2 0h3m1 0h1m2 0h3m3 0h2m4 0h2m1 0h1m1 0h1m1 0h1m1 0h1m2 0h4m1 0h1m1 0h3M6 31.5h1m1 0h2m2 0h2m2 0h2m2 0h2m1 0h2m1 0h3m2 0h1m2 0h2m3 0h1m1 0h1m2 0h2m1 0h1m2 0h2m1 0h1m1 0h1m1 0h2m1 0h9m1 0h2m1 0h1m1 0h2m2 0h5m1 0h1m3 0h1m1 0h1m1 0h1m3 0h3m2 0h2m3 0h4m1 0h1m1 0h3m1 0h6M4 32.5h2m2 0h9m2 0h1m2 0h3m1 0h1m3 0h14m1 0h8m2 0h3m2 0h8m1 0h2m1 0h1m2 0h2m1 0h3m1 0h5m1 0h6m2 0h1m6 0h6m2 0h3m1 0h6m3 0h1M5 33.5h1m1 0h2m3 0h1m1 0h4m2 0h4m5 0h1m2 0h1m3 0h1m2 0h2m1 0h2m1 0h1m2 0h4m2 0h1m1 0h1m3 0h1m3 0h1m1 0h2m3 0h2m7 0h1m3 0h1m1 0h3m3 0h1m1 0h2m5 0h2m3 0h1m3 0h1m1 0h2m2 0h1m3 0h1m1 0h1m1 0h1M6 34.5h1m1 0h1m1 0h1m1 0h6m1 0h1m2 0h5m2 0h2m1 0h1m1 0h1m1 0h1m1 0h1m1 0h2m4 0h1m1 0h1m1 0h2m2 0h3m3 0h1m1 0h1m1 0h2m3 0h3m1 0h4m2 0h3m1 0h2m1 0h1m1 0h1m1 0h1m1 0h1m1 0h8m1 0h7m3 0h1m1 0h2m1 0h1m1 0h1m1 0h1m1 0h1M5 35.5h1m2 0h1m3 0h1m1 0h6m1 0h2m3 0h1m2 0h1m2 0h1m3 0h5m1 0h1m1 0h3m1 0h1m1 0h2m4 0h3m1 0h1m3 0h2m1 0h2m1 0h1m6 0h1m2 0h1m4 0h4m3 0h1m1 0h2m1 0h1m2 0h1m1 0h2m1 0h1m2 0h1m1 0h1m1 0h2m1 0h2m3 0h1m1 0h3M6 36.5h7m1 0h1m3 0h4m2 0h2m1 0h1m4 0h5m2 0h1m1 0h2m2 0h2m2 0h1m1 0h1m1 0h2m1 0h1m1 0h7m2 0h1m3 0h3m4 0h1m1 0h1m2 0h2m2 0h6m4 0h5m2 0h2m1 0h7m2 0h5m2 0h1M4 37.5h2m1 0h1m3 0h1m4 0h2m2 0h1m1 0h3m1 0h3m2 0h2m1 0h1m1 0h2m8 0h5m1 0h4m1 0h1m2 0h1m1 0h1m2 0h1m1 0h2m1 0h2m4 0h3m1 0h5m1 0h1m1 0h2m1 0h3m2 0h1m2 0h2m1 0h3m2 0h2m1 0h1m3 0h1m5 0h1m1 0h1m1 0h1M4 38.5h1m3 0h1m1 0h2m2 0h3m1 0h2m1 0h4m1 0h2m1 0h5m2 0h1m3 0h6m3 0h1m1 0h1m2 0h5m1 0h1m3 0h2m1 0h1m5 0h3m1 0h1m2 0h1m2 0h2m1 0h1m4 0h1m3 0h1m2 0h1m2 0h1m1 0h2m7 0h2m1 0h4M4 39.5h3m2 0h1m1 0h4m2 0h1m2 0h1m1 0h3m1 0h2m1 0h2m4 0h1m3 0h3m4 0h1m1 0h1m1 0h1m3 0h1m2 0h1m5 0h2m1 0h2m5 0h2m4 0h2m2 0h1m1 0h1m1 0h4m1 0h2m1 0h3m1 0h2m4 0h3m1 0h3m4 0h2m1 0h3m2 0h1M5 40.5h2m3 0h1m2 0h1m2 0h1m4 0h1m1 0h1m1 0h1m1 0h1m3 0h1m1 0h2m2 0h1m1 0h3m4 0h1m1 0h5m3 0h2m1 0h1m1 0h7m2 0h1m1 0h4m2 0h2m1 0h1m2 0h2m1 0h5m1 0h1m1 0h2m1 0h2m4 0h2m2 0h1m5 0h2m1 0h2m2 0h2m1 0h1M7 41.5h1m1 0h1m2 0h2m2 0h1m1 0h2m1 0h1m1 0h1m2 0h1m1 0h1m2 0h1m1 0h1m2 0h5m1 0h1m1 0h2m1 0h1m7 0h2m1 0h4m3 0h9m1 0h1m1 0h2m6 0h1m2 0h1m1 0h1m4 0h2m4 0h6m1 0h1m6 0h2m2 0h2m1 0h2M4 42.5h1m1 0h1m1 0h1m1 0h2m5 0h6m1 0h1m4 0h2m1 0h1m2 0h1m1 0h1m2 0h1m2 0h1m1 0h2m1 0h2m1 0h1m4 0h1m1 0h4m1 0h2m3 0h2m1 0h2m1 0h2m1 0h1m1 0h2m2 0h1m2 0h1m2 0h1m1 0h1m2 0h2m1 0h1m5 0h1m4 0h1m2 0h3m1 0h3m4 0h2M5 43.5h3m1 0h1m3 0h3m3 0h2m3 0h1m1 0h1m3 0h3m2 0h1m3 0h8m1 0h3m1 0h2m1 0h2m5 0h6m3 0h2m1 0h2m1 0h1m1 0h1m3 0h3m3 0h5m2 0h1m1 0h1m1 0h4m1 0h2m1 0h1m4 0h1m1 0h4m2 0h1M5 44.5h3m2 0h1m2 0h2m1 0h2m1 0h1m2 0h3m1 0h1m4 0h3m2 0h1m2 0h2m1 0h1m1 0h1m2 0h1m1 0h3m1 0h3m1 0h2m3 0h2m1 0h1m3 0h5m1 0h3m1 0h2m2 0h3m2 0h4m2 0h2m5 0h1m3 0h4m2 0h1m1 0h3m1 0h3m1 0h1m1 0h2M4 45.5h1m9 0h3m1 0h2m2 0h4m1 0h1m1 0h2m1 0h1m1 0h1m1 0h1m1 0h2m2 0h3m19 0h1m2 0h2m2 0h1m3 0h1m1 0h1m2 0h5m2 0h1m1 0h2m1 0h2m2 0h1m1 0h1m1 0h1m1 0h2m2 0h1m2 0h1m1 0h2m1 0h2m2 0h1m1 0h1m1 0h2M9 46.5h3m2 0h2m2 0h4m2 0h2m1 0h2m2 0h2m3 0h1m1 0h1m2 0h4m1 0h1m1 0h3m4 0h1m2 0h2m1 0h4m3 0h4m2 0h1m1 0h1m1 0h1m3 0h4m2 0h1m1 0h2m1 0h3m1 0h1m1 0h1m3 0h2m2 0h2m1 0h3m2 0h1m1 0h1m1 0h1m1 0h3M5 47.5h1m2 0h2m1 0h5m1 0h2m1 0h2m1 0h1m3 0h1m2 0h2m3 0h1m2 0h2m1 0h1m3 0h2m7 0h2m1 0h2m2 0h5m1 0h1m1 0h1m1 0h1m2 0h6m1 0h2m1 0h1m2 0h2m1 0h2m1 0h1m2 0h6m1 0h2m2 0h1m5 0h1m3 0h4m1 0h1m1 0h1M4 48.5h1m2 0h2m1 0h7m1 0h1m2 0h1m2 0h3m1 0h1m1 0h1m1 0h2m2 0h1m2 0h2m2 0h1m3 0h2m3 0h1m1 0h1m2 0h3m1 0h1m2 0h2m7 0h1m5 0h1m2 0h4m2 0h1m2 0h1m1 0h1m1 0h2m2 0h2m1 0h3m6 0h3m1 0h1m4 0h3M6 49.5h2m1 0h1m3 0h1m1 0h3m1 0h2m1 0h4m3 0h2m1 0h1m1 0h1m2 0h2m1 0h6m2 0h1m5 0h2m1 0h2m1 0h1m2 0h2m1 0h1m3 0h1m1 0h1m1 0h1m2 0h2m2 0h3m2 0h2m1 0h1m1 0h2m1 0h1m4 0h12m2 0h1m1 0h1m2 0h2m3 0h2M4 50.5h1m3 0h1m1 0h7m2 0h1m1 0h5m2 0h1m3 0h2m3 0h1m1 0h1m1 0h2m1 0h2m4 0h1m2 0h1m2 0h2m3 0h3m3 0h4m2 0h1m1 0h2m1 0h3m1 0h2m1 0h1m1 0h3m3 0h3m1 0h2m1 0h1m1 0h2m4 0h1m1 0h2m4 0h1m2 0h2m1 0h2M4 51.5h4m5 0h7m1 0h1m3 0h4m1 0h1m1 0h1m1 0h1m5 0h2m3 0h1m3 0h2m1 0h1m4 0h1m1 0h1m1 0h2m1 0h2m1 0h2m2 0h1m3 0h1m3 0h1m2 0h2m1 0h2m3 0h2m2 0h1m1 0h5m2 0h1m1 0h2m2 0h1m1 0h2m1 0h1m1 0h2m5 0h2M4 52.5h4m2 0h1m1 0h1m1 0h2m1 0h5m1 0h2m2 0h1m1 0h1m1 0h2m1 0h2m1 0h10m1 0h2m5 0h2m2 0h1m4 0h1m1 0h1m1 0h1m1 0h3m2 0h2m2 0h2m1 0h3m4 0h1m1 0h2m1 0h3m4 0h1m1 0h1m2 0h1m1 0h1m2 0h2m1 0h1m1 0h1m2 0h1m2 0h3M4 53.5h1m1 0h4m1 0h2m2 0h1m2 0h1m1 0h1m1 0h1m2 0h1m1 0h4m1 0h4m2 0h2m6 0h2m1 0h4m1 0h1m1 0h1m1 0h8m3 0h1m1 0h1m4 0h2m6 0h2m2 0h1m2 0h1m1 0h9m2 0h1m3 0h2m2 0h1m1 0h1m1 0h1m1 0h1m1 0h1m1 0h1m1 0h1M4 54.5h2m1 0h2m1 0h2m7 0h1m1 0h1m2 0h3m5 0h2m2 0h2m3 0h1m1 0h3m2 0h1m2 0h1m1 0h2m1 0h2m2 0h2m2 0h1m1 0h4m1 0h1m1 0h1m2 0h5m1 0h1m1 0h1m1 0h1m1 0h1m2 0h1m1 0h1m1 0h3m1 0h2m2 0h1m2 0h1m2 0h5m2 0h3m1 0h1m2 0h1M5 55.5h2m2 0h1m1 0h1m3 0h8m1 0h1m2 0h2m2 0h2m2 0h2m1 0h2m6 0h3m3 0h1m1 0h3m1 0h1m6 0h1m2 0h1m1 0h2m1 0h5m1 0h1m2 0h1m2 0h1m2 0h1m2 0h2m1 0h1m2 0h8m5 0h2m5 0h3m1 0h2m1 0h1M5 56.5h7m1 0h1m2 0h1m1 0h3m1 0h2m5 0h3m2 0h2m2 0h1m1 0h3m2 0h2m1 0h2m2 0h1m3 0h1m1 0h2m4 0h2m1 0h1m3 0h2m1 0h1m1 0h2m3 0h1m1 0h3m1 0h1m3 0h3m3 0h1m1 0h2m1 0h1m3 0h2m3 0h1m1 0h1m2 0h1m4 0h2M5 57.5h2m4 0h6m4 0h2m2 0h2m2 0h1m1 0h2m1 0h1m1 0h2m1 0h3m6 0h1m1 0h1m2 0h1m1 0h1m2 0h1m1 0h2m1 0h1m2 0h1m1 0h1m1 0h1m3 0h2m3 0h2m2 0h1m1 0h1m1 0h2m2 0h2m1 0h3m2 0h1m2 0h1m2 0h1m4 0h1m1 0h1m3 0h5m3 0h1M4 58.5h1m5 0h2m1 0h1m2 0h2m1 0h1m4 0h2m1 0h3m2 0h2m1 0h2m3 0h1m2 0h1m1 0h1m1 0h2m1 0h2m1 0h5m3 0h1m2 0h2m1 0h3m3 0h1m1 0h2m1 0h1m2 0h1m3 0h1m2 0h3m1 0h1m2 0h1m2 0h3m2 0h1m2 0h1m3 0h1m2 0h1m1 0h2m4 0h2m1 0h1M4 59.5h1m1 0h2m3 0h1m1 0h1m1 0h1m3 0h2m1 0h2m2 0h6m1 0h2m4 0h1m1 0h5m2 0h1m2 0h2m3 0h2m1 0h5m2 0h1m1 0h1m1 0h4m1 0h2m5 0h2m2 0h1m1 0h1m2 0h4m2 0h4m2 0h3m3 0h2m2 0h1m5 0h5M4 60.5h3m1 0h6m3 0h5m3 0h2m1 0h1m3 0h5m1 0h4m1 0h1m1 0h2m1 0h2m3 0h2m3 0h1m1 0h6m3 0h1m1 0h1m1 0h2m4 0h2m1 0h1m4 0h8m1 0h2m2 0h3m7 0h2m1 0h1m2 0h6M4 61.5h5m3 0h2m1 0h2m2 0h1m2 0h1m4 0h4m1 0h1m3 0h2m3 0h1m4 0h1m1 0h2m1 0h1m2 0h4m2 0h1m3 0h2m4 0h1m3 0h1m1 0h2m3 0h3m1 0h1m2 0h1m3 0h1m1 0h3m3 0h1m1 0h1m5 0h1m1 0h2m1 0h2m1 0h1m3 0h2m1 0h1M4 62.5h5m1 0h1m1 0h1m1 0h2m4 0h2m1 0h1m3 0h2m3 0h1m1 0h1m1 0h1m1 0h2m2 0h1m4 0h1m1 0h1m1 0h2m2 0h1m1 0h4m1 0h1m1 0h7m2 0h3m1 0h2m1 0h1m2 0h3m2 0h1m1 0h1m1 0h1m2 0h1m3 0h2m2 0h3m2 0h4m2 0h1m1 0h1m1 0h1m1 0h2m1 0h1M5 63.5h2m1 0h1m3 0h2m5 0h2m1 0h3m1 0h4m2 0h1m3 0h3m1 0h2m1 0h2m1 0h1m2 0h2m1 0h2m1 0h1m2 0h3m3 0h4m1 0h3m2 0h2m3 0h1m1 0h1m2 0h1m2 0h2m3 0h5m2 0h3m2 0h2m1 0h1m3 0h3m2 0h1m3 0h2M4 64.5h1m1 0h1m1 0h7m1 0h2m1 0h1m1 0h1m2 0h2m2 0h2m1 0h6m4 0h3m1 0h4m3 0h1m1 0h2m1 0h1m2 0h5m1 0h3m1 0h3m1 0h1m1 0h2m2 0h2m6 0h6m1 0h2m1 0h2m5 0h5m1 0h1m3 0h6m1 0h2M4 65.5h1m1 0h2m1 0h1m1 0h7m2 0h2m1 0h4m5 0h1m1 0h1m3 0h2m3 0h2m1 0h3m1 0h3m2 0h1m1 0h2m1 0h2m1 0h4m2 0h1m1 0h3m4 0h1m3 0h6m2 0h3m2 0h1m1 0h1m4 0h2m2 0h3m1 0h2m6 0h2m1 0h1M5 66.5h1m4 0h1m2 0h3m2 0h1m3 0h3m1 0h1m1 0h1m1 0h3m1 0h1m3 0h2m2 0h2m3 0h2m5 0h1m2 0h3m1 0h2m3 0h3m3 0h2m2 0h7m1 0h2m2 0h2m2 0h5m3 0h4m1 0h6m1 0h3m2 0h4m1 0h2M4 67.5h1m1 0h2m3 0h1m3 0h2m1 0h2m2 0h4m3 0h1m1 0h2m2 0h1m1 0h1m1 0h1m1 0h1m1 0h3m1 0h3m1 0h1m1 0h1m1 0h1m2 0h1m5 0h1m3 0h1m2 0h1m1 0h1m2 0h3m5 0h3m2 0h1m6 0h3m3 0h1m3 0h1m2 0h2m2 0h1m1 0h3m2 0h2m2 0h1M4 68.5h3m3 0h1m3 0h1m1 0h2m1 0h1m1 0h2m1 0h2m2 0h1m1 0h2m1 0h2m3 0h1m1 0h1m3 0h3m1 0h5m2 0h2m2 0h1m3 0h3m1 0h1m2 0h3m1 0h1m2 0h4m2 0h1m6 0h5m2 0h3m1 0h1m5 0h1m1 0h1m1 0h2m1 0h1m2 0h1m1 0h1M4 69.5h4m1 0h1m2 0h3m3 0h4m2 0h2m4 0h1m8 0h5m1 0h6m2 0h1m6 0h1m3 0h4m2 0h1m6 0h1m1 0h1m2 0h1m1 0h4m1 0h2m9 0h5m2 0h1m1 0h3m1 0h5m4 0h1M7 70.5h1m1 0h2m1 0h6m1 0h1m3 0h1m2 0h1m3 0h1m1 0h1m2 0h1m3 0h2m4 0h7m7 0h1m1 0h1m3 0h2m3 0h2m1 0h5m4 0h1m2 0h2m4 0h2m3 0h3m4 0h3m2 0h2m1 0h1m1 0h1m1 0h1m1 0h3m1 0h4M4 71.5h6m2 0h1m7 0h1m3 0h2m4 0h1m2 0h2m2 0h1m1 0h3m2 0h1m1 0h1m1 0h2m1 0h1m1 0h1m5 0h1m2 0h2m2 0h1m6 0h1m1 0h3m2 0h1m2 0h4m2 0h1m1 0h1m1 0h1m2 0h2m1 0h1m3 0h1m1 0h1m7 0h2m2 0h1m1 0h2m3 0h1M8 72.5h4m2 0h1m1 0h1m1 0h1m1 0h1m4 0h1m1 0h2m2 0h1m1 0h1m1 0h1m1 0h4m5 0h1m1 0h5m1 0h1m7 0h1m3 0h3m1 0h1m1 0h3m1 0h1m1 0h6m1 0h1m1 0h1m2 0h7m1 0h1m2 0h1m1 0h1m5 0h2m3 0h1m2 0h4m1 0h3M4 73.5h1m1 0h1m1 0h1m5 0h4m3 0h3m2 0h2m3 0h1m2 0h1m4 0h3m1 0h3m3 0h2m2 0h2m1 0h1m3 0h2m1 0h5m2 0h2m4 0h2m4 0h6m1 0h2m4 0h1m2 0h6m1 0h5m1 0h2m1 0h1m1 0h1m1 0h2m1 0h1M5 74.5h1m1 0h2m1 0h2m7 0h1m1 0h1m1 0h3m4 0h1m1 0h1m4 0h1m1 0h2m4 0h1m1 0h5m3 0h1m1 0h1m1 0h2m2 0h3m1 0h1m1 0h1m1 0h2m1 0h2m2 0h1m2 0h1m3 0h1m2 0h1m2 0h1m5 0h2m2 0h1m1 0h1m2 0h2m2 0h1m1 0h2m5 0h1m1 0h4M4 75.5h2m1 0h1m3 0h3m1 0h1m2 0h1m3 0h1m3 0h2m1 0h6m1 0h3m1 0h2m1 0h3m5 0h2m2 0h2m2 0h1m2 0h2m1 0h2m2 0h1m1 0h1m1 0h1m2 0h1m1 0h1m1 0h5m2 0h6m1 0h4m5 0h1m7 0h5m1 0h3m1 0h1m1 0h1M5 76.5h1m1 0h1m1 0h2m2 0h2m1 0h1m1 0h3m2 0h1m5 0h1m5 0h2m1 0h4m1 0h1m1 0h1m2 0h2m4 0h3m1 0h1m1 0h3m1 0h1m2 0h1m1 0h4m2 0h3m4 0h2m2 0h1m1 0h2m1 0h3m1 0h1m2 0h1m4 0h1m2 0h1m1 0h2m1 0h3m2 0h1m1 0h1m2 0h1M5 77.5h5m1 0h1m1 0h4m2 0h5m1 0h2m3 0h1m1 0h2m1 0h2m1 0h1m5 0h1m1 0h1m3 0h1m6 0h2m1 0h1m2 0h3m12 0h4m3 0h1m8 0h1m1 0h1m1 0h1m2 0h2m1 0h6m2 0h1m1 0h1m2 0h2m3 0h2M5 78.5h1m2 0h1m1 0h1m6 0h3m6 0h1m1 0h2m4 0h1m1 0h2m1 0h6m1 0h6m1 0h1m3 0h1m3 0h2m2 0h2m2 0h1m3 0h2m4 0h7m1 0h1m1 0h1m2 0h3m1 0h3m1 0h1m2 0h1m4 0h1m2 0h3m1 0h1m1 0h3m2 0h1M5 79.5h1m2 0h2m1 0h2m3 0h2m2 0h1m1 0h1m4 0h1m2 0h3m2 0h5m3 0h1m1 0h3m2 0h3m1 0h1m1 0h1m1 0h4m2 0h1m2 0h1m2 0h1m1 0h1m2 0h1m1 0h1m4 0h2m1 0h2m1 0h6m1 0h1m3 0h2m1 0h3m7 0h4m1 0h8M4 80.5h1m2 0h6m1 0h1m3 0h1m1 0h1m1 0h3m4 0h6m2 0h1m1 0h2m1 0h1m2 0h1m2 0h1m1 0h5m2 0h1m1 0h1m1 0h1m1 0h1m1 0h1m1 0h1m1 0h1m1 0h1m4 0h2m1 0h2m3 0h1m2 0h5m1 0h1m2 0h1m2 0h1m1 0h3m2 0h5m8 0h1M7 81.5h3m1 0h2m2 0h1m2 0h1m1 0h5m2 0h2m1 0h2m1 0h1m1 0h1m1 0h2m1 0h2m8 0h5m1 0h3m1 0h1m1 0h1m1 0h4m1 0h1m1 0h2m2 0h5m1 0h1m1 0h1m1 0h1m1 0h3m1 0h1m1 0h1m2 0h2m5 0h1m1 0h1m1 0h1m2 0h2m1 0h2m1 0h1m1 0h1m1 0h1m2 0h2M4 82.5h1m1 0h1m2 0h2m2 0h1m1 0h2m1 0h5m1 0h3m1 0h1m5 0h1m1 0h1m1 0h1m1 0h1m3 0h1m3 0h1m1 0h1m1 0h1m2 0h3m4 0h1m2 0h1m1 0h1m6 0h1m1 0h2m3 0h3m1 0h2m2 0h1m3 0h1m5 0h3m1 0h1m1 0h1m1 0h1m3 0h3m2 0h2m2 0h1m1 0h1m1 0h1M5 83.5h2m1 0h2m3 0h4m2 0h2m1 0h1m1 0h1m1 0h2m3 0h1m1 0h1m2 0h1m1 0h1m1 0h1m2 0h6m1 0h1m2 0h2m2 0h3m1 0h2m4 0h1m3 0h1m3 0h1m2 0h1m1 0h1m1 0h2m2 0h1m2 0h1m1 0h1m2 0h1m1 0h2m1 0h1m2 0h1m1 0h2m3 0h4m1 0h1m6 0h2m1 0h1M4 84.5h1m3 0h1m1 0h1m1 0h1m1 0h3m1 0h3m1 0h7m1 0h4m2 0h2m2 0h4m1 0h1m2 0h2m1 0h3m2 0h1m2 0h4m4 0h2m1 0h3m2 0h1m7 0h1m1 0h6m1 0h1m2 0h4m1 0h2m2 0h1m2 0h4m3 0h1m4 0h1m1 0h1m1 0h1M6 85.5h2m1 0h1m3 0h2m1 0h2m2 0h1m5 0h1m1 0h2m1 0h1m3 0h3m1 0h2m1 0h1m3 0h2m1 0h4m2 0h1m3 0h3m3 0h5m4 0h4m1 0h2m2 0h3m1 0h1m2 0h2m3 0h1m5 0h1m1 0h1m5 0h2m1 0h1m3 0h2m1 0h2m1 0h1m1 0h1M4 86.5h1m4 0h3m1 0h1m1 0h1m1 0h1m2 0h2m1 0h2m3 0h3m2 0h4m1 0h1m1 0h3m1 0h2m1 0h4m2 0h1m1 0h7m1 0h3m1 0h1m2 0h1m2 0h2m1 0h1m1 0h5m2 0h1m1 0h2m6 0h1m2 0h1m1 0h6m1 0h1m1 0h2m2 0h5m4 0h3M4 87.5h3m1 0h2m2 0h2m1 0h2m2 0h1m1 0h3m1 0h4m2 0h1m1 0h4m4 0h2m1 0h3m2 0h2m3 0h1m1 0h2m2 0h1m1 0h2m1 0h1m1 0h1m1 0h3m4 0h1m3 0h2m1 0h1m1 0h2m1 0h2m1 0h3m1 0h2m1 0h1m2 0h3m1 0h3m3 0h1m1 0h2m3 0h1m3 0h2M4 88.5h2m1 0h6m1 0h2m2 0h1m3 0h4m1 0h3m2 0h5m4 0h2m2 0h1m1 0h1m1 0h1m7 0h2m1 0h5m2 0h1m1 0h1m3 0h1m2 0h1m1 0h3m1 0h1m1 0h2m1 0h6m1 0h2m2 0h2m2 0h1m2 0h2m1 0h1m1 0h1m1 0h2m1 0h10M7 89.5h2m3 0h6m2 0h2m2 0h1m3 0h2m1 0h2m3 0h1m1 0h2m1 0h1m2 0h1m3 0h1m1 0h6m2 0h1m1 0h1m3 0h1m6 0h2m3 0h1m3 0h3m1 0h2m2 0h1m3 0h1m1 0h4m2 0h2m2 0h1m2 0h4m2 0h1m2 0h1m3 0h1m1 0h3M6 90.5h1m1 0h1m1 0h1m1 0h5m5 0h1m2 0h8m1 0h1m1 0h1m2 0h3m1 0h1m3 0h1m1 0h2m1 0h1m3 0h3m1 0h1m1 0h1m1 0h1m2 0h6m4 0h1m1 0h3m1 0h1m2 0h1m1 0h1m1 0h1m1 0h2m1 0h4m5 0h5m1 0h3m1 0h3m1 0h1m1 0h2m1 0h2M4 91.5h2m1 0h2m3 0h1m1 0h1m1 0h1m1 0h3m3 0h1m1 0h1m1 0h1m3 0h1m3 0h2m1 0h4m3 0h3m1 0h1m2 0h1m1 0h2m1 0h3m3 0h1m1 0h1m1 0h5m2 0h3m1 0h1m1 0h1m2 0h1m1 0h1m1 0h1m3 0h1m1 0h1m1 0h2m3 0h1m8 0h1m3 0h1m1 0h1m3 0h1m1 0h1m1 0h1M5 92.5h2m1 0h6m1 0h2m1 0h4m1 0h2m3 0h1m1 0h11m1 0h1m3 0h1m1 0h5m1 0h1m5 0h9m4 0h3m1 0h1m1 0h1m3 0h1m4 0h7m1 0h2m1 0h1m1 0h1m1 0h1m1 0h1m2 0h2m2 0h1m3 0h5m2 0h1M6 93.5h1m1 0h1m2 0h1m3 0h1m5 0h7m1 0h10m1 0h1m1 0h2m1 0h1m5 0h1m1 0h1m1 0h1m4 0h1m3 0h4m2 0h3m1 0h1m2 0h2m6 0h4m7 0h6m1 0h1m4 0h2m1 0h4m1 0h1m1 0h1m4 0h1M6 94.5h1m2 0h3m3 0h3m3 0h4m1 0h1m1 0h5m1 0h1m1 0h1m4 0h1m1 0h2m1 0h1m1 0h1m1 0h2m3 0h1m2 0h1m1 0h1m2 0h2m1 0h1m1 0h3m3 0h1m2 0h1m4 0h3m2 0h4m1 0h1m2 0h1m2 0h2m1 0h1m1 0h1m3 0h3m1 0h1m1 0h3m1 0h1m2 0h4M5 95.5h1m1 0h1m1 0h1m1 0h1m4 0h1m1 0h1m1 0h3m1 0h1m1 0h6m1 0h3m4 0h1m2 0h5m2 0h1m1 0h4m3 0h5m1 0h2m3 0h1m1 0h1m1 0h2m3 0h1m1 0h1m1 0h1m4 0h1m1 0h1m1 0h1m1 0h2m4 0h7m2 0h1m1 0h1m1 0h1m1 0h6m3 0h1M4 96.5h1m1 0h1m1 0h1m1 0h6m2 0h3m2 0h6m1 0h1m1 0h1m1 0h2m3 0h2m1 0h1m1 0h1m8 0h1m1 0h5m1 0h1m1 0h6m1 0h3m2 0h3m4 0h2m2 0h4m1 0h2m1 0h5m3 0h4m1 0h1m3 0h1m1 0h2m1 0h1m1 0h1m2 0h2m1 0h1M5 97.5h2m6 0h2m1 0h9m4 0h1m1 0h1m1 0h1m2 0h1m3 0h2m1 0h2m2 0h1m2 0h2m1 0h2m1 0h1m1 0h6m2 0h4m3 0h1m2 0h1m7 0h3m2 0h6m1 0h1m1 0h2m1 0h6m1 0h1m5 0h7M4 98.5h1m3 0h1m1 0h3m1 0h4m1 0h2m1 0h2m2 0h2m1 0h1m1 0h2m3 0h4m3 0h1m1 0h3m6 0h1m2 0h2m1 0h1m1 0h4m3 0h3m1 0h4m1 0h1m4 0h1m1 0h1m4 0h2m1 0h2m1 0h1m2 0h1m1 0h1m3 0h2m2 0h3m2 0h1m1 0h1m4 0h2m1 0h1M4 99.5h2m1 0h1m10 0h5m9 0h2m3 0h4m2 0h1m1 0h2m1 0h1m2 0h1m2 0h3m2 0h1m3 0h1m1 0h1m1 0h2m2 0h1m2 0h2m2 0h1m4 0h1m2 0h1m1 0h1m5 0h1m2 0h2m1 0h1m3 0h10m1 0h1m1 0h2M7 100.5h2m1 0h2m1 0h1m2 0h4m2 0h1m3 0h1m1 0h1m1 0h1m1 0h2m1 0h5m2 0h2m1 0h3m3 0h5m1 0h1m1 0h1m4 0h2m1 0h1m1 0h1m3 0h1m1 0h1m1 0h1m1 0h2m1 0h3m1 0h1m1 0h1m4 0h3m1 0h2m2 0h3m1 0h1m2 0h7m2 0h1m1 0h1m1 0h2M5 101.5h1m1 0h1m6 0h2m3 0h3m1 0h1m2 0h1m3 0h2m2 0h1m1 0h1m1 0h1m1 0h1m2 0h3m1 0h2m1 0h1m1 0h1m1 0h3m1 0h2m2 0h1m1 0h2m2 0h2m1 0h1m1 0h1m2 0h4m1 0h1m2 0h1m1 0h6m2 0h1m1 0h1m9 0h2m1 0h2m1 0h1m1 0h1m1 0h1m2 0h1m1 0h1m1 0h1M5 102.5h2m2 0h2m1 0h2m1 0h1m1 0h1m4 0h1m2 0h1m1 0h1m1 0h4m2 0h1m5 0h1m4 0h5m2 0h1m1 0h1m5 0h3m3 0h1m1 0h1m8 0h2m2 0h2m1 0h4m3 0h5m3 0h1m1 0h1m2 0h1m2 0h1m1 0h1m1 0h2m3 0h2m1 0h1m1 0h3M4 103.5h2m1 0h3m1 0h1m1 0h2m3 0h6m3 0h4m3 0h1m1 0h1m5 0h3m1 0h2m1 0h1m1 0h1m3 0h1m1 0h2m1 0h1m1 0h2m1 0h1m2 0h1m4 0h2m1 0h1m2 0h1m1 0h9m2 0h1m1 0h1m1 0h1m2 0h2m1 0h2m5 0h1m4 0h4m1 0h1m1 0h3M4 104.5h2m4 0h8m2 0h3m3 0h1m1 0h1m3 0h2m2 0h1m3 0h2m1 0h2m1 0h1m3 0h1m2 0h1m4 0h1m1 0h1m1 0h2m3 0h1m1 0h1m4 0h1m5 0h3m1 0h2m1 0h3m3 0h3m3 0h1m3 0h1m1 0h2m2 0h1m1 0h1m3 0h1m4 0h3m1 0h1M6 105.5h2m1 0h1m3 0h1m1 0h3m1 0h1m4 0h1m2 0h2m2 0h1m5 0h1m1 0h1m1 0h2m7 0h1m1 0h1m1 0h1m1 0h2m6 0h1m2 0h1m1 0h1m2 0h2m1 0h2m1 0h1m2 0h3m3 0h4m1 0h1m2 0h1m2 0h1m3 0h3m1 0h1m1 0h2m5 0h3m3 0h1m1 0h1M4 106.5h1m3 0h11m5 0h3m1 0h1m2 0h1m2 0h1m1 0h3m2 0h1m1 0h2m4 0h2m2 0h1m3 0h2m2 0h4m1 0h4m4 0h2m5 0h3m1 0h1m1 0h2m2 0h3m1 0h2m1 0h1m2 0h2m3 0h5m1 0h1m1 0h4m5 0h2M4 107.5h4m1 0h1m1 0h4m2 0h1m3 0h2m1 0h1m3 0h3m1 0h2m1 0h1m1 0h1m3 0h1m1 0h1m1 0h1m1 0h1m1 0h3m3 0h1m2 0h1m1 0h1m2 0h1m5 0h3m1 0h1m4 0h1m6 0h2m1 0h1m2 0h1m7 0h3m4 0h1m1 0h1m1 0h2m2 0h1m4 0h4m1 0h1M6 108.5h1m2 0h3m2 0h4m1 0h2m6 0h2m1 0h1m3 0h4m2 0h3m2 0h1m2 0h1m2 0h1m3 0h1m2 0h2m1 0h1m2 0h5m1 0h1m6 0h3m1 0h1m4 0h3m1 0h1m2 0h1m1 0h3m1 0h1m1 0h2m1 0h1m1 0h1m1 0h4m1 0h1m2 0h1m3 0h1m1 0h1m1 0h1M4 109.5h3m1 0h1m6 0h4m2 0h1m1 0h1m4 0h3m3 0h1m3 0h1m1 0h1m4 0h2m6 0h2m1 0h3m1 0h1m1 0h1m1 0h1m5 0h2m3 0h1m4 0h3m2 0h1m1 0h1m1 0h3m1 0h1m1 0h1m1 0h5m3 0h1m1 0h2m2 0h1m4 0h1m3 0h1m1 0h3M4 110.5h4m1 0h2m1 0h1m3 0h3m5 0h4m1 0h1m2 0h1m3 0h4m5 0h1m4 0h2m1 0h1m5 0h4m1 0h2m2 0h1m4 0h2m2 0h4m1 0h1m5 0h1m1 0h6m1 0h4m1 0h1m1 0h5m1 0h2m1 0h1m3 0h2m2 0h4M5 111.5h4m2 0h4m2 0h1m2 0h2m2 0h4m1 0h1m4 0h2m2 0h1m7 0h2m2 0h1m2 0h4m3 0h1m1 0h1m2 0h1m5 0h3m1 0h5m3 0h3m3 0h1m2 0h1m2 0h1m2 0h2m5 0h2m5 0h2m2 0h3m2 0h1m1 0h1M4 112.5h2m2 0h3m4 0h1m2 0h4m9 0h2m1 0h1m3 0h2m3 0h1m2 0h3m1 0h2m1 0h1m1 0h1m1 0h1m2 0h1m4 0h3m6 0h1m4 0h3m2 0h2m2 0h3m3 0h1m1 0h1m4 0h3m1 0h1m2 0h1m1 0h1m2 0h1m1 0h1m2 0h3m1 0h3M4 113.5h2m2 0h2m3 0h1m3 0h1m3 0h2m1 0h1m1 0h3m4 0h1m2 0h3m1 0h1m1 0h2m1 0h1m4 0h1m1 0h1m1 0h2m3 0h2m2 0h4m2 0h4m1 0h2m1 0h2m1 0h1m1 0h2m1 0h1m1 0h1m3 0h1m1 0h4m6 0h1m1 0h3m2 0h2m2 0h2m2 0h2m1 0h4M4 114.5h2m1 0h1m1 0h2m1 0h1m1 0h5m3 0h2m1 0h1m4 0h1m2 0h6m1 0h2m2 0h1m2 0h1m1 0h1m1 0h1m2 0h1m1 0h1m1 0h1m2 0h2m4 0h2m2 0h4m1 0h1m2 0h2m2 0h2m4 0h2m3 0h1m1 0h2m1 0h1m1 0h1m4 0h1m2 0h4m4 0h2m1 0h1m1 0h2M4 115.5h1m1 0h4m2 0h1m1 0h5m1 0h2m2 0h3m3 0h1m1 0h5m1 0h3m1 0h1m3 0h3m1 0h2m3 0h3m1 0h1m2 0h2m1 0h1m3 0h3m1 0h2m2 0h1m1 0h1m2 0h1m1 0h1m1 0h4m2 0h2m2 0h4m1 0h1m1 0h1m3 0h1m2 0h1m4 0h1m3 0h6M5 116.5h3m2 0h3m5 0h2m1 0h3m2 0h5m1 0h6m1 0h3m1 0h1m2 0h1m2 0h1m2 0h1m2 0h1m2 0h7m1 0h1m1 0h1m2 0h2m1 0h4m1 0h3m2 0h2m2 0h7m1 0h1m1 0h1m2 0h2m1 0h1m1 0h1m3 0h3m1 0h7m2 0h1M12 117.5h6m2 0h2m1 0h2m1 0h1m2 0h1m2 0h1m3 0h1m6 0h1m2 0h3m2 0h4m2 0h2m1 0h1m3 0h1m1 0h4m1 0h4m2 0h1m6 0h2m2 0h1m3 0h3m2 0h1m1 0h2m1 0h1m2 0h4m1 0h1m2 0h1m1 0h2m3 0h1m1 0h1m1 0h1M4 118.5h7m1 0h1m1 0h2m1 0h1m3 0h1m2 0h2m3 0h4m1 0h1m1 0h1m2 0h2m2 0h2m3 0h10m2 0h1m1 0h1m1 0h1m1 0h1m1 0h3m5 0h1m3 0h1m1 0h5m1 0h1m1 0h1m1 0h4m5 0h2m1 0h2m1 0h1m2 0h1m1 0h2m1 0h2m1 0h1m1 0h1m1 0h3M4 119.5h1m5 0h1m3 0h2m2 0h3m1 0h2m1 0h1m2 0h1m1 0h1m1 0h1m3 0h9m3 0h1m5 0h1m1 0h1m2 0h2m3 0h3m1 0h2m1 0h1m5 0h2m2 0h1m1 0h1m1 0h2m1 0h1m3 0h1m1 0h1m4 0h3m1 0h1m3 0h1m3 0h1m4 0h1m3 0h1m1 0h3M4 120.5h1m1 0h3m1 0h1m1 0h1m1 0h1m1 0h1m2 0h1m1 0h1m3 0h1m2 0h1m1 0h1m1 0h5m4 0h1m1 0h1m2 0h1m5 0h1m3 0h1m3 0h6m2 0h1m1 0h2m1 0h1m3 0h2m2 0h1m2 0h9m2 0h3m3 0h2m1 0h1m2 0h3m2 0h1m1 0h7M4 121.5h1m1 0h3m1 0h1m3 0h3m1 0h1m2 0h1m3 0h1m1 0h2m1 0h1m1 0h3m2 0h1m4 0h1m6 0h1m1 0h1m4 0h2m1 0h2m1 0h1m4 0h5m4 0h1m5 0h2m1 0h2m7 0h4m3 0h1m1 0h1m1 0h4m3 0h2m1 0h5m2 0h1m1 0h1M4 122.5h1m1 0h3m1 0h1m4 0h1m2 0h2m1 0h1m2 0h2m4 0h4m1 0h3m1 0h2m1 0h1m1 0h3m6 0h1m1 0h2m4 0h7m6 0h2m1 0h1m2 0h1m2 0h2m1 0h1m3 0h1m8 0h1m2 0h1m1 0h1m5 0h1m2 0h5m2 0h1m2 0h1M4 123.5h1m5 0h1m2 0h2m2 0h1m1 0h2m4 0h2m2 0h1m2 0h2m1 0h2m5 0h1m1 0h1m4 0h3m2 0h5m4 0h2m2 0h1m5 0h6m1 0h1m1 0h1m1 0h1m1 0h2m2 0h4m3 0h2m2 0h3m1 0h1m3 0h1m4 0h6m3 0h1M4 124.5h7m1 0h1m1 0h2m1 0h4m4 0h2m1 0h1m1 0h4m1 0h2m2 0h5m3 0h1m2 0h1m2 0h2m1 0h2m1 0h1m4 0h1m1 0h1m1 0h1m2 0h1m1 0h1m3 0h3m1 0h1m1 0h8m1 0h1m1 0h1m3 0h1m1 0h2m1 0h1m1 0h1m1 0h5m1 0h2m1 0h1m1 0h1m2 0h4"/></svg>
