<svg xmlns="http://www.w3.org/2000/svg" viewBox="0 0 109 109" shape-rendering="crispEdges"><path fill="#ffffff" d="M0 0h109v109H0z"/><path stroke="#000000" d="M4 4.5h7m2 0h2m1 0h2m1 0h1m1 0h1m2 0h2m2 0h2m8 0h1m1 0h3m3 0h2m1 0h5m1 0h1m1 0h1m2 0h3m4 0h4m2 0h4m1 0h1m2 0h2m4 0h3m1 0h2m1 0h2m2 0h7M4 5.5h1m5 0h1m1 0h1m3 0h2m2 0h3m1 0h1m1 0h2m1 0h1m3 0h3m1 0h2m1 0h1m1 0h1m2 0h4m1 0h2m1 0h1m1 0h2m3 0h2m1 0h1m3 0h1m2 0h3m1 0h6m3 0h6m2 0h1m6 0h1m5 0h1M4 6.5h1m1 0h3m1 0h1m3 0h1m2 0h1m1 0h1m2 0h1m3 0h3m1 0h1m2 0h3m1 0h1m1 0h2m1 0h1m3 0h2m1 0h1m4 0h1m1 0h1m3 0h1m1 0h1m1 0h1m1 0h2m1 0h2m3 0h1m1 0h2m1 0h2m2 0h1m1 0h3m1 0h3m1 0h1m1 0h1m2 0h1m1 0h3m1 0h1M4 7.5h1m1 0h3m1 0h1m1 0h1m1 0h1m1 0h2m2 0h1m5 0h2m1 0h4m1 0h1m2 0h2m1 0h1m2 0h4m2 0h4m1 0h1m5 0h2m1 0h3m1 0h2m2 0h1m4 0h1m9 0h1m2 0h1m1 0h1m1 0h3m2 0h1m1 0h3m1 0h1M4 8.5h1m1 0h3m1 0h1m3 0h1m1 0h1m2 0h1m4 0h1m2 0h2m1 0h5m2 0h2m1 0h1m1 0h3m1 0h2m2 0h8m1 0h3m2 0h3m1 0h3m1 0h1m1 0h7m1 0h1m2 0h6m1 0h1m1 0h1m1 0h1m1 0h1m1 0h3m1 0h1M4 9.5h1m5 0h1m1 0h2m2 0h2m1 0h1m1 0h1m1 0h1m1 0h1m1 0h2m1 0h1m3 0h2m2 0h3m3 0h1m1 0h1m3 0h3m3 0h1m3 0h5m6 0h1m2 0h1m3 0h3m1 0h4m3 0h1m1 0h2m2 0h1m2 0h1m5 0h1M4 10.5h7m1 0h1m1 0h1m1 0h1m1 0h1m1 0h1m1 0h1m1 0h1m1 0h1m1 0h1m1 0h1m1 0h1m1 0h1m1 0h1m1 0h1m1 0h1m1 0h1m1 0h1m1 0h1m1 0h1m1 0h1m1 0h1m1 0h1m1 0h1m1 0h1m1 0h1m1 0h1m1 0h1m1 0h1m1 0h1m1 0h1m1 0h1m1 0h1m1 0h1m1 0h1m1 0h1m1 0h1m1 0h1m1 0h1m1 0h1m1 0h1m1 0h1m1 0h1m1 0h1m1 0h7M17 11.5h1m1 0h1m1 0h1m2 0h1m1 0h3m1 0h1m3 0h1m3 0h1m2 0h3m5 0h1m2 0h1m3 0h2m1 0h2m1 0h2m3 0h5m1 0h2m3 0h1m1 0h2m2 0h1m1 0h3m3 0h1m1 0h1m1 0h1M4 12.5h5m1 0h3m2 0h1m1 0h3m2 0h1m1 0h1m1 0h2m2 0h6m1 0h1m2 0h1m1 0h1m3 0h2m4 0h5m4 0h1m1 0h2m1 0h1m3 0h1m3 0h5m2 0h2m1 0h2m5 0h3m1 0h1m1 0h1m1 0h1m1 0h1m1 0h1M5 13.5h2m1 0h2m1 0h2m1 0h1m6 0h1m2 0h1m4 0h3m4 0h2m2 0h1m3 0h4m1 0h3m2 0h2m1 0h3m1 0h1m2 0h1m3 0h1m2 0h4m1 0h1m4 0h2m2 0h3m1 0h2m3 0h1m1 0h2m2 0h2m2 0h1M4 14.5h2m1 0h1m2 0h2m7 0h3m2 0h1m1 0h2m1 0h1m1 0h1m3 0h1m1 0h5m1 0h1m2 0h1m2 0h1m1 0h1m2 0h3m2 0h1m1 0h1m1 0h2m2 0h2m3 0h3m2 0h1m5 0h2m2 0h4m1 0h4m2 0h3m1 0h2M5 15.5h1m2 0h1m2 0h2m5 0h3m2 0h1m1 0h1m3 0h4m1 0h1m5 0h2m1 0h2m3 0h2m2 0h1m1 0h2m1 0h4m3 0h2m2 0h1m2 0h1m1 0h2m3 0h2m2 0h1m1 0h2m1 0h1m1 0h1m2 0h4m1 0h1m2 0h4M4 16.5h2m1 0h1m1 0h2m1 0h3m5 0h1m4 0h3m1 0h1m1 0h1m1 0h2m2 0h1m2 0h1m1 0h3m2 0h1m1 0h1m1 0h1m1 0h1m1 0h1m4 0h1m1 0h1m2 0h2m1 0h6m2 0h1m1 0h1m1 0h1m1 0h5m4 0h1m1 0h3m1 0h2m2 0h3M7 17.5h2m2 0h2m1 0h3m2 0h1m1 0h1m1 0h1m1 0h1m4 0h3m2 0h1m2 0h1m3 0h1m2 0h4m2 0h1m2 0h2m8 0h1m2 0h1m2 0h1m1 0h1m2 0h1m1 0h1m2 0h4m2 0h1m2 0h1m1 0h1m3 0h2m1 0h3m2 0h1M6 18.5h1m3 0h1m2 0h3m1 0h3m3 0h8m1 0h3m1 0h5m1 0h4m2 0h1m1 0h1m1 0h1m1 0h1m2 0h2m1 0h3m2 0h4m2 0h1m2 0h1m2 0h1m1 0h1m2 0h1m2 0h2m1 0h5m4 0h3m1 0h4M4 19.5h1m1 0h2m3 0h1m2 0h6m2 0h5m1 0h1m1 0h2m5 0h6m3 0h1m1 0h1m2 0h1m2 0h1m2 0h1m1 0h2m1 0h1m4 0h2m2 0h1m1 0h2m3 0h1m1 0h1m1 0h4m1 0h2m4 0h3m2 0h1m1 0h2m1 0h1M6 20.5h3m1 0h2m1 0h3m2 0h6m2 0h6m1 0h1m1 0h1m2 0h2m1 0h4m1 0h1m1 0h3m3 0h1m2 0h2m2 0h1m1 0h2m1 0h1m1 0h1m1 0h2m1 0h2m2 0h1m2 0h1m4 0h2m1 0h1m1 0h2m1 0h1m1 0h3m4 0h3M5 21.5h4m3 0h1m1 0h2m3 0h1m4 0h3m1 0h1m2 0h2m1 0h5m1 0h1m2 0h2m2 0h1m3 0h1m4 0h3m1 0h1m2 0h2m2 0h1m1 0h2m2 0h5m1 0h1m1 0h2m2 0h3m2 0h1m3 0h1m1 0h1m2 0h1m2 0h1M4 22.5h1m1 0h1m3 0h1m1 0h1m3 0h5m1 0h1m3 0h2m1 0h2m2 0h1m2 0h2m3 0h1m1 0h4m2 0h1m3 0h1m1 0h1m2 0h2m3 0h1m1 0h3m4 0h3m2 0h2m6 0h2m1 0h2m2 0h3m1 0h2m2 0h1m1 0h2M4 23.5h1m1 0h2m3 0h1m1 0h1m1 0h2m2 0h1m3 0h1m1 0h1m3 0h1m2 0h4m2 0h2m5 0h2m2 0h1m3 0h1m1 0h1m1 0h1m1 0h2m3 0h1m4 0h6m1 0h1m1 0h2m1 0h1m2 0h1m1 0h3m1 0h1m3 0h1m3 0h2m3 0h1M4 24.5h2m4 0h1m9 0h1m1 0h3m1 0h1m6 0h2m1 0h1m3 0h1m6 0h1m1 0h4m2 0h1m2 0h2m1 0h3m2 0h4m2 0h1m2 0h1m4 0h1m1 0h1m1 0h2m2 0h1m1 0h2m1 0h2m2 0h1m4 0h2M9 25.5h1m1 0h1m1 0h1m2 0h1m1 0h2m3 0h1m1 0h2m2 0h2m1 0h2m5 0h1m2 0h2m3 0h1m2 0h1m2 0h1m2 0h1m1 0h1m2 0h5m1 0h1m3 0h1m4 0h3m1 0h4m1 0h1m1 0h2m1 0h1m3 0h7m1 0h1m1 0h1M5 26.5h1m1 0h4m1 0h1m1 0h1m3 0h1m3 0h1m1 0h1m1 0h1m1 0h2m3 0h3m1 0h3m1 0h1m1 0h1m4 0h9m1 0h3m2 0h1m2 0h5m1 0h1m3 0h1m1 0h1m1 0h1m2 0h3m1 0h1m2 0h5m1 0h1m3 0h1m1 0h3M6 27.5h1m1 0h1m2 0h2m2 0h1m1 0h3m1 0h1m3 0h1m3 0h1m3 0h1m3 0h1m1 0h2m2 0h1m2 0h1m1 0h1m2 0h1m2 0h2m1 0h1m1 0h1m5 0h4m1 0h2m1 0h9m2 0h1m8 0h3m2 0h1m2 0h1m2 0h1M4 28.5h9m2 0h2m2 0h1m1 0h1m1 0h2m4 0h2m2 0h2m2 0h1m1 0h1m1 0h1m1 0h1m5 0h3m2 0h2m1 0h1m1 0h2m5 0h2m2 0h5m3 0h1m5 0h1m3 0h1m3 0h1m2 0h3m1 0h6M6 29.5h1m2 0h1m2 0h1m3 0h1m2 0h5m1 0h1m1 0h1m3 0h1m3 0h6m1 0h2m2 0h5m2 0h1m1 0h1m2 0h2m1 0h1m3 0h1m2 0h1m1 0h1m1 0h1m2 0h2m1 0h2m1 0h2m1 0h3m1 0h4m1 0h3m2 0h1m2 0h1m2 0h1M6 30.5h7m4 0h1m1 0h1m2 0h2m1 0h3m2 0h6m1 0h1m1 0h3m1 0h1m2 0h1m3 0h8m2 0h1m1 0h3m1 0h1m1 0h1m1 0h10m1 0h1m1 0h4m1 0h1m1 0h1m4 0h9M6 31.5h1m1 0h1m3 0h2m1 0h1m2 0h1m3 0h1m1 0h2m1 0h1m2 0h1m3 0h2m9 0h1m1 0h4m1 0h1m3 0h4m1 0h1m1 0h2m1 0h3m2 0h1m1 0h2m3 0h1m1 0h1m1 0h2m4 0h2m2 0h5m3 0h1M4 32.5h2m1 0h2m1 0h1m1 0h2m1 0h5m1 0h1m1 0h3m3 0h2m1 0h1m1 0h2m1 0h1m2 0h1m1 0h1m2 0h1m5 0h2m1 0h1m1 0h1m1 0h3m2 0h2m1 0h2m3 0h1m1 0h2m1 0h1m1 0h1m2 0h5m6 0h3m1 0h1m1 0h1m1 0h2m1 0h2M4 33.5h5m3 0h1m1 0h3m4 0h2m1 0h1m1 0h1m2 0h2m3 0h2m5 0h1m1 0h1m5 0h1m2 0h1m3 0h1m1 0h3m2 0h1m1 0h1m1 0h1m1 0h1m4 0h1m3 0h2m1 0h2m1 0h1m2 0h1m3 0h2m3 0h1m3 0h1m1 0h2M5 34.5h2m1 0h7m3 0h1m1 0h5m1 0h2m2 0h7m2 0h7m1 0h1m3 0h6m1 0h1m2 0h1m2 0h1m2 0h1m2 0h2m2 0h6m5 0h4m1 0h1m4 0h6M4 35.5h1m1 0h1m2 0h1m1 0h1m1 0h1m1 0h2m1 0h2m2 0h3m5 0h1m2 0h2m1 0h5m2 0h4m2 0h1m3 0h2m1 0h1m1 0h2m2 0h1m7 0h1m1 0h3m4 0h1m3 0h1m2 0h6m4 0h2m1 0h1m2 0h1M6 36.5h2m2 0h2m3 0h1m1 0h3m1 0h1m1 0h3m1 0h5m2 0h1m1 0h1m2 0h1m4 0h1m1 0h4m7 0h2m4 0h2m3 0h1m5 0h1m2 0h1m4 0h9m4 0h1m2 0h4m1 0h2M6 37.5h2m1 0h1m1 0h1m2 0h1m3 0h1m1 0h2m1 0h6m2 0h1m2 0h1m1 0h1m5 0h2m1 0h2m1 0h1m5 0h1m5 0h2m1 0h2m3 0h1m3 0h2m1 0h2m4 0h2m2 0h2m4 0h1m2 0h2m1 0h2m1 0h3m1 0h1M10 38.5h1m3 0h1m3 0h1m2 0h2m2 0h1m4 0h2m2 0h1m2 0h1m1 0h3m3 0h3m2 0h1m1 0h2m1 0h1m3 0h2m1 0h1m1 0h3m2 0h1m2 0h1m2 0h1m2 0h1m2 0h1m1 0h6m1 0h2m2 0h1m3 0h1m1 0h1m1 0h1M6 39.5h1m4 0h1m2 0h1m1 0h1m1 0h3m1 0h2m7 0h1m1 0h3m2 0h6m3 0h3m1 0h1m1 0h1m1 0h1m1 0h3m3 0h4m4 0h1m1 0h2m3 0h4m2 0h1m1 0h2m2 0h1m2 0h1m1 0h1m3 0h1m2 0h1M4 40.5h3m3 0h2m2 0h1m6 0h3m6 0h1m1 0h1m1 0h2m1 0h3m1 0h1m10 0h1m2 0h1m5 0h4m1 0h1m1 0h5m1 0h1m1 0h2m1 0h3m1 0h2m4 0h1m1 0h1m2 0h1m2 0h2m1 0h5M4 41.5h3m1 0h1m2 0h1m1 0h2m1 0h1m3 0h1m2 0h3m1 0h1m4 0h2m1 0h1m1 0h1m3 0h2m1 0h1m1 0h9m1 0h2m1 0h1m1 0h2m2 0h1m1 0h2m4 0h1m2 0h2m2 0h1m3 0h1m1 0h1m3 0h8m1 0h3m2 0h1M4 42.5h1m1 0h2m2 0h1m1 0h2m3 0h2m1 0h1m1 0h1m2 0h1m2 0h5m2 0h1m1 0h2m1 0h3m2 0h3m1 0h4m3 0h2m3 0h1m1 0h1m2 0h1m1 0h6m2 0h1m4 0h2m3 0h1m2 0h1m2 0h4m1 0h4m3 0h1M6 43.5h2m1 0h1m1 0h2m4 0h4m4 0h1m2 0h1m2 0h5m2 0h6m1 0h3m1 0h3m1 0h3m1 0h7m1 0h2m2 0h2m1 0h1m2 0h2m1 0h3m1 0h2m1 0h1m1 0h1m1 0h2m1 0h1m1 0h1m1 0h2m4 0h1m1 0h1M4 44.5h1m1 0h2m1 0h4m2 0h1m1 0h1m1 0h1m3 0h1m3 0h4m2 0h2m4 0h3m2 0h2m1 0h1m2 0h5m2 0h2m1 0h1m5 0h2m2 0h1m3 0h4m2 0h1m1 0h6m5 0h1m4 0h1m1 0h1m2 0h2M4 45.5h4m1 0h1m4 0h3m1 0h1m1 0h2m1 0h3m1 0h3m3 0h5m5 0h1m2 0h1m2 0h2m1 0h3m3 0h2m3 0h2m1 0h1m2 0h1m1 0h1m1 0h1m1 0h1m2 0h1m2 0h4m2 0h1m1 0h1m2 0h2m2 0h1m4 0h1m2 0h1M4 46.5h4m2 0h1m1 0h2m1 0h1m3 0h1m5 0h1m5 0h1m1 0h2m1 0h2m3 0h1m1 0h2m1 0h4m3 0h5m1 0h1m3 0h1m1 0h3m1 0h1m1 0h1m1 0h1m2 0h5m2 0h4m1 0h1m2 0h1m1 0h1m3 0h3m4 0h1M5 47.5h1m1 0h1m8 0h1m1 0h1m4 0h1m4 0h4m1 0h1m2 0h4m2 0h3m2 0h1m1 0h2m1 0h5m2 0h1m4 0h7m1 0h1m1 0h4m2 0h1m1 0h3m1 0h1m1 0h1m2 0h1m1 0h3m4 0h1m3 0h1M8 48.5h3m1 0h2m1 0h1m3 0h3m2 0h2m2 0h2m2 0h3m1 0h2m1 0h1m1 0h2m1 0h2m3 0h5m5 0h2m2 0h1m2 0h2m1 0h5m1 0h3m1 0h5m1 0h1m2 0h2m1 0h9M4 49.5h4m1 0h1m1 0h1m3 0h1m3 0h2m2 0h1m1 0h1m3 0h1m1 0h2m1 0h2m5 0h1m2 0h1m2 0h1m4 0h2m1 0h2m2 0h4m1 0h2m2 0h1m1 0h1m2 0h2m1 0h2m1 0h1m2 0h1m2 0h1m3 0h1m1 0h3m5 0h1m2 0h1M4 50.5h1m2 0h2m1 0h1m3 0h2m2 0h1m2 0h4m1 0h1m1 0h3m1 0h7m2 0h1m2 0h3m1 0h5m1 0h1m1 0h2m3 0h3m2 0h2m4 0h2m1 0h3m2 0h3m3 0h1m1 0h2m2 0h3m1 0h1m1 0h1m1 0h1m3 0h1M5 51.5h1m5 0h1m4 0h3m2 0h2m1 0h4m1 0h1m1 0h1m4 0h1m7 0h3m1 0h3m2 0h1m2 0h3m4 0h2m5 0h1m2 0h1m1 0h2m1 0h2m2 0h2m1 0h1m1 0h1m2 0h2m2 0h1m1 0h1m1 0h1m1 0h2m1 0h2M5 52.5h1m1 0h9m1 0h2m1 0h2m2 0h2m3 0h6m2 0h1m2 0h1m2 0h4m2 0h9m3 0h2m3 0h1m3 0h1m3 0h6m1 0h1m3 0h1m1 0h2m1 0h1m1 0h1m3 0h5m1 0h2M7 53.5h2m3 0h1m1 0h1m1 0h1m1 0h1m1 0h1m1 0h1m4 0h1m2 0h1m3 0h1m13 0h1m1 0h1m1 0h1m3 0h2m5 0h1m1 0h1m1 0h1m1 0h2m1 0h3m3 0h1m2 0h12m1 0h3m3 0h2m2 0h1M4 54.5h5m1 0h1m1 0h1m2 0h1m2 0h1m1 0h6m1 0h2m1 0h1m1 0h1m1 0h3m3 0h2m1 0h2m3 0h5m1 0h1m1 0h2m2 0h1m3 0h2m4 0h1m1 0h3m1 0h1m1 0h1m4 0h1m1 0h3m2 0h2m1 0h1m1 0h2m1 0h1m1 0h2m2 0h1M5 55.5h1m2 0h1m3 0h1m2 0h1m2 0h1m1 0h1m1 0h1m1 0h1m5 0h1m3 0h6m3 0h2m1 0h7m3 0h4m4 0h1m1 0h2m1 0h1m2 0h1m1 0h1m3 0h3m1 0h1m1 0h2m1 0h1m1 0h4m1 0h3m3 0h4M7 56.5h6m1 0h3m2 0h1m1 0h4m1 0h1m2 0h6m1 0h3m3 0h1m2 0h2m3 0h1m1 0h5m1 0h4m1 0h1m5 0h2m2 0h9m1 0h4m2 0h4m1 0h8m1 0h1M4 57.5h1m2 0h1m3 0h1m3 0h3m2 0h4m1 0h1m5 0h1m4 0h4m1 0h3m1 0h3m1 0h1m1 0h2m3 0h4m1 0h1m3 0h1m4 0h2m1 0h2m3 0h1m2 0h1m1 0h2m1 0h2m3 0h2m1 0h2m1 0h1m1 0h1m2 0h1M4 58.5h1m2 0h1m1 0h2m1 0h1m6 0h1m1 0h1m3 0h6m1 0h2m1 0h2m1 0h1m1 0h2m2 0h1m2 0h2m1 0h3m2 0h3m1 0h1m1 0h4m1 0h1m3 0h2m3 0h1m1 0h1m1 0h7m2 0h1m2 0h1m1 0h2m3 0h1m4 0h2M6 59.5h1m1 0h2m4 0h1m5 0h2m2 0h1m1 0h2m5 0h1m2 0h3m1 0h3m1 0h2m1 0h1m4 0h7m1 0h1m1 0h1m3 0h2m1 0h3m1 0h1m1 0h1m4 0h1m3 0h1m1 0h3m1 0h2m2 0h3m1 0h2m1 0h1m1 0h2M7 60.5h2m1 0h2m2 0h1m2 0h3m2 0h2m4 0h1m1 0h2m1 0h1m1 0h1m1 0h2m1 0h4m1 0h2m2 0h1m2 0h2m1 0h1m1 0h1m1 0h5m3 0h1m3 0h3m3 0h4m1 0h3m1 0h3m1 0h1m1 0h3m4 0h1m1 0h2m1 0h1M4 61.5h4m5 0h8m1 0h2m4 0h1m5 0h1m1 0h4m3 0h1m1 0h1m2 0h2m2 0h1m2 0h1m1 0h2m1 0h2m1 0h1m1 0h2m1 0h1m1 0h1m1 0h3m1 0h1m1 0h1m3 0h1m3 0h2m2 0h1m2 0h2m2 0h1m6 0h1M5 62.5h1m1 0h1m1 0h2m2 0h2m5 0h1m1 0h1m1 0h1m4 0h2m1 0h2m1 0h1m1 0h4m2 0h1m1 0h2m10 0h3m1 0h1m1 0h3m5 0h2m3 0h1m2 0h2m2 0h2m4 0h1m6 0h1m1 0h1m1 0h1m2 0h2M7 63.5h1m1 0h1m1 0h1m5 0h1m4 0h1m4 0h2m2 0h1m1 0h2m1 0h2m1 0h1m3 0h1m3 0h4m2 0h1m2 0h1m8 0h1m1 0h1m1 0h1m1 0h1m1 0h1m1 0h1m2 0h1m2 0h2m1 0h1m4 0h1m7 0h1m1 0h3m1 0h2M4 64.5h2m1 0h1m2 0h1m1 0h1m1 0h3m4 0h1m3 0h1m1 0h3m2 0h1m3 0h3m1 0h2m3 0h1m4 0h2m3 0h1m5 0h3m3 0h1m1 0h1m1 0h1m2 0h1m3 0h1m3 0h4m2 0h2m1 0h1m2 0h3m1 0h2m1 0h3M4 65.5h1m2 0h2m2 0h2m2 0h2m1 0h2m1 0h4m4 0h1m1 0h5m5 0h1m1 0h1m1 0h3m1 0h2m1 0h2m1 0h1m2 0h2m4 0h3m9 0h5m1 0h1m1 0h2m3 0h1m2 0h1m10 0h2M4 66.5h1m3 0h11m2 0h1m2 0h1m1 0h2m2 0h2m2 0h1m1 0h1m3 0h1m3 0h1m1 0h3m1 0h1m2 0h3m3 0h2m1 0h2m1 0h1m1 0h3m3 0h2m2 0h1m1 0h1m4 0h1m3 0h1m1 0h2m3 0h1m1 0h4M7 67.5h1m1 0h1m2 0h4m3 0h4m1 0h2m2 0h1m1 0h1m2 0h1m1 0h1m2 0h1m1 0h5m1 0h9m1 0h4m1 0h2m1 0h1m2 0h2m1 0h1m1 0h6m1 0h2m2 0h1m1 0h2m2 0h1m3 0h2m1 0h2m2 0h1m2 0h1M4 68.5h1m2 0h10m3 0h2m3 0h5m1 0h1m1 0h3m2 0h2m5 0h3m2 0h3m1 0h1m1 0h3m1 0h1m1 0h3m1 0h1m1 0h3m5 0h1m1 0h2m3 0h1m1 0h2m1 0h1m1 0h1m1 0h1m2 0h1m1 0h1m1 0h1m1 0h4M4 69.5h6m2 0h1m1 0h1m1 0h1m2 0h3m1 0h2m1 0h1m3 0h1m2 0h9m1 0h2m4 0h2m1 0h3m5 0h2m1 0h1m1 0h1m1 0h2m1 0h3m1 0h1m1 0h2m2 0h2m1 0h2m2 0h1m3 0h3m4 0h2m1 0h1m1 0h1M4 70.5h3m3 0h1m2 0h2m1 0h3m2 0h2m1 0h2m2 0h4m1 0h5m2 0h3m3 0h3m1 0h3m1 0h1m1 0h1m1 0h2m2 0h1m2 0h2m2 0h2m1 0h1m1 0h2m2 0h3m1 0h4m2 0h4m4 0h2m2 0h2m1 0h1M7 71.5h1m1 0h1m1 0h3m2 0h3m5 0h1m6 0h2m1 0h1m1 0h4m1 0h1m5 0h1m2 0h1m2 0h1m1 0h1m1 0h3m1 0h1m1 0h1m1 0h1m1 0h1m1 0h2m1 0h2m1 0h1m3 0h2m1 0h2m1 0h3m1 0h7m1 0h2m1 0h1m1 0h2M7 72.5h1m1 0h2m1 0h2m1 0h1m2 0h1m6 0h2m2 0h2m5 0h2m1 0h1m1 0h1m3 0h1m1 0h1m1 0h2m1 0h1m3 0h4m1 0h4m2 0h2m2 0h3m1 0h1m1 0h1m2 0h2m2 0h1m1 0h1m1 0h8m1 0h1m1 0h1m3 0h1M4 73.5h3m2 0h1m2 0h2m2 0h2m3 0h1m2 0h1m1 0h1m1 0h2m1 0h1m4 0h2m1 0h2m1 0h2m2 0h1m1 0h1m2 0h1m3 0h1m1 0h2m3 0h1m2 0h1m4 0h2m1 0h7m1 0h2m1 0h3m1 0h1m1 0h3m1 0h1m2 0h2m2 0h4M4 74.5h3m1 0h7m3 0h3m1 0h7m1 0h5m1 0h1m7 0h2m3 0h1m2 0h5m2 0h1m1 0h1m1 0h4m3 0h1m2 0h6m5 0h1m2 0h2m2 0h2m1 0h7m3 0h1M4 75.5h1m1 0h1m1 0h1m3 0h1m4 0h1m1 0h1m1 0h1m2 0h1m1 0h1m1 0h3m3 0h4m2 0h4m1 0h5m1 0h2m3 0h1m6 0h2m4 0h1m1 0h4m3 0h2m1 0h1m3 0h7m2 0h3m3 0h1M5 76.5h1m1 0h2m1 0h1m1 0h1m1 0h1m1 0h1m1 0h1m1 0h1m7 0h3m1 0h1m1 0h1m4 0h2m6 0h2m1 0h3m1 0h1m1 0h3m1 0h1m1 0h1m1 0h1m1 0h9m1 0h1m1 0h1m1 0h1m1 0h1m1 0h3m1 0h2m1 0h1m1 0h1m1 0h2m1 0h1m1 0h5M5 77.5h1m1 0h2m3 0h2m1 0h2m3 0h3m1 0h2m4 0h1m3 0h3m4 0h4m2 0h1m2 0h3m3 0h1m1 0h1m1 0h1m3 0h5m2 0h2m1 0h1m3 0h1m1 0h2m1 0h1m1 0h1m2 0h1m1 0h1m2 0h4m3 0h1m1 0h1M4 78.5h1m3 0h6m3 0h1m2 0h2m2 0h2m3 0h10m2 0h1m2 0h1m2 0h1m2 0h1m1 0h5m1 0h2m2 0h4m2 0h3m1 0h1m1 0h5m1 0h3m1 0h1m1 0h1m1 0h1m1 0h1m4 0h6m1 0h2M7 79.5h3m3 0h2m5 0h5m3 0h3m1 0h2m2 0h2m1 0h2m2 0h2m2 0h4m2 0h3m1 0h1m4 0h1m1 0h1m2 0h1m1 0h2m1 0h10m2 0h3m1 0h5m1 0h1m2 0h3m1 0h1m2 0h1M7 80.5h1m2 0h1m1 0h3m2 0h3m1 0h2m1 0h1m2 0h1m1 0h1m2 0h1m1 0h1m2 0h1m2 0h2m1 0h3m3 0h8m9 0h2m3 0h3m3 0h3m2 0h1m2 0h2m1 0h1m1 0h1m1 0h1m2 0h1m2 0h1m1 0h1m3 0h1M5 81.5h1m2 0h1m2 0h1m2 0h2m2 0h1m3 0h2m1 0h2m1 0h1m1 0h3m1 0h2m2 0h1m1 0h1m1 0h4m1 0h3m3 0h1m3 0h2m7 0h5m2 0h1m1 0h1m4 0h1m5 0h2m1 0h1m1 0h1m1 0h1m1 0h1m1 0h2m4 0h2M10 82.5h2m1 0h1m4 0h1m1 0h1m1 0h5m1 0h3m1 0h2m1 0h5m2 0h1m2 0h1m1 0h1m1 0h2m1 0h2m1 0h7m3 0h3m1 0h3m3 0h1m1 0h1m1 0h1m3 0h2m3 0h1m1 0h1m4 0h1m3 0h5M5 83.5h1m1 0h1m7 0h1m2 0h1m2 0h1m2 0h3m1 0h3m1 0h1m2 0h1m2 0h1m1 0h1m1 0h1m1 0h1m2 0h1m1 0h1m2 0h3m1 0h5m3 0h1m3 0h3m1 0h1m1 0h3m1 0h7m4 0h1m2 0h3m1 0h1m1 0h1m4 0h1M4 84.5h1m2 0h1m1 0h2m1 0h4m2 0h3m1 0h2m2 0h1m1 0h3m2 0h2m1 0h1m1 0h4m1 0h1m2 0h5m1 0h2m1 0h1m2 0h1m4 0h4m1 0h5m1 0h3m1 0h2m1 0h2m1 0h2m2 0h2m1 0h1m4 0h3m1 0h3m1 0h1M5 85.5h5m1 0h1m1 0h1m1 0h1m1 0h3m1 0h1m3 0h2m2 0h3m1 0h2m1 0h3m1 0h3m1 0h1m2 0h1m1 0h1m1 0h3m1 0h1m1 0h1m2 0h2m4 0h3m1 0h3m2 0h1m1 0h2m7 0h2m1 0h1m1 0h3m1 0h1m3 0h1m2 0h3M4 86.5h1m1 0h1m2 0h2m1 0h1m1 0h1m1 0h2m2 0h2m1 0h1m2 0h1m1 0h1m2 0h2m3 0h7m1 0h1m1 0h2m1 0h3m2 0h1m1 0h1m1 0h3m2 0h1m2 0h1m3 0h5m1 0h2m1 0h4m3 0h3m1 0h1m2 0h1m7 0h3M5 87.5h1m1 0h1m1 0h1m1 0h1m1 0h1m1 0h3m1 0h4m2 0h1m2 0h1m4 0h3m1 0h1m3 0h2m4 0h5m3 0h3m2 0h1m1 0h1m1 0h1m2 0h1m4 0h2m3 0h1m1 0h1m2 0h1m1 0h1m3 0h1m5 0h1m1 0h1m4 0h3M5 88.5h1m1 0h2m1 0h1m1 0h2m2 0h1m1 0h1m2 0h1m1 0h1m3 0h2m3 0h2m2 0h2m1 0h5m4 0h1m9 0h2m4 0h7m1 0h2m2 0h1m1 0h2m1 0h1m1 0h2m2 0h2m3 0h1m3 0h3m2 0h3M8 89.5h1m2 0h1m2 0h3m1 0h3m1 0h7m1 0h1m5 0h5m1 0h1m1 0h1m1 0h1m1 0h2m4 0h2m1 0h2m3 0h1m3 0h1m2 0h2m1 0h3m1 0h1m1 0h1m1 0h4m1 0h2m1 0h1m1 0h1m1 0h2m3 0h2m1 0h3M4 90.5h2m1 0h8m2 0h1m2 0h2m7 0h1m1 0h2m2 0h1m2 0h2m2 0h3m3 0h2m3 0h1m2 0h1m1 0h2m2 0h3m2 0h2m3 0h6m1 0h2m1 0h3m1 0h1m1 0h5m1 0h1m1 0h1m5 0h2M5 91.5h2m2 0h1m1 0h1m4 0h1m3 0h1m1 0h1m5 0h2m1 0h1m1 0h1m2 0h1m1 0h1m3 0h5m1 0h1m2 0h1m2 0h2m1 0h1m3 0h1m2 0h1m3 0h1m1 0h2m1 0h2m5 0h1m1 0h4m1 0h1m5 0h1m1 0h1m5 0h3M4 92.5h1m2 0h1m2 0h1m1 0h3m1 0h1m3 0h1m1 0h2m2 0h1m3 0h1m2 0h2m2 0h2m5 0h3m1 0h1m1 0h2m1 0h1m1 0h1m1 0h1m2 0h3m2 0h2m1 0h4m3 0h1m1 0h2m2 0h3m2 0h4m3 0h1m2 0h2m1 0h2m1 0h1M4 93.5h1m1 0h1m1 0h1m5 0h1m4 0h3m1 0h1m1 0h1m1 0h2m1 0h1m1 0h2m2 0h3m2 0h3m2 0h3m1 0h1m1 0h2m2 0h1m3 0h2m2 0h2m1 0h1m2 0h1m1 0h2m3 0h4m2 0h1m4 0h2m6 0h1m1 0h2m2 0h2M4 94.5h1m2 0h2m1 0h1m2 0h2m1 0h3m3 0h1m1 0h5m1 0h2m6 0h1m1 0h1m1 0h2m6 0h1m1 0h2m1 0h2m2 0h3m1 0h2m1 0h2m2 0h1m1 0h4m2 0h2m3 0h4m1 0h1m1 0h3m1 0h1m1 0h2m2 0h1m1 0h1M4 95.5h1m1 0h2m1 0h1m1 0h2m1 0h4m1 0h1m1 0h1m1 0h1m1 0h1m1 0h4m1 0h1m2 0h1m2 0h2m1 0h1m3 0h2m2 0h2m3 0h2m2 0h1m1 0h2m3 0h1m1 0h4m2 0h1m2 0h1m1 0h1m1 0h3m1 0h1m1 0h1m1 0h1m2 0h2m1 0h1m2 0h2m3 0h1M8 96.5h1m1 0h1m2 0h5m7 0h1m2 0h10m1 0h3m5 0h2m2 0h8m7 0h1m2 0h3m2 0h5m1 0h1m3 0h1m2 0h1m2 0h2m4 0h8M12 97.5h1m1 0h1m1 0h2m1 0h4m1 0h2m2 0h3m3 0h2m1 0h2m1 0h4m1 0h1m1 0h1m1 0h2m1 0h1m3 0h1m3 0h2m1 0h2m1 0h1m2 0h1m2 0h1m1 0h1m3 0h2m1 0h2m2 0h1m3 0h5m1 0h2m3 0h1m2 0h1M4 98.5h7m1 0h1m1 0h5m1 0h1m2 0h6m1 0h1m1 0h1m1 0h1m2 0h1m1 0h1m1 0h1m3 0h1m3 0h2m1 0h1m1 0h1m1 0h3m2 0h3m4 0h7m1 0h1m1 0h2m1 0h1m1 0h2m1 0h1m1 0h2m3 0h1m2 0h1m1 0h1m1 0h1m1 0h1m1 0h1M4 99.5h1m5 0h1m3 0h1m1 0h1m1 0h2m2 0h2m2 0h1m1 0h3m3 0h3m1 0h2m1 0h1m1 0h1m1 0h1m2 0h3m1 0h1m3 0h3m5 0h2m1 0h1m1 0h2m2 0h2m3 0h1m1 0h4m3 0h1m1 0h4m1 0h3m3 0h2m2 0h1M4 100.5h1m1 0h3m1 0h1m1 0h2m4 0h2m2 0h4m4 0h5m3 0h1m3 0h1m7 0h1m1 0h5m2 0h2m1 0h1m1 0h1m2 0h2m2 0h2m1 0h5m2 0h2m1 0h1m2 0h4m4 0h6m2 0h1M4 101.5h1m1 0h3m1 0h1m1 0h6m3 0h1m2 0h1m7 0h1m1 0h1m3 0h1m2 0h3m1 0h2m3 0h1m5 0h3m1 0h1m5 0h2m2 0h1m3 0h3m2 0h4m1 0h1m2 0h5m3 0h2m5 0h2M4 102.5h1m1 0h3m1 0h1m1 0h2m4 0h1m2 0h1m2 0h2m2 0h3m6 0h3m1 0h1m2 0h1m2 0h4m3 0h2m1 0h1m2 0h5m1 0h2m2 0h4m1 0h2m6 0h1m1 0h4m1 0h3m1 0h1m4 0h2m1 0h2M4 103.5h1m5 0h1m1 0h1m1 0h4m4 0h1m1 0h1m2 0h1m3 0h1m1 0h3m4 0h3m2 0h2m1 0h1m2 0h2m3 0h4m3 0h4m4 0h2m2 0h1m3 0h1m3 0h3m2 0h1m1 0h1m1 0h3m1 0h5m1 0h2M4 104.5h7m1 0h1m1 0h3m1 0h1m2 0h1m2 0h7m5 0h2m1 0h1m5 0h1m1 0h2m2 0h3m1 0h1m1 0h2m1 0h2m4 0h1m2 0h2m1 0h2m4 0h2m1 0h2m2 0h2m3 0h1m1 0h2m1 0h1m2 0h2m1 0h2"/></svg>
