<svg xmlns="http://www.w3.org/2000/svg" viewBox="0 0 109 109" shape-rendering="crispEdges"><path fill="#ffffff" d="M0 0h109v109H0z"/><path stroke="#000000" d="M4 4.5h7m2 0h3m1 0h4m3 0h1m1 0h1m2 0h1m1 0h2m2 0h1m1 0h1m4 0h3m3 0h1m1 0h1m1 0h2m1 0h1m1 0h2m1 0h2m1 0h2m1 0h2m1 0h1m2 0h3m2 0h2m2 0h2m2 0h1m2 0h3m1 0h4m2 0h7M4 5.5h1m5 0h1m1 0h3m1 0h3m3 0h1m1 0h1m2 0h2m3 0h5m1 0h1m1 0h1m2 0h1m1 0h2m1 0h3m1 0h1m2 0h2m4 0h6m5 0h1m1 0h2m3 0h3m3 0h1m3 0h2m1 0h1m5 0h1m5 0h1M4 6.5h1m1 0h3m1 0h1m2 0h1m3 0h1m1 0h1m1 0h1m2 0h1m4 0h1m1 0h2m5 0h2m1 0h3m1 0h1m1 0h1m1 0h1m3 0h4m2 0h1m2 0h1m2 0h1m5 0h2m3 0h5m1 0h1m2 0h1m2 0h2m1 0h3m1 0h1m2 0h1m1 0h3m1 0h1M4 7.5h1m1 0h3m1 0h1m1 0h8m4 0h1m3 0h2m1 0h2m4 0h2m1 0h1m2 0h7m1 0h5m3 0h1m1 0h2m1 0h1m1 0h3m3 0h2m2 0h1m2 0h1m2 0h1m1 0h1m1 0h4m1 0h2m1 0h2m2 0h1m1 0h3m1 0h1M4 8.5h1m1 0h3m1 0h1m3 0h2m1 0h2m1 0h3m1 0h2m2 0h11m4 0h5m3 0h6m3 0h1m1 0h3m1 0h1m1 0h1m2 0h1m2 0h5m3 0h3m5 0h5m1 0h1m1 0h1m1 0h3m1 0h1M4 9.5h1m5 0h1m1 0h1m2 0h3m2 0h2m1 0h2m1 0h2m2 0h1m3 0h1m1 0h1m3 0h2m2 0h1m1 0h1m5 0h1m3 0h1m1 0h1m1 0h1m1 0h1m4 0h2m1 0h1m1 0h1m1 0h1m3 0h2m3 0h10m2 0h1m2 0h1m5 0h1M4 10.5h7m1 0h1m1 0h1m1 0h1m1 0h1m1 0h1m1 0h1m1 0h1m1 0h1m1 0h1m1 0h1m1 0h1m1 0h1m1 0h1m1 0h1m1 0h1m1 0h1m1 0h1m1 0h1m1 0h1m1 0h1m1 0h1m1 0h1m1 0h1m1 0h1m1 0h1m1 0h1m1 0h1m1 0h1m1 0h1m1 0h1m1 0h1m1 0h1m1 0h1m1 0h1m1 0h1m1 0h1m1 0h1m1 0h1m1 0h1m1 0h1m1 0h1m1 0h1m1 0h1m1 0h7M13 11.5h2m2 0h4m4 0h3m2 0h1m3 0h1m4 0h2m1 0h2m1 0h1m4 0h3m3 0h3m1 0h1m1 0h4m2 0h2m4 0h1m3 0h3m1 0h1m1 0h2m1 0h2m5 0h3M4 12.5h5m1 0h3m2 0h2m4 0h1m1 0h2m1 0h2m1 0h7m1 0h1m1 0h2m1 0h1m1 0h5m1 0h1m1 0h6m2 0h3m4 0h1m2 0h1m2 0h9m2 0h3m3 0h1m2 0h1m2 0h2m1 0h1m1 0h1m1 0h1M5 13.5h1m1 0h3m3 0h5m3 0h4m4 0h1m3 0h2m1 0h1m4 0h6m1 0h1m1 0h1m1 0h1m4 0h3m5 0h1m1 0h1m1 0h3m1 0h5m3 0h1m3 0h2m1 0h2m1 0h2m1 0h1m2 0h1m6 0h1M5 14.5h3m1 0h2m2 0h1m1 0h1m3 0h1m1 0h2m5 0h1m1 0h1m2 0h1m2 0h1m2 0h5m4 0h5m1 0h1m1 0h3m2 0h1m3 0h4m2 0h2m1 0h1m2 0h2m3 0h1m2 0h1m5 0h4m1 0h1m1 0h3m1 0h1m1 0h1M4 15.5h1m6 0h5m2 0h2m2 0h2m1 0h1m2 0h2m3 0h2m1 0h2m1 0h2m3 0h2m3 0h1m1 0h2m1 0h1m2 0h3m2 0h3m2 0h1m1 0h2m2 0h1m3 0h1m6 0h1m2 0h1m1 0h1m1 0h5m1 0h1m1 0h1m1 0h1m1 0h1M4 16.5h2m2 0h4m2 0h1m1 0h2m1 0h2m2 0h1m1 0h8m1 0h1m1 0h1m2 0h2m4 0h1m1 0h5m1 0h1m5 0h1m2 0h3m5 0h1m2 0h1m5 0h1m1 0h2m2 0h6m1 0h2m2 0h4m1 0h3M7 17.5h3m1 0h1m2 0h1m1 0h1m5 0h1m2 0h1m1 0h2m1 0h2m2 0h2m1 0h3m3 0h3m3 0h4m2 0h7m2 0h4m1 0h2m1 0h1m1 0h1m2 0h1m3 0h2m3 0h4m3 0h2m1 0h2M4 18.5h2m2 0h3m3 0h4m1 0h1m2 0h1m1 0h1m2 0h2m1 0h2m3 0h3m1 0h1m1 0h2m1 0h1m1 0h2m5 0h1m1 0h2m1 0h2m1 0h1m2 0h3m1 0h2m4 0h2m2 0h3m1 0h1m7 0h2m1 0h2m1 0h3m2 0h3M6 19.5h2m1 0h1m4 0h1m3 0h1m1 0h1m1 0h2m3 0h3m4 0h4m1 0h2m1 0h2m1 0h1m1 0h3m3 0h6m1 0h1m4 0h6m2 0h1m2 0h4m3 0h1m3 0h1m1 0h1m2 0h2m4 0h2m1 0h1M5 20.5h1m1 0h5m3 0h2m2 0h1m1 0h1m1 0h1m1 0h2m2 0h1m4 0h1m1 0h2m1 0h1m1 0h1m2 0h4m1 0h4m1 0h2m1 0h3m2 0h2m3 0h1m1 0h1m2 0h2m1 0h2m1 0h3m2 0h3m2 0h3m2 0h2m1 0h4m2 0h2M8 21.5h2m1 0h2m1 0h1m2 0h2m1 0h2m1 0h1m1 0h1m7 0h1m3 0h1m5 0h1m1 0h1m2 0h1m1 0h1m1 0h2m4 0h1m2 0h1m1 0h1m3 0h1m2 0h2m1 0h1m2 0h2m1 0h2m1 0h1m2 0h3m1 0h1m1 0h1m3 0h1m2 0h2m2 0h1M9 22.5h2m2 0h3m4 0h2m2 0h1m2 0h1m1 0h1m2 0h5m1 0h2m1 0h1m1 0h2m1 0h1m4 0h1m4 0h1m2 0h3m1 0h6m1 0h2m3 0h1m1 0h2m3 0h2m1 0h2m1 0h1m1 0h1m5 0h1m1 0h3m2 0h2M4 23.5h1m2 0h1m1 0h1m3 0h1m4 0h1m1 0h3m2 0h1m2 0h3m1 0h3m2 0h1m2 0h1m1 0h4m1 0h1m1 0h2m2 0h3m1 0h3m3 0h1m1 0h1m1 0h4m1 0h3m1 0h4m4 0h3m2 0h1m1 0h1m1 0h1m4 0h1m1 0h3m1 0h1M5 24.5h1m1 0h2m1 0h1m3 0h1m2 0h3m2 0h1m1 0h3m3 0h3m2 0h1m4 0h4m1 0h1m1 0h1m1 0h3m1 0h3m3 0h1m4 0h1m4 0h1m2 0h2m2 0h1m1 0h1m1 0h1m1 0h1m1 0h2m1 0h1m1 0h1m1 0h1m2 0h4m2 0h4M5 25.5h1m5 0h1m2 0h1m1 0h1m1 0h3m4 0h1m2 0h7m3 0h2m1 0h1m1 0h1m2 0h1m1 0h1m3 0h2m5 0h1m2 0h1m1 0h2m1 0h4m1 0h1m1 0h2m1 0h1m1 0h3m1 0h1m3 0h2m1 0h1m2 0h1m2 0h1m2 0h1m2 0h3M4 26.5h1m1 0h1m2 0h5m1 0h1m4 0h1m4 0h1m1 0h1m1 0h5m2 0h4m4 0h3m1 0h2m1 0h2m1 0h2m3 0h1m1 0h4m4 0h1m2 0h3m1 0h2m5 0h3m2 0h1m6 0h5m1 0h1m2 0h1M4 27.5h2m2 0h2m4 0h1m2 0h1m1 0h1m1 0h3m1 0h1m1 0h4m2 0h2m1 0h6m1 0h2m3 0h3m6 0h1m5 0h1m2 0h2m4 0h3m2 0h1m3 0h1m3 0h1m3 0h3m2 0h1m2 0h1m2 0h1m1 0h1m1 0h1M5 28.5h2m1 0h1m1 0h4m2 0h6m1 0h2m3 0h1m5 0h1m1 0h1m3 0h2m1 0h1m6 0h4m3 0h7m3 0h1m2 0h1m3 0h4m3 0h7m1 0h1m3 0h1m1 0h6M5 29.5h1m5 0h5m2 0h1m3 0h1m1 0h1m3 0h4m1 0h1m2 0h2m1 0h1m1 0h1m1 0h1m1 0h2m1 0h2m1 0h1m3 0h3m1 0h6m1 0h4m1 0h1m1 0h4m5 0h2m2 0h3m3 0h1m1 0h4m1 0h3m1 0h2M5 30.5h1m1 0h7m1 0h4m1 0h4m4 0h8m2 0h1m1 0h1m1 0h2m3 0h1m2 0h1m1 0h6m2 0h1m1 0h3m2 0h1m2 0h1m1 0h1m1 0h5m2 0h4m1 0h2m5 0h1m1 0h6m2 0h1M8 31.5h1m3 0h3m2 0h1m1 0h1m1 0h3m1 0h1m1 0h1m1 0h2m3 0h2m1 0h3m3 0h3m1 0h1m1 0h4m3 0h1m1 0h1m1 0h2m1 0h1m3 0h5m2 0h1m3 0h1m1 0h1m1 0h1m1 0h1m3 0h2m1 0h3m1 0h2m3 0h1M4 32.5h1m2 0h2m1 0h1m1 0h1m2 0h3m4 0h3m2 0h4m1 0h1m1 0h1m1 0h1m3 0h1m2 0h10m1 0h1m1 0h2m3 0h5m2 0h1m2 0h1m1 0h2m1 0h1m1 0h5m1 0h1m3 0h1m2 0h1m1 0h4m1 0h1m1 0h2M6 33.5h1m1 0h1m3 0h1m4 0h1m1 0h2m1 0h3m4 0h2m3 0h2m1 0h1m4 0h4m2 0h3m1 0h1m3 0h1m1 0h1m3 0h3m1 0h2m2 0h1m3 0h1m3 0h4m2 0h1m1 0h6m2 0h3m3 0h1m1 0h3M5 34.5h2m1 0h5m1 0h1m1 0h2m3 0h5m1 0h2m1 0h6m2 0h1m1 0h1m1 0h3m1 0h2m3 0h7m4 0h2m1 0h1m1 0h4m1 0h10m2 0h1m4 0h1m1 0h2m1 0h1m1 0h5m1 0h3M4 35.5h3m1 0h2m3 0h3m2 0h1m1 0h1m3 0h1m2 0h1m2 0h2m4 0h2m2 0h2m2 0h1m1 0h1m4 0h1m3 0h2m1 0h1m4 0h7m2 0h2m4 0h1m1 0h1m1 0h1m2 0h1m2 0h1m10 0h4M6 36.5h3m1 0h1m1 0h3m2 0h1m1 0h2m2 0h2m2 0h2m2 0h1m1 0h1m1 0h4m1 0h1m1 0h1m1 0h1m4 0h1m6 0h1m1 0h1m4 0h1m2 0h1m1 0h3m1 0h4m3 0h1m1 0h5m1 0h1m4 0h1m1 0h2m1 0h3m3 0h2M4 37.5h2m1 0h1m3 0h2m3 0h2m5 0h1m3 0h1m2 0h1m2 0h1m1 0h7m1 0h2m1 0h1m1 0h2m1 0h3m1 0h1m1 0h3m1 0h4m1 0h1m2 0h1m2 0h1m4 0h1m1 0h1m4 0h1m1 0h1m5 0h5m2 0h1m1 0h2m1 0h1M5 38.5h1m4 0h1m2 0h4m1 0h2m2 0h1m1 0h1m1 0h5m1 0h1m2 0h5m3 0h1m4 0h2m1 0h1m1 0h3m2 0h1m3 0h1m3 0h1m1 0h1m2 0h1m2 0h1m1 0h1m1 0h3m2 0h1m4 0h1m1 0h1m1 0h1m1 0h1m2 0h1m2 0h1m1 0h1M4 39.5h2m2 0h2m4 0h2m2 0h2m1 0h2m1 0h1m3 0h2m1 0h6m3 0h1m3 0h1m1 0h1m1 0h1m2 0h4m3 0h2m1 0h1m1 0h1m1 0h1m3 0h1m1 0h1m1 0h4m3 0h2m1 0h1m3 0h2m3 0h1m1 0h2m1 0h1m1 0h1M4 40.5h2m3 0h5m6 0h7m2 0h4m2 0h1m2 0h3m2 0h1m1 0h2m4 0h3m5 0h1m2 0h1m1 0h4m1 0h2m1 0h1m2 0h1m1 0h3m2 0h2m3 0h1m1 0h1m4 0h1m3 0h1m1 0h5M4 41.5h1m2 0h3m3 0h2m2 0h2m1 0h1m1 0h2m1 0h2m1 0h2m1 0h1m1 0h1m1 0h1m8 0h1m1 0h2m2 0h2m4 0h2m3 0h1m1 0h1m5 0h1m1 0h1m2 0h1m1 0h2m2 0h3m1 0h1m3 0h1m4 0h5m1 0h1m1 0h1m2 0h1M7 42.5h1m1 0h4m1 0h6m3 0h1m3 0h3m1 0h1m1 0h2m2 0h3m1 0h2m4 0h3m5 0h1m1 0h1m6 0h1m1 0h1m1 0h1m3 0h2m1 0h4m3 0h1m1 0h2m1 0h1m1 0h1m1 0h1m2 0h1m2 0h2m1 0h1m1 0h1M4 43.5h2m1 0h1m1 0h1m1 0h2m1 0h3m1 0h3m3 0h1m5 0h1m1 0h1m1 0h3m1 0h1m3 0h7m3 0h1m1 0h1m2 0h2m1 0h2m2 0h4m2 0h2m3 0h1m2 0h1m2 0h5m1 0h1m2 0h1m2 0h2m1 0h1m1 0h5M5 44.5h1m3 0h2m1 0h1m2 0h1m1 0h2m5 0h4m1 0h4m3 0h1m1 0h2m2 0h3m1 0h1m1 0h3m1 0h2m2 0h3m1 0h2m6 0h2m1 0h1m1 0h2m3 0h4m4 0h3m1 0h4m3 0h7M7 45.5h3m1 0h3m1 0h1m3 0h2m2 0h1m1 0h2m4 0h1m2 0h1m1 0h2m2 0h1m1 0h3m1 0h1m2 0h2m3 0h1m2 0h1m2 0h2m1 0h11m1 0h2m1 0h1m2 0h2m2 0h1m2 0h1m2 0h1m4 0h5m1 0h1M6 46.5h6m2 0h3m1 0h1m5 0h1m1 0h2m2 0h2m1 0h1m4 0h1m1 0h1m1 0h2m1 0h2m1 0h3m3 0h2m2 0h3m3 0h1m1 0h1m1 0h1m2 0h3m1 0h1m1 0h1m2 0h1m1 0h2m9 0h5m1 0h1m3 0h2M4 47.5h3m2 0h1m1 0h2m3 0h5m2 0h2m1 0h1m2 0h1m1 0h1m3 0h2m1 0h1m1 0h5m1 0h1m1 0h1m2 0h1m1 0h1m1 0h1m1 0h3m1 0h3m2 0h1m1 0h4m3 0h2m4 0h1m4 0h5m3 0h1m1 0h1m1 0h1m1 0h2m1 0h1M6 48.5h2m1 0h3m2 0h2m7 0h1m1 0h1m1 0h2m1 0h1m2 0h1m2 0h3m2 0h1m1 0h1m1 0h1m10 0h2m1 0h4m1 0h1m1 0h1m1 0h1m1 0h2m5 0h1m2 0h1m3 0h1m2 0h4m1 0h1m2 0h1m1 0h1m1 0h1m1 0h1M6 49.5h2m1 0h1m5 0h1m1 0h1m4 0h2m6 0h2m1 0h2m1 0h1m2 0h3m2 0h4m2 0h4m1 0h2m1 0h1m1 0h1m4 0h1m1 0h1m2 0h1m1 0h2m4 0h5m1 0h1m1 0h1m1 0h1m2 0h3m4 0h2m2 0h3M4 50.5h4m1 0h7m5 0h2m1 0h3m2 0h1m3 0h9m1 0h1m3 0h4m2 0h3m2 0h2m1 0h4m1 0h1m4 0h2m2 0h3m1 0h1m1 0h3m3 0h2m1 0h1m1 0h1m5 0h1M7 51.5h3m1 0h3m1 0h1m1 0h2m4 0h1m1 0h5m2 0h1m1 0h1m1 0h1m3 0h1m3 0h3m1 0h2m2 0h1m2 0h6m1 0h1m2 0h1m1 0h2m1 0h1m1 0h2m1 0h2m2 0h4m1 0h1m4 0h1m1 0h2m5 0h1m1 0h2m1 0h2M5 52.5h1m1 0h6m2 0h1m1 0h4m1 0h1m1 0h2m1 0h2m1 0h5m1 0h3m2 0h2m1 0h1m4 0h1m1 0h9m1 0h3m3 0h2m4 0h6m1 0h2m1 0h2m1 0h1m2 0h2m1 0h9m1 0h1M4 53.5h2m1 0h2m3 0h1m5 0h2m4 0h1m1 0h1m2 0h2m3 0h1m1 0h2m1 0h7m1 0h1m3 0h2m3 0h2m3 0h2m3 0h5m1 0h3m3 0h3m1 0h4m1 0h2m2 0h1m2 0h1m1 0h1m3 0h1m1 0h3M4 54.5h5m1 0h1m1 0h1m1 0h1m3 0h1m2 0h1m1 0h5m2 0h1m1 0h1m1 0h3m2 0h1m1 0h1m4 0h1m2 0h4m1 0h1m1 0h5m1 0h1m4 0h1m1 0h1m1 0h1m2 0h1m1 0h1m1 0h6m1 0h4m2 0h1m3 0h2m1 0h1m1 0h2m2 0h1M7 55.5h2m3 0h3m1 0h4m1 0h4m2 0h4m3 0h2m1 0h2m3 0h1m1 0h1m1 0h4m1 0h2m3 0h2m1 0h1m1 0h1m2 0h1m2 0h2m1 0h2m2 0h1m3 0h3m2 0h1m4 0h1m2 0h6m3 0h1M6 56.5h7m2 0h2m1 0h3m2 0h2m2 0h1m2 0h6m2 0h1m2 0h1m1 0h1m2 0h1m3 0h1m1 0h5m1 0h1m1 0h2m1 0h1m1 0h2m1 0h1m1 0h2m2 0h5m1 0h1m1 0h1m1 0h3m1 0h1m3 0h3m1 0h5M5 57.5h1m5 0h2m1 0h1m2 0h2m1 0h4m1 0h1m4 0h1m2 0h3m3 0h1m1 0h1m1 0h11m1 0h4m2 0h1m3 0h3m1 0h2m4 0h3m1 0h3m1 0h2m1 0h2m1 0h2m1 0h2m3 0h1m4 0h2M5 58.5h1m1 0h4m2 0h3m2 0h2m3 0h5m1 0h2m3 0h3m2 0h1m5 0h4m1 0h1m3 0h1m1 0h1m1 0h1m3 0h2m6 0h4m2 0h1m2 0h1m2 0h3m1 0h3m1 0h1m2 0h4m1 0h6M4 59.5h2m6 0h1m2 0h2m1 0h1m4 0h2m1 0h1m1 0h6m2 0h2m3 0h1m1 0h3m1 0h3m1 0h1m1 0h1m1 0h2m2 0h1m1 0h6m4 0h2m1 0h1m6 0h1m1 0h1m1 0h2m1 0h2m3 0h2m1 0h1m3 0h1m1 0h1M10 60.5h1m1 0h4m2 0h1m3 0h1m2 0h4m2 0h1m4 0h4m3 0h3m4 0h2m2 0h1m3 0h4m1 0h6m2 0h1m5 0h2m4 0h1m1 0h1m3 0h1m1 0h1m1 0h2m2 0h3m1 0h1m2 0h1M5 61.5h1m2 0h2m2 0h1m4 0h2m3 0h3m4 0h1m3 0h3m4 0h1m2 0h1m2 0h2m2 0h3m1 0h2m1 0h1m1 0h1m1 0h2m1 0h1m1 0h3m1 0h2m3 0h2m1 0h1m2 0h5m2 0h4m1 0h4m1 0h3m1 0h2M7 62.5h5m1 0h3m1 0h1m3 0h2m1 0h1m3 0h1m1 0h2m1 0h3m2 0h1m5 0h3m1 0h1m2 0h1m2 0h1m3 0h2m1 0h1m3 0h1m2 0h2m1 0h4m2 0h1m1 0h1m1 0h1m3 0h1m1 0h1m5 0h2m1 0h1m1 0h1m1 0h2M4 63.5h1m3 0h2m7 0h2m5 0h2m2 0h2m1 0h3m1 0h1m1 0h5m2 0h1m3 0h5m1 0h1m1 0h1m1 0h3m4 0h1m3 0h2m1 0h1m10 0h1m1 0h2m2 0h2m4 0h2m3 0h3M4 64.5h3m3 0h1m2 0h1m2 0h1m9 0h1m1 0h2m4 0h1m7 0h3m1 0h3m2 0h1m1 0h1m2 0h1m1 0h1m2 0h1m1 0h1m1 0h1m1 0h1m7 0h1m1 0h2m1 0h2m1 0h1m1 0h1m1 0h1m6 0h1m2 0h1m1 0h2m2 0h2M6 65.5h2m5 0h2m1 0h3m1 0h2m1 0h5m2 0h2m1 0h1m1 0h3m1 0h1m1 0h1m3 0h1m4 0h1m1 0h1m1 0h3m3 0h1m2 0h1m1 0h1m2 0h1m1 0h2m2 0h3m2 0h2m1 0h1m2 0h2m1 0h4m2 0h1m2 0h2m4 0h1M4 66.5h2m3 0h2m1 0h1m4 0h1m1 0h2m6 0h4m5 0h2m1 0h2m1 0h1m2 0h3m4 0h1m4 0h5m1 0h2m1 0h1m6 0h1m4 0h3m1 0h1m7 0h1m2 0h1m1 0h1m2 0h2m1 0h1M5 67.5h4m2 0h2m1 0h1m1 0h1m2 0h2m1 0h1m1 0h1m2 0h1m2 0h2m1 0h2m1 0h1m4 0h1m3 0h3m1 0h1m1 0h3m4 0h3m3 0h2m1 0h2m6 0h3m1 0h5m1 0h1m1 0h2m1 0h4m1 0h3m2 0h1m1 0h1m1 0h1M4 68.5h1m2 0h5m1 0h5m1 0h1m2 0h1m1 0h2m1 0h4m2 0h2m2 0h1m1 0h2m1 0h3m1 0h2m1 0h2m1 0h1m1 0h2m4 0h1m3 0h1m2 0h1m1 0h1m2 0h2m3 0h1m1 0h2m3 0h1m2 0h2m3 0h3m2 0h2m3 0h1M5 69.5h2m1 0h1m3 0h1m1 0h2m2 0h1m1 0h2m3 0h2m7 0h4m2 0h1m1 0h2m1 0h2m3 0h2m2 0h1m1 0h1m3 0h2m3 0h5m2 0h2m6 0h1m4 0h2m1 0h2m4 0h2m1 0h2m2 0h3M6 70.5h3m1 0h1m1 0h1m2 0h1m4 0h1m2 0h3m1 0h2m1 0h6m1 0h2m2 0h2m4 0h1m2 0h4m2 0h1m5 0h1m4 0h1m1 0h2m2 0h1m1 0h1m2 0h1m2 0h1m1 0h1m1 0h2m2 0h4m1 0h3m6 0h1M7 71.5h2m2 0h1m1 0h1m3 0h3m2 0h1m3 0h1m1 0h1m2 0h1m4 0h1m2 0h2m1 0h5m1 0h2m3 0h3m1 0h1m2 0h5m2 0h1m1 0h2m1 0h2m1 0h1m2 0h1m5 0h2m2 0h1m2 0h2m1 0h1m2 0h2m1 0h2m1 0h1M5 72.5h1m3 0h5m1 0h1m2 0h2m2 0h1m1 0h1m3 0h1m2 0h1m1 0h1m3 0h4m2 0h1m1 0h2m1 0h1m7 0h4m2 0h1m1 0h3m2 0h1m2 0h1m3 0h4m1 0h5m1 0h2m1 0h1m1 0h1m2 0h1m7 0h1M4 73.5h1m1 0h1m1 0h1m3 0h1m8 0h1m3 0h3m1 0h7m1 0h3m4 0h1m3 0h1m1 0h1m1 0h1m1 0h1m1 0h1m2 0h2m2 0h3m1 0h4m1 0h1m2 0h2m2 0h5m1 0h4m2 0h1m1 0h2m2 0h2m1 0h2m1 0h1M5 74.5h2m1 0h5m2 0h3m1 0h3m3 0h11m4 0h1m1 0h2m1 0h1m1 0h1m3 0h6m1 0h1m2 0h1m1 0h3m4 0h3m1 0h5m4 0h1m1 0h1m2 0h1m2 0h1m1 0h1m1 0h6m1 0h2M4 75.5h3m1 0h1m3 0h1m4 0h3m1 0h1m3 0h1m2 0h1m1 0h1m3 0h6m1 0h1m1 0h3m1 0h3m2 0h1m3 0h1m1 0h1m1 0h1m1 0h3m2 0h1m1 0h2m2 0h2m3 0h1m2 0h1m1 0h2m2 0h1m1 0h1m1 0h2m1 0h3m3 0h1m2 0h2M4 76.5h2m1 0h2m1 0h1m1 0h2m4 0h4m6 0h1m1 0h1m1 0h1m1 0h1m1 0h3m1 0h2m3 0h1m3 0h2m1 0h1m1 0h1m1 0h1m1 0h6m3 0h1m1 0h2m3 0h1m1 0h1m1 0h2m2 0h5m1 0h2m1 0h1m1 0h1m1 0h2m1 0h1m1 0h2m2 0h1M4 77.5h5m3 0h1m1 0h2m1 0h1m3 0h2m1 0h5m1 0h1m3 0h2m5 0h1m1 0h4m1 0h1m1 0h1m1 0h1m3 0h1m1 0h2m2 0h2m1 0h2m3 0h1m1 0h1m1 0h1m3 0h1m3 0h1m5 0h4m2 0h3m3 0h1m2 0h1M4 78.5h2m2 0h6m2 0h2m2 0h1m3 0h2m1 0h2m1 0h5m1 0h1m1 0h1m1 0h1m1 0h1m3 0h4m2 0h5m1 0h2m1 0h2m1 0h4m3 0h1m1 0h6m2 0h4m1 0h1m1 0h2m2 0h1m3 0h7M4 79.5h1m1 0h1m1 0h2m2 0h1m5 0h2m1 0h1m4 0h2m1 0h3m1 0h1m2 0h5m2 0h1m1 0h5m2 0h1m4 0h3m3 0h1m1 0h1m2 0h1m2 0h1m1 0h2m1 0h3m2 0h1m1 0h3m4 0h4m1 0h4m5 0h1M4 80.5h1m3 0h3m1 0h1m2 0h1m1 0h1m2 0h1m6 0h1m1 0h1m1 0h3m4 0h2m1 0h3m1 0h2m4 0h2m1 0h3m3 0h1m3 0h3m1 0h4m1 0h2m1 0h1m3 0h1m1 0h2m1 0h1m12 0h1m2 0h4M4 81.5h1m1 0h3m2 0h3m2 0h3m4 0h1m1 0h1m2 0h3m1 0h1m1 0h1m2 0h1m1 0h2m4 0h1m2 0h7m1 0h2m1 0h1m1 0h1m1 0h3m1 0h1m1 0h1m1 0h1m1 0h3m1 0h1m3 0h2m1 0h3m1 0h1m3 0h5m2 0h2m2 0h2M4 82.5h1m2 0h2m1 0h1m2 0h2m1 0h4m3 0h3m2 0h1m1 0h2m1 0h1m1 0h6m1 0h2m1 0h2m3 0h1m1 0h2m1 0h2m2 0h1m1 0h2m1 0h2m5 0h1m4 0h1m1 0h1m3 0h2m1 0h2m4 0h4m1 0h1m1 0h6M5 83.5h1m1 0h3m3 0h2m1 0h1m2 0h3m1 0h1m2 0h2m2 0h1m3 0h1m3 0h1m1 0h7m1 0h3m1 0h3m1 0h1m1 0h1m4 0h1m1 0h1m3 0h2m2 0h2m1 0h1m1 0h1m2 0h2m3 0h2m4 0h1m2 0h1m1 0h1m1 0h1M4 84.5h4m2 0h1m1 0h1m1 0h4m2 0h2m1 0h3m2 0h1m2 0h1m1 0h1m5 0h5m1 0h1m2 0h2m1 0h1m3 0h1m2 0h2m1 0h1m1 0h6m3 0h2m4 0h1m1 0h1m1 0h1m1 0h1m2 0h1m1 0h2m6 0h3m1 0h3M5 85.5h4m2 0h1m1 0h2m1 0h2m4 0h1m3 0h1m4 0h3m2 0h1m3 0h3m2 0h2m1 0h1m7 0h1m2 0h3m3 0h4m3 0h1m4 0h1m2 0h1m1 0h3m3 0h1m1 0h1m1 0h1m1 0h1m1 0h1m3 0h1m1 0h1m1 0h1M5 86.5h2m2 0h2m4 0h2m1 0h3m2 0h3m4 0h1m1 0h4m2 0h1m1 0h3m2 0h1m1 0h1m2 0h1m2 0h1m1 0h1m2 0h2m3 0h1m3 0h1m1 0h1m1 0h1m2 0h1m1 0h1m3 0h1m5 0h1m1 0h1m4 0h6m1 0h1m1 0h1M4 87.5h1m2 0h3m2 0h1m6 0h2m1 0h4m3 0h2m3 0h4m4 0h1m2 0h1m1 0h2m2 0h1m5 0h1m2 0h1m1 0h2m1 0h2m2 0h1m1 0h1m1 0h1m2 0h2m4 0h1m2 0h9m1 0h2m1 0h1m2 0h2m1 0h1M7 88.5h5m2 0h1m3 0h1m1 0h2m1 0h1m3 0h3m2 0h1m1 0h1m1 0h2m4 0h1m2 0h1m1 0h2m2 0h4m2 0h1m1 0h1m1 0h1m2 0h1m1 0h2m4 0h1m2 0h1m7 0h1m2 0h2m2 0h2m1 0h1m1 0h1m2 0h1m2 0h2m1 0h1M4 89.5h1m1 0h2m3 0h3m1 0h3m2 0h1m2 0h2m1 0h4m2 0h3m1 0h3m4 0h8m1 0h6m1 0h1m4 0h1m3 0h3m2 0h8m5 0h5m1 0h1m1 0h1m3 0h1m1 0h1m1 0h3M4 90.5h2m1 0h7m1 0h2m1 0h2m1 0h1m3 0h2m1 0h1m1 0h3m2 0h5m1 0h1m1 0h1m1 0h3m1 0h1m3 0h1m4 0h5m1 0h3m3 0h1m6 0h2m1 0h2m1 0h2m5 0h1m3 0h3m1 0h1m4 0h2M5 91.5h1m1 0h3m1 0h3m6 0h2m2 0h2m6 0h2m1 0h2m2 0h1m1 0h2m3 0h1m1 0h2m1 0h1m1 0h1m2 0h1m8 0h1m2 0h5m1 0h2m1 0h5m1 0h1m1 0h3m3 0h4m3 0h1m2 0h1m2 0h1M4 92.5h1m2 0h1m1 0h4m1 0h6m1 0h5m2 0h1m1 0h1m2 0h1m2 0h1m3 0h2m1 0h1m1 0h1m1 0h2m4 0h1m1 0h1m3 0h2m3 0h4m1 0h2m2 0h1m2 0h2m1 0h1m1 0h3m2 0h2m1 0h1m1 0h1m3 0h3m1 0h1m1 0h2m1 0h1M4 93.5h1m6 0h4m1 0h1m2 0h2m1 0h2m1 0h1m1 0h3m1 0h1m3 0h3m4 0h1m5 0h2m1 0h3m1 0h1m1 0h2m1 0h1m1 0h3m4 0h3m3 0h1m11 0h7m1 0h1m2 0h3m1 0h3M4 94.5h1m2 0h2m1 0h2m4 0h4m1 0h1m1 0h3m1 0h1m1 0h1m1 0h1m1 0h1m2 0h3m2 0h1m3 0h1m1 0h1m2 0h1m2 0h2m2 0h2m1 0h1m1 0h1m3 0h1m1 0h2m4 0h2m5 0h1m1 0h1m3 0h2m2 0h1m1 0h1m3 0h1m2 0h1m1 0h1m1 0h1M4 95.5h1m1 0h2m1 0h1m1 0h2m1 0h1m3 0h2m7 0h1m1 0h2m2 0h4m1 0h3m2 0h4m1 0h2m2 0h4m2 0h1m1 0h2m4 0h3m1 0h2m2 0h3m3 0h1m2 0h4m1 0h1m5 0h5m1 0h1m2 0h2M8 96.5h1m1 0h2m3 0h1m2 0h2m6 0h1m2 0h7m2 0h2m1 0h1m2 0h3m1 0h2m2 0h5m1 0h2m1 0h4m3 0h1m2 0h9m1 0h7m2 0h5m1 0h7M12 97.5h1m1 0h1m2 0h2m1 0h5m2 0h1m2 0h1m3 0h2m3 0h2m1 0h1m1 0h1m1 0h1m1 0h1m1 0h1m1 0h1m3 0h3m2 0h2m4 0h1m5 0h2m3 0h1m1 0h2m2 0h1m7 0h3m1 0h1m3 0h4M4 98.5h7m1 0h1m5 0h5m5 0h1m1 0h1m1 0h1m1 0h1m1 0h7m1 0h1m1 0h2m4 0h1m1 0h1m1 0h7m1 0h1m1 0h6m2 0h1m1 0h1m1 0h3m2 0h1m1 0h1m2 0h2m1 0h1m2 0h3m1 0h1m1 0h2m2 0h1M4 99.5h1m5 0h1m2 0h3m1 0h14m3 0h1m3 0h1m1 0h2m1 0h1m1 0h4m2 0h2m3 0h2m5 0h1m1 0h1m1 0h4m1 0h3m3 0h1m1 0h1m5 0h1m3 0h3m1 0h1m1 0h1m3 0h4M4 100.5h1m1 0h3m1 0h1m1 0h1m2 0h2m6 0h1m1 0h1m2 0h1m1 0h9m5 0h3m5 0h5m1 0h2m4 0h1m2 0h1m1 0h1m1 0h2m1 0h6m3 0h1m5 0h1m1 0h1m4 0h6M4 101.5h1m1 0h3m1 0h1m1 0h1m2 0h3m1 0h1m1 0h1m1 0h1m1 0h3m1 0h3m1 0h1m1 0h2m3 0h3m2 0h2m2 0h1m2 0h5m1 0h1m1 0h2m2 0h2m4 0h2m1 0h2m2 0h1m2 0h1m1 0h2m1 0h2m3 0h2m3 0h1m1 0h1m4 0h2M4 102.5h1m1 0h3m1 0h1m1 0h1m1 0h2m1 0h1m1 0h2m2 0h1m1 0h3m3 0h1m2 0h3m2 0h2m2 0h1m2 0h1m1 0h2m4 0h1m1 0h2m2 0h2m2 0h1m1 0h1m4 0h1m1 0h2m4 0h1m4 0h4m2 0h2m4 0h1m1 0h1m2 0h3M4 103.5h1m5 0h1m1 0h1m3 0h1m1 0h1m3 0h4m1 0h1m1 0h3m1 0h5m2 0h3m3 0h3m1 0h4m1 0h4m1 0h1m2 0h1m1 0h2m2 0h4m1 0h1m3 0h2m1 0h2m1 0h3m2 0h1m1 0h2m2 0h4m2 0h1m1 0h1M4 104.5h7m1 0h1m1 0h3m2 0h2m1 0h1m3 0h6m1 0h1m2 0h1m3 0h2m2 0h1m2 0h2m1 0h1m1 0h3m3 0h1m2 0h3m1 0h1m2 0h1m1 0h1m1 0h2m1 0h3m3 0h1m2 0h1m4 0h2m1 0h1m1 0h5m1 0h2"/></svg>
