<svg xmlns="http://www.w3.org/2000/svg" viewBox="0 0 109 109" shape-rendering="crispEdges"><path fill="#ffffff" d="M0 0h109v109H0z"/><path stroke="#000000" d="M4 4.5h7m1 0h2m1 0h3m1 0h2m1 0h1m1 0h1m2 0h10m1 0h1m3 0h2m5 0h1m1 0h1m2 0h1m1 0h3m2 0h1m1 0h4m2 0h1m2 0h7m1 0h5m1 0h3m1 0h6m2 0h7M4 5.5h1m5 0h1m1 0h1m1 0h1m1 0h1m1 0h5m2 0h1m4 0h2m2 0h1m2 0h2m3 0h1m1 0h1m1 0h2m1 0h3m2 0h2m8 0h2m1 0h1m1 0h2m1 0h5m1 0h5m2 0h1m1 0h1m2 0h2m1 0h1m4 0h1m5 0h1M4 6.5h1m1 0h3m1 0h1m2 0h1m2 0h2m1 0h1m1 0h1m1 0h3m1 0h2m2 0h2m1 0h2m1 0h1m1 0h3m1 0h2m2 0h1m1 0h1m1 0h1m1 0h2m2 0h3m2 0h1m1 0h2m1 0h1m3 0h1m5 0h4m1 0h7m1 0h2m3 0h1m2 0h1m1 0h3m1 0h1M4 7.5h1m1 0h3m1 0h1m3 0h2m1 0h1m1 0h1m1 0h1m1 0h2m1 0h3m6 0h1m3 0h1m3 0h1m3 0h3m2 0h1m2 0h2m1 0h3m1 0h1m1 0h1m1 0h4m5 0h1m1 0h1m1 0h1m2 0h2m1 0h1m1 0h1m2 0h2m2 0h2m2 0h1m1 0h3m1 0h1M4 8.5h1m1 0h3m1 0h1m1 0h2m1 0h1m1 0h1m2 0h1m1 0h2m2 0h2m2 0h6m1 0h1m1 0h1m1 0h1m1 0h2m1 0h1m1 0h1m1 0h1m1 0h5m1 0h1m5 0h3m2 0h4m1 0h7m3 0h1m2 0h1m2 0h2m2 0h1m1 0h1m1 0h1m1 0h3m1 0h1M4 9.5h1m5 0h1m1 0h2m3 0h1m1 0h1m1 0h2m1 0h1m1 0h5m3 0h2m6 0h2m3 0h3m1 0h2m3 0h1m1 0h2m1 0h1m1 0h1m4 0h1m2 0h1m1 0h2m3 0h2m2 0h2m2 0h1m1 0h2m3 0h1m1 0h1m2 0h1m5 0h1M4 10.5h7m1 0h1m1 0h1m1 0h1m1 0h1m1 0h1m1 0h1m1 0h1m1 0h1m1 0h1m1 0h1m1 0h1m1 0h1m1 0h1m1 0h1m1 0h1m1 0h1m1 0h1m1 0h1m1 0h1m1 0h1m1 0h1m1 0h1m1 0h1m1 0h1m1 0h1m1 0h1m1 0h1m1 0h1m1 0h1m1 0h1m1 0h1m1 0h1m1 0h1m1 0h1m1 0h1m1 0h1m1 0h1m1 0h1m1 0h1m1 0h1m1 0h1m1 0h1m1 0h1m1 0h7M12 11.5h5m7 0h2m2 0h1m1 0h1m3 0h1m2 0h3m1 0h2m1 0h1m1 0h1m1 0h5m3 0h1m1 0h1m1 0h2m1 0h2m1 0h1m2 0h1m4 0h1m3 0h3m1 0h2m1 0h2m1 0h4m1 0h2m1 0h1M4 12.5h3m2 0h2m1 0h1m1 0h2m2 0h1m1 0h1m5 0h2m2 0h5m1 0h2m1 0h1m1 0h1m1 0h1m1 0h1m1 0h2m3 0h5m1 0h4m1 0h5m3 0h1m2 0h5m1 0h2m2 0h1m2 0h1m2 0h4m2 0h5m2 0h2M4 13.5h4m10 0h1m1 0h1m1 0h2m2 0h2m2 0h2m4 0h1m1 0h1m2 0h1m2 0h4m1 0h1m1 0h1m2 0h1m1 0h1m2 0h1m1 0h2m2 0h1m2 0h2m5 0h1m2 0h1m2 0h1m3 0h1m5 0h1m4 0h1m3 0h1M4 14.5h1m5 0h1m1 0h1m2 0h1m1 0h2m2 0h3m1 0h2m1 0h1m1 0h1m1 0h6m1 0h1m3 0h3m1 0h3m1 0h1m2 0h1m1 0h1m2 0h1m1 0h2m1 0h4m2 0h2m2 0h2m1 0h2m2 0h3m3 0h1m2 0h2m1 0h4m4 0h2M4 15.5h3m2 0h1m1 0h3m2 0h2m3 0h4m1 0h1m1 0h1m3 0h1m2 0h1m4 0h5m1 0h1m3 0h2m1 0h1m1 0h2m1 0h2m1 0h5m1 0h3m2 0h2m1 0h3m1 0h1m5 0h1m1 0h1m1 0h1m3 0h1m10 0h1M4 16.5h4m1 0h2m1 0h1m3 0h1m1 0h1m1 0h1m1 0h2m2 0h5m3 0h4m2 0h1m1 0h3m2 0h2m1 0h1m2 0h1m1 0h1m1 0h3m2 0h2m2 0h8m2 0h9m1 0h4m2 0h1m3 0h2m1 0h2m1 0h2M7 17.5h3m1 0h1m2 0h2m1 0h1m1 0h1m1 0h2m2 0h1m2 0h1m1 0h1m2 0h2m1 0h3m1 0h2m1 0h1m2 0h1m2 0h1m2 0h1m6 0h4m2 0h3m3 0h1m1 0h2m1 0h3m1 0h2m1 0h1m1 0h1m2 0h1m1 0h5m2 0h3m3 0h2M4 18.5h3m2 0h5m3 0h2m2 0h1m1 0h2m3 0h1m3 0h3m1 0h2m2 0h2m3 0h4m1 0h2m1 0h3m1 0h1m2 0h1m1 0h1m2 0h1m2 0h1m3 0h2m2 0h2m2 0h3m1 0h3m1 0h1m1 0h3m3 0h3m1 0h1m3 0h1M11 19.5h1m3 0h1m3 0h3m1 0h1m1 0h1m4 0h1m2 0h3m1 0h2m5 0h3m2 0h1m1 0h1m5 0h2m2 0h1m2 0h2m2 0h4m2 0h1m1 0h1m2 0h2m1 0h4m1 0h1m2 0h1m1 0h1m1 0h1m1 0h1m2 0h3m1 0h1M4 20.5h1m1 0h2m1 0h2m1 0h2m1 0h1m6 0h3m3 0h1m2 0h1m7 0h1m3 0h1m2 0h1m2 0h2m1 0h1m3 0h4m1 0h7m1 0h2m1 0h4m1 0h3m1 0h1m3 0h1m4 0h3m4 0h1m2 0h2m2 0h1M4 21.5h5m2 0h1m2 0h1m3 0h4m4 0h1m4 0h1m3 0h1m2 0h1m1 0h3m1 0h3m1 0h1m1 0h1m1 0h1m1 0h1m1 0h1m1 0h2m3 0h1m3 0h1m1 0h1m2 0h5m1 0h1m2 0h1m1 0h1m2 0h1m3 0h2m7 0h1m1 0h1m1 0h2M4 22.5h1m2 0h1m2 0h1m2 0h5m2 0h5m3 0h1m1 0h1m1 0h1m1 0h1m2 0h5m3 0h1m2 0h1m2 0h1m1 0h1m2 0h1m1 0h1m5 0h1m2 0h1m1 0h1m1 0h2m2 0h1m1 0h1m2 0h1m1 0h1m1 0h2m2 0h1m1 0h4m1 0h4m1 0h2M7 23.5h1m3 0h2m6 0h3m1 0h1m3 0h1m2 0h1m6 0h3m1 0h2m8 0h1m1 0h1m2 0h1m3 0h1m1 0h1m1 0h3m1 0h3m1 0h1m2 0h1m2 0h1m2 0h1m2 0h5m2 0h2m5 0h4m2 0h1M4 24.5h4m2 0h1m1 0h1m1 0h1m5 0h3m1 0h1m1 0h2m1 0h1m1 0h3m2 0h1m1 0h1m2 0h2m1 0h2m2 0h2m4 0h2m1 0h2m1 0h1m3 0h1m1 0h2m2 0h1m1 0h3m2 0h4m3 0h1m3 0h1m2 0h2m1 0h1m2 0h3m1 0h1m2 0h1M5 25.5h2m1 0h1m2 0h1m2 0h1m1 0h1m2 0h1m3 0h2m4 0h3m2 0h2m2 0h5m1 0h1m2 0h1m2 0h1m3 0h2m1 0h1m2 0h3m2 0h4m1 0h2m1 0h1m3 0h2m1 0h2m2 0h1m2 0h1m1 0h1m5 0h1m4 0h1m1 0h3M4 26.5h1m3 0h1m1 0h2m3 0h3m2 0h4m3 0h2m1 0h1m1 0h2m1 0h1m1 0h1m1 0h1m2 0h4m2 0h1m1 0h1m1 0h2m3 0h2m1 0h2m2 0h2m1 0h2m1 0h4m1 0h2m1 0h4m2 0h1m1 0h3m1 0h2m2 0h3m2 0h2m1 0h2M4 27.5h1m1 0h2m3 0h1m1 0h4m2 0h1m5 0h1m1 0h1m2 0h1m5 0h3m1 0h4m1 0h5m1 0h1m1 0h1m1 0h3m3 0h2m1 0h2m1 0h1m1 0h2m2 0h3m1 0h3m1 0h2m1 0h1m1 0h1m3 0h2m1 0h3m2 0h2m1 0h2M4 28.5h2m4 0h7m6 0h2m1 0h3m3 0h2m1 0h2m1 0h4m3 0h1m3 0h2m2 0h1m2 0h3m1 0h3m1 0h1m2 0h3m1 0h1m1 0h6m1 0h3m1 0h3m5 0h1m1 0h1m1 0h2m1 0h1m1 0h2M6 29.5h1m1 0h1m5 0h1m1 0h3m1 0h3m1 0h1m15 0h1m1 0h1m4 0h2m1 0h1m1 0h2m1 0h1m1 0h1m2 0h1m1 0h1m3 0h4m6 0h3m1 0h5m2 0h1m1 0h2m1 0h2m1 0h1m1 0h1m1 0h1m3 0h2M4 30.5h1m1 0h1m1 0h6m1 0h4m1 0h2m3 0h3m1 0h8m2 0h1m5 0h1m1 0h1m4 0h5m1 0h2m2 0h3m1 0h1m2 0h1m2 0h1m1 0h7m6 0h3m2 0h2m2 0h8M5 31.5h2m1 0h1m3 0h2m5 0h1m2 0h9m3 0h2m1 0h3m1 0h2m3 0h1m1 0h2m2 0h1m3 0h2m1 0h1m2 0h1m4 0h2m1 0h1m3 0h1m3 0h1m3 0h2m1 0h1m1 0h2m1 0h1m3 0h3m3 0h4M4 32.5h1m2 0h2m1 0h1m1 0h3m1 0h2m2 0h1m1 0h1m2 0h2m3 0h1m1 0h1m1 0h1m1 0h1m1 0h2m3 0h2m5 0h3m1 0h1m1 0h2m2 0h3m1 0h2m3 0h1m1 0h2m1 0h1m1 0h1m1 0h2m1 0h1m2 0h2m3 0h1m1 0h1m4 0h1m1 0h1m1 0h1m2 0h1M4 33.5h1m2 0h2m3 0h3m2 0h3m1 0h1m1 0h1m1 0h2m1 0h1m1 0h1m3 0h1m1 0h1m1 0h1m1 0h1m3 0h2m1 0h6m3 0h1m1 0h2m2 0h1m1 0h1m3 0h1m2 0h1m1 0h2m3 0h2m2 0h2m1 0h1m2 0h1m1 0h1m2 0h1m2 0h1m3 0h5M8 34.5h7m1 0h3m1 0h8m1 0h6m1 0h2m1 0h7m1 0h1m3 0h8m3 0h2m4 0h1m2 0h2m1 0h5m1 0h2m1 0h1m2 0h3m1 0h3m3 0h9M5 35.5h2m1 0h2m2 0h2m1 0h5m3 0h1m2 0h1m2 0h3m1 0h1m4 0h1m1 0h1m1 0h4m1 0h1m3 0h3m1 0h1m1 0h3m2 0h1m4 0h5m1 0h5m2 0h2m2 0h1m1 0h4m1 0h1m7 0h4M4 36.5h1m5 0h1m3 0h3m1 0h2m2 0h1m2 0h7m2 0h6m3 0h2m1 0h2m1 0h1m4 0h1m2 0h1m1 0h1m1 0h2m3 0h3m3 0h1m2 0h3m1 0h3m1 0h3m2 0h3m1 0h1m1 0h1m2 0h4m1 0h2M4 37.5h1m1 0h3m3 0h1m4 0h3m2 0h3m1 0h5m3 0h1m1 0h2m4 0h1m1 0h1m1 0h1m1 0h1m2 0h2m4 0h2m2 0h1m2 0h1m2 0h3m2 0h1m3 0h2m2 0h3m3 0h1m4 0h3m1 0h2m2 0h6M5 38.5h2m1 0h3m1 0h1m2 0h1m4 0h3m1 0h2m2 0h2m1 0h3m1 0h1m1 0h2m1 0h2m2 0h1m1 0h3m2 0h6m2 0h2m3 0h1m1 0h1m1 0h2m1 0h1m1 0h1m4 0h1m2 0h1m2 0h2m3 0h1m1 0h2m5 0h2m1 0h1m2 0h1M4 39.5h2m2 0h2m1 0h2m3 0h2m2 0h1m2 0h1m1 0h1m2 0h2m1 0h1m3 0h1m1 0h1m2 0h1m3 0h3m2 0h1m2 0h2m5 0h1m1 0h1m1 0h1m1 0h2m1 0h2m2 0h4m4 0h2m2 0h1m1 0h1m4 0h1m1 0h1m4 0h1m2 0h3M7 40.5h2m1 0h4m4 0h1m2 0h1m1 0h1m1 0h1m2 0h1m1 0h1m1 0h1m3 0h2m2 0h1m4 0h5m1 0h2m2 0h1m2 0h3m1 0h1m1 0h1m1 0h1m2 0h1m2 0h2m6 0h1m1 0h1m2 0h1m3 0h1m1 0h2m1 0h4m1 0h1m2 0h2M5 41.5h2m4 0h4m2 0h2m1 0h1m3 0h2m1 0h1m3 0h1m1 0h1m1 0h7m1 0h2m10 0h5m2 0h2m1 0h1m3 0h1m1 0h1m1 0h1m1 0h1m2 0h1m1 0h2m4 0h4m2 0h1m2 0h3m2 0h1m3 0h1M4 42.5h3m1 0h1m1 0h1m1 0h1m2 0h1m3 0h2m1 0h2m2 0h1m2 0h1m1 0h2m1 0h1m3 0h1m2 0h2m2 0h1m1 0h3m1 0h1m1 0h1m1 0h1m1 0h3m1 0h1m2 0h2m1 0h1m2 0h7m1 0h1m1 0h2m1 0h2m1 0h2m1 0h6m3 0h1m1 0h3M4 43.5h1m1 0h1m2 0h1m3 0h1m1 0h2m4 0h3m4 0h5m1 0h4m5 0h1m1 0h3m2 0h1m5 0h3m4 0h2m1 0h1m2 0h1m1 0h2m3 0h1m1 0h4m2 0h3m1 0h2m1 0h2m2 0h3m2 0h1m1 0h2M4 44.5h3m2 0h5m9 0h1m7 0h2m1 0h1m2 0h2m1 0h2m1 0h1m1 0h1m4 0h1m5 0h2m1 0h1m10 0h1m1 0h2m1 0h6m1 0h3m1 0h5m2 0h1m2 0h1m3 0h1m2 0h2M4 45.5h1m2 0h3m2 0h3m2 0h1m1 0h1m5 0h2m2 0h1m1 0h2m3 0h1m1 0h1m1 0h3m3 0h3m1 0h2m2 0h2m1 0h1m1 0h8m1 0h1m1 0h3m3 0h1m2 0h1m3 0h4m1 0h1m3 0h1m1 0h2m2 0h1m1 0h2m1 0h1M4 46.5h1m1 0h2m2 0h2m4 0h3m1 0h1m1 0h1m2 0h2m1 0h3m1 0h4m2 0h7m1 0h1m4 0h1m1 0h1m1 0h2m1 0h1m2 0h1m5 0h5m1 0h1m1 0h1m1 0h2m2 0h1m1 0h1m1 0h3m1 0h2m2 0h2m1 0h1m1 0h1m3 0h2M4 47.5h4m4 0h1m2 0h3m1 0h4m1 0h2m3 0h2m2 0h5m1 0h2m3 0h1m1 0h1m1 0h1m2 0h3m3 0h3m2 0h1m1 0h2m1 0h1m3 0h1m2 0h1m1 0h1m1 0h2m1 0h1m2 0h2m1 0h1m2 0h1m1 0h1m2 0h2m1 0h1m4 0h1M5 48.5h1m2 0h3m3 0h2m1 0h2m1 0h1m1 0h3m1 0h5m2 0h1m1 0h1m3 0h3m1 0h1m1 0h1m1 0h1m1 0h1m7 0h1m4 0h1m3 0h3m4 0h4m1 0h6m2 0h2m3 0h1m3 0h1m1 0h1m3 0h4M4 49.5h2m2 0h2m4 0h1m3 0h1m4 0h1m1 0h2m3 0h1m1 0h3m1 0h1m4 0h1m1 0h1m1 0h1m1 0h3m2 0h1m1 0h1m2 0h1m1 0h1m2 0h2m3 0h1m2 0h1m2 0h1m1 0h3m1 0h1m1 0h2m1 0h1m2 0h2m2 0h2m2 0h1m2 0h3m1 0h3M4 50.5h1m5 0h2m1 0h1m3 0h3m2 0h4m1 0h2m2 0h3m2 0h2m2 0h1m1 0h4m1 0h2m1 0h2m2 0h1m1 0h1m1 0h1m2 0h10m2 0h1m6 0h5m3 0h1m1 0h2m1 0h1m1 0h2m2 0h1m1 0h2M4 51.5h2m1 0h2m2 0h1m2 0h2m1 0h4m1 0h2m2 0h3m2 0h4m1 0h1m2 0h2m1 0h6m2 0h3m5 0h1m2 0h1m1 0h3m1 0h1m1 0h1m1 0h2m1 0h3m3 0h1m2 0h2m1 0h2m1 0h1m6 0h3m1 0h2m2 0h1M4 52.5h2m1 0h7m1 0h1m1 0h2m2 0h1m3 0h3m1 0h6m4 0h3m1 0h3m1 0h3m2 0h5m5 0h2m1 0h1m2 0h1m1 0h3m1 0h5m1 0h4m2 0h3m2 0h1m1 0h9m1 0h1M4 53.5h2m2 0h1m3 0h2m1 0h3m1 0h1m1 0h3m1 0h1m1 0h2m1 0h1m3 0h1m3 0h1m2 0h2m1 0h1m1 0h1m1 0h2m2 0h1m3 0h2m2 0h4m1 0h1m1 0h3m2 0h3m3 0h1m5 0h2m1 0h1m3 0h1m1 0h1m1 0h2m3 0h5M4 54.5h5m1 0h1m1 0h2m1 0h2m3 0h7m2 0h2m1 0h1m1 0h1m1 0h4m1 0h1m1 0h1m1 0h2m5 0h1m1 0h1m1 0h2m3 0h1m1 0h1m2 0h2m2 0h2m1 0h2m1 0h1m1 0h1m1 0h5m1 0h2m2 0h1m1 0h3m1 0h1m1 0h1m1 0h2m1 0h2M4 55.5h1m2 0h2m3 0h2m1 0h2m2 0h3m1 0h3m2 0h1m1 0h1m3 0h1m1 0h3m3 0h2m1 0h1m1 0h1m1 0h1m2 0h1m3 0h2m1 0h1m7 0h1m1 0h6m3 0h2m6 0h1m1 0h1m2 0h1m1 0h4m3 0h1m1 0h1m1 0h1M5 56.5h1m2 0h5m1 0h1m2 0h4m1 0h6m2 0h5m1 0h1m3 0h2m1 0h3m1 0h1m4 0h5m1 0h1m1 0h2m6 0h1m1 0h1m3 0h5m1 0h1m1 0h1m1 0h2m1 0h1m1 0h2m1 0h3m1 0h9M4 57.5h2m3 0h1m2 0h1m3 0h1m1 0h1m1 0h4m4 0h1m8 0h3m1 0h2m8 0h3m6 0h4m1 0h4m1 0h1m1 0h1m3 0h2m1 0h1m1 0h2m1 0h1m2 0h3m2 0h1m3 0h1m6 0h1M7 58.5h2m1 0h1m3 0h2m4 0h1m1 0h1m3 0h3m1 0h1m3 0h2m1 0h5m1 0h1m2 0h1m1 0h1m2 0h1m2 0h4m2 0h1m2 0h2m1 0h15m6 0h1m3 0h1m4 0h1m2 0h1m2 0h1M6 59.5h1m2 0h1m3 0h1m5 0h3m1 0h3m1 0h1m1 0h3m3 0h1m2 0h2m4 0h4m2 0h1m1 0h2m1 0h1m1 0h1m3 0h2m1 0h2m4 0h2m3 0h2m1 0h1m2 0h1m3 0h2m5 0h1m1 0h1m1 0h1m3 0h4M4 60.5h2m1 0h4m3 0h2m2 0h2m5 0h2m1 0h3m1 0h2m1 0h1m1 0h4m2 0h1m2 0h3m3 0h1m1 0h1m1 0h3m1 0h6m2 0h1m1 0h8m3 0h4m1 0h1m4 0h2m1 0h3m2 0h5M7 61.5h3m1 0h1m2 0h1m2 0h4m2 0h1m1 0h3m5 0h1m2 0h3m1 0h1m2 0h4m6 0h1m1 0h1m2 0h2m2 0h1m2 0h3m2 0h2m1 0h1m1 0h3m2 0h1m2 0h2m1 0h1m3 0h3m1 0h4m5 0h2M5 62.5h4m1 0h2m1 0h1m2 0h1m1 0h2m2 0h3m1 0h2m2 0h7m2 0h3m3 0h1m2 0h2m1 0h4m2 0h1m2 0h2m1 0h1m4 0h1m2 0h1m2 0h6m1 0h2m2 0h1m3 0h1m1 0h7m1 0h1m3 0h2M4 63.5h3m1 0h1m6 0h1m2 0h4m4 0h1m1 0h1m3 0h1m1 0h3m1 0h2m2 0h2m1 0h2m3 0h2m2 0h1m1 0h4m4 0h1m4 0h1m2 0h1m3 0h2m2 0h1m4 0h1m1 0h4m1 0h2m2 0h2m4 0h1m1 0h1M5 64.5h3m1 0h3m1 0h3m1 0h2m4 0h1m3 0h2m1 0h1m4 0h1m1 0h1m1 0h1m4 0h1m2 0h1m2 0h1m3 0h1m1 0h2m4 0h1m4 0h2m5 0h1m2 0h1m1 0h3m2 0h3m1 0h2m1 0h1m9 0h2M4 65.5h1m1 0h3m2 0h1m1 0h1m2 0h1m2 0h4m2 0h1m2 0h2m1 0h1m1 0h1m2 0h3m2 0h1m1 0h1m1 0h1m1 0h1m2 0h1m4 0h4m2 0h2m1 0h1m1 0h1m2 0h1m1 0h3m7 0h2m1 0h1m1 0h2m2 0h1m1 0h3m1 0h1m2 0h2m3 0h1M4 66.5h2m1 0h1m2 0h1m1 0h1m1 0h1m1 0h2m1 0h2m7 0h1m4 0h1m3 0h1m3 0h1m1 0h6m4 0h3m1 0h3m1 0h1m2 0h2m6 0h1m1 0h1m2 0h1m2 0h3m1 0h2m3 0h1m3 0h2m1 0h2m1 0h1m2 0h1m1 0h1M4 67.5h1m1 0h2m1 0h1m1 0h3m1 0h1m1 0h1m2 0h4m6 0h1m3 0h1m3 0h1m3 0h4m3 0h3m5 0h2m2 0h1m2 0h1m3 0h2m1 0h1m2 0h1m1 0h1m1 0h2m5 0h1m2 0h2m2 0h4m5 0h1m1 0h1M4 68.5h2m2 0h1m1 0h1m1 0h2m2 0h1m1 0h1m3 0h2m1 0h4m2 0h2m1 0h3m2 0h1m1 0h1m1 0h3m2 0h1m1 0h1m1 0h3m2 0h1m2 0h5m2 0h3m1 0h1m5 0h3m2 0h3m2 0h3m5 0h1m3 0h3M4 69.5h6m3 0h3m7 0h3m1 0h1m2 0h3m1 0h2m3 0h1m1 0h2m4 0h2m4 0h3m2 0h1m8 0h1m4 0h1m4 0h4m4 0h1m1 0h5m2 0h2m6 0h1M6 70.5h1m1 0h1m1 0h1m1 0h2m1 0h1m3 0h3m1 0h1m1 0h1m3 0h1m1 0h1m2 0h1m2 0h1m1 0h4m1 0h1m2 0h2m2 0h4m2 0h1m2 0h1m1 0h3m3 0h2m4 0h1m1 0h1m1 0h10m1 0h4m1 0h1m1 0h6m1 0h2M4 71.5h3m1 0h1m2 0h2m1 0h1m2 0h1m1 0h5m1 0h1m5 0h2m1 0h2m3 0h2m1 0h1m2 0h1m3 0h1m2 0h2m2 0h3m1 0h3m1 0h1m1 0h2m1 0h1m5 0h2m2 0h1m1 0h2m7 0h1m2 0h2m1 0h2m1 0h1m2 0h1M6 72.5h2m2 0h1m4 0h1m2 0h1m2 0h1m1 0h1m2 0h1m1 0h1m5 0h2m1 0h2m1 0h2m3 0h1m3 0h5m1 0h3m10 0h2m1 0h7m1 0h3m1 0h3m2 0h3m2 0h1m2 0h1m1 0h1m1 0h2m1 0h2M4 73.5h1m2 0h1m3 0h1m1 0h1m1 0h5m4 0h1m1 0h1m3 0h2m1 0h3m5 0h1m2 0h1m3 0h1m4 0h1m1 0h1m5 0h1m4 0h2m1 0h2m1 0h2m1 0h1m2 0h1m1 0h2m1 0h1m1 0h1m1 0h4m1 0h1m1 0h1m2 0h1m1 0h1m1 0h2m1 0h1M4 74.5h3m1 0h5m1 0h4m3 0h2m1 0h1m3 0h8m3 0h1m8 0h1m1 0h8m1 0h1m1 0h1m1 0h6m4 0h6m1 0h2m3 0h1m1 0h2m5 0h1m1 0h5m1 0h1m1 0h1M5 75.5h1m1 0h2m3 0h1m3 0h3m3 0h1m2 0h1m1 0h2m1 0h1m3 0h4m1 0h1m1 0h2m1 0h1m2 0h2m3 0h1m3 0h1m1 0h5m4 0h3m1 0h2m1 0h1m3 0h1m1 0h2m1 0h1m1 0h2m5 0h1m2 0h2m3 0h5M4 76.5h2m1 0h2m1 0h1m1 0h2m3 0h2m1 0h1m1 0h1m3 0h3m1 0h1m1 0h1m1 0h1m1 0h1m1 0h1m1 0h2m5 0h2m2 0h2m1 0h1m1 0h2m1 0h1m1 0h2m1 0h2m4 0h3m1 0h1m1 0h1m1 0h4m1 0h2m1 0h4m2 0h3m1 0h1m1 0h1m1 0h1m1 0h1m1 0h1M6 77.5h3m3 0h1m2 0h1m2 0h1m1 0h1m1 0h2m1 0h2m3 0h1m3 0h1m1 0h2m3 0h2m1 0h1m1 0h1m5 0h1m3 0h1m1 0h6m2 0h1m3 0h1m3 0h1m3 0h1m1 0h1m1 0h2m2 0h1m3 0h1m2 0h1m1 0h2m3 0h1m1 0h2M8 78.5h7m1 0h3m1 0h1m2 0h2m4 0h7m1 0h5m2 0h1m1 0h1m2 0h1m2 0h5m4 0h1m1 0h3m1 0h3m2 0h1m1 0h5m1 0h4m2 0h1m1 0h1m1 0h2m3 0h7m1 0h1M5 79.5h2m1 0h2m7 0h1m1 0h3m3 0h1m1 0h1m3 0h2m3 0h2m1 0h5m4 0h1m3 0h1m1 0h1m1 0h3m6 0h3m3 0h3m2 0h1m3 0h2m4 0h2m4 0h6m1 0h1m2 0h1M4 80.5h1m2 0h2m1 0h1m2 0h1m3 0h2m4 0h2m2 0h3m2 0h1m1 0h2m1 0h2m3 0h1m3 0h1m3 0h1m2 0h1m1 0h1m1 0h2m1 0h1m1 0h1m1 0h1m3 0h2m3 0h2m3 0h1m1 0h1m1 0h1m5 0h2m1 0h3m4 0h2m2 0h2M6 81.5h1m1 0h1m2 0h3m2 0h1m1 0h1m3 0h1m1 0h4m1 0h1m1 0h1m3 0h2m1 0h2m11 0h1m1 0h3m5 0h1m3 0h2m3 0h1m1 0h3m1 0h1m1 0h2m1 0h1m1 0h3m6 0h2m3 0h1m2 0h1m2 0h2M6 82.5h1m1 0h1m1 0h1m2 0h3m2 0h1m1 0h3m1 0h3m1 0h1m3 0h4m1 0h3m1 0h4m2 0h2m2 0h2m3 0h1m1 0h2m2 0h5m1 0h1m1 0h3m5 0h1m2 0h1m2 0h2m4 0h2m4 0h3m5 0h1M4 83.5h5m2 0h1m1 0h1m1 0h1m5 0h2m2 0h1m3 0h3m4 0h2m2 0h2m2 0h1m3 0h4m4 0h2m1 0h3m3 0h3m2 0h2m1 0h1m2 0h1m3 0h1m1 0h1m2 0h2m1 0h1m1 0h1m1 0h1m1 0h1m2 0h4M4 84.5h1m2 0h1m2 0h1m2 0h1m6 0h2m6 0h1m3 0h3m3 0h8m1 0h2m3 0h1m1 0h1m5 0h5m4 0h4m3 0h1m3 0h2m5 0h1m6 0h1m1 0h5m3 0h1M4 85.5h2m6 0h1m7 0h2m1 0h2m1 0h1m4 0h1m1 0h3m2 0h1m1 0h1m5 0h1m7 0h2m1 0h7m1 0h1m1 0h1m2 0h1m1 0h3m1 0h4m1 0h1m1 0h3m5 0h2m1 0h6M5 86.5h2m1 0h1m1 0h2m2 0h2m1 0h8m2 0h1m1 0h2m2 0h2m3 0h1m1 0h2m2 0h2m4 0h3m2 0h2m1 0h4m3 0h1m2 0h2m1 0h1m3 0h2m1 0h1m2 0h2m2 0h2m4 0h1m1 0h1m1 0h1m1 0h4m2 0h2M5 87.5h2m1 0h1m2 0h2m1 0h1m2 0h4m3 0h1m2 0h1m1 0h1m1 0h3m2 0h1m1 0h2m5 0h2m4 0h2m4 0h3m4 0h2m1 0h1m2 0h1m1 0h4m3 0h1m4 0h4m1 0h1m1 0h1m2 0h1m3 0h1m1 0h3M4 88.5h4m1 0h3m4 0h1m1 0h1m2 0h1m2 0h2m2 0h2m3 0h2m1 0h4m1 0h3m6 0h2m1 0h5m2 0h2m2 0h2m1 0h1m1 0h1m1 0h2m1 0h2m6 0h3m2 0h2m1 0h1m1 0h1m3 0h4m1 0h2M4 89.5h1m2 0h1m3 0h1m1 0h3m2 0h1m1 0h1m2 0h1m2 0h4m1 0h1m3 0h1m1 0h1m2 0h1m2 0h5m11 0h1m1 0h2m1 0h1m2 0h3m3 0h1m1 0h3m2 0h1m2 0h1m4 0h4m1 0h1m7 0h1m1 0h1M7 90.5h2m1 0h5m3 0h1m1 0h1m1 0h1m1 0h1m2 0h2m2 0h1m1 0h3m2 0h9m2 0h2m3 0h2m1 0h1m1 0h1m2 0h2m6 0h1m2 0h1m1 0h2m1 0h2m4 0h6m1 0h4m1 0h2m1 0h1m1 0h1m1 0h1M4 91.5h1m3 0h2m2 0h1m1 0h1m1 0h1m1 0h1m1 0h1m1 0h1m4 0h3m2 0h1m3 0h3m3 0h5m1 0h2m1 0h1m1 0h4m1 0h1m1 0h1m2 0h1m1 0h4m1 0h1m1 0h1m1 0h1m1 0h4m2 0h1m2 0h1m1 0h1m2 0h1m2 0h3m1 0h2m1 0h2M4 92.5h4m1 0h4m3 0h3m1 0h1m1 0h6m1 0h1m1 0h1m2 0h1m1 0h2m1 0h1m5 0h1m3 0h1m1 0h1m1 0h1m1 0h1m3 0h1m2 0h1m3 0h3m1 0h1m1 0h1m1 0h13m1 0h1m2 0h4m1 0h3m2 0h1M6 93.5h2m3 0h1m1 0h2m1 0h1m3 0h2m1 0h1m3 0h1m3 0h1m8 0h3m2 0h1m1 0h1m1 0h2m1 0h1m1 0h2m1 0h2m1 0h2m1 0h1m1 0h2m1 0h2m1 0h1m2 0h2m1 0h1m1 0h1m1 0h3m1 0h1m1 0h1m1 0h3m1 0h2m1 0h3m1 0h2m1 0h2M4 94.5h1m2 0h2m1 0h4m3 0h1m4 0h1m1 0h4m1 0h4m1 0h1m1 0h2m3 0h1m1 0h1m3 0h1m4 0h2m2 0h1m1 0h1m3 0h1m6 0h3m1 0h1m1 0h1m1 0h1m1 0h3m2 0h4m2 0h2m1 0h2m2 0h3m1 0h2M4 95.5h1m1 0h2m1 0h1m2 0h2m2 0h3m1 0h2m5 0h2m1 0h1m2 0h3m2 0h2m1 0h1m1 0h2m1 0h1m3 0h4m1 0h1m1 0h4m3 0h1m1 0h2m9 0h1m1 0h4m4 0h4m7 0h1m1 0h1m3 0h1M8 96.5h1m1 0h1m2 0h2m1 0h1m2 0h1m4 0h3m3 0h7m2 0h4m1 0h2m1 0h1m2 0h1m1 0h6m1 0h5m1 0h1m1 0h14m5 0h1m1 0h3m2 0h1m2 0h5m1 0h1m1 0h1M12 97.5h2m3 0h1m2 0h5m3 0h1m1 0h1m3 0h4m4 0h5m5 0h1m3 0h1m1 0h2m3 0h1m1 0h5m4 0h1m3 0h1m2 0h1m1 0h1m4 0h2m1 0h1m2 0h1m1 0h1m3 0h3M4 98.5h7m2 0h1m1 0h4m6 0h2m3 0h1m1 0h1m1 0h2m4 0h2m1 0h1m1 0h1m1 0h2m3 0h1m1 0h1m1 0h1m2 0h7m1 0h2m1 0h1m1 0h1m1 0h1m1 0h1m1 0h4m2 0h1m2 0h4m1 0h2m2 0h1m1 0h1m1 0h1m3 0h1M4 99.5h1m5 0h1m1 0h2m1 0h2m3 0h2m1 0h3m2 0h1m1 0h1m3 0h1m1 0h1m5 0h1m4 0h1m1 0h2m1 0h1m3 0h3m1 0h2m1 0h1m3 0h1m1 0h2m2 0h2m3 0h1m1 0h3m1 0h1m1 0h1m2 0h3m1 0h2m1 0h1m3 0h2m2 0h1M4 100.5h1m1 0h3m1 0h1m2 0h1m1 0h1m4 0h1m1 0h1m2 0h4m1 0h5m1 0h1m1 0h5m1 0h1m1 0h1m2 0h2m1 0h5m1 0h5m3 0h1m1 0h2m2 0h8m2 0h1m1 0h4m2 0h1m1 0h1m1 0h8m2 0h1M4 101.5h1m1 0h3m1 0h1m4 0h2m1 0h1m1 0h2m2 0h2m1 0h3m3 0h1m1 0h1m1 0h1m2 0h1m4 0h1m3 0h3m2 0h1m1 0h1m1 0h1m1 0h1m2 0h1m2 0h2m3 0h1m1 0h1m4 0h2m4 0h1m3 0h1m6 0h1m1 0h1m1 0h2M4 102.5h1m1 0h3m1 0h1m1 0h1m1 0h1m1 0h3m1 0h2m3 0h2m6 0h1m2 0h1m1 0h1m5 0h1m5 0h1m1 0h2m1 0h2m1 0h2m1 0h1m1 0h1m2 0h3m2 0h1m1 0h1m2 0h4m1 0h3m2 0h1m1 0h2m2 0h3m2 0h3m1 0h4M4 103.5h1m5 0h1m1 0h2m1 0h2m2 0h1m1 0h1m1 0h1m1 0h1m2 0h2m2 0h1m5 0h1m2 0h3m3 0h1m2 0h5m1 0h1m4 0h2m1 0h1m1 0h2m3 0h2m1 0h1m1 0h4m4 0h4m1 0h5m2 0h2m2 0h1m1 0h1M4 104.5h7m1 0h1m1 0h1m2 0h4m2 0h3m2 0h2m2 0h2m2 0h3m1 0h1m1 0h2m3 0h3m5 0h5m1 0h1m3 0h2m2 0h1m1 0h1m1 0h1m2 0h7m2 0h9m1 0h3m1 0h1m4 0h1"/></svg>
