<svg xmlns="http://www.w3.org/2000/svg" viewBox="0 0 109 109" shape-rendering="crispEdges"><path fill="#ffffff" d="M0 0h109v109H0z"/><path stroke="#000000" d="M4 4.5h7m7 0h1m3 0h1m4 0h2m5 0h1m1 0h1m1 0h1m4 0h6m2 0h1m5 0h4m1 0h1m1 0h4m1 0h1m2 0h1m5 0h1m1 0h2m1 0h2m1 0h2m1 0h2m2 0h3m2 0h7M4 5.5h1m5 0h1m3 0h3m1 0h1m2 0h3m2 0h2m1 0h3m1 0h1m1 0h1m1 0h2m1 0h1m1 0h1m4 0h1m2 0h1m2 0h1m4 0h2m3 0h1m2 0h1m1 0h3m1 0h2m2 0h3m1 0h1m2 0h1m1 0h1m2 0h3m7 0h1m5 0h1M4 6.5h1m1 0h3m1 0h1m1 0h3m1 0h1m2 0h2m2 0h1m1 0h3m3 0h1m1 0h2m2 0h1m1 0h3m1 0h2m1 0h3m1 0h7m1 0h1m1 0h1m1 0h3m1 0h1m3 0h1m3 0h3m1 0h3m1 0h6m1 0h4m2 0h1m2 0h1m1 0h3m1 0h1M4 7.5h1m1 0h3m1 0h1m3 0h1m3 0h2m3 0h3m2 0h1m1 0h3m2 0h1m1 0h1m2 0h2m2 0h1m1 0h1m2 0h1m1 0h1m1 0h6m1 0h3m1 0h1m2 0h1m3 0h2m1 0h1m1 0h1m1 0h4m4 0h1m2 0h1m3 0h3m2 0h1m1 0h3m1 0h1M4 8.5h1m1 0h3m1 0h1m2 0h3m3 0h1m5 0h2m2 0h8m1 0h1m1 0h1m1 0h1m1 0h1m3 0h1m1 0h10m1 0h1m1 0h1m2 0h1m2 0h2m2 0h6m1 0h1m3 0h6m4 0h1m1 0h1m1 0h1m1 0h3m1 0h1M4 9.5h1m5 0h1m5 0h3m2 0h2m5 0h3m3 0h1m1 0h3m1 0h4m3 0h3m2 0h1m3 0h3m2 0h5m2 0h3m1 0h3m3 0h1m1 0h3m2 0h4m4 0h1m1 0h1m2 0h1m5 0h1M4 10.5h7m1 0h1m1 0h1m1 0h1m1 0h1m1 0h1m1 0h1m1 0h1m1 0h1m1 0h1m1 0h1m1 0h1m1 0h1m1 0h1m1 0h1m1 0h1m1 0h1m1 0h1m1 0h1m1 0h1m1 0h1m1 0h1m1 0h1m1 0h1m1 0h1m1 0h1m1 0h1m1 0h1m1 0h1m1 0h1m1 0h1m1 0h1m1 0h1m1 0h1m1 0h1m1 0h1m1 0h1m1 0h1m1 0h1m1 0h1m1 0h1m1 0h1m1 0h1m1 0h1m1 0h7M12 11.5h3m3 0h1m1 0h1m2 0h4m1 0h3m3 0h1m2 0h1m4 0h2m1 0h1m5 0h2m3 0h1m1 0h1m7 0h3m1 0h2m2 0h1m3 0h1m1 0h1m2 0h2m3 0h3m1 0h1m1 0h2M4 12.5h3m1 0h5m1 0h3m2 0h4m1 0h1m2 0h8m1 0h2m1 0h1m3 0h1m3 0h3m2 0h5m1 0h1m1 0h3m1 0h2m1 0h1m1 0h2m3 0h9m2 0h9m3 0h2m3 0h1M7 13.5h2m2 0h1m1 0h1m2 0h1m1 0h1m1 0h2m2 0h1m4 0h3m1 0h6m1 0h1m5 0h5m1 0h1m2 0h3m1 0h4m3 0h2m4 0h2m5 0h1m1 0h1m4 0h1m1 0h2m3 0h1m1 0h3m1 0h3m1 0h2M4 14.5h7m1 0h2m2 0h1m1 0h1m2 0h3m4 0h2m2 0h1m1 0h3m1 0h1m3 0h1m1 0h2m2 0h4m1 0h1m1 0h1m3 0h1m1 0h1m3 0h1m2 0h1m4 0h2m1 0h1m3 0h3m2 0h1m1 0h1m1 0h1m2 0h5m4 0h4M4 15.5h1m1 0h1m2 0h1m5 0h5m3 0h2m2 0h2m1 0h1m2 0h1m1 0h3m3 0h3m5 0h3m1 0h1m1 0h1m1 0h2m2 0h1m1 0h2m2 0h1m5 0h4m4 0h2m1 0h1m2 0h1m1 0h3m5 0h1m2 0h1m1 0h2M7 16.5h4m2 0h1m2 0h1m1 0h1m2 0h1m1 0h4m4 0h1m1 0h2m1 0h3m3 0h2m1 0h1m1 0h2m2 0h1m2 0h2m2 0h2m1 0h2m3 0h3m1 0h3m1 0h1m2 0h2m1 0h1m1 0h1m1 0h1m2 0h1m1 0h1m1 0h3m7 0h1m2 0h1M5 17.5h4m2 0h2m1 0h1m2 0h1m3 0h1m4 0h1m3 0h2m1 0h1m3 0h1m1 0h3m5 0h1m1 0h5m1 0h3m1 0h2m2 0h1m3 0h1m2 0h1m2 0h2m2 0h1m2 0h2m6 0h2m2 0h1m4 0h2m1 0h2m1 0h1M5 18.5h2m1 0h3m1 0h4m2 0h1m1 0h3m2 0h1m2 0h1m1 0h1m3 0h3m1 0h1m1 0h1m2 0h2m1 0h1m1 0h1m3 0h1m7 0h1m1 0h1m2 0h1m2 0h1m1 0h1m1 0h1m2 0h1m4 0h1m3 0h1m2 0h1m3 0h1m1 0h3m4 0h2m1 0h2M8 19.5h2m1 0h1m1 0h1m2 0h2m5 0h1m1 0h2m1 0h1m2 0h3m2 0h1m4 0h1m1 0h3m4 0h1m3 0h2m1 0h1m1 0h1m1 0h1m1 0h3m1 0h1m2 0h2m1 0h1m1 0h2m2 0h2m1 0h3m1 0h2m1 0h3m1 0h2m4 0h1m3 0h1M4 20.5h1m5 0h2m2 0h3m1 0h1m2 0h1m2 0h1m1 0h1m3 0h1m1 0h2m1 0h1m1 0h4m1 0h1m3 0h1m1 0h1m4 0h1m1 0h1m4 0h4m2 0h2m2 0h1m1 0h1m1 0h1m3 0h3m3 0h1m2 0h2m3 0h2m5 0h1m3 0h2M4 21.5h6m1 0h1m1 0h5m6 0h1m3 0h1m4 0h3m1 0h1m3 0h3m2 0h2m3 0h3m1 0h1m3 0h2m2 0h1m1 0h1m4 0h2m1 0h1m1 0h1m2 0h2m3 0h3m1 0h1m2 0h5m2 0h1m1 0h3m1 0h1M4 22.5h1m1 0h1m1 0h1m1 0h2m1 0h1m1 0h3m2 0h3m3 0h1m2 0h2m1 0h2m2 0h2m2 0h1m1 0h1m1 0h1m4 0h1m1 0h1m1 0h3m3 0h3m1 0h1m2 0h1m1 0h3m2 0h3m1 0h1m2 0h1m3 0h1m2 0h1m3 0h2m1 0h3m1 0h3m3 0h1M6 23.5h2m4 0h4m3 0h1m4 0h1m2 0h2m3 0h1m1 0h1m2 0h1m4 0h1m1 0h2m9 0h2m1 0h1m3 0h2m1 0h1m2 0h5m3 0h1m1 0h3m1 0h1m2 0h4m1 0h1m1 0h1m1 0h5m1 0h1m1 0h2M10 24.5h4m5 0h1m1 0h1m6 0h1m1 0h1m2 0h2m3 0h2m3 0h2m2 0h2m1 0h3m5 0h2m2 0h4m1 0h4m1 0h1m5 0h6m4 0h2m2 0h1m2 0h2m3 0h1m3 0h1M5 25.5h1m3 0h1m4 0h2m2 0h2m1 0h1m4 0h1m1 0h2m3 0h4m1 0h1m2 0h3m1 0h1m1 0h1m2 0h2m2 0h1m2 0h3m2 0h1m2 0h3m3 0h1m2 0h1m4 0h1m2 0h2m6 0h3m1 0h2m4 0h1m1 0h1m1 0h1M4 26.5h2m1 0h1m2 0h1m1 0h1m3 0h1m1 0h1m7 0h1m1 0h1m1 0h1m1 0h2m1 0h1m3 0h1m1 0h2m2 0h1m4 0h3m2 0h4m4 0h2m1 0h1m1 0h1m5 0h1m2 0h1m5 0h2m3 0h2m2 0h1m1 0h1m2 0h2m5 0h1M4 27.5h1m1 0h1m1 0h1m2 0h2m1 0h1m4 0h3m3 0h2m2 0h2m1 0h2m2 0h1m1 0h4m1 0h3m3 0h7m1 0h1m3 0h1m5 0h1m1 0h1m3 0h3m1 0h2m4 0h3m1 0h4m1 0h6m3 0h2M7 28.5h1m1 0h4m1 0h1m1 0h1m1 0h1m1 0h2m1 0h2m1 0h2m8 0h2m1 0h1m5 0h1m3 0h1m1 0h2m3 0h5m3 0h2m1 0h1m2 0h4m2 0h1m1 0h1m3 0h2m1 0h2m1 0h1m1 0h1m3 0h1m5 0h5M4 29.5h2m1 0h1m3 0h3m1 0h3m1 0h2m3 0h1m1 0h2m2 0h1m1 0h3m2 0h4m1 0h1m1 0h1m1 0h8m1 0h1m2 0h3m2 0h4m1 0h2m1 0h3m1 0h2m3 0h1m1 0h1m2 0h2m1 0h1m1 0h1m4 0h5m3 0h1M4 30.5h2m2 0h6m2 0h4m2 0h13m8 0h2m3 0h1m1 0h1m1 0h5m1 0h2m2 0h1m5 0h1m1 0h1m2 0h8m2 0h1m2 0h3m1 0h4m2 0h7M7 31.5h2m3 0h1m4 0h4m1 0h1m3 0h1m3 0h1m3 0h1m1 0h3m1 0h1m2 0h4m3 0h1m1 0h1m3 0h1m1 0h2m1 0h1m1 0h2m1 0h1m4 0h2m1 0h1m3 0h2m2 0h2m1 0h3m1 0h2m5 0h1m3 0h3M8 32.5h1m1 0h1m1 0h2m1 0h2m1 0h1m2 0h1m4 0h1m3 0h1m1 0h1m1 0h1m1 0h1m1 0h1m1 0h1m2 0h5m2 0h1m1 0h1m1 0h1m1 0h1m2 0h1m1 0h5m1 0h5m1 0h2m1 0h1m1 0h4m4 0h1m2 0h2m1 0h1m1 0h3m1 0h1m1 0h1m2 0h2M6 33.5h1m1 0h1m3 0h1m1 0h1m2 0h4m2 0h1m5 0h2m3 0h2m1 0h1m3 0h2m1 0h1m1 0h5m1 0h1m3 0h2m2 0h2m1 0h2m1 0h1m2 0h1m1 0h1m2 0h1m3 0h4m4 0h2m2 0h1m1 0h5m3 0h3M4 34.5h1m3 0h11m6 0h2m2 0h11m2 0h2m3 0h1m1 0h1m2 0h5m1 0h1m1 0h1m1 0h4m2 0h1m2 0h2m1 0h5m2 0h1m3 0h4m2 0h1m2 0h1m1 0h5m1 0h1m1 0h1M4 35.5h1m2 0h2m2 0h1m2 0h3m1 0h2m1 0h2m1 0h1m1 0h1m1 0h1m1 0h1m5 0h2m2 0h1m1 0h1m2 0h1m1 0h1m1 0h1m1 0h2m5 0h2m2 0h2m1 0h1m2 0h1m2 0h1m9 0h1m1 0h1m3 0h1m1 0h5m1 0h1m1 0h2m2 0h3M7 36.5h2m1 0h1m2 0h1m3 0h2m1 0h3m3 0h2m2 0h4m1 0h1m4 0h5m2 0h2m4 0h2m1 0h1m1 0h1m1 0h1m5 0h5m1 0h1m2 0h1m2 0h1m3 0h2m1 0h3m1 0h6m2 0h2m3 0h1M4 37.5h1m1 0h2m3 0h1m2 0h1m2 0h1m1 0h1m1 0h3m2 0h1m1 0h4m1 0h3m2 0h1m4 0h2m2 0h2m1 0h4m2 0h1m2 0h3m1 0h1m6 0h1m2 0h1m1 0h2m1 0h1m3 0h1m1 0h5m1 0h2m4 0h5m1 0h1m1 0h1M4 38.5h1m1 0h7m4 0h1m1 0h1m1 0h1m1 0h1m2 0h2m1 0h2m1 0h1m1 0h3m1 0h2m3 0h1m1 0h1m2 0h3m1 0h2m1 0h2m4 0h1m1 0h2m1 0h1m1 0h1m2 0h2m2 0h2m1 0h1m3 0h3m3 0h4m3 0h1m1 0h2m1 0h2m1 0h2M4 39.5h3m4 0h1m3 0h2m2 0h1m5 0h2m2 0h2m3 0h2m3 0h1m4 0h3m3 0h2m1 0h2m1 0h1m2 0h1m2 0h1m1 0h3m1 0h1m2 0h1m1 0h1m1 0h2m1 0h1m1 0h3m2 0h1m3 0h2m2 0h3m1 0h1M4 40.5h1m2 0h5m1 0h13m1 0h1m1 0h1m4 0h1m2 0h2m2 0h1m3 0h2m4 0h1m4 0h5m1 0h1m1 0h1m7 0h1m2 0h3m2 0h1m1 0h2m4 0h3m5 0h3m1 0h1m1 0h1M4 41.5h2m1 0h2m3 0h1m2 0h2m6 0h2m2 0h1m1 0h2m1 0h1m1 0h1m1 0h1m3 0h5m1 0h1m2 0h2m3 0h1m1 0h8m1 0h4m2 0h2m2 0h1m1 0h1m1 0h1m2 0h3m3 0h4m2 0h1m1 0h2m5 0h1M4 42.5h1m2 0h5m6 0h2m2 0h1m1 0h1m1 0h1m1 0h1m2 0h1m1 0h4m3 0h1m2 0h3m1 0h2m2 0h1m1 0h1m1 0h1m1 0h2m2 0h1m1 0h1m2 0h6m1 0h3m1 0h3m1 0h2m3 0h1m1 0h1m2 0h3m1 0h4m2 0h2m1 0h1M8 43.5h1m2 0h6m2 0h3m2 0h1m1 0h5m4 0h2m2 0h3m5 0h3m3 0h3m1 0h1m1 0h6m1 0h9m1 0h1m3 0h4m1 0h1m1 0h2m2 0h3m8 0h1m1 0h1M4 44.5h1m1 0h1m3 0h2m4 0h1m2 0h2m1 0h1m2 0h1m2 0h5m1 0h1m3 0h1m1 0h1m2 0h8m3 0h3m3 0h3m3 0h2m1 0h2m2 0h3m1 0h1m1 0h1m1 0h1m2 0h3m1 0h2m1 0h1m1 0h1m2 0h1m2 0h1m1 0h1M4 45.5h1m1 0h1m4 0h2m1 0h1m5 0h1m4 0h1m2 0h1m1 0h1m1 0h1m2 0h1m3 0h2m4 0h1m1 0h3m6 0h2m3 0h2m2 0h4m2 0h1m1 0h2m2 0h3m3 0h1m1 0h2m1 0h1m3 0h4m2 0h1m1 0h1m1 0h1M5 46.5h1m1 0h1m1 0h4m2 0h5m3 0h3m1 0h2m1 0h1m1 0h1m1 0h1m1 0h4m3 0h1m1 0h1m2 0h1m5 0h2m1 0h4m1 0h4m1 0h2m3 0h1m3 0h1m1 0h2m3 0h1m1 0h5m1 0h1m1 0h2m1 0h4m1 0h1m1 0h1M5 47.5h1m1 0h2m4 0h2m2 0h1m1 0h2m4 0h2m7 0h1m1 0h2m1 0h6m1 0h1m1 0h2m3 0h1m1 0h1m2 0h1m3 0h2m1 0h1m1 0h3m1 0h1m1 0h1m3 0h1m1 0h1m1 0h1m2 0h5m2 0h1m4 0h1m2 0h1M4 48.5h1m1 0h6m3 0h1m5 0h1m1 0h1m1 0h1m1 0h2m1 0h1m2 0h1m1 0h4m2 0h1m1 0h3m1 0h2m1 0h2m3 0h1m1 0h1m3 0h3m1 0h3m2 0h2m1 0h1m1 0h2m2 0h3m2 0h1m3 0h2m1 0h3m3 0h3m2 0h1M4 49.5h1m7 0h2m1 0h1m1 0h7m1 0h2m2 0h7m1 0h1m1 0h5m1 0h1m1 0h1m2 0h2m5 0h3m2 0h2m3 0h2m2 0h1m8 0h1m4 0h3m2 0h1m2 0h1m2 0h3m1 0h3M7 50.5h7m2 0h1m2 0h1m1 0h1m1 0h3m1 0h2m1 0h1m1 0h2m6 0h2m2 0h1m6 0h1m2 0h1m1 0h1m3 0h1m2 0h4m1 0h3m2 0h3m1 0h4m3 0h2m1 0h1m3 0h1m2 0h2m1 0h1m2 0h1m1 0h2M9 51.5h1m2 0h1m1 0h1m2 0h5m2 0h1m1 0h2m2 0h1m2 0h1m1 0h3m2 0h1m7 0h2m1 0h3m7 0h3m3 0h1m1 0h3m2 0h4m3 0h3m5 0h1m1 0h2m1 0h2m2 0h1m4 0h1M4 52.5h2m2 0h5m4 0h3m1 0h3m1 0h1m1 0h8m1 0h2m1 0h1m2 0h1m3 0h3m3 0h8m1 0h5m3 0h1m1 0h13m1 0h1m4 0h2m1 0h2m1 0h5m2 0h1M4 53.5h2m2 0h1m3 0h1m1 0h2m1 0h2m2 0h1m1 0h1m1 0h3m2 0h1m3 0h3m1 0h1m3 0h6m1 0h4m3 0h1m1 0h2m1 0h1m2 0h1m1 0h2m2 0h5m3 0h1m1 0h1m1 0h3m1 0h1m2 0h4m1 0h1m1 0h1m3 0h2m2 0h1M7 54.5h2m1 0h1m1 0h3m1 0h5m1 0h2m1 0h1m1 0h1m1 0h2m1 0h1m1 0h1m4 0h4m1 0h7m1 0h1m1 0h1m1 0h1m3 0h4m1 0h6m3 0h1m1 0h1m1 0h1m2 0h2m1 0h2m2 0h1m1 0h1m1 0h2m2 0h1m1 0h1m1 0h1M4 55.5h1m1 0h1m1 0h1m3 0h2m1 0h2m1 0h1m1 0h2m1 0h3m1 0h2m1 0h1m3 0h2m1 0h1m2 0h1m1 0h2m1 0h1m1 0h1m1 0h1m1 0h2m3 0h2m1 0h3m1 0h1m3 0h2m1 0h2m2 0h1m3 0h1m4 0h1m2 0h2m1 0h2m2 0h4m3 0h3m1 0h1M4 56.5h2m2 0h5m1 0h2m5 0h4m1 0h1m3 0h5m2 0h1m4 0h1m1 0h1m4 0h8m2 0h6m1 0h3m1 0h1m1 0h10m2 0h1m4 0h4m1 0h7m2 0h2M6 57.5h3m2 0h1m4 0h2m2 0h1m3 0h1m1 0h1m1 0h1m1 0h2m1 0h1m4 0h1m1 0h2m2 0h1m6 0h2m2 0h2m1 0h4m1 0h1m2 0h1m2 0h1m3 0h4m1 0h3m1 0h1m1 0h1m2 0h4m1 0h1m1 0h1m1 0h2m2 0h2M7 58.5h1m1 0h4m3 0h1m4 0h4m2 0h2m1 0h2m1 0h1m2 0h1m3 0h1m3 0h1m1 0h3m1 0h1m3 0h1m2 0h1m2 0h3m2 0h4m1 0h4m1 0h1m2 0h2m1 0h2m4 0h4m1 0h1m4 0h1m2 0h2m1 0h1M4 59.5h1m1 0h1m4 0h2m5 0h2m1 0h4m1 0h1m2 0h7m1 0h1m1 0h1m1 0h3m1 0h1m1 0h3m1 0h3m1 0h1m1 0h2m2 0h1m1 0h1m3 0h1m2 0h1m1 0h3m3 0h1m1 0h2m5 0h3m1 0h1m2 0h1m2 0h2m1 0h2m2 0h1M5 60.5h4m1 0h1m4 0h1m2 0h1m1 0h5m1 0h3m1 0h1m2 0h4m4 0h1m3 0h2m1 0h1m1 0h1m1 0h4m1 0h4m1 0h1m3 0h1m1 0h6m6 0h2m1 0h2m2 0h3m1 0h1m1 0h2m1 0h1m1 0h2m1 0h1m1 0h1M6 61.5h3m3 0h2m1 0h4m2 0h1m6 0h1m3 0h1m1 0h2m4 0h3m5 0h2m2 0h5m3 0h1m3 0h1m2 0h2m1 0h1m1 0h1m1 0h6m1 0h1m1 0h1m1 0h1m3 0h1m1 0h1m2 0h4m1 0h2m1 0h3M10 62.5h2m1 0h10m1 0h6m2 0h1m1 0h1m3 0h2m2 0h1m1 0h8m2 0h1m5 0h3m4 0h1m1 0h1m3 0h2m1 0h1m1 0h2m2 0h3m4 0h4m2 0h4m4 0h2M4 63.5h1m3 0h1m2 0h1m3 0h2m1 0h1m1 0h1m4 0h1m3 0h6m3 0h1m1 0h6m1 0h3m1 0h2m1 0h2m1 0h4m3 0h1m1 0h1m1 0h1m3 0h2m2 0h2m1 0h3m1 0h3m1 0h1m1 0h6m1 0h2m1 0h1m2 0h3M4 64.5h2m1 0h6m2 0h2m3 0h2m2 0h1m5 0h4m2 0h1m1 0h1m1 0h2m2 0h1m3 0h1m1 0h3m5 0h2m1 0h2m1 0h5m2 0h4m2 0h7m1 0h1m1 0h1m1 0h1m1 0h1m2 0h1m1 0h1m1 0h2m1 0h3M6 65.5h1m1 0h1m2 0h2m1 0h1m1 0h1m2 0h2m1 0h1m1 0h4m2 0h1m2 0h1m2 0h1m2 0h1m1 0h3m1 0h2m4 0h1m1 0h1m1 0h4m1 0h1m2 0h1m1 0h1m1 0h1m1 0h2m3 0h2m4 0h2m1 0h2m1 0h1m2 0h2m1 0h1m1 0h2m2 0h1m1 0h1m3 0h1M10 66.5h4m1 0h2m1 0h2m1 0h4m1 0h1m1 0h1m2 0h2m2 0h2m3 0h3m1 0h1m1 0h3m2 0h1m2 0h4m1 0h2m3 0h1m2 0h1m2 0h3m1 0h2m3 0h1m2 0h1m1 0h3m1 0h3m2 0h4m4 0h1m2 0h1M5 67.5h1m1 0h3m2 0h2m1 0h1m4 0h2m1 0h1m2 0h6m2 0h5m3 0h3m1 0h5m1 0h1m2 0h1m1 0h2m1 0h1m1 0h1m2 0h1m1 0h1m5 0h1m1 0h5m1 0h1m1 0h8m1 0h3m1 0h6M10 68.5h1m1 0h2m1 0h2m2 0h2m2 0h2m2 0h1m3 0h5m4 0h5m2 0h1m1 0h2m1 0h1m1 0h1m1 0h3m1 0h1m3 0h4m1 0h1m1 0h1m1 0h1m1 0h1m2 0h1m1 0h3m2 0h1m1 0h1m2 0h1m3 0h1m4 0h3M6 69.5h1m2 0h1m1 0h1m2 0h1m2 0h3m2 0h1m1 0h1m1 0h1m1 0h1m1 0h2m3 0h3m1 0h1m7 0h1m1 0h1m3 0h2m8 0h6m1 0h1m3 0h1m2 0h1m2 0h1m2 0h2m2 0h1m4 0h6m2 0h2m1 0h1M6 70.5h1m3 0h2m2 0h2m1 0h4m1 0h3m1 0h3m2 0h2m3 0h1m1 0h1m3 0h1m1 0h1m1 0h3m1 0h1m4 0h2m3 0h2m1 0h5m1 0h7m1 0h1m4 0h1m4 0h1m5 0h1m1 0h1m1 0h1m1 0h2m3 0h1M5 71.5h2m1 0h1m2 0h1m1 0h2m2 0h1m1 0h1m1 0h1m1 0h2m5 0h2m3 0h2m2 0h1m1 0h1m1 0h1m1 0h4m3 0h6m2 0h2m2 0h3m1 0h3m3 0h1m1 0h3m1 0h2m1 0h1m1 0h4m3 0h4m2 0h1m1 0h4M4 72.5h1m1 0h1m1 0h1m1 0h2m4 0h3m1 0h1m2 0h2m5 0h2m1 0h1m2 0h3m2 0h1m9 0h5m4 0h1m2 0h3m1 0h2m2 0h1m2 0h1m1 0h1m1 0h1m1 0h2m1 0h1m1 0h1m2 0h1m1 0h3m1 0h3m4 0h2m1 0h1M5 73.5h1m3 0h1m2 0h1m3 0h5m1 0h5m3 0h3m2 0h1m1 0h4m1 0h1m2 0h1m1 0h6m5 0h1m1 0h2m4 0h1m2 0h3m1 0h1m3 0h3m1 0h1m1 0h1m2 0h3m1 0h3m2 0h1m3 0h2m1 0h2M5 74.5h11m2 0h2m1 0h1m3 0h3m1 0h7m1 0h1m3 0h1m1 0h2m1 0h3m1 0h1m1 0h7m1 0h1m3 0h1m1 0h13m1 0h1m1 0h1m2 0h5m1 0h3m1 0h6M4 75.5h1m1 0h1m1 0h1m3 0h2m4 0h1m1 0h1m1 0h3m2 0h1m2 0h1m3 0h1m1 0h2m1 0h1m1 0h1m1 0h2m2 0h2m3 0h1m3 0h1m2 0h2m1 0h1m1 0h8m1 0h2m3 0h4m1 0h1m1 0h1m1 0h1m1 0h1m2 0h1m3 0h1m3 0h2m1 0h2M4 76.5h5m1 0h1m1 0h1m1 0h1m2 0h1m7 0h2m2 0h2m1 0h1m1 0h2m1 0h2m1 0h1m3 0h1m1 0h1m2 0h1m2 0h1m1 0h1m1 0h1m1 0h2m4 0h3m3 0h1m3 0h1m1 0h1m1 0h1m1 0h1m3 0h4m1 0h2m1 0h5m1 0h1m1 0h5M4 77.5h1m1 0h3m3 0h1m1 0h2m2 0h1m1 0h3m5 0h1m1 0h1m3 0h1m3 0h1m2 0h2m1 0h1m2 0h2m2 0h2m3 0h2m3 0h2m1 0h2m1 0h2m1 0h3m1 0h1m3 0h1m2 0h1m8 0h1m2 0h2m1 0h1m3 0h1m3 0h1M5 78.5h1m1 0h10m1 0h1m1 0h1m4 0h1m2 0h1m1 0h5m1 0h2m2 0h2m1 0h2m1 0h1m1 0h2m2 0h5m1 0h1m1 0h3m1 0h4m1 0h1m1 0h1m2 0h5m2 0h2m1 0h1m2 0h1m1 0h2m1 0h1m1 0h7m1 0h1m1 0h1M4 79.5h4m5 0h9m1 0h1m2 0h2m1 0h1m1 0h1m1 0h2m4 0h2m6 0h1m2 0h1m4 0h1m4 0h2m1 0h1m1 0h2m2 0h1m1 0h5m7 0h8m1 0h1m1 0h1m2 0h1m2 0h3M4 80.5h2m1 0h1m2 0h2m1 0h1m4 0h1m1 0h7m1 0h3m1 0h2m1 0h2m5 0h3m1 0h7m2 0h2m2 0h1m2 0h1m1 0h1m5 0h1m1 0h4m2 0h1m5 0h1m1 0h3m2 0h1m1 0h4m1 0h1m5 0h1M4 81.5h1m4 0h1m1 0h3m4 0h4m4 0h1m2 0h3m3 0h1m1 0h1m2 0h2m1 0h1m1 0h2m1 0h1m2 0h2m1 0h1m2 0h1m1 0h1m1 0h3m1 0h2m1 0h1m4 0h6m3 0h3m1 0h3m1 0h3m5 0h4m1 0h2M4 82.5h12m1 0h1m7 0h2m1 0h5m1 0h1m1 0h1m3 0h1m1 0h2m2 0h1m1 0h1m1 0h3m2 0h2m1 0h1m2 0h6m2 0h2m1 0h1m3 0h3m1 0h1m1 0h1m1 0h1m1 0h1m2 0h2m6 0h1m1 0h3m1 0h1M4 83.5h1m1 0h2m7 0h1m1 0h1m2 0h4m1 0h1m2 0h1m1 0h1m2 0h1m1 0h1m1 0h1m1 0h1m5 0h1m1 0h3m1 0h2m1 0h2m2 0h1m1 0h3m3 0h1m2 0h1m1 0h3m1 0h3m2 0h2m1 0h1m1 0h1m1 0h3m1 0h1m2 0h1m5 0h2m2 0h1M4 84.5h1m5 0h4m2 0h1m6 0h2m1 0h1m5 0h1m1 0h1m1 0h2m1 0h1m5 0h1m1 0h2m1 0h4m1 0h5m3 0h3m2 0h1m2 0h3m4 0h2m1 0h1m1 0h4m2 0h2m1 0h1m4 0h5M4 85.5h1m1 0h2m3 0h2m4 0h8m3 0h1m1 0h1m2 0h2m3 0h2m1 0h2m3 0h1m2 0h6m1 0h2m3 0h3m1 0h1m3 0h2m3 0h2m1 0h1m2 0h1m1 0h2m1 0h1m1 0h2m1 0h1m2 0h5m2 0h5M7 86.5h2m1 0h3m1 0h1m1 0h6m2 0h1m1 0h3m1 0h1m1 0h4m2 0h1m1 0h6m1 0h1m2 0h1m2 0h4m3 0h1m1 0h5m1 0h1m2 0h1m2 0h4m2 0h2m4 0h3m1 0h1m4 0h2m1 0h1m5 0h1M4 87.5h2m3 0h1m2 0h1m1 0h1m4 0h3m2 0h1m2 0h1m1 0h2m2 0h1m3 0h2m2 0h1m1 0h1m3 0h2m2 0h1m2 0h1m1 0h5m1 0h2m1 0h1m5 0h2m1 0h1m2 0h1m1 0h1m2 0h1m3 0h1m3 0h1m1 0h1m3 0h3m1 0h2m2 0h1M8 88.5h1m1 0h3m1 0h3m3 0h1m2 0h1m2 0h2m7 0h3m1 0h1m2 0h1m1 0h4m2 0h1m1 0h3m4 0h1m1 0h3m3 0h2m1 0h1m1 0h3m1 0h2m2 0h2m1 0h4m1 0h2m7 0h1m3 0h1m1 0h2M5 89.5h2m6 0h2m1 0h3m1 0h2m1 0h3m2 0h2m1 0h9m3 0h1m1 0h1m2 0h1m4 0h1m1 0h1m2 0h1m1 0h1m3 0h5m1 0h3m3 0h1m2 0h1m1 0h1m4 0h1m4 0h1m1 0h1m3 0h3m1 0h2M6 90.5h5m2 0h1m1 0h1m1 0h3m2 0h1m1 0h1m2 0h2m1 0h1m5 0h2m3 0h2m3 0h8m1 0h1m1 0h2m2 0h2m1 0h1m1 0h1m2 0h1m2 0h1m5 0h1m2 0h1m2 0h1m1 0h1m2 0h2m1 0h3m1 0h1m1 0h1m2 0h2m1 0h1M4 91.5h2m1 0h2m2 0h2m1 0h1m1 0h1m7 0h1m2 0h1m1 0h3m2 0h1m1 0h2m1 0h1m1 0h1m1 0h1m1 0h1m5 0h1m2 0h1m2 0h1m3 0h2m1 0h4m1 0h5m1 0h1m1 0h2m1 0h3m1 0h2m2 0h1m2 0h3m2 0h2m1 0h5M4 92.5h1m1 0h1m1 0h3m3 0h1m2 0h3m1 0h2m4 0h2m1 0h3m6 0h1m2 0h9m2 0h5m4 0h3m1 0h2m1 0h1m1 0h1m2 0h1m3 0h1m1 0h1m1 0h1m2 0h6m1 0h4m2 0h3M5 93.5h1m1 0h2m2 0h3m2 0h2m1 0h1m2 0h2m1 0h2m3 0h2m2 0h2m2 0h2m1 0h1m1 0h3m1 0h1m2 0h1m4 0h2m1 0h1m2 0h1m2 0h4m3 0h1m1 0h3m3 0h2m5 0h1m2 0h1m8 0h3m3 0h1M4 94.5h1m2 0h2m1 0h3m1 0h1m2 0h1m6 0h1m3 0h1m3 0h1m1 0h2m2 0h1m3 0h5m1 0h5m1 0h1m3 0h4m3 0h2m1 0h3m3 0h7m2 0h1m2 0h4m2 0h2m1 0h1m2 0h1m1 0h1m3 0h1M4 95.5h1m1 0h2m1 0h1m3 0h1m1 0h2m2 0h1m2 0h2m1 0h1m1 0h2m2 0h1m1 0h1m4 0h1m1 0h1m3 0h1m5 0h3m2 0h1m3 0h3m1 0h5m3 0h2m2 0h1m1 0h1m1 0h1m5 0h1m1 0h2m2 0h1m3 0h5m4 0h1M8 96.5h1m1 0h1m1 0h1m3 0h2m1 0h3m2 0h5m1 0h7m2 0h3m5 0h2m1 0h1m1 0h5m5 0h1m1 0h5m1 0h1m1 0h8m1 0h6m3 0h5m1 0h6m1 0h1M12 97.5h1m4 0h2m2 0h3m1 0h4m1 0h1m3 0h1m1 0h2m1 0h2m3 0h1m1 0h2m2 0h1m1 0h1m3 0h2m4 0h4m1 0h2m1 0h1m2 0h2m3 0h3m3 0h2m2 0h1m2 0h2m3 0h1m3 0h1m2 0h1M4 98.5h7m1 0h1m1 0h2m1 0h1m2 0h2m5 0h1m1 0h2m1 0h1m1 0h2m3 0h2m2 0h4m1 0h1m2 0h2m1 0h1m1 0h2m3 0h2m2 0h1m1 0h1m1 0h4m1 0h1m1 0h1m1 0h1m1 0h5m1 0h1m1 0h1m2 0h2m1 0h1m1 0h1m1 0h1m1 0h5M4 99.5h1m5 0h1m1 0h1m1 0h1m1 0h1m4 0h3m3 0h2m1 0h1m3 0h4m3 0h5m2 0h3m1 0h1m3 0h2m1 0h1m1 0h2m3 0h2m1 0h1m1 0h1m2 0h1m3 0h1m1 0h2m1 0h1m2 0h1m2 0h3m3 0h2m3 0h1m1 0h1m1 0h1M4 100.5h1m1 0h3m1 0h1m1 0h2m2 0h2m2 0h2m1 0h1m1 0h1m2 0h1m1 0h6m1 0h1m1 0h4m1 0h3m5 0h5m6 0h3m1 0h1m1 0h1m2 0h9m1 0h1m1 0h1m1 0h2m1 0h1m2 0h1m2 0h8M4 101.5h1m1 0h3m1 0h1m2 0h9m1 0h1m1 0h3m1 0h2m1 0h2m1 0h5m1 0h2m2 0h1m3 0h2m2 0h1m1 0h3m2 0h5m1 0h4m1 0h1m1 0h1m5 0h1m1 0h2m1 0h3m2 0h1m2 0h1m2 0h4m1 0h1m2 0h1M4 102.5h1m1 0h3m1 0h1m1 0h3m1 0h6m2 0h2m2 0h1m2 0h4m3 0h1m1 0h2m1 0h1m1 0h1m1 0h1m5 0h1m1 0h1m1 0h1m1 0h2m3 0h3m1 0h2m4 0h1m2 0h1m1 0h1m4 0h1m1 0h2m1 0h6m5 0h3m1 0h1M4 103.5h1m5 0h1m1 0h6m2 0h1m1 0h2m1 0h1m3 0h1m2 0h1m5 0h1m1 0h4m1 0h3m2 0h2m1 0h1m1 0h1m3 0h1m2 0h3m2 0h1m3 0h2m3 0h1m2 0h2m1 0h1m4 0h1m1 0h6m1 0h1m1 0h1m4 0h1M4 104.5h7m1 0h3m2 0h3m7 0h2m1 0h1m4 0h2m1 0h2m3 0h1m5 0h2m1 0h5m1 0h2m1 0h1m1 0h5m1 0h2m1 0h2m1 0h2m1 0h1m2 0h1m1 0h4m4 0h1m4 0h1m2 0h1m1 0h1m1 0h2"/></svg>
