<svg xmlns="http://www.w3.org/2000/svg" viewBox="0 0 97 97" shape-rendering="crispEdges"><path fill="#ffffff" d="M0 0h97v97H0z"/><path stroke="#000000" d="M4 4.5h7m1 0h2m2 0h2m2 0h2m1 0h1m1 0h1m3 0h1m3 0h1m1 0h2m1 0h1m1 0h2m1 0h1m2 0h3m2 0h3m1 0h1m1 0h2m1 0h4m4 0h2m1 0h3m4 0h3m1 0h3m1 0h7M4 5.5h1m5 0h1m1 0h1m1 0h1m2 0h1m1 0h1m1 0h6m3 0h4m3 0h1m1 0h2m2 0h3m1 0h2m2 0h1m2 0h2m2 0h3m3 0h2m1 0h5m2 0h3m2 0h1m1 0h1m1 0h1m2 0h1m5 0h1M4 6.5h1m1 0h3m1 0h1m2 0h1m1 0h1m1 0h1m1 0h1m2 0h1m5 0h1m1 0h3m1 0h1m1 0h10m3 0h2m1 0h2m1 0h1m1 0h1m1 0h1m5 0h1m2 0h1m1 0h1m1 0h2m1 0h1m1 0h2m2 0h1m4 0h1m1 0h3m1 0h1M4 7.5h1m1 0h3m1 0h1m3 0h2m2 0h1m1 0h6m2 0h1m6 0h2m1 0h2m1 0h2m1 0h1m1 0h1m4 0h4m1 0h3m1 0h2m1 0h2m2 0h3m2 0h3m1 0h1m1 0h2m1 0h2m1 0h1m1 0h1m1 0h3m1 0h1M4 8.5h1m1 0h3m1 0h1m1 0h1m1 0h3m5 0h2m1 0h1m2 0h9m1 0h1m1 0h2m1 0h1m1 0h2m1 0h1m1 0h1m1 0h5m1 0h6m3 0h2m1 0h1m1 0h2m3 0h1m1 0h2m2 0h1m2 0h1m1 0h3m1 0h1M4 9.5h1m5 0h1m1 0h1m1 0h1m4 0h1m1 0h4m3 0h2m2 0h1m3 0h1m1 0h2m1 0h3m1 0h2m1 0h4m1 0h1m4 0h1m3 0h2m3 0h1m1 0h2m3 0h2m1 0h3m1 0h1m1 0h1m2 0h1m5 0h1M4 10.5h7m1 0h1m1 0h1m1 0h1m1 0h1m1 0h1m1 0h1m1 0h1m1 0h1m1 0h1m1 0h1m1 0h1m1 0h1m1 0h1m1 0h1m1 0h1m1 0h1m1 0h1m1 0h1m1 0h1m1 0h1m1 0h1m1 0h1m1 0h1m1 0h1m1 0h1m1 0h1m1 0h1m1 0h1m1 0h1m1 0h1m1 0h1m1 0h1m1 0h1m1 0h1m1 0h1m1 0h1m1 0h1m1 0h7M12 11.5h3m3 0h1m3 0h3m2 0h1m1 0h1m2 0h1m3 0h1m1 0h2m1 0h3m1 0h1m1 0h2m2 0h1m1 0h1m3 0h2m3 0h2m2 0h1m1 0h3m1 0h1m3 0h1m1 0h4m1 0h1M4 12.5h3m2 0h2m1 0h1m1 0h1m4 0h1m1 0h5m1 0h1m1 0h1m1 0h6m2 0h3m1 0h9m3 0h1m2 0h7m1 0h5m4 0h1m2 0h2m1 0h8m2 0h2M4 13.5h3m4 0h1m3 0h1m1 0h4m1 0h1m2 0h1m6 0h3m2 0h1m1 0h1m1 0h1m2 0h1m3 0h6m1 0h2m2 0h3m2 0h1m1 0h2m1 0h1m3 0h1m2 0h3m2 0h6m2 0h1m1 0h1M4 14.5h3m1 0h1m1 0h1m3 0h1m6 0h2m2 0h1m1 0h1m1 0h1m2 0h1m1 0h1m3 0h1m7 0h1m1 0h1m2 0h2m2 0h4m2 0h2m2 0h2m2 0h1m1 0h1m1 0h2m6 0h2m1 0h1m1 0h2m2 0h3M12 15.5h2m1 0h3m1 0h2m1 0h3m1 0h3m3 0h1m1 0h2m1 0h1m2 0h1m3 0h2m1 0h6m1 0h1m2 0h1m1 0h1m1 0h4m1 0h1m2 0h1m1 0h2m5 0h2m4 0h2m2 0h2m2 0h1M4 16.5h4m2 0h1m2 0h1m1 0h3m2 0h1m2 0h2m1 0h2m1 0h1m2 0h4m2 0h2m2 0h2m2 0h1m2 0h8m1 0h2m2 0h1m3 0h1m1 0h2m1 0h2m4 0h1m5 0h3m3 0h1m1 0h2M7 17.5h1m1 0h1m2 0h4m1 0h1m2 0h1m1 0h4m1 0h1m3 0h1m3 0h1m2 0h5m1 0h1m1 0h1m6 0h2m1 0h2m1 0h2m4 0h1m1 0h1m3 0h2m3 0h1m1 0h1m3 0h1m1 0h2m3 0h1m2 0h1M5 18.5h1m1 0h2m1 0h3m3 0h5m5 0h2m1 0h1m1 0h1m1 0h1m5 0h3m3 0h1m1 0h3m1 0h5m2 0h2m2 0h2m2 0h1m3 0h1m3 0h1m2 0h1m1 0h1m1 0h2m1 0h5m1 0h1m1 0h1M6 19.5h2m1 0h1m3 0h2m2 0h4m1 0h1m2 0h1m1 0h1m3 0h1m3 0h1m3 0h3m3 0h1m2 0h2m1 0h1m2 0h1m1 0h1m2 0h1m1 0h2m1 0h1m1 0h1m2 0h1m2 0h3m1 0h5m1 0h1m1 0h2m2 0h1m2 0h2M4 20.5h1m2 0h4m1 0h1m5 0h2m1 0h3m1 0h1m1 0h1m2 0h1m2 0h2m4 0h1m1 0h1m4 0h1m2 0h2m1 0h1m1 0h1m2 0h7m6 0h3m1 0h4m3 0h1m2 0h1m1 0h3m1 0h3M5 21.5h1m1 0h2m3 0h7m3 0h1m2 0h2m4 0h3m3 0h1m1 0h1m1 0h1m2 0h1m1 0h1m3 0h1m1 0h1m1 0h1m3 0h2m1 0h1m1 0h1m4 0h2m1 0h4m1 0h1m2 0h2m2 0h1m1 0h1m1 0h1m1 0h4M4 22.5h10m1 0h1m4 0h1m1 0h1m1 0h1m1 0h1m1 0h1m3 0h1m2 0h1m2 0h1m1 0h1m1 0h7m2 0h2m1 0h1m3 0h4m4 0h2m5 0h1m5 0h2m1 0h1m1 0h1m1 0h7M4 23.5h5m2 0h2m1 0h3m1 0h1m3 0h1m5 0h1m3 0h2m2 0h2m2 0h1m4 0h1m1 0h1m2 0h3m1 0h2m2 0h9m1 0h1m1 0h1m2 0h2m2 0h2m1 0h1m1 0h6m2 0h1m1 0h1M5 24.5h2m3 0h1m5 0h2m1 0h1m3 0h1m1 0h4m3 0h5m3 0h6m1 0h2m1 0h1m1 0h1m2 0h1m1 0h6m1 0h4m1 0h1m5 0h5m1 0h1m2 0h3m1 0h1m1 0h2M5 25.5h5m2 0h2m1 0h6m1 0h2m2 0h1m1 0h1m7 0h1m1 0h2m2 0h1m2 0h1m2 0h5m1 0h1m1 0h2m1 0h1m1 0h1m2 0h1m3 0h3m1 0h1m3 0h1m2 0h2m1 0h2m5 0h2m1 0h1M6 26.5h7m1 0h3m1 0h1m1 0h2m4 0h4m2 0h2m3 0h3m3 0h2m1 0h1m2 0h4m1 0h2m2 0h2m1 0h1m1 0h1m2 0h4m4 0h2m2 0h2m1 0h3m1 0h2m2 0h1m1 0h1M4 27.5h2m3 0h1m2 0h3m1 0h3m3 0h3m1 0h1m2 0h2m3 0h1m1 0h2m1 0h2m1 0h1m1 0h3m1 0h2m3 0h1m2 0h2m3 0h3m3 0h3m3 0h1m1 0h1m2 0h3m1 0h1m1 0h2m1 0h6M6 28.5h1m1 0h1m1 0h1m1 0h4m2 0h4m1 0h4m3 0h3m1 0h4m1 0h1m1 0h1m7 0h1m1 0h2m1 0h1m2 0h1m2 0h1m1 0h2m1 0h1m1 0h1m2 0h2m1 0h1m2 0h1m3 0h1m1 0h3m2 0h1m1 0h1m1 0h1M5 29.5h2m1 0h2m1 0h2m5 0h2m1 0h1m2 0h1m1 0h1m1 0h2m3 0h1m1 0h1m2 0h1m3 0h1m1 0h1m4 0h2m1 0h1m6 0h1m2 0h1m4 0h2m1 0h2m1 0h1m1 0h2m2 0h1m5 0h1m1 0h2m1 0h1M5 30.5h1m1 0h4m1 0h1m2 0h1m1 0h1m2 0h2m1 0h3m2 0h3m2 0h2m5 0h2m1 0h1m2 0h1m1 0h6m3 0h2m1 0h1m1 0h1m1 0h1m1 0h1m1 0h1m3 0h4m4 0h1m1 0h2m3 0h1m1 0h2M4 31.5h4m1 0h1m1 0h1m2 0h1m3 0h2m2 0h1m4 0h4m1 0h1m1 0h1m1 0h6m1 0h1m1 0h1m4 0h1m1 0h1m1 0h1m1 0h2m4 0h2m1 0h4m2 0h1m1 0h1m2 0h4m1 0h1m1 0h2m1 0h1m2 0h1m1 0h1M4 32.5h1m1 0h1m1 0h10m2 0h1m2 0h1m1 0h1m1 0h2m2 0h6m1 0h2m1 0h1m3 0h2m2 0h1m1 0h1m1 0h2m1 0h7m2 0h3m2 0h2m1 0h1m1 0h2m1 0h4m2 0h6m1 0h1M7 33.5h2m3 0h1m1 0h1m2 0h1m1 0h5m3 0h1m1 0h2m1 0h1m3 0h1m1 0h1m2 0h4m1 0h2m1 0h2m1 0h2m2 0h1m1 0h1m3 0h1m3 0h1m5 0h5m1 0h2m4 0h1m3 0h3m1 0h1M4 34.5h1m3 0h1m1 0h1m1 0h7m1 0h1m9 0h1m1 0h1m1 0h1m1 0h5m6 0h3m6 0h1m1 0h1m1 0h1m1 0h1m3 0h3m2 0h3m3 0h1m2 0h3m1 0h1m1 0h1m1 0h2M8 35.5h1m3 0h2m3 0h3m2 0h3m6 0h2m3 0h1m2 0h1m2 0h1m1 0h2m1 0h1m1 0h2m6 0h2m3 0h1m3 0h1m5 0h1m7 0h5m3 0h2M8 36.5h10m1 0h8m2 0h2m1 0h5m1 0h1m1 0h2m1 0h1m2 0h4m2 0h1m1 0h2m1 0h7m1 0h1m1 0h5m1 0h2m1 0h1m1 0h1m1 0h1m1 0h8m2 0h1M5 37.5h1m2 0h1m2 0h2m2 0h2m1 0h1m1 0h2m2 0h1m4 0h1m2 0h4m2 0h4m1 0h2m2 0h2m1 0h1m1 0h1m3 0h3m6 0h3m1 0h2m2 0h2m2 0h3m1 0h1m2 0h1m5 0h3M5 38.5h2m1 0h1m1 0h1m1 0h1m1 0h3m1 0h2m1 0h1m3 0h3m2 0h1m2 0h3m1 0h3m1 0h1m1 0h1m1 0h2m1 0h1m1 0h2m1 0h2m1 0h1m2 0h1m2 0h5m1 0h3m1 0h2m1 0h1m2 0h4m3 0h3m2 0h1m1 0h1M5 39.5h1m2 0h1m3 0h1m1 0h1m2 0h2m2 0h5m3 0h3m2 0h2m1 0h2m3 0h2m1 0h1m1 0h1m1 0h1m1 0h1m6 0h2m1 0h1m1 0h1m1 0h3m2 0h8m2 0h1m5 0h1m2 0h1m2 0h1M7 40.5h1m1 0h2m6 0h1m2 0h1m2 0h2m1 0h1m3 0h1m1 0h1m2 0h1m1 0h1m1 0h5m1 0h1m1 0h1m2 0h1m1 0h1m1 0h1m3 0h1m3 0h1m4 0h3m1 0h7m1 0h4m2 0h6m1 0h1M4 41.5h1m3 0h1m7 0h1m3 0h5m3 0h1m1 0h1m1 0h1m1 0h1m1 0h1m1 0h1m2 0h1m1 0h5m1 0h4m3 0h3m1 0h1m2 0h1m1 0h1m1 0h1m1 0h4m1 0h1m2 0h3m6 0h1m4 0h2M5 42.5h2m1 0h1m1 0h1m1 0h2m1 0h2m1 0h1m1 0h1m3 0h3m1 0h3m1 0h1m1 0h1m1 0h1m1 0h1m1 0h1m4 0h2m1 0h1m1 0h2m1 0h1m1 0h1m1 0h1m1 0h1m1 0h1m1 0h1m2 0h1m1 0h3m1 0h5m3 0h1m1 0h1m2 0h1m3 0h1m2 0h1M4 43.5h1m1 0h4m1 0h3m1 0h1m1 0h2m1 0h3m1 0h1m2 0h1m1 0h1m2 0h3m1 0h1m4 0h2m3 0h1m1 0h1m1 0h1m2 0h1m2 0h1m2 0h2m4 0h3m2 0h3m3 0h3m1 0h2m2 0h6m1 0h1M5 44.5h1m1 0h1m1 0h4m2 0h2m2 0h2m2 0h2m1 0h3m2 0h3m1 0h1m2 0h1m2 0h1m1 0h1m2 0h1m3 0h3m1 0h4m3 0h4m1 0h1m3 0h1m1 0h1m5 0h3m1 0h1m1 0h1m2 0h3m2 0h1M4 45.5h1m1 0h1m1 0h2m3 0h1m4 0h1m1 0h1m1 0h2m1 0h2m2 0h1m4 0h1m3 0h1m1 0h1m3 0h1m1 0h1m3 0h4m1 0h3m1 0h1m2 0h2m3 0h1m2 0h1m1 0h1m1 0h1m1 0h1m3 0h3m1 0h2m1 0h1m2 0h1m1 0h1M5 46.5h1m2 0h1m1 0h1m1 0h1m2 0h4m1 0h1m1 0h2m1 0h2m4 0h1m4 0h1m3 0h1m1 0h1m1 0h1m2 0h3m1 0h1m2 0h2m1 0h4m1 0h2m1 0h3m2 0h3m2 0h3m1 0h4m4 0h2m1 0h1M4 47.5h1m4 0h1m1 0h1m1 0h5m1 0h1m10 0h1m1 0h1m1 0h1m2 0h1m5 0h2m1 0h2m1 0h6m1 0h1m1 0h1m6 0h1m3 0h5m2 0h1m2 0h2m2 0h4m2 0h1m2 0h1M4 48.5h3m1 0h1m1 0h1m1 0h1m1 0h2m1 0h1m1 0h3m1 0h5m1 0h2m1 0h1m3 0h5m1 0h2m1 0h7m3 0h2m1 0h5m2 0h4m1 0h4m4 0h2m2 0h2m2 0h2m2 0h1m1 0h1M4 49.5h5m2 0h4m2 0h1m2 0h5m2 0h1m1 0h1m4 0h2m2 0h3m1 0h2m1 0h3m3 0h1m1 0h1m3 0h3m1 0h2m1 0h1m5 0h2m1 0h2m7 0h2m1 0h2m1 0h2M4 50.5h5m1 0h7m1 0h2m4 0h3m2 0h1m1 0h2m2 0h2m3 0h1m2 0h1m2 0h1m1 0h1m1 0h2m1 0h3m1 0h1m2 0h3m2 0h1m1 0h1m1 0h1m1 0h1m7 0h1m3 0h2m1 0h1m1 0h2M4 51.5h1m7 0h3m3 0h1m3 0h2m1 0h1m1 0h2m1 0h1m2 0h1m2 0h1m2 0h1m1 0h4m9 0h1m1 0h2m1 0h2m1 0h2m3 0h2m1 0h1m3 0h1m1 0h1m3 0h7m1 0h1m1 0h2M4 52.5h1m1 0h1m2 0h3m1 0h10m3 0h1m4 0h3m1 0h3m2 0h4m6 0h1m1 0h2m3 0h1m1 0h1m1 0h1m2 0h3m4 0h4m2 0h1m3 0h2m2 0h1m1 0h2M5 53.5h2m4 0h2m1 0h2m1 0h2m1 0h1m1 0h1m2 0h1m1 0h1m1 0h1m4 0h2m1 0h2m2 0h2m4 0h2m1 0h2m1 0h1m3 0h1m3 0h1m6 0h1m2 0h5m1 0h1m4 0h1m1 0h1m1 0h1m1 0h1m3 0h1M5 54.5h1m1 0h1m2 0h1m2 0h1m5 0h1m1 0h1m2 0h1m1 0h2m1 0h4m1 0h4m1 0h3m1 0h6m5 0h1m1 0h1m1 0h1m1 0h10m1 0h1m1 0h1m2 0h4m4 0h3m1 0h1m2 0h2M6 55.5h2m7 0h2m1 0h1m1 0h2m2 0h4m6 0h1m2 0h3m1 0h2m1 0h1m1 0h1m2 0h1m1 0h2m4 0h1m7 0h1m1 0h2m7 0h1m2 0h1m4 0h1m3 0h1m3 0h1M6 56.5h6m5 0h2m3 0h3m1 0h4m2 0h1m1 0h1m1 0h1m1 0h1m3 0h2m4 0h1m1 0h1m1 0h4m1 0h3m1 0h2m1 0h5m1 0h2m4 0h6m2 0h1m1 0h1m1 0h1m3 0h1M11 57.5h2m1 0h2m1 0h1m3 0h2m1 0h1m1 0h1m3 0h2m2 0h2m2 0h1m1 0h1m1 0h6m3 0h3m1 0h3m2 0h2m2 0h2m2 0h2m3 0h2m2 0h1m1 0h7m4 0h3M4 58.5h2m2 0h5m1 0h4m1 0h1m2 0h15m3 0h2m1 0h3m4 0h4m1 0h8m3 0h4m2 0h3m2 0h4m1 0h11M4 59.5h1m3 0h1m3 0h2m4 0h3m1 0h1m3 0h1m1 0h1m3 0h1m3 0h1m2 0h2m1 0h1m5 0h1m1 0h1m2 0h1m1 0h1m1 0h2m3 0h3m7 0h1m8 0h1m1 0h2m3 0h2m1 0h1M4 60.5h1m1 0h1m1 0h1m1 0h1m1 0h4m1 0h2m2 0h2m1 0h3m1 0h5m1 0h1m1 0h1m2 0h1m3 0h5m2 0h1m1 0h2m2 0h3m1 0h1m1 0h2m1 0h2m1 0h1m2 0h1m2 0h3m5 0h1m1 0h1m1 0h1m1 0h1m1 0h1M6 61.5h3m3 0h4m2 0h1m2 0h1m1 0h1m5 0h1m1 0h2m3 0h1m1 0h1m3 0h1m1 0h1m2 0h1m1 0h1m1 0h5m2 0h1m3 0h1m4 0h1m4 0h4m2 0h1m1 0h1m1 0h1m1 0h1m3 0h3m1 0h1M5 62.5h10m1 0h3m1 0h1m2 0h3m1 0h4m1 0h5m1 0h5m2 0h3m1 0h1m2 0h1m1 0h9m2 0h1m5 0h2m4 0h1m2 0h3m1 0h6m1 0h2M5 63.5h1m1 0h1m1 0h1m1 0h1m2 0h1m3 0h1m1 0h1m3 0h1m1 0h2m3 0h1m5 0h1m1 0h2m6 0h2m6 0h1m1 0h1m2 0h2m2 0h1m2 0h2m1 0h1m1 0h1m1 0h2m2 0h2m4 0h4m2 0h2M7 64.5h1m1 0h3m3 0h2m3 0h1m5 0h4m1 0h9m1 0h1m2 0h2m1 0h2m1 0h3m1 0h3m3 0h4m2 0h4m1 0h1m2 0h4m3 0h1m1 0h1m2 0h1m3 0h1m1 0h1M6 65.5h2m6 0h2m2 0h1m1 0h3m1 0h2m1 0h2m2 0h4m3 0h3m1 0h2m1 0h3m1 0h1m1 0h1m1 0h3m2 0h2m1 0h3m1 0h2m1 0h7m4 0h3m1 0h3m1 0h2M5 66.5h7m1 0h3m1 0h5m1 0h3m7 0h1m1 0h2m3 0h5m1 0h2m1 0h1m8 0h1m1 0h1m4 0h3m1 0h2m5 0h3m1 0h3m1 0h1m2 0h3m1 0h2M8 67.5h1m5 0h3m5 0h2m7 0h1m6 0h2m1 0h1m1 0h5m1 0h3m1 0h1m3 0h1m1 0h1m3 0h6m1 0h1m3 0h2m1 0h1m1 0h2m1 0h1m1 0h3m1 0h3M4 68.5h1m1 0h1m1 0h3m1 0h2m4 0h1m3 0h2m2 0h1m2 0h2m1 0h1m1 0h4m3 0h7m4 0h2m1 0h5m2 0h2m1 0h2m5 0h8m10 0h3M6 69.5h1m1 0h1m5 0h1m7 0h1m1 0h4m2 0h2m1 0h1m4 0h2m1 0h1m1 0h1m4 0h1m2 0h1m2 0h1m1 0h1m6 0h1m1 0h2m3 0h5m1 0h3m5 0h1m1 0h2m1 0h3M4 70.5h4m1 0h4m3 0h4m1 0h1m6 0h2m4 0h2m3 0h1m2 0h2m1 0h1m2 0h3m2 0h1m1 0h1m8 0h3m1 0h2m1 0h1m3 0h2m3 0h2m3 0h1m2 0h1m2 0h2M5 71.5h1m2 0h1m6 0h3m1 0h1m2 0h1m3 0h4m1 0h1m2 0h2m1 0h2m4 0h1m1 0h1m3 0h2m1 0h2m2 0h1m3 0h1m2 0h1m2 0h7m1 0h2m1 0h3m2 0h2m2 0h1m1 0h2m1 0h2M8 72.5h4m2 0h8m2 0h1m2 0h6m1 0h5m1 0h2m1 0h3m2 0h1m1 0h1m3 0h2m1 0h3m2 0h1m1 0h2m1 0h2m1 0h4m6 0h1m2 0h1m1 0h3m1 0h2M7 73.5h1m7 0h1m5 0h2m3 0h1m1 0h3m2 0h1m4 0h1m1 0h1m1 0h1m1 0h1m8 0h1m1 0h2m2 0h1m1 0h1m6 0h1m1 0h4m1 0h4m1 0h1m1 0h4m1 0h2m3 0h1M4 74.5h3m1 0h1m1 0h1m3 0h2m1 0h1m1 0h1m4 0h1m1 0h3m1 0h2m1 0h1m1 0h2m2 0h4m2 0h1m1 0h1m2 0h2m2 0h1m3 0h1m1 0h2m5 0h11m2 0h3m2 0h1m1 0h3m1 0h2M4 75.5h1m6 0h2m1 0h2m2 0h2m2 0h1m5 0h2m1 0h2m3 0h1m6 0h1m1 0h1m1 0h1m1 0h1m3 0h1m5 0h1m1 0h3m2 0h2m4 0h1m1 0h1m3 0h1m1 0h3m3 0h1m4 0h2M4 76.5h2m1 0h2m1 0h4m3 0h2m3 0h1m4 0h1m2 0h2m1 0h1m2 0h1m1 0h5m1 0h1m1 0h2m2 0h5m6 0h4m2 0h1m3 0h1m1 0h1m1 0h3m1 0h1m2 0h2m4 0h1m1 0h2M11 77.5h2m1 0h1m5 0h3m1 0h1m1 0h1m1 0h2m2 0h3m3 0h1m1 0h2m1 0h1m1 0h2m3 0h1m1 0h6m1 0h1m1 0h3m5 0h2m1 0h5m1 0h7m5 0h2M4 78.5h1m1 0h1m1 0h1m1 0h1m4 0h3m1 0h1m4 0h3m1 0h2m1 0h3m1 0h1m4 0h2m1 0h2m1 0h2m1 0h2m1 0h3m4 0h1m3 0h2m1 0h2m1 0h2m3 0h4m2 0h5m1 0h1m2 0h1M4 79.5h2m1 0h3m1 0h1m1 0h4m3 0h1m1 0h1m7 0h3m1 0h1m1 0h1m2 0h1m1 0h1m2 0h2m3 0h1m1 0h1m2 0h3m1 0h1m1 0h1m1 0h1m1 0h2m1 0h1m2 0h1m5 0h3m3 0h1m3 0h3m3 0h1M4 80.5h1m5 0h1m3 0h1m3 0h1m1 0h4m1 0h1m1 0h3m2 0h1m1 0h2m1 0h1m6 0h2m4 0h1m1 0h2m2 0h1m1 0h2m1 0h3m2 0h1m2 0h6m1 0h1m1 0h1m1 0h2m2 0h1m4 0h1m1 0h2M6 81.5h1m4 0h1m1 0h2m3 0h1m4 0h1m5 0h1m1 0h1m1 0h1m2 0h2m1 0h1m1 0h1m1 0h1m1 0h4m1 0h2m1 0h1m2 0h1m1 0h2m1 0h1m3 0h1m1 0h3m2 0h1m3 0h1m1 0h1m1 0h1m2 0h3m1 0h1M4 82.5h1m2 0h1m2 0h2m1 0h2m2 0h2m2 0h2m2 0h1m2 0h1m2 0h2m1 0h2m2 0h1m1 0h1m1 0h1m8 0h2m1 0h4m2 0h1m1 0h3m2 0h1m2 0h1m1 0h1m1 0h1m2 0h3m1 0h2m2 0h1m1 0h2m1 0h1m1 0h1M4 83.5h2m2 0h2m2 0h2m1 0h2m1 0h2m1 0h1m1 0h2m1 0h2m3 0h1m4 0h2m3 0h1m2 0h1m3 0h1m1 0h3m1 0h3m1 0h2m2 0h1m3 0h3m2 0h1m1 0h1m2 0h1m1 0h1m1 0h3m2 0h1m1 0h1m4 0h1M4 84.5h1m2 0h1m2 0h2m2 0h3m1 0h1m1 0h1m2 0h2m1 0h1m2 0h1m2 0h5m1 0h1m5 0h1m1 0h1m1 0h5m1 0h2m1 0h7m1 0h1m1 0h1m1 0h7m3 0h2m3 0h7m1 0h1M12 85.5h2m3 0h1m2 0h2m1 0h1m1 0h1m1 0h1m1 0h4m3 0h1m1 0h3m1 0h1m1 0h3m1 0h2m3 0h2m3 0h1m3 0h1m2 0h2m1 0h2m2 0h1m3 0h2m2 0h1m3 0h1m3 0h2m1 0h2M4 86.5h7m2 0h2m2 0h3m1 0h1m1 0h1m2 0h2m2 0h3m1 0h1m1 0h2m2 0h1m1 0h1m3 0h1m1 0h3m1 0h2m3 0h2m1 0h1m1 0h1m1 0h1m3 0h1m1 0h1m2 0h1m3 0h1m2 0h1m1 0h1m1 0h1m1 0h1m1 0h5M4 87.5h1m5 0h1m1 0h1m1 0h2m3 0h1m2 0h1m1 0h1m2 0h4m1 0h1m3 0h1m3 0h5m1 0h2m1 0h2m1 0h1m1 0h2m1 0h2m3 0h1m1 0h1m6 0h1m1 0h1m1 0h5m1 0h1m2 0h1m3 0h1m2 0h2M4 88.5h1m1 0h3m1 0h1m3 0h2m1 0h4m1 0h3m1 0h3m1 0h10m1 0h1m1 0h1m1 0h1m2 0h1m3 0h2m1 0h1m2 0h5m2 0h2m1 0h2m1 0h4m1 0h1m4 0h1m1 0h6m3 0h1M4 89.5h1m1 0h3m1 0h1m2 0h2m1 0h2m1 0h2m3 0h1m1 0h3m1 0h1m2 0h3m1 0h2m3 0h2m3 0h2m1 0h1m2 0h2m4 0h4m2 0h3m3 0h1m2 0h2m1 0h2m2 0h3m2 0h2m2 0h1M4 90.5h1m1 0h3m1 0h1m1 0h1m3 0h1m1 0h1m1 0h2m3 0h1m4 0h3m1 0h3m1 0h1m1 0h1m3 0h1m1 0h4m1 0h1m2 0h2m2 0h3m1 0h1m1 0h3m1 0h4m1 0h1m4 0h1m1 0h2m1 0h1m1 0h1m4 0h3M4 91.5h1m5 0h1m1 0h4m1 0h1m1 0h3m2 0h5m2 0h1m4 0h1m2 0h2m2 0h2m1 0h1m3 0h2m4 0h1m7 0h1m1 0h1m1 0h1m1 0h2m5 0h1m1 0h2m2 0h2m2 0h1m2 0h1M4 92.5h7m1 0h6m5 0h3m1 0h2m1 0h5m1 0h1m4 0h2m1 0h3m1 0h1m1 0h4m2 0h1m2 0h3m1 0h1m1 0h1m2 0h1m4 0h2m3 0h1m1 0h2m2 0h1m1 0h3m1 0h1m1 0h1"/></svg>
