<svg xmlns="http://www.w3.org/2000/svg" viewBox="0 0 101 101" shape-rendering="crispEdges"><path fill="#ffffff" d="M0 0h101v101H0z"/><path stroke="#000000" d="M4 4.5h7m5 0h2m1 0h3m3 0h4m3 0h4m1 0h1m1 0h2m1 0h1m1 0h1m1 0h3m4 0h2m2 0h1m2 0h2m1 0h1m5 0h2m1 0h1m2 0h1m1 0h1m1 0h2m6 0h1m2 0h7M4 5.5h1m5 0h1m1 0h2m1 0h2m2 0h1m1 0h1m3 0h3m2 0h5m1 0h2m1 0h2m2 0h1m1 0h2m5 0h2m2 0h1m1 0h3m2 0h6m1 0h1m2 0h1m1 0h1m6 0h2m3 0h2m1 0h1m5 0h1M4 6.5h1m1 0h3m1 0h1m4 0h1m2 0h1m3 0h4m2 0h4m1 0h2m1 0h2m1 0h3m1 0h1m1 0h1m1 0h7m1 0h2m1 0h4m1 0h1m1 0h1m2 0h1m1 0h1m2 0h1m1 0h1m2 0h1m1 0h1m1 0h1m5 0h1m1 0h1m1 0h3m1 0h1M4 7.5h1m1 0h3m1 0h1m1 0h2m1 0h1m1 0h1m1 0h1m1 0h1m3 0h3m3 0h1m1 0h1m2 0h1m3 0h2m1 0h1m4 0h3m1 0h2m1 0h4m1 0h1m1 0h1m1 0h2m3 0h1m6 0h4m2 0h4m1 0h1m2 0h1m1 0h3m1 0h1M4 8.5h1m1 0h3m1 0h1m3 0h2m3 0h1m1 0h2m2 0h1m2 0h3m1 0h6m3 0h4m4 0h1m1 0h4m1 0h1m1 0h7m1 0h1m2 0h1m1 0h2m1 0h1m3 0h3m1 0h1m1 0h1m1 0h2m2 0h1m1 0h3m1 0h1M4 9.5h1m5 0h1m1 0h3m3 0h3m3 0h7m1 0h1m3 0h1m5 0h1m1 0h5m3 0h1m1 0h1m2 0h1m1 0h2m3 0h3m1 0h1m1 0h5m1 0h1m2 0h5m3 0h1m2 0h1m5 0h1M4 10.5h7m1 0h1m1 0h1m1 0h1m1 0h1m1 0h1m1 0h1m1 0h1m1 0h1m1 0h1m1 0h1m1 0h1m1 0h1m1 0h1m1 0h1m1 0h1m1 0h1m1 0h1m1 0h1m1 0h1m1 0h1m1 0h1m1 0h1m1 0h1m1 0h1m1 0h1m1 0h1m1 0h1m1 0h1m1 0h1m1 0h1m1 0h1m1 0h1m1 0h1m1 0h1m1 0h1m1 0h1m1 0h1m1 0h1m1 0h1m1 0h7M13 11.5h1m2 0h1m4 0h2m1 0h2m1 0h1m2 0h3m3 0h5m1 0h2m1 0h1m1 0h1m1 0h3m1 0h4m1 0h1m1 0h1m3 0h4m1 0h1m1 0h1m1 0h2m3 0h1m4 0h3m1 0h2M4 12.5h5m1 0h5m2 0h1m2 0h1m4 0h1m2 0h9m2 0h2m3 0h1m4 0h1m1 0h1m1 0h2m3 0h7m2 0h1m2 0h3m3 0h1m1 0h4m1 0h3m1 0h3m1 0h1m1 0h1m1 0h1M4 13.5h1m2 0h3m1 0h1m3 0h1m1 0h5m2 0h3m1 0h2m4 0h3m1 0h2m1 0h1m1 0h3m2 0h1m1 0h2m2 0h2m4 0h5m2 0h1m5 0h1m2 0h1m2 0h1m4 0h1m2 0h1m1 0h1m1 0h2m1 0h1m1 0h1M4 14.5h3m3 0h1m1 0h2m2 0h2m2 0h2m2 0h1m4 0h4m1 0h2m3 0h1m4 0h1m1 0h2m1 0h1m4 0h6m1 0h5m6 0h1m1 0h4m1 0h1m7 0h1m1 0h1m2 0h2m2 0h1M5 15.5h1m1 0h3m2 0h4m1 0h1m2 0h3m1 0h1m2 0h1m5 0h3m1 0h1m2 0h2m1 0h4m3 0h1m1 0h1m2 0h1m2 0h1m3 0h2m3 0h1m2 0h1m1 0h2m1 0h3m1 0h7m1 0h1m2 0h1m2 0h3M4 16.5h2m1 0h1m2 0h1m2 0h2m2 0h1m4 0h1m2 0h2m1 0h3m1 0h1m1 0h3m2 0h2m1 0h3m1 0h1m1 0h2m2 0h2m1 0h2m1 0h2m1 0h4m2 0h1m1 0h4m5 0h3m1 0h1m7 0h1m4 0h1M4 17.5h1m1 0h1m4 0h2m4 0h4m1 0h2m2 0h1m1 0h2m2 0h3m2 0h2m1 0h2m3 0h1m1 0h2m1 0h3m3 0h1m1 0h2m1 0h1m2 0h1m9 0h1m2 0h1m1 0h1m2 0h2m1 0h3m2 0h1m2 0h1m1 0h1M5 18.5h1m2 0h1m1 0h2m4 0h2m2 0h2m3 0h2m2 0h1m1 0h1m1 0h7m1 0h1m2 0h1m2 0h2m4 0h1m1 0h1m1 0h2m3 0h3m4 0h1m1 0h5m2 0h2m4 0h1m3 0h1m3 0h1M4 19.5h1m2 0h1m3 0h2m3 0h1m1 0h1m1 0h1m1 0h4m1 0h1m1 0h1m2 0h3m2 0h5m3 0h2m2 0h1m1 0h1m2 0h2m1 0h5m1 0h3m1 0h1m1 0h2m5 0h14m1 0h2m1 0h1m1 0h1M5 20.5h1m4 0h5m1 0h1m1 0h2m2 0h3m5 0h1m1 0h1m3 0h1m1 0h2m2 0h2m2 0h3m1 0h1m1 0h2m2 0h1m1 0h1m1 0h3m5 0h1m1 0h1m2 0h4m1 0h2m1 0h2m1 0h2m1 0h4m1 0h5M5 21.5h3m1 0h1m3 0h3m3 0h1m1 0h6m1 0h2m1 0h1m4 0h2m2 0h3m1 0h5m5 0h4m1 0h3m1 0h5m2 0h1m1 0h1m2 0h2m1 0h1m1 0h4m1 0h4m2 0h1m3 0h2M6 22.5h3m1 0h1m1 0h3m1 0h1m3 0h2m1 0h4m3 0h1m1 0h1m1 0h4m2 0h7m2 0h5m2 0h4m1 0h3m3 0h1m1 0h2m1 0h2m4 0h5m6 0h2m1 0h1m3 0h1M5 23.5h2m6 0h1m2 0h1m2 0h1m3 0h1m1 0h2m4 0h4m2 0h3m4 0h4m3 0h1m1 0h1m1 0h2m1 0h1m1 0h2m1 0h1m1 0h5m4 0h2m1 0h1m1 0h1m1 0h1m1 0h1m1 0h2m1 0h1m1 0h3m3 0h1M4 24.5h2m1 0h1m2 0h1m1 0h1m1 0h6m1 0h3m6 0h3m1 0h2m1 0h1m1 0h1m1 0h1m4 0h1m2 0h2m1 0h2m4 0h1m1 0h4m1 0h2m1 0h7m5 0h2m1 0h1m1 0h1m2 0h2m1 0h2m1 0h2M5 25.5h1m1 0h1m4 0h1m1 0h1m4 0h4m4 0h1m4 0h1m3 0h2m2 0h1m2 0h1m3 0h1m1 0h5m2 0h1m1 0h1m2 0h1m2 0h1m2 0h3m3 0h2m1 0h1m7 0h1m2 0h1m6 0h1m1 0h1M5 26.5h1m1 0h5m3 0h1m1 0h1m1 0h5m1 0h1m1 0h6m2 0h4m1 0h2m1 0h4m4 0h2m1 0h1m3 0h1m1 0h3m1 0h2m1 0h2m1 0h2m1 0h2m1 0h1m1 0h1m1 0h3m2 0h3m1 0h1m1 0h1m1 0h4M4 27.5h2m2 0h1m8 0h2m2 0h3m1 0h2m1 0h1m1 0h2m2 0h1m2 0h2m1 0h1m1 0h2m1 0h3m2 0h2m1 0h1m1 0h3m1 0h1m1 0h3m1 0h1m6 0h1m2 0h3m1 0h2m1 0h1m1 0h1m1 0h2m2 0h1m2 0h4M5 28.5h7m9 0h1m2 0h1m1 0h1m3 0h2m1 0h1m3 0h3m1 0h4m4 0h2m2 0h4m3 0h1m2 0h3m1 0h1m1 0h2m2 0h1m7 0h2m1 0h2m1 0h1m2 0h2m1 0h1m1 0h2M4 29.5h2m1 0h3m2 0h4m2 0h1m1 0h2m1 0h3m1 0h2m2 0h3m1 0h2m5 0h1m2 0h1m2 0h1m1 0h3m4 0h1m1 0h3m3 0h1m5 0h2m2 0h1m1 0h6m1 0h5m1 0h1m3 0h1M7 30.5h1m1 0h2m2 0h1m1 0h1m1 0h1m3 0h1m1 0h2m1 0h2m3 0h1m2 0h1m1 0h4m2 0h1m2 0h1m1 0h1m1 0h1m1 0h1m2 0h2m3 0h1m4 0h4m1 0h2m1 0h4m1 0h1m5 0h1m2 0h1m3 0h1m1 0h1m1 0h1m1 0h1M5 31.5h1m2 0h1m3 0h2m2 0h1m5 0h2m3 0h5m1 0h1m1 0h2m2 0h1m1 0h3m3 0h3m2 0h1m1 0h1m3 0h7m1 0h3m1 0h1m3 0h1m2 0h1m1 0h1m1 0h8m2 0h2m1 0h1m1 0h1M4 32.5h3m1 0h5m1 0h1m1 0h2m2 0h2m2 0h1m7 0h6m1 0h1m2 0h2m4 0h2m2 0h2m1 0h1m1 0h2m1 0h6m1 0h1m1 0h1m4 0h10m2 0h10M4 33.5h2m2 0h1m3 0h1m2 0h2m2 0h2m2 0h2m1 0h1m4 0h2m3 0h3m3 0h5m3 0h2m2 0h2m2 0h1m1 0h1m3 0h5m2 0h1m1 0h2m1 0h2m1 0h1m3 0h2m2 0h2m3 0h1M4 34.5h3m1 0h1m1 0h1m1 0h1m1 0h1m3 0h1m2 0h2m5 0h1m1 0h1m1 0h1m1 0h1m1 0h2m3 0h1m1 0h1m2 0h2m2 0h1m2 0h1m3 0h4m1 0h1m1 0h1m2 0h1m2 0h1m3 0h2m1 0h1m1 0h1m1 0h1m2 0h1m2 0h2m1 0h1m1 0h1m3 0h1M7 35.5h2m3 0h1m6 0h1m1 0h1m4 0h3m3 0h1m3 0h1m1 0h1m1 0h1m1 0h4m1 0h1m1 0h1m2 0h1m2 0h2m1 0h1m1 0h1m3 0h1m3 0h5m5 0h2m1 0h1m2 0h1m1 0h1m1 0h1m3 0h1m1 0h1M7 36.5h7m4 0h2m2 0h1m1 0h1m4 0h10m2 0h2m3 0h4m1 0h1m1 0h1m1 0h2m3 0h5m7 0h4m1 0h1m3 0h2m2 0h1m1 0h6m1 0h3M5 37.5h1m3 0h1m1 0h1m1 0h1m2 0h3m1 0h1m1 0h6m1 0h1m1 0h1m1 0h2m3 0h1m1 0h5m2 0h1m1 0h2m2 0h1m1 0h1m1 0h2m1 0h1m1 0h3m1 0h1m4 0h2m2 0h3m3 0h1m2 0h2m2 0h1m1 0h1m1 0h2m1 0h2M6 38.5h1m2 0h3m4 0h1m6 0h1m1 0h1m2 0h2m3 0h2m1 0h2m2 0h1m3 0h1m2 0h1m1 0h1m1 0h1m4 0h2m3 0h2m1 0h3m1 0h2m1 0h4m2 0h2m1 0h1m2 0h3m1 0h1m2 0h1m1 0h1m1 0h2M4 39.5h3m1 0h1m4 0h4m2 0h1m2 0h1m1 0h3m1 0h2m1 0h1m2 0h3m5 0h1m3 0h5m1 0h2m2 0h3m1 0h1m1 0h3m4 0h1m2 0h1m1 0h2m4 0h1m1 0h2m6 0h2m2 0h2M7 40.5h1m1 0h4m1 0h1m1 0h2m3 0h1m3 0h3m1 0h1m3 0h1m2 0h4m3 0h1m1 0h5m5 0h1m1 0h2m2 0h1m1 0h1m3 0h2m1 0h3m2 0h1m2 0h4m3 0h1m1 0h1m1 0h2m2 0h1m1 0h1M5 41.5h1m1 0h1m9 0h1m1 0h5m1 0h4m1 0h1m1 0h1m1 0h1m3 0h1m1 0h1m5 0h6m1 0h3m1 0h2m3 0h2m1 0h5m1 0h1m1 0h1m1 0h5m1 0h5m1 0h6m2 0h2M4 42.5h1m2 0h2m1 0h2m1 0h1m1 0h1m1 0h1m3 0h2m2 0h1m1 0h1m1 0h1m1 0h1m5 0h1m2 0h2m1 0h1m1 0h2m2 0h3m2 0h2m3 0h2m2 0h1m4 0h3m1 0h1m1 0h1m1 0h1m1 0h1m2 0h1m3 0h2m2 0h1m2 0h1m1 0h2M5 43.5h1m1 0h1m1 0h1m2 0h1m2 0h1m1 0h1m1 0h1m3 0h1m2 0h1m1 0h1m1 0h1m5 0h3m2 0h3m1 0h1m1 0h5m1 0h3m2 0h8m5 0h3m1 0h1m4 0h3m1 0h4m1 0h3m1 0h2m1 0h1M8 44.5h1m1 0h1m5 0h2m1 0h1m4 0h1m2 0h1m10 0h2m6 0h1m5 0h1m1 0h5m2 0h7m1 0h2m2 0h1m1 0h3m4 0h1m6 0h2m4 0h1M5 45.5h1m1 0h1m4 0h1m1 0h7m1 0h3m1 0h1m1 0h1m2 0h1m1 0h2m1 0h2m2 0h2m3 0h2m1 0h3m1 0h5m2 0h4m1 0h2m2 0h1m4 0h1m1 0h1m2 0h1m1 0h2m2 0h1m1 0h1m2 0h3m1 0h3M4 46.5h1m3 0h4m6 0h1m2 0h1m1 0h1m1 0h1m3 0h1m3 0h3m3 0h8m1 0h1m1 0h1m10 0h4m1 0h2m1 0h1m1 0h1m2 0h1m2 0h3m1 0h2m2 0h1m1 0h1m3 0h6M5 47.5h2m2 0h1m2 0h3m6 0h1m2 0h2m4 0h2m1 0h1m1 0h2m2 0h2m3 0h1m2 0h1m2 0h2m1 0h1m5 0h4m5 0h1m3 0h2m3 0h4m1 0h1m1 0h2m3 0h1m2 0h3m1 0h1M4 48.5h3m1 0h4m6 0h4m2 0h1m2 0h3m1 0h1m3 0h5m1 0h1m1 0h3m2 0h1m1 0h1m1 0h2m1 0h1m3 0h2m1 0h2m2 0h1m1 0h2m2 0h2m6 0h1m1 0h3m6 0h1m1 0h4M5 49.5h1m2 0h2m1 0h1m2 0h2m1 0h1m6 0h1m4 0h5m1 0h3m3 0h3m9 0h1m3 0h1m8 0h1m1 0h1m1 0h3m1 0h1m1 0h3m1 0h1m1 0h5m1 0h1m1 0h1m2 0h1m1 0h1M4 50.5h2m4 0h2m1 0h1m4 0h1m1 0h1m1 0h1m2 0h2m1 0h3m1 0h1m1 0h2m8 0h1m3 0h3m1 0h2m1 0h1m2 0h2m2 0h1m3 0h4m2 0h1m1 0h2m4 0h4m3 0h2m2 0h1m1 0h2M5 51.5h1m2 0h2m1 0h1m2 0h1m2 0h1m1 0h1m1 0h1m1 0h5m1 0h3m2 0h1m1 0h9m1 0h1m2 0h5m1 0h1m3 0h2m1 0h4m1 0h1m1 0h3m1 0h1m4 0h1m1 0h1m1 0h1m1 0h1m1 0h3m1 0h1m1 0h3M5 52.5h2m1 0h1m1 0h2m2 0h3m2 0h2m2 0h1m1 0h2m1 0h2m1 0h1m2 0h1m1 0h1m2 0h2m1 0h1m1 0h5m5 0h1m2 0h3m2 0h2m2 0h6m2 0h1m2 0h2m1 0h2m3 0h1m1 0h3m1 0h5M9 53.5h1m1 0h2m2 0h1m1 0h2m1 0h2m1 0h2m2 0h2m1 0h1m2 0h2m1 0h3m1 0h4m2 0h1m1 0h1m3 0h1m5 0h1m1 0h1m3 0h1m2 0h2m2 0h3m4 0h2m2 0h2m1 0h9M8 54.5h1m1 0h1m1 0h3m3 0h5m2 0h2m1 0h2m1 0h1m3 0h6m3 0h2m1 0h4m2 0h3m1 0h2m6 0h1m1 0h1m3 0h1m1 0h1m1 0h2m3 0h2m1 0h1m2 0h5m2 0h4M6 55.5h1m1 0h2m1 0h3m2 0h1m1 0h1m2 0h1m3 0h2m2 0h1m1 0h2m1 0h1m1 0h7m1 0h1m3 0h2m2 0h1m2 0h1m2 0h2m2 0h1m1 0h3m1 0h2m1 0h2m1 0h1m2 0h2m2 0h1m1 0h3m2 0h3m3 0h2M4 56.5h9m2 0h1m1 0h4m3 0h1m1 0h1m1 0h2m3 0h3m2 0h1m1 0h1m1 0h1m1 0h1m3 0h1m3 0h1m4 0h1m4 0h1m1 0h1m2 0h1m4 0h2m2 0h1m5 0h1m3 0h2m1 0h1m1 0h1m1 0h3M4 57.5h1m1 0h3m4 0h3m2 0h2m3 0h1m1 0h1m3 0h1m1 0h1m1 0h1m3 0h4m2 0h1m1 0h1m1 0h3m3 0h3m1 0h1m1 0h1m4 0h1m1 0h3m2 0h1m1 0h2m2 0h1m5 0h1m1 0h1m1 0h1m1 0h1m2 0h1M6 58.5h1m3 0h2m1 0h2m4 0h3m1 0h4m1 0h1m1 0h2m1 0h2m1 0h1m1 0h1m1 0h2m2 0h1m3 0h1m2 0h4m1 0h1m3 0h3m1 0h2m1 0h1m1 0h1m1 0h1m2 0h1m3 0h4m2 0h1m1 0h2m1 0h2m1 0h1m1 0h2M8 59.5h2m1 0h2m1 0h2m1 0h1m1 0h2m2 0h2m3 0h2m2 0h1m2 0h1m1 0h1m1 0h2m2 0h1m2 0h2m2 0h4m3 0h1m5 0h1m1 0h4m1 0h1m2 0h1m1 0h1m1 0h1m3 0h2m1 0h1m2 0h6m1 0h2M4 60.5h2m1 0h7m1 0h1m3 0h1m2 0h5m1 0h1m1 0h13m2 0h1m3 0h6m5 0h5m4 0h1m1 0h1m1 0h1m1 0h1m1 0h1m1 0h1m3 0h10m3 0h1M5 61.5h1m2 0h1m3 0h4m1 0h6m4 0h1m2 0h3m3 0h1m3 0h1m2 0h1m1 0h3m1 0h4m1 0h2m1 0h1m2 0h1m3 0h1m1 0h1m1 0h1m1 0h1m1 0h1m2 0h3m1 0h1m1 0h1m1 0h1m1 0h1m2 0h1m3 0h2M5 62.5h1m2 0h1m1 0h1m1 0h2m1 0h1m4 0h1m1 0h2m1 0h1m1 0h1m1 0h2m1 0h1m1 0h1m1 0h1m2 0h4m1 0h3m4 0h1m3 0h2m1 0h1m1 0h1m1 0h1m1 0h7m3 0h1m3 0h1m2 0h1m1 0h3m2 0h1m1 0h1m1 0h1m2 0h1M5 63.5h4m3 0h4m3 0h2m3 0h2m1 0h1m1 0h4m3 0h2m2 0h1m4 0h1m1 0h1m1 0h8m1 0h1m1 0h1m3 0h1m1 0h1m2 0h1m1 0h2m1 0h1m2 0h1m1 0h1m1 0h2m2 0h1m2 0h1m3 0h1m3 0h1M4 64.5h2m2 0h5m7 0h3m1 0h3m2 0h8m2 0h1m1 0h2m1 0h1m2 0h1m4 0h5m1 0h1m1 0h5m4 0h2m1 0h1m1 0h1m2 0h2m1 0h1m1 0h11M9 65.5h1m3 0h4m2 0h1m4 0h2m2 0h5m4 0h1m2 0h2m3 0h1m2 0h5m1 0h1m1 0h1m3 0h3m2 0h13m3 0h1m1 0h1m3 0h2m1 0h2m1 0h2M4 66.5h1m4 0h5m1 0h2m3 0h1m2 0h7m2 0h4m3 0h1m1 0h1m5 0h4m1 0h1m1 0h1m2 0h2m3 0h4m1 0h2m1 0h2m2 0h1m2 0h1m1 0h1m3 0h1m3 0h1m1 0h3m1 0h1M4 67.5h2m1 0h3m1 0h1m1 0h1m1 0h3m3 0h4m2 0h1m1 0h1m1 0h1m1 0h2m5 0h1m1 0h2m1 0h1m4 0h4m2 0h2m1 0h3m4 0h5m2 0h1m3 0h1m2 0h1m1 0h1m3 0h4M4 68.5h1m2 0h5m1 0h3m1 0h2m5 0h2m2 0h2m5 0h1m4 0h1m3 0h1m4 0h3m1 0h1m1 0h1m2 0h1m1 0h6m3 0h2m2 0h3m2 0h1m2 0h1m3 0h2m2 0h4M6 69.5h1m1 0h1m4 0h1m1 0h2m1 0h2m2 0h4m1 0h5m1 0h1m3 0h4m2 0h3m1 0h4m1 0h2m2 0h5m1 0h3m2 0h1m1 0h1m1 0h4m1 0h1m2 0h1m4 0h4m2 0h2m2 0h1M5 70.5h1m1 0h1m2 0h3m2 0h1m1 0h1m1 0h1m5 0h2m3 0h1m1 0h1m2 0h2m1 0h1m1 0h1m1 0h1m1 0h1m1 0h1m1 0h1m1 0h1m7 0h2m6 0h2m1 0h2m3 0h1m1 0h1m1 0h2m1 0h2m1 0h1m1 0h1m3 0h1m2 0h1m1 0h1M6 71.5h2m4 0h1m4 0h1m1 0h4m1 0h6m1 0h2m1 0h3m1 0h1m1 0h1m1 0h4m2 0h4m5 0h2m1 0h3m1 0h1m2 0h2m3 0h1m3 0h1m1 0h2m1 0h2m1 0h2m2 0h4m2 0h1M5 72.5h1m1 0h1m1 0h2m1 0h1m2 0h3m2 0h2m3 0h2m1 0h6m1 0h1m1 0h1m1 0h3m2 0h2m1 0h1m1 0h2m2 0h1m3 0h1m3 0h1m2 0h1m2 0h1m1 0h3m1 0h1m1 0h2m4 0h1m7 0h1m2 0h2m1 0h1M5 73.5h1m1 0h2m3 0h1m2 0h1m3 0h2m3 0h4m4 0h1m5 0h1m1 0h2m1 0h1m2 0h4m2 0h1m6 0h1m1 0h2m3 0h1m2 0h3m1 0h1m1 0h6m1 0h2m1 0h1m2 0h1m1 0h7M4 74.5h4m2 0h1m3 0h3m3 0h2m3 0h1m1 0h2m2 0h1m3 0h1m3 0h1m2 0h2m1 0h6m1 0h2m1 0h1m2 0h1m2 0h1m1 0h2m4 0h1m4 0h1m1 0h3m5 0h1m3 0h1m1 0h1m1 0h1m1 0h3M6 75.5h2m1 0h1m1 0h1m2 0h2m2 0h2m4 0h1m2 0h1m1 0h1m1 0h4m1 0h1m1 0h1m4 0h1m2 0h1m4 0h1m1 0h1m1 0h1m2 0h2m3 0h6m1 0h3m1 0h1m2 0h1m2 0h1m1 0h1m2 0h1m1 0h6m1 0h3M5 76.5h2m1 0h4m2 0h2m1 0h1m5 0h1m2 0h1m2 0h2m2 0h1m1 0h1m1 0h2m1 0h1m2 0h2m1 0h2m3 0h1m2 0h1m1 0h4m2 0h1m2 0h1m1 0h5m1 0h2m1 0h3m2 0h1m1 0h1m2 0h4m2 0h1M6 77.5h2m1 0h1m4 0h2m1 0h7m1 0h2m1 0h2m2 0h2m2 0h3m1 0h1m4 0h1m4 0h1m1 0h1m1 0h3m1 0h1m7 0h2m1 0h2m2 0h2m2 0h1m2 0h1m1 0h2m2 0h1m3 0h1m5 0h1M4 78.5h1m4 0h2m1 0h1m3 0h1m1 0h4m1 0h3m1 0h1m2 0h1m4 0h2m2 0h1m1 0h2m2 0h1m2 0h1m1 0h1m1 0h1m1 0h1m1 0h2m1 0h2m1 0h1m2 0h2m1 0h1m4 0h1m3 0h3m1 0h2m4 0h1m4 0h2m1 0h1M4 79.5h2m1 0h3m1 0h1m1 0h3m2 0h2m1 0h1m5 0h1m3 0h1m1 0h1m2 0h5m4 0h1m1 0h1m2 0h5m2 0h1m2 0h2m1 0h1m1 0h4m1 0h1m1 0h1m1 0h1m4 0h3m2 0h6m1 0h1m1 0h4M6 80.5h1m2 0h2m4 0h3m1 0h2m1 0h2m1 0h1m1 0h2m1 0h1m1 0h1m1 0h1m1 0h2m2 0h2m1 0h1m2 0h1m6 0h1m2 0h1m2 0h1m2 0h1m8 0h2m2 0h2m1 0h2m1 0h1m1 0h1m2 0h2m1 0h1m3 0h1M6 81.5h2m4 0h1m4 0h1m2 0h2m1 0h3m7 0h2m1 0h1m10 0h1m1 0h1m2 0h3m4 0h2m4 0h3m4 0h3m1 0h3m3 0h2m3 0h3m3 0h4M5 82.5h3m1 0h4m1 0h1m1 0h4m2 0h1m3 0h5m1 0h1m1 0h1m2 0h1m1 0h1m1 0h1m1 0h2m1 0h1m3 0h3m2 0h1m1 0h2m1 0h2m2 0h2m1 0h1m5 0h1m1 0h1m2 0h1m1 0h2m2 0h1m2 0h2m1 0h1m3 0h1M4 83.5h3m2 0h1m3 0h1m1 0h1m2 0h1m3 0h1m1 0h1m2 0h2m3 0h4m1 0h2m1 0h2m3 0h3m2 0h1m2 0h1m2 0h1m7 0h1m2 0h1m1 0h11m1 0h3m4 0h4m2 0h1M4 84.5h5m1 0h2m1 0h1m2 0h4m2 0h3m1 0h1m2 0h5m2 0h4m2 0h1m1 0h1m3 0h3m2 0h1m1 0h1m1 0h2m3 0h9m1 0h1m1 0h4m8 0h2m5 0h1m2 0h1M4 85.5h1m2 0h3m3 0h2m1 0h1m2 0h1m7 0h2m5 0h4m3 0h1m2 0h1m2 0h2m1 0h2m4 0h4m1 0h1m2 0h1m1 0h4m3 0h2m2 0h4m1 0h2m6 0h1m3 0h2M8 86.5h1m1 0h1m4 0h1m1 0h5m1 0h1m3 0h1m1 0h6m2 0h3m1 0h1m3 0h1m2 0h2m1 0h1m1 0h1m1 0h1m4 0h1m7 0h4m2 0h6m1 0h1m2 0h3m1 0h2m3 0h1m1 0h1M4 87.5h2m1 0h3m1 0h2m2 0h1m1 0h1m1 0h6m1 0h2m1 0h4m2 0h4m1 0h2m2 0h10m1 0h1m2 0h2m1 0h4m1 0h1m1 0h1m2 0h1m1 0h1m1 0h3m2 0h2m3 0h1m1 0h2m1 0h3m3 0h1M5 88.5h2m3 0h3m2 0h2m1 0h2m3 0h4m2 0h1m2 0h5m3 0h4m1 0h1m6 0h3m2 0h11m1 0h6m3 0h2m6 0h1m1 0h5m3 0h1M12 89.5h2m1 0h1m2 0h1m1 0h1m1 0h1m2 0h2m4 0h2m3 0h1m5 0h2m2 0h2m6 0h1m1 0h1m1 0h1m1 0h1m3 0h2m1 0h2m1 0h1m2 0h1m1 0h1m1 0h1m3 0h1m3 0h4m3 0h3m1 0h1M4 90.5h7m1 0h1m1 0h1m2 0h1m2 0h2m1 0h2m1 0h7m1 0h1m1 0h2m1 0h2m1 0h2m5 0h2m1 0h1m1 0h7m1 0h1m1 0h4m2 0h2m1 0h1m1 0h3m2 0h3m3 0h1m1 0h1m1 0h1m1 0h1m2 0h1M4 91.5h1m5 0h1m2 0h1m2 0h2m1 0h1m3 0h1m2 0h1m1 0h1m3 0h1m3 0h1m1 0h2m1 0h3m2 0h5m1 0h1m2 0h1m1 0h1m1 0h2m3 0h2m1 0h1m1 0h1m1 0h3m4 0h3m2 0h2m2 0h2m3 0h5M4 92.5h1m1 0h3m1 0h1m1 0h1m4 0h1m2 0h5m3 0h1m2 0h11m1 0h1m2 0h1m3 0h2m3 0h1m2 0h1m1 0h5m4 0h2m2 0h1m1 0h2m1 0h1m5 0h3m1 0h9M4 93.5h1m1 0h3m1 0h1m1 0h3m3 0h3m4 0h2m1 0h2m2 0h1m5 0h1m3 0h1m1 0h1m1 0h1m6 0h4m2 0h1m1 0h3m1 0h1m1 0h1m2 0h1m1 0h2m1 0h4m1 0h1m1 0h1m3 0h2m3 0h2m1 0h1M4 94.5h1m1 0h3m1 0h1m1 0h1m5 0h1m1 0h2m1 0h1m1 0h1m1 0h1m1 0h3m1 0h3m1 0h1m4 0h2m1 0h4m1 0h2m2 0h1m2 0h1m1 0h3m1 0h1m2 0h2m2 0h2m1 0h1m2 0h1m3 0h5m2 0h2m2 0h1m1 0h2M4 95.5h1m5 0h1m1 0h6m1 0h3m3 0h1m3 0h2m1 0h2m1 0h1m1 0h3m2 0h1m3 0h3m2 0h2m1 0h2m3 0h1m1 0h5m2 0h1m1 0h1m3 0h1m1 0h1m2 0h2m2 0h1m1 0h2m4 0h3M4 96.5h7m1 0h1m1 0h1m1 0h2m1 0h1m1 0h2m2 0h1m1 0h5m3 0h1m2 0h1m1 0h1m2 0h1m1 0h3m2 0h7m1 0h1m1 0h2m2 0h4m1 0h1m1 0h3m1 0h4m3 0h1m3 0h3m1 0h3m1 0h2"/></svg>
