<svg xmlns="http://www.w3.org/2000/svg" viewBox="0 0 109 109" shape-rendering="crispEdges"><path fill="#ffffff" d="M0 0h109v109H0z"/><path stroke="#000000" d="M4 4.5h7m6 0h2m1 0h1m3 0h1m1 0h1m1 0h1m2 0h4m2 0h4m1 0h2m1 0h4m2 0h1m1 0h1m3 0h1m1 0h3m3 0h1m1 0h2m1 0h1m1 0h1m2 0h5m1 0h2m1 0h1m1 0h1m1 0h1m3 0h4m2 0h7M4 5.5h1m5 0h1m1 0h4m4 0h4m1 0h1m1 0h1m1 0h2m2 0h1m4 0h3m4 0h2m2 0h2m1 0h2m1 0h2m2 0h2m1 0h1m4 0h1m9 0h4m6 0h3m1 0h2m5 0h1m5 0h1M4 6.5h1m1 0h3m1 0h1m1 0h3m2 0h2m1 0h1m3 0h2m1 0h1m1 0h1m1 0h1m2 0h1m2 0h3m4 0h4m1 0h3m6 0h1m1 0h5m1 0h3m2 0h1m1 0h3m3 0h2m1 0h1m1 0h1m2 0h1m4 0h2m1 0h1m2 0h1m1 0h3m1 0h1M4 7.5h1m1 0h3m1 0h1m3 0h3m3 0h2m1 0h2m2 0h1m1 0h3m6 0h2m2 0h2m1 0h1m4 0h1m5 0h1m4 0h1m1 0h3m1 0h2m3 0h1m3 0h6m3 0h1m1 0h2m1 0h1m1 0h4m2 0h1m1 0h3m1 0h1M4 8.5h1m1 0h3m1 0h1m1 0h6m1 0h2m4 0h1m4 0h7m1 0h1m1 0h1m3 0h3m2 0h8m2 0h1m1 0h3m2 0h1m2 0h2m1 0h1m1 0h5m1 0h4m2 0h1m6 0h2m1 0h1m1 0h1m1 0h3m1 0h1M4 9.5h1m5 0h1m1 0h2m2 0h1m1 0h1m1 0h1m1 0h1m1 0h3m1 0h3m3 0h2m2 0h3m1 0h1m2 0h2m1 0h1m3 0h1m3 0h1m2 0h1m2 0h1m1 0h1m1 0h3m1 0h2m2 0h1m3 0h1m3 0h1m1 0h1m2 0h1m1 0h3m3 0h1m2 0h1m5 0h1M4 10.5h7m1 0h1m1 0h1m1 0h1m1 0h1m1 0h1m1 0h1m1 0h1m1 0h1m1 0h1m1 0h1m1 0h1m1 0h1m1 0h1m1 0h1m1 0h1m1 0h1m1 0h1m1 0h1m1 0h1m1 0h1m1 0h1m1 0h1m1 0h1m1 0h1m1 0h1m1 0h1m1 0h1m1 0h1m1 0h1m1 0h1m1 0h1m1 0h1m1 0h1m1 0h1m1 0h1m1 0h1m1 0h1m1 0h1m1 0h1m1 0h1m1 0h1m1 0h1m1 0h1m1 0h7M12 11.5h3m3 0h1m2 0h1m1 0h1m2 0h2m2 0h1m3 0h1m7 0h2m1 0h5m2 0h1m3 0h2m1 0h2m5 0h1m1 0h3m2 0h2m3 0h1m1 0h3m2 0h1m1 0h2m1 0h2m1 0h1M4 12.5h2m1 0h1m2 0h2m1 0h2m6 0h1m2 0h1m3 0h1m1 0h8m2 0h2m1 0h1m1 0h1m3 0h2m1 0h6m2 0h1m2 0h2m2 0h3m1 0h1m2 0h8m4 0h3m1 0h1m4 0h2m1 0h3m1 0h2M4 13.5h4m4 0h1m5 0h2m1 0h2m4 0h2m1 0h1m1 0h1m2 0h1m1 0h2m1 0h1m1 0h1m1 0h1m1 0h4m1 0h1m2 0h2m1 0h1m3 0h2m2 0h4m1 0h1m1 0h1m1 0h2m1 0h4m1 0h1m4 0h1m3 0h5m1 0h1m3 0h3M6 14.5h2m1 0h3m3 0h2m5 0h1m2 0h1m2 0h2m3 0h1m2 0h4m1 0h4m1 0h1m1 0h1m1 0h3m3 0h1m2 0h3m2 0h1m1 0h1m1 0h2m1 0h1m2 0h1m2 0h1m5 0h1m1 0h2m4 0h4m1 0h1m1 0h1m2 0h1m1 0h2M8 15.5h2m1 0h1m1 0h1m1 0h1m2 0h1m1 0h4m4 0h1m1 0h3m2 0h1m1 0h2m2 0h1m1 0h2m1 0h3m3 0h3m2 0h1m1 0h1m1 0h1m1 0h1m1 0h1m2 0h1m2 0h1m1 0h1m1 0h1m1 0h1m2 0h6m6 0h1m2 0h3m2 0h2m1 0h1M4 16.5h1m2 0h1m2 0h3m1 0h3m1 0h4m1 0h2m2 0h1m4 0h2m1 0h1m2 0h2m3 0h8m1 0h1m1 0h2m3 0h1m6 0h1m1 0h1m1 0h2m1 0h2m3 0h3m7 0h6m5 0h4m1 0h1M4 17.5h3m2 0h1m1 0h3m6 0h1m2 0h2m4 0h2m1 0h3m1 0h1m1 0h1m3 0h1m1 0h2m1 0h1m1 0h3m8 0h2m2 0h1m2 0h1m2 0h1m1 0h1m1 0h2m4 0h1m1 0h1m3 0h1m3 0h3m1 0h1m1 0h1m1 0h2m3 0h2M4 18.5h1m1 0h1m1 0h10m1 0h1m1 0h1m5 0h4m1 0h4m1 0h1m1 0h1m5 0h2m1 0h2m1 0h1m1 0h2m1 0h2m1 0h1m1 0h2m3 0h3m1 0h1m6 0h1m1 0h1m2 0h1m3 0h1m2 0h1m2 0h6m2 0h3M4 19.5h3m2 0h1m1 0h3m2 0h1m1 0h6m1 0h2m1 0h2m1 0h1m1 0h1m1 0h2m1 0h2m1 0h5m2 0h2m3 0h3m1 0h1m3 0h3m3 0h2m1 0h1m1 0h3m4 0h1m4 0h5m1 0h1m4 0h1m1 0h2m5 0h1M5 20.5h2m1 0h1m1 0h1m3 0h1m3 0h1m1 0h1m1 0h2m5 0h1m1 0h1m4 0h2m1 0h1m3 0h1m2 0h3m4 0h1m1 0h2m1 0h1m1 0h1m1 0h5m2 0h1m2 0h1m1 0h1m1 0h1m3 0h2m2 0h1m2 0h2m2 0h1m1 0h3m1 0h1m1 0h1m1 0h1m2 0h1M6 21.5h2m3 0h2m1 0h2m1 0h3m2 0h2m3 0h3m1 0h1m1 0h2m1 0h3m1 0h4m1 0h2m4 0h2m1 0h1m2 0h1m2 0h2m1 0h1m1 0h5m1 0h1m4 0h2m2 0h1m1 0h2m3 0h1m2 0h3m1 0h4m2 0h2m2 0h1M4 22.5h3m1 0h5m2 0h1m1 0h1m2 0h2m4 0h2m8 0h1m1 0h1m3 0h1m2 0h2m2 0h1m2 0h4m2 0h1m2 0h1m2 0h1m5 0h1m2 0h1m1 0h2m2 0h1m1 0h1m1 0h1m3 0h1m3 0h1m6 0h1m3 0h1M4 23.5h2m1 0h3m2 0h1m1 0h3m1 0h1m2 0h1m2 0h1m1 0h1m1 0h1m2 0h4m3 0h2m1 0h2m2 0h8m2 0h2m2 0h3m1 0h1m1 0h2m3 0h2m1 0h5m2 0h2m1 0h3m1 0h1m1 0h1m1 0h1m5 0h3m1 0h2m1 0h1M6 24.5h6m1 0h1m1 0h2m1 0h1m2 0h1m2 0h3m3 0h1m2 0h1m3 0h1m1 0h2m2 0h2m2 0h1m3 0h2m2 0h2m1 0h2m3 0h2m1 0h5m1 0h5m2 0h3m3 0h1m1 0h1m1 0h2m1 0h2m2 0h3m3 0h3M4 25.5h1m1 0h4m3 0h1m2 0h4m2 0h3m1 0h1m4 0h1m3 0h1m3 0h1m1 0h5m3 0h2m3 0h1m1 0h2m2 0h2m1 0h1m2 0h2m1 0h3m1 0h2m1 0h2m1 0h2m2 0h2m1 0h2m1 0h1m1 0h1m2 0h2m1 0h2m1 0h1m2 0h2M6 26.5h2m1 0h2m1 0h1m1 0h2m3 0h3m1 0h2m2 0h3m2 0h3m1 0h2m1 0h1m2 0h1m1 0h1m6 0h1m3 0h6m1 0h6m4 0h1m2 0h2m1 0h3m2 0h2m2 0h3m2 0h1m1 0h2m1 0h2m3 0h1M5 27.5h3m3 0h1m1 0h3m1 0h1m3 0h6m1 0h2m1 0h2m2 0h1m3 0h1m2 0h1m2 0h3m2 0h5m3 0h1m1 0h3m2 0h3m2 0h2m1 0h2m1 0h3m3 0h1m1 0h3m1 0h4m2 0h3m2 0h1m1 0h1m1 0h2M4 28.5h2m2 0h3m1 0h4m1 0h1m1 0h10m1 0h2m1 0h3m1 0h1m2 0h1m1 0h5m2 0h1m1 0h1m4 0h2m2 0h2m8 0h1m2 0h3m3 0h2m3 0h1m1 0h2m1 0h1m1 0h1m1 0h3m1 0h2m3 0h1M4 29.5h2m2 0h2m2 0h1m1 0h1m2 0h3m3 0h1m4 0h1m2 0h1m3 0h2m1 0h1m2 0h2m1 0h1m4 0h3m3 0h1m1 0h3m3 0h5m2 0h2m2 0h3m1 0h1m2 0h6m2 0h2m1 0h3m2 0h3m1 0h1m2 0h1M4 30.5h1m1 0h1m1 0h6m1 0h1m1 0h2m1 0h4m2 0h9m1 0h1m2 0h1m1 0h1m1 0h1m2 0h1m4 0h6m1 0h2m1 0h2m1 0h1m5 0h3m1 0h5m2 0h1m1 0h2m2 0h2m3 0h3m1 0h6m2 0h1M5 31.5h1m1 0h2m3 0h1m4 0h1m3 0h2m4 0h2m1 0h1m3 0h1m1 0h1m3 0h2m1 0h3m1 0h1m1 0h2m1 0h1m3 0h1m1 0h1m2 0h1m1 0h1m1 0h1m2 0h2m1 0h4m3 0h1m1 0h2m2 0h1m1 0h2m1 0h1m4 0h3m3 0h1m2 0h1M7 32.5h2m1 0h1m1 0h1m1 0h1m1 0h1m4 0h2m1 0h4m2 0h1m1 0h1m1 0h4m3 0h1m2 0h1m1 0h1m2 0h1m2 0h1m1 0h1m1 0h1m3 0h1m1 0h2m4 0h1m2 0h4m1 0h1m1 0h4m1 0h5m4 0h1m1 0h3m1 0h1m1 0h1m1 0h2M4 33.5h1m1 0h1m1 0h1m3 0h1m1 0h1m1 0h1m2 0h3m3 0h1m3 0h2m3 0h3m2 0h1m1 0h3m1 0h2m2 0h1m1 0h2m3 0h1m2 0h1m5 0h4m1 0h2m1 0h2m3 0h2m2 0h2m1 0h2m4 0h4m1 0h1m3 0h1m3 0h1M5 34.5h1m1 0h11m1 0h1m1 0h1m1 0h1m2 0h9m1 0h2m1 0h2m2 0h3m1 0h1m2 0h1m1 0h5m1 0h1m1 0h1m2 0h2m1 0h1m2 0h1m3 0h6m1 0h3m1 0h2m1 0h3m1 0h1m3 0h6m3 0h1M6 35.5h2m3 0h1m3 0h2m2 0h3m1 0h1m2 0h1m8 0h1m2 0h1m1 0h1m1 0h4m3 0h1m3 0h1m1 0h1m2 0h2m2 0h1m3 0h1m1 0h5m1 0h2m2 0h4m1 0h1m4 0h1m2 0h4m2 0h1m1 0h1M5 36.5h1m2 0h4m3 0h4m4 0h2m1 0h1m3 0h1m1 0h2m5 0h1m2 0h1m2 0h2m3 0h1m1 0h5m1 0h1m4 0h2m1 0h4m1 0h1m7 0h2m1 0h1m1 0h4m2 0h1m1 0h1m1 0h4m3 0h2m1 0h1M4 37.5h2m1 0h1m1 0h1m3 0h1m1 0h1m1 0h1m1 0h2m3 0h2m1 0h1m2 0h1m1 0h5m3 0h1m1 0h1m4 0h1m7 0h4m1 0h2m1 0h2m2 0h1m1 0h3m3 0h2m3 0h2m1 0h1m9 0h1m1 0h1m1 0h3m1 0h2m1 0h1M4 38.5h4m2 0h2m1 0h2m1 0h2m1 0h1m2 0h3m2 0h1m7 0h4m1 0h1m1 0h1m1 0h1m2 0h3m1 0h3m2 0h2m1 0h1m1 0h1m1 0h1m2 0h1m2 0h1m1 0h1m1 0h2m1 0h2m2 0h3m1 0h1m3 0h1m2 0h1m3 0h2m2 0h1m3 0h1M6 39.5h2m5 0h1m2 0h1m3 0h2m5 0h3m1 0h1m2 0h1m3 0h3m1 0h2m1 0h1m1 0h1m1 0h1m5 0h2m2 0h5m1 0h1m1 0h1m6 0h1m3 0h2m3 0h1m4 0h3m1 0h2m2 0h1m1 0h2m1 0h2M4 40.5h2m2 0h1m1 0h1m4 0h1m1 0h1m1 0h2m2 0h2m1 0h1m6 0h3m4 0h1m1 0h1m1 0h1m4 0h1m1 0h2m2 0h1m1 0h1m2 0h1m1 0h1m2 0h3m1 0h1m5 0h1m1 0h1m1 0h1m1 0h1m1 0h3m2 0h1m1 0h3m1 0h1m1 0h2m1 0h1m1 0h2M4 41.5h1m2 0h2m3 0h3m3 0h1m1 0h3m1 0h3m1 0h2m1 0h1m2 0h1m2 0h1m1 0h2m2 0h2m1 0h1m1 0h1m1 0h2m3 0h3m1 0h1m1 0h2m1 0h1m1 0h1m1 0h6m3 0h2m2 0h4m2 0h1m1 0h2m2 0h4m1 0h1m2 0h1m2 0h1M5 42.5h1m3 0h2m3 0h5m2 0h3m1 0h5m7 0h3m1 0h5m2 0h3m2 0h1m1 0h2m2 0h6m1 0h1m2 0h1m1 0h2m2 0h1m1 0h2m2 0h1m2 0h1m1 0h1m1 0h3m1 0h2m3 0h4m1 0h1M4 43.5h2m2 0h1m5 0h1m1 0h2m1 0h3m1 0h1m1 0h3m1 0h1m2 0h2m1 0h2m4 0h2m5 0h1m2 0h1m3 0h2m5 0h1m5 0h1m5 0h3m4 0h2m2 0h1m1 0h1m2 0h1m1 0h2m1 0h3m1 0h1m1 0h2m1 0h1M4 44.5h5m1 0h2m2 0h1m2 0h1m4 0h1m1 0h1m2 0h2m6 0h3m1 0h1m3 0h1m2 0h4m2 0h2m3 0h3m4 0h3m5 0h2m2 0h4m5 0h2m1 0h1m1 0h2m1 0h1m2 0h2M4 45.5h1m1 0h2m4 0h1m1 0h1m3 0h1m3 0h4m2 0h1m3 0h2m1 0h1m2 0h2m2 0h2m1 0h1m1 0h1m1 0h4m1 0h2m3 0h1m3 0h4m4 0h3m1 0h2m1 0h4m2 0h3m2 0h1m2 0h1m1 0h1m1 0h2m1 0h2m1 0h1M6 46.5h3m1 0h1m1 0h3m2 0h1m3 0h2m2 0h2m4 0h1m1 0h1m1 0h2m1 0h5m3 0h4m2 0h1m1 0h1m2 0h4m1 0h1m1 0h1m2 0h2m1 0h2m1 0h3m7 0h1m1 0h3m3 0h3m2 0h2m1 0h1m2 0h2M4 47.5h1m1 0h2m3 0h3m1 0h2m2 0h1m3 0h1m1 0h3m1 0h2m2 0h1m2 0h1m2 0h1m3 0h1m1 0h1m3 0h1m1 0h2m3 0h1m3 0h1m4 0h1m3 0h1m1 0h3m1 0h1m1 0h2m1 0h1m1 0h4m1 0h2m2 0h1m1 0h1m1 0h2m1 0h2M4 48.5h1m1 0h1m3 0h4m2 0h3m1 0h1m1 0h9m3 0h1m7 0h5m2 0h1m1 0h2m3 0h2m3 0h1m3 0h1m3 0h1m1 0h1m1 0h1m1 0h1m3 0h1m5 0h3m1 0h1m1 0h1m2 0h1m1 0h1m4 0h1m1 0h2M4 49.5h2m5 0h1m5 0h2m3 0h1m1 0h3m1 0h2m1 0h2m2 0h1m1 0h1m4 0h1m3 0h2m1 0h2m2 0h1m2 0h4m1 0h1m5 0h2m2 0h2m2 0h3m1 0h2m2 0h1m2 0h1m3 0h1m5 0h1m1 0h1m1 0h4M4 50.5h1m2 0h1m1 0h2m1 0h2m1 0h4m6 0h2m1 0h1m3 0h2m1 0h3m3 0h1m2 0h1m2 0h1m1 0h1m1 0h1m1 0h3m2 0h1m1 0h2m3 0h1m3 0h2m3 0h1m1 0h2m1 0h3m2 0h2m3 0h1m1 0h1m1 0h10M4 51.5h1m1 0h4m3 0h1m1 0h1m1 0h2m2 0h3m6 0h2m2 0h2m2 0h1m1 0h1m1 0h3m1 0h1m1 0h3m1 0h2m1 0h3m1 0h1m2 0h1m1 0h1m4 0h1m1 0h3m5 0h3m3 0h1m1 0h1m4 0h1m1 0h1m1 0h1m1 0h2m2 0h1M4 52.5h1m1 0h1m1 0h5m2 0h2m5 0h1m1 0h2m2 0h7m1 0h3m1 0h2m2 0h4m3 0h6m2 0h6m2 0h1m1 0h1m1 0h1m2 0h9m1 0h1m5 0h1m1 0h1m2 0h6m3 0h1M5 53.5h2m1 0h1m3 0h2m1 0h2m2 0h2m1 0h1m2 0h1m1 0h1m2 0h1m3 0h2m2 0h1m1 0h1m2 0h1m4 0h1m2 0h2m3 0h1m2 0h1m3 0h1m1 0h1m1 0h3m3 0h2m3 0h2m3 0h2m2 0h2m1 0h1m1 0h2m2 0h1m3 0h5M4 54.5h2m2 0h1m1 0h1m1 0h2m1 0h1m3 0h3m1 0h1m1 0h1m1 0h2m1 0h1m1 0h1m1 0h2m2 0h1m1 0h1m1 0h2m1 0h1m1 0h3m2 0h1m1 0h1m1 0h2m2 0h1m1 0h1m2 0h3m1 0h1m4 0h1m1 0h1m1 0h2m1 0h1m4 0h5m1 0h1m3 0h1m1 0h1m1 0h1m1 0h2M4 55.5h2m1 0h2m3 0h1m1 0h1m1 0h2m1 0h2m2 0h1m1 0h1m3 0h2m3 0h3m3 0h1m1 0h1m3 0h2m1 0h4m3 0h3m1 0h2m1 0h3m3 0h1m1 0h1m2 0h1m3 0h1m1 0h5m2 0h2m7 0h1m3 0h1m3 0h1M4 56.5h2m2 0h6m1 0h1m1 0h2m1 0h1m1 0h2m2 0h1m3 0h5m1 0h3m1 0h1m1 0h1m1 0h1m1 0h1m2 0h1m1 0h6m2 0h2m2 0h4m3 0h1m1 0h1m1 0h6m1 0h1m2 0h1m1 0h2m1 0h1m3 0h2m1 0h7m1 0h1M5 57.5h3m1 0h1m1 0h1m1 0h1m4 0h1m1 0h3m2 0h5m4 0h1m7 0h2m1 0h1m4 0h2m3 0h6m3 0h1m1 0h2m1 0h1m1 0h2m2 0h1m1 0h5m2 0h2m1 0h1m2 0h2m5 0h1m1 0h3m2 0h1M4 58.5h1m1 0h1m1 0h3m1 0h1m2 0h2m1 0h1m1 0h1m1 0h2m2 0h1m1 0h6m3 0h3m1 0h2m2 0h1m2 0h1m2 0h3m1 0h3m1 0h5m2 0h1m3 0h2m2 0h1m2 0h3m2 0h4m1 0h1m1 0h4m1 0h1m2 0h1m2 0h2m2 0h1M4 59.5h1m2 0h1m1 0h1m1 0h7m1 0h3m1 0h2m1 0h1m3 0h1m1 0h1m2 0h2m1 0h1m1 0h1m1 0h1m2 0h8m1 0h3m4 0h3m1 0h5m1 0h1m3 0h2m1 0h9m1 0h2m1 0h1m1 0h4m5 0h1M5 60.5h4m1 0h2m2 0h3m1 0h2m3 0h2m1 0h1m2 0h1m1 0h2m2 0h1m3 0h1m2 0h1m2 0h1m1 0h1m1 0h1m4 0h1m2 0h1m1 0h1m1 0h1m1 0h4m3 0h2m2 0h1m1 0h3m1 0h2m5 0h1m3 0h8m2 0h3M9 61.5h1m4 0h2m2 0h4m1 0h1m3 0h2m1 0h6m3 0h2m1 0h2m1 0h1m1 0h1m2 0h1m12 0h1m2 0h2m6 0h2m1 0h5m1 0h3m3 0h2m1 0h1m1 0h3m3 0h1m1 0h1M5 62.5h1m2 0h1m1 0h3m1 0h1m2 0h1m2 0h3m1 0h2m3 0h1m3 0h1m1 0h1m1 0h1m3 0h1m1 0h1m1 0h4m9 0h3m2 0h2m2 0h1m1 0h3m1 0h2m1 0h3m1 0h1m1 0h2m1 0h5m2 0h1m1 0h1m6 0h2m1 0h1M4 63.5h5m2 0h2m1 0h2m2 0h1m1 0h1m3 0h1m1 0h5m2 0h1m2 0h2m4 0h3m3 0h1m2 0h5m3 0h2m1 0h1m2 0h4m1 0h2m1 0h1m1 0h1m1 0h1m2 0h6m4 0h6m1 0h2m1 0h4M4 64.5h3m2 0h2m1 0h1m2 0h2m1 0h1m2 0h1m1 0h1m1 0h1m1 0h2m1 0h2m1 0h2m1 0h1m6 0h2m3 0h2m1 0h1m1 0h1m1 0h4m1 0h1m2 0h2m1 0h2m2 0h3m1 0h1m2 0h1m1 0h2m3 0h1m1 0h1m1 0h2m4 0h1m1 0h1m2 0h2m3 0h1M5 65.5h2m5 0h1m1 0h2m1 0h1m1 0h4m1 0h2m1 0h1m1 0h1m1 0h2m2 0h1m1 0h2m3 0h2m1 0h2m2 0h2m4 0h1m2 0h4m2 0h3m1 0h3m1 0h1m1 0h1m4 0h1m2 0h2m1 0h2m7 0h1m2 0h1m3 0h4M8 66.5h5m1 0h1m1 0h1m4 0h1m1 0h2m1 0h1m1 0h1m1 0h2m1 0h3m1 0h2m3 0h2m1 0h2m3 0h4m1 0h1m1 0h1m1 0h1m1 0h1m2 0h2m2 0h3m2 0h1m2 0h2m2 0h1m1 0h3m3 0h4m1 0h3m3 0h2m1 0h3M4 67.5h3m1 0h2m1 0h1m2 0h4m3 0h1m1 0h2m2 0h1m1 0h5m4 0h1m2 0h1m1 0h2m1 0h3m1 0h1m2 0h1m1 0h1m3 0h1m1 0h1m1 0h1m2 0h1m1 0h4m1 0h1m1 0h5m1 0h3m4 0h2m1 0h3m2 0h1m1 0h1m1 0h1m2 0h1M5 68.5h2m1 0h3m4 0h1m1 0h1m1 0h5m2 0h1m1 0h5m2 0h3m2 0h3m3 0h3m1 0h1m2 0h1m1 0h2m1 0h1m2 0h1m2 0h3m2 0h3m1 0h3m6 0h1m2 0h1m2 0h2m1 0h1m2 0h1m1 0h1m4 0h3M4 69.5h1m1 0h1m2 0h1m2 0h1m3 0h1m1 0h1m7 0h5m1 0h4m1 0h4m1 0h2m1 0h2m1 0h1m1 0h2m1 0h1m1 0h2m1 0h1m1 0h2m2 0h2m2 0h2m2 0h1m3 0h1m4 0h1m4 0h1m1 0h1m2 0h3m3 0h3m1 0h3M5 70.5h2m2 0h3m1 0h2m4 0h3m1 0h2m1 0h2m1 0h1m1 0h1m1 0h1m1 0h1m2 0h1m1 0h1m1 0h3m2 0h2m1 0h2m1 0h2m1 0h3m1 0h1m1 0h1m2 0h1m4 0h4m1 0h3m2 0h1m2 0h3m1 0h1m1 0h1m1 0h8m1 0h1m1 0h1m1 0h1M5 71.5h2m1 0h2m2 0h1m2 0h1m3 0h1m3 0h2m1 0h5m2 0h1m5 0h1m1 0h1m3 0h3m1 0h1m1 0h2m3 0h1m5 0h1m3 0h2m9 0h1m1 0h1m1 0h2m1 0h2m2 0h1m1 0h1m1 0h1m1 0h1m1 0h9M7 72.5h1m2 0h1m1 0h1m1 0h1m4 0h3m3 0h1m8 0h3m2 0h1m1 0h4m2 0h1m3 0h1m1 0h1m1 0h1m1 0h1m3 0h1m1 0h2m2 0h1m1 0h1m1 0h2m1 0h1m2 0h1m2 0h1m1 0h1m1 0h3m3 0h2m1 0h3m1 0h2m5 0h1M5 73.5h2m8 0h3m1 0h1m2 0h2m1 0h4m4 0h4m1 0h1m4 0h1m1 0h2m2 0h3m6 0h5m4 0h3m1 0h1m2 0h2m3 0h1m1 0h4m1 0h1m1 0h2m1 0h5m1 0h4m1 0h2M8 74.5h5m1 0h5m1 0h1m5 0h13m1 0h1m1 0h2m1 0h1m1 0h1m1 0h2m1 0h6m2 0h1m4 0h2m1 0h1m2 0h9m2 0h1m1 0h1m1 0h1m1 0h2m1 0h1m4 0h7m1 0h1M4 75.5h1m2 0h2m3 0h3m1 0h2m1 0h1m1 0h4m4 0h2m3 0h2m4 0h2m4 0h3m1 0h3m3 0h1m1 0h3m1 0h1m1 0h1m1 0h3m2 0h1m1 0h2m3 0h2m1 0h1m3 0h1m1 0h1m1 0h2m5 0h1m3 0h4M5 76.5h1m2 0h1m1 0h1m1 0h1m1 0h1m1 0h2m3 0h1m2 0h3m3 0h1m1 0h1m1 0h2m1 0h2m1 0h3m1 0h1m1 0h1m1 0h5m1 0h1m1 0h1m1 0h1m1 0h2m2 0h4m6 0h1m1 0h1m1 0h10m2 0h3m1 0h3m1 0h1m1 0h5M5 77.5h4m3 0h3m2 0h2m1 0h1m2 0h2m1 0h1m1 0h1m1 0h1m3 0h2m3 0h1m2 0h3m1 0h4m2 0h1m3 0h3m1 0h2m1 0h1m1 0h1m1 0h2m2 0h1m2 0h1m3 0h6m2 0h1m2 0h1m2 0h1m1 0h3m3 0h1m1 0h3M4 78.5h1m2 0h6m1 0h3m2 0h2m6 0h8m3 0h1m1 0h3m1 0h1m1 0h1m1 0h2m2 0h6m1 0h2m2 0h2m3 0h2m1 0h2m1 0h5m1 0h4m6 0h1m1 0h2m2 0h5m1 0h1M5 79.5h4m3 0h1m2 0h1m4 0h3m1 0h3m1 0h1m2 0h1m4 0h2m1 0h1m1 0h5m1 0h1m1 0h4m1 0h2m1 0h3m1 0h2m4 0h2m3 0h2m3 0h1m1 0h1m1 0h1m3 0h1m2 0h1m1 0h2m4 0h2m1 0h6M5 80.5h1m1 0h1m1 0h2m2 0h3m4 0h1m5 0h1m3 0h1m2 0h1m1 0h1m2 0h1m1 0h1m8 0h1m3 0h2m4 0h1m2 0h3m1 0h1m1 0h5m1 0h1m2 0h2m1 0h2m4 0h1m3 0h1m5 0h1m1 0h2m1 0h1m1 0h1M6 81.5h1m4 0h2m1 0h2m2 0h1m1 0h1m1 0h2m4 0h1m3 0h2m4 0h1m4 0h2m1 0h1m1 0h1m4 0h4m4 0h1m5 0h6m1 0h3m1 0h1m5 0h5m4 0h1m3 0h2m1 0h3M7 82.5h1m2 0h2m1 0h2m1 0h1m1 0h2m5 0h2m2 0h2m3 0h3m2 0h4m1 0h1m1 0h4m5 0h5m1 0h1m2 0h1m4 0h2m3 0h2m1 0h2m1 0h1m2 0h3m1 0h4m2 0h3m1 0h1m1 0h1m1 0h1m1 0h1M4 83.5h2m1 0h3m8 0h3m1 0h1m1 0h2m3 0h3m1 0h2m2 0h1m3 0h1m1 0h4m3 0h9m1 0h1m4 0h3m1 0h1m1 0h1m5 0h1m1 0h5m1 0h3m1 0h6m2 0h4m2 0h1M4 84.5h1m1 0h1m2 0h3m3 0h2m1 0h2m3 0h1m2 0h1m1 0h3m2 0h2m1 0h1m2 0h2m1 0h1m1 0h2m1 0h2m1 0h3m2 0h3m1 0h1m4 0h3m1 0h3m3 0h3m1 0h1m1 0h2m4 0h2m2 0h2m1 0h3m2 0h7M4 85.5h1m7 0h1m1 0h2m2 0h1m2 0h2m1 0h1m5 0h4m1 0h1m1 0h1m1 0h2m4 0h3m2 0h3m2 0h2m3 0h1m1 0h1m2 0h4m4 0h4m2 0h1m1 0h2m1 0h1m1 0h1m6 0h1m7 0h4M4 86.5h1m1 0h2m1 0h2m2 0h1m1 0h3m3 0h1m1 0h1m7 0h1m2 0h1m1 0h1m2 0h1m1 0h1m1 0h1m1 0h4m1 0h1m1 0h1m1 0h4m3 0h2m3 0h1m2 0h1m1 0h6m3 0h2m1 0h1m1 0h1m1 0h3m1 0h1m1 0h1m2 0h2m1 0h5M4 87.5h1m2 0h1m1 0h1m3 0h1m1 0h2m1 0h1m2 0h3m4 0h1m1 0h1m1 0h1m5 0h2m1 0h4m2 0h4m1 0h1m3 0h4m1 0h4m1 0h1m2 0h2m1 0h3m5 0h1m1 0h2m1 0h3m2 0h1m3 0h1m2 0h1m4 0h1m1 0h1M4 88.5h1m1 0h1m3 0h6m1 0h5m1 0h1m4 0h1m2 0h2m2 0h1m1 0h1m1 0h1m1 0h1m1 0h1m5 0h5m3 0h3m1 0h2m1 0h1m1 0h2m3 0h4m2 0h4m1 0h4m2 0h1m1 0h5m2 0h2m2 0h2m1 0h1M4 89.5h1m1 0h1m1 0h2m2 0h1m2 0h4m2 0h2m3 0h1m4 0h1m2 0h1m2 0h2m2 0h1m2 0h1m1 0h8m1 0h1m1 0h2m2 0h6m1 0h1m3 0h2m3 0h1m1 0h2m1 0h1m2 0h4m1 0h4m1 0h1m1 0h1m1 0h1m2 0h2M5 90.5h1m3 0h2m1 0h3m1 0h4m1 0h2m3 0h3m1 0h6m1 0h1m1 0h1m1 0h3m1 0h2m1 0h3m7 0h1m1 0h2m3 0h1m3 0h3m1 0h1m2 0h1m2 0h3m1 0h3m2 0h3m2 0h2m4 0h1m2 0h1M4 91.5h2m3 0h1m1 0h2m2 0h5m1 0h3m1 0h1m1 0h2m3 0h1m2 0h3m2 0h2m1 0h3m1 0h2m2 0h1m1 0h2m1 0h1m1 0h1m1 0h5m1 0h2m1 0h2m1 0h2m1 0h3m4 0h1m1 0h1m5 0h4m1 0h7m2 0h1M4 92.5h2m4 0h2m1 0h1m3 0h1m1 0h4m1 0h1m2 0h3m1 0h1m1 0h4m1 0h2m3 0h2m2 0h1m1 0h2m2 0h1m2 0h2m1 0h3m5 0h1m1 0h4m1 0h1m1 0h1m1 0h6m1 0h3m2 0h2m4 0h1m3 0h2m1 0h2M5 93.5h3m3 0h1m1 0h1m1 0h1m1 0h1m2 0h2m1 0h1m2 0h1m1 0h2m1 0h1m2 0h2m2 0h1m4 0h1m1 0h1m1 0h3m1 0h1m1 0h1m1 0h1m2 0h2m7 0h6m3 0h1m3 0h2m2 0h2m2 0h2m3 0h2m1 0h1m1 0h2m1 0h1m2 0h1M4 94.5h1m2 0h2m1 0h1m4 0h1m1 0h2m1 0h2m1 0h1m1 0h1m2 0h3m1 0h5m6 0h3m1 0h1m1 0h2m2 0h2m1 0h1m1 0h1m1 0h2m1 0h1m4 0h3m2 0h2m1 0h2m3 0h4m2 0h3m2 0h1m1 0h1m1 0h1m1 0h1m1 0h2m1 0h2M4 95.5h1m1 0h2m1 0h1m2 0h2m1 0h1m1 0h1m4 0h7m1 0h1m3 0h1m1 0h3m7 0h2m2 0h2m2 0h4m2 0h1m1 0h3m1 0h6m2 0h2m1 0h1m1 0h1m1 0h1m1 0h2m2 0h1m2 0h2m1 0h2m1 0h2m1 0h2m1 0h2M8 96.5h1m1 0h2m4 0h1m1 0h5m1 0h2m1 0h1m1 0h9m1 0h1m2 0h4m2 0h3m1 0h5m1 0h1m3 0h2m1 0h1m3 0h1m2 0h1m1 0h7m2 0h1m1 0h1m1 0h2m1 0h2m2 0h1m1 0h5m3 0h1M12 97.5h1m1 0h3m8 0h2m3 0h1m3 0h1m1 0h3m1 0h3m1 0h1m1 0h1m1 0h5m3 0h1m5 0h1m1 0h1m3 0h3m3 0h1m3 0h1m2 0h1m1 0h1m3 0h1m1 0h1m1 0h3m1 0h2m3 0h5M4 98.5h7m1 0h5m1 0h2m3 0h4m2 0h2m1 0h1m1 0h8m3 0h2m1 0h3m1 0h1m1 0h1m1 0h6m1 0h3m2 0h1m1 0h1m3 0h1m1 0h1m1 0h3m1 0h1m3 0h2m2 0h3m1 0h1m1 0h1m1 0h1m1 0h3m1 0h1M4 99.5h1m5 0h1m2 0h2m4 0h1m2 0h1m1 0h1m1 0h2m1 0h2m3 0h1m1 0h1m2 0h2m1 0h1m2 0h1m1 0h3m1 0h2m3 0h1m2 0h2m6 0h1m3 0h2m1 0h1m3 0h3m1 0h1m1 0h3m1 0h1m3 0h1m2 0h2m3 0h2m2 0h1M4 100.5h1m1 0h3m1 0h1m3 0h1m1 0h1m1 0h2m1 0h1m1 0h1m1 0h1m3 0h6m1 0h2m2 0h3m2 0h1m2 0h1m1 0h7m2 0h1m1 0h2m3 0h1m1 0h4m2 0h8m4 0h1m1 0h3m1 0h1m1 0h7m1 0h1M4 101.5h1m1 0h3m1 0h1m1 0h1m2 0h1m1 0h1m2 0h1m1 0h1m1 0h2m1 0h1m4 0h2m1 0h3m1 0h2m1 0h1m1 0h2m1 0h2m2 0h3m1 0h3m1 0h2m1 0h1m4 0h2m4 0h1m2 0h1m1 0h2m2 0h2m2 0h2m3 0h3m1 0h1m1 0h1m3 0h1m1 0h2M4 102.5h1m1 0h3m1 0h1m2 0h1m1 0h1m3 0h1m1 0h1m2 0h2m1 0h1m1 0h3m1 0h1m4 0h1m1 0h1m2 0h2m5 0h3m1 0h2m2 0h1m1 0h1m1 0h4m1 0h2m1 0h1m4 0h3m1 0h1m4 0h1m5 0h1m2 0h1m2 0h1m1 0h2m1 0h2m1 0h1M4 103.5h1m5 0h1m1 0h3m3 0h1m2 0h1m1 0h3m3 0h1m1 0h1m1 0h1m1 0h2m6 0h4m1 0h1m1 0h3m5 0h2m4 0h1m3 0h1m1 0h4m1 0h1m1 0h1m2 0h2m1 0h1m1 0h1m1 0h1m1 0h1m2 0h1m2 0h2m1 0h2m2 0h2M4 104.5h7m1 0h1m4 0h1m2 0h2m1 0h1m1 0h3m1 0h1m2 0h8m1 0h2m1 0h2m1 0h5m2 0h1m2 0h3m2 0h3m2 0h2m1 0h2m2 0h1m3 0h4m2 0h2m1 0h1m1 0h1m1 0h3m1 0h5m2 0h2"/></svg>
