<svg xmlns="http://www.w3.org/2000/svg" viewBox="0 0 113 113" shape-rendering="crispEdges"><path fill="#ffffff" d="M0 0h113v113H0z"/><path stroke="#000000" d="M4 4.5h7m1 0h5m1 0h1m3 0h1m3 0h2m3 0h1m1 0h5m1 0h1m1 0h4m1 0h2m1 0h1m2 0h1m1 0h2m1 0h2m1 0h3m1 0h1m1 0h1m1 0h4m2 0h2m6 0h3m2 0h3m1 0h3m3 0h2m3 0h7M4 5.5h1m5 0h1m1 0h1m1 0h3m2 0h1m2 0h1m2 0h4m1 0h2m1 0h4m2 0h1m1 0h1m5 0h2m3 0h1m1 0h3m3 0h2m1 0h3m1 0h3m1 0h1m1 0h2m1 0h2m1 0h2m2 0h2m2 0h1m1 0h1m1 0h1m3 0h2m1 0h1m3 0h1m5 0h1M4 6.5h1m1 0h3m1 0h1m1 0h1m1 0h3m1 0h2m2 0h2m1 0h2m1 0h1m2 0h1m3 0h7m2 0h2m1 0h1m2 0h1m1 0h2m1 0h2m4 0h1m3 0h1m2 0h4m1 0h2m3 0h1m7 0h3m1 0h2m1 0h1m1 0h1m1 0h3m2 0h1m1 0h3m1 0h1M4 7.5h1m1 0h3m1 0h1m1 0h3m1 0h5m2 0h1m1 0h2m4 0h2m3 0h1m2 0h2m2 0h1m2 0h1m1 0h2m1 0h1m1 0h1m3 0h1m1 0h1m1 0h3m1 0h2m2 0h3m2 0h1m2 0h1m1 0h1m4 0h1m5 0h3m1 0h4m2 0h1m1 0h1m1 0h3m1 0h1M4 8.5h1m1 0h3m1 0h1m2 0h1m6 0h1m1 0h1m1 0h2m2 0h5m4 0h1m1 0h5m1 0h1m2 0h2m1 0h24m1 0h5m2 0h1m1 0h1m1 0h2m4 0h5m1 0h2m1 0h1m1 0h3m1 0h1M4 9.5h1m5 0h1m1 0h2m2 0h1m1 0h3m2 0h3m2 0h1m3 0h5m3 0h2m2 0h2m1 0h1m2 0h1m1 0h1m3 0h4m1 0h2m1 0h1m1 0h1m3 0h1m1 0h1m1 0h1m1 0h1m3 0h4m3 0h4m3 0h1m4 0h1m2 0h1m5 0h1M4 10.5h7m1 0h1m1 0h1m1 0h1m1 0h1m1 0h1m1 0h1m1 0h1m1 0h1m1 0h1m1 0h1m1 0h1m1 0h1m1 0h1m1 0h1m1 0h1m1 0h1m1 0h1m1 0h1m1 0h1m1 0h1m1 0h1m1 0h1m1 0h1m1 0h1m1 0h1m1 0h1m1 0h1m1 0h1m1 0h1m1 0h1m1 0h1m1 0h1m1 0h1m1 0h1m1 0h1m1 0h1m1 0h1m1 0h1m1 0h1m1 0h1m1 0h1m1 0h1m1 0h1m1 0h1m1 0h1m1 0h7M15 11.5h1m2 0h2m2 0h1m3 0h3m3 0h2m4 0h1m1 0h2m8 0h1m1 0h1m3 0h1m1 0h1m3 0h1m1 0h1m3 0h1m1 0h1m3 0h1m1 0h1m3 0h1m1 0h1m1 0h1m1 0h3m1 0h1m2 0h1m4 0h1M4 12.5h2m2 0h3m2 0h3m6 0h1m1 0h3m1 0h5m3 0h1m1 0h1m2 0h2m3 0h2m1 0h2m1 0h5m1 0h1m3 0h2m1 0h2m2 0h1m1 0h1m4 0h7m2 0h1m3 0h2m1 0h1m2 0h3m1 0h2m2 0h1m1 0h4M5 13.5h3m1 0h1m2 0h2m5 0h1m3 0h1m3 0h2m1 0h1m5 0h1m3 0h3m2 0h3m1 0h2m4 0h2m1 0h1m1 0h1m1 0h1m1 0h4m4 0h3m1 0h1m1 0h1m1 0h1m2 0h2m1 0h1m2 0h1m1 0h1m1 0h1m1 0h1m1 0h5m4 0h2M4 14.5h1m1 0h1m1 0h4m1 0h1m1 0h4m1 0h1m4 0h1m1 0h1m1 0h1m2 0h3m4 0h1m1 0h1m3 0h1m5 0h2m2 0h5m2 0h1m3 0h2m2 0h1m1 0h3m1 0h1m1 0h6m1 0h1m1 0h2m3 0h1m3 0h1m1 0h2m2 0h1m2 0h3M7 15.5h1m1 0h1m4 0h3m1 0h2m5 0h1m1 0h6m1 0h2m1 0h2m1 0h2m1 0h1m3 0h1m2 0h1m2 0h2m2 0h1m1 0h3m1 0h1m2 0h1m1 0h2m1 0h3m3 0h1m1 0h3m4 0h2m1 0h1m2 0h2m1 0h1m1 0h2m1 0h1m1 0h5m1 0h1M8 16.5h3m2 0h3m2 0h2m2 0h2m2 0h1m1 0h2m1 0h1m5 0h1m4 0h5m1 0h3m5 0h1m3 0h5m1 0h2m3 0h2m1 0h3m1 0h1m2 0h2m2 0h2m1 0h1m6 0h4m2 0h1m2 0h1m3 0h1M4 17.5h1m1 0h3m2 0h1m1 0h1m1 0h7m1 0h1m2 0h1m1 0h1m1 0h1m2 0h2m1 0h4m1 0h2m2 0h1m1 0h3m3 0h1m1 0h2m1 0h5m1 0h3m1 0h1m3 0h2m7 0h1m1 0h1m1 0h1m2 0h1m2 0h1m1 0h2m1 0h1m2 0h2m1 0h1m2 0h1m2 0h1M6 18.5h1m1 0h4m1 0h1m1 0h2m1 0h1m6 0h2m1 0h1m1 0h2m3 0h3m1 0h2m1 0h3m1 0h1m1 0h1m1 0h2m1 0h2m2 0h1m1 0h2m2 0h1m5 0h3m1 0h3m1 0h2m3 0h2m4 0h1m1 0h3m5 0h1m2 0h1m1 0h3m1 0h1M7 19.5h3m3 0h3m2 0h2m1 0h2m1 0h4m1 0h1m1 0h2m3 0h1m1 0h1m1 0h2m2 0h2m1 0h2m2 0h5m3 0h1m1 0h3m6 0h2m1 0h2m2 0h3m1 0h1m2 0h1m3 0h4m1 0h1m4 0h2m3 0h1m1 0h3M4 20.5h1m3 0h3m1 0h2m1 0h2m2 0h1m2 0h1m2 0h4m4 0h2m4 0h1m1 0h3m4 0h2m1 0h1m1 0h2m1 0h3m2 0h1m1 0h1m3 0h3m1 0h1m1 0h1m3 0h1m4 0h3m1 0h2m1 0h2m3 0h3m2 0h2m1 0h1m2 0h2M4 21.5h1m2 0h3m1 0h4m1 0h1m1 0h2m2 0h1m2 0h6m1 0h1m1 0h3m5 0h3m2 0h1m5 0h6m1 0h2m1 0h1m1 0h1m2 0h3m3 0h1m1 0h2m1 0h1m1 0h1m3 0h1m2 0h1m1 0h1m1 0h1m1 0h1m1 0h3m2 0h2m2 0h4M8 22.5h1m1 0h1m3 0h2m2 0h1m1 0h2m1 0h4m7 0h2m1 0h1m1 0h1m3 0h2m1 0h1m3 0h1m4 0h1m1 0h2m2 0h1m1 0h4m1 0h2m4 0h1m1 0h4m5 0h1m3 0h1m3 0h1m4 0h1m5 0h4M4 23.5h4m1 0h1m1 0h1m1 0h3m1 0h1m2 0h1m4 0h1m4 0h1m1 0h1m1 0h1m1 0h2m2 0h2m3 0h2m2 0h5m1 0h1m4 0h1m1 0h2m3 0h3m1 0h2m2 0h2m1 0h5m3 0h3m1 0h4m1 0h1m1 0h2m1 0h4m3 0h2M4 24.5h1m2 0h5m2 0h1m1 0h5m1 0h1m1 0h2m1 0h1m1 0h2m1 0h3m2 0h3m1 0h1m2 0h1m3 0h3m2 0h1m2 0h5m2 0h3m1 0h1m3 0h1m2 0h1m3 0h4m1 0h3m5 0h1m1 0h1m1 0h1m3 0h1m2 0h6M4 25.5h2m2 0h2m2 0h1m1 0h1m2 0h1m1 0h1m3 0h1m1 0h1m3 0h3m2 0h2m4 0h2m1 0h4m3 0h3m1 0h1m2 0h3m1 0h1m2 0h1m5 0h2m1 0h2m2 0h1m3 0h1m8 0h1m2 0h1m6 0h1m2 0h2m1 0h2M5 26.5h1m4 0h3m1 0h2m1 0h2m3 0h2m1 0h1m1 0h2m1 0h2m1 0h1m1 0h1m1 0h1m1 0h2m1 0h2m7 0h1m1 0h5m3 0h1m4 0h1m1 0h5m2 0h3m1 0h1m3 0h1m1 0h3m2 0h1m1 0h1m1 0h2m1 0h1m1 0h1m1 0h1m1 0h2m1 0h3M5 27.5h1m1 0h1m1 0h1m1 0h3m1 0h4m3 0h1m3 0h3m3 0h4m2 0h1m1 0h1m1 0h3m2 0h1m3 0h2m1 0h1m1 0h1m1 0h1m7 0h1m2 0h2m2 0h1m1 0h1m2 0h1m4 0h1m1 0h1m5 0h1m2 0h1m1 0h1m1 0h4m6 0h1M6 28.5h7m2 0h2m2 0h2m3 0h1m2 0h8m1 0h1m3 0h1m1 0h1m3 0h3m1 0h9m1 0h3m1 0h2m2 0h1m2 0h1m2 0h7m1 0h3m1 0h1m1 0h1m1 0h2m5 0h1m2 0h5M5 29.5h1m1 0h2m3 0h2m4 0h2m1 0h3m1 0h1m1 0h2m3 0h1m1 0h4m2 0h2m1 0h1m3 0h3m2 0h1m3 0h5m1 0h1m3 0h1m3 0h2m4 0h1m3 0h1m1 0h4m1 0h3m2 0h1m1 0h3m2 0h2m3 0h1m1 0h1M5 30.5h4m1 0h1m1 0h1m3 0h1m3 0h1m4 0h1m1 0h2m1 0h1m1 0h2m3 0h2m1 0h1m2 0h1m1 0h1m3 0h1m1 0h2m1 0h1m1 0h2m2 0h1m3 0h1m1 0h1m1 0h1m2 0h1m2 0h3m1 0h1m1 0h2m1 0h1m1 0h1m1 0h1m1 0h1m1 0h1m1 0h2m5 0h1m1 0h1m1 0h3M4 31.5h1m3 0h1m3 0h1m3 0h2m4 0h3m2 0h2m3 0h2m2 0h1m1 0h1m3 0h1m1 0h2m1 0h2m3 0h1m3 0h1m1 0h2m1 0h2m1 0h3m2 0h1m3 0h4m3 0h1m2 0h2m2 0h1m2 0h1m2 0h1m1 0h4m1 0h1m3 0h3M6 32.5h7m2 0h1m1 0h2m1 0h2m1 0h2m3 0h5m4 0h1m2 0h1m1 0h1m2 0h1m1 0h1m2 0h1m1 0h6m2 0h5m1 0h1m2 0h1m2 0h2m1 0h6m2 0h4m1 0h3m2 0h1m1 0h2m3 0h5m2 0h2M4 33.5h1m2 0h1m4 0h2m7 0h2m1 0h2m1 0h1m2 0h1m1 0h2m1 0h2m2 0h4m2 0h2m2 0h1m2 0h1m1 0h2m2 0h1m1 0h1m2 0h6m1 0h3m1 0h1m2 0h2m3 0h4m2 0h1m1 0h7m1 0h2m1 0h6M6 34.5h1m1 0h5m6 0h3m1 0h1m1 0h4m2 0h2m6 0h2m2 0h1m4 0h2m1 0h2m2 0h1m5 0h1m2 0h2m2 0h4m2 0h2m1 0h3m1 0h2m2 0h1m1 0h3m1 0h1m1 0h2m1 0h2m2 0h2m2 0h1m2 0h1M4 35.5h2m1 0h1m1 0h1m6 0h1m2 0h1m2 0h1m1 0h1m1 0h2m1 0h7m2 0h1m3 0h2m1 0h3m3 0h1m3 0h3m6 0h1m2 0h3m3 0h1m2 0h3m2 0h6m2 0h4m3 0h1m1 0h1m1 0h1m1 0h3m1 0h2M5 36.5h6m1 0h1m1 0h1m2 0h1m1 0h1m4 0h1m2 0h1m6 0h1m1 0h1m1 0h1m1 0h1m1 0h1m1 0h1m1 0h4m7 0h1m2 0h1m1 0h1m1 0h2m2 0h2m2 0h1m1 0h2m1 0h1m1 0h1m2 0h1m3 0h1m5 0h1m4 0h1m4 0h1m2 0h3M4 37.5h1m3 0h2m2 0h6m1 0h2m2 0h1m4 0h1m2 0h5m1 0h1m1 0h1m1 0h3m1 0h3m2 0h1m1 0h4m3 0h2m1 0h1m1 0h1m1 0h1m2 0h1m1 0h1m1 0h2m1 0h1m2 0h1m1 0h2m2 0h1m1 0h1m4 0h4m1 0h3m1 0h3m3 0h1M4 38.5h1m1 0h1m1 0h3m2 0h1m1 0h1m4 0h2m1 0h1m1 0h2m2 0h1m1 0h1m1 0h1m2 0h1m1 0h1m5 0h1m5 0h2m4 0h1m1 0h5m1 0h2m2 0h3m1 0h1m1 0h3m2 0h4m2 0h3m1 0h1m3 0h1m1 0h1m2 0h2m3 0h2m1 0h1m1 0h1M5 39.5h1m1 0h1m3 0h3m1 0h1m2 0h7m1 0h2m2 0h1m4 0h1m1 0h3m1 0h1m2 0h2m4 0h4m2 0h2m1 0h3m1 0h1m2 0h1m2 0h1m1 0h1m1 0h3m1 0h2m4 0h3m1 0h3m1 0h5m5 0h4m2 0h1M5 40.5h1m1 0h1m1 0h2m5 0h2m1 0h7m1 0h1m1 0h1m1 0h1m3 0h1m1 0h1m1 0h3m1 0h2m4 0h2m1 0h1m1 0h2m2 0h3m3 0h3m1 0h1m2 0h2m5 0h1m1 0h1m2 0h1m1 0h2m1 0h3m4 0h1m1 0h1m1 0h4m3 0h2M5 41.5h2m1 0h1m4 0h1m5 0h2m1 0h2m2 0h3m2 0h2m1 0h3m2 0h3m2 0h2m2 0h1m1 0h1m2 0h3m3 0h4m2 0h2m1 0h1m2 0h1m1 0h1m1 0h1m3 0h1m1 0h1m4 0h2m1 0h2m3 0h2m1 0h1m2 0h2m3 0h2M5 42.5h3m2 0h1m2 0h2m1 0h2m1 0h1m8 0h1m1 0h1m1 0h2m1 0h1m1 0h2m1 0h1m1 0h2m3 0h1m3 0h1m1 0h1m2 0h1m5 0h3m1 0h2m1 0h1m1 0h1m1 0h4m1 0h6m1 0h2m1 0h4m1 0h1m1 0h3m3 0h1m3 0h2M4 43.5h1m3 0h1m2 0h1m4 0h1m3 0h1m5 0h2m1 0h2m9 0h2m5 0h1m1 0h4m2 0h1m3 0h3m4 0h1m1 0h3m1 0h1m1 0h2m1 0h2m1 0h3m2 0h1m1 0h1m1 0h1m5 0h1m1 0h2m1 0h1m5 0h1M4 44.5h3m1 0h1m1 0h1m2 0h1m1 0h8m1 0h2m3 0h2m1 0h1m1 0h1m1 0h4m1 0h1m5 0h3m1 0h2m1 0h3m1 0h2m3 0h2m2 0h1m1 0h3m2 0h1m2 0h2m2 0h6m2 0h2m2 0h1m1 0h1m1 0h2m7 0h1M4 45.5h2m1 0h1m1 0h1m3 0h2m1 0h2m1 0h3m2 0h2m2 0h1m1 0h1m2 0h5m2 0h1m1 0h8m1 0h1m4 0h1m1 0h1m2 0h1m1 0h2m2 0h3m1 0h3m2 0h4m2 0h1m3 0h1m4 0h1m2 0h3m1 0h2m1 0h2m1 0h5M9 46.5h4m5 0h1m1 0h3m2 0h1m1 0h1m5 0h2m2 0h1m1 0h1m2 0h6m2 0h1m1 0h2m3 0h1m1 0h2m1 0h1m2 0h1m7 0h5m2 0h3m1 0h1m2 0h1m1 0h1m1 0h1m1 0h3m1 0h3m1 0h1m2 0h1m2 0h2M4 47.5h3m1 0h1m8 0h1m1 0h2m3 0h1m3 0h1m6 0h1m1 0h2m1 0h3m4 0h1m2 0h1m2 0h1m1 0h3m2 0h1m2 0h1m1 0h1m1 0h1m1 0h1m1 0h1m2 0h4m1 0h4m3 0h4m3 0h1m4 0h3m1 0h5M4 48.5h2m1 0h1m1 0h3m1 0h1m3 0h2m2 0h4m1 0h1m1 0h1m1 0h2m4 0h4m2 0h4m1 0h1m2 0h1m1 0h2m1 0h1m3 0h2m1 0h1m1 0h2m1 0h1m2 0h5m2 0h2m1 0h2m1 0h2m1 0h2m1 0h1m4 0h3m2 0h1m3 0h1m3 0h1M4 49.5h6m1 0h2m2 0h2m1 0h3m2 0h1m3 0h2m2 0h1m3 0h3m2 0h3m1 0h1m2 0h1m2 0h1m3 0h2m1 0h1m2 0h5m3 0h3m1 0h1m1 0h1m4 0h3m1 0h1m1 0h2m3 0h2m2 0h4m1 0h4m2 0h2M4 50.5h8m1 0h3m1 0h1m1 0h2m1 0h3m1 0h1m1 0h2m1 0h2m3 0h3m4 0h1m2 0h2m2 0h3m1 0h2m1 0h1m3 0h1m1 0h1m2 0h1m2 0h1m1 0h2m1 0h1m1 0h1m4 0h3m1 0h2m1 0h1m2 0h3m5 0h4m2 0h1m2 0h1M4 51.5h2m3 0h1m3 0h2m1 0h1m1 0h4m1 0h1m5 0h1m1 0h1m1 0h7m2 0h4m2 0h3m1 0h1m2 0h1m5 0h1m2 0h1m3 0h1m3 0h3m2 0h7m2 0h1m1 0h1m3 0h1m4 0h3m7 0h2M6 52.5h8m2 0h1m4 0h2m1 0h1m2 0h8m1 0h2m1 0h5m1 0h4m3 0h7m2 0h1m3 0h1m6 0h2m1 0h7m1 0h6m1 0h1m3 0h2m1 0h1m2 0h5M6 53.5h3m3 0h2m2 0h1m2 0h2m5 0h1m1 0h1m3 0h4m1 0h2m1 0h3m4 0h2m2 0h2m3 0h1m2 0h1m1 0h1m1 0h1m1 0h1m4 0h1m2 0h1m1 0h2m3 0h5m3 0h1m1 0h1m1 0h1m1 0h1m4 0h2m3 0h1m1 0h1m1 0h1M4 54.5h1m1 0h3m1 0h1m1 0h8m1 0h6m1 0h1m1 0h1m1 0h2m3 0h1m3 0h1m5 0h2m2 0h2m1 0h1m1 0h2m1 0h1m2 0h3m1 0h1m1 0h1m1 0h4m1 0h2m1 0h1m1 0h2m1 0h3m2 0h1m1 0h3m7 0h1m1 0h1m1 0h1m2 0h1M5 55.5h1m1 0h2m3 0h1m1 0h1m2 0h2m2 0h8m3 0h1m5 0h1m4 0h1m1 0h1m1 0h1m2 0h3m3 0h1m2 0h1m1 0h2m2 0h3m1 0h2m2 0h1m1 0h2m3 0h1m2 0h1m1 0h2m4 0h1m3 0h1m1 0h1m2 0h1m3 0h1m2 0h2M8 56.5h5m1 0h2m1 0h1m1 0h1m1 0h1m3 0h10m1 0h1m1 0h2m5 0h2m1 0h1m1 0h1m1 0h5m1 0h1m1 0h2m1 0h7m3 0h2m1 0h7m1 0h2m2 0h2m4 0h2m2 0h1m1 0h5m1 0h1M5 57.5h2m1 0h1m5 0h8m5 0h1m2 0h5m1 0h1m2 0h3m1 0h1m3 0h4m2 0h3m2 0h1m1 0h1m3 0h1m1 0h3m1 0h3m4 0h1m1 0h1m4 0h2m1 0h1m1 0h3m3 0h1m1 0h4m1 0h1m2 0h2M5 58.5h1m1 0h2m1 0h1m1 0h1m1 0h2m2 0h1m1 0h1m2 0h2m1 0h2m1 0h2m1 0h1m8 0h2m1 0h1m4 0h1m4 0h2m2 0h1m1 0h1m1 0h2m3 0h2m3 0h3m3 0h2m2 0h3m1 0h2m2 0h4m1 0h4m1 0h1m1 0h1M5 59.5h1m2 0h1m3 0h1m1 0h2m1 0h1m1 0h1m6 0h3m1 0h5m1 0h3m4 0h2m3 0h1m1 0h3m2 0h3m2 0h1m1 0h1m2 0h1m4 0h1m1 0h3m1 0h1m7 0h1m2 0h1m1 0h3m1 0h1m1 0h1m1 0h2m4 0h1m1 0h1m1 0h2M4 60.5h1m1 0h1m1 0h3m2 0h4m1 0h3m1 0h1m1 0h1m2 0h4m2 0h7m2 0h2m2 0h3m3 0h1m1 0h2m2 0h1m1 0h7m1 0h2m2 0h1m1 0h1m1 0h2m3 0h2m1 0h2m3 0h1m2 0h4m1 0h4m4 0h1m1 0h1M4 61.5h2m3 0h1m2 0h1m1 0h6m1 0h1m2 0h1m2 0h3m1 0h2m1 0h1m1 0h1m2 0h4m4 0h2m1 0h1m3 0h1m2 0h4m4 0h6m2 0h1m1 0h2m1 0h1m1 0h1m4 0h3m1 0h1m1 0h1m2 0h1m1 0h1m2 0h1m3 0h1M4 62.5h3m3 0h1m2 0h1m2 0h1m3 0h1m2 0h2m2 0h3m1 0h1m1 0h1m2 0h1m1 0h2m1 0h1m1 0h3m1 0h1m6 0h1m1 0h2m2 0h1m1 0h2m4 0h1m3 0h1m1 0h1m1 0h1m1 0h1m1 0h3m2 0h1m3 0h1m1 0h1m1 0h2m1 0h1m1 0h1m1 0h1m1 0h1m2 0h1m1 0h1M4 63.5h4m3 0h3m1 0h1m2 0h2m2 0h1m4 0h2m7 0h1m1 0h1m2 0h1m1 0h3m1 0h1m1 0h3m3 0h5m1 0h1m1 0h1m1 0h1m2 0h1m3 0h1m1 0h1m2 0h1m3 0h1m4 0h1m3 0h1m1 0h6m5 0h1m4 0h1M6 64.5h1m2 0h4m1 0h4m3 0h1m3 0h1m2 0h1m2 0h1m1 0h2m1 0h3m1 0h1m1 0h1m1 0h1m3 0h1m3 0h2m1 0h4m1 0h1m3 0h1m2 0h1m3 0h1m1 0h1m1 0h2m7 0h6m5 0h1m1 0h1m1 0h2m2 0h1M5 65.5h1m1 0h1m6 0h2m1 0h1m3 0h1m1 0h1m2 0h2m1 0h1m2 0h1m3 0h1m1 0h3m2 0h2m2 0h2m1 0h3m2 0h1m1 0h1m1 0h3m1 0h2m1 0h2m1 0h2m4 0h2m1 0h1m1 0h2m2 0h1m3 0h5m1 0h1m1 0h1m1 0h3m1 0h3m1 0h1m1 0h1M5 66.5h1m3 0h2m1 0h2m1 0h3m2 0h3m1 0h1m1 0h7m1 0h1m6 0h1m1 0h1m1 0h3m1 0h2m1 0h2m3 0h1m2 0h4m5 0h1m4 0h4m2 0h2m4 0h1m2 0h1m5 0h1m1 0h1m1 0h1m2 0h3M5 67.5h2m1 0h2m1 0h1m1 0h1m1 0h3m2 0h2m1 0h5m1 0h1m1 0h1m1 0h3m1 0h2m1 0h1m9 0h2m1 0h1m1 0h2m1 0h2m2 0h2m1 0h1m1 0h2m2 0h6m3 0h2m1 0h1m1 0h1m1 0h7m4 0h1m1 0h1m3 0h2m2 0h1M4 68.5h1m1 0h1m1 0h3m2 0h2m1 0h1m3 0h2m1 0h1m3 0h1m1 0h3m1 0h2m1 0h1m1 0h1m1 0h2m6 0h1m1 0h2m1 0h1m1 0h1m1 0h2m1 0h4m1 0h1m3 0h3m2 0h2m1 0h5m1 0h1m2 0h3m2 0h1m1 0h3m1 0h1m1 0h1m2 0h2m3 0h2M4 69.5h2m5 0h1m2 0h3m2 0h3m3 0h1m1 0h1m2 0h1m3 0h2m2 0h1m1 0h1m3 0h5m1 0h1m2 0h2m1 0h4m2 0h1m3 0h2m2 0h1m4 0h1m1 0h2m2 0h1m1 0h1m2 0h2m1 0h3m1 0h3m2 0h7m1 0h3M5 70.5h3m2 0h1m1 0h2m1 0h3m4 0h1m2 0h3m3 0h2m1 0h1m1 0h2m3 0h1m2 0h1m2 0h3m6 0h2m2 0h2m1 0h2m1 0h6m1 0h2m1 0h3m1 0h3m1 0h5m2 0h3m1 0h3m1 0h1m1 0h1m2 0h1M4 71.5h1m1 0h2m1 0h1m4 0h1m4 0h1m4 0h1m2 0h2m3 0h2m1 0h1m2 0h3m1 0h2m1 0h2m1 0h1m1 0h3m1 0h1m1 0h2m2 0h1m1 0h1m1 0h3m2 0h4m2 0h1m3 0h1m2 0h1m1 0h4m1 0h1m1 0h1m1 0h3m2 0h4m1 0h1m1 0h2M6 72.5h3m1 0h1m2 0h2m2 0h1m2 0h2m1 0h7m2 0h2m3 0h4m1 0h1m1 0h2m1 0h1m1 0h1m1 0h1m2 0h2m2 0h2m2 0h2m3 0h2m1 0h1m1 0h1m1 0h2m4 0h2m1 0h1m1 0h1m1 0h1m1 0h2m2 0h1m1 0h1m2 0h1m2 0h1m4 0h3M4 73.5h1m2 0h1m1 0h1m1 0h3m6 0h3m2 0h2m1 0h4m3 0h2m3 0h1m1 0h2m1 0h1m1 0h3m1 0h1m1 0h1m2 0h3m2 0h2m2 0h2m1 0h2m1 0h3m3 0h3m2 0h3m1 0h1m1 0h1m1 0h2m2 0h1m1 0h3m1 0h1m3 0h1m1 0h1M4 74.5h1m5 0h4m1 0h1m4 0h1m2 0h2m2 0h2m3 0h1m1 0h6m4 0h2m2 0h4m1 0h1m1 0h1m1 0h1m1 0h1m9 0h1m1 0h3m6 0h1m1 0h1m1 0h2m1 0h3m1 0h1m2 0h1m1 0h1m6 0h1m1 0h1M4 75.5h6m1 0h3m3 0h3m1 0h4m1 0h1m3 0h1m1 0h2m2 0h4m1 0h1m2 0h1m3 0h1m1 0h1m3 0h3m3 0h1m3 0h2m2 0h3m4 0h2m2 0h1m1 0h1m1 0h1m2 0h3m3 0h3m1 0h3m1 0h1m1 0h2m1 0h1m2 0h1M4 76.5h2m1 0h6m4 0h1m2 0h1m2 0h1m1 0h1m1 0h6m2 0h4m2 0h2m1 0h1m1 0h1m1 0h1m2 0h6m2 0h2m1 0h1m8 0h1m1 0h2m1 0h6m3 0h2m2 0h3m2 0h2m3 0h7M5 77.5h1m2 0h1m3 0h1m1 0h1m6 0h1m2 0h3m1 0h1m3 0h1m2 0h3m4 0h1m1 0h1m1 0h2m1 0h1m1 0h2m3 0h3m1 0h2m1 0h1m2 0h3m2 0h1m2 0h1m1 0h1m3 0h1m1 0h1m4 0h2m5 0h1m1 0h1m1 0h1m1 0h1m3 0h2M5 78.5h2m1 0h1m1 0h1m1 0h1m1 0h1m1 0h1m1 0h1m6 0h2m1 0h1m1 0h1m1 0h2m3 0h1m1 0h1m1 0h1m1 0h2m2 0h6m1 0h1m1 0h1m2 0h1m1 0h3m1 0h2m1 0h2m5 0h2m1 0h1m1 0h3m2 0h1m1 0h1m1 0h2m1 0h1m1 0h2m1 0h1m2 0h1m1 0h1m1 0h1m2 0h2M6 79.5h3m3 0h1m2 0h2m2 0h1m1 0h1m1 0h2m1 0h3m3 0h1m2 0h2m1 0h1m1 0h1m1 0h4m1 0h1m2 0h1m1 0h1m3 0h1m4 0h3m1 0h2m1 0h2m1 0h1m1 0h4m3 0h2m1 0h2m1 0h1m2 0h1m1 0h3m2 0h1m1 0h1m1 0h1m3 0h2m2 0h1M4 80.5h2m1 0h8m3 0h1m1 0h2m3 0h1m1 0h7m1 0h1m2 0h2m6 0h1m1 0h1m2 0h6m3 0h2m1 0h1m2 0h6m1 0h2m1 0h5m2 0h3m2 0h1m1 0h2m2 0h1m1 0h1m2 0h7m1 0h2M5 81.5h1m6 0h4m1 0h1m1 0h1m2 0h1m2 0h1m1 0h2m1 0h1m6 0h1m3 0h2m2 0h4m2 0h1m2 0h1m3 0h5m3 0h2m2 0h1m1 0h2m1 0h2m4 0h1m2 0h1m8 0h1m1 0h1m4 0h1m2 0h2m2 0h1M7 82.5h2m1 0h2m2 0h2m4 0h2m4 0h2m2 0h1m1 0h1m3 0h3m2 0h1m1 0h1m1 0h2m1 0h1m2 0h1m1 0h1m2 0h1m1 0h2m1 0h1m3 0h3m2 0h1m2 0h1m2 0h3m2 0h2m2 0h1m1 0h1m1 0h1m2 0h2m4 0h1m4 0h1m1 0h4M4 83.5h2m2 0h1m2 0h4m1 0h1m4 0h2m1 0h1m1 0h1m3 0h2m2 0h1m1 0h2m1 0h2m2 0h1m1 0h2m2 0h1m1 0h2m3 0h1m2 0h3m1 0h2m1 0h2m3 0h1m2 0h1m2 0h2m2 0h1m1 0h1m1 0h1m1 0h1m2 0h6m4 0h1m2 0h1m3 0h2M4 84.5h2m1 0h1m1 0h2m1 0h3m1 0h1m2 0h5m2 0h1m2 0h1m1 0h2m1 0h2m1 0h2m1 0h4m2 0h1m3 0h1m1 0h1m1 0h3m2 0h1m2 0h3m2 0h3m1 0h1m7 0h3m1 0h1m2 0h1m3 0h2m1 0h1m4 0h3m2 0h1m1 0h2m1 0h1M7 85.5h1m1 0h1m2 0h1m2 0h1m1 0h2m2 0h1m1 0h9m3 0h2m2 0h1m2 0h5m1 0h1m1 0h1m2 0h1m7 0h2m1 0h2m5 0h2m2 0h3m1 0h3m1 0h1m1 0h6m1 0h1m2 0h1m2 0h1m4 0h2M7 86.5h4m4 0h1m2 0h1m3 0h3m3 0h1m1 0h2m1 0h3m1 0h1m1 0h1m2 0h4m1 0h2m2 0h1m1 0h1m2 0h5m5 0h2m2 0h1m2 0h2m1 0h2m2 0h4m1 0h2m1 0h1m2 0h1m1 0h1m3 0h1m1 0h1m3 0h1m1 0h1m2 0h1M4 87.5h2m1 0h3m1 0h3m5 0h2m2 0h1m1 0h2m11 0h1m1 0h1m3 0h1m2 0h1m3 0h1m1 0h3m3 0h1m1 0h3m1 0h3m1 0h1m1 0h2m3 0h1m2 0h1m1 0h6m3 0h2m1 0h1m3 0h1m3 0h2m2 0h1m1 0h1M4 88.5h2m2 0h3m1 0h3m1 0h1m1 0h3m5 0h3m1 0h1m1 0h1m3 0h2m3 0h4m1 0h1m1 0h4m1 0h1m2 0h1m2 0h2m2 0h2m1 0h1m1 0h3m3 0h1m1 0h1m1 0h1m4 0h2m1 0h1m1 0h1m2 0h1m2 0h1m1 0h1m6 0h1m3 0h1M5 89.5h1m1 0h2m3 0h1m2 0h5m3 0h3m1 0h1m1 0h4m2 0h2m2 0h1m1 0h1m1 0h1m1 0h2m2 0h2m1 0h1m3 0h1m3 0h1m3 0h3m2 0h4m2 0h1m1 0h6m4 0h3m2 0h2m2 0h2m1 0h10M5 90.5h2m3 0h1m1 0h1m1 0h2m4 0h1m6 0h1m1 0h1m2 0h2m4 0h1m4 0h3m3 0h1m1 0h2m3 0h2m2 0h1m1 0h2m1 0h1m2 0h6m1 0h1m1 0h1m2 0h1m3 0h2m1 0h1m3 0h3m1 0h2m2 0h7m1 0h1M4 91.5h1m1 0h1m1 0h2m2 0h1m1 0h1m1 0h1m3 0h2m1 0h1m2 0h1m1 0h1m1 0h2m6 0h1m2 0h1m1 0h2m1 0h4m1 0h1m3 0h1m3 0h1m3 0h1m1 0h1m3 0h2m2 0h2m1 0h3m2 0h1m1 0h4m6 0h2m1 0h4m1 0h3m3 0h1M4 92.5h5m1 0h2m3 0h2m3 0h1m1 0h1m3 0h4m2 0h1m2 0h1m2 0h2m1 0h4m1 0h1m2 0h1m5 0h2m1 0h2m1 0h4m4 0h1m1 0h3m1 0h3m1 0h4m3 0h1m1 0h1m2 0h4m1 0h2m1 0h5m3 0h1M4 93.5h5m2 0h4m4 0h1m1 0h3m1 0h1m1 0h2m1 0h3m2 0h1m1 0h2m1 0h1m1 0h2m1 0h5m2 0h2m1 0h4m2 0h1m1 0h3m2 0h1m2 0h1m1 0h2m1 0h1m3 0h5m1 0h1m6 0h6m1 0h1m2 0h1m4 0h1M4 94.5h8m4 0h2m3 0h1m3 0h1m1 0h1m1 0h1m2 0h5m1 0h2m3 0h4m1 0h1m1 0h2m3 0h1m1 0h10m1 0h1m1 0h2m1 0h2m1 0h1m1 0h1m2 0h1m4 0h1m1 0h3m1 0h3m2 0h1m4 0h4m2 0h1M4 95.5h1m1 0h2m1 0h1m1 0h3m6 0h1m1 0h1m2 0h1m1 0h1m1 0h3m1 0h1m1 0h1m1 0h2m2 0h1m3 0h2m1 0h2m1 0h1m2 0h1m1 0h3m4 0h1m3 0h3m2 0h1m1 0h1m2 0h1m2 0h2m1 0h1m1 0h1m2 0h1m2 0h2m1 0h2m3 0h2m2 0h1m1 0h1m2 0h1M4 96.5h4m1 0h3m7 0h1m3 0h3m1 0h3m4 0h2m1 0h1m2 0h3m1 0h1m2 0h1m1 0h1m1 0h1m4 0h2m2 0h2m5 0h1m1 0h1m1 0h1m2 0h1m1 0h1m1 0h2m2 0h2m1 0h8m1 0h1m1 0h1m1 0h1m1 0h2m1 0h1m1 0h3M4 97.5h2m2 0h2m1 0h2m3 0h1m1 0h3m1 0h1m1 0h1m5 0h1m1 0h2m5 0h2m1 0h5m2 0h1m2 0h2m2 0h1m1 0h4m1 0h1m6 0h1m5 0h1m1 0h2m1 0h4m3 0h3m1 0h1m2 0h1m5 0h1m2 0h1m1 0h1M4 98.5h3m3 0h2m1 0h1m1 0h1m5 0h1m2 0h1m1 0h1m2 0h1m2 0h2m1 0h4m1 0h2m1 0h5m2 0h4m1 0h2m4 0h1m1 0h1m1 0h2m3 0h6m4 0h1m2 0h1m1 0h2m2 0h3m1 0h1m1 0h1m2 0h2m2 0h1m3 0h3M6 99.5h1m1 0h2m2 0h4m1 0h2m9 0h1m2 0h2m1 0h2m1 0h1m1 0h1m2 0h1m1 0h1m2 0h3m1 0h2m4 0h2m1 0h3m4 0h3m2 0h1m2 0h3m4 0h1m1 0h1m5 0h1m1 0h1m1 0h7m1 0h2m1 0h1M7 100.5h2m1 0h1m2 0h1m2 0h1m1 0h1m7 0h7m1 0h2m3 0h1m1 0h1m2 0h6m2 0h5m1 0h2m1 0h4m1 0h3m1 0h3m1 0h7m3 0h3m2 0h1m1 0h5m1 0h2m1 0h6M12 101.5h1m3 0h1m2 0h2m5 0h1m1 0h1m3 0h1m4 0h1m1 0h1m1 0h1m1 0h5m1 0h1m1 0h2m3 0h1m3 0h1m1 0h5m7 0h1m1 0h1m3 0h1m1 0h4m1 0h1m1 0h2m1 0h1m3 0h2m2 0h1m3 0h1m2 0h1M4 102.5h7m2 0h1m3 0h1m1 0h1m1 0h4m3 0h1m1 0h1m1 0h3m1 0h3m1 0h2m1 0h1m6 0h1m1 0h1m1 0h1m1 0h1m6 0h1m3 0h1m2 0h2m2 0h1m1 0h1m1 0h1m1 0h3m2 0h1m3 0h2m2 0h1m1 0h1m4 0h1m1 0h1m1 0h1m1 0h2M4 103.5h1m5 0h1m1 0h1m2 0h4m1 0h4m1 0h2m1 0h1m3 0h1m2 0h2m1 0h3m2 0h3m1 0h2m2 0h2m3 0h1m1 0h2m1 0h2m3 0h1m1 0h2m5 0h2m3 0h1m3 0h1m1 0h1m1 0h1m2 0h1m1 0h2m1 0h5m3 0h2M4 104.5h1m1 0h3m1 0h1m1 0h2m1 0h1m2 0h1m1 0h2m2 0h1m1 0h1m1 0h6m2 0h1m5 0h3m2 0h1m1 0h1m2 0h6m1 0h2m4 0h6m1 0h10m1 0h1m2 0h1m3 0h1m1 0h6m2 0h5m2 0h1M4 105.5h1m1 0h3m1 0h1m3 0h1m4 0h3m1 0h1m2 0h1m1 0h2m6 0h3m1 0h3m2 0h1m3 0h1m2 0h4m4 0h1m3 0h1m1 0h1m1 0h5m1 0h4m1 0h1m1 0h5m1 0h1m2 0h2m2 0h2m1 0h2m1 0h1m1 0h1m3 0h3M4 106.5h1m1 0h3m1 0h1m3 0h2m1 0h1m1 0h1m2 0h4m2 0h1m1 0h1m1 0h3m3 0h2m2 0h1m1 0h3m3 0h2m1 0h4m1 0h2m2 0h2m1 0h3m1 0h1m2 0h3m1 0h1m3 0h2m1 0h2m2 0h3m1 0h5m3 0h1m1 0h6M4 107.5h1m5 0h1m1 0h2m4 0h1m2 0h1m1 0h1m3 0h1m3 0h3m1 0h3m2 0h1m1 0h1m2 0h1m5 0h2m6 0h1m1 0h3m1 0h2m1 0h1m1 0h1m1 0h3m1 0h3m1 0h3m5 0h2m2 0h1m3 0h6m1 0h4M4 108.5h7m1 0h1m2 0h2m1 0h1m5 0h2m2 0h1m1 0h2m2 0h3m1 0h4m3 0h2m1 0h4m2 0h1m1 0h2m2 0h2m2 0h2m2 0h4m1 0h1m2 0h3m1 0h1m6 0h2m2 0h2m2 0h3m1 0h4m1 0h1m1 0h1m1 0h1"/></svg>
