<svg xmlns="http://www.w3.org/2000/svg" viewBox="0 0 93 93" shape-rendering="crispEdges"><path fill="#ffffff" d="M0 0h93v93H0z"/><path stroke="#000000" d="M4 4.5h7m2 0h1m3 0h2m1 0h1m3 0h3m1 0h1m1 0h1m3 0h3m1 0h1m1 0h1m5 0h5m3 0h1m1 0h1m1 0h1m1 0h1m1 0h2m1 0h1m2 0h1m1 0h3m1 0h1m3 0h1m1 0h1m1 0h7M4 5.5h1m5 0h1m1 0h2m1 0h1m1 0h1m2 0h2m2 0h3m2 0h1m1 0h1m3 0h1m4 0h1m2 0h1m1 0h1m4 0h1m1 0h1m3 0h8m1 0h3m2 0h1m4 0h1m1 0h3m2 0h1m5 0h1M4 6.5h1m1 0h3m1 0h1m1 0h3m1 0h3m1 0h2m1 0h2m2 0h1m3 0h2m1 0h6m1 0h2m1 0h1m2 0h2m1 0h1m2 0h1m2 0h2m1 0h1m3 0h2m3 0h3m1 0h4m2 0h1m3 0h1m1 0h3m1 0h1M4 7.5h1m1 0h3m1 0h1m2 0h2m1 0h1m1 0h1m2 0h1m2 0h2m5 0h1m2 0h3m1 0h5m2 0h1m1 0h2m1 0h2m1 0h1m1 0h2m2 0h2m1 0h1m2 0h3m1 0h1m2 0h3m4 0h1m2 0h1m1 0h3m1 0h1M4 8.5h1m1 0h3m1 0h1m1 0h1m1 0h1m2 0h2m1 0h3m1 0h1m3 0h12m1 0h3m1 0h1m4 0h1m1 0h9m2 0h2m2 0h2m1 0h2m1 0h1m1 0h4m3 0h1m1 0h3m1 0h1M4 9.5h1m5 0h1m1 0h2m1 0h2m5 0h1m1 0h1m2 0h1m3 0h2m3 0h1m7 0h3m2 0h4m2 0h2m3 0h4m1 0h3m2 0h4m5 0h1m2 0h1m5 0h1M4 10.5h7m1 0h1m1 0h1m1 0h1m1 0h1m1 0h1m1 0h1m1 0h1m1 0h1m1 0h1m1 0h1m1 0h1m1 0h1m1 0h1m1 0h1m1 0h1m1 0h1m1 0h1m1 0h1m1 0h1m1 0h1m1 0h1m1 0h1m1 0h1m1 0h1m1 0h1m1 0h1m1 0h1m1 0h1m1 0h1m1 0h1m1 0h1m1 0h1m1 0h1m1 0h1m1 0h1m1 0h7M12 11.5h1m1 0h4m1 0h2m1 0h2m1 0h2m2 0h1m2 0h1m3 0h1m1 0h2m1 0h4m3 0h3m2 0h1m1 0h2m3 0h1m5 0h3m7 0h2m2 0h1M4 12.5h2m1 0h1m2 0h2m2 0h3m1 0h2m2 0h1m1 0h1m1 0h2m1 0h8m1 0h1m3 0h1m1 0h4m2 0h1m1 0h1m1 0h1m1 0h7m1 0h1m1 0h3m1 0h1m3 0h3m2 0h1m2 0h3m1 0h2M4 13.5h2m1 0h2m6 0h1m1 0h3m3 0h1m2 0h1m1 0h1m2 0h1m2 0h2m4 0h1m4 0h5m2 0h1m1 0h3m2 0h1m2 0h1m1 0h2m2 0h3m3 0h1m5 0h1m2 0h1m2 0h3M4 14.5h2m4 0h2m1 0h1m1 0h5m1 0h5m3 0h3m1 0h1m5 0h2m2 0h1m1 0h3m1 0h3m1 0h1m1 0h3m2 0h2m5 0h1m3 0h3m2 0h1m2 0h3m2 0h2m1 0h2M7 15.5h2m2 0h1m1 0h5m1 0h2m3 0h1m2 0h4m1 0h2m1 0h2m2 0h2m4 0h3m1 0h4m1 0h2m4 0h1m4 0h1m2 0h5m3 0h2m2 0h1m1 0h1m1 0h2m1 0h2M8 16.5h1m1 0h4m1 0h2m1 0h2m4 0h1m1 0h1m1 0h2m2 0h1m1 0h2m3 0h2m1 0h1m1 0h6m2 0h1m1 0h3m1 0h3m1 0h1m1 0h4m3 0h1m2 0h3m1 0h3m3 0h1m1 0h1m1 0h1M5 17.5h1m1 0h2m4 0h1m3 0h5m2 0h1m3 0h3m1 0h1m4 0h1m2 0h2m1 0h4m9 0h5m1 0h4m1 0h3m1 0h7m1 0h1m1 0h2m2 0h2M4 18.5h1m1 0h1m3 0h2m2 0h1m1 0h2m2 0h2m2 0h1m1 0h3m4 0h2m1 0h4m2 0h3m1 0h1m1 0h1m1 0h2m1 0h1m1 0h5m3 0h3m1 0h7m1 0h1m3 0h3m1 0h2m1 0h3M4 19.5h2m2 0h1m2 0h1m4 0h2m1 0h1m4 0h1m3 0h1m1 0h1m1 0h2m3 0h1m3 0h1m3 0h2m1 0h1m5 0h1m1 0h1m1 0h1m3 0h2m1 0h2m2 0h1m1 0h6m2 0h1m1 0h1m4 0h2M4 20.5h2m1 0h1m2 0h1m2 0h1m5 0h4m1 0h1m3 0h3m1 0h1m1 0h3m3 0h2m5 0h2m1 0h2m4 0h1m2 0h1m4 0h2m2 0h1m4 0h2m2 0h1m2 0h1m1 0h2m1 0h1M4 21.5h6m2 0h1m3 0h1m1 0h2m3 0h1m1 0h1m4 0h1m1 0h1m3 0h1m2 0h1m1 0h4m1 0h1m3 0h1m2 0h2m4 0h1m1 0h6m3 0h1m1 0h1m2 0h1m1 0h3m1 0h1m1 0h1m1 0h1M4 22.5h4m1 0h3m3 0h1m1 0h2m3 0h4m1 0h3m2 0h2m1 0h2m4 0h1m3 0h1m1 0h1m6 0h4m1 0h1m4 0h1m1 0h2m2 0h1m6 0h3m6 0h2M8 23.5h1m2 0h1m1 0h3m1 0h1m1 0h2m1 0h6m3 0h1m6 0h3m1 0h1m1 0h2m3 0h1m1 0h1m2 0h1m1 0h1m1 0h2m4 0h2m2 0h1m1 0h3m1 0h1m3 0h8M5 24.5h1m2 0h1m1 0h3m3 0h4m1 0h2m3 0h1m1 0h2m1 0h3m5 0h1m1 0h1m2 0h1m1 0h1m2 0h1m2 0h1m1 0h1m1 0h3m1 0h3m1 0h2m1 0h3m1 0h2m1 0h4m1 0h2m1 0h1m2 0h3M8 25.5h2m3 0h2m2 0h2m2 0h1m3 0h3m1 0h1m2 0h2m1 0h1m1 0h2m2 0h4m7 0h7m2 0h1m1 0h1m1 0h3m1 0h1m1 0h1m1 0h2m3 0h1m1 0h1m2 0h1m1 0h1M10 26.5h3m1 0h3m1 0h1m6 0h1m1 0h1m1 0h2m5 0h1m5 0h2m1 0h6m2 0h2m5 0h1m4 0h4m2 0h9m2 0h3m1 0h1M6 27.5h3m3 0h1m2 0h5m2 0h4m2 0h1m2 0h1m3 0h2m1 0h3m2 0h1m3 0h2m1 0h1m2 0h3m1 0h1m9 0h1m1 0h3m5 0h2m4 0h2M4 28.5h1m4 0h3m4 0h2m1 0h1m1 0h3m1 0h1m3 0h2m2 0h2m2 0h1m1 0h1m5 0h5m1 0h1m1 0h1m1 0h1m2 0h1m5 0h1m2 0h1m5 0h4m1 0h1m1 0h1m1 0h3m1 0h1M4 29.5h2m6 0h1m1 0h4m2 0h2m1 0h6m1 0h1m1 0h2m2 0h7m1 0h1m2 0h3m2 0h1m1 0h2m1 0h1m1 0h1m1 0h3m2 0h1m2 0h3m1 0h1m4 0h1m1 0h1m2 0h1m2 0h3M4 30.5h1m1 0h1m1 0h1m1 0h1m1 0h1m1 0h1m2 0h1m6 0h4m3 0h3m1 0h2m3 0h2m1 0h1m4 0h2m1 0h2m3 0h4m1 0h1m1 0h1m1 0h1m2 0h3m5 0h1m2 0h1m1 0h1m1 0h4M4 31.5h1m1 0h1m8 0h4m1 0h2m1 0h3m1 0h2m3 0h2m2 0h3m10 0h2m1 0h1m2 0h2m4 0h1m2 0h2m1 0h3m4 0h2m2 0h2m2 0h1m1 0h1m1 0h1M4 32.5h2m2 0h6m3 0h2m1 0h1m2 0h3m1 0h10m2 0h1m1 0h3m1 0h2m4 0h3m1 0h8m5 0h2m1 0h3m1 0h1m1 0h9M5 33.5h1m1 0h2m3 0h1m3 0h1m1 0h1m2 0h1m1 0h3m2 0h1m3 0h1m3 0h3m2 0h2m3 0h3m1 0h7m3 0h3m1 0h1m1 0h3m1 0h2m4 0h2m2 0h1m3 0h3m1 0h1M5 34.5h2m1 0h1m1 0h1m1 0h1m2 0h1m4 0h1m3 0h2m2 0h3m1 0h1m1 0h1m1 0h1m1 0h3m3 0h3m1 0h1m2 0h2m3 0h1m1 0h1m1 0h1m2 0h1m3 0h1m1 0h2m1 0h1m1 0h2m4 0h1m1 0h1m1 0h1m1 0h1M5 35.5h1m1 0h2m3 0h3m1 0h3m2 0h1m1 0h1m2 0h2m4 0h1m3 0h1m3 0h1m2 0h1m1 0h1m1 0h2m3 0h5m3 0h3m2 0h1m1 0h1m1 0h8m1 0h3m3 0h1m1 0h3M5 36.5h1m1 0h7m1 0h4m1 0h2m1 0h1m1 0h2m1 0h1m3 0h5m2 0h3m3 0h2m2 0h4m2 0h6m3 0h4m1 0h1m2 0h1m1 0h2m1 0h1m2 0h5m3 0h1M6 37.5h4m1 0h1m2 0h1m1 0h1m3 0h1m1 0h6m8 0h2m2 0h2m2 0h3m2 0h1m2 0h1m2 0h1m1 0h2m1 0h1m1 0h1m5 0h1m1 0h2m2 0h1m1 0h2m1 0h2m5 0h1m1 0h1M4 38.5h1m1 0h1m2 0h3m1 0h1m1 0h2m2 0h2m2 0h1m3 0h1m1 0h3m1 0h2m2 0h2m3 0h1m1 0h2m1 0h2m1 0h1m2 0h2m3 0h3m3 0h3m2 0h1m1 0h2m1 0h2m1 0h2m1 0h1m3 0h2m1 0h2M4 39.5h1m7 0h2m5 0h7m2 0h1m1 0h1m1 0h1m1 0h4m1 0h1m1 0h5m1 0h5m1 0h3m2 0h1m1 0h2m2 0h1m2 0h3m1 0h2m2 0h1m2 0h1m2 0h1m1 0h1m3 0h1M4 40.5h2m1 0h1m1 0h5m3 0h1m2 0h1m3 0h3m1 0h1m2 0h1m1 0h2m4 0h3m1 0h2m1 0h2m2 0h1m1 0h1m1 0h1m4 0h8m1 0h1m1 0h3m4 0h2m2 0h3m2 0h3M5 41.5h1m1 0h1m3 0h3m2 0h2m1 0h2m2 0h3m1 0h2m1 0h1m1 0h1m2 0h1m2 0h5m4 0h1m3 0h1m1 0h3m2 0h1m2 0h1m1 0h2m2 0h2m5 0h4m1 0h2m1 0h3m1 0h3M4 42.5h2m1 0h1m2 0h3m1 0h5m2 0h1m1 0h1m1 0h1m3 0h2m1 0h3m2 0h1m1 0h2m1 0h2m4 0h1m2 0h2m1 0h2m1 0h5m1 0h1m1 0h1m3 0h1m2 0h1m1 0h1m3 0h2m1 0h4m1 0h1m1 0h1M5 43.5h2m1 0h2m1 0h1m1 0h3m3 0h3m1 0h2m1 0h1m4 0h1m2 0h3m2 0h1m1 0h2m3 0h1m2 0h5m1 0h1m1 0h2m6 0h2m3 0h1m2 0h1m2 0h3m1 0h1m1 0h1m1 0h5M5 44.5h1m1 0h1m2 0h1m1 0h1m3 0h1m3 0h1m2 0h1m2 0h1m1 0h3m3 0h2m2 0h4m2 0h4m1 0h1m1 0h1m3 0h1m1 0h2m1 0h2m2 0h1m1 0h3m2 0h1m1 0h3m1 0h1m3 0h1m1 0h4M7 45.5h1m4 0h1m1 0h1m1 0h4m3 0h1m1 0h3m1 0h3m1 0h1m1 0h1m2 0h1m2 0h2m1 0h1m4 0h9m1 0h2m8 0h1m5 0h1m2 0h1m1 0h4m3 0h1M4 46.5h3m1 0h3m1 0h1m1 0h2m1 0h1m2 0h2m2 0h5m1 0h3m1 0h2m3 0h1m1 0h2m2 0h1m1 0h1m2 0h4m1 0h2m1 0h1m1 0h1m1 0h1m1 0h1m2 0h2m1 0h2m2 0h1m2 0h6m2 0h1m2 0h1M4 47.5h3m1 0h2m1 0h2m1 0h4m3 0h1m1 0h3m3 0h1m3 0h2m2 0h4m2 0h1m2 0h1m1 0h1m1 0h1m2 0h2m1 0h2m1 0h1m2 0h1m2 0h1m2 0h3m4 0h2m1 0h1m3 0h3m3 0h1M6 48.5h1m1 0h4m1 0h2m2 0h1m1 0h2m3 0h1m3 0h3m1 0h1m6 0h1m4 0h1m1 0h1m2 0h1m2 0h3m2 0h1m1 0h1m1 0h2m1 0h1m2 0h1m3 0h2m2 0h1m1 0h1m1 0h1m1 0h1m1 0h4m1 0h1M8 49.5h2m4 0h6m1 0h1m3 0h1m2 0h2m4 0h1m2 0h4m1 0h5m1 0h3m3 0h2m1 0h1m3 0h1m1 0h4m4 0h3m2 0h2m1 0h1m5 0h2M5 50.5h2m3 0h1m1 0h1m1 0h4m3 0h1m5 0h2m5 0h2m2 0h3m2 0h2m1 0h2m1 0h1m3 0h1m2 0h3m3 0h1m1 0h1m2 0h1m2 0h5m3 0h1m4 0h3m1 0h2M5 51.5h4m5 0h1m2 0h4m1 0h1m1 0h3m1 0h1m3 0h1m1 0h1m1 0h2m1 0h1m1 0h4m1 0h1m1 0h1m1 0h1m2 0h5m2 0h2m1 0h1m2 0h1m1 0h2m2 0h1m1 0h1m3 0h1m1 0h3m3 0h2M5 52.5h3m1 0h3m6 0h1m2 0h4m5 0h1m1 0h3m2 0h1m1 0h4m1 0h8m2 0h1m2 0h1m1 0h1m1 0h1m5 0h1m2 0h1m2 0h4m1 0h3m1 0h1m1 0h1m2 0h1M5 53.5h2m1 0h1m4 0h6m1 0h3m4 0h2m2 0h8m1 0h1m2 0h2m2 0h5m2 0h1m2 0h6m6 0h4m1 0h1m1 0h3m1 0h4m2 0h2M6 54.5h1m1 0h1m1 0h4m2 0h4m1 0h1m2 0h4m1 0h4m1 0h1m1 0h6m1 0h2m2 0h1m2 0h1m1 0h1m4 0h3m2 0h1m5 0h1m1 0h1m1 0h1m4 0h1m1 0h1m1 0h3m1 0h1m2 0h1M4 55.5h2m1 0h2m2 0h2m4 0h1m1 0h1m3 0h1m1 0h1m1 0h3m1 0h1m1 0h3m1 0h2m2 0h3m2 0h2m1 0h5m1 0h4m2 0h1m1 0h1m1 0h4m2 0h1m1 0h4m3 0h1m6 0h2M4 56.5h1m3 0h5m2 0h1m4 0h1m2 0h1m2 0h2m1 0h1m1 0h8m4 0h1m3 0h7m1 0h7m1 0h1m1 0h2m7 0h1m1 0h1m1 0h7m3 0h1M4 57.5h1m2 0h2m3 0h2m2 0h5m1 0h1m1 0h1m1 0h1m4 0h2m3 0h1m3 0h4m2 0h3m1 0h2m1 0h4m3 0h1m1 0h3m1 0h2m4 0h1m1 0h1m1 0h1m2 0h2m3 0h2m2 0h1M4 58.5h5m1 0h1m1 0h1m1 0h2m6 0h3m1 0h7m1 0h1m1 0h1m3 0h2m2 0h3m3 0h1m2 0h2m1 0h1m1 0h1m1 0h1m1 0h1m1 0h4m1 0h10m1 0h1m1 0h1m1 0h2m2 0h1M5 59.5h1m2 0h1m3 0h2m1 0h2m1 0h2m3 0h2m3 0h2m1 0h2m3 0h2m2 0h4m5 0h3m2 0h1m1 0h1m3 0h3m1 0h1m1 0h1m2 0h2m3 0h2m1 0h2m1 0h1m3 0h4M4 60.5h1m3 0h5m1 0h2m1 0h2m1 0h1m3 0h4m2 0h1m1 0h5m1 0h3m1 0h1m1 0h1m1 0h4m6 0h6m2 0h1m1 0h2m1 0h2m2 0h1m2 0h2m2 0h6M6 61.5h4m5 0h2m1 0h3m1 0h2m1 0h2m2 0h1m3 0h1m1 0h2m1 0h2m1 0h1m1 0h3m1 0h3m1 0h1m1 0h1m1 0h1m1 0h1m2 0h2m8 0h1m2 0h2m2 0h1m2 0h1m2 0h1m1 0h3M4 62.5h4m1 0h3m6 0h1m1 0h1m1 0h2m2 0h1m1 0h1m4 0h3m1 0h2m1 0h1m1 0h3m1 0h1m1 0h5m2 0h1m4 0h1m1 0h1m1 0h2m1 0h2m6 0h1m1 0h4m2 0h4m1 0h1M4 63.5h3m2 0h1m3 0h1m1 0h2m1 0h3m1 0h2m4 0h1m1 0h1m1 0h3m1 0h2m3 0h1m1 0h2m4 0h1m1 0h1m1 0h1m4 0h1m2 0h2m1 0h7m1 0h2m1 0h4m1 0h2m1 0h1m2 0h1M4 64.5h2m1 0h1m2 0h1m2 0h2m1 0h1m3 0h1m1 0h1m6 0h1m1 0h1m4 0h1m3 0h2m2 0h1m3 0h2m3 0h3m2 0h4m4 0h1m2 0h3m6 0h1m4 0h3m2 0h1M7 65.5h2m5 0h3m4 0h1m3 0h3m3 0h2m4 0h3m1 0h1m1 0h1m3 0h1m1 0h1m1 0h3m1 0h1m2 0h2m1 0h1m2 0h1m1 0h4m3 0h1m2 0h2m1 0h2m4 0h1m2 0h1M4 66.5h1m1 0h2m2 0h3m2 0h1m2 0h3m5 0h4m1 0h4m4 0h2m6 0h1m1 0h1m2 0h1m5 0h5m1 0h1m2 0h1m5 0h2m4 0h2m1 0h7M6 67.5h2m1 0h1m2 0h6m4 0h2m1 0h3m1 0h1m1 0h1m4 0h2m1 0h1m2 0h1m4 0h2m2 0h1m2 0h1m2 0h1m1 0h2m1 0h1m2 0h1m1 0h2m2 0h1m1 0h3m2 0h1m1 0h1m1 0h1m1 0h1m1 0h3M9 68.5h2m1 0h3m6 0h5m1 0h1m2 0h5m2 0h3m2 0h1m2 0h2m1 0h1m1 0h1m2 0h2m1 0h1m3 0h1m3 0h1m1 0h3m1 0h1m2 0h2m2 0h4m3 0h4M6 69.5h1m1 0h1m2 0h3m1 0h4m4 0h3m3 0h2m1 0h1m1 0h4m2 0h2m6 0h1m1 0h3m2 0h1m1 0h1m1 0h3m2 0h2m2 0h3m6 0h2m1 0h1m2 0h1m1 0h1m1 0h1M4 70.5h2m1 0h2m1 0h1m6 0h1m1 0h2m2 0h1m1 0h1m4 0h2m1 0h1m2 0h1m1 0h1m2 0h1m1 0h2m1 0h4m6 0h2m2 0h3m1 0h2m3 0h3m2 0h1m6 0h2m4 0h2M5 71.5h1m10 0h1m1 0h2m1 0h1m1 0h1m3 0h1m2 0h2m1 0h5m1 0h1m2 0h1m1 0h1m2 0h1m3 0h3m5 0h1m1 0h1m1 0h1m1 0h1m3 0h2m1 0h1m2 0h1m1 0h4m3 0h2m2 0h1M5 72.5h4m1 0h2m3 0h1m1 0h1m3 0h1m2 0h3m2 0h3m2 0h2m2 0h1m1 0h1m3 0h4m1 0h1m1 0h1m2 0h1m1 0h1m4 0h1m2 0h2m1 0h1m1 0h2m2 0h2m5 0h2m2 0h5M7 73.5h1m9 0h1m2 0h3m1 0h1m2 0h2m2 0h3m1 0h2m4 0h3m1 0h6m2 0h1m1 0h1m1 0h1m1 0h1m1 0h1m3 0h2m3 0h1m2 0h1m1 0h1m1 0h3m1 0h2M5 74.5h1m2 0h1m1 0h5m2 0h2m1 0h1m1 0h3m1 0h3m1 0h1m3 0h4m1 0h1m2 0h2m1 0h1m1 0h1m4 0h2m1 0h1m3 0h3m1 0h1m3 0h1m3 0h1m2 0h1m1 0h1m3 0h3m1 0h1m1 0h1m1 0h1M4 75.5h2m2 0h2m2 0h4m3 0h1m5 0h1m1 0h3m2 0h1m1 0h1m1 0h1m2 0h2m2 0h1m1 0h1m1 0h1m1 0h1m1 0h1m1 0h1m1 0h1m3 0h4m1 0h1m1 0h2m1 0h3m1 0h1m2 0h3m1 0h4m2 0h1M4 76.5h1m4 0h6m1 0h2m2 0h3m1 0h1m7 0h2m2 0h1m1 0h1m1 0h1m2 0h3m1 0h2m1 0h1m1 0h1m1 0h1m1 0h2m1 0h2m1 0h3m1 0h2m2 0h3m6 0h7m2 0h1M6 77.5h1m1 0h1m4 0h3m1 0h4m6 0h4m1 0h2m1 0h3m1 0h4m2 0h1m2 0h2m1 0h3m1 0h5m4 0h4m3 0h1m2 0h3m3 0h1m3 0h2m2 0h1M4 78.5h3m1 0h1m1 0h2m3 0h1m2 0h1m1 0h1m1 0h2m2 0h2m6 0h4m1 0h2m3 0h2m2 0h3m1 0h1m7 0h2m1 0h4m4 0h2m2 0h1m1 0h4m4 0h2M5 79.5h1m1 0h1m1 0h1m3 0h1m1 0h5m1 0h2m1 0h1m1 0h2m1 0h1m5 0h2m2 0h2m6 0h2m1 0h4m2 0h5m1 0h5m1 0h2m2 0h1m1 0h2m1 0h1m1 0h1m1 0h6m1 0h1M4 80.5h1m5 0h1m1 0h2m3 0h4m1 0h3m2 0h1m1 0h2m1 0h5m1 0h6m3 0h1m2 0h2m1 0h10m1 0h5m4 0h1m1 0h1m1 0h1m1 0h6m1 0h3M12 81.5h2m1 0h1m2 0h2m1 0h2m9 0h1m3 0h1m1 0h2m1 0h1m2 0h2m2 0h1m3 0h2m2 0h1m3 0h1m1 0h3m1 0h1m2 0h5m1 0h1m2 0h3m3 0h3m1 0h1M4 82.5h7m1 0h2m1 0h1m4 0h3m1 0h1m3 0h2m1 0h2m1 0h1m1 0h1m1 0h2m1 0h2m2 0h1m4 0h7m1 0h1m1 0h3m1 0h1m1 0h1m1 0h1m1 0h4m1 0h1m1 0h2m1 0h1m1 0h1m1 0h1m3 0h1M4 83.5h1m5 0h1m4 0h3m3 0h1m1 0h1m1 0h3m1 0h4m3 0h5m1 0h2m1 0h2m3 0h2m1 0h2m1 0h1m3 0h3m3 0h1m2 0h1m3 0h2m3 0h1m1 0h1m3 0h5M4 84.5h1m1 0h3m1 0h1m2 0h3m2 0h2m2 0h1m1 0h1m2 0h1m1 0h1m2 0h5m2 0h1m1 0h2m2 0h1m6 0h3m1 0h6m2 0h2m1 0h1m1 0h3m3 0h1m4 0h5m3 0h1M4 85.5h1m1 0h3m1 0h1m1 0h1m2 0h3m1 0h1m1 0h6m1 0h2m4 0h4m1 0h5m1 0h2m1 0h3m1 0h1m1 0h3m3 0h2m1 0h1m1 0h1m2 0h1m1 0h1m2 0h2m1 0h1m2 0h1m1 0h1m2 0h4M4 86.5h1m1 0h3m1 0h1m4 0h2m2 0h1m1 0h2m4 0h1m1 0h4m1 0h4m3 0h2m2 0h1m4 0h1m1 0h1m1 0h1m2 0h3m1 0h2m4 0h1m2 0h1m1 0h2m3 0h3m2 0h1m3 0h1m1 0h1M4 87.5h1m5 0h1m1 0h1m3 0h2m1 0h2m2 0h1m1 0h1m2 0h1m2 0h1m1 0h3m1 0h1m4 0h2m4 0h3m1 0h4m2 0h1m1 0h1m1 0h1m3 0h1m1 0h5m1 0h4m3 0h5M4 88.5h7m1 0h1m1 0h2m1 0h2m1 0h2m3 0h1m3 0h3m1 0h1m1 0h1m1 0h2m1 0h1m1 0h5m1 0h1m1 0h1m2 0h1m5 0h1m2 0h4m1 0h1m1 0h3m1 0h1m1 0h2m2 0h1m1 0h1m1 0h1m1 0h1m1 0h2"/></svg>
