<svg xmlns="http://www.w3.org/2000/svg" viewBox="0 0 109 109" shape-rendering="crispEdges"><path fill="#ffffff" d="M0 0h109v109H0z"/><path stroke="#000000" d="M4 4.5h7m2 0h1m1 0h1m4 0h2m2 0h3m4 0h3m2 0h3m4 0h1m1 0h1m1 0h1m2 0h1m3 0h2m1 0h3m1 0h2m1 0h1m1 0h3m1 0h7m1 0h1m1 0h2m3 0h2m2 0h1m2 0h1m1 0h2m2 0h7M4 5.5h1m5 0h1m1 0h2m1 0h2m2 0h3m1 0h2m1 0h1m1 0h4m3 0h1m3 0h2m4 0h1m1 0h1m6 0h1m1 0h1m5 0h1m1 0h2m4 0h1m2 0h2m2 0h1m1 0h1m1 0h4m2 0h2m1 0h2m1 0h1m4 0h1m5 0h1M4 6.5h1m1 0h3m1 0h1m1 0h3m2 0h1m2 0h2m3 0h1m2 0h1m1 0h1m2 0h1m1 0h1m4 0h1m1 0h1m1 0h1m1 0h1m1 0h1m1 0h1m1 0h1m1 0h3m3 0h1m2 0h2m3 0h2m2 0h2m1 0h3m3 0h1m2 0h1m1 0h1m1 0h1m2 0h3m1 0h1m2 0h1m1 0h3m1 0h1M4 7.5h1m1 0h3m1 0h1m2 0h1m1 0h1m1 0h2m4 0h1m1 0h3m1 0h1m1 0h1m1 0h5m5 0h2m1 0h1m1 0h1m3 0h3m2 0h5m1 0h1m1 0h4m3 0h3m2 0h4m1 0h1m1 0h2m6 0h1m1 0h2m2 0h1m1 0h3m1 0h1M4 8.5h1m1 0h3m1 0h1m1 0h1m1 0h1m1 0h2m1 0h1m1 0h1m1 0h2m3 0h8m1 0h1m2 0h1m1 0h1m1 0h7m1 0h6m2 0h4m1 0h3m3 0h2m1 0h5m5 0h1m1 0h3m4 0h2m1 0h1m1 0h1m1 0h3m1 0h1M4 9.5h1m5 0h1m1 0h2m8 0h4m2 0h1m1 0h1m3 0h1m4 0h1m2 0h1m4 0h2m2 0h2m3 0h2m1 0h2m7 0h1m3 0h1m1 0h1m3 0h2m1 0h1m1 0h4m2 0h1m1 0h2m2 0h1m2 0h1m5 0h1M4 10.5h7m1 0h1m1 0h1m1 0h1m1 0h1m1 0h1m1 0h1m1 0h1m1 0h1m1 0h1m1 0h1m1 0h1m1 0h1m1 0h1m1 0h1m1 0h1m1 0h1m1 0h1m1 0h1m1 0h1m1 0h1m1 0h1m1 0h1m1 0h1m1 0h1m1 0h1m1 0h1m1 0h1m1 0h1m1 0h1m1 0h1m1 0h1m1 0h1m1 0h1m1 0h1m1 0h1m1 0h1m1 0h1m1 0h1m1 0h1m1 0h1m1 0h1m1 0h1m1 0h1m1 0h7M12 11.5h1m4 0h1m1 0h2m2 0h4m3 0h1m3 0h2m1 0h4m1 0h3m2 0h3m2 0h1m3 0h1m1 0h1m4 0h1m2 0h2m1 0h1m2 0h3m3 0h1m1 0h4m1 0h1m2 0h3m4 0h2M4 12.5h2m1 0h1m2 0h2m1 0h5m1 0h2m2 0h2m2 0h1m1 0h6m3 0h2m1 0h1m3 0h1m6 0h7m2 0h3m1 0h7m1 0h6m2 0h2m1 0h4m2 0h3m2 0h2m1 0h3m1 0h2M5 13.5h1m3 0h1m1 0h1m6 0h1m4 0h5m1 0h5m3 0h1m1 0h2m1 0h1m1 0h1m2 0h1m3 0h1m1 0h2m2 0h1m1 0h1m1 0h1m1 0h3m5 0h2m2 0h3m1 0h2m6 0h1m1 0h1m3 0h1m1 0h1m1 0h1m3 0h2M4 14.5h1m1 0h1m1 0h3m1 0h2m4 0h2m1 0h1m2 0h1m2 0h2m2 0h1m1 0h3m2 0h1m1 0h1m4 0h1m1 0h3m1 0h2m1 0h1m1 0h1m2 0h5m1 0h2m4 0h2m1 0h2m1 0h3m1 0h2m1 0h1m3 0h1m1 0h2m3 0h3m4 0h2M5 15.5h1m1 0h3m1 0h1m2 0h1m1 0h2m2 0h1m2 0h1m2 0h2m4 0h1m4 0h2m1 0h1m1 0h2m1 0h1m2 0h4m1 0h2m1 0h1m3 0h3m2 0h1m1 0h3m2 0h1m2 0h2m1 0h2m1 0h2m4 0h3m1 0h1m4 0h2m2 0h2m2 0h1M5 16.5h1m1 0h1m1 0h2m3 0h2m1 0h4m1 0h1m1 0h3m2 0h1m1 0h1m1 0h1m2 0h1m6 0h3m1 0h5m3 0h1m1 0h1m1 0h2m1 0h1m6 0h2m3 0h1m2 0h1m1 0h1m5 0h2m2 0h1m1 0h1m2 0h3m2 0h1m1 0h1m1 0h2M4 17.5h1m4 0h1m1 0h2m1 0h2m1 0h2m2 0h1m3 0h1m2 0h2m2 0h3m2 0h1m2 0h1m1 0h1m7 0h3m1 0h1m1 0h2m4 0h6m1 0h2m1 0h3m1 0h2m1 0h2m3 0h5m2 0h2m1 0h1m1 0h2m1 0h1m3 0h2M4 18.5h2m3 0h2m1 0h1m1 0h4m2 0h2m3 0h4m2 0h1m2 0h3m1 0h3m1 0h1m3 0h1m1 0h1m4 0h8m2 0h3m1 0h2m3 0h1m1 0h1m1 0h2m3 0h1m2 0h1m2 0h4m1 0h2m1 0h1m2 0h1m1 0h5M5 19.5h2m2 0h1m2 0h2m2 0h1m2 0h2m3 0h1m1 0h1m1 0h1m2 0h5m2 0h1m1 0h2m4 0h1m2 0h1m2 0h1m1 0h2m1 0h3m1 0h1m6 0h3m6 0h1m1 0h2m2 0h1m2 0h5m1 0h4m2 0h1m4 0h1M5 20.5h1m3 0h2m1 0h2m1 0h1m1 0h1m3 0h3m5 0h2m1 0h2m1 0h3m3 0h1m1 0h2m2 0h4m5 0h4m1 0h8m1 0h2m2 0h1m2 0h1m3 0h6m4 0h1m2 0h2m2 0h2m1 0h1m2 0h1M6 21.5h1m2 0h1m2 0h2m2 0h1m3 0h1m3 0h1m2 0h2m1 0h3m3 0h1m2 0h1m1 0h1m1 0h4m7 0h1m1 0h3m2 0h2m1 0h3m2 0h6m1 0h1m1 0h4m2 0h1m2 0h1m4 0h1m1 0h1m2 0h1m2 0h1m3 0h1M6 22.5h1m1 0h4m2 0h1m2 0h1m4 0h3m1 0h2m2 0h1m2 0h2m1 0h1m2 0h2m1 0h1m1 0h1m6 0h1m1 0h2m1 0h1m3 0h2m1 0h2m2 0h2m4 0h2m2 0h2m1 0h2m1 0h2m1 0h3m2 0h1m1 0h2m2 0h4m2 0h2M5 23.5h2m1 0h1m2 0h1m1 0h4m1 0h4m4 0h3m2 0h3m1 0h1m4 0h3m1 0h1m2 0h1m1 0h1m2 0h2m1 0h1m1 0h2m1 0h1m1 0h1m2 0h4m1 0h4m5 0h3m5 0h3m1 0h1m1 0h3m4 0h1m2 0h2M5 24.5h2m1 0h3m4 0h5m1 0h1m1 0h3m1 0h2m3 0h2m4 0h6m1 0h1m5 0h5m1 0h2m5 0h2m4 0h1m2 0h2m2 0h1m3 0h1m2 0h2m2 0h3m2 0h2m1 0h2m4 0h1m1 0h1M4 25.5h2m1 0h1m1 0h1m2 0h2m1 0h1m5 0h1m1 0h1m3 0h1m3 0h6m1 0h1m3 0h2m1 0h1m3 0h4m2 0h1m2 0h2m1 0h1m1 0h2m2 0h1m1 0h3m1 0h1m1 0h3m1 0h2m2 0h1m3 0h2m1 0h1m3 0h4m3 0h1m2 0h1M6 26.5h2m1 0h2m5 0h1m5 0h2m2 0h2m7 0h1m1 0h1m2 0h1m2 0h8m2 0h3m1 0h2m1 0h3m1 0h2m1 0h1m2 0h2m2 0h1m2 0h2m3 0h1m1 0h1m2 0h1m4 0h1m3 0h2m2 0h1m1 0h3M5 27.5h1m1 0h2m3 0h2m3 0h1m2 0h4m1 0h2m2 0h1m2 0h3m1 0h2m3 0h3m1 0h1m1 0h1m2 0h1m1 0h4m1 0h1m1 0h3m5 0h1m1 0h2m1 0h2m2 0h1m1 0h1m5 0h1m1 0h1m1 0h1m2 0h3m1 0h1m1 0h2M5 28.5h1m1 0h1m2 0h3m4 0h2m1 0h7m1 0h1m7 0h1m1 0h1m2 0h4m4 0h1m1 0h4m3 0h4m1 0h1m1 0h5m1 0h2m2 0h2m3 0h2m2 0h1m3 0h1m1 0h3m1 0h3m3 0h1m1 0h1m1 0h1M5 29.5h1m2 0h1m5 0h1m3 0h1m1 0h2m3 0h1m1 0h3m4 0h1m2 0h1m1 0h1m2 0h1m1 0h5m2 0h2m1 0h6m3 0h4m3 0h1m2 0h2m4 0h1m6 0h2m1 0h2m1 0h1m1 0h2m1 0h1m2 0h2m1 0h2M5 30.5h8m1 0h1m2 0h1m2 0h3m1 0h2m4 0h7m2 0h1m1 0h1m4 0h1m2 0h8m4 0h5m1 0h2m3 0h1m1 0h5m1 0h2m2 0h5m1 0h1m2 0h1m1 0h6m1 0h1m1 0h1M5 31.5h1m1 0h2m3 0h1m2 0h4m1 0h4m3 0h1m2 0h1m3 0h1m4 0h2m3 0h1m1 0h2m1 0h2m1 0h1m3 0h4m3 0h1m1 0h1m2 0h1m3 0h3m3 0h1m1 0h1m1 0h1m1 0h3m3 0h1m1 0h1m1 0h3m3 0h3M5 32.5h4m1 0h1m1 0h3m1 0h1m9 0h1m2 0h2m1 0h1m1 0h9m1 0h2m2 0h1m2 0h2m1 0h1m1 0h1m1 0h3m3 0h1m3 0h3m1 0h3m1 0h1m1 0h1m6 0h3m3 0h1m2 0h1m1 0h1m1 0h1m1 0h2m1 0h1M4 33.5h2m2 0h1m3 0h4m3 0h1m1 0h1m1 0h1m1 0h1m2 0h1m1 0h1m3 0h2m5 0h1m1 0h1m1 0h2m1 0h5m3 0h3m2 0h2m1 0h1m1 0h4m2 0h3m3 0h4m2 0h3m1 0h2m1 0h2m2 0h2m3 0h2m2 0h1M5 34.5h1m2 0h5m2 0h1m1 0h1m3 0h1m3 0h1m1 0h1m2 0h5m2 0h1m1 0h1m2 0h1m1 0h1m1 0h4m1 0h6m2 0h1m8 0h1m1 0h1m1 0h7m1 0h2m1 0h2m1 0h1m2 0h3m3 0h6m1 0h1M6 35.5h1m1 0h1m4 0h1m2 0h1m1 0h3m1 0h3m1 0h1m3 0h2m1 0h2m1 0h1m4 0h1m3 0h3m1 0h2m1 0h6m1 0h1m2 0h2m2 0h1m3 0h1m3 0h1m2 0h3m4 0h5m2 0h4m4 0h1m3 0h1M5 36.5h4m1 0h1m3 0h1m1 0h2m1 0h1m4 0h1m3 0h1m5 0h2m1 0h3m1 0h6m2 0h1m1 0h3m1 0h1m1 0h2m3 0h1m2 0h1m5 0h7m1 0h4m1 0h1m1 0h1m1 0h1m2 0h1m1 0h3m1 0h1m1 0h3m1 0h1M6 37.5h1m1 0h2m1 0h1m1 0h1m2 0h4m3 0h2m1 0h4m1 0h2m6 0h1m1 0h1m1 0h2m1 0h1m1 0h2m2 0h3m2 0h5m2 0h5m1 0h1m1 0h1m3 0h2m1 0h1m1 0h1m1 0h5m1 0h3m1 0h1m1 0h3m3 0h2m1 0h1M4 38.5h5m1 0h4m3 0h1m1 0h3m1 0h3m1 0h2m1 0h3m1 0h2m4 0h3m1 0h1m1 0h1m1 0h1m3 0h3m1 0h3m1 0h4m1 0h1m6 0h1m1 0h1m1 0h1m1 0h2m4 0h1m2 0h5m5 0h1m2 0h1m2 0h1M6 39.5h1m1 0h2m3 0h2m1 0h1m1 0h2m2 0h1m1 0h2m1 0h5m1 0h4m2 0h2m3 0h1m2 0h1m1 0h1m1 0h1m2 0h2m1 0h1m2 0h1m1 0h1m2 0h2m1 0h2m1 0h1m1 0h4m1 0h2m2 0h2m1 0h1m1 0h3m3 0h4m1 0h2m1 0h2M4 40.5h2m3 0h2m4 0h5m2 0h6m1 0h4m3 0h2m1 0h1m2 0h1m1 0h1m4 0h1m1 0h6m2 0h2m1 0h2m3 0h2m2 0h2m2 0h1m1 0h2m3 0h1m1 0h3m1 0h1m2 0h2m3 0h6M8 41.5h1m4 0h1m1 0h1m3 0h3m1 0h1m1 0h2m2 0h5m1 0h2m1 0h3m5 0h5m2 0h2m1 0h1m5 0h1m1 0h1m4 0h2m4 0h2m1 0h3m9 0h1m1 0h1m2 0h5m2 0h1m1 0h1M5 42.5h2m3 0h2m3 0h4m7 0h5m3 0h1m2 0h2m1 0h1m1 0h1m10 0h5m1 0h1m2 0h1m2 0h1m1 0h1m2 0h1m1 0h3m1 0h3m1 0h2m1 0h1m3 0h6m1 0h11M5 43.5h5m3 0h4m3 0h1m1 0h1m1 0h1m1 0h1m1 0h1m2 0h1m3 0h1m1 0h1m2 0h1m1 0h4m1 0h1m1 0h1m2 0h1m7 0h1m1 0h3m2 0h1m5 0h3m1 0h1m1 0h3m1 0h1m3 0h2m1 0h7m2 0h2m2 0h2M5 44.5h1m3 0h2m2 0h1m5 0h3m1 0h8m2 0h1m1 0h1m3 0h6m2 0h1m2 0h2m2 0h6m1 0h2m1 0h1m4 0h2m2 0h3m1 0h1m1 0h7m1 0h4m1 0h2m2 0h1m1 0h4m2 0h1M4 45.5h1m2 0h1m1 0h1m3 0h2m1 0h3m2 0h5m6 0h1m1 0h1m2 0h1m1 0h2m1 0h4m2 0h2m2 0h1m1 0h1m3 0h1m1 0h1m1 0h1m1 0h1m2 0h3m1 0h1m1 0h1m2 0h5m1 0h2m3 0h3m1 0h1m1 0h1m3 0h1m1 0h1M7 46.5h1m1 0h2m3 0h1m1 0h1m2 0h1m1 0h1m1 0h2m2 0h1m4 0h1m2 0h3m1 0h5m4 0h5m1 0h2m1 0h2m3 0h1m1 0h2m1 0h2m1 0h1m1 0h3m3 0h1m3 0h2m1 0h3m2 0h1m2 0h1m2 0h2m1 0h1m1 0h3M4 47.5h1m1 0h2m1 0h1m2 0h1m2 0h5m2 0h1m1 0h1m1 0h6m1 0h2m1 0h3m1 0h1m2 0h2m1 0h8m1 0h1m4 0h1m1 0h2m1 0h2m8 0h4m1 0h2m1 0h2m1 0h3m1 0h2m1 0h7m2 0h1M5 48.5h3m1 0h3m2 0h1m2 0h4m1 0h2m10 0h1m2 0h4m1 0h3m1 0h2m4 0h2m1 0h2m1 0h1m3 0h3m1 0h2m4 0h4m6 0h2m1 0h1m3 0h1m2 0h5m6 0h1M4 49.5h4m1 0h1m4 0h1m3 0h1m1 0h1m1 0h1m1 0h4m1 0h6m1 0h1m2 0h3m1 0h1m5 0h1m1 0h2m2 0h1m3 0h1m1 0h3m1 0h4m1 0h4m4 0h4m5 0h2m1 0h4m1 0h2m3 0h5M4 50.5h2m4 0h3m3 0h2m1 0h1m2 0h1m1 0h1m2 0h3m2 0h4m1 0h5m1 0h1m3 0h1m1 0h1m3 0h2m2 0h3m3 0h1m1 0h2m2 0h1m1 0h1m1 0h3m2 0h1m1 0h1m1 0h1m1 0h1m1 0h1m1 0h2m1 0h2m3 0h7M4 51.5h4m1 0h1m3 0h1m1 0h2m2 0h2m5 0h1m2 0h2m1 0h1m2 0h1m1 0h1m1 0h2m1 0h4m1 0h1m1 0h1m2 0h1m1 0h3m1 0h2m2 0h1m1 0h1m6 0h2m1 0h7m2 0h1m3 0h1m2 0h1m2 0h4m1 0h2m2 0h3M4 52.5h2m1 0h9m2 0h6m1 0h1m1 0h9m3 0h2m1 0h2m1 0h1m4 0h7m2 0h1m3 0h1m1 0h7m2 0h5m2 0h1m1 0h1m1 0h2m1 0h1m5 0h1m1 0h5m3 0h1M4 53.5h1m3 0h1m3 0h4m4 0h1m3 0h2m1 0h1m1 0h2m3 0h2m3 0h5m1 0h1m1 0h1m2 0h1m1 0h1m3 0h2m8 0h4m2 0h3m3 0h1m2 0h1m2 0h1m4 0h1m2 0h1m1 0h1m1 0h1m3 0h1m1 0h3M5 54.5h1m2 0h1m1 0h1m1 0h2m3 0h2m1 0h4m1 0h1m1 0h1m1 0h2m1 0h1m1 0h1m1 0h3m1 0h2m4 0h2m1 0h2m1 0h1m1 0h1m1 0h1m4 0h1m2 0h4m4 0h3m1 0h1m1 0h1m1 0h1m1 0h1m5 0h2m1 0h2m1 0h1m1 0h1m1 0h1m1 0h1m1 0h1m1 0h1M5 55.5h1m2 0h1m3 0h3m1 0h2m3 0h3m1 0h1m2 0h1m1 0h1m3 0h1m5 0h1m1 0h2m1 0h5m1 0h2m3 0h1m6 0h1m1 0h2m2 0h1m2 0h3m3 0h2m5 0h2m2 0h1m1 0h1m1 0h2m1 0h1m3 0h2m1 0h1M4 56.5h1m3 0h5m2 0h4m4 0h1m1 0h1m1 0h1m1 0h6m4 0h1m2 0h1m1 0h1m1 0h1m5 0h8m1 0h1m3 0h1m1 0h2m5 0h5m2 0h1m1 0h2m1 0h4m6 0h5M4 57.5h4m1 0h1m1 0h1m2 0h1m3 0h1m5 0h2m1 0h1m3 0h1m3 0h1m1 0h3m1 0h1m2 0h2m2 0h1m6 0h1m1 0h1m1 0h4m1 0h2m1 0h2m1 0h1m1 0h2m2 0h1m2 0h2m1 0h2m1 0h1m2 0h2m2 0h1m1 0h4m1 0h2m1 0h3M4 58.5h2m4 0h1m1 0h2m1 0h5m3 0h1m2 0h3m1 0h1m2 0h2m3 0h1m1 0h1m1 0h1m2 0h2m2 0h1m1 0h2m4 0h1m1 0h1m3 0h1m1 0h2m3 0h1m2 0h1m1 0h1m1 0h3m1 0h3m1 0h2m1 0h1m1 0h2m1 0h1m2 0h2m4 0h1M6 59.5h4m2 0h1m1 0h1m1 0h1m2 0h1m2 0h2m2 0h3m2 0h1m1 0h2m1 0h1m1 0h1m2 0h1m1 0h2m3 0h5m2 0h4m1 0h4m1 0h2m1 0h2m2 0h1m1 0h1m1 0h1m1 0h1m2 0h1m4 0h1m2 0h1m2 0h1m1 0h2m1 0h1m3 0h1m1 0h1M4 60.5h1m5 0h5m3 0h1m1 0h2m4 0h1m1 0h1m1 0h4m1 0h1m3 0h4m1 0h2m1 0h2m1 0h1m3 0h2m3 0h2m1 0h3m1 0h5m2 0h1m1 0h1m3 0h1m1 0h1m2 0h2m1 0h1m2 0h1m2 0h1m1 0h3m1 0h4m1 0h1M4 61.5h1m2 0h2m2 0h1m1 0h2m3 0h1m1 0h3m1 0h1m1 0h1m2 0h1m1 0h2m4 0h2m2 0h2m4 0h3m7 0h3m1 0h2m1 0h1m2 0h1m2 0h1m2 0h4m2 0h1m1 0h2m2 0h1m1 0h1m1 0h7m2 0h1m1 0h2m2 0h1M4 62.5h1m1 0h2m2 0h1m5 0h4m2 0h2m2 0h2m2 0h1m1 0h2m1 0h3m1 0h6m3 0h1m1 0h1m2 0h1m2 0h1m3 0h1m1 0h1m5 0h1m2 0h3m2 0h4m1 0h5m1 0h4m1 0h1m2 0h1m1 0h5M7 63.5h2m3 0h1m3 0h1m1 0h2m1 0h3m1 0h2m1 0h5m3 0h1m5 0h1m2 0h1m1 0h1m7 0h2m1 0h5m1 0h1m1 0h8m1 0h5m2 0h1m3 0h1m3 0h1m2 0h2m1 0h3m1 0h5M4 64.5h1m3 0h4m2 0h2m1 0h1m1 0h1m1 0h1m1 0h1m6 0h1m1 0h2m1 0h4m1 0h2m4 0h1m5 0h1m1 0h1m1 0h1m3 0h2m1 0h1m2 0h4m2 0h1m8 0h3m4 0h2m1 0h2m1 0h2m1 0h2m2 0h1m1 0h2M4 65.5h2m1 0h1m1 0h1m3 0h4m2 0h2m1 0h2m2 0h2m4 0h2m1 0h2m1 0h4m2 0h4m1 0h2m1 0h1m3 0h1m4 0h3m3 0h1m1 0h1m1 0h1m1 0h1m3 0h1m1 0h1m1 0h4m1 0h2m1 0h3m4 0h1m1 0h1m1 0h2m2 0h1M4 66.5h2m2 0h1m1 0h6m2 0h1m1 0h4m2 0h1m1 0h2m2 0h1m1 0h3m1 0h3m1 0h3m3 0h2m4 0h1m1 0h2m1 0h1m1 0h2m2 0h4m3 0h1m3 0h2m1 0h1m3 0h1m4 0h1m2 0h1m2 0h2m1 0h1m1 0h2M5 67.5h1m3 0h1m2 0h1m1 0h6m2 0h1m3 0h1m2 0h1m1 0h2m2 0h2m6 0h2m1 0h1m1 0h2m1 0h1m8 0h1m1 0h2m1 0h1m1 0h1m3 0h2m2 0h3m5 0h1m1 0h2m1 0h1m3 0h1m1 0h3m4 0h3M5 68.5h1m1 0h1m1 0h2m5 0h4m2 0h1m1 0h1m2 0h2m2 0h1m4 0h1m2 0h3m3 0h4m1 0h1m1 0h1m3 0h1m3 0h2m3 0h2m1 0h1m1 0h1m3 0h1m4 0h3m3 0h3m1 0h1m4 0h1m2 0h1m3 0h2M4 69.5h1m3 0h1m2 0h1m3 0h1m4 0h4m1 0h1m4 0h2m3 0h11m2 0h1m1 0h7m1 0h1m1 0h2m1 0h1m2 0h2m3 0h1m2 0h1m2 0h3m3 0h1m2 0h1m3 0h1m1 0h1m3 0h3m2 0h3M4 70.5h1m4 0h4m1 0h8m5 0h2m1 0h3m1 0h2m2 0h8m2 0h1m1 0h1m8 0h1m2 0h2m1 0h1m6 0h1m1 0h2m1 0h2m1 0h1m1 0h3m2 0h5m3 0h4m1 0h1m3 0h1M4 71.5h1m2 0h2m6 0h1m1 0h4m3 0h4m1 0h6m4 0h4m1 0h1m2 0h4m5 0h1m1 0h1m1 0h1m3 0h1m10 0h3m1 0h1m1 0h1m4 0h1m1 0h1m1 0h1m4 0h3m2 0h1m1 0h3M4 72.5h1m1 0h3m1 0h1m1 0h1m1 0h2m1 0h1m3 0h5m5 0h5m2 0h1m1 0h4m5 0h1m1 0h2m1 0h1m2 0h1m4 0h1m2 0h2m3 0h1m3 0h1m1 0h1m5 0h2m3 0h1m3 0h1m2 0h2m1 0h3m1 0h1m2 0h1M5 73.5h1m2 0h2m1 0h1m2 0h2m1 0h1m2 0h1m1 0h1m1 0h1m2 0h1m3 0h1m1 0h1m3 0h1m1 0h2m2 0h1m1 0h4m1 0h2m1 0h3m1 0h2m1 0h4m5 0h1m2 0h2m3 0h1m3 0h1m5 0h3m1 0h2m2 0h1m1 0h2m1 0h4M4 74.5h2m2 0h5m1 0h1m1 0h1m3 0h1m1 0h5m1 0h10m2 0h3m2 0h2m1 0h1m3 0h5m3 0h2m1 0h1m1 0h3m2 0h1m3 0h7m2 0h1m3 0h4m5 0h5m2 0h2M5 75.5h1m1 0h2m3 0h1m5 0h5m1 0h4m1 0h2m3 0h3m3 0h1m1 0h2m1 0h2m1 0h1m1 0h1m1 0h1m3 0h1m2 0h1m2 0h1m1 0h4m3 0h4m3 0h2m2 0h1m2 0h1m1 0h1m3 0h1m1 0h2m1 0h1m3 0h1m1 0h3M4 76.5h1m2 0h2m1 0h1m1 0h4m1 0h2m3 0h2m1 0h3m2 0h1m1 0h1m1 0h1m2 0h4m5 0h1m1 0h1m2 0h2m1 0h1m1 0h4m1 0h1m1 0h1m2 0h1m1 0h1m3 0h1m1 0h1m1 0h1m1 0h1m1 0h4m1 0h2m1 0h4m1 0h4m1 0h1m1 0h3M4 77.5h1m2 0h2m3 0h3m1 0h1m2 0h1m3 0h1m1 0h3m2 0h1m3 0h3m1 0h1m2 0h1m5 0h6m3 0h2m3 0h6m1 0h2m3 0h2m3 0h1m6 0h1m2 0h1m1 0h3m1 0h3m3 0h2m1 0h1M6 78.5h11m2 0h1m1 0h1m2 0h1m1 0h1m2 0h13m1 0h6m2 0h6m5 0h4m1 0h1m2 0h1m2 0h7m1 0h1m2 0h1m3 0h1m3 0h1m1 0h8M7 79.5h1m5 0h4m1 0h4m4 0h2m1 0h1m3 0h1m1 0h3m1 0h2m2 0h2m2 0h1m4 0h3m1 0h1m1 0h2m1 0h2m3 0h2m2 0h4m2 0h1m2 0h1m1 0h3m5 0h1m1 0h2m3 0h5M5 80.5h1m1 0h1m1 0h5m3 0h1m2 0h3m1 0h1m2 0h2m4 0h2m1 0h3m2 0h1m3 0h2m1 0h1m1 0h2m1 0h1m1 0h1m4 0h3m1 0h1m1 0h2m1 0h3m1 0h1m1 0h2m1 0h10m1 0h1m1 0h4m1 0h1m2 0h1m2 0h2M6 81.5h4m2 0h1m2 0h4m2 0h3m5 0h4m1 0h1m1 0h2m4 0h1m1 0h4m2 0h9m1 0h2m2 0h4m1 0h3m1 0h2m1 0h2m1 0h2m4 0h1m1 0h1m3 0h2m2 0h2m1 0h2m1 0h2m1 0h1M4 82.5h2m2 0h3m2 0h3m1 0h1m1 0h1m2 0h3m3 0h3m4 0h1m3 0h1m2 0h2m4 0h2m1 0h4m2 0h3m1 0h4m2 0h2m2 0h1m6 0h1m1 0h4m1 0h2m1 0h1m3 0h1m1 0h2m1 0h1m1 0h3m1 0h2M4 83.5h1m1 0h2m1 0h1m4 0h4m2 0h1m7 0h2m1 0h1m2 0h1m5 0h2m1 0h3m1 0h1m4 0h1m2 0h3m1 0h5m3 0h1m1 0h2m1 0h1m3 0h1m4 0h1m1 0h4m1 0h3m6 0h1m5 0h1M8 84.5h1m1 0h1m2 0h2m6 0h1m4 0h2m2 0h5m1 0h1m1 0h3m2 0h3m1 0h3m2 0h1m1 0h1m2 0h1m1 0h5m1 0h1m4 0h1m2 0h3m1 0h4m1 0h2m3 0h2m1 0h3m1 0h3m4 0h4M6 85.5h2m1 0h1m2 0h3m2 0h2m4 0h2m3 0h1m1 0h4m1 0h2m2 0h1m2 0h3m3 0h1m1 0h3m2 0h1m3 0h1m2 0h3m2 0h1m1 0h1m1 0h1m1 0h2m1 0h1m2 0h7m2 0h2m1 0h2m3 0h3m4 0h2M7 86.5h2m1 0h6m2 0h1m1 0h1m1 0h3m4 0h2m1 0h2m1 0h1m2 0h3m1 0h2m2 0h1m1 0h8m7 0h3m3 0h2m1 0h3m1 0h1m2 0h2m3 0h1m3 0h1m2 0h4m1 0h1m2 0h2m1 0h1M5 87.5h3m3 0h1m4 0h2m3 0h1m1 0h1m3 0h1m1 0h1m3 0h1m1 0h3m2 0h2m1 0h3m1 0h2m2 0h1m3 0h1m4 0h1m2 0h4m4 0h4m1 0h2m5 0h2m1 0h2m4 0h2m1 0h4m1 0h1m2 0h1M7 88.5h4m1 0h1m1 0h1m4 0h2m1 0h2m1 0h1m5 0h2m3 0h1m1 0h1m4 0h5m1 0h1m1 0h10m1 0h4m1 0h2m4 0h10m1 0h3m4 0h1m2 0h1m6 0h1M5 89.5h3m1 0h1m1 0h2m1 0h1m1 0h1m2 0h4m1 0h1m1 0h1m4 0h5m2 0h1m2 0h2m1 0h7m5 0h2m3 0h1m1 0h1m2 0h1m1 0h1m2 0h1m1 0h2m1 0h1m3 0h2m3 0h2m4 0h1m1 0h3m3 0h1m2 0h2M7 90.5h2m1 0h2m1 0h1m6 0h1m2 0h1m2 0h1m1 0h1m3 0h2m1 0h1m1 0h2m1 0h1m1 0h2m1 0h2m1 0h1m1 0h1m4 0h2m1 0h2m1 0h3m5 0h1m1 0h1m1 0h10m1 0h1m2 0h1m1 0h2m1 0h1m1 0h2m2 0h2m1 0h1M5 91.5h3m3 0h2m3 0h8m1 0h1m3 0h3m2 0h4m1 0h6m1 0h3m1 0h1m2 0h2m1 0h2m1 0h1m2 0h2m1 0h3m4 0h1m1 0h2m2 0h1m1 0h5m1 0h2m1 0h5m1 0h1m1 0h5m1 0h1M4 92.5h3m2 0h2m1 0h1m1 0h2m1 0h1m2 0h3m1 0h1m1 0h2m1 0h4m4 0h1m2 0h1m1 0h1m1 0h1m1 0h3m1 0h1m1 0h2m2 0h1m1 0h1m1 0h1m1 0h3m2 0h2m1 0h1m1 0h4m3 0h1m4 0h1m1 0h1m1 0h1m1 0h4m2 0h1m3 0h4M5 93.5h1m3 0h1m2 0h2m1 0h2m2 0h1m1 0h1m2 0h1m1 0h1m1 0h1m4 0h4m1 0h1m2 0h5m1 0h2m1 0h3m2 0h1m1 0h1m2 0h1m1 0h2m2 0h2m4 0h1m3 0h4m1 0h1m1 0h1m1 0h2m1 0h1m5 0h2m2 0h1m1 0h2m1 0h2M4 94.5h1m2 0h2m1 0h1m2 0h1m1 0h1m2 0h2m1 0h1m1 0h1m1 0h3m3 0h1m2 0h3m1 0h1m2 0h4m2 0h1m1 0h1m1 0h1m5 0h1m5 0h3m3 0h1m1 0h2m3 0h3m3 0h5m1 0h1m3 0h2m1 0h1m2 0h1m1 0h1m1 0h1m1 0h1M4 95.5h1m1 0h2m1 0h1m1 0h2m2 0h1m2 0h3m1 0h1m1 0h1m1 0h5m1 0h3m3 0h2m1 0h1m2 0h3m3 0h2m1 0h1m2 0h9m2 0h7m4 0h2m1 0h2m2 0h3m1 0h1m1 0h3m1 0h1m1 0h1m2 0h2m1 0h2M8 96.5h1m1 0h1m1 0h2m1 0h1m1 0h4m4 0h4m1 0h5m4 0h2m1 0h1m3 0h1m1 0h1m1 0h7m1 0h2m1 0h2m1 0h2m1 0h2m1 0h1m1 0h8m2 0h1m1 0h2m1 0h2m2 0h3m2 0h6m2 0h1M12 97.5h2m1 0h2m1 0h2m4 0h1m4 0h2m3 0h2m5 0h1m2 0h1m2 0h2m2 0h2m3 0h1m4 0h1m2 0h1m3 0h2m1 0h1m2 0h1m3 0h1m2 0h1m1 0h1m4 0h1m4 0h1m1 0h2m3 0h1m1 0h3M4 98.5h7m1 0h3m4 0h1m1 0h2m2 0h1m4 0h1m1 0h1m1 0h4m1 0h1m1 0h1m4 0h3m1 0h1m1 0h1m1 0h1m1 0h5m5 0h1m2 0h1m1 0h1m1 0h2m1 0h1m1 0h1m4 0h1m5 0h1m1 0h2m1 0h3m1 0h1m1 0h1M4 99.5h1m5 0h1m2 0h3m1 0h1m3 0h1m6 0h1m1 0h1m3 0h1m1 0h1m2 0h1m1 0h2m1 0h2m5 0h2m3 0h2m3 0h2m1 0h1m6 0h1m1 0h2m3 0h1m1 0h2m1 0h2m1 0h1m2 0h1m3 0h4m3 0h4M4 100.5h1m1 0h3m1 0h1m3 0h4m2 0h3m1 0h2m2 0h8m1 0h2m1 0h6m1 0h1m2 0h1m1 0h5m3 0h8m1 0h1m3 0h7m1 0h3m2 0h1m4 0h2m3 0h6m1 0h2M4 101.5h1m1 0h3m1 0h1m1 0h5m1 0h4m1 0h1m1 0h1m2 0h1m2 0h1m1 0h2m2 0h1m1 0h1m4 0h3m4 0h2m2 0h2m3 0h1m2 0h7m2 0h3m1 0h9m3 0h6m3 0h2m3 0h3M4 102.5h1m1 0h3m1 0h1m5 0h1m2 0h2m4 0h1m1 0h1m3 0h1m4 0h1m2 0h6m1 0h2m4 0h4m2 0h2m1 0h2m2 0h1m1 0h3m1 0h1m4 0h1m4 0h2m2 0h2m3 0h2m1 0h1m3 0h1m1 0h2m1 0h1m1 0h1M4 103.5h1m5 0h1m1 0h6m1 0h2m2 0h3m5 0h2m1 0h2m1 0h2m2 0h1m3 0h2m3 0h1m2 0h1m2 0h5m2 0h5m2 0h7m2 0h1m4 0h1m2 0h1m3 0h3m1 0h3m1 0h3m1 0h1M4 104.5h7m1 0h7m1 0h2m3 0h1m1 0h1m1 0h1m1 0h1m4 0h1m5 0h2m1 0h1m1 0h1m5 0h2m4 0h2m2 0h1m2 0h4m2 0h1m2 0h1m1 0h2m1 0h1m3 0h1m1 0h1m1 0h1m4 0h1m2 0h1m1 0h1m2 0h3"/></svg>
