<svg xmlns="http://www.w3.org/2000/svg" viewBox="0 0 113 113" shape-rendering="crispEdges"><path fill="#ffffff" d="M0 0h113v113H0z"/><path stroke="#000000" d="M4 4.5h7m5 0h1m1 0h1m4 0h1m1 0h1m3 0h2m4 0h3m1 0h4m1 0h1m1 0h2m2 0h3m1 0h1m1 0h8m2 0h1m2 0h2m1 0h2m4 0h1m1 0h1m4 0h2m1 0h1m1 0h2m2 0h2m2 0h1m3 0h7M4 5.5h1m5 0h1m2 0h1m1 0h2m1 0h3m1 0h1m2 0h4m1 0h3m7 0h5m7 0h4m2 0h2m1 0h2m3 0h1m2 0h6m1 0h3m2 0h1m1 0h1m1 0h1m4 0h3m2 0h2m1 0h1m3 0h1m5 0h1M4 6.5h1m1 0h3m1 0h1m3 0h1m1 0h3m3 0h1m1 0h2m1 0h2m1 0h1m3 0h3m1 0h1m1 0h4m1 0h4m2 0h1m2 0h2m2 0h1m7 0h3m3 0h2m1 0h1m2 0h1m1 0h2m2 0h1m1 0h3m1 0h2m5 0h3m2 0h1m1 0h3m1 0h1M4 7.5h1m1 0h3m1 0h1m1 0h1m2 0h2m5 0h3m1 0h6m2 0h1m2 0h1m6 0h5m2 0h1m1 0h1m1 0h3m1 0h2m1 0h1m1 0h2m2 0h1m1 0h2m1 0h4m1 0h2m2 0h1m1 0h3m2 0h4m3 0h1m3 0h1m1 0h1m1 0h3m1 0h1M4 8.5h1m1 0h3m1 0h1m1 0h1m1 0h2m1 0h1m1 0h2m2 0h1m4 0h5m2 0h3m3 0h1m1 0h2m5 0h9m2 0h1m1 0h3m1 0h4m1 0h1m3 0h5m1 0h1m1 0h1m6 0h2m6 0h2m1 0h1m1 0h3m1 0h1M4 9.5h1m5 0h1m4 0h1m2 0h6m2 0h1m1 0h1m3 0h3m2 0h3m1 0h1m4 0h1m3 0h3m3 0h2m1 0h2m1 0h3m4 0h2m1 0h1m1 0h3m3 0h2m6 0h2m1 0h1m2 0h1m4 0h1m2 0h1m5 0h1M4 10.5h7m1 0h1m1 0h1m1 0h1m1 0h1m1 0h1m1 0h1m1 0h1m1 0h1m1 0h1m1 0h1m1 0h1m1 0h1m1 0h1m1 0h1m1 0h1m1 0h1m1 0h1m1 0h1m1 0h1m1 0h1m1 0h1m1 0h1m1 0h1m1 0h1m1 0h1m1 0h1m1 0h1m1 0h1m1 0h1m1 0h1m1 0h1m1 0h1m1 0h1m1 0h1m1 0h1m1 0h1m1 0h1m1 0h1m1 0h1m1 0h1m1 0h1m1 0h1m1 0h1m1 0h1m1 0h1m1 0h7M13 11.5h1m3 0h7m2 0h1m1 0h1m3 0h2m3 0h4m4 0h1m2 0h5m3 0h1m1 0h2m1 0h3m1 0h1m2 0h4m4 0h1m3 0h1m3 0h1m3 0h1m2 0h1m2 0h1m2 0h1m1 0h2M4 12.5h2m3 0h3m2 0h4m2 0h6m1 0h6m3 0h1m2 0h1m1 0h2m1 0h1m1 0h1m1 0h1m1 0h10m2 0h1m1 0h1m2 0h1m1 0h1m2 0h3m1 0h7m3 0h1m2 0h6m1 0h1m7 0h2M4 13.5h3m2 0h1m2 0h1m3 0h2m1 0h2m1 0h3m2 0h1m2 0h1m1 0h1m1 0h1m1 0h1m1 0h1m3 0h1m2 0h2m2 0h1m2 0h1m1 0h2m1 0h4m1 0h1m2 0h1m1 0h1m5 0h1m1 0h2m1 0h2m1 0h2m1 0h2m1 0h1m1 0h3m1 0h3m1 0h3m1 0h1m1 0h1m1 0h4M5 14.5h1m4 0h1m1 0h2m1 0h1m3 0h1m1 0h1m6 0h1m4 0h3m1 0h1m2 0h1m1 0h2m2 0h2m4 0h1m1 0h2m5 0h4m1 0h2m1 0h1m1 0h1m1 0h1m1 0h3m1 0h1m3 0h4m1 0h1m1 0h1m2 0h1m2 0h3m1 0h2m1 0h6M4 15.5h1m1 0h4m1 0h3m1 0h1m1 0h1m1 0h1m1 0h2m1 0h2m2 0h2m4 0h1m2 0h1m1 0h1m4 0h4m1 0h1m2 0h7m2 0h1m2 0h3m1 0h1m1 0h2m1 0h1m1 0h1m5 0h1m3 0h3m1 0h1m2 0h2m5 0h3m3 0h4M4 16.5h1m1 0h1m2 0h2m2 0h7m2 0h1m2 0h2m1 0h2m2 0h1m6 0h1m1 0h1m1 0h3m2 0h2m1 0h3m1 0h1m2 0h1m1 0h1m3 0h1m1 0h2m2 0h3m1 0h1m1 0h2m1 0h2m3 0h2m2 0h3m1 0h2m1 0h1m2 0h1m1 0h2m1 0h3M13 17.5h4m1 0h4m1 0h4m1 0h2m3 0h1m3 0h1m1 0h1m2 0h1m1 0h4m1 0h3m2 0h3m1 0h2m1 0h2m1 0h3m1 0h8m1 0h2m4 0h1m1 0h1m4 0h3m1 0h1m1 0h3m1 0h1m1 0h1M5 18.5h2m2 0h3m2 0h1m4 0h1m1 0h1m1 0h1m1 0h2m2 0h1m2 0h1m2 0h1m3 0h3m2 0h2m1 0h1m1 0h4m1 0h2m8 0h1m1 0h1m3 0h1m1 0h1m1 0h1m3 0h2m1 0h3m1 0h2m1 0h1m1 0h1m1 0h1m2 0h4m1 0h1m1 0h3M4 19.5h1m4 0h1m2 0h4m2 0h4m2 0h1m3 0h2m1 0h2m2 0h2m1 0h1m2 0h2m2 0h7m1 0h2m1 0h1m7 0h3m2 0h2m1 0h1m1 0h4m1 0h2m1 0h1m2 0h1m1 0h1m1 0h1m4 0h5m2 0h1m6 0h1M6 20.5h2m2 0h4m3 0h2m1 0h3m3 0h1m1 0h1m4 0h2m4 0h1m4 0h3m3 0h2m2 0h1m1 0h1m3 0h2m3 0h2m3 0h1m2 0h1m5 0h1m6 0h2m1 0h1m2 0h2m1 0h6m1 0h5M5 21.5h2m1 0h2m1 0h1m8 0h1m6 0h3m4 0h2m1 0h2m2 0h1m1 0h2m1 0h3m3 0h2m6 0h1m1 0h1m3 0h2m3 0h2m1 0h2m1 0h1m1 0h1m7 0h1m2 0h2m1 0h1m1 0h2m3 0h2m1 0h1m2 0h1m1 0h1M4 22.5h1m2 0h1m1 0h2m1 0h1m2 0h4m2 0h4m3 0h1m1 0h3m4 0h1m1 0h1m1 0h4m1 0h1m1 0h3m1 0h2m2 0h1m3 0h2m2 0h1m3 0h1m5 0h3m2 0h4m2 0h1m1 0h3m1 0h1m1 0h4m1 0h1m1 0h3m1 0h1m3 0h1M7 23.5h1m1 0h1m1 0h1m1 0h1m6 0h1m1 0h2m1 0h1m2 0h1m8 0h1m3 0h1m1 0h3m3 0h3m2 0h3m2 0h1m1 0h1m8 0h1m1 0h1m4 0h2m2 0h1m1 0h1m1 0h1m5 0h1m2 0h2m1 0h1m1 0h2m3 0h1m1 0h2M6 24.5h2m2 0h1m1 0h3m4 0h1m1 0h1m2 0h1m3 0h1m2 0h1m3 0h1m3 0h1m3 0h4m1 0h2m3 0h1m3 0h2m1 0h2m1 0h2m4 0h2m2 0h3m2 0h2m1 0h1m1 0h3m2 0h1m1 0h1m1 0h2m2 0h1m2 0h1m2 0h3m2 0h1M5 25.5h2m2 0h1m2 0h2m1 0h1m4 0h3m2 0h1m3 0h1m1 0h3m2 0h1m1 0h2m3 0h1m5 0h1m1 0h2m1 0h2m1 0h3m2 0h4m2 0h2m1 0h2m1 0h3m2 0h2m3 0h6m2 0h1m1 0h2m2 0h2m3 0h1m2 0h3M6 26.5h1m2 0h3m3 0h4m4 0h2m1 0h3m4 0h1m3 0h1m1 0h1m4 0h1m2 0h2m2 0h1m3 0h1m2 0h2m1 0h1m3 0h1m1 0h1m1 0h5m1 0h3m1 0h1m2 0h3m2 0h2m1 0h2m3 0h2m2 0h1m3 0h1m1 0h1m1 0h2M4 27.5h1m1 0h1m2 0h1m2 0h2m1 0h1m3 0h1m1 0h5m1 0h1m3 0h1m2 0h3m3 0h3m1 0h2m2 0h1m1 0h1m3 0h2m5 0h4m1 0h1m2 0h3m1 0h2m1 0h2m1 0h1m2 0h1m1 0h2m1 0h1m1 0h1m2 0h1m1 0h1m2 0h1m2 0h2m1 0h4m1 0h1M4 28.5h1m2 0h11m2 0h6m2 0h5m1 0h1m2 0h3m1 0h3m1 0h3m1 0h2m1 0h6m1 0h2m4 0h2m2 0h2m1 0h3m1 0h5m5 0h1m2 0h1m1 0h1m1 0h1m2 0h2m1 0h7m2 0h1M7 29.5h2m3 0h7m2 0h1m6 0h1m3 0h1m1 0h4m1 0h3m1 0h1m3 0h1m1 0h4m3 0h2m1 0h1m2 0h1m2 0h1m2 0h1m1 0h1m1 0h1m2 0h2m3 0h1m1 0h1m2 0h8m2 0h2m1 0h3m3 0h1m1 0h2M5 30.5h2m1 0h1m1 0h1m1 0h2m3 0h3m1 0h1m1 0h1m1 0h4m1 0h1m1 0h1m2 0h3m2 0h1m1 0h1m2 0h2m2 0h2m1 0h1m1 0h1m1 0h4m2 0h3m1 0h1m3 0h2m1 0h2m1 0h1m1 0h1m1 0h1m1 0h1m1 0h2m5 0h1m1 0h3m3 0h2m1 0h1m1 0h3m1 0h1M7 31.5h2m3 0h3m1 0h2m1 0h2m2 0h1m1 0h4m3 0h2m2 0h4m1 0h1m3 0h3m3 0h2m3 0h1m5 0h2m1 0h3m1 0h1m2 0h1m1 0h1m1 0h1m3 0h2m3 0h1m1 0h1m1 0h1m2 0h9m3 0h1m1 0h1M5 32.5h1m1 0h6m1 0h5m1 0h4m1 0h1m2 0h5m6 0h2m1 0h3m3 0h1m1 0h10m2 0h4m2 0h1m1 0h2m2 0h10m2 0h3m2 0h2m4 0h11M8 33.5h2m2 0h5m1 0h3m3 0h2m3 0h1m2 0h1m2 0h3m2 0h1m1 0h1m2 0h4m2 0h1m3 0h1m1 0h5m1 0h1m2 0h1m2 0h2m2 0h1m3 0h1m1 0h1m5 0h4m2 0h3m1 0h4m3 0h3m2 0h2M6 34.5h1m2 0h3m1 0h2m1 0h2m2 0h11m2 0h1m3 0h1m3 0h2m2 0h1m2 0h4m5 0h1m1 0h2m1 0h7m2 0h2m2 0h3m4 0h1m1 0h3m2 0h1m1 0h2m1 0h4m1 0h1m1 0h4m1 0h1m1 0h1M4 35.5h3m7 0h3m1 0h1m2 0h1m1 0h1m1 0h1m2 0h5m1 0h1m1 0h3m4 0h4m1 0h3m1 0h2m1 0h2m3 0h2m1 0h3m4 0h3m1 0h1m1 0h4m3 0h1m1 0h1m1 0h1m1 0h1m1 0h1m1 0h2m1 0h4m1 0h7M6 36.5h2m2 0h1m2 0h3m1 0h1m1 0h4m3 0h1m1 0h1m1 0h3m1 0h1m3 0h1m1 0h1m4 0h4m2 0h2m2 0h3m2 0h3m1 0h1m1 0h1m1 0h1m2 0h1m3 0h3m1 0h1m5 0h2m1 0h1m3 0h1m2 0h1m1 0h4m1 0h1m5 0h1M5 37.5h1m2 0h2m1 0h1m2 0h2m1 0h1m1 0h1m1 0h1m1 0h3m1 0h11m3 0h1m1 0h2m2 0h2m1 0h5m4 0h1m1 0h1m2 0h1m1 0h1m2 0h2m2 0h2m1 0h2m1 0h2m3 0h3m1 0h1m2 0h1m2 0h2m5 0h1m2 0h2m2 0h1M4 38.5h5m1 0h2m2 0h1m1 0h3m1 0h4m1 0h3m1 0h2m3 0h2m1 0h2m2 0h2m5 0h1m1 0h1m3 0h1m1 0h2m1 0h1m1 0h2m3 0h1m1 0h1m2 0h1m1 0h2m2 0h2m1 0h1m1 0h1m4 0h2m2 0h1m1 0h4m1 0h1m4 0h1m2 0h1M4 39.5h3m1 0h2m1 0h5m4 0h1m1 0h4m2 0h1m3 0h4m1 0h2m1 0h1m1 0h2m1 0h3m3 0h5m2 0h1m1 0h2m4 0h2m1 0h1m2 0h2m1 0h1m2 0h2m1 0h2m3 0h1m4 0h1m1 0h1m1 0h1m1 0h2m1 0h1m1 0h1m2 0h3M6 40.5h3m1 0h5m2 0h1m3 0h1m12 0h2m2 0h1m1 0h1m2 0h2m2 0h2m5 0h2m1 0h1m1 0h1m1 0h2m5 0h2m2 0h8m4 0h2m3 0h2m1 0h2m1 0h2m1 0h1m1 0h3m1 0h1M4 41.5h3m6 0h1m1 0h2m4 0h4m2 0h1m1 0h2m2 0h1m2 0h1m1 0h1m1 0h1m2 0h1m3 0h2m1 0h1m4 0h4m2 0h1m2 0h1m4 0h2m2 0h1m1 0h1m1 0h3m2 0h3m1 0h1m1 0h3m5 0h1m1 0h3m1 0h1m1 0h1m1 0h3M6 42.5h1m2 0h4m4 0h2m1 0h1m3 0h1m1 0h1m3 0h3m1 0h2m1 0h2m4 0h1m1 0h3m2 0h4m1 0h1m2 0h1m2 0h1m2 0h2m2 0h1m1 0h1m1 0h2m4 0h2m2 0h2m1 0h3m3 0h6m1 0h1m1 0h1m1 0h1m2 0h2M5 43.5h3m7 0h1m2 0h9m1 0h2m2 0h2m2 0h1m1 0h3m1 0h1m1 0h1m3 0h1m1 0h1m3 0h2m3 0h1m5 0h2m3 0h1m1 0h3m1 0h2m2 0h1m2 0h1m2 0h1m2 0h5m2 0h2m5 0h1m1 0h1M5 44.5h2m1 0h1m1 0h2m2 0h2m3 0h2m2 0h1m11 0h1m1 0h1m3 0h4m6 0h3m1 0h1m4 0h1m3 0h2m2 0h6m6 0h3m1 0h1m1 0h1m2 0h1m1 0h3m2 0h1m1 0h3m3 0h1m1 0h2M7 45.5h3m1 0h4m1 0h1m3 0h1m2 0h1m4 0h1m1 0h2m2 0h1m2 0h2m1 0h1m7 0h1m2 0h1m6 0h3m1 0h1m5 0h1m3 0h2m2 0h1m2 0h1m1 0h3m1 0h1m2 0h3m1 0h3m3 0h2m1 0h1m1 0h1m1 0h3M4 46.5h1m1 0h2m2 0h2m3 0h1m2 0h3m2 0h1m2 0h3m1 0h1m2 0h1m2 0h2m2 0h2m1 0h2m3 0h1m3 0h1m2 0h1m1 0h1m4 0h1m3 0h1m2 0h1m5 0h1m3 0h1m6 0h1m1 0h1m1 0h3m3 0h2m1 0h2m1 0h1m1 0h3m1 0h1M5 47.5h1m1 0h1m3 0h1m2 0h3m1 0h1m1 0h5m4 0h1m2 0h1m1 0h2m2 0h2m2 0h5m2 0h5m3 0h2m1 0h4m1 0h5m1 0h1m1 0h3m1 0h2m1 0h2m3 0h2m3 0h1m2 0h1m3 0h2m3 0h7M7 48.5h1m2 0h3m4 0h1m3 0h1m2 0h1m1 0h1m1 0h2m4 0h2m1 0h6m2 0h1m1 0h1m1 0h1m1 0h2m2 0h2m1 0h4m2 0h1m5 0h1m3 0h1m1 0h1m6 0h1m3 0h1m1 0h2m5 0h1m2 0h1m1 0h3m1 0h2M8 49.5h2m3 0h1m1 0h1m1 0h6m1 0h4m1 0h4m1 0h3m2 0h2m3 0h1m3 0h2m2 0h1m1 0h1m1 0h1m1 0h4m3 0h1m3 0h3m2 0h1m2 0h5m1 0h1m1 0h2m4 0h1m2 0h1m1 0h2m1 0h3m1 0h3m2 0h1M6 50.5h1m3 0h1m13 0h2m2 0h1m2 0h5m3 0h2m1 0h1m1 0h2m1 0h2m2 0h2m1 0h1m1 0h1m2 0h4m1 0h2m1 0h1m2 0h3m1 0h2m3 0h1m2 0h1m4 0h1m1 0h4m5 0h1m1 0h3m1 0h1m1 0h2M5 51.5h2m4 0h1m2 0h2m2 0h2m1 0h2m1 0h1m2 0h2m1 0h1m2 0h6m1 0h2m1 0h1m2 0h3m5 0h1m1 0h1m2 0h3m1 0h1m3 0h1m1 0h2m3 0h2m4 0h2m1 0h1m1 0h1m1 0h4m1 0h1m2 0h2m1 0h4m3 0h4M4 52.5h2m1 0h6m1 0h1m1 0h1m3 0h1m1 0h3m1 0h1m1 0h7m1 0h1m3 0h5m1 0h2m1 0h1m1 0h7m1 0h5m2 0h5m1 0h1m2 0h6m5 0h1m1 0h2m5 0h2m1 0h1m1 0h8M4 53.5h1m2 0h2m3 0h1m2 0h1m1 0h1m1 0h10m3 0h2m1 0h4m1 0h1m1 0h3m1 0h2m1 0h2m1 0h1m3 0h1m3 0h1m2 0h1m2 0h1m1 0h1m1 0h1m1 0h2m2 0h1m3 0h2m1 0h1m1 0h1m3 0h1m1 0h4m5 0h1m3 0h3m1 0h1M4 54.5h3m1 0h1m1 0h1m1 0h1m2 0h4m3 0h5m1 0h1m1 0h1m1 0h1m2 0h1m1 0h1m2 0h2m1 0h1m2 0h2m3 0h2m1 0h1m1 0h4m2 0h1m9 0h1m3 0h1m1 0h1m1 0h1m1 0h4m1 0h6m1 0h1m4 0h2m1 0h1m1 0h1m3 0h1M4 55.5h1m3 0h1m3 0h1m8 0h1m3 0h2m1 0h1m3 0h2m4 0h2m1 0h1m2 0h1m1 0h3m1 0h3m3 0h1m2 0h2m2 0h2m7 0h2m2 0h1m3 0h1m2 0h1m1 0h3m1 0h1m2 0h1m1 0h1m2 0h2m1 0h1m3 0h2M8 56.5h7m2 0h1m3 0h3m4 0h5m3 0h3m1 0h8m4 0h5m2 0h1m1 0h1m1 0h2m5 0h1m2 0h1m2 0h5m5 0h3m2 0h1m1 0h2m1 0h2m1 0h6M4 57.5h2m1 0h1m4 0h4m1 0h1m2 0h6m2 0h3m1 0h1m6 0h1m2 0h2m3 0h2m2 0h3m2 0h1m1 0h5m2 0h1m2 0h1m1 0h2m2 0h2m1 0h1m1 0h1m2 0h2m3 0h1m6 0h1m2 0h1m4 0h1m2 0h1M5 58.5h3m1 0h3m4 0h4m3 0h3m5 0h1m2 0h1m4 0h1m4 0h1m2 0h1m1 0h2m1 0h1m1 0h3m3 0h1m1 0h1m2 0h5m2 0h2m2 0h8m2 0h2m2 0h1m1 0h2m1 0h1m2 0h1m6 0h2M5 59.5h1m5 0h2m1 0h2m1 0h3m1 0h7m1 0h2m1 0h1m1 0h4m1 0h2m4 0h3m1 0h1m5 0h3m2 0h2m1 0h3m1 0h3m2 0h1m2 0h1m2 0h3m1 0h1m1 0h1m2 0h2m3 0h4m1 0h1m2 0h1m4 0h4M4 60.5h1m4 0h3m2 0h2m2 0h2m2 0h1m4 0h3m1 0h1m2 0h3m3 0h2m3 0h1m1 0h3m1 0h1m1 0h1m3 0h1m1 0h3m1 0h3m1 0h4m2 0h2m2 0h1m1 0h1m5 0h4m1 0h3m1 0h1m1 0h1m1 0h3m1 0h2m3 0h2M4 61.5h1m2 0h1m6 0h1m2 0h3m3 0h1m2 0h3m1 0h2m1 0h1m1 0h2m3 0h1m1 0h1m1 0h1m1 0h1m4 0h1m4 0h1m1 0h1m6 0h3m3 0h1m1 0h1m1 0h1m2 0h5m1 0h4m1 0h1m1 0h1m1 0h1m5 0h3m1 0h1M4 62.5h1m4 0h2m1 0h1m1 0h1m2 0h1m1 0h2m1 0h1m1 0h3m2 0h1m1 0h3m3 0h5m2 0h2m1 0h1m2 0h1m1 0h3m3 0h4m2 0h2m2 0h2m1 0h1m1 0h1m1 0h1m3 0h2m1 0h1m1 0h2m2 0h2m2 0h1m3 0h2m1 0h3m1 0h2m1 0h1m1 0h1M4 63.5h2m1 0h1m3 0h2m1 0h2m2 0h3m1 0h3m1 0h1m1 0h2m1 0h2m1 0h1m5 0h4m6 0h2m1 0h1m3 0h1m1 0h1m1 0h2m2 0h6m1 0h3m4 0h1m1 0h1m5 0h4m1 0h5m1 0h1m4 0h4m1 0h1M4 64.5h3m2 0h2m1 0h1m1 0h1m2 0h4m2 0h1m2 0h2m3 0h1m1 0h1m5 0h2m2 0h11m2 0h3m2 0h6m1 0h2m2 0h2m4 0h4m1 0h3m3 0h2m1 0h1m3 0h4m3 0h1m1 0h1m1 0h2M4 65.5h1m3 0h2m2 0h5m1 0h2m4 0h1m2 0h4m3 0h1m3 0h1m1 0h1m4 0h1m6 0h1m1 0h1m2 0h3m1 0h1m1 0h2m1 0h2m1 0h1m2 0h1m3 0h2m1 0h1m1 0h4m1 0h4m3 0h1m2 0h9m3 0h1M4 66.5h3m3 0h1m2 0h4m1 0h4m2 0h1m1 0h1m2 0h1m2 0h1m1 0h1m3 0h1m3 0h4m1 0h1m1 0h2m1 0h2m1 0h2m2 0h1m1 0h1m2 0h1m3 0h3m4 0h2m1 0h3m1 0h1m1 0h1m1 0h6m1 0h3m1 0h2m1 0h2m3 0h3M5 67.5h5m1 0h1m1 0h2m1 0h2m2 0h2m2 0h1m1 0h4m2 0h1m2 0h1m2 0h4m4 0h1m1 0h3m1 0h2m1 0h1m1 0h1m1 0h6m1 0h2m1 0h3m1 0h2m1 0h3m2 0h2m1 0h1m3 0h1m2 0h2m2 0h5m4 0h5M4 68.5h1m1 0h1m2 0h3m2 0h1m3 0h1m1 0h1m2 0h3m1 0h3m6 0h2m1 0h1m1 0h4m2 0h1m2 0h1m4 0h1m2 0h1m1 0h1m1 0h2m1 0h3m4 0h4m1 0h1m1 0h1m1 0h1m1 0h1m1 0h2m2 0h1m2 0h1m4 0h6m2 0h1m2 0h1M6 69.5h3m3 0h2m2 0h1m5 0h1m8 0h1m1 0h3m2 0h1m1 0h2m1 0h1m1 0h1m3 0h2m1 0h2m1 0h1m2 0h1m1 0h2m3 0h1m5 0h3m1 0h2m1 0h2m2 0h2m2 0h2m2 0h1m1 0h1m3 0h1m1 0h1m3 0h2m1 0h2M9 70.5h2m1 0h2m1 0h2m1 0h1m2 0h1m3 0h2m2 0h2m1 0h2m1 0h4m1 0h2m1 0h1m1 0h1m1 0h4m1 0h2m1 0h1m1 0h1m1 0h1m2 0h1m1 0h1m1 0h5m1 0h1m2 0h3m4 0h4m3 0h5m1 0h1m1 0h1m2 0h2m4 0h3M4 71.5h4m4 0h4m1 0h1m1 0h1m1 0h2m1 0h8m1 0h6m2 0h3m1 0h2m1 0h2m2 0h4m3 0h1m1 0h2m1 0h6m1 0h1m1 0h2m3 0h1m2 0h3m2 0h2m1 0h1m2 0h1m2 0h1m6 0h1m1 0h2M4 72.5h3m1 0h4m1 0h2m1 0h4m2 0h3m3 0h1m1 0h1m2 0h1m2 0h2m2 0h1m2 0h1m1 0h1m1 0h1m1 0h2m1 0h1m5 0h1m4 0h3m9 0h1m3 0h4m2 0h1m2 0h5m1 0h1m1 0h1m4 0h1m1 0h1m1 0h2M4 73.5h1m1 0h3m4 0h1m1 0h1m1 0h3m1 0h3m1 0h1m1 0h2m1 0h1m5 0h5m1 0h2m1 0h2m6 0h1m1 0h8m1 0h1m1 0h3m1 0h4m1 0h1m2 0h1m1 0h2m1 0h1m5 0h2m1 0h2m3 0h2m3 0h1m3 0h1M6 74.5h1m3 0h1m1 0h1m6 0h1m2 0h2m2 0h1m1 0h2m1 0h1m1 0h1m1 0h4m2 0h4m5 0h4m4 0h3m3 0h1m3 0h2m1 0h3m1 0h1m1 0h1m2 0h4m1 0h2m5 0h1m3 0h2m1 0h1m2 0h3m1 0h2M5 75.5h1m1 0h1m3 0h1m2 0h1m2 0h1m3 0h1m3 0h3m1 0h1m2 0h1m1 0h1m1 0h2m1 0h4m1 0h6m1 0h3m2 0h5m5 0h4m1 0h1m1 0h1m1 0h1m1 0h1m4 0h2m1 0h1m3 0h2m4 0h2m1 0h1m1 0h1M6 76.5h7m1 0h5m2 0h1m3 0h1m2 0h6m1 0h1m2 0h1m1 0h2m1 0h1m1 0h2m1 0h3m1 0h10m1 0h1m1 0h2m1 0h5m2 0h10m3 0h3m1 0h1m5 0h9m1 0h1M6 77.5h1m1 0h1m3 0h2m1 0h2m2 0h3m1 0h1m2 0h1m1 0h1m3 0h3m2 0h2m3 0h2m1 0h1m1 0h1m1 0h1m1 0h2m3 0h4m3 0h1m1 0h2m4 0h1m2 0h3m3 0h8m1 0h2m5 0h3m1 0h1m3 0h1m2 0h2M5 78.5h4m1 0h1m1 0h2m1 0h2m1 0h1m2 0h3m1 0h1m2 0h1m1 0h1m1 0h3m3 0h1m3 0h1m2 0h2m2 0h1m1 0h2m1 0h1m1 0h1m1 0h2m2 0h1m4 0h1m1 0h1m2 0h1m1 0h1m1 0h1m1 0h1m1 0h1m2 0h1m4 0h1m2 0h3m1 0h1m4 0h1m1 0h1m1 0h3M8 79.5h1m3 0h5m1 0h1m1 0h2m3 0h2m1 0h1m3 0h1m1 0h2m1 0h2m2 0h2m2 0h1m1 0h6m3 0h1m3 0h2m2 0h1m2 0h2m2 0h1m2 0h3m3 0h4m5 0h1m6 0h1m3 0h1m3 0h2m1 0h1M8 80.5h5m4 0h3m2 0h1m2 0h1m2 0h5m3 0h1m2 0h2m1 0h2m2 0h1m1 0h3m1 0h8m1 0h1m1 0h2m1 0h7m3 0h9m1 0h1m1 0h2m1 0h1m1 0h2m3 0h1m1 0h5m2 0h2M4 81.5h1m4 0h1m1 0h1m1 0h1m2 0h3m2 0h2m2 0h1m1 0h3m2 0h1m2 0h2m3 0h1m1 0h2m4 0h3m2 0h1m1 0h3m3 0h2m1 0h2m2 0h1m1 0h1m3 0h3m1 0h1m3 0h1m1 0h1m5 0h1m3 0h3m2 0h2m3 0h1m1 0h1m1 0h1M7 82.5h1m1 0h2m3 0h2m4 0h1m1 0h1m2 0h2m1 0h1m2 0h2m2 0h1m3 0h5m2 0h2m1 0h1m1 0h1m1 0h1m1 0h2m5 0h1m2 0h1m2 0h1m1 0h2m3 0h1m2 0h1m1 0h2m2 0h2m3 0h1m2 0h3m1 0h3m1 0h3m1 0h1M5 83.5h2m2 0h1m2 0h2m1 0h3m2 0h4m2 0h3m1 0h1m2 0h1m1 0h2m1 0h1m3 0h1m2 0h1m1 0h2m7 0h1m2 0h1m1 0h1m1 0h1m1 0h1m1 0h1m2 0h2m4 0h10m4 0h2m7 0h1m1 0h1m3 0h2M6 84.5h2m2 0h1m1 0h1m1 0h1m2 0h2m5 0h3m3 0h1m3 0h1m1 0h2m1 0h2m1 0h1m3 0h1m5 0h1m7 0h1m4 0h1m1 0h3m4 0h1m4 0h3m1 0h1m1 0h3m1 0h1m1 0h2m2 0h1m2 0h1m1 0h9M5 85.5h1m2 0h1m4 0h3m7 0h2m2 0h2m2 0h1m1 0h1m2 0h3m1 0h1m2 0h1m1 0h2m1 0h1m1 0h1m2 0h1m2 0h1m1 0h3m4 0h2m4 0h1m3 0h4m1 0h1m1 0h1m1 0h2m4 0h1m6 0h1m3 0h1m4 0h1m1 0h1M4 86.5h1m1 0h1m2 0h2m1 0h2m3 0h2m3 0h1m4 0h1m1 0h1m1 0h1m2 0h3m3 0h1m1 0h3m1 0h1m5 0h1m1 0h4m2 0h5m4 0h1m2 0h2m1 0h1m1 0h2m1 0h1m7 0h1m2 0h1m2 0h1m1 0h3m1 0h1m2 0h1m2 0h1m1 0h1M4 87.5h2m1 0h1m1 0h1m1 0h1m1 0h3m1 0h2m1 0h1m3 0h5m2 0h1m1 0h2m2 0h1m1 0h1m3 0h1m1 0h5m3 0h4m4 0h1m2 0h2m1 0h1m2 0h2m3 0h1m3 0h3m1 0h1m2 0h1m2 0h3m2 0h1m1 0h1m2 0h4m3 0h3M7 88.5h1m2 0h4m2 0h1m2 0h1m1 0h1m1 0h1m1 0h1m2 0h1m1 0h1m1 0h6m1 0h1m1 0h4m1 0h1m1 0h6m2 0h1m2 0h4m1 0h4m2 0h1m2 0h4m1 0h1m2 0h2m2 0h3m1 0h2m1 0h2m1 0h3m1 0h1m3 0h4m1 0h1M5 89.5h1m1 0h2m2 0h2m2 0h4m1 0h1m2 0h1m3 0h2m4 0h2m1 0h1m1 0h2m1 0h2m1 0h1m1 0h2m1 0h3m1 0h3m1 0h1m1 0h2m3 0h1m1 0h1m1 0h5m3 0h1m2 0h2m1 0h4m1 0h2m5 0h4m1 0h4m1 0h1m2 0h1M5 90.5h3m2 0h5m3 0h2m1 0h4m1 0h1m2 0h1m1 0h1m4 0h2m2 0h1m5 0h1m3 0h1m4 0h1m2 0h1m1 0h1m2 0h1m1 0h2m1 0h1m2 0h1m1 0h3m1 0h1m5 0h1m1 0h4m1 0h1m3 0h1m1 0h3m1 0h1m1 0h1m1 0h4M4 91.5h2m3 0h1m1 0h2m4 0h2m4 0h2m1 0h2m1 0h3m3 0h1m1 0h5m1 0h4m3 0h1m1 0h2m1 0h2m1 0h1m3 0h1m3 0h2m2 0h3m1 0h2m4 0h1m2 0h2m1 0h3m1 0h1m1 0h2m1 0h3m1 0h1m2 0h5m1 0h1M7 92.5h1m2 0h2m3 0h1m1 0h1m1 0h1m2 0h1m1 0h1m1 0h1m1 0h1m1 0h4m2 0h1m1 0h2m6 0h2m1 0h1m1 0h2m2 0h1m1 0h2m1 0h4m1 0h3m2 0h1m4 0h2m2 0h1m8 0h4m3 0h1m1 0h1m2 0h2m2 0h1m1 0h2M4 93.5h4m3 0h2m3 0h1m4 0h1m2 0h1m1 0h3m1 0h4m1 0h1m4 0h2m2 0h1m6 0h1m1 0h4m3 0h1m1 0h1m3 0h3m1 0h2m1 0h1m1 0h1m4 0h2m1 0h1m1 0h1m4 0h2m2 0h1m1 0h1m1 0h1m1 0h2m2 0h1M6 94.5h1m1 0h6m2 0h1m5 0h1m3 0h2m1 0h1m1 0h1m1 0h3m1 0h2m1 0h7m1 0h1m1 0h2m1 0h3m4 0h4m4 0h2m2 0h6m4 0h1m2 0h1m2 0h4m2 0h1m3 0h1m1 0h1m2 0h1m2 0h2M4 95.5h1m1 0h2m1 0h1m1 0h2m1 0h1m2 0h1m2 0h4m2 0h1m3 0h1m3 0h1m1 0h2m1 0h1m1 0h1m1 0h2m1 0h3m1 0h2m1 0h1m1 0h1m2 0h1m2 0h4m4 0h1m2 0h1m5 0h2m2 0h2m4 0h1m8 0h1m1 0h2m3 0h1M4 96.5h1m1 0h1m1 0h1m1 0h9m2 0h3m1 0h1m1 0h1m2 0h1m1 0h3m2 0h2m4 0h2m3 0h4m1 0h2m1 0h2m1 0h2m2 0h4m3 0h3m4 0h1m1 0h1m1 0h3m4 0h1m1 0h2m1 0h1m3 0h4m1 0h4M4 97.5h1m3 0h2m1 0h3m5 0h1m1 0h3m1 0h2m1 0h1m2 0h1m1 0h3m2 0h6m1 0h2m1 0h3m1 0h2m1 0h2m1 0h1m2 0h3m1 0h2m1 0h2m3 0h1m2 0h1m4 0h2m2 0h2m1 0h1m5 0h5m1 0h1m1 0h2m2 0h1m1 0h1M4 98.5h3m3 0h1m4 0h1m2 0h1m1 0h1m2 0h2m5 0h3m1 0h3m1 0h3m1 0h1m4 0h1m5 0h1m1 0h1m1 0h2m1 0h2m3 0h9m2 0h1m1 0h1m2 0h1m3 0h2m5 0h1m1 0h2m1 0h2m2 0h1m1 0h3M6 99.5h1m1 0h2m1 0h1m2 0h1m3 0h3m4 0h2m1 0h3m1 0h1m1 0h1m3 0h5m3 0h1m4 0h1m1 0h1m2 0h1m1 0h2m1 0h1m1 0h2m3 0h3m1 0h2m2 0h2m5 0h2m1 0h1m1 0h1m2 0h6m1 0h1m1 0h2m1 0h1m2 0h3M7 100.5h2m1 0h1m1 0h3m2 0h2m4 0h1m1 0h1m1 0h7m1 0h1m1 0h2m1 0h4m1 0h4m1 0h8m1 0h2m4 0h1m7 0h1m1 0h7m1 0h1m1 0h2m1 0h1m2 0h2m1 0h4m1 0h6m2 0h1M12 101.5h2m2 0h1m2 0h1m1 0h1m1 0h2m1 0h3m3 0h2m1 0h1m1 0h1m5 0h3m1 0h1m2 0h1m1 0h1m3 0h1m3 0h1m1 0h3m1 0h2m2 0h1m2 0h4m3 0h1m3 0h4m1 0h1m4 0h2m1 0h4m3 0h3M4 102.5h7m1 0h1m1 0h2m1 0h1m1 0h4m5 0h1m1 0h1m1 0h1m2 0h3m3 0h1m1 0h1m7 0h2m1 0h1m1 0h1m1 0h1m3 0h3m1 0h1m4 0h1m1 0h2m1 0h1m1 0h1m1 0h1m2 0h1m5 0h2m1 0h1m1 0h1m1 0h1m2 0h2m1 0h1m1 0h5M4 103.5h1m5 0h1m1 0h7m1 0h4m1 0h2m1 0h1m3 0h1m1 0h1m1 0h3m4 0h5m2 0h3m3 0h1m1 0h3m1 0h1m4 0h4m1 0h1m1 0h1m1 0h1m3 0h1m4 0h1m2 0h2m1 0h2m1 0h5m1 0h1m3 0h1M4 104.5h1m1 0h3m1 0h1m2 0h1m1 0h5m1 0h14m1 0h6m3 0h2m1 0h1m3 0h5m2 0h1m1 0h5m1 0h1m1 0h1m1 0h1m1 0h1m1 0h6m3 0h1m1 0h1m2 0h1m2 0h1m2 0h1m3 0h6m3 0h1M4 105.5h1m1 0h3m1 0h1m2 0h5m4 0h2m1 0h3m1 0h2m4 0h1m1 0h2m2 0h1m2 0h1m1 0h7m3 0h1m2 0h1m1 0h1m1 0h1m2 0h2m1 0h2m5 0h4m1 0h1m3 0h2m3 0h4m2 0h3m1 0h2m1 0h4M4 106.5h1m1 0h3m1 0h1m2 0h2m1 0h2m2 0h1m1 0h3m1 0h2m4 0h4m1 0h3m3 0h1m1 0h2m1 0h6m1 0h3m2 0h7m3 0h1m1 0h2m4 0h4m1 0h3m3 0h1m6 0h2m2 0h1m1 0h3m2 0h2M4 107.5h1m5 0h1m1 0h1m1 0h2m2 0h1m1 0h1m1 0h1m2 0h1m1 0h1m1 0h1m4 0h5m1 0h1m7 0h1m4 0h6m1 0h1m3 0h1m2 0h1m2 0h2m4 0h1m3 0h3m1 0h1m2 0h3m2 0h1m1 0h7m1 0h1m3 0h1M4 108.5h7m1 0h1m1 0h2m1 0h4m1 0h1m2 0h1m2 0h1m1 0h1m3 0h1m3 0h1m1 0h1m1 0h2m1 0h2m1 0h2m1 0h1m3 0h3m2 0h3m1 0h2m2 0h1m2 0h3m1 0h2m1 0h2m2 0h1m3 0h1m1 0h2m5 0h3m1 0h1m1 0h1m2 0h2m1 0h1"/></svg>
