<svg xmlns="http://www.w3.org/2000/svg" viewBox="0 0 101 101" shape-rendering="crispEdges"><path fill="#ffffff" d="M0 0h101v101H0z"/><path stroke="#000000" d="M4 4.5h7m1 0h2m1 0h7m1 0h4m4 0h2m1 0h1m1 0h1m1 0h2m3 0h2m3 0h2m4 0h1m3 0h1m1 0h1m8 0h1m2 0h1m2 0h2m4 0h1m1 0h3m1 0h1m2 0h7M4 5.5h1m5 0h1m1 0h3m1 0h5m2 0h4m2 0h9m2 0h2m2 0h1m1 0h1m1 0h2m2 0h4m1 0h4m1 0h1m3 0h2m1 0h1m3 0h5m1 0h7m1 0h2m1 0h1m5 0h1M4 6.5h1m1 0h3m1 0h1m1 0h2m1 0h2m1 0h1m1 0h2m1 0h1m5 0h1m1 0h2m3 0h1m5 0h5m1 0h1m2 0h1m3 0h3m1 0h2m3 0h1m1 0h1m1 0h2m4 0h2m1 0h4m4 0h1m2 0h1m1 0h1m1 0h3m1 0h1M4 7.5h1m1 0h3m1 0h1m1 0h4m2 0h1m1 0h1m2 0h1m2 0h1m1 0h1m1 0h1m2 0h2m2 0h1m2 0h1m2 0h2m2 0h1m2 0h1m1 0h2m1 0h1m5 0h3m2 0h3m1 0h1m1 0h4m5 0h4m2 0h1m2 0h1m1 0h3m1 0h1M4 8.5h1m1 0h3m1 0h1m2 0h4m4 0h4m1 0h3m1 0h1m1 0h7m2 0h1m2 0h1m1 0h1m1 0h2m3 0h1m1 0h2m1 0h8m2 0h2m1 0h5m2 0h1m2 0h3m2 0h2m2 0h1m1 0h3m1 0h1M4 9.5h1m5 0h1m1 0h1m1 0h4m1 0h3m1 0h1m1 0h1m2 0h3m1 0h1m3 0h1m2 0h8m1 0h1m1 0h2m1 0h1m3 0h1m1 0h2m3 0h1m1 0h3m1 0h1m2 0h1m2 0h1m1 0h2m7 0h1m2 0h1m5 0h1M4 10.5h7m1 0h1m1 0h1m1 0h1m1 0h1m1 0h1m1 0h1m1 0h1m1 0h1m1 0h1m1 0h1m1 0h1m1 0h1m1 0h1m1 0h1m1 0h1m1 0h1m1 0h1m1 0h1m1 0h1m1 0h1m1 0h1m1 0h1m1 0h1m1 0h1m1 0h1m1 0h1m1 0h1m1 0h1m1 0h1m1 0h1m1 0h1m1 0h1m1 0h1m1 0h1m1 0h1m1 0h1m1 0h1m1 0h1m1 0h1m1 0h7M13 11.5h2m2 0h2m8 0h2m2 0h2m3 0h2m1 0h2m1 0h1m1 0h2m1 0h3m2 0h5m1 0h3m3 0h3m3 0h2m2 0h3m1 0h2m1 0h1m2 0h1m1 0h3M4 12.5h2m2 0h3m4 0h1m4 0h2m2 0h1m3 0h3m1 0h6m4 0h1m2 0h3m1 0h1m1 0h3m1 0h2m1 0h8m2 0h2m6 0h2m2 0h2m1 0h2m3 0h1m2 0h1m1 0h4M4 13.5h1m1 0h3m2 0h2m1 0h1m1 0h1m1 0h1m1 0h4m3 0h1m1 0h5m1 0h6m1 0h2m2 0h1m1 0h1m3 0h6m1 0h2m1 0h4m3 0h5m2 0h4m2 0h3m1 0h1m3 0h1m1 0h1m1 0h1m1 0h1M6 14.5h1m1 0h3m1 0h1m1 0h1m1 0h2m5 0h1m3 0h1m1 0h4m1 0h1m3 0h1m2 0h1m1 0h2m3 0h1m4 0h4m3 0h1m1 0h1m3 0h4m1 0h1m1 0h2m2 0h1m3 0h3m1 0h2m2 0h1m1 0h2m1 0h1M4 15.5h1m2 0h1m4 0h2m1 0h2m1 0h2m2 0h3m1 0h1m3 0h2m1 0h2m1 0h3m1 0h1m2 0h2m2 0h1m3 0h1m1 0h4m4 0h2m1 0h5m3 0h1m1 0h2m3 0h2m3 0h2m3 0h3m4 0h1M4 16.5h1m3 0h5m3 0h2m1 0h4m1 0h2m1 0h1m5 0h1m4 0h1m3 0h2m2 0h2m2 0h1m1 0h2m2 0h1m1 0h1m1 0h1m2 0h2m4 0h1m2 0h1m8 0h1m1 0h1m1 0h1m2 0h2m2 0h1m3 0h1M4 17.5h1m1 0h1m2 0h1m5 0h1m1 0h2m1 0h4m2 0h1m1 0h2m2 0h1m1 0h2m2 0h2m4 0h2m1 0h1m1 0h1m1 0h2m2 0h4m1 0h1m1 0h1m1 0h1m1 0h2m2 0h1m1 0h1m3 0h1m2 0h1m1 0h1m2 0h1m1 0h1m1 0h2m1 0h1m2 0h1m1 0h1M10 18.5h1m1 0h2m2 0h1m8 0h1m2 0h1m7 0h5m4 0h5m5 0h5m1 0h2m3 0h1m1 0h1m4 0h1m1 0h1m4 0h2m4 0h1m2 0h3M7 19.5h3m1 0h2m4 0h2m1 0h1m1 0h1m4 0h2m1 0h1m1 0h1m3 0h3m1 0h7m2 0h1m2 0h1m1 0h1m1 0h2m1 0h2m1 0h1m1 0h2m1 0h3m1 0h1m2 0h1m1 0h1m1 0h1m1 0h1m2 0h3m2 0h1m1 0h1m3 0h3M4 20.5h1m1 0h1m1 0h1m1 0h1m3 0h1m2 0h1m5 0h2m1 0h2m2 0h1m5 0h3m1 0h2m1 0h2m4 0h1m1 0h2m1 0h1m3 0h4m2 0h3m2 0h2m2 0h1m3 0h1m1 0h1m1 0h2m1 0h2m2 0h2m2 0h1M5 21.5h2m1 0h1m6 0h1m2 0h3m3 0h1m3 0h4m3 0h1m1 0h1m3 0h2m2 0h2m3 0h4m1 0h1m2 0h4m7 0h1m1 0h3m3 0h6m3 0h1m6 0h2M4 22.5h1m1 0h1m2 0h2m2 0h1m1 0h1m1 0h1m1 0h1m1 0h2m2 0h3m1 0h2m1 0h1m9 0h1m1 0h3m5 0h2m1 0h3m1 0h1m3 0h1m3 0h3m1 0h5m1 0h1m1 0h1m2 0h1m1 0h1m1 0h4m3 0h1M11 23.5h3m1 0h2m1 0h2m3 0h2m1 0h5m1 0h3m2 0h2m1 0h7m3 0h8m1 0h1m3 0h2m1 0h1m1 0h1m1 0h3m1 0h3m2 0h5m4 0h1m1 0h2m3 0h1M6 24.5h1m1 0h1m1 0h1m1 0h2m3 0h2m2 0h2m1 0h1m1 0h1m1 0h1m1 0h3m1 0h1m1 0h1m1 0h2m1 0h1m1 0h1m1 0h1m8 0h2m3 0h1m1 0h1m2 0h1m1 0h1m2 0h2m1 0h1m1 0h1m1 0h2m1 0h2m2 0h2m3 0h1m3 0h1m2 0h1M6 25.5h1m2 0h1m2 0h1m3 0h1m1 0h5m1 0h1m1 0h4m2 0h1m1 0h2m2 0h1m1 0h1m3 0h1m1 0h2m3 0h1m2 0h1m1 0h1m1 0h3m1 0h5m1 0h1m5 0h6m2 0h2m1 0h4m2 0h1m1 0h2M4 26.5h2m1 0h2m1 0h3m1 0h2m1 0h1m1 0h1m1 0h2m1 0h4m4 0h1m2 0h2m1 0h2m4 0h1m2 0h2m1 0h2m1 0h1m6 0h3m1 0h2m1 0h4m2 0h1m1 0h1m1 0h1m3 0h2m4 0h1m1 0h1m2 0h5M5 27.5h2m1 0h2m3 0h2m1 0h1m1 0h1m1 0h6m1 0h2m1 0h1m6 0h2m3 0h1m1 0h4m1 0h3m3 0h5m1 0h1m1 0h2m2 0h1m1 0h2m1 0h1m1 0h1m1 0h2m1 0h1m1 0h2m1 0h1m3 0h1m1 0h1m1 0h1m1 0h3M5 28.5h3m1 0h3m2 0h4m1 0h2m5 0h1m1 0h1m1 0h1m1 0h2m2 0h1m1 0h1m1 0h1m3 0h4m1 0h1m2 0h1m4 0h1m3 0h1m2 0h1m3 0h1m1 0h3m2 0h2m1 0h1m1 0h5m2 0h1m1 0h1m2 0h1M8 29.5h2m3 0h2m1 0h1m2 0h1m1 0h1m3 0h2m3 0h2m2 0h4m1 0h3m1 0h4m1 0h1m8 0h2m6 0h3m1 0h1m3 0h1m1 0h1m1 0h2m2 0h5m1 0h9M4 30.5h1m1 0h3m1 0h1m3 0h3m1 0h2m2 0h3m1 0h2m1 0h1m1 0h1m1 0h1m1 0h1m2 0h2m2 0h3m2 0h1m2 0h2m2 0h1m1 0h2m1 0h1m1 0h2m2 0h1m1 0h1m2 0h1m1 0h6m3 0h3m1 0h4m1 0h1m1 0h1m3 0h1M4 31.5h6m3 0h1m3 0h3m1 0h1m1 0h1m2 0h4m1 0h3m3 0h1m1 0h1m2 0h2m1 0h3m1 0h3m2 0h3m1 0h5m5 0h1m1 0h1m1 0h1m1 0h2m1 0h1m1 0h2m2 0h3m2 0h1m3 0h2M4 32.5h1m3 0h6m1 0h1m1 0h2m4 0h1m1 0h4m2 0h6m1 0h2m3 0h1m1 0h4m3 0h1m2 0h1m3 0h6m5 0h2m3 0h1m1 0h2m1 0h2m2 0h1m3 0h5m2 0h1M6 33.5h3m3 0h3m1 0h1m1 0h1m1 0h1m1 0h1m1 0h3m4 0h2m3 0h1m1 0h2m1 0h1m2 0h2m1 0h5m2 0h2m1 0h1m1 0h2m3 0h1m1 0h6m4 0h3m4 0h4m1 0h1m3 0h1m1 0h2M4 34.5h1m2 0h2m1 0h1m1 0h1m1 0h1m5 0h1m1 0h1m1 0h4m1 0h4m1 0h1m1 0h6m2 0h1m1 0h3m2 0h2m1 0h1m1 0h2m2 0h1m1 0h1m1 0h2m1 0h4m3 0h6m4 0h1m3 0h1m1 0h1m1 0h2m1 0h1M5 35.5h4m3 0h3m1 0h2m2 0h4m1 0h3m1 0h1m1 0h2m3 0h4m3 0h1m1 0h1m1 0h4m2 0h5m2 0h1m3 0h1m1 0h3m1 0h1m2 0h1m1 0h2m2 0h4m1 0h2m2 0h1m3 0h1m1 0h3M4 36.5h1m3 0h6m1 0h4m2 0h3m2 0h3m3 0h6m1 0h1m2 0h2m2 0h1m2 0h1m2 0h1m1 0h2m4 0h5m6 0h2m1 0h4m1 0h7m1 0h6m1 0h2M4 37.5h1m1 0h2m1 0h1m2 0h5m3 0h2m1 0h1m3 0h2m1 0h2m2 0h3m2 0h1m2 0h1m1 0h4m2 0h3m1 0h2m1 0h2m1 0h2m1 0h1m1 0h2m1 0h1m2 0h1m2 0h2m7 0h1m2 0h1m2 0h1m2 0h1M4 38.5h1m2 0h4m1 0h1m2 0h1m1 0h1m2 0h2m8 0h1m2 0h1m1 0h2m1 0h4m3 0h1m1 0h3m1 0h1m1 0h3m2 0h3m1 0h1m4 0h1m2 0h1m1 0h3m1 0h4m2 0h3m7 0h1m1 0h2M5 39.5h2m2 0h1m1 0h3m7 0h1m4 0h2m2 0h2m2 0h2m2 0h1m1 0h2m1 0h2m1 0h2m1 0h1m1 0h3m5 0h4m1 0h4m1 0h2m1 0h3m1 0h1m1 0h5m4 0h1m1 0h1m3 0h3M5 40.5h1m2 0h4m1 0h2m1 0h5m4 0h1m2 0h1m2 0h3m1 0h1m2 0h1m1 0h2m1 0h2m2 0h1m1 0h1m3 0h1m2 0h1m2 0h3m2 0h5m1 0h3m2 0h1m1 0h1m1 0h3m1 0h2m3 0h1m1 0h4m2 0h1M4 41.5h1m2 0h1m1 0h1m2 0h2m4 0h5m1 0h2m1 0h4m3 0h1m1 0h4m1 0h1m2 0h2m2 0h2m1 0h1m2 0h1m3 0h1m1 0h4m2 0h1m1 0h2m1 0h1m2 0h3m3 0h4m4 0h1m1 0h1m4 0h2M5 42.5h1m2 0h1m1 0h1m1 0h3m2 0h2m2 0h2m1 0h3m1 0h1m2 0h3m3 0h2m1 0h3m2 0h1m7 0h2m1 0h2m1 0h4m2 0h1m1 0h1m1 0h1m1 0h1m1 0h1m1 0h2m1 0h4m1 0h1m1 0h2m2 0h1m1 0h3m1 0h2M4 43.5h6m1 0h1m2 0h1m1 0h1m5 0h1m5 0h2m1 0h1m6 0h1m3 0h1m1 0h1m1 0h1m3 0h1m1 0h1m2 0h5m1 0h4m1 0h1m1 0h1m3 0h3m2 0h1m4 0h4m1 0h2m1 0h2m4 0h1M5 44.5h1m1 0h6m1 0h1m1 0h1m3 0h4m2 0h3m5 0h2m1 0h1m3 0h3m2 0h1m1 0h3m1 0h1m1 0h1m1 0h1m2 0h3m2 0h3m2 0h4m1 0h1m3 0h2m2 0h1m1 0h2m1 0h4m1 0h1m3 0h1M4 45.5h1m1 0h4m1 0h1m3 0h2m1 0h2m2 0h1m6 0h1m1 0h2m2 0h4m2 0h6m1 0h7m1 0h2m2 0h4m1 0h1m1 0h2m2 0h1m4 0h4m1 0h2m2 0h2m1 0h1m1 0h1m5 0h1M5 46.5h1m4 0h1m2 0h1m2 0h1m1 0h2m1 0h1m1 0h1m1 0h3m2 0h2m1 0h2m1 0h2m4 0h2m3 0h2m2 0h1m1 0h1m2 0h1m2 0h1m1 0h4m2 0h2m3 0h1m1 0h3m1 0h1m1 0h2m3 0h2m2 0h2m2 0h3M8 47.5h2m1 0h2m1 0h3m1 0h1m4 0h1m2 0h3m4 0h1m1 0h1m1 0h1m2 0h2m3 0h3m1 0h2m1 0h2m1 0h3m1 0h2m1 0h1m3 0h4m1 0h1m1 0h2m2 0h1m3 0h2m1 0h5m1 0h3m1 0h3M4 48.5h2m4 0h2m1 0h1m1 0h2m1 0h2m2 0h8m1 0h1m1 0h3m1 0h1m1 0h3m1 0h2m1 0h2m1 0h1m2 0h1m1 0h4m2 0h1m2 0h1m1 0h1m3 0h3m2 0h1m2 0h1m2 0h4m3 0h2m2 0h1m3 0h2M6 49.5h1m1 0h2m1 0h1m1 0h2m1 0h3m1 0h2m4 0h4m1 0h1m2 0h1m1 0h2m6 0h7m1 0h1m1 0h1m1 0h3m2 0h2m2 0h1m2 0h1m1 0h3m1 0h1m2 0h6m4 0h1m2 0h4m2 0h1M5 50.5h1m1 0h1m2 0h2m1 0h1m11 0h1m10 0h3m2 0h1m6 0h6m3 0h1m1 0h6m1 0h1m1 0h2m1 0h1m1 0h3m3 0h1m3 0h2m1 0h1m1 0h1m1 0h1m1 0h2m1 0h1M4 51.5h3m1 0h1m4 0h1m2 0h5m1 0h1m2 0h3m3 0h1m1 0h1m1 0h1m1 0h1m6 0h1m1 0h2m2 0h4m1 0h3m2 0h1m8 0h3m1 0h1m1 0h2m1 0h1m7 0h1m1 0h2m1 0h1m1 0h1m1 0h1M6 52.5h1m3 0h2m5 0h1m3 0h4m2 0h3m2 0h1m1 0h2m2 0h3m1 0h1m2 0h1m1 0h2m1 0h1m2 0h3m1 0h2m4 0h2m1 0h4m1 0h1m1 0h4m2 0h2m1 0h2m1 0h1m1 0h2m1 0h1m1 0h1m2 0h1M6 53.5h1m1 0h1m2 0h2m2 0h2m1 0h1m3 0h1m1 0h2m1 0h1m1 0h2m1 0h7m1 0h5m3 0h1m1 0h1m3 0h1m2 0h2m1 0h3m2 0h1m3 0h1m1 0h1m4 0h3m2 0h2m5 0h2m1 0h3m1 0h2M4 54.5h3m1 0h3m2 0h4m1 0h1m1 0h1m2 0h3m3 0h6m1 0h1m4 0h1m2 0h1m4 0h1m1 0h3m1 0h2m5 0h1m2 0h1m1 0h1m5 0h2m10 0h3m3 0h2m1 0h1m1 0h1M4 55.5h1m2 0h2m3 0h2m1 0h4m2 0h1m1 0h2m4 0h1m2 0h2m5 0h1m1 0h5m5 0h1m2 0h6m1 0h1m2 0h3m1 0h2m1 0h2m3 0h5m1 0h2m1 0h2m1 0h3m1 0h5M5 56.5h1m4 0h1m1 0h2m3 0h1m1 0h2m2 0h4m3 0h3m3 0h1m2 0h1m1 0h1m1 0h2m1 0h1m1 0h1m1 0h3m1 0h3m3 0h1m2 0h2m3 0h1m1 0h2m2 0h2m2 0h2m2 0h1m1 0h1m5 0h1m2 0h4M5 57.5h2m1 0h1m2 0h2m1 0h3m1 0h2m3 0h1m1 0h1m1 0h2m1 0h2m1 0h6m2 0h4m1 0h2m1 0h5m2 0h1m1 0h1m3 0h3m1 0h2m1 0h2m1 0h1m3 0h4m4 0h1m2 0h1m1 0h4m2 0h2M4 58.5h1m4 0h3m4 0h2m7 0h2m1 0h3m2 0h2m1 0h1m1 0h1m1 0h2m1 0h4m1 0h5m1 0h1m2 0h1m3 0h2m1 0h1m3 0h1m1 0h3m2 0h1m1 0h1m2 0h1m1 0h2m2 0h1m1 0h1m1 0h1m3 0h1M4 59.5h3m5 0h3m4 0h2m1 0h1m1 0h3m4 0h1m1 0h3m2 0h3m1 0h1m1 0h1m2 0h1m5 0h2m2 0h1m1 0h1m3 0h1m4 0h5m4 0h1m2 0h2m2 0h2m4 0h1m4 0h1M4 60.5h1m3 0h6m2 0h1m3 0h2m1 0h3m1 0h1m4 0h6m2 0h2m2 0h1m1 0h2m2 0h4m2 0h10m3 0h1m2 0h1m1 0h1m1 0h1m2 0h2m2 0h1m1 0h8m2 0h2M5 61.5h1m1 0h2m3 0h2m3 0h1m6 0h1m3 0h3m1 0h1m3 0h1m2 0h1m2 0h1m1 0h1m1 0h3m1 0h3m1 0h1m1 0h1m1 0h3m3 0h3m1 0h6m1 0h1m1 0h5m1 0h1m1 0h1m2 0h1m3 0h2m1 0h1M4 62.5h3m1 0h1m1 0h1m1 0h1m3 0h2m1 0h2m1 0h2m2 0h1m2 0h1m2 0h1m1 0h1m1 0h1m1 0h2m3 0h2m1 0h3m1 0h1m1 0h1m3 0h1m3 0h1m1 0h1m1 0h2m1 0h2m2 0h1m3 0h2m1 0h2m2 0h1m1 0h2m1 0h2m1 0h1m1 0h3m1 0h1M4 63.5h5m3 0h2m1 0h2m3 0h2m1 0h1m7 0h2m3 0h1m2 0h3m2 0h2m1 0h1m1 0h3m4 0h2m2 0h1m3 0h1m2 0h1m3 0h1m1 0h3m1 0h1m1 0h1m2 0h1m2 0h1m1 0h2m3 0h1m3 0h1M8 64.5h6m4 0h1m1 0h3m2 0h1m3 0h2m1 0h5m1 0h1m3 0h10m2 0h1m3 0h13m1 0h1m2 0h1m1 0h1m2 0h1m1 0h1m2 0h2m1 0h5m2 0h2M4 65.5h2m3 0h1m4 0h5m1 0h2m1 0h1m2 0h1m2 0h2m2 0h1m1 0h4m3 0h2m1 0h1m1 0h1m1 0h2m2 0h2m4 0h1m2 0h1m2 0h1m3 0h2m1 0h2m1 0h1m3 0h1m4 0h2m1 0h1m2 0h1m4 0h2M6 66.5h2m2 0h1m1 0h1m1 0h1m1 0h2m4 0h2m1 0h3m2 0h5m2 0h4m1 0h1m1 0h1m1 0h3m3 0h1m3 0h1m2 0h1m3 0h1m5 0h1m4 0h1m1 0h1m5 0h2m1 0h1m1 0h1m1 0h2m1 0h1m1 0h1M8 67.5h2m1 0h1m1 0h2m6 0h2m1 0h1m1 0h1m3 0h1m4 0h2m1 0h1m1 0h2m2 0h2m1 0h3m1 0h2m4 0h2m2 0h2m1 0h2m1 0h1m3 0h1m2 0h6m1 0h1m1 0h4m1 0h2m2 0h1m1 0h1M4 68.5h1m1 0h1m1 0h1m1 0h1m1 0h1m3 0h1m1 0h3m3 0h3m3 0h1m1 0h1m2 0h1m1 0h1m4 0h1m2 0h2m2 0h1m2 0h2m3 0h2m1 0h3m1 0h2m2 0h6m1 0h1m1 0h1m2 0h1m2 0h2m1 0h1m5 0h5M6 69.5h1m1 0h1m6 0h1m1 0h1m1 0h4m1 0h1m2 0h1m1 0h1m1 0h1m2 0h1m3 0h1m1 0h1m2 0h1m2 0h2m8 0h6m1 0h3m1 0h1m1 0h4m3 0h3m2 0h1m6 0h2m4 0h1M5 70.5h1m2 0h1m1 0h4m1 0h2m3 0h4m1 0h2m1 0h1m1 0h3m1 0h2m7 0h2m2 0h1m1 0h2m2 0h2m2 0h1m3 0h4m3 0h2m5 0h2m1 0h2m1 0h1m3 0h1m1 0h2m1 0h3m1 0h2M4 71.5h1m1 0h2m1 0h1m3 0h1m1 0h5m3 0h1m4 0h1m1 0h2m1 0h1m2 0h1m3 0h1m1 0h1m1 0h1m1 0h2m1 0h1m3 0h2m1 0h1m1 0h4m1 0h1m1 0h3m1 0h1m4 0h1m1 0h1m1 0h2m2 0h1m1 0h2m1 0h1m1 0h1m3 0h1m2 0h1M5 72.5h7m1 0h1m2 0h2m4 0h2m1 0h5m2 0h2m2 0h2m3 0h1m2 0h2m1 0h2m2 0h3m1 0h1m1 0h1m4 0h1m8 0h3m1 0h1m4 0h2m1 0h1m1 0h1m3 0h1m3 0h1m1 0h1M5 73.5h1m5 0h2m4 0h1m1 0h1m4 0h2m1 0h1m1 0h1m1 0h4m2 0h2m1 0h1m1 0h2m2 0h2m1 0h1m1 0h1m3 0h1m1 0h1m1 0h1m2 0h3m1 0h2m1 0h1m1 0h1m3 0h1m7 0h1m3 0h1m1 0h1m3 0h3M4 74.5h1m3 0h1m1 0h1m1 0h1m1 0h1m3 0h7m2 0h1m1 0h1m1 0h1m2 0h2m1 0h2m3 0h1m1 0h1m4 0h1m2 0h1m2 0h2m2 0h2m1 0h2m2 0h1m2 0h2m2 0h1m1 0h1m2 0h1m2 0h1m2 0h1m1 0h4m3 0h1m1 0h1M4 75.5h3m1 0h2m4 0h1m3 0h1m1 0h1m2 0h1m1 0h1m2 0h8m1 0h1m1 0h3m2 0h2m6 0h2m2 0h3m1 0h1m1 0h1m1 0h2m2 0h2m4 0h1m1 0h1m1 0h2m1 0h1m2 0h5m1 0h4M4 76.5h1m4 0h3m2 0h2m1 0h3m3 0h2m4 0h2m1 0h3m3 0h1m3 0h1m1 0h2m2 0h6m4 0h1m1 0h1m1 0h2m2 0h4m1 0h4m1 0h2m2 0h1m1 0h4m1 0h3m1 0h4m1 0h1M4 77.5h2m3 0h1m1 0h2m1 0h7m2 0h2m4 0h1m3 0h1m1 0h2m1 0h2m1 0h1m1 0h1m1 0h4m2 0h3m1 0h1m4 0h2m1 0h1m1 0h1m2 0h4m1 0h5m1 0h1m1 0h2m1 0h4m7 0h2M4 78.5h2m3 0h2m2 0h5m2 0h3m1 0h1m2 0h8m1 0h2m3 0h1m1 0h1m1 0h2m1 0h4m2 0h5m2 0h3m1 0h5m1 0h2m1 0h1m1 0h1m2 0h2m3 0h1m1 0h2m2 0h1m1 0h4M5 79.5h1m8 0h2m2 0h4m1 0h1m1 0h1m1 0h4m2 0h1m2 0h2m3 0h2m1 0h1m6 0h1m1 0h1m2 0h1m1 0h1m1 0h4m2 0h2m4 0h1m1 0h1m1 0h2m1 0h1m1 0h2m1 0h2m1 0h2m1 0h2M4 80.5h3m1 0h3m1 0h4m4 0h1m1 0h1m2 0h1m1 0h2m1 0h1m1 0h2m2 0h2m2 0h2m1 0h2m4 0h1m2 0h1m1 0h1m1 0h1m3 0h3m1 0h1m1 0h4m1 0h1m1 0h1m1 0h1m2 0h1m5 0h1m2 0h1m2 0h2m1 0h2M4 81.5h1m1 0h1m1 0h2m1 0h4m3 0h2m2 0h1m1 0h3m2 0h1m5 0h2m1 0h1m5 0h1m2 0h1m1 0h3m1 0h1m2 0h2m3 0h1m5 0h2m1 0h3m1 0h1m1 0h1m1 0h2m1 0h1m2 0h6m1 0h2m3 0h1M4 82.5h1m1 0h1m1 0h1m1 0h3m1 0h2m1 0h2m3 0h2m1 0h2m2 0h1m1 0h2m1 0h1m1 0h2m2 0h1m3 0h1m2 0h2m1 0h1m3 0h3m1 0h1m4 0h1m2 0h1m2 0h1m1 0h1m1 0h2m1 0h3m2 0h1m2 0h2m2 0h2m1 0h3m1 0h1M6 83.5h1m1 0h2m1 0h1m1 0h1m1 0h1m1 0h2m1 0h1m3 0h2m2 0h1m3 0h2m3 0h2m2 0h1m1 0h2m4 0h3m3 0h3m3 0h1m1 0h1m1 0h1m1 0h1m3 0h2m2 0h1m4 0h1m1 0h2m1 0h1m1 0h1m2 0h3m3 0h1M4 84.5h3m1 0h1m1 0h4m1 0h3m2 0h7m1 0h1m3 0h2m1 0h1m4 0h2m1 0h1m2 0h1m2 0h1m1 0h1m2 0h1m1 0h1m1 0h2m1 0h1m1 0h5m1 0h1m1 0h1m2 0h2m1 0h1m7 0h6m2 0h4M4 85.5h3m1 0h1m2 0h1m2 0h1m2 0h1m1 0h2m2 0h2m4 0h3m2 0h2m3 0h2m1 0h1m1 0h3m5 0h1m2 0h2m2 0h1m5 0h3m2 0h3m3 0h2m1 0h1m2 0h1m1 0h1m1 0h2m1 0h1m1 0h1m4 0h1M8 86.5h1m1 0h3m4 0h1m2 0h4m2 0h2m1 0h4m2 0h2m2 0h1m1 0h1m1 0h1m1 0h1m2 0h1m1 0h4m1 0h6m2 0h1m2 0h2m1 0h1m1 0h3m6 0h1m1 0h1m1 0h1m1 0h4m2 0h3m1 0h1M4 87.5h2m1 0h3m1 0h3m1 0h1m5 0h1m1 0h3m1 0h1m4 0h4m1 0h6m2 0h5m4 0h1m3 0h2m2 0h6m1 0h2m2 0h1m1 0h1m1 0h1m1 0h2m1 0h1m3 0h1m1 0h2m2 0h1m1 0h3M5 88.5h2m3 0h3m1 0h2m1 0h2m1 0h1m2 0h4m1 0h1m3 0h5m1 0h5m2 0h1m2 0h2m2 0h2m1 0h1m4 0h7m1 0h2m1 0h2m1 0h1m4 0h1m2 0h3m2 0h7m1 0h2M12 89.5h1m1 0h1m2 0h2m3 0h1m1 0h1m2 0h2m1 0h3m3 0h1m2 0h2m1 0h2m3 0h3m6 0h2m1 0h2m3 0h2m2 0h1m1 0h1m1 0h2m1 0h1m1 0h1m4 0h1m1 0h5m3 0h3m1 0h1M4 90.5h7m3 0h2m1 0h1m1 0h1m1 0h1m1 0h1m1 0h1m1 0h1m1 0h2m1 0h1m1 0h1m1 0h2m1 0h1m2 0h1m1 0h3m2 0h1m1 0h1m1 0h2m1 0h2m2 0h1m1 0h1m1 0h1m2 0h1m3 0h1m1 0h2m4 0h2m1 0h1m2 0h4m1 0h1m1 0h2m1 0h1M4 91.5h1m5 0h1m1 0h1m2 0h1m1 0h2m2 0h2m2 0h2m3 0h3m3 0h3m2 0h1m1 0h6m1 0h1m5 0h1m1 0h1m1 0h1m3 0h2m2 0h1m1 0h1m3 0h3m3 0h6m2 0h1m3 0h1m2 0h1M4 92.5h1m1 0h3m1 0h1m1 0h1m4 0h1m1 0h1m1 0h3m2 0h1m1 0h3m1 0h6m3 0h1m4 0h4m2 0h5m1 0h13m1 0h1m1 0h3m2 0h5m1 0h1m2 0h6m2 0h1M4 93.5h1m1 0h3m1 0h1m2 0h1m1 0h2m2 0h2m3 0h1m3 0h1m1 0h2m7 0h2m1 0h3m2 0h1m1 0h6m1 0h1m3 0h3m1 0h1m2 0h2m1 0h3m1 0h1m4 0h6m1 0h2m1 0h2m1 0h1m1 0h3M4 94.5h1m1 0h3m1 0h1m3 0h2m1 0h3m2 0h1m2 0h1m5 0h4m1 0h1m1 0h1m3 0h3m1 0h1m4 0h1m2 0h1m1 0h1m1 0h3m2 0h1m1 0h1m3 0h1m2 0h4m3 0h2m2 0h3m3 0h5M4 95.5h1m5 0h1m1 0h1m2 0h1m3 0h1m1 0h2m2 0h5m4 0h2m1 0h1m1 0h1m1 0h1m1 0h2m1 0h1m2 0h2m4 0h1m2 0h2m2 0h7m3 0h2m1 0h1m7 0h1m3 0h1m2 0h2m2 0h1M4 96.5h7m1 0h1m1 0h1m1 0h1m4 0h1m1 0h2m1 0h3m1 0h5m1 0h4m1 0h4m4 0h1m3 0h1m2 0h1m1 0h3m1 0h2m2 0h1m2 0h5m1 0h2m4 0h4m5 0h1m1 0h1m3 0h1"/></svg>
