<svg xmlns="http://www.w3.org/2000/svg" viewBox="0 0 113 113" shape-rendering="crispEdges"><path fill="#ffffff" d="M0 0h113v113H0z"/><path stroke="#000000" d="M4 4.5h7m1 0h2m5 0h1m1 0h1m1 0h3m2 0h5m2 0h1m4 0h1m1 0h1m1 0h1m1 0h1m3 0h2m3 0h1m4 0h4m1 0h3m2 0h4m2 0h1m3 0h1m5 0h1m3 0h2m1 0h3m1 0h2m3 0h7M4 5.5h1m5 0h1m1 0h1m1 0h3m1 0h1m1 0h1m2 0h2m3 0h1m2 0h2m1 0h1m1 0h1m2 0h2m5 0h5m1 0h1m2 0h1m2 0h3m1 0h1m5 0h1m1 0h1m1 0h1m4 0h2m1 0h1m1 0h1m3 0h1m1 0h1m3 0h2m4 0h1m3 0h1m5 0h1M4 6.5h1m1 0h3m1 0h1m1 0h1m1 0h2m1 0h1m1 0h4m3 0h2m3 0h2m6 0h1m1 0h1m1 0h1m2 0h1m1 0h3m1 0h1m2 0h2m1 0h3m1 0h3m1 0h1m3 0h1m3 0h1m2 0h1m3 0h1m2 0h2m2 0h2m4 0h1m2 0h3m2 0h1m1 0h3m1 0h1M4 7.5h1m1 0h3m1 0h1m1 0h1m3 0h2m1 0h2m2 0h1m1 0h2m4 0h2m2 0h1m1 0h1m1 0h1m2 0h2m5 0h1m5 0h2m1 0h1m1 0h1m1 0h1m3 0h1m9 0h2m3 0h3m6 0h3m3 0h2m2 0h1m1 0h1m1 0h3m1 0h1M4 8.5h1m1 0h3m1 0h1m2 0h2m3 0h2m2 0h2m4 0h9m1 0h1m1 0h1m2 0h2m2 0h4m1 0h5m5 0h1m1 0h3m1 0h1m1 0h2m4 0h6m3 0h1m1 0h1m7 0h1m1 0h1m1 0h2m1 0h1m1 0h3m1 0h1M4 9.5h1m5 0h1m1 0h1m2 0h1m1 0h2m1 0h2m2 0h1m1 0h3m3 0h3m4 0h2m1 0h2m2 0h3m1 0h1m1 0h1m3 0h1m2 0h4m2 0h4m3 0h1m1 0h1m1 0h1m3 0h1m1 0h2m1 0h1m2 0h3m2 0h1m2 0h1m2 0h1m2 0h1m5 0h1M4 10.5h7m1 0h1m1 0h1m1 0h1m1 0h1m1 0h1m1 0h1m1 0h1m1 0h1m1 0h1m1 0h1m1 0h1m1 0h1m1 0h1m1 0h1m1 0h1m1 0h1m1 0h1m1 0h1m1 0h1m1 0h1m1 0h1m1 0h1m1 0h1m1 0h1m1 0h1m1 0h1m1 0h1m1 0h1m1 0h1m1 0h1m1 0h1m1 0h1m1 0h1m1 0h1m1 0h1m1 0h1m1 0h1m1 0h1m1 0h1m1 0h1m1 0h1m1 0h1m1 0h1m1 0h1m1 0h1m1 0h7M13 11.5h1m1 0h3m4 0h1m1 0h5m3 0h1m1 0h4m5 0h1m1 0h2m3 0h3m3 0h2m1 0h1m1 0h1m2 0h4m1 0h1m1 0h2m2 0h2m3 0h4m1 0h3m7 0h1m1 0h1M4 12.5h2m2 0h3m7 0h1m1 0h1m2 0h1m3 0h7m1 0h1m1 0h1m1 0h1m1 0h3m1 0h1m1 0h3m2 0h5m1 0h1m2 0h2m2 0h1m4 0h3m2 0h6m3 0h1m1 0h2m2 0h1m4 0h1m1 0h1m1 0h2m2 0h1m1 0h4M4 13.5h3m1 0h1m6 0h1m1 0h1m1 0h3m3 0h2m5 0h1m2 0h1m1 0h2m2 0h1m5 0h1m1 0h1m3 0h2m4 0h1m3 0h2m2 0h1m1 0h3m1 0h1m1 0h1m2 0h1m3 0h4m1 0h1m1 0h2m1 0h1m2 0h1m4 0h2M7 14.5h1m1 0h6m1 0h1m2 0h2m1 0h2m1 0h1m3 0h1m1 0h2m3 0h1m4 0h1m1 0h2m1 0h1m2 0h4m3 0h1m1 0h1m1 0h2m1 0h1m1 0h5m4 0h4m7 0h1m2 0h1m1 0h2m2 0h5m3 0h1m1 0h2m2 0h1M4 15.5h3m1 0h1m2 0h1m1 0h2m2 0h1m2 0h2m1 0h2m1 0h1m2 0h1m6 0h2m1 0h1m1 0h2m2 0h1m4 0h7m2 0h1m1 0h1m2 0h1m1 0h1m4 0h1m1 0h2m4 0h4m1 0h1m1 0h2m8 0h1m6 0h3M5 16.5h1m3 0h2m2 0h1m2 0h1m6 0h3m2 0h1m3 0h1m1 0h1m3 0h4m1 0h4m4 0h2m2 0h1m1 0h3m2 0h1m4 0h2m1 0h2m1 0h4m1 0h1m4 0h3m2 0h1m2 0h2m1 0h3m3 0h4m2 0h1M6 17.5h1m1 0h2m1 0h5m1 0h5m4 0h1m2 0h4m2 0h3m2 0h2m3 0h1m1 0h1m3 0h1m1 0h2m3 0h3m1 0h2m2 0h1m3 0h1m1 0h1m2 0h1m1 0h4m2 0h1m1 0h3m2 0h3m1 0h2m2 0h2m1 0h1m5 0h2M5 18.5h1m1 0h1m2 0h4m1 0h1m2 0h1m1 0h2m1 0h5m2 0h1m2 0h1m1 0h1m2 0h1m1 0h1m1 0h1m2 0h4m1 0h2m2 0h2m2 0h7m1 0h1m1 0h2m1 0h2m1 0h3m2 0h2m2 0h1m1 0h2m1 0h1m3 0h3m4 0h2m3 0h4M6 19.5h1m2 0h1m2 0h1m1 0h1m1 0h4m3 0h2m2 0h3m1 0h3m3 0h1m3 0h2m2 0h1m1 0h3m1 0h1m2 0h2m1 0h3m2 0h1m3 0h2m3 0h1m1 0h1m1 0h2m4 0h1m3 0h2m1 0h2m1 0h2m1 0h3m5 0h1m1 0h1m1 0h2M5 20.5h7m1 0h1m1 0h1m3 0h1m2 0h3m2 0h1m1 0h1m2 0h1m3 0h1m3 0h1m2 0h6m1 0h2m4 0h1m2 0h2m3 0h5m1 0h1m1 0h1m1 0h2m1 0h1m5 0h1m8 0h3m1 0h1m1 0h1m2 0h1m3 0h1M4 21.5h1m12 0h4m3 0h3m1 0h1m1 0h1m3 0h3m1 0h1m2 0h1m1 0h2m4 0h1m2 0h1m1 0h1m1 0h1m2 0h1m1 0h1m1 0h2m1 0h1m1 0h1m2 0h2m3 0h2m1 0h1m1 0h1m1 0h1m5 0h1m1 0h1m1 0h1m1 0h1m3 0h6m1 0h2M5 22.5h1m2 0h1m1 0h2m1 0h1m1 0h3m3 0h3m1 0h1m6 0h1m2 0h1m2 0h2m1 0h2m1 0h1m5 0h2m1 0h1m4 0h4m1 0h2m2 0h2m2 0h2m2 0h1m4 0h1m3 0h4m1 0h1m1 0h3m3 0h1m4 0h3m1 0h1M4 23.5h2m5 0h2m1 0h3m5 0h1m2 0h3m2 0h3m1 0h1m2 0h1m1 0h2m2 0h3m1 0h1m1 0h1m3 0h2m1 0h1m1 0h1m2 0h1m2 0h2m6 0h1m1 0h1m1 0h5m3 0h4m1 0h2m2 0h2m1 0h1m1 0h2m5 0h2M5 24.5h2m1 0h3m1 0h2m5 0h1m3 0h2m2 0h1m1 0h1m1 0h3m1 0h5m2 0h2m4 0h1m1 0h1m2 0h2m1 0h1m3 0h7m1 0h1m2 0h2m4 0h1m1 0h1m3 0h2m1 0h1m3 0h1m2 0h2m2 0h1m1 0h1m2 0h4m1 0h1M7 25.5h1m4 0h4m1 0h5m5 0h1m1 0h1m1 0h1m1 0h1m3 0h1m1 0h2m1 0h1m2 0h1m1 0h1m1 0h1m3 0h2m1 0h1m1 0h3m1 0h4m1 0h2m1 0h1m1 0h2m3 0h1m1 0h3m1 0h3m2 0h2m2 0h2m1 0h4m1 0h2m1 0h2m1 0h3M6 26.5h1m2 0h2m1 0h1m3 0h1m3 0h1m4 0h1m2 0h1m2 0h2m1 0h8m1 0h1m2 0h4m2 0h3m8 0h1m1 0h6m1 0h1m3 0h1m1 0h4m1 0h2m3 0h1m1 0h2m1 0h2m2 0h1m2 0h5m1 0h1M4 27.5h1m4 0h1m1 0h5m1 0h2m2 0h2m1 0h2m3 0h1m2 0h1m1 0h3m8 0h1m2 0h2m1 0h1m3 0h2m1 0h1m3 0h1m1 0h5m1 0h2m1 0h1m3 0h2m1 0h1m4 0h2m1 0h2m2 0h3m1 0h1m1 0h1m2 0h1m5 0h2M8 28.5h5m1 0h1m1 0h5m5 0h1m1 0h7m1 0h3m1 0h2m4 0h1m5 0h6m2 0h1m2 0h2m1 0h1m1 0h1m1 0h1m4 0h6m1 0h1m2 0h3m3 0h5m4 0h5M4 29.5h5m3 0h1m1 0h3m3 0h1m1 0h1m1 0h2m2 0h1m3 0h2m2 0h1m1 0h1m2 0h1m1 0h2m1 0h1m2 0h2m1 0h1m3 0h6m1 0h1m2 0h1m1 0h2m6 0h1m3 0h2m2 0h1m1 0h1m1 0h1m1 0h2m3 0h3m2 0h1m3 0h1m1 0h1M4 30.5h1m1 0h3m1 0h1m1 0h2m4 0h2m2 0h2m2 0h1m1 0h1m1 0h1m1 0h1m1 0h1m4 0h1m1 0h5m1 0h1m1 0h1m1 0h2m1 0h1m1 0h2m3 0h5m1 0h1m6 0h3m1 0h1m1 0h1m2 0h1m1 0h1m1 0h1m1 0h2m2 0h1m1 0h2m2 0h2m1 0h1m1 0h3m1 0h1M5 31.5h4m3 0h1m4 0h1m3 0h1m2 0h3m1 0h1m3 0h1m2 0h4m3 0h1m1 0h1m4 0h2m1 0h1m3 0h1m1 0h3m1 0h1m3 0h1m2 0h4m1 0h1m1 0h1m3 0h1m1 0h1m1 0h1m1 0h1m1 0h5m1 0h3m2 0h2m3 0h3m1 0h1M4 32.5h1m1 0h1m1 0h5m1 0h4m1 0h1m1 0h3m1 0h2m1 0h9m1 0h2m1 0h3m2 0h1m1 0h2m1 0h6m1 0h4m1 0h1m1 0h1m2 0h2m1 0h1m2 0h7m3 0h1m1 0h1m3 0h4m5 0h6m1 0h2M4 33.5h1m1 0h1m4 0h1m2 0h1m2 0h1m2 0h1m2 0h1m2 0h2m1 0h3m1 0h2m1 0h1m1 0h1m1 0h2m1 0h1m1 0h4m3 0h1m4 0h1m3 0h1m1 0h1m1 0h3m2 0h1m2 0h1m1 0h2m1 0h1m4 0h1m3 0h8m1 0h2m2 0h5m1 0h1M4 34.5h1m1 0h1m3 0h2m1 0h1m4 0h1m2 0h2m4 0h1m1 0h5m1 0h1m2 0h2m1 0h2m1 0h1m2 0h3m2 0h2m2 0h1m2 0h1m1 0h2m2 0h1m1 0h3m1 0h1m1 0h2m2 0h5m1 0h3m6 0h3m3 0h2m1 0h1m1 0h5M4 35.5h3m1 0h1m2 0h2m2 0h2m1 0h1m1 0h1m1 0h2m1 0h5m1 0h2m3 0h2m3 0h3m1 0h1m1 0h3m1 0h2m1 0h3m1 0h1m1 0h3m1 0h2m1 0h2m1 0h1m1 0h1m2 0h2m1 0h3m1 0h1m2 0h1m1 0h3m1 0h1m3 0h1m3 0h1m1 0h1m3 0h3M4 36.5h1m1 0h1m1 0h1m1 0h3m1 0h1m2 0h6m1 0h1m1 0h2m2 0h4m2 0h2m1 0h1m2 0h2m8 0h2m2 0h1m1 0h5m2 0h1m2 0h2m1 0h3m3 0h4m1 0h1m1 0h1m1 0h1m1 0h2m4 0h4m1 0h3m1 0h1m3 0h1M4 37.5h3m4 0h1m1 0h1m1 0h1m6 0h1m1 0h1m1 0h3m2 0h1m3 0h1m2 0h2m2 0h1m2 0h2m1 0h4m2 0h2m1 0h11m2 0h1m1 0h2m1 0h3m1 0h1m2 0h1m1 0h1m4 0h3m1 0h1m1 0h4m2 0h1m4 0h2M5 38.5h2m2 0h2m3 0h2m1 0h2m11 0h1m1 0h1m1 0h1m6 0h10m2 0h3m1 0h1m5 0h4m2 0h3m1 0h1m1 0h2m2 0h1m7 0h1m1 0h1m3 0h2m2 0h3m3 0h3M4 39.5h2m1 0h1m1 0h1m1 0h1m4 0h3m5 0h2m2 0h2m2 0h2m8 0h1m5 0h2m1 0h1m1 0h1m1 0h1m3 0h1m3 0h2m2 0h3m1 0h3m1 0h1m1 0h2m1 0h1m4 0h1m2 0h1m1 0h3m2 0h2m2 0h1m2 0h2m1 0h1M6 40.5h1m2 0h2m1 0h1m3 0h3m2 0h1m1 0h1m5 0h1m1 0h1m1 0h3m1 0h2m2 0h2m1 0h2m2 0h1m2 0h4m4 0h3m2 0h1m1 0h3m2 0h1m1 0h3m2 0h1m5 0h1m1 0h1m1 0h1m1 0h1m2 0h2m4 0h1m1 0h3m2 0h1m1 0h1M4 41.5h2m1 0h1m8 0h5m2 0h2m1 0h1m2 0h3m1 0h1m1 0h2m2 0h2m1 0h1m3 0h2m1 0h1m5 0h1m2 0h4m1 0h3m3 0h1m2 0h1m1 0h3m2 0h1m5 0h1m2 0h4m2 0h6m1 0h1m1 0h2m3 0h1M4 42.5h4m2 0h3m4 0h1m2 0h1m1 0h2m2 0h2m1 0h1m1 0h2m4 0h3m5 0h2m2 0h4m1 0h1m1 0h4m1 0h5m4 0h1m6 0h1m2 0h1m1 0h2m3 0h1m1 0h1m1 0h1m4 0h1m1 0h4m1 0h1m1 0h1m1 0h1M4 43.5h6m1 0h3m4 0h4m3 0h4m2 0h1m1 0h4m1 0h2m1 0h2m2 0h1m1 0h1m2 0h2m1 0h5m3 0h1m4 0h5m1 0h6m3 0h1m1 0h10m2 0h1m2 0h4m2 0h3m1 0h1M4 44.5h1m1 0h2m2 0h2m6 0h1m2 0h4m2 0h2m1 0h1m2 0h3m1 0h1m2 0h2m1 0h1m9 0h3m1 0h2m1 0h3m4 0h1m1 0h5m1 0h3m4 0h1m1 0h4m2 0h1m1 0h1m1 0h1m1 0h2m1 0h1m1 0h4M4 45.5h3m1 0h1m5 0h1m4 0h2m1 0h1m4 0h1m1 0h1m3 0h2m2 0h3m1 0h1m2 0h1m2 0h2m3 0h1m3 0h1m1 0h3m2 0h1m1 0h2m1 0h4m1 0h1m1 0h1m1 0h4m2 0h2m1 0h4m1 0h1m2 0h1m1 0h1m1 0h1m2 0h2m2 0h4M4 46.5h1m1 0h2m1 0h2m4 0h4m4 0h1m1 0h1m3 0h1m2 0h4m2 0h1m2 0h1m1 0h2m2 0h1m2 0h2m1 0h2m1 0h1m2 0h3m1 0h1m1 0h2m4 0h1m1 0h2m2 0h1m1 0h1m4 0h3m3 0h1m2 0h1m2 0h4m1 0h1m1 0h1m1 0h3M7 47.5h2m7 0h3m2 0h1m2 0h3m2 0h1m2 0h1m1 0h1m2 0h3m1 0h1m3 0h2m2 0h1m1 0h2m1 0h1m1 0h2m3 0h4m1 0h5m2 0h3m2 0h1m3 0h1m1 0h1m1 0h3m2 0h1m1 0h1m4 0h3m3 0h1m1 0h1m1 0h1M4 48.5h1m1 0h3m1 0h3m2 0h2m1 0h4m1 0h3m1 0h1m1 0h3m1 0h2m1 0h3m1 0h2m4 0h1m1 0h2m4 0h2m4 0h2m1 0h1m1 0h3m1 0h1m2 0h1m1 0h2m1 0h1m3 0h5m1 0h1m4 0h2m1 0h5m2 0h1m1 0h1m1 0h1m1 0h1M4 49.5h1m2 0h2m3 0h2m2 0h1m3 0h3m1 0h2m5 0h5m2 0h3m1 0h2m1 0h3m1 0h1m2 0h3m3 0h1m2 0h1m2 0h1m1 0h1m1 0h1m5 0h2m1 0h1m1 0h2m1 0h1m4 0h1m1 0h2m1 0h2m2 0h2m1 0h1m2 0h1m3 0h1m1 0h1M5 50.5h1m1 0h1m2 0h2m2 0h2m1 0h1m1 0h1m1 0h2m1 0h6m1 0h6m1 0h2m1 0h5m1 0h1m2 0h2m1 0h2m3 0h1m2 0h1m3 0h1m2 0h1m1 0h1m2 0h1m1 0h2m1 0h1m2 0h3m1 0h4m1 0h1m2 0h1m1 0h1m2 0h1m1 0h1m5 0h1M4 51.5h1m3 0h1m2 0h5m1 0h1m1 0h1m1 0h1m1 0h4m1 0h2m1 0h7m2 0h1m1 0h1m1 0h1m4 0h1m4 0h1m1 0h4m2 0h2m5 0h1m2 0h2m1 0h1m2 0h3m1 0h2m1 0h2m1 0h5m1 0h3m3 0h1m1 0h1m2 0h2M4 52.5h1m2 0h7m1 0h2m3 0h1m1 0h1m2 0h1m2 0h7m1 0h2m5 0h4m4 0h8m1 0h1m1 0h3m1 0h2m2 0h1m1 0h2m1 0h7m7 0h1m3 0h1m2 0h9m1 0h2M4 53.5h3m1 0h1m3 0h2m1 0h3m3 0h2m2 0h4m3 0h1m1 0h3m2 0h1m2 0h3m1 0h2m3 0h2m3 0h2m1 0h1m1 0h1m2 0h3m2 0h8m3 0h1m1 0h1m1 0h1m1 0h3m1 0h2m1 0h2m1 0h1m2 0h2m3 0h4M4 54.5h5m1 0h1m1 0h2m2 0h1m1 0h2m4 0h1m3 0h1m1 0h1m1 0h2m1 0h1m3 0h1m1 0h2m2 0h1m1 0h1m1 0h1m1 0h2m1 0h1m1 0h1m2 0h2m1 0h1m1 0h2m2 0h1m1 0h1m3 0h1m1 0h1m1 0h1m1 0h1m1 0h4m3 0h1m2 0h2m1 0h2m1 0h3m1 0h1m1 0h1M4 55.5h2m2 0h1m3 0h3m5 0h1m4 0h1m1 0h2m3 0h1m5 0h1m2 0h5m2 0h3m1 0h1m3 0h1m2 0h1m2 0h1m1 0h2m1 0h1m1 0h1m1 0h4m1 0h1m3 0h2m1 0h1m1 0h3m2 0h2m1 0h1m3 0h4m3 0h2M8 56.5h5m1 0h1m1 0h1m1 0h2m2 0h1m1 0h2m1 0h7m1 0h1m2 0h10m1 0h1m2 0h8m1 0h4m4 0h1m1 0h2m3 0h5m1 0h1m5 0h2m1 0h1m1 0h1m3 0h2m1 0h5m2 0h2M4 57.5h1m1 0h4m1 0h3m1 0h1m2 0h1m1 0h2m2 0h2m1 0h1m1 0h1m1 0h1m5 0h2m1 0h1m1 0h5m3 0h1m2 0h1m1 0h1m4 0h1m1 0h2m1 0h1m1 0h2m1 0h2m1 0h3m2 0h1m1 0h4m1 0h1m1 0h1m2 0h2m1 0h1m1 0h1m3 0h2m1 0h1m1 0h1m1 0h2M6 58.5h2m2 0h1m2 0h1m1 0h4m4 0h4m2 0h1m1 0h1m1 0h4m6 0h2m1 0h1m2 0h1m1 0h1m4 0h1m1 0h6m1 0h2m1 0h11m3 0h1m2 0h1m4 0h1m2 0h4m1 0h2m2 0h2M4 59.5h2m2 0h2m1 0h2m4 0h1m1 0h4m1 0h1m1 0h2m1 0h1m1 0h2m2 0h1m2 0h4m3 0h1m1 0h1m1 0h1m2 0h2m1 0h1m1 0h1m1 0h2m2 0h2m2 0h3m1 0h1m1 0h1m3 0h1m3 0h1m6 0h2m1 0h1m4 0h2m2 0h1m2 0h1m2 0h2M6 60.5h1m1 0h1m1 0h1m1 0h1m5 0h2m8 0h4m2 0h4m1 0h2m1 0h1m1 0h2m3 0h3m2 0h1m2 0h1m1 0h1m1 0h1m4 0h2m2 0h2m3 0h3m1 0h2m1 0h1m2 0h1m4 0h2m1 0h2m1 0h1m1 0h1m3 0h7M7 61.5h3m2 0h1m1 0h1m2 0h2m4 0h2m3 0h1m1 0h1m3 0h4m1 0h9m1 0h1m1 0h1m3 0h2m5 0h1m7 0h2m1 0h1m4 0h1m1 0h2m2 0h3m6 0h2m2 0h1m3 0h1m5 0h1M6 62.5h3m1 0h3m1 0h3m1 0h1m1 0h1m1 0h1m4 0h1m2 0h1m1 0h1m4 0h2m2 0h1m1 0h2m1 0h1m5 0h1m1 0h2m2 0h2m1 0h1m2 0h1m2 0h1m4 0h1m1 0h1m1 0h1m3 0h1m6 0h1m6 0h1m1 0h1m2 0h1m2 0h1m1 0h2m1 0h1M4 63.5h1m2 0h2m2 0h1m1 0h4m1 0h1m2 0h3m1 0h1m1 0h1m3 0h4m1 0h1m1 0h3m1 0h3m2 0h6m1 0h1m4 0h1m2 0h1m6 0h1m1 0h1m2 0h1m2 0h2m2 0h1m1 0h1m1 0h4m2 0h1m2 0h5m1 0h2m2 0h1m2 0h1M6 64.5h1m2 0h2m5 0h1m2 0h4m4 0h1m1 0h1m2 0h2m1 0h1m4 0h1m1 0h1m1 0h2m1 0h2m5 0h2m2 0h1m2 0h2m1 0h2m2 0h3m1 0h1m1 0h2m1 0h3m2 0h4m1 0h1m1 0h1m2 0h2m1 0h3m2 0h4m3 0h2M4 65.5h2m1 0h2m4 0h1m1 0h2m1 0h2m1 0h2m4 0h1m2 0h1m2 0h1m1 0h1m1 0h1m1 0h2m1 0h1m5 0h2m3 0h1m3 0h1m1 0h2m1 0h1m2 0h1m1 0h1m2 0h2m2 0h2m1 0h1m1 0h3m1 0h1m4 0h3m1 0h1m1 0h1m1 0h1m1 0h1m2 0h2m1 0h1m1 0h2M5 66.5h1m2 0h3m1 0h1m2 0h7m2 0h4m1 0h2m2 0h1m3 0h2m2 0h1m7 0h2m3 0h2m1 0h1m1 0h1m3 0h1m1 0h7m1 0h2m1 0h1m1 0h1m1 0h1m1 0h4m1 0h1m1 0h4m3 0h1m1 0h3m1 0h3m3 0h1M4 67.5h1m2 0h2m3 0h2m2 0h2m2 0h1m3 0h1m2 0h2m2 0h2m1 0h1m1 0h1m1 0h3m1 0h3m2 0h3m2 0h1m2 0h1m1 0h2m1 0h3m1 0h1m1 0h1m1 0h1m1 0h1m2 0h5m1 0h2m3 0h1m1 0h1m4 0h3m3 0h4m2 0h1m3 0h1M6 68.5h2m2 0h1m1 0h1m2 0h2m1 0h2m1 0h5m3 0h1m1 0h1m3 0h5m5 0h3m1 0h1m2 0h1m1 0h2m1 0h1m2 0h3m2 0h1m1 0h3m2 0h2m2 0h1m1 0h4m4 0h1m3 0h1m4 0h1m3 0h1m3 0h1m3 0h1M5 69.5h2m4 0h1m5 0h1m2 0h1m4 0h1m6 0h4m1 0h1m1 0h4m1 0h1m1 0h1m2 0h1m2 0h1m5 0h2m1 0h4m1 0h1m2 0h4m4 0h3m1 0h1m1 0h1m1 0h6m2 0h2m1 0h1m2 0h1m1 0h3m3 0h2M5 70.5h1m2 0h1m1 0h4m1 0h3m1 0h1m2 0h3m1 0h2m2 0h2m1 0h1m3 0h1m1 0h2m1 0h1m6 0h1m3 0h2m1 0h2m1 0h1m1 0h2m1 0h1m1 0h5m2 0h3m3 0h2m1 0h2m2 0h2m1 0h4m3 0h4m1 0h3m2 0h1M4 71.5h1m1 0h1m4 0h2m2 0h2m1 0h2m1 0h4m1 0h2m1 0h3m1 0h2m1 0h1m1 0h5m1 0h2m2 0h3m2 0h1m1 0h1m3 0h5m1 0h7m1 0h1m1 0h1m1 0h1m1 0h3m6 0h1m1 0h1m3 0h7m2 0h1m2 0h1M5 72.5h1m4 0h2m5 0h1m1 0h4m1 0h1m2 0h2m2 0h2m1 0h1m1 0h3m1 0h1m1 0h1m4 0h1m1 0h1m1 0h1m1 0h3m1 0h1m1 0h3m1 0h1m1 0h4m1 0h1m3 0h1m1 0h2m1 0h5m1 0h8m2 0h3m3 0h2m3 0h3M4 73.5h1m1 0h1m1 0h2m1 0h2m2 0h2m1 0h1m1 0h1m2 0h4m3 0h1m2 0h2m1 0h5m2 0h3m1 0h3m2 0h1m1 0h1m4 0h1m2 0h1m3 0h3m2 0h3m1 0h1m1 0h2m1 0h2m1 0h1m5 0h3m4 0h1m2 0h1m1 0h2m1 0h2m2 0h1M5 74.5h1m1 0h1m2 0h2m2 0h1m4 0h2m1 0h4m2 0h1m3 0h2m2 0h1m1 0h1m2 0h2m1 0h3m1 0h6m1 0h2m1 0h1m1 0h5m1 0h7m1 0h1m1 0h1m7 0h2m1 0h3m4 0h4m2 0h4m1 0h1m1 0h1M6 75.5h1m1 0h1m2 0h4m1 0h1m1 0h3m3 0h1m1 0h1m13 0h1m1 0h2m7 0h1m1 0h1m2 0h2m1 0h1m5 0h1m3 0h2m1 0h1m1 0h7m3 0h1m1 0h3m1 0h3m4 0h2m3 0h7M5 76.5h1m2 0h7m1 0h1m1 0h1m2 0h3m1 0h2m1 0h6m1 0h1m2 0h1m2 0h2m1 0h1m2 0h12m1 0h1m1 0h1m2 0h1m1 0h1m2 0h2m4 0h5m2 0h1m1 0h5m2 0h2m3 0h8m1 0h1m1 0h1M4 77.5h5m3 0h1m2 0h3m2 0h1m3 0h1m3 0h1m3 0h3m3 0h4m1 0h2m2 0h1m2 0h1m1 0h1m3 0h1m1 0h2m1 0h5m1 0h3m1 0h3m1 0h2m3 0h3m1 0h2m1 0h1m1 0h2m2 0h1m1 0h1m1 0h1m2 0h1m3 0h2m1 0h2M7 78.5h2m1 0h1m1 0h2m1 0h2m1 0h1m1 0h1m1 0h1m1 0h2m2 0h1m1 0h1m1 0h2m1 0h1m1 0h2m1 0h1m10 0h2m1 0h1m1 0h2m4 0h5m2 0h1m1 0h6m1 0h1m1 0h1m3 0h1m1 0h1m1 0h1m2 0h1m1 0h2m2 0h1m1 0h2m1 0h1m1 0h5M8 79.5h1m3 0h1m1 0h2m2 0h1m3 0h1m1 0h2m1 0h2m3 0h1m4 0h3m1 0h1m1 0h3m1 0h1m1 0h4m3 0h1m2 0h2m2 0h2m2 0h1m1 0h2m3 0h1m1 0h1m3 0h3m2 0h1m1 0h4m2 0h1m2 0h2m2 0h1m3 0h2m1 0h2M4 80.5h1m3 0h5m4 0h1m1 0h2m1 0h2m1 0h1m1 0h7m2 0h1m4 0h3m1 0h1m2 0h1m3 0h5m1 0h2m2 0h4m1 0h1m1 0h1m1 0h1m2 0h1m1 0h5m5 0h1m2 0h3m3 0h2m1 0h7m2 0h2M6 81.5h1m1 0h2m1 0h3m1 0h2m1 0h2m2 0h3m2 0h3m3 0h1m1 0h5m2 0h1m1 0h1m2 0h1m3 0h2m2 0h2m1 0h1m5 0h1m1 0h2m1 0h3m1 0h3m1 0h3m1 0h1m1 0h1m1 0h5m2 0h4m1 0h1m1 0h1m2 0h3M4 82.5h2m2 0h1m1 0h1m2 0h1m1 0h1m1 0h2m2 0h1m1 0h1m4 0h1m1 0h1m2 0h2m1 0h1m4 0h1m2 0h2m1 0h4m1 0h1m1 0h2m1 0h7m4 0h2m1 0h9m3 0h1m2 0h3m1 0h1m1 0h1m2 0h2m2 0h1m3 0h1m1 0h3M7 83.5h2m4 0h1m1 0h2m1 0h1m4 0h7m2 0h3m1 0h1m1 0h1m2 0h2m2 0h1m2 0h4m2 0h1m2 0h2m1 0h5m1 0h2m2 0h2m3 0h1m1 0h2m2 0h3m2 0h1m2 0h2m1 0h3m1 0h1m1 0h1m4 0h3M4 84.5h1m1 0h1m1 0h4m1 0h1m1 0h5m2 0h3m1 0h1m1 0h3m1 0h1m2 0h2m4 0h3m1 0h1m4 0h1m3 0h1m5 0h1m3 0h2m1 0h1m2 0h3m3 0h1m2 0h3m2 0h1m3 0h1m2 0h1m5 0h3m4 0h4M4 85.5h2m1 0h1m1 0h1m4 0h4m3 0h1m1 0h1m1 0h1m10 0h3m4 0h2m3 0h1m2 0h5m8 0h2m2 0h3m3 0h1m1 0h1m1 0h6m1 0h1m1 0h1m1 0h2m1 0h6m1 0h2m2 0h1m1 0h1M5 86.5h2m2 0h4m2 0h7m1 0h3m1 0h1m1 0h2m2 0h1m1 0h1m1 0h1m3 0h1m1 0h2m1 0h1m1 0h1m3 0h2m1 0h3m2 0h1m1 0h2m2 0h1m1 0h2m4 0h2m3 0h3m1 0h3m1 0h4m2 0h1m2 0h3m4 0h1m2 0h1M4 87.5h3m5 0h1m1 0h1m5 0h2m1 0h1m1 0h1m1 0h4m1 0h3m1 0h4m1 0h1m1 0h1m1 0h1m2 0h1m7 0h5m1 0h1m1 0h1m3 0h1m4 0h1m1 0h1m2 0h2m1 0h3m1 0h1m1 0h2m1 0h1m1 0h1m3 0h1m1 0h1m2 0h3m1 0h1M5 88.5h2m2 0h2m1 0h1m4 0h1m4 0h3m1 0h1m1 0h2m3 0h1m1 0h7m1 0h2m1 0h1m3 0h1m1 0h1m1 0h1m3 0h3m5 0h3m1 0h1m1 0h2m2 0h2m2 0h1m3 0h3m4 0h1m2 0h4m3 0h1m2 0h1m1 0h1M5 89.5h1m5 0h4m4 0h2m2 0h1m1 0h2m1 0h1m3 0h1m1 0h5m1 0h1m1 0h2m2 0h3m4 0h2m4 0h3m1 0h1m1 0h4m5 0h2m1 0h2m1 0h1m2 0h4m1 0h7m4 0h9M5 90.5h2m1 0h1m1 0h2m1 0h1m2 0h1m2 0h1m2 0h2m1 0h4m3 0h1m1 0h1m1 0h1m2 0h1m2 0h2m1 0h4m3 0h2m2 0h1m1 0h2m2 0h2m1 0h1m6 0h2m2 0h1m2 0h1m1 0h1m1 0h2m1 0h1m1 0h1m10 0h1m4 0h4M4 91.5h2m2 0h1m4 0h1m4 0h2m4 0h1m1 0h1m4 0h1m2 0h6m1 0h5m7 0h3m3 0h1m1 0h1m2 0h1m7 0h1m2 0h2m1 0h1m1 0h2m1 0h7m2 0h1m2 0h1m2 0h1m1 0h5m1 0h1M6 92.5h1m3 0h1m2 0h2m2 0h1m2 0h1m1 0h1m1 0h2m2 0h3m1 0h1m3 0h1m6 0h1m3 0h2m2 0h1m3 0h2m3 0h1m2 0h5m1 0h1m2 0h2m2 0h1m3 0h2m2 0h2m1 0h1m1 0h1m1 0h2m1 0h5m1 0h1m1 0h2m1 0h1m1 0h1M7 93.5h1m1 0h1m1 0h3m5 0h5m1 0h1m4 0h2m1 0h4m1 0h1m1 0h2m1 0h1m1 0h1m3 0h2m2 0h1m4 0h5m3 0h6m1 0h1m2 0h2m5 0h3m1 0h1m2 0h1m1 0h2m3 0h1m2 0h2m2 0h2m1 0h1M5 94.5h3m2 0h1m3 0h1m1 0h1m1 0h2m3 0h5m4 0h1m1 0h1m2 0h1m2 0h3m1 0h3m1 0h1m3 0h2m3 0h3m1 0h2m4 0h3m1 0h3m1 0h1m2 0h1m1 0h1m2 0h3m3 0h4m1 0h3m1 0h5m4 0h2M5 95.5h2m4 0h6m1 0h2m1 0h2m2 0h1m2 0h1m1 0h2m2 0h6m3 0h3m3 0h1m4 0h1m3 0h4m3 0h1m3 0h1m2 0h1m2 0h3m2 0h3m2 0h2m1 0h4m1 0h1m2 0h3m2 0h2m2 0h1m1 0h2M4 96.5h3m1 0h3m7 0h1m4 0h1m1 0h1m4 0h1m1 0h1m2 0h1m4 0h1m2 0h1m3 0h2m4 0h2m1 0h1m2 0h2m1 0h2m2 0h1m1 0h1m1 0h2m4 0h1m1 0h1m1 0h2m1 0h5m2 0h1m1 0h1m2 0h1m1 0h2m2 0h2m2 0h1M4 97.5h2m3 0h1m3 0h1m1 0h1m4 0h1m1 0h2m1 0h1m3 0h2m3 0h2m2 0h1m1 0h1m1 0h1m2 0h1m3 0h2m1 0h1m2 0h2m1 0h2m1 0h3m3 0h3m1 0h1m1 0h2m1 0h5m3 0h1m1 0h4m1 0h1m1 0h1m1 0h1m1 0h4m5 0h3M4 98.5h3m3 0h3m2 0h1m1 0h1m5 0h1m1 0h1m4 0h6m1 0h3m2 0h1m1 0h1m2 0h3m6 0h1m3 0h1m1 0h1m1 0h5m2 0h1m2 0h6m1 0h1m1 0h2m1 0h1m1 0h1m1 0h2m2 0h1m3 0h3m1 0h1m3 0h2M6 99.5h1m1 0h2m5 0h3m1 0h1m3 0h1m3 0h4m2 0h1m2 0h1m2 0h1m2 0h3m1 0h1m1 0h4m1 0h2m1 0h1m3 0h1m1 0h1m2 0h1m4 0h1m1 0h4m1 0h1m2 0h1m2 0h5m2 0h2m1 0h1m1 0h1m2 0h2m1 0h2m1 0h2m2 0h1M7 100.5h2m1 0h5m1 0h2m1 0h1m1 0h1m1 0h2m2 0h8m1 0h5m5 0h2m1 0h2m1 0h5m1 0h1m1 0h1m2 0h2m1 0h1m2 0h1m1 0h3m2 0h6m1 0h1m2 0h1m1 0h4m1 0h2m1 0h1m3 0h6m1 0h2M12 101.5h3m1 0h3m1 0h5m1 0h1m1 0h1m3 0h1m2 0h2m1 0h1m2 0h2m2 0h3m1 0h2m1 0h1m3 0h2m3 0h1m2 0h2m2 0h1m3 0h1m3 0h1m3 0h4m2 0h1m2 0h1m2 0h2m4 0h3m3 0h1m1 0h1m1 0h1M4 102.5h7m3 0h1m1 0h2m1 0h1m4 0h1m1 0h3m1 0h1m1 0h2m2 0h1m4 0h1m3 0h1m1 0h1m2 0h3m1 0h1m1 0h2m2 0h3m1 0h1m3 0h1m1 0h1m3 0h1m1 0h1m1 0h1m1 0h5m2 0h1m1 0h1m1 0h5m4 0h1m1 0h1m1 0h1m1 0h2M4 103.5h1m5 0h1m1 0h1m2 0h1m1 0h1m3 0h2m1 0h3m1 0h1m3 0h1m1 0h1m1 0h3m4 0h1m1 0h1m4 0h1m1 0h1m3 0h2m4 0h1m2 0h2m1 0h1m1 0h7m3 0h1m4 0h1m2 0h3m3 0h1m1 0h1m1 0h1m1 0h1m3 0h3m1 0h1M4 104.5h1m1 0h3m1 0h1m1 0h2m1 0h5m2 0h2m2 0h7m1 0h1m2 0h1m2 0h2m3 0h1m2 0h1m1 0h1m1 0h5m1 0h2m3 0h2m1 0h2m1 0h1m1 0h1m1 0h2m1 0h5m1 0h1m2 0h1m9 0h4m1 0h5m2 0h1M4 105.5h1m1 0h3m1 0h1m2 0h2m1 0h3m1 0h1m2 0h4m1 0h1m2 0h1m1 0h2m2 0h2m1 0h1m1 0h2m1 0h4m1 0h3m4 0h1m1 0h1m2 0h1m1 0h2m1 0h1m6 0h2m3 0h7m1 0h1m3 0h2m3 0h2m1 0h2m2 0h1m2 0h3M4 106.5h1m1 0h3m1 0h1m3 0h4m3 0h2m1 0h1m4 0h5m1 0h2m1 0h1m2 0h1m1 0h1m5 0h2m1 0h2m2 0h1m4 0h1m1 0h1m1 0h1m5 0h2m3 0h3m1 0h3m1 0h2m1 0h1m3 0h3m2 0h1m6 0h3M4 107.5h1m5 0h1m1 0h1m1 0h1m4 0h1m1 0h1m5 0h1m1 0h1m3 0h2m1 0h2m2 0h1m2 0h1m1 0h3m1 0h1m2 0h1m1 0h3m8 0h1m1 0h1m1 0h1m2 0h7m1 0h3m1 0h1m3 0h4m1 0h1m1 0h2m1 0h1m1 0h1m3 0h1m1 0h1M4 108.5h7m1 0h3m1 0h1m1 0h1m1 0h4m2 0h1m2 0h1m2 0h2m1 0h2m2 0h2m1 0h3m4 0h2m4 0h1m2 0h2m2 0h3m1 0h1m3 0h1m1 0h1m3 0h2m1 0h1m1 0h2m1 0h5m3 0h1m1 0h2m1 0h1m5 0h1m4 0h1"/></svg>
