<svg xmlns="http://www.w3.org/2000/svg" viewBox="0 0 109 109" shape-rendering="crispEdges"><path fill="#ffffff" d="M0 0h109v109H0z"/><path stroke="#000000" d="M4 4.5h7m1 0h2m1 0h2m3 0h1m2 0h2m2 0h1m1 0h1m2 0h4m2 0h3m2 0h1m1 0h1m2 0h1m2 0h2m3 0h4m1 0h2m2 0h5m2 0h6m1 0h2m1 0h4m3 0h1m1 0h1m2 0h2m2 0h7M4 5.5h1m5 0h1m5 0h3m1 0h1m1 0h1m1 0h1m2 0h1m2 0h1m2 0h1m1 0h1m5 0h1m3 0h1m4 0h1m1 0h2m2 0h4m1 0h2m1 0h1m1 0h2m1 0h1m1 0h1m2 0h2m4 0h2m3 0h4m2 0h3m4 0h1m5 0h1M4 6.5h1m1 0h3m1 0h1m6 0h6m2 0h1m3 0h1m2 0h1m2 0h2m1 0h1m1 0h4m2 0h4m2 0h4m1 0h2m1 0h1m1 0h3m3 0h2m1 0h1m1 0h3m1 0h2m1 0h1m3 0h1m3 0h1m2 0h2m2 0h1m2 0h1m1 0h3m1 0h1M4 7.5h1m1 0h3m1 0h1m2 0h1m6 0h1m6 0h1m2 0h1m1 0h1m5 0h2m1 0h1m1 0h2m1 0h3m4 0h2m1 0h1m1 0h1m3 0h1m10 0h1m1 0h1m5 0h4m2 0h2m1 0h1m1 0h1m1 0h2m2 0h1m1 0h3m1 0h1M4 8.5h1m1 0h3m1 0h1m2 0h2m2 0h1m1 0h1m2 0h1m1 0h1m3 0h1m1 0h5m2 0h1m1 0h2m1 0h1m4 0h2m1 0h9m1 0h1m1 0h1m2 0h2m1 0h2m1 0h1m1 0h6m1 0h5m2 0h1m2 0h3m1 0h1m1 0h1m1 0h1m1 0h3m1 0h1M4 9.5h1m5 0h1m2 0h1m1 0h4m1 0h1m2 0h5m1 0h2m3 0h1m2 0h1m3 0h1m1 0h1m1 0h2m1 0h1m1 0h3m3 0h2m3 0h1m1 0h1m5 0h2m3 0h1m3 0h1m2 0h3m3 0h2m2 0h1m3 0h1m2 0h1m5 0h1M4 10.5h7m1 0h1m1 0h1m1 0h1m1 0h1m1 0h1m1 0h1m1 0h1m1 0h1m1 0h1m1 0h1m1 0h1m1 0h1m1 0h1m1 0h1m1 0h1m1 0h1m1 0h1m1 0h1m1 0h1m1 0h1m1 0h1m1 0h1m1 0h1m1 0h1m1 0h1m1 0h1m1 0h1m1 0h1m1 0h1m1 0h1m1 0h1m1 0h1m1 0h1m1 0h1m1 0h1m1 0h1m1 0h1m1 0h1m1 0h1m1 0h1m1 0h1m1 0h1m1 0h1m1 0h7M12 11.5h2m2 0h3m1 0h2m2 0h1m3 0h3m3 0h1m1 0h2m3 0h1m3 0h1m1 0h1m2 0h1m1 0h1m3 0h2m2 0h2m5 0h1m1 0h1m4 0h1m3 0h1m1 0h4m1 0h3m1 0h1m1 0h1m1 0h2M4 12.5h2m1 0h2m1 0h1m4 0h1m1 0h1m3 0h1m3 0h1m1 0h1m2 0h5m1 0h3m1 0h2m1 0h1m5 0h1m1 0h6m1 0h5m3 0h2m2 0h1m1 0h1m1 0h6m1 0h2m1 0h1m1 0h1m1 0h2m1 0h3m4 0h1m5 0h1M4 13.5h2m5 0h1m2 0h2m1 0h1m3 0h3m4 0h1m1 0h1m2 0h2m1 0h2m2 0h1m1 0h9m3 0h5m2 0h5m1 0h2m2 0h1m9 0h1m1 0h7m1 0h2m1 0h1m1 0h1m1 0h2m1 0h4M4 14.5h1m1 0h1m3 0h1m1 0h1m1 0h2m2 0h4m2 0h2m1 0h5m2 0h1m2 0h1m1 0h2m2 0h4m1 0h2m1 0h3m1 0h2m3 0h1m2 0h1m3 0h1m2 0h1m2 0h1m2 0h2m1 0h1m2 0h1m1 0h1m3 0h2m3 0h3m2 0h1m1 0h1m1 0h1m1 0h1M5 15.5h2m1 0h2m3 0h1m1 0h1m6 0h3m1 0h1m1 0h1m7 0h7m2 0h1m3 0h1m1 0h1m1 0h1m5 0h3m2 0h1m3 0h2m1 0h1m5 0h1m1 0h1m5 0h1m1 0h1m3 0h1m1 0h2m3 0h2m2 0h1M4 16.5h1m3 0h1m1 0h1m2 0h2m1 0h2m2 0h1m2 0h3m1 0h2m1 0h1m2 0h2m2 0h1m3 0h1m2 0h4m2 0h1m1 0h6m2 0h3m1 0h1m1 0h1m1 0h2m4 0h1m1 0h1m1 0h1m2 0h1m3 0h4m7 0h2m2 0h1m1 0h1m1 0h1M4 17.5h2m2 0h2m1 0h2m2 0h1m4 0h1m2 0h1m1 0h1m2 0h2m1 0h2m6 0h1m1 0h2m3 0h1m1 0h4m2 0h1m1 0h4m4 0h1m1 0h1m2 0h2m2 0h2m1 0h3m2 0h4m2 0h1m1 0h2m2 0h1m3 0h1m1 0h5M4 18.5h1m4 0h3m2 0h1m2 0h1m2 0h9m2 0h2m1 0h6m1 0h2m1 0h1m1 0h1m2 0h1m1 0h3m1 0h1m2 0h1m1 0h1m1 0h2m2 0h1m3 0h1m1 0h1m2 0h1m4 0h2m1 0h1m2 0h1m1 0h2m3 0h5m2 0h1m1 0h1m1 0h1M4 19.5h2m5 0h2m1 0h1m1 0h5m1 0h1m1 0h1m2 0h1m1 0h2m1 0h3m1 0h2m5 0h2m2 0h2m1 0h2m1 0h1m1 0h4m6 0h3m2 0h1m1 0h1m1 0h1m1 0h4m1 0h1m2 0h2m2 0h2m1 0h1m2 0h1m1 0h1m2 0h5M10 20.5h1m1 0h3m1 0h3m2 0h2m2 0h1m2 0h1m1 0h3m1 0h6m1 0h1m2 0h1m1 0h2m3 0h1m1 0h7m7 0h1m4 0h2m1 0h1m2 0h2m1 0h1m3 0h1m3 0h4m2 0h2m1 0h2M4 21.5h2m1 0h1m1 0h1m1 0h1m2 0h1m2 0h4m3 0h3m6 0h3m1 0h1m2 0h2m2 0h3m2 0h5m2 0h1m1 0h3m5 0h1m1 0h3m3 0h1m1 0h6m2 0h1m1 0h1m1 0h10m2 0h1m3 0h1M6 22.5h1m2 0h2m2 0h1m1 0h2m1 0h2m2 0h4m1 0h2m2 0h3m3 0h1m3 0h1m1 0h1m2 0h1m1 0h1m5 0h1m1 0h2m2 0h2m2 0h1m2 0h1m1 0h4m1 0h3m1 0h1m2 0h2m3 0h5m1 0h1m2 0h2m3 0h1m3 0h1M4 23.5h4m1 0h1m3 0h4m1 0h1m1 0h7m3 0h1m4 0h6m1 0h1m3 0h1m1 0h1m2 0h1m2 0h2m1 0h1m1 0h5m3 0h1m1 0h6m2 0h1m3 0h1m1 0h5m2 0h1m1 0h1m2 0h4m1 0h2m1 0h1M4 24.5h2m3 0h3m1 0h2m3 0h7m3 0h1m2 0h1m1 0h4m1 0h1m1 0h1m1 0h2m1 0h2m3 0h1m2 0h1m5 0h1m2 0h1m2 0h4m1 0h1m3 0h1m1 0h1m3 0h1m1 0h4m2 0h2m2 0h1m1 0h1m1 0h3m2 0h3M5 25.5h3m1 0h1m1 0h1m2 0h3m1 0h1m1 0h5m2 0h4m2 0h1m1 0h4m1 0h5m6 0h3m5 0h3m6 0h1m1 0h2m6 0h1m4 0h2m4 0h1m3 0h1m3 0h4m1 0h1m1 0h1M8 26.5h1m1 0h5m5 0h4m1 0h1m1 0h2m1 0h1m1 0h2m2 0h3m1 0h2m1 0h1m4 0h1m2 0h2m1 0h1m2 0h2m2 0h2m1 0h1m1 0h2m1 0h1m4 0h4m1 0h3m2 0h3m3 0h4m1 0h4m1 0h4M4 27.5h2m1 0h2m2 0h2m1 0h2m1 0h1m7 0h5m1 0h1m4 0h1m1 0h6m1 0h3m1 0h3m1 0h1m1 0h5m1 0h6m4 0h1m5 0h2m2 0h1m1 0h1m1 0h3m1 0h1m3 0h1m1 0h2m1 0h4M5 28.5h1m1 0h1m1 0h2m1 0h1m1 0h1m2 0h2m1 0h4m4 0h2m1 0h3m1 0h1m2 0h1m1 0h3m4 0h2m2 0h2m4 0h2m2 0h4m2 0h2m1 0h3m4 0h2m2 0h1m1 0h5m1 0h1m1 0h3m3 0h1m2 0h2M5 29.5h2m4 0h1m4 0h2m1 0h2m1 0h2m3 0h1m3 0h1m1 0h1m4 0h3m2 0h3m1 0h3m1 0h4m2 0h1m1 0h2m3 0h2m3 0h1m2 0h1m9 0h1m1 0h1m2 0h2m3 0h1m1 0h4m1 0h2m1 0h1m1 0h1M4 30.5h1m1 0h1m1 0h6m2 0h1m2 0h1m1 0h1m1 0h1m2 0h1m2 0h6m1 0h1m2 0h1m2 0h1m3 0h3m3 0h12m2 0h4m1 0h2m1 0h5m4 0h1m3 0h3m2 0h10m1 0h1M6 31.5h1m1 0h1m3 0h3m1 0h1m1 0h1m1 0h1m1 0h1m2 0h2m3 0h1m3 0h1m1 0h1m1 0h8m2 0h3m1 0h1m3 0h6m1 0h1m2 0h1m4 0h2m1 0h1m3 0h1m1 0h2m1 0h1m2 0h1m1 0h1m1 0h3m1 0h1m1 0h1m3 0h1m2 0h1M4 32.5h1m1 0h1m1 0h1m1 0h1m1 0h2m3 0h4m1 0h3m5 0h1m1 0h1m1 0h3m4 0h1m1 0h2m2 0h3m2 0h1m1 0h1m1 0h2m6 0h4m1 0h4m1 0h1m1 0h1m1 0h2m1 0h2m3 0h2m1 0h3m2 0h3m1 0h1m1 0h2M4 33.5h1m2 0h2m3 0h1m3 0h2m1 0h2m4 0h1m1 0h1m2 0h1m3 0h2m1 0h1m1 0h1m4 0h2m2 0h1m1 0h3m3 0h1m1 0h1m1 0h2m1 0h2m1 0h3m1 0h1m3 0h1m3 0h6m1 0h3m2 0h3m2 0h2m3 0h2m2 0h1M8 34.5h6m1 0h4m2 0h1m1 0h4m1 0h1m1 0h8m2 0h3m1 0h1m3 0h2m1 0h7m3 0h1m2 0h1m1 0h1m4 0h1m1 0h7m1 0h5m1 0h1m2 0h3m1 0h7m1 0h1m1 0h1M5 35.5h2m1 0h1m4 0h1m2 0h1m1 0h2m1 0h2m4 0h1m1 0h1m5 0h2m4 0h1m3 0h1m2 0h1m1 0h1m2 0h2m2 0h2m2 0h4m2 0h1m2 0h2m1 0h2m1 0h1m2 0h4m1 0h2m2 0h1m1 0h1m2 0h1m1 0h1m2 0h1m3 0h1M4 36.5h2m2 0h1m1 0h1m1 0h3m5 0h1m2 0h2m1 0h1m2 0h1m3 0h1m4 0h2m2 0h1m1 0h1m1 0h4m1 0h2m2 0h2m1 0h1m2 0h1m1 0h2m3 0h1m1 0h1m1 0h1m1 0h1m1 0h2m2 0h4m1 0h2m1 0h1m1 0h1m1 0h1m3 0h1m2 0h2m2 0h1M5 37.5h1m2 0h1m5 0h1m1 0h2m1 0h2m1 0h1m1 0h4m4 0h1m3 0h1m2 0h3m4 0h1m1 0h1m5 0h5m2 0h1m1 0h2m3 0h4m2 0h3m1 0h2m2 0h2m5 0h1m1 0h2m1 0h1m3 0h4m1 0h1M4 38.5h1m1 0h3m1 0h2m2 0h2m1 0h1m3 0h1m2 0h4m2 0h1m3 0h1m2 0h1m2 0h1m1 0h1m2 0h2m4 0h4m4 0h3m3 0h2m1 0h1m4 0h4m3 0h1m4 0h3m1 0h2m2 0h2m1 0h2m1 0h4M5 39.5h2m1 0h2m1 0h1m1 0h1m9 0h3m1 0h1m1 0h3m2 0h1m4 0h3m1 0h1m1 0h2m3 0h7m1 0h1m3 0h2m3 0h2m1 0h3m2 0h1m1 0h4m1 0h1m1 0h1m1 0h2m1 0h4m2 0h1m2 0h1m2 0h4M4 40.5h1m2 0h1m2 0h1m2 0h2m1 0h1m1 0h2m1 0h1m2 0h1m3 0h1m1 0h6m1 0h2m1 0h3m1 0h1m1 0h5m1 0h2m1 0h2m1 0h1m2 0h1m4 0h3m1 0h3m1 0h3m1 0h4m1 0h1m1 0h2m1 0h2m3 0h11M4 41.5h2m3 0h1m4 0h1m1 0h2m1 0h1m3 0h3m2 0h2m1 0h1m3 0h1m5 0h2m1 0h1m2 0h2m4 0h6m1 0h3m1 0h1m1 0h2m5 0h4m1 0h1m3 0h2m2 0h1m3 0h1m2 0h2m1 0h1m2 0h1m2 0h2M5 42.5h1m1 0h2m1 0h1m2 0h1m4 0h4m1 0h2m1 0h1m3 0h1m1 0h2m4 0h1m1 0h1m1 0h1m3 0h1m2 0h1m1 0h2m1 0h1m1 0h2m1 0h1m2 0h6m5 0h2m1 0h1m3 0h1m1 0h2m3 0h1m1 0h1m1 0h2m2 0h1m2 0h1m1 0h4M9 43.5h1m1 0h1m3 0h1m3 0h1m3 0h1m2 0h6m1 0h1m1 0h2m2 0h2m5 0h4m2 0h1m5 0h1m1 0h1m6 0h1m2 0h1m1 0h1m2 0h5m2 0h4m1 0h1m1 0h3m1 0h1m5 0h2m2 0h2M4 44.5h1m2 0h2m1 0h1m2 0h1m2 0h2m1 0h4m1 0h2m1 0h1m2 0h5m4 0h1m1 0h3m1 0h1m2 0h1m2 0h1m1 0h1m1 0h1m1 0h1m2 0h1m2 0h1m1 0h1m1 0h1m1 0h1m3 0h2m2 0h2m1 0h3m1 0h2m1 0h1m1 0h1m2 0h1m2 0h2m1 0h2m1 0h2M4 45.5h1m1 0h2m1 0h1m1 0h2m2 0h1m2 0h2m4 0h1m2 0h1m2 0h1m2 0h2m3 0h4m1 0h3m5 0h1m2 0h1m1 0h1m2 0h1m2 0h1m1 0h3m1 0h3m2 0h4m1 0h1m1 0h2m1 0h3m1 0h1m1 0h1m1 0h3m1 0h1m3 0h1m2 0h3M5 46.5h2m1 0h1m1 0h2m4 0h2m2 0h8m2 0h3m2 0h6m1 0h3m2 0h6m1 0h2m1 0h5m1 0h7m1 0h1m2 0h2m1 0h1m3 0h1m3 0h1m1 0h2m2 0h1m1 0h2m1 0h3m3 0h2M4 47.5h4m1 0h1m1 0h5m1 0h1m2 0h1m3 0h1m2 0h1m1 0h2m1 0h4m1 0h6m2 0h1m1 0h1m1 0h1m1 0h5m2 0h2m1 0h3m2 0h1m1 0h1m3 0h1m2 0h1m3 0h2m3 0h1m1 0h3m3 0h1m1 0h4m2 0h2m1 0h1M4 48.5h1m3 0h3m1 0h1m2 0h1m3 0h2m2 0h4m2 0h1m3 0h1m4 0h6m2 0h3m3 0h3m4 0h3m2 0h1m3 0h1m1 0h2m1 0h1m1 0h1m2 0h1m1 0h1m1 0h4m3 0h3m2 0h1m3 0h2m2 0h1m1 0h1M4 49.5h5m6 0h1m2 0h1m1 0h4m1 0h2m2 0h3m1 0h5m3 0h3m1 0h2m2 0h2m1 0h1m1 0h1m2 0h1m3 0h3m1 0h3m2 0h1m2 0h5m1 0h2m2 0h2m5 0h1m1 0h3m3 0h2m3 0h2M4 50.5h4m1 0h3m1 0h3m3 0h5m1 0h4m2 0h1m4 0h3m2 0h5m2 0h1m1 0h1m1 0h2m1 0h1m1 0h1m2 0h1m1 0h1m1 0h8m1 0h2m2 0h2m2 0h1m1 0h2m1 0h1m1 0h1m2 0h2m1 0h3m1 0h2m2 0h1M6 51.5h2m1 0h1m3 0h1m1 0h1m1 0h2m2 0h5m1 0h1m1 0h3m1 0h1m2 0h1m3 0h1m5 0h2m2 0h4m2 0h1m1 0h1m4 0h1m2 0h1m1 0h2m1 0h4m1 0h2m2 0h1m1 0h1m1 0h2m1 0h1m1 0h4m1 0h1m2 0h1m1 0h3m1 0h1M4 52.5h3m1 0h5m1 0h4m4 0h1m3 0h9m4 0h1m5 0h3m1 0h8m2 0h3m1 0h2m2 0h3m2 0h10m1 0h1m3 0h2m1 0h1m3 0h8m1 0h1M4 53.5h1m2 0h2m3 0h2m1 0h2m2 0h3m1 0h3m2 0h1m1 0h1m3 0h2m1 0h2m1 0h2m3 0h2m1 0h1m2 0h2m3 0h5m3 0h4m2 0h1m1 0h3m3 0h1m1 0h1m3 0h1m1 0h3m4 0h2m1 0h1m3 0h3M6 54.5h3m1 0h1m1 0h2m1 0h2m1 0h5m2 0h4m1 0h1m1 0h1m1 0h1m2 0h1m2 0h1m1 0h1m1 0h1m2 0h1m1 0h1m2 0h1m1 0h1m1 0h3m1 0h1m3 0h3m3 0h5m1 0h1m1 0h3m2 0h2m1 0h2m3 0h3m1 0h2m1 0h1m1 0h1m1 0h1m1 0h1M6 55.5h3m3 0h1m1 0h1m2 0h5m1 0h4m3 0h1m3 0h4m1 0h1m1 0h5m1 0h1m4 0h1m3 0h6m1 0h2m1 0h1m5 0h3m3 0h3m1 0h1m2 0h2m1 0h1m1 0h1m2 0h1m2 0h1m3 0h2m1 0h2M4 56.5h1m3 0h5m3 0h2m3 0h2m1 0h1m1 0h1m1 0h1m1 0h7m1 0h1m1 0h4m1 0h1m2 0h2m2 0h7m2 0h1m6 0h1m1 0h1m3 0h5m1 0h1m2 0h1m6 0h3m1 0h7m2 0h1M4 57.5h1m4 0h1m2 0h7m1 0h2m1 0h1m1 0h3m2 0h1m4 0h1m2 0h11m3 0h3m1 0h1m1 0h1m3 0h2m2 0h4m1 0h2m1 0h2m1 0h2m1 0h3m1 0h1m1 0h1m2 0h2m1 0h2m2 0h1m1 0h3m1 0h1m1 0h1M7 58.5h1m2 0h1m3 0h2m2 0h2m1 0h2m3 0h3m2 0h1m4 0h1m2 0h2m4 0h1m3 0h3m1 0h6m4 0h5m3 0h1m3 0h2m3 0h2m1 0h1m2 0h3m1 0h1m3 0h1m1 0h1m3 0h1m1 0h2M4 59.5h1m1 0h2m3 0h1m1 0h3m2 0h2m1 0h2m1 0h1m5 0h2m1 0h1m2 0h1m1 0h1m2 0h1m1 0h2m2 0h2m1 0h2m6 0h2m2 0h3m2 0h2m1 0h1m1 0h4m2 0h1m1 0h1m3 0h2m2 0h4m1 0h1m1 0h3m3 0h3M4 60.5h1m1 0h2m2 0h2m1 0h4m2 0h1m1 0h1m3 0h3m2 0h5m5 0h2m1 0h3m1 0h5m1 0h1m2 0h1m3 0h1m1 0h4m1 0h1m2 0h4m1 0h1m1 0h4m1 0h1m2 0h1m2 0h3m1 0h7m1 0h1m3 0h1M5 61.5h1m1 0h1m3 0h2m2 0h1m3 0h4m2 0h1m2 0h1m2 0h1m4 0h2m1 0h2m1 0h2m1 0h1m2 0h1m1 0h3m1 0h1m1 0h2m3 0h3m1 0h6m1 0h1m1 0h3m1 0h1m1 0h2m1 0h1m3 0h1m2 0h2m6 0h2m3 0h1M4 62.5h2m1 0h1m1 0h2m2 0h1m4 0h3m1 0h1m1 0h1m2 0h1m4 0h2m6 0h3m1 0h2m3 0h2m1 0h1m4 0h1m2 0h2m1 0h2m4 0h1m1 0h1m1 0h2m1 0h2m1 0h2m1 0h1m1 0h2m1 0h2m2 0h1m1 0h1m1 0h1m1 0h1m1 0h2m1 0h3M7 63.5h3m2 0h7m2 0h1m1 0h4m6 0h2m3 0h1m3 0h1m1 0h2m1 0h1m8 0h2m2 0h1m1 0h1m1 0h2m1 0h1m4 0h2m5 0h2m1 0h1m3 0h2m1 0h5m1 0h4m1 0h1m1 0h1M4 64.5h1m1 0h2m1 0h2m2 0h2m4 0h2m2 0h1m1 0h1m2 0h1m2 0h1m1 0h2m2 0h1m2 0h3m1 0h1m1 0h1m3 0h1m4 0h4m3 0h1m3 0h2m1 0h3m2 0h1m1 0h4m1 0h1m1 0h1m1 0h1m2 0h1m1 0h3m1 0h6m2 0h3M4 65.5h1m2 0h1m1 0h1m1 0h3m3 0h2m1 0h1m1 0h2m1 0h1m3 0h1m3 0h1m2 0h3m8 0h1m1 0h1m2 0h2m1 0h2m2 0h1m2 0h1m3 0h1m2 0h2m1 0h1m5 0h1m1 0h1m1 0h1m1 0h1m4 0h2m2 0h9M4 66.5h3m3 0h3m3 0h1m2 0h2m1 0h1m1 0h1m3 0h3m1 0h1m1 0h2m3 0h1m1 0h1m1 0h4m1 0h1m2 0h6m1 0h1m4 0h1m5 0h2m3 0h4m1 0h4m1 0h3m5 0h2m2 0h3m4 0h2M4 67.5h1m2 0h1m7 0h1m3 0h3m2 0h4m5 0h1m1 0h1m1 0h2m1 0h2m3 0h1m1 0h1m3 0h2m2 0h1m1 0h2m3 0h1m1 0h2m1 0h6m1 0h1m1 0h2m6 0h2m4 0h1m1 0h3m1 0h1m1 0h2m1 0h4M6 68.5h9m1 0h1m3 0h1m1 0h1m1 0h3m1 0h1m1 0h1m1 0h1m1 0h2m1 0h1m3 0h3m1 0h1m5 0h3m4 0h1m1 0h3m1 0h1m1 0h1m2 0h1m1 0h2m1 0h2m4 0h2m1 0h1m5 0h3m3 0h1m1 0h2m1 0h1m2 0h2M4 69.5h4m3 0h1m1 0h1m1 0h1m1 0h3m4 0h1m1 0h1m2 0h4m2 0h1m4 0h4m1 0h1m2 0h1m2 0h1m1 0h2m1 0h2m2 0h2m1 0h1m1 0h1m1 0h3m1 0h2m2 0h2m2 0h4m2 0h1m1 0h2m2 0h2m1 0h1m1 0h1m2 0h1m4 0h1M4 70.5h1m1 0h3m1 0h1m1 0h2m2 0h1m2 0h1m2 0h1m2 0h2m1 0h4m4 0h1m1 0h3m6 0h1m1 0h1m1 0h2m1 0h1m2 0h4m3 0h1m1 0h4m1 0h1m1 0h1m3 0h9m1 0h1m2 0h1m1 0h1m1 0h1m1 0h1m1 0h2m1 0h1m1 0h2M4 71.5h2m5 0h3m3 0h1m1 0h2m1 0h1m2 0h2m2 0h1m1 0h2m1 0h1m1 0h2m2 0h2m3 0h1m1 0h1m2 0h1m1 0h1m2 0h1m2 0h1m4 0h1m1 0h2m5 0h3m1 0h1m1 0h2m5 0h2m1 0h1m1 0h1m1 0h1m1 0h2m2 0h3m1 0h1M6 72.5h1m2 0h3m1 0h2m4 0h2m2 0h1m2 0h5m1 0h1m2 0h2m3 0h2m5 0h1m1 0h1m1 0h3m1 0h1m2 0h1m1 0h1m1 0h3m3 0h2m3 0h5m2 0h1m4 0h4m1 0h1m2 0h2m2 0h2m1 0h1m1 0h3M4 73.5h1m1 0h1m1 0h2m3 0h7m1 0h2m3 0h2m1 0h1m5 0h2m2 0h1m1 0h3m2 0h1m3 0h3m2 0h2m1 0h1m1 0h1m1 0h5m2 0h5m3 0h1m1 0h2m1 0h1m2 0h1m2 0h1m1 0h1m2 0h1m2 0h1m2 0h1m3 0h1M4 74.5h2m1 0h6m2 0h1m3 0h5m3 0h2m1 0h5m1 0h1m1 0h2m2 0h1m1 0h1m1 0h1m1 0h1m2 0h7m1 0h1m1 0h2m1 0h1m2 0h1m1 0h2m3 0h7m1 0h7m1 0h2m1 0h9m2 0h1M4 75.5h2m2 0h1m3 0h1m1 0h3m3 0h2m1 0h2m3 0h3m3 0h1m9 0h3m1 0h3m1 0h1m3 0h1m1 0h4m3 0h2m3 0h3m1 0h1m3 0h1m1 0h1m1 0h1m2 0h3m4 0h5m3 0h1m2 0h2M5 76.5h1m2 0h1m1 0h1m1 0h6m2 0h1m2 0h2m1 0h1m2 0h2m1 0h1m1 0h1m2 0h2m1 0h2m2 0h2m2 0h1m2 0h2m1 0h1m1 0h1m1 0h3m1 0h3m1 0h1m1 0h2m1 0h2m1 0h1m1 0h1m1 0h2m1 0h1m2 0h2m6 0h3m1 0h1m1 0h1m1 0h4M5 77.5h1m2 0h1m3 0h4m1 0h1m1 0h6m1 0h2m2 0h1m3 0h3m3 0h3m1 0h5m2 0h2m3 0h2m2 0h2m1 0h2m1 0h1m1 0h3m2 0h2m3 0h3m1 0h1m1 0h5m1 0h4m2 0h1m3 0h2m1 0h1M4 78.5h1m1 0h7m3 0h1m1 0h2m1 0h1m1 0h1m2 0h1m3 0h5m2 0h2m3 0h2m2 0h2m4 0h5m1 0h2m1 0h1m2 0h4m4 0h1m1 0h6m5 0h1m2 0h3m1 0h2m2 0h5m2 0h2M6 79.5h4m2 0h3m1 0h1m3 0h2m2 0h1m1 0h2m1 0h1m3 0h6m3 0h2m2 0h2m4 0h6m3 0h1m1 0h1m3 0h1m1 0h1m1 0h7m5 0h1m1 0h2m1 0h2m2 0h5m1 0h4m2 0h1M8 80.5h3m1 0h3m4 0h1m1 0h2m3 0h2m1 0h2m2 0h1m1 0h4m2 0h5m1 0h1m1 0h2m1 0h1m1 0h3m4 0h2m4 0h1m4 0h1m2 0h1m4 0h5m2 0h1m1 0h4m1 0h1m1 0h1m2 0h1m3 0h1M6 81.5h1m1 0h1m2 0h2m2 0h1m1 0h2m4 0h2m1 0h1m1 0h2m2 0h1m1 0h1m4 0h1m2 0h1m1 0h1m1 0h1m1 0h2m1 0h3m1 0h2m3 0h3m2 0h4m1 0h1m1 0h3m3 0h4m1 0h1m1 0h3m1 0h3m2 0h2m2 0h1m1 0h1m3 0h1M5 82.5h2m1 0h1m1 0h1m1 0h2m1 0h2m1 0h1m4 0h4m3 0h2m2 0h1m2 0h1m4 0h3m2 0h3m1 0h3m1 0h1m1 0h1m3 0h1m3 0h1m2 0h2m1 0h3m1 0h3m1 0h1m1 0h1m3 0h3m2 0h1m6 0h2m5 0h1M9 83.5h1m3 0h1m2 0h5m3 0h3m3 0h1m3 0h1m1 0h2m2 0h2m1 0h4m3 0h4m4 0h4m3 0h1m2 0h1m1 0h7m1 0h2m1 0h1m3 0h1m1 0h1m6 0h1m1 0h1m1 0h1m2 0h4M4 84.5h1m2 0h2m1 0h2m2 0h1m3 0h8m4 0h2m2 0h2m6 0h1m1 0h1m1 0h3m3 0h1m1 0h2m6 0h1m4 0h1m2 0h1m1 0h1m1 0h3m1 0h1m1 0h5m2 0h1m4 0h1m1 0h2m4 0h1m1 0h2M4 85.5h2m5 0h5m2 0h2m12 0h3m2 0h1m1 0h3m3 0h1m3 0h2m3 0h4m1 0h2m9 0h4m2 0h3m1 0h2m2 0h4m1 0h1m3 0h1m1 0h1m1 0h1m2 0h5M4 86.5h5m1 0h1m1 0h1m5 0h2m3 0h2m1 0h3m1 0h4m5 0h1m1 0h1m1 0h3m1 0h3m1 0h1m1 0h2m1 0h1m1 0h3m1 0h1m2 0h2m1 0h1m6 0h3m1 0h2m2 0h1m1 0h1m5 0h3m3 0h4m1 0h3M5 87.5h1m1 0h3m2 0h2m1 0h2m7 0h1m2 0h1m1 0h1m1 0h2m1 0h1m1 0h4m5 0h1m1 0h1m2 0h1m1 0h1m2 0h1m1 0h1m2 0h2m1 0h2m1 0h1m1 0h2m2 0h1m1 0h2m1 0h6m1 0h8m2 0h1m5 0h1m1 0h1m1 0h1M5 88.5h1m1 0h1m1 0h2m2 0h1m1 0h2m3 0h1m7 0h2m1 0h5m1 0h1m3 0h1m1 0h1m2 0h1m3 0h2m2 0h3m2 0h2m1 0h1m1 0h1m2 0h3m2 0h1m4 0h2m2 0h1m1 0h1m2 0h1m1 0h1m2 0h2m5 0h2m1 0h1m1 0h1M6 89.5h1m1 0h2m2 0h5m3 0h4m1 0h3m1 0h1m2 0h1m3 0h2m4 0h1m1 0h5m1 0h1m5 0h1m1 0h3m3 0h1m1 0h1m4 0h2m2 0h3m3 0h2m3 0h1m1 0h3m2 0h3m1 0h2m1 0h2m1 0h1M5 90.5h3m2 0h2m2 0h1m2 0h2m2 0h1m5 0h2m1 0h2m2 0h1m1 0h2m4 0h8m2 0h1m3 0h3m9 0h1m2 0h2m1 0h9m1 0h2m4 0h3m1 0h2m5 0h1m2 0h1M5 91.5h1m1 0h1m3 0h1m1 0h1m1 0h1m1 0h1m1 0h3m3 0h8m1 0h1m1 0h1m2 0h3m1 0h2m2 0h2m2 0h1m3 0h1m1 0h1m1 0h1m1 0h2m4 0h3m1 0h1m2 0h2m1 0h1m4 0h3m1 0h1m2 0h2m3 0h1m1 0h1m1 0h1m3 0h2M4 92.5h1m2 0h1m1 0h3m1 0h2m7 0h2m1 0h1m2 0h1m1 0h2m1 0h4m3 0h1m3 0h1m1 0h3m1 0h2m1 0h3m1 0h6m1 0h1m2 0h1m1 0h1m1 0h3m2 0h1m4 0h3m1 0h2m1 0h1m3 0h1m3 0h2m1 0h2m2 0h2M4 93.5h1m3 0h1m2 0h3m1 0h1m1 0h1m1 0h1m1 0h3m1 0h1m2 0h5m1 0h1m2 0h3m1 0h1m3 0h1m1 0h3m2 0h1m1 0h1m1 0h1m2 0h1m3 0h4m5 0h3m1 0h1m5 0h1m1 0h2m1 0h2m1 0h1m3 0h4m3 0h2M4 94.5h1m2 0h2m1 0h5m1 0h1m1 0h2m2 0h1m4 0h2m2 0h3m2 0h2m1 0h1m1 0h1m2 0h1m1 0h3m2 0h1m4 0h1m1 0h1m4 0h2m1 0h2m2 0h1m2 0h3m2 0h6m1 0h1m4 0h2m3 0h4m2 0h1m1 0h1M4 95.5h1m1 0h2m1 0h1m4 0h2m1 0h2m1 0h2m1 0h2m4 0h2m1 0h2m1 0h2m1 0h1m1 0h1m1 0h1m1 0h2m1 0h4m2 0h1m1 0h1m1 0h2m2 0h1m3 0h8m1 0h1m2 0h1m3 0h1m3 0h5m6 0h1m1 0h5m1 0h1M8 96.5h1m1 0h1m1 0h3m1 0h1m4 0h1m2 0h3m2 0h7m1 0h4m1 0h1m2 0h13m1 0h1m1 0h5m6 0h1m1 0h7m1 0h3m3 0h4m4 0h5m1 0h3M12 97.5h1m3 0h1m4 0h2m4 0h4m3 0h2m1 0h1m1 0h1m2 0h2m2 0h4m1 0h2m3 0h3m1 0h3m1 0h1m1 0h3m1 0h1m1 0h1m1 0h1m3 0h1m5 0h2m2 0h1m7 0h1m3 0h5M4 98.5h7m5 0h3m1 0h1m1 0h2m1 0h2m3 0h1m1 0h1m1 0h1m3 0h1m1 0h2m1 0h4m1 0h2m1 0h2m1 0h1m1 0h2m1 0h1m1 0h2m1 0h1m5 0h2m2 0h1m1 0h1m1 0h1m1 0h1m2 0h1m1 0h1m4 0h7m1 0h1m1 0h2M4 99.5h1m5 0h1m4 0h1m2 0h3m6 0h2m1 0h1m3 0h1m1 0h1m1 0h7m1 0h4m2 0h1m3 0h2m3 0h1m2 0h1m3 0h3m1 0h3m3 0h2m2 0h1m6 0h2m2 0h2m1 0h1m3 0h2m1 0h1M4 100.5h1m1 0h3m1 0h1m1 0h2m4 0h3m2 0h1m2 0h2m1 0h6m1 0h1m2 0h2m2 0h2m1 0h5m1 0h6m1 0h4m4 0h1m2 0h10m1 0h2m1 0h4m2 0h1m1 0h1m2 0h6m1 0h3M4 101.5h1m1 0h3m1 0h1m1 0h1m7 0h2m1 0h2m4 0h2m1 0h3m1 0h2m1 0h1m2 0h1m1 0h1m1 0h2m1 0h1m3 0h3m5 0h2m6 0h2m3 0h2m2 0h1m4 0h1m4 0h4m3 0h2m1 0h2m2 0h1M4 102.5h1m1 0h3m1 0h1m2 0h1m4 0h5m1 0h2m2 0h1m1 0h5m2 0h2m2 0h2m2 0h3m1 0h5m1 0h3m1 0h1m1 0h2m1 0h2m2 0h1m1 0h2m3 0h2m2 0h6m1 0h2m1 0h1m8 0h1m2 0h4M4 103.5h1m5 0h1m1 0h1m2 0h2m1 0h1m4 0h2m1 0h5m5 0h2m1 0h3m2 0h1m1 0h5m1 0h1m1 0h4m3 0h3m1 0h5m1 0h2m1 0h1m1 0h1m2 0h1m3 0h1m2 0h3m1 0h4m1 0h4m1 0h2m2 0h1M4 104.5h7m1 0h5m1 0h1m1 0h1m1 0h2m3 0h4m2 0h1m1 0h3m1 0h5m2 0h2m3 0h1m1 0h4m1 0h1m3 0h1m3 0h1m1 0h4m4 0h1m3 0h1m3 0h1m6 0h1m1 0h1m2 0h2m1 0h1m2 0h1"/></svg>
