<svg xmlns="http://www.w3.org/2000/svg" viewBox="0 0 113 113" shape-rendering="crispEdges"><path fill="#ffffff" d="M0 0h113v113H0z"/><path stroke="#000000" d="M4 4.5h7m1 0h3m1 0h1m1 0h1m1 0h1m2 0h2m3 0h1m1 0h1m1 0h1m2 0h2m2 0h1m4 0h1m7 0h1m1 0h4m1 0h1m1 0h1m2 0h2m1 0h1m2 0h2m1 0h1m3 0h3m1 0h1m1 0h1m5 0h1m1 0h2m2 0h4m3 0h7M4 5.5h1m5 0h1m5 0h1m5 0h1m2 0h1m1 0h2m1 0h1m7 0h3m1 0h3m1 0h1m2 0h1m2 0h1m3 0h1m1 0h3m2 0h1m1 0h1m1 0h6m3 0h3m3 0h1m1 0h1m1 0h1m1 0h3m4 0h2m1 0h1m3 0h1m5 0h1M4 6.5h1m1 0h3m1 0h1m2 0h1m1 0h4m1 0h1m1 0h2m2 0h1m1 0h1m7 0h6m2 0h1m1 0h3m1 0h1m4 0h1m3 0h2m1 0h1m1 0h1m1 0h1m2 0h3m3 0h3m5 0h1m2 0h1m1 0h1m7 0h4m2 0h1m1 0h3m1 0h1M4 7.5h1m1 0h3m1 0h1m1 0h1m1 0h4m3 0h1m1 0h4m3 0h2m1 0h2m2 0h4m4 0h3m2 0h2m1 0h4m3 0h2m2 0h4m6 0h3m2 0h1m1 0h1m1 0h3m1 0h2m1 0h1m2 0h2m5 0h1m1 0h1m1 0h3m1 0h1M4 8.5h1m1 0h3m1 0h1m1 0h1m1 0h1m2 0h2m2 0h1m4 0h1m1 0h5m2 0h1m4 0h2m2 0h4m4 0h7m6 0h1m1 0h1m3 0h3m1 0h7m2 0h1m2 0h2m1 0h1m2 0h2m2 0h1m1 0h2m1 0h1m1 0h3m1 0h1M4 9.5h1m5 0h1m1 0h6m4 0h1m1 0h5m3 0h1m3 0h1m3 0h1m1 0h2m1 0h5m1 0h2m3 0h2m1 0h1m1 0h1m2 0h1m3 0h2m3 0h2m1 0h1m3 0h4m1 0h1m2 0h1m2 0h1m2 0h4m1 0h1m2 0h1m5 0h1M4 10.5h7m1 0h1m1 0h1m1 0h1m1 0h1m1 0h1m1 0h1m1 0h1m1 0h1m1 0h1m1 0h1m1 0h1m1 0h1m1 0h1m1 0h1m1 0h1m1 0h1m1 0h1m1 0h1m1 0h1m1 0h1m1 0h1m1 0h1m1 0h1m1 0h1m1 0h1m1 0h1m1 0h1m1 0h1m1 0h1m1 0h1m1 0h1m1 0h1m1 0h1m1 0h1m1 0h1m1 0h1m1 0h1m1 0h1m1 0h1m1 0h1m1 0h1m1 0h1m1 0h1m1 0h1m1 0h1m1 0h7M12 11.5h2m2 0h3m2 0h1m1 0h1m1 0h1m1 0h2m3 0h1m1 0h4m2 0h2m3 0h1m1 0h1m1 0h1m2 0h1m3 0h1m2 0h4m1 0h1m2 0h2m2 0h1m2 0h1m1 0h1m3 0h3m2 0h2m2 0h1m3 0h1m2 0h1m1 0h2M4 12.5h1m3 0h1m1 0h3m1 0h1m1 0h2m1 0h7m1 0h6m3 0h2m1 0h1m1 0h4m2 0h1m3 0h6m1 0h1m2 0h2m1 0h1m1 0h2m2 0h1m1 0h2m1 0h9m2 0h4m2 0h4m3 0h1m1 0h5m2 0h1M4 13.5h1m2 0h1m3 0h2m1 0h2m1 0h1m1 0h1m1 0h1m2 0h1m1 0h5m1 0h2m2 0h1m1 0h3m2 0h1m2 0h1m1 0h2m1 0h2m1 0h2m2 0h3m2 0h1m1 0h1m3 0h5m3 0h2m2 0h1m4 0h1m3 0h1m1 0h6m7 0h1M4 14.5h1m3 0h1m1 0h1m1 0h2m1 0h2m4 0h5m3 0h7m1 0h1m1 0h1m2 0h1m8 0h1m1 0h2m1 0h2m1 0h2m1 0h1m3 0h4m5 0h4m4 0h1m1 0h2m3 0h1m1 0h2m2 0h2m1 0h1m2 0h7M4 15.5h2m3 0h1m1 0h1m2 0h1m1 0h5m1 0h1m3 0h3m1 0h1m2 0h1m1 0h2m1 0h2m1 0h2m2 0h1m1 0h2m5 0h1m1 0h1m3 0h1m1 0h1m1 0h1m3 0h1m2 0h1m3 0h2m2 0h4m3 0h1m1 0h3m2 0h1m1 0h1m1 0h1m3 0h2m1 0h1m2 0h2M7 16.5h4m2 0h3m2 0h2m2 0h1m3 0h1m1 0h1m1 0h1m2 0h1m4 0h2m1 0h2m2 0h2m4 0h3m1 0h1m2 0h2m3 0h1m1 0h1m2 0h4m1 0h5m4 0h2m3 0h4m2 0h1m1 0h1m1 0h3m1 0h3m3 0h1M5 17.5h1m1 0h1m1 0h1m1 0h1m10 0h1m1 0h1m2 0h1m2 0h3m2 0h1m1 0h1m5 0h2m1 0h3m2 0h2m1 0h3m3 0h1m1 0h2m1 0h3m2 0h1m1 0h1m1 0h4m2 0h1m1 0h5m1 0h1m1 0h2m2 0h2m1 0h5m2 0h2M4 18.5h2m1 0h1m1 0h2m1 0h1m3 0h2m1 0h2m7 0h2m1 0h2m3 0h3m2 0h2m1 0h1m1 0h9m2 0h4m3 0h1m1 0h1m2 0h1m1 0h1m4 0h2m1 0h1m4 0h7m1 0h2m1 0h3m2 0h1m2 0h1m1 0h1m1 0h2M4 19.5h1m1 0h1m9 0h2m3 0h1m2 0h1m1 0h1m1 0h1m1 0h2m1 0h4m1 0h2m1 0h3m3 0h3m4 0h1m1 0h1m1 0h3m2 0h3m3 0h3m1 0h2m3 0h2m2 0h1m2 0h1m1 0h2m7 0h2m1 0h1m1 0h1M4 20.5h1m1 0h2m1 0h2m1 0h7m1 0h11m4 0h1m1 0h3m1 0h2m4 0h3m1 0h1m1 0h4m1 0h2m1 0h2m1 0h3m1 0h2m2 0h1m1 0h1m1 0h3m1 0h2m1 0h2m3 0h1m4 0h2m1 0h1m1 0h4m5 0h1M4 21.5h1m3 0h2m1 0h2m2 0h1m1 0h2m4 0h1m4 0h2m1 0h5m3 0h1m1 0h1m5 0h2m2 0h2m1 0h1m1 0h1m1 0h1m2 0h2m1 0h1m7 0h1m1 0h1m1 0h2m1 0h1m1 0h1m5 0h1m1 0h1m1 0h1m1 0h2m5 0h3m2 0h2M5 22.5h3m1 0h2m1 0h1m1 0h1m1 0h2m3 0h1m4 0h1m3 0h2m1 0h3m2 0h2m2 0h3m4 0h2m4 0h4m1 0h1m4 0h1m3 0h2m1 0h1m1 0h1m3 0h7m3 0h3m5 0h2m1 0h2m1 0h4m2 0h1M5 23.5h5m1 0h3m2 0h2m2 0h1m1 0h3m1 0h3m1 0h2m1 0h3m1 0h1m1 0h2m6 0h1m4 0h2m3 0h2m4 0h1m1 0h3m3 0h7m6 0h1m1 0h1m1 0h1m2 0h1m1 0h1m2 0h1m1 0h3m2 0h1m1 0h1m1 0h1M4 24.5h1m2 0h4m1 0h1m3 0h3m3 0h2m2 0h3m1 0h1m1 0h4m2 0h1m1 0h8m1 0h1m1 0h5m1 0h1m2 0h1m1 0h1m1 0h2m1 0h1m4 0h1m1 0h1m2 0h1m2 0h1m2 0h4m1 0h1m1 0h1m1 0h3m4 0h2m1 0h1m4 0h2M4 25.5h1m1 0h4m3 0h2m1 0h2m2 0h1m1 0h2m1 0h2m2 0h2m6 0h2m1 0h4m3 0h1m2 0h1m1 0h1m1 0h4m1 0h3m1 0h4m1 0h1m1 0h5m1 0h2m6 0h2m1 0h2m3 0h2m1 0h2m3 0h4m1 0h4M4 26.5h1m1 0h3m1 0h1m4 0h7m3 0h4m1 0h1m1 0h1m1 0h2m1 0h1m2 0h2m1 0h2m4 0h2m4 0h1m1 0h1m9 0h5m1 0h5m2 0h4m6 0h1m6 0h1m1 0h1m1 0h3m1 0h3M4 27.5h1m2 0h1m1 0h1m3 0h1m3 0h2m4 0h2m1 0h2m1 0h2m1 0h2m1 0h1m2 0h1m2 0h1m1 0h2m2 0h2m1 0h2m1 0h1m3 0h1m1 0h1m2 0h1m1 0h1m3 0h2m3 0h2m1 0h2m1 0h3m1 0h4m1 0h7m1 0h3m1 0h1m1 0h1m1 0h4M5 28.5h2m1 0h6m2 0h3m1 0h3m1 0h1m3 0h7m3 0h1m1 0h2m4 0h2m2 0h13m1 0h1m2 0h1m1 0h3m1 0h2m1 0h5m1 0h4m2 0h1m2 0h1m1 0h5m2 0h5m3 0h1M5 29.5h2m1 0h1m3 0h3m1 0h1m2 0h3m2 0h1m2 0h2m3 0h2m1 0h2m3 0h1m2 0h4m3 0h1m1 0h1m3 0h3m1 0h1m1 0h1m2 0h1m1 0h1m1 0h1m5 0h2m3 0h1m1 0h2m4 0h2m3 0h1m1 0h1m2 0h1m1 0h1m3 0h3M4 30.5h2m2 0h1m1 0h1m1 0h1m1 0h1m1 0h1m1 0h2m2 0h2m1 0h1m1 0h2m1 0h1m1 0h3m6 0h1m3 0h1m4 0h3m1 0h1m1 0h1m3 0h5m1 0h4m2 0h1m1 0h1m1 0h1m1 0h1m1 0h2m3 0h2m1 0h1m1 0h1m2 0h1m1 0h1m1 0h4m1 0h1m1 0h1m1 0h1m1 0h1M6 31.5h3m3 0h4m1 0h4m1 0h2m2 0h1m1 0h1m3 0h2m1 0h2m1 0h1m1 0h1m1 0h1m1 0h5m2 0h2m3 0h1m1 0h2m1 0h5m3 0h1m1 0h1m1 0h4m3 0h2m1 0h1m1 0h6m1 0h3m5 0h1m3 0h2m1 0h1M5 32.5h2m1 0h6m2 0h1m4 0h2m1 0h1m2 0h8m1 0h1m3 0h1m1 0h6m3 0h9m1 0h1m1 0h1m2 0h1m1 0h3m1 0h1m1 0h7m1 0h2m4 0h1m1 0h2m1 0h2m1 0h1m3 0h5m3 0h1M5 33.5h3m3 0h1m1 0h1m2 0h4m1 0h2m1 0h5m1 0h1m1 0h2m1 0h1m1 0h6m1 0h1m1 0h1m5 0h1m1 0h1m1 0h1m1 0h1m1 0h1m2 0h1m1 0h1m2 0h1m2 0h1m2 0h2m2 0h2m1 0h2m4 0h1m1 0h1m4 0h7m1 0h1m5 0h1M4 34.5h2m1 0h1m2 0h1m2 0h6m1 0h1m1 0h1m2 0h2m1 0h1m1 0h1m1 0h1m2 0h3m1 0h1m3 0h2m1 0h3m2 0h2m1 0h1m1 0h3m1 0h1m1 0h3m1 0h3m1 0h1m3 0h1m2 0h1m1 0h3m5 0h1m1 0h1m1 0h2m4 0h1m3 0h1m1 0h1m2 0h1m1 0h1M4 35.5h4m1 0h1m1 0h3m1 0h4m1 0h2m1 0h1m1 0h4m3 0h5m1 0h1m2 0h4m2 0h2m1 0h4m2 0h3m1 0h2m1 0h1m1 0h3m1 0h1m2 0h9m3 0h2m1 0h4m2 0h3m1 0h1m1 0h1m1 0h2m1 0h1m2 0h1M6 36.5h2m1 0h3m2 0h6m4 0h3m1 0h2m1 0h3m1 0h1m2 0h2m1 0h1m1 0h2m3 0h2m2 0h3m2 0h2m2 0h2m1 0h1m2 0h5m1 0h1m2 0h2m1 0h3m3 0h3m2 0h1m1 0h6m1 0h2m2 0h5M6 37.5h1m1 0h1m2 0h1m1 0h2m7 0h1m3 0h3m3 0h2m1 0h1m1 0h1m3 0h1m2 0h1m1 0h3m3 0h2m1 0h2m2 0h1m1 0h3m2 0h2m1 0h2m1 0h1m1 0h1m1 0h1m1 0h3m1 0h3m1 0h1m1 0h7m2 0h5m1 0h1m3 0h2M4 38.5h1m2 0h4m1 0h1m1 0h1m2 0h1m1 0h4m1 0h2m1 0h1m1 0h2m1 0h3m1 0h3m3 0h1m6 0h2m1 0h4m1 0h1m3 0h1m1 0h5m12 0h1m2 0h1m5 0h2m2 0h2m3 0h5m1 0h3M6 39.5h1m4 0h1m1 0h1m2 0h1m1 0h4m1 0h1m2 0h1m3 0h2m2 0h2m2 0h1m1 0h1m5 0h1m3 0h1m3 0h1m4 0h3m3 0h2m2 0h1m2 0h4m1 0h1m1 0h2m3 0h4m3 0h1m3 0h1m1 0h2m2 0h1m1 0h3M4 40.5h5m1 0h1m1 0h1m1 0h1m1 0h1m1 0h2m4 0h4m2 0h2m1 0h2m1 0h2m1 0h1m1 0h1m3 0h2m1 0h1m1 0h1m1 0h2m2 0h1m1 0h1m2 0h2m1 0h1m1 0h2m2 0h2m2 0h1m2 0h2m8 0h4m1 0h1m3 0h2m1 0h1m1 0h1m2 0h1m1 0h3M5 41.5h5m2 0h2m1 0h1m1 0h1m1 0h1m3 0h1m2 0h3m2 0h2m3 0h2m1 0h1m3 0h1m1 0h1m1 0h1m1 0h1m2 0h2m1 0h1m3 0h2m1 0h1m1 0h3m1 0h3m2 0h2m3 0h1m1 0h4m2 0h1m1 0h1m1 0h1m5 0h2m1 0h2m1 0h1m5 0h1M4 42.5h1m3 0h3m1 0h2m3 0h2m1 0h1m1 0h1m2 0h3m3 0h2m1 0h1m4 0h6m4 0h1m1 0h2m1 0h1m1 0h3m1 0h4m1 0h2m3 0h4m5 0h1m1 0h2m2 0h3m5 0h2m1 0h1m1 0h1m1 0h1m1 0h1m1 0h3M4 43.5h1m1 0h4m1 0h4m3 0h1m1 0h2m1 0h4m1 0h4m1 0h1m1 0h3m2 0h4m1 0h4m2 0h2m1 0h5m1 0h1m2 0h1m1 0h3m3 0h2m1 0h1m3 0h1m4 0h3m1 0h1m1 0h1m3 0h1m1 0h6m2 0h2m2 0h1M5 44.5h1m4 0h1m4 0h3m1 0h1m6 0h2m1 0h3m1 0h2m1 0h4m3 0h1m2 0h2m1 0h2m2 0h2m2 0h2m1 0h2m1 0h1m1 0h1m4 0h3m1 0h1m1 0h1m2 0h2m2 0h1m3 0h1m3 0h1m1 0h1m1 0h1m2 0h2m1 0h1m1 0h1m1 0h4M4 45.5h3m1 0h2m2 0h1m3 0h2m1 0h4m4 0h1m1 0h1m2 0h3m2 0h2m1 0h1m3 0h4m1 0h1m2 0h2m3 0h3m1 0h5m7 0h1m3 0h3m2 0h1m2 0h1m2 0h4m3 0h6m2 0h1m1 0h2m1 0h1M6 46.5h1m1 0h3m1 0h1m1 0h1m5 0h2m2 0h3m2 0h2m1 0h1m1 0h1m1 0h2m1 0h2m1 0h2m1 0h1m1 0h6m2 0h9m1 0h5m1 0h1m5 0h1m3 0h1m1 0h1m2 0h1m2 0h2m1 0h1m1 0h1m1 0h1m3 0h1m1 0h2m1 0h1m1 0h2M4 47.5h1m2 0h1m3 0h1m4 0h2m3 0h2m2 0h1m1 0h2m4 0h1m1 0h1m1 0h2m3 0h1m1 0h1m2 0h1m1 0h1m3 0h1m4 0h3m1 0h1m1 0h1m2 0h1m2 0h1m4 0h5m1 0h2m1 0h1m1 0h8m3 0h4m1 0h4m2 0h1M5 48.5h4m1 0h1m1 0h1m4 0h1m4 0h2m1 0h1m3 0h1m1 0h1m3 0h2m1 0h4m1 0h1m2 0h1m1 0h5m1 0h1m4 0h1m3 0h1m1 0h2m1 0h2m1 0h2m2 0h4m1 0h1m2 0h2m1 0h8m2 0h1m4 0h4m2 0h1M6 49.5h2m1 0h1m1 0h1m3 0h1m2 0h2m1 0h1m2 0h6m1 0h1m8 0h2m2 0h3m3 0h4m1 0h2m1 0h2m1 0h1m4 0h11m1 0h2m1 0h1m2 0h1m3 0h2m1 0h1m1 0h3m1 0h1m2 0h1m2 0h3M5 50.5h2m1 0h1m1 0h2m1 0h1m1 0h1m1 0h7m1 0h5m3 0h2m2 0h2m1 0h3m1 0h2m1 0h1m5 0h1m3 0h1m2 0h6m1 0h3m1 0h6m2 0h1m1 0h1m4 0h4m1 0h2m1 0h2m1 0h2m1 0h1m1 0h1m1 0h3m1 0h1M4 51.5h2m1 0h3m7 0h2m1 0h1m1 0h5m1 0h1m1 0h1m1 0h1m1 0h2m1 0h1m2 0h2m2 0h1m4 0h4m2 0h4m3 0h1m1 0h2m3 0h1m1 0h3m1 0h2m1 0h3m3 0h2m1 0h4m1 0h3m1 0h1m1 0h1m2 0h3m2 0h3M4 52.5h10m1 0h4m1 0h1m5 0h8m2 0h3m1 0h1m1 0h1m1 0h19m2 0h2m1 0h1m2 0h1m2 0h1m1 0h6m2 0h1m2 0h1m1 0h1m1 0h1m3 0h10m1 0h1M4 53.5h2m2 0h1m3 0h5m5 0h4m1 0h2m3 0h2m1 0h1m1 0h1m1 0h2m1 0h2m4 0h1m1 0h3m3 0h1m7 0h1m2 0h1m2 0h2m1 0h1m2 0h1m3 0h3m2 0h1m4 0h1m3 0h1m1 0h3m1 0h1m3 0h3M4 54.5h2m2 0h1m1 0h1m1 0h1m5 0h1m2 0h1m5 0h2m1 0h1m1 0h3m4 0h1m1 0h1m2 0h2m6 0h1m1 0h1m1 0h2m1 0h5m1 0h1m4 0h4m2 0h1m1 0h1m1 0h1m2 0h1m2 0h2m2 0h1m2 0h1m1 0h4m1 0h1m1 0h1m1 0h1m2 0h2M4 55.5h1m1 0h3m3 0h2m1 0h2m3 0h1m1 0h2m1 0h1m2 0h1m3 0h1m1 0h1m2 0h2m2 0h4m1 0h2m1 0h4m3 0h1m1 0h1m1 0h1m5 0h2m3 0h3m1 0h2m3 0h3m1 0h4m1 0h1m1 0h1m1 0h1m4 0h1m1 0h1m3 0h1M5 56.5h1m1 0h8m1 0h2m1 0h1m3 0h1m1 0h1m1 0h8m1 0h1m4 0h1m1 0h1m3 0h2m1 0h1m1 0h9m3 0h3m3 0h4m1 0h6m2 0h2m1 0h1m2 0h2m4 0h3m1 0h7m1 0h2M6 57.5h4m1 0h1m1 0h3m3 0h4m1 0h1m1 0h1m2 0h1m4 0h1m1 0h2m2 0h2m1 0h5m2 0h5m1 0h2m1 0h2m3 0h5m1 0h3m2 0h2m4 0h4m2 0h5m2 0h1m1 0h1m3 0h1m4 0h3M4 58.5h1m2 0h1m1 0h2m1 0h1m1 0h6m3 0h2m3 0h2m4 0h2m4 0h3m1 0h1m1 0h1m2 0h1m3 0h1m2 0h2m1 0h4m1 0h1m1 0h3m1 0h2m9 0h2m1 0h4m2 0h1m4 0h3m2 0h2m1 0h1m3 0h1M4 59.5h3m2 0h1m2 0h1m2 0h1m2 0h2m2 0h1m2 0h1m2 0h2m4 0h1m1 0h3m2 0h1m5 0h1m1 0h3m2 0h4m1 0h2m1 0h2m4 0h1m3 0h1m1 0h1m4 0h5m9 0h8m2 0h1m3 0h1M6 60.5h1m1 0h3m1 0h1m3 0h1m1 0h1m2 0h1m2 0h1m2 0h2m1 0h4m1 0h1m1 0h1m1 0h8m2 0h2m1 0h3m3 0h3m4 0h1m3 0h1m4 0h2m1 0h2m2 0h1m1 0h1m1 0h1m2 0h3m2 0h4m1 0h1m1 0h1m3 0h1m1 0h2M7 61.5h2m3 0h1m1 0h5m1 0h4m2 0h1m1 0h2m1 0h4m7 0h1m2 0h2m3 0h1m1 0h1m1 0h1m2 0h5m2 0h3m1 0h1m2 0h1m1 0h3m2 0h2m3 0h1m1 0h1m7 0h4m2 0h2m2 0h1m3 0h1M5 62.5h1m2 0h1m1 0h2m1 0h1m3 0h1m1 0h1m1 0h1m2 0h5m1 0h6m1 0h5m1 0h2m2 0h5m3 0h1m2 0h1m2 0h4m3 0h3m3 0h1m2 0h3m2 0h1m2 0h3m1 0h2m5 0h1m1 0h1m1 0h2m1 0h2m1 0h2M4 63.5h3m1 0h2m2 0h1m2 0h2m2 0h1m1 0h1m1 0h1m1 0h4m1 0h2m6 0h1m1 0h1m1 0h1m2 0h2m3 0h2m1 0h1m3 0h1m3 0h1m2 0h1m1 0h1m1 0h2m1 0h3m1 0h1m2 0h2m4 0h2m1 0h7m2 0h2m5 0h1m3 0h1M4 64.5h1m1 0h1m2 0h3m2 0h3m1 0h2m4 0h1m7 0h2m1 0h3m1 0h3m3 0h2m1 0h6m2 0h1m1 0h1m3 0h1m1 0h1m4 0h3m3 0h1m1 0h2m1 0h2m1 0h3m2 0h1m1 0h1m3 0h2m3 0h5m1 0h4M9 65.5h1m2 0h1m1 0h2m2 0h1m1 0h2m2 0h2m3 0h2m1 0h1m4 0h3m1 0h2m3 0h3m1 0h4m1 0h1m2 0h2m2 0h3m1 0h3m1 0h1m3 0h3m2 0h1m1 0h1m1 0h1m1 0h3m2 0h2m2 0h1m1 0h7m2 0h1m2 0h1M6 66.5h6m5 0h1m2 0h2m2 0h3m2 0h1m1 0h1m1 0h2m2 0h6m1 0h1m4 0h1m2 0h2m3 0h1m6 0h1m1 0h1m1 0h1m2 0h3m1 0h1m1 0h4m1 0h1m1 0h1m6 0h3m1 0h1m1 0h1m1 0h1m1 0h2m3 0h1m1 0h1M4 67.5h3m4 0h1m1 0h1m1 0h4m1 0h1m1 0h2m1 0h1m1 0h1m1 0h2m4 0h1m1 0h1m2 0h4m2 0h1m3 0h2m1 0h3m1 0h1m4 0h1m1 0h2m1 0h4m2 0h1m4 0h1m2 0h2m1 0h1m1 0h3m3 0h1m1 0h4m1 0h1m1 0h1m1 0h1M7 68.5h7m1 0h1m3 0h5m2 0h4m2 0h2m1 0h1m3 0h1m1 0h7m2 0h1m1 0h3m3 0h1m4 0h1m1 0h3m2 0h1m1 0h3m1 0h1m3 0h5m3 0h1m1 0h5m4 0h2m2 0h2m1 0h1M8 69.5h2m5 0h3m2 0h2m1 0h3m1 0h2m2 0h1m2 0h1m2 0h2m2 0h1m2 0h1m1 0h2m1 0h1m3 0h1m1 0h7m2 0h1m1 0h1m2 0h3m1 0h6m1 0h1m3 0h2m1 0h1m3 0h4m6 0h1m3 0h4M5 70.5h2m1 0h1m1 0h3m1 0h1m1 0h1m3 0h3m1 0h1m2 0h1m5 0h1m3 0h1m1 0h2m1 0h1m1 0h3m1 0h2m3 0h1m1 0h1m1 0h1m1 0h1m2 0h2m1 0h4m1 0h3m1 0h2m2 0h1m6 0h4m1 0h1m1 0h2m1 0h1m4 0h2m2 0h2m1 0h1M4 71.5h3m2 0h1m3 0h1m1 0h1m3 0h1m2 0h1m1 0h3m1 0h1m1 0h1m1 0h1m1 0h2m3 0h1m3 0h6m1 0h1m2 0h1m7 0h1m2 0h1m3 0h1m4 0h5m3 0h1m1 0h4m3 0h5m3 0h1m1 0h3m1 0h1m3 0h1M4 72.5h3m3 0h2m1 0h1m3 0h1m1 0h4m1 0h1m1 0h1m1 0h4m4 0h1m1 0h2m2 0h1m2 0h3m3 0h1m1 0h2m4 0h1m1 0h2m2 0h1m1 0h4m1 0h2m4 0h1m1 0h1m2 0h3m1 0h4m1 0h4m3 0h2m2 0h3m1 0h1M6 73.5h1m1 0h2m4 0h2m1 0h1m1 0h2m1 0h1m4 0h1m2 0h4m2 0h2m1 0h2m3 0h1m1 0h2m3 0h1m1 0h6m1 0h1m1 0h2m1 0h2m1 0h2m2 0h1m1 0h4m3 0h1m1 0h1m2 0h1m2 0h3m2 0h2m1 0h1m1 0h1m1 0h1m1 0h1m3 0h2M4 74.5h1m2 0h8m1 0h3m2 0h3m1 0h1m3 0h1m1 0h1m2 0h2m2 0h3m2 0h1m1 0h4m2 0h1m1 0h1m1 0h1m3 0h1m6 0h2m1 0h2m2 0h3m3 0h1m1 0h1m1 0h1m2 0h1m4 0h1m2 0h2m1 0h1m1 0h1m1 0h1m4 0h1M5 75.5h1m2 0h2m3 0h1m1 0h1m2 0h3m1 0h1m3 0h5m1 0h2m2 0h2m1 0h1m1 0h2m4 0h1m2 0h1m6 0h2m2 0h3m1 0h1m1 0h1m8 0h1m1 0h1m1 0h1m1 0h1m2 0h2m1 0h2m1 0h3m2 0h1m1 0h2m2 0h3m1 0h2M5 76.5h2m1 0h5m2 0h2m5 0h4m2 0h10m4 0h1m2 0h2m1 0h2m2 0h6m2 0h4m1 0h8m2 0h6m1 0h1m1 0h2m1 0h1m1 0h1m2 0h1m1 0h2m2 0h8m1 0h1M4 77.5h2m2 0h1m3 0h1m2 0h1m2 0h5m1 0h2m2 0h1m3 0h3m4 0h2m1 0h1m1 0h1m1 0h2m1 0h1m1 0h2m3 0h1m2 0h3m4 0h1m1 0h2m2 0h2m2 0h1m3 0h4m1 0h1m4 0h2m1 0h3m1 0h1m1 0h2m3 0h2m1 0h2M6 78.5h1m1 0h1m1 0h1m1 0h1m1 0h1m5 0h2m1 0h1m4 0h1m1 0h1m1 0h5m2 0h5m3 0h1m2 0h1m1 0h1m1 0h1m1 0h1m3 0h1m1 0h1m5 0h1m1 0h1m3 0h3m1 0h1m1 0h1m4 0h2m2 0h1m2 0h1m1 0h1m2 0h1m2 0h1m1 0h1m1 0h5M6 79.5h3m3 0h3m1 0h1m1 0h2m2 0h1m5 0h1m3 0h9m4 0h1m4 0h3m3 0h3m1 0h4m1 0h1m2 0h1m2 0h2m1 0h1m1 0h1m3 0h2m1 0h1m1 0h4m1 0h1m2 0h1m2 0h2m2 0h1m3 0h1m1 0h1m1 0h1M4 80.5h2m1 0h10m4 0h2m1 0h2m1 0h7m1 0h1m2 0h1m2 0h1m1 0h1m1 0h2m1 0h2m1 0h6m2 0h1m1 0h7m1 0h1m2 0h10m1 0h1m1 0h6m4 0h4m1 0h5m1 0h1m1 0h1M5 81.5h5m3 0h2m2 0h2m2 0h2m2 0h4m2 0h2m1 0h1m1 0h1m1 0h2m1 0h2m2 0h1m1 0h2m1 0h1m1 0h1m1 0h1m2 0h1m1 0h4m1 0h1m1 0h3m2 0h3m3 0h5m1 0h4m1 0h3m1 0h1m1 0h3m1 0h1m2 0h1m2 0h2M4 82.5h2m3 0h2m1 0h1m2 0h1m1 0h1m2 0h1m1 0h1m2 0h2m1 0h2m1 0h3m2 0h1m1 0h4m3 0h1m1 0h6m2 0h4m1 0h9m1 0h1m1 0h1m1 0h1m1 0h2m3 0h4m1 0h1m1 0h1m1 0h1m1 0h1m1 0h1m1 0h1m1 0h3m1 0h1m1 0h2m2 0h1M7 83.5h2m6 0h2m2 0h3m3 0h3m1 0h4m3 0h2m1 0h2m2 0h1m3 0h2m1 0h4m3 0h4m1 0h4m2 0h2m1 0h1m2 0h1m1 0h9m5 0h1m1 0h1m5 0h1m1 0h1m1 0h5M5 84.5h2m1 0h4m3 0h1m2 0h1m3 0h2m2 0h2m3 0h1m1 0h2m2 0h1m3 0h1m1 0h2m3 0h1m2 0h1m2 0h2m1 0h3m1 0h6m1 0h3m6 0h3m1 0h4m2 0h5m1 0h2m2 0h1m2 0h2m1 0h2m3 0h1M4 85.5h1m2 0h3m5 0h1m1 0h1m1 0h2m2 0h2m3 0h1m1 0h1m6 0h1m1 0h2m1 0h2m1 0h5m3 0h1m2 0h1m1 0h1m1 0h1m8 0h5m3 0h2m2 0h2m2 0h1m1 0h3m1 0h2m2 0h3m1 0h3m1 0h1m3 0h2M5 86.5h3m2 0h2m1 0h2m1 0h1m7 0h2m1 0h3m1 0h6m3 0h1m1 0h3m1 0h2m2 0h2m3 0h3m2 0h2m3 0h2m3 0h8m1 0h1m2 0h4m3 0h1m1 0h5m4 0h2m5 0h1M9 87.5h1m2 0h2m1 0h2m2 0h1m2 0h2m3 0h1m1 0h2m3 0h3m4 0h2m4 0h1m4 0h1m1 0h2m1 0h2m1 0h1m1 0h2m3 0h1m1 0h1m1 0h1m2 0h3m6 0h2m1 0h1m1 0h1m1 0h1m1 0h1m1 0h2m1 0h3m1 0h3m3 0h1M5 88.5h1m2 0h3m4 0h2m1 0h2m4 0h4m1 0h1m4 0h1m1 0h2m4 0h1m1 0h1m2 0h3m4 0h1m1 0h2m1 0h2m1 0h4m1 0h2m2 0h1m2 0h5m1 0h1m2 0h1m1 0h1m2 0h3m6 0h1m1 0h1m1 0h1m2 0h1m1 0h1m1 0h1M4 89.5h1m1 0h1m1 0h2m4 0h1m1 0h1m1 0h1m1 0h1m1 0h1m1 0h1m1 0h2m4 0h2m2 0h1m4 0h2m3 0h1m1 0h3m1 0h4m1 0h1m1 0h1m2 0h3m2 0h7m1 0h1m1 0h1m1 0h1m4 0h1m3 0h2m2 0h3m1 0h2m3 0h3m1 0h1M4 90.5h2m1 0h1m2 0h3m3 0h1m2 0h1m1 0h5m5 0h1m2 0h1m1 0h3m1 0h1m2 0h2m4 0h1m1 0h1m1 0h1m1 0h1m2 0h1m2 0h5m1 0h1m10 0h1m1 0h1m3 0h1m1 0h1m1 0h1m2 0h1m3 0h1m1 0h1m1 0h1m1 0h2m3 0h1m1 0h1M5 91.5h2m1 0h2m3 0h1m2 0h1m1 0h1m4 0h1m3 0h1m1 0h1m1 0h1m6 0h2m2 0h1m1 0h3m2 0h1m2 0h3m4 0h1m2 0h3m1 0h2m1 0h4m3 0h1m1 0h2m1 0h4m2 0h2m2 0h1m1 0h2m1 0h1m1 0h2m1 0h4m2 0h1M5 92.5h1m1 0h1m1 0h3m2 0h1m1 0h1m1 0h2m2 0h1m7 0h1m2 0h2m1 0h1m1 0h3m3 0h1m2 0h1m1 0h1m2 0h1m2 0h2m1 0h1m1 0h1m1 0h1m1 0h1m1 0h7m3 0h1m1 0h1m1 0h1m2 0h3m1 0h1m6 0h1m1 0h1m1 0h1m2 0h3m1 0h2M4 93.5h6m1 0h1m8 0h1m5 0h2m1 0h1m1 0h1m3 0h2m3 0h2m1 0h3m1 0h1m1 0h1m2 0h1m2 0h1m2 0h1m2 0h1m3 0h1m8 0h1m2 0h2m1 0h1m1 0h2m4 0h2m1 0h1m1 0h1m3 0h1m1 0h2m4 0h1M6 94.5h3m1 0h2m1 0h1m3 0h1m6 0h1m1 0h2m1 0h1m1 0h2m1 0h1m3 0h1m1 0h1m6 0h1m2 0h1m1 0h8m2 0h1m3 0h3m2 0h2m1 0h5m1 0h1m3 0h3m1 0h1m4 0h1m1 0h4m3 0h1m1 0h2m1 0h2M4 95.5h6m3 0h1m1 0h1m5 0h3m1 0h1m4 0h1m2 0h1m1 0h1m2 0h2m1 0h1m3 0h2m3 0h1m1 0h1m2 0h1m2 0h6m2 0h4m1 0h1m2 0h2m3 0h1m1 0h2m2 0h3m1 0h2m1 0h3m1 0h2m1 0h1m1 0h1m1 0h3M4 96.5h2m2 0h1m1 0h1m3 0h4m1 0h4m1 0h2m3 0h2m1 0h6m1 0h1m1 0h1m1 0h2m3 0h2m2 0h1m1 0h1m7 0h6m3 0h1m2 0h1m1 0h1m1 0h1m1 0h3m1 0h1m1 0h2m2 0h6m1 0h1m1 0h1m1 0h4m2 0h1M4 97.5h5m2 0h2m1 0h3m1 0h4m2 0h1m1 0h1m1 0h4m1 0h2m4 0h1m1 0h3m1 0h4m1 0h2m2 0h1m2 0h2m1 0h4m1 0h2m2 0h1m2 0h3m3 0h1m4 0h4m2 0h2m5 0h2m1 0h2m1 0h3m1 0h3M4 98.5h3m3 0h3m1 0h2m5 0h1m3 0h1m1 0h3m5 0h2m2 0h2m2 0h2m2 0h1m4 0h1m4 0h3m1 0h1m1 0h3m1 0h3m1 0h2m13 0h1m3 0h1m1 0h1m1 0h1m2 0h1m5 0h1m3 0h2M6 99.5h1m1 0h2m1 0h1m2 0h1m2 0h1m2 0h1m2 0h1m1 0h1m1 0h1m2 0h1m4 0h4m1 0h1m1 0h1m2 0h1m3 0h3m2 0h1m1 0h4m6 0h1m1 0h2m1 0h1m3 0h1m2 0h1m1 0h2m1 0h1m2 0h3m3 0h1m1 0h3m4 0h1m2 0h2m2 0h1M7 100.5h2m1 0h2m1 0h3m2 0h1m1 0h5m3 0h6m2 0h1m5 0h1m1 0h1m1 0h1m1 0h2m2 0h5m5 0h1m4 0h5m4 0h6m3 0h2m1 0h1m1 0h3m1 0h2m3 0h6m1 0h1m1 0h1M12 101.5h3m4 0h2m1 0h2m1 0h1m2 0h1m3 0h1m5 0h1m2 0h1m1 0h3m1 0h6m3 0h1m1 0h3m1 0h2m1 0h4m3 0h1m2 0h2m3 0h1m2 0h1m4 0h4m1 0h2m2 0h1m1 0h2m3 0h5M4 102.5h7m1 0h3m2 0h1m5 0h1m1 0h2m1 0h1m1 0h1m1 0h2m1 0h2m1 0h1m4 0h2m1 0h1m1 0h1m1 0h1m1 0h1m1 0h1m1 0h1m5 0h1m1 0h4m1 0h1m2 0h1m2 0h2m1 0h1m1 0h1m1 0h1m2 0h2m1 0h1m1 0h1m1 0h1m1 0h1m3 0h3m1 0h1m1 0h1M4 103.5h1m5 0h1m2 0h5m5 0h1m1 0h4m3 0h1m1 0h1m1 0h5m8 0h1m1 0h2m3 0h2m5 0h1m2 0h2m1 0h1m1 0h1m1 0h1m1 0h2m3 0h2m2 0h1m1 0h2m1 0h4m3 0h2m2 0h1m3 0h1m1 0h1m1 0h1M4 104.5h1m1 0h3m1 0h1m1 0h2m2 0h3m2 0h1m1 0h1m1 0h1m1 0h8m2 0h3m2 0h1m1 0h5m1 0h7m1 0h2m1 0h3m1 0h2m3 0h2m1 0h1m2 0h6m1 0h1m3 0h1m3 0h1m2 0h5m1 0h5m1 0h2M4 105.5h1m1 0h3m1 0h1m2 0h5m2 0h3m1 0h3m4 0h1m1 0h2m1 0h3m1 0h2m1 0h4m3 0h2m1 0h2m1 0h1m2 0h2m1 0h1m1 0h3m1 0h4m1 0h1m3 0h2m1 0h3m1 0h2m2 0h1m1 0h1m2 0h3m2 0h5m1 0h5M4 106.5h1m1 0h3m1 0h1m2 0h1m1 0h3m2 0h6m1 0h3m1 0h2m2 0h2m1 0h1m2 0h1m3 0h1m3 0h1m1 0h1m1 0h1m2 0h4m1 0h1m1 0h5m4 0h1m1 0h1m1 0h1m3 0h3m1 0h4m1 0h1m1 0h3m1 0h1m1 0h2m2 0h2m1 0h1m1 0h1M4 107.5h1m5 0h1m2 0h2m1 0h1m1 0h1m1 0h1m1 0h10m2 0h1m3 0h2m2 0h4m2 0h1m3 0h1m6 0h4m1 0h2m2 0h2m3 0h1m1 0h1m2 0h1m1 0h2m1 0h1m2 0h1m1 0h2m2 0h1m1 0h1m2 0h1m2 0h1m4 0h2M4 108.5h7m1 0h2m2 0h1m1 0h2m1 0h1m3 0h3m1 0h1m2 0h1m1 0h1m1 0h4m1 0h2m1 0h1m4 0h1m6 0h1m1 0h1m3 0h1m1 0h3m1 0h1m2 0h1m1 0h2m4 0h1m1 0h2m1 0h1m1 0h1m5 0h1m2 0h3m6 0h1m1 0h1m1 0h1"/></svg>
