<svg xmlns="http://www.w3.org/2000/svg" viewBox="0 0 109 109" shape-rendering="crispEdges"><path fill="#ffffff" d="M0 0h109v109H0z"/><path stroke="#000000" d="M4 4.5h7m1 0h1m1 0h1m1 0h7m1 0h2m4 0h1m4 0h1m1 0h4m1 0h1m2 0h4m6 0h1m5 0h1m2 0h2m3 0h2m1 0h1m6 0h3m3 0h2m3 0h1m1 0h4m2 0h7M4 5.5h1m5 0h1m1 0h6m1 0h1m1 0h1m1 0h2m4 0h4m3 0h1m1 0h1m1 0h3m3 0h4m1 0h3m2 0h1m2 0h2m3 0h5m1 0h1m2 0h1m2 0h2m1 0h1m4 0h5m2 0h1m1 0h1m4 0h1m5 0h1M4 6.5h1m1 0h3m1 0h1m1 0h1m1 0h3m3 0h1m3 0h1m1 0h5m1 0h1m1 0h1m1 0h1m1 0h3m2 0h1m5 0h2m2 0h2m2 0h1m1 0h4m3 0h2m4 0h3m3 0h2m1 0h1m1 0h10m2 0h1m2 0h1m1 0h3m1 0h1M4 7.5h1m1 0h3m1 0h1m1 0h1m2 0h4m1 0h1m1 0h2m1 0h2m2 0h3m1 0h1m1 0h4m2 0h1m1 0h2m1 0h5m2 0h3m2 0h1m1 0h1m1 0h1m1 0h3m1 0h1m1 0h4m3 0h3m2 0h4m2 0h3m2 0h3m2 0h1m1 0h3m1 0h1M4 8.5h1m1 0h3m1 0h1m2 0h2m3 0h7m3 0h7m2 0h1m1 0h2m3 0h2m3 0h1m1 0h6m2 0h1m2 0h2m1 0h1m2 0h1m2 0h8m2 0h3m6 0h2m2 0h1m1 0h1m1 0h1m1 0h3m1 0h1M4 9.5h1m5 0h1m1 0h1m2 0h1m4 0h2m1 0h6m1 0h1m3 0h2m2 0h5m1 0h1m2 0h3m2 0h1m3 0h1m1 0h7m3 0h1m1 0h2m1 0h2m3 0h1m3 0h1m5 0h3m1 0h1m2 0h1m2 0h1m5 0h1M4 10.5h7m1 0h1m1 0h1m1 0h1m1 0h1m1 0h1m1 0h1m1 0h1m1 0h1m1 0h1m1 0h1m1 0h1m1 0h1m1 0h1m1 0h1m1 0h1m1 0h1m1 0h1m1 0h1m1 0h1m1 0h1m1 0h1m1 0h1m1 0h1m1 0h1m1 0h1m1 0h1m1 0h1m1 0h1m1 0h1m1 0h1m1 0h1m1 0h1m1 0h1m1 0h1m1 0h1m1 0h1m1 0h1m1 0h1m1 0h1m1 0h1m1 0h1m1 0h1m1 0h1m1 0h7M15 11.5h1m3 0h1m8 0h3m3 0h1m1 0h1m1 0h4m4 0h2m1 0h2m1 0h1m3 0h2m2 0h6m1 0h3m1 0h2m1 0h1m3 0h1m2 0h1m2 0h1m1 0h6m2 0h1m1 0h1M4 12.5h2m2 0h3m3 0h1m1 0h1m4 0h2m5 0h7m1 0h1m1 0h3m2 0h6m2 0h7m2 0h2m1 0h2m4 0h2m1 0h1m1 0h6m1 0h1m1 0h1m1 0h1m1 0h5m3 0h1m3 0h1m1 0h4M5 13.5h3m1 0h1m1 0h1m2 0h2m1 0h1m4 0h4m1 0h1m1 0h1m4 0h1m1 0h1m1 0h7m3 0h1m2 0h2m1 0h2m1 0h3m4 0h5m3 0h1m1 0h3m1 0h1m3 0h1m1 0h1m1 0h2m4 0h1m1 0h3m2 0h2m1 0h1M4 14.5h1m1 0h2m1 0h3m1 0h1m1 0h3m3 0h1m1 0h2m1 0h5m2 0h1m3 0h2m2 0h2m1 0h1m1 0h1m2 0h3m3 0h2m2 0h1m1 0h3m1 0h1m3 0h1m2 0h2m1 0h1m1 0h1m2 0h1m1 0h3m1 0h1m1 0h2m2 0h3m1 0h1m2 0h2m2 0h1M4 15.5h3m4 0h1m2 0h2m1 0h1m1 0h1m2 0h2m1 0h1m3 0h1m3 0h1m2 0h3m1 0h1m1 0h1m3 0h5m7 0h2m2 0h1m2 0h2m4 0h1m4 0h1m3 0h1m1 0h1m2 0h3m2 0h4m1 0h1m1 0h2m1 0h1m3 0h1M5 16.5h1m2 0h1m1 0h1m2 0h1m4 0h2m1 0h1m3 0h1m3 0h3m2 0h1m5 0h2m2 0h1m1 0h4m2 0h1m1 0h1m3 0h4m4 0h2m4 0h3m7 0h2m1 0h1m6 0h1m3 0h1m1 0h3m1 0h1M4 17.5h1m2 0h1m4 0h1m1 0h3m1 0h1m2 0h1m1 0h2m2 0h2m1 0h1m2 0h1m1 0h2m2 0h1m1 0h1m3 0h2m3 0h1m1 0h3m2 0h7m1 0h2m1 0h1m1 0h2m6 0h5m7 0h3m4 0h2m1 0h3M4 18.5h3m1 0h6m2 0h1m2 0h2m2 0h1m5 0h7m1 0h1m1 0h3m1 0h1m1 0h3m1 0h1m2 0h3m1 0h5m1 0h2m1 0h1m1 0h1m4 0h2m2 0h1m1 0h2m3 0h4m2 0h1m1 0h3m2 0h2m3 0h4M13 19.5h1m3 0h1m2 0h3m2 0h3m2 0h2m3 0h1m1 0h3m4 0h1m3 0h1m1 0h3m1 0h2m1 0h1m1 0h2m1 0h2m2 0h1m1 0h4m2 0h7m2 0h2m1 0h1m1 0h1m1 0h1m1 0h4m3 0h1m1 0h1M5 20.5h1m4 0h1m3 0h4m1 0h2m2 0h6m2 0h1m1 0h4m1 0h1m2 0h1m4 0h3m1 0h2m1 0h1m2 0h2m1 0h1m1 0h3m2 0h4m2 0h5m1 0h2m1 0h1m1 0h2m1 0h3m1 0h2m4 0h1m2 0h3M5 21.5h4m3 0h1m2 0h6m2 0h2m1 0h1m1 0h4m1 0h1m3 0h1m1 0h2m2 0h1m2 0h1m2 0h2m4 0h1m1 0h5m1 0h1m6 0h2m1 0h2m1 0h3m1 0h2m1 0h1m2 0h1m8 0h3m3 0h3M4 22.5h1m3 0h1m1 0h1m2 0h1m2 0h1m3 0h3m12 0h3m2 0h2m1 0h5m4 0h1m3 0h2m1 0h3m1 0h1m4 0h2m1 0h1m4 0h4m1 0h3m1 0h1m6 0h1m3 0h5m1 0h3M4 23.5h1m1 0h1m2 0h1m3 0h2m6 0h1m3 0h5m1 0h2m5 0h1m1 0h1m1 0h2m2 0h3m1 0h4m2 0h1m1 0h4m2 0h2m1 0h1m3 0h2m1 0h4m2 0h11m1 0h1m1 0h1m1 0h2m6 0h1M4 24.5h1m1 0h1m1 0h1m1 0h1m1 0h4m1 0h3m1 0h1m2 0h5m1 0h1m1 0h1m3 0h5m1 0h2m1 0h2m2 0h1m5 0h1m2 0h1m6 0h2m2 0h3m2 0h3m1 0h1m4 0h1m6 0h1m3 0h3m2 0h2m2 0h1M7 25.5h1m1 0h1m2 0h6m2 0h3m1 0h3m2 0h1m1 0h2m3 0h2m1 0h2m2 0h1m2 0h3m1 0h1m3 0h2m2 0h1m4 0h1m1 0h1m4 0h3m5 0h1m4 0h1m2 0h1m1 0h1m3 0h2m4 0h2m1 0h2M4 26.5h1m2 0h4m1 0h1m2 0h2m6 0h1m6 0h1m1 0h1m5 0h2m1 0h1m2 0h2m4 0h1m1 0h4m4 0h2m2 0h3m1 0h1m1 0h1m5 0h1m1 0h1m1 0h2m1 0h2m2 0h1m3 0h2m1 0h1m3 0h1m1 0h2M5 27.5h2m1 0h2m1 0h5m1 0h1m1 0h8m3 0h5m4 0h2m2 0h1m2 0h2m1 0h10m4 0h8m1 0h1m2 0h2m3 0h1m3 0h6m3 0h1m1 0h2m1 0h1m1 0h2m1 0h1M4 28.5h1m2 0h1m1 0h2m1 0h2m2 0h1m1 0h2m2 0h2m1 0h2m1 0h1m2 0h1m1 0h4m1 0h2m1 0h2m3 0h1m1 0h1m1 0h1m3 0h1m1 0h1m2 0h1m2 0h1m1 0h1m1 0h1m1 0h1m1 0h1m1 0h2m1 0h3m1 0h4m1 0h1m5 0h1m2 0h5m3 0h1m1 0h2M4 29.5h4m5 0h3m2 0h1m1 0h1m1 0h4m1 0h3m3 0h2m3 0h1m2 0h4m1 0h1m7 0h1m1 0h1m2 0h1m1 0h1m3 0h4m2 0h2m1 0h1m3 0h8m1 0h2m1 0h2m4 0h2m1 0h4M8 30.5h5m1 0h2m5 0h1m3 0h1m4 0h5m3 0h2m2 0h1m2 0h1m2 0h1m1 0h7m3 0h3m4 0h4m1 0h7m1 0h1m1 0h1m1 0h2m2 0h5m3 0h6M4 31.5h2m2 0h1m3 0h10m2 0h1m1 0h2m1 0h2m3 0h1m1 0h1m1 0h3m2 0h3m1 0h2m3 0h1m3 0h1m1 0h1m1 0h1m2 0h1m1 0h2m1 0h1m1 0h1m1 0h3m3 0h1m2 0h1m1 0h2m1 0h4m3 0h4m3 0h1m1 0h1m1 0h1M4 32.5h2m2 0h1m1 0h1m1 0h1m2 0h1m2 0h2m1 0h1m1 0h2m2 0h1m2 0h1m1 0h1m1 0h3m3 0h1m1 0h1m5 0h5m1 0h1m1 0h3m1 0h1m1 0h1m1 0h2m1 0h1m1 0h2m3 0h1m1 0h1m1 0h1m2 0h1m4 0h3m1 0h1m1 0h1m1 0h3m1 0h1m1 0h1m1 0h2M8 33.5h1m3 0h4m2 0h1m5 0h7m3 0h1m1 0h1m3 0h1m2 0h3m1 0h3m1 0h2m3 0h1m2 0h2m1 0h3m4 0h4m1 0h1m3 0h1m1 0h2m1 0h2m3 0h5m2 0h2m3 0h5M4 34.5h1m1 0h1m1 0h8m2 0h2m2 0h1m2 0h13m1 0h1m3 0h5m1 0h1m1 0h8m1 0h5m1 0h5m3 0h6m1 0h2m1 0h2m1 0h1m4 0h1m1 0h8m1 0h2M4 35.5h1m1 0h1m1 0h1m3 0h1m2 0h2m2 0h2m2 0h1m1 0h1m2 0h2m1 0h1m5 0h1m1 0h2m2 0h1m1 0h1m1 0h1m1 0h2m1 0h1m3 0h1m2 0h1m1 0h1m2 0h1m6 0h4m4 0h3m1 0h1m1 0h1m2 0h1m1 0h2m1 0h1m2 0h2m3 0h1m2 0h1M5 36.5h1m1 0h7m4 0h1m1 0h1m7 0h3m3 0h2m2 0h1m3 0h2m1 0h4m1 0h1m1 0h1m1 0h3m1 0h1m1 0h1m1 0h1m2 0h4m1 0h1m3 0h1m1 0h1m1 0h2m1 0h3m1 0h1m2 0h2m1 0h2m2 0h4m2 0h1m1 0h2M5 37.5h1m1 0h3m4 0h1m1 0h2m5 0h1m1 0h1m1 0h1m1 0h1m3 0h1m2 0h1m3 0h1m2 0h1m1 0h3m1 0h2m1 0h3m1 0h1m2 0h1m2 0h3m3 0h3m2 0h3m1 0h1m1 0h1m4 0h2m5 0h1m8 0h1m2 0h2M4 38.5h2m1 0h1m2 0h2m2 0h2m1 0h1m5 0h2m1 0h2m2 0h1m2 0h1m2 0h1m4 0h1m1 0h1m4 0h1m1 0h1m2 0h1m1 0h1m1 0h1m4 0h7m1 0h1m2 0h2m1 0h2m1 0h2m1 0h2m2 0h2m2 0h2m1 0h4m1 0h1m2 0h2m1 0h1M4 39.5h2m1 0h2m5 0h1m2 0h2m1 0h3m1 0h1m3 0h1m7 0h1m1 0h2m1 0h1m1 0h1m1 0h2m1 0h1m3 0h2m1 0h1m4 0h3m2 0h1m1 0h3m1 0h2m1 0h2m6 0h2m1 0h1m3 0h1m4 0h1m2 0h2m5 0h1M4 40.5h1m2 0h2m1 0h2m1 0h2m2 0h3m2 0h1m1 0h3m2 0h2m3 0h3m2 0h5m3 0h3m1 0h2m2 0h2m3 0h2m1 0h3m2 0h1m4 0h1m1 0h1m3 0h2m2 0h2m2 0h1m2 0h1m1 0h2m1 0h3m1 0h1m1 0h1m2 0h1M5 41.5h1m1 0h1m5 0h1m5 0h3m1 0h4m1 0h1m2 0h3m3 0h4m3 0h1m1 0h2m6 0h1m1 0h1m1 0h2m2 0h7m2 0h2m1 0h1m1 0h1m1 0h1m1 0h1m1 0h3m1 0h3m1 0h2m1 0h2m1 0h1m1 0h1m3 0h2M4 42.5h1m3 0h3m8 0h1m1 0h1m3 0h5m2 0h1m1 0h2m1 0h1m2 0h2m1 0h1m1 0h1m2 0h3m5 0h2m2 0h3m5 0h4m1 0h2m4 0h4m3 0h1m3 0h1m2 0h2m1 0h2m2 0h1m1 0h1M4 43.5h2m1 0h2m5 0h2m1 0h5m1 0h2m6 0h3m2 0h2m2 0h1m1 0h3m1 0h1m2 0h3m1 0h1m1 0h2m1 0h3m1 0h1m1 0h1m3 0h1m4 0h3m1 0h2m3 0h1m2 0h1m2 0h3m1 0h2m2 0h2m1 0h6M4 44.5h3m3 0h2m1 0h2m1 0h2m1 0h1m5 0h1m4 0h1m2 0h1m1 0h1m1 0h2m1 0h2m2 0h1m1 0h3m1 0h1m2 0h2m1 0h3m1 0h1m1 0h5m1 0h2m3 0h2m1 0h2m3 0h2m1 0h2m1 0h1m2 0h2m3 0h3m1 0h1m1 0h1m2 0h1M9 45.5h1m1 0h2m4 0h1m1 0h1m1 0h3m1 0h2m1 0h1m2 0h1m2 0h3m1 0h3m1 0h3m1 0h1m5 0h1m1 0h1m2 0h3m1 0h2m4 0h1m1 0h2m3 0h7m1 0h6m1 0h1m3 0h1m1 0h1m1 0h1m4 0h1M8 46.5h3m2 0h1m2 0h2m3 0h1m3 0h1m5 0h1m3 0h2m1 0h1m2 0h2m1 0h2m3 0h1m1 0h1m1 0h1m2 0h1m1 0h2m3 0h1m1 0h2m1 0h1m2 0h2m2 0h3m1 0h1m1 0h8m2 0h1m1 0h1m1 0h2m3 0h1m2 0h1M4 47.5h2m1 0h3m4 0h2m1 0h1m1 0h1m4 0h1m1 0h2m2 0h5m2 0h2m3 0h3m3 0h1m1 0h1m3 0h1m1 0h1m3 0h4m1 0h2m3 0h1m1 0h1m4 0h1m1 0h1m2 0h2m1 0h6m1 0h3m1 0h1m1 0h2m3 0h1M4 48.5h3m1 0h3m1 0h1m1 0h1m4 0h1m3 0h1m2 0h1m1 0h1m8 0h1m2 0h4m1 0h3m1 0h1m2 0h2m2 0h5m1 0h1m1 0h4m1 0h2m1 0h2m6 0h1m1 0h2m1 0h2m3 0h5m2 0h1m1 0h1m2 0h1m1 0h1M7 49.5h1m5 0h1m1 0h1m1 0h1m1 0h1m1 0h7m2 0h4m2 0h1m6 0h1m2 0h2m2 0h2m1 0h1m2 0h1m3 0h1m2 0h2m4 0h4m2 0h1m4 0h1m3 0h2m3 0h1m2 0h5m1 0h2m1 0h1m2 0h1M4 50.5h3m1 0h3m2 0h2m6 0h1m1 0h1m1 0h3m5 0h4m2 0h2m1 0h1m2 0h1m2 0h7m4 0h1m1 0h2m1 0h1m1 0h1m1 0h1m2 0h1m1 0h1m4 0h1m2 0h1m2 0h1m1 0h2m1 0h1m2 0h1m1 0h1m1 0h1m2 0h1m3 0h2M4 51.5h1m4 0h1m1 0h1m3 0h3m1 0h1m1 0h1m2 0h3m1 0h2m2 0h1m1 0h1m1 0h2m4 0h1m1 0h2m4 0h1m2 0h3m2 0h1m1 0h1m3 0h1m1 0h2m1 0h2m3 0h1m4 0h1m2 0h1m1 0h3m4 0h1m7 0h1m1 0h1m1 0h2M6 52.5h8m1 0h1m1 0h1m2 0h1m2 0h1m6 0h5m3 0h3m2 0h4m1 0h2m1 0h7m1 0h1m3 0h2m3 0h2m2 0h1m1 0h5m1 0h1m1 0h6m4 0h1m2 0h7M5 53.5h1m1 0h2m3 0h4m1 0h1m2 0h2m1 0h3m1 0h1m1 0h2m3 0h2m1 0h1m2 0h2m2 0h3m1 0h2m2 0h1m3 0h1m3 0h1m2 0h1m3 0h1m2 0h3m1 0h1m3 0h1m1 0h1m1 0h1m2 0h2m1 0h1m3 0h1m1 0h3m3 0h1m1 0h3M4 54.5h5m1 0h1m1 0h3m1 0h2m2 0h2m3 0h3m2 0h1m1 0h1m1 0h1m2 0h2m1 0h2m2 0h3m1 0h2m2 0h1m1 0h1m1 0h1m1 0h1m1 0h1m2 0h1m1 0h2m1 0h1m3 0h1m1 0h1m1 0h1m1 0h1m7 0h4m2 0h1m3 0h1m1 0h1m1 0h2m1 0h1M4 55.5h5m3 0h1m3 0h4m6 0h3m1 0h1m3 0h3m7 0h2m1 0h3m2 0h1m3 0h2m2 0h2m1 0h1m4 0h2m2 0h3m3 0h2m6 0h4m2 0h1m1 0h3m3 0h3M6 56.5h8m1 0h3m2 0h1m2 0h2m1 0h1m3 0h5m1 0h1m3 0h1m1 0h1m1 0h3m3 0h1m1 0h5m1 0h4m1 0h1m2 0h1m1 0h1m5 0h6m2 0h2m2 0h2m1 0h1m3 0h1m2 0h6M4 57.5h1m2 0h3m1 0h1m1 0h1m3 0h2m1 0h2m1 0h2m2 0h1m1 0h2m1 0h1m1 0h2m1 0h1m1 0h5m1 0h2m3 0h1m2 0h1m1 0h3m3 0h2m5 0h1m1 0h1m1 0h1m2 0h2m1 0h1m3 0h2m1 0h2m2 0h3m2 0h3m2 0h1m1 0h1M8 58.5h1m1 0h2m2 0h1m1 0h1m3 0h1m1 0h1m2 0h1m1 0h3m2 0h2m4 0h3m1 0h3m5 0h1m3 0h1m1 0h1m1 0h1m2 0h4m1 0h1m1 0h2m1 0h2m1 0h1m1 0h1m3 0h1m1 0h2m2 0h2m1 0h6m4 0h2m3 0h1M4 59.5h4m3 0h1m1 0h3m1 0h1m1 0h3m2 0h1m1 0h5m4 0h1m2 0h2m1 0h1m2 0h1m2 0h1m4 0h5m5 0h2m2 0h1m1 0h2m4 0h2m2 0h2m1 0h1m1 0h1m4 0h1m4 0h1m7 0h3M5 60.5h3m1 0h2m1 0h2m2 0h1m2 0h3m2 0h1m1 0h4m1 0h1m2 0h2m2 0h1m1 0h5m1 0h1m1 0h4m1 0h1m1 0h6m1 0h1m1 0h1m3 0h1m3 0h1m1 0h2m4 0h2m2 0h1m1 0h3m1 0h1m2 0h1m1 0h1m5 0h4M6 61.5h1m1 0h2m2 0h1m4 0h1m2 0h1m1 0h1m1 0h2m2 0h2m3 0h1m2 0h3m1 0h1m1 0h1m1 0h2m4 0h1m1 0h1m1 0h1m1 0h1m2 0h1m4 0h1m3 0h1m2 0h3m5 0h1m2 0h1m1 0h3m1 0h1m1 0h2m1 0h1m4 0h1m3 0h3M5 62.5h1m1 0h1m1 0h2m1 0h1m2 0h4m1 0h1m1 0h5m4 0h3m1 0h5m1 0h2m2 0h2m3 0h1m5 0h6m1 0h1m3 0h2m1 0h2m1 0h2m1 0h1m2 0h4m1 0h1m1 0h4m2 0h4m4 0h1m2 0h2M4 63.5h2m2 0h2m4 0h1m6 0h3m2 0h3m2 0h1m1 0h1m1 0h2m1 0h1m1 0h5m1 0h1m2 0h1m1 0h1m2 0h1m3 0h1m1 0h1m1 0h1m3 0h1m1 0h1m2 0h1m8 0h2m1 0h1m1 0h2m1 0h4m1 0h1m1 0h2m1 0h1m2 0h4M4 64.5h7m1 0h1m1 0h1m1 0h1m6 0h7m1 0h1m1 0h3m4 0h1m1 0h1m1 0h1m1 0h5m3 0h2m2 0h1m1 0h2m4 0h1m1 0h3m2 0h1m2 0h2m1 0h1m2 0h2m1 0h2m1 0h1m8 0h1m6 0h1M4 65.5h1m2 0h3m1 0h1m1 0h4m1 0h2m2 0h1m3 0h3m2 0h1m4 0h2m3 0h2m1 0h2m5 0h1m1 0h1m3 0h1m1 0h1m1 0h3m1 0h2m3 0h3m2 0h1m1 0h1m2 0h1m1 0h3m2 0h2m1 0h1m1 0h1m2 0h1m1 0h1m1 0h2m1 0h2M5 66.5h1m4 0h2m1 0h1m4 0h1m6 0h3m1 0h2m4 0h4m1 0h4m2 0h1m1 0h2m4 0h5m2 0h1m6 0h1m1 0h1m2 0h3m1 0h1m1 0h4m3 0h2m4 0h3m1 0h1m1 0h4M4 67.5h6m1 0h2m2 0h1m1 0h2m1 0h2m2 0h1m1 0h1m2 0h1m1 0h4m2 0h1m1 0h1m4 0h3m2 0h3m1 0h4m2 0h3m6 0h5m1 0h2m2 0h1m1 0h2m2 0h1m1 0h1m3 0h1m6 0h3m1 0h1m2 0h1M8 68.5h3m4 0h1m4 0h2m2 0h2m2 0h2m3 0h5m1 0h2m1 0h2m1 0h4m2 0h7m1 0h2m3 0h3m2 0h2m3 0h1m1 0h3m3 0h2m1 0h1m2 0h1m1 0h2m1 0h1m1 0h1m1 0h2m1 0h1m1 0h3M8 69.5h2m2 0h2m1 0h2m1 0h2m1 0h1m1 0h3m2 0h1m2 0h2m1 0h1m3 0h2m1 0h1m3 0h4m1 0h1m2 0h2m1 0h2m1 0h1m2 0h1m3 0h2m6 0h2m1 0h1m1 0h2m1 0h1m1 0h4m1 0h1m1 0h1m1 0h2m1 0h1m1 0h3M6 70.5h3m1 0h2m2 0h1m3 0h1m2 0h3m1 0h2m3 0h2m1 0h1m1 0h2m1 0h5m1 0h3m2 0h3m2 0h5m2 0h3m1 0h1m3 0h4m1 0h1m1 0h1m3 0h4m1 0h2m3 0h3m4 0h5m1 0h2M6 71.5h1m2 0h1m2 0h1m1 0h1m2 0h1m1 0h1m4 0h1m1 0h3m4 0h2m1 0h1m2 0h1m2 0h1m2 0h1m1 0h1m1 0h1m1 0h2m2 0h2m2 0h2m6 0h2m1 0h1m3 0h1m1 0h1m2 0h4m1 0h5m1 0h2m1 0h1m2 0h1m1 0h2m3 0h2M4 72.5h1m1 0h2m1 0h3m2 0h3m1 0h2m1 0h2m1 0h3m3 0h3m2 0h1m4 0h4m1 0h1m1 0h2m1 0h4m1 0h2m2 0h3m1 0h3m2 0h1m1 0h3m2 0h1m2 0h4m1 0h2m1 0h1m3 0h1m3 0h1m1 0h1m1 0h2M4 73.5h1m1 0h3m2 0h2m2 0h1m1 0h4m1 0h1m1 0h1m2 0h1m1 0h1m3 0h3m1 0h1m10 0h1m6 0h3m3 0h1m6 0h1m3 0h1m3 0h3m1 0h3m1 0h2m1 0h3m5 0h3m2 0h5M4 74.5h1m2 0h8m1 0h2m3 0h2m2 0h1m2 0h1m1 0h8m2 0h8m2 0h1m1 0h6m2 0h3m1 0h5m2 0h1m1 0h6m2 0h1m1 0h1m1 0h2m4 0h1m1 0h1m1 0h6m1 0h2M7 75.5h2m3 0h2m4 0h1m1 0h1m2 0h3m2 0h3m3 0h1m3 0h1m1 0h1m1 0h4m2 0h5m3 0h2m2 0h1m1 0h3m1 0h4m2 0h3m3 0h2m2 0h3m4 0h1m2 0h2m1 0h2m3 0h5M4 76.5h2m2 0h1m1 0h1m1 0h3m2 0h2m1 0h1m1 0h2m2 0h1m2 0h2m1 0h1m1 0h1m1 0h2m1 0h2m1 0h1m1 0h3m1 0h2m2 0h1m1 0h1m1 0h2m6 0h1m1 0h2m1 0h3m1 0h2m1 0h1m1 0h3m5 0h4m1 0h1m1 0h2m1 0h1m1 0h1m1 0h2m2 0h1M7 77.5h2m3 0h1m2 0h1m2 0h1m3 0h3m5 0h1m3 0h2m4 0h2m1 0h1m1 0h3m2 0h1m1 0h1m3 0h3m1 0h2m1 0h1m1 0h1m1 0h2m1 0h1m1 0h3m3 0h1m2 0h1m1 0h2m1 0h1m3 0h2m1 0h1m2 0h1m3 0h2m1 0h2M4 78.5h9m2 0h1m2 0h1m4 0h2m3 0h1m1 0h5m1 0h7m1 0h2m1 0h1m2 0h7m1 0h1m1 0h1m1 0h3m2 0h1m1 0h2m1 0h7m3 0h1m2 0h1m2 0h1m4 0h1m1 0h6m2 0h1M5 79.5h3m3 0h2m1 0h2m2 0h1m1 0h1m1 0h1m2 0h1m1 0h2m1 0h1m2 0h3m2 0h2m2 0h3m1 0h3m1 0h1m2 0h2m4 0h1m1 0h7m2 0h4m1 0h1m1 0h1m1 0h1m1 0h1m1 0h1m1 0h1m2 0h3m5 0h5m2 0h1M5 80.5h2m1 0h1m1 0h1m1 0h2m3 0h1m2 0h2m1 0h2m2 0h3m3 0h1m1 0h1m4 0h1m1 0h2m1 0h1m2 0h1m1 0h1m1 0h1m1 0h1m1 0h1m2 0h4m2 0h2m2 0h1m1 0h1m2 0h1m2 0h1m3 0h2m3 0h1m1 0h1m1 0h2m3 0h1m2 0h1m1 0h5M5 81.5h1m1 0h2m3 0h3m2 0h2m1 0h1m4 0h1m3 0h1m4 0h1m4 0h2m2 0h1m1 0h1m1 0h1m1 0h1m1 0h1m1 0h1m3 0h2m4 0h2m2 0h3m2 0h3m1 0h1m1 0h3m1 0h1m1 0h1m1 0h2m1 0h2m1 0h2m1 0h3m2 0h3m1 0h1M10 82.5h1m3 0h2m2 0h4m7 0h1m2 0h1m2 0h2m2 0h1m2 0h2m1 0h2m1 0h1m4 0h2m1 0h2m1 0h1m1 0h1m1 0h1m2 0h2m5 0h3m1 0h1m1 0h1m1 0h8m3 0h1m1 0h4m3 0h4M5 83.5h1m2 0h2m1 0h3m2 0h3m3 0h6m2 0h9m6 0h2m3 0h1m1 0h3m1 0h1m1 0h2m1 0h5m1 0h1m1 0h1m1 0h1m4 0h4m1 0h2m3 0h6m2 0h2m7 0h2M5 84.5h1m1 0h1m1 0h4m1 0h1m1 0h1m1 0h2m2 0h2m1 0h4m2 0h1m3 0h1m4 0h3m1 0h1m1 0h4m2 0h1m1 0h1m1 0h1m1 0h2m3 0h1m2 0h1m1 0h2m1 0h3m3 0h1m1 0h1m1 0h1m2 0h2m1 0h1m2 0h2m1 0h1m9 0h1M6 85.5h4m1 0h1m1 0h2m1 0h1m4 0h3m2 0h1m1 0h1m2 0h1m1 0h1m1 0h1m1 0h4m1 0h1m2 0h4m4 0h5m1 0h1m1 0h2m1 0h4m2 0h1m1 0h3m1 0h2m1 0h1m1 0h1m1 0h1m2 0h1m2 0h1m1 0h1m3 0h1m1 0h1m2 0h5M5 86.5h1m1 0h2m1 0h2m2 0h2m2 0h6m3 0h1m1 0h3m3 0h1m1 0h2m2 0h1m1 0h2m7 0h1m6 0h1m1 0h1m2 0h1m1 0h2m2 0h1m1 0h2m1 0h1m1 0h1m2 0h1m1 0h2m2 0h3m5 0h1m1 0h1m2 0h1m1 0h4M4 87.5h1m2 0h1m3 0h7m3 0h3m1 0h2m2 0h3m1 0h1m1 0h1m2 0h3m2 0h1m2 0h1m2 0h2m2 0h1m1 0h3m2 0h2m1 0h1m1 0h5m1 0h1m3 0h4m2 0h3m5 0h1m1 0h1m1 0h8M4 88.5h3m1 0h3m1 0h1m1 0h2m3 0h2m1 0h1m2 0h4m1 0h1m1 0h1m1 0h2m1 0h5m1 0h1m10 0h1m1 0h1m2 0h15m1 0h1m1 0h1m2 0h1m2 0h4m1 0h2m2 0h1m1 0h1m1 0h1m4 0h1m1 0h1M4 89.5h1m1 0h1m2 0h1m1 0h2m1 0h3m1 0h1m4 0h1m1 0h1m6 0h2m1 0h1m1 0h1m3 0h1m1 0h3m1 0h1m2 0h1m1 0h1m3 0h1m1 0h3m1 0h1m8 0h1m3 0h1m1 0h3m4 0h1m3 0h1m2 0h1m2 0h1m1 0h1m1 0h1m1 0h2m1 0h1M9 90.5h3m8 0h4m3 0h4m1 0h1m2 0h4m5 0h3m2 0h1m1 0h1m5 0h1m3 0h2m2 0h1m2 0h2m1 0h3m1 0h1m1 0h1m1 0h1m2 0h1m1 0h3m3 0h6m1 0h4m3 0h1M4 91.5h2m5 0h2m2 0h3m1 0h1m1 0h2m2 0h5m2 0h2m4 0h1m1 0h1m1 0h3m4 0h2m1 0h1m1 0h2m1 0h1m4 0h1m3 0h1m2 0h3m1 0h1m1 0h1m1 0h1m2 0h1m3 0h1m1 0h2m2 0h2m1 0h2m1 0h2m1 0h2m3 0h1M4 92.5h7m1 0h2m2 0h1m1 0h2m1 0h1m1 0h2m1 0h1m1 0h2m2 0h3m1 0h2m1 0h3m1 0h1m4 0h2m2 0h1m4 0h6m1 0h1m4 0h1m1 0h2m2 0h1m4 0h1m7 0h4m1 0h4m2 0h1m2 0h1m1 0h1M4 93.5h3m1 0h1m11 0h2m4 0h3m1 0h2m2 0h1m2 0h1m1 0h2m3 0h3m2 0h2m1 0h3m1 0h1m1 0h2m1 0h3m4 0h1m1 0h1m1 0h2m2 0h2m1 0h7m1 0h3m2 0h2m3 0h5M4 94.5h1m2 0h2m1 0h1m1 0h2m2 0h1m1 0h1m2 0h1m2 0h2m2 0h1m8 0h4m3 0h3m4 0h2m1 0h2m1 0h1m2 0h5m1 0h1m2 0h1m1 0h1m1 0h2m4 0h1m5 0h3m1 0h1m1 0h2m1 0h1m1 0h3m3 0h1m1 0h1M4 95.5h1m1 0h2m1 0h1m1 0h1m4 0h1m2 0h3m2 0h4m1 0h1m1 0h5m2 0h1m2 0h1m3 0h2m3 0h4m2 0h5m1 0h1m2 0h1m1 0h4m1 0h1m3 0h5m3 0h1m1 0h4m4 0h1m1 0h2m1 0h1m2 0h1M8 96.5h1m1 0h1m4 0h2m4 0h3m3 0h1m1 0h6m1 0h2m3 0h2m1 0h2m1 0h2m2 0h7m3 0h1m1 0h1m2 0h1m1 0h2m3 0h6m4 0h2m1 0h5m1 0h11M12 97.5h1m3 0h1m3 0h1m1 0h3m1 0h1m1 0h3m3 0h3m1 0h6m2 0h1m2 0h4m3 0h7m2 0h1m1 0h3m2 0h3m3 0h2m1 0h8m1 0h1m1 0h1m3 0h1m3 0h5M4 98.5h7m2 0h2m1 0h3m2 0h1m1 0h4m2 0h2m1 0h1m1 0h1m1 0h1m1 0h8m1 0h2m2 0h2m1 0h1m1 0h1m3 0h1m2 0h1m2 0h1m1 0h4m1 0h2m1 0h1m1 0h1m2 0h4m4 0h2m1 0h1m2 0h2m1 0h1m1 0h1m2 0h1M4 99.5h1m5 0h1m1 0h1m2 0h1m1 0h1m1 0h2m1 0h1m1 0h1m2 0h1m1 0h2m3 0h2m11 0h1m1 0h1m1 0h2m3 0h1m3 0h1m1 0h2m3 0h1m6 0h1m3 0h5m1 0h1m1 0h1m1 0h1m5 0h3m3 0h5M4 100.5h1m1 0h3m1 0h1m1 0h6m1 0h1m1 0h1m1 0h1m4 0h8m7 0h1m1 0h2m2 0h8m4 0h2m1 0h1m1 0h1m1 0h1m2 0h8m1 0h1m6 0h3m1 0h1m1 0h8m1 0h2M4 101.5h1m1 0h3m1 0h1m2 0h1m1 0h1m1 0h1m1 0h2m2 0h3m2 0h2m2 0h1m1 0h2m2 0h1m1 0h1m3 0h5m6 0h2m2 0h6m4 0h1m2 0h1m2 0h1m1 0h3m1 0h1m1 0h5m2 0h1m3 0h3m3 0h3M4 102.5h1m1 0h3m1 0h1m2 0h3m2 0h6m1 0h2m2 0h1m1 0h1m1 0h3m1 0h1m1 0h1m2 0h1m1 0h5m1 0h1m6 0h2m2 0h3m1 0h1m1 0h2m1 0h1m2 0h2m1 0h2m1 0h1m1 0h3m2 0h2m1 0h1m1 0h1m3 0h1m3 0h3m1 0h2M4 103.5h1m5 0h1m1 0h3m1 0h2m1 0h6m1 0h3m1 0h1m2 0h2m1 0h1m1 0h1m1 0h2m1 0h1m2 0h1m2 0h2m2 0h1m1 0h2m1 0h2m1 0h3m4 0h2m2 0h2m2 0h1m2 0h1m1 0h1m1 0h1m1 0h1m3 0h1m2 0h4m3 0h1m1 0h1m1 0h2M4 104.5h7m1 0h1m5 0h2m1 0h1m1 0h1m1 0h1m1 0h1m3 0h2m2 0h7m1 0h1m1 0h1m1 0h2m1 0h10m8 0h2m1 0h3m1 0h4m1 0h1m3 0h1m1 0h2m1 0h1m1 0h1m2 0h3m4 0h1m1 0h1"/></svg>
