<svg xmlns="http://www.w3.org/2000/svg" viewBox="0 0 113 113" shape-rendering="crispEdges"><path fill="#ffffff" d="M0 0h113v113H0z"/><path stroke="#000000" d="M4 4.5h7m2 0h6m1 0h3m1 0h1m1 0h1m4 0h1m2 0h1m1 0h1m1 0h2m1 0h2m2 0h2m3 0h1m2 0h1m2 0h1m1 0h1m5 0h1m1 0h1m1 0h3m3 0h2m2 0h1m2 0h1m6 0h2m1 0h1m4 0h1m1 0h1m3 0h7M4 5.5h1m5 0h1m5 0h1m2 0h2m2 0h1m1 0h8m1 0h3m2 0h3m4 0h2m1 0h3m2 0h1m1 0h1m4 0h1m1 0h2m5 0h3m1 0h1m7 0h2m1 0h4m2 0h1m2 0h1m2 0h2m3 0h1m5 0h1M4 6.5h1m1 0h3m1 0h1m1 0h5m2 0h4m2 0h1m4 0h4m1 0h1m1 0h1m4 0h7m1 0h1m4 0h1m3 0h2m3 0h1m1 0h1m2 0h2m2 0h4m2 0h1m1 0h1m1 0h1m10 0h1m1 0h4m2 0h1m1 0h3m1 0h1M4 7.5h1m1 0h3m1 0h1m1 0h1m3 0h1m1 0h1m1 0h2m2 0h1m3 0h1m4 0h1m1 0h3m1 0h2m2 0h2m1 0h1m3 0h9m1 0h7m1 0h1m2 0h9m2 0h2m1 0h2m2 0h3m3 0h1m4 0h1m1 0h1m1 0h3m1 0h1M4 8.5h1m1 0h3m1 0h1m1 0h5m1 0h3m4 0h2m1 0h9m1 0h1m1 0h2m1 0h1m1 0h4m1 0h1m1 0h9m3 0h1m1 0h4m1 0h1m1 0h1m2 0h7m3 0h3m3 0h2m5 0h2m1 0h1m1 0h3m1 0h1M4 9.5h1m5 0h1m1 0h1m1 0h1m4 0h2m3 0h2m1 0h2m3 0h1m1 0h1m1 0h3m1 0h3m7 0h3m3 0h1m1 0h1m3 0h1m1 0h3m4 0h2m1 0h1m1 0h1m3 0h1m2 0h1m1 0h5m2 0h2m1 0h1m1 0h1m1 0h1m2 0h1m5 0h1M4 10.5h7m1 0h1m1 0h1m1 0h1m1 0h1m1 0h1m1 0h1m1 0h1m1 0h1m1 0h1m1 0h1m1 0h1m1 0h1m1 0h1m1 0h1m1 0h1m1 0h1m1 0h1m1 0h1m1 0h1m1 0h1m1 0h1m1 0h1m1 0h1m1 0h1m1 0h1m1 0h1m1 0h1m1 0h1m1 0h1m1 0h1m1 0h1m1 0h1m1 0h1m1 0h1m1 0h1m1 0h1m1 0h1m1 0h1m1 0h1m1 0h1m1 0h1m1 0h1m1 0h1m1 0h1m1 0h1m1 0h7M12 11.5h4m1 0h3m5 0h1m1 0h2m3 0h1m1 0h1m1 0h3m1 0h1m1 0h1m1 0h1m1 0h2m2 0h3m3 0h1m1 0h3m6 0h1m2 0h2m1 0h1m2 0h1m3 0h1m2 0h2m2 0h2m1 0h1m1 0h2m1 0h2M4 12.5h1m1 0h5m3 0h2m2 0h2m1 0h1m1 0h3m1 0h7m2 0h3m1 0h1m4 0h1m3 0h1m1 0h8m1 0h2m1 0h1m1 0h1m1 0h2m1 0h2m4 0h5m3 0h1m6 0h2m1 0h1m3 0h2m2 0h5M8 13.5h1m6 0h1m2 0h1m1 0h5m2 0h1m3 0h1m2 0h4m1 0h1m1 0h2m1 0h2m1 0h1m2 0h2m1 0h3m2 0h3m3 0h1m1 0h1m2 0h3m4 0h1m1 0h7m1 0h2m5 0h2m2 0h1m3 0h8M7 14.5h1m1 0h2m1 0h3m1 0h1m3 0h1m1 0h6m1 0h5m1 0h1m3 0h2m3 0h2m1 0h1m4 0h3m1 0h1m2 0h1m3 0h1m2 0h1m1 0h1m1 0h1m1 0h2m1 0h1m2 0h1m6 0h1m2 0h1m2 0h1m2 0h3m1 0h3m1 0h1m3 0h3M4 15.5h3m1 0h2m1 0h3m2 0h3m2 0h1m2 0h4m4 0h1m1 0h4m2 0h1m2 0h1m3 0h1m2 0h1m1 0h1m2 0h2m1 0h1m2 0h3m1 0h2m2 0h3m2 0h3m3 0h1m3 0h1m1 0h1m5 0h2m1 0h2m1 0h5m5 0h1M4 16.5h3m1 0h3m2 0h4m3 0h1m1 0h2m2 0h1m3 0h2m3 0h1m2 0h1m1 0h1m2 0h1m2 0h1m1 0h2m1 0h2m1 0h1m1 0h1m1 0h1m1 0h2m3 0h1m1 0h1m1 0h2m3 0h1m1 0h1m1 0h5m1 0h1m1 0h2m2 0h3m2 0h1m1 0h3m3 0h1m1 0h3M15 17.5h2m3 0h1m1 0h1m1 0h2m5 0h3m1 0h1m1 0h6m3 0h2m1 0h2m1 0h1m1 0h1m3 0h5m3 0h1m1 0h1m1 0h2m1 0h3m1 0h1m4 0h1m2 0h2m1 0h3m7 0h2m1 0h1m2 0h2m1 0h1M4 18.5h1m1 0h2m1 0h2m1 0h3m1 0h1m3 0h5m3 0h1m1 0h1m3 0h4m1 0h1m3 0h1m6 0h5m1 0h1m1 0h1m1 0h2m3 0h3m1 0h2m3 0h2m1 0h1m1 0h1m1 0h1m6 0h2m3 0h1m2 0h4m1 0h1m5 0h1M4 19.5h2m2 0h2m8 0h1m3 0h2m2 0h2m3 0h3m1 0h1m1 0h1m2 0h6m3 0h1m1 0h3m2 0h4m3 0h2m1 0h1m1 0h1m3 0h2m1 0h6m1 0h3m6 0h3m2 0h2m1 0h1m3 0h1m2 0h2M5 20.5h2m1 0h3m1 0h2m1 0h3m2 0h2m1 0h2m1 0h1m3 0h2m1 0h5m2 0h1m1 0h1m3 0h1m1 0h2m1 0h1m3 0h2m1 0h1m1 0h1m1 0h1m3 0h2m2 0h1m3 0h3m1 0h4m1 0h1m1 0h2m3 0h2m1 0h1m4 0h1m2 0h1m1 0h1m1 0h2m1 0h1M4 21.5h2m1 0h3m3 0h4m1 0h3m1 0h1m2 0h1m1 0h1m3 0h2m2 0h2m1 0h1m2 0h2m1 0h1m1 0h1m1 0h1m1 0h1m2 0h1m1 0h2m1 0h1m2 0h1m2 0h2m2 0h3m4 0h2m4 0h3m2 0h1m2 0h1m1 0h2m3 0h1m3 0h2m1 0h1m2 0h3M4 22.5h4m1 0h2m3 0h1m1 0h1m5 0h2m3 0h1m3 0h6m1 0h2m4 0h1m1 0h1m1 0h2m2 0h1m2 0h1m1 0h2m1 0h3m2 0h2m1 0h1m1 0h1m1 0h2m1 0h1m1 0h1m1 0h1m4 0h4m2 0h2m4 0h3m1 0h4m1 0h3M4 23.5h1m4 0h1m1 0h1m3 0h1m1 0h1m1 0h4m4 0h1m1 0h1m1 0h3m1 0h3m1 0h2m1 0h1m1 0h1m1 0h1m1 0h1m1 0h4m1 0h1m2 0h4m1 0h2m2 0h3m4 0h1m1 0h1m1 0h1m1 0h5m3 0h1m1 0h6m1 0h2m1 0h1m3 0h1m1 0h2M4 24.5h2m1 0h1m1 0h3m2 0h1m4 0h2m1 0h1m1 0h1m1 0h1m4 0h2m3 0h4m5 0h3m3 0h2m3 0h1m1 0h4m2 0h1m1 0h2m1 0h2m1 0h1m1 0h1m1 0h1m1 0h2m5 0h1m4 0h4m1 0h1m3 0h3m1 0h1m3 0h2M4 25.5h6m1 0h2m3 0h1m1 0h1m2 0h3m3 0h5m1 0h1m4 0h1m1 0h1m1 0h1m1 0h1m1 0h2m1 0h2m1 0h2m1 0h1m1 0h3m1 0h1m3 0h1m2 0h1m1 0h2m1 0h1m3 0h2m1 0h1m3 0h1m1 0h2m4 0h1m2 0h1m1 0h1m4 0h2m1 0h1M6 26.5h1m1 0h1m1 0h1m8 0h1m7 0h1m1 0h1m1 0h3m1 0h4m2 0h2m6 0h1m1 0h2m2 0h3m2 0h2m1 0h1m2 0h6m3 0h1m2 0h1m2 0h2m1 0h2m3 0h1m3 0h3m2 0h1m1 0h1m1 0h1m2 0h1m2 0h1M6 27.5h2m1 0h1m1 0h1m2 0h1m1 0h1m2 0h1m2 0h1m1 0h1m3 0h1m1 0h1m3 0h4m4 0h3m1 0h5m1 0h2m2 0h2m1 0h1m1 0h1m3 0h7m1 0h1m1 0h1m1 0h3m1 0h1m1 0h1m1 0h3m6 0h1m1 0h2m2 0h1m1 0h1m2 0h2m1 0h1M4 28.5h1m3 0h5m3 0h1m1 0h2m1 0h1m5 0h6m1 0h1m1 0h1m4 0h3m4 0h1m1 0h7m1 0h1m7 0h2m2 0h1m4 0h6m1 0h1m1 0h5m4 0h2m1 0h3m1 0h5m1 0h1M5 29.5h1m2 0h1m3 0h2m1 0h1m1 0h3m2 0h2m1 0h2m1 0h1m3 0h1m1 0h1m1 0h4m1 0h3m3 0h2m3 0h1m3 0h1m1 0h2m1 0h2m6 0h5m2 0h1m3 0h2m1 0h1m7 0h4m2 0h2m1 0h1m3 0h1m2 0h2M4 30.5h1m1 0h3m1 0h1m1 0h3m5 0h2m5 0h2m1 0h1m1 0h1m2 0h2m1 0h4m2 0h2m3 0h2m1 0h1m1 0h1m1 0h1m3 0h1m2 0h2m2 0h1m2 0h1m2 0h2m1 0h1m1 0h1m1 0h1m1 0h1m2 0h1m1 0h3m3 0h3m3 0h2m1 0h1m1 0h5M4 31.5h3m1 0h1m3 0h3m1 0h7m1 0h1m3 0h1m3 0h1m1 0h1m2 0h3m1 0h2m2 0h4m3 0h1m3 0h2m1 0h2m1 0h4m1 0h1m1 0h4m3 0h1m3 0h1m1 0h1m2 0h1m1 0h1m1 0h2m1 0h1m4 0h1m1 0h2m3 0h3m1 0h1M5 32.5h1m1 0h7m3 0h1m2 0h5m2 0h6m6 0h1m1 0h2m1 0h1m1 0h1m1 0h2m1 0h7m1 0h1m1 0h2m2 0h2m1 0h2m1 0h1m1 0h2m1 0h5m1 0h1m1 0h2m1 0h2m6 0h1m1 0h1m1 0h6m2 0h1M5 33.5h2m2 0h1m2 0h3m5 0h1m2 0h1m1 0h2m4 0h2m1 0h2m3 0h1m1 0h1m1 0h2m1 0h4m2 0h1m2 0h2m3 0h3m1 0h1m2 0h5m1 0h1m2 0h2m3 0h3m2 0h1m1 0h2m3 0h1m3 0h2m2 0h3m1 0h1m1 0h2M4 34.5h3m2 0h3m1 0h1m7 0h4m1 0h1m3 0h3m2 0h3m2 0h1m1 0h1m1 0h1m1 0h2m1 0h2m1 0h1m4 0h8m5 0h2m3 0h1m1 0h1m1 0h1m2 0h1m3 0h1m1 0h2m1 0h1m2 0h1m1 0h5m3 0h1m1 0h1M5 35.5h1m7 0h5m3 0h1m1 0h1m2 0h4m1 0h2m1 0h1m2 0h5m1 0h1m2 0h3m5 0h4m2 0h2m4 0h3m1 0h3m2 0h3m1 0h4m4 0h1m1 0h2m1 0h1m1 0h1m2 0h2m2 0h1m1 0h1m3 0h1M4 36.5h1m1 0h2m1 0h2m2 0h1m2 0h1m3 0h1m4 0h1m2 0h2m1 0h1m1 0h1m3 0h3m1 0h4m3 0h1m3 0h2m3 0h1m3 0h1m2 0h2m1 0h2m2 0h1m4 0h1m1 0h1m4 0h1m2 0h1m3 0h3m1 0h1m2 0h3m1 0h2m1 0h1m3 0h1M6 37.5h3m2 0h2m1 0h1m1 0h1m2 0h4m1 0h2m1 0h1m1 0h5m1 0h2m1 0h1m2 0h2m1 0h2m2 0h3m1 0h4m1 0h1m1 0h2m1 0h1m4 0h1m1 0h1m7 0h1m1 0h1m1 0h3m1 0h4m1 0h1m1 0h1m1 0h9m1 0h3M8 38.5h3m1 0h2m1 0h2m3 0h2m1 0h2m1 0h2m3 0h1m4 0h4m1 0h3m3 0h1m1 0h1m1 0h2m2 0h1m2 0h3m2 0h5m3 0h2m1 0h1m1 0h2m1 0h1m1 0h4m1 0h4m1 0h1m2 0h1m8 0h1m3 0h2M7 39.5h1m1 0h1m5 0h3m2 0h1m3 0h1m1 0h1m1 0h1m1 0h1m2 0h1m1 0h1m1 0h1m4 0h2m1 0h2m2 0h1m3 0h1m2 0h6m1 0h2m6 0h2m1 0h2m1 0h1m1 0h1m2 0h1m1 0h2m2 0h1m3 0h1m5 0h3m1 0h3m2 0h2M4 40.5h1m2 0h1m1 0h4m3 0h1m2 0h2m1 0h3m1 0h3m2 0h3m1 0h1m4 0h2m3 0h1m1 0h1m1 0h1m2 0h2m2 0h2m3 0h1m1 0h1m5 0h4m1 0h1m1 0h6m1 0h2m2 0h2m3 0h4m3 0h1m1 0h1m1 0h4m1 0h1M6 41.5h1m1 0h1m2 0h3m1 0h1m2 0h1m5 0h1m1 0h3m4 0h1m1 0h1m4 0h1m1 0h3m1 0h1m4 0h2m2 0h2m2 0h3m1 0h1m1 0h2m2 0h5m1 0h2m1 0h1m2 0h1m1 0h2m1 0h1m1 0h2m1 0h2m1 0h1m4 0h5m1 0h3M4 42.5h1m1 0h2m2 0h4m1 0h1m3 0h2m1 0h3m1 0h2m1 0h5m1 0h2m1 0h1m1 0h1m5 0h1m1 0h2m1 0h1m1 0h2m1 0h1m1 0h2m2 0h1m1 0h1m3 0h2m2 0h2m2 0h1m2 0h1m1 0h1m3 0h2m1 0h1m2 0h1m2 0h1m1 0h1m2 0h1m2 0h2M4 43.5h4m4 0h2m1 0h1m2 0h4m1 0h1m1 0h1m1 0h3m3 0h2m1 0h7m1 0h2m2 0h2m3 0h1m3 0h1m1 0h1m1 0h3m1 0h5m1 0h1m1 0h1m1 0h2m1 0h1m4 0h4m2 0h1m1 0h1m2 0h4m1 0h2m4 0h1m1 0h1M5 44.5h1m4 0h3m1 0h1m1 0h1m4 0h1m1 0h4m4 0h1m1 0h3m1 0h2m2 0h4m1 0h2m3 0h2m4 0h8m1 0h1m1 0h2m1 0h10m3 0h1m2 0h2m1 0h2m1 0h1m1 0h1m3 0h2m5 0h1M4 45.5h1m2 0h2m3 0h1m1 0h1m1 0h1m1 0h1m1 0h1m1 0h4m2 0h1m2 0h5m3 0h1m1 0h3m1 0h2m3 0h1m1 0h2m2 0h2m2 0h2m1 0h2m3 0h1m1 0h1m3 0h1m4 0h2m1 0h3m6 0h2m4 0h5m3 0h1m2 0h1M6 46.5h1m3 0h1m1 0h3m3 0h2m3 0h1m2 0h2m3 0h3m2 0h2m4 0h3m1 0h1m4 0h2m1 0h3m4 0h3m1 0h1m1 0h1m5 0h1m2 0h1m4 0h1m1 0h1m1 0h2m4 0h3m1 0h1m1 0h1m1 0h1m1 0h1m3 0h1M6 47.5h1m1 0h1m3 0h2m1 0h4m2 0h3m1 0h6m1 0h1m2 0h3m4 0h1m2 0h2m1 0h2m2 0h2m2 0h1m1 0h2m1 0h2m4 0h1m1 0h3m2 0h3m9 0h1m3 0h1m3 0h2m2 0h1m2 0h2m2 0h1m2 0h1M4 48.5h2m1 0h2m1 0h3m2 0h1m1 0h1m1 0h1m7 0h2m1 0h2m1 0h2m1 0h1m1 0h1m5 0h1m1 0h1m3 0h2m1 0h1m2 0h1m1 0h1m2 0h2m1 0h2m1 0h2m1 0h1m1 0h1m2 0h1m1 0h2m1 0h8m1 0h1m1 0h1m1 0h5m1 0h2m1 0h1m1 0h2m2 0h1M5 49.5h1m1 0h1m1 0h1m2 0h1m1 0h9m2 0h1m5 0h2m1 0h5m1 0h1m3 0h3m1 0h5m1 0h1m3 0h2m4 0h1m1 0h4m3 0h1m1 0h1m1 0h4m2 0h1m1 0h1m1 0h3m2 0h1m3 0h1m2 0h1m1 0h2m2 0h1M6 50.5h1m2 0h4m2 0h1m1 0h1m3 0h1m1 0h1m3 0h2m2 0h9m1 0h1m1 0h1m2 0h1m3 0h3m2 0h3m2 0h1m3 0h1m5 0h2m1 0h2m6 0h1m2 0h2m1 0h1m1 0h1m1 0h1m3 0h3m1 0h2m1 0h1m4 0h1M4 51.5h4m3 0h1m3 0h3m1 0h2m1 0h1m4 0h2m2 0h2m2 0h1m2 0h1m1 0h1m1 0h1m1 0h3m1 0h2m1 0h1m1 0h1m1 0h1m3 0h1m1 0h2m4 0h1m5 0h1m1 0h2m1 0h2m1 0h2m2 0h2m3 0h2m1 0h1m1 0h1m3 0h1m1 0h5m1 0h1M5 52.5h10m1 0h1m1 0h1m1 0h1m2 0h3m1 0h6m1 0h1m1 0h1m7 0h1m1 0h1m3 0h8m1 0h2m1 0h1m1 0h5m1 0h1m2 0h1m1 0h6m2 0h1m3 0h1m1 0h1m1 0h2m4 0h1m2 0h5m1 0h3M4 53.5h3m1 0h1m3 0h1m1 0h1m8 0h3m1 0h2m3 0h5m4 0h2m1 0h2m1 0h1m1 0h4m3 0h1m1 0h3m1 0h3m2 0h4m1 0h1m1 0h1m1 0h1m3 0h1m3 0h1m3 0h3m3 0h1m3 0h1m1 0h1m3 0h1m2 0h1M5 54.5h4m1 0h1m1 0h3m1 0h1m1 0h2m1 0h1m2 0h3m1 0h1m1 0h1m1 0h2m5 0h2m1 0h2m1 0h2m3 0h3m1 0h1m1 0h1m2 0h1m5 0h1m4 0h4m1 0h2m1 0h1m1 0h1m2 0h1m1 0h2m1 0h1m2 0h1m2 0h1m2 0h1m1 0h2m1 0h1m1 0h1m1 0h1m1 0h1M4 55.5h1m2 0h2m3 0h1m1 0h1m1 0h3m6 0h1m2 0h1m3 0h7m1 0h1m2 0h1m2 0h4m2 0h1m3 0h1m1 0h2m1 0h1m2 0h1m6 0h4m1 0h1m3 0h5m2 0h7m2 0h1m1 0h1m1 0h1m3 0h2M7 56.5h8m3 0h2m3 0h2m3 0h5m1 0h2m1 0h1m2 0h1m1 0h1m1 0h1m6 0h7m3 0h1m2 0h1m6 0h1m1 0h1m1 0h7m1 0h1m2 0h1m1 0h2m3 0h15M5 57.5h1m1 0h3m2 0h3m1 0h2m1 0h1m1 0h1m3 0h1m2 0h2m4 0h2m1 0h1m2 0h2m1 0h1m1 0h2m1 0h1m1 0h1m1 0h1m1 0h2m1 0h1m1 0h6m2 0h5m3 0h1m1 0h5m3 0h1m1 0h3m4 0h1m1 0h1m3 0h1m1 0h2m3 0h2M4 58.5h2m4 0h1m1 0h3m1 0h2m1 0h3m1 0h2m6 0h5m2 0h8m3 0h1m1 0h3m2 0h1m2 0h3m1 0h1m1 0h1m1 0h2m2 0h1m4 0h2m1 0h2m4 0h2m1 0h1m1 0h2m3 0h2m1 0h1m1 0h3m1 0h1m2 0h2M4 59.5h1m7 0h1m1 0h5m1 0h1m1 0h1m2 0h2m3 0h1m1 0h5m2 0h1m1 0h4m1 0h9m1 0h2m2 0h2m2 0h2m2 0h5m2 0h5m4 0h4m1 0h1m1 0h1m1 0h2m1 0h2m1 0h1m3 0h1m3 0h2M4 60.5h4m1 0h3m1 0h1m2 0h1m1 0h1m1 0h1m1 0h2m2 0h6m1 0h3m1 0h4m4 0h3m1 0h2m3 0h3m1 0h1m3 0h2m9 0h1m3 0h2m1 0h1m2 0h3m1 0h3m1 0h1m2 0h1m2 0h1m2 0h2m4 0h1m1 0h1M5 61.5h1m1 0h2m4 0h2m2 0h1m2 0h2m2 0h1m3 0h1m2 0h2m6 0h1m2 0h1m1 0h3m2 0h1m2 0h2m6 0h1m2 0h3m2 0h1m2 0h1m1 0h1m1 0h5m4 0h2m1 0h2m2 0h2m1 0h2m4 0h5m1 0h1m1 0h1M8 62.5h4m1 0h2m3 0h4m2 0h3m2 0h1m4 0h2m1 0h1m1 0h1m2 0h3m3 0h2m1 0h1m1 0h1m3 0h2m1 0h2m3 0h1m3 0h2m2 0h1m2 0h1m1 0h5m1 0h2m3 0h4m2 0h1m1 0h1m2 0h1m4 0h1M4 63.5h1m2 0h1m4 0h1m2 0h9m1 0h1m5 0h3m1 0h1m1 0h4m1 0h1m1 0h2m4 0h2m1 0h1m2 0h1m1 0h1m4 0h1m3 0h3m1 0h2m3 0h1m3 0h1m1 0h4m1 0h2m5 0h1m1 0h1m1 0h2m1 0h1m2 0h5M4 64.5h1m1 0h2m1 0h4m2 0h2m4 0h1m8 0h1m2 0h1m2 0h3m3 0h1m1 0h2m1 0h3m2 0h5m1 0h5m3 0h1m3 0h1m1 0h1m1 0h1m2 0h3m1 0h1m2 0h2m2 0h3m2 0h1m1 0h1m1 0h1m1 0h1m1 0h1m1 0h1m3 0h1M8 65.5h1m2 0h5m1 0h1m1 0h2m1 0h2m4 0h1m2 0h1m1 0h3m1 0h2m1 0h5m2 0h3m1 0h3m1 0h4m1 0h2m4 0h2m2 0h3m2 0h2m2 0h4m1 0h1m2 0h2m5 0h2m1 0h1m2 0h1m2 0h2m2 0h1M5 66.5h3m1 0h5m1 0h2m1 0h2m1 0h2m1 0h1m2 0h2m2 0h1m6 0h2m4 0h3m1 0h3m5 0h1m1 0h1m3 0h2m5 0h4m1 0h1m1 0h7m1 0h2m1 0h1m4 0h1m1 0h4m2 0h1m2 0h1M6 67.5h1m4 0h1m2 0h1m2 0h2m2 0h1m1 0h2m1 0h1m3 0h1m2 0h4m3 0h2m1 0h2m3 0h2m2 0h4m1 0h3m1 0h1m1 0h2m1 0h2m5 0h4m1 0h1m2 0h3m1 0h2m1 0h1m1 0h5m1 0h1m4 0h3m2 0h2M5 68.5h2m1 0h1m1 0h2m1 0h3m1 0h2m1 0h1m1 0h3m1 0h2m1 0h3m1 0h2m1 0h3m4 0h4m1 0h1m3 0h1m1 0h2m2 0h2m2 0h1m1 0h3m2 0h2m2 0h2m1 0h4m2 0h5m1 0h2m1 0h1m2 0h1m5 0h2m1 0h3M4 69.5h4m1 0h1m1 0h2m1 0h3m3 0h2m2 0h5m5 0h2m2 0h3m2 0h2m1 0h4m3 0h2m1 0h3m2 0h7m1 0h3m1 0h1m6 0h2m6 0h1m2 0h3m4 0h4m1 0h1m1 0h4M4 70.5h2m1 0h2m1 0h2m2 0h4m1 0h1m1 0h2m4 0h1m4 0h1m1 0h3m2 0h1m2 0h2m2 0h4m1 0h2m1 0h3m1 0h1m1 0h1m1 0h1m1 0h1m2 0h1m2 0h2m1 0h1m3 0h1m4 0h1m2 0h1m3 0h1m2 0h3m1 0h2m2 0h2m1 0h1m1 0h3M5 71.5h2m1 0h1m2 0h2m3 0h4m1 0h2m3 0h1m1 0h1m1 0h1m6 0h8m1 0h3m1 0h1m1 0h2m2 0h3m1 0h2m1 0h1m1 0h1m1 0h1m2 0h1m1 0h1m4 0h1m2 0h2m1 0h1m1 0h1m2 0h1m1 0h2m4 0h1m1 0h2m1 0h2m1 0h1m2 0h2M10 72.5h1m2 0h1m1 0h1m3 0h1m1 0h3m2 0h2m3 0h3m1 0h3m1 0h3m2 0h1m3 0h1m3 0h2m1 0h1m1 0h2m3 0h1m3 0h1m2 0h2m1 0h6m1 0h1m1 0h2m2 0h1m1 0h2m1 0h3m1 0h2m1 0h2m1 0h1m4 0h1m1 0h1M4 73.5h3m9 0h2m1 0h1m1 0h1m1 0h1m2 0h2m1 0h1m1 0h2m1 0h1m1 0h1m1 0h1m1 0h1m1 0h1m5 0h1m3 0h1m1 0h1m1 0h1m1 0h1m1 0h4m5 0h3m2 0h1m1 0h1m1 0h1m3 0h1m3 0h1m1 0h1m2 0h2m2 0h1m1 0h2m1 0h5m1 0h1m1 0h1M4 74.5h1m3 0h3m1 0h1m1 0h2m1 0h2m1 0h3m1 0h3m1 0h1m2 0h1m4 0h2m1 0h3m3 0h4m1 0h3m2 0h5m2 0h1m1 0h1m5 0h2m1 0h1m2 0h2m2 0h1m1 0h1m2 0h4m1 0h3m2 0h1m2 0h7m1 0h3M4 75.5h1m1 0h2m1 0h1m2 0h1m1 0h1m1 0h1m1 0h2m1 0h3m2 0h1m3 0h2m3 0h3m4 0h2m2 0h3m1 0h2m4 0h1m4 0h1m1 0h1m5 0h2m2 0h3m3 0h3m1 0h3m1 0h2m1 0h1m3 0h3m3 0h1m2 0h1m1 0h1m2 0h1M5 76.5h1m1 0h7m5 0h1m1 0h1m1 0h3m1 0h6m1 0h4m1 0h2m2 0h2m2 0h3m1 0h7m1 0h1m12 0h1m1 0h1m1 0h5m2 0h1m3 0h1m1 0h1m2 0h4m1 0h2m1 0h7m1 0h1M6 77.5h3m3 0h2m4 0h4m3 0h1m2 0h1m3 0h3m1 0h1m2 0h1m2 0h1m3 0h1m1 0h2m2 0h1m3 0h2m4 0h2m1 0h1m3 0h3m3 0h2m3 0h1m1 0h2m2 0h1m1 0h13m3 0h3M7 78.5h2m1 0h1m1 0h1m2 0h2m1 0h1m3 0h1m3 0h3m1 0h1m1 0h4m1 0h1m3 0h2m2 0h8m1 0h1m1 0h1m2 0h1m1 0h2m4 0h2m1 0h3m2 0h2m1 0h1m1 0h1m2 0h2m5 0h3m2 0h1m1 0h1m2 0h1m1 0h1m1 0h2m1 0h2M4 79.5h1m3 0h1m3 0h2m3 0h1m1 0h3m2 0h1m1 0h3m3 0h2m1 0h1m1 0h1m2 0h1m2 0h1m1 0h3m1 0h4m3 0h3m2 0h3m1 0h1m1 0h1m1 0h2m1 0h2m2 0h1m3 0h1m3 0h1m1 0h6m4 0h1m3 0h1m3 0h1m2 0h2M5 80.5h11m1 0h2m1 0h2m2 0h1m3 0h7m2 0h2m1 0h1m1 0h2m2 0h3m1 0h1m1 0h5m2 0h1m3 0h3m2 0h2m2 0h1m3 0h8m1 0h2m1 0h2m4 0h1m3 0h1m1 0h5M4 81.5h2m6 0h1m1 0h1m6 0h2m1 0h2m2 0h2m1 0h1m1 0h1m5 0h3m1 0h3m4 0h4m3 0h2m7 0h2m4 0h3m3 0h1m5 0h1m2 0h1m2 0h1m1 0h1m1 0h2m1 0h1m1 0h1m1 0h2m3 0h1M4 82.5h1m2 0h1m1 0h5m3 0h1m2 0h4m2 0h2m2 0h1m1 0h2m2 0h1m3 0h2m2 0h1m1 0h2m2 0h1m5 0h3m1 0h1m1 0h1m1 0h2m2 0h2m2 0h3m4 0h1m2 0h2m2 0h1m1 0h1m2 0h1m2 0h5m2 0h1m1 0h1m1 0h2M8 83.5h1m3 0h2m2 0h1m2 0h1m1 0h2m2 0h2m4 0h2m6 0h7m3 0h1m2 0h1m1 0h3m2 0h4m1 0h1m1 0h1m1 0h1m1 0h1m2 0h5m1 0h1m2 0h3m6 0h3m2 0h1m1 0h2m1 0h1m4 0h1m1 0h1M4 84.5h1m4 0h2m3 0h1m1 0h4m2 0h2m4 0h2m4 0h2m1 0h1m1 0h1m1 0h3m3 0h1m1 0h4m2 0h1m1 0h2m1 0h2m6 0h1m1 0h2m1 0h1m4 0h5m1 0h1m2 0h5m1 0h3m2 0h1m1 0h1m3 0h5M7 85.5h1m3 0h1m2 0h2m1 0h1m2 0h1m2 0h2m1 0h7m1 0h4m1 0h1m1 0h1m1 0h1m2 0h2m1 0h1m1 0h1m1 0h1m3 0h4m1 0h1m6 0h2m4 0h2m2 0h2m9 0h1m2 0h1m2 0h2m3 0h1m1 0h1m2 0h2M7 86.5h4m2 0h1m6 0h3m2 0h1m3 0h2m3 0h1m2 0h1m1 0h3m1 0h1m1 0h3m1 0h2m2 0h1m1 0h5m1 0h1m1 0h2m1 0h1m1 0h1m4 0h1m2 0h2m1 0h1m1 0h1m1 0h1m1 0h1m1 0h1m3 0h1m1 0h2m1 0h3m3 0h2m1 0h1M4 87.5h5m4 0h1m1 0h1m1 0h3m1 0h1m1 0h6m1 0h4m2 0h4m1 0h1m2 0h1m2 0h1m1 0h2m2 0h3m4 0h1m3 0h4m1 0h1m1 0h2m2 0h3m2 0h2m1 0h1m4 0h2m1 0h2m2 0h2m1 0h1m1 0h2m1 0h1m1 0h2m1 0h1M10 88.5h1m3 0h2m2 0h4m1 0h1m2 0h1m2 0h4m8 0h5m1 0h1m4 0h3m1 0h2m2 0h1m2 0h5m2 0h3m1 0h1m1 0h1m2 0h1m3 0h1m6 0h1m1 0h1m1 0h1m1 0h1m2 0h1m2 0h1m1 0h1m2 0h2M4 89.5h3m6 0h3m2 0h1m6 0h6m2 0h1m2 0h2m1 0h1m3 0h1m2 0h1m1 0h1m6 0h1m1 0h3m1 0h3m1 0h1m1 0h2m1 0h3m1 0h3m1 0h2m1 0h1m3 0h1m1 0h5m1 0h2m3 0h1m1 0h1m4 0h1M8 90.5h3m3 0h2m2 0h3m2 0h4m1 0h5m4 0h1m1 0h1m2 0h7m2 0h1m1 0h1m1 0h1m2 0h2m1 0h1m1 0h1m1 0h1m3 0h2m2 0h2m4 0h2m6 0h3m3 0h1m1 0h1m3 0h1m1 0h1m1 0h4M4 91.5h2m5 0h3m3 0h2m2 0h2m3 0h3m1 0h1m3 0h2m2 0h1m2 0h1m1 0h1m1 0h1m2 0h3m2 0h4m2 0h1m1 0h2m1 0h1m1 0h6m1 0h1m2 0h1m1 0h3m3 0h4m1 0h1m1 0h2m5 0h3m1 0h1m1 0h1m1 0h3M7 92.5h5m7 0h4m1 0h2m2 0h2m3 0h1m4 0h1m2 0h1m1 0h1m3 0h1m1 0h4m1 0h1m1 0h3m1 0h5m1 0h1m2 0h1m1 0h2m1 0h3m1 0h1m2 0h1m1 0h1m1 0h1m2 0h1m2 0h1m1 0h1m1 0h2m3 0h1m1 0h1M4 93.5h1m2 0h1m1 0h1m4 0h2m1 0h2m5 0h1m4 0h1m1 0h1m1 0h1m4 0h1m1 0h1m1 0h1m8 0h1m2 0h1m1 0h3m1 0h1m2 0h2m1 0h1m1 0h1m2 0h1m1 0h2m1 0h5m1 0h2m1 0h1m2 0h1m1 0h3m3 0h2m5 0h1m2 0h3M4 94.5h1m1 0h2m1 0h2m1 0h2m2 0h1m7 0h1m1 0h2m3 0h1m1 0h2m1 0h1m1 0h1m1 0h2m1 0h1m2 0h2m1 0h1m1 0h2m2 0h4m2 0h1m2 0h1m1 0h2m1 0h3m2 0h2m1 0h2m1 0h1m2 0h2m3 0h1m4 0h2m1 0h2m1 0h1m6 0h1M5 95.5h1m1 0h3m1 0h1m1 0h1m1 0h1m6 0h3m2 0h4m2 0h1m2 0h4m1 0h1m2 0h3m2 0h1m1 0h1m1 0h1m5 0h1m1 0h1m1 0h1m1 0h2m2 0h2m1 0h2m2 0h2m1 0h1m1 0h2m2 0h1m3 0h1m1 0h4m3 0h2m1 0h3m1 0h1m1 0h1M4 96.5h1m2 0h1m1 0h2m1 0h2m4 0h3m1 0h6m1 0h4m1 0h2m6 0h2m1 0h3m1 0h1m4 0h1m4 0h1m2 0h6m1 0h1m3 0h1m1 0h2m2 0h1m2 0h2m1 0h1m2 0h1m2 0h1m2 0h1m5 0h1m2 0h1m1 0h4M4 97.5h1m6 0h5m5 0h3m1 0h1m1 0h4m3 0h1m5 0h1m2 0h1m2 0h1m6 0h3m3 0h1m1 0h2m7 0h2m2 0h1m3 0h2m1 0h3m3 0h2m2 0h2m1 0h1m1 0h1m2 0h3m6 0h1M4 98.5h3m3 0h3m2 0h5m1 0h2m3 0h1m3 0h1m3 0h1m4 0h3m1 0h1m1 0h3m1 0h2m1 0h1m1 0h4m1 0h1m4 0h7m1 0h1m1 0h1m1 0h2m2 0h1m8 0h1m1 0h1m5 0h4m2 0h1m1 0h2m1 0h1M6 99.5h1m1 0h2m3 0h2m2 0h2m1 0h3m1 0h2m4 0h1m1 0h5m2 0h1m1 0h1m2 0h1m4 0h1m1 0h3m2 0h2m2 0h2m2 0h4m1 0h1m2 0h1m1 0h1m1 0h1m1 0h2m1 0h2m1 0h3m1 0h3m1 0h5m1 0h1m2 0h1M7 100.5h2m1 0h2m1 0h1m1 0h3m2 0h1m3 0h1m1 0h7m2 0h1m1 0h2m1 0h1m2 0h2m2 0h1m1 0h1m2 0h6m3 0h2m1 0h3m1 0h1m4 0h9m1 0h4m6 0h1m2 0h1m3 0h5m2 0h1M12 101.5h5m1 0h2m1 0h1m1 0h1m1 0h4m3 0h3m2 0h2m2 0h1m2 0h2m3 0h4m3 0h2m3 0h2m1 0h2m5 0h1m4 0h1m3 0h1m3 0h1m4 0h4m2 0h2m2 0h2m3 0h4M4 102.5h7m5 0h2m2 0h1m2 0h2m1 0h3m1 0h1m1 0h2m2 0h6m1 0h1m1 0h2m1 0h2m1 0h2m1 0h1m1 0h1m3 0h1m1 0h3m1 0h6m1 0h1m1 0h2m1 0h1m1 0h2m2 0h5m5 0h1m2 0h4m1 0h1m1 0h2m1 0h2M4 103.5h1m5 0h1m1 0h2m1 0h1m4 0h2m1 0h2m1 0h3m3 0h3m3 0h1m2 0h2m1 0h1m1 0h2m1 0h1m2 0h1m3 0h1m4 0h1m1 0h2m1 0h2m1 0h1m1 0h2m1 0h3m3 0h1m1 0h1m2 0h1m3 0h3m3 0h1m1 0h1m2 0h1m3 0h3M4 104.5h1m1 0h3m1 0h1m1 0h2m1 0h2m4 0h1m5 0h8m1 0h1m1 0h2m3 0h2m3 0h1m1 0h7m1 0h1m1 0h1m1 0h4m1 0h1m1 0h3m2 0h1m1 0h5m1 0h1m2 0h1m2 0h1m9 0h9m1 0h1M4 105.5h1m1 0h3m1 0h1m1 0h1m3 0h2m8 0h2m1 0h2m2 0h3m4 0h3m1 0h1m2 0h2m1 0h2m2 0h2m1 0h1m1 0h2m2 0h1m7 0h1m3 0h3m9 0h1m1 0h3m2 0h2m5 0h1m3 0h2m1 0h1M4 106.5h1m1 0h3m1 0h1m1 0h1m1 0h3m1 0h3m4 0h1m2 0h1m2 0h1m1 0h6m1 0h1m1 0h3m1 0h2m1 0h1m2 0h1m2 0h1m1 0h4m1 0h1m1 0h1m1 0h1m1 0h1m1 0h2m4 0h1m4 0h3m1 0h1m2 0h3m1 0h1m4 0h1m2 0h4m1 0h1m1 0h1M4 107.5h1m5 0h1m2 0h2m2 0h2m8 0h1m3 0h3m3 0h2m1 0h6m1 0h1m3 0h1m4 0h3m1 0h1m1 0h2m2 0h3m1 0h1m6 0h1m1 0h4m1 0h1m2 0h1m3 0h2m4 0h3m1 0h5m1 0h1M4 108.5h7m1 0h4m2 0h1m1 0h1m1 0h2m1 0h2m1 0h2m1 0h3m1 0h1m2 0h1m2 0h1m1 0h1m4 0h3m2 0h3m1 0h1m1 0h1m1 0h5m1 0h1m1 0h1m1 0h2m1 0h2m2 0h1m10 0h4m3 0h1m1 0h1m1 0h1m3 0h1"/></svg>
